ISO-10303-21;
HEADER;
/* Generated by software containing ST-Developer
 * from STEP Tools, Inc. (www.steptools.com) 
 */

FILE_DESCRIPTION(
/* description */ (''),
/* implementation_level */ '2;1');

FILE_NAME(
/* name */ 'f1 axle guide.step',
/* time_stamp */ '2026-03-09T15:20:02+08:00',
/* author */ (''),
/* organization */ (''),
/* preprocessor_version */ 'ST-DEVELOPER v20.1',
/* originating_system */ 'Autodesk Translation Framework v14.24.0.0',
/* authorisation */ '');

FILE_SCHEMA (('AUTOMOTIVE_DESIGN { 1 0 10303 214 3 1 1 }'));
ENDSEC;

DATA;
#10=MECHANICAL_DESIGN_GEOMETRIC_PRESENTATION_REPRESENTATION('',(#13,#14),
#218);
#11=SHAPE_REPRESENTATION_RELATIONSHIP('SRR','None',#225,#12);
#12=ADVANCED_BREP_SHAPE_REPRESENTATION('',(#15,#16),#217);
#13=STYLED_ITEM('',(#234),#15);
#14=STYLED_ITEM('',(#234),#16);
#15=MANIFOLD_SOLID_BREP('Body1',#117);
#16=MANIFOLD_SOLID_BREP('Body2',#118);
#17=FACE_BOUND('',#36,.T.);
#18=FACE_BOUND('',#38,.T.);
#19=FACE_BOUND('',#42,.T.);
#20=FACE_BOUND('',#44,.T.);
#21=PLANE('',#138);
#22=PLANE('',#139);
#23=PLANE('',#146);
#24=PLANE('',#147);
#25=FACE_OUTER_BOUND('',#33,.T.);
#26=FACE_OUTER_BOUND('',#34,.T.);
#27=FACE_OUTER_BOUND('',#35,.T.);
#28=FACE_OUTER_BOUND('',#37,.T.);
#29=FACE_OUTER_BOUND('',#39,.T.);
#30=FACE_OUTER_BOUND('',#40,.T.);
#31=FACE_OUTER_BOUND('',#41,.T.);
#32=FACE_OUTER_BOUND('',#43,.T.);
#33=EDGE_LOOP('',(#81,#82,#83,#84));
#34=EDGE_LOOP('',(#85,#86,#87,#88));
#35=EDGE_LOOP('',(#89));
#36=EDGE_LOOP('',(#90));
#37=EDGE_LOOP('',(#91));
#38=EDGE_LOOP('',(#92));
#39=EDGE_LOOP('',(#93,#94,#95,#96));
#40=EDGE_LOOP('',(#97,#98,#99,#100));
#41=EDGE_LOOP('',(#101));
#42=EDGE_LOOP('',(#102));
#43=EDGE_LOOP('',(#103));
#44=EDGE_LOOP('',(#104));
#45=LINE('',#191,#49);
#46=LINE('',#197,#50);
#47=LINE('',#205,#51);
#48=LINE('',#211,#52);
#49=VECTOR('',#154,1.75);
#50=VECTOR('',#161,2.74999999999999);
#51=VECTOR('',#172,1.75);
#52=VECTOR('',#179,2.74999999999999);
#53=CIRCLE('',#133,1.75);
#54=CIRCLE('',#134,1.75);
#55=CIRCLE('',#136,2.74999999999999);
#56=CIRCLE('',#137,2.74999999999999);
#57=CIRCLE('',#141,1.75);
#58=CIRCLE('',#142,1.75);
#59=CIRCLE('',#144,2.74999999999999);
#60=CIRCLE('',#145,2.74999999999999);
#61=VERTEX_POINT('',#188);
#62=VERTEX_POINT('',#190);
#63=VERTEX_POINT('',#194);
#64=VERTEX_POINT('',#196);
#65=VERTEX_POINT('',#202);
#66=VERTEX_POINT('',#204);
#67=VERTEX_POINT('',#208);
#68=VERTEX_POINT('',#210);
#69=EDGE_CURVE('',#61,#61,#53,.T.);
#70=EDGE_CURVE('',#61,#62,#45,.T.);
#71=EDGE_CURVE('',#62,#62,#54,.T.);
#72=EDGE_CURVE('',#63,#63,#55,.T.);
#73=EDGE_CURVE('',#63,#64,#46,.T.);
#74=EDGE_CURVE('',#64,#64,#56,.T.);
#75=EDGE_CURVE('',#65,#65,#57,.T.);
#76=EDGE_CURVE('',#65,#66,#47,.T.);
#77=EDGE_CURVE('',#66,#66,#58,.T.);
#78=EDGE_CURVE('',#67,#67,#59,.T.);
#79=EDGE_CURVE('',#67,#68,#48,.T.);
#80=EDGE_CURVE('',#68,#68,#60,.T.);
#81=ORIENTED_EDGE('',*,*,#69,.F.);
#82=ORIENTED_EDGE('',*,*,#70,.T.);
#83=ORIENTED_EDGE('',*,*,#71,.T.);
#84=ORIENTED_EDGE('',*,*,#70,.F.);
#85=ORIENTED_EDGE('',*,*,#72,.F.);
#86=ORIENTED_EDGE('',*,*,#73,.T.);
#87=ORIENTED_EDGE('',*,*,#74,.T.);
#88=ORIENTED_EDGE('',*,*,#73,.F.);
#89=ORIENTED_EDGE('',*,*,#72,.T.);
#90=ORIENTED_EDGE('',*,*,#69,.T.);
#91=ORIENTED_EDGE('',*,*,#74,.F.);
#92=ORIENTED_EDGE('',*,*,#71,.F.);
#93=ORIENTED_EDGE('',*,*,#75,.F.);
#94=ORIENTED_EDGE('',*,*,#76,.T.);
#95=ORIENTED_EDGE('',*,*,#77,.T.);
#96=ORIENTED_EDGE('',*,*,#76,.F.);
#97=ORIENTED_EDGE('',*,*,#78,.F.);
#98=ORIENTED_EDGE('',*,*,#79,.T.);
#99=ORIENTED_EDGE('',*,*,#80,.T.);
#100=ORIENTED_EDGE('',*,*,#79,.F.);
#101=ORIENTED_EDGE('',*,*,#78,.T.);
#102=ORIENTED_EDGE('',*,*,#75,.T.);
#103=ORIENTED_EDGE('',*,*,#80,.F.);
#104=ORIENTED_EDGE('',*,*,#77,.F.);
#105=CYLINDRICAL_SURFACE('',#132,1.75);
#106=CYLINDRICAL_SURFACE('',#135,2.74999999999999);
#107=CYLINDRICAL_SURFACE('',#140,1.75);
#108=CYLINDRICAL_SURFACE('',#143,2.74999999999999);
#109=ADVANCED_FACE('',(#25),#105,.F.);
#110=ADVANCED_FACE('',(#26),#106,.T.);
#111=ADVANCED_FACE('',(#27,#17),#21,.T.);
#112=ADVANCED_FACE('',(#28,#18),#22,.F.);
#113=ADVANCED_FACE('',(#29),#107,.F.);
#114=ADVANCED_FACE('',(#30),#108,.T.);
#115=ADVANCED_FACE('',(#31,#19),#23,.T.);
#116=ADVANCED_FACE('',(#32,#20),#24,.F.);
#117=CLOSED_SHELL('',(#109,#110,#111,#112));
#118=CLOSED_SHELL('',(#113,#114,#115,#116));
#119=DERIVED_UNIT_ELEMENT(#121,1.);
#120=DERIVED_UNIT_ELEMENT(#220,-3.);
#121=(
MASS_UNIT()
NAMED_UNIT(*)
SI_UNIT(.KILO.,.GRAM.)
);
#122=DERIVED_UNIT((#119,#120));
#123=MEASURE_REPRESENTATION_ITEM('density measure',
POSITIVE_RATIO_MEASURE(7850.),#122);
#124=PROPERTY_DEFINITION_REPRESENTATION(#129,#126);
#125=PROPERTY_DEFINITION_REPRESENTATION(#130,#127);
#126=REPRESENTATION('material name',(#128),#217);
#127=REPRESENTATION('density',(#123),#217);
#128=DESCRIPTIVE_REPRESENTATION_ITEM('Steel','Steel');
#129=PROPERTY_DEFINITION('material property','material name',#227);
#130=PROPERTY_DEFINITION('material property','density of part',#227);
#131=AXIS2_PLACEMENT_3D('',#186,#148,#149);
#132=AXIS2_PLACEMENT_3D('',#187,#150,#151);
#133=AXIS2_PLACEMENT_3D('',#189,#152,#153);
#134=AXIS2_PLACEMENT_3D('',#192,#155,#156);
#135=AXIS2_PLACEMENT_3D('',#193,#157,#158);
#136=AXIS2_PLACEMENT_3D('',#195,#159,#160);
#137=AXIS2_PLACEMENT_3D('',#198,#162,#163);
#138=AXIS2_PLACEMENT_3D('',#199,#164,#165);
#139=AXIS2_PLACEMENT_3D('',#200,#166,#167);
#140=AXIS2_PLACEMENT_3D('',#201,#168,#169);
#141=AXIS2_PLACEMENT_3D('',#203,#170,#171);
#142=AXIS2_PLACEMENT_3D('',#206,#173,#174);
#143=AXIS2_PLACEMENT_3D('',#207,#175,#176);
#144=AXIS2_PLACEMENT_3D('',#209,#177,#178);
#145=AXIS2_PLACEMENT_3D('',#212,#180,#181);
#146=AXIS2_PLACEMENT_3D('',#213,#182,#183);
#147=AXIS2_PLACEMENT_3D('',#214,#184,#185);
#148=DIRECTION('axis',(0.,0.,1.));
#149=DIRECTION('refdir',(1.,0.,0.));
#150=DIRECTION('center_axis',(0.,0.,1.));
#151=DIRECTION('ref_axis',(1.,0.,0.));
#152=DIRECTION('center_axis',(0.,0.,-1.));
#153=DIRECTION('ref_axis',(1.,0.,0.));
#154=DIRECTION('',(0.,0.,-1.));
#155=DIRECTION('center_axis',(0.,0.,-1.));
#156=DIRECTION('ref_axis',(1.,0.,0.));
#157=DIRECTION('center_axis',(0.,0.,1.));
#158=DIRECTION('ref_axis',(1.,0.,0.));
#159=DIRECTION('center_axis',(0.,0.,1.));
#160=DIRECTION('ref_axis',(1.,0.,0.));
#161=DIRECTION('',(0.,0.,-1.));
#162=DIRECTION('center_axis',(0.,0.,1.));
#163=DIRECTION('ref_axis',(1.,0.,0.));
#164=DIRECTION('center_axis',(0.,0.,1.));
#165=DIRECTION('ref_axis',(1.,0.,0.));
#166=DIRECTION('center_axis',(0.,0.,1.));
#167=DIRECTION('ref_axis',(1.,0.,0.));
#168=DIRECTION('center_axis',(0.,0.,1.));
#169=DIRECTION('ref_axis',(1.,0.,0.));
#170=DIRECTION('center_axis',(0.,0.,-1.));
#171=DIRECTION('ref_axis',(1.,0.,0.));
#172=DIRECTION('',(0.,0.,-1.));
#173=DIRECTION('center_axis',(0.,0.,-1.));
#174=DIRECTION('ref_axis',(1.,0.,0.));
#175=DIRECTION('center_axis',(0.,0.,1.));
#176=DIRECTION('ref_axis',(1.,0.,0.));
#177=DIRECTION('center_axis',(0.,0.,1.));
#178=DIRECTION('ref_axis',(1.,0.,0.));
#179=DIRECTION('',(0.,0.,-1.));
#180=DIRECTION('center_axis',(0.,0.,1.));
#181=DIRECTION('ref_axis',(1.,0.,0.));
#182=DIRECTION('center_axis',(0.,0.,1.));
#183=DIRECTION('ref_axis',(1.,0.,0.));
#184=DIRECTION('center_axis',(0.,0.,1.));
#185=DIRECTION('ref_axis',(1.,0.,0.));
#186=CARTESIAN_POINT('',(0.,0.,0.));
#187=CARTESIAN_POINT('Origin',(-50.,50.,0.));
#188=CARTESIAN_POINT('',(-51.75,50.,10.));
#189=CARTESIAN_POINT('Origin',(-50.,50.,10.));
#190=CARTESIAN_POINT('',(-51.75,50.,0.));
#191=CARTESIAN_POINT('',(-51.75,50.,0.));
#192=CARTESIAN_POINT('Origin',(-50.,50.,0.));
#193=CARTESIAN_POINT('Origin',(-50.,50.,0.));
#194=CARTESIAN_POINT('',(-52.75,50.,10.));
#195=CARTESIAN_POINT('Origin',(-50.,50.,10.));
#196=CARTESIAN_POINT('',(-52.75,50.,0.));
#197=CARTESIAN_POINT('',(-52.75,50.,0.));
#198=CARTESIAN_POINT('Origin',(-50.,50.,0.));
#199=CARTESIAN_POINT('Origin',(-50.,50.,10.));
#200=CARTESIAN_POINT('Origin',(-50.,50.,0.));
#201=CARTESIAN_POINT('Origin',(-38.8085308250261,50.,0.117886801754423));
#202=CARTESIAN_POINT('',(-40.5585308250261,50.,10.1178868017544));
#203=CARTESIAN_POINT('Origin',(-38.8085308250261,50.,10.1178868017544));
#204=CARTESIAN_POINT('',(-40.5585308250261,50.,0.117886801754423));
#205=CARTESIAN_POINT('',(-40.5585308250261,50.,0.117886801754423));
#206=CARTESIAN_POINT('Origin',(-38.8085308250261,50.,0.117886801754423));
#207=CARTESIAN_POINT('Origin',(-38.8085308250261,50.,0.117886801754423));
#208=CARTESIAN_POINT('',(-41.5585308250261,50.,10.1178868017544));
#209=CARTESIAN_POINT('Origin',(-38.8085308250261,50.,10.1178868017544));
#210=CARTESIAN_POINT('',(-41.5585308250261,50.,0.117886801754423));
#211=CARTESIAN_POINT('',(-41.5585308250261,50.,0.117886801754423));
#212=CARTESIAN_POINT('Origin',(-38.8085308250261,50.,0.117886801754423));
#213=CARTESIAN_POINT('Origin',(-38.8085308250261,50.,10.1178868017544));
#214=CARTESIAN_POINT('Origin',(-38.8085308250261,50.,0.117886801754423));
#215=UNCERTAINTY_MEASURE_WITH_UNIT(LENGTH_MEASURE(0.01),#219,
'DISTANCE_ACCURACY_VALUE',
'Maximum model space distance between geometric entities at asserted c
onnectivities');
#216=UNCERTAINTY_MEASURE_WITH_UNIT(LENGTH_MEASURE(0.01),#219,
'DISTANCE_ACCURACY_VALUE',
'Maximum model space distance between geometric entities at asserted c
onnectivities');
#217=(
GEOMETRIC_REPRESENTATION_CONTEXT(3)
GLOBAL_UNCERTAINTY_ASSIGNED_CONTEXT((#215))
GLOBAL_UNIT_ASSIGNED_CONTEXT((#219,#221,#222))
REPRESENTATION_CONTEXT('','3D')
);
#218=(
GEOMETRIC_REPRESENTATION_CONTEXT(3)
GLOBAL_UNCERTAINTY_ASSIGNED_CONTEXT((#216))
GLOBAL_UNIT_ASSIGNED_CONTEXT((#219,#221,#222))
REPRESENTATION_CONTEXT('','3D')
);
#219=(
LENGTH_UNIT()
NAMED_UNIT(*)
SI_UNIT(.MILLI.,.METRE.)
);
#220=(
LENGTH_UNIT()
NAMED_UNIT(*)
SI_UNIT($,.METRE.)
);
#221=(
NAMED_UNIT(*)
PLANE_ANGLE_UNIT()
SI_UNIT($,.RADIAN.)
);
#222=(
NAMED_UNIT(*)
SI_UNIT($,.STERADIAN.)
SOLID_ANGLE_UNIT()
);
#223=SHAPE_DEFINITION_REPRESENTATION(#224,#225);
#224=PRODUCT_DEFINITION_SHAPE('',$,#227);
#225=SHAPE_REPRESENTATION('',(#131),#217);
#226=PRODUCT_DEFINITION_CONTEXT('part definition',#231,'design');
#227=PRODUCT_DEFINITION('(Unsaved)','(Unsaved)',#228,#226);
#228=PRODUCT_DEFINITION_FORMATION('',$,#233);
#229=PRODUCT_RELATED_PRODUCT_CATEGORY('(Unsaved)','(Unsaved)',(#233));
#230=APPLICATION_PROTOCOL_DEFINITION('international standard',
'automotive_design',2009,#231);
#231=APPLICATION_CONTEXT(
'Core Data for Automotive Mechanical Design Process');
#232=PRODUCT_CONTEXT('part definition',#231,'mechanical');
#233=PRODUCT('(Unsaved)','(Unsaved)',$,(#232));
#234=PRESENTATION_STYLE_ASSIGNMENT((#235));
#235=SURFACE_STYLE_USAGE(.BOTH.,#236);
#236=SURFACE_SIDE_STYLE('',(#237));
#237=SURFACE_STYLE_FILL_AREA(#238);
#238=FILL_AREA_STYLE('Steel - Satin',(#239));
#239=FILL_AREA_STYLE_COLOUR('Steel - Satin',#240);
#240=COLOUR_RGB('Steel - Satin',0.627450980392157,0.627450980392157,0.627450980392157);
ENDSEC;
END-ISO-10303-21;
