  0
SECTION
  2
HEADER
  9
$ACADVER
  1
AC1009
  0
ENDSEC
  0
SECTION
  2
TABLES
  0
TABLE
  2
LAYER
  70
1
  0
LAYER
  2
Layer_2
  70
0
  62
1
  6
CONTINUOUS
  0
ENDTAB
  0
ENDSEC
  0
SECTION
  2
ENTITIES
  0
POLYLINE
  5
90
  8
Layer_2
  62
1
  66
1
  10
0
  20
0
  30
0
  0
VERTEX
  5
90
  8
Layer_2
  10
55.192524
  20
135.45204
  42
-0.02598727
  0
VERTEX
  5
91
  8
Layer_2
  10
55.491352
  20
135.6703
  0
SEQEND
  0
POLYLINE
  5
93
  8
Layer_2
  62
1
  66
1
  10
0
  20
0
  30
0
  0
VERTEX
  5
93
  8
Layer_2
  10
55.491352
  20
135.6703
  0
VERTEX
  5
94
  8
Layer_2
  10
55.565083
  20
135.71425
  0
SEQEND
  0
POLYLINE
  5
96
  8
Layer_2
  62
1
  66
1
  10
0
  20
0
  30
0
  0
VERTEX
  5
96
  8
Layer_2
  10
55.565083
  20
135.71425
  0
VERTEX
  5
97
  8
Layer_2
  10
55.775532
  20
135.8119
  0
SEQEND
  0
POLYLINE
  5
99
  8
Layer_2
  62
1
  66
1
  10
0
  20
0
  30
0
  0
VERTEX
  5
99
  8
Layer_2
  10
55.775532
  20
135.8119
  42
0.029724327
  0
VERTEX
  5
9a
  8
Layer_2
  10
56.490864
  20
136.20253
  0
SEQEND
  0
POLYLINE
  5
9c
  8
Layer_2
  62
1
  66
1
  10
0
  20
0
  30
0
  0
VERTEX
  5
9c
  8
Layer_2
  10
56.490864
  20
136.20253
  42
0.020212747
  0
VERTEX
  5
9d
  8
Layer_2
  10
56.773579
  20
136.39784
  0
SEQEND
  0
POLYLINE
  5
9f
  8
Layer_2
  62
1
  66
1
  10
0
  20
0
  30
0
  0
VERTEX
  5
9f
  8
Layer_2
  10
56.773579
  20
136.39784
  42
0.034453674
  0
VERTEX
  5
a0
  8
Layer_2
  10
57.055317
  20
136.64198
  0
SEQEND
  0
POLYLINE
  5
a2
  8
Layer_2
  62
1
  66
1
  10
0
  20
0
  30
0
  0
VERTEX
  5
a2
  8
Layer_2
  10
57.055317
  20
136.64198
  42
0.071700417
  0
VERTEX
  5
a3
  8
Layer_2
  10
57.318012
  20
136.98378
  0
SEQEND
  0
POLYLINE
  5
a5
  8
Layer_2
  62
1
  66
1
  10
0
  20
0
  30
0
  0
VERTEX
  5
a5
  8
Layer_2
  10
57.318012
  20
136.98378
  42
0.086220005
  0
VERTEX
  5
a6
  8
Layer_2
  10
57.420551
  20
137.27675
  0
SEQEND
  0
POLYLINE
  5
a8
  8
Layer_2
  62
1
  66
1
  10
0
  20
0
  30
0
  0
VERTEX
  5
a8
  8
Layer_2
  10
57.420551
  20
137.27675
  42
0.057187552
  0
VERTEX
  5
a9
  8
Layer_2
  10
57.44936
  20
137.96327
  0
SEQEND
  0
POLYLINE
  5
ab
  8
Layer_2
  62
1
  66
1
  10
0
  20
0
  30
0
  0
VERTEX
  5
ab
  8
Layer_2
  10
57.44936
  20
137.96327
  42
0.090400558
  0
VERTEX
  5
ac
  8
Layer_2
  10
57.288715
  20
138.59706
  0
SEQEND
  0
POLYLINE
  5
ae
  8
Layer_2
  62
1
  66
1
  10
0
  20
0
  30
0
  0
VERTEX
  5
ae
  8
Layer_2
  10
57.288715
  20
138.59706
  42
0.13691567
  0
VERTEX
  5
af
  8
Layer_2
  10
56.756001
  20
139.21425
  0
SEQEND
  0
POLYLINE
  5
b1
  8
Layer_2
  62
1
  66
1
  10
0
  20
0
  30
0
  0
VERTEX
  5
b1
  8
Layer_2
  10
56.756001
  20
139.21425
  42
0.02800598
  0
VERTEX
  5
b2
  8
Layer_2
  10
56.566059
  20
139.32753
  0
SEQEND
  0
POLYLINE
  5
b4
  8
Layer_2
  62
1
  66
1
  10
0
  20
0
  30
0
  0
VERTEX
  5
b4
  8
Layer_2
  10
56.566059
  20
139.32753
  42
0.091447889
  0
VERTEX
  5
b5
  8
Layer_2
  10
55.977192
  20
139.40858
  0
SEQEND
  0
POLYLINE
  5
b7
  8
Layer_2
  62
1
  66
1
  10
0
  20
0
  30
0
  0
VERTEX
  5
b7
  8
Layer_2
  10
55.977192
  20
139.40858
  42
0.11272215
  0
VERTEX
  5
b8
  8
Layer_2
  10
55.35268
  20
139.22987
  0
SEQEND
  0
POLYLINE
  5
ba
  8
Layer_2
  62
1
  66
1
  10
0
  20
0
  30
0
  0
VERTEX
  5
ba
  8
Layer_2
  10
55.35268
  20
139.22987
  42
0.077992302
  0
VERTEX
  5
bb
  8
Layer_2
  10
54.848774
  20
138.83534
  0
SEQEND
  0
POLYLINE
  5
bd
  8
Layer_2
  62
1
  66
1
  10
0
  20
0
  30
0
  0
VERTEX
  5
bd
  8
Layer_2
  10
54.848774
  20
138.83534
  42
0.047132218
  0
VERTEX
  5
be
  8
Layer_2
  10
54.448383
  20
138.32069
  0
SEQEND
  0
POLYLINE
  5
c0
  8
Layer_2
  62
1
  66
1
  10
0
  20
0
  30
0
  0
VERTEX
  5
c0
  8
Layer_2
  10
54.448383
  20
138.32069
  42
0.02432607
  0
VERTEX
  5
c1
  8
Layer_2
  10
54.197895
  20
137.8871
  0
SEQEND
  0
POLYLINE
  5
c3
  8
Layer_2
  62
1
  66
1
  10
0
  20
0
  30
0
  0
VERTEX
  5
c3
  8
Layer_2
  10
54.197895
  20
137.8871
  0
VERTEX
  5
c4
  8
Layer_2
  10
54.15395
  20
138.03261
  0
SEQEND
  0
POLYLINE
  5
c6
  8
Layer_2
  62
1
  66
1
  10
0
  20
0
  30
0
  0
VERTEX
  5
c6
  8
Layer_2
  10
54.15395
  20
138.03261
  42
0.04369789
  0
VERTEX
  5
c7
  8
Layer_2
  10
53.844868
  20
138.79677
  0
SEQEND
  0
POLYLINE
  5
c9
  8
Layer_2
  62
1
  66
1
  10
0
  20
0
  30
0
  0
VERTEX
  5
c9
  8
Layer_2
  10
53.844868
  20
138.79677
  42
0.060831632
  0
VERTEX
  5
ca
  8
Layer_2
  10
53.457172
  20
139.37587
  0
SEQEND
  0
POLYLINE
  5
cc
  8
Layer_2
  62
1
  66
1
  10
0
  20
0
  30
0
  0
VERTEX
  5
cc
  8
Layer_2
  10
53.457172
  20
139.37587
  42
0.078557569
  0
VERTEX
  5
cd
  8
Layer_2
  10
52.990376
  20
139.76991
  0
SEQEND
  0
POLYLINE
  5
cf
  8
Layer_2
  62
1
  66
1
  10
0
  20
0
  30
0
  0
VERTEX
  5
cf
  8
Layer_2
  10
52.990376
  20
139.76991
  42
0.11316909
  0
VERTEX
  5
d0
  8
Layer_2
  10
52.24477
  20
140.00624
  0
SEQEND
  0
POLYLINE
  5
d2
  8
Layer_2
  62
1
  66
1
  10
0
  20
0
  30
0
  0
VERTEX
  5
d2
  8
Layer_2
  10
52.362446
  20
135.87343
  0
VERTEX
  5
d3
  8
Layer_2
  10
52.460102
  20
135.80116
  0
SEQEND
  0
POLYLINE
  5
d5
  8
Layer_2
  62
1
  66
1
  10
0
  20
0
  30
0
  0
VERTEX
  5
d5
  8
Layer_2
  10
52.460102
  20
135.80116
  42
-0.037977916
  0
VERTEX
  5
d6
  8
Layer_2
  10
52.887348
  20
135.39833
  0
SEQEND
  0
POLYLINE
  5
d8
  8
Layer_2
  62
1
  66
1
  10
0
  20
0
  30
0
  0
VERTEX
  5
d8
  8
Layer_2
  10
52.887348
  20
135.39833
  0
VERTEX
  5
d9
  8
Layer_2
  10
53.003559
  20
135.26894
  0
SEQEND
  0
POLYLINE
  5
db
  8
Layer_2
  62
1
  66
1
  10
0
  20
0
  30
0
  0
VERTEX
  5
db
  8
Layer_2
  10
52.557491
  20
136.72046
  0
VERTEX
  5
dc
  8
Layer_2
  10
52.485226
  20
136.73755
  0
SEQEND
  0
POLYLINE
  5
de
  8
Layer_2
  62
1
  66
1
  10
0
  20
0
  30
0
  0
VERTEX
  5
de
  8
Layer_2
  10
52.485226
  20
136.73755
  42
-0.1516146
  0
VERTEX
  5
df
  8
Layer_2
  10
52.19128
  20
136.93091
  0
SEQEND
  0
POLYLINE
  5
e1
  8
Layer_2
  62
1
  66
1
  10
0
  20
0
  30
0
  0
VERTEX
  5
e1
  8
Layer_2
  10
52.19128
  20
136.93091
  42
-0.10607766
  0
VERTEX
  5
e2
  8
Layer_2
  10
51.999386
  20
137.31665
  0
SEQEND
  0
POLYLINE
  5
e4
  8
Layer_2
  62
1
  66
1
  10
0
  20
0
  30
0
  0
VERTEX
  5
e4
  8
Layer_2
  10
51.999386
  20
137.31665
  42
-0.061317533
  0
VERTEX
  5
e5
  8
Layer_2
  10
51.97546
  20
137.51636
  0
SEQEND
  0
POLYLINE
  5
e7
  8
Layer_2
  62
1
  66
1
  10
0
  20
0
  30
0
  0
VERTEX
  5
e7
  8
Layer_2
  10
51.97546
  20
137.51636
  42
-0.19142815
  0
VERTEX
  5
e8
  8
Layer_2
  10
52.261105
  20
138.11987
  0
SEQEND
  0
POLYLINE
  5
ea
  8
Layer_2
  62
1
  66
1
  10
0
  20
0
  30
0
  0
VERTEX
  5
ea
  8
Layer_2
  10
52.261105
  20
138.11987
  42
-0.12124572
  0
VERTEX
  5
eb
  8
Layer_2
  10
52.50964
  20
138.25562
  0
SEQEND
  0
POLYLINE
  5
ed
  8
Layer_2
  62
1
  66
1
  10
0
  20
0
  30
0
  0
VERTEX
  5
ed
  8
Layer_2
  10
52.50964
  20
138.25562
  42
-0.13170324
  0
VERTEX
  5
ee
  8
Layer_2
  10
52.871944
  20
138.24731
  0
SEQEND
  0
POLYLINE
  5
f0
  8
Layer_2
  62
1
  66
1
  10
0
  20
0
  30
0
  0
VERTEX
  5
f0
  8
Layer_2
  10
52.871944
  20
138.24731
  42
-0.11359989
  0
VERTEX
  5
f1
  8
Layer_2
  10
53.109737
  20
138.11304
  0
SEQEND
  0
POLYLINE
  5
f3
  8
Layer_2
  62
1
  66
1
  10
0
  20
0
  30
0
  0
VERTEX
  5
f3
  8
Layer_2
  10
53.109737
  20
138.11304
  42
-0.13287802
  0
VERTEX
  5
f4
  8
Layer_2
  10
53.339718
  20
137.74829
  0
SEQEND
  0
POLYLINE
  5
f6
  8
Layer_2
  62
1
  66
1
  10
0
  20
0
  30
0
  0
VERTEX
  5
f6
  8
Layer_2
  10
53.339718
  20
137.74829
  42
-0.13502659
  0
VERTEX
  5
f7
  8
Layer_2
  10
53.343136
  20
137.32495
  0
SEQEND
  0
POLYLINE
  5
f9
  8
Layer_2
  62
1
  66
1
  10
0
  20
0
  30
0
  0
VERTEX
  5
f9
  8
Layer_2
  10
53.343136
  20
137.32495
  42
-0.10467369
  0
VERTEX
  5
fa
  8
Layer_2
  10
53.183956
  20
137.00171
  0
SEQEND
  0
POLYLINE
  5
fc
  8
Layer_2
  62
1
  66
1
  10
0
  20
0
  30
0
  0
VERTEX
  5
fc
  8
Layer_2
  10
53.183956
  20
137.00171
  42
-0.093905133
  0
VERTEX
  5
fd
  8
Layer_2
  10
52.967648
  20
136.80151
  0
SEQEND
  0
POLYLINE
  5
ff
  8
Layer_2
  62
1
  66
1
  10
0
  20
0
  30
0
  0
VERTEX
  5
ff
  8
Layer_2
  10
52.967648
  20
136.80151
  42
-0.13844158
  0
VERTEX
  5
100
  8
Layer_2
  10
52.63464
  20
136.71069
  0
SEQEND
  0
POLYLINE
  5
102
  8
Layer_2
  62
1
  66
1
  10
0
  20
0
  30
0
  0
VERTEX
  5
102
  8
Layer_2
  10
52.63464
  20
136.71069
  0
VERTEX
  5
103
  8
Layer_2
  10
52.557491
  20
136.72046
  0
SEQEND
  0
POLYLINE
  5
105
  8
Layer_2
  62
1
  66
1
  10
0
  20
0
  30
0
  0
VERTEX
  5
105
  8
Layer_2
  10
17.039139
  20
122.56068
  42
0.069079577
  0
VERTEX
  5
106
  8
Layer_2
  10
17.223221
  20
122.61635
  0
SEQEND
  0
POLYLINE
  5
108
  8
Layer_2
  62
1
  66
1
  10
0
  20
0
  30
0
  0
VERTEX
  5
108
  8
Layer_2
  10
17.223221
  20
122.61635
  42
0.058335105
  0
VERTEX
  5
109
  8
Layer_2
  10
17.562576
  20
122.82582
  0
SEQEND
  0
POLYLINE
  5
10b
  8
Layer_2
  62
1
  66
1
  10
0
  20
0
  30
0
  0
VERTEX
  5
10b
  8
Layer_2
  10
17.562576
  20
122.82582
  42
0.13812888
  0
VERTEX
  5
10c
  8
Layer_2
  10
17.789139
  20
123.16518
  0
SEQEND
  0
POLYLINE
  5
10e
  8
Layer_2
  62
1
  66
1
  10
0
  20
0
  30
0
  0
VERTEX
  5
10e
  8
Layer_2
  10
17.789139
  20
123.16518
  42
0.073706333
  0
VERTEX
  5
10f
  8
Layer_2
  10
17.850662
  20
123.52553
  0
SEQEND
  0
POLYLINE
  5
111
  8
Layer_2
  62
1
  66
1
  10
0
  20
0
  30
0
  0
VERTEX
  5
111
  8
Layer_2
  10
17.850662
  20
123.52553
  0
VERTEX
  5
112
  8
Layer_2
  10
17.852127
  20
123.59438
  0
SEQEND
  0
POLYLINE
  5
114
  8
Layer_2
  62
1
  66
1
  10
0
  20
0
  30
0
  0
VERTEX
  5
114
  8
Layer_2
  10
17.852127
  20
123.59438
  0
VERTEX
  5
115
  8
Layer_2
  10
17.847733
  20
124.18617
  0
SEQEND
  0
POLYLINE
  5
117
  8
Layer_2
  62
1
  66
1
  10
0
  20
0
  30
0
  0
VERTEX
  5
117
  8
Layer_2
  10
17.847733
  20
124.18617
  42
-0.0086205183
  0
VERTEX
  5
118
  8
Layer_2
  10
17.871658
  20
126.23744
  0
SEQEND
  0
POLYLINE
  5
11a
  8
Layer_2
  62
1
  66
1
  10
0
  20
0
  30
0
  0
VERTEX
  5
11a
  8
Layer_2
  10
17.871658
  20
126.23744
  42
-0.01508165
  0
VERTEX
  5
11b
  8
Layer_2
  10
17.959549
  20
127.79164
  0
SEQEND
  0
POLYLINE
  5
11d
  8
Layer_2
  62
1
  66
1
  10
0
  20
0
  30
0
  0
VERTEX
  5
11d
  8
Layer_2
  10
17.959549
  20
127.79164
  42
-0.01689581
  0
VERTEX
  5
11e
  8
Layer_2
  10
18.073318
  20
128.71693
  0
SEQEND
  0
POLYLINE
  5
120
  8
Layer_2
  62
1
  66
1
  10
0
  20
0
  30
0
  0
VERTEX
  5
120
  8
Layer_2
  10
18.073318
  20
128.71693
  42
-0.011300351
  0
VERTEX
  5
121
  8
Layer_2
  10
18.146072
  20
129.11537
  0
SEQEND
  0
POLYLINE
  5
123
  8
Layer_2
  62
1
  66
1
  10
0
  20
0
  30
0
  0
VERTEX
  5
123
  8
Layer_2
  10
18.146072
  20
129.11537
  42
-0.046223725
  0
VERTEX
  5
124
  8
Layer_2
  10
18.454178
  20
130.14418
  0
SEQEND
  0
POLYLINE
  5
126
  8
Layer_2
  62
1
  66
1
  10
0
  20
0
  30
0
  0
VERTEX
  5
126
  8
Layer_2
  10
18.454178
  20
130.14418
  42
-0.029672691
  0
VERTEX
  5
127
  8
Layer_2
  10
18.637283
  20
130.52748
  0
SEQEND
  0
POLYLINE
  5
129
  8
Layer_2
  62
1
  66
1
  10
0
  20
0
  30
0
  0
VERTEX
  5
129
  8
Layer_2
  10
18.637283
  20
130.52748
  42
-0.061900818
  0
VERTEX
  5
12a
  8
Layer_2
  10
18.972733
  20
130.99086
  0
SEQEND
  0
POLYLINE
  5
12c
  8
Layer_2
  62
1
  66
1
  10
0
  20
0
  30
0
  0
VERTEX
  5
12c
  8
Layer_2
  10
18.972733
  20
130.99086
  42
-0.028249141
  0
VERTEX
  5
12d
  8
Layer_2
  10
19.719803
  20
131.73647
  0
SEQEND
  0
POLYLINE
  5
12f
  8
Layer_2
  62
1
  66
1
  10
0
  20
0
  30
0
  0
VERTEX
  5
12f
  8
Layer_2
  10
19.719803
  20
131.73647
  42
-0.065647945
  0
VERTEX
  5
130
  8
Layer_2
  10
19.981522
  20
131.93959
  0
SEQEND
  0
POLYLINE
  5
132
  8
Layer_2
  62
1
  66
1
  10
0
  20
0
  30
0
  0
VERTEX
  5
132
  8
Layer_2
  10
19.981522
  20
131.93959
  42
-0.035395026
  0
VERTEX
  5
133
  8
Layer_2
  10
20.302811
  20
132.10561
  0
SEQEND
  0
POLYLINE
  5
135
  8
Layer_2
  62
1
  66
1
  10
0
  20
0
  30
0
  0
VERTEX
  5
135
  8
Layer_2
  10
20.302811
  20
132.10561
  42
-0.082377232
  0
VERTEX
  5
136
  8
Layer_2
  10
20.79451
  20
132.21254
  0
SEQEND
  0
POLYLINE
  5
138
  8
Layer_2
  62
1
  66
1
  10
0
  20
0
  30
0
  0
VERTEX
  5
138
  8
Layer_2
  10
20.79451
  20
132.21254
  42
-0.026732956
  0
VERTEX
  5
139
  8
Layer_2
  10
21.013748
  20
132.21254
  0
SEQEND
  0
POLYLINE
  5
13b
  8
Layer_2
  62
1
  66
1
  10
0
  20
0
  30
0
  0
VERTEX
  5
13b
  8
Layer_2
  10
21.013748
  20
132.21254
  42
-0.053797782
  0
VERTEX
  5
13c
  8
Layer_2
  10
21.331131
  20
132.14809
  0
SEQEND
  0
POLYLINE
  5
13e
  8
Layer_2
  62
1
  66
1
  10
0
  20
0
  30
0
  0
VERTEX
  5
13e
  8
Layer_2
  10
21.331131
  20
132.14809
  42
-0.05682085
  0
VERTEX
  5
13f
  8
Layer_2
  10
21.772537
  20
131.9474
  0
SEQEND
  0
POLYLINE
  5
141
  8
Layer_2
  62
1
  66
1
  10
0
  20
0
  30
0
  0
VERTEX
  5
141
  8
Layer_2
  10
21.772537
  20
131.9474
  42
-0.021543816
  0
VERTEX
  5
142
  8
Layer_2
  10
21.943436
  20
131.83754
  0
SEQEND
  0
POLYLINE
  5
144
  8
Layer_2
  62
1
  66
1
  10
0
  20
0
  30
0
  0
VERTEX
  5
144
  8
Layer_2
  10
21.943436
  20
131.83754
  42
-0.070304377
  0
VERTEX
  5
145
  8
Layer_2
  10
22.318436
  20
131.46352
  0
SEQEND
  0
POLYLINE
  5
147
  8
Layer_2
  62
1
  66
1
  10
0
  20
0
  30
0
  0
VERTEX
  5
147
  8
Layer_2
  10
22.318436
  20
131.46352
  42
-0.02639464
  0
VERTEX
  5
148
  8
Layer_2
  10
22.479568
  20
131.22816
  0
SEQEND
  0
POLYLINE
  5
14a
  8
Layer_2
  62
1
  66
1
  10
0
  20
0
  30
0
  0
VERTEX
  5
14a
  8
Layer_2
  10
22.479568
  20
131.22816
  0
VERTEX
  5
14b
  8
Layer_2
  10
22.437576
  20
131.09877
  0
SEQEND
  0
POLYLINE
  5
14d
  8
Layer_2
  62
1
  66
1
  10
0
  20
0
  30
0
  0
VERTEX
  5
14d
  8
Layer_2
  10
22.437576
  20
131.09877
  42
0.071056807
  0
VERTEX
  5
14e
  8
Layer_2
  10
22.117264
  20
129.18666
  0
SEQEND
  0
POLYLINE
  5
150
  8
Layer_2
  62
1
  66
1
  10
0
  20
0
  30
0
  0
VERTEX
  5
150
  8
Layer_2
  10
22.117264
  20
129.18666
  42
0.048137073
  0
VERTEX
  5
151
  8
Layer_2
  10
22.251053
  20
127.46986
  0
SEQEND
  0
POLYLINE
  5
153
  8
Layer_2
  62
1
  66
1
  10
0
  20
0
  30
0
  0
VERTEX
  5
153
  8
Layer_2
  10
22.251053
  20
127.46986
  42
0.043017848
  0
VERTEX
  5
154
  8
Layer_2
  10
22.583084
  20
126.23402
  0
SEQEND
  0
POLYLINE
  5
156
  8
Layer_2
  62
1
  66
1
  10
0
  20
0
  30
0
  0
VERTEX
  5
156
  8
Layer_2
  10
22.583084
  20
126.23402
  42
0.039696301
  0
VERTEX
  5
157
  8
Layer_2
  10
23.010818
  20
125.29359
  0
SEQEND
  0
POLYLINE
  5
159
  8
Layer_2
  62
1
  66
1
  10
0
  20
0
  30
0
  0
VERTEX
  5
159
  8
Layer_2
  10
23.010818
  20
125.29359
  42
0.04791768
  0
VERTEX
  5
15a
  8
Layer_2
  10
23.569412
  20
124.48598
  0
SEQEND
  0
POLYLINE
  5
15c
  8
Layer_2
  62
1
  66
1
  10
0
  20
0
  30
0
  0
VERTEX
  5
15c
  8
Layer_2
  10
23.569412
  20
124.48598
  42
0.091547902
  0
VERTEX
  5
15d
  8
Layer_2
  10
24.899002
  20
123.39906
  0
SEQEND
  0
POLYLINE
  5
15f
  8
Layer_2
  62
1
  66
1
  10
0
  20
0
  30
0
  0
VERTEX
  5
15f
  8
Layer_2
  10
24.899002
  20
123.39906
  42
0.079407962
  0
VERTEX
  5
160
  8
Layer_2
  10
26.473221
  20
122.8683
  0
SEQEND
  0
POLYLINE
  5
162
  8
Layer_2
  62
1
  66
1
  10
0
  20
0
  30
0
  0
VERTEX
  5
162
  8
Layer_2
  10
26.473221
  20
122.8683
  42
0.086402916
  0
VERTEX
  5
163
  8
Layer_2
  10
28.582596
  20
122.87563
  0
SEQEND
  0
POLYLINE
  5
165
  8
Layer_2
  62
1
  66
1
  10
0
  20
0
  30
0
  0
VERTEX
  5
165
  8
Layer_2
  10
28.582596
  20
122.87563
  42
0.020741206
  0
VERTEX
  5
166
  8
Layer_2
  10
29.205154
  20
123.00404
  0
SEQEND
  0
POLYLINE
  5
168
  8
Layer_2
  62
1
  66
1
  10
0
  20
0
  30
0
  0
VERTEX
  5
168
  8
Layer_2
  10
29.205154
  20
123.00404
  42
0.05686964
  0
VERTEX
  5
169
  8
Layer_2
  10
30.660721
  20
123.55775
  0
SEQEND
  0
POLYLINE
  5
16b
  8
Layer_2
  62
1
  66
1
  10
0
  20
0
  30
0
  0
VERTEX
  5
16b
  8
Layer_2
  10
30.660721
  20
123.55775
  0
VERTEX
  5
16c
  8
Layer_2
  10
30.896561
  20
123.68422
  0
SEQEND
  0
POLYLINE
  5
16e
  8
Layer_2
  62
1
  66
1
  10
0
  20
0
  30
0
  0
VERTEX
  5
16e
  8
Layer_2
  10
30.896561
  20
123.68422
  42
0.027269977
  0
VERTEX
  5
16f
  8
Layer_2
  10
31.576248
  20
124.11635
  0
SEQEND
  0
POLYLINE
  5
171
  8
Layer_2
  62
1
  66
1
  10
0
  20
0
  30
0
  0
VERTEX
  5
171
  8
Layer_2
  10
31.576248
  20
124.11635
  0
VERTEX
  5
172
  8
Layer_2
  10
31.691971
  20
124.20229
  0
SEQEND
  0
POLYLINE
  5
174
  8
Layer_2
  62
1
  66
1
  10
0
  20
0
  30
0
  0
VERTEX
  5
174
  8
Layer_2
  10
31.691971
  20
124.20229
  0
VERTEX
  5
175
  8
Layer_2
  10
31.786697
  20
124.11049
  0
SEQEND
  0
POLYLINE
  5
177
  8
Layer_2
  62
1
  66
1
  10
0
  20
0
  30
0
  0
VERTEX
  5
177
  8
Layer_2
  10
31.786697
  20
124.11049
  42
0.03887523
  0
VERTEX
  5
178
  8
Layer_2
  10
32.506424
  20
123.52992
  0
SEQEND
  0
POLYLINE
  5
17a
  8
Layer_2
  62
1
  66
1
  10
0
  20
0
  30
0
  0
VERTEX
  5
17a
  8
Layer_2
  10
32.506424
  20
123.52992
  42
0.071758938
  0
VERTEX
  5
17b
  8
Layer_2
  10
33.649979
  20
122.97328
  0
SEQEND
  0
POLYLINE
  5
17d
  8
Layer_2
  62
1
  66
1
  10
0
  20
0
  30
0
  0
VERTEX
  5
17d
  8
Layer_2
  10
33.649979
  20
122.97328
  42
0.059004177
  0
VERTEX
  5
17e
  8
Layer_2
  10
34.744217
  20
122.76576
  0
SEQEND
  0
POLYLINE
  5
180
  8
Layer_2
  62
1
  66
1
  10
0
  20
0
  30
0
  0
VERTEX
  5
180
  8
Layer_2
  10
34.744217
  20
122.76576
  0
VERTEX
  5
181
  8
Layer_2
  10
34.9366
  20
122.75551
  0
SEQEND
  0
POLYLINE
  5
183
  8
Layer_2
  62
1
  66
1
  10
0
  20
0
  30
0
  0
VERTEX
  5
183
  8
Layer_2
  10
34.9366
  20
122.75551
  0
VERTEX
  5
184
  8
Layer_2
  10
35.318924
  20
122.74965
  0
SEQEND
  0
POLYLINE
  5
186
  8
Layer_2
  62
1
  66
1
  10
0
  20
0
  30
0
  0
VERTEX
  5
186
  8
Layer_2
  10
35.318924
  20
122.74965
  42
0.10334558
  0
VERTEX
  5
187
  8
Layer_2
  10
38.176346
  20
123.34145
  0
SEQEND
  0
POLYLINE
  5
189
  8
Layer_2
  62
1
  66
1
  10
0
  20
0
  30
0
  0
VERTEX
  5
189
  8
Layer_2
  10
38.176346
  20
123.34145
  42
0.040574513
  0
VERTEX
  5
18a
  8
Layer_2
  10
39.402908
  20
123.97865
  0
SEQEND
  0
POLYLINE
  5
18c
  8
Layer_2
  62
1
  66
1
  10
0
  20
0
  30
0
  0
VERTEX
  5
18c
  8
Layer_2
  10
39.402908
  20
123.97865
  42
0.043956388
  0
VERTEX
  5
18d
  8
Layer_2
  10
40.319412
  20
124.67641
  0
SEQEND
  0
POLYLINE
  5
18f
  8
Layer_2
  62
1
  66
1
  10
0
  20
0
  30
0
  0
VERTEX
  5
18f
  8
Layer_2
  10
40.319412
  20
124.67641
  0
VERTEX
  5
190
  8
Layer_2
  10
40.35408
  20
124.70375
  0
SEQEND
  0
POLYLINE
  5
192
  8
Layer_2
  62
1
  66
1
  10
0
  20
0
  30
0
  0
VERTEX
  5
192
  8
Layer_2
  10
40.35408
  20
124.70375
  42
-0.094461308
  0
VERTEX
  5
193
  8
Layer_2
  10
40.482498
  20
124.77016
  0
SEQEND
  0
POLYLINE
  5
195
  8
Layer_2
  62
1
  66
1
  10
0
  20
0
  30
0
  0
VERTEX
  5
195
  8
Layer_2
  10
40.482498
  20
124.77016
  42
-0.29372767
  0
VERTEX
  5
196
  8
Layer_2
  10
40.662674
  20
124.714
  0
SEQEND
  0
POLYLINE
  5
198
  8
Layer_2
  62
1
  66
1
  10
0
  20
0
  30
0
  0
VERTEX
  5
198
  8
Layer_2
  10
40.662674
  20
124.714
  42
-0.096967426
  0
VERTEX
  5
199
  8
Layer_2
  10
40.756912
  20
124.53969
  0
SEQEND
  0
POLYLINE
  5
19b
  8
Layer_2
  62
1
  66
1
  10
0
  20
0
  30
0
  0
VERTEX
  5
19b
  8
Layer_2
  10
40.756912
  20
124.53969
  42
-0.031378254
  0
VERTEX
  5
19c
  8
Layer_2
  10
40.799881
  20
124.38197
  0
SEQEND
  0
POLYLINE
  5
19e
  8
Layer_2
  62
1
  66
1
  10
0
  20
0
  30
0
  0
VERTEX
  5
19e
  8
Layer_2
  10
40.799881
  20
124.38197
  42
-0.032181836
  0
VERTEX
  5
19f
  8
Layer_2
  10
40.855057
  20
123.94594
  0
SEQEND
  0
POLYLINE
  5
1a1
  8
Layer_2
  62
1
  66
1
  10
0
  20
0
  30
0
  0
VERTEX
  5
1a1
  8
Layer_2
  10
40.855057
  20
123.94594
  0
VERTEX
  5
1a2
  8
Layer_2
  10
40.863846
  20
123.76527
  0
SEQEND
  0
POLYLINE
  5
1a4
  8
Layer_2
  62
1
  66
1
  10
0
  20
0
  30
0
  0
VERTEX
  5
1a4
  8
Layer_2
  10
40.863846
  20
123.76527
  0
VERTEX
  5
1a5
  8
Layer_2
  10
40.870682
  20
123.41371
  0
SEQEND
  0
POLYLINE
  5
1a7
  8
Layer_2
  62
1
  66
1
  10
0
  20
0
  30
0
  0
VERTEX
  5
1a7
  8
Layer_2
  10
40.870682
  20
123.41371
  42
0.16118019
  0
VERTEX
  5
1a8
  8
Layer_2
  10
40.981033
  20
123.11147
  0
SEQEND
  0
POLYLINE
  5
1aa
  8
Layer_2
  62
1
  66
1
  10
0
  20
0
  30
0
  0
VERTEX
  5
1aa
  8
Layer_2
  10
40.981033
  20
123.11147
  42
0.12914168
  0
VERTEX
  5
1ab
  8
Layer_2
  10
41.223221
  20
122.9474
  0
SEQEND
  0
POLYLINE
  5
1ad
  8
Layer_2
  62
1
  66
1
  10
0
  20
0
  30
0
  0
VERTEX
  5
1ad
  8
Layer_2
  10
41.223221
  20
122.9474
  42
0.049571392
  0
VERTEX
  5
1ae
  8
Layer_2
  10
41.627518
  20
122.83217
  0
SEQEND
  0
POLYLINE
  5
1b0
  8
Layer_2
  62
1
  66
1
  10
0
  20
0
  30
0
  0
VERTEX
  5
1b0
  8
Layer_2
  10
41.627518
  20
122.83217
  42
0.093682813
  0
VERTEX
  5
1b1
  8
Layer_2
  10
42.056229
  20
122.83461
  0
SEQEND
  0
POLYLINE
  5
1b3
  8
Layer_2
  62
1
  66
1
  10
0
  20
0
  30
0
  0
VERTEX
  5
1b3
  8
Layer_2
  10
42.056229
  20
122.83461
  42
0.049102717
  0
VERTEX
  5
1b4
  8
Layer_2
  10
42.574295
  20
122.98647
  0
SEQEND
  0
POLYLINE
  5
1b6
  8
Layer_2
  62
1
  66
1
  10
0
  20
0
  30
0
  0
VERTEX
  5
1b6
  8
Layer_2
  10
42.574295
  20
122.98647
  42
0.18429603
  0
VERTEX
  5
1b7
  8
Layer_2
  10
42.863846
  20
123.27455
  0
SEQEND
  0
POLYLINE
  5
1b9
  8
Layer_2
  62
1
  66
1
  10
0
  20
0
  30
0
  0
VERTEX
  5
1b9
  8
Layer_2
  10
42.863846
  20
123.27455
  42
0.057730249
  0
VERTEX
  5
1ba
  8
Layer_2
  10
42.918533
  20
123.44154
  0
SEQEND
  0
POLYLINE
  5
1bc
  8
Layer_2
  62
1
  66
1
  10
0
  20
0
  30
0
  0
VERTEX
  5
1bc
  8
Layer_2
  10
42.918533
  20
123.44154
  0
VERTEX
  5
1bd
  8
Layer_2
  10
42.951736
  20
123.41713
  0
SEQEND
  0
POLYLINE
  5
1bf
  8
Layer_2
  62
1
  66
1
  10
0
  20
0
  30
0
  0
VERTEX
  5
1bf
  8
Layer_2
  10
42.951736
  20
123.41713
  42
0.13601706
  0
VERTEX
  5
1c0
  8
Layer_2
  10
44.601151
  20
122.82191
  0
SEQEND
  0
POLYLINE
  5
1c2
  8
Layer_2
  62
1
  66
1
  10
0
  20
0
  30
0
  0
VERTEX
  5
1c2
  8
Layer_2
  10
44.601151
  20
122.82191
  0
VERTEX
  5
1c3
  8
Layer_2
  10
44.742264
  20
122.81313
  0
SEQEND
  0
POLYLINE
  5
1c5
  8
Layer_2
  62
1
  66
1
  10
0
  20
0
  30
0
  0
VERTEX
  5
1c5
  8
Layer_2
  10
44.742264
  20
122.81313
  42
0.027001945
  0
VERTEX
  5
1c6
  8
Layer_2
  10
45.729568
  20
122.82289
  0
SEQEND
  0
POLYLINE
  5
1c8
  8
Layer_2
  62
1
  66
1
  10
0
  20
0
  30
0
  0
VERTEX
  5
1c8
  8
Layer_2
  10
45.729568
  20
122.82289
  42
0.030318618
  0
VERTEX
  5
1c9
  8
Layer_2
  10
46.480545
  20
122.91664
  0
SEQEND
  0
POLYLINE
  5
1cb
  8
Layer_2
  62
1
  66
1
  10
0
  20
0
  30
0
  0
VERTEX
  5
1cb
  8
Layer_2
  10
46.480545
  20
122.91664
  42
0.059050092
  0
VERTEX
  5
1cc
  8
Layer_2
  10
47.37117
  20
123.19008
  0
SEQEND
  0
POLYLINE
  5
1ce
  8
Layer_2
  62
1
  66
1
  10
0
  20
0
  30
0
  0
VERTEX
  5
1ce
  8
Layer_2
  10
47.37117
  20
123.19008
  42
0.053526085
  0
VERTEX
  5
1cf
  8
Layer_2
  10
47.867264
  20
123.47816
  0
SEQEND
  0
POLYLINE
  5
1d1
  8
Layer_2
  62
1
  66
1
  10
0
  20
0
  30
0
  0
VERTEX
  5
1d1
  8
Layer_2
  10
47.867264
  20
123.47816
  42
0.017598213
  0
VERTEX
  5
1d2
  8
Layer_2
  10
48.434647
  20
123.92787
  0
SEQEND
  0
POLYLINE
  5
1d4
  8
Layer_2
  62
1
  66
1
  10
0
  20
0
  30
0
  0
VERTEX
  5
1d4
  8
Layer_2
  10
48.434647
  20
123.92787
  42
0.032233144
  0
VERTEX
  5
1d5
  8
Layer_2
  10
48.942947
  20
124.41566
  0
SEQEND
  0
POLYLINE
  5
1d7
  8
Layer_2
  62
1
  66
1
  10
0
  20
0
  30
0
  0
VERTEX
  5
1d7
  8
Layer_2
  10
48.942947
  20
124.41566
  42
0.042886416
  0
VERTEX
  5
1d8
  8
Layer_2
  10
49.210037
  20
124.7599
  0
SEQEND
  0
POLYLINE
  5
1da
  8
Layer_2
  62
1
  66
1
  10
0
  20
0
  30
0
  0
VERTEX
  5
1da
  8
Layer_2
  10
49.210037
  20
124.7599
  0
VERTEX
  5
1db
  8
Layer_2
  10
49.205643
  20
124.75063
  0
SEQEND
  0
POLYLINE
  5
1dd
  8
Layer_2
  62
1
  66
1
  10
0
  20
0
  30
0
  0
VERTEX
  5
1dd
  8
Layer_2
  10
49.205643
  20
124.75063
  42
0.073715657
  0
VERTEX
  5
1de
  8
Layer_2
  10
49.181229
  20
124.65492
  0
SEQEND
  0
POLYLINE
  5
1e0
  8
Layer_2
  62
1
  66
1
  10
0
  20
0
  30
0
  0
VERTEX
  5
1e0
  8
Layer_2
  10
49.181229
  20
124.65492
  42
0.041634167
  0
VERTEX
  5
1e1
  8
Layer_2
  10
49.169022
  20
124.30629
  0
SEQEND
  0
POLYLINE
  5
1e3
  8
Layer_2
  62
1
  66
1
  10
0
  20
0
  30
0
  0
VERTEX
  5
1e3
  8
Layer_2
  10
49.169022
  20
124.30629
  42
0.032879097
  0
VERTEX
  5
1e4
  8
Layer_2
  10
49.222733
  20
123.67006
  0
SEQEND
  0
POLYLINE
  5
1e6
  8
Layer_2
  62
1
  66
1
  10
0
  20
0
  30
0
  0
VERTEX
  5
1e6
  8
Layer_2
  10
49.222733
  20
123.67006
  42
0.1370645
  0
VERTEX
  5
1e7
  8
Layer_2
  10
49.503494
  20
123.0602
  0
SEQEND
  0
POLYLINE
  5
1e9
  8
Layer_2
  62
1
  66
1
  10
0
  20
0
  30
0
  0
VERTEX
  5
1e9
  8
Layer_2
  10
49.503494
  20
123.0602
  42
0.042657906
  0
VERTEX
  5
1ea
  8
Layer_2
  10
49.650955
  20
122.9059
  0
SEQEND
  0
POLYLINE
  5
1ec
  8
Layer_2
  62
1
  66
1
  10
0
  20
0
  30
0
  0
VERTEX
  5
1ec
  8
Layer_2
  10
49.650955
  20
122.9059
  42
0.15461817
  0
VERTEX
  5
1ed
  8
Layer_2
  10
50.01033
  20
122.75893
  0
SEQEND
  0
POLYLINE
  5
1ef
  8
Layer_2
  62
1
  66
1
  10
0
  20
0
  30
0
  0
VERTEX
  5
1ef
  8
Layer_2
  10
50.01033
  20
122.75893
  42
0.1212838
  0
VERTEX
  5
1f0
  8
Layer_2
  10
50.513748
  20
122.83656
  0
SEQEND
  0
POLYLINE
  5
1f2
  8
Layer_2
  62
1
  66
1
  10
0
  20
0
  30
0
  0
VERTEX
  5
1f2
  8
Layer_2
  10
50.513748
  20
122.83656
  42
0.18091052
  0
VERTEX
  5
1f3
  8
Layer_2
  10
50.919022
  20
123.22816
  0
SEQEND
  0
POLYLINE
  5
1f5
  8
Layer_2
  62
1
  66
1
  10
0
  20
0
  30
0
  0
VERTEX
  5
1f5
  8
Layer_2
  10
50.919022
  20
123.22816
  42
0.065414304
  0
VERTEX
  5
1f6
  8
Layer_2
  10
51.020096
  20
123.52016
  0
SEQEND
  0
POLYLINE
  5
1f8
  8
Layer_2
  62
1
  66
1
  10
0
  20
0
  30
0
  0
VERTEX
  5
1f8
  8
Layer_2
  10
51.430252
  20
140.33705
  42
0.033639196
  0
VERTEX
  5
1f9
  8
Layer_2
  10
51.334061
  20
140.42494
  0
SEQEND
  0
POLYLINE
  5
1fb
  8
Layer_2
  62
1
  66
1
  10
0
  20
0
  30
0
  0
VERTEX
  5
1fb
  8
Layer_2
  10
51.334061
  20
140.42494
  42
0.12313593
  0
VERTEX
  5
1fc
  8
Layer_2
  10
51.10994
  20
140.53334
  0
SEQEND
  0
POLYLINE
  5
1fe
  8
Layer_2
  62
1
  66
1
  10
0
  20
0
  30
0
  0
VERTEX
  5
1fe
  8
Layer_2
  10
51.10994
  20
140.53334
  0
VERTEX
  5
1ff
  8
Layer_2
  10
51.077713
  20
140.53773
  0
SEQEND
  0
POLYLINE
  5
201
  8
Layer_2
  62
1
  66
1
  10
0
  20
0
  30
0
  0
VERTEX
  5
201
  8
Layer_2
  10
51.077713
  20
140.53773
  0
VERTEX
  5
202
  8
Layer_2
  10
51.023514
  20
140.55727
  0
SEQEND
  0
POLYLINE
  5
204
  8
Layer_2
  62
1
  66
1
  10
0
  20
0
  30
0
  0
VERTEX
  5
204
  8
Layer_2
  10
51.023514
  20
140.55727
  42
0.10856295
  0
VERTEX
  5
205
  8
Layer_2
  10
50.722244
  20
140.59389
  0
SEQEND
  0
POLYLINE
  5
207
  8
Layer_2
  62
1
  66
1
  10
0
  20
0
  30
0
  0
VERTEX
  5
207
  8
Layer_2
  10
50.722244
  20
140.59389
  42
0.16997707
  0
VERTEX
  5
208
  8
Layer_2
  10
50.387772
  20
140.42885
  0
SEQEND
  0
POLYLINE
  5
20a
  8
Layer_2
  62
1
  66
1
  10
0
  20
0
  30
0
  0
VERTEX
  5
20a
  8
Layer_2
  10
50.387772
  20
140.42885
  42
0.074604712
  0
VERTEX
  5
20b
  8
Layer_2
  10
50.085526
  20
140.0182
  0
SEQEND
  0
POLYLINE
  5
20d
  8
Layer_2
  62
1
  66
1
  10
0
  20
0
  30
0
  0
VERTEX
  5
20d
  8
Layer_2
  10
50.085526
  20
140.0182
  42
0.070999113
  0
VERTEX
  5
20e
  8
Layer_2
  10
50.015701
  20
139.81752
  0
SEQEND
  0
POLYLINE
  5
210
  8
Layer_2
  62
1
  66
1
  10
0
  20
0
  30
0
  0
VERTEX
  5
210
  8
Layer_2
  10
50.015701
  20
139.81752
  42
0.061843043
  0
VERTEX
  5
211
  8
Layer_2
  10
49.970779
  20
139.68178
  0
SEQEND
  0
POLYLINE
  5
213
  8
Layer_2
  62
1
  66
1
  10
0
  20
0
  30
0
  0
VERTEX
  5
213
  8
Layer_2
  10
49.970779
  20
139.68178
  0
VERTEX
  5
214
  8
Layer_2
  10
49.951736
  20
139.60072
  0
SEQEND
  0
POLYLINE
  5
216
  8
Layer_2
  62
1
  66
1
  10
0
  20
0
  30
0
  0
VERTEX
  5
216
  8
Layer_2
  10
49.951736
  20
139.60072
  42
0.011980701
  0
VERTEX
  5
217
  8
Layer_2
  10
49.800369
  20
138.73793
  0
SEQEND
  0
POLYLINE
  5
219
  8
Layer_2
  62
1
  66
1
  10
0
  20
0
  30
0
  0
VERTEX
  5
219
  8
Layer_2
  10
49.800369
  20
138.73793
  42
0.0079396616
  0
VERTEX
  5
21a
  8
Layer_2
  10
49.43367
  20
136.07436
  0
SEQEND
  0
POLYLINE
  5
21c
  8
Layer_2
  62
1
  66
1
  10
0
  20
0
  30
0
  0
VERTEX
  5
21c
  8
Layer_2
  10
49.43367
  20
136.07436
  42
0.0099177821
  0
VERTEX
  5
21d
  8
Layer_2
  10
49.284256
  20
134.58803
  0
SEQEND
  0
POLYLINE
  5
21f
  8
Layer_2
  62
1
  66
1
  10
0
  20
0
  30
0
  0
VERTEX
  5
21f
  8
Layer_2
  10
49.284256
  20
134.58803
  42
0.0091700413
  0
VERTEX
  5
220
  8
Layer_2
  10
49.232986
  20
133.76088
  0
SEQEND
  0
POLYLINE
  5
222
  8
Layer_2
  62
1
  66
1
  10
0
  20
0
  30
0
  0
VERTEX
  5
222
  8
Layer_2
  10
49.232986
  20
133.76088
  42
0.0047187731
  0
VERTEX
  5
223
  8
Layer_2
  10
49.222244
  20
133.39662
  0
SEQEND
  0
POLYLINE
  5
225
  8
Layer_2
  62
1
  66
1
  10
0
  20
0
  30
0
  0
VERTEX
  5
225
  8
Layer_2
  10
49.222244
  20
133.39662
  0
VERTEX
  5
226
  8
Layer_2
  10
49.191971
  20
133.41762
  0
SEQEND
  0
POLYLINE
  5
228
  8
Layer_2
  62
1
  66
1
  10
0
  20
0
  30
0
  0
VERTEX
  5
228
  8
Layer_2
  10
49.191971
  20
133.41762
  0
VERTEX
  5
229
  8
Layer_2
  10
49.137283
  20
133.44936
  0
SEQEND
  0
POLYLINE
  5
22b
  8
Layer_2
  62
1
  66
1
  10
0
  20
0
  30
0
  0
VERTEX
  5
22b
  8
Layer_2
  10
49.137283
  20
133.44936
  42
0.011896631
  0
VERTEX
  5
22c
  8
Layer_2
  10
48.199783
  20
133.92299
  0
SEQEND
  0
POLYLINE
  5
22e
  8
Layer_2
  62
1
  66
1
  10
0
  20
0
  30
0
  0
VERTEX
  5
22e
  8
Layer_2
  10
48.199783
  20
133.92299
  42
0.063399864
  0
VERTEX
  5
22f
  8
Layer_2
  10
47.235428
  20
134.20815
  0
SEQEND
  0
POLYLINE
  5
231
  8
Layer_2
  62
1
  66
1
  10
0
  20
0
  30
0
  0
VERTEX
  5
231
  8
Layer_2
  10
47.235428
  20
134.20815
  42
0.042178101
  0
VERTEX
  5
232
  8
Layer_2
  10
46.231522
  20
134.28773
  0
SEQEND
  0
POLYLINE
  5
234
  8
Layer_2
  62
1
  66
1
  10
0
  20
0
  30
0
  0
VERTEX
  5
234
  8
Layer_2
  10
46.231522
  20
134.28773
  42
0.077179639
  0
VERTEX
  5
235
  8
Layer_2
  10
44.463455
  20
133.90492
  0
SEQEND
  0
POLYLINE
  5
237
  8
Layer_2
  62
1
  66
1
  10
0
  20
0
  30
0
  0
VERTEX
  5
237
  8
Layer_2
  10
44.463455
  20
133.90492
  42
0.071429556
  0
VERTEX
  5
238
  8
Layer_2
  10
43.056229
  20
133.11537
  0
SEQEND
  0
POLYLINE
  5
23a
  8
Layer_2
  62
1
  66
1
  10
0
  20
0
  30
0
  0
VERTEX
  5
23a
  8
Layer_2
  10
43.056229
  20
133.11537
  0
VERTEX
  5
23b
  8
Layer_2
  10
42.979568
  20
133.05385
  0
SEQEND
  0
POLYLINE
  5
23d
  8
Layer_2
  62
1
  66
1
  10
0
  20
0
  30
0
  0
VERTEX
  5
23d
  8
Layer_2
  10
42.979568
  20
133.05385
  0
VERTEX
  5
23e
  8
Layer_2
  10
42.981033
  20
133.46986
  0
SEQEND
  0
POLYLINE
  5
240
  8
Layer_2
  62
1
  66
1
  10
0
  20
0
  30
0
  0
VERTEX
  5
240
  8
Layer_2
  10
42.981033
  20
133.46986
  42
0.059579575
  0
VERTEX
  5
241
  8
Layer_2
  10
42.921951
  20
133.75209
  0
SEQEND
  0
POLYLINE
  5
243
  8
Layer_2
  62
1
  66
1
  10
0
  20
0
  30
0
  0
VERTEX
  5
243
  8
Layer_2
  10
42.921951
  20
133.75209
  42
0.11505462
  0
VERTEX
  5
244
  8
Layer_2
  10
42.681717
  20
134.1349
  0
SEQEND
  0
POLYLINE
  5
246
  8
Layer_2
  62
1
  66
1
  10
0
  20
0
  30
0
  0
VERTEX
  5
246
  8
Layer_2
  10
42.681717
  20
134.1349
  42
0.051660038
  0
VERTEX
  5
247
  8
Layer_2
  10
42.539627
  20
134.25014
  0
SEQEND
  0
POLYLINE
  5
249
  8
Layer_2
  62
1
  66
1
  10
0
  20
0
  30
0
  0
VERTEX
  5
249
  8
Layer_2
  10
42.539627
  20
134.25014
  42
0.051053635
  0
VERTEX
  5
24a
  8
Layer_2
  10
42.375076
  20
134.33217
  0
SEQEND
  0
POLYLINE
  5
24c
  8
Layer_2
  62
1
  66
1
  10
0
  20
0
  30
0
  0
VERTEX
  5
24c
  8
Layer_2
  10
42.375076
  20
134.33217
  42
0.046909021
  0
VERTEX
  5
24d
  8
Layer_2
  10
42.188553
  20
134.381
  0
SEQEND
  0
POLYLINE
  5
24f
  8
Layer_2
  62
1
  66
1
  10
0
  20
0
  30
0
  0
VERTEX
  5
24f
  8
Layer_2
  10
42.188553
  20
134.381
  42
0.095424478
  0
VERTEX
  5
250
  8
Layer_2
  10
41.633377
  20
134.35951
  0
SEQEND
  0
POLYLINE
  5
252
  8
Layer_2
  62
1
  66
1
  10
0
  20
0
  30
0
  0
VERTEX
  5
252
  8
Layer_2
  10
41.633377
  20
134.35951
  42
0.078207682
  0
VERTEX
  5
253
  8
Layer_2
  10
41.44783
  20
134.2809
  0
SEQEND
  0
POLYLINE
  5
255
  8
Layer_2
  62
1
  66
1
  10
0
  20
0
  30
0
  0
VERTEX
  5
255
  8
Layer_2
  10
41.44783
  20
134.2809
  0
VERTEX
  5
256
  8
Layer_2
  10
41.378006
  20
134.22816
  0
SEQEND
  0
POLYLINE
  5
258
  8
Layer_2
  62
1
  66
1
  10
0
  20
0
  30
0
  0
VERTEX
  5
258
  8
Layer_2
  10
41.378006
  20
134.22816
  42
-0.29422156
  0
VERTEX
  5
259
  8
Layer_2
  10
41.209549
  20
134.22231
  0
SEQEND
  0
POLYLINE
  5
25b
  8
Layer_2
  62
1
  66
1
  10
0
  20
0
  30
0
  0
VERTEX
  5
25b
  8
Layer_2
  10
41.209549
  20
134.22231
  42
-0.096441235
  0
VERTEX
  5
25c
  8
Layer_2
  10
41.076248
  20
134.33949
  0
SEQEND
  0
POLYLINE
  5
25e
  8
Layer_2
  62
1
  66
1
  10
0
  20
0
  30
0
  0
VERTEX
  5
25e
  8
Layer_2
  10
41.076248
  20
134.33949
  42
-0.031464441
  0
VERTEX
  5
25f
  8
Layer_2
  10
40.991287
  20
134.45863
  0
SEQEND
  0
POLYLINE
  5
261
  8
Layer_2
  62
1
  66
1
  10
0
  20
0
  30
0
  0
VERTEX
  5
261
  8
Layer_2
  10
40.991287
  20
134.45863
  0
VERTEX
  5
262
  8
Layer_2
  10
40.963455
  20
134.49281
  0
SEQEND
  0
POLYLINE
  5
264
  8
Layer_2
  62
1
  66
1
  10
0
  20
0
  30
0
  0
VERTEX
  5
264
  8
Layer_2
  10
40.963455
  20
134.49281
  42
0.034001978
  0
VERTEX
  5
265
  8
Layer_2
  10
40.8116
  20
134.64516
  0
SEQEND
  0
POLYLINE
  5
267
  8
Layer_2
  62
1
  66
1
  10
0
  20
0
  30
0
  0
VERTEX
  5
267
  8
Layer_2
  10
40.8116
  20
134.64516
  42
0.030528013
  0
VERTEX
  5
268
  8
Layer_2
  10
40.315506
  20
135.02016
  0
SEQEND
  0
POLYLINE
  5
26a
  8
Layer_2
  62
1
  66
1
  10
0
  20
0
  30
0
  0
VERTEX
  5
26a
  8
Layer_2
  10
40.315506
  20
135.02016
  42
0.018812401
  0
VERTEX
  5
26b
  8
Layer_2
  10
39.878006
  20
135.29701
  0
SEQEND
  0
POLYLINE
  5
26d
  8
Layer_2
  62
1
  66
1
  10
0
  20
0
  30
0
  0
VERTEX
  5
26d
  8
Layer_2
  10
39.878006
  20
135.29701
  42
0.041979319
  0
VERTEX
  5
26e
  8
Layer_2
  10
38.905838
  20
135.74232
  0
SEQEND
  0
POLYLINE
  5
270
  8
Layer_2
  62
1
  66
1
  10
0
  20
0
  30
0
  0
VERTEX
  5
270
  8
Layer_2
  10
38.905838
  20
135.74232
  42
0.018915468
  0
VERTEX
  5
271
  8
Layer_2
  10
38.269119
  20
135.94789
  0
SEQEND
  0
POLYLINE
  5
273
  8
Layer_2
  62
1
  66
1
  10
0
  20
0
  30
0
  0
VERTEX
  5
273
  8
Layer_2
  10
38.269119
  20
135.94789
  0
VERTEX
  5
274
  8
Layer_2
  10
38.026932
  20
135.98891
  0
SEQEND
  0
POLYLINE
  5
276
  8
Layer_2
  62
1
  66
1
  10
0
  20
0
  30
0
  0
VERTEX
  5
276
  8
Layer_2
  10
38.026932
  20
135.98891
  42
0.048248167
  0
VERTEX
  5
277
  8
Layer_2
  10
36.781326
  20
136.05092
  0
SEQEND
  0
POLYLINE
  5
279
  8
Layer_2
  62
1
  66
1
  10
0
  20
0
  30
0
  0
VERTEX
  5
279
  8
Layer_2
  10
36.781326
  20
136.05092
  42
0.025159709
  0
VERTEX
  5
27a
  8
Layer_2
  10
36.008377
  20
135.97475
  0
SEQEND
  0
POLYLINE
  5
27c
  8
Layer_2
  62
1
  66
1
  10
0
  20
0
  30
0
  0
VERTEX
  5
27c
  8
Layer_2
  10
36.008377
  20
135.97475
  42
0.05916739
  0
VERTEX
  5
27d
  8
Layer_2
  10
33.983475
  20
135.42494
  0
SEQEND
  0
POLYLINE
  5
27f
  8
Layer_2
  62
1
  66
1
  10
0
  20
0
  30
0
  0
VERTEX
  5
27f
  8
Layer_2
  10
33.983475
  20
135.42494
  42
0.035326988
  0
VERTEX
  5
280
  8
Layer_2
  10
33.04744
  20
134.96059
  0
SEQEND
  0
POLYLINE
  5
282
  8
Layer_2
  62
1
  66
1
  10
0
  20
0
  30
0
  0
VERTEX
  5
282
  8
Layer_2
  10
33.04744
  20
134.96059
  42
0.035754906
  0
VERTEX
  5
283
  8
Layer_2
  10
32.184158
  20
134.36586
  0
SEQEND
  0
POLYLINE
  5
285
  8
Layer_2
  62
1
  66
1
  10
0
  20
0
  30
0
  0
VERTEX
  5
285
  8
Layer_2
  10
32.184158
  20
134.36586
  0
VERTEX
  5
286
  8
Layer_2
  10
32.095779
  20
134.29262
  0
SEQEND
  0
POLYLINE
  5
288
  8
Layer_2
  62
1
  66
1
  10
0
  20
0
  30
0
  0
VERTEX
  5
288
  8
Layer_2
  10
32.095779
  20
134.29262
  0
VERTEX
  5
289
  8
Layer_2
  10
32.037186
  20
134.36928
  0
SEQEND
  0
POLYLINE
  5
28b
  8
Layer_2
  62
1
  66
1
  10
0
  20
0
  30
0
  0
VERTEX
  5
28b
  8
Layer_2
  10
32.037186
  20
134.36928
  42
0.031653428
  0
VERTEX
  5
28c
  8
Layer_2
  10
31.603592
  20
134.84926
  0
SEQEND
  0
POLYLINE
  5
28e
  8
Layer_2
  62
1
  66
1
  10
0
  20
0
  30
0
  0
VERTEX
  5
28e
  8
Layer_2
  10
31.603592
  20
134.84926
  42
0.044049423
  0
VERTEX
  5
28f
  8
Layer_2
  10
30.957596
  20
135.37709
  0
SEQEND
  0
POLYLINE
  5
291
  8
Layer_2
  62
1
  66
1
  10
0
  20
0
  30
0
  0
VERTEX
  5
291
  8
Layer_2
  10
30.957596
  20
135.37709
  0
VERTEX
  5
292
  8
Layer_2
  10
30.783768
  20
135.4894
  0
SEQEND
  0
POLYLINE
  5
294
  8
Layer_2
  62
1
  66
1
  10
0
  20
0
  30
0
  0
VERTEX
  5
294
  8
Layer_2
  10
30.783768
  20
135.4894
  42
0.065711972
  0
VERTEX
  5
295
  8
Layer_2
  10
29.657303
  20
135.98744
  0
SEQEND
  0
POLYLINE
  5
297
  8
Layer_2
  62
1
  66
1
  10
0
  20
0
  30
0
  0
VERTEX
  5
297
  8
Layer_2
  10
29.657303
  20
135.98744
  42
0.03431439
  0
VERTEX
  5
298
  8
Layer_2
  10
29.073318
  20
136.11586
  0
SEQEND
  0
POLYLINE
  5
29a
  8
Layer_2
  62
1
  66
1
  10
0
  20
0
  30
0
  0
VERTEX
  5
29a
  8
Layer_2
  10
29.073318
  20
136.11586
  42
0.057519378
  0
VERTEX
  5
29b
  8
Layer_2
  10
28.083572
  20
136.14613
  0
SEQEND
  0
POLYLINE
  5
29d
  8
Layer_2
  62
1
  66
1
  10
0
  20
0
  30
0
  0
VERTEX
  5
29d
  8
Layer_2
  10
28.083572
  20
136.14613
  42
0.032887326
  0
VERTEX
  5
29e
  8
Layer_2
  10
27.47908
  20
136.05482
  0
SEQEND
  0
POLYLINE
  5
2a0
  8
Layer_2
  62
1
  66
1
  10
0
  20
0
  30
0
  0
VERTEX
  5
2a0
  8
Layer_2
  10
27.47908
  20
136.05482
  42
0.088282158
  0
VERTEX
  5
2a1
  8
Layer_2
  10
25.549881
  20
135.23744
  0
SEQEND
  0
POLYLINE
  5
2a3
  8
Layer_2
  62
1
  66
1
  10
0
  20
0
  30
0
  0
VERTEX
  5
2a3
  8
Layer_2
  10
25.549881
  20
135.23744
  42
0.050989336
  0
VERTEX
  5
2a4
  8
Layer_2
  10
24.330154
  20
134.24086
  0
SEQEND
  0
POLYLINE
  5
2a6
  8
Layer_2
  62
1
  66
1
  10
0
  20
0
  30
0
  0
VERTEX
  5
2a6
  8
Layer_2
  10
24.330154
  20
134.24086
  42
0.036084518
  0
VERTEX
  5
2a7
  8
Layer_2
  10
23.597733
  20
133.39711
  0
SEQEND
  0
POLYLINE
  5
2a9
  8
Layer_2
  62
1
  66
1
  10
0
  20
0
  30
0
  0
VERTEX
  5
2a9
  8
Layer_2
  10
23.597733
  20
133.39711
  0
VERTEX
  5
2aa
  8
Layer_2
  10
23.559158
  20
133.44398
  0
SEQEND
  0
POLYLINE
  5
2ac
  8
Layer_2
  62
1
  66
1
  10
0
  20
0
  30
0
  0
VERTEX
  5
2ac
  8
Layer_2
  10
23.559158
  20
133.44398
  42
0.057365523
  0
VERTEX
  5
2ad
  8
Layer_2
  10
23.069412
  20
133.90297
  0
SEQEND
  0
POLYLINE
  5
2af
  8
Layer_2
  62
1
  66
1
  10
0
  20
0
  30
0
  0
VERTEX
  5
2af
  8
Layer_2
  10
23.069412
  20
133.90297
  42
0.071218411
  0
VERTEX
  5
2b0
  8
Layer_2
  10
22.175858
  20
134.40688
  0
SEQEND
  0
POLYLINE
  5
2b2
  8
Layer_2
  62
1
  66
1
  10
0
  20
0
  30
0
  0
VERTEX
  5
2b2
  8
Layer_2
  10
22.175858
  20
134.40688
  42
0.03867309
  0
VERTEX
  5
2b3
  8
Layer_2
  10
21.709549
  20
134.54408
  0
SEQEND
  0
POLYLINE
  5
2b5
  8
Layer_2
  62
1
  66
1
  10
0
  20
0
  30
0
  0
VERTEX
  5
2b5
  8
Layer_2
  10
21.709549
  20
134.54408
  42
0.025593389
  0
VERTEX
  5
2b6
  8
Layer_2
  10
21.337479
  20
134.60365
  0
SEQEND
  0
POLYLINE
  5
2b8
  8
Layer_2
  62
1
  66
1
  10
0
  20
0
  30
0
  0
VERTEX
  5
2b8
  8
Layer_2
  10
21.337479
  20
134.60365
  42
0.024927452
  0
VERTEX
  5
2b9
  8
Layer_2
  10
20.966385
  20
134.62367
  0
SEQEND
  0
POLYLINE
  5
2bb
  8
Layer_2
  62
1
  66
1
  10
0
  20
0
  30
0
  0
VERTEX
  5
2bb
  8
Layer_2
  10
20.966385
  20
134.62367
  42
0.025030201
  0
VERTEX
  5
2bc
  8
Layer_2
  10
20.595779
  20
134.60365
  0
SEQEND
  0
POLYLINE
  5
2be
  8
Layer_2
  62
1
  66
1
  10
0
  20
0
  30
0
  0
VERTEX
  5
2be
  8
Layer_2
  10
20.595779
  20
134.60365
  42
0.035810095
  0
VERTEX
  5
2bf
  8
Layer_2
  10
20.045486
  20
134.5016
  0
SEQEND
  0
POLYLINE
  5
2c1
  8
Layer_2
  62
1
  66
1
  10
0
  20
0
  30
0
  0
VERTEX
  5
2c1
  8
Layer_2
  10
20.045486
  20
134.5016
  42
0.035385199
  0
VERTEX
  5
2c2
  8
Layer_2
  10
19.550369
  20
134.33949
  0
SEQEND
  0
POLYLINE
  5
2c4
  8
Layer_2
  62
1
  66
1
  10
0
  20
0
  30
0
  0
VERTEX
  5
2c4
  8
Layer_2
  10
19.550369
  20
134.33949
  42
0.025452644
  0
VERTEX
  5
2c5
  8
Layer_2
  10
19.259354
  20
134.20326
  0
SEQEND
  0
POLYLINE
  5
2c7
  8
Layer_2
  62
1
  66
1
  10
0
  20
0
  30
0
  0
VERTEX
  5
2c7
  8
Layer_2
  10
19.259354
  20
134.20326
  42
0.075241491
  0
VERTEX
  5
2c8
  8
Layer_2
  10
18.491776
  20
133.61293
  0
SEQEND
  0
POLYLINE
  5
2ca
  8
Layer_2
  62
1
  66
1
  10
0
  20
0
  30
0
  0
VERTEX
  5
2ca
  8
Layer_2
  10
18.491776
  20
133.61293
  42
0.05136169
  0
VERTEX
  5
2cb
  8
Layer_2
  10
17.992752
  20
132.98305
  0
SEQEND
  0
POLYLINE
  5
2cd
  8
Layer_2
  62
1
  66
1
  10
0
  20
0
  30
0
  0
VERTEX
  5
2cd
  8
Layer_2
  10
17.992752
  20
132.98305
  42
0.033785268
  0
VERTEX
  5
2ce
  8
Layer_2
  10
17.90242
  20
132.81361
  0
SEQEND
  0
POLYLINE
  5
2d0
  8
Layer_2
  62
1
  66
1
  10
0
  20
0
  30
0
  0
VERTEX
  5
2d0
  8
Layer_2
  10
17.90242
  20
132.81361
  42
0.039450167
  0
VERTEX
  5
2d1
  8
Layer_2
  10
17.864822
  20
132.70619
  0
SEQEND
  0
POLYLINE
  5
2d3
  8
Layer_2
  62
1
  66
1
  10
0
  20
0
  30
0
  0
VERTEX
  5
2d3
  8
Layer_2
  10
17.864822
  20
132.70619
  42
0.063403059
  0
VERTEX
  5
2d4
  8
Layer_2
  10
17.852127
  20
132.61537
  0
SEQEND
  0
POLYLINE
  5
2d6
  8
Layer_2
  62
1
  66
1
  10
0
  20
0
  30
0
  0
VERTEX
  5
2d6
  8
Layer_2
  10
17.852127
  20
132.61537
  0
VERTEX
  5
2d7
  8
Layer_2
  10
17.852127
  20
135.30092
  0
SEQEND
  0
POLYLINE
  5
2d9
  8
Layer_2
  62
1
  66
1
  10
0
  20
0
  30
0
  0
VERTEX
  5
2d9
  8
Layer_2
  10
17.852127
  20
135.30092
  42
0.067651878
  0
VERTEX
  5
2da
  8
Layer_2
  10
17.80574
  20
135.68959
  0
SEQEND
  0
POLYLINE
  5
2dc
  8
Layer_2
  62
1
  66
1
  10
0
  20
0
  30
0
  0
VERTEX
  5
2dc
  8
Layer_2
  10
17.80574
  20
135.68959
  42
0.11341818
  0
VERTEX
  5
2dd
  8
Layer_2
  10
17.66658
  20
135.95766
  0
SEQEND
  0
POLYLINE
  5
2df
  8
Layer_2
  62
1
  66
1
  10
0
  20
0
  30
0
  0
VERTEX
  5
2df
  8
Layer_2
  10
17.66658
  20
135.95766
  42
0.093587903
  0
VERTEX
  5
2e0
  8
Layer_2
  10
17.522537
  20
136.06996
  0
SEQEND
  0
POLYLINE
  5
2e2
  8
Layer_2
  62
1
  66
1
  10
0
  20
0
  30
0
  0
VERTEX
  5
2e2
  8
Layer_2
  10
17.522537
  20
136.06996
  42
0.047151231
  0
VERTEX
  5
2e3
  8
Layer_2
  10
17.096756
  20
136.25063
  0
SEQEND
  0
POLYLINE
  5
2e5
  8
Layer_2
  62
1
  66
1
  10
0
  20
0
  30
0
  0
VERTEX
  5
2e5
  8
Layer_2
  10
17.096756
  20
136.25063
  42
0.029358889
  0
VERTEX
  5
2e6
  8
Layer_2
  10
16.985428
  20
136.27748
  0
SEQEND
  0
POLYLINE
  5
2e8
  8
Layer_2
  62
1
  66
1
  10
0
  20
0
  30
0
  0
VERTEX
  5
2e8
  8
Layer_2
  10
16.985428
  20
136.27748
  42
0.18831522
  0
VERTEX
  5
2e9
  8
Layer_2
  10
16.509354
  20
136.09193
  0
SEQEND
  0
POLYLINE
  5
2eb
  8
Layer_2
  62
1
  66
1
  10
0
  20
0
  30
0
  0
VERTEX
  5
2eb
  8
Layer_2
  10
16.509354
  20
136.09193
  42
0.14180673
  0
VERTEX
  5
2ec
  8
Layer_2
  10
16.182693
  20
135.56654
  0
SEQEND
  0
POLYLINE
  5
2ee
  8
Layer_2
  62
1
  66
1
  10
0
  20
0
  30
0
  0
VERTEX
  5
2ee
  8
Layer_2
  10
16.182693
  20
135.56654
  42
0.063325919
  0
VERTEX
  5
2ef
  8
Layer_2
  10
16.119705
  20
135.1476
  0
SEQEND
  0
POLYLINE
  5
2f1
  8
Layer_2
  62
1
  66
1
  10
0
  20
0
  30
0
  0
VERTEX
  5
2f1
  8
Layer_2
  10
16.119705
  20
135.1476
  0
VERTEX
  5
2f2
  8
Layer_2
  10
16.119217
  20
128.2765
  0
SEQEND
  0
POLYLINE
  5
2f4
  8
Layer_2
  62
1
  66
1
  10
0
  20
0
  30
0
  0
VERTEX
  5
2f4
  8
Layer_2
  10
16.119217
  20
128.2765
  0
VERTEX
  5
2f5
  8
Layer_2
  10
16.105545
  20
128.32289
  0
SEQEND
  0
POLYLINE
  5
2f7
  8
Layer_2
  62
1
  66
1
  10
0
  20
0
  30
0
  0
VERTEX
  5
2f7
  8
Layer_2
  10
16.105545
  20
128.32289
  42
0.011584341
  0
VERTEX
  5
2f8
  8
Layer_2
  10
15.559647
  20
130.02748
  0
SEQEND
  0
POLYLINE
  5
2fa
  8
Layer_2
  62
1
  66
1
  10
0
  20
0
  30
0
  0
VERTEX
  5
2fa
  8
Layer_2
  10
15.559647
  20
130.02748
  42
0.010262903
  0
VERTEX
  5
2fb
  8
Layer_2
  10
14.682205
  20
132.41371
  0
SEQEND
  0
POLYLINE
  5
2fd
  8
Layer_2
  62
1
  66
1
  10
0
  20
0
  30
0
  0
VERTEX
  5
2fd
  8
Layer_2
  10
14.682205
  20
132.41371
  42
0.012020132
  0
VERTEX
  5
2fe
  8
Layer_2
  10
13.947342
  20
134.17152
  0
SEQEND
  0
POLYLINE
  5
300
  8
Layer_2
  62
1
  66
1
  10
0
  20
0
  30
0
  0
VERTEX
  5
300
  8
Layer_2
  10
13.947342
  20
134.17152
  0
VERTEX
  5
301
  8
Layer_2
  10
13.844803
  20
134.3976
  0
SEQEND
  0
POLYLINE
  5
303
  8
Layer_2
  62
1
  66
1
  10
0
  20
0
  30
0
  0
VERTEX
  5
303
  8
Layer_2
  10
13.844803
  20
134.3976
  42
0.01198112
  0
VERTEX
  5
304
  8
Layer_2
  10
13.031326
  20
135.98305
  0
SEQEND
  0
POLYLINE
  5
306
  8
Layer_2
  62
1
  66
1
  10
0
  20
0
  30
0
  0
VERTEX
  5
306
  8
Layer_2
  10
13.031326
  20
135.98305
  42
0.014159713
  0
VERTEX
  5
307
  8
Layer_2
  10
12.491287
  20
136.91371
  0
SEQEND
  0
POLYLINE
  5
309
  8
Layer_2
  62
1
  66
1
  10
0
  20
0
  30
0
  0
VERTEX
  5
309
  8
Layer_2
  10
12.491287
  20
136.91371
  0
VERTEX
  5
30a
  8
Layer_2
  10
12.324783
  20
137.17445
  0
SEQEND
  0
POLYLINE
  5
30c
  8
Layer_2
  62
1
  66
1
  10
0
  20
0
  30
0
  0
VERTEX
  5
30c
  8
Layer_2
  10
12.324783
  20
137.17445
  0
VERTEX
  5
30d
  8
Layer_2
  10
11.776932
  20
138.00307
  0
SEQEND
  0
POLYLINE
  5
30f
  8
Layer_2
  62
1
  66
1
  10
0
  20
0
  30
0
  0
VERTEX
  5
30f
  8
Layer_2
  10
11.776932
  20
138.00307
  42
0.0051479127
  0
VERTEX
  5
310
  8
Layer_2
  10
11.440018
  20
138.49916
  0
SEQEND
  0
POLYLINE
  5
312
  8
Layer_2
  62
1
  66
1
  10
0
  20
0
  30
0
  0
VERTEX
  5
312
  8
Layer_2
  10
11.440018
  20
138.49916
  0
VERTEX
  5
313
  8
Layer_2
  10
11.607498
  20
138.79799
  0
SEQEND
  0
POLYLINE
  5
315
  8
Layer_2
  62
1
  66
1
  10
0
  20
0
  30
0
  0
VERTEX
  5
315
  8
Layer_2
  10
11.607498
  20
138.79799
  42
0.039894604
  0
VERTEX
  5
316
  8
Layer_2
  10
11.671951
  20
138.93861
  0
SEQEND
  0
POLYLINE
  5
318
  8
Layer_2
  62
1
  66
1
  10
0
  20
0
  30
0
  0
VERTEX
  5
318
  8
Layer_2
  10
11.671951
  20
138.93861
  42
0.0228226
  0
VERTEX
  5
319
  8
Layer_2
  10
11.757401
  20
139.06703
  0
SEQEND
  0
POLYLINE
  5
31b
  8
Layer_2
  62
1
  66
1
  10
0
  20
0
  30
0
  0
VERTEX
  5
31b
  8
Layer_2
  10
11.757401
  20
139.06703
  42
0.070048247
  0
VERTEX
  5
31c
  8
Layer_2
  10
11.78035
  20
139.12074
  0
SEQEND
  0
POLYLINE
  5
31e
  8
Layer_2
  62
1
  66
1
  10
0
  20
0
  30
0
  0
VERTEX
  5
31e
  8
Layer_2
  10
11.78035
  20
139.12074
  0
VERTEX
  5
31f
  8
Layer_2
  10
11.781815
  20
139.13393
  0
SEQEND
  0
POLYLINE
  5
321
  8
Layer_2
  62
1
  66
1
  10
0
  20
0
  30
0
  0
VERTEX
  5
321
  8
Layer_2
  10
11.781815
  20
139.13393
  0
VERTEX
  5
322
  8
Layer_2
  10
11.794998
  20
139.19691
  0
SEQEND
  0
POLYLINE
  5
324
  8
Layer_2
  62
1
  66
1
  10
0
  20
0
  30
0
  0
VERTEX
  5
324
  8
Layer_2
  10
11.794998
  20
139.19691
  42
0.0698792
  0
VERTEX
  5
325
  8
Layer_2
  10
11.797928
  20
139.56557
  0
SEQEND
  0
POLYLINE
  5
327
  8
Layer_2
  62
1
  66
1
  10
0
  20
0
  30
0
  0
VERTEX
  5
327
  8
Layer_2
  10
11.797928
  20
139.56557
  42
0.053083586
  0
VERTEX
  5
328
  8
Layer_2
  10
11.723709
  20
139.90541
  0
SEQEND
  0
POLYLINE
  5
32a
  8
Layer_2
  62
1
  66
1
  10
0
  20
0
  30
0
  0
VERTEX
  5
32a
  8
Layer_2
  10
11.723709
  20
139.90541
  42
0.095884281
  0
VERTEX
  5
32b
  8
Layer_2
  10
11.577225
  20
140.16518
  0
SEQEND
  0
POLYLINE
  5
32d
  8
Layer_2
  62
1
  66
1
  10
0
  20
0
  30
0
  0
VERTEX
  5
32d
  8
Layer_2
  10
11.577225
  20
140.16518
  42
0.095336915
  0
VERTEX
  5
32e
  8
Layer_2
  10
11.412674
  20
140.29604
  0
SEQEND
  0
POLYLINE
  5
330
  8
Layer_2
  62
1
  66
1
  10
0
  20
0
  30
0
  0
VERTEX
  5
330
  8
Layer_2
  10
11.412674
  20
140.29604
  42
0.091694204
  0
VERTEX
  5
331
  8
Layer_2
  10
10.977615
  20
140.46303
  0
SEQEND
  0
POLYLINE
  5
333
  8
Layer_2
  62
1
  66
1
  10
0
  20
0
  30
0
  0
VERTEX
  5
333
  8
Layer_2
  10
10.977615
  20
140.46303
  42
0.13038989
  0
VERTEX
  5
334
  8
Layer_2
  10
10.505936
  20
140.42201
  0
SEQEND
  0
POLYLINE
  5
336
  8
Layer_2
  62
1
  66
1
  10
0
  20
0
  30
0
  0
VERTEX
  5
336
  8
Layer_2
  10
10.505936
  20
140.42201
  42
0.0508299
  0
VERTEX
  5
337
  8
Layer_2
  10
10.199783
  20
140.27846
  0
SEQEND
  0
POLYLINE
  5
339
  8
Layer_2
  62
1
  66
1
  10
0
  20
0
  30
0
  0
VERTEX
  5
339
  8
Layer_2
  10
10.199783
  20
140.27846
  42
0.064341525
  0
VERTEX
  5
33a
  8
Layer_2
  10
9.9668732
  20
140.09584
  0
SEQEND
  0
POLYLINE
  5
33c
  8
Layer_2
  62
1
  66
1
  10
0
  20
0
  30
0
  0
VERTEX
  5
33c
  8
Layer_2
  10
9.9668732
  20
140.09584
  42
0.050338046
  0
VERTEX
  5
33d
  8
Layer_2
  10
9.8531036
  20
139.9518
  0
SEQEND
  0
POLYLINE
  5
33f
  8
Layer_2
  62
1
  66
1
  10
0
  20
0
  30
0
  0
VERTEX
  5
33f
  8
Layer_2
  10
9.8531036
  20
139.9518
  42
0.0026934007
  0
VERTEX
  5
340
  8
Layer_2
  10
9.1319122
  20
138.59535
  0
SEQEND
  0
POLYLINE
  5
342
  8
Layer_2
  62
1
  66
1
  10
0
  20
0
  30
0
  0
VERTEX
  5
342
  8
Layer_2
  10
9.1319122
  20
138.59535
  42
0.01406389
  0
VERTEX
  5
343
  8
Layer_2
  10
8.6582794
  20
137.59438
  0
SEQEND
  0
POLYLINE
  5
345
  8
Layer_2
  62
1
  66
1
  10
0
  20
0
  30
0
  0
VERTEX
  5
345
  8
Layer_2
  10
8.6582794
  20
137.59438
  42
0.016470151
  0
VERTEX
  5
346
  8
Layer_2
  10
7.6587677
  20
135.08217
  0
SEQEND
  0
POLYLINE
  5
348
  8
Layer_2
  62
1
  66
1
  10
0
  20
0
  30
0
  0
VERTEX
  5
348
  8
Layer_2
  10
7.6587677
  20
135.08217
  42
0.015874225
  0
VERTEX
  5
349
  8
Layer_2
  10
6.7993927
  20
132.37611
  0
SEQEND
  0
POLYLINE
  5
34b
  8
Layer_2
  62
1
  66
1
  10
0
  20
0
  30
0
  0
VERTEX
  5
34b
  8
Layer_2
  10
6.7993927
  20
132.37611
  42
0.0084862128
  0
VERTEX
  5
34c
  8
Layer_2
  10
6.2320099
  20
130.25453
  0
SEQEND
  0
POLYLINE
  5
34e
  8
Layer_2
  62
1
  66
1
  10
0
  20
0
  30
0
  0
VERTEX
  5
34e
  8
Layer_2
  10
6.2320099
  20
130.25453
  42
0.020085678
  0
VERTEX
  5
34f
  8
Layer_2
  10
5.5894318
  20
127.04945
  0
SEQEND
  0
POLYLINE
  5
351
  8
Layer_2
  62
1
  66
1
  10
0
  20
0
  30
0
  0
VERTEX
  5
351
  8
Layer_2
  10
5.5894318
  20
127.04945
  42
0.013986657
  0
VERTEX
  5
352
  8
Layer_2
  10
5.171463
  20
123.84926
  0
SEQEND
  0
POLYLINE
  5
354
  8
Layer_2
  62
1
  66
1
  10
0
  20
0
  30
0
  0
VERTEX
  5
354
  8
Layer_2
  10
5.171463
  20
123.84926
  42
0.14614558
  0
VERTEX
  5
355
  8
Layer_2
  10
5.2818146
  20
123.3058
  0
SEQEND
  0
POLYLINE
  5
357
  8
Layer_2
  62
1
  66
1
  10
0
  20
0
  30
0
  0
VERTEX
  5
357
  8
Layer_2
  10
5.2818146
  20
123.3058
  42
0.084486507
  0
VERTEX
  5
358
  8
Layer_2
  10
5.5191193
  20
122.98256
  0
SEQEND
  0
POLYLINE
  5
35a
  8
Layer_2
  62
1
  66
1
  10
0
  20
0
  30
0
  0
VERTEX
  5
35a
  8
Layer_2
  10
5.5191193
  20
122.98256
  42
0.16662548
  0
VERTEX
  5
35b
  8
Layer_2
  10
6.018631
  20
122.75746
  0
SEQEND
  0
POLYLINE
  5
35d
  8
Layer_2
  62
1
  66
1
  10
0
  20
0
  30
0
  0
VERTEX
  5
35d
  8
Layer_2
  10
6.018631
  20
122.75746
  42
0.064800192
  0
VERTEX
  5
35e
  8
Layer_2
  10
6.4434357
  20
122.77357
  0
SEQEND
  0
POLYLINE
  5
360
  8
Layer_2
  62
1
  66
1
  10
0
  20
0
  30
0
  0
VERTEX
  5
360
  8
Layer_2
  10
6.4434357
  20
122.77357
  42
0.15932745
  0
VERTEX
  5
361
  8
Layer_2
  10
6.9038849
  20
123.01381
  0
SEQEND
  0
POLYLINE
  5
363
  8
Layer_2
  62
1
  66
1
  10
0
  20
0
  30
0
  0
VERTEX
  5
363
  8
Layer_2
  10
6.9038849
  20
123.01381
  42
0.042061611
  0
VERTEX
  5
364
  8
Layer_2
  10
7.0327911
  20
123.17787
  0
SEQEND
  0
POLYLINE
  5
366
  8
Layer_2
  62
1
  66
1
  10
0
  20
0
  30
0
  0
VERTEX
  5
366
  8
Layer_2
  10
7.0327911
  20
123.17787
  42
0.062826417
  0
VERTEX
  5
367
  8
Layer_2
  10
7.2398224
  20
123.55141
  0
SEQEND
  0
POLYLINE
  5
369
  8
Layer_2
  62
1
  66
1
  10
0
  20
0
  30
0
  0
VERTEX
  5
369
  8
Layer_2
  10
7.2398224
  20
123.55141
  42
0.038563578
  0
VERTEX
  5
36a
  8
Layer_2
  10
7.27742
  20
123.67982
  0
SEQEND
  0
POLYLINE
  5
36c
  8
Layer_2
  62
1
  66
1
  10
0
  20
0
  30
0
  0
VERTEX
  5
36c
  8
Layer_2
  10
7.27742
  20
123.67982
  0
VERTEX
  5
36d
  8
Layer_2
  10
7.3413849
  20
124.25404
  0
SEQEND
  0
POLYLINE
  5
36f
  8
Layer_2
  62
1
  66
1
  10
0
  20
0
  30
0
  0
VERTEX
  5
36f
  8
Layer_2
  10
7.3413849
  20
124.25404
  42
-0.01259956
  0
VERTEX
  5
370
  8
Layer_2
  10
7.655838
  20
126.43422
  0
SEQEND
  0
POLYLINE
  5
372
  8
Layer_2
  62
1
  66
1
  10
0
  20
0
  30
0
  0
VERTEX
  5
372
  8
Layer_2
  10
7.655838
  20
126.43422
  42
-0.0036929008
  0
VERTEX
  5
373
  8
Layer_2
  10
7.9121857
  20
127.92787
  0
SEQEND
  0
POLYLINE
  5
375
  8
Layer_2
  62
1
  66
1
  10
0
  20
0
  30
0
  0
VERTEX
  5
375
  8
Layer_2
  10
7.9121857
  20
127.92787
  0
VERTEX
  5
376
  8
Layer_2
  10
13.844803
  20
128.61147
  0
SEQEND
  0
POLYLINE
  5
378
  8
Layer_2
  62
1
  66
1
  10
0
  20
0
  30
0
  0
VERTEX
  5
378
  8
Layer_2
  10
13.844803
  20
128.61147
  42
-0.0088491766
  0
VERTEX
  5
379
  8
Layer_2
  10
14.612381
  20
125.91518
  0
SEQEND
  0
POLYLINE
  5
37b
  8
Layer_2
  62
1
  66
1
  10
0
  20
0
  30
0
  0
VERTEX
  5
37b
  8
Layer_2
  10
14.612381
  20
125.91518
  42
-0.018378276
  0
VERTEX
  5
37c
  8
Layer_2
  10
15.133865
  20
123.55824
  0
SEQEND
  0
POLYLINE
  5
37e
  8
Layer_2
  62
1
  66
1
  10
0
  20
0
  30
0
  0
VERTEX
  5
37e
  8
Layer_2
  10
15.133865
  20
123.55824
  0
VERTEX
  5
37f
  8
Layer_2
  10
15.144119
  20
123.51137
  0
SEQEND
  0
POLYLINE
  5
381
  8
Layer_2
  62
1
  66
1
  10
0
  20
0
  30
0
  0
VERTEX
  5
381
  8
Layer_2
  10
15.144119
  20
123.51137
  42
0.16404162
  0
VERTEX
  5
382
  8
Layer_2
  10
15.405838
  20
123.11684
  0
SEQEND
  0
POLYLINE
  5
384
  8
Layer_2
  62
1
  66
1
  10
0
  20
0
  30
0
  0
VERTEX
  5
384
  8
Layer_2
  10
15.405838
  20
123.11684
  42
0.049690803
  0
VERTEX
  5
385
  8
Layer_2
  10
15.590408
  20
122.99623
  0
SEQEND
  0
POLYLINE
  5
387
  8
Layer_2
  62
1
  66
1
  10
0
  20
0
  30
0
  0
VERTEX
  5
387
  8
Layer_2
  10
15.590408
  20
122.99623
  42
0.059193846
  0
VERTEX
  5
388
  8
Layer_2
  10
15.986893
  20
122.83754
  0
SEQEND
  0
POLYLINE
  5
38a
  8
Layer_2
  62
1
  66
1
  10
0
  20
0
  30
0
  0
VERTEX
  5
38a
  8
Layer_2
  10
15.986893
  20
122.83754
  42
0.059529526
  0
VERTEX
  5
38b
  8
Layer_2
  10
16.26033
  20
122.79848
  0
SEQEND
  0
POLYLINE
  5
38d
  8
Layer_2
  62
1
  66
1
  10
0
  20
0
  30
0
  0
VERTEX
  5
38d
  8
Layer_2
  10
16.26033
  20
122.79848
  0
VERTEX
  5
38e
  8
Layer_2
  10
16.338455
  20
122.80043
  0
SEQEND
  0
POLYLINE
  5
390
  8
Layer_2
  62
1
  66
1
  10
0
  20
0
  30
0
  0
VERTEX
  5
390
  8
Layer_2
  10
16.338455
  20
122.80043
  0
VERTEX
  5
391
  8
Layer_2
  10
16.37117
  20
122.77504
  0
SEQEND
  0
POLYLINE
  5
393
  8
Layer_2
  62
1
  66
1
  10
0
  20
0
  30
0
  0
VERTEX
  5
393
  8
Layer_2
  10
16.37117
  20
122.77504
  42
0.046355462
  0
VERTEX
  5
394
  8
Layer_2
  10
16.528885
  20
122.68764
  0
SEQEND
  0
POLYLINE
  5
396
  8
Layer_2
  62
1
  66
1
  10
0
  20
0
  30
0
  0
VERTEX
  5
396
  8
Layer_2
  10
16.528885
  20
122.68764
  42
0.047786794
  0
VERTEX
  5
397
  8
Layer_2
  10
16.812576
  20
122.5807
  0
SEQEND
  0
POLYLINE
  5
399
  8
Layer_2
  62
1
  66
1
  10
0
  20
0
  30
0
  0
VERTEX
  5
399
  8
Layer_2
  10
16.812576
  20
122.5807
  42
0.064979018
  0
VERTEX
  5
39a
  8
Layer_2
  10
16.985428
  20
122.55678
  0
SEQEND
  0
POLYLINE
  5
39c
  8
Layer_2
  62
1
  66
1
  10
0
  20
0
  30
0
  0
VERTEX
  5
39c
  8
Layer_2
  10
16.985428
  20
122.55678
  0
VERTEX
  5
39d
  8
Layer_2
  10
17.039139
  20
122.56068
  0
SEQEND
  0
POLYLINE
  5
39f
  8
Layer_2
  62
1
  66
1
  10
0
  20
0
  30
0
  0
VERTEX
  5
39f
  8
Layer_2
  10
8.1450958
  20
130.52797
  42
-0.012877439
  0
VERTEX
  5
3a0
  8
Layer_2
  10
8.7144318
  20
132.35902
  0
SEQEND
  0
POLYLINE
  5
3a2
  8
Layer_2
  62
1
  66
1
  10
0
  20
0
  30
0
  0
VERTEX
  5
3a2
  8
Layer_2
  10
8.7144318
  20
132.35902
  42
-0.011399447
  0
VERTEX
  5
3a3
  8
Layer_2
  10
9.1695099
  20
133.60414
  0
SEQEND
  0
POLYLINE
  5
3a5
  8
Layer_2
  62
1
  66
1
  10
0
  20
0
  30
0
  0
VERTEX
  5
3a5
  8
Layer_2
  10
9.1695099
  20
133.60414
  42
-0.0061948239
  0
VERTEX
  5
3a6
  8
Layer_2
  10
9.890213
  20
135.38295
  0
SEQEND
  0
POLYLINE
  5
3a8
  8
Layer_2
  62
1
  66
1
  10
0
  20
0
  30
0
  0
VERTEX
  5
3a8
  8
Layer_2
  10
9.890213
  20
135.38295
  42
-0.0057643337
  0
VERTEX
  5
3a9
  8
Layer_2
  10
10.268143
  20
136.25307
  0
SEQEND
  0
POLYLINE
  5
3ab
  8
Layer_2
  62
1
  66
1
  10
0
  20
0
  30
0
  0
VERTEX
  5
3ab
  8
Layer_2
  10
10.268143
  20
136.25307
  0
VERTEX
  5
3ac
  8
Layer_2
  10
10.544022
  20
135.80434
  0
SEQEND
  0
POLYLINE
  5
3ae
  8
Layer_2
  62
1
  66
1
  10
0
  20
0
  30
0
  0
VERTEX
  5
3ae
  8
Layer_2
  10
10.544022
  20
135.80434
  42
-0.0079720546
  0
VERTEX
  5
3af
  8
Layer_2
  10
11.818924
  20
133.61147
  0
SEQEND
  0
POLYLINE
  5
3b1
  8
Layer_2
  62
1
  66
1
  10
0
  20
0
  30
0
  0
VERTEX
  5
3b1
  8
Layer_2
  10
11.818924
  20
133.61147
  42
-0.014293975
  0
VERTEX
  5
3b2
  8
Layer_2
  10
12.657791
  20
131.96645
  0
SEQEND
  0
POLYLINE
  5
3b4
  8
Layer_2
  62
1
  66
1
  10
0
  20
0
  30
0
  0
VERTEX
  5
3b4
  8
Layer_2
  10
12.657791
  20
131.96645
  42
-0.0086163056
  0
VERTEX
  5
3b5
  8
Layer_2
  10
13.295486
  20
130.56459
  0
SEQEND
  0
POLYLINE
  5
3b7
  8
Layer_2
  62
1
  66
1
  10
0
  20
0
  30
0
  0
VERTEX
  5
3b7
  8
Layer_2
  10
13.295486
  20
130.56459
  0
VERTEX
  5
3b8
  8
Layer_2
  10
8.0098419
  20
130.03969
  0
SEQEND
  0
POLYLINE
  5
3ba
  8
Layer_2
  62
1
  66
1
  10
0
  20
0
  30
0
  0
VERTEX
  5
3ba
  8
Layer_2
  10
8.0098419
  20
130.03969
  0
VERTEX
  5
3bb
  8
Layer_2
  10
8.1450958
  20
130.52797
  0
SEQEND
  0
POLYLINE
  5
3bd
  8
Layer_2
  62
1
  66
1
  10
0
  20
0
  30
0
  0
VERTEX
  5
3bd
  8
Layer_2
  10
54.274681
  20
122.31592
  42
0.083324507
  0
VERTEX
  5
3be
  8
Layer_2
  10
54.481712
  20
122.38037
  0
SEQEND
  0
POLYLINE
  5
3c0
  8
Layer_2
  62
1
  66
1
  10
0
  20
0
  30
0
  0
VERTEX
  5
3c0
  8
Layer_2
  10
54.481712
  20
122.38037
  42
0.060035594
  0
VERTEX
  5
3c1
  8
Layer_2
  10
54.696068
  20
122.52197
  0
SEQEND
  0
POLYLINE
  5
3c3
  8
Layer_2
  62
1
  66
1
  10
0
  20
0
  30
0
  0
VERTEX
  5
3c3
  8
Layer_2
  10
54.696068
  20
122.52197
  42
0.035341766
  0
VERTEX
  5
3c4
  8
Layer_2
  10
54.804466
  20
122.62207
  0
SEQEND
  0
POLYLINE
  5
3c6
  8
Layer_2
  62
1
  66
1
  10
0
  20
0
  30
0
  0
VERTEX
  5
3c6
  8
Layer_2
  10
54.804466
  20
122.62207
  42
0.10794119
  0
VERTEX
  5
3c7
  8
Layer_2
  10
54.988548
  20
122.95068
  0
SEQEND
  0
POLYLINE
  5
3c9
  8
Layer_2
  62
1
  66
1
  10
0
  20
0
  30
0
  0
VERTEX
  5
3c9
  8
Layer_2
  10
54.988548
  20
122.95068
  42
0.068118644
  0
VERTEX
  5
3ca
  8
Layer_2
  10
55.060814
  20
123.41748
  0
SEQEND
  0
POLYLINE
  5
3cc
  8
Layer_2
  62
1
  66
1
  10
0
  20
0
  30
0
  0
VERTEX
  5
3cc
  8
Layer_2
  10
55.060814
  20
123.41748
  0
VERTEX
  5
3cd
  8
Layer_2
  10
55.06179
  20
123.49561
  0
SEQEND
  0
POLYLINE
  5
3cf
  8
Layer_2
  62
1
  66
1
  10
0
  20
0
  30
0
  0
VERTEX
  5
3cf
  8
Layer_2
  10
55.06179
  20
123.49561
  0
VERTEX
  5
3d0
  8
Layer_2
  10
54.964134
  20
125.82715
  0
SEQEND
  0
POLYLINE
  5
3d2
  8
Layer_2
  62
1
  66
1
  10
0
  20
0
  30
0
  0
VERTEX
  5
3d2
  8
Layer_2
  10
54.964134
  20
125.82715
  42
-0.0080659378
  0
VERTEX
  5
3d3
  8
Layer_2
  10
54.918236
  20
130.47607
  0
SEQEND
  0
POLYLINE
  5
3d5
  8
Layer_2
  62
1
  66
1
  10
0
  20
0
  30
0
  0
VERTEX
  5
3d5
  8
Layer_2
  10
54.918236
  20
130.47607
  42
-0.0047563509
  0
VERTEX
  5
3d6
  8
Layer_2
  10
54.94265
  20
131.99268
  0
SEQEND
  0
POLYLINE
  5
3d8
  8
Layer_2
  62
1
  66
1
  10
0
  20
0
  30
0
  0
VERTEX
  5
3d8
  8
Layer_2
  10
54.94265
  20
131.99268
  42
-0.0041871252
  0
VERTEX
  5
3d9
  8
Layer_2
  10
54.964134
  20
132.62646
  0
SEQEND
  0
POLYLINE
  5
3db
  8
Layer_2
  62
1
  66
1
  10
0
  20
0
  30
0
  0
VERTEX
  5
3db
  8
Layer_2
  10
54.964134
  20
132.62646
  0
VERTEX
  5
3dc
  8
Layer_2
  10
54.960228
  20
132.73145
  0
SEQEND
  0
POLYLINE
  5
3de
  8
Layer_2
  62
1
  66
1
  10
0
  20
0
  30
0
  0
VERTEX
  5
3de
  8
Layer_2
  10
54.960228
  20
132.73145
  42
0.08348017
  0
VERTEX
  5
3df
  8
Layer_2
  10
54.868919
  20
133.11768
  0
SEQEND
  0
POLYLINE
  5
3e1
  8
Layer_2
  62
1
  66
1
  10
0
  20
0
  30
0
  0
VERTEX
  5
3e1
  8
Layer_2
  10
52.995384
  20
132.91211
  42
0.046025481
  0
VERTEX
  5
3e2
  8
Layer_2
  10
52.963646
  20
132.66797
  0
SEQEND
  0
POLYLINE
  5
3e4
  8
Layer_2
  62
1
  66
1
  10
0
  20
0
  30
0
  0
VERTEX
  5
3e4
  8
Layer_2
  10
52.963646
  20
132.66797
  0
VERTEX
  5
3e5
  8
Layer_2
  10
52.960228
  20
132.09961
  0
SEQEND
  0
POLYLINE
  5
3e7
  8
Layer_2
  62
1
  66
1
  10
0
  20
0
  30
0
  0
VERTEX
  5
3e7
  8
Layer_2
  10
52.960228
  20
132.09961
  0
VERTEX
  5
3e8
  8
Layer_2
  10
52.94265
  20
130.58887
  0
SEQEND
  0
POLYLINE
  5
3ea
  8
Layer_2
  62
1
  66
1
  10
0
  20
0
  30
0
  0
VERTEX
  5
3ea
  8
Layer_2
  10
53.156517
  20
122.95166
  42
0.092440171
  0
VERTEX
  5
3eb
  8
Layer_2
  10
53.297142
  20
122.68213
  0
SEQEND
  0
POLYLINE
  5
3ed
  8
Layer_2
  62
1
  66
1
  10
0
  20
0
  30
0
  0
VERTEX
  5
3ed
  8
Layer_2
  10
53.297142
  20
122.68213
  42
0.091414562
  0
VERTEX
  5
3ee
  8
Layer_2
  10
53.462669
  20
122.53711
  0
SEQEND
  0
POLYLINE
  5
3f0
  8
Layer_2
  62
1
  66
1
  10
0
  20
0
  30
0
  0
VERTEX
  5
3f0
  8
Layer_2
  10
53.462669
  20
122.53711
  42
0.078275649
  0
VERTEX
  5
3f1
  8
Layer_2
  10
53.930931
  20
122.34326
  0
SEQEND
  0
POLYLINE
  5
3f3
  8
Layer_2
  62
1
  66
1
  10
0
  20
0
  30
0
  0
VERTEX
  5
3f3
  8
Layer_2
  10
53.930931
  20
122.34326
  42
0.057310584
  0
VERTEX
  5
3f4
  8
Layer_2
  10
54.207298
  20
122.31152
  0
SEQEND
  0
POLYLINE
  5
3f6
  8
Layer_2
  62
1
  66
1
  10
0
  20
0
  30
0
  0
VERTEX
  5
3f6
  8
Layer_2
  10
54.207298
  20
122.31152
  0
VERTEX
  5
3f7
  8
Layer_2
  10
54.274681
  20
122.31592
  0
SEQEND
  0
POLYLINE
  5
3f9
  8
Layer_2
  62
1
  66
1
  10
0
  20
0
  30
0
  0
VERTEX
  5
3f9
  8
Layer_2
  10
27.409744
  20
124.86879
  42
-0.10417029
  0
VERTEX
  5
3fa
  8
Layer_2
  10
25.910233
  20
125.26918
  0
SEQEND
  0
POLYLINE
  5
3fc
  8
Layer_2
  62
1
  66
1
  10
0
  20
0
  30
0
  0
VERTEX
  5
3fc
  8
Layer_2
  10
25.910233
  20
125.26918
  42
-0.023483123
  0
VERTEX
  5
3fd
  8
Layer_2
  10
25.540115
  20
125.47572
  0
SEQEND
  0
POLYLINE
  5
3ff
  8
Layer_2
  62
1
  66
1
  10
0
  20
0
  30
0
  0
VERTEX
  5
3ff
  8
Layer_2
  10
25.540115
  20
125.47572
  42
-0.12279472
  0
VERTEX
  5
400
  8
Layer_2
  10
24.542557
  20
126.52357
  0
SEQEND
  0
POLYLINE
  5
402
  8
Layer_2
  62
1
  66
1
  10
0
  20
0
  30
0
  0
VERTEX
  5
402
  8
Layer_2
  10
24.542557
  20
126.52357
  42
-0.059297086
  0
VERTEX
  5
403
  8
Layer_2
  10
24.184647
  20
127.37221
  0
SEQEND
  0
POLYLINE
  5
405
  8
Layer_2
  62
1
  66
1
  10
0
  20
0
  30
0
  0
VERTEX
  5
405
  8
Layer_2
  10
24.184647
  20
127.37221
  42
-0.048477456
  0
VERTEX
  5
406
  8
Layer_2
  10
23.999588
  20
128.37367
  0
SEQEND
  0
POLYLINE
  5
408
  8
Layer_2
  62
1
  66
1
  10
0
  20
0
  30
0
  0
VERTEX
  5
408
  8
Layer_2
  10
23.999588
  20
128.37367
  42
-0.0422021
  0
VERTEX
  5
409
  8
Layer_2
  10
23.989334
  20
129.4684
  0
SEQEND
  0
POLYLINE
  5
40b
  8
Layer_2
  62
1
  66
1
  10
0
  20
0
  30
0
  0
VERTEX
  5
40b
  8
Layer_2
  10
23.989334
  20
129.4684
  42
-0.061337401
  0
VERTEX
  5
40c
  8
Layer_2
  10
24.213455
  20
130.57533
  0
SEQEND
  0
POLYLINE
  5
40e
  8
Layer_2
  62
1
  66
1
  10
0
  20
0
  30
0
  0
VERTEX
  5
40e
  8
Layer_2
  10
24.213455
  20
130.57533
  0
VERTEX
  5
40f
  8
Layer_2
  10
24.222733
  20
130.5934
  0
SEQEND
  0
POLYLINE
  5
411
  8
Layer_2
  62
1
  66
1
  10
0
  20
0
  30
0
  0
VERTEX
  5
411
  8
Layer_2
  10
24.222733
  20
130.5934
  42
0.033548748
  0
VERTEX
  5
412
  8
Layer_2
  10
24.326736
  20
130.8727
  0
SEQEND
  0
POLYLINE
  5
414
  8
Layer_2
  62
1
  66
1
  10
0
  20
0
  30
0
  0
VERTEX
  5
414
  8
Layer_2
  10
24.326736
  20
130.8727
  0
VERTEX
  5
415
  8
Layer_2
  10
24.340897
  20
130.90834
  0
SEQEND
  0
POLYLINE
  5
417
  8
Layer_2
  62
1
  66
1
  10
0
  20
0
  30
0
  0
VERTEX
  5
417
  8
Layer_2
  10
24.340897
  20
130.90834
  42
-0.042699543
  0
VERTEX
  5
418
  8
Layer_2
  10
24.716385
  20
131.62172
  0
SEQEND
  0
POLYLINE
  5
41a
  8
Layer_2
  62
1
  66
1
  10
0
  20
0
  30
0
  0
VERTEX
  5
41a
  8
Layer_2
  10
24.716385
  20
131.62172
  42
-0.021821039
  0
VERTEX
  5
41b
  8
Layer_2
  10
24.944901
  20
131.9474
  0
SEQEND
  0
POLYLINE
  5
41d
  8
Layer_2
  62
1
  66
1
  10
0
  20
0
  30
0
  0
VERTEX
  5
41d
  8
Layer_2
  10
24.944901
  20
131.9474
  0
VERTEX
  5
41e
  8
Layer_2
  10
25.194412
  20
132.25551
  0
SEQEND
  0
POLYLINE
  5
420
  8
Layer_2
  62
1
  66
1
  10
0
  20
0
  30
0
  0
VERTEX
  5
420
  8
Layer_2
  10
25.194412
  20
132.25551
  42
-0.077455104
  0
VERTEX
  5
421
  8
Layer_2
  10
26.367752
  20
133.27113
  0
SEQEND
  0
POLYLINE
  5
423
  8
Layer_2
  62
1
  66
1
  10
0
  20
0
  30
0
  0
VERTEX
  5
423
  8
Layer_2
  10
26.367752
  20
133.27113
  42
-0.076420771
  0
VERTEX
  5
424
  8
Layer_2
  10
27.849197
  20
133.9225
  0
SEQEND
  0
POLYLINE
  5
426
  8
Layer_2
  62
1
  66
1
  10
0
  20
0
  30
0
  0
VERTEX
  5
426
  8
Layer_2
  10
27.849197
  20
133.9225
  42
-0.058007934
  0
VERTEX
  5
427
  8
Layer_2
  10
28.668045
  20
134.04506
  0
SEQEND
  0
POLYLINE
  5
429
  8
Layer_2
  62
1
  66
1
  10
0
  20
0
  30
0
  0
VERTEX
  5
429
  8
Layer_2
  10
28.668045
  20
134.04506
  42
-0.08251934
  0
VERTEX
  5
42a
  8
Layer_2
  10
29.531815
  20
133.93031
  0
SEQEND
  0
POLYLINE
  5
42c
  8
Layer_2
  62
1
  66
1
  10
0
  20
0
  30
0
  0
VERTEX
  5
42c
  8
Layer_2
  10
29.531815
  20
133.93031
  42
-0.11955685
  0
VERTEX
  5
42d
  8
Layer_2
  10
30.366776
  20
133.43715
  0
SEQEND
  0
POLYLINE
  5
42f
  8
Layer_2
  62
1
  66
1
  10
0
  20
0
  30
0
  0
VERTEX
  5
42f
  8
Layer_2
  10
30.366776
  20
133.43715
  42
-0.062531646
  0
VERTEX
  5
430
  8
Layer_2
  10
30.78035
  20
132.91713
  0
SEQEND
  0
POLYLINE
  5
432
  8
Layer_2
  62
1
  66
1
  10
0
  20
0
  30
0
  0
VERTEX
  5
432
  8
Layer_2
  10
30.78035
  20
132.91713
  0
VERTEX
  5
433
  8
Layer_2
  10
30.833572
  20
132.8268
  0
SEQEND
  0
POLYLINE
  5
435
  8
Layer_2
  62
1
  66
1
  10
0
  20
0
  30
0
  0
VERTEX
  5
435
  8
Layer_2
  10
30.833572
  20
132.8268
  0
VERTEX
  5
436
  8
Layer_2
  10
30.736404
  20
132.67397
  0
SEQEND
  0
POLYLINE
  5
438
  8
Layer_2
  62
1
  66
1
  10
0
  20
0
  30
0
  0
VERTEX
  5
438
  8
Layer_2
  10
30.736404
  20
132.67397
  0
VERTEX
  5
439
  8
Layer_2
  10
30.614822
  20
132.46449
  0
SEQEND
  0
POLYLINE
  5
43b
  8
Layer_2
  62
1
  66
1
  10
0
  20
0
  30
0
  0
VERTEX
  5
43b
  8
Layer_2
  10
30.614822
  20
132.46449
  42
0.029573899
  0
VERTEX
  5
43c
  8
Layer_2
  10
30.303299
  20
131.8102
  0
SEQEND
  0
POLYLINE
  5
43e
  8
Layer_2
  62
1
  66
1
  10
0
  20
0
  30
0
  0
VERTEX
  5
43e
  8
Layer_2
  10
30.303299
  20
131.8102
  42
0.026775298
  0
VERTEX
  5
43f
  8
Layer_2
  10
30.069412
  20
131.1183
  0
SEQEND
  0
POLYLINE
  5
441
  8
Layer_2
  62
1
  66
1
  10
0
  20
0
  30
0
  0
VERTEX
  5
441
  8
Layer_2
  10
30.069412
  20
131.1183
  42
0.036979375
  0
VERTEX
  5
442
  8
Layer_2
  10
29.830154
  20
129.94789
  0
SEQEND
  0
POLYLINE
  5
444
  8
Layer_2
  62
1
  66
1
  10
0
  20
0
  30
0
  0
VERTEX
  5
444
  8
Layer_2
  10
29.830154
  20
129.94789
  42
0.070154712
  0
VERTEX
  5
445
  8
Layer_2
  10
29.860428
  20
127.80385
  0
SEQEND
  0
POLYLINE
  5
447
  8
Layer_2
  62
1
  66
1
  10
0
  20
0
  30
0
  0
VERTEX
  5
447
  8
Layer_2
  10
29.860428
  20
127.80385
  42
0.043513912
  0
VERTEX
  5
448
  8
Layer_2
  10
30.134354
  20
126.69789
  0
SEQEND
  0
POLYLINE
  5
44a
  8
Layer_2
  62
1
  66
1
  10
0
  20
0
  30
0
  0
VERTEX
  5
44a
  8
Layer_2
  10
30.134354
  20
126.69789
  42
0.029585214
  0
VERTEX
  5
44b
  8
Layer_2
  10
30.383865
  20
126.0934
  0
SEQEND
  0
POLYLINE
  5
44d
  8
Layer_2
  62
1
  66
1
  10
0
  20
0
  30
0
  0
VERTEX
  5
44d
  8
Layer_2
  10
30.383865
  20
126.0934
  0
VERTEX
  5
44e
  8
Layer_2
  10
30.531326
  20
125.8019
  0
SEQEND
  0
POLYLINE
  5
450
  8
Layer_2
  62
1
  66
1
  10
0
  20
0
  30
0
  0
VERTEX
  5
450
  8
Layer_2
  10
30.531326
  20
125.8019
  42
-0.064970999
  0
VERTEX
  5
451
  8
Layer_2
  10
29.236404
  20
125.14857
  0
SEQEND
  0
POLYLINE
  5
453
  8
Layer_2
  62
1
  66
1
  10
0
  20
0
  30
0
  0
VERTEX
  5
453
  8
Layer_2
  10
29.236404
  20
125.14857
  42
-0.054482742
  0
VERTEX
  5
454
  8
Layer_2
  10
28.128494
  20
124.89174
  0
SEQEND
  0
POLYLINE
  5
456
  8
Layer_2
  62
1
  66
1
  10
0
  20
0
  30
0
  0
VERTEX
  5
456
  8
Layer_2
  10
28.128494
  20
124.89174
  42
-0.042561715
  0
VERTEX
  5
457
  8
Layer_2
  10
27.409744
  20
124.86879
  0
SEQEND
  0
POLYLINE
  5
459
  8
Layer_2
  62
1
  66
1
  10
0
  20
0
  30
0
  0
VERTEX
  5
459
  8
Layer_2
  10
35.657303
  20
124.88246
  0
VERTEX
  5
45a
  8
Layer_2
  10
35.426834
  20
124.89516
  0
SEQEND
  0
POLYLINE
  5
45c
  8
Layer_2
  62
1
  66
1
  10
0
  20
0
  30
0
  0
VERTEX
  5
45c
  8
Layer_2
  10
35.426834
  20
124.89516
  42
-0.10856041
  0
VERTEX
  5
45d
  8
Layer_2
  10
34.056229
  20
125.30629
  0
SEQEND
  0
POLYLINE
  5
45f
  8
Layer_2
  62
1
  66
1
  10
0
  20
0
  30
0
  0
VERTEX
  5
45f
  8
Layer_2
  10
34.056229
  20
125.30629
  42
-0.12365622
  0
VERTEX
  5
460
  8
Layer_2
  10
32.743729
  20
126.5182
  0
SEQEND
  0
POLYLINE
  5
462
  8
Layer_2
  62
1
  66
1
  10
0
  20
0
  30
0
  0
VERTEX
  5
462
  8
Layer_2
  10
32.743729
  20
126.5182
  42
-0.051274624
  0
VERTEX
  5
463
  8
Layer_2
  10
32.343338
  20
127.28188
  0
SEQEND
  0
POLYLINE
  5
465
  8
Layer_2
  62
1
  66
1
  10
0
  20
0
  30
0
  0
VERTEX
  5
465
  8
Layer_2
  10
32.343338
  20
127.28188
  42
-0.045504588
  0
VERTEX
  5
466
  8
Layer_2
  10
32.012772
  20
128.36586
  0
SEQEND
  0
POLYLINE
  5
468
  8
Layer_2
  62
1
  66
1
  10
0
  20
0
  30
0
  0
VERTEX
  5
468
  8
Layer_2
  10
32.012772
  20
128.36586
  42
-0.055320052
  0
VERTEX
  5
469
  8
Layer_2
  10
31.916092
  20
129.39125
  0
SEQEND
  0
POLYLINE
  5
46b
  8
Layer_2
  62
1
  66
1
  10
0
  20
0
  30
0
  0
VERTEX
  5
46b
  8
Layer_2
  10
31.916092
  20
129.39125
  42
-0.088957312
  0
VERTEX
  5
46c
  8
Layer_2
  10
32.198807
  20
130.79359
  0
SEQEND
  0
POLYLINE
  5
46e
  8
Layer_2
  62
1
  66
1
  10
0
  20
0
  30
0
  0
VERTEX
  5
46e
  8
Layer_2
  10
32.198807
  20
130.79359
  42
-0.052775873
  0
VERTEX
  5
46f
  8
Layer_2
  10
32.702713
  20
131.76088
  0
SEQEND
  0
POLYLINE
  5
471
  8
Layer_2
  62
1
  66
1
  10
0
  20
0
  30
0
  0
VERTEX
  5
471
  8
Layer_2
  10
32.702713
  20
131.76088
  42
-0.11386776
  0
VERTEX
  5
472
  8
Layer_2
  10
34.284256
  20
133.2018
  0
SEQEND
  0
POLYLINE
  5
474
  8
Layer_2
  62
1
  66
1
  10
0
  20
0
  30
0
  0
VERTEX
  5
474
  8
Layer_2
  10
34.284256
  20
133.2018
  42
-0.069542751
  0
VERTEX
  5
475
  8
Layer_2
  10
35.671951
  20
133.74965
  0
SEQEND
  0
POLYLINE
  5
477
  8
Layer_2
  62
1
  66
1
  10
0
  20
0
  30
0
  0
VERTEX
  5
477
  8
Layer_2
  10
35.671951
  20
133.74965
  42
-0.061778758
  0
VERTEX
  5
478
  8
Layer_2
  10
36.727127
  20
133.86488
  0
SEQEND
  0
POLYLINE
  5
47a
  8
Layer_2
  62
1
  66
1
  10
0
  20
0
  30
0
  0
VERTEX
  5
47a
  8
Layer_2
  10
36.727127
  20
133.86488
  42
-0.063057199
  0
VERTEX
  5
47b
  8
Layer_2
  10
37.768631
  20
133.714
  0
SEQEND
  0
POLYLINE
  5
47d
  8
Layer_2
  62
1
  66
1
  10
0
  20
0
  30
0
  0
VERTEX
  5
47d
  8
Layer_2
  10
37.768631
  20
133.714
  42
-0.056035607
  0
VERTEX
  5
47e
  8
Layer_2
  10
38.545486
  20
133.45815
  0
SEQEND
  0
POLYLINE
  5
480
  8
Layer_2
  62
1
  66
1
  10
0
  20
0
  30
0
  0
VERTEX
  5
480
  8
Layer_2
  10
38.545486
  20
133.45815
  42
-0.067382225
  0
VERTEX
  5
481
  8
Layer_2
  10
39.172928
  20
133.0558
  0
SEQEND
  0
POLYLINE
  5
483
  8
Layer_2
  62
1
  66
1
  10
0
  20
0
  30
0
  0
VERTEX
  5
483
  8
Layer_2
  10
39.172928
  20
133.0558
  42
-0.058690959
  0
VERTEX
  5
484
  8
Layer_2
  10
39.582108
  20
132.60951
  0
SEQEND
  0
POLYLINE
  5
486
  8
Layer_2
  62
1
  66
1
  10
0
  20
0
  30
0
  0
VERTEX
  5
486
  8
Layer_2
  10
39.582108
  20
132.60951
  42
-0.060453933
  0
VERTEX
  5
487
  8
Layer_2
  10
40.019119
  20
131.8141
  0
SEQEND
  0
POLYLINE
  5
489
  8
Layer_2
  62
1
  66
1
  10
0
  20
0
  30
0
  0
VERTEX
  5
489
  8
Layer_2
  10
40.019119
  20
131.8141
  42
-0.046946801
  0
VERTEX
  5
48a
  8
Layer_2
  10
40.313553
  20
130.82045
  0
SEQEND
  0
POLYLINE
  5
48c
  8
Layer_2
  62
1
  66
1
  10
0
  20
0
  30
0
  0
VERTEX
  5
48c
  8
Layer_2
  10
40.313553
  20
130.82045
  0
VERTEX
  5
48d
  8
Layer_2
  10
40.344315
  20
130.66225
  0
SEQEND
  0
POLYLINE
  5
48f
  8
Layer_2
  62
1
  66
1
  10
0
  20
0
  30
0
  0
VERTEX
  5
48f
  8
Layer_2
  10
40.344315
  20
130.66225
  42
-0.10382886
  0
VERTEX
  5
490
  8
Layer_2
  10
40.222733
  20
128.64223
  0
SEQEND
  0
POLYLINE
  5
492
  8
Layer_2
  62
1
  66
1
  10
0
  20
0
  30
0
  0
VERTEX
  5
492
  8
Layer_2
  10
40.222733
  20
128.64223
  42
-0.071205761
  0
VERTEX
  5
493
  8
Layer_2
  10
39.534744
  20
127.04945
  0
SEQEND
  0
POLYLINE
  5
495
  8
Layer_2
  62
1
  66
1
  10
0
  20
0
  30
0
  0
VERTEX
  5
495
  8
Layer_2
  10
39.534744
  20
127.04945
  42
-0.039657775
  0
VERTEX
  5
496
  8
Layer_2
  10
39.050369
  20
126.38979
  0
SEQEND
  0
POLYLINE
  5
498
  8
Layer_2
  62
1
  66
1
  10
0
  20
0
  30
0
  0
VERTEX
  5
498
  8
Layer_2
  10
39.050369
  20
126.38979
  42
-0.073914666
  0
VERTEX
  5
499
  8
Layer_2
  10
38.325272
  20
125.66029
  0
SEQEND
  0
POLYLINE
  5
49b
  8
Layer_2
  62
1
  66
1
  10
0
  20
0
  30
0
  0
VERTEX
  5
49b
  8
Layer_2
  10
38.325272
  20
125.66029
  42
-0.074362843
  0
VERTEX
  5
49c
  8
Layer_2
  10
37.420486
  20
125.18129
  0
SEQEND
  0
POLYLINE
  5
49e
  8
Layer_2
  62
1
  66
1
  10
0
  20
0
  30
0
  0
VERTEX
  5
49e
  8
Layer_2
  10
37.420486
  20
125.18129
  42
-0.053309355
  0
VERTEX
  5
49f
  8
Layer_2
  10
36.337967
  20
124.9142
  0
SEQEND
  0
POLYLINE
  5
4a1
  8
Layer_2
  62
1
  66
1
  10
0
  20
0
  30
0
  0
VERTEX
  5
4a1
  8
Layer_2
  10
36.337967
  20
124.9142
  42
-0.041812123
  0
VERTEX
  5
4a2
  8
Layer_2
  10
35.657303
  20
124.88246
  0
SEQEND
  0
POLYLINE
  5
4a4
  8
Layer_2
  62
1
  66
1
  10
0
  20
0
  30
0
  0
VERTEX
  5
4a4
  8
Layer_2
  10
45.268143
  20
124.85463
  42
-0.018817468
  0
VERTEX
  5
4a5
  8
Layer_2
  10
44.900955
  20
124.88832
  0
SEQEND
  0
POLYLINE
  5
4a7
  8
Layer_2
  62
1
  66
1
  10
0
  20
0
  30
0
  0
VERTEX
  5
4a7
  8
Layer_2
  10
44.900955
  20
124.88832
  42
-0.058787686
  0
VERTEX
  5
4a8
  8
Layer_2
  10
44.261307
  20
125.05482
  0
SEQEND
  0
POLYLINE
  5
4aa
  8
Layer_2
  62
1
  66
1
  10
0
  20
0
  30
0
  0
VERTEX
  5
4aa
  8
Layer_2
  10
44.261307
  20
125.05482
  42
-0.092251532
  0
VERTEX
  5
4ab
  8
Layer_2
  10
43.715897
  20
125.39076
  0
SEQEND
  0
POLYLINE
  5
4ad
  8
Layer_2
  62
1
  66
1
  10
0
  20
0
  30
0
  0
VERTEX
  5
4ad
  8
Layer_2
  10
43.715897
  20
125.39076
  0
VERTEX
  5
4ae
  8
Layer_2
  10
43.661697
  20
125.4435
  0
SEQEND
  0
POLYLINE
  5
4b0
  8
Layer_2
  62
1
  66
1
  10
0
  20
0
  30
0
  0
VERTEX
  5
4b0
  8
Layer_2
  10
43.661697
  20
125.4435
  42
-0.049746598
  0
VERTEX
  5
4b1
  8
Layer_2
  10
43.303299
  20
125.89076
  0
SEQEND
  0
POLYLINE
  5
4b3
  8
Layer_2
  62
1
  66
1
  10
0
  20
0
  30
0
  0
VERTEX
  5
4b3
  8
Layer_2
  10
43.303299
  20
125.89076
  42
-0.058912269
  0
VERTEX
  5
4b4
  8
Layer_2
  10
43.069901
  20
126.36537
  0
SEQEND
  0
POLYLINE
  5
4b6
  8
Layer_2
  62
1
  66
1
  10
0
  20
0
  30
0
  0
VERTEX
  5
4b6
  8
Layer_2
  10
43.069901
  20
126.36537
  42
-0.022917167
  0
VERTEX
  5
4b7
  8
Layer_2
  10
42.955643
  20
126.71449
  0
SEQEND
  0
POLYLINE
  5
4b9
  8
Layer_2
  62
1
  66
1
  10
0
  20
0
  30
0
  0
VERTEX
  5
4b9
  8
Layer_2
  10
42.955643
  20
126.71449
  0
VERTEX
  5
4ba
  8
Layer_2
  10
42.966385
  20
129.57094
  0
SEQEND
  0
POLYLINE
  5
4bc
  8
Layer_2
  62
1
  66
1
  10
0
  20
0
  30
0
  0
VERTEX
  5
4bc
  8
Layer_2
  10
42.966385
  20
129.57094
  42
-0.071233144
  0
VERTEX
  5
4bd
  8
Layer_2
  10
43.48494
  20
130.73549
  0
SEQEND
  0
POLYLINE
  5
4bf
  8
Layer_2
  62
1
  66
1
  10
0
  20
0
  30
0
  0
VERTEX
  5
4bf
  8
Layer_2
  10
43.48494
  20
130.73549
  42
-0.069281819
  0
VERTEX
  5
4c0
  8
Layer_2
  10
43.767654
  20
131.11537
  0
SEQEND
  0
POLYLINE
  5
4c2
  8
Layer_2
  62
1
  66
1
  10
0
  20
0
  30
0
  0
VERTEX
  5
4c2
  8
Layer_2
  10
43.767654
  20
131.11537
  42
-0.034486361
  0
VERTEX
  5
4c3
  8
Layer_2
  10
44.003494
  20
131.32729
  0
SEQEND
  0
POLYLINE
  5
4c5
  8
Layer_2
  62
1
  66
1
  10
0
  20
0
  30
0
  0
VERTEX
  5
4c5
  8
Layer_2
  10
44.003494
  20
131.32729
  42
-0.033098686
  0
VERTEX
  5
4c6
  8
Layer_2
  10
44.742264
  20
131.83412
  0
SEQEND
  0
POLYLINE
  5
4c8
  8
Layer_2
  62
1
  66
1
  10
0
  20
0
  30
0
  0
VERTEX
  5
4c8
  8
Layer_2
  10
44.742264
  20
131.83412
  42
-0.091362844
  0
VERTEX
  5
4c9
  8
Layer_2
  10
45.997147
  20
132.22328
  0
SEQEND
  0
POLYLINE
  5
4cb
  8
Layer_2
  62
1
  66
1
  10
0
  20
0
  30
0
  0
VERTEX
  5
4cb
  8
Layer_2
  10
45.997147
  20
132.22328
  42
-0.027615558
  0
VERTEX
  5
4cc
  8
Layer_2
  10
46.231522
  20
132.23695
  0
SEQEND
  0
POLYLINE
  5
4ce
  8
Layer_2
  62
1
  66
1
  10
0
  20
0
  30
0
  0
VERTEX
  5
4ce
  8
Layer_2
  10
46.231522
  20
132.23695
  42
-0.031216227
  0
VERTEX
  5
4cf
  8
Layer_2
  10
46.9991
  20
132.11488
  0
SEQEND
  0
POLYLINE
  5
4d1
  8
Layer_2
  62
1
  66
1
  10
0
  20
0
  30
0
  0
VERTEX
  5
4d1
  8
Layer_2
  10
46.9991
  20
132.11488
  42
-0.032677166
  0
VERTEX
  5
4d2
  8
Layer_2
  10
47.476639
  20
131.97523
  0
SEQEND
  0
POLYLINE
  5
4d4
  8
Layer_2
  62
1
  66
1
  10
0
  20
0
  30
0
  0
VERTEX
  5
4d4
  8
Layer_2
  10
47.476639
  20
131.97523
  42
-0.02959216
  0
VERTEX
  5
4d5
  8
Layer_2
  10
47.750565
  20
131.85707
  0
SEQEND
  0
POLYLINE
  5
4d7
  8
Layer_2
  62
1
  66
1
  10
0
  20
0
  30
0
  0
VERTEX
  5
4d7
  8
Layer_2
  10
47.750565
  20
131.85707
  42
-0.098096102
  0
VERTEX
  5
4d8
  8
Layer_2
  10
48.460037
  20
131.2892
  0
SEQEND
  0
POLYLINE
  5
4da
  8
Layer_2
  62
1
  66
1
  10
0
  20
0
  30
0
  0
VERTEX
  5
4da
  8
Layer_2
  10
48.460037
  20
131.2892
  42
-0.079897623
  0
VERTEX
  5
4db
  8
Layer_2
  10
48.825272
  20
130.70473
  0
SEQEND
  0
POLYLINE
  5
4dd
  8
Layer_2
  62
1
  66
1
  10
0
  20
0
  30
0
  0
VERTEX
  5
4dd
  8
Layer_2
  10
48.825272
  20
130.70473
  42
-0.057631274
  0
VERTEX
  5
4de
  8
Layer_2
  10
48.978104
  20
130.18617
  0
SEQEND
  0
POLYLINE
  5
4e0
  8
Layer_2
  62
1
  66
1
  10
0
  20
0
  30
0
  0
VERTEX
  5
4e0
  8
Layer_2
  10
48.978104
  20
130.18617
  42
-0.06681256
  0
VERTEX
  5
4e1
  8
Layer_2
  10
49.034744
  20
128.82826
  0
SEQEND
  0
POLYLINE
  5
4e3
  8
Layer_2
  62
1
  66
1
  10
0
  20
0
  30
0
  0
VERTEX
  5
4e3
  8
Layer_2
  10
49.034744
  20
128.82826
  42
-0.034075102
  0
VERTEX
  5
4e4
  8
Layer_2
  10
48.904861
  20
127.97084
  0
SEQEND
  0
POLYLINE
  5
4e6
  8
Layer_2
  62
1
  66
1
  10
0
  20
0
  30
0
  0
VERTEX
  5
4e6
  8
Layer_2
  10
48.904861
  20
127.97084
  42
-0.016307733
  0
VERTEX
  5
4e7
  8
Layer_2
  10
48.807205
  20
127.57729
  0
SEQEND
  0
POLYLINE
  5
4e9
  8
Layer_2
  62
1
  66
1
  10
0
  20
0
  30
0
  0
VERTEX
  5
4e9
  8
Layer_2
  10
48.807205
  20
127.57729
  42
-0.011670182
  0
VERTEX
  5
4ea
  8
Layer_2
  10
48.758377
  20
127.42152
  0
SEQEND
  0
POLYLINE
  5
4ec
  8
Layer_2
  62
1
  66
1
  10
0
  20
0
  30
0
  0
VERTEX
  5
4ec
  8
Layer_2
  10
48.758377
  20
127.42152
  42
-0.016737025
  0
VERTEX
  5
4ed
  8
Layer_2
  10
48.629959
  20
127.07631
  0
SEQEND
  0
POLYLINE
  5
4ef
  8
Layer_2
  62
1
  66
1
  10
0
  20
0
  30
0
  0
VERTEX
  5
4ef
  8
Layer_2
  10
48.629959
  20
127.07631
  42
-0.10362644
  0
VERTEX
  5
4f0
  8
Layer_2
  10
47.724197
  20
125.75502
  0
SEQEND
  0
POLYLINE
  5
4f2
  8
Layer_2
  62
1
  66
1
  10
0
  20
0
  30
0
  0
VERTEX
  5
4f2
  8
Layer_2
  10
47.724197
  20
125.75502
  42
-0.036566305
  0
VERTEX
  5
4f3
  8
Layer_2
  10
47.254959
  20
125.3644
  0
SEQEND
  0
POLYLINE
  5
4f5
  8
Layer_2
  62
1
  66
1
  10
0
  20
0
  30
0
  0
VERTEX
  5
4f5
  8
Layer_2
  10
47.254959
  20
125.3644
  42
-0.069691666
  0
VERTEX
  5
4f6
  8
Layer_2
  10
46.57283
  20
125.01869
  0
SEQEND
  0
POLYLINE
  5
4f8
  8
Layer_2
  62
1
  66
1
  10
0
  20
0
  30
0
  0
VERTEX
  5
4f8
  8
Layer_2
  10
46.57283
  20
125.01869
  42
-0.051393145
  0
VERTEX
  5
4f9
  8
Layer_2
  10
45.953201
  20
124.8766
  0
SEQEND
  0
POLYLINE
  5
4fb
  8
Layer_2
  62
1
  66
1
  10
0
  20
0
  30
0
  0
VERTEX
  5
4fb
  8
Layer_2
  10
45.953201
  20
124.8766
  42
-0.044260433
  0
VERTEX
  5
4fc
  8
Layer_2
  10
45.268143
  20
124.85463
  0
SEQEND
  0
POLYLINE
  5
4fe
  8
Layer_2
  62
1
  66
1
  10
0
  20
0
  30
0
  0
VERTEX
  5
4fe
  8
Layer_2
  10
52.94265
  20
130.58885
  42
0.0058702549
  0
VERTEX
  5
4ff
  8
Layer_2
  10
52.95388
  20
127.29539
  42
0.0080446147
  0
VERTEX
  5
500
  8
Layer_2
  10
53.000484
  20
125.99998
  0
VERTEX
  5
501
  8
Layer_2
  10
50.8032
  20
126.00001
  42
-0.0050041796
  0
VERTEX
  5
502
  8
Layer_2
  10
50.772537
  20
126.46986
  42
-0.017404372
  0
VERTEX
  5
503
  8
Layer_2
  10
50.726639
  20
128.72133
  0
SEQEND
  0
POLYLINE
  5
505
  8
Layer_2
  62
1
  66
1
  10
0
  20
0
  30
0
  0
VERTEX
  5
505
  8
Layer_2
  10
53.156517
  20
122.95164
  42
-0.069548194
  0
VERTEX
  5
506
  8
Layer_2
  10
53.085716
  20
123.40623
  0
VERTEX
  5
507
  8
Layer_2
  10
53.070827
  20
124
  0
VERTEX
  5
508
  8
Layer_2
  10
51.039467
  20
124
  42
-0.02037971
  0
VERTEX
  5
509
  8
Layer_2
  10
51.049393
  20
123.84633
  42
-0.058734405
  0
VERTEX
  5
50a
  8
Layer_2
  10
51.020096
  20
123.52016
  0
SEQEND
  0
POLYLINE
  5
50c
  8
Layer_2
  62
1
  66
1
  10
0
  20
0
  30
0
  0
VERTEX
  5
50c
  8
Layer_2
  10
52.995384
  20
132.91211
  42
-0.15491025
  0
VERTEX
  5
50d
  8
Layer_2
  10
53.262474
  20
133.37842
  42
-0.017613532
  0
VERTEX
  5
50e
  8
Layer_2
  10
53.338737
  20
133.44092
  0
VERTEX
  5
50f
  8
Layer_2
  10
53.338737
  20
134.85245
  42
0.017827564
  0
VERTEX
  5
510
  8
Layer_2
  10
53.212543
  20
135.02284
  0
VERTEX
  5
511
  8
Layer_2
  10
53.003559
  20
135.26894
  0
SEQEND
  0
POLYLINE
  5
513
  8
Layer_2
  62
1
  66
1
  10
0
  20
0
  30
0
  0
VERTEX
  5
513
  8
Layer_2
  10
55.192524
  20
135.45204
  42
0.013620869
  0
VERTEX
  5
514
  8
Layer_2
  10
54.612934
  20
134.95741
  42
0.023368031
  0
VERTEX
  5
515
  8
Layer_2
  10
54.433182
  20
134.80383
  0
VERTEX
  5
516
  8
Layer_2
  10
54.433186
  20
133.60353
  42
-0.10244549
  0
VERTEX
  5
517
  8
Layer_2
  10
54.688744
  20
133.40967
  42
-0.073836259
  0
VERTEX
  5
518
  8
Layer_2
  10
54.868919
  20
133.11768
  0
SEQEND
  0
POLYLINE
  5
51a
  8
Layer_2
  62
1
  66
1
  10
0
  20
0
  30
0
  0
VERTEX
  5
51a
  8
Layer_2
  10
51.430252
  20
140.33705
  42
-0.033748317
  0
VERTEX
  5
51b
  8
Layer_2
  10
51.558182
  20
140.1808
  42
-0.039509718
  0
VERTEX
  5
51c
  8
Layer_2
  10
51.674881
  20
139.99281
  42
-0.0046071516
  0
VERTEX
  5
51d
  8
Layer_2
  10
51.682911
  20
139.9776
  42
-0.0027939252
  0
VERTEX
  5
51e
  8
Layer_2
  10
51.707661
  20
139.98671
  42
-0.059105714
  0
VERTEX
  5
51f
  8
Layer_2
  10
52.24477
  20
140.00624
  0
SEQEND
  0
POLYLINE
  5
521
  8
Layer_2
  62
1
  66
1
  10
0
  20
0
  30
0
  0
VERTEX
  5
521
  8
Layer_2
  10
51.781326
  20
139.42543
  0
VERTEX
  5
522
  8
Layer_2
  10
51.781326
  20
139.42543
  0
VERTEX
  5
523
  8
Layer_2
  10
51.781326
  20
139.42543
  0
VERTEX
  5
524
  8
Layer_2
  10
51.786697
  20
139.47279
  0
SEQEND
  0
POLYLINE
  5
526
  8
Layer_2
  62
1
  66
1
  10
0
  20
0
  30
0
  0
VERTEX
  5
526
  8
Layer_2
  10
50.726639
  20
128.72133
  42
-0.014176131
  0
VERTEX
  5
527
  8
Layer_2
  10
50.833572
  20
131.21156
  42
-0.014989339
  0
VERTEX
  5
528
  8
Layer_2
  10
51.370995
  20
136.61252
  42
0.023064603
  0
VERTEX
  5
529
  8
Layer_2
  10
51.795063
  20
136.26649
  42
0.017228507
  0
VERTEX
  5
52a
  8
Layer_2
  10
52.362446
  20
135.87343
  0
SEQEND
  0
ENDSEC
  0
EOF
