  0
SECTION
  2
HEADER
  9
$ACADVER
  1
AC1009
  0
ENDSEC
  0
SECTION
  2
TABLES
  0
TABLE
  2
LAYER
  70
2
  0
LAYER
  2
Layer_0
  70
0
  62
7
  6
CONTINUOUS
  0
LAYER
  2
Layer_2
  70
0
  62
1
  6
CONTINUOUS
  0
ENDTAB
  0
ENDSEC
  0
SECTION
  2
ENTITIES
  0
POLYLINE
  5
90
  8
Layer_0
  62
7
  70
1
  66
1
  10
0
  20
0
  30
0
  0
VERTEX
  5
90
  8
Layer_0
  10
24.661572
  20
172.05756
  42
-0.057351301
  0
VERTEX
  5
91
  8
Layer_0
  10
24.23872
  20
172.12201
  42
-0.036759331
  0
VERTEX
  5
92
  8
Layer_0
  10
24.050243
  20
172.1889
  42
-0.068691304
  0
VERTEX
  5
93
  8
Layer_0
  10
23.820263
  20
172.33099
  42
-0.10866844
  0
VERTEX
  5
94
  8
Layer_0
  10
23.450634
  20
172.83929
  42
-0.035503011
  0
VERTEX
  5
95
  8
Layer_0
  10
23.334911
  20
173.19916
  42
-0.055063174
  0
VERTEX
  5
96
  8
Layer_0
  10
23.25581
  20
173.82269
  42
-0.037477694
  0
VERTEX
  5
97
  8
Layer_0
  10
23.284618
  20
174.32123
  42
-0.027258842
  0
VERTEX
  5
98
  8
Layer_0
  10
23.347607
  20
174.64154
  42
-0.030490454
  0
VERTEX
  5
99
  8
Layer_0
  10
23.445263
  20
174.94476
  0
VERTEX
  5
9a
  8
Layer_0
  10
23.507275
  20
175.08978
  0
VERTEX
  5
9b
  8
Layer_0
  10
23.578564
  20
175.22992
  0
VERTEX
  5
9c
  8
Layer_0
  10
23.683544
  20
175.41058
  42
-0.086182964
  0
VERTEX
  5
9d
  8
Layer_0
  10
23.950146
  20
175.69916
  42
-0.03292234
  0
VERTEX
  5
9e
  8
Layer_0
  10
24.365673
  20
175.98431
  42
-0.085046656
  0
VERTEX
  5
9f
  8
Layer_0
  10
25.023876
  20
176.1972
  42
-0.034998968
  0
VERTEX
  5
a0
  8
Layer_0
  10
25.203564
  20
176.21088
  42
-0.041618805
  0
VERTEX
  5
a1
  8
Layer_0
  10
25.729931
  20
176.11859
  42
-0.05170538
  0
VERTEX
  5
a2
  8
Layer_0
  10
26.058056
  20
175.99701
  42
-0.09893239
  0
VERTEX
  5
a3
  8
Layer_0
  10
26.456982
  20
175.67767
  42
-0.13752213
  0
VERTEX
  5
a4
  8
Layer_0
  10
26.748486
  20
175.05707
  42
-0.06761961
  0
VERTEX
  5
a5
  8
Layer_0
  10
26.780224
  20
174.29291
  42
-0.051719376
  0
VERTEX
  5
a6
  8
Layer_0
  10
26.638622
  20
173.54388
  0
VERTEX
  5
a7
  8
Layer_0
  10
26.583447
  20
173.3847
  42
-0.13172573
  0
VERTEX
  5
a8
  8
Layer_0
  10
25.916454
  20
172.45062
  42
-0.15120301
  0
VERTEX
  5
a9
  8
Layer_0
  10
25.046825
  20
172.07025
  42
-0.044430669
  0
SEQEND
  0
POLYLINE
  5
ab
  8
Layer_0
  62
7
  70
1
  66
1
  10
0
  20
0
  30
0
  0
VERTEX
  5
ab
  8
Layer_0
  10
17.223095
  20
172.0766
  42
-0.036726845
  0
VERTEX
  5
ac
  8
Layer_0
  10
16.956005
  20
172.1059
  42
-0.071385582
  0
VERTEX
  5
ad
  8
Layer_0
  10
16.446239
  20
172.27924
  42
-0.041130752
  0
VERTEX
  5
ae
  8
Layer_0
  10
16.144482
  20
172.46527
  42
-0.10489458
  0
VERTEX
  5
af
  8
Layer_0
  10
15.565869
  20
173.12347
  42
-0.050293677
  0
VERTEX
  5
b0
  8
Layer_0
  10
15.354444
  20
173.60101
  42
-0.064913854
  0
VERTEX
  5
b1
  8
Layer_0
  10
15.18794
  20
174.36664
  42
-0.13266362
  0
VERTEX
  5
b2
  8
Layer_0
  10
15.406201
  20
175.55511
  42
-0.03578916
  0
VERTEX
  5
b3
  8
Layer_0
  10
15.622998
  20
175.9433
  42
-0.13221449
  0
VERTEX
  5
b4
  8
Layer_0
  10
16.697704
  20
176.85004
  42
-0.073392201
  0
VERTEX
  5
b5
  8
Layer_0
  10
17.492138
  20
177.10004
  42
-0.095542445
  0
VERTEX
  5
b6
  8
Layer_0
  10
18.375927
  20
177.06635
  42
-0.011626155
  0
VERTEX
  5
b7
  8
Layer_0
  10
18.62788
  20
177.00287
  42
-0.096104896
  0
VERTEX
  5
b8
  8
Layer_0
  10
19.209911
  20
176.71527
  42
-0.090878155
  0
VERTEX
  5
b9
  8
Layer_0
  10
19.571728
  20
176.30414
  42
-0.070028562
  0
VERTEX
  5
ba
  8
Layer_0
  10
19.8437
  20
175.66742
  42
-0.023623094
  0
VERTEX
  5
bb
  8
Layer_0
  10
19.922314
  20
175.32513
  42
-0.028132522
  0
VERTEX
  5
bc
  8
Layer_0
  10
19.951122
  20
174.99945
  42
-0.042740794
  0
VERTEX
  5
bd
  8
Layer_0
  10
19.921825
  20
174.51215
  42
-0.041999041
  0
VERTEX
  5
be
  8
Layer_0
  10
19.805614
  20
174.02679
  42
-0.046165986
  0
VERTEX
  5
bf
  8
Layer_0
  10
19.546337
  20
173.42767
  42
-0.051702374
  0
VERTEX
  5
c0
  8
Layer_0
  10
19.194286
  20
172.92133
  42
-0.15160989
  0
VERTEX
  5
c1
  8
Layer_0
  10
18.277294
  20
172.24164
  42
-0.046213814
  0
VERTEX
  5
c2
  8
Layer_0
  10
17.733837
  20
172.10052
  42
-0.055490419
  0
SEQEND
  0
POLYLINE
  5
c4
  8
Layer_0
  62
7
  70
1
  66
1
  10
0
  20
0
  30
0
  0
VERTEX
  5
c4
  8
Layer_0
  10
32.342236
  20
170.87738
  42
0.12400495
  0
VERTEX
  5
c5
  8
Layer_0
  10
32.539013
  20
170.96185
  42
0.10335488
  0
VERTEX
  5
c6
  8
Layer_0
  10
32.692333
  20
171.11908
  42
0.080722124
  0
VERTEX
  5
c7
  8
Layer_0
  10
32.762157
  20
171.3017
  42
0.05278128
  0
VERTEX
  5
c8
  8
Layer_0
  10
32.785107
  20
171.54095
  0
VERTEX
  5
c9
  8
Layer_0
  10
32.730419
  20
172.85248
  42
-0.010341289
  0
VERTEX
  5
ca
  8
Layer_0
  10
32.711376
  20
176.02338
  42
-0.0067014488
  0
VERTEX
  5
cb
  8
Layer_0
  10
32.730419
  20
176.67816
  0
VERTEX
  5
cc
  8
Layer_0
  10
32.727978
  20
176.73724
  42
0.17377055
  0
VERTEX
  5
cd
  8
Layer_0
  10
32.556591
  20
177.13861
  42
0.1566537
  0
VERTEX
  5
ce
  8
Layer_0
  10
32.317333
  20
177.2641
  42
0.11793914
  0
VERTEX
  5
cf
  8
Layer_0
  10
32.041943
  20
177.25385
  42
0.14739733
  0
VERTEX
  5
d0
  8
Layer_0
  10
31.711864
  20
177.03461
  42
0.11948929
  0
VERTEX
  5
d1
  8
Layer_0
  10
31.616161
  20
176.80609
  42
0.047025926
  0
VERTEX
  5
d2
  8
Layer_0
  10
31.603954
  20
176.664
  0
VERTEX
  5
d3
  8
Layer_0
  10
31.602001
  20
176.28314
  0
VERTEX
  5
d4
  8
Layer_0
  10
31.594189
  20
175.64594
  42
0.0073074477
  0
VERTEX
  5
d5
  8
Layer_0
  10
31.602489
  20
173.53168
  42
0.0089406226
  0
VERTEX
  5
d6
  8
Layer_0
  10
31.64497
  20
172.61908
  0
VERTEX
  5
d7
  8
Layer_0
  10
31.67329
  20
171.49066
  42
0.040760525
  0
VERTEX
  5
d8
  8
Layer_0
  10
31.69331
  20
171.31146
  42
0.11910256
  0
VERTEX
  5
d9
  8
Layer_0
  10
31.792431
  20
171.08295
  42
0.091671768
  0
VERTEX
  5
da
  8
Layer_0
  10
31.885693
  20
171.00189
  42
0.098242241
  0
VERTEX
  5
db
  8
Layer_0
  10
32.201122
  20
170.88275
  42
0.068086366
  0
SEQEND
  0
POLYLINE
  5
dd
  8
Layer_0
  62
7
  70
1
  66
1
  10
0
  20
0
  30
0
  0
VERTEX
  5
dd
  8
Layer_0
  10
17.199657
  20
170.87494
  42
0.090691223
  0
VERTEX
  5
de
  8
Layer_0
  10
18.606884
  20
171.16644
  42
0.029668192
  0
VERTEX
  5
df
  8
Layer_0
  10
19.149364
  20
171.42181
  42
0.033304107
  0
VERTEX
  5
e0
  8
Layer_0
  10
19.617138
  20
171.7182
  0
VERTEX
  5
e1
  8
Layer_0
  10
19.756786
  20
171.8266
  0
VERTEX
  5
e2
  8
Layer_0
  10
19.908154
  20
171.95746
  42
-0.079617584
  0
VERTEX
  5
e3
  8
Layer_0
  10
19.982861
  20
172.00433
  42
-0.15377712
  0
VERTEX
  5
e4
  8
Layer_0
  10
20.047314
  20
172.01166
  42
-0.18273443
  0
VERTEX
  5
e5
  8
Layer_0
  10
20.113232
  20
171.96381
  42
-0.08595592
  0
VERTEX
  5
e6
  8
Layer_0
  10
20.171337
  20
171.82416
  42
-0.045479323
  0
VERTEX
  5
e7
  8
Layer_0
  10
20.212353
  20
171.49701
  42
-0.014087272
  0
VERTEX
  5
e8
  8
Layer_0
  10
20.217236
  20
171.27289
  0
VERTEX
  5
e9
  8
Layer_0
  10
20.220654
  20
171.22211
  42
0.16740777
  0
VERTEX
  5
ea
  8
Layer_0
  10
20.295361
  20
171.06049
  42
0.10475841
  0
VERTEX
  5
eb
  8
Layer_0
  10
20.416454
  20
170.9848
  42
0.050050899
  0
VERTEX
  5
ec
  8
Layer_0
  10
20.643993
  20
170.91986
  42
0.10469616
  0
VERTEX
  5
ed
  8
Layer_0
  10
20.932568
  20
170.9306
  42
0.0328245
  0
VERTEX
  5
ee
  8
Layer_0
  10
21.1479
  20
170.99506
  42
0.25279704
  0
VERTEX
  5
ef
  8
Layer_0
  10
21.361767
  20
171.22845
  42
0.042641105
  0
VERTEX
  5
f0
  8
Layer_0
  10
21.381298
  20
171.33197
  0
VERTEX
  5
f1
  8
Layer_0
  10
21.384716
  20
171.41058
  0
VERTEX
  5
f2
  8
Layer_0
  10
21.405712
  20
176.90472
  42
0.15409448
  0
VERTEX
  5
f3
  8
Layer_0
  10
21.272411
  20
177.24066
  42
0.18476222
  0
VERTEX
  5
f4
  8
Layer_0
  10
20.959911
  20
177.41742
  42
0.094867224
  0
VERTEX
  5
f5
  8
Layer_0
  10
20.647411
  20
177.40521
  42
0.079545218
  0
VERTEX
  5
f6
  8
Layer_0
  10
20.542919
  20
177.36078
  0
VERTEX
  5
f7
  8
Layer_0
  10
20.490673
  20
177.32367
  0
VERTEX
  5
f8
  8
Layer_0
  10
20.464306
  20
177.31586
  0
VERTEX
  5
f9
  8
Layer_0
  10
20.436962
  20
177.31732
  42
-0.11793214
  0
VERTEX
  5
fa
  8
Layer_0
  10
20.379833
  20
177.34711
  42
-0.072854324
  0
VERTEX
  5
fb
  8
Layer_0
  10
20.286083
  20
177.46088
  0
VERTEX
  5
fc
  8
Layer_0
  10
20.252392
  20
177.50043
  42
0.046511531
  0
VERTEX
  5
fd
  8
Layer_0
  10
20.027294
  20
177.69135
  42
0.047910217
  0
VERTEX
  5
fe
  8
Layer_0
  10
19.432079
  20
178.05072
  42
0.039522942
  0
VERTEX
  5
ff
  8
Layer_0
  10
18.754833
  20
178.29877
  42
0.076666107
  0
VERTEX
  5
100
  8
Layer_0
  10
17.628368
  20
178.33295
  42
0.074990347
  0
VERTEX
  5
101
  8
Layer_0
  10
16.208447
  20
177.94623
  42
0.072719356
  0
VERTEX
  5
102
  8
Layer_0
  10
15.220166
  20
177.31488
  42
0.055674898
  0
VERTEX
  5
103
  8
Layer_0
  10
14.746533
  20
176.79828
  0
VERTEX
  5
104
  8
Layer_0
  10
14.590283
  20
176.57172
  42
0.080475242
  0
VERTEX
  5
105
  8
Layer_0
  10
14.141553
  20
175.58148
  42
0.10039403
  0
VERTEX
  5
106
  8
Layer_0
  10
14.005322
  20
173.8476
  42
0.051933661
  0
VERTEX
  5
107
  8
Layer_0
  10
14.178174
  20
173.09467
  42
0.028879813
  0
VERTEX
  5
108
  8
Layer_0
  10
14.318311
  20
172.75433
  42
0.013991666
  0
VERTEX
  5
109
  8
Layer_0
  10
14.472119
  20
172.45697
  42
0.11617554
  0
VERTEX
  5
10a
  8
Layer_0
  10
15.512647
  20
171.31244
  42
0.13340813
  0
VERTEX
  5
10b
  8
Layer_0
  10
16.771435
  20
170.88275
  0
VERTEX
  5
10c
  8
Layer_0
  10
16.879833
  20
170.87689
  42
0.014949561
  0
SEQEND
  0
POLYLINE
  5
10e
  8
Layer_0
  62
7
  70
1
  66
1
  10
0
  20
0
  30
0
  0
VERTEX
  5
10e
  8
Layer_0
  10
10.844678
  20
170.89301
  42
0.040250183
  0
VERTEX
  5
10f
  8
Layer_0
  10
11.406201
  20
170.95697
  42
0.076439491
  0
VERTEX
  5
110
  8
Layer_0
  10
12.505322
  20
171.32806
  42
0.072840952
  0
VERTEX
  5
111
  8
Layer_0
  10
13.494092
  20
172.03558
  42
0.092057302
  0
VERTEX
  5
112
  8
Layer_0
  10
13.678662
  20
172.33734
  42
0.16614012
  0
VERTEX
  5
113
  8
Layer_0
  10
13.717237
  20
172.6972
  42
0.062329689
  0
VERTEX
  5
114
  8
Layer_0
  10
13.644971
  20
172.90082
  42
0.088165173
  0
VERTEX
  5
115
  8
Layer_0
  10
13.510205
  20
173.03949
  42
0.069705024
  0
VERTEX
  5
116
  8
Layer_0
  10
13.407178
  20
173.09222
  42
0.1034605
  0
VERTEX
  5
117
  8
Layer_0
  10
13.23335
  20
173.11029
  42
0.12325146
  0
VERTEX
  5
118
  8
Layer_0
  10
12.967237
  20
173.0224
  42
0.079534342
  0
VERTEX
  5
119
  8
Layer_0
  10
12.848584
  20
172.91449
  0
VERTEX
  5
11a
  8
Layer_0
  10
12.75874
  20
172.83636
  42
-0.074095436
  0
VERTEX
  5
11b
  8
Layer_0
  10
11.904737
  20
172.30121
  42
-0.092397607
  0
VERTEX
  5
11c
  8
Layer_0
  10
10.876416
  20
172.06342
  42
-0.12737069
  0
VERTEX
  5
11d
  8
Layer_0
  10
9.8324709
  20
172.29095
  0
VERTEX
  5
11e
  8
Layer_0
  10
9.6835451
  20
172.37103
  42
-0.14368292
  0
VERTEX
  5
11f
  8
Layer_0
  10
9.02876
  20
173.05951
  42
-0.079847732
  0
VERTEX
  5
120
  8
Layer_0
  10
8.7904787
  20
173.78558
  42
-0.070223967
  0
VERTEX
  5
121
  8
Layer_0
  10
8.7650881
  20
174.77728
  42
-0.11236627
  0
VERTEX
  5
122
  8
Layer_0
  10
9.1610842
  20
175.86469
  42
-0.023568273
  0
VERTEX
  5
123
  8
Layer_0
  10
9.2895021
  20
176.04828
  0
VERTEX
  5
124
  8
Layer_0
  10
9.4296389
  20
176.22113
  42
-0.094835429
  0
VERTEX
  5
125
  8
Layer_0
  10
10.276319
  20
176.90179
  42
-0.075899979
  0
VERTEX
  5
126
  8
Layer_0
  10
11.081494
  20
177.19476
  42
-0.098463476
  0
VERTEX
  5
127
  8
Layer_0
  10
11.736768
  20
177.19818
  42
-0.081384996
  0
VERTEX
  5
128
  8
Layer_0
  10
12.120069
  20
177.05414
  42
-0.11039139
  0
VERTEX
  5
129
  8
Layer_0
  10
12.529737
  20
176.65961
  42
-0.041024848
  0
VERTEX
  5
12a
  8
Layer_0
  10
12.689404
  20
176.37396
  0
VERTEX
  5
12b
  8
Layer_0
  10
12.754346
  20
176.22699
  42
0.092182254
  0
VERTEX
  5
12c
  8
Layer_0
  10
12.862256
  20
176.07465
  42
0.1590369
  0
VERTEX
  5
12d
  8
Layer_0
  10
13.054639
  20
175.9809
  42
0.14055079
  0
VERTEX
  5
12e
  8
Layer_0
  10
13.407666
  20
176.02386
  42
0.21842733
  0
VERTEX
  5
12f
  8
Layer_0
  10
13.661572
  20
176.30707
  42
0.083032889
  0
VERTEX
  5
130
  8
Layer_0
  10
13.691358
  20
176.61029
  42
0.093435914
  0
VERTEX
  5
131
  8
Layer_0
  10
13.631299
  20
176.87006
  42
0.056890214
  0
VERTEX
  5
132
  8
Layer_0
  10
13.201123
  20
177.50482
  42
0.10062805
  0
VERTEX
  5
133
  8
Layer_0
  10
12.370557
  20
178.15326
  42
0.078503821
  0
VERTEX
  5
134
  8
Layer_0
  10
11.612256
  20
178.39301
  42
0.09114255
  0
VERTEX
  5
135
  8
Layer_0
  10
10.715283
  20
178.35883
  42
0.066250661
  0
VERTEX
  5
136
  8
Layer_0
  10
9.9042482
  20
178.05902
  42
0.054368254
  0
VERTEX
  5
137
  8
Layer_0
  10
9.2401857
  20
177.60931
  42
0.073777957
  0
VERTEX
  5
138
  8
Layer_0
  10
8.3905764
  20
176.66107
  42
0.091430356
  0
VERTEX
  5
139
  8
Layer_0
  10
7.7782717
  20
175.185
  42
0.066031299
  0
VERTEX
  5
13a
  8
Layer_0
  10
7.7040529
  20
174.1557
  42
0.068543188
  0
VERTEX
  5
13b
  8
Layer_0
  10
7.9218264
  20
172.94525
  42
0.056793229
  0
VERTEX
  5
13c
  8
Layer_0
  10
8.2587404
  20
172.20746
  42
0.13221479
  0
VERTEX
  5
13d
  8
Layer_0
  10
9.2636232
  20
171.23871
  42
0.080071833
  0
VERTEX
  5
13e
  8
Layer_0
  10
10.149365
  20
170.94037
  42
0.05110763
  0
SEQEND
  0
POLYLINE
  5
140
  8
Layer_0
  62
7
  70
1
  66
1
  10
0
  20
0
  30
0
  0
VERTEX
  5
140
  8
Layer_0
  10
-4.1001463
  20
175.24945
  42
-0.02420654
  0
VERTEX
  5
141
  8
Layer_0
  10
-3.5239744
  20
176.97992
  42
-0.011872144
  0
VERTEX
  5
142
  8
Layer_0
  10
-2.9058104
  20
178.47015
  0
VERTEX
  5
143
  8
Layer_0
  10
-2.7505369
  20
178.2182
  42
-0.0081220505
  0
VERTEX
  5
144
  8
Layer_0
  10
-2.0332518
  20
176.98431
  42
-0.022734252
  0
VERTEX
  5
145
  8
Layer_0
  10
-1.2026854
  20
175.26996
  0
VERTEX
  5
146
  8
Layer_0
  10
-4.1763182
  20
174.97455
  0
SEQEND
  0
POLYLINE
  5
148
  8
Layer_0
  62
7
  70
1
  66
1
  10
0
  20
0
  30
0
  0
VERTEX
  5
148
  8
Layer_0
  10
2.87251
  20
170.76703
  42
0.098231203
  0
VERTEX
  5
149
  8
Layer_0
  10
3.0561037
  20
170.84027
  42
0.052664684
  0
VERTEX
  5
14a
  8
Layer_0
  10
3.1879396
  20
170.935
  42
0.10444936
  0
VERTEX
  5
14b
  8
Layer_0
  10
3.2836428
  20
171.07806
  42
0.07566532
  0
VERTEX
  5
14c
  8
Layer_0
  10
3.3270998
  20
171.2724
  0
VERTEX
  5
14d
  8
Layer_0
  10
3.3300295
  20
171.34857
  0
VERTEX
  5
14e
  8
Layer_0
  10
3.3275881
  20
171.68158
  42
-0.014457886
  0
VERTEX
  5
14f
  8
Layer_0
  10
3.3612795
  20
173.30658
  42
-0.02615441
  0
VERTEX
  5
150
  8
Layer_0
  10
3.4545412
  20
174.23041
  42
-0.034760033
  0
VERTEX
  5
151
  8
Layer_0
  10
3.5770998
  20
174.77582
  42
-0.038503328
  0
VERTEX
  5
152
  8
Layer_0
  10
3.7294436
  20
175.16791
  42
-0.062147863
  0
VERTEX
  5
153
  8
Layer_0
  10
3.9105959
  20
175.45209
  42
-0.033431771
  0
VERTEX
  5
154
  8
Layer_0
  10
4.3808107
  20
175.92914
  42
-0.029987055
  0
VERTEX
  5
155
  8
Layer_0
  10
4.4291506
  20
175.97455
  42
-0.064241468
  0
VERTEX
  5
156
  8
Layer_0
  10
4.7089357
  20
176.13715
  42
-0.14968565
  0
VERTEX
  5
157
  8
Layer_0
  10
5.2270021
  20
176.17767
  42
-0.12187461
  0
VERTEX
  5
158
  8
Layer_0
  10
5.725049
  20
175.90814
  42
-0.067974244
  0
VERTEX
  5
159
  8
Layer_0
  10
5.9530764
  20
175.61127
  0
VERTEX
  5
15a
  8
Layer_0
  10
6.0058107
  20
175.51654
  0
VERTEX
  5
15b
  8
Layer_0
  10
6.0937014
  20
175.33783
  42
0.06908562
  0
VERTEX
  5
15c
  8
Layer_0
  10
6.21626
  20
175.15912
  42
0.10417634
  0
VERTEX
  5
15d
  8
Layer_0
  10
6.3563967
  20
175.05707
  42
0.19672023
  0
VERTEX
  5
15e
  8
Layer_0
  10
6.7079592
  20
175.06146
  42
0.049454411
  0
VERTEX
  5
15f
  8
Layer_0
  10
6.8051271
  20
175.11224
  42
0.095326942
  0
VERTEX
  5
160
  8
Layer_0
  10
6.9574709
  20
175.39594
  42
0.072416854
  0
VERTEX
  5
161
  8
Layer_0
  10
7.0141115
  20
175.66302
  42
0.064772898
  0
VERTEX
  5
162
  8
Layer_0
  10
6.981885
  20
176.00824
  42
0.022816935
  0
VERTEX
  5
163
  8
Layer_0
  10
6.9286623
  20
176.21088
  42
0.067938096
  0
VERTEX
  5
164
  8
Layer_0
  10
6.62251
  20
176.78607
  42
0.084396854
  0
VERTEX
  5
165
  8
Layer_0
  10
6.21626
  20
177.18451
  42
0.072480451
  0
VERTEX
  5
166
  8
Layer_0
  10
5.7108889
  20
177.45062
  42
0.13547549
  0
VERTEX
  5
167
  8
Layer_0
  10
4.665967
  20
177.50873
  42
0.059034345
  0
VERTEX
  5
168
  8
Layer_0
  10
4.2016115
  20
177.35687
  42
0.090342853
  0
VERTEX
  5
169
  8
Layer_0
  10
3.6898928
  20
176.98529
  42
0.063615936
  0
VERTEX
  5
16a
  8
Layer_0
  10
3.3808107
  20
176.58099
  42
0.082822514
  0
VERTEX
  5
16b
  8
Layer_0
  10
3.3334475
  20
176.45697
  0
VERTEX
  5
16c
  8
Layer_0
  10
3.3300295
  20
176.42377
  0
VERTEX
  5
16d
  8
Layer_0
  10
3.3300295
  20
177.93451
  42
0.067780476
  0
VERTEX
  5
16e
  8
Layer_0
  10
3.3041506
  20
178.15326
  42
0.064757203
  0
VERTEX
  5
16f
  8
Layer_0
  10
3.2577639
  20
178.26166
  42
0.081704012
  0
VERTEX
  5
170
  8
Layer_0
  10
3.1879396
  20
178.33978
  0
VERTEX
  5
171
  8
Layer_0
  10
3.1444826
  20
178.36713
  42
0.050098916
  0
VERTEX
  5
172
  8
Layer_0
  10
2.9052248
  20
178.46918
  0
VERTEX
  5
173
  8
Layer_0
  10
2.8422365
  20
178.48431
  42
0.18718688
  0
VERTEX
  5
174
  8
Layer_0
  10
2.5746584
  20
178.37982
  42
0.14217693
  0
VERTEX
  5
175
  8
Layer_0
  10
2.3910646
  20
178.08392
  42
0.074410119
  0
VERTEX
  5
176
  8
Layer_0
  10
2.3549318
  20
177.81097
  0
VERTEX
  5
177
  8
Layer_0
  10
2.3549318
  20
171.22504
  42
0.081029858
  0
VERTEX
  5
178
  8
Layer_0
  10
2.3808107
  20
171.04828
  42
0.1578516
  0
VERTEX
  5
179
  8
Layer_0
  10
2.4970217
  20
170.88763
  0
VERTEX
  5
17a
  8
Layer_0
  10
2.5404787
  20
170.86127
  42
0.056177309
  0
VERTEX
  5
17b
  8
Layer_0
  10
2.7450686
  20
170.77826
  42
0.091043748
  0
SEQEND
  0
POLYLINE
  5
17d
  8
Layer_0
  62
7
  70
1
  66
1
  10
0
  20
0
  30
0
  0
VERTEX
  5
17d
  8
Layer_0
  10
-5.1226072
  20
170.87787
  42
0.054326004
  0
VERTEX
  5
17e
  8
Layer_0
  10
-4.9966307
  20
170.90179
  42
0.16366372
  0
VERTEX
  5
17f
  8
Layer_0
  10
-4.7598143
  20
171.06732
  42
0.070683091
  0
VERTEX
  5
180
  8
Layer_0
  10
-4.6094236
  20
171.32465
  42
0.036463149
  0
VERTEX
  5
181
  8
Layer_0
  10
-4.5884275
  20
171.39691
  0
VERTEX
  5
182
  8
Layer_0
  10
-4.5522947
  20
171.71967
  42
-0.010408485
  0
VERTEX
  5
183
  8
Layer_0
  10
-4.4233885
  20
172.64984
  42
-0.0048209108
  0
VERTEX
  5
184
  8
Layer_0
  10
-4.2310057
  20
173.78656
  0
VERTEX
  5
185
  8
Layer_0
  10
-0.89360332
  20
174.17133
  42
-0.010830121
  0
VERTEX
  5
186
  8
Layer_0
  10
-0.41557598
  20
172.47455
  42
-0.0098353269
  0
VERTEX
  5
187
  8
Layer_0
  10
-0.24760723
  20
171.73627
  0
VERTEX
  5
188
  8
Layer_0
  10
-0.16215801
  20
171.30219
  42
0.13455561
  0
VERTEX
  5
189
  8
Layer_0
  10
-0.057665825
  20
171.11859
  42
0.094892686
  0
VERTEX
  5
18a
  8
Layer_0
  10
0.14643574
  20
170.98334
  42
0.083924002
  0
VERTEX
  5
18b
  8
Layer_0
  10
0.41547871
  20
170.90375
  42
0.18634667
  0
VERTEX
  5
18c
  8
Layer_0
  10
0.77729511
  20
170.99799
  42
0.17509325
  0
VERTEX
  5
18d
  8
Layer_0
  10
0.99506855
  20
171.33002
  42
0.10773377
  0
VERTEX
  5
18e
  8
Layer_0
  10
0.99506855
  20
171.55463
  42
0.013348856
  0
VERTEX
  5
18f
  8
Layer_0
  10
0.55463886
  20
173.38666
  42
0.021364169
  0
VERTEX
  5
190
  8
Layer_0
  10
-0.054247856
  20
175.32465
  42
0.017669038
  0
VERTEX
  5
191
  8
Layer_0
  10
-0.77788067
  20
177.16888
  0
VERTEX
  5
192
  8
Layer_0
  10
-0.89360332
  20
177.4267
  42
0.016112134
  0
VERTEX
  5
193
  8
Layer_0
  10
-1.4561033
  20
178.50677
  42
0.01695176
  0
VERTEX
  5
194
  8
Layer_0
  10
-1.7485838
  20
178.98871
  42
0.0070764945
  0
VERTEX
  5
195
  8
Layer_0
  10
-2.2466307
  20
179.73383
  42
0.011257561
  0
VERTEX
  5
196
  8
Layer_0
  10
-2.1367674
  20
179.93207
  0
VERTEX
  5
197
  8
Layer_0
  10
-2.1157713
  20
179.98138
  0
VERTEX
  5
198
  8
Layer_0
  10
-2.0679197
  20
180.05316
  0
VERTEX
  5
199
  8
Layer_0
  10
-2.0576658
  20
180.07465
  42
0.10500598
  0
VERTEX
  5
19a
  8
Layer_0
  10
-2.0518064
  20
180.38129
  42
0.088485385
  0
VERTEX
  5
19b
  8
Layer_0
  10
-2.1226072
  20
180.60541
  42
0.10794732
  0
VERTEX
  5
19c
  8
Layer_0
  10
-2.2256346
  20
180.72308
  42
0.07389387
  0
VERTEX
  5
19d
  8
Layer_0
  10
-2.4380369
  20
180.82269
  42
0.096076574
  0
VERTEX
  5
19e
  8
Layer_0
  10
-2.6411619
  20
180.84467
  42
0.080487533
  0
VERTEX
  5
19f
  8
Layer_0
  10
-2.834033
  20
180.79144
  42
0.098186232
  0
VERTEX
  5
1a0
  8
Layer_0
  10
-3.0752439
  20
180.63226
  42
0.045127541
  0
VERTEX
  5
1a1
  8
Layer_0
  10
-3.1392088
  20
180.55121
  0
VERTEX
  5
1a2
  8
Layer_0
  10
-3.5029783
  20
179.8681
  42
0.01980634
  0
VERTEX
  5
1a3
  8
Layer_0
  10
-3.8584471
  20
179.11664
  42
0.019261654
  0
VERTEX
  5
1a4
  8
Layer_0
  10
-4.4814939
  20
177.5014
  42
0.015519396
  0
VERTEX
  5
1a5
  8
Layer_0
  10
-5.0176268
  20
175.71039
  42
0.029579545
  0
VERTEX
  5
1a6
  8
Layer_0
  10
-5.5757322
  20
173.05023
  42
0.012557427
  0
VERTEX
  5
1a7
  8
Layer_0
  10
-5.774951
  20
171.46381
  42
0.13090592
  0
VERTEX
  5
1a8
  8
Layer_0
  10
-5.7109861
  20
171.18597
  42
0.098668193
  0
VERTEX
  5
1a9
  8
Layer_0
  10
-5.5537596
  20
170.98383
  42
0.13377877
  0
VERTEX
  5
1aa
  8
Layer_0
  10
-5.3291502
  20
170.88226
  42
0.05064468
  0
SEQEND
  0
POLYLINE
  5
1ac
  8
Layer_0
  62
7
  70
1
  66
1
  10
0
  20
0
  30
0
  0
VERTEX
  5
1ac
  8
Layer_0
  10
27.442333
  20
170.87933
  42
0.10585115
  0
VERTEX
  5
1ad
  8
Layer_0
  10
27.660595
  20
170.94672
  42
0.1496651
  0
VERTEX
  5
1ae
  8
Layer_0
  10
27.840282
  20
171.14252
  42
0.12313689
  0
VERTEX
  5
1af
  8
Layer_0
  10
27.914013
  20
171.49017
  42
0.034770219
  0
VERTEX
  5
1b0
  8
Layer_0
  10
27.902294
  20
171.62347
  0
VERTEX
  5
1b1
  8
Layer_0
  10
27.869579
  20
171.83392
  42
-0.025325552
  0
VERTEX
  5
1b2
  8
Layer_0
  10
27.746044
  20
173.20892
  42
-0.022546439
  0
VERTEX
  5
1b3
  8
Layer_0
  10
27.758251
  20
175.05756
  42
-0.0061966678
  0
VERTEX
  5
1b4
  8
Layer_0
  10
27.792431
  20
175.63422
  42
-0.022547579
  0
VERTEX
  5
1b5
  8
Layer_0
  10
28.328564
  20
180.28168
  0
VERTEX
  5
1b6
  8
Layer_0
  10
28.330029
  20
180.3349
  42
0.12420018
  0
VERTEX
  5
1b7
  8
Layer_0
  10
28.251415
  20
180.60101
  42
0.067830188
  0
VERTEX
  5
1b8
  8
Layer_0
  10
28.109814
  20
180.78607
  42
0.12765491
  0
VERTEX
  5
1b9
  8
Layer_0
  10
27.965771
  20
180.87445
  0
VERTEX
  5
1ba
  8
Layer_0
  10
27.929638
  20
180.8808
  0
VERTEX
  5
1bb
  8
Layer_0
  10
27.869091
  20
180.90082
  42
0.065725215
  0
VERTEX
  5
1bc
  8
Layer_0
  10
27.756298
  20
180.91449
  42
0.078221096
  0
VERTEX
  5
1bd
  8
Layer_0
  10
27.654247
  20
180.89398
  42
0.11322674
  0
VERTEX
  5
1be
  8
Layer_0
  10
27.520947
  20
180.79828
  42
0.068441843
  0
VERTEX
  5
1bf
  8
Layer_0
  10
27.371532
  20
180.58881
  42
0.069035227
  0
VERTEX
  5
1c0
  8
Layer_0
  10
27.33247
  20
180.47552
  0
VERTEX
  5
1c1
  8
Layer_0
  10
27.325146
  20
180.46039
  42
0.036872584
  0
VERTEX
  5
1c2
  8
Layer_0
  10
27.285107
  20
180.29828
  42
0.0083867905
  0
VERTEX
  5
1c3
  8
Layer_0
  10
27.227978
  20
179.97455
  42
0.0082425819
  0
VERTEX
  5
1c4
  8
Layer_0
  10
27.004833
  20
178.37006
  42
0.013769544
  0
VERTEX
  5
1c5
  8
Layer_0
  10
26.903759
  20
177.29193
  42
0.010707226
  0
VERTEX
  5
1c6
  8
Layer_0
  10
26.885693
  20
176.86322
  0
VERTEX
  5
1c7
  8
Layer_0
  10
26.838329
  20
176.89301
  42
0.011680178
  0
VERTEX
  5
1c8
  8
Layer_0
  10
26.310497
  20
177.15961
  42
0.076487893
  0
VERTEX
  5
1c9
  8
Layer_0
  10
25.615185
  20
177.34174
  42
0.028168063
  0
VERTEX
  5
1ca
  8
Layer_0
  10
25.203564
  20
177.36469
  42
0.1426231
  0
VERTEX
  5
1cb
  8
Layer_0
  10
23.487255
  20
176.75775
  42
0.094333161
  0
VERTEX
  5
1cc
  8
Layer_0
  10
22.850048
  20
176.08929
  42
0.014620925
  0
VERTEX
  5
1cd
  8
Layer_0
  10
22.690868
  20
175.83051
  42
0.07181064
  0
VERTEX
  5
1ce
  8
Layer_0
  10
22.321239
  20
174.87201
  42
0.087275175
  0
VERTEX
  5
1cf
  8
Layer_0
  10
22.234814
  20
173.2851
  42
0.073013496
  0
VERTEX
  5
1d0
  8
Layer_0
  10
22.498486
  20
172.32562
  42
0.09893837
  0
VERTEX
  5
1d1
  8
Layer_0
  10
23.112255
  20
171.45111
  42
0.098244693
  0
VERTEX
  5
1d2
  8
Layer_0
  10
23.762646
  20
171.03168
  42
0.081188042
  0
VERTEX
  5
1d3
  8
Layer_0
  10
24.365673
  20
170.90912
  42
0.043456416
  0
VERTEX
  5
1d4
  8
Layer_0
  10
25.169872
  20
170.93939
  42
0.054014463
  0
VERTEX
  5
1d5
  8
Layer_0
  10
25.706982
  20
171.06537
  42
0.057207091
  0
VERTEX
  5
1d6
  8
Layer_0
  10
26.049755
  20
171.23236
  42
0.047425814
  0
VERTEX
  5
1d7
  8
Layer_0
  10
26.688427
  20
171.76703
  42
0.02894097
  0
VERTEX
  5
1d8
  8
Layer_0
  10
26.831982
  20
171.93597
  0
VERTEX
  5
1d9
  8
Layer_0
  10
26.885693
  20
172.01459
  0
VERTEX
  5
1da
  8
Layer_0
  10
26.876415
  20
171.99896
  42
0.069932787
  0
VERTEX
  5
1db
  8
Layer_0
  10
26.858349
  20
171.90765
  42
0.04273029
  0
VERTEX
  5
1dc
  8
Layer_0
  10
26.878857
  20
171.4389
  42
0.030254656
  0
VERTEX
  5
1dd
  8
Layer_0
  10
26.903271
  20
171.31195
  42
0.15083461
  0
VERTEX
  5
1de
  8
Layer_0
  10
27.145947
  20
170.94623
  42
0.13558354
  0
VERTEX
  5
1df
  8
Layer_0
  10
27.32954
  20
170.87836
  42
0.051801843
  0
SEQEND
  0
POLYLINE
  5
1e1
  8
Layer_0
  62
7
  70
1
  66
1
  10
0
  20
0
  30
0
  0
VERTEX
  5
1e1
  8
Layer_0
  10
31.16206
  20
180.11713
  0
VERTEX
  5
1e2
  8
Layer_0
  10
31.121532
  20
180.12689
  42
-0.18289416
  0
VERTEX
  5
1e3
  8
Layer_0
  10
30.931103
  20
180.26947
  42
-0.15158283
  0
VERTEX
  5
1e4
  8
Layer_0
  10
30.834911
  20
180.56488
  42
-0.21697171
  0
VERTEX
  5
1e5
  8
Layer_0
  10
31.027294
  20
180.93011
  42
-0.18274941
  0
VERTEX
  5
1e6
  8
Layer_0
  10
31.260693
  20
180.99066
  42
-0.22468943
  0
VERTEX
  5
1e7
  8
Layer_0
  10
31.528271
  20
180.83978
  42
-0.25671796
  0
VERTEX
  5
1e8
  8
Layer_0
  10
31.592724
  20
180.41888
  42
-0.16531656
  0
VERTEX
  5
1e9
  8
Layer_0
  10
31.393017
  20
180.16254
  42
-0.1791214
  0
SEQEND
  0
POLYLINE
  5
1eb
  8
Layer_0
  62
7
  70
1
  66
1
  10
0
  20
0
  30
0
  0
VERTEX
  5
1eb
  8
Layer_0
  10
32.208935
  20
178.00238
  0
VERTEX
  5
1ec
  8
Layer_0
  10
32.222118
  20
178.01019
  0
VERTEX
  5
1ed
  8
Layer_0
  10
32.236767
  20
178.02289
  42
0.042628874
  0
VERTEX
  5
1ee
  8
Layer_0
  10
32.290478
  20
178.09271
  0
VERTEX
  5
1ef
  8
Layer_0
  10
32.320751
  20
178.15375
  42
-0.09217813
  0
VERTEX
  5
1f0
  8
Layer_0
  10
32.598583
  20
178.49359
  0
VERTEX
  5
1f1
  8
Layer_0
  10
32.661572
  20
178.54584
  0
VERTEX
  5
1f2
  8
Layer_0
  10
32.839306
  20
178.70111
  42
-0.018228343
  0
VERTEX
  5
1f3
  8
Layer_0
  10
33.05122
  20
178.87299
  42
-0.041292922
  0
VERTEX
  5
1f4
  8
Layer_0
  10
33.197216
  20
178.97162
  0
VERTEX
  5
1f5
  8
Layer_0
  10
33.31538
  20
179.02679
  42
0.040433286
  0
VERTEX
  5
1f6
  8
Layer_0
  10
33.80122
  20
179.30121
  42
0.053251506
  0
VERTEX
  5
1f7
  8
Layer_0
  10
34.061962
  20
179.52094
  42
0.087653781
  0
VERTEX
  5
1f8
  8
Layer_0
  10
34.209911
  20
179.74066
  42
0.056418905
  0
VERTEX
  5
1f9
  8
Layer_0
  10
34.241161
  20
179.85052
  42
0.057447428
  0
VERTEX
  5
1fa
  8
Layer_0
  10
34.257275
  20
180.23724
  42
0.078896713
  0
VERTEX
  5
1fb
  8
Layer_0
  10
34.182568
  20
180.55804
  42
0.13821869
  0
VERTEX
  5
1fc
  8
Layer_0
  10
33.899853
  20
180.91742
  42
0.038990936
  0
VERTEX
  5
1fd
  8
Layer_0
  10
33.760204
  20
181.00433
  42
0.14980697
  0
VERTEX
  5
1fe
  8
Layer_0
  10
33.249462
  20
181.02045
  42
0.11376796
  0
VERTEX
  5
1ff
  8
Layer_0
  10
32.872997
  20
180.80365
  42
0.04593881
  0
VERTEX
  5
200
  8
Layer_0
  10
32.679638
  20
180.59418
  42
0.044525156
  0
VERTEX
  5
201
  8
Layer_0
  10
32.428173
  20
180.19427
  0
VERTEX
  5
202
  8
Layer_0
  10
32.403271
  20
180.27582
  42
0.061863854
  0
VERTEX
  5
203
  8
Layer_0
  10
32.161572
  20
180.82611
  42
0.093766805
  0
VERTEX
  5
204
  8
Layer_0
  10
31.841259
  20
181.19086
  42
0.15732496
  0
VERTEX
  5
205
  8
Layer_0
  10
31.271435
  20
181.39008
  42
0.046104042
  0
VERTEX
  5
206
  8
Layer_0
  10
31.027294
  20
181.37543
  42
0.1033419
  0
VERTEX
  5
207
  8
Layer_0
  10
30.640575
  20
181.14008
  42
0.16284605
  0
VERTEX
  5
208
  8
Layer_0
  10
30.388622
  20
180.6474
  42
0.050583349
  0
VERTEX
  5
209
  8
Layer_0
  10
30.372997
  20
180.38129
  42
0.04482882
  0
VERTEX
  5
20a
  8
Layer_0
  10
30.422802
  20
180.01556
  42
0.076421825
  0
VERTEX
  5
20b
  8
Layer_0
  10
30.577587
  20
179.74847
  42
0.053678885
  0
VERTEX
  5
20c
  8
Layer_0
  10
30.922802
  20
179.40375
  42
0.030459969
  0
VERTEX
  5
20d
  8
Layer_0
  10
31.395458
  20
179.06097
  0
VERTEX
  5
20e
  8
Layer_0
  10
31.450146
  20
179.02045
  42
-0.045320969
  0
VERTEX
  5
20f
  8
Layer_0
  10
31.756298
  20
178.72113
  0
VERTEX
  5
210
  8
Layer_0
  10
31.873486
  20
178.58246
  42
-0.091391826
  0
VERTEX
  5
211
  8
Layer_0
  10
32.156689
  20
178.05511
  0
VERTEX
  5
212
  8
Layer_0
  10
32.167919
  20
178.03168
  0
VERTEX
  5
213
  8
Layer_0
  10
32.180614
  20
178.01019
  0
VERTEX
  5
214
  8
Layer_0
  10
32.188427
  20
178.00238
  0
VERTEX
  5
215
  8
Layer_0
  10
32.198193
  20
177.99994
  0
SEQEND
  0
POLYLINE
  5
217
  8
Layer_2
  62
1
  70
1
  66
1
  10
0
  20
0
  30
0
  0
VERTEX
  5
217
  8
Layer_2
  10
2.9633789
  20
168.76904
  42
0.097093604
  0
VERTEX
  5
218
  8
Layer_2
  10
3.8525391
  20
169
  42
0.076651036
  0
VERTEX
  5
219
  8
Layer_2
  10
4.5708008
  20
169.49023
  42
0.12266638
  0
VERTEX
  5
21a
  8
Layer_2
  10
5.1933594
  20
170.48145
  42
0.074648595
  0
VERTEX
  5
21b
  8
Layer_2
  10
5.3286133
  20
171.27197
  0
VERTEX
  5
21c
  8
Layer_2
  10
5.3300781
  20
171.36328
  0
VERTEX
  5
21d
  8
Layer_2
  10
5.3276367
  20
171.69629
  42
-0.016777309
  0
VERTEX
  5
21e
  8
Layer_2
  10
5.3657227
  20
173.31836
  42
0.040274358
  0
VERTEX
  5
21f
  8
Layer_2
  10
5.7109375
  20
173.16406
  42
0.014555373
  0
VERTEX
  5
220
  8
Layer_2
  10
5.8139648
  20
173.13086
  42
0.054652108
  0
VERTEX
  5
221
  8
Layer_2
  10
6.1992188
  20
171.85107
  42
0.068262209
  0
VERTEX
  5
222
  8
Layer_2
  10
6.9140625
  20
170.64893
  42
0.10896655
  0
VERTEX
  5
223
  8
Layer_2
  10
8.4707031
  20
169.39893
  42
0.087233117
  0
VERTEX
  5
224
  8
Layer_2
  10
10.137207
  20
168.92383
  42
0.075206669
  0
VERTEX
  5
225
  8
Layer_2
  10
11.788086
  20
168.99365
  42
0.10407648
  0
VERTEX
  5
226
  8
Layer_2
  10
14.041016
  20
169.91748
  42
0.16806576
  0
VERTEX
  5
227
  8
Layer_2
  10
16.836914
  20
168.87744
  42
0.058697615
  0
VERTEX
  5
228
  8
Layer_2
  10
18.279297
  20
168.99023
  42
0.045443045
  0
VERTEX
  5
229
  8
Layer_2
  10
19.325684
  20
169.30029
  42
0.059440711
  0
VERTEX
  5
22a
  8
Layer_2
  10
19.879395
  20
169.0542
  42
0.077987405
  0
VERTEX
  5
22b
  8
Layer_2
  10
20.762207
  20
168.91016
  42
0.064241622
  0
VERTEX
  5
22c
  8
Layer_2
  10
21.444336
  20
168.99707
  42
0.050215664
  0
VERTEX
  5
22d
  8
Layer_2
  10
22.071289
  20
169.21729
  42
0.047576527
  0
VERTEX
  5
22e
  8
Layer_2
  10
22.453125
  20
169.45459
  0
VERTEX
  5
22f
  8
Layer_2
  10
22.456055
  20
169.45264
  42
0.12702501
  0
VERTEX
  5
230
  8
Layer_2
  10
24.3125
  20
168.90967
  42
0.04917941
  0
VERTEX
  5
231
  8
Layer_2
  10
25.603516
  20
168.98193
  42
0.038657787
  0
VERTEX
  5
232
  8
Layer_2
  10
26.269043
  20
169.14502
  42
0.063580989
  0
VERTEX
  5
233
  8
Layer_2
  10
26.828125
  20
168.9375
  0
VERTEX
  5
234
  8
Layer_2
  10
26.986328
  20
168.90723
  42
0.071350499
  0
VERTEX
  5
235
  8
Layer_2
  10
27.713379
  20
168.89795
  42
0.11204971
  0
VERTEX
  5
236
  8
Layer_2
  10
28.764648
  20
169.27881
  0
VERTEX
  5
237
  8
Layer_2
  10
28.88916
  20
169.36475
  42
0.019400618
  0
VERTEX
  5
238
  8
Layer_2
  10
29.050293
  20
169.49512
  0
VERTEX
  5
239
  8
Layer_2
  10
29.17041
  20
169.60791
  42
0.018759031
  0
VERTEX
  5
23a
  8
Layer_2
  10
29.299316
  20
169.74805
  0
VERTEX
  5
23b
  8
Layer_2
  10
29.414551
  20
169.89404
  42
0.018001732
  0
VERTEX
  5
23c
  8
Layer_2
  10
29.510742
  20
170.03662
  0
VERTEX
  5
23d
  8
Layer_2
  10
29.602051
  20
170.19482
  42
0.047465149
  0
VERTEX
  5
23e
  8
Layer_2
  10
29.794922
  20
170.66699
  0
VERTEX
  5
23f
  8
Layer_2
  10
29.834961
  20
170.54785
  42
0.09470544
  0
VERTEX
  5
240
  8
Layer_2
  10
30.307617
  20
169.74268
  0
VERTEX
  5
241
  8
Layer_2
  10
30.430664
  20
169.61426
  42
0.030383629
  0
VERTEX
  5
242
  8
Layer_2
  10
30.629883
  20
169.44189
  42
0.018971165
  0
VERTEX
  5
243
  8
Layer_2
  10
30.783691
  20
169.33301
  42
0.079882604
  0
VERTEX
  5
244
  8
Layer_2
  10
31.626465
  20
168.9624
  42
0.026067248
  0
VERTEX
  5
245
  8
Layer_2
  10
31.961426
  20
168.89697
  42
0.030554448
  0
VERTEX
  5
246
  8
Layer_2
  10
32.279785
  20
168.875
  0
VERTEX
  5
247
  8
Layer_2
  10
32.445801
  20
168.87988
  42
0.01696762
  0
VERTEX
  5
248
  8
Layer_2
  10
32.60498
  20
168.89502
  0
VERTEX
  5
249
  8
Layer_2
  10
32.776367
  20
168.92529
  42
0.10938739
  0
VERTEX
  5
24a
  8
Layer_2
  10
33.736328
  20
169.35986
  42
0.11574625
  0
VERTEX
  5
24b
  8
Layer_2
  10
34.483887
  20
170.22852
  42
0.018012873
  0
VERTEX
  5
24c
  8
Layer_2
  10
34.568848
  20
170.41016
  0
VERTEX
  5
24d
  8
Layer_2
  10
34.630371
  20
170.56885
  0
VERTEX
  5
24e
  8
Layer_2
  10
34.645996
  20
170.61523
  42
0.01893576
  0
VERTEX
  5
24f
  8
Layer_2
  10
34.70459
  20
170.82617
  42
0.064885419
  0
VERTEX
  5
250
  8
Layer_2
  10
34.783203
  20
171.62451
  0
VERTEX
  5
251
  8
Layer_2
  10
34.72998
  20
172.89551
  42
-0.010239967
  0
VERTEX
  5
252
  8
Layer_2
  10
34.710938
  20
175.97852
  42
-0.006727124
  0
VERTEX
  5
253
  8
Layer_2
  10
34.729004
  20
176.60645
  0
VERTEX
  5
254
  8
Layer_2
  10
34.729004
  20
176.76074
  42
0.039823286
  0
VERTEX
  5
255
  8
Layer_2
  10
34.677734
  20
177.21631
  0
VERTEX
  5
256
  8
Layer_2
  10
34.635742
  20
177.39453
  0
VERTEX
  5
257
  8
Layer_2
  10
34.620605
  20
177.44775
  0
VERTEX
  5
258
  8
Layer_2
  10
34.618652
  20
177.4541
  0
VERTEX
  5
259
  8
Layer_2
  10
34.699707
  20
177.50195
  42
0.029820513
  0
VERTEX
  5
25a
  8
Layer_2
  10
35.115723
  20
177.78613
  42
0.071675723
  0
VERTEX
  5
25b
  8
Layer_2
  10
35.755859
  20
178.43848
  0
VERTEX
  5
25c
  8
Layer_2
  10
35.851563
  20
178.58057
  0
VERTEX
  5
25d
  8
Layer_2
  10
35.88623
  20
178.63721
  0
VERTEX
  5
25e
  8
Layer_2
  10
35.969238
  20
178.78662
  42
0.094930868
  0
VERTEX
  5
25f
  8
Layer_2
  10
36.237305
  20
179.69482
  42
0.078896783
  0
VERTEX
  5
260
  8
Layer_2
  10
36.196289
  20
180.77881
  42
0.039757606
  0
VERTEX
  5
261
  8
Layer_2
  10
36.061523
  20
181.24365
  42
0.15985509
  0
VERTEX
  5
262
  8
Layer_2
  10
34.946289
  20
182.62402
  42
0.042519935
  0
VERTEX
  5
263
  8
Layer_2
  10
34.533691
  20
182.84863
  42
0.045197334
  0
VERTEX
  5
264
  8
Layer_2
  10
34.069824
  20
182.98926
  42
0.074557879
  0
VERTEX
  5
265
  8
Layer_2
  10
33.226074
  20
183.03955
  42
0.038754508
  0
VERTEX
  5
266
  8
Layer_2
  10
32.782227
  20
182.96484
  0
VERTEX
  5
267
  8
Layer_2
  10
32.731445
  20
182.99463
  42
0.037721694
  0
VERTEX
  5
268
  8
Layer_2
  10
32.310059
  20
183.19434
  42
0.114727
  0
VERTEX
  5
269
  8
Layer_2
  10
30.928223
  20
183.37695
  42
0.038482245
  0
VERTEX
  5
26a
  8
Layer_2
  10
30.525879
  20
183.31152
  42
0.077230546
  0
VERTEX
  5
26b
  8
Layer_2
  10
29.692383
  20
182.9292
  42
0.040478719
  0
VERTEX
  5
26c
  8
Layer_2
  10
29.305664
  20
182.62939
  0
VERTEX
  5
26d
  8
Layer_2
  10
29.179199
  20
182.50537
  0
VERTEX
  5
26e
  8
Layer_2
  10
29.16748
  20
182.49268
  0
VERTEX
  5
26f
  8
Layer_2
  10
29.09082
  20
182.54346
  42
0.075576785
  0
VERTEX
  5
270
  8
Layer_2
  10
28.430176
  20
182.81982
  0
VERTEX
  5
271
  8
Layer_2
  10
28.376953
  20
182.83545
  42
0.028807919
  0
VERTEX
  5
272
  8
Layer_2
  10
28.048828
  20
182.89697
  42
0.051417579
  0
VERTEX
  5
273
  8
Layer_2
  10
27.580078
  20
182.90674
  0
VERTEX
  5
274
  8
Layer_2
  10
27.395508
  20
182.88428
  42
0.13474075
  0
VERTEX
  5
275
  8
Layer_2
  10
26.286621
  20
182.37744
  0
VERTEX
  5
276
  8
Layer_2
  10
26.191895
  20
182.2959
  42
0.095005182
  0
VERTEX
  5
277
  8
Layer_2
  10
25.544922
  20
181.40381
  42
0.033839855
  0
VERTEX
  5
278
  8
Layer_2
  10
25.42627
  20
181.08838
  0
VERTEX
  5
279
  8
Layer_2
  10
25.424316
  20
181.08105
  0
VERTEX
  5
27a
  8
Layer_2
  10
25.401855
  20
181.0083
  42
0.029721598
  0
VERTEX
  5
27b
  8
Layer_2
  10
25.288574
  20
180.49902
  42
0.0056533219
  0
VERTEX
  5
27c
  8
Layer_2
  10
25.250488
  20
180.27344
  42
0.0053998327
  0
VERTEX
  5
27d
  8
Layer_2
  10
25.117188
  20
179.36084
  42
0.055024373
  0
VERTEX
  5
27e
  8
Layer_2
  10
24.020508
  20
179.18848
  42
0.068846469
  0
VERTEX
  5
27f
  8
Layer_2
  10
22.70752
  20
178.63428
  42
0.040116602
  0
VERTEX
  5
280
  8
Layer_2
  10
22.414551
  20
178.90088
  0
VERTEX
  5
281
  8
Layer_2
  10
22.378418
  20
178.92822
  0
VERTEX
  5
282
  8
Layer_2
  10
22.231445
  20
179.0293
  0
VERTEX
  5
283
  8
Layer_2
  10
22.192383
  20
179.05371
  0
VERTEX
  5
284
  8
Layer_2
  10
22.035156
  20
179.14258
  0
VERTEX
  5
285
  8
Layer_2
  10
21.994629
  20
179.16309
  0
VERTEX
  5
286
  8
Layer_2
  10
21.838379
  20
179.23389
  0
VERTEX
  5
287
  8
Layer_2
  10
21.795898
  20
179.25098
  0
VERTEX
  5
288
  8
Layer_2
  10
21.624023
  20
179.31104
  42
0.033343164
  0
VERTEX
  5
289
  8
Layer_2
  10
21.339844
  20
179.38086
  0
VERTEX
  5
28a
  8
Layer_2
  10
21.15918
  20
179.40771
  42
0.027027598
  0
VERTEX
  5
28b
  8
Layer_2
  10
21.050781
  20
179.41699
  0
VERTEX
  5
28c
  8
Layer_2
  10
21.050293
  20
179.41748
  0
VERTEX
  5
28d
  8
Layer_2
  10
20.957031
  20
179.48047
  42
0.0587471
  0
VERTEX
  5
28e
  8
Layer_2
  10
19.822266
  20
180.05225
  42
0.026959315
  0
VERTEX
  5
28f
  8
Layer_2
  10
19.208008
  20
180.24707
  42
0.082102106
  0
VERTEX
  5
290
  8
Layer_2
  10
17.358887
  20
180.31494
  42
0.075587014
  0
VERTEX
  5
291
  8
Layer_2
  10
15.354004
  20
179.75439
  42
0.048410152
  0
VERTEX
  5
292
  8
Layer_2
  10
14.361328
  20
179.17969
  42
0.1494254
  0
VERTEX
  5
293
  8
Layer_2
  10
11.953613
  20
180.36377
  42
0.11111373
  0
VERTEX
  5
294
  8
Layer_2
  10
9.9736328
  20
180.23242
  42
0.087005693
  0
VERTEX
  5
295
  8
Layer_2
  10
8.2885742
  20
179.40283
  42
0.039966193
  0
VERTEX
  5
296
  8
Layer_2
  10
7.4995117
  20
178.72266
  42
0.076837936
  0
VERTEX
  5
297
  8
Layer_2
  10
6.4208984
  20
179.32031
  42
0.10497477
  0
VERTEX
  5
298
  8
Layer_2
  10
4.796875
  20
179.54199
  42
0.087261834
  0
VERTEX
  5
299
  8
Layer_2
  10
4.2094727
  20
180.06006
  0
VERTEX
  5
29a
  8
Layer_2
  10
4.0566406
  20
180.14697
  42
0.074864048
  0
VERTEX
  5
29b
  8
Layer_2
  10
3.1870117
  20
180.45459
  42
0.060933468
  0
VERTEX
  5
29c
  8
Layer_2
  10
2.7001953
  20
180.47949
  0
VERTEX
  5
29d
  8
Layer_2
  10
2.5371094
  20
180.46436
  42
0.033194394
  0
VERTEX
  5
29e
  8
Layer_2
  10
2.2543945
  20
180.41064
  0
VERTEX
  5
29f
  8
Layer_2
  10
2.0927734
  20
180.36328
  0
VERTEX
  5
2a0
  8
Layer_2
  10
2.0581055
  20
180.35156
  0
VERTEX
  5
2a1
  8
Layer_2
  10
1.9013672
  20
180.29102
  42
0.034073351
  0
VERTEX
  5
2a2
  8
Layer_2
  10
1.644043
  20
180.1626
  0
VERTEX
  5
2a3
  8
Layer_2
  10
1.4936523
  20
180.06787
  0
VERTEX
  5
2a4
  8
Layer_2
  10
1.4633789
  20
180.04688
  0
VERTEX
  5
2a5
  8
Layer_2
  10
1.328125
  20
179.94434
  0
VERTEX
  5
2a6
  8
Layer_2
  10
1.2998047
  20
179.9209
  42
0.034503687
  0
VERTEX
  5
2a7
  8
Layer_2
  10
1.0341797
  20
179.66309
  0
VERTEX
  5
2a8
  8
Layer_2
  10
0.92382813
  20
179.53027
  42
0.065372289
  0
VERTEX
  5
2a9
  8
Layer_2
  10
0.58007813
  20
178.94727
  0
VERTEX
  5
2aa
  8
Layer_2
  10
0.45654297
  20
179.1792
  42
0.018349529
  0
VERTEX
  5
2ab
  8
Layer_2
  10
0.010742188
  20
179.95068
  0
VERTEX
  5
2ac
  8
Layer_2
  10
-0.046875
  20
180.04053
  0
VERTEX
  5
2ad
  8
Layer_2
  10
-0.043457031
  20
180.08789
  42
0.062978749
  0
VERTEX
  5
2ae
  8
Layer_2
  10
-0.092285156
  20
180.78711
  42
0.030163151
  0
VERTEX
  5
2af
  8
Layer_2
  10
-0.1796875
  20
181.12842
  42
0.040955579
  0
VERTEX
  5
2b0
  8
Layer_2
  10
-0.36425781
  20
181.55859
  42
0.13502221
  0
VERTEX
  5
2b1
  8
Layer_2
  10
-1.2324219
  20
182.45996
  42
0.093410497
  0
VERTEX
  5
2b2
  8
Layer_2
  10
-2.1835938
  20
182.81201
  0
VERTEX
  5
2b3
  8
Layer_2
  10
-2.234375
  20
182.81982
  0
VERTEX
  5
2b4
  8
Layer_2
  10
-2.4057617
  20
182.83887
  42
0.058910585
  0
VERTEX
  5
2b5
  8
Layer_2
  10
-2.9819336
  20
182.81592
  0
VERTEX
  5
2b6
  8
Layer_2
  10
-3.1577148
  20
182.78223
  42
0.022011321
  0
VERTEX
  5
2b7
  8
Layer_2
  10
-3.390625
  20
182.71729
  0
VERTEX
  5
2b8
  8
Layer_2
  10
-3.5473633
  20
182.66064
  42
0.10294795
  0
VERTEX
  5
2b9
  8
Layer_2
  10
-4.4970703
  20
182.03906
  42
0.016642794
  0
VERTEX
  5
2ba
  8
Layer_2
  10
-4.6235352
  20
181.89941
  0
VERTEX
  5
2bb
  8
Layer_2
  10
-4.7314453
  20
181.7627
  42
0.038988248
  0
VERTEX
  5
2bc
  8
Layer_2
  10
-4.9042969
  20
181.49121
  42
0.0027817317
  0
VERTEX
  5
2bd
  8
Layer_2
  10
-5.2832031
  20
180.7793
  42
0.020465315
  0
VERTEX
  5
2be
  8
Layer_2
  10
-5.7026367
  20
179.89014
  42
0.019531456
  0
VERTEX
  5
2bf
  8
Layer_2
  10
-6.3837891
  20
178.11963
  0
VERTEX
  5
2c0
  8
Layer_2
  10
-6.5283203
  20
177.6748
  0
VERTEX
  5
2c1
  8
Layer_2
  10
-6.5371094
  20
177.64551
  0
VERTEX
  5
2c2
  8
Layer_2
  10
-6.6748047
  20
177.19873
  42
0.012778968
  0
VERTEX
  5
2c3
  8
Layer_2
  10
-7.1342773
  20
175.50586
  42
0.025337974
  0
VERTEX
  5
2c4
  8
Layer_2
  10
-7.6123047
  20
172.94092
  42
0.0089854383
  0
VERTEX
  5
2c5
  8
Layer_2
  10
-7.7636719
  20
171.67627
  0
VERTEX
  5
2c6
  8
Layer_2
  10
-7.7729492
  20
171.55176
  42
0.029982581
  0
VERTEX
  5
2c7
  8
Layer_2
  10
-7.7631836
  20
171.19922
  42
0.085118537
  0
VERTEX
  5
2c8
  8
Layer_2
  10
-7.5336914
  20
170.3623
  0
VERTEX
  5
2c9
  8
Layer_2
  10
-7.4521484
  20
170.20215
  0
VERTEX
  5
2ca
  8
Layer_2
  10
-7.4204102
  20
170.146
  0
VERTEX
  5
2cb
  8
Layer_2
  10
-7.3217773
  20
169.98926
  42
0.13790432
  0
VERTEX
  5
2cc
  8
Layer_2
  10
-6.2807617
  20
169.09961
  42
0.085210308
  0
VERTEX
  5
2cd
  8
Layer_2
  10
-5.4672852
  20
168.88623
  42
0.078603133
  0
VERTEX
  5
2ce
  8
Layer_2
  10
-4.5742188
  20
168.9458
  42
0.024372697
  0
VERTEX
  5
2cf
  8
Layer_2
  10
-4.3291016
  20
169.01611
  0
VERTEX
  5
2d0
  8
Layer_2
  10
-4.1640625
  20
169.07959
  42
0.018154948
  0
VERTEX
  5
2d1
  8
Layer_2
  10
-3.9907227
  20
169.16113
  0
VERTEX
  5
2d2
  8
Layer_2
  10
-3.9584961
  20
169.17822
  0
VERTEX
  5
2d3
  8
Layer_2
  10
-3.8046875
  20
169.26904
  42
0.020939615
  0
VERTEX
  5
2d4
  8
Layer_2
  10
-3.6352539
  20
169.38721
  0
VERTEX
  5
2d5
  8
Layer_2
  10
-3.503418
  20
169.49561
  42
0.057517076
  0
VERTEX
  5
2d6
  8
Layer_2
  10
-3.1074219
  20
169.93799
  42
0.072356948
  0
VERTEX
  5
2d7
  8
Layer_2
  10
-2.7094727
  20
170.7002
  42
0.052435451
  0
VERTEX
  5
2d8
  8
Layer_2
  10
-2.6005859
  20
171.17432
  0
VERTEX
  5
2d9
  8
Layer_2
  10
-2.5654297
  20
171.48926
  42
-0.0061748527
  0
VERTEX
  5
2da
  8
Layer_2
  10
-2.5029297
  20
171.97266
  0
VERTEX
  5
2db
  8
Layer_2
  10
-2.355957
  20
171.98975
  42
-0.0099853539
  0
VERTEX
  5
2dc
  8
Layer_2
  10
-2.206543
  20
171.33252
  0
VERTEX
  5
2dd
  8
Layer_2
  10
-2.1245117
  20
170.91602
  42
0.065959332
  0
VERTEX
  5
2de
  8
Layer_2
  10
-1.9179688
  20
170.32373
  42
0.044019146
  0
VERTEX
  5
2df
  8
Layer_2
  10
-1.6962891
  20
169.96387
  0
VERTEX
  5
2e0
  8
Layer_2
  10
-1.5957031
  20
169.83887
  42
0.061167383
  0
VERTEX
  5
2e1
  8
Layer_2
  10
-1.1362305
  20
169.42285
  0
VERTEX
  5
2e2
  8
Layer_2
  10
-0.99316406
  20
169.32813
  42
0.056288582
  0
VERTEX
  5
2e3
  8
Layer_2
  10
-0.37109375
  20
169.04053
  0
VERTEX
  5
2e4
  8
Layer_2
  10
-0.21044922
  20
168.99268
  0
VERTEX
  5
2e5
  8
Layer_2
  10
-0.14257813
  20
168.97559
  0
VERTEX
  5
2e6
  8
Layer_2
  10
0.028320313
  20
168.94043
  0
VERTEX
  5
2e7
  8
Layer_2
  10
0.098144531
  20
168.9292
  0
VERTEX
  5
2e8
  8
Layer_2
  10
0.27294922
  20
168.90869
  42
0.033111314
  0
VERTEX
  5
2e9
  8
Layer_2
  10
0.57226563
  20
168.90283
  0
VERTEX
  5
2ea
  8
Layer_2
  10
0.73681641
  20
168.91455
  42
0.052609898
  0
VERTEX
  5
2eb
  8
Layer_2
  10
1.2456055
  20
169.02197
  0
VERTEX
  5
2ec
  8
Layer_2
  10
1.4038086
  20
169.07861
  42
0.014179459
  0
VERTEX
  5
2ed
  8
Layer_2
  10
1.5336914
  20
169.13428
  42
0.084892926
  0
VERTEX
  5
2ee
  8
Layer_2
  10
2.4423828
  20
168.79883
  42
0.028505229
  0
VERTEX
  5
2ef
  8
Layer_2
  10
2.7495117
  20
168.76758
  0
VERTEX
  5
2f0
  8
Layer_2
  10
2.9311523
  20
168.76758
  0
SEQEND
  0
ENDSEC
  0
EOF
