  0
SECTION
  2
HEADER
  9
$ACADVER
  1
AC1009
  0
ENDSEC
  0
SECTION
  2
TABLES
  0
TABLE
  2
LAYER
  70
1
  0
LAYER
  2
Layer_2
  70
0
  62
1
  6
CONTINUOUS
  0
ENDTAB
  0
ENDSEC
  0
SECTION
  2
ENTITIES
  0
POLYLINE
  5
90
  8
Layer_2
  62
1
  66
1
  10
0
  20
0
  30
0
  0
VERTEX
  5
90
  8
Layer_2
  10
49.638069
  20
80.117882
  42
0.061015701
  0
VERTEX
  5
91
  8
Layer_2
  10
50.87291
  20
80.289268
  0
SEQEND
  0
POLYLINE
  5
93
  8
Layer_2
  62
1
  66
1
  10
0
  20
0
  30
0
  0
VERTEX
  5
93
  8
Layer_2
  10
50.87291
  20
80.289268
  42
0.088480943
  0
VERTEX
  5
94
  8
Layer_2
  10
52.13826
  20
80.880577
  0
SEQEND
  0
POLYLINE
  5
96
  8
Layer_2
  62
1
  66
1
  10
0
  20
0
  30
0
  0
VERTEX
  5
96
  8
Layer_2
  10
52.13826
  20
80.880577
  42
0.078403224
  0
VERTEX
  5
97
  8
Layer_2
  10
53.055489
  20
81.781944
  0
SEQEND
  0
POLYLINE
  5
99
  8
Layer_2
  62
1
  66
1
  10
0
  20
0
  30
0
  0
VERTEX
  5
99
  8
Layer_2
  10
53.055489
  20
81.781944
  0
VERTEX
  5
9a
  8
Layer_2
  10
53.135006
  20
81.890831
  0
SEQEND
  0
POLYLINE
  5
9c
  8
Layer_2
  62
1
  66
1
  10
0
  20
0
  30
0
  0
VERTEX
  5
9c
  8
Layer_2
  10
53.135006
  20
81.890831
  0
VERTEX
  5
9d
  8
Layer_2
  10
53.111427
  20
81.466026
  0
SEQEND
  0
POLYLINE
  5
9f
  8
Layer_2
  62
1
  66
1
  10
0
  20
0
  30
0
  0
VERTEX
  5
9f
  8
Layer_2
  10
53.111427
  20
81.466026
  42
0.029773731
  0
VERTEX
  5
a0
  8
Layer_2
  10
53.121136
  20
81.130089
  0
SEQEND
  0
POLYLINE
  5
a2
  8
Layer_2
  62
1
  66
1
  10
0
  20
0
  30
0
  0
VERTEX
  5
a2
  8
Layer_2
  10
53.121136
  20
81.130089
  42
0.055108776
  0
VERTEX
  5
a3
  8
Layer_2
  10
53.17384
  20
80.866417
  0
SEQEND
  0
POLYLINE
  5
a5
  8
Layer_2
  62
1
  66
1
  10
0
  20
0
  30
0
  0
VERTEX
  5
a5
  8
Layer_2
  10
53.17384
  20
80.866417
  42
0.077693272
  0
VERTEX
  5
a6
  8
Layer_2
  10
53.270927
  20
80.665733
  0
SEQEND
  0
POLYLINE
  5
a8
  8
Layer_2
  62
1
  66
1
  10
0
  20
0
  30
0
  0
VERTEX
  5
a8
  8
Layer_2
  10
53.270927
  20
80.665733
  42
0.12932659
  0
VERTEX
  5
a9
  8
Layer_2
  10
53.470642
  20
80.497276
  0
SEQEND
  0
POLYLINE
  5
ab
  8
Layer_2
  62
1
  66
1
  10
0
  20
0
  30
0
  0
VERTEX
  5
ab
  8
Layer_2
  10
53.470642
  20
80.497276
  42
0.088562869
  0
VERTEX
  5
ac
  8
Layer_2
  10
53.673138
  20
80.444542
  0
SEQEND
  0
POLYLINE
  5
ae
  8
Layer_2
  62
1
  66
1
  10
0
  20
0
  30
0
  0
VERTEX
  5
ae
  8
Layer_2
  10
53.673138
  20
80.444542
  42
0.049595788
  0
VERTEX
  5
af
  8
Layer_2
  10
53.920013
  20
80.451378
  0
SEQEND
  0
POLYLINE
  5
b1
  8
Layer_2
  62
1
  66
1
  10
0
  20
0
  30
0
  0
VERTEX
  5
b1
  8
Layer_2
  10
53.920013
  20
80.451378
  42
0.033503488
  0
VERTEX
  5
b2
  8
Layer_2
  10
54.24733
  20
80.515831
  0
SEQEND
  0
POLYLINE
  5
b4
  8
Layer_2
  62
1
  66
1
  10
0
  20
0
  30
0
  0
VERTEX
  5
b4
  8
Layer_2
  10
54.24733
  20
80.515831
  0
VERTEX
  5
b5
  8
Layer_2
  10
54.620415
  20
80.553429
  0
SEQEND
  0
POLYLINE
  5
b7
  8
Layer_2
  62
1
  66
1
  10
0
  20
0
  30
0
  0
VERTEX
  5
b7
  8
Layer_2
  10
54.620415
  20
80.553429
  42
-0.013478668
  0
VERTEX
  5
b8
  8
Layer_2
  10
54.791935
  20
80.566124
  0
SEQEND
  0
POLYLINE
  5
ba
  8
Layer_2
  62
1
  66
1
  10
0
  20
0
  30
0
  0
VERTEX
  5
ba
  8
Layer_2
  10
54.791935
  20
80.566124
  0
VERTEX
  5
bb
  8
Layer_2
  10
54.921383
  20
80.562218
  0
SEQEND
  0
POLYLINE
  5
bd
  8
Layer_2
  62
1
  66
1
  10
0
  20
0
  30
0
  0
VERTEX
  5
bd
  8
Layer_2
  10
54.921383
  20
80.562218
  0
VERTEX
  5
be
  8
Layer_2
  10
54.925079
  20
80.560265
  0
SEQEND
  0
POLYLINE
  5
c0
  8
Layer_2
  62
1
  66
1
  10
0
  20
0
  30
0
  0
VERTEX
  5
c0
  8
Layer_2
  10
54.925079
  20
80.560265
  42
0.072949615
  0
VERTEX
  5
c1
  8
Layer_2
  10
55.180275
  20
80.470909
  0
SEQEND
  0
POLYLINE
  5
c3
  8
Layer_2
  62
1
  66
1
  10
0
  20
0
  30
0
  0
VERTEX
  5
c3
  8
Layer_2
  10
55.180275
  20
80.470909
  42
0.061868174
  0
VERTEX
  5
c4
  8
Layer_2
  10
55.588501
  20
80.443077
  0
SEQEND
  0
POLYLINE
  5
c6
  8
Layer_2
  62
1
  66
1
  10
0
  20
0
  30
0
  0
VERTEX
  5
c6
  8
Layer_2
  10
55.588501
  20
80.443077
  42
0.015969679
  0
VERTEX
  5
c7
  8
Layer_2
  10
55.867737
  20
80.463585
  0
SEQEND
  0
POLYLINE
  5
c9
  8
Layer_2
  62
1
  66
1
  10
0
  20
0
  30
0
  0
VERTEX
  5
c9
  8
Layer_2
  10
55.867737
  20
80.463585
  42
0.024788156
  0
VERTEX
  5
ca
  8
Layer_2
  10
56.235737
  20
80.441124
  0
SEQEND
  0
POLYLINE
  5
cc
  8
Layer_2
  62
1
  66
1
  10
0
  20
0
  30
0
  0
VERTEX
  5
cc
  8
Layer_2
  10
56.235737
  20
80.441124
  42
0.055542009
  0
VERTEX
  5
cd
  8
Layer_2
  10
56.650894
  20
80.481651
  0
SEQEND
  0
POLYLINE
  5
cf
  8
Layer_2
  62
1
  66
1
  10
0
  20
0
  30
0
  0
VERTEX
  5
cf
  8
Layer_2
  10
56.650894
  20
80.481651
  42
0.079168788
  0
VERTEX
  5
d0
  8
Layer_2
  10
56.944466
  20
80.592003
  0
SEQEND
  0
POLYLINE
  5
d2
  8
Layer_2
  62
1
  66
1
  10
0
  20
0
  30
0
  0
VERTEX
  5
d2
  8
Layer_2
  10
56.944466
  20
80.592003
  0
VERTEX
  5
d3
  8
Layer_2
  10
57.102573
  20
80.609581
  0
SEQEND
  0
POLYLINE
  5
d5
  8
Layer_2
  62
1
  66
1
  10
0
  20
0
  30
0
  0
VERTEX
  5
d5
  8
Layer_2
  10
57.102573
  20
80.609581
  42
-0.027638636
  0
VERTEX
  5
d6
  8
Layer_2
  10
58.1548
  20
80.665733
  0
SEQEND
  0
POLYLINE
  5
d8
  8
Layer_2
  62
1
  66
1
  10
0
  20
0
  30
0
  0
VERTEX
  5
d8
  8
Layer_2
  10
58.1548
  20
80.665733
  42
-0.022443435
  0
VERTEX
  5
d9
  8
Layer_2
  10
58.811283
  20
80.612999
  0
SEQEND
  0
POLYLINE
  5
db
  8
Layer_2
  62
1
  66
1
  10
0
  20
0
  30
0
  0
VERTEX
  5
db
  8
Layer_2
  10
58.811283
  20
80.612999
  42
-0.0039730475
  0
VERTEX
  5
dc
  8
Layer_2
  10
59.528328
  20
80.515343
  0
SEQEND
  0
POLYLINE
  5
de
  8
Layer_2
  62
1
  66
1
  10
0
  20
0
  30
0
  0
VERTEX
  5
de
  8
Layer_2
  10
59.528328
  20
80.515343
  0
VERTEX
  5
df
  8
Layer_2
  10
59.696609
  20
80.494347
  0
SEQEND
  0
POLYLINE
  5
e1
  8
Layer_2
  62
1
  66
1
  10
0
  20
0
  30
0
  0
VERTEX
  5
e1
  8
Layer_2
  10
59.696609
  20
80.494347
  42
0.017846184
  0
VERTEX
  5
e2
  8
Layer_2
  10
60.245842
  20
80.44503
  0
SEQEND
  0
POLYLINE
  5
e4
  8
Layer_2
  62
1
  66
1
  10
0
  20
0
  30
0
  0
VERTEX
  5
e4
  8
Layer_2
  10
60.245842
  20
80.44503
  0
VERTEX
  5
e5
  8
Layer_2
  10
60.401638
  20
80.441124
  0
SEQEND
  0
POLYLINE
  5
e7
  8
Layer_2
  62
1
  66
1
  10
0
  20
0
  30
0
  0
VERTEX
  5
e7
  8
Layer_2
  10
60.401638
  20
80.441124
  42
0.059655062
  0
VERTEX
  5
e8
  8
Layer_2
  10
60.7174
  20
80.47628
  0
SEQEND
  0
POLYLINE
  5
ea
  8
Layer_2
  62
1
  66
1
  10
0
  20
0
  30
0
  0
VERTEX
  5
ea
  8
Layer_2
  10
60.7174
  20
80.47628
  42
0.069847144
  0
VERTEX
  5
eb
  8
Layer_2
  10
60.9897
  20
80.581749
  0
SEQEND
  0
POLYLINE
  5
ed
  8
Layer_2
  62
1
  66
1
  10
0
  20
0
  30
0
  0
VERTEX
  5
ed
  8
Layer_2
  10
60.9897
  20
80.581749
  42
0.07014978
  0
VERTEX
  5
ee
  8
Layer_2
  10
61.216698
  20
80.755089
  0
SEQEND
  0
POLYLINE
  5
f0
  8
Layer_2
  62
1
  66
1
  10
0
  20
0
  30
0
  0
VERTEX
  5
f0
  8
Layer_2
  10
61.216698
  20
80.755089
  42
0.14299786
  0
VERTEX
  5
f1
  8
Layer_2
  10
61.424736
  20
81.122276
  0
SEQEND
  0
POLYLINE
  5
f3
  8
Layer_2
  62
1
  66
1
  10
0
  20
0
  30
0
  0
VERTEX
  5
f3
  8
Layer_2
  10
61.424736
  20
81.122276
  42
0.057094381
  0
VERTEX
  5
f4
  8
Layer_2
  10
61.44323
  20
81.290733
  0
SEQEND
  0
POLYLINE
  5
f6
  8
Layer_2
  62
1
  66
1
  10
0
  20
0
  30
0
  0
VERTEX
  5
f6
  8
Layer_2
  10
61.44323
  20
81.290733
  42
0.040526075
  0
VERTEX
  5
f7
  8
Layer_2
  10
61.429359
  20
81.484093
  0
SEQEND
  0
POLYLINE
  5
f9
  8
Layer_2
  62
1
  66
1
  10
0
  20
0
  30
0
  0
VERTEX
  5
f9
  8
Layer_2
  10
61.429359
  20
81.484093
  42
0.048494861
  0
VERTEX
  5
fa
  8
Layer_2
  10
61.387291
  20
81.652061
  0
SEQEND
  0
POLYLINE
  5
fc
  8
Layer_2
  62
1
  66
1
  10
0
  20
0
  30
0
  0
VERTEX
  5
fc
  8
Layer_2
  10
61.387291
  20
81.652061
  42
0.053105945
  0
VERTEX
  5
fd
  8
Layer_2
  10
61.317017
  20
81.793663
  0
SEQEND
  0
POLYLINE
  5
ff
  8
Layer_2
  62
1
  66
1
  10
0
  20
0
  30
0
  0
VERTEX
  5
ff
  8
Layer_2
  10
61.317017
  20
81.793663
  42
0.093045214
  0
VERTEX
  5
100
  8
Layer_2
  10
61.158905
  20
81.958214
  0
SEQEND
  0
POLYLINE
  5
102
  8
Layer_2
  62
1
  66
1
  10
0
  20
0
  30
0
  0
VERTEX
  5
102
  8
Layer_2
  10
61.158905
  20
81.958214
  42
0.079885554
  0
VERTEX
  5
103
  8
Layer_2
  10
60.937462
  20
82.064171
  0
SEQEND
  0
POLYLINE
  5
105
  8
Layer_2
  62
1
  66
1
  10
0
  20
0
  30
0
  0
VERTEX
  5
105
  8
Layer_2
  10
60.937462
  20
82.064171
  42
0.060693422
  0
VERTEX
  5
106
  8
Layer_2
  10
60.652672
  20
82.112511
  0
SEQEND
  0
POLYLINE
  5
108
  8
Layer_2
  62
1
  66
1
  10
0
  20
0
  30
0
  0
VERTEX
  5
108
  8
Layer_2
  10
60.652672
  20
82.112511
  42
0.050856982
  0
VERTEX
  5
109
  8
Layer_2
  10
60.336914
  20
82.103233
  0
SEQEND
  0
POLYLINE
  5
10b
  8
Layer_2
  62
1
  66
1
  10
0
  20
0
  30
0
  0
VERTEX
  5
10b
  8
Layer_2
  10
60.336914
  20
82.103233
  42
0.062039637
  0
VERTEX
  5
10c
  8
Layer_2
  10
60.188972
  20
82.066124
  0
SEQEND
  0
POLYLINE
  5
10e
  8
Layer_2
  62
1
  66
1
  10
0
  20
0
  30
0
  0
VERTEX
  5
10e
  8
Layer_2
  10
60.188972
  20
82.066124
  0
VERTEX
  5
10f
  8
Layer_2
  10
59.974464
  20
82.011436
  0
SEQEND
  0
POLYLINE
  5
111
  8
Layer_2
  62
1
  66
1
  10
0
  20
0
  30
0
  0
VERTEX
  5
111
  8
Layer_2
  10
59.974464
  20
82.011436
  42
-0.020695669
  0
VERTEX
  5
112
  8
Layer_2
  10
59.678581
  20
81.948936
  0
SEQEND
  0
POLYLINE
  5
114
  8
Layer_2
  62
1
  66
1
  10
0
  20
0
  30
0
  0
VERTEX
  5
114
  8
Layer_2
  10
59.678581
  20
81.948936
  42
-0.15758125
  0
VERTEX
  5
115
  8
Layer_2
  10
59.415985
  20
81.980675
  0
SEQEND
  0
POLYLINE
  5
117
  8
Layer_2
  62
1
  66
1
  10
0
  20
0
  30
0
  0
VERTEX
  5
117
  8
Layer_2
  10
59.415985
  20
81.980675
  42
-0.071646852
  0
VERTEX
  5
118
  8
Layer_2
  10
59.311043
  20
82.050987
  0
SEQEND
  0
POLYLINE
  5
11a
  8
Layer_2
  62
1
  66
1
  10
0
  20
0
  30
0
  0
VERTEX
  5
11a
  8
Layer_2
  10
59.311043
  20
82.050987
  42
-0.061446237
  0
VERTEX
  5
11b
  8
Layer_2
  10
59.218582
  20
82.156456
  0
SEQEND
  0
POLYLINE
  5
11d
  8
Layer_2
  62
1
  66
1
  10
0
  20
0
  30
0
  0
VERTEX
  5
11d
  8
Layer_2
  10
59.218582
  20
82.156456
  42
-0.060300399
  0
VERTEX
  5
11e
  8
Layer_2
  10
59.103462
  20
82.380577
  0
SEQEND
  0
POLYLINE
  5
120
  8
Layer_2
  62
1
  66
1
  10
0
  20
0
  30
0
  0
VERTEX
  5
120
  8
Layer_2
  10
59.103462
  20
82.380577
  42
-0.048456018
  0
VERTEX
  5
121
  8
Layer_2
  10
58.993896
  20
82.802452
  0
SEQEND
  0
POLYLINE
  5
123
  8
Layer_2
  62
1
  66
1
  10
0
  20
0
  30
0
  0
VERTEX
  5
123
  8
Layer_2
  10
58.993896
  20
82.802452
  42
-0.018041614
  0
VERTEX
  5
124
  8
Layer_2
  10
58.955063
  20
83.097862
  0
SEQEND
  0
POLYLINE
  5
126
  8
Layer_2
  62
1
  66
1
  10
0
  20
0
  30
0
  0
VERTEX
  5
126
  8
Layer_2
  10
58.955063
  20
83.097862
  0
VERTEX
  5
127
  8
Layer_2
  10
58.949974
  20
83.186241
  0
SEQEND
  0
POLYLINE
  5
129
  8
Layer_2
  62
1
  66
1
  10
0
  20
0
  30
0
  0
VERTEX
  5
129
  8
Layer_2
  10
58.949974
  20
83.186241
  42
-0.0088862995
  0
VERTEX
  5
12a
  8
Layer_2
  10
58.936569
  20
83.859581
  0
SEQEND
  0
POLYLINE
  5
12c
  8
Layer_2
  62
1
  66
1
  10
0
  20
0
  30
0
  0
VERTEX
  5
12c
  8
Layer_2
  10
58.936569
  20
83.859581
  0
VERTEX
  5
12d
  8
Layer_2
  10
58.934258
  20
84.388878
  0
SEQEND
  0
POLYLINE
  5
12f
  8
Layer_2
  62
1
  66
1
  10
0
  20
0
  30
0
  0
VERTEX
  5
12f
  8
Layer_2
  10
58.934258
  20
84.388878
  0
VERTEX
  5
130
  8
Layer_2
  10
58.934258
  20
87.790733
  0
SEQEND
  0
POLYLINE
  5
132
  8
Layer_2
  62
1
  66
1
  10
0
  20
0
  30
0
  0
VERTEX
  5
132
  8
Layer_2
  10
58.934258
  20
87.790733
  42
-0.0042824029
  0
VERTEX
  5
133
  8
Layer_2
  10
58.947662
  20
89.375206
  0
SEQEND
  0
POLYLINE
  5
135
  8
Layer_2
  62
1
  66
1
  10
0
  20
0
  30
0
  0
VERTEX
  5
135
  8
Layer_2
  10
58.947662
  20
89.375206
  42
-0.0024808253
  0
VERTEX
  5
136
  8
Layer_2
  10
58.978638
  20
90.852257
  0
SEQEND
  0
POLYLINE
  5
138
  8
Layer_2
  62
1
  66
1
  10
0
  20
0
  30
0
  0
VERTEX
  5
138
  8
Layer_2
  10
58.978638
  20
90.852257
  42
-0.0057147777
  0
VERTEX
  5
139
  8
Layer_2
  10
58.996208
  20
91.325401
  0
SEQEND
  0
POLYLINE
  5
13b
  8
Layer_2
  62
1
  66
1
  10
0
  20
0
  30
0
  0
VERTEX
  5
13b
  8
Layer_2
  10
58.996208
  20
91.325401
  0
VERTEX
  5
13c
  8
Layer_2
  10
59.005455
  20
91.441124
  0
SEQEND
  0
POLYLINE
  5
13e
  8
Layer_2
  62
1
  66
1
  10
0
  20
0
  30
0
  0
VERTEX
  5
13e
  8
Layer_2
  10
59.005455
  20
91.441124
  0
VERTEX
  5
13f
  8
Layer_2
  10
59.006844
  20
91.497276
  0
SEQEND
  0
POLYLINE
  5
141
  8
Layer_2
  62
1
  66
1
  10
0
  20
0
  30
0
  0
VERTEX
  5
141
  8
Layer_2
  10
59.006844
  20
91.497276
  0
VERTEX
  5
142
  8
Layer_2
  10
59.011002
  20
91.566124
  0
SEQEND
  0
POLYLINE
  5
144
  8
Layer_2
  62
1
  66
1
  10
0
  20
0
  30
0
  0
VERTEX
  5
144
  8
Layer_2
  10
59.011002
  20
91.566124
  0
VERTEX
  5
145
  8
Layer_2
  10
59.0466
  20
91.915733
  0
SEQEND
  0
POLYLINE
  5
147
  8
Layer_2
  62
1
  66
1
  10
0
  20
0
  30
0
  0
VERTEX
  5
147
  8
Layer_2
  10
59.0466
  20
91.915733
  42
0.036032956
  0
VERTEX
  5
148
  8
Layer_2
  10
59.049835
  20
92.158897
  0
SEQEND
  0
POLYLINE
  5
14a
  8
Layer_2
  62
1
  66
1
  10
0
  20
0
  30
0
  0
VERTEX
  5
14a
  8
Layer_2
  10
59.049835
  20
92.158897
  42
0.04805182
  0
VERTEX
  5
14b
  8
Layer_2
  10
59.009613
  20
92.467491
  0
SEQEND
  0
POLYLINE
  5
14d
  8
Layer_2
  62
1
  66
1
  10
0
  20
0
  30
0
  0
VERTEX
  5
14d
  8
Layer_2
  10
59.009613
  20
92.467491
  42
0.068209039
  0
VERTEX
  5
14e
  8
Layer_2
  10
58.92131
  20
92.707237
  0
SEQEND
  0
POLYLINE
  5
150
  8
Layer_2
  62
1
  66
1
  10
0
  20
0
  30
0
  0
VERTEX
  5
150
  8
Layer_2
  10
58.92131
  20
92.707237
  42
0.060532565
  0
VERTEX
  5
151
  8
Layer_2
  10
58.835323
  20
92.829308
  0
SEQEND
  0
POLYLINE
  5
153
  8
Layer_2
  62
1
  66
1
  10
0
  20
0
  30
0
  0
VERTEX
  5
153
  8
Layer_2
  10
58.835323
  20
92.829308
  42
0.098915726
  0
VERTEX
  5
154
  8
Layer_2
  10
58.66658
  20
92.954796
  0
SEQEND
  0
POLYLINE
  5
156
  8
Layer_2
  62
1
  66
1
  10
0
  20
0
  30
0
  0
VERTEX
  5
156
  8
Layer_2
  10
58.66658
  20
92.954796
  42
0.062292561
  0
VERTEX
  5
157
  8
Layer_2
  10
58.526962
  20
93.000694
  0
SEQEND
  0
POLYLINE
  5
159
  8
Layer_2
  62
1
  66
1
  10
0
  20
0
  30
0
  0
VERTEX
  5
159
  8
Layer_2
  10
56.727177
  20
92.929893
  42
-0.0042637273
  0
VERTEX
  5
15a
  8
Layer_2
  10
56.235737
  20
92.990929
  0
SEQEND
  0
POLYLINE
  5
15c
  8
Layer_2
  62
1
  66
1
  10
0
  20
0
  30
0
  0
VERTEX
  5
15c
  8
Layer_2
  10
56.235737
  20
92.990929
  0
VERTEX
  5
15d
  8
Layer_2
  10
56.124783
  20
93.001671
  0
SEQEND
  0
POLYLINE
  5
15f
  8
Layer_2
  62
1
  66
1
  10
0
  20
0
  30
0
  0
VERTEX
  5
15f
  8
Layer_2
  10
56.124783
  20
93.001671
  42
0.023333039
  0
VERTEX
  5
160
  8
Layer_2
  10
55.470612
  20
93.012413
  0
SEQEND
  0
POLYLINE
  5
162
  8
Layer_2
  62
1
  66
1
  10
0
  20
0
  30
0
  0
VERTEX
  5
162
  8
Layer_2
  10
55.470612
  20
93.012413
  42
0.044314913
  0
VERTEX
  5
163
  8
Layer_2
  10
55.19091
  20
92.975304
  0
SEQEND
  0
POLYLINE
  5
165
  8
Layer_2
  62
1
  66
1
  10
0
  20
0
  30
0
  0
VERTEX
  5
165
  8
Layer_2
  10
55.19091
  20
92.975304
  42
0.10069442
  0
VERTEX
  5
166
  8
Layer_2
  10
54.849258
  20
92.829308
  0
SEQEND
  0
POLYLINE
  5
168
  8
Layer_2
  62
1
  66
1
  10
0
  20
0
  30
0
  0
VERTEX
  5
168
  8
Layer_2
  10
54.849258
  20
92.829308
  42
0.075875783
  0
VERTEX
  5
169
  8
Layer_2
  10
54.710567
  20
92.69503
  0
SEQEND
  0
POLYLINE
  5
16b
  8
Layer_2
  62
1
  66
1
  10
0
  20
0
  30
0
  0
VERTEX
  5
16b
  8
Layer_2
  10
54.710567
  20
92.69503
  0
VERTEX
  5
16c
  8
Layer_2
  10
54.766968
  20
94.164757
  0
SEQEND
  0
POLYLINE
  5
16e
  8
Layer_2
  62
1
  66
1
  10
0
  20
0
  30
0
  0
VERTEX
  5
16e
  8
Layer_2
  10
54.766968
  20
94.164757
  42
0.0065078501
  0
VERTEX
  5
16f
  8
Layer_2
  10
54.806728
  20
95.582237
  0
SEQEND
  0
POLYLINE
  5
171
  8
Layer_2
  62
1
  66
1
  10
0
  20
0
  30
0
  0
VERTEX
  5
171
  8
Layer_2
  10
54.806728
  20
95.582237
  0
VERTEX
  5
172
  8
Layer_2
  10
54.818287
  20
95.950401
  0
SEQEND
  0
POLYLINE
  5
174
  8
Layer_2
  62
1
  66
1
  10
0
  20
0
  30
0
  0
VERTEX
  5
174
  8
Layer_2
  10
54.818287
  20
95.950401
  42
-0.025289089
  0
VERTEX
  5
175
  8
Layer_2
  10
54.836319
  20
96.226768
  0
SEQEND
  0
POLYLINE
  5
177
  8
Layer_2
  62
1
  66
1
  10
0
  20
0
  30
0
  0
VERTEX
  5
177
  8
Layer_2
  10
54.836319
  20
96.226768
  0
VERTEX
  5
178
  8
Layer_2
  10
54.839088
  20
96.240929
  0
SEQEND
  0
POLYLINE
  5
17a
  8
Layer_2
  62
1
  66
1
  10
0
  20
0
  30
0
  0
VERTEX
  5
17a
  8
Layer_2
  10
54.839088
  20
96.240929
  42
0.0095430904
  0
VERTEX
  5
17b
  8
Layer_2
  10
54.836777
  20
96.636925
  0
SEQEND
  0
POLYLINE
  5
17d
  8
Layer_2
  62
1
  66
1
  10
0
  20
0
  30
0
  0
VERTEX
  5
17d
  8
Layer_2
  10
54.836777
  20
96.636925
  42
0.043404391
  0
VERTEX
  5
17e
  8
Layer_2
  10
54.797943
  20
96.953331
  0
SEQEND
  0
POLYLINE
  5
180
  8
Layer_2
  62
1
  66
1
  10
0
  20
0
  30
0
  0
VERTEX
  5
180
  8
Layer_2
  10
54.797943
  20
96.953331
  42
0.037278667
  0
VERTEX
  5
181
  8
Layer_2
  10
54.746166
  20
97.125206
  0
SEQEND
  0
POLYLINE
  5
183
  8
Layer_2
  62
1
  66
1
  10
0
  20
0
  30
0
  0
VERTEX
  5
183
  8
Layer_2
  10
54.746166
  20
97.125206
  42
0.051249068
  0
VERTEX
  5
184
  8
Layer_2
  10
54.673584
  20
97.265831
  0
SEQEND
  0
POLYLINE
  5
186
  8
Layer_2
  62
1
  66
1
  10
0
  20
0
  30
0
  0
VERTEX
  5
186
  8
Layer_2
  10
54.673584
  20
97.265831
  42
0.096389545
  0
VERTEX
  5
187
  8
Layer_2
  10
54.526104
  20
97.418175
  0
SEQEND
  0
POLYLINE
  5
189
  8
Layer_2
  62
1
  66
1
  10
0
  20
0
  30
0
  0
VERTEX
  5
189
  8
Layer_2
  10
54.526104
  20
97.418175
  42
0.066558171
  0
VERTEX
  5
18a
  8
Layer_2
  10
54.401741
  20
97.480675
  0
SEQEND
  0
POLYLINE
  5
18c
  8
Layer_2
  62
1
  66
1
  10
0
  20
0
  30
0
  0
VERTEX
  5
18c
  8
Layer_2
  10
54.401741
  20
97.480675
  42
0.059335989
  0
VERTEX
  5
18d
  8
Layer_2
  10
54.256577
  20
97.511925
  0
SEQEND
  0
POLYLINE
  5
18f
  8
Layer_2
  62
1
  66
1
  10
0
  20
0
  30
0
  0
VERTEX
  5
18f
  8
Layer_2
  10
54.256577
  20
97.511925
  0
VERTEX
  5
190
  8
Layer_2
  10
54.176598
  20
97.515831
  0
SEQEND
  0
POLYLINE
  5
192
  8
Layer_2
  62
1
  66
1
  10
0
  20
0
  30
0
  0
VERTEX
  5
192
  8
Layer_2
  10
54.176598
  20
97.515831
  42
0.024326092
  0
VERTEX
  5
193
  8
Layer_2
  10
53.750343
  20
97.487999
  0
SEQEND
  0
POLYLINE
  5
195
  8
Layer_2
  62
1
  66
1
  10
0
  20
0
  30
0
  0
VERTEX
  5
195
  8
Layer_2
  10
53.750343
  20
97.487999
  0
VERTEX
  5
196
  8
Layer_2
  10
53.371712
  20
97.444054
  0
SEQEND
  0
POLYLINE
  5
198
  8
Layer_2
  62
1
  66
1
  10
0
  20
0
  30
0
  0
VERTEX
  5
198
  8
Layer_2
  10
53.371712
  20
97.444054
  42
-0.025315907
  0
VERTEX
  5
199
  8
Layer_2
  10
52.945457
  20
97.415733
  0
SEQEND
  0
POLYLINE
  5
19b
  8
Layer_2
  62
1
  66
1
  10
0
  20
0
  30
0
  0
VERTEX
  5
19b
  8
Layer_2
  10
52.945457
  20
97.415733
  42
-0.0026617536
  0
VERTEX
  5
19c
  8
Layer_2
  10
51.935303
  20
97.512901
  0
SEQEND
  0
POLYLINE
  5
19e
  8
Layer_2
  62
1
  66
1
  10
0
  20
0
  30
0
  0
VERTEX
  5
19e
  8
Layer_2
  10
51.935303
  20
97.512901
  0
VERTEX
  5
19f
  8
Layer_2
  10
51.74437
  20
97.528526
  0
SEQEND
  0
POLYLINE
  5
1a1
  8
Layer_2
  62
1
  66
1
  10
0
  20
0
  30
0
  0
VERTEX
  5
1a1
  8
Layer_2
  10
51.74437
  20
97.528526
  42
0.032647404
  0
VERTEX
  5
1a2
  8
Layer_2
  10
51.334759
  20
97.537804
  0
SEQEND
  0
POLYLINE
  5
1a4
  8
Layer_2
  62
1
  66
1
  10
0
  20
0
  30
0
  0
VERTEX
  5
1a4
  8
Layer_2
  10
51.334759
  20
97.537804
  42
0.035779571
  0
VERTEX
  5
1a5
  8
Layer_2
  10
51.016685
  20
97.501671
  0
SEQEND
  0
POLYLINE
  5
1a7
  8
Layer_2
  62
1
  66
1
  10
0
  20
0
  30
0
  0
VERTEX
  5
1a7
  8
Layer_2
  10
51.016685
  20
97.501671
  42
0.076796948
  0
VERTEX
  5
1a8
  8
Layer_2
  10
50.669029
  20
97.383018
  0
SEQEND
  0
POLYLINE
  5
1aa
  8
Layer_2
  62
1
  66
1
  10
0
  20
0
  30
0
  0
VERTEX
  5
1aa
  8
Layer_2
  10
50.669029
  20
97.383018
  42
0.144598
  0
VERTEX
  5
1ab
  8
Layer_2
  10
50.387939
  20
97.114952
  0
SEQEND
  0
POLYLINE
  5
1ad
  8
Layer_2
  62
1
  66
1
  10
0
  20
0
  30
0
  0
VERTEX
  5
1ad
  8
Layer_2
  10
50.387939
  20
97.114952
  42
0.11728814
  0
VERTEX
  5
1ae
  8
Layer_2
  10
50.295479
  20
96.766808
  0
SEQEND
  0
POLYLINE
  5
1b0
  8
Layer_2
  62
1
  66
1
  10
0
  20
0
  30
0
  0
VERTEX
  5
1b0
  8
Layer_2
  10
50.295479
  20
96.766808
  42
0.050229553
  0
VERTEX
  5
1b1
  8
Layer_2
  10
50.308426
  20
96.528526
  0
SEQEND
  0
POLYLINE
  5
1b3
  8
Layer_2
  62
1
  66
1
  10
0
  20
0
  30
0
  0
VERTEX
  5
1b3
  8
Layer_2
  10
50.308426
  20
96.528526
  42
0.04670821
  0
VERTEX
  5
1b4
  8
Layer_2
  10
50.349106
  20
96.365929
  0
SEQEND
  0
POLYLINE
  5
1b6
  8
Layer_2
  62
1
  66
1
  10
0
  20
0
  30
0
  0
VERTEX
  5
1b6
  8
Layer_2
  10
50.349106
  20
96.365929
  42
0.054666653
  0
VERTEX
  5
1b7
  8
Layer_2
  10
50.41753
  20
96.228233
  0
SEQEND
  0
POLYLINE
  5
1b9
  8
Layer_2
  62
1
  66
1
  10
0
  20
0
  30
0
  0
VERTEX
  5
1b9
  8
Layer_2
  10
50.41753
  20
96.228233
  42
0.090480782
  0
VERTEX
  5
1ba
  8
Layer_2
  10
50.57148
  20
96.069054
  0
SEQEND
  0
POLYLINE
  5
1bc
  8
Layer_2
  62
1
  66
1
  10
0
  20
0
  30
0
  0
VERTEX
  5
1bc
  8
Layer_2
  10
50.57148
  20
96.069054
  42
0.081951048
  0
VERTEX
  5
1bd
  8
Layer_2
  10
50.78738
  20
95.966026
  0
SEQEND
  0
POLYLINE
  5
1bf
  8
Layer_2
  62
1
  66
1
  10
0
  20
0
  30
0
  0
VERTEX
  5
1bf
  8
Layer_2
  10
50.78738
  20
95.966026
  42
0.058368594
  0
VERTEX
  5
1c0
  8
Layer_2
  10
51.064308
  20
95.919151
  0
SEQEND
  0
POLYLINE
  5
1c2
  8
Layer_2
  62
1
  66
1
  10
0
  20
0
  30
0
  0
VERTEX
  5
1c2
  8
Layer_2
  10
51.064308
  20
95.919151
  42
0.047338368
  0
VERTEX
  5
1c3
  8
Layer_2
  10
51.333832
  20
95.926476
  0
SEQEND
  0
POLYLINE
  5
1c5
  8
Layer_2
  62
1
  66
1
  10
0
  20
0
  30
0
  0
VERTEX
  5
1c5
  8
Layer_2
  10
51.333832
  20
95.926476
  42
0.023489427
  0
VERTEX
  5
1c6
  8
Layer_2
  10
51.786438
  20
96.008507
  0
SEQEND
  0
POLYLINE
  5
1c8
  8
Layer_2
  62
1
  66
1
  10
0
  20
0
  30
0
  0
VERTEX
  5
1c8
  8
Layer_2
  10
51.786438
  20
96.008507
  0
VERTEX
  5
1c9
  8
Layer_2
  10
51.938538
  20
96.036827
  0
SEQEND
  0
POLYLINE
  5
1cb
  8
Layer_2
  62
1
  66
1
  10
0
  20
0
  30
0
  0
VERTEX
  5
1cb
  8
Layer_2
  10
51.938538
  20
96.036827
  42
-0.02870481
  0
VERTEX
  5
1cc
  8
Layer_2
  10
52.185875
  20
96.064659
  0
SEQEND
  0
POLYLINE
  5
1ce
  8
Layer_2
  62
1
  66
1
  10
0
  20
0
  30
0
  0
VERTEX
  5
1ce
  8
Layer_2
  10
52.185875
  20
96.064659
  42
-0.088757232
  0
VERTEX
  5
1cf
  8
Layer_2
  10
52.424431
  20
96.03878
  0
SEQEND
  0
POLYLINE
  5
1d1
  8
Layer_2
  62
1
  66
1
  10
0
  20
0
  30
0
  0
VERTEX
  5
1d1
  8
Layer_2
  10
52.424431
  20
96.03878
  42
-0.170081
  0
VERTEX
  5
1d2
  8
Layer_2
  10
52.712914
  20
95.820518
  0
SEQEND
  0
POLYLINE
  5
1d4
  8
Layer_2
  62
1
  66
1
  10
0
  20
0
  30
0
  0
VERTEX
  5
1d4
  8
Layer_2
  10
52.712914
  20
95.820518
  42
-0.077600913
  0
VERTEX
  5
1d5
  8
Layer_2
  10
52.838661
  20
95.554405
  0
SEQEND
  0
POLYLINE
  5
1d7
  8
Layer_2
  62
1
  66
1
  10
0
  20
0
  30
0
  0
VERTEX
  5
1d7
  8
Layer_2
  10
52.838661
  20
95.554405
  42
-0.057383665
  0
VERTEX
  5
1d8
  8
Layer_2
  10
52.923264
  20
95.074425
  0
SEQEND
  0
POLYLINE
  5
1da
  8
Layer_2
  62
1
  66
1
  10
0
  20
0
  30
0
  0
VERTEX
  5
1da
  8
Layer_2
  10
52.923264
  20
95.074425
  42
-0.012225752
  0
VERTEX
  5
1db
  8
Layer_2
  10
52.940834
  20
94.61544
  0
SEQEND
  0
POLYLINE
  5
1dd
  8
Layer_2
  62
1
  66
1
  10
0
  20
0
  30
0
  0
VERTEX
  5
1dd
  8
Layer_2
  10
52.940834
  20
94.61544
  0
VERTEX
  5
1de
  8
Layer_2
  10
52.945457
  20
94.187706
  0
SEQEND
  0
POLYLINE
  5
1e0
  8
Layer_2
  62
1
  66
1
  10
0
  20
0
  30
0
  0
VERTEX
  5
1e0
  8
Layer_2
  10
52.945457
  20
94.187706
  0
VERTEX
  5
1e1
  8
Layer_2
  10
52.945457
  20
91.540733
  0
SEQEND
  0
POLYLINE
  5
1e3
  8
Layer_2
  62
1
  66
1
  10
0
  20
0
  30
0
  0
VERTEX
  5
1e3
  8
Layer_2
  10
52.945457
  20
91.540733
  42
0.070850707
  0
VERTEX
  5
1e4
  8
Layer_2
  10
52.199745
  20
92.471397
  0
SEQEND
  0
POLYLINE
  5
1e6
  8
Layer_2
  62
1
  66
1
  10
0
  20
0
  30
0
  0
VERTEX
  5
1e6
  8
Layer_2
  10
52.199745
  20
92.471397
  42
0.10583073
  0
VERTEX
  5
1e7
  8
Layer_2
  10
50.913589
  20
93.238487
  0
SEQEND
  0
POLYLINE
  5
1e9
  8
Layer_2
  62
1
  66
1
  10
0
  20
0
  30
0
  0
VERTEX
  5
1e9
  8
Layer_2
  10
50.913589
  20
93.238487
  42
0.06227892
  0
VERTEX
  5
1ea
  8
Layer_2
  10
49.871536
  20
93.448936
  0
SEQEND
  0
POLYLINE
  5
1ec
  8
Layer_2
  62
1
  66
1
  10
0
  20
0
  30
0
  0
VERTEX
  5
1ec
  8
Layer_2
  10
49.871536
  20
93.448936
  42
0.069513485
  0
VERTEX
  5
1ed
  8
Layer_2
  10
48.295975
  20
93.352745
  0
SEQEND
  0
POLYLINE
  5
1ef
  8
Layer_2
  62
1
  66
1
  10
0
  20
0
  30
0
  0
VERTEX
  5
1ef
  8
Layer_2
  10
48.295975
  20
93.352745
  42
0.081537662
  0
VERTEX
  5
1f0
  8
Layer_2
  10
46.917358
  20
92.826866
  0
SEQEND
  0
POLYLINE
  5
1f2
  8
Layer_2
  62
1
  66
1
  10
0
  20
0
  30
0
  0
VERTEX
  5
1f2
  8
Layer_2
  10
46.917358
  20
92.826866
  42
0.079663207
  0
VERTEX
  5
1f3
  8
Layer_2
  10
45.768513
  20
91.872765
  0
SEQEND
  0
POLYLINE
  5
1f5
  8
Layer_2
  62
1
  66
1
  10
0
  20
0
  30
0
  0
VERTEX
  5
1f5
  8
Layer_2
  10
45.768513
  20
91.872765
  42
0.081217309
  0
VERTEX
  5
1f6
  8
Layer_2
  10
44.762054
  20
90.263878
  0
SEQEND
  0
POLYLINE
  5
1f8
  8
Layer_2
  62
1
  66
1
  10
0
  20
0
  30
0
  0
VERTEX
  5
1f8
  8
Layer_2
  10
44.762054
  20
90.263878
  42
0.053617617
  0
VERTEX
  5
1f9
  8
Layer_2
  10
44.310841
  20
88.752159
  0
SEQEND
  0
POLYLINE
  5
1fb
  8
Layer_2
  62
1
  66
1
  10
0
  20
0
  30
0
  0
VERTEX
  5
1fb
  8
Layer_2
  10
44.310841
  20
88.752159
  42
0.039171995
  0
VERTEX
  5
1fc
  8
Layer_2
  10
44.145794
  20
87.189171
  0
SEQEND
  0
POLYLINE
  5
1fe
  8
Layer_2
  62
1
  66
1
  10
0
  20
0
  30
0
  0
VERTEX
  5
1fe
  8
Layer_2
  10
44.145794
  20
87.189171
  42
0.036608304
  0
VERTEX
  5
1ff
  8
Layer_2
  10
44.210518
  20
85.558311
  0
SEQEND
  0
POLYLINE
  5
201
  8
Layer_2
  62
1
  66
1
  10
0
  20
0
  30
0
  0
VERTEX
  5
201
  8
Layer_2
  10
44.210518
  20
85.558311
  42
0.044516694
  0
VERTEX
  5
202
  8
Layer_2
  10
44.506859
  20
84.103233
  0
SEQEND
  0
POLYLINE
  5
204
  8
Layer_2
  62
1
  66
1
  10
0
  20
0
  30
0
  0
VERTEX
  5
204
  8
Layer_2
  10
44.506859
  20
84.103233
  42
0.056332674
  0
VERTEX
  5
205
  8
Layer_2
  10
45.095383
  20
82.723839
  0
SEQEND
  0
POLYLINE
  5
207
  8
Layer_2
  62
1
  66
1
  10
0
  20
0
  30
0
  0
VERTEX
  5
207
  8
Layer_2
  10
45.095383
  20
82.723839
  0
VERTEX
  5
208
  8
Layer_2
  10
45.09446
  20
82.717491
  0
SEQEND
  0
POLYLINE
  5
20a
  8
Layer_2
  62
1
  66
1
  10
0
  20
0
  30
0
  0
VERTEX
  5
20a
  8
Layer_2
  10
45.09446
  20
82.717491
  42
-0.059816543
  0
VERTEX
  5
20b
  8
Layer_2
  10
44.975647
  20
82.247276
  0
SEQEND
  0
POLYLINE
  5
20d
  8
Layer_2
  62
1
  66
1
  10
0
  20
0
  30
0
  0
VERTEX
  5
20d
  8
Layer_2
  10
44.975647
  20
82.247276
  42
-0.10050712
  0
VERTEX
  5
20e
  8
Layer_2
  10
44.777313
  20
81.929893
  0
SEQEND
  0
POLYLINE
  5
210
  8
Layer_2
  62
1
  66
1
  10
0
  20
0
  30
0
  0
VERTEX
  5
210
  8
Layer_2
  10
44.777313
  20
81.929893
  42
-0.17165484
  0
VERTEX
  5
211
  8
Layer_2
  10
44.406075
  20
81.747276
  0
SEQEND
  0
POLYLINE
  5
213
  8
Layer_2
  62
1
  66
1
  10
0
  20
0
  30
0
  0
VERTEX
  5
213
  8
Layer_2
  10
44.406075
  20
81.747276
  42
-0.099220478
  0
VERTEX
  5
214
  8
Layer_2
  10
44.075523
  20
81.77169
  0
SEQEND
  0
POLYLINE
  5
216
  8
Layer_2
  62
1
  66
1
  10
0
  20
0
  30
0
  0
VERTEX
  5
216
  8
Layer_2
  10
44.075523
  20
81.77169
  42
-0.16671971
  0
VERTEX
  5
217
  8
Layer_2
  10
43.72509
  20
82.017784
  0
SEQEND
  0
POLYLINE
  5
219
  8
Layer_2
  62
1
  66
1
  10
0
  20
0
  30
0
  0
VERTEX
  5
219
  8
Layer_2
  10
43.72509
  20
82.017784
  42
-0.062718101
  0
VERTEX
  5
21a
  8
Layer_2
  10
43.604424
  20
82.233116
  0
SEQEND
  0
POLYLINE
  5
21c
  8
Layer_2
  62
1
  66
1
  10
0
  20
0
  30
0
  0
VERTEX
  5
21c
  8
Layer_2
  10
43.604424
  20
82.233116
  42
-0.043566969
  0
VERTEX
  5
21d
  8
Layer_2
  10
43.520748
  20
82.509972
  0
SEQEND
  0
POLYLINE
  5
21f
  8
Layer_2
  62
1
  66
1
  10
0
  20
0
  30
0
  0
VERTEX
  5
21f
  8
Layer_2
  10
43.520748
  20
82.509972
  0
VERTEX
  5
220
  8
Layer_2
  10
43.495319
  20
82.647667
  0
SEQEND
  0
POLYLINE
  5
222
  8
Layer_2
  62
1
  66
1
  10
0
  20
0
  30
0
  0
VERTEX
  5
222
  8
Layer_2
  10
43.495319
  20
82.647667
  42
-0.022999473
  0
VERTEX
  5
223
  8
Layer_2
  10
43.468506
  20
82.999229
  0
SEQEND
  0
POLYLINE
  5
225
  8
Layer_2
  62
1
  66
1
  10
0
  20
0
  30
0
  0
VERTEX
  5
225
  8
Layer_2
  10
43.468506
  20
82.999229
  42
-0.0044775912
  0
VERTEX
  5
226
  8
Layer_2
  10
43.458336
  20
83.385948
  0
SEQEND
  0
POLYLINE
  5
228
  8
Layer_2
  62
1
  66
1
  10
0
  20
0
  30
0
  0
VERTEX
  5
228
  8
Layer_2
  10
43.458336
  20
83.385948
  0
VERTEX
  5
229
  8
Layer_2
  10
43.453712
  20
83.894737
  0
SEQEND
  0
POLYLINE
  5
22b
  8
Layer_2
  62
1
  66
1
  10
0
  20
0
  30
0
  0
VERTEX
  5
22b
  8
Layer_2
  10
43.453712
  20
83.894737
  0
VERTEX
  5
22c
  8
Layer_2
  10
43.453712
  20
89.091026
  0
SEQEND
  0
POLYLINE
  5
22e
  8
Layer_2
  62
1
  66
1
  10
0
  20
0
  30
0
  0
VERTEX
  5
22e
  8
Layer_2
  10
43.453712
  20
89.091026
  42
0.045247946
  0
VERTEX
  5
22f
  8
Layer_2
  10
43.348305
  20
90.35128
  0
SEQEND
  0
POLYLINE
  5
231
  8
Layer_2
  62
1
  66
1
  10
0
  20
0
  30
0
  0
VERTEX
  5
231
  8
Layer_2
  10
43.348305
  20
90.35128
  42
0.060496846
  0
VERTEX
  5
232
  8
Layer_2
  10
43.033005
  20
91.398155
  0
SEQEND
  0
POLYLINE
  5
234
  8
Layer_2
  62
1
  66
1
  10
0
  20
0
  30
0
  0
VERTEX
  5
234
  8
Layer_2
  10
43.033005
  20
91.398155
  42
0.17126375
  0
VERTEX
  5
235
  8
Layer_2
  10
41.59845
  20
92.948936
  0
SEQEND
  0
POLYLINE
  5
237
  8
Layer_2
  62
1
  66
1
  10
0
  20
0
  30
0
  0
VERTEX
  5
237
  8
Layer_2
  10
41.59845
  20
92.948936
  42
0.06511449
  0
VERTEX
  5
238
  8
Layer_2
  10
40.609562
  20
93.312218
  0
SEQEND
  0
POLYLINE
  5
23a
  8
Layer_2
  62
1
  66
1
  10
0
  20
0
  30
0
  0
VERTEX
  5
23a
  8
Layer_2
  10
40.609562
  20
93.312218
  42
0.049495925
  0
VERTEX
  5
23b
  8
Layer_2
  10
39.410786
  20
93.461632
  0
SEQEND
  0
POLYLINE
  5
23d
  8
Layer_2
  62
1
  66
1
  10
0
  20
0
  30
0
  0
VERTEX
  5
23d
  8
Layer_2
  10
39.410786
  20
93.461632
  42
0.035040811
  0
VERTEX
  5
23e
  8
Layer_2
  10
38.46397
  20
93.43087
  0
SEQEND
  0
POLYLINE
  5
240
  8
Layer_2
  62
1
  66
1
  10
0
  20
0
  30
0
  0
VERTEX
  5
240
  8
Layer_2
  10
38.46397
  20
93.43087
  42
0.039353172
  0
VERTEX
  5
241
  8
Layer_2
  10
37.616089
  20
93.27462
  0
SEQEND
  0
POLYLINE
  5
243
  8
Layer_2
  62
1
  66
1
  10
0
  20
0
  30
0
  0
VERTEX
  5
243
  8
Layer_2
  10
37.616089
  20
93.27462
  42
0.042680772
  0
VERTEX
  5
244
  8
Layer_2
  10
36.837551
  20
92.99337
  0
SEQEND
  0
POLYLINE
  5
246
  8
Layer_2
  62
1
  66
1
  10
0
  20
0
  30
0
  0
VERTEX
  5
246
  8
Layer_2
  10
36.837551
  20
92.99337
  42
0.070593576
  0
VERTEX
  5
247
  8
Layer_2
  10
35.727077
  20
92.275108
  0
SEQEND
  0
POLYLINE
  5
249
  8
Layer_2
  62
1
  66
1
  10
0
  20
0
  30
0
  0
VERTEX
  5
249
  8
Layer_2
  10
35.727077
  20
92.275108
  42
0.065486789
  0
VERTEX
  5
24a
  8
Layer_2
  10
35.111275
  20
91.587608
  0
SEQEND
  0
POLYLINE
  5
24c
  8
Layer_2
  62
1
  66
1
  10
0
  20
0
  30
0
  0
VERTEX
  5
24c
  8
Layer_2
  10
35.111275
  20
91.587608
  42
0.044641127
  0
VERTEX
  5
24d
  8
Layer_2
  10
34.873646
  20
91.155968
  0
SEQEND
  0
POLYLINE
  5
24f
  8
Layer_2
  62
1
  66
1
  10
0
  20
0
  30
0
  0
VERTEX
  5
24f
  8
Layer_2
  10
34.873646
  20
91.155968
  0
VERTEX
  5
250
  8
Layer_2
  10
34.838512
  20
91.229698
  0
SEQEND
  0
POLYLINE
  5
252
  8
Layer_2
  62
1
  66
1
  10
0
  20
0
  30
0
  0
VERTEX
  5
252
  8
Layer_2
  10
34.838512
  20
91.229698
  42
0.083194962
  0
VERTEX
  5
253
  8
Layer_2
  10
34.162148
  20
92.169151
  0
SEQEND
  0
POLYLINE
  5
255
  8
Layer_2
  62
1
  66
1
  10
0
  20
0
  30
0
  0
VERTEX
  5
255
  8
Layer_2
  10
34.162148
  20
92.169151
  42
0.016696868
  0
VERTEX
  5
256
  8
Layer_2
  10
33.938389
  20
92.378624
  0
SEQEND
  0
POLYLINE
  5
258
  8
Layer_2
  62
1
  66
1
  10
0
  20
0
  30
0
  0
VERTEX
  5
258
  8
Layer_2
  10
33.938389
  20
92.378624
  42
0.021842301
  0
VERTEX
  5
259
  8
Layer_2
  10
33.614769
  20
92.633507
  0
SEQEND
  0
POLYLINE
  5
25b
  8
Layer_2
  62
1
  66
1
  10
0
  20
0
  30
0
  0
VERTEX
  5
25b
  8
Layer_2
  10
33.614769
  20
92.633507
  42
0.059827275
  0
VERTEX
  5
25c
  8
Layer_2
  10
32.718346
  20
93.121788
  0
SEQEND
  0
POLYLINE
  5
25e
  8
Layer_2
  62
1
  66
1
  10
0
  20
0
  30
0
  0
VERTEX
  5
25e
  8
Layer_2
  10
32.718346
  20
93.121788
  42
0.034293002
  0
VERTEX
  5
25f
  8
Layer_2
  10
32.120575
  20
93.313194
  0
SEQEND
  0
POLYLINE
  5
261
  8
Layer_2
  62
1
  66
1
  10
0
  20
0
  30
0
  0
VERTEX
  5
261
  8
Layer_2
  10
32.120575
  20
93.313194
  42
0.041945927
  0
VERTEX
  5
262
  8
Layer_2
  10
31.253275
  20
93.448936
  0
SEQEND
  0
POLYLINE
  5
264
  8
Layer_2
  62
1
  66
1
  10
0
  20
0
  30
0
  0
VERTEX
  5
264
  8
Layer_2
  10
31.253275
  20
93.448936
  42
0.054476237
  0
VERTEX
  5
265
  8
Layer_2
  10
29.875584
  20
93.400597
  0
SEQEND
  0
POLYLINE
  5
267
  8
Layer_2
  62
1
  66
1
  10
0
  20
0
  30
0
  0
VERTEX
  5
267
  8
Layer_2
  10
29.875584
  20
93.400597
  42
0.063147978
  0
VERTEX
  5
268
  8
Layer_2
  10
28.636585
  20
93.056847
  0
SEQEND
  0
POLYLINE
  5
26a
  8
Layer_2
  62
1
  66
1
  10
0
  20
0
  30
0
  0
VERTEX
  5
26a
  8
Layer_2
  10
28.636585
  20
93.056847
  42
0.10225936
  0
VERTEX
  5
26b
  8
Layer_2
  10
27.025425
  20
91.936241
  0
SEQEND
  0
POLYLINE
  5
26d
  8
Layer_2
  62
1
  66
1
  10
0
  20
0
  30
0
  0
VERTEX
  5
26d
  8
Layer_2
  10
27.025425
  20
91.936241
  42
0.015040327
  0
VERTEX
  5
26e
  8
Layer_2
  10
26.913082
  20
91.815147
  0
SEQEND
  0
POLYLINE
  5
270
  8
Layer_2
  62
1
  66
1
  10
0
  20
0
  30
0
  0
VERTEX
  5
270
  8
Layer_2
  10
26.913082
  20
91.815147
  0
VERTEX
  5
271
  8
Layer_2
  10
26.826168
  20
91.949425
  0
SEQEND
  0
POLYLINE
  5
273
  8
Layer_2
  62
1
  66
1
  10
0
  20
0
  30
0
  0
VERTEX
  5
273
  8
Layer_2
  10
26.826168
  20
91.949425
  42
0.038882487
  0
VERTEX
  5
274
  8
Layer_2
  10
26.500237
  20
92.352745
  0
SEQEND
  0
POLYLINE
  5
276
  8
Layer_2
  62
1
  66
1
  10
0
  20
0
  30
0
  0
VERTEX
  5
276
  8
Layer_2
  10
26.500237
  20
92.352745
  42
0.05018568
  0
VERTEX
  5
277
  8
Layer_2
  10
25.96719
  20
92.814171
  0
SEQEND
  0
POLYLINE
  5
279
  8
Layer_2
  62
1
  66
1
  10
0
  20
0
  30
0
  0
VERTEX
  5
279
  8
Layer_2
  10
25.96719
  20
92.814171
  42
0.052106222
  0
VERTEX
  5
27a
  8
Layer_2
  10
25.354626
  20
93.153526
  0
SEQEND
  0
POLYLINE
  5
27c
  8
Layer_2
  62
1
  66
1
  10
0
  20
0
  30
0
  0
VERTEX
  5
27c
  8
Layer_2
  10
25.354626
  20
93.153526
  42
0.037530163
  0
VERTEX
  5
27d
  8
Layer_2
  10
24.843307
  20
93.326866
  0
SEQEND
  0
POLYLINE
  5
27f
  8
Layer_2
  62
1
  66
1
  10
0
  20
0
  30
0
  0
VERTEX
  5
27f
  8
Layer_2
  10
24.843307
  20
93.326866
  42
0.044223037
  0
VERTEX
  5
280
  8
Layer_2
  10
24.093435
  20
93.450401
  0
SEQEND
  0
POLYLINE
  5
282
  8
Layer_2
  62
1
  66
1
  10
0
  20
0
  30
0
  0
VERTEX
  5
282
  8
Layer_2
  10
24.093435
  20
93.450401
  42
0.033662303
  0
VERTEX
  5
283
  8
Layer_2
  10
23.434639
  20
93.458702
  0
SEQEND
  0
POLYLINE
  5
285
  8
Layer_2
  62
1
  66
1
  10
0
  20
0
  30
0
  0
VERTEX
  5
285
  8
Layer_2
  10
23.434639
  20
93.458702
  42
0.079721792
  0
VERTEX
  5
286
  8
Layer_2
  10
22.260826
  20
93.20919
  0
SEQEND
  0
POLYLINE
  5
288
  8
Layer_2
  62
1
  66
1
  10
0
  20
0
  30
0
  0
VERTEX
  5
288
  8
Layer_2
  10
22.260826
  20
93.20919
  42
0.097942698
  0
VERTEX
  5
289
  8
Layer_2
  10
21.06575
  20
92.439171
  0
SEQEND
  0
POLYLINE
  5
28b
  8
Layer_2
  62
1
  66
1
  10
0
  20
0
  30
0
  0
VERTEX
  5
28b
  8
Layer_2
  10
21.06575
  20
92.439171
  42
0.054066999
  0
VERTEX
  5
28c
  8
Layer_2
  10
20.398632
  20
91.640831
  0
SEQEND
  0
POLYLINE
  5
28e
  8
Layer_2
  62
1
  66
1
  10
0
  20
0
  30
0
  0
VERTEX
  5
28e
  8
Layer_2
  10
20.398632
  20
91.640831
  0
VERTEX
  5
28f
  8
Layer_2
  10
20.398632
  20
92.316124
  0
SEQEND
  0
POLYLINE
  5
291
  8
Layer_2
  62
1
  66
1
  10
0
  20
0
  30
0
  0
VERTEX
  5
291
  8
Layer_2
  10
20.398632
  20
92.316124
  42
0.070160784
  0
VERTEX
  5
292
  8
Layer_2
  10
20.36026
  20
92.622276
  0
SEQEND
  0
POLYLINE
  5
294
  8
Layer_2
  62
1
  66
1
  10
0
  20
0
  30
0
  0
VERTEX
  5
294
  8
Layer_2
  10
20.36026
  20
92.622276
  42
0.11013432
  0
VERTEX
  5
295
  8
Layer_2
  10
20.244682
  20
92.841026
  0
SEQEND
  0
POLYLINE
  5
297
  8
Layer_2
  62
1
  66
1
  10
0
  20
0
  30
0
  0
VERTEX
  5
297
  8
Layer_2
  10
20.244682
  20
92.841026
  42
0.12458739
  0
VERTEX
  5
298
  8
Layer_2
  10
20.052359
  20
92.972374
  0
SEQEND
  0
POLYLINE
  5
29a
  8
Layer_2
  62
1
  66
1
  10
0
  20
0
  30
0
  0
VERTEX
  5
29a
  8
Layer_2
  10
20.052359
  20
92.972374
  42
0.091224212
  0
VERTEX
  5
29b
  8
Layer_2
  10
19.783293
  20
93.015831
  0
SEQEND
  0
POLYLINE
  5
29d
  8
Layer_2
  62
1
  66
1
  10
0
  20
0
  30
0
  0
VERTEX
  5
29d
  8
Layer_2
  10
19.783293
  20
93.015831
  42
0.046355173
  0
VERTEX
  5
29e
  8
Layer_2
  10
19.432859
  20
92.987999
  0
SEQEND
  0
POLYLINE
  5
2a0
  8
Layer_2
  62
1
  66
1
  10
0
  20
0
  30
0
  0
VERTEX
  5
2a0
  8
Layer_2
  10
19.432859
  20
92.987999
  42
0.018963305
  0
VERTEX
  5
2a1
  8
Layer_2
  10
19.333462
  20
92.966026
  0
SEQEND
  0
POLYLINE
  5
2a3
  8
Layer_2
  62
1
  66
1
  10
0
  20
0
  30
0
  0
VERTEX
  5
2a3
  8
Layer_2
  10
19.333462
  20
92.966026
  0
VERTEX
  5
2a4
  8
Layer_2
  10
19.13513
  20
92.944054
  0
SEQEND
  0
POLYLINE
  5
2a6
  8
Layer_2
  62
1
  66
1
  10
0
  20
0
  30
0
  0
VERTEX
  5
2a6
  8
Layer_2
  10
19.13513
  20
92.944054
  42
-0.024095364
  0
VERTEX
  5
2a7
  8
Layer_2
  10
18.718124
  20
92.915733
  0
SEQEND
  0
POLYLINE
  5
2a9
  8
Layer_2
  62
1
  66
1
  10
0
  20
0
  30
0
  0
VERTEX
  5
2a9
  8
Layer_2
  10
18.718124
  20
92.915733
  42
-0.024970606
  0
VERTEX
  5
2aa
  8
Layer_2
  10
18.229921
  20
92.95089
  0
SEQEND
  0
POLYLINE
  5
2ac
  8
Layer_2
  62
1
  66
1
  10
0
  20
0
  30
0
  0
VERTEX
  5
2ac
  8
Layer_2
  10
18.229921
  20
92.95089
  0
VERTEX
  5
2ad
  8
Layer_2
  10
17.786102
  20
93.005577
  0
SEQEND
  0
POLYLINE
  5
2af
  8
Layer_2
  62
1
  66
1
  10
0
  20
0
  30
0
  0
VERTEX
  5
2af
  8
Layer_2
  10
17.786102
  20
93.005577
  42
0.014658751
  0
VERTEX
  5
2b0
  8
Layer_2
  10
17.431046
  20
93.036827
  0
SEQEND
  0
POLYLINE
  5
2b2
  8
Layer_2
  62
1
  66
1
  10
0
  20
0
  30
0
  0
VERTEX
  5
2b2
  8
Layer_2
  10
17.431046
  20
93.036827
  42
0.052400452
  0
VERTEX
  5
2b3
  8
Layer_2
  10
17.004791
  20
93.019737
  0
SEQEND
  0
POLYLINE
  5
2b5
  8
Layer_2
  62
1
  66
1
  10
0
  20
0
  30
0
  0
VERTEX
  5
2b5
  8
Layer_2
  10
17.004791
  20
93.019737
  42
0.092684402
  0
VERTEX
  5
2b6
  8
Layer_2
  10
16.638641
  20
92.89669
  0
SEQEND
  0
POLYLINE
  5
2b8
  8
Layer_2
  62
1
  66
1
  10
0
  20
0
  30
0
  0
VERTEX
  5
2b8
  8
Layer_2
  10
16.638641
  20
92.89669
  42
0.21745496
  0
VERTEX
  5
2b9
  8
Layer_2
  10
16.304852
  20
92.418175
  0
SEQEND
  0
POLYLINE
  5
2bb
  8
Layer_2
  62
1
  66
1
  10
0
  20
0
  30
0
  0
VERTEX
  5
2bb
  8
Layer_2
  10
16.304852
  20
92.418175
  42
0.068376258
  0
VERTEX
  5
2bc
  8
Layer_2
  10
16.283123
  20
92.069054
  0
SEQEND
  0
POLYLINE
  5
2be
  8
Layer_2
  62
1
  66
1
  10
0
  20
0
  30
0
  0
VERTEX
  5
2be
  8
Layer_2
  10
16.283123
  20
92.069054
  42
0.062774226
  0
VERTEX
  5
2bf
  8
Layer_2
  10
16.328892
  20
91.816124
  0
SEQEND
  0
POLYLINE
  5
2c1
  8
Layer_2
  62
1
  66
1
  10
0
  20
0
  30
0
  0
VERTEX
  5
2c1
  8
Layer_2
  10
16.328892
  20
91.816124
  42
0.085704613
  0
VERTEX
  5
2c2
  8
Layer_2
  10
16.429676
  20
91.618858
  0
SEQEND
  0
POLYLINE
  5
2c4
  8
Layer_2
  62
1
  66
1
  10
0
  20
0
  30
0
  0
VERTEX
  5
2c4
  8
Layer_2
  10
16.429676
  20
91.618858
  42
0.12263457
  0
VERTEX
  5
2c5
  8
Layer_2
  10
16.649273
  20
91.444054
  0
SEQEND
  0
POLYLINE
  5
2c7
  8
Layer_2
  62
1
  66
1
  10
0
  20
0
  30
0
  0
VERTEX
  5
2c7
  8
Layer_2
  10
16.649273
  20
91.444054
  42
0.07109379
  0
VERTEX
  5
2c8
  8
Layer_2
  10
16.878119
  20
91.378624
  0
SEQEND
  0
POLYLINE
  5
2ca
  8
Layer_2
  62
1
  66
1
  10
0
  20
0
  30
0
  0
VERTEX
  5
2ca
  8
Layer_2
  10
16.878119
  20
91.378624
  42
0.045168676
  0
VERTEX
  5
2cb
  8
Layer_2
  10
17.110662
  20
91.366905
  0
SEQEND
  0
POLYLINE
  5
2cd
  8
Layer_2
  62
1
  66
1
  10
0
  20
0
  30
0
  0
VERTEX
  5
2cd
  8
Layer_2
  10
17.110662
  20
91.366905
  42
0.037060752
  0
VERTEX
  5
2ce
  8
Layer_2
  10
17.501316
  20
91.423546
  0
SEQEND
  0
POLYLINE
  5
2d0
  8
Layer_2
  62
1
  66
1
  10
0
  20
0
  30
0
  0
VERTEX
  5
2d0
  8
Layer_2
  10
17.501316
  20
91.423546
  0
VERTEX
  5
2d1
  8
Layer_2
  10
17.662663
  20
91.458702
  0
SEQEND
  0
POLYLINE
  5
2d3
  8
Layer_2
  62
1
  66
1
  10
0
  20
0
  30
0
  0
VERTEX
  5
2d3
  8
Layer_2
  10
17.662663
  20
91.458702
  42
-0.020207959
  0
VERTEX
  5
2d4
  8
Layer_2
  10
17.940514
  20
91.505577
  0
SEQEND
  0
POLYLINE
  5
2d6
  8
Layer_2
  62
1
  66
1
  10
0
  20
0
  30
0
  0
VERTEX
  5
2d6
  8
Layer_2
  10
17.940514
  20
91.505577
  42
-0.031140054
  0
VERTEX
  5
2d7
  8
Layer_2
  10
18.102787
  20
91.515831
  0
SEQEND
  0
POLYLINE
  5
2d9
  8
Layer_2
  62
1
  66
1
  10
0
  20
0
  30
0
  0
VERTEX
  5
2d9
  8
Layer_2
  10
18.102787
  20
91.515831
  42
-0.22520195
  0
VERTEX
  5
2da
  8
Layer_2
  10
18.474949
  20
91.341515
  0
SEQEND
  0
POLYLINE
  5
2dc
  8
Layer_2
  62
1
  66
1
  10
0
  20
0
  30
0
  0
VERTEX
  5
2dc
  8
Layer_2
  10
18.474949
  20
91.341515
  42
-0.087151307
  0
VERTEX
  5
2dd
  8
Layer_2
  10
18.641842
  20
91.049034
  0
SEQEND
  0
POLYLINE
  5
2df
  8
Layer_2
  62
1
  66
1
  10
0
  20
0
  30
0
  0
VERTEX
  5
2df
  8
Layer_2
  10
18.641842
  20
91.049034
  42
-0.032722321
  0
VERTEX
  5
2e0
  8
Layer_2
  10
18.713039
  20
90.818565
  0
SEQEND
  0
POLYLINE
  5
2e2
  8
Layer_2
  62
1
  66
1
  10
0
  20
0
  30
0
  0
VERTEX
  5
2e2
  8
Layer_2
  10
18.713039
  20
90.818565
  42
-0.031834038
  0
VERTEX
  5
2e3
  8
Layer_2
  10
18.786083
  20
90.386436
  0
SEQEND
  0
POLYLINE
  5
2e5
  8
Layer_2
  62
1
  66
1
  10
0
  20
0
  30
0
  0
VERTEX
  5
2e5
  8
Layer_2
  10
18.786083
  20
90.386436
  42
-0.015921485
  0
VERTEX
  5
2e6
  8
Layer_2
  10
18.812899
  20
90.040733
  0
SEQEND
  0
POLYLINE
  5
2e8
  8
Layer_2
  62
1
  66
1
  10
0
  20
0
  30
0
  0
VERTEX
  5
2e8
  8
Layer_2
  10
18.812899
  20
90.040733
  0
VERTEX
  5
2e9
  8
Layer_2
  10
18.883633
  20
84.365929
  0
SEQEND
  0
POLYLINE
  5
2eb
  8
Layer_2
  62
1
  66
1
  10
0
  20
0
  30
0
  0
VERTEX
  5
2eb
  8
Layer_2
  10
18.883633
  20
84.365929
  0
VERTEX
  5
2ec
  8
Layer_2
  10
18.832779
  20
83.020226
  0
SEQEND
  0
POLYLINE
  5
2ee
  8
Layer_2
  62
1
  66
1
  10
0
  20
0
  30
0
  0
VERTEX
  5
2ee
  8
Layer_2
  10
18.832779
  20
83.020226
  42
-0.044804984
  0
VERTEX
  5
2ef
  8
Layer_2
  10
18.766666
  20
82.534874
  0
SEQEND
  0
POLYLINE
  5
2f1
  8
Layer_2
  62
1
  66
1
  10
0
  20
0
  30
0
  0
VERTEX
  5
2f1
  8
Layer_2
  10
18.766666
  20
82.534874
  42
-0.055272077
  0
VERTEX
  5
2f2
  8
Layer_2
  10
18.672356
  20
82.265343
  0
SEQEND
  0
POLYLINE
  5
2f4
  8
Layer_2
  62
1
  66
1
  10
0
  20
0
  30
0
  0
VERTEX
  5
2f4
  8
Layer_2
  10
18.672356
  20
82.265343
  42
-0.065829522
  0
VERTEX
  5
2f5
  8
Layer_2
  10
18.57111
  20
82.110069
  0
SEQEND
  0
POLYLINE
  5
2f7
  8
Layer_2
  62
1
  66
1
  10
0
  20
0
  30
0
  0
VERTEX
  5
2f7
  8
Layer_2
  10
18.57111
  20
82.110069
  0
VERTEX
  5
2f8
  8
Layer_2
  10
18.542908
  20
82.112999
  0
SEQEND
  0
POLYLINE
  5
2fa
  8
Layer_2
  62
1
  66
1
  10
0
  20
0
  30
0
  0
VERTEX
  5
2fa
  8
Layer_2
  10
18.542908
  20
82.112999
  0
VERTEX
  5
2fb
  8
Layer_2
  10
18.43149
  20
82.115929
  0
SEQEND
  0
POLYLINE
  5
2fd
  8
Layer_2
  62
1
  66
1
  10
0
  20
0
  30
0
  0
VERTEX
  5
2fd
  8
Layer_2
  10
18.43149
  20
82.115929
  0
VERTEX
  5
2fe
  8
Layer_2
  10
17.771307
  20
82.066124
  0
SEQEND
  0
POLYLINE
  5
300
  8
Layer_2
  62
1
  66
1
  10
0
  20
0
  30
0
  0
VERTEX
  5
300
  8
Layer_2
  10
17.771307
  20
82.066124
  0
VERTEX
  5
301
  8
Layer_2
  10
17.718142
  20
82.054893
  0
SEQEND
  0
POLYLINE
  5
303
  8
Layer_2
  62
1
  66
1
  10
0
  20
0
  30
0
  0
VERTEX
  5
303
  8
Layer_2
  10
17.718142
  20
82.054893
  42
-0.029810602
  0
VERTEX
  5
304
  8
Layer_2
  10
17.61227
  20
82.04464
  0
SEQEND
  0
POLYLINE
  5
306
  8
Layer_2
  62
1
  66
1
  10
0
  20
0
  30
0
  0
VERTEX
  5
306
  8
Layer_2
  10
17.61227
  20
82.04464
  0
VERTEX
  5
307
  8
Layer_2
  10
17.511024
  20
82.066124
  0
SEQEND
  0
POLYLINE
  5
309
  8
Layer_2
  62
1
  66
1
  10
0
  20
0
  30
0
  0
VERTEX
  5
309
  8
Layer_2
  10
17.511024
  20
82.066124
  42
0.038093061
  0
VERTEX
  5
30a
  8
Layer_2
  10
17.266924
  20
82.089561
  0
SEQEND
  0
POLYLINE
  5
30c
  8
Layer_2
  62
1
  66
1
  10
0
  20
0
  30
0
  0
VERTEX
  5
30c
  8
Layer_2
  10
17.266924
  20
82.089561
  42
0.019957211
  0
VERTEX
  5
30d
  8
Layer_2
  10
17.082924
  20
82.089073
  0
SEQEND
  0
POLYLINE
  5
30f
  8
Layer_2
  62
1
  66
1
  10
0
  20
0
  30
0
  0
VERTEX
  5
30f
  8
Layer_2
  10
17.082924
  20
82.089073
  0
VERTEX
  5
310
  8
Layer_2
  10
17.065355
  20
82.093468
  0
SEQEND
  0
POLYLINE
  5
312
  8
Layer_2
  62
1
  66
1
  10
0
  20
0
  30
0
  0
VERTEX
  5
312
  8
Layer_2
  10
17.065355
  20
82.093468
  42
-0.13267806
  0
VERTEX
  5
313
  8
Layer_2
  10
16.582701
  20
82.370323
  0
SEQEND
  0
POLYLINE
  5
315
  8
Layer_2
  62
1
  66
1
  10
0
  20
0
  30
0
  0
VERTEX
  5
315
  8
Layer_2
  10
16.582701
  20
82.370323
  42
-0.056728523
  0
VERTEX
  5
316
  8
Layer_2
  10
16.370037
  20
82.653526
  0
SEQEND
  0
POLYLINE
  5
318
  8
Layer_2
  62
1
  66
1
  10
0
  20
0
  30
0
  0
VERTEX
  5
318
  8
Layer_2
  10
16.370037
  20
82.653526
  42
-0.033594867
  0
VERTEX
  5
319
  8
Layer_2
  10
16.098198
  20
83.196983
  0
SEQEND
  0
POLYLINE
  5
31b
  8
Layer_2
  62
1
  66
1
  10
0
  20
0
  30
0
  0
VERTEX
  5
31b
  8
Layer_2
  10
16.098198
  20
83.196983
  42
-0.018061821
  0
VERTEX
  5
31c
  8
Layer_2
  10
15.806478
  20
83.966026
  0
SEQEND
  0
POLYLINE
  5
31e
  8
Layer_2
  62
1
  66
1
  10
0
  20
0
  30
0
  0
VERTEX
  5
31e
  8
Layer_2
  10
15.806478
  20
83.966026
  0
VERTEX
  5
31f
  8
Layer_2
  10
11.546726
  20
96.430382
  0
SEQEND
  0
POLYLINE
  5
321
  8
Layer_2
  62
1
  66
1
  10
0
  20
0
  30
0
  0
VERTEX
  5
321
  8
Layer_2
  10
11.546726
  20
96.430382
  42
0.092766258
  0
VERTEX
  5
322
  8
Layer_2
  10
11.238827
  20
96.963585
  0
SEQEND
  0
POLYLINE
  5
324
  8
Layer_2
  62
1
  66
1
  10
0
  20
0
  30
0
  0
VERTEX
  5
324
  8
Layer_2
  10
11.238827
  20
96.963585
  42
0.14500863
  0
VERTEX
  5
325
  8
Layer_2
  10
10.624413
  20
97.350304
  0
SEQEND
  0
POLYLINE
  5
327
  8
Layer_2
  62
1
  66
1
  10
0
  20
0
  30
0
  0
VERTEX
  5
327
  8
Layer_2
  10
10.624413
  20
97.350304
  42
0.07849906
  0
VERTEX
  5
328
  8
Layer_2
  10
10.056692
  20
97.414757
  0
SEQEND
  0
POLYLINE
  5
32a
  8
Layer_2
  62
1
  66
1
  10
0
  20
0
  30
0
  0
VERTEX
  5
32a
  8
Layer_2
  10
10.056692
  20
97.414757
  42
0.092887047
  0
VERTEX
  5
32b
  8
Layer_2
  10
9.4473648
  20
97.29171
  0
SEQEND
  0
POLYLINE
  5
32d
  8
Layer_2
  62
1
  66
1
  10
0
  20
0
  30
0
  0
VERTEX
  5
32d
  8
Layer_2
  10
9.4473648
  20
97.29171
  42
0.16221129
  0
VERTEX
  5
32e
  8
Layer_2
  10
8.8024368
  20
96.722862
  0
SEQEND
  0
POLYLINE
  5
330
  8
Layer_2
  62
1
  66
1
  10
0
  20
0
  30
0
  0
VERTEX
  5
330
  8
Layer_2
  10
8.8024368
  20
96.722862
  42
0.050606352
  0
VERTEX
  5
331
  8
Layer_2
  10
8.6346188
  20
96.365929
  0
SEQEND
  0
POLYLINE
  5
333
  8
Layer_2
  62
1
  66
1
  10
0
  20
0
  30
0
  0
VERTEX
  5
333
  8
Layer_2
  10
8.6346188
  20
96.365929
  0
VERTEX
  5
334
  8
Layer_2
  10
4.1141224
  20
83.452354
  0
SEQEND
  0
POLYLINE
  5
336
  8
Layer_2
  62
1
  66
1
  10
0
  20
0
  30
0
  0
VERTEX
  5
336
  8
Layer_2
  10
4.1141224
  20
83.452354
  42
-0.020403327
  0
VERTEX
  5
337
  8
Layer_2
  10
3.8653984
  20
82.816612
  0
SEQEND
  0
POLYLINE
  5
339
  8
Layer_2
  62
1
  66
1
  10
0
  20
0
  30
0
  0
VERTEX
  5
339
  8
Layer_2
  10
3.8653984
  20
82.816612
  42
-0.032478612
  0
VERTEX
  5
33a
  8
Layer_2
  10
3.7766342
  20
82.643761
  0
SEQEND
  0
POLYLINE
  5
33c
  8
Layer_2
  62
1
  66
1
  10
0
  20
0
  30
0
  0
VERTEX
  5
33c
  8
Layer_2
  10
3.7766342
  20
82.643761
  42
-0.02810473
  0
VERTEX
  5
33d
  8
Layer_2
  10
3.6707649
  20
82.492882
  0
SEQEND
  0
POLYLINE
  5
33f
  8
Layer_2
  62
1
  66
1
  10
0
  20
0
  30
0
  0
VERTEX
  5
33f
  8
Layer_2
  10
3.6707649
  20
82.492882
  42
-0.18841151
  0
VERTEX
  5
340
  8
Layer_2
  10
3.016592
  20
82.109581
  0
SEQEND
  0
POLYLINE
  5
342
  8
Layer_2
  62
1
  66
1
  10
0
  20
0
  30
0
  0
VERTEX
  5
342
  8
Layer_2
  10
3.016592
  20
82.109581
  42
-0.042592397
  0
VERTEX
  5
343
  8
Layer_2
  10
2.7877483
  20
82.091026
  0
SEQEND
  0
POLYLINE
  5
345
  8
Layer_2
  62
1
  66
1
  10
0
  20
0
  30
0
  0
VERTEX
  5
345
  8
Layer_2
  10
2.7877483
  20
82.091026
  0
VERTEX
  5
346
  8
Layer_2
  10
2.4803085
  20
82.091026
  0
SEQEND
  0
POLYLINE
  5
348
  8
Layer_2
  62
1
  66
1
  10
0
  20
0
  30
0
  0
VERTEX
  5
348
  8
Layer_2
  10
2.4803085
  20
82.091026
  0
VERTEX
  5
349
  8
Layer_2
  10
2.4266815
  20
82.101768
  0
SEQEND
  0
POLYLINE
  5
34b
  8
Layer_2
  62
1
  66
1
  10
0
  20
0
  30
0
  0
VERTEX
  5
34b
  8
Layer_2
  10
2.4266815
  20
82.101768
  42
0.082204814
  0
VERTEX
  5
34c
  8
Layer_2
  10
1.890398
  20
82.085167
  0
SEQEND
  0
POLYLINE
  5
34e
  8
Layer_2
  62
1
  66
1
  10
0
  20
0
  30
0
  0
VERTEX
  5
34e
  8
Layer_2
  10
1.890398
  20
82.085167
  42
0.12408641
  0
VERTEX
  5
34f
  8
Layer_2
  10
1.5505981
  20
81.923546
  0
SEQEND
  0
POLYLINE
  5
351
  8
Layer_2
  62
1
  66
1
  10
0
  20
0
  30
0
  0
VERTEX
  5
351
  8
Layer_2
  10
1.5505981
  20
81.923546
  42
0.14990886
  0
VERTEX
  5
352
  8
Layer_2
  10
1.3397827
  20
81.581749
  0
SEQEND
  0
POLYLINE
  5
354
  8
Layer_2
  62
1
  66
1
  10
0
  20
0
  30
0
  0
VERTEX
  5
354
  8
Layer_2
  10
1.3397827
  20
81.581749
  42
0.045625607
  0
VERTEX
  5
355
  8
Layer_2
  10
1.3046474
  20
81.397179
  0
SEQEND
  0
POLYLINE
  5
357
  8
Layer_2
  62
1
  66
1
  10
0
  20
0
  30
0
  0
VERTEX
  5
357
  8
Layer_2
  10
1.3046474
  20
81.397179
  42
0.062790254
  0
VERTEX
  5
358
  8
Layer_2
  10
1.311121
  20
81.047569
  0
SEQEND
  0
POLYLINE
  5
35a
  8
Layer_2
  62
1
  66
1
  10
0
  20
0
  30
0
  0
VERTEX
  5
35a
  8
Layer_2
  10
1.311121
  20
81.047569
  42
0.048016822
  0
VERTEX
  5
35b
  8
Layer_2
  10
1.3541145
  20
80.880089
  0
SEQEND
  0
POLYLINE
  5
35d
  8
Layer_2
  62
1
  66
1
  10
0
  20
0
  30
0
  0
VERTEX
  5
35d
  8
Layer_2
  10
1.3541145
  20
80.880089
  42
0.054348579
  0
VERTEX
  5
35e
  8
Layer_2
  10
1.4262352
  20
80.737999
  0
SEQEND
  0
POLYLINE
  5
360
  8
Layer_2
  62
1
  66
1
  10
0
  20
0
  30
0
  0
VERTEX
  5
360
  8
Layer_2
  10
1.4262352
  20
80.737999
  42
0.061196536
  0
VERTEX
  5
361
  8
Layer_2
  10
1.527483
  20
80.622276
  0
SEQEND
  0
POLYLINE
  5
363
  8
Layer_2
  62
1
  66
1
  10
0
  20
0
  30
0
  0
VERTEX
  5
363
  8
Layer_2
  10
1.527483
  20
80.622276
  0
VERTEX
  5
364
  8
Layer_2
  10
1.5885086
  20
80.573936
  0
SEQEND
  0
POLYLINE
  5
366
  8
Layer_2
  62
1
  66
1
  10
0
  20
0
  30
0
  0
VERTEX
  5
366
  8
Layer_2
  10
1.5885086
  20
80.573936
  42
0.052853409
  0
VERTEX
  5
367
  8
Layer_2
  10
1.7327499
  20
80.4963
  0
SEQEND
  0
POLYLINE
  5
369
  8
Layer_2
  62
1
  66
1
  10
0
  20
0
  30
0
  0
VERTEX
  5
369
  8
Layer_2
  10
1.7327499
  20
80.4963
  42
0.062089303
  0
VERTEX
  5
36a
  8
Layer_2
  10
2.0032024
  20
80.428917
  0
SEQEND
  0
POLYLINE
  5
36c
  8
Layer_2
  62
1
  66
1
  10
0
  20
0
  30
0
  0
VERTEX
  5
36c
  8
Layer_2
  10
2.0032024
  20
80.428917
  42
0.048166659
  0
VERTEX
  5
36d
  8
Layer_2
  10
2.3957062
  20
80.422081
  0
SEQEND
  0
POLYLINE
  5
36f
  8
Layer_2
  62
1
  66
1
  10
0
  20
0
  30
0
  0
VERTEX
  5
36f
  8
Layer_2
  10
2.3957062
  20
80.422081
  42
0.014062292
  0
VERTEX
  5
370
  8
Layer_2
  10
2.7429028
  20
80.454796
  0
SEQEND
  0
POLYLINE
  5
372
  8
Layer_2
  62
1
  66
1
  10
0
  20
0
  30
0
  0
VERTEX
  5
372
  8
Layer_2
  10
2.7429028
  20
80.454796
  0
VERTEX
  5
373
  8
Layer_2
  10
3.0299988
  20
80.492393
  0
SEQEND
  0
POLYLINE
  5
375
  8
Layer_2
  62
1
  66
1
  10
0
  20
0
  30
0
  0
VERTEX
  5
375
  8
Layer_2
  10
3.0299988
  20
80.492393
  0
VERTEX
  5
376
  8
Layer_2
  10
4.2278519
  20
80.672081
  0
SEQEND
  0
POLYLINE
  5
378
  8
Layer_2
  62
1
  66
1
  10
0
  20
0
  30
0
  0
VERTEX
  5
378
  8
Layer_2
  10
4.2278519
  20
80.672081
  42
-0.021248527
  0
VERTEX
  5
379
  8
Layer_2
  10
4.7146683
  20
80.706261
  0
SEQEND
  0
POLYLINE
  5
37b
  8
Layer_2
  62
1
  66
1
  10
0
  20
0
  30
0
  0
VERTEX
  5
37b
  8
Layer_2
  10
4.7146683
  20
80.706261
  42
-0.016113701
  0
VERTEX
  5
37c
  8
Layer_2
  10
5.9254646
  20
80.706261
  0
SEQEND
  0
POLYLINE
  5
37e
  8
Layer_2
  62
1
  66
1
  10
0
  20
0
  30
0
  0
VERTEX
  5
37e
  8
Layer_2
  10
5.9254646
  20
80.706261
  42
-0.021171087
  0
VERTEX
  5
37f
  8
Layer_2
  10
6.390089
  20
80.672081
  0
SEQEND
  0
POLYLINE
  5
381
  8
Layer_2
  62
1
  66
1
  10
0
  20
0
  30
0
  0
VERTEX
  5
381
  8
Layer_2
  10
6.390089
  20
80.672081
  0
VERTEX
  5
382
  8
Layer_2
  10
7.6166058
  20
80.490929
  0
SEQEND
  0
POLYLINE
  5
384
  8
Layer_2
  62
1
  66
1
  10
0
  20
0
  30
0
  0
VERTEX
  5
384
  8
Layer_2
  10
7.6166058
  20
80.490929
  42
0.024459104
  0
VERTEX
  5
385
  8
Layer_2
  10
8.0336113
  20
80.444054
  0
SEQEND
  0
POLYLINE
  5
387
  8
Layer_2
  62
1
  66
1
  10
0
  20
0
  30
0
  0
VERTEX
  5
387
  8
Layer_2
  10
8.0336113
  20
80.444054
  42
0.055433552
  0
VERTEX
  5
388
  8
Layer_2
  10
8.4991608
  20
80.469933
  0
SEQEND
  0
POLYLINE
  5
38a
  8
Layer_2
  62
1
  66
1
  10
0
  20
0
  30
0
  0
VERTEX
  5
38a
  8
Layer_2
  10
8.4991608
  20
80.469933
  42
0.091153361
  0
VERTEX
  5
38b
  8
Layer_2
  10
8.8653126
  20
80.598839
  0
SEQEND
  0
POLYLINE
  5
38d
  8
Layer_2
  62
1
  66
1
  10
0
  20
0
  30
0
  0
VERTEX
  5
38d
  8
Layer_2
  10
8.8653126
  20
80.598839
  42
0.22491033
  0
VERTEX
  5
38e
  8
Layer_2
  10
9.1856956
  20
81.072472
  0
SEQEND
  0
POLYLINE
  5
390
  8
Layer_2
  62
1
  66
1
  10
0
  20
0
  30
0
  0
VERTEX
  5
390
  8
Layer_2
  10
9.1856956
  20
81.072472
  42
0.1127331
  0
VERTEX
  5
391
  8
Layer_2
  10
9.1561069
  20
81.606651
  0
SEQEND
  0
POLYLINE
  5
393
  8
Layer_2
  62
1
  66
1
  10
0
  20
0
  30
0
  0
VERTEX
  5
393
  8
Layer_2
  10
9.1561069
  20
81.606651
  42
0.21970396
  0
VERTEX
  5
394
  8
Layer_2
  10
8.7844067
  20
82.037315
  0
SEQEND
  0
POLYLINE
  5
396
  8
Layer_2
  62
1
  66
1
  10
0
  20
0
  30
0
  0
VERTEX
  5
396
  8
Layer_2
  10
8.7844067
  20
82.037315
  42
0.070202929
  0
VERTEX
  5
397
  8
Layer_2
  10
8.5116425
  20
82.119347
  0
SEQEND
  0
POLYLINE
  5
399
  8
Layer_2
  62
1
  66
1
  10
0
  20
0
  30
0
  0
VERTEX
  5
399
  8
Layer_2
  10
8.5116425
  20
82.119347
  42
0.044953469
  0
VERTEX
  5
39a
  8
Layer_2
  10
8.1750793
  20
82.140343
  0
SEQEND
  0
POLYLINE
  5
39c
  8
Layer_2
  62
1
  66
1
  10
0
  20
0
  30
0
  0
VERTEX
  5
39c
  8
Layer_2
  10
8.1750793
  20
82.140343
  42
0.01992086
  0
VERTEX
  5
39d
  8
Layer_2
  10
7.4746761
  20
82.079308
  0
SEQEND
  0
POLYLINE
  5
39f
  8
Layer_2
  62
1
  66
1
  10
0
  20
0
  30
0
  0
VERTEX
  5
39f
  8
Layer_2
  10
7.4746761
  20
82.079308
  0
VERTEX
  5
3a0
  8
Layer_2
  10
7.2809658
  20
82.060265
  0
SEQEND
  0
POLYLINE
  5
3a2
  8
Layer_2
  62
1
  66
1
  10
0
  20
0
  30
0
  0
VERTEX
  5
3a2
  8
Layer_2
  10
7.2809658
  20
82.060265
  42
-0.021228717
  0
VERTEX
  5
3a3
  8
Layer_2
  10
6.9064922
  20
82.040733
  0
SEQEND
  0
POLYLINE
  5
3a5
  8
Layer_2
  62
1
  66
1
  10
0
  20
0
  30
0
  0
VERTEX
  5
3a5
  8
Layer_2
  10
6.9064922
  20
82.040733
  42
-0.049420592
  0
VERTEX
  5
3a6
  8
Layer_2
  10
6.5925827
  20
82.069054
  0
SEQEND
  0
POLYLINE
  5
3a8
  8
Layer_2
  62
1
  66
1
  10
0
  20
0
  30
0
  0
VERTEX
  5
3a8
  8
Layer_2
  10
6.5925827
  20
82.069054
  42
-0.042715822
  0
VERTEX
  5
3a9
  8
Layer_2
  10
6.4196777
  20
82.118858
  0
SEQEND
  0
POLYLINE
  5
3ab
  8
Layer_2
  62
1
  66
1
  10
0
  20
0
  30
0
  0
VERTEX
  5
3ab
  8
Layer_2
  10
6.4196777
  20
82.118858
  42
-0.052837619
  0
VERTEX
  5
3ac
  8
Layer_2
  10
6.2754364
  20
82.194054
  0
SEQEND
  0
POLYLINE
  5
3ae
  8
Layer_2
  62
1
  66
1
  10
0
  20
0
  30
0
  0
VERTEX
  5
3ae
  8
Layer_2
  10
6.2754364
  20
82.194054
  0
VERTEX
  5
3af
  8
Layer_2
  10
6.2139473
  20
82.240929
  0
SEQEND
  0
POLYLINE
  5
3b1
  8
Layer_2
  62
1
  66
1
  10
0
  20
0
  30
0
  0
VERTEX
  5
3b1
  8
Layer_2
  10
6.2139473
  20
82.240929
  0
VERTEX
  5
3b2
  8
Layer_2
  10
6.1598568
  20
82.294151
  0
SEQEND
  0
POLYLINE
  5
3b4
  8
Layer_2
  62
1
  66
1
  10
0
  20
0
  30
0
  0
VERTEX
  5
3b4
  8
Layer_2
  10
6.1598568
  20
82.294151
  42
-0.062933839
  0
VERTEX
  5
3b5
  8
Layer_2
  10
6.0734043
  20
82.419151
  0
SEQEND
  0
POLYLINE
  5
3b7
  8
Layer_2
  62
1
  66
1
  10
0
  20
0
  30
0
  0
VERTEX
  5
3b7
  8
Layer_2
  10
6.0734043
  20
82.419151
  42
-0.054451908
  0
VERTEX
  5
3b8
  8
Layer_2
  10
6.0156155
  20
82.569054
  0
SEQEND
  0
POLYLINE
  5
3ba
  8
Layer_2
  62
1
  66
1
  10
0
  20
0
  30
0
  0
VERTEX
  5
3ba
  8
Layer_2
  10
6.0156155
  20
82.569054
  42
-0.046580067
  0
VERTEX
  5
3bb
  8
Layer_2
  10
5.9869518
  20
82.743858
  0
SEQEND
  0
POLYLINE
  5
3bd
  8
Layer_2
  62
1
  66
1
  10
0
  20
0
  30
0
  0
VERTEX
  5
3bd
  8
Layer_2
  10
5.9869518
  20
82.743858
  42
-0.093395051
  0
VERTEX
  5
3be
  8
Layer_2
  10
6.0558376
  20
83.297569
  0
SEQEND
  0
POLYLINE
  5
3c0
  8
Layer_2
  62
1
  66
1
  10
0
  20
0
  30
0
  0
VERTEX
  5
3c0
  8
Layer_2
  10
6.0558376
  20
83.297569
  0
VERTEX
  5
3c1
  8
Layer_2
  10
6.0780277
  20
83.365929
  0
SEQEND
  0
POLYLINE
  5
3c3
  8
Layer_2
  62
1
  66
1
  10
0
  20
0
  30
0
  0
VERTEX
  5
3c3
  8
Layer_2
  10
6.0780277
  20
83.365929
  0
VERTEX
  5
3c4
  8
Layer_2
  10
6.7645626
  20
85.290733
  0
SEQEND
  0
POLYLINE
  5
3c6
  8
Layer_2
  62
1
  66
1
  10
0
  20
0
  30
0
  0
VERTEX
  5
3c6
  8
Layer_2
  10
6.7645626
  20
85.290733
  42
-0.024495097
  0
VERTEX
  5
3c7
  8
Layer_2
  10
7.0220718
  20
85.915733
  0
SEQEND
  0
POLYLINE
  5
3c9
  8
Layer_2
  62
1
  66
1
  10
0
  20
0
  30
0
  0
VERTEX
  5
3c9
  8
Layer_2
  10
7.0220718
  20
85.915733
  42
-0.026504326
  0
VERTEX
  5
3ca
  8
Layer_2
  10
7.1307144
  20
86.115929
  0
SEQEND
  0
POLYLINE
  5
3cc
  8
Layer_2
  62
1
  66
1
  10
0
  20
0
  30
0
  0
VERTEX
  5
3cc
  8
Layer_2
  10
7.1307144
  20
86.115929
  42
-0.082600623
  0
VERTEX
  5
3cd
  8
Layer_2
  10
7.2495289
  20
86.261925
  0
SEQEND
  0
POLYLINE
  5
3cf
  8
Layer_2
  62
1
  66
1
  10
0
  20
0
  30
0
  0
VERTEX
  5
3cf
  8
Layer_2
  10
7.2495289
  20
86.261925
  42
-0.09907069
  0
VERTEX
  5
3d0
  8
Layer_2
  10
7.4381523
  20
86.360558
  0
SEQEND
  0
POLYLINE
  5
3d2
  8
Layer_2
  62
1
  66
1
  10
0
  20
0
  30
0
  0
VERTEX
  5
3d2
  8
Layer_2
  10
7.4381523
  20
86.360558
  42
-0.05422658
  0
VERTEX
  5
3d3
  8
Layer_2
  10
7.7099934
  20
86.409874
  0
SEQEND
  0
POLYLINE
  5
3d5
  8
Layer_2
  62
1
  66
1
  10
0
  20
0
  30
0
  0
VERTEX
  5
3d5
  8
Layer_2
  10
7.7099934
  20
86.409874
  0
VERTEX
  5
3d6
  8
Layer_2
  10
7.8190975
  20
86.415245
  0
SEQEND
  0
POLYLINE
  5
3d8
  8
Layer_2
  62
1
  66
1
  10
0
  20
0
  30
0
  0
VERTEX
  5
3d8
  8
Layer_2
  10
7.8190975
  20
86.415245
  0
VERTEX
  5
3d9
  8
Layer_2
  10
12.090406
  20
86.415733
  0
SEQEND
  0
POLYLINE
  5
3db
  8
Layer_2
  62
1
  66
1
  10
0
  20
0
  30
0
  0
VERTEX
  5
3db
  8
Layer_2
  10
12.090406
  20
86.415733
  42
-0.040085405
  0
VERTEX
  5
3dc
  8
Layer_2
  10
12.483835
  20
86.390831
  0
SEQEND
  0
POLYLINE
  5
3de
  8
Layer_2
  62
1
  66
1
  10
0
  20
0
  30
0
  0
VERTEX
  5
3de
  8
Layer_2
  10
12.483835
  20
86.390831
  42
-0.065141891
  0
VERTEX
  5
3df
  8
Layer_2
  10
12.674309
  20
86.339561
  0
SEQEND
  0
POLYLINE
  5
3e1
  8
Layer_2
  62
1
  66
1
  10
0
  20
0
  30
0
  0
VERTEX
  5
3e1
  8
Layer_2
  10
12.674309
  20
86.339561
  42
-0.085731047
  0
VERTEX
  5
3e2
  8
Layer_2
  10
12.755674
  20
86.286339
  0
SEQEND
  0
POLYLINE
  5
3e4
  8
Layer_2
  62
1
  66
1
  10
0
  20
0
  30
0
  0
VERTEX
  5
3e4
  8
Layer_2
  10
12.755674
  20
86.286339
  42
-0.074811533
  0
VERTEX
  5
3e5
  8
Layer_2
  10
12.868479
  20
86.140831
  0
SEQEND
  0
POLYLINE
  5
3e7
  8
Layer_2
  62
1
  66
1
  10
0
  20
0
  30
0
  0
VERTEX
  5
3e7
  8
Layer_2
  10
12.868479
  20
86.140831
  42
-0.046110215
  0
VERTEX
  5
3e8
  8
Layer_2
  10
13.013645
  20
85.816124
  0
SEQEND
  0
POLYLINE
  5
3ea
  8
Layer_2
  62
1
  66
1
  10
0
  20
0
  30
0
  0
VERTEX
  5
3ea
  8
Layer_2
  10
13.013645
  20
85.816124
  0
VERTEX
  5
3eb
  8
Layer_2
  10
13.865688
  20
83.365929
  0
SEQEND
  0
POLYLINE
  5
3ed
  8
Layer_2
  62
1
  66
1
  10
0
  20
0
  30
0
  0
VERTEX
  5
3ed
  8
Layer_2
  10
13.865688
  20
83.365929
  42
-0.010955253
  0
VERTEX
  5
3ee
  8
Layer_2
  10
14.007618
  20
82.928429
  0
SEQEND
  0
POLYLINE
  5
3f0
  8
Layer_2
  62
1
  66
1
  10
0
  20
0
  30
0
  0
VERTEX
  5
3f0
  8
Layer_2
  10
14.007618
  20
82.928429
  42
-0.034514926
  0
VERTEX
  5
3f1
  8
Layer_2
  10
14.052
  20
82.747765
  0
SEQEND
  0
POLYLINE
  5
3f3
  8
Layer_2
  62
1
  66
1
  10
0
  20
0
  30
0
  0
VERTEX
  5
3f3
  8
Layer_2
  10
14.052
  20
82.747765
  0
VERTEX
  5
3f4
  8
Layer_2
  10
14.054773
  20
82.716026
  0
SEQEND
  0
POLYLINE
  5
3f6
  8
Layer_2
  62
1
  66
1
  10
0
  20
0
  30
0
  0
VERTEX
  5
3f6
  8
Layer_2
  10
14.054773
  20
82.716026
  42
-0.067235554
  0
VERTEX
  5
3f7
  8
Layer_2
  10
14.027498
  20
82.486534
  0
SEQEND
  0
POLYLINE
  5
3f9
  8
Layer_2
  62
1
  66
1
  10
0
  20
0
  30
0
  0
VERTEX
  5
3f9
  8
Layer_2
  10
14.027498
  20
82.486534
  42
-0.0848178
  0
VERTEX
  5
3fa
  8
Layer_2
  10
13.945206
  20
82.304405
  0
SEQEND
  0
POLYLINE
  5
3fc
  8
Layer_2
  62
1
  66
1
  10
0
  20
0
  30
0
  0
VERTEX
  5
3fc
  8
Layer_2
  10
13.945206
  20
82.304405
  42
-0.1235691
  0
VERTEX
  5
3fd
  8
Layer_2
  10
13.749647
  20
82.135948
  0
SEQEND
  0
POLYLINE
  5
3ff
  8
Layer_2
  62
1
  66
1
  10
0
  20
0
  30
0
  0
VERTEX
  5
3ff
  8
Layer_2
  10
13.749647
  20
82.135948
  42
-0.069345983
  0
VERTEX
  5
400
  8
Layer_2
  10
13.539295
  20
82.064659
  0
SEQEND
  0
POLYLINE
  5
402
  8
Layer_2
  62
1
  66
1
  10
0
  20
0
  30
0
  0
VERTEX
  5
402
  8
Layer_2
  10
13.539295
  20
82.064659
  42
-0.046299296
  0
VERTEX
  5
403
  8
Layer_2
  10
13.273928
  20
82.040733
  0
SEQEND
  0
POLYLINE
  5
405
  8
Layer_2
  62
1
  66
1
  10
0
  20
0
  30
0
  0
VERTEX
  5
405
  8
Layer_2
  10
13.273928
  20
82.040733
  42
-0.022477342
  0
VERTEX
  5
406
  8
Layer_2
  10
12.841204
  20
82.069054
  0
SEQEND
  0
POLYLINE
  5
408
  8
Layer_2
  62
1
  66
1
  10
0
  20
0
  30
0
  0
VERTEX
  5
408
  8
Layer_2
  10
12.841204
  20
82.069054
  0
VERTEX
  5
409
  8
Layer_2
  10
12.451935
  20
82.112999
  0
SEQEND
  0
POLYLINE
  5
40b
  8
Layer_2
  62
1
  66
1
  10
0
  20
0
  30
0
  0
VERTEX
  5
40b
  8
Layer_2
  10
12.451935
  20
82.112999
  42
0.026558826
  0
VERTEX
  5
40c
  8
Layer_2
  10
12.019211
  20
82.140831
  0
SEQEND
  0
POLYLINE
  5
40e
  8
Layer_2
  62
1
  66
1
  10
0
  20
0
  30
0
  0
VERTEX
  5
40e
  8
Layer_2
  10
12.019211
  20
82.140831
  42
0.047546106
  0
VERTEX
  5
40f
  8
Layer_2
  10
11.665541
  20
82.111046
  0
SEQEND
  0
POLYLINE
  5
411
  8
Layer_2
  62
1
  66
1
  10
0
  20
0
  30
0
  0
VERTEX
  5
411
  8
Layer_2
  10
11.665541
  20
82.111046
  42
0.094931369
  0
VERTEX
  5
412
  8
Layer_2
  10
11.307249
  20
81.978233
  0
SEQEND
  0
POLYLINE
  5
414
  8
Layer_2
  62
1
  66
1
  10
0
  20
0
  30
0
  0
VERTEX
  5
414
  8
Layer_2
  10
11.307249
  20
81.978233
  42
0.20480817
  0
VERTEX
  5
415
  8
Layer_2
  10
11.003046
  20
81.535851
  0
SEQEND
  0
POLYLINE
  5
417
  8
Layer_2
  62
1
  66
1
  10
0
  20
0
  30
0
  0
VERTEX
  5
417
  8
Layer_2
  10
11.003046
  20
81.535851
  42
0.12183815
  0
VERTEX
  5
418
  8
Layer_2
  10
11.022926
  20
80.959679
  0
SEQEND
  0
POLYLINE
  5
41a
  8
Layer_2
  62
1
  66
1
  10
0
  20
0
  30
0
  0
VERTEX
  5
41a
  8
Layer_2
  10
11.022926
  20
80.959679
  42
0.21920341
  0
VERTEX
  5
41b
  8
Layer_2
  10
11.38538
  20
80.541222
  0
SEQEND
  0
POLYLINE
  5
41d
  8
Layer_2
  62
1
  66
1
  10
0
  20
0
  30
0
  0
VERTEX
  5
41d
  8
Layer_2
  10
11.38538
  20
80.541222
  42
0.059388521
  0
VERTEX
  5
41e
  8
Layer_2
  10
11.602667
  20
80.470909
  0
SEQEND
  0
POLYLINE
  5
420
  8
Layer_2
  62
1
  66
1
  10
0
  20
0
  30
0
  0
VERTEX
  5
420
  8
Layer_2
  10
11.602667
  20
80.470909
  42
0.051826068
  0
VERTEX
  5
421
  8
Layer_2
  10
11.924437
  20
80.441124
  0
SEQEND
  0
POLYLINE
  5
423
  8
Layer_2
  62
1
  66
1
  10
0
  20
0
  30
0
  0
VERTEX
  5
423
  8
Layer_2
  10
11.924437
  20
80.441124
  42
0.01971414
  0
VERTEX
  5
424
  8
Layer_2
  10
12.448236
  20
80.468956
  0
SEQEND
  0
POLYLINE
  5
426
  8
Layer_2
  62
1
  66
1
  10
0
  20
0
  30
0
  0
VERTEX
  5
426
  8
Layer_2
  10
12.448236
  20
80.468956
  0
VERTEX
  5
427
  8
Layer_2
  10
13.156038
  20
80.537804
  0
SEQEND
  0
POLYLINE
  5
429
  8
Layer_2
  62
1
  66
1
  10
0
  20
0
  30
0
  0
VERTEX
  5
429
  8
Layer_2
  10
13.156038
  20
80.537804
  42
-0.0091938657
  0
VERTEX
  5
42a
  8
Layer_2
  10
14.712645
  20
80.662804
  0
SEQEND
  0
POLYLINE
  5
42c
  8
Layer_2
  62
1
  66
1
  10
0
  20
0
  30
0
  0
VERTEX
  5
42c
  8
Layer_2
  10
14.712645
  20
80.662804
  42
-0.014228168
  0
VERTEX
  5
42d
  8
Layer_2
  10
15.522617
  20
80.691124
  0
SEQEND
  0
POLYLINE
  5
42f
  8
Layer_2
  62
1
  66
1
  10
0
  20
0
  30
0
  0
VERTEX
  5
42f
  8
Layer_2
  10
15.522617
  20
80.691124
  42
-0.01865244
  0
VERTEX
  5
430
  8
Layer_2
  10
16.521214
  20
80.640831
  0
SEQEND
  0
POLYLINE
  5
432
  8
Layer_2
  62
1
  66
1
  10
0
  20
0
  30
0
  0
VERTEX
  5
432
  8
Layer_2
  10
16.521214
  20
80.640831
  0
VERTEX
  5
433
  8
Layer_2
  10
16.53046
  20
80.633018
  0
SEQEND
  0
POLYLINE
  5
435
  8
Layer_2
  62
1
  66
1
  10
0
  20
0
  30
0
  0
VERTEX
  5
435
  8
Layer_2
  10
16.53046
  20
80.633018
  42
0.11708257
  0
VERTEX
  5
436
  8
Layer_2
  10
16.897074
  20
80.471886
  0
SEQEND
  0
POLYLINE
  5
438
  8
Layer_2
  62
1
  66
1
  10
0
  20
0
  30
0
  0
VERTEX
  5
438
  8
Layer_2
  10
16.897074
  20
80.471886
  42
0.053623101
  0
VERTEX
  5
439
  8
Layer_2
  10
17.226704
  20
80.441124
  0
SEQEND
  0
POLYLINE
  5
43b
  8
Layer_2
  62
1
  66
1
  10
0
  20
0
  30
0
  0
VERTEX
  5
43b
  8
Layer_2
  10
17.226704
  20
80.441124
  0
VERTEX
  5
43c
  8
Layer_2
  10
17.876715
  20
80.502159
  0
SEQEND
  0
POLYLINE
  5
43e
  8
Layer_2
  62
1
  66
1
  10
0
  20
0
  30
0
  0
VERTEX
  5
43e
  8
Layer_2
  10
17.876715
  20
80.502159
  0
VERTEX
  5
43f
  8
Layer_2
  10
17.950222
  20
80.493858
  0
SEQEND
  0
POLYLINE
  5
441
  8
Layer_2
  62
1
  66
1
  10
0
  20
0
  30
0
  0
VERTEX
  5
441
  8
Layer_2
  10
17.950222
  20
80.493858
  42
0.025239654
  0
VERTEX
  5
442
  8
Layer_2
  10
18.433802
  20
80.466026
  0
SEQEND
  0
POLYLINE
  5
444
  8
Layer_2
  62
1
  66
1
  10
0
  20
0
  30
0
  0
VERTEX
  5
444
  8
Layer_2
  10
18.433802
  20
80.466026
  42
0.054413436
  0
VERTEX
  5
445
  8
Layer_2
  10
18.739853
  20
80.495811
  0
SEQEND
  0
POLYLINE
  5
447
  8
Layer_2
  62
1
  66
1
  10
0
  20
0
  30
0
  0
VERTEX
  5
447
  8
Layer_2
  10
18.739853
  20
80.495811
  42
0.046921036
  0
VERTEX
  5
448
  8
Layer_2
  10
18.908134
  20
80.549034
  0
SEQEND
  0
POLYLINE
  5
44a
  8
Layer_2
  62
1
  66
1
  10
0
  20
0
  30
0
  0
VERTEX
  5
44a
  8
Layer_2
  10
18.908134
  20
80.549034
  0
VERTEX
  5
44b
  8
Layer_2
  10
18.982105
  20
80.585655
  0
SEQEND
  0
POLYLINE
  5
44d
  8
Layer_2
  62
1
  66
1
  10
0
  20
0
  30
0
  0
VERTEX
  5
44d
  8
Layer_2
  10
18.982105
  20
80.585655
  0
VERTEX
  5
44e
  8
Layer_2
  10
18.99736
  20
80.595421
  0
SEQEND
  0
POLYLINE
  5
450
  8
Layer_2
  62
1
  66
1
  10
0
  20
0
  30
0
  0
VERTEX
  5
450
  8
Layer_2
  10
18.99736
  20
80.595421
  0
VERTEX
  5
451
  8
Layer_2
  10
19.106005
  20
80.600304
  0
SEQEND
  0
POLYLINE
  5
453
  8
Layer_2
  62
1
  66
1
  10
0
  20
0
  30
0
  0
VERTEX
  5
453
  8
Layer_2
  10
19.106005
  20
80.600304
  42
-0.01088421
  0
VERTEX
  5
454
  8
Layer_2
  10
20.089344
  20
80.61544
  0
SEQEND
  0
POLYLINE
  5
456
  8
Layer_2
  62
1
  66
1
  10
0
  20
0
  30
0
  0
VERTEX
  5
456
  8
Layer_2
  10
20.089344
  20
80.61544
  42
-0.01181811
  0
VERTEX
  5
457
  8
Layer_2
  10
20.301544
  20
80.607628
  0
SEQEND
  0
POLYLINE
  5
459
  8
Layer_2
  62
1
  66
1
  10
0
  20
0
  30
0
  0
VERTEX
  5
459
  8
Layer_2
  10
20.301544
  20
80.607628
  42
-0.014603063
  0
VERTEX
  5
45a
  8
Layer_2
  10
21.209528
  20
80.517784
  0
SEQEND
  0
POLYLINE
  5
45c
  8
Layer_2
  62
1
  66
1
  10
0
  20
0
  30
0
  0
VERTEX
  5
45c
  8
Layer_2
  10
21.209528
  20
80.517784
  0
VERTEX
  5
45d
  8
Layer_2
  10
21.535921
  20
80.48214
  0
SEQEND
  0
POLYLINE
  5
45f
  8
Layer_2
  62
1
  66
1
  10
0
  20
0
  30
0
  0
VERTEX
  5
45f
  8
Layer_2
  10
21.535921
  20
80.48214
  42
0.0098207317
  0
VERTEX
  5
460
  8
Layer_2
  10
21.939983
  20
80.449425
  0
SEQEND
  0
POLYLINE
  5
462
  8
Layer_2
  62
1
  66
1
  10
0
  20
0
  30
0
  0
VERTEX
  5
462
  8
Layer_2
  10
21.939983
  20
80.449425
  42
0.026071776
  0
VERTEX
  5
463
  8
Layer_2
  10
22.409691
  20
80.444542
  0
SEQEND
  0
POLYLINE
  5
465
  8
Layer_2
  62
1
  66
1
  10
0
  20
0
  30
0
  0
VERTEX
  5
465
  8
Layer_2
  10
22.409691
  20
80.444542
  42
0.023192111
  0
VERTEX
  5
466
  8
Layer_2
  10
22.571964
  20
80.46212
  0
SEQEND
  0
POLYLINE
  5
468
  8
Layer_2
  62
1
  66
1
  10
0
  20
0
  30
0
  0
VERTEX
  5
468
  8
Layer_2
  10
22.571964
  20
80.46212
  42
0.096710824
  0
VERTEX
  5
469
  8
Layer_2
  10
22.920547
  20
80.585167
  0
SEQEND
  0
POLYLINE
  5
46b
  8
Layer_2
  62
1
  66
1
  10
0
  20
0
  30
0
  0
VERTEX
  5
46b
  8
Layer_2
  10
22.920547
  20
80.585167
  42
0.2001567
  0
VERTEX
  5
46c
  8
Layer_2
  10
23.22891
  20
81.018761
  0
SEQEND
  0
POLYLINE
  5
46e
  8
Layer_2
  62
1
  66
1
  10
0
  20
0
  30
0
  0
VERTEX
  5
46e
  8
Layer_2
  10
23.22891
  20
81.018761
  42
0.062814827
  0
VERTEX
  5
46f
  8
Layer_2
  10
23.262659
  20
81.316124
  0
SEQEND
  0
POLYLINE
  5
471
  8
Layer_2
  62
1
  66
1
  10
0
  20
0
  30
0
  0
VERTEX
  5
471
  8
Layer_2
  10
23.262659
  20
81.316124
  42
0.055828015
  0
VERTEX
  5
472
  8
Layer_2
  10
23.236309
  20
81.587608
  0
SEQEND
  0
POLYLINE
  5
474
  8
Layer_2
  62
1
  66
1
  10
0
  20
0
  30
0
  0
VERTEX
  5
474
  8
Layer_2
  10
23.236309
  20
81.587608
  42
0.075782718
  0
VERTEX
  5
475
  8
Layer_2
  10
23.156326
  20
81.803429
  0
SEQEND
  0
POLYLINE
  5
477
  8
Layer_2
  62
1
  66
1
  10
0
  20
0
  30
0
  0
VERTEX
  5
477
  8
Layer_2
  10
23.156326
  20
81.803429
  42
0.12428727
  0
VERTEX
  5
478
  8
Layer_2
  10
22.96678
  20
82.003624
  0
SEQEND
  0
POLYLINE
  5
47a
  8
Layer_2
  62
1
  66
1
  10
0
  20
0
  30
0
  0
VERTEX
  5
47a
  8
Layer_2
  10
22.96678
  20
82.003624
  42
0.083018454
  0
VERTEX
  5
47b
  8
Layer_2
  10
22.762899
  20
82.087608
  0
SEQEND
  0
POLYLINE
  5
47d
  8
Layer_2
  62
1
  66
1
  10
0
  20
0
  30
0
  0
VERTEX
  5
47d
  8
Layer_2
  10
22.762899
  20
82.087608
  42
0.090636281
  0
VERTEX
  5
47e
  8
Layer_2
  10
22.353291
  20
82.105186
  0
SEQEND
  0
POLYLINE
  5
480
  8
Layer_2
  62
1
  66
1
  10
0
  20
0
  30
0
  0
VERTEX
  5
480
  8
Layer_2
  10
22.353291
  20
82.105186
  42
0.033008715
  0
VERTEX
  5
481
  8
Layer_2
  10
22.119823
  20
82.058311
  0
SEQEND
  0
POLYLINE
  5
483
  8
Layer_2
  62
1
  66
1
  10
0
  20
0
  30
0
  0
VERTEX
  5
483
  8
Layer_2
  10
22.119823
  20
82.058311
  0
VERTEX
  5
484
  8
Layer_2
  10
21.973269
  20
82.017296
  0
SEQEND
  0
POLYLINE
  5
486
  8
Layer_2
  62
1
  66
1
  10
0
  20
0
  30
0
  0
VERTEX
  5
486
  8
Layer_2
  10
21.973269
  20
82.017296
  42
-0.072139246
  0
VERTEX
  5
487
  8
Layer_2
  10
21.378735
  20
81.942101
  0
SEQEND
  0
POLYLINE
  5
489
  8
Layer_2
  62
1
  66
1
  10
0
  20
0
  30
0
  0
VERTEX
  5
489
  8
Layer_2
  10
21.378735
  20
81.942101
  42
-0.19800636
  0
VERTEX
  5
48a
  8
Layer_2
  10
21.052341
  20
82.109093
  0
SEQEND
  0
POLYLINE
  5
48c
  8
Layer_2
  62
1
  66
1
  10
0
  20
0
  30
0
  0
VERTEX
  5
48c
  8
Layer_2
  10
21.052341
  20
82.109093
  42
-0.083002347
  0
VERTEX
  5
48d
  8
Layer_2
  10
20.881287
  20
82.391808
  0
SEQEND
  0
POLYLINE
  5
48f
  8
Layer_2
  62
1
  66
1
  10
0
  20
0
  30
0
  0
VERTEX
  5
48f
  8
Layer_2
  10
20.881287
  20
82.391808
  42
-0.040717499
  0
VERTEX
  5
490
  8
Layer_2
  10
20.773106
  20
82.742393
  0
SEQEND
  0
POLYLINE
  5
492
  8
Layer_2
  62
1
  66
1
  10
0
  20
0
  30
0
  0
VERTEX
  5
492
  8
Layer_2
  10
20.773106
  20
82.742393
  42
-0.028530862
  0
VERTEX
  5
493
  8
Layer_2
  10
20.699596
  20
83.193565
  0
SEQEND
  0
POLYLINE
  5
495
  8
Layer_2
  62
1
  66
1
  10
0
  20
0
  30
0
  0
VERTEX
  5
495
  8
Layer_2
  10
20.699596
  20
83.193565
  0
VERTEX
  5
496
  8
Layer_2
  10
20.679718
  20
83.39669
  0
SEQEND
  0
POLYLINE
  5
498
  8
Layer_2
  62
1
  66
1
  10
0
  20
0
  30
0
  0
VERTEX
  5
498
  8
Layer_2
  10
20.679718
  20
83.39669
  0
VERTEX
  5
499
  8
Layer_2
  10
20.674633
  20
83.492882
  0
SEQEND
  0
POLYLINE
  5
49b
  8
Layer_2
  62
1
  66
1
  10
0
  20
0
  30
0
  0
VERTEX
  5
49b
  8
Layer_2
  10
20.674633
  20
83.492882
  42
-0.0064976362
  0
VERTEX
  5
49c
  8
Layer_2
  10
20.661224
  20
84.338097
  0
SEQEND
  0
POLYLINE
  5
49e
  8
Layer_2
  62
1
  66
1
  10
0
  20
0
  30
0
  0
VERTEX
  5
49e
  8
Layer_2
  10
20.661224
  20
84.338097
  42
-0.0011819256
  0
VERTEX
  5
49f
  8
Layer_2
  10
20.658913
  20
86.890831
  0
SEQEND
  0
POLYLINE
  5
4a1
  8
Layer_2
  62
1
  66
1
  10
0
  20
0
  30
0
  0
VERTEX
  5
4a1
  8
Layer_2
  10
20.658913
  20
86.890831
  42
-0.020031542
  0
VERTEX
  5
4a2
  8
Layer_2
  10
20.712542
  20
88.367393
  0
SEQEND
  0
POLYLINE
  5
4a4
  8
Layer_2
  62
1
  66
1
  10
0
  20
0
  30
0
  0
VERTEX
  5
4a4
  8
Layer_2
  10
20.712542
  20
88.367393
  42
-0.031300855
  0
VERTEX
  5
4a5
  8
Layer_2
  10
20.87204
  20
89.534874
  0
SEQEND
  0
POLYLINE
  5
4a7
  8
Layer_2
  62
1
  66
1
  10
0
  20
0
  30
0
  0
VERTEX
  5
4a7
  8
Layer_2
  10
20.87204
  20
89.534874
  42
-0.032578209
  0
VERTEX
  5
4a8
  8
Layer_2
  10
21.03801
  20
90.140831
  0
SEQEND
  0
POLYLINE
  5
4aa
  8
Layer_2
  62
1
  66
1
  10
0
  20
0
  30
0
  0
VERTEX
  5
4aa
  8
Layer_2
  10
21.03801
  20
90.140831
  42
-0.069425784
  0
VERTEX
  5
4ab
  8
Layer_2
  10
21.422653
  20
90.906456
  0
SEQEND
  0
POLYLINE
  5
4ad
  8
Layer_2
  62
1
  66
1
  10
0
  20
0
  30
0
  0
VERTEX
  5
4ad
  8
Layer_2
  10
21.422653
  20
90.906456
  42
-0.15440357
  0
VERTEX
  5
4ae
  8
Layer_2
  10
22.465633
  20
91.719933
  0
SEQEND
  0
POLYLINE
  5
4b0
  8
Layer_2
  62
1
  66
1
  10
0
  20
0
  30
0
  0
VERTEX
  5
4b0
  8
Layer_2
  10
22.465633
  20
91.719933
  42
-0.074507328
  0
VERTEX
  5
4b1
  8
Layer_2
  10
23.273754
  20
91.883995
  0
SEQEND
  0
POLYLINE
  5
4b3
  8
Layer_2
  62
1
  66
1
  10
0
  20
0
  30
0
  0
VERTEX
  5
4b3
  8
Layer_2
  10
23.273754
  20
91.883995
  42
-0.063772972
  0
VERTEX
  5
4b4
  8
Layer_2
  10
24.032873
  20
91.842003
  0
SEQEND
  0
POLYLINE
  5
4b6
  8
Layer_2
  62
1
  66
1
  10
0
  20
0
  30
0
  0
VERTEX
  5
4b6
  8
Layer_2
  10
24.032873
  20
91.842003
  42
-0.10337235
  0
VERTEX
  5
4b7
  8
Layer_2
  10
24.847006
  20
91.508018
  0
SEQEND
  0
POLYLINE
  5
4b9
  8
Layer_2
  62
1
  66
1
  10
0
  20
0
  30
0
  0
VERTEX
  5
4b9
  8
Layer_2
  10
24.847006
  20
91.508018
  42
-0.071334482
  0
VERTEX
  5
4ba
  8
Layer_2
  10
25.266785
  20
91.126671
  0
SEQEND
  0
POLYLINE
  5
4bc
  8
Layer_2
  62
1
  66
1
  10
0
  20
0
  30
0
  0
VERTEX
  5
4bc
  8
Layer_2
  10
25.266785
  20
91.126671
  42
-0.10226905
  0
VERTEX
  5
4bd
  8
Layer_2
  10
25.547409
  20
90.596886
  0
SEQEND
  0
POLYLINE
  5
4bf
  8
Layer_2
  62
1
  66
1
  10
0
  20
0
  30
0
  0
VERTEX
  5
4bf
  8
Layer_2
  10
25.547409
  20
90.596886
  42
-0.082451
  0
VERTEX
  5
4c0
  8
Layer_2
  10
25.603811
  20
90.102745
  0
SEQEND
  0
POLYLINE
  5
4c2
  8
Layer_2
  62
1
  66
1
  10
0
  20
0
  30
0
  0
VERTEX
  5
4c2
  8
Layer_2
  10
25.603811
  20
90.102745
  42
-0.071094941
  0
VERTEX
  5
4c3
  8
Layer_2
  10
25.526142
  20
89.762901
  0
SEQEND
  0
POLYLINE
  5
4c5
  8
Layer_2
  62
1
  66
1
  10
0
  20
0
  30
0
  0
VERTEX
  5
4c5
  8
Layer_2
  10
25.526142
  20
89.762901
  42
-0.023150598
  0
VERTEX
  5
4c6
  8
Layer_2
  10
25.464193
  20
89.615929
  0
SEQEND
  0
POLYLINE
  5
4c8
  8
Layer_2
  62
1
  66
1
  10
0
  20
0
  30
0
  0
VERTEX
  5
4c8
  8
Layer_2
  10
25.464193
  20
89.615929
  0
VERTEX
  5
4c9
  8
Layer_2
  10
25.356012
  20
89.648643
  0
SEQEND
  0
POLYLINE
  5
4cb
  8
Layer_2
  62
1
  66
1
  10
0
  20
0
  30
0
  0
VERTEX
  5
4cb
  8
Layer_2
  10
25.356012
  20
89.648643
  42
0.026909853
  0
VERTEX
  5
4cc
  8
Layer_2
  10
25.202524
  20
89.686241
  0
SEQEND
  0
POLYLINE
  5
4ce
  8
Layer_2
  62
1
  66
1
  10
0
  20
0
  30
0
  0
VERTEX
  5
4ce
  8
Layer_2
  10
25.202524
  20
89.686241
  42
0.073537922
  0
VERTEX
  5
4cf
  8
Layer_2
  10
25.017599
  20
89.679893
  0
SEQEND
  0
POLYLINE
  5
4d1
  8
Layer_2
  62
1
  66
1
  10
0
  20
0
  30
0
  0
VERTEX
  5
4d1
  8
Layer_2
  10
25.017599
  20
89.679893
  42
0.14926206
  0
VERTEX
  5
4d2
  8
Layer_2
  10
24.566381
  20
89.451866
  0
SEQEND
  0
POLYLINE
  5
4d4
  8
Layer_2
  62
1
  66
1
  10
0
  20
0
  30
0
  0
VERTEX
  5
4d4
  8
Layer_2
  10
24.566381
  20
89.451866
  42
0.063379314
  0
VERTEX
  5
4d5
  8
Layer_2
  10
24.369436
  20
89.216515
  0
SEQEND
  0
POLYLINE
  5
4d7
  8
Layer_2
  62
1
  66
1
  10
0
  20
0
  30
0
  0
VERTEX
  5
4d7
  8
Layer_2
  10
24.369436
  20
89.216515
  0
VERTEX
  5
4d8
  8
Layer_2
  10
24.320431
  20
89.131554
  0
SEQEND
  0
POLYLINE
  5
4da
  8
Layer_2
  62
1
  66
1
  10
0
  20
0
  30
0
  0
VERTEX
  5
4da
  8
Layer_2
  10
24.320431
  20
89.131554
  42
0.096851167
  0
VERTEX
  5
4db
  8
Layer_2
  10
24.2141
  20
88.764366
  0
SEQEND
  0
POLYLINE
  5
4dd
  8
Layer_2
  62
1
  66
1
  10
0
  20
0
  30
0
  0
VERTEX
  5
4dd
  8
Layer_2
  10
24.2141
  20
88.764366
  42
0.12634398
  0
VERTEX
  5
4de
  8
Layer_2
  10
24.304251
  20
88.203331
  0
SEQEND
  0
POLYLINE
  5
4e0
  8
Layer_2
  62
1
  66
1
  10
0
  20
0
  30
0
  0
VERTEX
  5
4e0
  8
Layer_2
  10
24.304251
  20
88.203331
  42
0.1032163
  0
VERTEX
  5
4e1
  8
Layer_2
  10
24.588573
  20
87.816124
  0
SEQEND
  0
POLYLINE
  5
4e3
  8
Layer_2
  62
1
  66
1
  10
0
  20
0
  30
0
  0
VERTEX
  5
4e3
  8
Layer_2
  10
24.588573
  20
87.816124
  42
0.14495482
  0
VERTEX
  5
4e4
  8
Layer_2
  10
25.234425
  20
87.490929
  0
SEQEND
  0
POLYLINE
  5
4e6
  8
Layer_2
  62
1
  66
1
  10
0
  20
0
  30
0
  0
VERTEX
  5
4e6
  8
Layer_2
  10
25.234425
  20
87.490929
  42
0.042949919
  0
VERTEX
  5
4e7
  8
Layer_2
  10
25.25569
  20
85.583702
  0
SEQEND
  0
POLYLINE
  5
4e9
  8
Layer_2
  62
1
  66
1
  10
0
  20
0
  30
0
  0
VERTEX
  5
4e9
  8
Layer_2
  10
25.25569
  20
85.583702
  42
0.044960561
  0
VERTEX
  5
4ea
  8
Layer_2
  10
25.528917
  20
84.145714
  0
SEQEND
  0
POLYLINE
  5
4ec
  8
Layer_2
  62
1
  66
1
  10
0
  20
0
  30
0
  0
VERTEX
  5
4ec
  8
Layer_2
  10
25.528917
  20
84.145714
  42
0.070912492
  0
VERTEX
  5
4ed
  8
Layer_2
  10
26.257061
  20
82.506065
  0
SEQEND
  0
POLYLINE
  5
4ef
  8
Layer_2
  62
1
  66
1
  10
0
  20
0
  30
0
  0
VERTEX
  5
4ef
  8
Layer_2
  10
26.257061
  20
82.506065
  42
0.077310929
  0
VERTEX
  5
4f0
  8
Layer_2
  10
27.375395
  20
81.214561
  0
SEQEND
  0
POLYLINE
  5
4f2
  8
Layer_2
  62
1
  66
1
  10
0
  20
0
  30
0
  0
VERTEX
  5
4f2
  8
Layer_2
  10
27.375395
  20
81.214561
  42
0.11090636
  0
VERTEX
  5
4f3
  8
Layer_2
  10
29.15946
  20
80.29171
  0
SEQEND
  0
POLYLINE
  5
4f5
  8
Layer_2
  62
1
  66
1
  10
0
  20
0
  30
0
  0
VERTEX
  5
4f5
  8
Layer_2
  10
29.15946
  20
80.29171
  42
0.059093077
  0
VERTEX
  5
4f6
  8
Layer_2
  10
30.427122
  20
80.117882
  0
SEQEND
  0
POLYLINE
  5
4f8
  8
Layer_2
  62
1
  66
1
  10
0
  20
0
  30
0
  0
VERTEX
  5
4f8
  8
Layer_2
  10
30.427122
  20
80.117882
  42
0.060954908
  0
VERTEX
  5
4f9
  8
Layer_2
  10
31.763206
  20
80.24044
  0
SEQEND
  0
POLYLINE
  5
4fb
  8
Layer_2
  62
1
  66
1
  10
0
  20
0
  30
0
  0
VERTEX
  5
4fb
  8
Layer_2
  10
31.763206
  20
80.24044
  42
0.083546679
  0
VERTEX
  5
4fc
  8
Layer_2
  10
33.140434
  20
80.794151
  0
SEQEND
  0
POLYLINE
  5
4fe
  8
Layer_2
  62
1
  66
1
  10
0
  20
0
  30
0
  0
VERTEX
  5
4fe
  8
Layer_2
  10
33.140434
  20
80.794151
  42
0.067833053
  0
VERTEX
  5
4ff
  8
Layer_2
  10
34.110367
  20
81.593956
  0
SEQEND
  0
POLYLINE
  5
501
  8
Layer_2
  62
1
  66
1
  10
0
  20
0
  30
0
  0
VERTEX
  5
501
  8
Layer_2
  10
34.110367
  20
81.593956
  0
VERTEX
  5
502
  8
Layer_2
  10
34.262932
  20
81.763878
  0
SEQEND
  0
POLYLINE
  5
504
  8
Layer_2
  62
1
  66
1
  10
0
  20
0
  30
0
  0
VERTEX
  5
504
  8
Layer_2
  10
34.262932
  20
81.763878
  42
0.0093265332
  0
VERTEX
  5
505
  8
Layer_2
  10
34.335052
  20
81.849815
  0
SEQEND
  0
POLYLINE
  5
507
  8
Layer_2
  62
1
  66
1
  10
0
  20
0
  30
0
  0
VERTEX
  5
507
  8
Layer_2
  10
34.335052
  20
81.849815
  0
VERTEX
  5
508
  8
Layer_2
  10
34.362328
  20
81.806847
  0
SEQEND
  0
POLYLINE
  5
50a
  8
Layer_2
  62
1
  66
1
  10
0
  20
0
  30
0
  0
VERTEX
  5
50a
  8
Layer_2
  10
34.362328
  20
81.806847
  42
0.082301137
  0
VERTEX
  5
50b
  8
Layer_2
  10
35.114513
  20
80.994835
  0
SEQEND
  0
POLYLINE
  5
50d
  8
Layer_2
  62
1
  66
1
  10
0
  20
0
  30
0
  0
VERTEX
  5
50d
  8
Layer_2
  10
35.114513
  20
80.994835
  42
0.088247699
  0
VERTEX
  5
50e
  8
Layer_2
  10
36.308205
  20
80.365929
  0
SEQEND
  0
POLYLINE
  5
510
  8
Layer_2
  62
1
  66
1
  10
0
  20
0
  30
0
  0
VERTEX
  5
510
  8
Layer_2
  10
36.308205
  20
80.365929
  42
0.061746569
  0
VERTEX
  5
511
  8
Layer_2
  10
37.565697
  20
80.131554
  0
SEQEND
  0
POLYLINE
  5
513
  8
Layer_2
  62
1
  66
1
  10
0
  20
0
  30
0
  0
VERTEX
  5
513
  8
Layer_2
  10
37.565697
  20
80.131554
  42
0.040419874
  0
VERTEX
  5
514
  8
Layer_2
  10
38.656754
  20
80.145226
  0
SEQEND
  0
POLYLINE
  5
516
  8
Layer_2
  62
1
  66
1
  10
0
  20
0
  30
0
  0
VERTEX
  5
516
  8
Layer_2
  10
38.656754
  20
80.145226
  42
0.057847257
  0
VERTEX
  5
517
  8
Layer_2
  10
39.775089
  20
80.379601
  0
SEQEND
  0
POLYLINE
  5
519
  8
Layer_2
  62
1
  66
1
  10
0
  20
0
  30
0
  0
VERTEX
  5
519
  8
Layer_2
  10
39.775089
  20
80.379601
  42
0.076776113
  0
VERTEX
  5
51a
  8
Layer_2
  10
40.828236
  20
80.923546
  0
SEQEND
  0
POLYLINE
  5
51c
  8
Layer_2
  62
1
  66
1
  10
0
  20
0
  30
0
  0
VERTEX
  5
51c
  8
Layer_2
  10
40.828236
  20
80.923546
  42
0.084861682
  0
VERTEX
  5
51d
  8
Layer_2
  10
41.743614
  20
81.875694
  0
SEQEND
  0
POLYLINE
  5
51f
  8
Layer_2
  62
1
  66
1
  10
0
  20
0
  30
0
  0
VERTEX
  5
51f
  8
Layer_2
  10
41.743614
  20
81.875694
  0
VERTEX
  5
520
  8
Layer_2
  10
41.820358
  20
81.990929
  0
SEQEND
  0
POLYLINE
  5
522
  8
Layer_2
  62
1
  66
1
  10
0
  20
0
  30
0
  0
VERTEX
  5
522
  8
Layer_2
  10
41.820358
  20
81.990929
  0
VERTEX
  5
523
  8
Layer_2
  10
41.849949
  20
81.881554
  0
SEQEND
  0
POLYLINE
  5
525
  8
Layer_2
  62
1
  66
1
  10
0
  20
0
  30
0
  0
VERTEX
  5
525
  8
Layer_2
  10
41.849949
  20
81.881554
  42
0.0683748
  0
VERTEX
  5
526
  8
Layer_2
  10
42.138432
  20
81.214561
  0
SEQEND
  0
POLYLINE
  5
528
  8
Layer_2
  62
1
  66
1
  10
0
  20
0
  30
0
  0
VERTEX
  5
528
  8
Layer_2
  10
42.138432
  20
81.214561
  42
0.14565313
  0
VERTEX
  5
529
  8
Layer_2
  10
42.965046
  20
80.465538
  0
SEQEND
  0
POLYLINE
  5
52b
  8
Layer_2
  62
1
  66
1
  10
0
  20
0
  30
0
  0
VERTEX
  5
52b
  8
Layer_2
  10
42.965046
  20
80.465538
  42
0.072094298
  0
VERTEX
  5
52c
  8
Layer_2
  10
43.640949
  20
80.259483
  0
SEQEND
  0
POLYLINE
  5
52e
  8
Layer_2
  62
1
  66
1
  10
0
  20
0
  30
0
  0
VERTEX
  5
52e
  8
Layer_2
  10
43.640949
  20
80.259483
  42
0.048935967
  0
VERTEX
  5
52f
  8
Layer_2
  10
44.356609
  20
80.218468
  0
SEQEND
  0
POLYLINE
  5
531
  8
Layer_2
  62
1
  66
1
  10
0
  20
0
  30
0
  0
VERTEX
  5
531
  8
Layer_2
  10
44.356609
  20
80.218468
  42
0.049624851
  0
VERTEX
  5
532
  8
Layer_2
  10
45.017254
  20
80.300499
  0
SEQEND
  0
POLYLINE
  5
534
  8
Layer_2
  62
1
  66
1
  10
0
  20
0
  30
0
  0
VERTEX
  5
534
  8
Layer_2
  10
45.017254
  20
80.300499
  42
0.077996336
  0
VERTEX
  5
535
  8
Layer_2
  10
45.660332
  20
80.553429
  0
SEQEND
  0
POLYLINE
  5
537
  8
Layer_2
  62
1
  66
1
  10
0
  20
0
  30
0
  0
VERTEX
  5
537
  8
Layer_2
  10
45.660332
  20
80.553429
  42
0.091200843
  0
VERTEX
  5
538
  8
Layer_2
  10
46.140213
  20
80.975304
  0
SEQEND
  0
POLYLINE
  5
53a
  8
Layer_2
  62
1
  66
1
  10
0
  20
0
  30
0
  0
VERTEX
  5
53a
  8
Layer_2
  10
46.140213
  20
80.975304
  42
0.041738501
  0
VERTEX
  5
53b
  8
Layer_2
  10
46.309418
  20
81.233116
  0
SEQEND
  0
POLYLINE
  5
53d
  8
Layer_2
  62
1
  66
1
  10
0
  20
0
  30
0
  0
VERTEX
  5
53d
  8
Layer_2
  10
46.309418
  20
81.233116
  0
VERTEX
  5
53e
  8
Layer_2
  10
46.400494
  20
81.156456
  0
SEQEND
  0
POLYLINE
  5
540
  8
Layer_2
  62
1
  66
1
  10
0
  20
0
  30
0
  0
VERTEX
  5
540
  8
Layer_2
  10
46.400494
  20
81.156456
  42
0.11296644
  0
VERTEX
  5
541
  8
Layer_2
  10
48.206287
  20
80.262413
  0
SEQEND
  0
POLYLINE
  5
543
  8
Layer_2
  62
1
  66
1
  10
0
  20
0
  30
0
  0
VERTEX
  5
543
  8
Layer_2
  10
48.206287
  20
80.262413
  42
0.053498262
  0
VERTEX
  5
544
  8
Layer_2
  10
49.339878
  20
80.117882
  0
SEQEND
  0
POLYLINE
  5
546
  8
Layer_2
  62
1
  66
1
  10
0
  20
0
  30
0
  0
VERTEX
  5
546
  8
Layer_2
  10
49.339878
  20
80.117882
  42
0.013095179
  0
VERTEX
  5
547
  8
Layer_2
  10
49.638069
  20
80.117882
  0
SEQEND
  0
POLYLINE
  5
549
  8
Layer_2
  62
1
  66
1
  10
0
  20
0
  30
0
  0
VERTEX
  5
549
  8
Layer_2
  10
58.905132
  20
95.145714
  42
0.11977915
  0
VERTEX
  5
54a
  8
Layer_2
  10
59.027184
  20
95.812218
  0
SEQEND
  0
POLYLINE
  5
54c
  8
Layer_2
  62
1
  66
1
  10
0
  20
0
  30
0
  0
VERTEX
  5
54c
  8
Layer_2
  10
59.027184
  20
95.812218
  42
0.17866932
  0
VERTEX
  5
54d
  8
Layer_2
  10
58.685532
  20
96.665245
  0
SEQEND
  0
POLYLINE
  5
54f
  8
Layer_2
  62
1
  66
1
  10
0
  20
0
  30
0
  0
VERTEX
  5
54f
  8
Layer_2
  10
58.685532
  20
96.665245
  42
0.13810762
  0
VERTEX
  5
550
  8
Layer_2
  10
58.090073
  20
97.059776
  0
SEQEND
  0
POLYLINE
  5
552
  8
Layer_2
  62
1
  66
1
  10
0
  20
0
  30
0
  0
VERTEX
  5
552
  8
Layer_2
  10
58.090073
  20
97.059776
  42
0.17230274
  0
VERTEX
  5
553
  8
Layer_2
  10
57.19735
  20
97.015831
  0
SEQEND
  0
POLYLINE
  5
555
  8
Layer_2
  62
1
  66
1
  10
0
  20
0
  30
0
  0
VERTEX
  5
555
  8
Layer_2
  10
57.19735
  20
97.015831
  42
0.17970884
  0
VERTEX
  5
556
  8
Layer_2
  10
56.501568
  20
96.332237
  0
SEQEND
  0
POLYLINE
  5
558
  8
Layer_2
  62
1
  66
1
  10
0
  20
0
  30
0
  0
VERTEX
  5
558
  8
Layer_2
  10
56.501568
  20
96.332237
  42
0.098889563
  0
VERTEX
  5
559
  8
Layer_2
  10
56.379517
  20
95.812218
  0
SEQEND
  0
POLYLINE
  5
55b
  8
Layer_2
  62
1
  66
1
  10
0
  20
0
  30
0
  0
VERTEX
  5
55b
  8
Layer_2
  10
56.379517
  20
95.812218
  42
0.093179589
  0
VERTEX
  5
55c
  8
Layer_2
  10
56.45256
  20
95.268761
  0
SEQEND
  0
POLYLINE
  5
55e
  8
Layer_2
  62
1
  66
1
  10
0
  20
0
  30
0
  0
VERTEX
  5
55e
  8
Layer_2
  10
56.45256
  20
95.268761
  42
0.10842611
  0
VERTEX
  5
55f
  8
Layer_2
  10
56.768322
  20
94.753624
  0
SEQEND
  0
POLYLINE
  5
561
  8
Layer_2
  62
1
  66
1
  10
0
  20
0
  30
0
  0
VERTEX
  5
561
  8
Layer_2
  10
8.1182156
  20
88.066612
  42
-0.079496211
  0
VERTEX
  5
562
  8
Layer_2
  10
7.9448471
  20
88.097374
  0
SEQEND
  0
POLYLINE
  5
564
  8
Layer_2
  62
1
  66
1
  10
0
  20
0
  30
0
  0
VERTEX
  5
564
  8
Layer_2
  10
7.9448471
  20
88.097374
  42
-0.14981952
  0
VERTEX
  5
565
  8
Layer_2
  10
7.8408279
  20
88.172081
  0
SEQEND
  0
POLYLINE
  5
567
  8
Layer_2
  62
1
  66
1
  10
0
  20
0
  30
0
  0
VERTEX
  5
567
  8
Layer_2
  10
7.8408279
  20
88.172081
  42
-0.2189565
  0
VERTEX
  5
568
  8
Layer_2
  10
7.8126259
  20
88.327354
  0
SEQEND
  0
POLYLINE
  5
56a
  8
Layer_2
  62
1
  66
1
  10
0
  20
0
  30
0
  0
VERTEX
  5
56a
  8
Layer_2
  10
7.8126259
  20
88.327354
  0
VERTEX
  5
56b
  8
Layer_2
  10
7.8422146
  20
88.430382
  0
SEQEND
  0
POLYLINE
  5
56d
  8
Layer_2
  62
1
  66
1
  10
0
  20
0
  30
0
  0
VERTEX
  5
56d
  8
Layer_2
  10
7.8422146
  20
88.430382
  0
VERTEX
  5
56e
  8
Layer_2
  10
10.030804
  20
95.365929
  0
SEQEND
  0
POLYLINE
  5
570
  8
Layer_2
  62
1
  66
1
  10
0
  20
0
  30
0
  0
VERTEX
  5
570
  8
Layer_2
  10
10.030804
  20
95.365929
  0
VERTEX
  5
571
  8
Layer_2
  10
12.16114
  20
88.466026
  0
SEQEND
  0
POLYLINE
  5
573
  8
Layer_2
  62
1
  66
1
  10
0
  20
0
  30
0
  0
VERTEX
  5
573
  8
Layer_2
  10
12.16114
  20
88.466026
  42
-0.038574339
  0
VERTEX
  5
574
  8
Layer_2
  10
12.205523
  20
88.297081
  0
SEQEND
  0
POLYLINE
  5
576
  8
Layer_2
  62
1
  66
1
  10
0
  20
0
  30
0
  0
VERTEX
  5
576
  8
Layer_2
  10
12.205523
  20
88.297081
  42
-0.25752283
  0
VERTEX
  5
577
  8
Layer_2
  10
12.154205
  20
88.129112
  0
SEQEND
  0
POLYLINE
  5
579
  8
Layer_2
  62
1
  66
1
  10
0
  20
0
  30
0
  0
VERTEX
  5
579
  8
Layer_2
  10
12.154205
  20
88.129112
  42
-0.12446884
  0
VERTEX
  5
57a
  8
Layer_2
  10
12.0488
  20
88.078331
  0
SEQEND
  0
POLYLINE
  5
57c
  8
Layer_2
  62
1
  66
1
  10
0
  20
0
  30
0
  0
VERTEX
  5
57c
  8
Layer_2
  10
12.0488
  20
88.078331
  42
-0.057587687
  0
VERTEX
  5
57d
  8
Layer_2
  10
11.924437
  20
88.066124
  0
SEQEND
  0
POLYLINE
  5
57f
  8
Layer_2
  62
1
  66
1
  10
0
  20
0
  30
0
  0
VERTEX
  5
57f
  8
Layer_2
  10
11.924437
  20
88.066124
  0
VERTEX
  5
580
  8
Layer_2
  10
8.1182156
  20
88.066612
  0
SEQEND
  0
POLYLINE
  5
582
  8
Layer_2
  62
1
  66
1
  10
0
  20
0
  30
0
  0
VERTEX
  5
582
  8
Layer_2
  10
30.545012
  20
81.767296
  42
-0.081036675
  0
VERTEX
  5
583
  8
Layer_2
  10
29.506657
  20
81.953819
  0
SEQEND
  0
POLYLINE
  5
585
  8
Layer_2
  62
1
  66
1
  10
0
  20
0
  30
0
  0
VERTEX
  5
585
  8
Layer_2
  10
29.506657
  20
81.953819
  42
-0.12038073
  0
VERTEX
  5
586
  8
Layer_2
  10
28.365669
  20
82.717979
  0
SEQEND
  0
POLYLINE
  5
588
  8
Layer_2
  62
1
  66
1
  10
0
  20
0
  30
0
  0
VERTEX
  5
588
  8
Layer_2
  10
28.365669
  20
82.717979
  42
-0.070967898
  0
VERTEX
  5
589
  8
Layer_2
  10
27.73831
  20
83.640831
  0
SEQEND
  0
POLYLINE
  5
58b
  8
Layer_2
  62
1
  66
1
  10
0
  20
0
  30
0
  0
VERTEX
  5
58b
  8
Layer_2
  10
27.73831
  20
83.640831
  42
-0.053509839
  0
VERTEX
  5
58c
  8
Layer_2
  10
27.355053
  20
84.694054
  0
SEQEND
  0
POLYLINE
  5
58e
  8
Layer_2
  62
1
  66
1
  10
0
  20
0
  30
0
  0
VERTEX
  5
58e
  8
Layer_2
  10
27.355053
  20
84.694054
  42
-0.041978935
  0
VERTEX
  5
58f
  8
Layer_2
  10
27.153946
  20
85.945518
  0
SEQEND
  0
POLYLINE
  5
591
  8
Layer_2
  62
1
  66
1
  10
0
  20
0
  30
0
  0
VERTEX
  5
591
  8
Layer_2
  10
27.153946
  20
85.945518
  42
-0.033574049
  0
VERTEX
  5
592
  8
Layer_2
  10
27.136841
  20
87.345421
  0
SEQEND
  0
POLYLINE
  5
594
  8
Layer_2
  62
1
  66
1
  10
0
  20
0
  30
0
  0
VERTEX
  5
594
  8
Layer_2
  10
27.136841
  20
87.345421
  42
-0.0473676
  0
VERTEX
  5
595
  8
Layer_2
  10
27.339334
  20
88.725792
  0
SEQEND
  0
POLYLINE
  5
597
  8
Layer_2
  62
1
  66
1
  10
0
  20
0
  30
0
  0
VERTEX
  5
597
  8
Layer_2
  10
27.339334
  20
88.725792
  42
-0.071036685
  0
VERTEX
  5
598
  8
Layer_2
  10
27.88209
  20
90.083214
  0
SEQEND
  0
POLYLINE
  5
59a
  8
Layer_2
  62
1
  66
1
  10
0
  20
0
  30
0
  0
VERTEX
  5
59a
  8
Layer_2
  10
27.88209
  20
90.083214
  42
-0.070106321
  0
VERTEX
  5
59b
  8
Layer_2
  10
28.580645
  20
90.976768
  0
SEQEND
  0
POLYLINE
  5
59d
  8
Layer_2
  62
1
  66
1
  10
0
  20
0
  30
0
  0
VERTEX
  5
59d
  8
Layer_2
  10
28.580645
  20
90.976768
  42
-0.15120945
  0
VERTEX
  5
59e
  8
Layer_2
  10
30.152508
  20
91.767784
  0
SEQEND
  0
POLYLINE
  5
5a0
  8
Layer_2
  62
1
  66
1
  10
0
  20
0
  30
0
  0
VERTEX
  5
5a0
  8
Layer_2
  10
30.152508
  20
91.767784
  42
-0.097207317
  0
VERTEX
  5
5a1
  8
Layer_2
  10
31.60001
  20
91.720421
  0
SEQEND
  0
POLYLINE
  5
5a3
  8
Layer_2
  62
1
  66
1
  10
0
  20
0
  30
0
  0
VERTEX
  5
5a3
  8
Layer_2
  10
31.60001
  20
91.720421
  42
-0.07652425
  0
VERTEX
  5
5a4
  8
Layer_2
  10
32.307812
  20
91.433311
  0
SEQEND
  0
POLYLINE
  5
5a6
  8
Layer_2
  62
1
  66
1
  10
0
  20
0
  30
0
  0
VERTEX
  5
5a6
  8
Layer_2
  10
32.307812
  20
91.433311
  42
-0.072845118
  0
VERTEX
  5
5a7
  8
Layer_2
  10
32.784916
  20
91.042686
  0
SEQEND
  0
POLYLINE
  5
5a9
  8
Layer_2
  62
1
  66
1
  10
0
  20
0
  30
0
  0
VERTEX
  5
5a9
  8
Layer_2
  10
32.784916
  20
91.042686
  42
-0.11796537
  0
VERTEX
  5
5aa
  8
Layer_2
  10
33.211632
  20
90.256065
  0
SEQEND
  0
POLYLINE
  5
5ac
  8
Layer_2
  62
1
  66
1
  10
0
  20
0
  30
0
  0
VERTEX
  5
5ac
  8
Layer_2
  10
33.211632
  20
90.256065
  42
-0.032437218
  0
VERTEX
  5
5ad
  8
Layer_2
  10
33.275433
  20
89.941124
  0
SEQEND
  0
POLYLINE
  5
5af
  8
Layer_2
  62
1
  66
1
  10
0
  20
0
  30
0
  0
VERTEX
  5
5af
  8
Layer_2
  10
33.275433
  20
89.941124
  0
VERTEX
  5
5b0
  8
Layer_2
  10
33.132114
  20
89.918663
  0
SEQEND
  0
POLYLINE
  5
5b2
  8
Layer_2
  62
1
  66
1
  10
0
  20
0
  30
0
  0
VERTEX
  5
5b2
  8
Layer_2
  10
33.132114
  20
89.918663
  42
0.072542035
  0
VERTEX
  5
5b3
  8
Layer_2
  10
32.65131
  20
89.764366
  0
SEQEND
  0
POLYLINE
  5
5b5
  8
Layer_2
  62
1
  66
1
  10
0
  20
0
  30
0
  0
VERTEX
  5
5b5
  8
Layer_2
  10
32.65131
  20
89.764366
  42
0.11825387
  0
VERTEX
  5
5b6
  8
Layer_2
  10
32.287006
  20
89.463097
  0
SEQEND
  0
POLYLINE
  5
5b8
  8
Layer_2
  62
1
  66
1
  10
0
  20
0
  30
0
  0
VERTEX
  5
5b8
  8
Layer_2
  10
32.287006
  20
89.463097
  42
0.1190079
  0
VERTEX
  5
5b9
  8
Layer_2
  10
32.110401
  20
89.02755
  0
SEQEND
  0
POLYLINE
  5
5bb
  8
Layer_2
  62
1
  66
1
  10
0
  20
0
  30
0
  0
VERTEX
  5
5bb
  8
Layer_2
  10
32.110401
  20
89.02755
  42
0.11206737
  0
VERTEX
  5
5bc
  8
Layer_2
  10
32.146927
  20
88.403038
  0
SEQEND
  0
POLYLINE
  5
5be
  8
Layer_2
  62
1
  66
1
  10
0
  20
0
  30
0
  0
VERTEX
  5
5be
  8
Layer_2
  10
32.146927
  20
88.403038
  42
0.10670699
  0
VERTEX
  5
5bf
  8
Layer_2
  10
32.391026
  20
87.962608
  0
SEQEND
  0
POLYLINE
  5
5c1
  8
Layer_2
  62
1
  66
1
  10
0
  20
0
  30
0
  0
VERTEX
  5
5c1
  8
Layer_2
  10
32.391026
  20
87.962608
  42
0.17759444
  0
VERTEX
  5
5c2
  8
Layer_2
  10
33.181583
  20
87.514366
  0
SEQEND
  0
POLYLINE
  5
5c4
  8
Layer_2
  62
1
  66
1
  10
0
  20
0
  30
0
  0
VERTEX
  5
5c4
  8
Layer_2
  10
33.181583
  20
87.514366
  42
0.12180491
  0
VERTEX
  5
5c5
  8
Layer_2
  10
33.994789
  20
87.575401
  0
SEQEND
  0
POLYLINE
  5
5c7
  8
Layer_2
  62
1
  66
1
  10
0
  20
0
  30
0
  0
VERTEX
  5
5c7
  8
Layer_2
  10
33.994789
  20
87.575401
  42
0.11711664
  0
VERTEX
  5
5c8
  8
Layer_2
  10
34.581928
  20
87.950401
  0
SEQEND
  0
POLYLINE
  5
5ca
  8
Layer_2
  62
1
  66
1
  10
0
  20
0
  30
0
  0
VERTEX
  5
5ca
  8
Layer_2
  10
34.581928
  20
87.950401
  42
0.13588657
  0
VERTEX
  5
5cb
  8
Layer_2
  10
35.111275
  20
88.915245
  0
SEQEND
  0
POLYLINE
  5
5cd
  8
Layer_2
  62
1
  66
1
  10
0
  20
0
  30
0
  0
VERTEX
  5
5cd
  8
Layer_2
  10
35.111275
  20
88.915245
  0
VERTEX
  5
5ce
  8
Layer_2
  10
35.114975
  20
88.911339
  0
SEQEND
  0
POLYLINE
  5
5d0
  8
Layer_2
  62
1
  66
1
  10
0
  20
0
  30
0
  0
VERTEX
  5
5d0
  8
Layer_2
  10
35.114975
  20
88.911339
  42
0.17712423
  0
VERTEX
  5
5d1
  8
Layer_2
  10
35.941589
  20
88.523155
  0
SEQEND
  0
POLYLINE
  5
5d3
  8
Layer_2
  62
1
  66
1
  10
0
  20
0
  30
0
  0
VERTEX
  5
5d3
  8
Layer_2
  10
35.941589
  20
88.523155
  42
0.10114697
  0
VERTEX
  5
5d4
  8
Layer_2
  10
36.513931
  20
88.578331
  0
SEQEND
  0
POLYLINE
  5
5d6
  8
Layer_2
  62
1
  66
1
  10
0
  20
0
  30
0
  0
VERTEX
  5
5d6
  8
Layer_2
  10
36.513931
  20
88.578331
  42
0.1888311
  0
VERTEX
  5
5d7
  8
Layer_2
  10
37.165333
  20
89.109093
  0
SEQEND
  0
POLYLINE
  5
5d9
  8
Layer_2
  62
1
  66
1
  10
0
  20
0
  30
0
  0
VERTEX
  5
5d9
  8
Layer_2
  10
37.165333
  20
89.109093
  42
0.11563688
  0
VERTEX
  5
5da
  8
Layer_2
  10
37.298016
  20
89.60421
  0
SEQEND
  0
POLYLINE
  5
5dc
  8
Layer_2
  62
1
  66
1
  10
0
  20
0
  30
0
  0
VERTEX
  5
5dc
  8
Layer_2
  10
37.298016
  20
89.60421
  42
0.073546539
  0
VERTEX
  5
5dd
  8
Layer_2
  10
37.252708
  20
90.066612
  0
SEQEND
  0
POLYLINE
  5
5df
  8
Layer_2
  62
1
  66
1
  10
0
  20
0
  30
0
  0
VERTEX
  5
5df
  8
Layer_2
  10
37.252708
  20
90.066612
  42
0.13234639
  0
VERTEX
  5
5e0
  8
Layer_2
  10
37.045593
  20
90.44796
  0
SEQEND
  0
POLYLINE
  5
5e2
  8
Layer_2
  62
1
  66
1
  10
0
  20
0
  30
0
  0
VERTEX
  5
5e2
  8
Layer_2
  10
37.045593
  20
90.44796
  42
0.043708783
  0
VERTEX
  5
5e3
  8
Layer_2
  10
36.917995
  20
90.552452
  0
SEQEND
  0
POLYLINE
  5
5e5
  8
Layer_2
  62
1
  66
1
  10
0
  20
0
  30
0
  0
VERTEX
  5
5e5
  8
Layer_2
  10
36.917995
  20
90.552452
  0
VERTEX
  5
5e6
  8
Layer_2
  10
36.875
  20
90.587608
  0
SEQEND
  0
POLYLINE
  5
5e8
  8
Layer_2
  62
1
  66
1
  10
0
  20
0
  30
0
  0
VERTEX
  5
5e8
  8
Layer_2
  10
36.875
  20
90.587608
  42
-0.097689263
  0
VERTEX
  5
5e9
  8
Layer_2
  10
36.768204
  20
90.712608
  0
SEQEND
  0
POLYLINE
  5
5eb
  8
Layer_2
  62
1
  66
1
  10
0
  20
0
  30
0
  0
VERTEX
  5
5eb
  8
Layer_2
  10
36.768204
  20
90.712608
  42
-0.14630795
  0
VERTEX
  5
5ec
  8
Layer_2
  10
36.756184
  20
90.800011
  0
SEQEND
  0
POLYLINE
  5
5ee
  8
Layer_2
  62
1
  66
1
  10
0
  20
0
  30
0
  0
VERTEX
  5
5ee
  8
Layer_2
  10
36.756184
  20
90.800011
  42
-0.1293925
  0
VERTEX
  5
5ef
  8
Layer_2
  10
36.843563
  20
91.034874
  0
SEQEND
  0
POLYLINE
  5
5f1
  8
Layer_2
  62
1
  66
1
  10
0
  20
0
  30
0
  0
VERTEX
  5
5f1
  8
Layer_2
  10
36.843563
  20
91.034874
  42
-0.06004136
  0
VERTEX
  5
5f2
  8
Layer_2
  10
36.989189
  20
91.196495
  0
SEQEND
  0
POLYLINE
  5
5f4
  8
Layer_2
  62
1
  66
1
  10
0
  20
0
  30
0
  0
VERTEX
  5
5f4
  8
Layer_2
  10
36.989189
  20
91.196495
  42
-0.026436333
  0
VERTEX
  5
5f5
  8
Layer_2
  10
37.109856
  20
91.290733
  0
SEQEND
  0
POLYLINE
  5
5f7
  8
Layer_2
  62
1
  66
1
  10
0
  20
0
  30
0
  0
VERTEX
  5
5f7
  8
Layer_2
  10
37.109856
  20
91.290733
  42
-0.083002275
  0
VERTEX
  5
5f8
  8
Layer_2
  10
38.193516
  20
91.796104
  0
SEQEND
  0
POLYLINE
  5
5fa
  8
Layer_2
  62
1
  66
1
  10
0
  20
0
  30
0
  0
VERTEX
  5
5fa
  8
Layer_2
  10
38.193516
  20
91.796104
  42
-0.066806606
  0
VERTEX
  5
5fb
  8
Layer_2
  10
39.098263
  20
91.915733
  0
SEQEND
  0
POLYLINE
  5
5fd
  8
Layer_2
  62
1
  66
1
  10
0
  20
0
  30
0
  0
VERTEX
  5
5fd
  8
Layer_2
  10
39.098263
  20
91.915733
  42
-0.05411102
  0
VERTEX
  5
5fe
  8
Layer_2
  10
39.929039
  20
91.833214
  0
SEQEND
  0
POLYLINE
  5
600
  8
Layer_2
  62
1
  66
1
  10
0
  20
0
  30
0
  0
VERTEX
  5
600
  8
Layer_2
  10
39.929039
  20
91.833214
  42
-0.058584697
  0
VERTEX
  5
601
  8
Layer_2
  10
40.506466
  20
91.63839
  0
SEQEND
  0
POLYLINE
  5
603
  8
Layer_2
  62
1
  66
1
  10
0
  20
0
  30
0
  0
VERTEX
  5
603
  8
Layer_2
  10
40.506466
  20
91.63839
  42
-0.081742074
  0
VERTEX
  5
604
  8
Layer_2
  10
41.061707
  20
91.253136
  0
SEQEND
  0
POLYLINE
  5
606
  8
Layer_2
  62
1
  66
1
  10
0
  20
0
  30
0
  0
VERTEX
  5
606
  8
Layer_2
  10
41.061707
  20
91.253136
  42
-0.14597502
  0
VERTEX
  5
607
  8
Layer_2
  10
41.588741
  20
90.313683
  0
SEQEND
  0
POLYLINE
  5
609
  8
Layer_2
  62
1
  66
1
  10
0
  20
0
  30
0
  0
VERTEX
  5
609
  8
Layer_2
  10
41.588741
  20
90.313683
  42
-0.058059451
  0
VERTEX
  5
60a
  8
Layer_2
  10
41.654854
  20
89.716026
  0
SEQEND
  0
POLYLINE
  5
60c
  8
Layer_2
  62
1
  66
1
  10
0
  20
0
  30
0
  0
VERTEX
  5
60c
  8
Layer_2
  10
41.654854
  20
89.716026
  42
-0.040648182
  0
VERTEX
  5
60d
  8
Layer_2
  10
41.616943
  20
89.220421
  0
SEQEND
  0
POLYLINE
  5
60f
  8
Layer_2
  62
1
  66
1
  10
0
  20
0
  30
0
  0
VERTEX
  5
60f
  8
Layer_2
  10
41.616943
  20
89.220421
  42
-0.056127397
  0
VERTEX
  5
610
  8
Layer_2
  10
41.503677
  20
88.809776
  0
SEQEND
  0
POLYLINE
  5
612
  8
Layer_2
  62
1
  66
1
  10
0
  20
0
  30
0
  0
VERTEX
  5
612
  8
Layer_2
  10
41.503677
  20
88.809776
  42
-0.092533574
  0
VERTEX
  5
613
  8
Layer_2
  10
41.25634
  20
88.414757
  0
SEQEND
  0
POLYLINE
  5
615
  8
Layer_2
  62
1
  66
1
  10
0
  20
0
  30
0
  0
VERTEX
  5
615
  8
Layer_2
  10
41.25634
  20
88.414757
  42
-0.078397862
  0
VERTEX
  5
616
  8
Layer_2
  10
40.970169
  20
88.191612
  0
SEQEND
  0
POLYLINE
  5
618
  8
Layer_2
  62
1
  66
1
  10
0
  20
0
  30
0
  0
VERTEX
  5
618
  8
Layer_2
  10
40.970169
  20
88.191612
  42
-0.038412542
  0
VERTEX
  5
619
  8
Layer_2
  10
40.662727
  20
88.051964
  0
SEQEND
  0
POLYLINE
  5
61b
  8
Layer_2
  62
1
  66
1
  10
0
  20
0
  30
0
  0
VERTEX
  5
61b
  8
Layer_2
  10
40.662727
  20
88.051964
  42
-0.034679746
  0
VERTEX
  5
61c
  8
Layer_2
  10
39.934124
  20
87.846397
  0
SEQEND
  0
POLYLINE
  5
61e
  8
Layer_2
  62
1
  66
1
  10
0
  20
0
  30
0
  0
VERTEX
  5
61e
  8
Layer_2
  10
39.934124
  20
87.846397
  42
-0.022393301
  0
VERTEX
  5
61f
  8
Layer_2
  10
38.702522
  20
87.644737
  0
SEQEND
  0
POLYLINE
  5
621
  8
Layer_2
  62
1
  66
1
  10
0
  20
0
  30
0
  0
VERTEX
  5
621
  8
Layer_2
  10
38.702522
  20
87.644737
  0
VERTEX
  5
622
  8
Layer_2
  10
38.459347
  20
87.615929
  0
SEQEND
  0
POLYLINE
  5
624
  8
Layer_2
  62
1
  66
1
  10
0
  20
0
  30
0
  0
VERTEX
  5
624
  8
Layer_2
  10
38.459347
  20
87.615929
  42
0.0054248519
  0
VERTEX
  5
625
  8
Layer_2
  10
37.543503
  20
87.49337
  0
SEQEND
  0
POLYLINE
  5
627
  8
Layer_2
  62
1
  66
1
  10
0
  20
0
  30
0
  0
VERTEX
  5
627
  8
Layer_2
  10
37.543503
  20
87.49337
  42
0.014335507
  0
VERTEX
  5
628
  8
Layer_2
  10
36.73122
  20
87.357628
  0
SEQEND
  0
POLYLINE
  5
62a
  8
Layer_2
  62
1
  66
1
  10
0
  20
0
  30
0
  0
VERTEX
  5
62a
  8
Layer_2
  10
36.73122
  20
87.357628
  42
0.056580236
  0
VERTEX
  5
62b
  8
Layer_2
  10
36.095078
  20
87.150108
  0
SEQEND
  0
POLYLINE
  5
62d
  8
Layer_2
  62
1
  66
1
  10
0
  20
0
  30
0
  0
VERTEX
  5
62d
  8
Layer_2
  10
36.095078
  20
87.150108
  42
0.037927477
  0
VERTEX
  5
62e
  8
Layer_2
  10
35.297127
  20
86.714561
  0
SEQEND
  0
POLYLINE
  5
630
  8
Layer_2
  62
1
  66
1
  10
0
  20
0
  30
0
  0
VERTEX
  5
630
  8
Layer_2
  10
35.297127
  20
86.714561
  42
0.067450278
  0
VERTEX
  5
631
  8
Layer_2
  10
34.614288
  20
86.124229
  0
SEQEND
  0
POLYLINE
  5
633
  8
Layer_2
  62
1
  66
1
  10
0
  20
0
  30
0
  0
VERTEX
  5
633
  8
Layer_2
  10
34.614288
  20
86.124229
  42
0.059231319
  0
VERTEX
  5
634
  8
Layer_2
  10
34.216702
  20
85.546593
  0
SEQEND
  0
POLYLINE
  5
636
  8
Layer_2
  62
1
  66
1
  10
0
  20
0
  30
0
  0
VERTEX
  5
636
  8
Layer_2
  10
34.216702
  20
85.546593
  0
VERTEX
  5
637
  8
Layer_2
  10
34.213928
  20
85.545616
  0
SEQEND
  0
POLYLINE
  5
639
  8
Layer_2
  62
1
  66
1
  10
0
  20
0
  30
0
  0
VERTEX
  5
639
  8
Layer_2
  10
34.213928
  20
85.545616
  42
0.12562022
  0
VERTEX
  5
63a
  8
Layer_2
  10
33.902328
  20
85.285851
  0
SEQEND
  0
POLYLINE
  5
63c
  8
Layer_2
  62
1
  66
1
  10
0
  20
0
  30
0
  0
VERTEX
  5
63c
  8
Layer_2
  10
33.902328
  20
85.285851
  42
0.039455865
  0
VERTEX
  5
63d
  8
Layer_2
  10
33.795998
  20
85.115929
  0
SEQEND
  0
POLYLINE
  5
63f
  8
Layer_2
  62
1
  66
1
  10
0
  20
0
  30
0
  0
VERTEX
  5
63f
  8
Layer_2
  10
33.795998
  20
85.115929
  42
0.010658288
  0
VERTEX
  5
640
  8
Layer_2
  10
33.618469
  20
84.506554
  0
SEQEND
  0
POLYLINE
  5
642
  8
Layer_2
  62
1
  66
1
  10
0
  20
0
  30
0
  0
VERTEX
  5
642
  8
Layer_2
  10
33.618469
  20
84.506554
  0
VERTEX
  5
643
  8
Layer_2
  10
33.474689
  20
83.980186
  0
SEQEND
  0
POLYLINE
  5
645
  8
Layer_2
  62
1
  66
1
  10
0
  20
0
  30
0
  0
VERTEX
  5
645
  8
Layer_2
  10
33.474689
  20
83.980186
  42
-0.065839181
  0
VERTEX
  5
646
  8
Layer_2
  10
33.106686
  20
83.134483
  0
SEQEND
  0
POLYLINE
  5
648
  8
Layer_2
  62
1
  66
1
  10
0
  20
0
  30
0
  0
VERTEX
  5
648
  8
Layer_2
  10
33.106686
  20
83.134483
  42
-0.22059217
  0
VERTEX
  5
649
  8
Layer_2
  10
31.151566
  20
81.804893
  0
SEQEND
  0
POLYLINE
  5
64b
  8
Layer_2
  62
1
  66
1
  10
0
  20
0
  30
0
  0
VERTEX
  5
64b
  8
Layer_2
  10
31.151566
  20
81.804893
  42
-0.046815073
  0
VERTEX
  5
64c
  8
Layer_2
  10
30.545012
  20
81.767296
  0
SEQEND
  0
POLYLINE
  5
64e
  8
Layer_2
  62
1
  66
1
  10
0
  20
0
  30
0
  0
VERTEX
  5
64e
  8
Layer_2
  10
49.574734
  20
81.767296
  42
-0.072939795
  0
VERTEX
  5
64f
  8
Layer_2
  10
48.607574
  20
81.926964
  0
SEQEND
  0
POLYLINE
  5
651
  8
Layer_2
  62
1
  66
1
  10
0
  20
0
  30
0
  0
VERTEX
  5
651
  8
Layer_2
  10
48.607574
  20
81.926964
  42
-0.13510398
  0
VERTEX
  5
652
  8
Layer_2
  10
47.281662
  20
82.809288
  0
SEQEND
  0
POLYLINE
  5
654
  8
Layer_2
  62
1
  66
1
  10
0
  20
0
  30
0
  0
VERTEX
  5
654
  8
Layer_2
  10
47.281662
  20
82.809288
  42
-0.070446809
  0
VERTEX
  5
655
  8
Layer_2
  10
46.645058
  20
83.783409
  0
SEQEND
  0
POLYLINE
  5
657
  8
Layer_2
  62
1
  66
1
  10
0
  20
0
  30
0
  0
VERTEX
  5
657
  8
Layer_2
  10
46.645058
  20
83.783409
  0
VERTEX
  5
658
  8
Layer_2
  10
46.649216
  20
84.040733
  0
SEQEND
  0
POLYLINE
  5
65a
  8
Layer_2
  62
1
  66
1
  10
0
  20
0
  30
0
  0
VERTEX
  5
65a
  8
Layer_2
  10
46.649216
  20
84.040733
  42
0.019036212
  0
VERTEX
  5
65b
  8
Layer_2
  10
46.642284
  20
84.380577
  0
SEQEND
  0
POLYLINE
  5
65d
  8
Layer_2
  62
1
  66
1
  10
0
  20
0
  30
0
  0
VERTEX
  5
65d
  8
Layer_2
  10
46.642284
  20
84.380577
  42
0.038580963
  0
VERTEX
  5
65e
  8
Layer_2
  10
46.600212
  20
84.691124
  0
SEQEND
  0
POLYLINE
  5
660
  8
Layer_2
  62
1
  66
1
  10
0
  20
0
  30
0
  0
VERTEX
  5
660
  8
Layer_2
  10
46.600212
  20
84.691124
  42
0.08960546
  0
VERTEX
  5
661
  8
Layer_2
  10
46.454121
  20
85.066124
  0
SEQEND
  0
POLYLINE
  5
663
  8
Layer_2
  62
1
  66
1
  10
0
  20
0
  30
0
  0
VERTEX
  5
663
  8
Layer_2
  10
46.454121
  20
85.066124
  42
0.14826844
  0
VERTEX
  5
664
  8
Layer_2
  10
46.180431
  20
85.304405
  0
SEQEND
  0
POLYLINE
  5
666
  8
Layer_2
  62
1
  66
1
  10
0
  20
0
  30
0
  0
VERTEX
  5
666
  8
Layer_2
  10
46.180431
  20
85.304405
  0
VERTEX
  5
667
  8
Layer_2
  10
46.172112
  20
85.352745
  0
SEQEND
  0
POLYLINE
  5
669
  8
Layer_2
  62
1
  66
1
  10
0
  20
0
  30
0
  0
VERTEX
  5
669
  8
Layer_2
  10
46.172112
  20
85.352745
  42
-0.037331726
  0
VERTEX
  5
66a
  8
Layer_2
  10
46.05838
  20
86.718468
  0
SEQEND
  0
POLYLINE
  5
66c
  8
Layer_2
  62
1
  66
1
  10
0
  20
0
  30
0
  0
VERTEX
  5
66c
  8
Layer_2
  10
46.05838
  20
86.718468
  42
-0.023754765
  0
VERTEX
  5
66d
  8
Layer_2
  10
46.090282
  20
87.694054
  0
SEQEND
  0
POLYLINE
  5
66f
  8
Layer_2
  62
1
  66
1
  10
0
  20
0
  30
0
  0
VERTEX
  5
66f
  8
Layer_2
  10
46.090282
  20
87.694054
  42
-0.042545715
  0
VERTEX
  5
670
  8
Layer_2
  10
46.291389
  20
88.922081
  0
SEQEND
  0
POLYLINE
  5
672
  8
Layer_2
  62
1
  66
1
  10
0
  20
0
  30
0
  0
VERTEX
  5
672
  8
Layer_2
  10
46.291389
  20
88.922081
  42
-0.065744236
  0
VERTEX
  5
673
  8
Layer_2
  10
46.773117
  20
90.144249
  0
SEQEND
  0
POLYLINE
  5
675
  8
Layer_2
  62
1
  66
1
  10
0
  20
0
  30
0
  0
VERTEX
  5
675
  8
Layer_2
  10
46.773117
  20
90.144249
  42
-0.059847891
  0
VERTEX
  5
676
  8
Layer_2
  10
47.302467
  20
90.872765
  0
SEQEND
  0
POLYLINE
  5
678
  8
Layer_2
  62
1
  66
1
  10
0
  20
0
  30
0
  0
VERTEX
  5
678
  8
Layer_2
  10
47.302467
  20
90.872765
  42
-0.15333403
  0
VERTEX
  5
679
  8
Layer_2
  10
48.800819
  20
91.733116
  0
SEQEND
  0
POLYLINE
  5
67b
  8
Layer_2
  62
1
  66
1
  10
0
  20
0
  30
0
  0
VERTEX
  5
67b
  8
Layer_2
  10
48.800819
  20
91.733116
  42
-0.10708405
  0
VERTEX
  5
67c
  8
Layer_2
  10
50.325993
  20
91.735558
  0
SEQEND
  0
POLYLINE
  5
67e
  8
Layer_2
  62
1
  66
1
  10
0
  20
0
  30
0
  0
VERTEX
  5
67e
  8
Layer_2
  10
50.325993
  20
91.735558
  42
-0.092908029
  0
VERTEX
  5
67f
  8
Layer_2
  10
51.397171
  20
91.271202
  0
SEQEND
  0
POLYLINE
  5
681
  8
Layer_2
  62
1
  66
1
  10
0
  20
0
  30
0
  0
VERTEX
  5
681
  8
Layer_2
  10
51.397171
  20
91.271202
  42
-0.053550342
  0
VERTEX
  5
682
  8
Layer_2
  10
51.954258
  20
90.807335
  0
SEQEND
  0
POLYLINE
  5
684
  8
Layer_2
  62
1
  66
1
  10
0
  20
0
  30
0
  0
VERTEX
  5
684
  8
Layer_2
  10
51.954258
  20
90.807335
  42
-0.092161902
  0
VERTEX
  5
685
  8
Layer_2
  10
52.536774
  20
89.901085
  0
SEQEND
  0
POLYLINE
  5
687
  8
Layer_2
  62
1
  66
1
  10
0
  20
0
  30
0
  0
VERTEX
  5
687
  8
Layer_2
  10
52.536774
  20
89.901085
  42
-0.048298869
  0
VERTEX
  5
688
  8
Layer_2
  10
52.750824
  20
89.19503
  0
SEQEND
  0
POLYLINE
  5
68a
  8
Layer_2
  62
1
  66
1
  10
0
  20
0
  30
0
  0
VERTEX
  5
68a
  8
Layer_2
  10
52.750824
  20
89.19503
  0
VERTEX
  5
68b
  8
Layer_2
  10
52.794281
  20
88.961632
  0
SEQEND
  0
POLYLINE
  5
68d
  8
Layer_2
  62
1
  66
1
  10
0
  20
0
  30
0
  0
VERTEX
  5
68d
  8
Layer_2
  10
52.794281
  20
88.961632
  42
-0.011594209
  0
VERTEX
  5
68e
  8
Layer_2
  10
52.820168
  20
88.778038
  0
SEQEND
  0
POLYLINE
  5
690
  8
Layer_2
  62
1
  66
1
  10
0
  20
0
  30
0
  0
VERTEX
  5
690
  8
Layer_2
  10
52.820168
  20
88.778038
  42
-0.017789821
  0
VERTEX
  5
691
  8
Layer_2
  10
52.875648
  20
88.025597
  0
SEQEND
  0
POLYLINE
  5
693
  8
Layer_2
  62
1
  66
1
  10
0
  20
0
  30
0
  0
VERTEX
  5
693
  8
Layer_2
  10
52.875648
  20
88.025597
  42
-0.017895794
  0
VERTEX
  5
694
  8
Layer_2
  10
52.880272
  20
85.719444
  0
SEQEND
  0
POLYLINE
  5
696
  8
Layer_2
  62
1
  66
1
  10
0
  20
0
  30
0
  0
VERTEX
  5
696
  8
Layer_2
  10
52.880272
  20
85.719444
  42
-0.015981518
  0
VERTEX
  5
697
  8
Layer_2
  10
52.815086
  20
84.745811
  0
SEQEND
  0
POLYLINE
  5
699
  8
Layer_2
  62
1
  66
1
  10
0
  20
0
  30
0
  0
VERTEX
  5
699
  8
Layer_2
  10
52.815086
  20
84.745811
  42
-0.03220114
  0
VERTEX
  5
69a
  8
Layer_2
  10
52.725395
  20
84.171593
  0
SEQEND
  0
POLYLINE
  5
69c
  8
Layer_2
  62
1
  66
1
  10
0
  20
0
  30
0
  0
VERTEX
  5
69c
  8
Layer_2
  10
52.725395
  20
84.171593
  42
-0.055231044
  0
VERTEX
  5
69d
  8
Layer_2
  10
52.48407
  20
83.468956
  0
SEQEND
  0
POLYLINE
  5
69f
  8
Layer_2
  62
1
  66
1
  10
0
  20
0
  30
0
  0
VERTEX
  5
69f
  8
Layer_2
  10
52.48407
  20
83.468956
  42
-0.083946361
  0
VERTEX
  5
6a0
  8
Layer_2
  10
51.913113
  20
82.654015
  0
SEQEND
  0
POLYLINE
  5
6a2
  8
Layer_2
  62
1
  66
1
  10
0
  20
0
  30
0
  0
VERTEX
  5
6a2
  8
Layer_2
  10
51.913113
  20
82.654015
  42
-0.12396352
  0
VERTEX
  5
6a3
  8
Layer_2
  10
50.715721
  20
81.91671
  0
SEQEND
  0
POLYLINE
  5
6a5
  8
Layer_2
  62
1
  66
1
  10
0
  20
0
  30
0
  0
VERTEX
  5
6a5
  8
Layer_2
  10
50.715721
  20
81.91671
  42
-0.067203099
  0
VERTEX
  5
6a6
  8
Layer_2
  10
49.837326
  20
81.769249
  0
SEQEND
  0
POLYLINE
  5
6a8
  8
Layer_2
  62
1
  66
1
  10
0
  20
0
  30
0
  0
VERTEX
  5
6a8
  8
Layer_2
  10
49.837326
  20
81.769249
  42
-0.017812542
  0
VERTEX
  5
6a9
  8
Layer_2
  10
49.574734
  20
81.767296
  0
SEQEND
  0
POLYLINE
  5
6ab
  8
Layer_2
  62
1
  66
1
  10
0
  20
0
  30
0
  0
VERTEX
  5
6ab
  8
Layer_2
  10
55.827515
  20
82.058311
  0
VERTEX
  5
6ac
  8
Layer_2
  10
55.666168
  20
82.086632
  0
SEQEND
  0
POLYLINE
  5
6ae
  8
Layer_2
  62
1
  66
1
  10
0
  20
0
  30
0
  0
VERTEX
  5
6ae
  8
Layer_2
  10
55.666168
  20
82.086632
  42
0.0246274
  0
VERTEX
  5
6af
  8
Layer_2
  10
55.410049
  20
82.114952
  0
SEQEND
  0
POLYLINE
  5
6b1
  8
Layer_2
  62
1
  66
1
  10
0
  20
0
  30
0
  0
VERTEX
  5
6b1
  8
Layer_2
  10
55.410049
  20
82.114952
  42
0.061514454
  0
VERTEX
  5
6b2
  8
Layer_2
  10
55.104458
  20
82.090538
  0
SEQEND
  0
POLYLINE
  5
6b4
  8
Layer_2
  62
1
  66
1
  10
0
  20
0
  30
0
  0
VERTEX
  5
6b4
  8
Layer_2
  10
55.104458
  20
82.090538
  0
VERTEX
  5
6b5
  8
Layer_2
  10
55.100761
  20
82.092491
  0
SEQEND
  0
POLYLINE
  5
6b7
  8
Layer_2
  62
1
  66
1
  10
0
  20
0
  30
0
  0
VERTEX
  5
6b7
  8
Layer_2
  10
55.100761
  20
82.092491
  42
-0.16068462
  0
VERTEX
  5
6b8
  8
Layer_2
  10
54.897804
  20
82.321983
  0
SEQEND
  0
POLYLINE
  5
6ba
  8
Layer_2
  62
1
  66
1
  10
0
  20
0
  30
0
  0
VERTEX
  5
6ba
  8
Layer_2
  10
54.897804
  20
82.321983
  42
-0.061764175
  0
VERTEX
  5
6bb
  8
Layer_2
  10
54.83493
  20
82.535362
  0
SEQEND
  0
POLYLINE
  5
6bd
  8
Layer_2
  62
1
  66
1
  10
0
  20
0
  30
0
  0
VERTEX
  5
6bd
  8
Layer_2
  10
54.83493
  20
82.535362
  42
-0.012053258
  0
VERTEX
  5
6be
  8
Layer_2
  10
54.809502
  20
82.694054
  0
SEQEND
  0
POLYLINE
  5
6c0
  8
Layer_2
  62
1
  66
1
  10
0
  20
0
  30
0
  0
VERTEX
  5
6c0
  8
Layer_2
  10
54.809502
  20
82.694054
  42
-0.015946139
  0
VERTEX
  5
6c1
  8
Layer_2
  10
54.768356
  20
83.128624
  0
SEQEND
  0
POLYLINE
  5
6c3
  8
Layer_2
  62
1
  66
1
  10
0
  20
0
  30
0
  0
VERTEX
  5
6c3
  8
Layer_2
  10
54.768356
  20
83.128624
  42
-0.012991623
  0
VERTEX
  5
6c4
  8
Layer_2
  10
54.720737
  20
84.466026
  0
SEQEND
  0
POLYLINE
  5
6c6
  8
Layer_2
  62
1
  66
1
  10
0
  20
0
  30
0
  0
VERTEX
  5
6c6
  8
Layer_2
  10
54.720737
  20
84.466026
  0
VERTEX
  5
6c7
  8
Layer_2
  10
54.673584
  20
88.640831
  0
SEQEND
  0
POLYLINE
  5
6c9
  8
Layer_2
  62
1
  66
1
  10
0
  20
0
  30
0
  0
VERTEX
  5
6c9
  8
Layer_2
  10
54.673584
  20
88.640831
  0
VERTEX
  5
6ca
  8
Layer_2
  10
54.673584
  20
91.174522
  0
SEQEND
  0
POLYLINE
  5
6cc
  8
Layer_2
  62
1
  66
1
  10
0
  20
0
  30
0
  0
VERTEX
  5
6cc
  8
Layer_2
  10
54.673584
  20
91.174522
  42
-0.0060163824
  0
VERTEX
  5
6cd
  8
Layer_2
  10
54.680977
  20
91.670616
  0
SEQEND
  0
POLYLINE
  5
6cf
  8
Layer_2
  62
1
  66
1
  10
0
  20
0
  30
0
  0
VERTEX
  5
6cf
  8
Layer_2
  10
54.680977
  20
91.670616
  0
VERTEX
  5
6d0
  8
Layer_2
  10
54.718426
  20
91.618858
  0
SEQEND
  0
POLYLINE
  5
6d2
  8
Layer_2
  62
1
  66
1
  10
0
  20
0
  30
0
  0
VERTEX
  5
6d2
  8
Layer_2
  10
54.718426
  20
91.618858
  42
0.089216995
  0
VERTEX
  5
6d3
  8
Layer_2
  10
54.888096
  20
91.478233
  0
SEQEND
  0
POLYLINE
  5
6d5
  8
Layer_2
  62
1
  66
1
  10
0
  20
0
  30
0
  0
VERTEX
  5
6d5
  8
Layer_2
  10
54.888096
  20
91.478233
  42
0.075505904
  0
VERTEX
  5
6d6
  8
Layer_2
  10
55.117867
  20
91.394249
  0
SEQEND
  0
POLYLINE
  5
6d8
  8
Layer_2
  62
1
  66
1
  10
0
  20
0
  30
0
  0
VERTEX
  5
6d8
  8
Layer_2
  10
55.117867
  20
91.394249
  42
0.063046324
  0
VERTEX
  5
6d9
  8
Layer_2
  10
55.451653
  20
91.367393
  0
SEQEND
  0
POLYLINE
  5
6db
  8
Layer_2
  62
1
  66
1
  10
0
  20
0
  30
0
  0
VERTEX
  5
6db
  8
Layer_2
  10
55.451653
  20
91.367393
  0
VERTEX
  5
6dc
  8
Layer_2
  10
55.501122
  20
91.3713
  0
SEQEND
  0
POLYLINE
  5
6de
  8
Layer_2
  62
1
  66
1
  10
0
  20
0
  30
0
  0
VERTEX
  5
6de
  8
Layer_2
  10
55.501122
  20
91.3713
  42
0.026869291
  0
VERTEX
  5
6df
  8
Layer_2
  10
55.755859
  20
91.415245
  0
SEQEND
  0
POLYLINE
  5
6e1
  8
Layer_2
  62
1
  66
1
  10
0
  20
0
  30
0
  0
VERTEX
  5
6e1
  8
Layer_2
  10
55.755859
  20
91.415245
  0
VERTEX
  5
6e2
  8
Layer_2
  10
56.078087
  20
91.491905
  0
SEQEND
  0
POLYLINE
  5
6e4
  8
Layer_2
  62
1
  66
1
  10
0
  20
0
  30
0
  0
VERTEX
  5
6e4
  8
Layer_2
  10
56.078087
  20
91.491905
  42
-0.029930418
  0
VERTEX
  5
6e5
  8
Layer_2
  10
56.344383
  20
91.535362
  0
SEQEND
  0
POLYLINE
  5
6e7
  8
Layer_2
  62
1
  66
1
  10
0
  20
0
  30
0
  0
VERTEX
  5
6e7
  8
Layer_2
  10
56.344383
  20
91.535362
  42
-0.066387623
  0
VERTEX
  5
6e8
  8
Layer_2
  10
56.520985
  20
91.534874
  0
SEQEND
  0
POLYLINE
  5
6ea
  8
Layer_2
  62
1
  66
1
  10
0
  20
0
  30
0
  0
VERTEX
  5
6ea
  8
Layer_2
  10
56.520985
  20
91.534874
  42
-0.17102115
  0
VERTEX
  5
6eb
  8
Layer_2
  10
56.772484
  20
91.386925
  0
SEQEND
  0
POLYLINE
  5
6ed
  8
Layer_2
  62
1
  66
1
  10
0
  20
0
  30
0
  0
VERTEX
  5
6ed
  8
Layer_2
  10
56.772484
  20
91.386925
  42
-0.085459394
  0
VERTEX
  5
6ee
  8
Layer_2
  10
56.944
  20
91.096397
  0
SEQEND
  0
POLYLINE
  5
6f0
  8
Layer_2
  62
1
  66
1
  10
0
  20
0
  30
0
  0
VERTEX
  5
6f0
  8
Layer_2
  10
56.944
  20
91.096397
  42
-0.035287716
  0
VERTEX
  5
6f1
  8
Layer_2
  10
57.038773
  20
90.796593
  0
SEQEND
  0
POLYLINE
  5
6f3
  8
Layer_2
  62
1
  66
1
  10
0
  20
0
  30
0
  0
VERTEX
  5
6f3
  8
Layer_2
  10
57.038773
  20
90.796593
  42
-0.034838625
  0
VERTEX
  5
6f4
  8
Layer_2
  10
57.142334
  20
90.156456
  0
SEQEND
  0
POLYLINE
  5
6f6
  8
Layer_2
  62
1
  66
1
  10
0
  20
0
  30
0
  0
VERTEX
  5
6f6
  8
Layer_2
  10
57.142334
  20
90.156456
  0
VERTEX
  5
6f7
  8
Layer_2
  10
57.158974
  20
89.966026
  0
SEQEND
  0
POLYLINE
  5
6f9
  8
Layer_2
  62
1
  66
1
  10
0
  20
0
  30
0
  0
VERTEX
  5
6f9
  8
Layer_2
  10
57.158974
  20
89.966026
  0
VERTEX
  5
6fa
  8
Layer_2
  10
57.158974
  20
83.573936
  0
SEQEND
  0
POLYLINE
  5
6fc
  8
Layer_2
  62
1
  66
1
  10
0
  20
0
  30
0
  0
VERTEX
  5
6fc
  8
Layer_2
  10
57.158974
  20
83.573936
  42
-0.024982919
  0
VERTEX
  5
6fd
  8
Layer_2
  10
57.085468
  20
82.942589
  0
SEQEND
  0
POLYLINE
  5
6ff
  8
Layer_2
  62
1
  66
1
  10
0
  20
0
  30
0
  0
VERTEX
  5
6ff
  8
Layer_2
  10
57.085468
  20
82.942589
  42
-0.035359592
  0
VERTEX
  5
700
  8
Layer_2
  10
56.98838
  20
82.529991
  0
SEQEND
  0
POLYLINE
  5
702
  8
Layer_2
  62
1
  66
1
  10
0
  20
0
  30
0
  0
VERTEX
  5
702
  8
Layer_2
  10
56.98838
  20
82.529991
  42
-0.022760973
  0
VERTEX
  5
703
  8
Layer_2
  10
56.928284
  20
82.365929
  0
SEQEND
  0
POLYLINE
  5
705
  8
Layer_2
  62
1
  66
1
  10
0
  20
0
  30
0
  0
VERTEX
  5
705
  8
Layer_2
  10
56.928284
  20
82.365929
  42
-0.074335739
  0
VERTEX
  5
706
  8
Layer_2
  10
56.783577
  20
82.122276
  0
SEQEND
  0
POLYLINE
  5
708
  8
Layer_2
  62
1
  66
1
  10
0
  20
0
  30
0
  0
VERTEX
  5
708
  8
Layer_2
  10
56.783577
  20
82.122276
  42
-0.039450681
  0
VERTEX
  5
709
  8
Layer_2
  10
56.744282
  20
82.081261
  0
SEQEND
  0
POLYLINE
  5
70b
  8
Layer_2
  62
1
  66
1
  10
0
  20
0
  30
0
  0
VERTEX
  5
70b
  8
Layer_2
  10
56.744282
  20
82.081261
  0
VERTEX
  5
70c
  8
Layer_2
  10
56.722553
  20
82.08712
  0
SEQEND
  0
POLYLINE
  5
70e
  8
Layer_2
  62
1
  66
1
  10
0
  20
0
  30
0
  0
VERTEX
  5
70e
  8
Layer_2
  10
56.722553
  20
82.08712
  42
0.065360999
  0
VERTEX
  5
70f
  8
Layer_2
  10
56.339294
  20
82.112999
  0
SEQEND
  0
POLYLINE
  5
711
  8
Layer_2
  62
1
  66
1
  10
0
  20
0
  30
0
  0
VERTEX
  5
711
  8
Layer_2
  10
56.339294
  20
82.112999
  42
0.013003191
  0
VERTEX
  5
712
  8
Layer_2
  10
55.904259
  20
82.066124
  0
SEQEND
  0
POLYLINE
  5
714
  8
Layer_2
  62
1
  66
1
  10
0
  20
0
  30
0
  0
VERTEX
  5
714
  8
Layer_2
  10
55.904259
  20
82.066124
  0
VERTEX
  5
715
  8
Layer_2
  10
55.860802
  20
82.054405
  0
SEQEND
  0
POLYLINE
  5
717
  8
Layer_2
  62
1
  66
1
  10
0
  20
0
  30
0
  0
VERTEX
  5
717
  8
Layer_2
  10
55.860802
  20
82.054405
  0
VERTEX
  5
718
  8
Layer_2
  10
55.854332
  20
82.05294
  0
SEQEND
  0
POLYLINE
  5
71a
  8
Layer_2
  62
1
  66
1
  10
0
  20
0
  30
0
  0
VERTEX
  5
71a
  8
Layer_2
  10
55.854332
  20
82.05294
  0
VERTEX
  5
71b
  8
Layer_2
  10
55.827515
  20
82.058311
  0
SEQEND
  0
POLYLINE
  5
71d
  8
Layer_2
  62
1
  66
1
  10
0
  20
0
  30
0
  0
VERTEX
  5
71d
  8
Layer_2
  10
38.014137
  20
81.768272
  42
-0.056709958
  0
VERTEX
  5
71e
  8
Layer_2
  10
37.266579
  20
81.8713
  0
SEQEND
  0
POLYLINE
  5
720
  8
Layer_2
  62
1
  66
1
  10
0
  20
0
  30
0
  0
VERTEX
  5
720
  8
Layer_2
  10
37.266579
  20
81.8713
  42
-0.072488869
  0
VERTEX
  5
721
  8
Layer_2
  10
36.648468
  20
82.129112
  0
SEQEND
  0
POLYLINE
  5
723
  8
Layer_2
  62
1
  66
1
  10
0
  20
0
  30
0
  0
VERTEX
  5
723
  8
Layer_2
  10
36.648468
  20
82.129112
  42
-0.080183006
  0
VERTEX
  5
724
  8
Layer_2
  10
36.166737
  20
82.536339
  0
SEQEND
  0
POLYLINE
  5
726
  8
Layer_2
  62
1
  66
1
  10
0
  20
0
  30
0
  0
VERTEX
  5
726
  8
Layer_2
  10
36.166737
  20
82.536339
  42
-0.11709163
  0
VERTEX
  5
727
  8
Layer_2
  10
35.800583
  20
83.261436
  0
SEQEND
  0
POLYLINE
  5
729
  8
Layer_2
  62
1
  66
1
  10
0
  20
0
  30
0
  0
VERTEX
  5
729
  8
Layer_2
  10
35.800583
  20
83.261436
  42
-0.1065581
  0
VERTEX
  5
72a
  8
Layer_2
  10
35.77932
  20
84.247765
  0
SEQEND
  0
POLYLINE
  5
72c
  8
Layer_2
  62
1
  66
1
  10
0
  20
0
  30
0
  0
VERTEX
  5
72c
  8
Layer_2
  10
35.77932
  20
84.247765
  42
-0.13798969
  0
VERTEX
  5
72d
  8
Layer_2
  10
36.182453
  20
85.043175
  0
SEQEND
  0
POLYLINE
  5
72f
  8
Layer_2
  62
1
  66
1
  10
0
  20
0
  30
0
  0
VERTEX
  5
72f
  8
Layer_2
  10
36.182453
  20
85.043175
  42
-0.067027403
  0
VERTEX
  5
730
  8
Layer_2
  10
36.591141
  20
85.378624
  0
SEQEND
  0
POLYLINE
  5
732
  8
Layer_2
  62
1
  66
1
  10
0
  20
0
  30
0
  0
VERTEX
  5
732
  8
Layer_2
  10
36.591141
  20
85.378624
  42
-0.051651747
  0
VERTEX
  5
733
  8
Layer_2
  10
37.131119
  20
85.638878
  0
SEQEND
  0
POLYLINE
  5
735
  8
Layer_2
  62
1
  66
1
  10
0
  20
0
  30
0
  0
VERTEX
  5
735
  8
Layer_2
  10
37.131119
  20
85.638878
  42
-0.044907945
  0
VERTEX
  5
736
  8
Layer_2
  10
37.953114
  20
85.850792
  0
SEQEND
  0
POLYLINE
  5
738
  8
Layer_2
  62
1
  66
1
  10
0
  20
0
  30
0
  0
VERTEX
  5
738
  8
Layer_2
  10
37.953114
  20
85.850792
  42
-0.012684285
  0
VERTEX
  5
739
  8
Layer_2
  10
38.269333
  20
85.897179
  0
SEQEND
  0
POLYLINE
  5
73b
  8
Layer_2
  62
1
  66
1
  10
0
  20
0
  30
0
  0
VERTEX
  5
73b
  8
Layer_2
  10
38.269333
  20
85.897179
  0
VERTEX
  5
73c
  8
Layer_2
  10
38.962803
  20
85.973839
  0
SEQEND
  0
POLYLINE
  5
73e
  8
Layer_2
  62
1
  66
1
  10
0
  20
0
  30
0
  0
VERTEX
  5
73e
  8
Layer_2
  10
38.962803
  20
85.973839
  42
0.014682649
  0
VERTEX
  5
73f
  8
Layer_2
  10
39.82502
  20
86.100304
  0
SEQEND
  0
POLYLINE
  5
741
  8
Layer_2
  62
1
  66
1
  10
0
  20
0
  30
0
  0
VERTEX
  5
741
  8
Layer_2
  10
39.82502
  20
86.100304
  42
0.016626819
  0
VERTEX
  5
742
  8
Layer_2
  10
40.257278
  20
86.192589
  0
SEQEND
  0
POLYLINE
  5
744
  8
Layer_2
  62
1
  66
1
  10
0
  20
0
  30
0
  0
VERTEX
  5
744
  8
Layer_2
  10
40.257278
  20
86.192589
  42
0.069159897
  0
VERTEX
  5
745
  8
Layer_2
  10
40.933182
  20
86.458214
  0
SEQEND
  0
POLYLINE
  5
747
  8
Layer_2
  62
1
  66
1
  10
0
  20
0
  30
0
  0
VERTEX
  5
747
  8
Layer_2
  10
40.933182
  20
86.458214
  42
0.040892598
  0
VERTEX
  5
748
  8
Layer_2
  10
41.343254
  20
86.734581
  0
SEQEND
  0
POLYLINE
  5
74a
  8
Layer_2
  62
1
  66
1
  10
0
  20
0
  30
0
  0
VERTEX
  5
74a
  8
Layer_2
  10
41.343254
  20
86.734581
  42
0.025259842
  0
VERTEX
  5
74b
  8
Layer_2
  10
41.607235
  20
86.966026
  0
SEQEND
  0
POLYLINE
  5
74d
  8
Layer_2
  62
1
  66
1
  10
0
  20
0
  30
0
  0
VERTEX
  5
74d
  8
Layer_2
  10
41.607235
  20
86.966026
  0
VERTEX
  5
74e
  8
Layer_2
  10
41.583656
  20
85.191124
  0
SEQEND
  0
POLYLINE
  5
750
  8
Layer_2
  62
1
  66
1
  10
0
  20
0
  30
0
  0
VERTEX
  5
750
  8
Layer_2
  10
41.583656
  20
85.191124
  42
-0.038257471
  0
VERTEX
  5
751
  8
Layer_2
  10
41.516621
  20
84.4338
  0
SEQEND
  0
POLYLINE
  5
753
  8
Layer_2
  62
1
  66
1
  10
0
  20
0
  30
0
  0
VERTEX
  5
753
  8
Layer_2
  10
41.516621
  20
84.4338
  42
-0.046588057
  0
VERTEX
  5
754
  8
Layer_2
  10
41.338169
  20
83.762901
  0
SEQEND
  0
POLYLINE
  5
756
  8
Layer_2
  62
1
  66
1
  10
0
  20
0
  30
0
  0
VERTEX
  5
756
  8
Layer_2
  10
41.338169
  20
83.762901
  42
-0.052297625
  0
VERTEX
  5
757
  8
Layer_2
  10
41.048759
  20
83.177452
  0
SEQEND
  0
POLYLINE
  5
759
  8
Layer_2
  62
1
  66
1
  10
0
  20
0
  30
0
  0
VERTEX
  5
759
  8
Layer_2
  10
41.048759
  20
83.177452
  42
-0.068701056
  0
VERTEX
  5
75a
  8
Layer_2
  10
40.532356
  20
82.568077
  0
SEQEND
  0
POLYLINE
  5
75c
  8
Layer_2
  62
1
  66
1
  10
0
  20
0
  30
0
  0
VERTEX
  5
75c
  8
Layer_2
  10
40.532356
  20
82.568077
  42
-0.055864792
  0
VERTEX
  5
75d
  8
Layer_2
  10
40.01318
  20
82.197472
  0
SEQEND
  0
POLYLINE
  5
75f
  8
Layer_2
  62
1
  66
1
  10
0
  20
0
  30
0
  0
VERTEX
  5
75f
  8
Layer_2
  10
40.01318
  20
82.197472
  42
-0.052993267
  0
VERTEX
  5
760
  8
Layer_2
  10
39.409859
  20
81.940636
  0
SEQEND
  0
POLYLINE
  5
762
  8
Layer_2
  62
1
  66
1
  10
0
  20
0
  30
0
  0
VERTEX
  5
762
  8
Layer_2
  10
39.409859
  20
81.940636
  42
-0.04588808
  0
VERTEX
  5
763
  8
Layer_2
  10
38.722401
  20
81.798058
  0
SEQEND
  0
POLYLINE
  5
765
  8
Layer_2
  62
1
  66
1
  10
0
  20
0
  30
0
  0
VERTEX
  5
765
  8
Layer_2
  10
38.722401
  20
81.798058
  42
-0.035849291
  0
VERTEX
  5
766
  8
Layer_2
  10
38.014137
  20
81.768272
  0
SEQEND
  0
POLYLINE
  5
768
  8
Layer_2
  62
1
  66
1
  10
0
  20
0
  30
0
  0
VERTEX
  5
768
  8
Layer_2
  10
58.526962
  20
93.000694
  42
0.048385089
  0
VERTEX
  5
769
  8
Layer_2
  10
58.366074
  20
93.015831
  42
0.010932341
  0
VERTEX
  5
76a
  8
Layer_2
  10
58.221615
  20
93.008598
  0
VERTEX
  5
76b
  8
Layer_2
  10
58.221619
  20
94.449875
  42
0.088927193
  0
VERTEX
  5
76c
  8
Layer_2
  10
58.588909
  20
94.703331
  42
0.094897145
  0
VERTEX
  5
76d
  8
Layer_2
  10
58.905132
  20
95.145714
  0
SEQEND
  0
POLYLINE
  5
76f
  8
Layer_2
  62
1
  66
1
  10
0
  20
0
  30
0
  0
VERTEX
  5
76f
  8
Layer_2
  10
56.727177
  20
92.929893
  42
0.014858816
  0
VERTEX
  5
770
  8
Layer_2
  10
57.144646
  20
92.892296
  42
0.0081997808
  0
VERTEX
  5
771
  8
Layer_2
  10
57.189995
  20
92.890953
  0
VERTEX
  5
772
  8
Layer_2
  10
57.19735
  20
94.444054
  0
VERTEX
  5
773
  8
Layer_2
  10
57.19735
  20
94.444054
  0
VERTEX
  5
774
  8
Layer_2
  10
57.19735
  20
94.444054
  42
-0.10043797
  0
VERTEX
  5
775
  8
Layer_2
  10
56.768322
  20
94.753624
  0
SEQEND
  0
ENDSEC
  0
EOF
