  0
SECTION
  2
HEADER
  9
$ACADVER
  1
AC1009
  0
ENDSEC
  0
SECTION
  2
TABLES
  0
TABLE
  2
LAYER
  70
2
  0
LAYER
  2
Layer_0
  70
0
  62
7
  6
CONTINUOUS
  0
LAYER
  2
Layer_2
  70
0
  62
1
  6
CONTINUOUS
  0
ENDTAB
  0
ENDSEC
  0
SECTION
  2
ENTITIES
  0
POLYLINE
  5
90
  8
Layer_0
  62
7
  70
1
  66
1
  10
0
  20
0
  30
0
  0
VERTEX
  5
90
  8
Layer_0
  10
24.661572
  20
172.05756
  42
-0.057351301
  0
VERTEX
  5
91
  8
Layer_0
  10
24.23872
  20
172.12201
  42
-0.036759331
  0
VERTEX
  5
92
  8
Layer_0
  10
24.050243
  20
172.1889
  42
-0.068691304
  0
VERTEX
  5
93
  8
Layer_0
  10
23.820263
  20
172.33099
  42
-0.10866844
  0
VERTEX
  5
94
  8
Layer_0
  10
23.450634
  20
172.83929
  42
-0.035503011
  0
VERTEX
  5
95
  8
Layer_0
  10
23.334911
  20
173.19916
  42
-0.055063174
  0
VERTEX
  5
96
  8
Layer_0
  10
23.25581
  20
173.82269
  42
-0.037477694
  0
VERTEX
  5
97
  8
Layer_0
  10
23.284618
  20
174.32123
  42
-0.027258842
  0
VERTEX
  5
98
  8
Layer_0
  10
23.347607
  20
174.64154
  42
-0.030490454
  0
VERTEX
  5
99
  8
Layer_0
  10
23.445263
  20
174.94476
  0
VERTEX
  5
9a
  8
Layer_0
  10
23.507275
  20
175.08978
  0
VERTEX
  5
9b
  8
Layer_0
  10
23.578564
  20
175.22992
  0
VERTEX
  5
9c
  8
Layer_0
  10
23.683544
  20
175.41058
  42
-0.086182964
  0
VERTEX
  5
9d
  8
Layer_0
  10
23.950146
  20
175.69916
  42
-0.03292234
  0
VERTEX
  5
9e
  8
Layer_0
  10
24.365673
  20
175.98431
  42
-0.085046656
  0
VERTEX
  5
9f
  8
Layer_0
  10
25.023876
  20
176.1972
  42
-0.034998968
  0
VERTEX
  5
a0
  8
Layer_0
  10
25.203564
  20
176.21088
  42
-0.041618805
  0
VERTEX
  5
a1
  8
Layer_0
  10
25.729931
  20
176.11859
  42
-0.05170538
  0
VERTEX
  5
a2
  8
Layer_0
  10
26.058056
  20
175.99701
  42
-0.09893239
  0
VERTEX
  5
a3
  8
Layer_0
  10
26.456982
  20
175.67767
  42
-0.13752213
  0
VERTEX
  5
a4
  8
Layer_0
  10
26.748486
  20
175.05707
  42
-0.06761961
  0
VERTEX
  5
a5
  8
Layer_0
  10
26.780224
  20
174.29291
  42
-0.051719376
  0
VERTEX
  5
a6
  8
Layer_0
  10
26.638622
  20
173.54388
  0
VERTEX
  5
a7
  8
Layer_0
  10
26.583447
  20
173.3847
  42
-0.13172573
  0
VERTEX
  5
a8
  8
Layer_0
  10
25.916454
  20
172.45062
  42
-0.15120301
  0
VERTEX
  5
a9
  8
Layer_0
  10
25.046825
  20
172.07025
  42
-0.044430669
  0
SEQEND
  0
POLYLINE
  5
ab
  8
Layer_0
  62
7
  70
1
  66
1
  10
0
  20
0
  30
0
  0
VERTEX
  5
ab
  8
Layer_0
  10
17.223095
  20
172.0766
  42
-0.036726845
  0
VERTEX
  5
ac
  8
Layer_0
  10
16.956005
  20
172.1059
  42
-0.071385582
  0
VERTEX
  5
ad
  8
Layer_0
  10
16.446239
  20
172.27924
  42
-0.041130752
  0
VERTEX
  5
ae
  8
Layer_0
  10
16.144482
  20
172.46527
  42
-0.10489458
  0
VERTEX
  5
af
  8
Layer_0
  10
15.565869
  20
173.12347
  42
-0.050293677
  0
VERTEX
  5
b0
  8
Layer_0
  10
15.354444
  20
173.60101
  42
-0.064913854
  0
VERTEX
  5
b1
  8
Layer_0
  10
15.18794
  20
174.36664
  42
-0.13266362
  0
VERTEX
  5
b2
  8
Layer_0
  10
15.406201
  20
175.55511
  42
-0.03578916
  0
VERTEX
  5
b3
  8
Layer_0
  10
15.622998
  20
175.9433
  42
-0.13221449
  0
VERTEX
  5
b4
  8
Layer_0
  10
16.697704
  20
176.85004
  42
-0.073392201
  0
VERTEX
  5
b5
  8
Layer_0
  10
17.492138
  20
177.10004
  42
-0.095542445
  0
VERTEX
  5
b6
  8
Layer_0
  10
18.375927
  20
177.06635
  42
-0.011626155
  0
VERTEX
  5
b7
  8
Layer_0
  10
18.62788
  20
177.00287
  42
-0.096104896
  0
VERTEX
  5
b8
  8
Layer_0
  10
19.209911
  20
176.71527
  42
-0.090878155
  0
VERTEX
  5
b9
  8
Layer_0
  10
19.571728
  20
176.30414
  42
-0.070028562
  0
VERTEX
  5
ba
  8
Layer_0
  10
19.8437
  20
175.66742
  42
-0.023623094
  0
VERTEX
  5
bb
  8
Layer_0
  10
19.922314
  20
175.32513
  42
-0.028132522
  0
VERTEX
  5
bc
  8
Layer_0
  10
19.951122
  20
174.99945
  42
-0.042740794
  0
VERTEX
  5
bd
  8
Layer_0
  10
19.921825
  20
174.51215
  42
-0.041999041
  0
VERTEX
  5
be
  8
Layer_0
  10
19.805614
  20
174.02679
  42
-0.046165986
  0
VERTEX
  5
bf
  8
Layer_0
  10
19.546337
  20
173.42767
  42
-0.051702374
  0
VERTEX
  5
c0
  8
Layer_0
  10
19.194286
  20
172.92133
  42
-0.15160989
  0
VERTEX
  5
c1
  8
Layer_0
  10
18.277294
  20
172.24164
  42
-0.046213814
  0
VERTEX
  5
c2
  8
Layer_0
  10
17.733837
  20
172.10052
  42
-0.055490419
  0
SEQEND
  0
POLYLINE
  5
c4
  8
Layer_0
  62
7
  70
1
  66
1
  10
0
  20
0
  30
0
  0
VERTEX
  5
c4
  8
Layer_0
  10
32.342236
  20
170.87738
  42
0.12400495
  0
VERTEX
  5
c5
  8
Layer_0
  10
32.539013
  20
170.96185
  42
0.10335488
  0
VERTEX
  5
c6
  8
Layer_0
  10
32.692333
  20
171.11908
  42
0.080722124
  0
VERTEX
  5
c7
  8
Layer_0
  10
32.762157
  20
171.3017
  42
0.05278128
  0
VERTEX
  5
c8
  8
Layer_0
  10
32.785107
  20
171.54095
  0
VERTEX
  5
c9
  8
Layer_0
  10
32.730419
  20
172.85248
  42
-0.010341289
  0
VERTEX
  5
ca
  8
Layer_0
  10
32.711376
  20
176.02338
  42
-0.0067014488
  0
VERTEX
  5
cb
  8
Layer_0
  10
32.730419
  20
176.67816
  0
VERTEX
  5
cc
  8
Layer_0
  10
32.727978
  20
176.73724
  42
0.17377055
  0
VERTEX
  5
cd
  8
Layer_0
  10
32.556591
  20
177.13861
  42
0.1566537
  0
VERTEX
  5
ce
  8
Layer_0
  10
32.317333
  20
177.2641
  42
0.11793914
  0
VERTEX
  5
cf
  8
Layer_0
  10
32.041943
  20
177.25385
  42
0.14739733
  0
VERTEX
  5
d0
  8
Layer_0
  10
31.711864
  20
177.03461
  42
0.11948929
  0
VERTEX
  5
d1
  8
Layer_0
  10
31.616161
  20
176.80609
  42
0.047025926
  0
VERTEX
  5
d2
  8
Layer_0
  10
31.603954
  20
176.664
  0
VERTEX
  5
d3
  8
Layer_0
  10
31.602001
  20
176.28314
  0
VERTEX
  5
d4
  8
Layer_0
  10
31.594189
  20
175.64594
  42
0.0073074477
  0
VERTEX
  5
d5
  8
Layer_0
  10
31.602489
  20
173.53168
  42
0.0089406226
  0
VERTEX
  5
d6
  8
Layer_0
  10
31.64497
  20
172.61908
  0
VERTEX
  5
d7
  8
Layer_0
  10
31.67329
  20
171.49066
  42
0.040760525
  0
VERTEX
  5
d8
  8
Layer_0
  10
31.69331
  20
171.31146
  42
0.11910256
  0
VERTEX
  5
d9
  8
Layer_0
  10
31.792431
  20
171.08295
  42
0.091671768
  0
VERTEX
  5
da
  8
Layer_0
  10
31.885693
  20
171.00189
  42
0.098242241
  0
VERTEX
  5
db
  8
Layer_0
  10
32.201122
  20
170.88275
  42
0.068086366
  0
SEQEND
  0
POLYLINE
  5
dd
  8
Layer_0
  62
7
  70
1
  66
1
  10
0
  20
0
  30
0
  0
VERTEX
  5
dd
  8
Layer_0
  10
17.199657
  20
170.87494
  42
0.090691223
  0
VERTEX
  5
de
  8
Layer_0
  10
18.606884
  20
171.16644
  42
0.029668192
  0
VERTEX
  5
df
  8
Layer_0
  10
19.149364
  20
171.42181
  42
0.033304107
  0
VERTEX
  5
e0
  8
Layer_0
  10
19.617138
  20
171.7182
  0
VERTEX
  5
e1
  8
Layer_0
  10
19.756786
  20
171.8266
  0
VERTEX
  5
e2
  8
Layer_0
  10
19.908154
  20
171.95746
  42
-0.079617584
  0
VERTEX
  5
e3
  8
Layer_0
  10
19.982861
  20
172.00433
  42
-0.15377712
  0
VERTEX
  5
e4
  8
Layer_0
  10
20.047314
  20
172.01166
  42
-0.18273443
  0
VERTEX
  5
e5
  8
Layer_0
  10
20.113232
  20
171.96381
  42
-0.08595592
  0
VERTEX
  5
e6
  8
Layer_0
  10
20.171337
  20
171.82416
  42
-0.045479323
  0
VERTEX
  5
e7
  8
Layer_0
  10
20.212353
  20
171.49701
  42
-0.014087272
  0
VERTEX
  5
e8
  8
Layer_0
  10
20.217236
  20
171.27289
  0
VERTEX
  5
e9
  8
Layer_0
  10
20.220654
  20
171.22211
  42
0.16740777
  0
VERTEX
  5
ea
  8
Layer_0
  10
20.295361
  20
171.06049
  42
0.10475841
  0
VERTEX
  5
eb
  8
Layer_0
  10
20.416454
  20
170.9848
  42
0.050050899
  0
VERTEX
  5
ec
  8
Layer_0
  10
20.643993
  20
170.91986
  42
0.10469616
  0
VERTEX
  5
ed
  8
Layer_0
  10
20.932568
  20
170.9306
  42
0.0328245
  0
VERTEX
  5
ee
  8
Layer_0
  10
21.1479
  20
170.99506
  42
0.25279704
  0
VERTEX
  5
ef
  8
Layer_0
  10
21.361767
  20
171.22845
  42
0.042641105
  0
VERTEX
  5
f0
  8
Layer_0
  10
21.381298
  20
171.33197
  0
VERTEX
  5
f1
  8
Layer_0
  10
21.384716
  20
171.41058
  0
VERTEX
  5
f2
  8
Layer_0
  10
21.405712
  20
176.90472
  42
0.15409448
  0
VERTEX
  5
f3
  8
Layer_0
  10
21.272411
  20
177.24066
  42
0.18476222
  0
VERTEX
  5
f4
  8
Layer_0
  10
20.959911
  20
177.41742
  42
0.094867224
  0
VERTEX
  5
f5
  8
Layer_0
  10
20.647411
  20
177.40521
  42
0.079545218
  0
VERTEX
  5
f6
  8
Layer_0
  10
20.542919
  20
177.36078
  0
VERTEX
  5
f7
  8
Layer_0
  10
20.490673
  20
177.32367
  0
VERTEX
  5
f8
  8
Layer_0
  10
20.464306
  20
177.31586
  0
VERTEX
  5
f9
  8
Layer_0
  10
20.436962
  20
177.31732
  42
-0.11793214
  0
VERTEX
  5
fa
  8
Layer_0
  10
20.379833
  20
177.34711
  42
-0.072854324
  0
VERTEX
  5
fb
  8
Layer_0
  10
20.286083
  20
177.46088
  0
VERTEX
  5
fc
  8
Layer_0
  10
20.252392
  20
177.50043
  42
0.046511531
  0
VERTEX
  5
fd
  8
Layer_0
  10
20.027294
  20
177.69135
  42
0.047910217
  0
VERTEX
  5
fe
  8
Layer_0
  10
19.432079
  20
178.05072
  42
0.039522942
  0
VERTEX
  5
ff
  8
Layer_0
  10
18.754833
  20
178.29877
  42
0.076666107
  0
VERTEX
  5
100
  8
Layer_0
  10
17.628368
  20
178.33295
  42
0.074990347
  0
VERTEX
  5
101
  8
Layer_0
  10
16.208447
  20
177.94623
  42
0.072719356
  0
VERTEX
  5
102
  8
Layer_0
  10
15.220166
  20
177.31488
  42
0.055674898
  0
VERTEX
  5
103
  8
Layer_0
  10
14.746533
  20
176.79828
  0
VERTEX
  5
104
  8
Layer_0
  10
14.590283
  20
176.57172
  42
0.080475242
  0
VERTEX
  5
105
  8
Layer_0
  10
14.141553
  20
175.58148
  42
0.10039403
  0
VERTEX
  5
106
  8
Layer_0
  10
14.005322
  20
173.8476
  42
0.051933661
  0
VERTEX
  5
107
  8
Layer_0
  10
14.178174
  20
173.09467
  42
0.028879813
  0
VERTEX
  5
108
  8
Layer_0
  10
14.318311
  20
172.75433
  42
0.013991666
  0
VERTEX
  5
109
  8
Layer_0
  10
14.472119
  20
172.45697
  42
0.11617554
  0
VERTEX
  5
10a
  8
Layer_0
  10
15.512647
  20
171.31244
  42
0.13340813
  0
VERTEX
  5
10b
  8
Layer_0
  10
16.771435
  20
170.88275
  0
VERTEX
  5
10c
  8
Layer_0
  10
16.879833
  20
170.87689
  42
0.014949561
  0
SEQEND
  0
POLYLINE
  5
10e
  8
Layer_0
  62
7
  70
1
  66
1
  10
0
  20
0
  30
0
  0
VERTEX
  5
10e
  8
Layer_0
  10
10.844678
  20
170.89301
  42
0.040250183
  0
VERTEX
  5
10f
  8
Layer_0
  10
11.406201
  20
170.95697
  42
0.076439491
  0
VERTEX
  5
110
  8
Layer_0
  10
12.505322
  20
171.32806
  42
0.072840952
  0
VERTEX
  5
111
  8
Layer_0
  10
13.494092
  20
172.03558
  42
0.092057302
  0
VERTEX
  5
112
  8
Layer_0
  10
13.678662
  20
172.33734
  42
0.16614012
  0
VERTEX
  5
113
  8
Layer_0
  10
13.717237
  20
172.6972
  42
0.062329689
  0
VERTEX
  5
114
  8
Layer_0
  10
13.644971
  20
172.90082
  42
0.088165173
  0
VERTEX
  5
115
  8
Layer_0
  10
13.510205
  20
173.03949
  42
0.069705024
  0
VERTEX
  5
116
  8
Layer_0
  10
13.407178
  20
173.09222
  42
0.1034605
  0
VERTEX
  5
117
  8
Layer_0
  10
13.23335
  20
173.11029
  42
0.12325146
  0
VERTEX
  5
118
  8
Layer_0
  10
12.967237
  20
173.0224
  42
0.079534342
  0
VERTEX
  5
119
  8
Layer_0
  10
12.848584
  20
172.91449
  0
VERTEX
  5
11a
  8
Layer_0
  10
12.75874
  20
172.83636
  42
-0.074095436
  0
VERTEX
  5
11b
  8
Layer_0
  10
11.904737
  20
172.30121
  42
-0.092397607
  0
VERTEX
  5
11c
  8
Layer_0
  10
10.876416
  20
172.06342
  42
-0.12737069
  0
VERTEX
  5
11d
  8
Layer_0
  10
9.8324709
  20
172.29095
  0
VERTEX
  5
11e
  8
Layer_0
  10
9.6835451
  20
172.37103
  42
-0.14368292
  0
VERTEX
  5
11f
  8
Layer_0
  10
9.02876
  20
173.05951
  42
-0.079847732
  0
VERTEX
  5
120
  8
Layer_0
  10
8.7904787
  20
173.78558
  42
-0.070223967
  0
VERTEX
  5
121
  8
Layer_0
  10
8.7650881
  20
174.77728
  42
-0.11236627
  0
VERTEX
  5
122
  8
Layer_0
  10
9.1610842
  20
175.86469
  42
-0.023568273
  0
VERTEX
  5
123
  8
Layer_0
  10
9.2895021
  20
176.04828
  0
VERTEX
  5
124
  8
Layer_0
  10
9.4296389
  20
176.22113
  42
-0.094835429
  0
VERTEX
  5
125
  8
Layer_0
  10
10.276319
  20
176.90179
  42
-0.075899979
  0
VERTEX
  5
126
  8
Layer_0
  10
11.081494
  20
177.19476
  42
-0.098463476
  0
VERTEX
  5
127
  8
Layer_0
  10
11.736768
  20
177.19818
  42
-0.081384996
  0
VERTEX
  5
128
  8
Layer_0
  10
12.120069
  20
177.05414
  42
-0.11039139
  0
VERTEX
  5
129
  8
Layer_0
  10
12.529737
  20
176.65961
  42
-0.041024848
  0
VERTEX
  5
12a
  8
Layer_0
  10
12.689404
  20
176.37396
  0
VERTEX
  5
12b
  8
Layer_0
  10
12.754346
  20
176.22699
  42
0.092182254
  0
VERTEX
  5
12c
  8
Layer_0
  10
12.862256
  20
176.07465
  42
0.1590369
  0
VERTEX
  5
12d
  8
Layer_0
  10
13.054639
  20
175.9809
  42
0.14055079
  0
VERTEX
  5
12e
  8
Layer_0
  10
13.407666
  20
176.02386
  42
0.21842733
  0
VERTEX
  5
12f
  8
Layer_0
  10
13.661572
  20
176.30707
  42
0.083032889
  0
VERTEX
  5
130
  8
Layer_0
  10
13.691358
  20
176.61029
  42
0.093435914
  0
VERTEX
  5
131
  8
Layer_0
  10
13.631299
  20
176.87006
  42
0.056890214
  0
VERTEX
  5
132
  8
Layer_0
  10
13.201123
  20
177.50482
  42
0.10062805
  0
VERTEX
  5
133
  8
Layer_0
  10
12.370557
  20
178.15326
  42
0.078503821
  0
VERTEX
  5
134
  8
Layer_0
  10
11.612256
  20
178.39301
  42
0.09114255
  0
VERTEX
  5
135
  8
Layer_0
  10
10.715283
  20
178.35883
  42
0.066250661
  0
VERTEX
  5
136
  8
Layer_0
  10
9.9042482
  20
178.05902
  42
0.054368254
  0
VERTEX
  5
137
  8
Layer_0
  10
9.2401857
  20
177.60931
  42
0.073777957
  0
VERTEX
  5
138
  8
Layer_0
  10
8.3905764
  20
176.66107
  42
0.091430356
  0
VERTEX
  5
139
  8
Layer_0
  10
7.7782717
  20
175.185
  42
0.066031299
  0
VERTEX
  5
13a
  8
Layer_0
  10
7.7040529
  20
174.1557
  42
0.068543188
  0
VERTEX
  5
13b
  8
Layer_0
  10
7.9218264
  20
172.94525
  42
0.056793229
  0
VERTEX
  5
13c
  8
Layer_0
  10
8.2587404
  20
172.20746
  42
0.13221479
  0
VERTEX
  5
13d
  8
Layer_0
  10
9.2636232
  20
171.23871
  42
0.080071833
  0
VERTEX
  5
13e
  8
Layer_0
  10
10.149365
  20
170.94037
  42
0.05110763
  0
SEQEND
  0
POLYLINE
  5
140
  8
Layer_0
  62
7
  70
1
  66
1
  10
0
  20
0
  30
0
  0
VERTEX
  5
140
  8
Layer_0
  10
-4.1001463
  20
175.24945
  42
-0.02420654
  0
VERTEX
  5
141
  8
Layer_0
  10
-3.5239744
  20
176.97992
  42
-0.011872144
  0
VERTEX
  5
142
  8
Layer_0
  10
-2.9058104
  20
178.47015
  0
VERTEX
  5
143
  8
Layer_0
  10
-2.7505369
  20
178.2182
  42
-0.0081220505
  0
VERTEX
  5
144
  8
Layer_0
  10
-2.0332518
  20
176.98431
  42
-0.022734252
  0
VERTEX
  5
145
  8
Layer_0
  10
-1.2026854
  20
175.26996
  0
VERTEX
  5
146
  8
Layer_0
  10
-4.1763182
  20
174.97455
  0
SEQEND
  0
POLYLINE
  5
148
  8
Layer_0
  62
7
  70
1
  66
1
  10
0
  20
0
  30
0
  0
VERTEX
  5
148
  8
Layer_0
  10
2.87251
  20
170.76703
  42
0.098231203
  0
VERTEX
  5
149
  8
Layer_0
  10
3.0561037
  20
170.84027
  42
0.052664684
  0
VERTEX
  5
14a
  8
Layer_0
  10
3.1879396
  20
170.935
  42
0.10444936
  0
VERTEX
  5
14b
  8
Layer_0
  10
3.2836428
  20
171.07806
  42
0.07566532
  0
VERTEX
  5
14c
  8
Layer_0
  10
3.3270998
  20
171.2724
  0
VERTEX
  5
14d
  8
Layer_0
  10
3.3300295
  20
171.34857
  0
VERTEX
  5
14e
  8
Layer_0
  10
3.3275881
  20
171.68158
  42
-0.014457886
  0
VERTEX
  5
14f
  8
Layer_0
  10
3.3612795
  20
173.30658
  42
-0.02615441
  0
VERTEX
  5
150
  8
Layer_0
  10
3.4545412
  20
174.23041
  42
-0.034760033
  0
VERTEX
  5
151
  8
Layer_0
  10
3.5770998
  20
174.77582
  42
-0.038503328
  0
VERTEX
  5
152
  8
Layer_0
  10
3.7294436
  20
175.16791
  42
-0.062147863
  0
VERTEX
  5
153
  8
Layer_0
  10
3.9105959
  20
175.45209
  42
-0.033431771
  0
VERTEX
  5
154
  8
Layer_0
  10
4.3808107
  20
175.92914
  42
-0.029987055
  0
VERTEX
  5
155
  8
Layer_0
  10
4.4291506
  20
175.97455
  42
-0.064241468
  0
VERTEX
  5
156
  8
Layer_0
  10
4.7089357
  20
176.13715
  42
-0.14968565
  0
VERTEX
  5
157
  8
Layer_0
  10
5.2270021
  20
176.17767
  42
-0.12187461
  0
VERTEX
  5
158
  8
Layer_0
  10
5.725049
  20
175.90814
  42
-0.067974244
  0
VERTEX
  5
159
  8
Layer_0
  10
5.9530764
  20
175.61127
  0
VERTEX
  5
15a
  8
Layer_0
  10
6.0058107
  20
175.51654
  0
VERTEX
  5
15b
  8
Layer_0
  10
6.0937014
  20
175.33783
  42
0.06908562
  0
VERTEX
  5
15c
  8
Layer_0
  10
6.21626
  20
175.15912
  42
0.10417634
  0
VERTEX
  5
15d
  8
Layer_0
  10
6.3563967
  20
175.05707
  42
0.19672023
  0
VERTEX
  5
15e
  8
Layer_0
  10
6.7079592
  20
175.06146
  42
0.049454411
  0
VERTEX
  5
15f
  8
Layer_0
  10
6.8051271
  20
175.11224
  42
0.095326942
  0
VERTEX
  5
160
  8
Layer_0
  10
6.9574709
  20
175.39594
  42
0.072416854
  0
VERTEX
  5
161
  8
Layer_0
  10
7.0141115
  20
175.66302
  42
0.064772898
  0
VERTEX
  5
162
  8
Layer_0
  10
6.981885
  20
176.00824
  42
0.022816935
  0
VERTEX
  5
163
  8
Layer_0
  10
6.9286623
  20
176.21088
  42
0.067938096
  0
VERTEX
  5
164
  8
Layer_0
  10
6.62251
  20
176.78607
  42
0.084396854
  0
VERTEX
  5
165
  8
Layer_0
  10
6.21626
  20
177.18451
  42
0.072480451
  0
VERTEX
  5
166
  8
Layer_0
  10
5.7108889
  20
177.45062
  42
0.13547549
  0
VERTEX
  5
167
  8
Layer_0
  10
4.665967
  20
177.50873
  42
0.059034345
  0
VERTEX
  5
168
  8
Layer_0
  10
4.2016115
  20
177.35687
  42
0.090342853
  0
VERTEX
  5
169
  8
Layer_0
  10
3.6898928
  20
176.98529
  42
0.063615936
  0
VERTEX
  5
16a
  8
Layer_0
  10
3.3808107
  20
176.58099
  42
0.082822514
  0
VERTEX
  5
16b
  8
Layer_0
  10
3.3334475
  20
176.45697
  0
VERTEX
  5
16c
  8
Layer_0
  10
3.3300295
  20
176.42377
  0
VERTEX
  5
16d
  8
Layer_0
  10
3.3300295
  20
177.93451
  42
0.067780476
  0
VERTEX
  5
16e
  8
Layer_0
  10
3.3041506
  20
178.15326
  42
0.064757203
  0
VERTEX
  5
16f
  8
Layer_0
  10
3.2577639
  20
178.26166
  42
0.081704012
  0
VERTEX
  5
170
  8
Layer_0
  10
3.1879396
  20
178.33978
  0
VERTEX
  5
171
  8
Layer_0
  10
3.1444826
  20
178.36713
  42
0.050098916
  0
VERTEX
  5
172
  8
Layer_0
  10
2.9052248
  20
178.46918
  0
VERTEX
  5
173
  8
Layer_0
  10
2.8422365
  20
178.48431
  42
0.18718688
  0
VERTEX
  5
174
  8
Layer_0
  10
2.5746584
  20
178.37982
  42
0.14217693
  0
VERTEX
  5
175
  8
Layer_0
  10
2.3910646
  20
178.08392
  42
0.074410119
  0
VERTEX
  5
176
  8
Layer_0
  10
2.3549318
  20
177.81097
  0
VERTEX
  5
177
  8
Layer_0
  10
2.3549318
  20
171.22504
  42
0.081029858
  0
VERTEX
  5
178
  8
Layer_0
  10
2.3808107
  20
171.04828
  42
0.1578516
  0
VERTEX
  5
179
  8
Layer_0
  10
2.4970217
  20
170.88763
  0
VERTEX
  5
17a
  8
Layer_0
  10
2.5404787
  20
170.86127
  42
0.056177309
  0
VERTEX
  5
17b
  8
Layer_0
  10
2.7450686
  20
170.77826
  42
0.091043748
  0
SEQEND
  0
POLYLINE
  5
17d
  8
Layer_0
  62
7
  70
1
  66
1
  10
0
  20
0
  30
0
  0
VERTEX
  5
17d
  8
Layer_0
  10
-5.1226072
  20
170.87787
  42
0.054326004
  0
VERTEX
  5
17e
  8
Layer_0
  10
-4.9966307
  20
170.90179
  42
0.16366372
  0
VERTEX
  5
17f
  8
Layer_0
  10
-4.7598143
  20
171.06732
  42
0.070683091
  0
VERTEX
  5
180
  8
Layer_0
  10
-4.6094236
  20
171.32465
  42
0.036463149
  0
VERTEX
  5
181
  8
Layer_0
  10
-4.5884275
  20
171.39691
  0
VERTEX
  5
182
  8
Layer_0
  10
-4.5522947
  20
171.71967
  42
-0.010408485
  0
VERTEX
  5
183
  8
Layer_0
  10
-4.4233885
  20
172.64984
  42
-0.0048209108
  0
VERTEX
  5
184
  8
Layer_0
  10
-4.2310057
  20
173.78656
  0
VERTEX
  5
185
  8
Layer_0
  10
-0.89360332
  20
174.17133
  42
-0.010830121
  0
VERTEX
  5
186
  8
Layer_0
  10
-0.41557598
  20
172.47455
  42
-0.0098353269
  0
VERTEX
  5
187
  8
Layer_0
  10
-0.24760723
  20
171.73627
  0
VERTEX
  5
188
  8
Layer_0
  10
-0.16215801
  20
171.30219
  42
0.13455561
  0
VERTEX
  5
189
  8
Layer_0
  10
-0.057665825
  20
171.11859
  42
0.094892686
  0
VERTEX
  5
18a
  8
Layer_0
  10
0.14643574
  20
170.98334
  42
0.083924002
  0
VERTEX
  5
18b
  8
Layer_0
  10
0.41547871
  20
170.90375
  42
0.18634667
  0
VERTEX
  5
18c
  8
Layer_0
  10
0.77729511
  20
170.99799
  42
0.17509325
  0
VERTEX
  5
18d
  8
Layer_0
  10
0.99506855
  20
171.33002
  42
0.10773377
  0
VERTEX
  5
18e
  8
Layer_0
  10
0.99506855
  20
171.55463
  42
0.013348856
  0
VERTEX
  5
18f
  8
Layer_0
  10
0.55463886
  20
173.38666
  42
0.021364169
  0
VERTEX
  5
190
  8
Layer_0
  10
-0.054247856
  20
175.32465
  42
0.017669038
  0
VERTEX
  5
191
  8
Layer_0
  10
-0.77788067
  20
177.16888
  0
VERTEX
  5
192
  8
Layer_0
  10
-0.89360332
  20
177.4267
  42
0.016112134
  0
VERTEX
  5
193
  8
Layer_0
  10
-1.4561033
  20
178.50677
  42
0.01695176
  0
VERTEX
  5
194
  8
Layer_0
  10
-1.7485838
  20
178.98871
  42
0.0070764945
  0
VERTEX
  5
195
  8
Layer_0
  10
-2.2466307
  20
179.73383
  42
0.011257561
  0
VERTEX
  5
196
  8
Layer_0
  10
-2.1367674
  20
179.93207
  0
VERTEX
  5
197
  8
Layer_0
  10
-2.1157713
  20
179.98138
  0
VERTEX
  5
198
  8
Layer_0
  10
-2.0679197
  20
180.05316
  0
VERTEX
  5
199
  8
Layer_0
  10
-2.0576658
  20
180.07465
  42
0.10500598
  0
VERTEX
  5
19a
  8
Layer_0
  10
-2.0518064
  20
180.38129
  42
0.088485385
  0
VERTEX
  5
19b
  8
Layer_0
  10
-2.1226072
  20
180.60541
  42
0.10794732
  0
VERTEX
  5
19c
  8
Layer_0
  10
-2.2256346
  20
180.72308
  42
0.07389387
  0
VERTEX
  5
19d
  8
Layer_0
  10
-2.4380369
  20
180.82269
  42
0.096076574
  0
VERTEX
  5
19e
  8
Layer_0
  10
-2.6411619
  20
180.84467
  42
0.080487533
  0
VERTEX
  5
19f
  8
Layer_0
  10
-2.834033
  20
180.79144
  42
0.098186232
  0
VERTEX
  5
1a0
  8
Layer_0
  10
-3.0752439
  20
180.63226
  42
0.045127541
  0
VERTEX
  5
1a1
  8
Layer_0
  10
-3.1392088
  20
180.55121
  0
VERTEX
  5
1a2
  8
Layer_0
  10
-3.5029783
  20
179.8681
  42
0.01980634
  0
VERTEX
  5
1a3
  8
Layer_0
  10
-3.8584471
  20
179.11664
  42
0.019261654
  0
VERTEX
  5
1a4
  8
Layer_0
  10
-4.4814939
  20
177.5014
  42
0.015519396
  0
VERTEX
  5
1a5
  8
Layer_0
  10
-5.0176268
  20
175.71039
  42
0.029579545
  0
VERTEX
  5
1a6
  8
Layer_0
  10
-5.5757322
  20
173.05023
  42
0.012557427
  0
VERTEX
  5
1a7
  8
Layer_0
  10
-5.774951
  20
171.46381
  42
0.13090592
  0
VERTEX
  5
1a8
  8
Layer_0
  10
-5.7109861
  20
171.18597
  42
0.098668193
  0
VERTEX
  5
1a9
  8
Layer_0
  10
-5.5537596
  20
170.98383
  42
0.13377877
  0
VERTEX
  5
1aa
  8
Layer_0
  10
-5.3291502
  20
170.88226
  42
0.05064468
  0
SEQEND
  0
POLYLINE
  5
1ac
  8
Layer_0
  62
7
  70
1
  66
1
  10
0
  20
0
  30
0
  0
VERTEX
  5
1ac
  8
Layer_0
  10
27.442333
  20
170.87933
  42
0.10585115
  0
VERTEX
  5
1ad
  8
Layer_0
  10
27.660595
  20
170.94672
  42
0.1496651
  0
VERTEX
  5
1ae
  8
Layer_0
  10
27.840282
  20
171.14252
  42
0.12313689
  0
VERTEX
  5
1af
  8
Layer_0
  10
27.914013
  20
171.49017
  42
0.034770219
  0
VERTEX
  5
1b0
  8
Layer_0
  10
27.902294
  20
171.62347
  0
VERTEX
  5
1b1
  8
Layer_0
  10
27.869579
  20
171.83392
  42
-0.025325552
  0
VERTEX
  5
1b2
  8
Layer_0
  10
27.746044
  20
173.20892
  42
-0.022546439
  0
VERTEX
  5
1b3
  8
Layer_0
  10
27.758251
  20
175.05756
  42
-0.0061966678
  0
VERTEX
  5
1b4
  8
Layer_0
  10
27.792431
  20
175.63422
  42
-0.022547579
  0
VERTEX
  5
1b5
  8
Layer_0
  10
28.328564
  20
180.28168
  0
VERTEX
  5
1b6
  8
Layer_0
  10
28.330029
  20
180.3349
  42
0.12420018
  0
VERTEX
  5
1b7
  8
Layer_0
  10
28.251415
  20
180.60101
  42
0.067830188
  0
VERTEX
  5
1b8
  8
Layer_0
  10
28.109814
  20
180.78607
  42
0.12765491
  0
VERTEX
  5
1b9
  8
Layer_0
  10
27.965771
  20
180.87445
  0
VERTEX
  5
1ba
  8
Layer_0
  10
27.929638
  20
180.8808
  0
VERTEX
  5
1bb
  8
Layer_0
  10
27.869091
  20
180.90082
  42
0.065725215
  0
VERTEX
  5
1bc
  8
Layer_0
  10
27.756298
  20
180.91449
  42
0.078221096
  0
VERTEX
  5
1bd
  8
Layer_0
  10
27.654247
  20
180.89398
  42
0.11322674
  0
VERTEX
  5
1be
  8
Layer_0
  10
27.520947
  20
180.79828
  42
0.068441843
  0
VERTEX
  5
1bf
  8
Layer_0
  10
27.371532
  20
180.58881
  42
0.069035227
  0
VERTEX
  5
1c0
  8
Layer_0
  10
27.33247
  20
180.47552
  0
VERTEX
  5
1c1
  8
Layer_0
  10
27.325146
  20
180.46039
  42
0.036872584
  0
VERTEX
  5
1c2
  8
Layer_0
  10
27.285107
  20
180.29828
  42
0.0083867905
  0
VERTEX
  5
1c3
  8
Layer_0
  10
27.227978
  20
179.97455
  42
0.0082425819
  0
VERTEX
  5
1c4
  8
Layer_0
  10
27.004833
  20
178.37006
  42
0.013769544
  0
VERTEX
  5
1c5
  8
Layer_0
  10
26.903759
  20
177.29193
  42
0.010707226
  0
VERTEX
  5
1c6
  8
Layer_0
  10
26.885693
  20
176.86322
  0
VERTEX
  5
1c7
  8
Layer_0
  10
26.838329
  20
176.89301
  42
0.011680178
  0
VERTEX
  5
1c8
  8
Layer_0
  10
26.310497
  20
177.15961
  42
0.076487893
  0
VERTEX
  5
1c9
  8
Layer_0
  10
25.615185
  20
177.34174
  42
0.028168063
  0
VERTEX
  5
1ca
  8
Layer_0
  10
25.203564
  20
177.36469
  42
0.1426231
  0
VERTEX
  5
1cb
  8
Layer_0
  10
23.487255
  20
176.75775
  42
0.094333161
  0
VERTEX
  5
1cc
  8
Layer_0
  10
22.850048
  20
176.08929
  42
0.014620925
  0
VERTEX
  5
1cd
  8
Layer_0
  10
22.690868
  20
175.83051
  42
0.07181064
  0
VERTEX
  5
1ce
  8
Layer_0
  10
22.321239
  20
174.87201
  42
0.087275175
  0
VERTEX
  5
1cf
  8
Layer_0
  10
22.234814
  20
173.2851
  42
0.073013496
  0
VERTEX
  5
1d0
  8
Layer_0
  10
22.498486
  20
172.32562
  42
0.09893837
  0
VERTEX
  5
1d1
  8
Layer_0
  10
23.112255
  20
171.45111
  42
0.098244693
  0
VERTEX
  5
1d2
  8
Layer_0
  10
23.762646
  20
171.03168
  42
0.081188042
  0
VERTEX
  5
1d3
  8
Layer_0
  10
24.365673
  20
170.90912
  42
0.043456416
  0
VERTEX
  5
1d4
  8
Layer_0
  10
25.169872
  20
170.93939
  42
0.054014463
  0
VERTEX
  5
1d5
  8
Layer_0
  10
25.706982
  20
171.06537
  42
0.057207091
  0
VERTEX
  5
1d6
  8
Layer_0
  10
26.049755
  20
171.23236
  42
0.047425814
  0
VERTEX
  5
1d7
  8
Layer_0
  10
26.688427
  20
171.76703
  42
0.02894097
  0
VERTEX
  5
1d8
  8
Layer_0
  10
26.831982
  20
171.93597
  0
VERTEX
  5
1d9
  8
Layer_0
  10
26.885693
  20
172.01459
  0
VERTEX
  5
1da
  8
Layer_0
  10
26.876415
  20
171.99896
  42
0.069932787
  0
VERTEX
  5
1db
  8
Layer_0
  10
26.858349
  20
171.90765
  42
0.04273029
  0
VERTEX
  5
1dc
  8
Layer_0
  10
26.878857
  20
171.4389
  42
0.030254656
  0
VERTEX
  5
1dd
  8
Layer_0
  10
26.903271
  20
171.31195
  42
0.15083461
  0
VERTEX
  5
1de
  8
Layer_0
  10
27.145947
  20
170.94623
  42
0.13558354
  0
VERTEX
  5
1df
  8
Layer_0
  10
27.32954
  20
170.87836
  42
0.051801843
  0
SEQEND
  0
POLYLINE
  5
1e1
  8
Layer_0
  62
7
  70
1
  66
1
  10
0
  20
0
  30
0
  0
VERTEX
  5
1e1
  8
Layer_0
  10
31.16206
  20
180.11713
  0
VERTEX
  5
1e2
  8
Layer_0
  10
31.121532
  20
180.12689
  42
-0.18289416
  0
VERTEX
  5
1e3
  8
Layer_0
  10
30.931103
  20
180.26947
  42
-0.15158283
  0
VERTEX
  5
1e4
  8
Layer_0
  10
30.834911
  20
180.56488
  42
-0.21697171
  0
VERTEX
  5
1e5
  8
Layer_0
  10
31.027294
  20
180.93011
  42
-0.18274941
  0
VERTEX
  5
1e6
  8
Layer_0
  10
31.260693
  20
180.99066
  42
-0.22468943
  0
VERTEX
  5
1e7
  8
Layer_0
  10
31.528271
  20
180.83978
  42
-0.25671796
  0
VERTEX
  5
1e8
  8
Layer_0
  10
31.592724
  20
180.41888
  42
-0.16531656
  0
VERTEX
  5
1e9
  8
Layer_0
  10
31.393017
  20
180.16254
  42
-0.1791214
  0
SEQEND
  0
POLYLINE
  5
1eb
  8
Layer_0
  62
7
  70
1
  66
1
  10
0
  20
0
  30
0
  0
VERTEX
  5
1eb
  8
Layer_0
  10
32.208935
  20
178.00238
  0
VERTEX
  5
1ec
  8
Layer_0
  10
32.222118
  20
178.01019
  0
VERTEX
  5
1ed
  8
Layer_0
  10
32.236767
  20
178.02289
  42
0.042628874
  0
VERTEX
  5
1ee
  8
Layer_0
  10
32.290478
  20
178.09271
  0
VERTEX
  5
1ef
  8
Layer_0
  10
32.320751
  20
178.15375
  42
-0.09217813
  0
VERTEX
  5
1f0
  8
Layer_0
  10
32.598583
  20
178.49359
  0
VERTEX
  5
1f1
  8
Layer_0
  10
32.661572
  20
178.54584
  0
VERTEX
  5
1f2
  8
Layer_0
  10
32.839306
  20
178.70111
  42
-0.018228343
  0
VERTEX
  5
1f3
  8
Layer_0
  10
33.05122
  20
178.87299
  42
-0.041292922
  0
VERTEX
  5
1f4
  8
Layer_0
  10
33.197216
  20
178.97162
  0
VERTEX
  5
1f5
  8
Layer_0
  10
33.31538
  20
179.02679
  42
0.040433286
  0
VERTEX
  5
1f6
  8
Layer_0
  10
33.80122
  20
179.30121
  42
0.053251506
  0
VERTEX
  5
1f7
  8
Layer_0
  10
34.061962
  20
179.52094
  42
0.087653781
  0
VERTEX
  5
1f8
  8
Layer_0
  10
34.209911
  20
179.74066
  42
0.056418905
  0
VERTEX
  5
1f9
  8
Layer_0
  10
34.241161
  20
179.85052
  42
0.057447428
  0
VERTEX
  5
1fa
  8
Layer_0
  10
34.257275
  20
180.23724
  42
0.078896713
  0
VERTEX
  5
1fb
  8
Layer_0
  10
34.182568
  20
180.55804
  42
0.13821869
  0
VERTEX
  5
1fc
  8
Layer_0
  10
33.899853
  20
180.91742
  42
0.038990936
  0
VERTEX
  5
1fd
  8
Layer_0
  10
33.760204
  20
181.00433
  42
0.14980697
  0
VERTEX
  5
1fe
  8
Layer_0
  10
33.249462
  20
181.02045
  42
0.11376796
  0
VERTEX
  5
1ff
  8
Layer_0
  10
32.872997
  20
180.80365
  42
0.04593881
  0
VERTEX
  5
200
  8
Layer_0
  10
32.679638
  20
180.59418
  42
0.044525156
  0
VERTEX
  5
201
  8
Layer_0
  10
32.428173
  20
180.19427
  0
VERTEX
  5
202
  8
Layer_0
  10
32.403271
  20
180.27582
  42
0.061863854
  0
VERTEX
  5
203
  8
Layer_0
  10
32.161572
  20
180.82611
  42
0.093766805
  0
VERTEX
  5
204
  8
Layer_0
  10
31.841259
  20
181.19086
  42
0.15732496
  0
VERTEX
  5
205
  8
Layer_0
  10
31.271435
  20
181.39008
  42
0.046104042
  0
VERTEX
  5
206
  8
Layer_0
  10
31.027294
  20
181.37543
  42
0.1033419
  0
VERTEX
  5
207
  8
Layer_0
  10
30.640575
  20
181.14008
  42
0.16284605
  0
VERTEX
  5
208
  8
Layer_0
  10
30.388622
  20
180.6474
  42
0.050583349
  0
VERTEX
  5
209
  8
Layer_0
  10
30.372997
  20
180.38129
  42
0.04482882
  0
VERTEX
  5
20a
  8
Layer_0
  10
30.422802
  20
180.01556
  42
0.076421825
  0
VERTEX
  5
20b
  8
Layer_0
  10
30.577587
  20
179.74847
  42
0.053678885
  0
VERTEX
  5
20c
  8
Layer_0
  10
30.922802
  20
179.40375
  42
0.030459969
  0
VERTEX
  5
20d
  8
Layer_0
  10
31.395458
  20
179.06097
  0
VERTEX
  5
20e
  8
Layer_0
  10
31.450146
  20
179.02045
  42
-0.045320969
  0
VERTEX
  5
20f
  8
Layer_0
  10
31.756298
  20
178.72113
  0
VERTEX
  5
210
  8
Layer_0
  10
31.873486
  20
178.58246
  42
-0.091391826
  0
VERTEX
  5
211
  8
Layer_0
  10
32.156689
  20
178.05511
  0
VERTEX
  5
212
  8
Layer_0
  10
32.167919
  20
178.03168
  0
VERTEX
  5
213
  8
Layer_0
  10
32.180614
  20
178.01019
  0
VERTEX
  5
214
  8
Layer_0
  10
32.188427
  20
178.00238
  0
VERTEX
  5
215
  8
Layer_0
  10
32.198193
  20
177.99994
  0
SEQEND
  0
POLYLINE
  5
217
  8
Layer_2
  62
1
  70
1
  66
1
  10
0
  20
0
  30
0
  0
VERTEX
  5
217
  8
Layer_2
  10
2.9633789
  20
168.76904
  42
0.097093604
  0
VERTEX
  5
218
  8
Layer_2
  10
3.8525391
  20
169
  42
0.076651036
  0
VERTEX
  5
219
  8
Layer_2
  10
4.5708008
  20
169.49023
  42
0.12266638
  0
VERTEX
  5
21a
  8
Layer_2
  10
5.1933594
  20
170.48145
  42
0.074648595
  0
VERTEX
  5
21b
  8
Layer_2
  10
5.3286133
  20
171.27197
  0
VERTEX
  5
21c
  8
Layer_2
  10
5.3300781
  20
171.36328
  0
VERTEX
  5
21d
  8
Layer_2
  10
5.3276367
  20
171.69629
  42
-0.016777309
  0
VERTEX
  5
21e
  8
Layer_2
  10
5.3657227
  20
173.31836
  42
0.040274358
  0
VERTEX
  5
21f
  8
Layer_2
  10
5.7109375
  20
173.16406
  42
0.014555373
  0
VERTEX
  5
220
  8
Layer_2
  10
5.8139648
  20
173.13086
  42
0.054652108
  0
VERTEX
  5
221
  8
Layer_2
  10
6.1992188
  20
171.85107
  42
0.068262209
  0
VERTEX
  5
222
  8
Layer_2
  10
6.9140625
  20
170.64893
  42
0.10896655
  0
VERTEX
  5
223
  8
Layer_2
  10
8.4707031
  20
169.39893
  42
0.087233117
  0
VERTEX
  5
224
  8
Layer_2
  10
10.137207
  20
168.92383
  42
0.075206669
  0
VERTEX
  5
225
  8
Layer_2
  10
11.788086
  20
168.99365
  42
0.10407648
  0
VERTEX
  5
226
  8
Layer_2
  10
14.041016
  20
169.91748
  42
0.16806576
  0
VERTEX
  5
227
  8
Layer_2
  10
16.836914
  20
168.87744
  42
0.058697615
  0
VERTEX
  5
228
  8
Layer_2
  10
18.279297
  20
168.99023
  42
0.045443045
  0
VERTEX
  5
229
  8
Layer_2
  10
19.325684
  20
169.30029
  42
0.059440711
  0
VERTEX
  5
22a
  8
Layer_2
  10
19.879395
  20
169.0542
  42
0.077987405
  0
VERTEX
  5
22b
  8
Layer_2
  10
20.762207
  20
168.91016
  42
0.064241622
  0
VERTEX
  5
22c
  8
Layer_2
  10
21.444336
  20
168.99707
  42
0.050215664
  0
VERTEX
  5
22d
  8
Layer_2
  10
22.071289
  20
169.21729
  42
0.047576527
  0
VERTEX
  5
22e
  8
Layer_2
  10
22.453125
  20
169.45459
  0
VERTEX
  5
22f
  8
Layer_2
  10
22.456055
  20
169.45264
  42
0.12702501
  0
VERTEX
  5
230
  8
Layer_2
  10
24.3125
  20
168.90967
  42
0.04917941
  0
VERTEX
  5
231
  8
Layer_2
  10
25.603516
  20
168.98193
  42
0.038657787
  0
VERTEX
  5
232
  8
Layer_2
  10
26.269043
  20
169.14502
  42
0.063580989
  0
VERTEX
  5
233
  8
Layer_2
  10
26.828125
  20
168.9375
  0
VERTEX
  5
234
  8
Layer_2
  10
26.986328
  20
168.90723
  42
0.071350499
  0
VERTEX
  5
235
  8
Layer_2
  10
27.713379
  20
168.89795
  42
0.11204971
  0
VERTEX
  5
236
  8
Layer_2
  10
28.764648
  20
169.27881
  0
VERTEX
  5
237
  8
Layer_2
  10
28.88916
  20
169.36475
  42
0.019400618
  0
VERTEX
  5
238
  8
Layer_2
  10
29.050293
  20
169.49512
  0
VERTEX
  5
239
  8
Layer_2
  10
29.17041
  20
169.60791
  42
0.018759031
  0
VERTEX
  5
23a
  8
Layer_2
  10
29.299316
  20
169.74805
  0
VERTEX
  5
23b
  8
Layer_2
  10
29.414551
  20
169.89404
  42
0.018001732
  0
VERTEX
  5
23c
  8
Layer_2
  10
29.510742
  20
170.03662
  0
VERTEX
  5
23d
  8
Layer_2
  10
29.602051
  20
170.19482
  42
0.047465149
  0
VERTEX
  5
23e
  8
Layer_2
  10
29.794922
  20
170.66699
  0
VERTEX
  5
23f
  8
Layer_2
  10
29.834961
  20
170.54785
  42
0.09470544
  0
VERTEX
  5
240
  8
Layer_2
  10
30.307617
  20
169.74268
  0
VERTEX
  5
241
  8
Layer_2
  10
30.430664
  20
169.61426
  42
0.030383629
  0
VERTEX
  5
242
  8
Layer_2
  10
30.629883
  20
169.44189
  42
0.018971165
  0
VERTEX
  5
243
  8
Layer_2
  10
30.783691
  20
169.33301
  42
0.079882604
  0
VERTEX
  5
244
  8
Layer_2
  10
31.626465
  20
168.9624
  42
0.026067248
  0
VERTEX
  5
245
  8
Layer_2
  10
31.961426
  20
168.89697
  42
0.030554448
  0
VERTEX
  5
246
  8
Layer_2
  10
32.279785
  20
168.875
  0
VERTEX
  5
247
  8
Layer_2
  10
32.445801
  20
168.87988
  42
0.01696762
  0
VERTEX
  5
248
  8
Layer_2
  10
32.60498
  20
168.89502
  0
VERTEX
  5
249
  8
Layer_2
  10
32.776367
  20
168.92529
  42
0.10938739
  0
VERTEX
  5
24a
  8
Layer_2
  10
33.736328
  20
169.35986
  42
0.11574625
  0
VERTEX
  5
24b
  8
Layer_2
  10
34.483887
  20
170.22852
  42
0.018012873
  0
VERTEX
  5
24c
  8
Layer_2
  10
34.568848
  20
170.41016
  0
VERTEX
  5
24d
  8
Layer_2
  10
34.630371
  20
170.56885
  0
VERTEX
  5
24e
  8
Layer_2
  10
34.645996
  20
170.61523
  42
0.01893576
  0
VERTEX
  5
24f
  8
Layer_2
  10
34.70459
  20
170.82617
  42
0.064885419
  0
VERTEX
  5
250
  8
Layer_2
  10
34.783203
  20
171.62451
  0
VERTEX
  5
251
  8
Layer_2
  10
34.72998
  20
172.89551
  42
-0.010239967
  0
VERTEX
  5
252
  8
Layer_2
  10
34.710938
  20
175.97852
  42
-0.006727124
  0
VERTEX
  5
253
  8
Layer_2
  10
34.729004
  20
176.60645
  0
VERTEX
  5
254
  8
Layer_2
  10
34.729004
  20
176.76074
  42
0.039823286
  0
VERTEX
  5
255
  8
Layer_2
  10
34.677734
  20
177.21631
  0
VERTEX
  5
256
  8
Layer_2
  10
34.635742
  20
177.39453
  0
VERTEX
  5
257
  8
Layer_2
  10
34.620605
  20
177.44775
  0
VERTEX
  5
258
  8
Layer_2
  10
34.618652
  20
177.4541
  0
VERTEX
  5
259
  8
Layer_2
  10
34.699707
  20
177.50195
  42
0.029820513
  0
VERTEX
  5
25a
  8
Layer_2
  10
35.115723
  20
177.78613
  42
0.071675723
  0
VERTEX
  5
25b
  8
Layer_2
  10
35.755859
  20
178.43848
  0
VERTEX
  5
25c
  8
Layer_2
  10
35.851563
  20
178.58057
  0
VERTEX
  5
25d
  8
Layer_2
  10
35.88623
  20
178.63721
  0
VERTEX
  5
25e
  8
Layer_2
  10
35.969238
  20
178.78662
  42
0.094930868
  0
VERTEX
  5
25f
  8
Layer_2
  10
36.237305
  20
179.69482
  42
0.078896783
  0
VERTEX
  5
260
  8
Layer_2
  10
36.196289
  20
180.77881
  42
0.039757606
  0
VERTEX
  5
261
  8
Layer_2
  10
36.061523
  20
181.24365
  42
0.15985509
  0
VERTEX
  5
262
  8
Layer_2
  10
34.946289
  20
182.62402
  42
0.042519935
  0
VERTEX
  5
263
  8
Layer_2
  10
34.533691
  20
182.84863
  42
0.045197334
  0
VERTEX
  5
264
  8
Layer_2
  10
34.069824
  20
182.98926
  42
0.074557879
  0
VERTEX
  5
265
  8
Layer_2
  10
33.226074
  20
183.03955
  42
0.038754508
  0
VERTEX
  5
266
  8
Layer_2
  10
32.782227
  20
182.96484
  0
VERTEX
  5
267
  8
Layer_2
  10
32.731445
  20
182.99463
  42
0.037721694
  0
VERTEX
  5
268
  8
Layer_2
  10
32.310059
  20
183.19434
  42
0.114727
  0
VERTEX
  5
269
  8
Layer_2
  10
30.928223
  20
183.37695
  42
0.038482245
  0
VERTEX
  5
26a
  8
Layer_2
  10
30.525879
  20
183.31152
  42
0.077230546
  0
VERTEX
  5
26b
  8
Layer_2
  10
29.692383
  20
182.9292
  42
0.040478719
  0
VERTEX
  5
26c
  8
Layer_2
  10
29.305664
  20
182.62939
  0
VERTEX
  5
26d
  8
Layer_2
  10
29.179199
  20
182.50537
  0
VERTEX
  5
26e
  8
Layer_2
  10
29.16748
  20
182.49268
  0
VERTEX
  5
26f
  8
Layer_2
  10
29.09082
  20
182.54346
  42
0.075576785
  0
VERTEX
  5
270
  8
Layer_2
  10
28.430176
  20
182.81982
  0
VERTEX
  5
271
  8
Layer_2
  10
28.376953
  20
182.83545
  42
0.028807919
  0
VERTEX
  5
272
  8
Layer_2
  10
28.048828
  20
182.89697
  42
0.051417579
  0
VERTEX
  5
273
  8
Layer_2
  10
27.580078
  20
182.90674
  0
VERTEX
  5
274
  8
Layer_2
  10
27.395508
  20
182.88428
  42
0.13474075
  0
VERTEX
  5
275
  8
Layer_2
  10
26.286621
  20
182.37744
  0
VERTEX
  5
276
  8
Layer_2
  10
26.191895
  20
182.2959
  42
0.095005182
  0
VERTEX
  5
277
  8
Layer_2
  10
25.544922
  20
181.40381
  42
0.033839855
  0
VERTEX
  5
278
  8
Layer_2
  10
25.42627
  20
181.08838
  0
VERTEX
  5
279
  8
Layer_2
  10
25.424316
  20
181.08105
  0
VERTEX
  5
27a
  8
Layer_2
  10
25.401855
  20
181.0083
  42
0.029721598
  0
VERTEX
  5
27b
  8
Layer_2
  10
25.288574
  20
180.49902
  42
0.0056533219
  0
VERTEX
  5
27c
  8
Layer_2
  10
25.250488
  20
180.27344
  42
0.0053998327
  0
VERTEX
  5
27d
  8
Layer_2
  10
25.117188
  20
179.36084
  42
0.055024373
  0
VERTEX
  5
27e
  8
Layer_2
  10
24.020508
  20
179.18848
  42
0.068846469
  0
VERTEX
  5
27f
  8
Layer_2
  10
22.70752
  20
178.63428
  42
0.040116602
  0
VERTEX
  5
280
  8
Layer_2
  10
22.414551
  20
178.90088
  0
VERTEX
  5
281
  8
Layer_2
  10
22.378418
  20
178.92822
  0
VERTEX
  5
282
  8
Layer_2
  10
22.231445
  20
179.0293
  0
VERTEX
  5
283
  8
Layer_2
  10
22.192383
  20
179.05371
  0
VERTEX
  5
284
  8
Layer_2
  10
22.035156
  20
179.14258
  0
VERTEX
  5
285
  8
Layer_2
  10
21.994629
  20
179.16309
  0
VERTEX
  5
286
  8
Layer_2
  10
21.838379
  20
179.23389
  0
VERTEX
  5
287
  8
Layer_2
  10
21.795898
  20
179.25098
  0
VERTEX
  5
288
  8
Layer_2
  10
21.624023
  20
179.31104
  42
0.033343164
  0
VERTEX
  5
289
  8
Layer_2
  10
21.339844
  20
179.38086
  0
VERTEX
  5
28a
  8
Layer_2
  10
21.15918
  20
179.40771
  42
0.027027598
  0
VERTEX
  5
28b
  8
Layer_2
  10
21.050781
  20
179.41699
  0
VERTEX
  5
28c
  8
Layer_2
  10
21.050293
  20
179.41748
  0
VERTEX
  5
28d
  8
Layer_2
  10
20.957031
  20
179.48047
  42
0.0587471
  0
VERTEX
  5
28e
  8
Layer_2
  10
19.822266
  20
180.05225
  42
0.026959315
  0
VERTEX
  5
28f
  8
Layer_2
  10
19.208008
  20
180.24707
  42
0.082102106
  0
VERTEX
  5
290
  8
Layer_2
  10
17.358887
  20
180.31494
  42
0.075587014
  0
VERTEX
  5
291
  8
Layer_2
  10
15.354004
  20
179.75439
  42
0.048410152
  0
VERTEX
  5
292
  8
Layer_2
  10
14.361328
  20
179.17969
  42
0.1494254
  0
VERTEX
  5
293
  8
Layer_2
  10
11.953613
  20
180.36377
  42
0.11111373
  0
VERTEX
  5
294
  8
Layer_2
  10
9.9736328
  20
180.23242
  42
0.087005693
  0
VERTEX
  5
295
  8
Layer_2
  10
8.2885742
  20
179.40283
  42
0.039966193
  0
VERTEX
  5
296
  8
Layer_2
  10
7.4995117
  20
178.72266
  42
0.076837936
  0
VERTEX
  5
297
  8
Layer_2
  10
6.4208984
  20
179.32031
  42
0.10497477
  0
VERTEX
  5
298
  8
Layer_2
  10
4.796875
  20
179.54199
  42
0.087261834
  0
VERTEX
  5
299
  8
Layer_2
  10
4.2094727
  20
180.06006
  0
VERTEX
  5
29a
  8
Layer_2
  10
4.0566406
  20
180.14697
  42
0.074864048
  0
VERTEX
  5
29b
  8
Layer_2
  10
3.1870117
  20
180.45459
  42
0.060933468
  0
VERTEX
  5
29c
  8
Layer_2
  10
2.7001953
  20
180.47949
  0
VERTEX
  5
29d
  8
Layer_2
  10
2.5371094
  20
180.46436
  42
0.033194394
  0
VERTEX
  5
29e
  8
Layer_2
  10
2.2543945
  20
180.41064
  0
VERTEX
  5
29f
  8
Layer_2
  10
2.0927734
  20
180.36328
  0
VERTEX
  5
2a0
  8
Layer_2
  10
2.0581055
  20
180.35156
  0
VERTEX
  5
2a1
  8
Layer_2
  10
1.9013672
  20
180.29102
  42
0.034073351
  0
VERTEX
  5
2a2
  8
Layer_2
  10
1.644043
  20
180.1626
  0
VERTEX
  5
2a3
  8
Layer_2
  10
1.4936523
  20
180.06787
  0
VERTEX
  5
2a4
  8
Layer_2
  10
1.4633789
  20
180.04688
  0
VERTEX
  5
2a5
  8
Layer_2
  10
1.328125
  20
179.94434
  0
VERTEX
  5
2a6
  8
Layer_2
  10
1.2998047
  20
179.9209
  42
0.034503687
  0
VERTEX
  5
2a7
  8
Layer_2
  10
1.0341797
  20
179.66309
  0
VERTEX
  5
2a8
  8
Layer_2
  10
0.92382813
  20
179.53027
  42
0.065372289
  0
VERTEX
  5
2a9
  8
Layer_2
  10
0.58007813
  20
178.94727
  0
VERTEX
  5
2aa
  8
Layer_2
  10
0.45654297
  20
179.1792
  42
0.018349529
  0
VERTEX
  5
2ab
  8
Layer_2
  10
0.010742188
  20
179.95068
  0
VERTEX
  5
2ac
  8
Layer_2
  10
-0.046875
  20
180.04053
  0
VERTEX
  5
2ad
  8
Layer_2
  10
-0.043457031
  20
180.08789
  42
0.062978749
  0
VERTEX
  5
2ae
  8
Layer_2
  10
-0.092285156
  20
180.78711
  42
0.030163151
  0
VERTEX
  5
2af
  8
Layer_2
  10
-0.1796875
  20
181.12842
  42
0.040955579
  0
VERTEX
  5
2b0
  8
Layer_2
  10
-0.36425781
  20
181.55859
  42
0.13502221
  0
VERTEX
  5
2b1
  8
Layer_2
  10
-1.2324219
  20
182.45996
  42
0.093410497
  0
VERTEX
  5
2b2
  8
Layer_2
  10
-2.1835938
  20
182.81201
  0
VERTEX
  5
2b3
  8
Layer_2
  10
-2.234375
  20
182.81982
  0
VERTEX
  5
2b4
  8
Layer_2
  10
-2.4057617
  20
182.83887
  42
0.058910585
  0
VERTEX
  5
2b5
  8
Layer_2
  10
-2.9819336
  20
182.81592
  0
VERTEX
  5
2b6
  8
Layer_2
  10
-3.1577148
  20
182.78223
  42
0.022011321
  0
VERTEX
  5
2b7
  8
Layer_2
  10
-3.390625
  20
182.71729
  0
VERTEX
  5
2b8
  8
Layer_2
  10
-3.5473633
  20
182.66064
  42
0.10294795
  0
VERTEX
  5
2b9
  8
Layer_2
  10
-4.4970703
  20
182.03906
  42
0.016642794
  0
VERTEX
  5
2ba
  8
Layer_2
  10
-4.6235352
  20
181.89941
  0
VERTEX
  5
2bb
  8
Layer_2
  10
-4.7314453
  20
181.7627
  42
0.038988248
  0
VERTEX
  5
2bc
  8
Layer_2
  10
-4.9042969
  20
181.49121
  42
0.0027817317
  0
VERTEX
  5
2bd
  8
Layer_2
  10
-5.2832031
  20
180.7793
  42
0.020465315
  0
VERTEX
  5
2be
  8
Layer_2
  10
-5.7026367
  20
179.89014
  42
0.019531456
  0
VERTEX
  5
2bf
  8
Layer_2
  10
-6.3837891
  20
178.11963
  0
VERTEX
  5
2c0
  8
Layer_2
  10
-6.5283203
  20
177.6748
  0
VERTEX
  5
2c1
  8
Layer_2
  10
-6.5371094
  20
177.64551
  0
VERTEX
  5
2c2
  8
Layer_2
  10
-6.6748047
  20
177.19873
  42
0.012778968
  0
VERTEX
  5
2c3
  8
Layer_2
  10
-7.1342773
  20
175.50586
  42
0.025337974
  0
VERTEX
  5
2c4
  8
Layer_2
  10
-7.6123047
  20
172.94092
  42
0.0089854383
  0
VERTEX
  5
2c5
  8
Layer_2
  10
-7.7636719
  20
171.67627
  0
VERTEX
  5
2c6
  8
Layer_2
  10
-7.7729492
  20
171.55176
  42
0.029982581
  0
VERTEX
  5
2c7
  8
Layer_2
  10
-7.7631836
  20
171.19922
  42
0.085118537
  0
VERTEX
  5
2c8
  8
Layer_2
  10
-7.5336914
  20
170.3623
  0
VERTEX
  5
2c9
  8
Layer_2
  10
-7.4521484
  20
170.20215
  0
VERTEX
  5
2ca
  8
Layer_2
  10
-7.4204102
  20
170.146
  0
VERTEX
  5
2cb
  8
Layer_2
  10
-7.3217773
  20
169.98926
  42
0.13790432
  0
VERTEX
  5
2cc
  8
Layer_2
  10
-6.2807617
  20
169.09961
  42
0.085210308
  0
VERTEX
  5
2cd
  8
Layer_2
  10
-5.4672852
  20
168.88623
  42
0.078603133
  0
VERTEX
  5
2ce
  8
Layer_2
  10
-4.5742188
  20
168.9458
  42
0.024372697
  0
VERTEX
  5
2cf
  8
Layer_2
  10
-4.3291016
  20
169.01611
  0
VERTEX
  5
2d0
  8
Layer_2
  10
-4.1640625
  20
169.07959
  42
0.018154948
  0
VERTEX
  5
2d1
  8
Layer_2
  10
-3.9907227
  20
169.16113
  0
VERTEX
  5
2d2
  8
Layer_2
  10
-3.9584961
  20
169.17822
  0
VERTEX
  5
2d3
  8
Layer_2
  10
-3.8046875
  20
169.26904
  42
0.020939615
  0
VERTEX
  5
2d4
  8
Layer_2
  10
-3.6352539
  20
169.38721
  0
VERTEX
  5
2d5
  8
Layer_2
  10
-3.503418
  20
169.49561
  42
0.057517076
  0
VERTEX
  5
2d6
  8
Layer_2
  10
-3.1074219
  20
169.93799
  42
0.072356948
  0
VERTEX
  5
2d7
  8
Layer_2
  10
-2.7094727
  20
170.7002
  42
0.052435451
  0
VERTEX
  5
2d8
  8
Layer_2
  10
-2.6005859
  20
171.17432
  0
VERTEX
  5
2d9
  8
Layer_2
  10
-2.5654297
  20
171.48926
  42
-0.0061748527
  0
VERTEX
  5
2da
  8
Layer_2
  10
-2.5029297
  20
171.97266
  0
VERTEX
  5
2db
  8
Layer_2
  10
-2.355957
  20
171.98975
  42
-0.0099853539
  0
VERTEX
  5
2dc
  8
Layer_2
  10
-2.206543
  20
171.33252
  0
VERTEX
  5
2dd
  8
Layer_2
  10
-2.1245117
  20
170.91602
  42
0.065959332
  0
VERTEX
  5
2de
  8
Layer_2
  10
-1.9179688
  20
170.32373
  42
0.044019146
  0
VERTEX
  5
2df
  8
Layer_2
  10
-1.6962891
  20
169.96387
  0
VERTEX
  5
2e0
  8
Layer_2
  10
-1.5957031
  20
169.83887
  42
0.061167383
  0
VERTEX
  5
2e1
  8
Layer_2
  10
-1.1362305
  20
169.42285
  0
VERTEX
  5
2e2
  8
Layer_2
  10
-0.99316406
  20
169.32813
  42
0.056288582
  0
VERTEX
  5
2e3
  8
Layer_2
  10
-0.37109375
  20
169.04053
  0
VERTEX
  5
2e4
  8
Layer_2
  10
-0.21044922
  20
168.99268
  0
VERTEX
  5
2e5
  8
Layer_2
  10
-0.14257813
  20
168.97559
  0
VERTEX
  5
2e6
  8
Layer_2
  10
0.028320313
  20
168.94043
  0
VERTEX
  5
2e7
  8
Layer_2
  10
0.098144531
  20
168.9292
  0
VERTEX
  5
2e8
  8
Layer_2
  10
0.27294922
  20
168.90869
  42
0.033111314
  0
VERTEX
  5
2e9
  8
Layer_2
  10
0.57226563
  20
168.90283
  0
VERTEX
  5
2ea
  8
Layer_2
  10
0.73681641
  20
168.91455
  42
0.052609898
  0
VERTEX
  5
2eb
  8
Layer_2
  10
1.2456055
  20
169.02197
  0
VERTEX
  5
2ec
  8
Layer_2
  10
1.4038086
  20
169.07861
  42
0.014179459
  0
VERTEX
  5
2ed
  8
Layer_2
  10
1.5336914
  20
169.13428
  42
0.084892926
  0
VERTEX
  5
2ee
  8
Layer_2
  10
2.4423828
  20
168.79883
  42
0.028505229
  0
VERTEX
  5
2ef
  8
Layer_2
  10
2.7495117
  20
168.76758
  0
VERTEX
  5
2f0
  8
Layer_2
  10
2.9311523
  20
168.76758
  0
SEQEND
  0
POLYLINE
  5
2f2
  8
Layer_0
  62
7
  70
1
  66
1
  10
0
  20
0
  30
0
  0
VERTEX
  5
2f2
  8
Layer_0
  10
9.6602802
  20
127.03424
  0
VERTEX
  5
2f3
  8
Layer_0
  10
9.5255146
  20
127.04401
  42
-0.037271571
  0
VERTEX
  5
2f4
  8
Layer_0
  10
9.2628193
  20
127.09283
  42
-0.054272025
  0
VERTEX
  5
2f5
  8
Layer_0
  10
8.8834248
  20
127.23688
  42
-0.031765215
  0
VERTEX
  5
2f6
  8
Layer_0
  10
8.6402607
  20
127.38092
  42
-0.11373043
  0
VERTEX
  5
2f7
  8
Layer_0
  10
8.0030537
  20
128.08112
  42
-0.045263466
  0
VERTEX
  5
2f8
  8
Layer_0
  10
7.8233657
  20
128.46979
  42
-0.062768543
  0
VERTEX
  5
2f9
  8
Layer_0
  10
7.632936
  20
129.24176
  42
-0.14175023
  0
VERTEX
  5
2fa
  8
Layer_0
  10
7.8433852
  20
130.51276
  42
-0.050670526
  0
VERTEX
  5
2fb
  8
Layer_0
  10
8.1197529
  20
130.98346
  42
-0.12243037
  0
VERTEX
  5
2fc
  8
Layer_0
  10
9.1348896
  20
131.80768
  42
-0.073423546
  0
VERTEX
  5
2fd
  8
Layer_0
  10
9.9293232
  20
132.05768
  42
-0.095544719
  0
VERTEX
  5
2fe
  8
Layer_0
  10
10.813112
  20
132.02399
  42
-0.01162418
  0
VERTEX
  5
2ff
  8
Layer_0
  10
11.065065
  20
131.96051
  42
-0.096105428
  0
VERTEX
  5
300
  8
Layer_0
  10
11.647097
  20
131.67291
  42
-0.081921946
  0
VERTEX
  5
301
  8
Layer_0
  10
11.970339
  20
131.32086
  42
-0.072755849
  0
VERTEX
  5
302
  8
Layer_0
  10
12.257448
  20
130.70465
  42
-0.029635617
  0
VERTEX
  5
303
  8
Layer_0
  10
12.359499
  20
130.28278
  42
-0.05853935
  0
VERTEX
  5
304
  8
Layer_0
  10
12.378054
  20
129.6319
  42
-0.058065738
  0
VERTEX
  5
305
  8
Layer_0
  10
12.242311
  20
128.98444
  42
-0.046907775
  0
VERTEX
  5
306
  8
Layer_0
  10
11.983522
  20
128.38531
  42
-0.051702479
  0
VERTEX
  5
307
  8
Layer_0
  10
11.631472
  20
127.87897
  42
-0.15158984
  0
VERTEX
  5
308
  8
Layer_0
  10
10.714479
  20
127.19928
  42
-0.046213114
  0
VERTEX
  5
309
  8
Layer_0
  10
10.171022
  20
127.05817
  42
-0.055490823
  0
SEQEND
  0
POLYLINE
  5
30b
  8
Layer_0
  62
7
  70
1
  66
1
  10
0
  20
0
  30
0
  0
VERTEX
  5
30b
  8
Layer_0
  10
2.195436
  20
127.03424
  42
-0.03685239
  0
VERTEX
  5
30c
  8
Layer_0
  10
1.9278579
  20
127.06354
  42
-0.070828598
  0
VERTEX
  5
30d
  8
Layer_0
  10
1.4180923
  20
127.23688
  42
-0.041130752
  0
VERTEX
  5
30e
  8
Layer_0
  10
1.1163344
  20
127.42291
  42
-0.11264192
  0
VERTEX
  5
30f
  8
Layer_0
  10
0.50061178
  20
128.14899
  42
-0.038087262
  0
VERTEX
  5
310
  8
Layer_0
  10
0.32629538
  20
128.55865
  42
-0.072209743
  0
VERTEX
  5
311
  8
Layer_0
  10
0.15490866
  20
129.40631
  42
-0.11544505
  0
VERTEX
  5
312
  8
Layer_0
  10
0.34338522
  20
130.43463
  42
-0.057654611
  0
VERTEX
  5
313
  8
Layer_0
  10
0.65490866
  20
130.98346
  42
-0.12283357
  0
VERTEX
  5
314
  8
Layer_0
  10
1.6700454
  20
131.80768
  42
-0.073649364
  0
VERTEX
  5
315
  8
Layer_0
  10
2.464479
  20
132.05768
  42
-0.095514336
  0
VERTEX
  5
316
  8
Layer_0
  10
3.348268
  20
132.02399
  42
-0.011626124
  0
VERTEX
  5
317
  8
Layer_0
  10
3.6002212
  20
131.96051
  42
-0.095812396
  0
VERTEX
  5
318
  8
Layer_0
  10
4.1822524
  20
131.67291
  42
-0.089466127
  0
VERTEX
  5
319
  8
Layer_0
  10
4.5440688
  20
131.26178
  42
-0.063922521
  0
VERTEX
  5
31a
  8
Layer_0
  10
4.7921157
  20
130.70465
  42
-0.031807681
  0
VERTEX
  5
31b
  8
Layer_0
  10
4.8941665
  20
130.28278
  42
-0.028133034
  0
VERTEX
  5
31c
  8
Layer_0
  10
4.9229751
  20
129.95709
  42
-0.044981055
  0
VERTEX
  5
31d
  8
Layer_0
  10
4.8936782
  20
129.46979
  42
-0.042000187
  0
VERTEX
  5
31e
  8
Layer_0
  10
4.7774673
  20
128.98444
  42
-0.046369369
  0
VERTEX
  5
31f
  8
Layer_0
  10
4.5181899
  20
128.38531
  42
-0.051902692
  0
VERTEX
  5
320
  8
Layer_0
  10
4.1661391
  20
127.87897
  42
-0.15153358
  0
VERTEX
  5
321
  8
Layer_0
  10
3.2496352
  20
127.19928
  42
-0.04613794
  0
VERTEX
  5
322
  8
Layer_0
  10
2.7061782
  20
127.05817
  42
-0.055422792
  0
SEQEND
  0
POLYLINE
  5
324
  8
Layer_0
  62
7
  70
1
  66
1
  10
0
  20
0
  30
0
  0
VERTEX
  5
324
  8
Layer_0
  10
9.6368427
  20
125.83258
  42
0.090690469
  0
VERTEX
  5
325
  8
Layer_0
  10
11.044069
  20
126.12408
  42
0.039507789
  0
VERTEX
  5
326
  8
Layer_0
  10
11.750612
  20
126.47369
  42
0.022262021
  0
VERTEX
  5
327
  8
Layer_0
  10
12.054323
  20
126.67584
  0
VERTEX
  5
328
  8
Layer_0
  10
12.193972
  20
126.78424
  0
VERTEX
  5
329
  8
Layer_0
  10
12.345339
  20
126.9151
  42
-0.079627972
  0
VERTEX
  5
32a
  8
Layer_0
  10
12.420046
  20
126.96198
  42
-0.1540152
  0
VERTEX
  5
32b
  8
Layer_0
  10
12.484499
  20
126.9693
  42
-0.18281138
  0
VERTEX
  5
32c
  8
Layer_0
  10
12.550417
  20
126.92145
  42
-0.075484482
  0
VERTEX
  5
32d
  8
Layer_0
  10
12.591433
  20
126.83844
  42
-0.058240274
  0
VERTEX
  5
32e
  8
Layer_0
  10
12.64319
  20
126.55133
  42
-0.021138445
  0
VERTEX
  5
32f
  8
Layer_0
  10
12.654421
  20
126.23053
  0
VERTEX
  5
330
  8
Layer_0
  10
12.657839
  20
126.17975
  42
0.16744181
  0
VERTEX
  5
331
  8
Layer_0
  10
12.732546
  20
126.01813
  42
0.10471043
  0
VERTEX
  5
332
  8
Layer_0
  10
12.85364
  20
125.94244
  42
0.050085397
  0
VERTEX
  5
333
  8
Layer_0
  10
13.081179
  20
125.8775
  42
0.10470365
  0
VERTEX
  5
334
  8
Layer_0
  10
13.369753
  20
125.88824
  42
0.032815034
  0
VERTEX
  5
335
  8
Layer_0
  10
13.585085
  20
125.9527
  42
0.25268023
  0
VERTEX
  5
336
  8
Layer_0
  10
13.798952
  20
126.1861
  42
0.042595569
  0
VERTEX
  5
337
  8
Layer_0
  10
13.818483
  20
126.28961
  0
VERTEX
  5
338
  8
Layer_0
  10
13.821901
  20
126.36823
  0
VERTEX
  5
339
  8
Layer_0
  10
13.842897
  20
131.86237
  42
0.15409865
  0
VERTEX
  5
33a
  8
Layer_0
  10
13.709597
  20
132.1983
  42
0.18476304
  0
VERTEX
  5
33b
  8
Layer_0
  10
13.397097
  20
132.37506
  42
0.09490758
  0
VERTEX
  5
33c
  8
Layer_0
  10
13.084597
  20
132.36285
  42
0.083262399
  0
VERTEX
  5
33d
  8
Layer_0
  10
12.980104
  20
132.31842
  0
VERTEX
  5
33e
  8
Layer_0
  10
12.927858
  20
132.28131
  0
VERTEX
  5
33f
  8
Layer_0
  10
12.901491
  20
132.2735
  0
VERTEX
  5
340
  8
Layer_0
  10
12.874147
  20
132.27496
  42
-0.12479535
  0
VERTEX
  5
341
  8
Layer_0
  10
12.817019
  20
132.30475
  42
-0.072844312
  0
VERTEX
  5
342
  8
Layer_0
  10
12.723269
  20
132.41852
  0
VERTEX
  5
343
  8
Layer_0
  10
12.689577
  20
132.45807
  42
0.046511424
  0
VERTEX
  5
344
  8
Layer_0
  10
12.464479
  20
132.64899
  42
0.047910151
  0
VERTEX
  5
345
  8
Layer_0
  10
11.869265
  20
133.00836
  42
0.039459938
  0
VERTEX
  5
346
  8
Layer_0
  10
11.192019
  20
133.25641
  42
0.076664912
  0
VERTEX
  5
347
  8
Layer_0
  10
10.065554
  20
133.29059
  42
0.074990937
  0
VERTEX
  5
348
  8
Layer_0
  10
8.6456318
  20
132.90387
  42
0.072750843
  0
VERTEX
  5
349
  8
Layer_0
  10
7.6573501
  20
132.27252
  42
0.055675161
  0
VERTEX
  5
34a
  8
Layer_0
  10
7.1837173
  20
131.75592
  0
VERTEX
  5
34b
  8
Layer_0
  10
7.0274673
  20
131.52936
  42
0.080474988
  0
VERTEX
  5
34c
  8
Layer_0
  10
6.5787368
  20
130.53912
  42
0.10839654
  0
VERTEX
  5
34d
  8
Layer_0
  10
6.461061
  20
128.67438
  42
0.072635369
  0
VERTEX
  5
34e
  8
Layer_0
  10
6.7554946
  20
127.71198
  42
0.013995923
  0
VERTEX
  5
34f
  8
Layer_0
  10
6.9093032
  20
127.41461
  42
0.12467847
  0
VERTEX
  5
350
  8
Layer_0
  10
8.0367451
  20
126.21344
  42
0.12263915
  0
VERTEX
  5
351
  8
Layer_0
  10
9.2086201
  20
125.84039
  0
VERTEX
  5
352
  8
Layer_0
  10
9.3170185
  20
125.83453
  42
0.01494564
  0
SEQEND
  0
POLYLINE
  5
354
  8
Layer_0
  62
7
  70
1
  66
1
  10
0
  20
0
  30
0
  0
VERTEX
  5
354
  8
Layer_0
  10
2.1719985
  20
125.83258
  42
0.090625498
  0
VERTEX
  5
355
  8
Layer_0
  10
3.5792251
  20
126.12408
  42
0.039418277
  0
VERTEX
  5
356
  8
Layer_0
  10
4.285768
  20
126.47369
  42
0.020781281
  0
VERTEX
  5
357
  8
Layer_0
  10
4.589479
  20
126.67584
  0
VERTEX
  5
358
  8
Layer_0
  10
4.7286391
  20
126.78424
  0
VERTEX
  5
359
  8
Layer_0
  10
4.8800063
  20
126.9151
  42
-0.079614632
  0
VERTEX
  5
35a
  8
Layer_0
  10
4.9547133
  20
126.96198
  42
-0.15297518
  0
VERTEX
  5
35b
  8
Layer_0
  10
5.0191665
  20
126.9693
  42
-0.18449665
  0
VERTEX
  5
35c
  8
Layer_0
  10
5.0850844
  20
126.92145
  42
-0.091379373
  0
VERTEX
  5
35d
  8
Layer_0
  10
5.1431899
  20
126.7818
  42
-0.047792625
  0
VERTEX
  5
35e
  8
Layer_0
  10
5.1842055
  20
126.45465
  42
-0.012003495
  0
VERTEX
  5
35f
  8
Layer_0
  10
5.1895766
  20
126.23053
  0
VERTEX
  5
360
  8
Layer_0
  10
5.1925063
  20
126.17975
  42
0.2570182
  0
VERTEX
  5
361
  8
Layer_0
  10
5.3419204
  20
125.96344
  0
VERTEX
  5
362
  8
Layer_0
  10
5.3887954
  20
125.94244
  42
0.050065635
  0
VERTEX
  5
363
  8
Layer_0
  10
5.6163344
  20
125.8775
  42
0.1049294
  0
VERTEX
  5
364
  8
Layer_0
  10
5.9044204
  20
125.88824
  42
0.032165555
  0
VERTEX
  5
365
  8
Layer_0
  10
6.1202407
  20
125.9527
  42
0.25074519
  0
VERTEX
  5
366
  8
Layer_0
  10
6.3341079
  20
126.1861
  42
0.048624191
  0
VERTEX
  5
367
  8
Layer_0
  10
6.3531508
  20
126.28961
  0
VERTEX
  5
368
  8
Layer_0
  10
6.3570571
  20
126.36823
  0
VERTEX
  5
369
  8
Layer_0
  10
6.3775649
  20
131.86237
  42
0.18006904
  0
VERTEX
  5
36a
  8
Layer_0
  10
6.2095962
  20
132.23639
  42
0.15827273
  0
VERTEX
  5
36b
  8
Layer_0
  10
5.9317641
  20
132.37506
  42
0.095033477
  0
VERTEX
  5
36c
  8
Layer_0
  10
5.6197524
  20
132.36285
  42
0.083816943
  0
VERTEX
  5
36d
  8
Layer_0
  10
5.5152602
  20
132.31842
  0
VERTEX
  5
36e
  8
Layer_0
  10
5.4630141
  20
132.28131
  0
VERTEX
  5
36f
  8
Layer_0
  10
5.4366469
  20
132.2735
  0
VERTEX
  5
370
  8
Layer_0
  10
5.4093032
  20
132.27496
  42
-0.12089292
  0
VERTEX
  5
371
  8
Layer_0
  10
5.351686
  20
132.30475
  42
-0.076167157
  0
VERTEX
  5
372
  8
Layer_0
  10
5.2584243
  20
132.41852
  0
VERTEX
  5
373
  8
Layer_0
  10
5.2247329
  20
132.45807
  42
0.047959219
  0
VERTEX
  5
374
  8
Layer_0
  10
4.9210219
  20
132.70514
  42
0.044240339
  0
VERTEX
  5
375
  8
Layer_0
  10
4.4044204
  20
133.00836
  42
0.039320285
  0
VERTEX
  5
376
  8
Layer_0
  10
3.726686
  20
133.25641
  42
0.076689312
  0
VERTEX
  5
377
  8
Layer_0
  10
2.6002212
  20
133.29059
  42
0.074829835
  0
VERTEX
  5
378
  8
Layer_0
  10
1.1802993
  20
132.90387
  42
0.072569087
  0
VERTEX
  5
379
  8
Layer_0
  10
0.19250631
  20
132.27252
  42
0.056846702
  0
VERTEX
  5
37a
  8
Layer_0
  10
-0.2811265
  20
131.75592
  0
VERTEX
  5
37b
  8
Layer_0
  10
-0.43786478
  20
131.52936
  42
0.080292497
  0
VERTEX
  5
37c
  8
Layer_0
  10
-0.88610697
  20
130.53912
  42
0.11688905
  0
VERTEX
  5
37d
  8
Layer_0
  10
-0.98083353
  20
128.54498
  42
0.065096026
  0
VERTEX
  5
37e
  8
Layer_0
  10
-0.70934916
  20
127.71198
  42
0.013989252
  0
VERTEX
  5
37f
  8
Layer_0
  10
-0.55554056
  20
127.41461
  42
0.1247386
  0
VERTEX
  5
380
  8
Layer_0
  10
0.57190084
  20
126.21344
  42
0.12288345
  0
VERTEX
  5
381
  8
Layer_0
  10
1.7437758
  20
125.84039
  0
VERTEX
  5
382
  8
Layer_0
  10
1.851686
  20
125.83453
  42
0.014908795
  0
SEQEND
  0
POLYLINE
  5
384
  8
Layer_0
  62
7
  70
1
  66
1
  10
0
  20
0
  30
0
  0
VERTEX
  5
384
  8
Layer_0
  10
17.257448
  20
125.85065
  42
0.040098512
  0
VERTEX
  5
385
  8
Layer_0
  10
17.818972
  20
125.91461
  42
0.067030848
  0
VERTEX
  5
386
  8
Layer_0
  10
18.783327
  20
126.21979
  42
0.081906034
  0
VERTEX
  5
387
  8
Layer_0
  10
19.906862
  20
126.99323
  42
0.092054534
  0
VERTEX
  5
388
  8
Layer_0
  10
20.091433
  20
127.29498
  42
0.16614392
  0
VERTEX
  5
389
  8
Layer_0
  10
20.130007
  20
127.65485
  42
0.062330223
  0
VERTEX
  5
38a
  8
Layer_0
  10
20.057741
  20
127.85846
  42
0.052314066
  0
VERTEX
  5
38b
  8
Layer_0
  10
19.970339
  20
127.95905
  42
0.10501733
  0
VERTEX
  5
38c
  8
Layer_0
  10
19.81946
  20
128.04987
  42
0.10384652
  0
VERTEX
  5
38d
  8
Layer_0
  10
19.645632
  20
128.06793
  42
0.12187004
  0
VERTEX
  5
38e
  8
Layer_0
  10
19.379519
  20
127.98004
  42
0.07853425
  0
VERTEX
  5
38f
  8
Layer_0
  10
19.261354
  20
127.87213
  0
VERTEX
  5
390
  8
Layer_0
  10
19.171511
  20
127.79401
  42
-0.074056107
  0
VERTEX
  5
391
  8
Layer_0
  10
18.317507
  20
127.25885
  42
-0.092362936
  0
VERTEX
  5
392
  8
Layer_0
  10
17.289186
  20
127.02106
  42
-0.12736989
  0
VERTEX
  5
393
  8
Layer_0
  10
16.245241
  20
127.2486
  0
VERTEX
  5
394
  8
Layer_0
  10
16.096315
  20
127.32867
  42
-0.14322395
  0
VERTEX
  5
395
  8
Layer_0
  10
15.441042
  20
128.01715
  42
-0.07938277
  0
VERTEX
  5
396
  8
Layer_0
  10
15.203249
  20
128.74323
  42
-0.069714523
  0
VERTEX
  5
397
  8
Layer_0
  10
15.17737
  20
129.73492
  42
-0.13253563
  0
VERTEX
  5
398
  8
Layer_0
  10
15.702272
  20
131.00592
  0
VERTEX
  5
399
  8
Layer_0
  10
15.842409
  20
131.17877
  42
-0.094920328
  0
VERTEX
  5
39a
  8
Layer_0
  10
16.689089
  20
131.85944
  42
-0.075899926
  0
VERTEX
  5
39b
  8
Layer_0
  10
17.494265
  20
132.1524
  42
-0.098457698
  0
VERTEX
  5
39c
  8
Layer_0
  10
18.149538
  20
132.15582
  42
-0.081969992
  0
VERTEX
  5
39d
  8
Layer_0
  10
18.532351
  20
132.01178
  42
-0.098857886
  0
VERTEX
  5
39e
  8
Layer_0
  10
18.897585
  20
131.67926
  42
-0.053732813
  0
VERTEX
  5
39f
  8
Layer_0
  10
19.102175
  20
131.3316
  0
VERTEX
  5
3a0
  8
Layer_0
  10
19.166628
  20
131.18463
  42
0.090272093
  0
VERTEX
  5
3a1
  8
Layer_0
  10
19.275026
  20
131.03229
  42
0.15905323
  0
VERTEX
  5
3a2
  8
Layer_0
  10
19.467409
  20
130.93854
  42
0.14052301
  0
VERTEX
  5
3a3
  8
Layer_0
  10
19.820436
  20
130.98151
  42
0.21695456
  0
VERTEX
  5
3a4
  8
Layer_0
  10
20.074343
  20
131.26471
  42
0.083034411
  0
VERTEX
  5
3a5
  8
Layer_0
  10
20.104128
  20
131.56793
  42
0.09075273
  0
VERTEX
  5
3a6
  8
Layer_0
  10
20.044069
  20
131.8277
  42
0.056889954
  0
VERTEX
  5
3a7
  8
Layer_0
  10
19.613894
  20
132.46246
  42
0.11231474
  0
VERTEX
  5
3a8
  8
Layer_0
  10
18.67737
  20
133.16022
  42
0.10334041
  0
VERTEX
  5
3a9
  8
Layer_0
  10
17.692019
  20
133.37653
  42
0.076393695
  0
VERTEX
  5
3aa
  8
Layer_0
  10
16.898561
  20
133.25641
  42
0.092065694
  0
VERTEX
  5
3ab
  8
Layer_0
  10
15.779421
  20
132.66901
  42
0.071501886
  0
VERTEX
  5
3ac
  8
Layer_0
  10
14.893679
  20
131.7525
  42
0.11049702
  0
VERTEX
  5
3ad
  8
Layer_0
  10
14.162233
  20
129.98883
  42
0.049262405
  0
VERTEX
  5
3ae
  8
Layer_0
  10
14.11194
  20
129.24371
  42
0.059915668
  0
VERTEX
  5
3af
  8
Layer_0
  10
14.266237
  20
128.13141
  42
0.070437883
  0
VERTEX
  5
3b0
  8
Layer_0
  10
14.671022
  20
127.1651
  42
0.11142753
  0
VERTEX
  5
3b1
  8
Layer_0
  10
15.48987
  20
126.30963
  42
0.061132447
  0
VERTEX
  5
3b2
  8
Layer_0
  10
16.039186
  20
126.03571
  42
0.055410437
  0
VERTEX
  5
3b3
  8
Layer_0
  10
16.699831
  20
125.87701
  42
0.040393523
  0
SEQEND
  0
POLYLINE
  5
3b5
  8
Layer_0
  62
7
  70
1
  66
1
  10
0
  20
0
  30
0
  0
VERTEX
  5
3b5
  8
Layer_0
  10
-4.3250718
  20
125.78082
  42
0.1372624
  0
VERTEX
  5
3b6
  8
Layer_0
  10
-2.7513413
  20
126.315
  42
0.091192814
  0
VERTEX
  5
3b7
  8
Layer_0
  10
-2.1331773
  20
126.94196
  42
0.10454454
  0
VERTEX
  5
3b8
  8
Layer_0
  10
-1.8568101
  20
127.63873
  42
0.030955748
  0
VERTEX
  5
3b9
  8
Layer_0
  10
-1.8226304
  20
128.23395
  42
0.07728603
  0
VERTEX
  5
3ba
  8
Layer_0
  10
-1.9320054
  20
128.79254
  42
0.067140709
  0
VERTEX
  5
3bb
  8
Layer_0
  10
-2.1815171
  20
129.21295
  42
0.073458213
  0
VERTEX
  5
3bc
  8
Layer_0
  10
-2.7020249
  20
129.71295
  42
0.037951771
  0
VERTEX
  5
3bd
  8
Layer_0
  10
-3.2313218
  20
130.02789
  0
VERTEX
  5
3be
  8
Layer_0
  10
-3.9857163
  20
130.39948
  0
VERTEX
  5
3bf
  8
Layer_0
  10
-4.1800523
  20
130.47565
  42
-0.027781501
  0
VERTEX
  5
3c0
  8
Layer_0
  10
-4.5975327
  20
130.67438
  42
-0.053359074
  0
VERTEX
  5
3c1
  8
Layer_0
  10
-4.8509507
  20
130.84381
  42
-0.083924024
  0
VERTEX
  5
3c2
  8
Layer_0
  10
-5.011107
  20
131.02985
  42
-0.07764144
  0
VERTEX
  5
3c3
  8
Layer_0
  10
-5.1009507
  20
131.26373
  42
-0.12846309
  0
VERTEX
  5
3c4
  8
Layer_0
  10
-5.0843492
  20
131.56696
  42
-0.035330528
  0
VERTEX
  5
3c5
  8
Layer_0
  10
-5.0086656
  20
131.76764
  42
-0.10834056
  0
VERTEX
  5
3c6
  8
Layer_0
  10
-4.8934312
  20
131.93121
  42
-0.18499027
  0
VERTEX
  5
3c7
  8
Layer_0
  10
-4.1741929
  20
132.26715
  42
-0.074035754
  0
VERTEX
  5
3c8
  8
Layer_0
  10
-3.4808335
  20
132.21442
  42
-0.022900315
  0
VERTEX
  5
3c9
  8
Layer_0
  10
-3.2371812
  20
132.15045
  42
-0.082689082
  0
VERTEX
  5
3ca
  8
Layer_0
  10
-2.9427476
  20
131.97369
  42
-0.063548402
  0
VERTEX
  5
3cb
  8
Layer_0
  10
-2.644896
  20
131.66071
  42
-0.069343181
  0
VERTEX
  5
3cc
  8
Layer_0
  10
-2.5379624
  20
131.45367
  42
-0.057473393
  0
VERTEX
  5
3cd
  8
Layer_0
  10
-2.5062242
  20
131.31451
  0
VERTEX
  5
3ce
  8
Layer_0
  10
-2.4984117
  20
131.17145
  42
0.10077589
  0
VERTEX
  5
3cf
  8
Layer_0
  10
-2.4437242
  20
130.98639
  42
0.11483561
  0
VERTEX
  5
3d0
  8
Layer_0
  10
-2.323607
  20
130.85211
  42
0.12473841
  0
VERTEX
  5
3d1
  8
Layer_0
  10
-2.0384507
  20
130.74615
  42
0.088591033
  0
VERTEX
  5
3d2
  8
Layer_0
  10
-1.870482
  20
130.75983
  0
VERTEX
  5
3d3
  8
Layer_0
  10
-1.7747788
  20
130.78815
  42
0.13551679
  0
VERTEX
  5
3d4
  8
Layer_0
  10
-1.5931382
  20
130.92535
  42
0.13339078
  0
VERTEX
  5
3d5
  8
Layer_0
  10
-1.4471421
  20
131.25934
  42
0.062210748
  0
VERTEX
  5
3d6
  8
Layer_0
  10
-1.4378648
  20
131.57379
  42
0.079652439
  0
VERTEX
  5
3d7
  8
Layer_0
  10
-1.6248765
  20
132.10895
  42
0.05650834
  0
VERTEX
  5
3d8
  8
Layer_0
  10
-2.0145249
  20
132.6734
  42
0.1179703
  0
VERTEX
  5
3d9
  8
Layer_0
  10
-2.9212632
  20
133.3111
  42
0.078867969
  0
VERTEX
  5
3da
  8
Layer_0
  10
-4.0311265
  20
133.48297
  42
0.043825647
  0
VERTEX
  5
3db
  8
Layer_0
  10
-4.632689
  20
133.43805
  42
0.11759892
  0
VERTEX
  5
3dc
  8
Layer_0
  10
-5.445189
  20
133.07281
  42
0.046170401
  0
VERTEX
  5
3dd
  8
Layer_0
  10
-5.7591538
  20
132.78424
  0
VERTEX
  5
3de
  8
Layer_0
  10
-5.8612046
  20
132.66705
  42
0.052810393
  0
VERTEX
  5
3df
  8
Layer_0
  10
-6.0218492
  20
132.41119
  42
0.052914539
  0
VERTEX
  5
3e0
  8
Layer_0
  10
-6.2781968
  20
131.69489
  42
0.029971074
  0
VERTEX
  5
3e1
  8
Layer_0
  10
-6.3284898
  20
131.39655
  42
0.031298693
  0
VERTEX
  5
3e2
  8
Layer_0
  10
-6.3406968
  20
131.10065
  42
0.048298105
  0
VERTEX
  5
3e3
  8
Layer_0
  10
-6.2860093
  20
130.66022
  42
0.14814554
  0
VERTEX
  5
3e4
  8
Layer_0
  10
-5.9437242
  20
130.0733
  42
0.05683103
  0
VERTEX
  5
3e5
  8
Layer_0
  10
-5.5169663
  20
129.7403
  42
0.047884071
  0
VERTEX
  5
3e6
  8
Layer_0
  10
-4.9403062
  20
129.45856
  42
0.019502488
  0
VERTEX
  5
3e7
  8
Layer_0
  10
-4.3494859
  20
129.25934
  0
VERTEX
  5
3e8
  8
Layer_0
  10
-3.854857
  20
129.06012
  42
-0.066189305
  0
VERTEX
  5
3e9
  8
Layer_0
  10
-3.3919663
  20
128.79889
  42
-0.049787858
  0
VERTEX
  5
3ea
  8
Layer_0
  10
-3.2488999
  20
128.66852
  42
-0.11591013
  0
VERTEX
  5
3eb
  8
Layer_0
  10
-3.1195054
  20
128.41119
  42
-0.045483284
  0
VERTEX
  5
3ec
  8
Layer_0
  10
-3.0872788
  20
128.21442
  42
-0.031796125
  0
VERTEX
  5
3ed
  8
Layer_0
  10
-3.085814
  20
127.98199
  42
-0.18757064
  0
VERTEX
  5
3ee
  8
Layer_0
  10
-3.4012437
  20
127.35016
  42
-0.14594522
  0
VERTEX
  5
3ef
  8
Layer_0
  10
-4.226439
  20
126.95905
  42
-0.058311264
  0
VERTEX
  5
3f0
  8
Layer_0
  10
-4.5404038
  20
126.95172
  0
VERTEX
  5
3f1
  8
Layer_0
  10
-4.7069077
  20
126.97223
  42
-0.052122494
  0
VERTEX
  5
3f2
  8
Layer_0
  10
-5.0750718
  20
127.07135
  42
-0.090728012
  0
VERTEX
  5
3f3
  8
Layer_0
  10
-5.3690171
  20
127.26422
  0
VERTEX
  5
3f4
  8
Layer_0
  10
-5.4578843
  20
127.35211
  42
-0.077411922
  0
VERTEX
  5
3f5
  8
Layer_0
  10
-5.6868882
  20
127.69196
  42
-0.072662999
  0
VERTEX
  5
3f6
  8
Layer_0
  10
-5.8182359
  20
128.09381
  42
-0.04016829
  0
VERTEX
  5
3f7
  8
Layer_0
  10
-5.8602281
  20
128.5108
  0
VERTEX
  5
3f8
  8
Layer_0
  10
-5.8680406
  20
128.57965
  42
0.093428262
  0
VERTEX
  5
3f9
  8
Layer_0
  10
-5.9505601
  20
128.81842
  42
0.10433342
  0
VERTEX
  5
3fa
  8
Layer_0
  10
-6.1146226
  20
128.9986
  42
0.11334907
  0
VERTEX
  5
3fb
  8
Layer_0
  10
-6.2811265
  20
129.06451
  42
0.087072992
  0
VERTEX
  5
3fc
  8
Layer_0
  10
-6.4803452
  20
129.05768
  0
VERTEX
  5
3fd
  8
Layer_0
  10
-6.6287827
  20
129.02155
  42
0.058175713
  0
VERTEX
  5
3fe
  8
Layer_0
  10
-6.7537827
  20
128.97076
  42
0.07970489
  0
VERTEX
  5
3ff
  8
Layer_0
  10
-6.8455796
  20
128.89948
  42
0.088154199
  0
VERTEX
  5
400
  8
Layer_0
  10
-6.9046617
  20
128.80768
  0
VERTEX
  5
401
  8
Layer_0
  10
-6.9212632
  20
128.75446
  42
0.05815068
  0
VERTEX
  5
402
  8
Layer_0
  10
-6.973021
  20
128.33209
  42
0.054488684
  0
VERTEX
  5
403
  8
Layer_0
  10
-6.8489976
  20
127.54205
  42
0.067002433
  0
VERTEX
  5
404
  8
Layer_0
  10
-6.5692124
  20
126.88092
  42
0.11180971
  0
VERTEX
  5
405
  8
Layer_0
  10
-5.8758531
  20
126.14899
  42
0.1023526
  0
VERTEX
  5
406
  8
Layer_0
  10
-5.0506577
  20
125.82477
  42
0.052786593
  0
SEQEND
  0
POLYLINE
  5
408
  8
Layer_0
  62
7
  70
1
  66
1
  10
0
  20
0
  30
0
  0
VERTEX
  5
408
  8
Layer_0
  10
-9.1175518
  20
125.83405
  42
0.03461546
  0
VERTEX
  5
409
  8
Layer_0
  10
-9.0447979
  20
125.84479
  42
0.042241742
  0
VERTEX
  5
40a
  8
Layer_0
  10
-8.8133526
  20
125.92194
  0
VERTEX
  5
40b
  8
Layer_0
  10
-8.7635479
  20
125.94781
  42
0.087145004
  0
VERTEX
  5
40c
  8
Layer_0
  10
-8.6820049
  20
126.0235
  0
VERTEX
  5
40d
  8
Layer_0
  10
-8.6502666
  20
126.07281
  42
0.063033503
  0
VERTEX
  5
40e
  8
Layer_0
  10
-8.6063213
  20
126.19489
  42
0.044657043
  0
VERTEX
  5
40f
  8
Layer_0
  10
-8.5867901
  20
126.34772
  0
VERTEX
  5
410
  8
Layer_0
  10
-8.5867901
  20
135.23395
  42
0.06388541
  0
VERTEX
  5
411
  8
Layer_0
  10
-8.6204815
  20
135.45856
  42
0.091098959
  0
VERTEX
  5
412
  8
Layer_0
  10
-8.7000713
  20
135.62701
  42
0.10335541
  0
VERTEX
  5
413
  8
Layer_0
  10
-8.8685284
  20
135.76813
  42
0.16306603
  0
VERTEX
  5
414
  8
Layer_0
  10
-9.1971416
  20
135.84332
  42
0.16072666
  0
VERTEX
  5
415
  8
Layer_0
  10
-9.5550518
  20
135.70123
  42
0.10770337
  0
VERTEX
  5
416
  8
Layer_0
  10
-9.6580791
  20
135.565
  42
0.077155645
  0
VERTEX
  5
417
  8
Layer_0
  10
-9.7083721
  20
135.37262
  0
VERTEX
  5
418
  8
Layer_0
  10
-9.7137432
  20
135.29645
  0
VERTEX
  5
419
  8
Layer_0
  10
-9.7132549
  20
126.3028
  42
0.19691216
  0
VERTEX
  5
41a
  8
Layer_0
  10
-9.584837
  20
126.01422
  42
0.14255104
  0
VERTEX
  5
41b
  8
Layer_0
  10
-9.2518291
  20
125.84137
  42
0.065615163
  0
SEQEND
  0
CIRCLE
  5
41d
  8
Layer_2
  62
1
  10
-20.071785
  20
115.18839
  30
0
  40
1.75
  0
POLYLINE
  5
41d
  8
Layer_2
  62
1
  70
1
  66
1
  10
0
  20
0
  30
0
  0
VERTEX
  5
41d
  8
Layer_2
  10
-17.78524
  20
111.90455
  42
-0.13695969
  0
VERTEX
  5
41e
  8
Layer_2
  10
-19.812334
  20
111.1962
  0
VERTEX
  5
41f
  8
Layer_2
  10
-19.918087
  20
111.19098
  0
VERTEX
  5
420
  8
Layer_2
  10
-20.013945
  20
111.18839
  42
-0.19904844
  0
VERTEX
  5
421
  8
Layer_2
  10
-22.859636
  20
112.31862
  42
-0.19904802
  0
VERTEX
  5
422
  8
Layer_2
  10
-24.071667
  20
115.13045
  42
-0.40741884
  0
VERTEX
  5
423
  8
Layer_2
  10
-20.225452
  20
119.18555
  42
-0.16322731
  0
VERTEX
  5
424
  8
Layer_2
  10
-17.785599
  20
118.47174
  0
VERTEX
  5
425
  8
Layer_2
  10
-17.785652
  20
119.48477
  42
-0.072564314
  0
VERTEX
  5
426
  8
Layer_2
  10
-17.666023
  20
120.27432
  0
VERTEX
  5
427
  8
Layer_2
  10
-17.611824
  20
120.43301
  42
-0.14165333
  0
VERTEX
  5
428
  8
Layer_2
  10
-16.812996
  20
121.50089
  0
VERTEX
  5
429
  8
Layer_2
  10
-16.669441
  20
121.60196
  42
-0.042155179
  0
VERTEX
  5
42a
  8
Layer_2
  10
-16.281258
  20
121.8129
  0
VERTEX
  5
42b
  8
Layer_2
  10
-16.11573
  20
121.87881
  42
-0.024134826
  0
VERTEX
  5
42c
  8
Layer_2
  10
-15.870125
  20
121.95352
  42
-0.067231892
  0
VERTEX
  5
42d
  8
Layer_2
  10
-15.137703
  20
122.03262
  0
VERTEX
  5
42e
  8
Layer_2
  10
-14.977547
  20
122.02237
  42
-0.019596463
  0
VERTEX
  5
42f
  8
Layer_2
  10
-14.77491
  20
121.99503
  0
VERTEX
  5
430
  8
Layer_2
  10
-14.732918
  20
121.98721
  0
VERTEX
  5
431
  8
Layer_2
  10
-14.57618
  20
121.95157
  0
VERTEX
  5
432
  8
Layer_2
  10
-14.534676
  20
121.94034
  0
VERTEX
  5
433
  8
Layer_2
  10
-14.370125
  20
121.88809
  42
-0.04389599
  0
VERTEX
  5
434
  8
Layer_2
  10
-13.974129
  20
121.70694
  42
-0.13271644
  0
VERTEX
  5
435
  8
Layer_2
  10
-13.030769
  20
120.8046
  42
-0.036661367
  0
VERTEX
  5
436
  8
Layer_2
  10
-12.862801
  20
120.46719
  0
VERTEX
  5
437
  8
Layer_2
  10
-12.798836
  20
120.29288
  42
-0.075884157
  0
VERTEX
  5
438
  8
Layer_2
  10
-12.658699
  20
119.42227
  0
VERTEX
  5
439
  8
Layer_2
  10
-12.658699
  20
118.90421
  42
-0.10760368
  0
VERTEX
  5
43a
  8
Layer_2
  10
-11.13868
  20
119.57852
  42
-0.04902578
  0
VERTEX
  5
43b
  8
Layer_2
  10
-10.122566
  20
119.6713
  42
-0.08279379
  0
VERTEX
  5
43c
  8
Layer_2
  10
-8.3164139
  20
119.38126
  42
-0.11006452
  0
VERTEX
  5
43d
  8
Layer_2
  10
-6.7255936
  20
118.33487
  42
-0.041321072
  0
VERTEX
  5
43e
  8
Layer_2
  10
-5.8813553
  20
118.83633
  42
-0.083937411
  0
VERTEX
  5
43f
  8
Layer_2
  10
-3.6782303
  20
119.46817
  42
-0.079753182
  0
VERTEX
  5
440
  8
Layer_2
  10
-1.8940506
  20
119.39297
  42
-0.027795794
  0
VERTEX
  5
441
  8
Layer_2
  10
-1.2822342
  20
119.2001
  42
-0.059263063
  0
VERTEX
  5
442
  8
Layer_2
  10
-0.14209747
  20
118.62637
  0
VERTEX
  5
443
  8
Layer_2
  10
-0.050788879
  20
118.56387
  0
VERTEX
  5
444
  8
Layer_2
  10
-0.0068435669
  20
118.56046
  42
-0.019498833
  0
VERTEX
  5
445
  8
Layer_2
  10
0.228508
  20
118.52921
  42
-0.023590296
  0
VERTEX
  5
446
  8
Layer_2
  10
0.45702362
  20
118.47696
  0
VERTEX
  5
447
  8
Layer_2
  10
0.62841034
  20
118.42227
  42
-0.018212165
  0
VERTEX
  5
448
  8
Layer_2
  10
0.77733612
  20
118.3627
  42
-0.038391061
  0
VERTEX
  5
449
  8
Layer_2
  10
1.5839767
  20
118.83633
  42
-0.081734436
  0
VERTEX
  5
44a
  8
Layer_2
  10
3.7241135
  20
119.46085
  42
-0.082331623
  0
VERTEX
  5
44b
  8
Layer_2
  10
5.5732346
  20
119.39297
  42
-0.022905056
  0
VERTEX
  5
44c
  8
Layer_2
  10
6.1122971
  20
119.22647
  42
-0.061347141
  0
VERTEX
  5
44d
  8
Layer_2
  10
7.322258
  20
118.62637
  0
VERTEX
  5
44e
  8
Layer_2
  10
7.4130783
  20
118.56534
  0
VERTEX
  5
44f
  8
Layer_2
  10
7.4155197
  20
118.56387
  0
VERTEX
  5
450
  8
Layer_2
  10
7.4584885
  20
118.56046
  42
-0.032625066
  0
VERTEX
  5
451
  8
Layer_2
  10
7.8246994
  20
118.50235
  42
-0.041854012
  0
VERTEX
  5
452
  8
Layer_2
  10
8.2553635
  20
118.3588
  0
VERTEX
  5
453
  8
Layer_2
  10
8.3359299
  20
118.32071
  0
VERTEX
  5
454
  8
Layer_2
  10
8.4545822
  20
118.41592
  42
-0.10805563
  0
VERTEX
  5
455
  8
Layer_2
  10
10.538567
  20
119.43839
  42
-0.11040725
  0
VERTEX
  5
456
  8
Layer_2
  10
12.501457
  20
119.47159
  42
-0.13992932
  0
VERTEX
  5
457
  8
Layer_2
  10
14.742668
  20
118.28799
  42
-0.071858385
  0
VERTEX
  5
458
  8
Layer_2
  10
15.657707
  20
117.10245
  42
-0.042633582
  0
VERTEX
  5
459
  8
Layer_2
  10
15.863762
  20
116.66837
  0
VERTEX
  5
45a
  8
Layer_2
  10
15.921867
  20
116.49356
  0
VERTEX
  5
45b
  8
Layer_2
  10
15.939934
  20
116.42911
  0
VERTEX
  5
45c
  8
Layer_2
  10
15.980949
  20
116.25333
  42
-0.063424635
  0
VERTEX
  5
45d
  8
Layer_2
  10
16.027824
  20
115.50089
  0
VERTEX
  5
45e
  8
Layer_2
  10
16.010246
  20
115.32217
  42
-0.020586246
  0
VERTEX
  5
45f
  8
Layer_2
  10
15.969231
  20
115.08194
  42
-0.12319593
  0
VERTEX
  5
460
  8
Layer_2
  10
15.454094
  20
114.01749
  0
VERTEX
  5
461
  8
Layer_2
  10
15.330559
  20
113.87979
  42
-0.014447064
  0
VERTEX
  5
462
  8
Layer_2
  10
15.223625
  20
113.7753
  0
VERTEX
  5
463
  8
Layer_2
  10
15.147453
  20
113.70987
  42
-0.015337439
  0
VERTEX
  5
464
  8
Layer_2
  10
15.198235
  20
113.66739
  0
VERTEX
  5
465
  8
Layer_2
  10
15.334465
  20
113.53946
  42
-0.051905735
  0
VERTEX
  5
466
  8
Layer_2
  10
15.675774
  20
113.11661
  42
-0.089117739
  0
VERTEX
  5
467
  8
Layer_2
  10
16.025383
  20
112.20303
  42
-0.066985721
  0
VERTEX
  5
468
  8
Layer_2
  10
16.064934
  20
111.53262
  0
VERTEX
  5
469
  8
Layer_2
  10
16.046379
  20
111.36221
  42
-0.023822657
  0
VERTEX
  5
46a
  8
Layer_2
  10
16.000481
  20
111.12051
  0
VERTEX
  5
46b
  8
Layer_2
  10
15.955559
  20
110.95694
  42
-0.033726945
  0
VERTEX
  5
46c
  8
Layer_2
  10
15.820305
  20
110.60977
  0
VERTEX
  5
46d
  8
Layer_2
  10
15.738274
  20
110.4418
  0
VERTEX
  5
46e
  8
Layer_2
  10
15.695793
  20
110.36417
  0
VERTEX
  5
46f
  8
Layer_2
  10
15.598625
  20
110.2045
  42
-0.045012668
  0
VERTEX
  5
470
  8
Layer_2
  10
15.280266
  20
109.79922
  42
-0.11679553
  0
VERTEX
  5
471
  8
Layer_2
  10
12.878899
  20
108.32803
  42
-0.047000011
  0
VERTEX
  5
472
  8
Layer_2
  10
11.730461
  20
108.07706
  42
-0.099807891
  0
VERTEX
  5
473
  8
Layer_2
  10
9.6074142
  20
108.24014
  42
-0.047318571
  0
VERTEX
  5
474
  8
Layer_2
  10
8.7705002
  20
108.56631
  42
-0.04170699
  0
VERTEX
  5
475
  8
Layer_2
  10
8.4365158
  20
108.36319
  42
-0.050224171
  0
VERTEX
  5
476
  8
Layer_2
  10
7.8095627
  20
108.14297
  42
-0.069644505
  0
VERTEX
  5
477
  8
Layer_2
  10
7.0546799
  20
108.05704
  42
-0.065739109
  0
VERTEX
  5
478
  8
Layer_2
  10
6.3012619
  20
108.18253
  42
-0.063336486
  0
VERTEX
  5
479
  8
Layer_2
  10
5.6909103
  20
108.4462
  42
-0.045573065
  0
VERTEX
  5
47a
  8
Layer_2
  10
4.6445236
  20
108.13614
  42
-0.060742914
  0
VERTEX
  5
47b
  8
Layer_2
  10
3.1371994
  20
108.02579
  42
-0.10860252
  0
VERTEX
  5
47c
  8
Layer_2
  10
1.2387619
  20
108.51895
  42
-0.029479911
  0
VERTEX
  5
47d
  8
Layer_2
  10
0.97167206
  20
108.36319
  42
-0.050220619
  0
VERTEX
  5
47e
  8
Layer_2
  10
0.34423065
  20
108.14297
  42
-0.06962881
  0
VERTEX
  5
47f
  8
Layer_2
  10
-0.41016388
  20
108.05704
  42
-0.065739045
  0
VERTEX
  5
480
  8
Layer_2
  10
-1.1635818
  20
108.18253
  42
-0.061045747
  0
VERTEX
  5
481
  8
Layer_2
  10
-1.77491
  20
108.44571
  42
-0.052824051
  0
VERTEX
  5
482
  8
Layer_2
  10
-2.9975662
  20
108.10342
  42
-0.053044701
  0
VERTEX
  5
483
  8
Layer_2
  10
-4.3286209
  20
108.02579
  42
-0.11709285
  0
VERTEX
  5
484
  8
Layer_2
  10
-6.3603592
  20
108.58975
  42
-0.054700064
  0
VERTEX
  5
485
  8
Layer_2
  10
-7.2378006
  20
109.21573
  42
-0.023094136
  0
VERTEX
  5
486
  8
Layer_2
  10
-7.5463943
  20
108.95987
  42
-0.14514621
  0
VERTEX
  5
487
  8
Layer_2
  10
-10.249031
  20
107.97452
  0
VERTEX
  5
488
  8
Layer_2
  10
-10.359383
  20
107.96964
  42
-0.048385649
  0
VERTEX
  5
489
  8
Layer_2
  10
-11.400887
  20
108.03262
  42
-0.11948512
  0
VERTEX
  5
48a
  8
Layer_2
  10
-13.211433
  20
108.78214
  0
VERTEX
  5
48b
  8
Layer_2
  10
-13.294441
  20
108.84464
  0
VERTEX
  5
48c
  8
Layer_2
  10
-13.339851
  20
108.79385
  42
-0.030131315
  0
VERTEX
  5
48d
  8
Layer_2
  10
-13.525398
  20
108.62149
  0
VERTEX
  5
48e
  8
Layer_2
  10
-13.663094
  20
108.51553
  42
-0.016743806
  0
VERTEX
  5
48f
  8
Layer_2
  10
-13.804207
  20
108.42227
  0
VERTEX
  5
490
  8
Layer_2
  10
-13.913094
  20
108.36124
  42
-0.058064208
  0
VERTEX
  5
491
  8
Layer_2
  10
-14.605476
  20
108.09952
  0
VERTEX
  5
492
  8
Layer_2
  10
-14.770515
  20
108.06339
  42
-0.083987521
  0
VERTEX
  5
493
  8
Layer_2
  10
-15.610359
  20
108.0502
  0
VERTEX
  5
494
  8
Layer_2
  10
-15.794441
  20
108.08585
  42
-0.1080177
  0
VERTEX
  5
495
  8
Layer_2
  10
-16.827644
  20
108.57559
  42
-0.019804033
  0
VERTEX
  5
496
  8
Layer_2
  10
-16.986824
  20
108.70889
  0
VERTEX
  5
497
  8
Layer_2
  10
-17.118172
  20
108.83682
  0
VERTEX
  5
498
  8
Layer_2
  10
-17.146004
  20
108.86661
  0
VERTEX
  5
499
  8
Layer_2
  10
-17.25782
  20
108.99796
  42
-0.05556105
  0
VERTEX
  5
49a
  8
Layer_2
  10
-17.538094
  20
109.43985
  0
VERTEX
  5
49b
  8
Layer_2
  10
-17.612801
  20
109.60831
  0
VERTEX
  5
49c
  8
Layer_2
  10
-17.627449
  20
109.6459
  0
VERTEX
  5
49d
  8
Layer_2
  10
-17.68409
  20
109.8129
  42
-0.0354861
  0
VERTEX
  5
49e
  8
Layer_2
  10
-17.753426
  20
110.11417
  0
VERTEX
  5
49f
  8
Layer_2
  10
-17.77491
  20
110.28262
  0
VERTEX
  5
4a0
  8
Layer_2
  10
-17.778328
  20
110.32315
  0
VERTEX
  5
4a1
  8
Layer_2
  10
-17.785164
  20
110.49112
  0
SEQEND
  0
ENDSEC
  0
EOF
