  0
SECTION
  2
HEADER
  9
$ACADVER
  1
AC1009
  0
ENDSEC
  0
SECTION
  2
TABLES
  0
TABLE
  2
LAYER
  70
2
  0
LAYER
  2
Layer_2
  70
0
  62
1
  6
CONTINUOUS
  0
LAYER
  2
Layer_31
  70
0
  62
142
  6
CONTINUOUS
  0
ENDTAB
  0
ENDSEC
  0
SECTION
  2
ENTITIES
  0
POLYLINE
  5
90
  8
Layer_31
  62
142
  70
1
  66
1
  10
0
  20
0
  30
0
  0
VERTEX
  5
90
  8
Layer_31
  10
35.36647
  20
260.68298
  42
0.19892876
  0
VERTEX
  5
91
  8
Layer_31
  10
35.321434
  20
260.66797
  0
VERTEX
  5
92
  8
Layer_31
  10
34.38952
  20
260.02001
  0
VERTEX
  5
93
  8
Layer_31
  10
33.390054
  20
259.32702
  0
VERTEX
  5
94
  8
Layer_31
  10
32.385587
  20
260.02001
  0
VERTEX
  5
95
  8
Layer_31
  10
31.448668
  20
260.66798
  42
0.14806661
  0
VERTEX
  5
96
  8
Layer_31
  10
31.403635
  20
260.68298
  0
VERTEX
  5
97
  8
Layer_31
  10
29.697414
  20
260.68298
  42
0.33485914
  0
VERTEX
  5
98
  8
Layer_31
  10
29.617357
  20
260.62296
  0
VERTEX
  5
99
  8
Layer_31
  10
29.614856
  20
260.61043
  0
VERTEX
  5
9a
  8
Layer_31
  10
29.612354
  20
260.59792
  42
0.23607863
  0
VERTEX
  5
9b
  8
Layer_31
  10
29.647379
  20
260.53287
  0
VERTEX
  5
9c
  8
Layer_31
  10
29.676364
  20
260.51329
  0
VERTEX
  5
9d
  8
Layer_31
  10
29.758465
  20
260.45781
  0
VERTEX
  5
9e
  8
Layer_31
  10
29.886404
  20
260.37133
  0
VERTEX
  5
9f
  8
Layer_31
  10
30.052904
  20
260.25878
  0
VERTEX
  5
a0
  8
Layer_31
  10
30.472471
  20
259.97508
  0
VERTEX
  5
a1
  8
Layer_31
  10
30.958942
  20
259.64599
  0
VERTEX
  5
a2
  8
Layer_31
  10
31.454091
  20
259.31081
  0
VERTEX
  5
a3
  8
Layer_31
  10
31.899693
  20
259.00882
  0
VERTEX
  5
a4
  8
Layer_31
  10
32.085719
  20
258.88255
  0
VERTEX
  5
a5
  8
Layer_31
  10
32.237523
  20
258.7793
  0
VERTEX
  5
a6
  8
Layer_31
  10
32.347828
  20
258.70399
  0
VERTEX
  5
a7
  8
Layer_31
  10
32.409355
  20
258.66154
  0
VERTEX
  5
a8
  8
Layer_31
  10
32.344362
  20
258.61839
  0
VERTEX
  5
a9
  8
Layer_31
  10
32.225982
  20
258.53941
  0
VERTEX
  5
aa
  8
Layer_31
  10
32.062159
  20
258.42993
  0
VERTEX
  5
ab
  8
Layer_31
  10
31.860838
  20
258.29526
  0
VERTEX
  5
ac
  8
Layer_31
  10
31.377484
  20
257.97172
  0
VERTEX
  5
ad
  8
Layer_31
  10
30.839482
  20
257.61141
  0
VERTEX
  5
ae
  8
Layer_31
  10
30.310393
  20
257.25697
  0
VERTEX
  5
af
  8
Layer_31
  10
29.853778
  20
256.95102
  0
VERTEX
  5
b0
  8
Layer_31
  10
29.67251
  20
256.82955
  0
VERTEX
  5
b1
  8
Layer_31
  10
29.533197
  20
256.73619
  0
VERTEX
  5
b2
  8
Layer_31
  10
29.443782
  20
256.67626
  0
VERTEX
  5
b3
  8
Layer_31
  10
29.412212
  20
256.65511
  42
0.26344714
  0
VERTEX
  5
b4
  8
Layer_31
  10
29.377186
  20
256.58505
  42
0.11644113
  0
VERTEX
  5
b5
  8
Layer_31
  10
29.382191
  20
256.56003
  42
0.33485876
  0
VERTEX
  5
b6
  8
Layer_31
  10
29.462246
  20
256.5
  0
VERTEX
  5
b7
  8
Layer_31
  10
31.203491
  20
256.5
  42
0.19892174
  0
VERTEX
  5
b8
  8
Layer_31
  10
31.248524
  20
256.51501
  0
VERTEX
  5
b9
  8
Layer_31
  10
32.283014
  20
257.23114
  0
VERTEX
  5
ba
  8
Layer_31
  10
33.385052
  20
257.99607
  0
VERTEX
  5
bb
  8
Layer_31
  10
34.477083
  20
257.23302
  0
VERTEX
  5
bc
  8
Layer_31
  10
35.501565
  20
256.51501
  42
0.14806024
  0
VERTEX
  5
bd
  8
Layer_31
  10
35.5466
  20
256.5
  0
VERTEX
  5
be
  8
Layer_31
  10
37.25782
  20
256.5
  42
0.33485876
  0
VERTEX
  5
bf
  8
Layer_31
  10
37.337879
  20
256.56003
  42
0.11644113
  0
VERTEX
  5
c0
  8
Layer_31
  10
37.34288
  20
256.58505
  42
0.23607711
  0
VERTEX
  5
c1
  8
Layer_31
  10
37.307858
  20
256.65012
  0
VERTEX
  5
c2
  8
Layer_31
  10
37.276457
  20
256.67126
  0
VERTEX
  5
c3
  8
Layer_31
  10
37.187527
  20
256.73119
  0
VERTEX
  5
c4
  8
Layer_31
  10
37.048977
  20
256.82455
  0
VERTEX
  5
c5
  8
Layer_31
  10
36.868715
  20
256.94602
  0
VERTEX
  5
c6
  8
Layer_31
  10
36.414689
  20
257.25197
  0
VERTEX
  5
c7
  8
Layer_31
  10
35.888717
  20
257.60641
  0
VERTEX
  5
c8
  8
Layer_31
  10
35.354068
  20
257.96672
  0
VERTEX
  5
c9
  8
Layer_31
  10
34.874008
  20
258.29026
  0
VERTEX
  5
ca
  8
Layer_31
  10
34.67422
  20
258.42492
  0
VERTEX
  5
cb
  8
Layer_31
  10
34.511805
  20
258.53441
  0
VERTEX
  5
cc
  8
Layer_31
  10
34.394672
  20
258.61339
  0
VERTEX
  5
cd
  8
Layer_31
  10
34.330728
  20
258.65654
  0
VERTEX
  5
ce
  8
Layer_31
  10
34.392368
  20
258.69817
  0
VERTEX
  5
cf
  8
Layer_31
  10
34.50299
  20
258.77286
  0
VERTEX
  5
d0
  8
Layer_31
  10
34.655288
  20
258.87568
  0
VERTEX
  5
d1
  8
Layer_31
  10
34.841953
  20
259.00171
  0
VERTEX
  5
d2
  8
Layer_31
  10
35.289158
  20
259.30361
  0
VERTEX
  5
d3
  8
Layer_31
  10
35.786144
  20
259.63912
  0
VERTEX
  5
d4
  8
Layer_31
  10
36.274452
  20
259.96876
  0
VERTEX
  5
d5
  8
Layer_31
  10
36.695622
  20
260.25307
  0
VERTEX
  5
d6
  8
Layer_31
  10
36.862762
  20
260.3659
  0
VERTEX
  5
d7
  8
Layer_31
  10
36.991195
  20
260.4526
  0
VERTEX
  5
d8
  8
Layer_31
  10
37.073613
  20
260.50823
  0
VERTEX
  5
d9
  8
Layer_31
  10
37.10271
  20
260.52788
  42
0.26344856
  0
VERTEX
  5
da
  8
Layer_31
  10
37.137733
  20
260.59793
  42
0.11643382
  0
VERTEX
  5
db
  8
Layer_31
  10
37.132732
  20
260.62296
  42
0.33485914
  0
VERTEX
  5
dc
  8
Layer_31
  10
37.052673
  20
260.68298
  0
VERTEX
  5
dd
  8
Layer_31
  10
35.36647
  20
260.68298
  0
SEQEND
  0
POLYLINE
  5
df
  8
Layer_31
  62
142
  70
1
  66
1
  10
0
  20
0
  30
0
  0
VERTEX
  5
df
  8
Layer_31
  10
21.971889
  20
260.68298
  42
0.23606569
  0
VERTEX
  5
e0
  8
Layer_31
  10
21.906841
  20
260.65295
  0
VERTEX
  5
e1
  8
Layer_31
  10
21.879503
  20
260.61955
  0
VERTEX
  5
e2
  8
Layer_31
  10
21.802119
  20
260.52496
  0
VERTEX
  5
e3
  8
Layer_31
  10
21.681637
  20
260.37769
  0
VERTEX
  5
e4
  8
Layer_31
  10
21.525007
  20
260.18622
  0
VERTEX
  5
e5
  8
Layer_31
  10
21.131092
  20
259.70465
  0
VERTEX
  5
e6
  8
Layer_31
  10
20.675962
  20
259.14814
  0
VERTEX
  5
e7
  8
Layer_31
  10
20.215203
  20
258.58459
  0
VERTEX
  5
e8
  8
Layer_31
  10
19.804402
  20
258.08191
  0
VERTEX
  5
e9
  8
Layer_31
  10
19.635106
  20
257.87461
  0
VERTEX
  5
ea
  8
Layer_31
  10
19.499144
  20
257.70799
  0
VERTEX
  5
eb
  8
Layer_31
  10
19.403465
  20
257.59053
  0
VERTEX
  5
ec
  8
Layer_31
  10
19.355018
  20
257.53073
  0
VERTEX
  5
ed
  8
Layer_31
  10
19.307076
  20
257.59053
  0
VERTEX
  5
ee
  8
Layer_31
  10
19.212826
  20
257.70799
  0
VERTEX
  5
ef
  8
Layer_31
  10
19.079086
  20
257.87461
  0
VERTEX
  5
f0
  8
Layer_31
  10
18.91267
  20
258.08191
  0
VERTEX
  5
f1
  8
Layer_31
  10
18.509081
  20
258.58459
  0
VERTEX
  5
f2
  8
Layer_31
  10
18.056589
  20
259.14814
  0
VERTEX
  5
f3
  8
Layer_31
  10
17.609727
  20
259.70465
  0
VERTEX
  5
f4
  8
Layer_31
  10
17.223024
  20
260.18622
  0
VERTEX
  5
f5
  8
Layer_31
  10
17.069274
  20
260.37769
  0
VERTEX
  5
f6
  8
Layer_31
  10
16.951014
  20
260.52496
  0
VERTEX
  5
f7
  8
Layer_31
  10
16.875058
  20
260.61955
  0
VERTEX
  5
f8
  8
Layer_31
  10
16.848225
  20
260.65296
  42
0.23606988
  0
VERTEX
  5
f9
  8
Layer_31
  10
16.783178
  20
260.68298
  0
VERTEX
  5
fa
  8
Layer_31
  10
15.352156
  20
260.68298
  42
0.26344643
  0
VERTEX
  5
fb
  8
Layer_31
  10
15.277102
  20
260.63794
  42
0.29253836
  0
VERTEX
  5
fc
  8
Layer_31
  10
15.287109
  20
260.55289
  0
VERTEX
  5
fd
  8
Layer_31
  10
18.58947
  20
256.54001
  42
0.23606341
  0
VERTEX
  5
fe
  8
Layer_31
  10
18.654518
  20
256.51001
  0
VERTEX
  5
ff
  8
Layer_31
  10
20.045513
  20
256.51001
  42
0.19891237
  0
VERTEX
  5
100
  8
Layer_31
  10
20.110559
  20
256.54001
  0
VERTEX
  5
101
  8
Layer_31
  10
23.462955
  20
260.55289
  42
0.31349374
  0
VERTEX
  5
102
  8
Layer_31
  10
23.472963
  20
260.63794
  42
0.2840771
  0
VERTEX
  5
103
  8
Layer_31
  10
23.397911
  20
260.68298
  0
VERTEX
  5
104
  8
Layer_31
  10
21.971889
  20
260.68298
  0
SEQEND
  0
POLYLINE
  5
106
  8
Layer_31
  62
142
  70
1
  66
1
  10
0
  20
0
  30
0
  0
VERTEX
  5
106
  8
Layer_31
  10
24.233507
  20
260.68799
  0
VERTEX
  5
107
  8
Layer_31
  10
24.122412
  20
260.93082
  0
VERTEX
  5
108
  8
Layer_31
  10
24.038993
  20
261.20461
  0
VERTEX
  5
109
  8
Layer_31
  10
23.986533
  20
261.50279
  0
VERTEX
  5
10a
  8
Layer_31
  10
23.968317
  20
261.8188
  0
VERTEX
  5
10b
  8
Layer_31
  10
23.989182
  20
262.15393
  0
VERTEX
  5
10c
  8
Layer_31
  10
24.048922
  20
262.46778
  0
VERTEX
  5
10d
  8
Layer_31
  10
24.143257
  20
262.75313
  0
VERTEX
  5
10e
  8
Layer_31
  10
24.267906
  20
263.00277
  0
VERTEX
  5
10f
  8
Layer_31
  10
24.41859
  20
263.20949
  0
VERTEX
  5
110
  8
Layer_31
  10
24.591028
  20
263.36608
  0
VERTEX
  5
111
  8
Layer_31
  10
24.78094
  20
263.46532
  0
VERTEX
  5
112
  8
Layer_31
  10
24.984044
  20
263.5
  0
VERTEX
  5
113
  8
Layer_31
  10
28.511566
  20
263.5
  0
VERTEX
  5
114
  8
Layer_31
  10
28.644943
  20
263.45528
  0
VERTEX
  5
115
  8
Layer_31
  10
28.752989
  20
263.33363
  0
VERTEX
  5
116
  8
Layer_31
  10
28.825384
  20
263.15381
  0
VERTEX
  5
117
  8
Layer_31
  10
28.85181
  20
262.9346
  0
VERTEX
  5
118
  8
Layer_31
  10
28.824681
  20
262.71538
  0
VERTEX
  5
119
  8
Layer_31
  10
28.751112
  20
262.53556
  0
VERTEX
  5
11a
  8
Layer_31
  10
28.642832
  20
262.41391
  0
VERTEX
  5
11b
  8
Layer_31
  10
28.511567
  20
262.36919
  0
VERTEX
  5
11c
  8
Layer_31
  10
24.984043
  20
262.3692
  0
VERTEX
  5
11d
  8
Layer_31
  10
24.852231
  20
262.32471
  0
VERTEX
  5
11e
  8
Layer_31
  10
24.747625
  20
262.2047
  0
VERTEX
  5
11f
  8
Layer_31
  10
24.678669
  20
262.02934
  0
VERTEX
  5
120
  8
Layer_31
  10
24.653807
  20
261.8188
  0
VERTEX
  5
121
  8
Layer_31
  10
24.677965
  20
261.60646
  0
VERTEX
  5
122
  8
Layer_31
  10
24.745748
  20
261.42226
  0
VERTEX
  5
123
  8
Layer_31
  10
24.85012
  20
261.29248
  0
VERTEX
  5
124
  8
Layer_31
  10
24.984044
  20
261.24339
  0
VERTEX
  5
125
  8
Layer_31
  10
28.511566
  20
261.24338
  0
VERTEX
  5
126
  8
Layer_31
  10
28.644943
  20
261.19953
  0
VERTEX
  5
127
  8
Layer_31
  10
28.752989
  20
261.08014
  0
VERTEX
  5
128
  8
Layer_31
  10
28.825384
  20
260.90353
  0
VERTEX
  5
129
  8
Layer_31
  10
28.85181
  20
260.68799
  0
VERTEX
  5
12a
  8
Layer_31
  10
28.824681
  20
260.47244
  0
VERTEX
  5
12b
  8
Layer_31
  10
28.751112
  20
260.29583
  0
VERTEX
  5
12c
  8
Layer_31
  10
28.642832
  20
260.17645
  0
VERTEX
  5
12d
  8
Layer_31
  10
28.511567
  20
260.13259
  0
VERTEX
  5
12e
  8
Layer_31
  10
24.984043
  20
260.1326
  0
VERTEX
  5
12f
  8
Layer_31
  10
24.848009
  20
260.08349
  0
VERTEX
  5
130
  8
Layer_31
  10
24.743872
  20
259.95371
  0
VERTEX
  5
131
  8
Layer_31
  10
24.677261
  20
259.76952
  0
VERTEX
  5
132
  8
Layer_31
  10
24.653807
  20
259.55718
  0
VERTEX
  5
133
  8
Layer_31
  10
24.679372
  20
259.34875
  0
VERTEX
  5
134
  8
Layer_31
  10
24.749501
  20
259.17316
  0
VERTEX
  5
135
  8
Layer_31
  10
24.854341
  20
259.05198
  0
VERTEX
  5
136
  8
Layer_31
  10
24.984044
  20
259.00679
  0
VERTEX
  5
137
  8
Layer_31
  10
28.511566
  20
259.00677
  0
VERTEX
  5
138
  8
Layer_31
  10
28.644943
  20
258.96207
  0
VERTEX
  5
139
  8
Layer_31
  10
28.752989
  20
258.84042
  0
VERTEX
  5
13a
  8
Layer_31
  10
28.825384
  20
258.6606
  0
VERTEX
  5
13b
  8
Layer_31
  10
28.85181
  20
258.44138
  0
VERTEX
  5
13c
  8
Layer_31
  10
28.824681
  20
258.22216
  0
VERTEX
  5
13d
  8
Layer_31
  10
28.751112
  20
258.04235
  0
VERTEX
  5
13e
  8
Layer_31
  10
28.642832
  20
257.9207
  0
VERTEX
  5
13f
  8
Layer_31
  10
28.511567
  20
257.87598
  0
VERTEX
  5
140
  8
Layer_31
  10
24.984043
  20
257.87598
  0
VERTEX
  5
141
  8
Layer_31
  10
24.78094
  20
257.91066
  0
VERTEX
  5
142
  8
Layer_31
  10
24.591028
  20
258.0099
  0
VERTEX
  5
143
  8
Layer_31
  10
24.41859
  20
258.16649
  0
VERTEX
  5
144
  8
Layer_31
  10
24.267906
  20
258.37321
  0
VERTEX
  5
145
  8
Layer_31
  10
24.143257
  20
258.62285
  0
VERTEX
  5
146
  8
Layer_31
  10
24.048922
  20
258.9082
  0
VERTEX
  5
147
  8
Layer_31
  10
23.989182
  20
259.22205
  0
VERTEX
  5
148
  8
Layer_31
  10
23.968317
  20
259.55718
  42
-0.12461293
  0
VERTEX
  5
149
  8
Layer_31
  10
24.233507
  20
260.68799
  0
SEQEND
  0
POLYLINE
  5
14b
  8
Layer_31
  62
142
  70
1
  66
1
  10
0
  20
0
  30
0
  0
VERTEX
  5
14b
  8
Layer_31
  10
40.20993
  20
260.68799
  0
VERTEX
  5
14c
  8
Layer_31
  10
39.814651
  20
259.64224
  0
VERTEX
  5
14d
  8
Layer_31
  10
40.46011
  20
259.64224
  0
VERTEX
  5
14e
  8
Layer_31
  10
39.664543
  20
257.55576
  0
VERTEX
  5
14f
  8
Layer_31
  10
39.019081
  20
257.55576
  0
VERTEX
  5
150
  8
Layer_31
  10
38.618797
  20
256.51001
  0
VERTEX
  5
151
  8
Layer_31
  10
41.205643
  20
256.51001
  0
VERTEX
  5
152
  8
Layer_31
  10
41.600925
  20
257.55576
  0
VERTEX
  5
153
  8
Layer_31
  10
40.955463
  20
257.55576
  0
VERTEX
  5
154
  8
Layer_31
  10
41.751038
  20
259.64224
  0
VERTEX
  5
155
  8
Layer_31
  10
42.396496
  20
259.64224
  0
VERTEX
  5
156
  8
Layer_31
  10
42.791779
  20
260.68799
  0
SEQEND
  0
POLYLINE
  5
158
  8
Layer_31
  62
142
  70
1
  66
1
  10
0
  20
0
  30
0
  0
VERTEX
  5
158
  8
Layer_31
  10
47.204933
  20
260.68799
  0
VERTEX
  5
159
  8
Layer_31
  10
44.55304
  20
260.68799
  42
0.31120545
  0
VERTEX
  5
15a
  8
Layer_31
  10
43.036957
  20
259.64224
  0
VERTEX
  5
15b
  8
Layer_31
  10
42.30143
  20
257.71585
  42
0.52485889
  0
VERTEX
  5
15c
  8
Layer_31
  10
43.132019
  20
256.51001
  0
VERTEX
  5
15d
  8
Layer_31
  10
45.893997
  20
256.51001
  42
0.14578828
  0
VERTEX
  5
15e
  8
Layer_31
  10
46.78463
  20
256.77518
  0
VERTEX
  5
15f
  8
Layer_31
  10
47.009792
  20
256.51001
  0
VERTEX
  5
160
  8
Layer_31
  10
47.655254
  20
256.51001
  0
VERTEX
  5
161
  8
Layer_31
  10
47.8554
  20
257.03036
  0
VERTEX
  5
162
  8
Layer_31
  10
47.41008
  20
257.55075
  0
VERTEX
  5
163
  8
Layer_31
  10
48.105579
  20
259.37704
  42
0.52447778
  0
SEQEND
  0
POLYLINE
  5
165
  8
Layer_31
  62
142
  70
1
  66
1
  10
0
  20
0
  30
0
  0
VERTEX
  5
165
  8
Layer_31
  10
46.069122
  20
259.12186
  0
VERTEX
  5
166
  8
Layer_31
  10
45.673836
  20
258.07611
  0
VERTEX
  5
167
  8
Layer_31
  10
46.004074
  20
257.68585
  42
-0.14578908
  0
VERTEX
  5
168
  8
Layer_31
  10
45.558754
  20
257.55075
  0
VERTEX
  5
169
  8
Layer_31
  10
44.092705
  20
257.55075
  42
-0.525048
  0
VERTEX
  5
16a
  8
Layer_31
  10
43.732449
  20
258.07111
  0
VERTEX
  5
16b
  8
Layer_31
  10
44.127731
  20
259.11685
  42
-0.31120331
  0
VERTEX
  5
16c
  8
Layer_31
  10
44.88327
  20
259.63724
  0
VERTEX
  5
16d
  8
Layer_31
  10
46.349316
  20
259.63724
  42
-0.52504479
  0
VERTEX
  5
16e
  8
Layer_31
  10
46.709579
  20
259.11685
  0
VERTEX
  5
16f
  8
Layer_31
  10
46.509434
  20
258.5965
  0
SEQEND
  0
POLYLINE
  5
171
  8
Layer_31
  62
142
  70
1
  66
1
  10
0
  20
0
  30
0
  0
VERTEX
  5
171
  8
Layer_31
  10
48.45583
  20
257.06039
  42
-0.12745508
  0
VERTEX
  5
172
  8
Layer_31
  10
48.590923
  20
257.02536
  42
-0.12694804
  0
VERTEX
  5
173
  8
Layer_31
  10
48.695999
  20
256.92529
  42
-0.12745991
  0
VERTEX
  5
174
  8
Layer_31
  10
48.731026
  20
256.78519
  42
-0.14056685
  0
VERTEX
  5
175
  8
Layer_31
  10
48.695999
  20
256.65012
  42
-0.15114263
  0
VERTEX
  5
176
  8
Layer_31
  10
48.595928
  20
256.55002
  42
-0.12745508
  0
VERTEX
  5
177
  8
Layer_31
  10
48.460831
  20
256.51501
  42
-0.14056974
  0
VERTEX
  5
178
  8
Layer_31
  10
48.325733
  20
256.55002
  42
-0.12694804
  0
VERTEX
  5
179
  8
Layer_31
  10
48.225662
  20
256.65012
  42
-0.12745991
  0
VERTEX
  5
17a
  8
Layer_31
  10
48.190636
  20
256.78519
  42
-0.12745819
  0
VERTEX
  5
17b
  8
Layer_31
  10
48.225662
  20
256.92529
  42
-0.16277937
  0
VERTEX
  5
17c
  8
Layer_31
  10
48.330734
  20
257.02536
  42
-0.15630376
  0
SEQEND
  0
POLYLINE
  5
17e
  8
Layer_31
  62
142
  70
1
  66
1
  10
0
  20
0
  30
0
  0
VERTEX
  5
17e
  8
Layer_31
  10
48.45583
  20
257.01535
  42
0.11644113
  0
VERTEX
  5
17f
  8
Layer_31
  10
48.340748
  20
256.98535
  42
0.13391583
  0
VERTEX
  5
180
  8
Layer_31
  10
48.255688
  20
256.90027
  42
0.13052246
  0
VERTEX
  5
181
  8
Layer_31
  10
48.225662
  20
256.78519
  42
0.11642103
  0
VERTEX
  5
182
  8
Layer_31
  10
48.255688
  20
256.6701
  42
0.13391978
  0
VERTEX
  5
183
  8
Layer_31
  10
48.340748
  20
256.58505
  42
0.13051626
  0
VERTEX
  5
184
  8
Layer_31
  10
48.45583
  20
256.55502
  42
0.1305202
  0
VERTEX
  5
185
  8
Layer_31
  10
48.570911
  20
256.58505
  42
0.13390397
  0
VERTEX
  5
186
  8
Layer_31
  10
48.655972
  20
256.6701
  42
0.13052246
  0
VERTEX
  5
187
  8
Layer_31
  10
48.685993
  20
256.78519
  42
0.13050667
  0
VERTEX
  5
188
  8
Layer_31
  10
48.655972
  20
256.90027
  42
0.13390002
  0
VERTEX
  5
189
  8
Layer_31
  10
48.570911
  20
256.98535
  42
0.11643382
  0
SEQEND
  0
POLYLINE
  5
18b
  8
Layer_31
  62
142
  70
1
  66
1
  10
0
  20
0
  30
0
  0
VERTEX
  5
18b
  8
Layer_31
  10
48.335743
  20
256.6351
  0
VERTEX
  5
18c
  8
Layer_31
  10
48.335743
  20
256.9303
  0
VERTEX
  5
18d
  8
Layer_31
  10
48.43581
  20
256.9303
  42
-0.080600688
  0
VERTEX
  5
18e
  8
Layer_31
  10
48.510868
  20
256.92029
  42
-0.2360109
  0
VERTEX
  5
18f
  8
Layer_31
  10
48.545891
  20
256.89026
  42
-0.14806874
  0
VERTEX
  5
190
  8
Layer_31
  10
48.560902
  20
256.84525
  42
-0.19891237
  0
VERTEX
  5
191
  8
Layer_31
  10
48.535885
  20
256.79019
  42
-0.19891237
  0
VERTEX
  5
192
  8
Layer_31
  10
48.475842
  20
256.7652
  42
-0.080597061
  0
VERTEX
  5
193
  8
Layer_31
  10
48.500858
  20
256.75018
  42
-0.04938621
  0
VERTEX
  5
194
  8
Layer_31
  10
48.545891
  20
256.69012
  0
VERTEX
  5
195
  8
Layer_31
  10
48.580917
  20
256.6301
  0
VERTEX
  5
196
  8
Layer_31
  10
48.520874
  20
256.6301
  0
VERTEX
  5
197
  8
Layer_31
  10
48.495857
  20
256.67511
  42
0.11641752
  0
VERTEX
  5
198
  8
Layer_31
  10
48.445824
  20
256.74518
  42
0.11641921
  0
VERTEX
  5
199
  8
Layer_31
  10
48.405792
  20
256.75519
  0
VERTEX
  5
19a
  8
Layer_31
  10
48.375774
  20
256.75519
  0
VERTEX
  5
19b
  8
Layer_31
  10
48.375774
  20
256.6301
  0
VERTEX
  5
19c
  8
Layer_31
  10
48.335743
  20
256.6301
  0
SEQEND
  0
POLYLINE
  5
19e
  8
Layer_31
  62
142
  70
1
  66
1
  10
0
  20
0
  30
0
  0
VERTEX
  5
19e
  8
Layer_31
  10
48.385777
  20
256.8002
  0
VERTEX
  5
19f
  8
Layer_31
  10
48.445824
  20
256.8002
  42
0.11644844
  0
VERTEX
  5
1a0
  8
Layer_31
  10
48.500858
  20
256.81021
  42
0.19891237
  0
VERTEX
  5
1a1
  8
Layer_31
  10
48.515869
  20
256.84525
  42
0.11643382
  0
VERTEX
  5
1a2
  8
Layer_31
  10
48.510868
  20
256.87027
  42
0.080597061
  0
VERTEX
  5
1a3
  8
Layer_31
  10
48.490852
  20
256.88528
  42
0.11643382
  0
VERTEX
  5
1a4
  8
Layer_31
  10
48.440815
  20
256.89026
  0
VERTEX
  5
1a5
  8
Layer_31
  10
48.385777
  20
256.89026
  0
SEQEND
  0
POLYLINE
  5
1a7
  8
Layer_2
  62
1
  70
1
  66
1
  10
0
  20
0
  30
0
  0
VERTEX
  5
1a7
  8
Layer_2
  10
47
  20
224
  0
VERTEX
  5
1a8
  8
Layer_2
  10
17
  20
224
  0
VERTEX
  5
1a9
  8
Layer_2
  10
17
  20
254
  0
VERTEX
  5
1aa
  8
Layer_2
  10
47
  20
254
  0
SEQEND
  0
POLYLINE
  5
1ac
  8
Layer_2
  62
1
  70
1
  66
1
  10
0
  20
0
  30
0
  0
VERTEX
  5
1ac
  8
Layer_2
  10
29.017334
  20
250.65544
  0
VERTEX
  5
1ad
  8
Layer_2
  10
29.137451
  20
250.68327
  42
0.26848908
  0
VERTEX
  5
1ae
  8
Layer_2
  10
29.605713
  20
251.22624
  0
VERTEX
  5
1af
  8
Layer_2
  10
29.376221
  20
251.28435
  0
VERTEX
  5
1b0
  8
Layer_2
  10
29.346924
  20
251.18181
  42
-0.19745786
  0
VERTEX
  5
1b1
  8
Layer_2
  10
29.096834
  20
250.89194
  42
-0.1974584
  0
VERTEX
  5
1b2
  8
Layer_2
  10
28.715088
  20
250.86296
  42
-0.32003778
  0
VERTEX
  5
1b3
  8
Layer_2
  10
28.323975
  20
251.35075
  42
-0.19878824
  0
VERTEX
  5
1b4
  8
Layer_2
  10
28.436768
  20
252.0363
  42
-0.38513214
  0
VERTEX
  5
1b5
  8
Layer_2
  10
29.174561
  20
252.15837
  42
-0.15701649
  0
VERTEX
  5
1b6
  8
Layer_2
  10
29.349854
  20
251.88249
  0
VERTEX
  5
1b7
  8
Layer_2
  10
29.576416
  20
251.93571
  42
0.2618171
  0
VERTEX
  5
1b8
  8
Layer_2
  10
29.130615
  20
252.40837
  42
0.40507628
  0
VERTEX
  5
1b9
  8
Layer_2
  10
28.129639
  20
251.92448
  42
0.27611786
  0
VERTEX
  5
1ba
  8
Layer_2
  10
28.3479
  20
250.8239
  42
0.21882167
  0
SEQEND
  0
POLYLINE
  5
1bc
  8
Layer_2
  62
1
  70
1
  66
1
  10
0
  20
0
  30
0
  0
VERTEX
  5
1bc
  8
Layer_2
  10
32.833252
  20
250.66374
  0
VERTEX
  5
1bd
  8
Layer_2
  10
32.918701
  20
250.67839
  0
VERTEX
  5
1be
  8
Layer_2
  10
32.887939
  20
250.86638
  0
VERTEX
  5
1bf
  8
Layer_2
  10
32.835205
  20
250.86003
  42
-0.36715824
  0
VERTEX
  5
1c0
  8
Layer_2
  10
32.684814
  20
250.91521
  42
-0.078275898
  0
VERTEX
  5
1c1
  8
Layer_2
  10
32.673584
  20
251.03239
  0
VERTEX
  5
1c2
  8
Layer_2
  10
32.673584
  20
251.76775
  0
VERTEX
  5
1c3
  8
Layer_2
  10
32.887939
  20
251.76775
  0
VERTEX
  5
1c4
  8
Layer_2
  10
32.887939
  20
251.93327
  0
VERTEX
  5
1c5
  8
Layer_2
  10
32.673584
  20
251.93327
  0
VERTEX
  5
1c6
  8
Layer_2
  10
32.673584
  20
252.37273
  0
VERTEX
  5
1c7
  8
Layer_2
  10
32.46167
  20
252.2448
  0
VERTEX
  5
1c8
  8
Layer_2
  10
32.46167
  20
251.93327
  0
VERTEX
  5
1c9
  8
Layer_2
  10
32.30542
  20
251.93327
  0
VERTEX
  5
1ca
  8
Layer_2
  10
32.30542
  20
251.76775
  0
VERTEX
  5
1cb
  8
Layer_2
  10
32.46167
  20
251.76775
  0
VERTEX
  5
1cc
  8
Layer_2
  10
32.46167
  20
251.04411
  42
0.29158929
  0
VERTEX
  5
1cd
  8
Layer_2
  10
32.577393
  20
250.69597
  42
0.13447917
  0
SEQEND
  0
POLYLINE
  5
1cf
  8
Layer_2
  62
1
  70
1
  66
1
  10
0
  20
0
  30
0
  0
VERTEX
  5
1cf
  8
Layer_2
  10
31.80249
  20
250.66032
  0
VERTEX
  5
1d0
  8
Layer_2
  10
31.92749
  20
250.6989
  42
0.38359399
  0
VERTEX
  5
1d1
  8
Layer_2
  10
32.156494
  20
251.14519
  42
0.26147101
  0
VERTEX
  5
1d2
  8
Layer_2
  10
31.766846
  20
251.40935
  0
VERTEX
  5
1d3
  8
Layer_2
  10
31.497803
  20
251.48503
  42
-0.35004774
  0
VERTEX
  5
1d4
  8
Layer_2
  10
31.365967
  20
251.62419
  42
-0.34416131
  0
VERTEX
  5
1d5
  8
Layer_2
  10
31.512939
  20
251.77458
  42
-0.33549888
  0
VERTEX
  5
1d6
  8
Layer_2
  10
31.885498
  20
251.66716
  0
VERTEX
  5
1d7
  8
Layer_2
  10
31.91333
  20
251.58073
  0
VERTEX
  5
1d8
  8
Layer_2
  10
32.121826
  20
251.60905
  42
0.30587554
  0
VERTEX
  5
1d9
  8
Layer_2
  10
31.883057
  20
251.91911
  42
0.29083863
  0
VERTEX
  5
1da
  8
Layer_2
  10
31.243896
  20
251.82097
  42
0.32800441
  0
VERTEX
  5
1db
  8
Layer_2
  10
31.206787
  20
251.43083
  42
0.17617705
  0
VERTEX
  5
1dc
  8
Layer_2
  10
31.561279
  20
251.23747
  0
VERTEX
  5
1dd
  8
Layer_2
  10
31.748291
  20
251.18767
  42
-0.36389768
  0
VERTEX
  5
1de
  8
Layer_2
  10
31.949951
  20
251.02263
  42
-0.33621931
  0
VERTEX
  5
1df
  8
Layer_2
  10
31.788818
  20
250.83757
  42
-0.35077586
  0
VERTEX
  5
1e0
  8
Layer_2
  10
31.368896
  20
250.97234
  0
VERTEX
  5
1e1
  8
Layer_2
  10
31.335205
  20
251.08415
  0
VERTEX
  5
1e2
  8
Layer_2
  10
31.124756
  20
251.05095
  42
0.31331657
  0
VERTEX
  5
1e3
  8
Layer_2
  10
31.446045
  20
250.67302
  42
0.1067017
  0
SEQEND
  0
POLYLINE
  5
1e5
  8
Layer_2
  62
1
  70
1
  66
1
  10
0
  20
0
  30
0
  0
VERTEX
  5
1e5
  8
Layer_2
  10
34.657959
  20
251.32829
  42
-0.2758185
  0
VERTEX
  5
1e6
  8
Layer_2
  10
34.802979
  20
251.72966
  42
-0.35311264
  0
VERTEX
  5
1e7
  8
Layer_2
  10
35.139893
  20
251.70622
  42
-0.1555497
  0
VERTEX
  5
1e8
  8
Layer_2
  10
35.192139
  20
251.49284
  0
VERTEX
  5
1e9
  8
Layer_2
  10
35.192139
  20
250.67595
  0
VERTEX
  5
1ea
  8
Layer_2
  10
35.405029
  20
250.67595
  0
VERTEX
  5
1eb
  8
Layer_2
  10
35.405029
  20
251.40642
  42
-0.21999713
  0
VERTEX
  5
1ec
  8
Layer_2
  10
35.472527
  20
251.66368
  42
-0.22002422
  0
VERTEX
  5
1ed
  8
Layer_2
  10
35.713135
  20
251.77702
  42
-0.20486437
  0
VERTEX
  5
1ee
  8
Layer_2
  10
35.86541
  20
251.72452
  42
-0.20486953
  0
VERTEX
  5
1ef
  8
Layer_2
  10
35.931885
  20
251.5778
  42
-0.022211705
  0
VERTEX
  5
1f0
  8
Layer_2
  10
35.936768
  20
250.67595
  0
VERTEX
  5
1f1
  8
Layer_2
  10
36.148682
  20
250.67595
  42
0.031524366
  0
VERTEX
  5
1f2
  8
Layer_2
  10
36.142334
  20
251.63982
  42
0.36792112
  0
VERTEX
  5
1f3
  8
Layer_2
  10
35.848389
  20
251.95525
  42
0.31260557
  0
VERTEX
  5
1f4
  8
Layer_2
  10
35.371826
  20
251.74138
  0
VERTEX
  5
1f5
  8
Layer_2
  10
35.322021
  20
251.83415
  42
0.33897722
  0
VERTEX
  5
1f6
  8
Layer_2
  10
34.792725
  20
251.90544
  42
0.12440851
  0
VERTEX
  5
1f7
  8
Layer_2
  10
34.635498
  20
251.757
  0
VERTEX
  5
1f8
  8
Layer_2
  10
34.635498
  20
251.93327
  0
VERTEX
  5
1f9
  8
Layer_2
  10
34.44458
  20
251.93327
  0
VERTEX
  5
1fa
  8
Layer_2
  10
34.44458
  20
250.67595
  0
VERTEX
  5
1fb
  8
Layer_2
  10
34.657959
  20
250.67595
  0
SEQEND
  0
POLYLINE
  5
1fd
  8
Layer_2
  62
1
  70
1
  66
1
  10
0
  20
0
  30
0
  0
VERTEX
  5
1fd
  8
Layer_2
  10
33.764893
  20
250.66667
  0
VERTEX
  5
1fe
  8
Layer_2
  10
33.9104
  20
250.72429
  42
0.28804299
  0
VERTEX
  5
1ff
  8
Layer_2
  10
34.195068
  20
251.32243
  42
0.21380941
  0
VERTEX
  5
200
  8
Layer_2
  10
34.044762
  20
251.77446
  42
0.21381343
  0
VERTEX
  5
201
  8
Layer_2
  10
33.606689
  20
251.96159
  42
0.39538366
  0
VERTEX
  5
202
  8
Layer_2
  10
33.029053
  20
251.46794
  42
0.23457041
  0
VERTEX
  5
203
  8
Layer_2
  10
33.179443
  20
250.81657
  42
0.26535628
  0
SEQEND
  0
POLYLINE
  5
205
  8
Layer_2
  62
1
  70
1
  66
1
  10
0
  20
0
  30
0
  0
VERTEX
  5
205
  8
Layer_2
  10
30.406006
  20
250.66081
  0
VERTEX
  5
206
  8
Layer_2
  10
30.512451
  20
250.70085
  42
0.12060734
  0
VERTEX
  5
207
  8
Layer_2
  10
30.685303
  20
250.86052
  0
VERTEX
  5
208
  8
Layer_2
  10
30.685303
  20
250.67595
  0
VERTEX
  5
209
  8
Layer_2
  10
30.876221
  20
250.67595
  0
VERTEX
  5
20a
  8
Layer_2
  10
30.876221
  20
251.93327
  0
VERTEX
  5
20b
  8
Layer_2
  10
30.662842
  20
251.93327
  0
VERTEX
  5
20c
  8
Layer_2
  10
30.662842
  20
251.25945
  42
-0.22587145
  0
VERTEX
  5
20d
  8
Layer_2
  10
30.599323
  20
250.96448
  42
-0.22586847
  0
VERTEX
  5
20e
  8
Layer_2
  10
30.328857
  20
250.83073
  42
-0.3664336
  0
VERTEX
  5
20f
  8
Layer_2
  10
30.082764
  20
251.01091
  42
-0.030882141
  0
VERTEX
  5
210
  8
Layer_2
  10
30.06958
  20
251.93327
  0
VERTEX
  5
211
  8
Layer_2
  10
29.856689
  20
251.93327
  42
0.012448475
  0
VERTEX
  5
212
  8
Layer_2
  10
29.859619
  20
251.0363
  42
0.38558835
  0
VERTEX
  5
213
  8
Layer_2
  10
30.178955
  20
250.65788
  42
0.10714159
  0
SEQEND
  0
POLYLINE
  5
215
  8
Layer_2
  62
1
  70
1
  66
1
  10
0
  20
0
  30
0
  0
VERTEX
  5
215
  8
Layer_2
  10
33.530029
  20
250.83025
  0
VERTEX
  5
216
  8
Layer_2
  10
33.460205
  20
250.85271
  42
-0.31105636
  0
VERTEX
  5
217
  8
Layer_2
  10
33.236084
  20
251.30437
  42
-0.38569669
  0
VERTEX
  5
218
  8
Layer_2
  10
33.530029
  20
251.778
  42
-0.34151873
  0
VERTEX
  5
219
  8
Layer_2
  10
33.91626
  20
251.59782
  42
-0.31502283
  0
VERTEX
  5
21a
  8
Layer_2
  10
33.814697
  20
250.89079
  42
-0.21811504
  0
SEQEND
  0
POLYLINE
  5
21c
  8
Layer_2
  62
1
  70
1
  66
1
  10
0
  20
0
  30
0
  0
VERTEX
  5
21c
  8
Layer_2
  10
31.231201
  20
248.97966
  0
VERTEX
  5
21d
  8
Layer_2
  10
31.476318
  20
248.97966
  0
VERTEX
  5
21e
  8
Layer_2
  10
31.476318
  20
249.14519
  0
VERTEX
  5
21f
  8
Layer_2
  10
31.231201
  20
249.14519
  42
-0.19677432
  0
VERTEX
  5
220
  8
Layer_2
  10
31.27124
  20
249.41618
  42
-0.19982307
  0
VERTEX
  5
221
  8
Layer_2
  10
31.534424
  20
249.44597
  0
VERTEX
  5
222
  8
Layer_2
  10
31.566162
  20
249.632
  42
0.28765427
  0
VERTEX
  5
223
  8
Layer_2
  10
31.084229
  20
249.54216
  42
0.17433713
  0
VERTEX
  5
224
  8
Layer_2
  10
31.019287
  20
249.14519
  0
VERTEX
  5
225
  8
Layer_2
  10
30.830811
  20
249.14519
  0
VERTEX
  5
226
  8
Layer_2
  10
30.830811
  20
248.97966
  0
VERTEX
  5
227
  8
Layer_2
  10
31.019287
  20
248.97966
  0
VERTEX
  5
228
  8
Layer_2
  10
31.019287
  20
247.88786
  0
VERTEX
  5
229
  8
Layer_2
  10
31.231201
  20
247.88786
  0
SEQEND
  0
POLYLINE
  5
22b
  8
Layer_2
  62
1
  70
1
  66
1
  10
0
  20
0
  30
0
  0
VERTEX
  5
22b
  8
Layer_2
  10
38.954834
  20
247.87077
  0
VERTEX
  5
22c
  8
Layer_2
  10
39.050049
  20
247.90593
  42
0.1282088
  0
VERTEX
  5
22d
  8
Layer_2
  10
39.19751
  20
248.04607
  0
VERTEX
  5
22e
  8
Layer_2
  10
39.19751
  20
247.88786
  0
VERTEX
  5
22f
  8
Layer_2
  10
39.395264
  20
247.88786
  0
VERTEX
  5
230
  8
Layer_2
  10
39.395264
  20
249.6237
  0
VERTEX
  5
231
  8
Layer_2
  10
39.18335
  20
249.6237
  0
VERTEX
  5
232
  8
Layer_2
  10
39.18335
  20
249.00066
  0
VERTEX
  5
233
  8
Layer_2
  10
39.119385
  20
249.07048
  42
0.37047573
  0
VERTEX
  5
234
  8
Layer_2
  10
38.496826
  20
249.04655
  42
0.21263928
  0
VERTEX
  5
235
  8
Layer_2
  10
38.304932
  20
248.5153
  42
0.3467291
  0
VERTEX
  5
236
  8
Layer_2
  10
38.701416
  20
247.88005
  42
0.12641711
  0
SEQEND
  0
POLYLINE
  5
238
  8
Layer_2
  62
1
  70
1
  66
1
  10
0
  20
0
  30
0
  0
VERTEX
  5
238
  8
Layer_2
  10
34.614014
  20
247.87566
  0
VERTEX
  5
239
  8
Layer_2
  10
34.699463
  20
247.88982
  0
VERTEX
  5
23a
  8
Layer_2
  10
34.668701
  20
248.07829
  0
VERTEX
  5
23b
  8
Layer_2
  10
34.616455
  20
248.07195
  42
-0.36442905
  0
VERTEX
  5
23c
  8
Layer_2
  10
34.465576
  20
248.12663
  42
-0.077044738
  0
VERTEX
  5
23d
  8
Layer_2
  10
34.454346
  20
248.24382
  0
VERTEX
  5
23e
  8
Layer_2
  10
34.454346
  20
248.97966
  0
VERTEX
  5
23f
  8
Layer_2
  10
34.668701
  20
248.97966
  0
VERTEX
  5
240
  8
Layer_2
  10
34.668701
  20
249.14519
  0
VERTEX
  5
241
  8
Layer_2
  10
34.454346
  20
249.14519
  0
VERTEX
  5
242
  8
Layer_2
  10
34.454346
  20
249.58464
  0
VERTEX
  5
243
  8
Layer_2
  10
34.242432
  20
249.45671
  0
VERTEX
  5
244
  8
Layer_2
  10
34.242432
  20
249.14519
  0
VERTEX
  5
245
  8
Layer_2
  10
34.086182
  20
249.14519
  0
VERTEX
  5
246
  8
Layer_2
  10
34.086182
  20
248.97966
  0
VERTEX
  5
247
  8
Layer_2
  10
34.242432
  20
248.97966
  0
VERTEX
  5
248
  8
Layer_2
  10
34.242432
  20
248.25603
  42
0.29178567
  0
VERTEX
  5
249
  8
Layer_2
  10
34.358154
  20
247.90788
  42
0.13519144
  0
SEQEND
  0
POLYLINE
  5
24b
  8
Layer_2
  62
1
  70
1
  66
1
  10
0
  20
0
  30
0
  0
VERTEX
  5
24b
  8
Layer_2
  10
33.596436
  20
247.86687
  0
VERTEX
  5
24c
  8
Layer_2
  10
33.687256
  20
247.88982
  42
0.28558688
  0
VERTEX
  5
24d
  8
Layer_2
  10
34.020752
  20
248.32097
  0
VERTEX
  5
24e
  8
Layer_2
  10
33.811279
  20
248.34831
  0
VERTEX
  5
24f
  8
Layer_2
  10
33.773193
  20
248.20915
  42
-0.40621299
  0
VERTEX
  5
250
  8
Layer_2
  10
33.35376
  20
248.06316
  42
-0.31223906
  0
VERTEX
  5
251
  8
Layer_2
  10
33.144775
  20
248.51775
  42
-0.31635775
  0
VERTEX
  5
252
  8
Layer_2
  10
33.361084
  20
248.96941
  42
-0.40075192
  0
VERTEX
  5
253
  8
Layer_2
  10
33.752686
  20
248.85466
  0
VERTEX
  5
254
  8
Layer_2
  10
33.793701
  20
248.74382
  0
VERTEX
  5
255
  8
Layer_2
  10
34.000732
  20
248.77556
  42
0.29229917
  0
VERTEX
  5
256
  8
Layer_2
  10
33.684814
  20
249.14763
  42
0.38347721
  0
VERTEX
  5
257
  8
Layer_2
  10
32.99292
  20
248.86833
  42
0.27084063
  0
VERTEX
  5
258
  8
Layer_2
  10
33.082275
  20
248.028
  42
0.24795678
  0
SEQEND
  0
POLYLINE
  5
25a
  8
Layer_2
  62
1
  70
1
  66
1
  10
0
  20
0
  30
0
  0
VERTEX
  5
25a
  8
Layer_2
  10
25.115479
  20
248.54021
  42
-0.27560557
  0
VERTEX
  5
25b
  8
Layer_2
  10
25.260498
  20
248.94157
  42
-0.35463449
  0
VERTEX
  5
25c
  8
Layer_2
  10
25.597412
  20
248.91765
  42
-0.15657971
  0
VERTEX
  5
25d
  8
Layer_2
  10
25.649658
  20
248.70476
  0
VERTEX
  5
25e
  8
Layer_2
  10
25.649658
  20
247.88786
  0
VERTEX
  5
25f
  8
Layer_2
  10
25.862549
  20
247.88786
  0
VERTEX
  5
260
  8
Layer_2
  10
25.862549
  20
248.61833
  42
-0.21986079
  0
VERTEX
  5
261
  8
Layer_2
  10
25.930084
  20
248.87556
  42
-0.2198574
  0
VERTEX
  5
262
  8
Layer_2
  10
26.170654
  20
248.98894
  42
-0.20496098
  0
VERTEX
  5
263
  8
Layer_2
  10
26.322941
  20
248.93645
  42
-0.20496521
  0
VERTEX
  5
264
  8
Layer_2
  10
26.389404
  20
248.78972
  42
-0.022209759
  0
VERTEX
  5
265
  8
Layer_2
  10
26.394287
  20
247.88786
  0
VERTEX
  5
266
  8
Layer_2
  10
26.606201
  20
247.88786
  42
0.028961145
  0
VERTEX
  5
267
  8
Layer_2
  10
26.600342
  20
248.85173
  42
0.36673535
  0
VERTEX
  5
268
  8
Layer_2
  10
26.305908
  20
249.16716
  42
0.31195291
  0
VERTEX
  5
269
  8
Layer_2
  10
25.829834
  20
248.95329
  0
VERTEX
  5
26a
  8
Layer_2
  10
25.779541
  20
249.04607
  42
0.33886737
  0
VERTEX
  5
26b
  8
Layer_2
  10
25.250732
  20
249.11736
  42
0.12249988
  0
VERTEX
  5
26c
  8
Layer_2
  10
25.093018
  20
248.96892
  0
VERTEX
  5
26d
  8
Layer_2
  10
25.093018
  20
249.14519
  0
VERTEX
  5
26e
  8
Layer_2
  10
24.902588
  20
249.14519
  0
VERTEX
  5
26f
  8
Layer_2
  10
24.902588
  20
247.88786
  0
VERTEX
  5
270
  8
Layer_2
  10
25.115479
  20
247.88786
  0
SEQEND
  0
POLYLINE
  5
272
  8
Layer_2
  62
1
  70
1
  66
1
  10
0
  20
0
  30
0
  0
VERTEX
  5
272
  8
Layer_2
  10
27.401611
  20
247.8698
  0
VERTEX
  5
273
  8
Layer_2
  10
27.515381
  20
247.90056
  42
0.084997044
  0
VERTEX
  5
274
  8
Layer_2
  10
27.74292
  20
248.04265
  0
VERTEX
  5
275
  8
Layer_2
  10
27.758545
  20
247.95964
  0
VERTEX
  5
276
  8
Layer_2
  10
27.785889
  20
247.88786
  0
VERTEX
  5
277
  8
Layer_2
  10
28.008545
  20
247.88786
  0
VERTEX
  5
278
  8
Layer_2
  10
27.974854
  20
247.96159
  42
-0.08180925
  0
VERTEX
  5
279
  8
Layer_2
  10
27.94165
  20
248.27946
  0
VERTEX
  5
27a
  8
Layer_2
  10
27.940674
  20
248.6989
  42
0.21986649
  0
VERTEX
  5
27b
  8
Layer_2
  10
27.880367
  20
249.01192
  42
0.21986219
  0
VERTEX
  5
27c
  8
Layer_2
  10
27.600342
  20
249.16423
  42
0.17147193
  0
VERTEX
  5
27d
  8
Layer_2
  10
27.060303
  20
249.07536
  42
0.19517612
  0
VERTEX
  5
27e
  8
Layer_2
  10
26.886963
  20
248.7863
  0
VERTEX
  5
27f
  8
Layer_2
  10
27.095459
  20
248.75798
  0
VERTEX
  5
280
  8
Layer_2
  10
27.138916
  20
248.87175
  42
-0.33507908
  0
VERTEX
  5
281
  8
Layer_2
  10
27.564697
  20
248.97917
  42
-0.40446367
  0
VERTEX
  5
282
  8
Layer_2
  10
27.725342
  20
248.68571
  42
-0.0038016496
  0
VERTEX
  5
283
  8
Layer_2
  10
27.074951
  20
248.55095
  0
VERTEX
  5
284
  8
Layer_2
  10
27.002197
  20
248.51042
  42
0.4114372
  0
VERTEX
  5
285
  8
Layer_2
  10
26.912842
  20
248.01482
  42
0.29003354
  0
SEQEND
  0
POLYLINE
  5
287
  8
Layer_2
  62
1
  70
1
  66
1
  10
0
  20
0
  30
0
  0
VERTEX
  5
287
  8
Layer_2
  10
28.484131
  20
248.57439
  42
-0.36121542
  0
VERTEX
  5
288
  8
Layer_2
  10
28.691162
  20
248.96745
  42
-0.39768066
  0
VERTEX
  5
289
  8
Layer_2
  10
29.054932
  20
248.84734
  42
-0.084836129
  0
VERTEX
  5
28a
  8
Layer_2
  10
29.079834
  20
248.65251
  0
VERTEX
  5
28b
  8
Layer_2
  10
29.079834
  20
247.88786
  0
VERTEX
  5
28c
  8
Layer_2
  10
29.293213
  20
247.88786
  42
0.011626828
  0
VERTEX
  5
28d
  8
Layer_2
  10
29.290283
  20
248.78679
  42
0.38873291
  0
VERTEX
  5
28e
  8
Layer_2
  10
28.972412
  20
249.16325
  42
0.31825207
  0
VERTEX
  5
28f
  8
Layer_2
  10
28.463135
  20
248.96648
  0
VERTEX
  5
290
  8
Layer_2
  10
28.463135
  20
249.14519
  0
VERTEX
  5
291
  8
Layer_2
  10
28.27124
  20
249.14519
  0
VERTEX
  5
292
  8
Layer_2
  10
28.27124
  20
247.88786
  0
VERTEX
  5
293
  8
Layer_2
  10
28.484131
  20
247.88786
  0
SEQEND
  0
POLYLINE
  5
295
  8
Layer_2
  62
1
  70
1
  66
1
  10
0
  20
0
  30
0
  0
VERTEX
  5
295
  8
Layer_2
  10
37.665771
  20
247.86589
  0
VERTEX
  5
296
  8
Layer_2
  10
37.760986
  20
247.88591
  42
0.27080037
  0
VERTEX
  5
297
  8
Layer_2
  10
38.114014
  20
248.2653
  0
VERTEX
  5
298
  8
Layer_2
  10
37.893799
  20
248.29265
  0
VERTEX
  5
299
  8
Layer_2
  10
37.83667
  20
248.17595
  42
-0.4079341
  0
VERTEX
  5
29a
  8
Layer_2
  10
37.355713
  20
248.09636
  42
-0.23512624
  0
VERTEX
  5
29b
  8
Layer_2
  10
37.182373
  20
248.46208
  0
VERTEX
  5
29c
  8
Layer_2
  10
38.120361
  20
248.46208
  42
0.33310317
  0
VERTEX
  5
29d
  8
Layer_2
  10
37.778564
  20
249.13054
  42
0.3733323
  0
VERTEX
  5
29e
  8
Layer_2
  10
37.053955
  20
248.90202
  42
0.29871145
  0
VERTEX
  5
29f
  8
Layer_2
  10
37.123779
  20
248.02898
  42
0.23794361
  0
SEQEND
  0
POLYLINE
  5
2a1
  8
Layer_2
  62
1
  70
1
  66
1
  10
0
  20
0
  30
0
  0
VERTEX
  5
2a1
  8
Layer_2
  10
32.121338
  20
247.8698
  0
VERTEX
  5
2a2
  8
Layer_2
  10
32.234619
  20
247.90056
  42
0.08588723
  0
VERTEX
  5
2a3
  8
Layer_2
  10
32.462646
  20
248.04265
  0
VERTEX
  5
2a4
  8
Layer_2
  10
32.478271
  20
247.95964
  0
VERTEX
  5
2a5
  8
Layer_2
  10
32.505127
  20
247.88786
  0
VERTEX
  5
2a6
  8
Layer_2
  10
32.727783
  20
247.88786
  0
VERTEX
  5
2a7
  8
Layer_2
  10
32.694092
  20
247.96159
  42
-0.070151561
  0
VERTEX
  5
2a8
  8
Layer_2
  10
32.6604
  20
248.6989
  0
VERTEX
  5
2a9
  8
Layer_2
  10
32.657959
  20
248.81902
  42
0.19791315
  0
VERTEX
  5
2aa
  8
Layer_2
  10
32.560753
  20
249.06218
  42
0.19791094
  0
VERTEX
  5
2ab
  8
Layer_2
  10
32.31958
  20
249.16423
  42
0.17111626
  0
VERTEX
  5
2ac
  8
Layer_2
  10
31.779541
  20
249.07536
  42
0.1945686
  0
VERTEX
  5
2ad
  8
Layer_2
  10
31.606689
  20
248.7863
  0
VERTEX
  5
2ae
  8
Layer_2
  10
31.815186
  20
248.75798
  0
VERTEX
  5
2af
  8
Layer_2
  10
31.858643
  20
248.87175
  42
-0.33512815
  0
VERTEX
  5
2b0
  8
Layer_2
  10
32.283936
  20
248.97917
  42
-0.40515734
  0
VERTEX
  5
2b1
  8
Layer_2
  10
32.445068
  20
248.68571
  42
-0.0038896053
  0
VERTEX
  5
2b2
  8
Layer_2
  10
31.794189
  20
248.55095
  0
VERTEX
  5
2b3
  8
Layer_2
  10
31.721924
  20
248.51042
  42
0.41298025
  0
VERTEX
  5
2b4
  8
Layer_2
  10
31.632568
  20
248.01482
  42
0.2901652
  0
SEQEND
  0
POLYLINE
  5
2b6
  8
Layer_2
  62
1
  70
1
  66
1
  10
0
  20
0
  30
0
  0
VERTEX
  5
2b6
  8
Layer_2
  10
36.436279
  20
248.54607
  0
VERTEX
  5
2b7
  8
Layer_2
  10
36.445068
  20
248.67546
  42
-0.19980792
  0
VERTEX
  5
2b8
  8
Layer_2
  10
36.502079
  20
248.86359
  42
-0.19981344
  0
VERTEX
  5
2b9
  8
Layer_2
  10
36.677002
  20
248.95329
  42
-0.13831282
  0
VERTEX
  5
2ba
  8
Layer_2
  10
36.833252
  20
248.90739
  0
VERTEX
  5
2bb
  8
Layer_2
  10
36.906494
  20
249.10515
  42
0.30878775
  0
VERTEX
  5
2bc
  8
Layer_2
  10
36.550537
  20
249.13103
  42
0.10860996
  0
VERTEX
  5
2bd
  8
Layer_2
  10
36.415283
  20
248.95476
  0
VERTEX
  5
2be
  8
Layer_2
  10
36.415283
  20
249.14519
  0
VERTEX
  5
2bf
  8
Layer_2
  10
36.223389
  20
249.14519
  0
VERTEX
  5
2c0
  8
Layer_2
  10
36.223389
  20
247.88786
  0
VERTEX
  5
2c1
  8
Layer_2
  10
36.436279
  20
247.88786
  0
SEQEND
  0
POLYLINE
  5
2c3
  8
Layer_2
  62
1
  70
1
  66
1
  10
0
  20
0
  30
0
  0
VERTEX
  5
2c3
  8
Layer_2
  10
30.164307
  20
247.87273
  0
VERTEX
  5
2c4
  8
Layer_2
  10
30.270752
  20
247.91228
  42
0.12012001
  0
VERTEX
  5
2c5
  8
Layer_2
  10
30.444092
  20
248.07243
  0
VERTEX
  5
2c6
  8
Layer_2
  10
30.444092
  20
247.88786
  0
VERTEX
  5
2c7
  8
Layer_2
  10
30.634521
  20
247.88786
  0
VERTEX
  5
2c8
  8
Layer_2
  10
30.634521
  20
249.14519
  0
VERTEX
  5
2c9
  8
Layer_2
  10
30.421143
  20
249.14519
  0
VERTEX
  5
2ca
  8
Layer_2
  10
30.421143
  20
248.47136
  42
-0.22605039
  0
VERTEX
  5
2cb
  8
Layer_2
  10
30.357889
  20
248.1765
  42
-0.22605498
  0
VERTEX
  5
2cc
  8
Layer_2
  10
30.087646
  20
248.04265
  42
-0.36887365
  0
VERTEX
  5
2cd
  8
Layer_2
  10
29.841064
  20
248.22282
  42
-0.030894699
  0
VERTEX
  5
2ce
  8
Layer_2
  10
29.827881
  20
249.14519
  0
VERTEX
  5
2cf
  8
Layer_2
  10
29.61499
  20
249.14519
  42
0.014516896
  0
VERTEX
  5
2d0
  8
Layer_2
  10
29.618408
  20
248.24821
  42
0.38628453
  0
VERTEX
  5
2d1
  8
Layer_2
  10
29.937256
  20
247.8698
  42
0.10712573
  0
SEQEND
  0
POLYLINE
  5
2d3
  8
Layer_2
  62
1
  70
1
  66
1
  10
0
  20
0
  30
0
  0
VERTEX
  5
2d3
  8
Layer_2
  10
35.421631
  20
247.87273
  0
VERTEX
  5
2d4
  8
Layer_2
  10
35.528076
  20
247.91228
  42
0.12164239
  0
VERTEX
  5
2d5
  8
Layer_2
  10
35.700928
  20
248.07243
  0
VERTEX
  5
2d6
  8
Layer_2
  10
35.700928
  20
247.88786
  0
VERTEX
  5
2d7
  8
Layer_2
  10
35.891846
  20
247.88786
  0
VERTEX
  5
2d8
  8
Layer_2
  10
35.891846
  20
249.14519
  0
VERTEX
  5
2d9
  8
Layer_2
  10
35.678467
  20
249.14519
  0
VERTEX
  5
2da
  8
Layer_2
  10
35.678467
  20
248.47136
  42
-0.22624109
  0
VERTEX
  5
2db
  8
Layer_2
  10
35.615067
  20
248.1763
  42
-0.22624255
  0
VERTEX
  5
2dc
  8
Layer_2
  10
35.344482
  20
248.04265
  42
-0.3683848
  0
VERTEX
  5
2dd
  8
Layer_2
  10
35.098389
  20
248.22282
  42
-0.030894441
  0
VERTEX
  5
2de
  8
Layer_2
  10
35.085205
  20
249.14519
  0
VERTEX
  5
2df
  8
Layer_2
  10
34.872314
  20
249.14519
  42
0.014518464
  0
VERTEX
  5
2e0
  8
Layer_2
  10
34.875732
  20
248.24821
  42
0.38628306
  0
VERTEX
  5
2e1
  8
Layer_2
  10
35.19458
  20
247.8698
  42
0.10713844
  0
SEQEND
  0
POLYLINE
  5
2e3
  8
Layer_2
  62
1
  70
1
  66
1
  10
0
  20
0
  30
0
  0
VERTEX
  5
2e3
  8
Layer_2
  10
37.194092
  20
248.63737
  42
-0.19984882
  0
VERTEX
  5
2e4
  8
Layer_2
  10
37.297546
  20
248.89233
  42
-0.1998645
  0
VERTEX
  5
2e5
  8
Layer_2
  10
37.551514
  20
248.99821
  42
-0.32986996
  0
VERTEX
  5
2e6
  8
Layer_2
  10
37.868896
  20
248.77605
  0
VERTEX
  5
2e7
  8
Layer_2
  10
37.89624
  20
248.63737
  0
SEQEND
  0
POLYLINE
  5
2e9
  8
Layer_2
  62
1
  70
1
  66
1
  10
0
  20
0
  30
0
  0
VERTEX
  5
2e9
  8
Layer_2
  10
38.799072
  20
248.04216
  0
VERTEX
  5
2ea
  8
Layer_2
  10
38.736572
  20
248.06413
  42
-0.29800938
  0
VERTEX
  5
2eb
  8
Layer_2
  10
38.523682
  20
248.5153
  42
-0.30174273
  0
VERTEX
  5
2ec
  8
Layer_2
  10
38.726318
  20
248.96794
  42
-0.35276852
  0
VERTEX
  5
2ed
  8
Layer_2
  10
39.101807
  20
248.87663
  42
-0.33992325
  0
VERTEX
  5
2ee
  8
Layer_2
  10
39.052002
  20
248.0988
  42
-0.23014659
  0
SEQEND
  0
POLYLINE
  5
2f0
  8
Layer_2
  62
1
  70
1
  66
1
  10
0
  20
0
  30
0
  0
VERTEX
  5
2f0
  8
Layer_2
  10
31.941162
  20
248.04021
  0
VERTEX
  5
2f1
  8
Layer_2
  10
31.861572
  20
248.08318
  42
-0.37345052
  0
VERTEX
  5
2f2
  8
Layer_2
  10
31.826904
  20
248.32634
  42
-0.20363395
  0
VERTEX
  5
2f3
  8
Layer_2
  10
31.984619
  20
248.41814
  0
VERTEX
  5
2f4
  8
Layer_2
  10
32.300049
  20
248.47478
  0
VERTEX
  5
2f5
  8
Layer_2
  10
32.445068
  20
248.51872
  42
-0.20500084
  0
VERTEX
  5
2f6
  8
Layer_2
  10
32.352783
  20
248.14372
  42
-0.26212677
  0
SEQEND
  0
POLYLINE
  5
2f8
  8
Layer_2
  62
1
  70
1
  66
1
  10
0
  20
0
  30
0
  0
VERTEX
  5
2f8
  8
Layer_2
  10
27.221436
  20
248.04021
  42
-0.37094459
  0
VERTEX
  5
2f9
  8
Layer_2
  10
27.079992
  20
248.24794
  42
-0.37097392
  0
VERTEX
  5
2fa
  8
Layer_2
  10
27.264893
  20
248.41814
  0
VERTEX
  5
2fb
  8
Layer_2
  10
27.580322
  20
248.47478
  0
VERTEX
  5
2fc
  8
Layer_2
  10
27.725342
  20
248.51872
  42
-0.20533801
  0
VERTEX
  5
2fd
  8
Layer_2
  10
27.633057
  20
248.14372
  42
-0.26259401
  0
SEQEND
  0
POLYLINE
  5
2ff
  8
Layer_2
  62
1
  70
1
  66
1
  10
0
  20
0
  30
0
  0
VERTEX
  5
2ff
  8
Layer_2
  10
35.946045
  20
246.19109
  0
VERTEX
  5
300
  8
Layer_2
  10
36.191162
  20
246.19109
  0
VERTEX
  5
301
  8
Layer_2
  10
36.191162
  20
246.3571
  0
VERTEX
  5
302
  8
Layer_2
  10
35.946045
  20
246.3571
  42
-0.19908458
  0
VERTEX
  5
303
  8
Layer_2
  10
35.986084
  20
246.6281
  42
-0.20026192
  0
VERTEX
  5
304
  8
Layer_2
  10
36.248779
  20
246.65788
  0
VERTEX
  5
305
  8
Layer_2
  10
36.281006
  20
246.84392
  42
0.28808106
  0
VERTEX
  5
306
  8
Layer_2
  10
35.799072
  20
246.75407
  42
0.17421018
  0
VERTEX
  5
307
  8
Layer_2
  10
35.734131
  20
246.3571
  0
VERTEX
  5
308
  8
Layer_2
  10
35.545654
  20
246.3571
  0
VERTEX
  5
309
  8
Layer_2
  10
35.545654
  20
246.19109
  0
VERTEX
  5
30a
  8
Layer_2
  10
35.734131
  20
246.19109
  0
VERTEX
  5
30b
  8
Layer_2
  10
35.734131
  20
245.09929
  0
VERTEX
  5
30c
  8
Layer_2
  10
35.946045
  20
245.09929
  0
SEQEND
  0
POLYLINE
  5
30e
  8
Layer_2
  62
1
  70
1
  66
1
  10
0
  20
0
  30
0
  0
VERTEX
  5
30e
  8
Layer_2
  10
29.581299
  20
245.07927
  0
VERTEX
  5
30f
  8
Layer_2
  10
29.700928
  20
245.1071
  42
0.26952747
  0
VERTEX
  5
310
  8
Layer_2
  10
30.169678
  20
245.65007
  0
VERTEX
  5
311
  8
Layer_2
  10
29.939697
  20
245.70818
  0
VERTEX
  5
312
  8
Layer_2
  10
29.910889
  20
245.60515
  42
-0.19734129
  0
VERTEX
  5
313
  8
Layer_2
  10
29.660362
  20
245.3156
  42
-0.19733714
  0
VERTEX
  5
314
  8
Layer_2
  10
29.278564
  20
245.28679
  42
-0.31947099
  0
VERTEX
  5
315
  8
Layer_2
  10
28.887939
  20
245.77409
  42
-0.20029349
  0
VERTEX
  5
316
  8
Layer_2
  10
29.000732
  20
246.46013
  42
-0.38416281
  0
VERTEX
  5
317
  8
Layer_2
  10
29.738525
  20
246.5822
  42
-0.15414452
  0
VERTEX
  5
318
  8
Layer_2
  10
29.913818
  20
246.30632
  0
VERTEX
  5
319
  8
Layer_2
  10
30.139893
  20
246.35954
  42
0.26278828
  0
VERTEX
  5
31a
  8
Layer_2
  10
29.694092
  20
246.83171
  42
0.40507768
  0
VERTEX
  5
31b
  8
Layer_2
  10
28.693115
  20
246.34831
  42
0.27533731
  0
VERTEX
  5
31c
  8
Layer_2
  10
28.911377
  20
245.24773
  42
0.21997958
  0
SEQEND
  0
POLYLINE
  5
31e
  8
Layer_2
  62
1
  70
1
  66
1
  10
0
  20
0
  30
0
  0
VERTEX
  5
31e
  8
Layer_2
  10
26.273682
  20
246.83562
  0
VERTEX
  5
31f
  8
Layer_2
  10
26.044189
  20
246.83562
  0
VERTEX
  5
320
  8
Layer_2
  10
26.044189
  20
245.09929
  0
VERTEX
  5
321
  8
Layer_2
  10
26.273682
  20
245.09929
  0
SEQEND
  0
POLYLINE
  5
323
  8
Layer_2
  62
1
  70
1
  66
1
  10
0
  20
0
  30
0
  0
VERTEX
  5
323
  8
Layer_2
  10
31.988037
  20
246.83562
  0
VERTEX
  5
324
  8
Layer_2
  10
31.774658
  20
246.83562
  0
VERTEX
  5
325
  8
Layer_2
  10
31.774658
  20
246.5905
  0
VERTEX
  5
326
  8
Layer_2
  10
31.988037
  20
246.5905
  0
SEQEND
  0
POLYLINE
  5
328
  8
Layer_2
  62
1
  70
1
  66
1
  10
0
  20
0
  30
0
  0
VERTEX
  5
328
  8
Layer_2
  10
30.637939
  20
245.78728
  42
-0.26765751
  0
VERTEX
  5
329
  8
Layer_2
  10
30.745325
  20
246.11499
  42
-0.26766129
  0
VERTEX
  5
32a
  8
Layer_2
  10
31.083252
  20
246.18376
  42
-0.32462044
  0
VERTEX
  5
32b
  8
Layer_2
  10
31.236084
  20
245.89616
  0
VERTEX
  5
32c
  8
Layer_2
  10
31.236084
  20
245.09929
  0
VERTEX
  5
32d
  8
Layer_2
  10
31.449463
  20
245.09929
  42
0.034390518
  0
VERTEX
  5
32e
  8
Layer_2
  10
31.438232
  20
246.05925
  42
0.34014864
  0
VERTEX
  5
32f
  8
Layer_2
  10
31.145264
  20
246.37175
  42
0.28986213
  0
VERTEX
  5
330
  8
Layer_2
  10
30.637939
  20
246.21257
  0
VERTEX
  5
331
  8
Layer_2
  10
30.637939
  20
246.83562
  0
VERTEX
  5
332
  8
Layer_2
  10
30.425049
  20
246.83562
  0
VERTEX
  5
333
  8
Layer_2
  10
30.425049
  20
245.09929
  0
VERTEX
  5
334
  8
Layer_2
  10
30.637939
  20
245.09929
  0
SEQEND
  0
POLYLINE
  5
336
  8
Layer_2
  62
1
  70
1
  66
1
  10
0
  20
0
  30
0
  0
VERTEX
  5
336
  8
Layer_2
  10
32.525146
  20
245.7863
  42
-0.36241803
  0
VERTEX
  5
337
  8
Layer_2
  10
32.732178
  20
246.17888
  42
-0.39843827
  0
VERTEX
  5
338
  8
Layer_2
  10
33.095947
  20
246.05925
  42
-0.084854048
  0
VERTEX
  5
339
  8
Layer_2
  10
33.12085
  20
245.86443
  0
VERTEX
  5
33a
  8
Layer_2
  10
33.12085
  20
245.09929
  0
VERTEX
  5
33b
  8
Layer_2
  10
33.33374
  20
245.09929
  42
0.011626386
  0
VERTEX
  5
33c
  8
Layer_2
  10
33.330811
  20
245.9987
  42
0.3890372
  0
VERTEX
  5
33d
  8
Layer_2
  10
33.012939
  20
246.37517
  42
0.31723914
  0
VERTEX
  5
33e
  8
Layer_2
  10
32.503662
  20
246.17839
  0
VERTEX
  5
33f
  8
Layer_2
  10
32.503662
  20
246.3571
  0
VERTEX
  5
340
  8
Layer_2
  10
32.311768
  20
246.3571
  0
VERTEX
  5
341
  8
Layer_2
  10
32.311768
  20
245.09929
  0
VERTEX
  5
342
  8
Layer_2
  10
32.525146
  20
245.09929
  0
SEQEND
  0
POLYLINE
  5
344
  8
Layer_2
  62
1
  70
1
  66
1
  10
0
  20
0
  30
0
  0
VERTEX
  5
344
  8
Layer_2
  10
37.91626
  20
245.75798
  0
VERTEX
  5
345
  8
Layer_2
  10
37.925049
  20
245.88737
  42
-0.19980882
  0
VERTEX
  5
346
  8
Layer_2
  10
37.98185
  20
246.07538
  42
-0.19984483
  0
VERTEX
  5
347
  8
Layer_2
  10
38.156494
  20
246.16521
  42
-0.13520688
  0
VERTEX
  5
348
  8
Layer_2
  10
38.312744
  20
246.11882
  0
VERTEX
  5
349
  8
Layer_2
  10
38.385986
  20
246.31657
  42
0.31039442
  0
VERTEX
  5
34a
  8
Layer_2
  10
38.030518
  20
246.34294
  42
0.10800344
  0
VERTEX
  5
34b
  8
Layer_2
  10
37.894775
  20
246.16618
  0
VERTEX
  5
34c
  8
Layer_2
  10
37.894775
  20
246.3571
  0
VERTEX
  5
34d
  8
Layer_2
  10
37.702881
  20
246.3571
  0
VERTEX
  5
34e
  8
Layer_2
  10
37.702881
  20
245.09929
  0
VERTEX
  5
34f
  8
Layer_2
  10
37.91626
  20
245.09929
  0
SEQEND
  0
POLYLINE
  5
351
  8
Layer_2
  62
1
  70
1
  66
1
  10
0
  20
0
  30
0
  0
VERTEX
  5
351
  8
Layer_2
  10
34.139893
  20
245.08122
  0
VERTEX
  5
352
  8
Layer_2
  10
34.253174
  20
245.11247
  42
0.085885091
  0
VERTEX
  5
353
  8
Layer_2
  10
34.481201
  20
245.25456
  0
VERTEX
  5
354
  8
Layer_2
  10
34.496826
  20
245.17155
  0
VERTEX
  5
355
  8
Layer_2
  10
34.523682
  20
245.09929
  0
VERTEX
  5
356
  8
Layer_2
  10
34.746338
  20
245.09929
  0
VERTEX
  5
357
  8
Layer_2
  10
34.712646
  20
245.17351
  42
-0.070150647
  0
VERTEX
  5
358
  8
Layer_2
  10
34.678955
  20
245.91081
  0
VERTEX
  5
359
  8
Layer_2
  10
34.676514
  20
246.03093
  42
0.19771514
  0
VERTEX
  5
35a
  8
Layer_2
  10
34.579262
  20
246.27405
  42
0.19772988
  0
VERTEX
  5
35b
  8
Layer_2
  10
34.338135
  20
246.37614
  42
0.17111563
  0
VERTEX
  5
35c
  8
Layer_2
  10
33.798096
  20
246.28728
  42
0.19456766
  0
VERTEX
  5
35d
  8
Layer_2
  10
33.625244
  20
245.99821
  0
VERTEX
  5
35e
  8
Layer_2
  10
33.83374
  20
245.96989
  0
VERTEX
  5
35f
  8
Layer_2
  10
33.877197
  20
246.08318
  42
-0.3363222
  0
VERTEX
  5
360
  8
Layer_2
  10
34.30249
  20
246.19109
  42
-0.40516174
  0
VERTEX
  5
361
  8
Layer_2
  10
34.463623
  20
245.89763
  42
-0.0040476283
  0
VERTEX
  5
362
  8
Layer_2
  10
33.812744
  20
245.76286
  0
VERTEX
  5
363
  8
Layer_2
  10
33.740479
  20
245.72234
  42
0.4109672
  0
VERTEX
  5
364
  8
Layer_2
  10
33.651123
  20
245.22624
  42
0.28832752
  0
SEQEND
  0
POLYLINE
  5
366
  8
Layer_2
  62
1
  70
1
  66
1
  10
0
  20
0
  30
0
  0
VERTEX
  5
366
  8
Layer_2
  10
26.864502
  20
245.7863
  42
-0.36239904
  0
VERTEX
  5
367
  8
Layer_2
  10
27.071533
  20
246.17888
  42
-0.39931037
  0
VERTEX
  5
368
  8
Layer_2
  10
27.435303
  20
246.05925
  42
-0.089898542
  0
VERTEX
  5
369
  8
Layer_2
  10
27.460205
  20
245.86443
  0
VERTEX
  5
36a
  8
Layer_2
  10
27.460205
  20
245.09929
  0
VERTEX
  5
36b
  8
Layer_2
  10
27.673584
  20
245.09929
  42
0.011626386
  0
VERTEX
  5
36c
  8
Layer_2
  10
27.670654
  20
245.9987
  42
0.38862391
  0
VERTEX
  5
36d
  8
Layer_2
  10
27.352783
  20
246.37517
  42
0.31743869
  0
VERTEX
  5
36e
  8
Layer_2
  10
26.843506
  20
246.17839
  0
VERTEX
  5
36f
  8
Layer_2
  10
26.843506
  20
246.3571
  0
VERTEX
  5
370
  8
Layer_2
  10
26.651611
  20
246.3571
  0
VERTEX
  5
371
  8
Layer_2
  10
26.651611
  20
245.09929
  0
VERTEX
  5
372
  8
Layer_2
  10
26.864502
  20
245.09929
  0
SEQEND
  0
POLYLINE
  5
374
  8
Layer_2
  62
1
  70
1
  66
1
  10
0
  20
0
  30
0
  0
VERTEX
  5
374
  8
Layer_2
  10
37.025146
  20
245.0905
  0
VERTEX
  5
375
  8
Layer_2
  10
37.170654
  20
245.14812
  42
0.28817815
  0
VERTEX
  5
376
  8
Layer_2
  10
37.455811
  20
245.74577
  42
0.21362468
  0
VERTEX
  5
377
  8
Layer_2
  10
37.305244
  20
246.19804
  42
0.2136277
  0
VERTEX
  5
378
  8
Layer_2
  10
36.866943
  20
246.38542
  42
0.39511338
  0
VERTEX
  5
379
  8
Layer_2
  10
36.289307
  20
245.89177
  42
0.23431287
  0
VERTEX
  5
37a
  8
Layer_2
  10
36.440186
  20
245.2404
  42
0.26562957
  0
SEQEND
  0
POLYLINE
  5
37c
  8
Layer_2
  62
1
  70
1
  66
1
  10
0
  20
0
  30
0
  0
VERTEX
  5
37c
  8
Layer_2
  10
31.988037
  20
246.3571
  0
VERTEX
  5
37d
  8
Layer_2
  10
31.774658
  20
246.3571
  0
VERTEX
  5
37e
  8
Layer_2
  10
31.774658
  20
245.09929
  0
VERTEX
  5
37f
  8
Layer_2
  10
31.988037
  20
245.09929
  0
SEQEND
  0
POLYLINE
  5
381
  8
Layer_2
  62
1
  70
1
  66
1
  10
0
  20
0
  30
0
  0
VERTEX
  5
381
  8
Layer_2
  10
36.790771
  20
245.25359
  0
VERTEX
  5
382
  8
Layer_2
  10
36.720947
  20
245.27654
  42
-0.31058422
  0
VERTEX
  5
383
  8
Layer_2
  10
36.496338
  20
245.7282
  42
-0.31217432
  0
VERTEX
  5
384
  8
Layer_2
  10
36.720947
  20
246.17888
  42
-0.33087679
  0
VERTEX
  5
385
  8
Layer_2
  10
37.130615
  20
246.08904
  42
-0.35874876
  0
VERTEX
  5
386
  8
Layer_2
  10
37.074951
  20
245.31413
  42
-0.21540798
  0
SEQEND
  0
POLYLINE
  5
388
  8
Layer_2
  62
1
  70
1
  66
1
  10
0
  20
0
  30
0
  0
VERTEX
  5
388
  8
Layer_2
  10
33.959717
  20
245.25212
  0
VERTEX
  5
389
  8
Layer_2
  10
33.880127
  20
245.2946
  42
-0.3726365
  0
VERTEX
  5
38a
  8
Layer_2
  10
33.845459
  20
245.53825
  42
-0.20362616
  0
VERTEX
  5
38b
  8
Layer_2
  10
34.003174
  20
245.63005
  0
VERTEX
  5
38c
  8
Layer_2
  10
34.318604
  20
245.68669
  0
VERTEX
  5
38d
  8
Layer_2
  10
34.463623
  20
245.73064
  42
-0.20566161
  0
VERTEX
  5
38e
  8
Layer_2
  10
34.371338
  20
245.35564
  42
-0.2624295
  0
SEQEND
  0
POLYLINE
  5
390
  8
Layer_2
  62
1
  70
1
  66
1
  10
0
  20
0
  30
0
  0
VERTEX
  5
390
  8
Layer_2
  10
23.590576
  20
244.04704
  0
VERTEX
  5
391
  8
Layer_2
  10
23.356201
  20
244.04704
  42
0.0095870204
  0
VERTEX
  5
392
  8
Layer_2
  10
22.837158
  20
242.64421
  0
VERTEX
  5
393
  8
Layer_2
  10
22.793701
  20
242.50212
  0
VERTEX
  5
394
  8
Layer_2
  10
22.752197
  20
242.63933
  42
0.0084706133
  0
VERTEX
  5
395
  8
Layer_2
  10
22.251221
  20
244.04704
  0
VERTEX
  5
396
  8
Layer_2
  10
22.002686
  20
244.04704
  0
VERTEX
  5
397
  8
Layer_2
  10
22.675049
  20
242.3112
  0
VERTEX
  5
398
  8
Layer_2
  10
22.910889
  20
242.3112
  0
SEQEND
  0
POLYLINE
  5
39a
  8
Layer_2
  62
1
  70
1
  66
1
  10
0
  20
0
  30
0
  0
VERTEX
  5
39a
  8
Layer_2
  10
25.096436
  20
242.51628
  0
VERTEX
  5
39b
  8
Layer_2
  10
24.030518
  20
242.51628
  0
VERTEX
  5
39c
  8
Layer_2
  10
24.030518
  20
243.1071
  0
VERTEX
  5
39d
  8
Layer_2
  10
24.990967
  20
243.1071
  0
VERTEX
  5
39e
  8
Layer_2
  10
24.990967
  20
243.31071
  0
VERTEX
  5
39f
  8
Layer_2
  10
24.030518
  20
243.31071
  0
VERTEX
  5
3a0
  8
Layer_2
  10
24.030518
  20
243.84245
  0
VERTEX
  5
3a1
  8
Layer_2
  10
25.056396
  20
243.84245
  0
VERTEX
  5
3a2
  8
Layer_2
  10
25.056396
  20
244.04704
  0
VERTEX
  5
3a3
  8
Layer_2
  10
23.801025
  20
244.04704
  0
VERTEX
  5
3a4
  8
Layer_2
  10
23.801025
  20
242.3112
  0
VERTEX
  5
3a5
  8
Layer_2
  10
25.096436
  20
242.3112
  0
SEQEND
  0
POLYLINE
  5
3a7
  8
Layer_2
  62
1
  70
1
  66
1
  10
0
  20
0
  30
0
  0
VERTEX
  5
3a7
  8
Layer_2
  10
38.081299
  20
244.04704
  0
VERTEX
  5
3a8
  8
Layer_2
  10
37.851807
  20
244.04704
  0
VERTEX
  5
3a9
  8
Layer_2
  10
37.851807
  20
242.3112
  0
VERTEX
  5
3aa
  8
Layer_2
  10
38.081299
  20
242.3112
  0
SEQEND
  0
POLYLINE
  5
3ac
  8
Layer_2
  62
1
  70
1
  66
1
  10
0
  20
0
  30
0
  0
VERTEX
  5
3ac
  8
Layer_2
  10
25.948975
  20
242.91618
  0
VERTEX
  5
3ad
  8
Layer_2
  10
26.031494
  20
243.04655
  0
VERTEX
  5
3ae
  8
Layer_2
  10
26.107666
  20
242.93083
  0
VERTEX
  5
3af
  8
Layer_2
  10
26.544189
  20
242.3112
  0
VERTEX
  5
3b0
  8
Layer_2
  10
26.828369
  20
242.3112
  0
VERTEX
  5
3b1
  8
Layer_2
  10
26.171631
  20
243.22917
  0
VERTEX
  5
3b2
  8
Layer_2
  10
26.781006
  20
244.04704
  0
VERTEX
  5
3b3
  8
Layer_2
  10
26.531494
  20
244.04704
  42
0.030796751
  0
VERTEX
  5
3b4
  8
Layer_2
  10
26.044678
  20
243.38884
  0
VERTEX
  5
3b5
  8
Layer_2
  10
25.989014
  20
243.47966
  42
0.0076604644
  0
VERTEX
  5
3b6
  8
Layer_2
  10
25.590088
  20
244.04704
  0
VERTEX
  5
3b7
  8
Layer_2
  10
25.31665
  20
244.04704
  0
VERTEX
  5
3b8
  8
Layer_2
  10
25.908447
  20
243.21599
  0
VERTEX
  5
3b9
  8
Layer_2
  10
25.237061
  20
242.3112
  0
VERTEX
  5
3ba
  8
Layer_2
  10
25.512939
  20
242.3112
  0
SEQEND
  0
POLYLINE
  5
3bc
  8
Layer_2
  62
1
  70
1
  66
1
  10
0
  20
0
  30
0
  0
VERTEX
  5
3bc
  8
Layer_2
  10
34.362061
  20
244.04704
  0
VERTEX
  5
3bd
  8
Layer_2
  10
34.14917
  20
244.04704
  0
VERTEX
  5
3be
  8
Layer_2
  10
34.14917
  20
243.80193
  0
VERTEX
  5
3bf
  8
Layer_2
  10
34.362061
  20
243.80193
  0
SEQEND
  0
POLYLINE
  5
3c1
  8
Layer_2
  62
1
  70
1
  66
1
  10
0
  20
0
  30
0
  0
VERTEX
  5
3c1
  8
Layer_2
  10
27.937744
  20
243.0822
  42
-0.10941613
  0
VERTEX
  5
3c2
  8
Layer_2
  10
28.38501
  20
243.05583
  42
-0.13275799
  0
VERTEX
  5
3c3
  8
Layer_2
  10
28.719482
  20
242.67253
  0
VERTEX
  5
3c4
  8
Layer_2
  10
28.948975
  20
242.3112
  0
VERTEX
  5
3c5
  8
Layer_2
  10
29.238037
  20
242.3112
  0
VERTEX
  5
3c6
  8
Layer_2
  10
28.936279
  20
242.78386
  42
0.15937606
  0
VERTEX
  5
3c7
  8
Layer_2
  10
28.606689
  20
243.10124
  0
VERTEX
  5
3c8
  8
Layer_2
  10
28.723877
  20
243.12419
  42
0.3676615
  0
VERTEX
  5
3c9
  8
Layer_2
  10
29.095947
  20
243.57341
  42
0.19751106
  0
VERTEX
  5
3ca
  8
Layer_2
  10
28.984495
  20
243.89005
  42
0.19751101
  0
VERTEX
  5
3cb
  8
Layer_2
  10
28.681885
  20
244.03532
  42
0.028684651
  0
VERTEX
  5
3cc
  8
Layer_2
  10
27.708252
  20
244.04704
  0
VERTEX
  5
3cd
  8
Layer_2
  10
27.708252
  20
242.3112
  0
VERTEX
  5
3ce
  8
Layer_2
  10
27.937744
  20
242.3112
  0
SEQEND
  0
POLYLINE
  5
3d0
  8
Layer_2
  62
1
  70
1
  66
1
  10
0
  20
0
  30
0
  0
VERTEX
  5
3d0
  8
Layer_2
  10
31.430908
  20
242.29411
  0
VERTEX
  5
3d1
  8
Layer_2
  10
31.530518
  20
242.32683
  42
0.30648405
  0
VERTEX
  5
3d2
  8
Layer_2
  10
31.866455
  20
242.95915
  42
0.29593087
  0
VERTEX
  5
3d3
  8
Layer_2
  10
31.552979
  20
243.55046
  42
0.35731232
  0
VERTEX
  5
3d4
  8
Layer_2
  10
30.989014
  20
243.4279
  0
VERTEX
  5
3d5
  8
Layer_2
  10
30.989014
  20
244.04704
  0
VERTEX
  5
3d6
  8
Layer_2
  10
30.775635
  20
244.04704
  0
VERTEX
  5
3d7
  8
Layer_2
  10
30.775635
  20
242.3112
  0
VERTEX
  5
3d8
  8
Layer_2
  10
30.973389
  20
242.3112
  0
VERTEX
  5
3d9
  8
Layer_2
  10
30.973389
  20
242.46892
  0
VERTEX
  5
3da
  8
Layer_2
  10
31.042725
  20
242.38737
  42
0.24729287
  0
SEQEND
  0
POLYLINE
  5
3dc
  8
Layer_2
  62
1
  70
1
  66
1
  10
0
  20
0
  30
0
  0
VERTEX
  5
3dc
  8
Layer_2
  10
33.88501
  20
242.29948
  0
VERTEX
  5
3dd
  8
Layer_2
  10
33.970459
  20
242.31364
  0
VERTEX
  5
3de
  8
Layer_2
  10
33.939697
  20
242.50212
  0
VERTEX
  5
3df
  8
Layer_2
  10
33.886963
  20
242.49577
  42
-0.36848275
  0
VERTEX
  5
3e0
  8
Layer_2
  10
33.736572
  20
242.55046
  42
-0.077037981
  0
VERTEX
  5
3e1
  8
Layer_2
  10
33.725342
  20
242.66765
  0
VERTEX
  5
3e2
  8
Layer_2
  10
33.725342
  20
243.403
  0
VERTEX
  5
3e3
  8
Layer_2
  10
33.939697
  20
243.403
  0
VERTEX
  5
3e4
  8
Layer_2
  10
33.939697
  20
243.56902
  0
VERTEX
  5
3e5
  8
Layer_2
  10
33.725342
  20
243.56902
  0
VERTEX
  5
3e6
  8
Layer_2
  10
33.725342
  20
244.00798
  0
VERTEX
  5
3e7
  8
Layer_2
  10
33.513428
  20
243.88005
  0
VERTEX
  5
3e8
  8
Layer_2
  10
33.513428
  20
243.56902
  0
VERTEX
  5
3e9
  8
Layer_2
  10
33.357178
  20
243.56902
  0
VERTEX
  5
3ea
  8
Layer_2
  10
33.357178
  20
243.403
  0
VERTEX
  5
3eb
  8
Layer_2
  10
33.513428
  20
243.403
  0
VERTEX
  5
3ec
  8
Layer_2
  10
33.513428
  20
242.67937
  42
0.29158606
  0
VERTEX
  5
3ed
  8
Layer_2
  10
33.62915
  20
242.33122
  42
0.1374487
  0
SEQEND
  0
POLYLINE
  5
3ef
  8
Layer_2
  62
1
  70
1
  66
1
  10
0
  20
0
  30
0
  0
VERTEX
  5
3ef
  8
Layer_2
  10
27.937744
  20
243.28093
  0
VERTEX
  5
3f0
  8
Layer_2
  10
27.937744
  20
243.85564
  42
-0.02970503
  0
VERTEX
  5
3f1
  8
Layer_2
  10
28.577393
  20
243.85027
  42
-0.1983991
  0
VERTEX
  5
3f2
  8
Layer_2
  10
28.775913
  20
243.77051
  42
-0.19841039
  0
VERTEX
  5
3f3
  8
Layer_2
  10
28.859131
  20
243.57341
  42
-0.40964482
  0
VERTEX
  5
3f4
  8
Layer_2
  10
28.572021
  20
243.28923
  42
-0.029488497
  0
SEQEND
  0
POLYLINE
  5
3f6
  8
Layer_2
  62
1
  70
1
  66
1
  10
0
  20
0
  30
0
  0
VERTEX
  5
3f6
  8
Layer_2
  10
32.794189
  20
242.30193
  0
VERTEX
  5
3f7
  8
Layer_2
  10
32.939697
  20
242.36003
  42
0.28817225
  0
VERTEX
  5
3f8
  8
Layer_2
  10
33.224365
  20
242.95769
  42
0.21374974
  0
VERTEX
  5
3f9
  8
Layer_2
  10
33.074165
  20
243.40996
  42
0.21374994
  0
VERTEX
  5
3fa
  8
Layer_2
  10
32.635986
  20
243.59734
  42
0.39526097
  0
VERTEX
  5
3fb
  8
Layer_2
  10
32.05835
  20
243.1032
  42
0.23448447
  0
VERTEX
  5
3fc
  8
Layer_2
  10
32.209229
  20
242.45232
  42
0.26505205
  0
SEQEND
  0
POLYLINE
  5
3fe
  8
Layer_2
  62
1
  70
1
  66
1
  10
0
  20
0
  30
0
  0
VERTEX
  5
3fe
  8
Layer_2
  10
30.096924
  20
242.30193
  0
VERTEX
  5
3ff
  8
Layer_2
  10
30.242432
  20
242.36003
  42
0.28817231
  0
VERTEX
  5
400
  8
Layer_2
  10
30.5271
  20
242.95769
  42
0.2137965
  0
VERTEX
  5
401
  8
Layer_2
  10
30.376921
  20
243.40997
  42
0.21379763
  0
VERTEX
  5
402
  8
Layer_2
  10
29.938721
  20
243.59734
  42
0.39526138
  0
VERTEX
  5
403
  8
Layer_2
  10
29.361084
  20
243.1032
  42
0.23448369
  0
VERTEX
  5
404
  8
Layer_2
  10
29.511963
  20
242.45232
  42
0.26481511
  0
SEQEND
  0
POLYLINE
  5
406
  8
Layer_2
  62
1
  70
1
  66
1
  10
0
  20
0
  30
0
  0
VERTEX
  5
406
  8
Layer_2
  10
35.292236
  20
242.2907
  0
VERTEX
  5
407
  8
Layer_2
  10
35.383057
  20
242.31364
  42
0.28567961
  0
VERTEX
  5
408
  8
Layer_2
  10
35.716553
  20
242.7448
  0
VERTEX
  5
409
  8
Layer_2
  10
35.50708
  20
242.77214
  0
VERTEX
  5
40a
  8
Layer_2
  10
35.468994
  20
242.63298
  42
-0.40641497
  0
VERTEX
  5
40b
  8
Layer_2
  10
35.049561
  20
242.48698
  42
-0.31356165
  0
VERTEX
  5
40c
  8
Layer_2
  10
34.840088
  20
242.94109
  42
-0.31697364
  0
VERTEX
  5
40d
  8
Layer_2
  10
35.056885
  20
243.39323
  42
-0.39983925
  0
VERTEX
  5
40e
  8
Layer_2
  10
35.447998
  20
243.27849
  0
VERTEX
  5
40f
  8
Layer_2
  10
35.489014
  20
243.16765
  0
VERTEX
  5
410
  8
Layer_2
  10
35.696533
  20
243.19939
  42
0.29036198
  0
VERTEX
  5
411
  8
Layer_2
  10
35.380615
  20
243.57146
  42
0.38331257
  0
VERTEX
  5
412
  8
Layer_2
  10
34.688721
  20
243.29167
  42
0.27118539
  0
VERTEX
  5
413
  8
Layer_2
  10
34.778076
  20
242.45183
  42
0.24844019
  0
SEQEND
  0
POLYLINE
  5
415
  8
Layer_2
  62
1
  70
1
  66
1
  10
0
  20
0
  30
0
  0
VERTEX
  5
415
  8
Layer_2
  10
36.491455
  20
242.29558
  42
0.25549737
  0
VERTEX
  5
416
  8
Layer_2
  10
36.805656
  20
242.49228
  42
0.25549991
  0
VERTEX
  5
417
  8
Layer_2
  10
36.807373
  20
242.86296
  42
0.15708877
  0
VERTEX
  5
418
  8
Layer_2
  10
36.455811
  20
243.04509
  0
VERTEX
  5
419
  8
Layer_2
  10
36.186768
  20
243.12029
  42
-0.35068693
  0
VERTEX
  5
41a
  8
Layer_2
  10
36.05542
  20
243.25993
  42
-0.34888003
  0
VERTEX
  5
41b
  8
Layer_2
  10
36.201904
  20
243.40984
  42
-0.33610242
  0
VERTEX
  5
41c
  8
Layer_2
  10
36.574463
  20
243.30241
  0
VERTEX
  5
41d
  8
Layer_2
  10
36.602295
  20
243.21599
  0
VERTEX
  5
41e
  8
Layer_2
  10
36.810791
  20
243.24431
  42
0.30666172
  0
VERTEX
  5
41f
  8
Layer_2
  10
36.572021
  20
243.55486
  42
0.29215459
  0
VERTEX
  5
420
  8
Layer_2
  10
35.93335
  20
243.45622
  42
0.3284341
  0
VERTEX
  5
421
  8
Layer_2
  10
35.89624
  20
243.06609
  42
0.17482831
  0
VERTEX
  5
422
  8
Layer_2
  10
36.250244
  20
242.87273
  0
VERTEX
  5
423
  8
Layer_2
  10
36.437256
  20
242.82341
  42
-0.36389122
  0
VERTEX
  5
424
  8
Layer_2
  10
36.638916
  20
242.65837
  42
-0.33923918
  0
VERTEX
  5
425
  8
Layer_2
  10
36.477783
  20
242.47331
  42
-0.35265242
  0
VERTEX
  5
426
  8
Layer_2
  10
36.057861
  20
242.60808
  0
VERTEX
  5
427
  8
Layer_2
  10
36.024658
  20
242.71989
  0
VERTEX
  5
428
  8
Layer_2
  10
35.813721
  20
242.68669
  42
0.3140784
  0
VERTEX
  5
429
  8
Layer_2
  10
36.135498
  20
242.30827
  42
0.10445009
  0
SEQEND
  0
POLYLINE
  5
42b
  8
Layer_2
  62
1
  70
1
  66
1
  10
0
  20
0
  30
0
  0
VERTEX
  5
42b
  8
Layer_2
  10
38.672119
  20
242.99821
  0
VERTEX
  5
42c
  8
Layer_2
  10
38.678467
  20
243.10905
  42
-0.20115243
  0
VERTEX
  5
42d
  8
Layer_2
  10
38.778606
  20
243.32961
  42
-0.20113954
  0
VERTEX
  5
42e
  8
Layer_2
  10
39.006104
  20
243.41277
  42
-0.20197093
  0
VERTEX
  5
42f
  8
Layer_2
  10
39.181065
  20
243.35567
  42
-0.2019487
  0
VERTEX
  5
430
  8
Layer_2
  10
39.261475
  20
243.19011
  42
-0.027875607
  0
VERTEX
  5
431
  8
Layer_2
  10
39.267822
  20
242.3112
  0
VERTEX
  5
432
  8
Layer_2
  10
39.480713
  20
242.3112
  42
0.011670146
  0
VERTEX
  5
433
  8
Layer_2
  10
39.477783
  20
243.21013
  42
0.38885488
  0
VERTEX
  5
434
  8
Layer_2
  10
39.1604
  20
243.58708
  42
0.31794316
  0
VERTEX
  5
435
  8
Layer_2
  10
38.650635
  20
243.38982
  0
VERTEX
  5
436
  8
Layer_2
  10
38.650635
  20
243.56902
  0
VERTEX
  5
437
  8
Layer_2
  10
38.459229
  20
243.56902
  0
VERTEX
  5
438
  8
Layer_2
  10
38.459229
  20
242.3112
  0
VERTEX
  5
439
  8
Layer_2
  10
38.672119
  20
242.3112
  0
SEQEND
  0
POLYLINE
  5
43b
  8
Layer_2
  62
1
  70
1
  66
1
  10
0
  20
0
  30
0
  0
VERTEX
  5
43b
  8
Layer_2
  10
40.41333
  20
242.2907
  42
0.33863651
  0
VERTEX
  5
43c
  8
Layer_2
  10
40.837646
  20
242.7448
  0
VERTEX
  5
43d
  8
Layer_2
  10
40.628174
  20
242.77214
  0
VERTEX
  5
43e
  8
Layer_2
  10
40.590576
  20
242.63298
  42
-0.40583586
  0
VERTEX
  5
43f
  8
Layer_2
  10
40.170654
  20
242.48698
  42
-0.31284743
  0
VERTEX
  5
440
  8
Layer_2
  10
39.96167
  20
242.94109
  42
-0.31643201
  0
VERTEX
  5
441
  8
Layer_2
  10
40.177979
  20
243.39323
  42
-0.39879158
  0
VERTEX
  5
442
  8
Layer_2
  10
40.56958
  20
243.27849
  0
VERTEX
  5
443
  8
Layer_2
  10
40.610596
  20
243.16765
  0
VERTEX
  5
444
  8
Layer_2
  10
40.817627
  20
243.19939
  42
0.29159206
  0
VERTEX
  5
445
  8
Layer_2
  10
40.501709
  20
243.57146
  42
0.38314175
  0
VERTEX
  5
446
  8
Layer_2
  10
39.809814
  20
243.29167
  42
0.27106448
  0
VERTEX
  5
447
  8
Layer_2
  10
39.89917
  20
242.45183
  42
0.24835439
  0
SEQEND
  0
POLYLINE
  5
449
  8
Layer_2
  62
1
  70
1
  66
1
  10
0
  20
0
  30
0
  0
VERTEX
  5
449
  8
Layer_2
  10
34.362061
  20
243.56902
  0
VERTEX
  5
44a
  8
Layer_2
  10
34.14917
  20
243.56902
  0
VERTEX
  5
44b
  8
Layer_2
  10
34.14917
  20
242.3112
  0
VERTEX
  5
44c
  8
Layer_2
  10
34.362061
  20
242.3112
  0
SEQEND
  0
POLYLINE
  5
44e
  8
Layer_2
  62
1
  70
1
  66
1
  10
0
  20
0
  30
0
  0
VERTEX
  5
44e
  8
Layer_2
  10
31.223877
  20
242.46843
  0
VERTEX
  5
44f
  8
Layer_2
  10
31.151123
  20
242.49919
  42
-0.27652422
  0
VERTEX
  5
450
  8
Layer_2
  10
30.970947
  20
242.94939
  42
-0.36338243
  0
VERTEX
  5
451
  8
Layer_2
  10
31.246826
  20
243.41423
  42
-0.35820375
  0
VERTEX
  5
452
  8
Layer_2
  10
31.593506
  20
243.23796
  42
-0.30056981
  0
VERTEX
  5
453
  8
Layer_2
  10
31.493408
  20
242.52654
  42
-0.24797658
  0
SEQEND
  0
POLYLINE
  5
455
  8
Layer_2
  62
1
  70
1
  66
1
  10
0
  20
0
  30
0
  0
VERTEX
  5
455
  8
Layer_2
  10
29.862061
  20
242.4655
  0
VERTEX
  5
456
  8
Layer_2
  10
29.792236
  20
242.48796
  42
-0.31038595
  0
VERTEX
  5
457
  8
Layer_2
  10
29.568115
  20
242.94011
  42
-0.38651696
  0
VERTEX
  5
458
  8
Layer_2
  10
29.862061
  20
243.41325
  42
-0.34013774
  0
VERTEX
  5
459
  8
Layer_2
  10
30.248779
  20
243.23357
  42
-0.31435303
  0
VERTEX
  5
45a
  8
Layer_2
  10
30.146729
  20
242.52605
  42
-0.21793303
  0
SEQEND
  0
POLYLINE
  5
45c
  8
Layer_2
  62
1
  70
1
  66
1
  10
0
  20
0
  30
0
  0
VERTEX
  5
45c
  8
Layer_2
  10
32.559326
  20
242.4655
  0
VERTEX
  5
45d
  8
Layer_2
  10
32.489502
  20
242.48796
  42
-0.31038692
  0
VERTEX
  5
45e
  8
Layer_2
  10
32.265381
  20
242.94011
  42
-0.38651637
  0
VERTEX
  5
45f
  8
Layer_2
  10
32.559326
  20
243.41325
  42
-0.34107867
  0
VERTEX
  5
460
  8
Layer_2
  10
32.945557
  20
243.23357
  42
-0.31511515
  0
VERTEX
  5
461
  8
Layer_2
  10
32.843994
  20
242.52605
  42
-0.21793117
  0
SEQEND
  0
POLYLINE
  5
463
  8
Layer_2
  62
1
  70
1
  66
1
  10
0
  20
0
  30
0
  0
VERTEX
  5
463
  8
Layer_2
  10
41.997314
  20
242.55388
  0
VERTEX
  5
464
  8
Layer_2
  10
41.75415
  20
242.55388
  0
VERTEX
  5
465
  8
Layer_2
  10
41.75415
  20
242.3112
  0
VERTEX
  5
466
  8
Layer_2
  10
41.997314
  20
242.3112
  0
SEQEND
  0
POLYLINE
  5
468
  8
Layer_2
  62
1
  70
1
  66
1
  10
0
  20
0
  30
0
  0
VERTEX
  5
468
  8
Layer_2
  10
32.998291
  20
241.25896
  0
VERTEX
  5
469
  8
Layer_2
  10
32.784912
  20
241.25896
  0
VERTEX
  5
46a
  8
Layer_2
  10
32.784912
  20
241.01384
  0
VERTEX
  5
46b
  8
Layer_2
  10
32.998291
  20
241.01384
  0
SEQEND
  0
POLYLINE
  5
46d
  8
Layer_2
  62
1
  70
1
  66
1
  10
0
  20
0
  30
0
  0
VERTEX
  5
46d
  8
Layer_2
  10
30.06665
  20
239.50554
  0
VERTEX
  5
46e
  8
Layer_2
  10
30.166748
  20
239.53874
  42
0.30615739
  0
VERTEX
  5
46f
  8
Layer_2
  10
30.502197
  20
240.17107
  42
0.29490296
  0
VERTEX
  5
470
  8
Layer_2
  10
30.189209
  20
240.76237
  42
0.35680235
  0
VERTEX
  5
471
  8
Layer_2
  10
29.624756
  20
240.63982
  0
VERTEX
  5
472
  8
Layer_2
  10
29.624756
  20
241.25896
  0
VERTEX
  5
473
  8
Layer_2
  10
29.411865
  20
241.25896
  0
VERTEX
  5
474
  8
Layer_2
  10
29.411865
  20
239.52312
  0
VERTEX
  5
475
  8
Layer_2
  10
29.609619
  20
239.52312
  0
VERTEX
  5
476
  8
Layer_2
  10
29.609619
  20
239.68083
  0
VERTEX
  5
477
  8
Layer_2
  10
29.678955
  20
239.59929
  42
0.24666018
  0
SEQEND
  0
POLYLINE
  5
479
  8
Layer_2
  62
1
  70
1
  66
1
  10
0
  20
0
  30
0
  0
VERTEX
  5
479
  8
Layer_2
  10
32.520752
  20
239.5114
  0
VERTEX
  5
47a
  8
Layer_2
  10
32.606201
  20
239.52556
  0
VERTEX
  5
47b
  8
Layer_2
  10
32.575439
  20
239.71355
  0
VERTEX
  5
47c
  8
Layer_2
  10
32.523193
  20
239.70769
  42
-0.36986797
  0
VERTEX
  5
47d
  8
Layer_2
  10
32.372314
  20
239.76237
  42
-0.077039552
  0
VERTEX
  5
47e
  8
Layer_2
  10
32.361084
  20
239.87956
  0
VERTEX
  5
47f
  8
Layer_2
  10
32.361084
  20
240.61491
  0
VERTEX
  5
480
  8
Layer_2
  10
32.575439
  20
240.61491
  0
VERTEX
  5
481
  8
Layer_2
  10
32.575439
  20
240.78093
  0
VERTEX
  5
482
  8
Layer_2
  10
32.361084
  20
240.78093
  0
VERTEX
  5
483
  8
Layer_2
  10
32.361084
  20
241.21989
  0
VERTEX
  5
484
  8
Layer_2
  10
32.14917
  20
241.09196
  0
VERTEX
  5
485
  8
Layer_2
  10
32.14917
  20
240.78093
  0
VERTEX
  5
486
  8
Layer_2
  10
31.99292
  20
240.78093
  0
VERTEX
  5
487
  8
Layer_2
  10
31.99292
  20
240.61491
  0
VERTEX
  5
488
  8
Layer_2
  10
32.14917
  20
240.61491
  0
VERTEX
  5
489
  8
Layer_2
  10
32.14917
  20
239.89128
  42
0.29290673
  0
VERTEX
  5
48a
  8
Layer_2
  10
32.265381
  20
239.54314
  42
0.13783543
  0
SEQEND
  0
POLYLINE
  5
48c
  8
Layer_2
  62
1
  70
1
  66
1
  10
0
  20
0
  30
0
  0
VERTEX
  5
48c
  8
Layer_2
  10
28.732666
  20
239.51384
  0
VERTEX
  5
48d
  8
Layer_2
  10
28.878174
  20
239.57146
  42
0.28767623
  0
VERTEX
  5
48e
  8
Layer_2
  10
29.16333
  20
240.1696
  42
0.21349866
  0
VERTEX
  5
48f
  8
Layer_2
  10
29.012703
  20
240.62181
  42
0.21349873
  0
VERTEX
  5
490
  8
Layer_2
  10
28.574463
  20
240.80925
  42
0.39521764
  0
VERTEX
  5
491
  8
Layer_2
  10
27.996826
  20
240.31511
  42
0.2344842
  0
VERTEX
  5
492
  8
Layer_2
  10
28.147705
  20
239.66423
  42
0.2660365
  0
SEQEND
  0
POLYLINE
  5
494
  8
Layer_2
  62
1
  70
1
  66
1
  10
0
  20
0
  30
0
  0
VERTEX
  5
494
  8
Layer_2
  10
25.328369
  20
239.50114
  0
VERTEX
  5
495
  8
Layer_2
  10
25.423096
  20
239.52116
  42
0.27126612
  0
VERTEX
  5
496
  8
Layer_2
  10
25.776611
  20
239.90105
  0
VERTEX
  5
497
  8
Layer_2
  10
25.556396
  20
239.9279
  0
VERTEX
  5
498
  8
Layer_2
  10
25.499268
  20
239.81169
  42
-0.40786031
  0
VERTEX
  5
499
  8
Layer_2
  10
25.017822
  20
239.7321
  42
-0.23289043
  0
VERTEX
  5
49a
  8
Layer_2
  10
24.844482
  20
240.09734
  0
VERTEX
  5
49b
  8
Layer_2
  10
25.782471
  20
240.09734
  42
0.33236415
  0
VERTEX
  5
49c
  8
Layer_2
  10
25.441162
  20
240.76628
  42
0.37419313
  0
VERTEX
  5
49d
  8
Layer_2
  10
24.716553
  20
240.53728
  42
0.29863038
  0
VERTEX
  5
49e
  8
Layer_2
  10
24.785889
  20
239.66472
  42
0.23638918
  0
SEQEND
  0
POLYLINE
  5
4a0
  8
Layer_2
  62
1
  70
1
  66
1
  10
0
  20
0
  30
0
  0
VERTEX
  5
4a0
  8
Layer_2
  10
27.467529
  20
240.18132
  42
-0.22800231
  0
VERTEX
  5
4a1
  8
Layer_2
  10
27.582275
  20
240.54704
  42
-0.31447193
  0
VERTEX
  5
4a2
  8
Layer_2
  10
27.864014
  20
240.54265
  0
VERTEX
  5
4a3
  8
Layer_2
  10
27.937744
  20
240.7404
  42
0.31183459
  0
VERTEX
  5
4a4
  8
Layer_2
  10
27.581787
  20
240.76628
  42
0.1070123
  0
VERTEX
  5
4a5
  8
Layer_2
  10
27.446045
  20
240.59001
  0
VERTEX
  5
4a6
  8
Layer_2
  10
27.446045
  20
240.78093
  0
VERTEX
  5
4a7
  8
Layer_2
  10
27.25415
  20
240.78093
  0
VERTEX
  5
4a8
  8
Layer_2
  10
27.25415
  20
239.52312
  0
VERTEX
  5
4a9
  8
Layer_2
  10
27.467529
  20
239.52312
  0
SEQEND
  0
POLYLINE
  5
4ab
  8
Layer_2
  62
1
  70
1
  66
1
  10
0
  20
0
  30
0
  0
VERTEX
  5
4ab
  8
Layer_2
  10
39.195557
  20
240.17546
  0
VERTEX
  5
4ac
  8
Layer_2
  10
39.203857
  20
240.32732
  42
-0.19846838
  0
VERTEX
  5
4ad
  8
Layer_2
  10
39.293858
  20
240.53868
  42
-0.19847163
  0
VERTEX
  5
4ae
  8
Layer_2
  10
39.50708
  20
240.62419
  42
-0.39978805
  0
VERTEX
  5
4af
  8
Layer_2
  10
39.716553
  20
240.46452
  0
VERTEX
  5
4b0
  8
Layer_2
  10
39.729736
  20
240.34001
  0
VERTEX
  5
4b1
  8
Layer_2
  10
39.729736
  20
239.52312
  0
VERTEX
  5
4b2
  8
Layer_2
  10
39.942627
  20
239.52312
  0
VERTEX
  5
4b3
  8
Layer_2
  10
39.942627
  20
240.25359
  42
-0.22044456
  0
VERTEX
  5
4b4
  8
Layer_2
  10
40.009903
  20
240.51103
  42
-0.2204479
  0
VERTEX
  5
4b5
  8
Layer_2
  10
40.250732
  20
240.62419
  42
-0.20630016
  0
VERTEX
  5
4b6
  8
Layer_2
  10
40.402992
  20
240.57219
  42
-0.20629704
  0
VERTEX
  5
4b7
  8
Layer_2
  10
40.468994
  20
240.42546
  42
-0.024321657
  0
VERTEX
  5
4b8
  8
Layer_2
  10
40.474365
  20
239.52312
  0
VERTEX
  5
4b9
  8
Layer_2
  10
40.686279
  20
239.52312
  42
0.031522357
  0
VERTEX
  5
4ba
  8
Layer_2
  10
40.679932
  20
240.48698
  42
0.36923996
  0
VERTEX
  5
4bb
  8
Layer_2
  10
40.385986
  20
240.80241
  42
0.31241422
  0
VERTEX
  5
4bc
  8
Layer_2
  10
39.909424
  20
240.58904
  0
VERTEX
  5
4bd
  8
Layer_2
  10
39.859619
  20
240.68132
  42
0.3392205
  0
VERTEX
  5
4be
  8
Layer_2
  10
39.330322
  20
240.7531
  42
0.12259299
  0
VERTEX
  5
4bf
  8
Layer_2
  10
39.173096
  20
240.60417
  0
VERTEX
  5
4c0
  8
Layer_2
  10
39.173096
  20
240.78093
  0
VERTEX
  5
4c1
  8
Layer_2
  10
38.982178
  20
240.78093
  0
VERTEX
  5
4c2
  8
Layer_2
  10
38.982178
  20
239.52312
  0
VERTEX
  5
4c3
  8
Layer_2
  10
39.195557
  20
239.52312
  0
SEQEND
  0
POLYLINE
  5
4c5
  8
Layer_2
  62
1
  70
1
  66
1
  10
0
  20
0
  30
0
  0
VERTEX
  5
4c5
  8
Layer_2
  10
31.429932
  20
239.51384
  0
VERTEX
  5
4c6
  8
Layer_2
  10
31.575439
  20
239.57146
  42
0.2885972
  0
VERTEX
  5
4c7
  8
Layer_2
  10
31.860107
  20
240.1696
  42
0.21381321
  0
VERTEX
  5
4c8
  8
Layer_2
  10
31.709936
  20
240.6219
  42
0.21381306
  0
VERTEX
  5
4c9
  8
Layer_2
  10
31.271729
  20
240.80925
  42
0.39521727
  0
VERTEX
  5
4ca
  8
Layer_2
  10
30.694092
  20
240.31511
  42
0.23448449
  0
VERTEX
  5
4cb
  8
Layer_2
  10
30.844971
  20
239.66423
  42
0.26603648
  0
SEQEND
  0
POLYLINE
  5
4cd
  8
Layer_2
  62
1
  70
1
  66
1
  10
0
  20
0
  30
0
  0
VERTEX
  5
4cd
  8
Layer_2
  10
33.927979
  20
239.50212
  42
0.33836112
  0
VERTEX
  5
4ce
  8
Layer_2
  10
34.352295
  20
239.95671
  0
VERTEX
  5
4cf
  8
Layer_2
  10
34.142822
  20
239.98357
  0
VERTEX
  5
4d0
  8
Layer_2
  10
34.104736
  20
239.84441
  42
-0.40611727
  0
VERTEX
  5
4d1
  8
Layer_2
  10
33.685303
  20
239.6989
  42
-0.31306581
  0
VERTEX
  5
4d2
  8
Layer_2
  10
33.476318
  20
240.153
  42
-0.31629301
  0
VERTEX
  5
4d3
  8
Layer_2
  10
33.692627
  20
240.60515
  42
-0.39880218
  0
VERTEX
  5
4d4
  8
Layer_2
  10
34.084229
  20
240.4904
  0
VERTEX
  5
4d5
  8
Layer_2
  10
34.125244
  20
240.37907
  0
VERTEX
  5
4d6
  8
Layer_2
  10
34.332275
  20
240.4113
  42
0.29141054
  0
VERTEX
  5
4d7
  8
Layer_2
  10
34.016357
  20
240.78337
  42
0.38312439
  0
VERTEX
  5
4d8
  8
Layer_2
  10
33.324463
  20
240.50359
  42
0.27073836
  0
VERTEX
  5
4d9
  8
Layer_2
  10
33.413818
  20
239.66325
  42
0.24773127
  0
SEQEND
  0
POLYLINE
  5
4db
  8
Layer_2
  62
1
  70
1
  66
1
  10
0
  20
0
  30
0
  0
VERTEX
  5
4db
  8
Layer_2
  10
35.127686
  20
239.50749
  42
0.25530918
  0
VERTEX
  5
4dc
  8
Layer_2
  10
35.441513
  20
239.70439
  42
0.25530892
  0
VERTEX
  5
4dd
  8
Layer_2
  10
35.443115
  20
240.07487
  42
0.15694423
  0
VERTEX
  5
4de
  8
Layer_2
  10
35.091553
  20
240.257
  0
VERTEX
  5
4df
  8
Layer_2
  10
34.82251
  20
240.3322
  42
-0.35161541
  0
VERTEX
  5
4e0
  8
Layer_2
  10
34.691162
  20
240.47185
  42
-0.34529998
  0
VERTEX
  5
4e1
  8
Layer_2
  10
34.837646
  20
240.62175
  42
-0.33585049
  0
VERTEX
  5
4e2
  8
Layer_2
  10
35.210693
  20
240.51433
  0
VERTEX
  5
4e3
  8
Layer_2
  10
35.238037
  20
240.4279
  0
VERTEX
  5
4e4
  8
Layer_2
  10
35.446533
  20
240.45622
  42
0.30804101
  0
VERTEX
  5
4e5
  8
Layer_2
  10
35.207764
  20
240.76628
  42
0.29286631
  0
VERTEX
  5
4e6
  8
Layer_2
  10
34.569092
  20
240.66814
  42
0.32806012
  0
VERTEX
  5
4e7
  8
Layer_2
  10
34.531982
  20
240.278
  42
0.17511572
  0
VERTEX
  5
4e8
  8
Layer_2
  10
34.885986
  20
240.08464
  0
VERTEX
  5
4e9
  8
Layer_2
  10
35.072998
  20
240.03484
  42
-0.36128752
  0
VERTEX
  5
4ea
  8
Layer_2
  10
35.275146
  20
239.87029
  42
-0.33403036
  0
VERTEX
  5
4eb
  8
Layer_2
  10
35.114014
  20
239.68474
  42
-0.35170973
  0
VERTEX
  5
4ec
  8
Layer_2
  10
34.694092
  20
239.81999
  0
VERTEX
  5
4ed
  8
Layer_2
  10
34.6604
  20
239.93181
  0
VERTEX
  5
4ee
  8
Layer_2
  10
34.449463
  20
239.89861
  42
0.31403363
  0
VERTEX
  5
4ef
  8
Layer_2
  10
34.77124
  20
239.52019
  42
0.10431092
  0
SEQEND
  0
POLYLINE
  5
4f1
  8
Layer_2
  62
1
  70
1
  66
1
  10
0
  20
0
  30
0
  0
VERTEX
  5
4f1
  8
Layer_2
  10
38.30249
  20
239.51384
  42
0.36939227
  0
VERTEX
  5
4f2
  8
Layer_2
  10
38.732666
  20
240.1696
  42
0.21364553
  0
VERTEX
  5
4f3
  8
Layer_2
  10
38.582417
  20
240.62183
  42
0.21364456
  0
VERTEX
  5
4f4
  8
Layer_2
  10
38.144287
  20
240.80925
  42
0.39537047
  0
VERTEX
  5
4f5
  8
Layer_2
  10
37.56665
  20
240.31511
  42
0.23480859
  0
VERTEX
  5
4f6
  8
Layer_2
  10
37.717041
  20
239.66423
  42
0.26592834
  0
SEQEND
  0
POLYLINE
  5
4f8
  8
Layer_2
  62
1
  70
1
  66
1
  10
0
  20
0
  30
0
  0
VERTEX
  5
4f8
  8
Layer_2
  10
37.0271
  20
239.50212
  42
0.33836143
  0
VERTEX
  5
4f9
  8
Layer_2
  10
37.451416
  20
239.95671
  0
VERTEX
  5
4fa
  8
Layer_2
  10
37.241943
  20
239.98357
  0
VERTEX
  5
4fb
  8
Layer_2
  10
37.203857
  20
239.84441
  42
-0.40553036
  0
VERTEX
  5
4fc
  8
Layer_2
  10
36.783936
  20
239.6989
  42
-0.31265727
  0
VERTEX
  5
4fd
  8
Layer_2
  10
36.574951
  20
240.153
  42
-0.3160959
  0
VERTEX
  5
4fe
  8
Layer_2
  10
36.79126
  20
240.60515
  42
-0.39965409
  0
VERTEX
  5
4ff
  8
Layer_2
  10
37.182861
  20
240.4904
  0
VERTEX
  5
500
  8
Layer_2
  10
37.223877
  20
240.37907
  0
VERTEX
  5
501
  8
Layer_2
  10
37.431396
  20
240.4113
  42
0.29017351
  0
VERTEX
  5
502
  8
Layer_2
  10
37.115479
  20
240.78337
  42
0.38327492
  0
VERTEX
  5
503
  8
Layer_2
  10
36.423584
  20
240.50359
  42
0.27096798
  0
VERTEX
  5
504
  8
Layer_2
  10
36.512939
  20
239.66325
  42
0.24782026
  0
SEQEND
  0
POLYLINE
  5
506
  8
Layer_2
  62
1
  70
1
  66
1
  10
0
  20
0
  30
0
  0
VERTEX
  5
506
  8
Layer_2
  10
26.490479
  20
240.01921
  0
VERTEX
  5
507
  8
Layer_2
  10
26.817139
  20
239.52312
  0
VERTEX
  5
508
  8
Layer_2
  10
27.078857
  20
239.52312
  0
VERTEX
  5
509
  8
Layer_2
  10
26.611572
  20
240.18864
  0
VERTEX
  5
50a
  8
Layer_2
  10
27.046143
  20
240.78093
  0
VERTEX
  5
50b
  8
Layer_2
  10
26.79126
  20
240.78093
  42
0.012183591
  0
VERTEX
  5
50c
  8
Layer_2
  10
26.483643
  20
240.34489
  0
VERTEX
  5
50d
  8
Layer_2
  10
26.395752
  20
240.48601
  0
VERTEX
  5
50e
  8
Layer_2
  10
26.202881
  20
240.78093
  0
VERTEX
  5
50f
  8
Layer_2
  10
25.936279
  20
240.78093
  0
VERTEX
  5
510
  8
Layer_2
  10
26.361572
  20
240.17693
  0
VERTEX
  5
511
  8
Layer_2
  10
25.9021
  20
239.52312
  0
VERTEX
  5
512
  8
Layer_2
  10
26.1604
  20
239.52312
  0
SEQEND
  0
POLYLINE
  5
514
  8
Layer_2
  62
1
  70
1
  66
1
  10
0
  20
0
  30
0
  0
VERTEX
  5
514
  8
Layer_2
  10
24.50708
  20
240.78093
  0
VERTEX
  5
515
  8
Layer_2
  10
24.28833
  20
240.78093
  42
0.021188704
  0
VERTEX
  5
516
  8
Layer_2
  10
23.929443
  20
239.77409
  0
VERTEX
  5
517
  8
Layer_2
  10
23.890869
  20
239.903
  42
0.0094299273
  0
VERTEX
  5
518
  8
Layer_2
  10
23.578857
  20
240.78093
  0
VERTEX
  5
519
  8
Layer_2
  10
23.35376
  20
240.78093
  0
VERTEX
  5
51a
  8
Layer_2
  10
23.832275
  20
239.52312
  0
VERTEX
  5
51b
  8
Layer_2
  10
24.031006
  20
239.52312
  0
SEQEND
  0
POLYLINE
  5
51d
  8
Layer_2
  62
1
  70
1
  66
1
  10
0
  20
0
  30
0
  0
VERTEX
  5
51d
  8
Layer_2
  10
32.998291
  20
240.78093
  0
VERTEX
  5
51e
  8
Layer_2
  10
32.784912
  20
240.78093
  0
VERTEX
  5
51f
  8
Layer_2
  10
32.784912
  20
239.52312
  0
VERTEX
  5
520
  8
Layer_2
  10
32.998291
  20
239.52312
  0
SEQEND
  0
POLYLINE
  5
522
  8
Layer_2
  62
1
  70
1
  66
1
  10
0
  20
0
  30
0
  0
VERTEX
  5
522
  8
Layer_2
  10
24.856689
  20
240.27263
  42
-0.35980349
  0
VERTEX
  5
523
  8
Layer_2
  10
25.143799
  20
240.62761
  42
-0.38284914
  0
VERTEX
  5
524
  8
Layer_2
  10
25.531494
  20
240.4113
  0
VERTEX
  5
525
  8
Layer_2
  10
25.558838
  20
240.27263
  0
SEQEND
  0
POLYLINE
  5
527
  8
Layer_2
  62
1
  70
1
  66
1
  10
0
  20
0
  30
0
  0
VERTEX
  5
527
  8
Layer_2
  10
29.859619
  20
239.68034
  42
-0.34946708
  0
VERTEX
  5
528
  8
Layer_2
  10
29.607178
  20
240.1613
  42
-0.36483744
  0
VERTEX
  5
529
  8
Layer_2
  10
29.883057
  20
240.62614
  42
-0.35830731
  0
VERTEX
  5
52a
  8
Layer_2
  10
30.229248
  20
240.44987
  42
-0.30077557
  0
VERTEX
  5
52b
  8
Layer_2
  10
30.12915
  20
239.73845
  42
-0.24798042
  0
SEQEND
  0
POLYLINE
  5
52d
  8
Layer_2
  62
1
  70
1
  66
1
  10
0
  20
0
  30
0
  0
VERTEX
  5
52d
  8
Layer_2
  10
28.497803
  20
239.67741
  42
-0.37399667
  0
VERTEX
  5
52e
  8
Layer_2
  10
28.203857
  20
240.15202
  42
-0.38518775
  0
VERTEX
  5
52f
  8
Layer_2
  10
28.497803
  20
240.62517
  42
-0.3400396
  0
VERTEX
  5
530
  8
Layer_2
  10
28.884521
  20
240.44548
  42
-0.31446047
  0
VERTEX
  5
531
  8
Layer_2
  10
28.782471
  20
239.73796
  42
-0.21793068
  0
SEQEND
  0
POLYLINE
  5
533
  8
Layer_2
  62
1
  70
1
  66
1
  10
0
  20
0
  30
0
  0
VERTEX
  5
533
  8
Layer_2
  10
31.195068
  20
239.67741
  42
-0.37498377
  0
VERTEX
  5
534
  8
Layer_2
  10
30.901123
  20
240.15202
  42
-0.38532807
  0
VERTEX
  5
535
  8
Layer_2
  10
31.195068
  20
240.62517
  42
-0.34003879
  0
VERTEX
  5
536
  8
Layer_2
  10
31.581787
  20
240.44548
  42
-0.31446033
  0
VERTEX
  5
537
  8
Layer_2
  10
31.479736
  20
239.73796
  42
-0.21793051
  0
SEQEND
  0
POLYLINE
  5
539
  8
Layer_2
  62
1
  70
1
  66
1
  10
0
  20
0
  30
0
  0
VERTEX
  5
539
  8
Layer_2
  10
38.067627
  20
239.67741
  0
VERTEX
  5
53a
  8
Layer_2
  10
37.997803
  20
239.69987
  42
-0.31058757
  0
VERTEX
  5
53b
  8
Layer_2
  10
37.773193
  20
240.15202
  42
-0.38585373
  0
VERTEX
  5
53c
  8
Layer_2
  10
38.067627
  20
240.62517
  42
-0.34059367
  0
VERTEX
  5
53d
  8
Layer_2
  10
38.453857
  20
240.44548
  42
-0.31480351
  0
VERTEX
  5
53e
  8
Layer_2
  10
38.352295
  20
239.73796
  42
-0.21715162
  0
SEQEND
  0
POLYLINE
  5
540
  8
Layer_2
  62
1
  70
1
  66
1
  10
0
  20
0
  30
0
  0
VERTEX
  5
540
  8
Layer_2
  10
36.050537
  20
239.76579
  0
VERTEX
  5
541
  8
Layer_2
  10
35.807861
  20
239.76579
  0
VERTEX
  5
542
  8
Layer_2
  10
35.807861
  20
239.52312
  0
VERTEX
  5
543
  8
Layer_2
  10
36.050537
  20
239.52312
  0
SEQEND
  0
POLYLINE
  5
545
  8
Layer_2
  62
1
  70
1
  66
1
  10
0
  20
0
  30
0
  0
VERTEX
  5
545
  8
Layer_2
  10
29.486084
  20
233.924
  42
0.25643286
  0
VERTEX
  5
546
  8
Layer_2
  10
30.098389
  20
234.34001
  42
0.37541228
  0
VERTEX
  5
547
  8
Layer_2
  10
29.809326
  20
235.5988
  42
0.33798971
  0
VERTEX
  5
548
  8
Layer_2
  10
28.7771
  20
235.46892
  42
0.35855566
  0
VERTEX
  5
549
  8
Layer_2
  10
28.767334
  20
234.17546
  42
0.24505928
  0
SEQEND
  0
POLYLINE
  5
54b
  8
Layer_2
  62
1
  70
1
  66
1
  10
0
  20
0
  30
0
  0
VERTEX
  5
54b
  8
Layer_2
  10
31.155029
  20
233.94695
  0
VERTEX
  5
54c
  8
Layer_2
  10
31.366943
  20
233.94695
  0
VERTEX
  5
54d
  8
Layer_2
  10
31.366943
  20
235.03874
  0
VERTEX
  5
54e
  8
Layer_2
  10
31.612061
  20
235.03874
  0
VERTEX
  5
54f
  8
Layer_2
  10
31.612061
  20
235.20427
  0
VERTEX
  5
550
  8
Layer_2
  10
31.366943
  20
235.20427
  42
-0.19907111
  0
VERTEX
  5
551
  8
Layer_2
  10
31.406982
  20
235.47575
  42
-0.19792246
  0
VERTEX
  5
552
  8
Layer_2
  10
31.670166
  20
235.50505
  0
VERTEX
  5
553
  8
Layer_2
  10
31.701904
  20
235.69109
  42
0.28723387
  0
VERTEX
  5
554
  8
Layer_2
  10
31.219971
  20
235.60173
  42
0.17375776
  0
VERTEX
  5
555
  8
Layer_2
  10
31.155029
  20
235.20427
  0
VERTEX
  5
556
  8
Layer_2
  10
30.736572
  20
235.20427
  42
-0.19837
  0
VERTEX
  5
557
  8
Layer_2
  10
30.7771
  20
235.47575
  42
-0.19857123
  0
VERTEX
  5
558
  8
Layer_2
  10
31.039795
  20
235.50505
  0
VERTEX
  5
559
  8
Layer_2
  10
31.072021
  20
235.69109
  42
0.28662484
  0
VERTEX
  5
55a
  8
Layer_2
  10
30.5896
  20
235.60173
  42
0.17186829
  0
VERTEX
  5
55b
  8
Layer_2
  10
30.524658
  20
235.20427
  0
VERTEX
  5
55c
  8
Layer_2
  10
30.33667
  20
235.20427
  0
VERTEX
  5
55d
  8
Layer_2
  10
30.33667
  20
235.03874
  0
VERTEX
  5
55e
  8
Layer_2
  10
30.524658
  20
235.03874
  0
VERTEX
  5
55f
  8
Layer_2
  10
30.524658
  20
233.94695
  0
VERTEX
  5
560
  8
Layer_2
  10
30.736572
  20
233.94695
  0
VERTEX
  5
561
  8
Layer_2
  10
30.736572
  20
235.03874
  0
VERTEX
  5
562
  8
Layer_2
  10
31.155029
  20
235.03874
  0
SEQEND
  0
POLYLINE
  5
564
  8
Layer_2
  62
1
  70
1
  66
1
  10
0
  20
0
  30
0
  0
VERTEX
  5
564
  8
Layer_2
  10
35.624268
  20
235.68279
  0
VERTEX
  5
565
  8
Layer_2
  10
35.410889
  20
235.68279
  0
VERTEX
  5
566
  8
Layer_2
  10
35.410889
  20
233.94695
  0
VERTEX
  5
567
  8
Layer_2
  10
35.624268
  20
233.94695
  0
SEQEND
  0
POLYLINE
  5
569
  8
Layer_2
  62
1
  70
1
  66
1
  10
0
  20
0
  30
0
  0
VERTEX
  5
569
  8
Layer_2
  10
31.991943
  20
235.68279
  0
VERTEX
  5
56a
  8
Layer_2
  10
31.779053
  20
235.68279
  0
VERTEX
  5
56b
  8
Layer_2
  10
31.779053
  20
235.43767
  0
VERTEX
  5
56c
  8
Layer_2
  10
31.991943
  20
235.43767
  0
SEQEND
  0
POLYLINE
  5
56e
  8
Layer_2
  62
1
  70
1
  66
1
  10
0
  20
0
  30
0
  0
VERTEX
  5
56e
  8
Layer_2
  10
33.74292
  20
235.68279
  0
VERTEX
  5
56f
  8
Layer_2
  10
33.530029
  20
235.68279
  0
VERTEX
  5
570
  8
Layer_2
  10
33.530029
  20
235.43767
  0
VERTEX
  5
571
  8
Layer_2
  10
33.74292
  20
235.43767
  0
SEQEND
  0
POLYLINE
  5
573
  8
Layer_2
  62
1
  70
1
  66
1
  10
0
  20
0
  30
0
  0
VERTEX
  5
573
  8
Layer_2
  10
29.251709
  20
234.12517
  42
-0.37366132
  0
VERTEX
  5
574
  8
Layer_2
  10
28.781494
  20
234.78874
  42
-0.20408838
  0
VERTEX
  5
575
  8
Layer_2
  10
28.957764
  20
235.34831
  42
-0.38070655
  0
VERTEX
  5
576
  8
Layer_2
  10
29.751709
  20
235.38103
  42
-0.22533311
  0
VERTEX
  5
577
  8
Layer_2
  10
29.968018
  20
234.81364
  42
-0.31568153
  0
VERTEX
  5
578
  8
Layer_2
  10
29.610107
  20
234.15935
  42
-0.14288365
  0
SEQEND
  0
POLYLINE
  5
57a
  8
Layer_2
  62
1
  70
1
  66
1
  10
0
  20
0
  30
0
  0
VERTEX
  5
57a
  8
Layer_2
  10
32.922119
  20
233.92595
  42
0.33830017
  0
VERTEX
  5
57b
  8
Layer_2
  10
33.346436
  20
234.38005
  0
VERTEX
  5
57c
  8
Layer_2
  10
33.136963
  20
234.40739
  0
VERTEX
  5
57d
  8
Layer_2
  10
33.098877
  20
234.26823
  42
-0.40561866
  0
VERTEX
  5
57e
  8
Layer_2
  10
32.678955
  20
234.12224
  42
-0.31168964
  0
VERTEX
  5
57f
  8
Layer_2
  10
32.469971
  20
234.57683
  42
-0.31687723
  0
VERTEX
  5
580
  8
Layer_2
  10
32.686279
  20
235.02849
  42
-0.40160858
  0
VERTEX
  5
581
  8
Layer_2
  10
33.077881
  20
234.91374
  0
VERTEX
  5
582
  8
Layer_2
  10
33.118896
  20
234.8029
  0
VERTEX
  5
583
  8
Layer_2
  10
33.326416
  20
234.83513
  42
0.29090086
  0
VERTEX
  5
584
  8
Layer_2
  10
33.010498
  20
235.20671
  42
0.38362754
  0
VERTEX
  5
585
  8
Layer_2
  10
32.318604
  20
234.92741
  42
0.27096833
  0
VERTEX
  5
586
  8
Layer_2
  10
32.407959
  20
234.08708
  42
0.24804623
  0
SEQEND
  0
POLYLINE
  5
588
  8
Layer_2
  62
1
  70
1
  66
1
  10
0
  20
0
  30
0
  0
VERTEX
  5
588
  8
Layer_2
  10
34.546143
  20
233.92888
  42
0.13529484
  0
VERTEX
  5
589
  8
Layer_2
  10
34.887939
  20
234.10173
  0
VERTEX
  5
58a
  8
Layer_2
  10
34.903076
  20
234.01872
  0
VERTEX
  5
58b
  8
Layer_2
  10
34.93042
  20
233.94695
  0
VERTEX
  5
58c
  8
Layer_2
  10
35.153076
  20
233.94695
  0
VERTEX
  5
58d
  8
Layer_2
  10
35.119385
  20
234.02068
  42
-0.070314635
  0
VERTEX
  5
58e
  8
Layer_2
  10
35.085693
  20
234.75798
  0
VERTEX
  5
58f
  8
Layer_2
  10
35.082764
  20
234.8781
  42
0.19871987
  0
VERTEX
  5
590
  8
Layer_2
  10
34.986156
  20
235.12151
  42
0.19871861
  0
VERTEX
  5
591
  8
Layer_2
  10
34.744873
  20
235.22331
  42
0.25494788
  0
VERTEX
  5
592
  8
Layer_2
  10
34.125244
  20
235.06169
  42
0.11641569
  0
VERTEX
  5
593
  8
Layer_2
  10
34.031494
  20
234.84538
  0
VERTEX
  5
594
  8
Layer_2
  10
34.23999
  20
234.81706
  0
VERTEX
  5
595
  8
Layer_2
  10
34.283936
  20
234.93083
  42
-0.33596821
  0
VERTEX
  5
596
  8
Layer_2
  10
34.709229
  20
235.03825
  42
-0.40803883
  0
VERTEX
  5
597
  8
Layer_2
  10
34.869873
  20
234.7448
  42
-0.0041038907
  0
VERTEX
  5
598
  8
Layer_2
  10
34.219482
  20
234.61003
  0
VERTEX
  5
599
  8
Layer_2
  10
34.147217
  20
234.5695
  42
0.41197187
  0
VERTEX
  5
59a
  8
Layer_2
  10
34.057373
  20
234.0739
  42
0.28999841
  0
SEQEND
  0
POLYLINE
  5
59c
  8
Layer_2
  62
1
  70
1
  66
1
  10
0
  20
0
  30
0
  0
VERTEX
  5
59c
  8
Layer_2
  10
31.991943
  20
235.20427
  0
VERTEX
  5
59d
  8
Layer_2
  10
31.779053
  20
235.20427
  0
VERTEX
  5
59e
  8
Layer_2
  10
31.779053
  20
233.94695
  0
VERTEX
  5
59f
  8
Layer_2
  10
31.991943
  20
233.94695
  0
SEQEND
  0
POLYLINE
  5
5a1
  8
Layer_2
  62
1
  70
1
  66
1
  10
0
  20
0
  30
0
  0
VERTEX
  5
5a1
  8
Layer_2
  10
33.74292
  20
235.20427
  0
VERTEX
  5
5a2
  8
Layer_2
  10
33.530029
  20
235.20427
  0
VERTEX
  5
5a3
  8
Layer_2
  10
33.530029
  20
233.94695
  0
VERTEX
  5
5a4
  8
Layer_2
  10
33.74292
  20
233.94695
  0
SEQEND
  0
POLYLINE
  5
5a6
  8
Layer_2
  62
1
  70
1
  66
1
  10
0
  20
0
  30
0
  0
VERTEX
  5
5a6
  8
Layer_2
  10
34.366455
  20
234.09978
  42
-0.22012787
  0
VERTEX
  5
5a7
  8
Layer_2
  10
34.238525
  20
234.20622
  42
-0.33705392
  0
VERTEX
  5
5a8
  8
Layer_2
  10
34.287842
  20
234.42546
  42
-0.12522084
  0
VERTEX
  5
5a9
  8
Layer_2
  10
34.409912
  20
234.47722
  0
VERTEX
  5
5aa
  8
Layer_2
  10
34.724854
  20
234.53435
  0
VERTEX
  5
5ab
  8
Layer_2
  10
34.869873
  20
234.5778
  42
-0.20602093
  0
VERTEX
  5
5ac
  8
Layer_2
  10
34.778076
  20
234.2028
  42
-0.26320555
  0
SEQEND
  0
POLYLINE
  5
5ae
  8
Layer_2
  62
1
  70
1
  66
1
  10
0
  20
0
  30
0
  0
VERTEX
  5
5ae
  8
Layer_2
  10
35.45874
  20
232.8947
  0
VERTEX
  5
5af
  8
Layer_2
  10
35.245361
  20
232.8947
  0
VERTEX
  5
5b0
  8
Layer_2
  10
35.245361
  20
232.64958
  0
VERTEX
  5
5b1
  8
Layer_2
  10
35.45874
  20
232.64958
  0
SEQEND
  0
POLYLINE
  5
5b3
  8
Layer_2
  62
1
  70
1
  66
1
  10
0
  20
0
  30
0
  0
VERTEX
  5
5b3
  8
Layer_2
  10
34.246338
  20
232.8947
  0
VERTEX
  5
5b4
  8
Layer_2
  10
34.033447
  20
232.8947
  0
VERTEX
  5
5b5
  8
Layer_2
  10
34.033447
  20
232.64958
  0
VERTEX
  5
5b6
  8
Layer_2
  10
34.246338
  20
232.64958
  0
SEQEND
  0
POLYLINE
  5
5b8
  8
Layer_2
  62
1
  70
1
  66
1
  10
0
  20
0
  30
0
  0
VERTEX
  5
5b8
  8
Layer_2
  10
34.981689
  20
231.14665
  0
VERTEX
  5
5b9
  8
Layer_2
  10
35.06665
  20
231.16081
  0
VERTEX
  5
5ba
  8
Layer_2
  10
35.035889
  20
231.34929
  0
VERTEX
  5
5bb
  8
Layer_2
  10
34.983643
  20
231.34294
  42
-0.36783055
  0
VERTEX
  5
5bc
  8
Layer_2
  10
34.832764
  20
231.39763
  42
-0.077025159
  0
VERTEX
  5
5bd
  8
Layer_2
  10
34.821533
  20
231.51482
  0
VERTEX
  5
5be
  8
Layer_2
  10
34.821533
  20
232.25017
  0
VERTEX
  5
5bf
  8
Layer_2
  10
35.035889
  20
232.25017
  0
VERTEX
  5
5c0
  8
Layer_2
  10
35.035889
  20
232.41618
  0
VERTEX
  5
5c1
  8
Layer_2
  10
34.821533
  20
232.41618
  0
VERTEX
  5
5c2
  8
Layer_2
  10
34.821533
  20
232.85564
  0
VERTEX
  5
5c3
  8
Layer_2
  10
34.609619
  20
232.72771
  0
VERTEX
  5
5c4
  8
Layer_2
  10
34.609619
  20
232.41618
  0
VERTEX
  5
5c5
  8
Layer_2
  10
34.453369
  20
232.41618
  0
VERTEX
  5
5c6
  8
Layer_2
  10
34.453369
  20
232.25017
  0
VERTEX
  5
5c7
  8
Layer_2
  10
34.609619
  20
232.25017
  0
VERTEX
  5
5c8
  8
Layer_2
  10
34.609619
  20
231.52702
  42
0.29354874
  0
VERTEX
  5
5c9
  8
Layer_2
  10
34.72583
  20
231.17888
  42
0.1354018
  0
SEQEND
  0
POLYLINE
  5
5cb
  8
Layer_2
  62
1
  70
1
  66
1
  10
0
  20
0
  30
0
  0
VERTEX
  5
5cb
  8
Layer_2
  10
33.769287
  20
231.14665
  0
VERTEX
  5
5cc
  8
Layer_2
  10
33.854736
  20
231.16081
  0
VERTEX
  5
5cd
  8
Layer_2
  10
33.823975
  20
231.34929
  0
VERTEX
  5
5ce
  8
Layer_2
  10
33.77124
  20
231.34294
  42
-0.3684822
  0
VERTEX
  5
5cf
  8
Layer_2
  10
33.62085
  20
231.39763
  42
-0.085885828
  0
VERTEX
  5
5d0
  8
Layer_2
  10
33.609619
  20
231.51482
  0
VERTEX
  5
5d1
  8
Layer_2
  10
33.609619
  20
232.25017
  0
VERTEX
  5
5d2
  8
Layer_2
  10
33.823975
  20
232.25017
  0
VERTEX
  5
5d3
  8
Layer_2
  10
33.823975
  20
232.41618
  0
VERTEX
  5
5d4
  8
Layer_2
  10
33.609619
  20
232.41618
  0
VERTEX
  5
5d5
  8
Layer_2
  10
33.609619
  20
232.85564
  0
VERTEX
  5
5d6
  8
Layer_2
  10
33.397705
  20
232.72771
  0
VERTEX
  5
5d7
  8
Layer_2
  10
33.397705
  20
232.41618
  0
VERTEX
  5
5d8
  8
Layer_2
  10
33.240967
  20
232.41618
  0
VERTEX
  5
5d9
  8
Layer_2
  10
33.240967
  20
232.25017
  0
VERTEX
  5
5da
  8
Layer_2
  10
33.397705
  20
232.25017
  0
VERTEX
  5
5db
  8
Layer_2
  10
33.397705
  20
231.52702
  42
0.29247774
  0
VERTEX
  5
5dc
  8
Layer_2
  10
33.513428
  20
231.17888
  42
0.13518013
  0
SEQEND
  0
POLYLINE
  5
5de
  8
Layer_2
  62
1
  70
1
  66
1
  10
0
  20
0
  30
0
  0
VERTEX
  5
5de
  8
Layer_2
  10
27.961182
  20
231.14958
  42
0.22025849
  0
VERTEX
  5
5df
  8
Layer_2
  10
28.318604
  20
231.42351
  42
0.27535516
  0
VERTEX
  5
5e0
  8
Layer_2
  10
28.226807
  20
232.27458
  42
0.32912159
  0
VERTEX
  5
5e1
  8
Layer_2
  10
27.49292
  20
232.36589
  42
0.27985589
  0
VERTEX
  5
5e2
  8
Layer_2
  10
27.213135
  20
231.78728
  42
0.21719129
  0
VERTEX
  5
5e3
  8
Layer_2
  10
27.35717
  20
231.32324
  42
0.21719208
  0
VERTEX
  5
5e4
  8
Layer_2
  10
27.802979
  20
231.13005
  0
SEQEND
  0
POLYLINE
  5
5e6
  8
Layer_2
  62
1
  70
1
  66
1
  10
0
  20
0
  30
0
  0
VERTEX
  5
5e6
  8
Layer_2
  10
26.685791
  20
231.13786
  42
0.19202859
  0
VERTEX
  5
5e7
  8
Layer_2
  10
26.998291
  20
231.31999
  42
0.12681236
  0
VERTEX
  5
5e8
  8
Layer_2
  10
27.110107
  20
231.59196
  0
VERTEX
  5
5e9
  8
Layer_2
  10
26.900635
  20
231.61931
  0
VERTEX
  5
5ea
  8
Layer_2
  10
26.862549
  20
231.48015
  42
-0.40615876
  0
VERTEX
  5
5eb
  8
Layer_2
  10
26.443115
  20
231.33415
  42
-0.3127504
  0
VERTEX
  5
5ec
  8
Layer_2
  10
26.233643
  20
231.78874
  42
-0.31689515
  0
VERTEX
  5
5ed
  8
Layer_2
  10
26.450439
  20
232.2404
  42
-0.40179625
  0
VERTEX
  5
5ee
  8
Layer_2
  10
26.841553
  20
232.12566
  0
VERTEX
  5
5ef
  8
Layer_2
  10
26.882568
  20
232.01482
  0
VERTEX
  5
5f0
  8
Layer_2
  10
27.090088
  20
232.04655
  42
0.29126405
  0
VERTEX
  5
5f1
  8
Layer_2
  10
26.77417
  20
232.41862
  42
0.38355482
  0
VERTEX
  5
5f2
  8
Layer_2
  10
26.082275
  20
232.13933
  42
0.27096013
  0
VERTEX
  5
5f3
  8
Layer_2
  10
26.171631
  20
231.299
  42
0.24804128
  0
SEQEND
  0
POLYLINE
  5
5f5
  8
Layer_2
  62
1
  70
1
  66
1
  10
0
  20
0
  30
0
  0
VERTEX
  5
5f5
  8
Layer_2
  10
28.854248
  20
231.8112
  42
-0.08330986
  0
VERTEX
  5
5f6
  8
Layer_2
  10
28.888428
  20
232.0739
  42
-0.31990623
  0
VERTEX
  5
5f7
  8
Layer_2
  10
29.165771
  20
232.25993
  42
-0.39878628
  0
VERTEX
  5
5f8
  8
Layer_2
  10
29.375244
  20
232.09978
  0
VERTEX
  5
5f9
  8
Layer_2
  10
29.388428
  20
231.97575
  0
VERTEX
  5
5fa
  8
Layer_2
  10
29.388428
  20
231.15837
  0
VERTEX
  5
5fb
  8
Layer_2
  10
29.601318
  20
231.15837
  0
VERTEX
  5
5fc
  8
Layer_2
  10
29.601318
  20
231.88933
  42
-0.21985927
  0
VERTEX
  5
5fd
  8
Layer_2
  10
29.668854
  20
232.14656
  42
-0.21985651
  0
VERTEX
  5
5fe
  8
Layer_2
  10
29.909424
  20
232.25993
  42
-0.20496635
  0
VERTEX
  5
5ff
  8
Layer_2
  10
30.061714
  20
232.20744
  42
-0.20496648
  0
VERTEX
  5
600
  8
Layer_2
  10
30.128174
  20
232.06071
  42
-0.022211766
  0
VERTEX
  5
601
  8
Layer_2
  10
30.133057
  20
231.15837
  0
VERTEX
  5
602
  8
Layer_2
  10
30.344971
  20
231.15837
  42
0.031371056
  0
VERTEX
  5
603
  8
Layer_2
  10
30.338623
  20
232.12273
  42
0.36792333
  0
VERTEX
  5
604
  8
Layer_2
  10
30.044678
  20
232.43816
  42
0.31121827
  0
VERTEX
  5
605
  8
Layer_2
  10
29.568115
  20
232.22429
  0
VERTEX
  5
606
  8
Layer_2
  10
29.518311
  20
232.31706
  42
0.33863739
  0
VERTEX
  5
607
  8
Layer_2
  10
28.989502
  20
232.38835
  42
0.12247891
  0
VERTEX
  5
608
  8
Layer_2
  10
28.831787
  20
232.23991
  0
VERTEX
  5
609
  8
Layer_2
  10
28.831787
  20
232.41618
  0
VERTEX
  5
60a
  8
Layer_2
  10
28.641357
  20
232.41618
  0
VERTEX
  5
60b
  8
Layer_2
  10
28.641357
  20
231.15837
  0
VERTEX
  5
60c
  8
Layer_2
  10
28.854248
  20
231.15837
  0
SEQEND
  0
POLYLINE
  5
60e
  8
Layer_2
  62
1
  70
1
  66
1
  10
0
  20
0
  30
0
  0
VERTEX
  5
60e
  8
Layer_2
  10
30.874268
  20
231.28874
  42
0.26042611
  0
VERTEX
  5
60f
  8
Layer_2
  10
31.323753
  20
231.1438
  42
0.26042666
  0
VERTEX
  5
610
  8
Layer_2
  10
31.683838
  20
231.44939
  42
0.2574877
  0
VERTEX
  5
611
  8
Layer_2
  10
31.612549
  20
232.26189
  42
0.34460847
  0
VERTEX
  5
612
  8
Layer_2
  10
31.010498
  20
232.39665
  42
0.11127761
  0
VERTEX
  5
613
  8
Layer_2
  10
30.855225
  20
232.25261
  0
VERTEX
  5
614
  8
Layer_2
  10
30.855225
  20
232.41618
  0
VERTEX
  5
615
  8
Layer_2
  10
30.661377
  20
232.41618
  0
VERTEX
  5
616
  8
Layer_2
  10
30.661377
  20
230.67644
  0
VERTEX
  5
617
  8
Layer_2
  10
30.874268
  20
230.67644
  0
SEQEND
  0
POLYLINE
  5
619
  8
Layer_2
  62
1
  70
1
  66
1
  10
0
  20
0
  30
0
  0
VERTEX
  5
619
  8
Layer_2
  10
36.451416
  20
231.14958
  42
0.36981541
  0
VERTEX
  5
61a
  8
Layer_2
  10
36.881592
  20
231.80534
  42
0.21376498
  0
VERTEX
  5
61b
  8
Layer_2
  10
36.731262
  20
232.25735
  42
0.21375684
  0
VERTEX
  5
61c
  8
Layer_2
  10
36.293213
  20
232.4445
  42
0.39511531
  0
VERTEX
  5
61d
  8
Layer_2
  10
35.715576
  20
231.95085
  42
0.23440622
  0
VERTEX
  5
61e
  8
Layer_2
  10
35.866455
  20
231.29948
  42
0.26574051
  0
SEQEND
  0
POLYLINE
  5
620
  8
Layer_2
  62
1
  70
1
  66
1
  10
0
  20
0
  30
0
  0
VERTEX
  5
620
  8
Layer_2
  10
32.642822
  20
231.13689
  42
0.31963784
  0
VERTEX
  5
621
  8
Layer_2
  10
33.091064
  20
231.5363
  0
VERTEX
  5
622
  8
Layer_2
  10
32.87085
  20
231.56364
  0
VERTEX
  5
623
  8
Layer_2
  10
32.813721
  20
231.44695
  42
-0.40733543
  0
VERTEX
  5
624
  8
Layer_2
  10
32.332275
  20
231.36736
  42
-0.23512614
  0
VERTEX
  5
625
  8
Layer_2
  10
32.158936
  20
231.73308
  0
VERTEX
  5
626
  8
Layer_2
  10
33.096924
  20
231.73308
  42
0.33310612
  0
VERTEX
  5
627
  8
Layer_2
  10
32.755127
  20
232.40154
  42
0.3731469
  0
VERTEX
  5
628
  8
Layer_2
  10
32.030518
  20
232.17302
  42
0.2978389
  0
VERTEX
  5
629
  8
Layer_2
  10
32.100342
  20
231.29997
  42
0.23787516
  0
SEQEND
  0
POLYLINE
  5
62b
  8
Layer_2
  62
1
  70
1
  66
1
  10
0
  20
0
  30
0
  0
VERTEX
  5
62b
  8
Layer_2
  10
37.344482
  20
231.84538
  0
VERTEX
  5
62c
  8
Layer_2
  10
37.35083
  20
231.95671
  42
-0.20127902
  0
VERTEX
  5
62d
  8
Layer_2
  10
37.451069
  20
232.17702
  42
-0.20129727
  0
VERTEX
  5
62e
  8
Layer_2
  10
37.678467
  20
232.25993
  42
-0.2019624
  0
VERTEX
  5
62f
  8
Layer_2
  10
37.853432
  20
232.20284
  42
-0.20196053
  0
VERTEX
  5
630
  8
Layer_2
  10
37.933838
  20
232.03728
  42
-0.027876099
  0
VERTEX
  5
631
  8
Layer_2
  10
37.940186
  20
231.15837
  0
VERTEX
  5
632
  8
Layer_2
  10
38.153564
  20
231.15837
  42
0.011627302
  0
VERTEX
  5
633
  8
Layer_2
  10
38.150635
  20
232.05779
  42
0.38873083
  0
VERTEX
  5
634
  8
Layer_2
  10
37.832764
  20
232.43425
  42
0.31809537
  0
VERTEX
  5
635
  8
Layer_2
  10
37.323486
  20
232.23747
  0
VERTEX
  5
636
  8
Layer_2
  10
37.323486
  20
232.41618
  0
VERTEX
  5
637
  8
Layer_2
  10
37.131592
  20
232.41618
  0
VERTEX
  5
638
  8
Layer_2
  10
37.131592
  20
231.15837
  0
VERTEX
  5
639
  8
Layer_2
  10
37.344482
  20
231.15837
  0
SEQEND
  0
POLYLINE
  5
63b
  8
Layer_2
  62
1
  70
1
  66
1
  10
0
  20
0
  30
0
  0
VERTEX
  5
63b
  8
Layer_2
  10
35.45874
  20
232.41618
  0
VERTEX
  5
63c
  8
Layer_2
  10
35.245361
  20
232.41618
  0
VERTEX
  5
63d
  8
Layer_2
  10
35.245361
  20
231.15837
  0
VERTEX
  5
63e
  8
Layer_2
  10
35.45874
  20
231.15837
  0
SEQEND
  0
POLYLINE
  5
640
  8
Layer_2
  62
1
  70
1
  66
1
  10
0
  20
0
  30
0
  0
VERTEX
  5
640
  8
Layer_2
  10
34.246338
  20
232.41618
  0
VERTEX
  5
641
  8
Layer_2
  10
34.033447
  20
232.41618
  0
VERTEX
  5
642
  8
Layer_2
  10
34.033447
  20
231.15837
  0
VERTEX
  5
643
  8
Layer_2
  10
34.246338
  20
231.15837
  0
SEQEND
  0
POLYLINE
  5
645
  8
Layer_2
  62
1
  70
1
  66
1
  10
0
  20
0
  30
0
  0
VERTEX
  5
645
  8
Layer_2
  10
31.123291
  20
231.31267
  42
-0.33235399
  0
VERTEX
  5
646
  8
Layer_2
  10
30.860596
  20
231.66667
  42
-0.25311644
  0
VERTEX
  5
647
  8
Layer_2
  10
31.013428
  20
232.20622
  42
-0.37385294
  0
VERTEX
  5
648
  8
Layer_2
  10
31.384521
  20
232.21013
  42
-0.37716859
  0
VERTEX
  5
649
  8
Layer_2
  10
31.380615
  20
231.37321
  42
-0.23166075
  0
SEQEND
  0
POLYLINE
  5
64b
  8
Layer_2
  62
1
  70
1
  66
1
  10
0
  20
0
  30
0
  0
VERTEX
  5
64b
  8
Layer_2
  10
32.170654
  20
231.90837
  42
-0.35683194
  0
VERTEX
  5
64c
  8
Layer_2
  10
32.457764
  20
232.26335
  42
-0.38098757
  0
VERTEX
  5
64d
  8
Layer_2
  10
32.845947
  20
232.04704
  0
VERTEX
  5
64e
  8
Layer_2
  10
32.873291
  20
231.90837
  0
SEQEND
  0
POLYLINE
  5
650
  8
Layer_2
  62
1
  70
1
  66
1
  10
0
  20
0
  30
0
  0
VERTEX
  5
650
  8
Layer_2
  10
27.726318
  20
231.31316
  42
-0.37527628
  0
VERTEX
  5
651
  8
Layer_2
  10
27.432373
  20
231.78728
  42
-0.38570154
  0
VERTEX
  5
652
  8
Layer_2
  10
27.726318
  20
232.26091
  42
-0.33964317
  0
VERTEX
  5
653
  8
Layer_2
  10
28.112549
  20
232.08073
  42
-0.31464086
  0
VERTEX
  5
654
  8
Layer_2
  10
28.010986
  20
231.37321
  42
-0.21642403
  0
SEQEND
  0
POLYLINE
  5
656
  8
Layer_2
  62
1
  70
1
  66
1
  10
0
  20
0
  30
0
  0
VERTEX
  5
656
  8
Layer_2
  10
36.216553
  20
231.31316
  42
-0.22312137
  0
VERTEX
  5
657
  8
Layer_2
  10
35.981689
  20
231.49333
  42
-0.316902
  0
VERTEX
  5
658
  8
Layer_2
  10
36.084229
  20
232.20085
  42
-0.32706398
  0
VERTEX
  5
659
  8
Layer_2
  10
36.500244
  20
232.20036
  42
-0.35359686
  0
VERTEX
  5
65a
  8
Layer_2
  10
36.557373
  20
231.42644
  42
-0.27856339
  0
SEQEND
  0
POLYLINE
  5
65c
  8
Layer_2
  62
1
  70
1
  66
1
  10
0
  20
0
  30
0
  0
VERTEX
  5
65c
  8
Layer_2
  10
35.000244
  20
230.10661
  0
VERTEX
  5
65d
  8
Layer_2
  10
34.787354
  20
230.10661
  0
VERTEX
  5
65e
  8
Layer_2
  10
34.787354
  20
229.85905
  0
VERTEX
  5
65f
  8
Layer_2
  10
35.000244
  20
229.85905
  0
SEQEND
  0
POLYLINE
  5
661
  8
Layer_2
  62
1
  70
1
  66
1
  10
0
  20
0
  30
0
  0
VERTEX
  5
661
  8
Layer_2
  10
34.093506
  20
228.3532
  42
0.36613432
  0
VERTEX
  5
662
  8
Layer_2
  10
34.529053
  20
229.01823
  42
0.29561553
  0
VERTEX
  5
663
  8
Layer_2
  10
34.216064
  20
229.60954
  42
0.35680376
  0
VERTEX
  5
664
  8
Layer_2
  10
33.651611
  20
229.48698
  0
VERTEX
  5
665
  8
Layer_2
  10
33.651611
  20
230.10661
  0
VERTEX
  5
666
  8
Layer_2
  10
33.438721
  20
230.10661
  0
VERTEX
  5
667
  8
Layer_2
  10
33.438721
  20
228.37029
  0
VERTEX
  5
668
  8
Layer_2
  10
33.636475
  20
228.37029
  0
VERTEX
  5
669
  8
Layer_2
  10
33.636475
  20
228.528
  0
VERTEX
  5
66a
  8
Layer_2
  10
33.705811
  20
228.44646
  42
0.24796321
  0
SEQEND
  0
POLYLINE
  5
66c
  8
Layer_2
  62
1
  70
1
  66
1
  10
0
  20
0
  30
0
  0
VERTEX
  5
66c
  8
Layer_2
  10
38.299072
  20
228.35857
  0
VERTEX
  5
66d
  8
Layer_2
  10
38.384033
  20
228.37273
  0
VERTEX
  5
66e
  8
Layer_2
  10
38.353271
  20
228.5612
  0
VERTEX
  5
66f
  8
Layer_2
  10
38.301025
  20
228.55486
  42
-0.36776828
  0
VERTEX
  5
670
  8
Layer_2
  10
38.150146
  20
228.60954
  42
-0.077086707
  0
VERTEX
  5
671
  8
Layer_2
  10
38.138916
  20
228.72673
  0
VERTEX
  5
672
  8
Layer_2
  10
38.138916
  20
229.46208
  0
VERTEX
  5
673
  8
Layer_2
  10
38.353271
  20
229.46208
  0
VERTEX
  5
674
  8
Layer_2
  10
38.353271
  20
229.6281
  0
VERTEX
  5
675
  8
Layer_2
  10
38.138916
  20
229.6281
  0
VERTEX
  5
676
  8
Layer_2
  10
38.138916
  20
230.06755
  0
VERTEX
  5
677
  8
Layer_2
  10
37.927002
  20
229.93962
  0
VERTEX
  5
678
  8
Layer_2
  10
37.927002
  20
229.6281
  0
VERTEX
  5
679
  8
Layer_2
  10
37.770752
  20
229.6281
  0
VERTEX
  5
67a
  8
Layer_2
  10
37.770752
  20
229.46208
  0
VERTEX
  5
67b
  8
Layer_2
  10
37.927002
  20
229.46208
  0
VERTEX
  5
67c
  8
Layer_2
  10
37.927002
  20
228.73894
  42
0.2937963
  0
VERTEX
  5
67d
  8
Layer_2
  10
38.043213
  20
228.39079
  42
0.13926639
  0
SEQEND
  0
POLYLINE
  5
67f
  8
Layer_2
  62
1
  70
1
  66
1
  10
0
  20
0
  30
0
  0
VERTEX
  5
67f
  8
Layer_2
  10
32.759521
  20
228.3615
  42
0.34518488
  0
VERTEX
  5
680
  8
Layer_2
  10
33.185303
  20
228.90202
  42
0.28475017
  0
VERTEX
  5
681
  8
Layer_2
  10
32.937256
  20
229.56071
  42
0.39148498
  0
VERTEX
  5
682
  8
Layer_2
  10
32.12085
  20
229.42107
  42
0.30933706
  0
VERTEX
  5
683
  8
Layer_2
  10
32.174561
  20
228.5114
  42
0.26563018
  0
SEQEND
  0
POLYLINE
  5
685
  8
Layer_2
  62
1
  70
1
  66
1
  10
0
  20
0
  30
0
  0
VERTEX
  5
685
  8
Layer_2
  10
27.178955
  20
228.35222
  42
0.13613184
  0
VERTEX
  5
686
  8
Layer_2
  10
27.520752
  20
228.52556
  0
VERTEX
  5
687
  8
Layer_2
  10
27.535889
  20
228.44255
  0
VERTEX
  5
688
  8
Layer_2
  10
27.563232
  20
228.37029
  0
VERTEX
  5
689
  8
Layer_2
  10
27.785889
  20
228.37029
  0
VERTEX
  5
68a
  8
Layer_2
  10
27.752197
  20
228.4445
  42
-0.070149645
  0
VERTEX
  5
68b
  8
Layer_2
  10
27.718506
  20
229.18181
  0
VERTEX
  5
68c
  8
Layer_2
  10
27.715576
  20
229.30193
  42
0.19832231
  0
VERTEX
  5
68d
  8
Layer_2
  10
27.618793
  20
229.54517
  42
0.198361
  0
VERTEX
  5
68e
  8
Layer_2
  10
27.377686
  20
229.64714
  42
0.17111879
  0
VERTEX
  5
68f
  8
Layer_2
  10
26.837646
  20
229.55827
  42
0.19516791
  0
VERTEX
  5
690
  8
Layer_2
  10
26.664307
  20
229.26921
  0
VERTEX
  5
691
  8
Layer_2
  10
26.872803
  20
229.24089
  0
VERTEX
  5
692
  8
Layer_2
  10
26.916748
  20
229.35417
  42
-0.33714886
  0
VERTEX
  5
693
  8
Layer_2
  10
27.342041
  20
229.46208
  42
-0.40700809
  0
VERTEX
  5
694
  8
Layer_2
  10
27.502686
  20
229.16862
  42
-0.0042609565
  0
VERTEX
  5
695
  8
Layer_2
  10
26.852295
  20
229.03386
  0
VERTEX
  5
696
  8
Layer_2
  10
26.780029
  20
228.99333
  42
0.41135965
  0
VERTEX
  5
697
  8
Layer_2
  10
26.690186
  20
228.49724
  42
0.28815404
  0
SEQEND
  0
POLYLINE
  5
699
  8
Layer_2
  62
1
  70
1
  66
1
  10
0
  20
0
  30
0
  0
VERTEX
  5
699
  8
Layer_2
  10
37.281006
  20
228.34978
  42
0.33859902
  0
VERTEX
  5
69a
  8
Layer_2
  10
37.705811
  20
228.80388
  0
VERTEX
  5
69b
  8
Layer_2
  10
37.49585
  20
228.83122
  0
VERTEX
  5
69c
  8
Layer_2
  10
37.458252
  20
228.69206
  42
-0.40592645
  0
VERTEX
  5
69d
  8
Layer_2
  10
37.03833
  20
228.54607
  42
-0.3121296
  0
VERTEX
  5
69e
  8
Layer_2
  10
36.829346
  20
229.00017
  42
-0.31643582
  0
VERTEX
  5
69f
  8
Layer_2
  10
37.045654
  20
229.45232
  42
-0.39880027
  0
VERTEX
  5
6a0
  8
Layer_2
  10
37.437256
  20
229.33757
  0
VERTEX
  5
6a1
  8
Layer_2
  10
37.478271
  20
229.22673
  0
VERTEX
  5
6a2
  8
Layer_2
  10
37.685303
  20
229.25847
  42
0.29250774
  0
VERTEX
  5
6a3
  8
Layer_2
  10
37.369385
  20
229.63054
  42
0.38476595
  0
VERTEX
  5
6a4
  8
Layer_2
  10
36.677979
  20
229.35075
  42
0.27207396
  0
VERTEX
  5
6a5
  8
Layer_2
  10
36.767334
  20
228.51091
  42
0.24844024
  0
SEQEND
  0
POLYLINE
  5
6a7
  8
Layer_2
  62
1
  70
1
  66
1
  10
0
  20
0
  30
0
  0
VERTEX
  5
6a7
  8
Layer_2
  10
35.959717
  20
228.3488
  42
0.32070343
  0
VERTEX
  5
6a8
  8
Layer_2
  10
36.407959
  20
228.74821
  0
VERTEX
  5
6a9
  8
Layer_2
  10
36.187744
  20
228.77556
  0
VERTEX
  5
6aa
  8
Layer_2
  10
36.130615
  20
228.65886
  42
-0.4076528
  0
VERTEX
  5
6ab
  8
Layer_2
  10
35.64917
  20
228.57927
  42
-0.23512012
  0
VERTEX
  5
6ac
  8
Layer_2
  10
35.47583
  20
228.94499
  0
VERTEX
  5
6ad
  8
Layer_2
  10
36.413818
  20
228.94499
  42
0.33321175
  0
VERTEX
  5
6ae
  8
Layer_2
  10
36.072021
  20
229.61345
  42
0.37379918
  0
VERTEX
  5
6af
  8
Layer_2
  10
35.347412
  20
229.38445
  42
0.29793327
  0
VERTEX
  5
6b0
  8
Layer_2
  10
35.417236
  20
228.51189
  42
0.23787375
  0
SEQEND
  0
POLYLINE
  5
6b2
  8
Layer_2
  62
1
  70
1
  66
1
  10
0
  20
0
  30
0
  0
VERTEX
  5
6b2
  8
Layer_2
  10
25.984131
  20
227.87761
  42
0.14268388
  0
VERTEX
  5
6b3
  8
Layer_2
  10
26.240967
  20
228.01482
  42
0.18680991
  0
VERTEX
  5
6b4
  8
Layer_2
  10
26.378174
  20
228.54118
  0
VERTEX
  5
6b5
  8
Layer_2
  10
26.378174
  20
229.6281
  0
VERTEX
  5
6b6
  8
Layer_2
  10
26.181396
  20
229.6281
  0
VERTEX
  5
6b7
  8
Layer_2
  10
26.181396
  20
229.47624
  0
VERTEX
  5
6b8
  8
Layer_2
  10
26.104248
  20
229.55534
  42
0.40469374
  0
VERTEX
  5
6b9
  8
Layer_2
  10
25.414795
  20
229.47331
  42
0.3710713
  0
VERTEX
  5
6ba
  8
Layer_2
  10
25.48999
  20
228.47575
  42
0.33487014
  0
VERTEX
  5
6bb
  8
Layer_2
  10
26.087158
  20
228.46306
  0
VERTEX
  5
6bc
  8
Layer_2
  10
26.161377
  20
228.53484
  42
-0.14752352
  0
VERTEX
  5
6bd
  8
Layer_2
  10
26.104736
  20
228.16667
  42
-0.3138185
  0
VERTEX
  5
6be
  8
Layer_2
  10
25.685791
  20
228.05144
  42
-0.34381554
  0
VERTEX
  5
6bf
  8
Layer_2
  10
25.519775
  20
228.23552
  0
VERTEX
  5
6c0
  8
Layer_2
  10
25.312256
  20
228.26628
  42
0.32763944
  0
VERTEX
  5
6c1
  8
Layer_2
  10
25.520752
  20
227.91716
  42
0.15736691
  0
SEQEND
  0
POLYLINE
  5
6c3
  8
Layer_2
  62
1
  70
1
  66
1
  10
0
  20
0
  30
0
  0
VERTEX
  5
6c3
  8
Layer_2
  10
30.701416
  20
228.3488
  42
0.32095976
  0
VERTEX
  5
6c4
  8
Layer_2
  10
31.149658
  20
228.74821
  0
VERTEX
  5
6c5
  8
Layer_2
  10
30.929443
  20
228.77556
  0
VERTEX
  5
6c6
  8
Layer_2
  10
30.872314
  20
228.65886
  42
-0.40812335
  0
VERTEX
  5
6c7
  8
Layer_2
  10
30.391357
  20
228.57927
  42
-0.23512541
  0
VERTEX
  5
6c8
  8
Layer_2
  10
30.218018
  20
228.94499
  0
VERTEX
  5
6c9
  8
Layer_2
  10
31.156006
  20
228.94499
  42
0.33302116
  0
VERTEX
  5
6ca
  8
Layer_2
  10
30.814209
  20
229.61345
  42
0.37395371
  0
VERTEX
  5
6cb
  8
Layer_2
  10
30.0896
  20
229.38445
  42
0.29880494
  0
VERTEX
  5
6cc
  8
Layer_2
  10
30.159424
  20
228.51189
  42
0.23794221
  0
SEQEND
  0
POLYLINE
  5
6ce
  8
Layer_2
  62
1
  70
1
  66
1
  10
0
  20
0
  30
0
  0
VERTEX
  5
6ce
  8
Layer_2
  10
28.261963
  20
229.02312
  42
-0.087022202
  0
VERTEX
  5
6cf
  8
Layer_2
  10
28.296143
  20
229.28581
  42
-0.31916118
  0
VERTEX
  5
6d0
  8
Layer_2
  10
28.572998
  20
229.47185
  42
-0.39867065
  0
VERTEX
  5
6d1
  8
Layer_2
  10
28.782959
  20
229.31169
  0
VERTEX
  5
6d2
  8
Layer_2
  10
28.795654
  20
229.18767
  0
VERTEX
  5
6d3
  8
Layer_2
  10
28.795654
  20
228.37029
  0
VERTEX
  5
6d4
  8
Layer_2
  10
29.009033
  20
228.37029
  0
VERTEX
  5
6d5
  8
Layer_2
  10
29.009033
  20
229.10124
  42
-0.21982257
  0
VERTEX
  5
6d6
  8
Layer_2
  10
29.076267
  20
229.35841
  42
-0.2198392
  0
VERTEX
  5
6d7
  8
Layer_2
  10
29.31665
  20
229.47185
  42
-0.205108
  0
VERTEX
  5
6d8
  8
Layer_2
  10
29.469059
  20
229.41949
  42
-0.20511023
  0
VERTEX
  5
6d9
  8
Layer_2
  10
29.5354
  20
229.27263
  42
-0.024430427
  0
VERTEX
  5
6da
  8
Layer_2
  10
29.540771
  20
228.37029
  0
VERTEX
  5
6db
  8
Layer_2
  10
29.752686
  20
228.37029
  42
0.031369213
  0
VERTEX
  5
6dc
  8
Layer_2
  10
29.746338
  20
229.33464
  42
0.36740887
  0
VERTEX
  5
6dd
  8
Layer_2
  10
29.452393
  20
229.65007
  42
0.3113757
  0
VERTEX
  5
6de
  8
Layer_2
  10
28.97583
  20
229.4362
  0
VERTEX
  5
6df
  8
Layer_2
  10
28.926025
  20
229.52898
  42
0.33838988
  0
VERTEX
  5
6e0
  8
Layer_2
  10
28.396729
  20
229.60027
  42
0.1226094
  0
VERTEX
  5
6e1
  8
Layer_2
  10
28.239502
  20
229.45134
  0
VERTEX
  5
6e2
  8
Layer_2
  10
28.239502
  20
229.6281
  0
VERTEX
  5
6e3
  8
Layer_2
  10
28.048584
  20
229.6281
  0
VERTEX
  5
6e4
  8
Layer_2
  10
28.048584
  20
228.37029
  0
VERTEX
  5
6e5
  8
Layer_2
  10
28.261963
  20
228.37029
  0
SEQEND
  0
POLYLINE
  5
6e7
  8
Layer_2
  62
1
  70
1
  66
1
  10
0
  20
0
  30
0
  0
VERTEX
  5
6e7
  8
Layer_2
  10
34.767334
  20
227.86736
  42
0.38386914
  0
VERTEX
  5
6e8
  8
Layer_2
  10
34.996338
  20
228.1945
  42
0.018176998
  0
VERTEX
  5
6e9
  8
Layer_2
  10
35.000244
  20
229.6281
  0
VERTEX
  5
6ea
  8
Layer_2
  10
34.787354
  20
229.6281
  0
VERTEX
  5
6eb
  8
Layer_2
  10
34.787354
  20
228.30632
  42
-0.29985585
  0
VERTEX
  5
6ec
  8
Layer_2
  10
34.715088
  20
228.05779
  42
-0.14433609
  0
VERTEX
  5
6ed
  8
Layer_2
  10
34.557373
  20
228.06364
  0
VERTEX
  5
6ee
  8
Layer_2
  10
34.517334
  20
227.88249
  42
0.11019268
  0
SEQEND
  0
POLYLINE
  5
6f0
  8
Layer_2
  62
1
  70
1
  66
1
  10
0
  20
0
  30
0
  0
VERTEX
  5
6f0
  8
Layer_2
  10
30.229736
  20
229.1198
  42
-0.35751339
  0
VERTEX
  5
6f1
  8
Layer_2
  10
30.516846
  20
229.47527
  42
-0.38134849
  0
VERTEX
  5
6f2
  8
Layer_2
  10
30.904541
  20
229.25896
  0
VERTEX
  5
6f3
  8
Layer_2
  10
30.931885
  20
229.1198
  0
SEQEND
  0
POLYLINE
  5
6f5
  8
Layer_2
  62
1
  70
1
  66
1
  10
0
  20
0
  30
0
  0
VERTEX
  5
6f5
  8
Layer_2
  10
33.886475
  20
228.52751
  42
-0.23855715
  0
VERTEX
  5
6f6
  8
Layer_2
  10
33.668701
  20
228.73991
  42
-0.27919277
  0
VERTEX
  5
6f7
  8
Layer_2
  10
33.788818
  20
229.41277
  42
-0.36026204
  0
VERTEX
  5
6f8
  8
Layer_2
  10
34.162354
  20
229.41521
  42
-0.33150616
  0
VERTEX
  5
6f9
  8
Layer_2
  10
34.209229
  20
228.63884
  42
-0.30566529
  0
SEQEND
  0
POLYLINE
  5
6fb
  8
Layer_2
  62
1
  70
1
  66
1
  10
0
  20
0
  30
0
  0
VERTEX
  5
6fb
  8
Layer_2
  10
35.488037
  20
229.1198
  42
-0.35895354
  0
VERTEX
  5
6fc
  8
Layer_2
  10
35.775146
  20
229.47527
  42
-0.38063197
  0
VERTEX
  5
6fd
  8
Layer_2
  10
36.162842
  20
229.25896
  0
VERTEX
  5
6fe
  8
Layer_2
  10
36.190186
  20
229.1198
  0
SEQEND
  0
POLYLINE
  5
700
  8
Layer_2
  62
1
  70
1
  66
1
  10
0
  20
0
  30
0
  0
VERTEX
  5
700
  8
Layer_2
  10
25.762451
  20
228.55388
  42
-0.34301768
  0
VERTEX
  5
701
  8
Layer_2
  10
25.494873
  20
228.90642
  42
-0.2645269
  0
VERTEX
  5
702
  8
Layer_2
  10
25.640869
  20
229.41521
  42
-0.34378606
  0
VERTEX
  5
703
  8
Layer_2
  10
26.022705
  20
229.41423
  42
-0.34564342
  0
VERTEX
  5
704
  8
Layer_2
  10
26.079834
  20
228.65984
  42
-0.27743608
  0
SEQEND
  0
POLYLINE
  5
706
  8
Layer_2
  62
1
  70
1
  66
1
  10
0
  20
0
  30
0
  0
VERTEX
  5
706
  8
Layer_2
  10
32.525146
  20
228.52458
  42
-0.28181476
  0
VERTEX
  5
707
  8
Layer_2
  10
32.25708
  20
228.78777
  42
-0.29749114
  0
VERTEX
  5
708
  8
Layer_2
  10
32.392334
  20
229.41277
  42
-0.32596668
  0
VERTEX
  5
709
  8
Layer_2
  10
32.808838
  20
229.41228
  42
-0.35281662
  0
VERTEX
  5
70a
  8
Layer_2
  10
32.865479
  20
228.63786
  42
-0.27764049
  0
SEQEND
  0
POLYLINE
  5
70c
  8
Layer_2
  62
1
  70
1
  66
1
  10
0
  20
0
  30
0
  0
VERTEX
  5
70c
  8
Layer_2
  10
26.999268
  20
228.52312
  42
-0.2038306
  0
VERTEX
  5
70d
  8
Layer_2
  10
26.880182
  20
228.61285
  42
-0.20392443
  0
VERTEX
  5
70e
  8
Layer_2
  10
26.862549
  20
228.76091
  42
-0.30054214
  0
VERTEX
  5
70f
  8
Layer_2
  10
27.042725
  20
228.90105
  0
VERTEX
  5
710
  8
Layer_2
  10
27.357666
  20
228.95769
  0
VERTEX
  5
711
  8
Layer_2
  10
27.502686
  20
229.00163
  42
-0.20667665
  0
VERTEX
  5
712
  8
Layer_2
  10
27.410889
  20
228.62663
  42
-0.26242362
  0
SEQEND
  0
POLYLINE
  5
714
  8
Layer_2
  62
1
  70
1
  66
1
  10
0
  20
0
  30
0
  0
VERTEX
  5
714
  8
Layer_2
  10
38.86499
  20
228.61296
  0
VERTEX
  5
715
  8
Layer_2
  10
38.622314
  20
228.61296
  0
VERTEX
  5
716
  8
Layer_2
  10
38.622314
  20
228.37029
  0
VERTEX
  5
717
  8
Layer_2
  10
38.86499
  20
228.37029
  0
SEQEND
  0
POLYLINE
  5
719
  8
Layer_2
  62
1
  70
1
  66
1
  10
0
  20
0
  30
0
  0
VERTEX
  5
719
  8
Layer_2
  10
29.138905
  20
224.78537
  42
0.099253605
  0
VERTEX
  5
71a
  8
Layer_2
  10
29.398182
  20
224.88303
  42
0.38063507
  0
VERTEX
  5
71b
  8
Layer_2
  10
29.653065
  20
225.71848
  42
0.22876859
  0
VERTEX
  5
71c
  8
Layer_2
  10
29.311268
  20
225.97433
  0
VERTEX
  5
71d
  8
Layer_2
  10
29.439686
  20
226.05344
  42
0.37575282
  0
VERTEX
  5
71e
  8
Layer_2
  10
29.528553
  20
226.68625
  42
0.37703847
  0
VERTEX
  5
71f
  8
Layer_2
  10
28.643299
  20
226.88547
  42
0.22709733
  0
VERTEX
  5
720
  8
Layer_2
  10
28.332752
  20
226.41086
  0
VERTEX
  5
721
  8
Layer_2
  10
28.596424
  20
226.36398
  0
VERTEX
  5
722
  8
Layer_2
  10
28.615467
  20
226.4548
  42
-0.19773771
  0
VERTEX
  5
723
  8
Layer_2
  10
28.776854
  20
226.69151
  42
-0.19773763
  0
VERTEX
  5
724
  8
Layer_2
  10
29.058338
  20
226.74484
  42
-0.37713231
  0
VERTEX
  5
725
  8
Layer_2
  10
29.33617
  20
226.41525
  42
-0.39774126
  0
VERTEX
  5
726
  8
Layer_2
  10
28.980213
  20
226.06174
  42
-0.067221047
  0
VERTEX
  5
727
  8
Layer_2
  10
28.855701
  20
226.0593
  0
VERTEX
  5
728
  8
Layer_2
  10
28.826405
  20
225.82785
  0
VERTEX
  5
729
  8
Layer_2
  10
28.928455
  20
225.84982
  42
-0.20335884
  0
VERTEX
  5
72a
  8
Layer_2
  10
29.245443
  20
225.79373
  42
-0.20335797
  0
VERTEX
  5
72b
  8
Layer_2
  10
29.425037
  20
225.52658
  42
-0.19945085
  0
VERTEX
  5
72c
  8
Layer_2
  10
29.362001
  20
225.19136
  42
-0.19945065
  0
VERTEX
  5
72d
  8
Layer_2
  10
29.079823
  20
224.99973
  42
-0.19874181
  0
VERTEX
  5
72e
  8
Layer_2
  10
28.773659
  20
225.05385
  42
-0.19874069
  0
VERTEX
  5
72f
  8
Layer_2
  10
28.596424
  20
225.3093
  0
VERTEX
  5
730
  8
Layer_2
  10
28.570057
  20
225.4133
  0
VERTEX
  5
731
  8
Layer_2
  10
28.306385
  20
225.37814
  42
0.29689828
  0
VERTEX
  5
732
  8
Layer_2
  10
28.730213
  20
224.81516
  42
0.1226021
  0
SEQEND
  0
POLYLINE
  5
734
  8
Layer_2
  62
1
  70
1
  66
1
  10
0
  20
0
  30
0
  0
VERTEX
  5
734
  8
Layer_2
  10
30.966053
  20
226.9675
  0
VERTEX
  5
735
  8
Layer_2
  10
30.796131
  20
226.9675
  0
VERTEX
  5
736
  8
Layer_2
  10
30.703358
  20
226.82639
  42
-0.10878102
  0
VERTEX
  5
737
  8
Layer_2
  10
30.175037
  20
226.42844
  0
VERTEX
  5
738
  8
Layer_2
  10
30.175037
  20
226.17355
  42
0.087977994
  0
VERTEX
  5
739
  8
Layer_2
  10
30.702381
  20
226.49142
  0
VERTEX
  5
73a
  8
Layer_2
  10
30.702381
  20
224.81125
  0
VERTEX
  5
73b
  8
Layer_2
  10
30.966053
  20
224.81125
  0
SEQEND
  0
POLYLINE
  5
73d
  8
Layer_2
  62
1
  70
1
  66
1
  10
0
  20
0
  30
0
  0
VERTEX
  5
73d
  8
Layer_2
  10
33.027088
  20
225.06467
  0
VERTEX
  5
73e
  8
Layer_2
  10
31.973866
  20
225.06467
  0
VERTEX
  5
73f
  8
Layer_2
  10
32.02367
  20
225.13644
  42
-0.038576098
  0
VERTEX
  5
740
  8
Layer_2
  10
32.633533
  20
225.6926
  0
VERTEX
  5
741
  8
Layer_2
  10
32.724842
  20
225.78049
  42
0.26454249
  0
VERTEX
  5
742
  8
Layer_2
  10
33.012928
  20
226.49289
  42
0.37329322
  0
VERTEX
  5
743
  8
Layer_2
  10
32.354725
  20
226.9675
  42
0.20650268
  0
VERTEX
  5
744
  8
Layer_2
  10
31.871023
  20
226.80859
  42
0.20650248
  0
VERTEX
  5
745
  8
Layer_2
  10
31.657459
  20
226.34641
  0
VERTEX
  5
746
  8
Layer_2
  10
31.928455
  20
226.31857
  0
VERTEX
  5
747
  8
Layer_2
  10
31.936268
  20
226.41428
  42
-0.39418718
  0
VERTEX
  5
748
  8
Layer_2
  10
32.348866
  20
226.74924
  42
-0.20646134
  0
VERTEX
  5
749
  8
Layer_2
  10
32.631355
  20
226.6505
  42
-0.20646113
  0
VERTEX
  5
74a
  8
Layer_2
  10
32.753162
  20
226.37717
  42
-0.20429607
  0
VERTEX
  5
74b
  8
Layer_2
  10
32.450428
  20
225.86252
  42
-0.0038008307
  0
VERTEX
  5
74c
  8
Layer_2
  10
31.957752
  20
225.43185
  0
VERTEX
  5
74d
  8
Layer_2
  10
31.811756
  20
225.28
  42
0.19008132
  0
VERTEX
  5
74e
  8
Layer_2
  10
31.607655
  20
224.81125
  0
VERTEX
  5
74f
  8
Layer_2
  10
33.027088
  20
224.81125
  0
SEQEND
  0
POLYLINE
  5
751
  8
Layer_2
  62
1
  70
1
  66
1
  10
0
  20
0
  30
0
  0
VERTEX
  5
751
  8
Layer_2
  10
27.74535
  20
225.32541
  0
VERTEX
  5
752
  8
Layer_2
  10
28.035389
  20
225.32541
  0
VERTEX
  5
753
  8
Layer_2
  10
28.035389
  20
225.56711
  0
VERTEX
  5
754
  8
Layer_2
  10
27.74535
  20
225.56711
  0
VERTEX
  5
755
  8
Layer_2
  10
27.74535
  20
226.95871
  0
VERTEX
  5
756
  8
Layer_2
  10
27.530018
  20
226.95871
  0
VERTEX
  5
757
  8
Layer_2
  10
26.550037
  20
225.56711
  0
VERTEX
  5
758
  8
Layer_2
  10
26.550037
  20
225.32541
  0
VERTEX
  5
759
  8
Layer_2
  10
27.481678
  20
225.32541
  0
VERTEX
  5
75a
  8
Layer_2
  10
27.481678
  20
224.81125
  0
VERTEX
  5
75b
  8
Layer_2
  10
27.74535
  20
224.81125
  0
SEQEND
  0
POLYLINE
  5
75d
  8
Layer_2
  62
1
  70
1
  66
1
  10
0
  20
0
  30
0
  0
VERTEX
  5
75d
  8
Layer_2
  10
33.718006
  20
225.46164
  0
VERTEX
  5
75e
  8
Layer_2
  10
34.615955
  20
225.46164
  0
VERTEX
  5
75f
  8
Layer_2
  10
34.866444
  20
224.81125
  0
VERTEX
  5
760
  8
Layer_2
  10
35.190174
  20
224.81125
  0
VERTEX
  5
761
  8
Layer_2
  10
34.311268
  20
226.95871
  0
VERTEX
  5
762
  8
Layer_2
  10
34.005116
  20
226.95871
  0
VERTEX
  5
763
  8
Layer_2
  10
33.180408
  20
224.81125
  0
VERTEX
  5
764
  8
Layer_2
  10
33.482166
  20
224.81125
  0
SEQEND
  0
POLYLINE
  5
766
  8
Layer_2
  62
1
  70
1
  66
1
  10
0
  20
0
  30
0
  0
VERTEX
  5
766
  8
Layer_2
  10
35.686756
  20
226.49875
  0
VERTEX
  5
767
  8
Layer_2
  10
36.814686
  20
224.81125
  0
VERTEX
  5
768
  8
Layer_2
  10
37.10619
  20
224.81125
  0
VERTEX
  5
769
  8
Layer_2
  10
37.10619
  20
226.95871
  0
VERTEX
  5
76a
  8
Layer_2
  10
36.833729
  20
226.95871
  0
VERTEX
  5
76b
  8
Layer_2
  10
36.833729
  20
225.27267
  0
VERTEX
  5
76c
  8
Layer_2
  10
35.705799
  20
226.95871
  0
VERTEX
  5
76d
  8
Layer_2
  10
35.414295
  20
226.95871
  0
VERTEX
  5
76e
  8
Layer_2
  10
35.414295
  20
224.81125
  0
VERTEX
  5
76f
  8
Layer_2
  10
35.686756
  20
224.81125
  0
SEQEND
  0
POLYLINE
  5
771
  8
Layer_2
  62
1
  70
1
  66
1
  10
0
  20
0
  30
0
  0
VERTEX
  5
771
  8
Layer_2
  10
33.800037
  20
225.69308
  0
VERTEX
  5
772
  8
Layer_2
  10
34.035877
  20
226.32297
  42
0.039220999
  0
VERTEX
  5
773
  8
Layer_2
  10
34.1516
  20
226.73312
  0
VERTEX
  5
774
  8
Layer_2
  10
34.214588
  20
226.53488
  42
0.0066830121
  0
VERTEX
  5
775
  8
Layer_2
  10
34.528065
  20
225.69308
  0
SEQEND
  0
POLYLINE
  5
777
  8
Layer_2
  62
1
  70
1
  66
1
  10
0
  20
0
  30
0
  0
VERTEX
  5
777
  8
Layer_2
  10
26.809315
  20
225.56711
  0
VERTEX
  5
778
  8
Layer_2
  10
27.481678
  20
226.53537
  0
VERTEX
  5
779
  8
Layer_2
  10
27.481678
  20
225.56711
  0
SEQEND
  0
ENDSEC
  0
EOF
