solid HighRise Cube
facet normal -1.206344808469677e-17 7.4090468551681e-18 -1.0
  outer loop
    vertex 14.699999999999996 76.2 0.0
    vertex 0.0 14.700000000000006 0.0
    vertex 0.0 61.500000000000014 2.531956273751523e-15
  endloop
endfacet
facet normal -1.206344808469677e-17 7.4090468551681e-18 -1.0
  outer loop
    vertex 0.0 14.700000000000006 0.0
    vertex 14.699999999999996 76.2 0.0
    vertex 14.7 0.0 0.0
  endloop
endfacet
facet normal -1.206344808469677e-17 7.4090468551681e-18 -1.0
  outer loop
    vertex 14.7 0.0 0.0
    vertex 14.699999999999996 76.2 0.0
    vertex 61.50000000000002 76.2 0.0
  endloop
endfacet
facet normal -1.206344808469677e-17 7.4090468551681e-18 -1.0
  outer loop
    vertex 14.7 0.0 0.0
    vertex 61.50000000000002 76.2 0.0
    vertex 61.5 0.0 0.0
  endloop
endfacet
facet normal -1.206344808469677e-17 7.4090468551681e-18 -1.0
  outer loop
    vertex 61.5 0.0 0.0
    vertex 61.50000000000002 76.2 0.0
    vertex 76.2 14.699999999999992 0.0
  endloop
endfacet
facet normal -1.206344808469677e-17 7.4090468551681e-18 -1.0
  outer loop
    vertex 76.2 14.699999999999992 0.0
    vertex 61.50000000000002 76.2 0.0
    vertex 76.20000000000002 61.49999999999996 0.0
  endloop
endfacet
facet normal 0.0 -1.0 0.0
  outer loop
    vertex 76.2 0.0 14.7
    vertex 14.7 0.0 0.0
    vertex 61.5 0.0 0.0
  endloop
endfacet
facet normal 0.0 -1.0 0.0
  outer loop
    vertex 14.7 0.0 0.0
    vertex 76.2 0.0 14.7
    vertex 0.0 0.0 14.7
  endloop
endfacet
facet normal 0.0 -1.0 0.0
  outer loop
    vertex 0.0 0.0 14.7
    vertex 76.2 0.0 14.7
    vertex 76.2 0.0 61.5
  endloop
endfacet
facet normal 0.0 -1.0 0.0
  outer loop
    vertex 0.0 0.0 14.7
    vertex 76.2 0.0 61.5
    vertex 0.0 0.0 61.5
  endloop
endfacet
facet normal 0.0 -1.0 0.0
  outer loop
    vertex 0.0 0.0 61.5
    vertex 76.2 0.0 61.5
    vertex 61.500000000000014 0.0 76.2
  endloop
endfacet
facet normal 0.0 -1.0 0.0
  outer loop
    vertex 0.0 0.0 61.5
    vertex 61.500000000000014 0.0 76.2
    vertex 14.699999999999996 0.0 76.2
  endloop
endfacet
facet normal -5.3742664698387254e-17 3.3007305877749694e-17 1.0
  outer loop
    vertex 14.699999999999996 0.0 76.2
    vertex 0.0 61.50000000000002 76.19999999999999
    vertex 0.0 14.699999999999996 76.2
  endloop
endfacet
facet normal -5.3742664698387254e-17 3.3007305877749694e-17 1.0
  outer loop
    vertex 0.0 61.50000000000002 76.19999999999999
    vertex 14.699999999999996 0.0 76.2
    vertex 14.700000000000006 76.2 76.2
  endloop
endfacet
facet normal -5.3742664698387254e-17 3.3007305877749694e-17 1.0
  outer loop
    vertex 14.700000000000006 76.2 76.2
    vertex 14.699999999999996 0.0 76.2
    vertex 61.500000000000014 0.0 76.2
  endloop
endfacet
facet normal -5.3742664698387254e-17 3.3007305877749694e-17 1.0
  outer loop
    vertex 14.700000000000006 76.2 76.2
    vertex 61.500000000000014 0.0 76.2
    vertex 61.500000000000014 76.2 76.2
  endloop
endfacet
facet normal -5.3742664698387254e-17 3.3007305877749694e-17 1.0
  outer loop
    vertex 61.500000000000014 76.2 76.2
    vertex 61.500000000000014 0.0 76.2
    vertex 76.2 14.699999999999996 76.2
  endloop
endfacet
facet normal -5.3742664698387254e-17 3.3007305877749694e-17 1.0
  outer loop
    vertex 61.500000000000014 76.2 76.2
    vertex 76.2 14.699999999999996 76.2
    vertex 76.20000000000002 61.49999999999996 76.2
  endloop
endfacet
facet normal -0.5773502691896258 -0.5773502691896261 0.5773502691896254
  outer loop
    vertex 0.0 14.699999999999996 76.2
    vertex 0.0 0.0 61.5
    vertex 14.699999999999996 0.0 76.2
  endloop
endfacet
facet normal 0.577350269189626 -0.577350269189626 0.5773502691896255
  outer loop
    vertex 76.2 14.699999999999996 76.2
    vertex 61.500000000000014 0.0 76.2
    vertex 76.2 0.0 61.5
  endloop
endfacet
facet normal 0.5773502691896265 0.5773502691896247 0.5773502691896261
  outer loop
    vertex 61.500000000000014 76.2 76.2
    vertex 76.20000000000002 61.49999999999996 76.2
    vertex 76.2 76.2 61.5
  endloop
endfacet
facet normal -0.5773502691896254 0.5773502691896261 0.5773502691896258
  outer loop
    vertex 14.700000000000006 76.2 76.2
    vertex 0.0 76.2 61.500000000000014
    vertex 0.0 61.50000000000002 76.19999999999999
  endloop
endfacet
facet normal 0.5773502691896255 -0.5773502691896261 -0.5773502691896258
  outer loop
    vertex 76.2 0.0 14.7
    vertex 61.5 0.0 0.0
    vertex 76.2 14.699999999999992 0.0
  endloop
endfacet
facet normal -0.5773502691896258 -0.5773502691896255 -0.5773502691896258
  outer loop
    vertex 0.0 14.700000000000006 0.0
    vertex 14.7 0.0 0.0
    vertex 0.0 0.0 14.7
  endloop
endfacet
facet normal 1.0 -6.601461175549926e-17 -5.778473056243563e-33
  outer loop
    vertex 76.2 14.699999999999992 0.0
    vertex 76.2 0.0 61.5
    vertex 76.2 0.0 14.7
  endloop
endfacet
facet normal 1.0 -6.601461175549926e-17 -5.778473056243563e-33
  outer loop
    vertex 76.2 0.0 61.5
    vertex 76.2 14.699999999999992 0.0
    vertex 76.2 14.699999999999996 76.2
  endloop
endfacet
facet normal 1.0 -6.601461175549926e-17 -5.778473056243563e-33
  outer loop
    vertex 76.2 14.699999999999996 76.2
    vertex 76.2 14.699999999999992 0.0
    vertex 76.20000000000002 61.49999999999996 0.0
  endloop
endfacet
facet normal 1.0 -6.601461175549926e-17 -5.778473056243563e-33
  outer loop
    vertex 76.2 14.699999999999996 76.2
    vertex 76.20000000000002 61.49999999999996 0.0
    vertex 76.20000000000002 61.49999999999996 76.2
  endloop
endfacet
facet normal 1.0 -6.601461175549926e-17 -5.778473056243563e-33
  outer loop
    vertex 76.20000000000002 61.49999999999996 76.2
    vertex 76.20000000000002 61.49999999999996 0.0
    vertex 76.2 76.2 14.7
  endloop
endfacet
facet normal 1.0 -6.601461175549926e-17 -5.778473056243563e-33
  outer loop
    vertex 76.20000000000002 61.49999999999996 76.2
    vertex 76.2 76.2 14.7
    vertex 76.2 76.2 61.5
  endloop
endfacet
facet normal 0.5773502691896268 0.5773502691896244 -0.5773502691896261
  outer loop
    vertex 76.2 76.2 14.7
    vertex 76.20000000000002 61.49999999999996 0.0
    vertex 61.50000000000002 76.2 0.0
  endloop
endfacet
facet normal -0.0 1.0 -0.0
  outer loop
    vertex 0.0 76.2 14.7
    vertex 61.50000000000002 76.2 0.0
    vertex 14.699999999999996 76.2 0.0
  endloop
endfacet
facet normal -0.0 1.0 -0.0
  outer loop
    vertex 61.50000000000002 76.2 0.0
    vertex 0.0 76.2 14.7
    vertex 76.2 76.2 14.7
  endloop
endfacet
facet normal -0.0 1.0 -0.0
  outer loop
    vertex 76.2 76.2 14.7
    vertex 0.0 76.2 14.7
    vertex 0.0 76.2 61.500000000000014
  endloop
endfacet
facet normal -0.0 1.0 -0.0
  outer loop
    vertex 76.2 76.2 14.7
    vertex 0.0 76.2 61.500000000000014
    vertex 76.2 76.2 61.5
  endloop
endfacet
facet normal -0.0 1.0 -0.0
  outer loop
    vertex 76.2 76.2 61.5
    vertex 0.0 76.2 61.500000000000014
    vertex 61.500000000000014 76.2 76.2
  endloop
endfacet
facet normal -0.0 1.0 -0.0
  outer loop
    vertex 61.500000000000014 76.2 76.2
    vertex 0.0 76.2 61.500000000000014
    vertex 14.700000000000006 76.2 76.2
  endloop
endfacet
facet normal -1.0 0.0 0.0
  outer loop
    vertex 0.0 14.699999999999996 76.2
    vertex 0.0 0.0 14.7
    vertex 0.0 0.0 61.5
  endloop
endfacet
facet normal -1.0 0.0 0.0
  outer loop
    vertex 0.0 0.0 14.7
    vertex 0.0 14.699999999999996 76.2
    vertex 0.0 14.700000000000006 0.0
  endloop
endfacet
facet normal -1.0 0.0 0.0
  outer loop
    vertex 0.0 14.700000000000006 0.0
    vertex 0.0 14.699999999999996 76.2
    vertex 0.0 61.50000000000002 76.19999999999999
  endloop
endfacet
facet normal -1.0 0.0 0.0
  outer loop
    vertex 0.0 14.700000000000006 0.0
    vertex 0.0 61.50000000000002 76.19999999999999
    vertex 0.0 61.500000000000014 2.531956273751523e-15
  endloop
endfacet
facet normal -1.0 0.0 0.0
  outer loop
    vertex 0.0 61.500000000000014 2.531956273751523e-15
    vertex 0.0 61.50000000000002 76.19999999999999
    vertex 0.0 76.2 14.7
  endloop
endfacet
facet normal -1.0 0.0 0.0
  outer loop
    vertex 0.0 76.2 14.7
    vertex 0.0 61.50000000000002 76.19999999999999
    vertex 0.0 76.2 61.500000000000014
  endloop
endfacet
facet normal -0.5773502691896258 0.5773502691896258 -0.5773502691896256
  outer loop
    vertex 14.699999999999996 76.2 0.0
    vertex 0.0 61.500000000000014 2.531956273751523e-15
    vertex 0.0 76.2 14.7
  endloop
endfacet
endsolid HighRise Cube
