  0
SECTION
  2
HEADER
  9
$ACADVER
  1
AC1009
  0
ENDSEC
  0
SECTION
  2
TABLES
  0
TABLE
  2
LAYER
  70
1
  0
LAYER
  2
Layer_31
  70
0
  62
142
  6
CONTINUOUS
  0
ENDTAB
  0
ENDSEC
  0
SECTION
  2
ENTITIES
  0
POLYLINE
  5
90
  8
Layer_31
  62
142
  70
1
  66
1
  10
0
  20
0
  30
0
  0
VERTEX
  5
90
  8
Layer_31
  10
112.8015
  20
279.61157
  42
0.19892876
  0
VERTEX
  5
91
  8
Layer_31
  10
112.56337
  20
279.5322
  0
VERTEX
  5
92
  8
Layer_31
  10
112.53543
  20
279.51274
  0
VERTEX
  5
93
  8
Layer_31
  10
112.45391
  20
279.45604
  0
VERTEX
  5
94
  8
Layer_31
  10
112.3223
  20
279.36449
  0
VERTEX
  5
95
  8
Layer_31
  10
112.14407
  20
279.24052
  0
VERTEX
  5
96
  8
Layer_31
  10
111.92271
  20
279.08656
  0
VERTEX
  5
97
  8
Layer_31
  10
111.66168
  20
278.90501
  0
VERTEX
  5
98
  8
Layer_31
  10
111.36448
  20
278.69832
  0
VERTEX
  5
99
  8
Layer_31
  10
111.03458
  20
278.46889
  0
VERTEX
  5
9a
  8
Layer_31
  10
110.67545
  20
278.21915
  0
VERTEX
  5
9b
  8
Layer_31
  10
110.29058
  20
277.95153
  0
VERTEX
  5
9c
  8
Layer_31
  10
109.88344
  20
277.66844
  0
VERTEX
  5
9d
  8
Layer_31
  10
109.45752
  20
277.37232
  0
VERTEX
  5
9e
  8
Layer_31
  10
108.56322
  20
276.75062
  0
VERTEX
  5
9f
  8
Layer_31
  10
107.63551
  20
276.10583
  0
VERTEX
  5
a0
  8
Layer_31
  10
106.70222
  20
275.45732
  0
VERTEX
  5
a1
  8
Layer_31
  10
105.79118
  20
274.82446
  0
VERTEX
  5
a2
  8
Layer_31
  10
104.93021
  20
274.22664
  0
VERTEX
  5
a3
  8
Layer_31
  10
104.14714
  20
273.68324
  0
VERTEX
  5
a4
  8
Layer_31
  10
103.79352
  20
273.438
  0
VERTEX
  5
a5
  8
Layer_31
  10
103.46981
  20
273.21363
  0
VERTEX
  5
a6
  8
Layer_31
  10
103.17948
  20
273.01255
  0
VERTEX
  5
a7
  8
Layer_31
  10
102.92603
  20
272.83719
  0
VERTEX
  5
a8
  8
Layer_31
  10
102.71292
  20
272.68997
  0
VERTEX
  5
a9
  8
Layer_31
  10
102.54363
  20
272.57331
  0
VERTEX
  5
aa
  8
Layer_31
  10
102.42165
  20
272.48963
  0
VERTEX
  5
ab
  8
Layer_31
  10
102.35045
  20
272.44135
  0
VERTEX
  5
ac
  8
Layer_31
  10
102.2791
  20
272.48963
  0
VERTEX
  5
ad
  8
Layer_31
  10
102.15668
  20
272.57331
  0
VERTEX
  5
ae
  8
Layer_31
  10
101.98668
  20
272.68997
  0
VERTEX
  5
af
  8
Layer_31
  10
101.77261
  20
272.83719
  0
VERTEX
  5
b0
  8
Layer_31
  10
101.51796
  20
273.01255
  0
VERTEX
  5
b1
  8
Layer_31
  10
101.22622
  20
273.21363
  0
VERTEX
  5
b2
  8
Layer_31
  10
100.90091
  20
273.438
  0
VERTEX
  5
b3
  8
Layer_31
  10
100.5455
  20
273.68324
  0
VERTEX
  5
b4
  8
Layer_31
  10
99.758433
  20
274.22664
  0
VERTEX
  5
b5
  8
Layer_31
  10
98.892996
  20
274.82446
  0
VERTEX
  5
b6
  8
Layer_31
  10
97.977174
  20
275.45732
  0
VERTEX
  5
b7
  8
Layer_31
  10
97.03895
  20
276.10583
  0
VERTEX
  5
b8
  8
Layer_31
  10
96.106307
  20
276.75062
  0
VERTEX
  5
b9
  8
Layer_31
  10
95.207228
  20
277.37232
  0
VERTEX
  5
ba
  8
Layer_31
  10
94.77902
  20
277.66844
  0
VERTEX
  5
bb
  8
Layer_31
  10
94.369696
  20
277.95153
  0
VERTEX
  5
bc
  8
Layer_31
  10
93.982754
  20
278.21915
  0
VERTEX
  5
bd
  8
Layer_31
  10
93.621692
  20
278.46889
  0
VERTEX
  5
be
  8
Layer_31
  10
93.290009
  20
278.69832
  0
VERTEX
  5
bf
  8
Layer_31
  10
92.991201
  20
278.90501
  0
VERTEX
  5
c0
  8
Layer_31
  10
92.728768
  20
279.08656
  0
VERTEX
  5
c1
  8
Layer_31
  10
92.506205
  20
279.24052
  0
VERTEX
  5
c2
  8
Layer_31
  10
92.327012
  20
279.36449
  0
VERTEX
  5
c3
  8
Layer_31
  10
92.194687
  20
279.45604
  0
VERTEX
  5
c4
  8
Layer_31
  10
92.112726
  20
279.51274
  0
VERTEX
  5
c5
  8
Layer_31
  10
92.084629
  20
279.53218
  42
0.14806661
  0
VERTEX
  5
c6
  8
Layer_31
  10
91.846497
  20
279.61157
  0
VERTEX
  5
c7
  8
Layer_31
  10
82.824203
  20
279.61157
  42
0.33485914
  0
VERTEX
  5
c8
  8
Layer_31
  10
82.400879
  20
279.29407
  0
VERTEX
  5
c9
  8
Layer_31
  10
82.387646
  20
279.22791
  0
VERTEX
  5
ca
  8
Layer_31
  10
82.374416
  20
279.16177
  42
0.23607863
  0
VERTEX
  5
cb
  8
Layer_31
  10
82.559631
  20
278.81781
  0
VERTEX
  5
cc
  8
Layer_31
  10
82.598746
  20
278.79138
  0
VERTEX
  5
cd
  8
Layer_31
  10
82.712893
  20
278.71424
  0
VERTEX
  5
ce
  8
Layer_31
  10
82.897259
  20
278.58964
  0
VERTEX
  5
cf
  8
Layer_31
  10
83.147033
  20
278.42083
  0
VERTEX
  5
d0
  8
Layer_31
  10
83.457404
  20
278.21106
  0
VERTEX
  5
d1
  8
Layer_31
  10
83.823562
  20
277.96356
  0
VERTEX
  5
d2
  8
Layer_31
  10
84.240695
  20
277.68159
  0
VERTEX
  5
d3
  8
Layer_31
  10
84.703992
  20
277.36839
  0
VERTEX
  5
d4
  8
Layer_31
  10
85.208644
  20
277.02721
  0
VERTEX
  5
d5
  8
Layer_31
  10
85.749839
  20
276.66129
  0
VERTEX
  5
d6
  8
Layer_31
  10
86.322767
  20
276.27388
  0
VERTEX
  5
d7
  8
Layer_31
  10
86.922616
  20
275.86822
  0
VERTEX
  5
d8
  8
Layer_31
  10
88.183837
  20
275.01516
  0
VERTEX
  5
d9
  8
Layer_31
  10
89.495017
  20
274.12807
  0
VERTEX
  5
da
  8
Layer_31
  10
90.817669
  20
273.23292
  0
VERTEX
  5
db
  8
Layer_31
  10
92.113307
  20
272.35567
  0
VERTEX
  5
dc
  8
Layer_31
  10
92.738969
  20
271.93188
  0
VERTEX
  5
dd
  8
Layer_31
  10
93.343445
  20
271.5223
  0
VERTEX
  5
de
  8
Layer_31
  10
93.921925
  20
271.13018
  0
VERTEX
  5
df
  8
Layer_31
  10
94.469598
  20
270.75877
  0
VERTEX
  5
e0
  8
Layer_31
  10
94.981653
  20
270.41131
  0
VERTEX
  5
e1
  8
Layer_31
  10
95.453279
  20
270.09104
  0
VERTEX
  5
e2
  8
Layer_31
  10
95.879665
  20
269.80122
  0
VERTEX
  5
e3
  8
Layer_31
  10
96.256002
  20
269.54509
  0
VERTEX
  5
e4
  8
Layer_31
  10
96.577477
  20
269.3259
  0
VERTEX
  5
e5
  8
Layer_31
  10
96.839281
  20
269.14689
  0
VERTEX
  5
e6
  8
Layer_31
  10
97.036603
  20
269.0113
  0
VERTEX
  5
e7
  8
Layer_31
  10
97.164631
  20
268.92239
  0
VERTEX
  5
e8
  8
Layer_31
  10
97.030708
  20
268.83376
  0
VERTEX
  5
e9
  8
Layer_31
  10
96.820957
  20
268.69423
  0
VERTEX
  5
ea
  8
Layer_31
  10
96.540628
  20
268.50734
  0
VERTEX
  5
eb
  8
Layer_31
  10
96.194974
  20
268.27659
  0
VERTEX
  5
ec
  8
Layer_31
  10
95.789246
  20
268.00552
  0
VERTEX
  5
ed
  8
Layer_31
  10
95.328696
  20
267.69764
  0
VERTEX
  5
ee
  8
Layer_31
  10
94.818576
  20
267.35648
  0
VERTEX
  5
ef
  8
Layer_31
  10
94.264136
  20
266.98556
  0
VERTEX
  5
f0
  8
Layer_31
  10
93.670629
  20
266.5884
  0
VERTEX
  5
f1
  8
Layer_31
  10
93.043306
  20
266.16852
  0
VERTEX
  5
f2
  8
Layer_31
  10
92.387419
  20
265.72945
  0
VERTEX
  5
f3
  8
Layer_31
  10
91.70822
  20
265.27471
  0
VERTEX
  5
f4
  8
Layer_31
  10
90.30089
  20
264.33229
  0
VERTEX
  5
f5
  8
Layer_31
  10
88.863329
  20
263.36945
  0
VERTEX
  5
f6
  8
Layer_31
  10
87.43755
  20
262.41436
  0
VERTEX
  5
f7
  8
Layer_31
  10
86.065567
  20
261.4952
  0
VERTEX
  5
f8
  8
Layer_31
  10
85.412878
  20
261.0579
  0
VERTEX
  5
f9
  8
Layer_31
  10
84.789392
  20
260.64014
  0
VERTEX
  5
fa
  8
Layer_31
  10
84.200361
  20
260.24546
  0
VERTEX
  5
fb
  8
Layer_31
  10
83.651037
  20
259.87737
  0
VERTEX
  5
fc
  8
Layer_31
  10
83.146672
  20
259.53939
  0
VERTEX
  5
fd
  8
Layer_31
  10
82.692517
  20
259.23505
  0
VERTEX
  5
fe
  8
Layer_31
  10
82.293824
  20
258.96786
  0
VERTEX
  5
ff
  8
Layer_31
  10
81.955844
  20
258.74136
  0
VERTEX
  5
100
  8
Layer_31
  10
81.683829
  20
258.55906
  0
VERTEX
  5
101
  8
Layer_31
  10
81.48303
  20
258.42449
  0
VERTEX
  5
102
  8
Layer_31
  10
81.3587
  20
258.34116
  0
VERTEX
  5
103
  8
Layer_31
  10
81.31609
  20
258.3126
  42
0.26344714
  0
VERTEX
  5
104
  8
Layer_31
  10
81.130875
  20
257.9422
  42
0.11644113
  0
VERTEX
  5
105
  8
Layer_31
  10
81.157333
  20
257.80991
  42
0.33485876
  0
VERTEX
  5
106
  8
Layer_31
  10
81.580673
  20
257.4924
  0
VERTEX
  5
107
  8
Layer_31
  10
90.788162
  20
257.4924
  42
0.19892174
  0
VERTEX
  5
108
  8
Layer_31
  10
91.026291
  20
257.57178
  0
VERTEX
  5
109
  8
Layer_31
  10
91.057352
  20
257.59326
  0
VERTEX
  5
10a
  8
Layer_31
  10
91.147941
  20
257.65595
  0
VERTEX
  5
10b
  8
Layer_31
  10
91.294185
  20
257.75715
  0
VERTEX
  5
10c
  8
Layer_31
  10
91.492209
  20
257.89418
  0
VERTEX
  5
10d
  8
Layer_31
  10
91.738137
  20
258.06438
  0
VERTEX
  5
10e
  8
Layer_31
  10
92.028094
  20
258.26505
  0
VERTEX
  5
10f
  8
Layer_31
  10
92.358203
  20
258.49351
  0
VERTEX
  5
110
  8
Layer_31
  10
92.724589
  20
258.7471
  0
VERTEX
  5
111
  8
Layer_31
  10
93.123376
  20
259.02313
  0
VERTEX
  5
112
  8
Layer_31
  10
93.550688
  20
259.31892
  0
VERTEX
  5
113
  8
Layer_31
  10
94.00265
  20
259.63179
  0
VERTEX
  5
114
  8
Layer_31
  10
94.475386
  20
259.95907
  0
VERTEX
  5
115
  8
Layer_31
  10
95.467677
  20
260.64611
  0
VERTEX
  5
116
  8
Layer_31
  10
96.496554
  20
261.35862
  0
VERTEX
  5
117
  8
Layer_31
  10
97.531013
  20
262.07516
  0
VERTEX
  5
118
  8
Layer_31
  10
98.540047
  20
262.7743
  0
VERTEX
  5
119
  8
Layer_31
  10
99.02534
  20
263.11064
  0
VERTEX
  5
11a
  8
Layer_31
  10
99.49265
  20
263.4346
  0
VERTEX
  5
11b
  8
Layer_31
  10
99.938101
  20
263.74349
  0
VERTEX
  5
11c
  8
Layer_31
  10
100.35782
  20
264.03464
  0
VERTEX
  5
11d
  8
Layer_31
  10
100.74792
  20
264.30535
  0
VERTEX
  5
11e
  8
Layer_31
  10
101.10454
  20
264.55297
  0
VERTEX
  5
11f
  8
Layer_31
  10
101.4238
  20
264.7748
  0
VERTEX
  5
120
  8
Layer_31
  10
101.70182
  20
264.96817
  0
VERTEX
  5
121
  8
Layer_31
  10
101.93472
  20
265.1304
  0
VERTEX
  5
122
  8
Layer_31
  10
102.11864
  20
265.2588
  0
VERTEX
  5
123
  8
Layer_31
  10
102.24969
  20
265.35071
  0
VERTEX
  5
124
  8
Layer_31
  10
102.324
  20
265.40344
  0
VERTEX
  5
125
  8
Layer_31
  10
102.39801
  20
265.35304
  0
VERTEX
  5
126
  8
Layer_31
  10
102.52817
  20
265.26316
  0
VERTEX
  5
127
  8
Layer_31
  10
102.71066
  20
265.13651
  0
VERTEX
  5
128
  8
Layer_31
  10
102.94164
  20
264.97577
  0
VERTEX
  5
129
  8
Layer_31
  10
103.21726
  20
264.78363
  0
VERTEX
  5
12a
  8
Layer_31
  10
103.53369
  20
264.56279
  0
VERTEX
  5
12b
  8
Layer_31
  10
103.8871
  20
264.31595
  0
VERTEX
  5
12c
  8
Layer_31
  10
104.27365
  20
264.0458
  0
VERTEX
  5
12d
  8
Layer_31
  10
104.6895
  20
263.75502
  0
VERTEX
  5
12e
  8
Layer_31
  10
105.13081
  20
263.44633
  0
VERTEX
  5
12f
  8
Layer_31
  10
105.59374
  20
263.12239
  0
VERTEX
  5
130
  8
Layer_31
  10
106.07447
  20
262.78593
  0
VERTEX
  5
131
  8
Layer_31
  10
107.07394
  20
262.08615
  0
VERTEX
  5
132
  8
Layer_31
  10
108.09853
  20
261.36854
  0
VERTEX
  5
133
  8
Layer_31
  10
109.11754
  20
260.65466
  0
VERTEX
  5
134
  8
Layer_31
  10
110.10027
  20
259.96605
  0
VERTEX
  5
135
  8
Layer_31
  10
110.56844
  20
259.63795
  0
VERTEX
  5
136
  8
Layer_31
  10
111.01603
  20
259.32425
  0
VERTEX
  5
137
  8
Layer_31
  10
111.4392
  20
259.02764
  0
VERTEX
  5
138
  8
Layer_31
  10
111.83412
  20
258.75082
  0
VERTEX
  5
139
  8
Layer_31
  10
112.19694
  20
258.49648
  0
VERTEX
  5
13a
  8
Layer_31
  10
112.52384
  20
258.26731
  0
VERTEX
  5
13b
  8
Layer_31
  10
112.81097
  20
258.06601
  0
VERTEX
  5
13c
  8
Layer_31
  10
113.05451
  20
257.89527
  0
VERTEX
  5
13d
  8
Layer_31
  10
113.2506
  20
257.75778
  0
VERTEX
  5
13e
  8
Layer_31
  10
113.39542
  20
257.65624
  0
VERTEX
  5
13f
  8
Layer_31
  10
113.48512
  20
257.59334
  0
VERTEX
  5
140
  8
Layer_31
  10
113.51587
  20
257.57177
  42
0.14806024
  0
VERTEX
  5
141
  8
Layer_31
  10
113.754
  20
257.4924
  0
VERTEX
  5
142
  8
Layer_31
  10
122.80275
  20
257.4924
  42
0.33485876
  0
VERTEX
  5
143
  8
Layer_31
  10
123.22609
  20
257.80991
  42
0.11644113
  0
VERTEX
  5
144
  8
Layer_31
  10
123.25255
  20
257.9422
  42
0.23607711
  0
VERTEX
  5
145
  8
Layer_31
  10
123.06734
  20
258.28613
  0
VERTEX
  5
146
  8
Layer_31
  10
123.02495
  20
258.31471
  0
VERTEX
  5
147
  8
Layer_31
  10
122.90129
  20
258.39803
  0
VERTEX
  5
148
  8
Layer_31
  10
122.70158
  20
258.53261
  0
VERTEX
  5
149
  8
Layer_31
  10
122.43104
  20
258.71491
  0
VERTEX
  5
14a
  8
Layer_31
  10
122.09491
  20
258.94141
  0
VERTEX
  5
14b
  8
Layer_31
  10
121.69841
  20
259.20859
  0
VERTEX
  5
14c
  8
Layer_31
  10
121.24676
  20
259.51293
  0
VERTEX
  5
14d
  8
Layer_31
  10
120.7452
  20
259.85091
  0
VERTEX
  5
14e
  8
Layer_31
  10
120.19895
  20
260.219
  0
VERTEX
  5
14f
  8
Layer_31
  10
119.61325
  20
260.61369
  0
VERTEX
  5
150
  8
Layer_31
  10
118.99331
  20
261.03144
  0
VERTEX
  5
151
  8
Layer_31
  10
118.34437
  20
261.46874
  0
VERTEX
  5
152
  8
Layer_31
  10
116.98037
  20
262.38791
  0
VERTEX
  5
153
  8
Layer_31
  10
115.56309
  20
263.343
  0
VERTEX
  5
154
  8
Layer_31
  10
114.13433
  20
264.30584
  0
VERTEX
  5
155
  8
Layer_31
  10
112.73592
  20
265.24825
  0
VERTEX
  5
156
  8
Layer_31
  10
112.06117
  20
265.703
  0
VERTEX
  5
157
  8
Layer_31
  10
111.40968
  20
266.14207
  0
VERTEX
  5
158
  8
Layer_31
  10
110.78669
  20
266.56195
  0
VERTEX
  5
159
  8
Layer_31
  10
110.19742
  20
266.95911
  0
VERTEX
  5
15a
  8
Layer_31
  10
109.64711
  20
267.33003
  0
VERTEX
  5
15b
  8
Layer_31
  10
109.14097
  20
267.67119
  0
VERTEX
  5
15c
  8
Layer_31
  10
108.68424
  20
267.97907
  0
VERTEX
  5
15d
  8
Layer_31
  10
108.28214
  20
268.25014
  0
VERTEX
  5
15e
  8
Layer_31
  10
107.9399
  20
268.48088
  0
VERTEX
  5
15f
  8
Layer_31
  10
107.66275
  20
268.66778
  0
VERTEX
  5
160
  8
Layer_31
  10
107.45592
  20
268.80731
  0
VERTEX
  5
161
  8
Layer_31
  10
107.32463
  20
268.89594
  0
VERTEX
  5
162
  8
Layer_31
  10
107.45281
  20
268.98252
  0
VERTEX
  5
163
  8
Layer_31
  10
107.65057
  20
269.11607
  0
VERTEX
  5
164
  8
Layer_31
  10
107.91309
  20
269.29333
  0
VERTEX
  5
165
  8
Layer_31
  10
108.23553
  20
269.51104
  0
VERTEX
  5
166
  8
Layer_31
  10
108.61306
  20
269.76594
  0
VERTEX
  5
167
  8
Layer_31
  10
109.04086
  20
270.05476
  0
VERTEX
  5
168
  8
Layer_31
  10
109.51409
  20
270.37425
  0
VERTEX
  5
169
  8
Layer_31
  10
110.02792
  20
270.72115
  0
VERTEX
  5
16a
  8
Layer_31
  10
110.57753
  20
271.09219
  0
VERTEX
  5
16b
  8
Layer_31
  10
111.15808
  20
271.48412
  0
VERTEX
  5
16c
  8
Layer_31
  10
111.76474
  20
271.89367
  0
VERTEX
  5
16d
  8
Layer_31
  10
112.39269
  20
272.31759
  0
VERTEX
  5
16e
  8
Layer_31
  10
113.69311
  20
273.19548
  0
VERTEX
  5
16f
  8
Layer_31
  10
115.02069
  20
274.09169
  0
VERTEX
  5
170
  8
Layer_31
  10
116.33681
  20
274.98016
  0
VERTEX
  5
171
  8
Layer_31
  10
117.60281
  20
275.83479
  0
VERTEX
  5
172
  8
Layer_31
  10
118.20494
  20
276.24127
  0
VERTEX
  5
173
  8
Layer_31
  10
118.78006
  20
276.6295
  0
VERTEX
  5
174
  8
Layer_31
  10
119.32332
  20
276.99624
  0
VERTEX
  5
175
  8
Layer_31
  10
119.82991
  20
277.33821
  0
VERTEX
  5
176
  8
Layer_31
  10
120.29498
  20
277.65217
  0
VERTEX
  5
177
  8
Layer_31
  10
120.71372
  20
277.93484
  0
VERTEX
  5
178
  8
Layer_31
  10
121.08129
  20
278.18297
  0
VERTEX
  5
179
  8
Layer_31
  10
121.39286
  20
278.39329
  0
VERTEX
  5
17a
  8
Layer_31
  10
121.6436
  20
278.56255
  0
VERTEX
  5
17b
  8
Layer_31
  10
121.82868
  20
278.68749
  0
VERTEX
  5
17c
  8
Layer_31
  10
121.94327
  20
278.76485
  0
VERTEX
  5
17d
  8
Layer_31
  10
121.98254
  20
278.79136
  42
0.26344856
  0
VERTEX
  5
17e
  8
Layer_31
  10
122.16776
  20
279.16177
  42
0.11643382
  0
VERTEX
  5
17f
  8
Layer_31
  10
122.1413
  20
279.29407
  42
0.33485914
  0
VERTEX
  5
180
  8
Layer_31
  10
121.71796
  20
279.61157
  0
VERTEX
  5
181
  8
Layer_31
  10
112.8015
  20
279.61157
  0
SEQEND
  0
POLYLINE
  5
183
  8
Layer_31
  62
142
  70
1
  66
1
  10
0
  20
0
  30
0
  0
VERTEX
  5
183
  8
Layer_31
  10
41.972538
  20
279.61157
  42
0.23606569
  0
VERTEX
  5
184
  8
Layer_31
  10
41.628578
  20
279.45282
  0
VERTEX
  5
185
  8
Layer_31
  10
41.619256
  20
279.44141
  0
VERTEX
  5
186
  8
Layer_31
  10
41.591672
  20
279.4077
  0
VERTEX
  5
187
  8
Layer_31
  10
41.546399
  20
279.35237
  0
VERTEX
  5
188
  8
Layer_31
  10
41.484013
  20
279.27611
  0
VERTEX
  5
189
  8
Layer_31
  10
41.310197
  20
279.06366
  0
VERTEX
  5
18a
  8
Layer_31
  10
41.074814
  20
278.77595
  0
VERTEX
  5
18b
  8
Layer_31
  10
40.782458
  20
278.41859
  0
VERTEX
  5
18c
  8
Layer_31
  10
40.437721
  20
277.9972
  0
VERTEX
  5
18d
  8
Layer_31
  10
40.045196
  20
277.51738
  0
VERTEX
  5
18e
  8
Layer_31
  10
39.609477
  20
276.98474
  0
VERTEX
  5
18f
  8
Layer_31
  10
39.135155
  20
276.4049
  0
VERTEX
  5
190
  8
Layer_31
  10
38.626824
  20
275.78346
  0
VERTEX
  5
191
  8
Layer_31
  10
38.089076
  20
275.12603
  0
VERTEX
  5
192
  8
Layer_31
  10
37.526504
  20
274.43823
  0
VERTEX
  5
193
  8
Layer_31
  10
36.345258
  20
272.99394
  0
VERTEX
  5
194
  8
Layer_31
  10
35.119829
  20
271.49546
  0
VERTEX
  5
195
  8
Layer_31
  10
33.886959
  20
269.98769
  0
VERTEX
  5
196
  8
Layer_31
  10
32.683389
  20
268.51549
  0
VERTEX
  5
197
  8
Layer_31
  10
32.104074
  20
267.80676
  0
VERTEX
  5
198
  8
Layer_31
  10
31.545862
  20
267.12375
  0
VERTEX
  5
199
  8
Layer_31
  10
31.013346
  20
266.47208
  0
VERTEX
  5
19a
  8
Layer_31
  10
30.511119
  20
265.85736
  0
VERTEX
  5
19b
  8
Layer_31
  10
30.043774
  20
265.28519
  0
VERTEX
  5
19c
  8
Layer_31
  10
29.615903
  20
264.76119
  0
VERTEX
  5
19d
  8
Layer_31
  10
29.232099
  20
264.29096
  0
VERTEX
  5
19e
  8
Layer_31
  10
28.896954
  20
263.88012
  0
VERTEX
  5
19f
  8
Layer_31
  10
28.615063
  20
263.53427
  0
VERTEX
  5
1a0
  8
Layer_31
  10
28.391016
  20
263.25903
  0
VERTEX
  5
1a1
  8
Layer_31
  10
28.30212
  20
263.14964
  0
VERTEX
  5
1a2
  8
Layer_31
  10
28.229408
  20
263.06001
  0
VERTEX
  5
1a3
  8
Layer_31
  10
28.173453
  20
262.99083
  0
VERTEX
  5
1a4
  8
Layer_31
  10
28.13483
  20
262.94281
  0
VERTEX
  5
1a5
  8
Layer_31
  10
28.09638
  20
262.99083
  0
VERTEX
  5
1a6
  8
Layer_31
  10
28.040936
  20
263.06001
  0
VERTEX
  5
1a7
  8
Layer_31
  10
27.969061
  20
263.14964
  0
VERTEX
  5
1a8
  8
Layer_31
  10
27.881319
  20
263.25903
  0
VERTEX
  5
1a9
  8
Layer_31
  10
27.660484
  20
263.53427
  0
VERTEX
  5
1aa
  8
Layer_31
  10
27.382938
  20
263.88012
  0
VERTEX
  5
1ab
  8
Layer_31
  10
27.053186
  20
264.29096
  0
VERTEX
  5
1ac
  8
Layer_31
  10
26.675734
  20
264.76119
  0
VERTEX
  5
1ad
  8
Layer_31
  10
26.255086
  20
265.28519
  0
VERTEX
  5
1ae
  8
Layer_31
  10
25.795749
  20
265.85736
  0
VERTEX
  5
1af
  8
Layer_31
  10
25.302227
  20
266.47208
  0
VERTEX
  5
1b0
  8
Layer_31
  10
24.779028
  20
267.12375
  0
VERTEX
  5
1b1
  8
Layer_31
  10
24.230655
  20
267.80676
  0
VERTEX
  5
1b2
  8
Layer_31
  10
23.661615
  20
268.51549
  0
VERTEX
  5
1b3
  8
Layer_31
  10
22.479556
  20
269.98769
  0
VERTEX
  5
1b4
  8
Layer_31
  10
21.268893
  20
271.49546
  0
VERTEX
  5
1b5
  8
Layer_31
  10
20.065672
  20
272.99394
  0
VERTEX
  5
1b6
  8
Layer_31
  10
18.905937
  20
274.43823
  0
VERTEX
  5
1b7
  8
Layer_31
  10
18.353641
  20
275.12603
  0
VERTEX
  5
1b8
  8
Layer_31
  10
17.825732
  20
275.78346
  0
VERTEX
  5
1b9
  8
Layer_31
  10
17.326717
  20
276.4049
  0
VERTEX
  5
1ba
  8
Layer_31
  10
16.861101
  20
276.98474
  0
VERTEX
  5
1bb
  8
Layer_31
  10
16.43339
  20
277.51738
  0
VERTEX
  5
1bc
  8
Layer_31
  10
16.048089
  20
277.9972
  0
VERTEX
  5
1bd
  8
Layer_31
  10
15.709703
  20
278.41859
  0
VERTEX
  5
1be
  8
Layer_31
  10
15.422739
  20
278.77595
  0
VERTEX
  5
1bf
  8
Layer_31
  10
15.191702
  20
279.06366
  0
VERTEX
  5
1c0
  8
Layer_31
  10
15.021097
  20
279.27611
  0
VERTEX
  5
1c1
  8
Layer_31
  10
14.959865
  20
279.35236
  0
VERTEX
  5
1c2
  8
Layer_31
  10
14.91543
  20
279.4077
  0
VERTEX
  5
1c3
  8
Layer_31
  10
14.888356
  20
279.44141
  0
VERTEX
  5
1c4
  8
Layer_31
  10
14.879207
  20
279.45281
  42
0.23606988
  0
VERTEX
  5
1c5
  8
Layer_31
  10
14.535249
  20
279.61157
  0
VERTEX
  5
1c6
  8
Layer_31
  10
6.9681673
  20
279.61157
  42
0.26344643
  0
VERTEX
  5
1c7
  8
Layer_31
  10
6.5712924
  20
279.37344
  42
0.29253836
  0
VERTEX
  5
1c8
  8
Layer_31
  10
6.6242089
  20
278.92365
  0
VERTEX
  5
1c9
  8
Layer_31
  10
24.086708
  20
257.70404
  42
0.23606341
  0
VERTEX
  5
1ca
  8
Layer_31
  10
24.430668
  20
257.54532
  0
VERTEX
  5
1cb
  8
Layer_31
  10
31.786085
  20
257.54532
  42
0.19891237
  0
VERTEX
  5
1cc
  8
Layer_31
  10
32.130043
  20
257.70404
  0
VERTEX
  5
1cd
  8
Layer_31
  10
49.857128
  20
278.92365
  0
VERTEX
  5
1ce
  8
Layer_31
  10
49.921206
  20
279.03113
  0
VERTEX
  5
1cf
  8
Layer_31
  10
49.953038
  20
279.14853
  0
VERTEX
  5
1d0
  8
Layer_31
  10
49.950143
  20
279.26594
  0
VERTEX
  5
1d1
  8
Layer_31
  10
49.910042
  20
279.37343
  42
0.2840771
  0
VERTEX
  5
1d2
  8
Layer_31
  10
49.513168
  20
279.61154
  0
VERTEX
  5
1d3
  8
Layer_31
  10
41.972538
  20
279.61154
  0
SEQEND
  0
POLYLINE
  5
1d5
  8
Layer_31
  62
142
  70
1
  66
1
  10
0
  20
0
  30
0
  0
VERTEX
  5
1d5
  8
Layer_31
  10
53.931709
  20
279.63802
  0
VERTEX
  5
1d6
  8
Layer_31
  10
53.620772
  20
280.25741
  0
VERTEX
  5
1d7
  8
Layer_31
  10
53.34425
  20
280.92207
  0
VERTEX
  5
1d8
  8
Layer_31
  10
53.104316
  20
281.62766
  0
VERTEX
  5
1d9
  8
Layer_31
  10
52.90314
  20
282.36984
  0
VERTEX
  5
1da
  8
Layer_31
  10
52.742891
  20
283.14426
  0
VERTEX
  5
1db
  8
Layer_31
  10
52.62574
  20
283.94659
  0
VERTEX
  5
1dc
  8
Layer_31
  10
52.553858
  20
284.77248
  0
VERTEX
  5
1dd
  8
Layer_31
  10
52.529415
  20
285.6176
  0
VERTEX
  5
1de
  8
Layer_31
  10
52.557469
  20
286.51535
  0
VERTEX
  5
1df
  8
Layer_31
  10
52.639744
  20
287.38974
  0
VERTEX
  5
1e0
  8
Layer_31
  10
52.773412
  20
288.23599
  0
VERTEX
  5
1e1
  8
Layer_31
  10
52.955642
  20
289.04933
  0
VERTEX
  5
1e2
  8
Layer_31
  10
53.183606
  20
289.825
  0
VERTEX
  5
1e3
  8
Layer_31
  10
53.454475
  20
290.55823
  0
VERTEX
  5
1e4
  8
Layer_31
  10
53.765418
  20
291.24425
  0
VERTEX
  5
1e5
  8
Layer_31
  10
54.113608
  20
291.8783
  0
VERTEX
  5
1e6
  8
Layer_31
  10
54.496214
  20
292.45561
  0
VERTEX
  5
1e7
  8
Layer_31
  10
54.910407
  20
292.97141
  0
VERTEX
  5
1e8
  8
Layer_31
  10
55.353358
  20
293.42094
  0
VERTEX
  5
1e9
  8
Layer_31
  10
55.822238
  20
293.79943
  0
VERTEX
  5
1ea
  8
Layer_31
  10
56.314217
  20
294.1021
  0
VERTEX
  5
1eb
  8
Layer_31
  10
56.826467
  20
294.3242
  0
VERTEX
  5
1ec
  8
Layer_31
  10
57.356157
  20
294.46095
  0
VERTEX
  5
1ed
  8
Layer_31
  10
57.900459
  20
294.5076
  0
VERTEX
  5
1ee
  8
Layer_31
  10
76.553589
  20
294.5076
  0
VERTEX
  5
1ef
  8
Layer_31
  10
76.739477
  20
294.49204
  0
VERTEX
  5
1f0
  8
Layer_31
  10
76.919555
  20
294.44641
  0
VERTEX
  5
1f1
  8
Layer_31
  10
77.092968
  20
294.37226
  0
VERTEX
  5
1f2
  8
Layer_31
  10
77.258861
  20
294.27113
  0
VERTEX
  5
1f3
  8
Layer_31
  10
77.564682
  20
293.99414
  0
VERTEX
  5
1f4
  8
Layer_31
  10
77.830195
  20
293.62786
  0
VERTEX
  5
1f5
  8
Layer_31
  10
78.04858
  20
293.18468
  0
VERTEX
  5
1f6
  8
Layer_31
  10
78.213015
  20
292.67701
  0
VERTEX
  5
1f7
  8
Layer_31
  10
78.316679
  20
292.11725
  0
VERTEX
  5
1f8
  8
Layer_31
  10
78.352749
  20
291.51781
  0
VERTEX
  5
1f9
  8
Layer_31
  10
78.315593
  20
290.91836
  0
VERTEX
  5
1fa
  8
Layer_31
  10
78.209294
  20
290.3586
  0
VERTEX
  5
1fb
  8
Layer_31
  10
78.041604
  20
289.85093
  0
VERTEX
  5
1fc
  8
Layer_31
  10
77.820273
  20
289.40776
  0
VERTEX
  5
1fd
  8
Layer_31
  10
77.553055
  20
289.04147
  0
VERTEX
  5
1fe
  8
Layer_31
  10
77.247699
  20
288.76449
  0
VERTEX
  5
1ff
  8
Layer_31
  10
77.083143
  20
288.66336
  0
VERTEX
  5
200
  8
Layer_31
  10
76.911959
  20
288.5892
  0
VERTEX
  5
201
  8
Layer_31
  10
76.735117
  20
288.54357
  0
VERTEX
  5
202
  8
Layer_31
  10
76.553585
  20
288.52802
  0
VERTEX
  5
203
  8
Layer_31
  10
57.900459
  20
288.52802
  0
VERTEX
  5
204
  8
Layer_31
  10
57.71516
  20
288.51248
  0
VERTEX
  5
205
  8
Layer_31
  10
57.53676
  20
288.46699
  0
VERTEX
  5
206
  8
Layer_31
  10
57.365957
  20
288.3932
  0
VERTEX
  5
207
  8
Layer_31
  10
57.203447
  20
288.29278
  0
VERTEX
  5
208
  8
Layer_31
  10
56.9061
  20
288.01874
  0
VERTEX
  5
209
  8
Layer_31
  10
56.650301
  20
287.6582
  0
VERTEX
  5
20a
  8
Layer_31
  10
56.441631
  20
287.22448
  0
VERTEX
  5
20b
  8
Layer_31
  10
56.285671
  20
286.73092
  0
VERTEX
  5
20c
  8
Layer_31
  10
56.188002
  20
286.19085
  0
VERTEX
  5
20d
  8
Layer_31
  10
56.154205
  20
285.6176
  0
VERTEX
  5
20e
  8
Layer_31
  10
56.186916
  20
285.04626
  0
VERTEX
  5
20f
  8
Layer_31
  10
56.281949
  20
284.49477
  0
VERTEX
  5
210
  8
Layer_31
  10
56.434653
  20
283.98049
  0
VERTEX
  5
211
  8
Layer_31
  10
56.640378
  20
283.52078
  0
VERTEX
  5
212
  8
Layer_31
  10
56.894471
  20
283.133
  0
VERTEX
  5
213
  8
Layer_31
  10
57.192283
  20
282.83451
  0
VERTEX
  5
214
  8
Layer_31
  10
57.35613
  20
282.72419
  0
VERTEX
  5
215
  8
Layer_31
  10
57.529163
  20
282.64269
  0
VERTEX
  5
216
  8
Layer_31
  10
57.7108
  20
282.5922
  0
VERTEX
  5
217
  8
Layer_31
  10
57.900459
  20
282.57489
  0
VERTEX
  5
218
  8
Layer_31
  10
76.553589
  20
282.57489
  0
VERTEX
  5
219
  8
Layer_31
  10
76.739477
  20
282.55964
  0
VERTEX
  5
21a
  8
Layer_31
  10
76.919555
  20
282.5149
  0
VERTEX
  5
21b
  8
Layer_31
  10
77.092968
  20
282.44217
  0
VERTEX
  5
21c
  8
Layer_31
  10
77.258861
  20
282.34297
  0
VERTEX
  5
21d
  8
Layer_31
  10
77.564682
  20
282.0712
  0
VERTEX
  5
21e
  8
Layer_31
  10
77.830195
  20
281.71169
  0
VERTEX
  5
21f
  8
Layer_31
  10
78.04858
  20
281.27652
  0
VERTEX
  5
220
  8
Layer_31
  10
78.213015
  20
280.77779
  0
VERTEX
  5
221
  8
Layer_31
  10
78.316679
  20
280.22759
  0
VERTEX
  5
222
  8
Layer_31
  10
78.352749
  20
279.63802
  0
VERTEX
  5
223
  8
Layer_31
  10
78.315593
  20
279.04844
  0
VERTEX
  5
224
  8
Layer_31
  10
78.209294
  20
278.49824
  0
VERTEX
  5
225
  8
Layer_31
  10
78.041604
  20
277.99951
  0
VERTEX
  5
226
  8
Layer_31
  10
77.820273
  20
277.56435
  0
VERTEX
  5
227
  8
Layer_31
  10
77.553055
  20
277.20483
  0
VERTEX
  5
228
  8
Layer_31
  10
77.247699
  20
276.93307
  0
VERTEX
  5
229
  8
Layer_31
  10
77.083143
  20
276.83387
  0
VERTEX
  5
22a
  8
Layer_31
  10
76.911959
  20
276.76114
  0
VERTEX
  5
22b
  8
Layer_31
  10
76.735117
  20
276.71639
  0
VERTEX
  5
22c
  8
Layer_31
  10
76.553585
  20
276.70114
  0
VERTEX
  5
22d
  8
Layer_31
  10
57.900459
  20
276.70114
  0
VERTEX
  5
22e
  8
Layer_31
  10
57.70644
  20
276.68383
  0
VERTEX
  5
22f
  8
Layer_31
  10
57.521567
  20
276.63334
  0
VERTEX
  5
230
  8
Layer_31
  10
57.346306
  20
276.55185
  0
VERTEX
  5
231
  8
Layer_31
  10
57.181122
  20
276.44152
  0
VERTEX
  5
232
  8
Layer_31
  10
57.02648
  20
276.30453
  0
VERTEX
  5
233
  8
Layer_31
  10
56.882845
  20
276.14304
  0
VERTEX
  5
234
  8
Layer_31
  10
56.750682
  20
275.95922
  0
VERTEX
  5
235
  8
Layer_31
  10
56.630457
  20
275.75526
  0
VERTEX
  5
236
  8
Layer_31
  10
56.427678
  20
275.29554
  0
VERTEX
  5
237
  8
Layer_31
  10
56.278229
  20
274.78126
  0
VERTEX
  5
238
  8
Layer_31
  10
56.185831
  20
274.22977
  0
VERTEX
  5
239
  8
Layer_31
  10
56.154205
  20
273.65843
  0
VERTEX
  5
23a
  8
Layer_31
  10
56.189087
  20
273.09278
  0
VERTEX
  5
23b
  8
Layer_31
  10
56.289391
  20
272.55628
  0
VERTEX
  5
23c
  8
Layer_31
  10
56.448606
  20
272.06318
  0
VERTEX
  5
23d
  8
Layer_31
  10
56.660222
  20
271.62776
  0
VERTEX
  5
23e
  8
Layer_31
  10
56.917726
  20
271.26427
  0
VERTEX
  5
23f
  8
Layer_31
  10
57.214608
  20
270.98697
  0
VERTEX
  5
240
  8
Layer_31
  10
57.37578
  20
270.8851
  0
VERTEX
  5
241
  8
Layer_31
  10
57.544356
  20
270.81013
  0
VERTEX
  5
242
  8
Layer_31
  10
57.71952
  20
270.76384
  0
VERTEX
  5
243
  8
Layer_31
  10
57.900459
  20
270.74802
  0
VERTEX
  5
244
  8
Layer_31
  10
76.553589
  20
270.74802
  0
VERTEX
  5
245
  8
Layer_31
  10
76.739477
  20
270.73246
  0
VERTEX
  5
246
  8
Layer_31
  10
76.919555
  20
270.68683
  0
VERTEX
  5
247
  8
Layer_31
  10
77.092968
  20
270.61268
  0
VERTEX
  5
248
  8
Layer_31
  10
77.258861
  20
270.51155
  0
VERTEX
  5
249
  8
Layer_31
  10
77.564682
  20
270.23456
  0
VERTEX
  5
24a
  8
Layer_31
  10
77.830195
  20
269.86828
  0
VERTEX
  5
24b
  8
Layer_31
  10
78.04858
  20
269.4251
  0
VERTEX
  5
24c
  8
Layer_31
  10
78.213015
  20
268.91743
  0
VERTEX
  5
24d
  8
Layer_31
  10
78.316679
  20
268.35767
  0
VERTEX
  5
24e
  8
Layer_31
  10
78.352749
  20
267.75823
  0
VERTEX
  5
24f
  8
Layer_31
  10
78.315593
  20
267.15878
  0
VERTEX
  5
250
  8
Layer_31
  10
78.209294
  20
266.59902
  0
VERTEX
  5
251
  8
Layer_31
  10
78.041604
  20
266.09135
  0
VERTEX
  5
252
  8
Layer_31
  10
77.820273
  20
265.64817
  0
VERTEX
  5
253
  8
Layer_31
  10
77.553055
  20
265.28189
  0
VERTEX
  5
254
  8
Layer_31
  10
77.247699
  20
265.0049
  0
VERTEX
  5
255
  8
Layer_31
  10
77.083143
  20
264.90377
  0
VERTEX
  5
256
  8
Layer_31
  10
76.911959
  20
264.82962
  0
VERTEX
  5
257
  8
Layer_31
  10
76.735117
  20
264.78399
  0
VERTEX
  5
258
  8
Layer_31
  10
76.553585
  20
264.76843
  0
VERTEX
  5
259
  8
Layer_31
  10
57.900459
  20
264.76843
  0
VERTEX
  5
25a
  8
Layer_31
  10
57.356157
  20
264.81508
  0
VERTEX
  5
25b
  8
Layer_31
  10
56.826467
  20
264.95183
  0
VERTEX
  5
25c
  8
Layer_31
  10
56.314217
  20
265.17393
  0
VERTEX
  5
25d
  8
Layer_31
  10
55.822238
  20
265.47661
  0
VERTEX
  5
25e
  8
Layer_31
  10
55.353358
  20
265.85509
  0
VERTEX
  5
25f
  8
Layer_31
  10
54.910407
  20
266.30462
  0
VERTEX
  5
260
  8
Layer_31
  10
54.496214
  20
266.82042
  0
VERTEX
  5
261
  8
Layer_31
  10
54.113608
  20
267.39773
  0
VERTEX
  5
262
  8
Layer_31
  10
53.765418
  20
268.03178
  0
VERTEX
  5
263
  8
Layer_31
  10
53.454475
  20
268.7178
  0
VERTEX
  5
264
  8
Layer_31
  10
53.183606
  20
269.45103
  0
VERTEX
  5
265
  8
Layer_31
  10
52.955642
  20
270.2267
  0
VERTEX
  5
266
  8
Layer_31
  10
52.773412
  20
271.04005
  0
VERTEX
  5
267
  8
Layer_31
  10
52.639744
  20
271.88629
  0
VERTEX
  5
268
  8
Layer_31
  10
52.557469
  20
272.76068
  0
VERTEX
  5
269
  8
Layer_31
  10
52.529415
  20
273.65843
  0
VERTEX
  5
26a
  8
Layer_31
  10
52.553858
  20
274.49487
  0
VERTEX
  5
26b
  8
Layer_31
  10
52.62574
  20
275.31456
  0
VERTEX
  5
26c
  8
Layer_31
  10
52.742891
  20
276.11317
  0
VERTEX
  5
26d
  8
Layer_31
  10
52.90314
  20
276.88635
  0
VERTEX
  5
26e
  8
Layer_31
  10
53.104316
  20
277.62977
  0
VERTEX
  5
26f
  8
Layer_31
  10
53.34425
  20
278.33908
  0
VERTEX
  5
270
  8
Layer_31
  10
53.620772
  20
279.00994
  0
SEQEND
  0
POLYLINE
  5
272
  8
Layer_31
  62
142
  70
1
  66
1
  10
0
  20
0
  30
0
  0
VERTEX
  5
272
  8
Layer_31
  10
138.41316
  20
279.638
  0
VERTEX
  5
273
  8
Layer_31
  10
136.32295
  20
274.10822
  0
VERTEX
  5
274
  8
Layer_31
  10
139.73607
  20
274.10822
  0
VERTEX
  5
275
  8
Layer_31
  10
135.52921
  20
263.0751
  0
VERTEX
  5
276
  8
Layer_31
  10
132.11607
  20
263.0751
  0
VERTEX
  5
277
  8
Layer_31
  10
129.99942
  20
257.54532
  0
VERTEX
  5
278
  8
Layer_31
  10
143.67836
  20
257.54532
  0
VERTEX
  5
279
  8
Layer_31
  10
145.76857
  20
263.0751
  0
VERTEX
  5
27a
  8
Layer_31
  10
142.35544
  20
263.0751
  0
VERTEX
  5
27b
  8
Layer_31
  10
146.56233
  20
274.10822
  0
VERTEX
  5
27c
  8
Layer_31
  10
149.97545
  20
274.10822
  0
VERTEX
  5
27d
  8
Layer_31
  10
152.06566
  20
279.638
  0
SEQEND
  0
POLYLINE
  5
27f
  8
Layer_31
  62
142
  70
1
  66
1
  10
0
  20
0
  30
0
  0
VERTEX
  5
27f
  8
Layer_31
  10
175.4019
  20
279.638
  0
VERTEX
  5
280
  8
Layer_31
  10
161.379
  20
279.638
  42
0.31120545
  0
VERTEX
  5
281
  8
Layer_31
  10
153.36212
  20
274.10822
  0
VERTEX
  5
282
  8
Layer_31
  10
149.47275
  20
263.92175
  42
0.52485889
  0
VERTEX
  5
283
  8
Layer_31
  10
153.86482
  20
257.54532
  0
VERTEX
  5
284
  8
Layer_31
  10
168.46982
  20
257.54532
  42
0.14578828
  0
VERTEX
  5
285
  8
Layer_31
  10
173.1794
  20
258.9476
  0
VERTEX
  5
286
  8
Layer_31
  10
174.37003
  20
257.54532
  0
VERTEX
  5
287
  8
Layer_31
  10
177.78316
  20
257.54532
  0
VERTEX
  5
288
  8
Layer_31
  10
178.84149
  20
260.29697
  0
VERTEX
  5
289
  8
Layer_31
  10
176.48669
  20
263.04865
  0
VERTEX
  5
28a
  8
Layer_31
  10
180.16441
  20
272.70593
  0
VERTEX
  5
28b
  8
Layer_31
  10
180.35946
  20
273.33753
  0
VERTEX
  5
28c
  8
Layer_31
  10
180.47091
  20
273.96854
  0
VERTEX
  5
28d
  8
Layer_31
  10
180.50259
  20
274.59343
  0
VERTEX
  5
28e
  8
Layer_31
  10
180.45835
  20
275.20666
  0
VERTEX
  5
28f
  8
Layer_31
  10
180.34202
  20
275.80268
  0
VERTEX
  5
290
  8
Layer_31
  10
180.15743
  20
276.37594
  0
VERTEX
  5
291
  8
Layer_31
  10
179.90844
  20
276.92092
  0
VERTEX
  5
292
  8
Layer_31
  10
179.59886
  20
277.43205
  0
VERTEX
  5
293
  8
Layer_31
  10
179.23255
  20
277.90381
  0
VERTEX
  5
294
  8
Layer_31
  10
178.81333
  20
278.33065
  0
VERTEX
  5
295
  8
Layer_31
  10
178.34504
  20
278.70703
  0
VERTEX
  5
296
  8
Layer_31
  10
177.83153
  20
279.02741
  0
VERTEX
  5
297
  8
Layer_31
  10
177.27662
  20
279.28624
  0
VERTEX
  5
298
  8
Layer_31
  10
176.68416
  20
279.47797
  0
VERTEX
  5
299
  8
Layer_31
  10
176.05797
  20
279.59708
  0
VERTEX
  5
29a
  8
Layer_31
  10
175.40191
  20
279.63802
  0
SEQEND
  0
POLYLINE
  5
29c
  8
Layer_31
  62
142
  70
1
  66
1
  10
0
  20
0
  30
0
  0
VERTEX
  5
29c
  8
Layer_31
  10
169.39586
  20
271.35657
  0
VERTEX
  5
29d
  8
Layer_31
  10
167.30565
  20
265.82678
  0
VERTEX
  5
29e
  8
Layer_31
  10
169.0519
  20
263.763
  42
-0.14578908
  0
VERTEX
  5
29f
  8
Layer_31
  10
166.6971
  20
263.04865
  0
VERTEX
  5
2a0
  8
Layer_31
  10
158.94481
  20
263.04865
  42
-0.525048
  0
VERTEX
  5
2a1
  8
Layer_31
  10
157.03981
  20
265.80029
  0
VERTEX
  5
2a2
  8
Layer_31
  10
159.13002
  20
271.33011
  42
-0.31120331
  0
VERTEX
  5
2a3
  8
Layer_31
  10
163.12521
  20
274.08176
  0
VERTEX
  5
2a4
  8
Layer_31
  10
170.8775
  20
274.08176
  42
-0.52504479
  0
VERTEX
  5
2a5
  8
Layer_31
  10
172.78252
  20
271.33011
  0
VERTEX
  5
2a6
  8
Layer_31
  10
171.72418
  20
268.57843
  0
SEQEND
  0
POLYLINE
  5
2a8
  8
Layer_31
  62
142
  70
1
  66
1
  10
0
  20
0
  30
0
  0
VERTEX
  5
2a8
  8
Layer_31
  10
182.01649
  20
260.45572
  42
-0.12745508
  0
VERTEX
  5
2a9
  8
Layer_31
  10
182.73087
  20
260.27051
  42
-0.12694804
  0
VERTEX
  5
2aa
  8
Layer_31
  10
183.28648
  20
259.74136
  42
-0.12745991
  0
VERTEX
  5
2ab
  8
Layer_31
  10
183.47169
  20
259.00052
  42
-0.14056685
  0
VERTEX
  5
2ac
  8
Layer_31
  10
183.28648
  20
258.28613
  42
-0.15114263
  0
VERTEX
  5
2ad
  8
Layer_31
  10
182.75732
  20
257.75699
  42
-0.12745508
  0
VERTEX
  5
2ae
  8
Layer_31
  10
182.04294
  20
257.57178
  42
-0.14056974
  0
VERTEX
  5
2af
  8
Layer_31
  10
181.32857
  20
257.75699
  42
-0.12694804
  0
VERTEX
  5
2b0
  8
Layer_31
  10
180.79939
  20
258.28613
  42
-0.12745991
  0
VERTEX
  5
2b1
  8
Layer_31
  10
180.61418
  20
259.00052
  42
-0.12745819
  0
VERTEX
  5
2b2
  8
Layer_31
  10
180.79939
  20
259.74136
  42
-0.16277937
  0
VERTEX
  5
2b3
  8
Layer_31
  10
181.35501
  20
260.27051
  0
VERTEX
  5
2b4
  8
Layer_31
  10
181.50303
  20
260.35527
  0
VERTEX
  5
2b5
  8
Layer_31
  10
181.66592
  20
260.41273
  0
VERTEX
  5
2b6
  8
Layer_31
  10
181.83873
  20
260.44539
  0
VERTEX
  5
2b7
  8
Layer_31
  10
182.0165
  20
260.45573
  0
SEQEND
  0
POLYLINE
  5
2b9
  8
Layer_31
  62
142
  70
1
  66
1
  10
0
  20
0
  30
0
  0
VERTEX
  5
2b9
  8
Layer_31
  10
182.01649
  20
260.21759
  42
0.11644113
  0
VERTEX
  5
2ba
  8
Layer_31
  10
181.40796
  20
260.05884
  42
0.13391583
  0
VERTEX
  5
2bb
  8
Layer_31
  10
180.95816
  20
259.60907
  42
0.13052246
  0
VERTEX
  5
2bc
  8
Layer_31
  10
180.79941
  20
259.00052
  42
0.11642103
  0
VERTEX
  5
2bd
  8
Layer_31
  10
180.95816
  20
258.39197
  42
0.13391978
  0
VERTEX
  5
2be
  8
Layer_31
  10
181.40796
  20
257.94217
  42
0.13051626
  0
VERTEX
  5
2bf
  8
Layer_31
  10
182.01649
  20
257.78342
  42
0.1305202
  0
VERTEX
  5
2c0
  8
Layer_31
  10
182.62503
  20
257.94217
  42
0.13390397
  0
VERTEX
  5
2c1
  8
Layer_31
  10
183.07483
  20
258.39197
  42
0.13052246
  0
VERTEX
  5
2c2
  8
Layer_31
  10
183.23357
  20
259.00052
  42
0.13050667
  0
VERTEX
  5
2c3
  8
Layer_31
  10
183.07483
  20
259.60907
  42
0.13390002
  0
VERTEX
  5
2c4
  8
Layer_31
  10
182.62503
  20
260.05884
  42
0.11643382
  0
SEQEND
  0
POLYLINE
  5
2c6
  8
Layer_31
  62
142
  70
1
  66
1
  10
0
  20
0
  30
0
  0
VERTEX
  5
2c6
  8
Layer_31
  10
181.38148
  20
258.20676
  0
VERTEX
  5
2c7
  8
Layer_31
  10
181.38148
  20
259.76782
  0
VERTEX
  5
2c8
  8
Layer_31
  10
181.91064
  20
259.76782
  42
-0.080600688
  0
VERTEX
  5
2c9
  8
Layer_31
  10
182.30753
  20
259.7149
  42
-0.2360109
  0
VERTEX
  5
2ca
  8
Layer_31
  10
182.49274
  20
259.55615
  42
-0.14806874
  0
VERTEX
  5
2cb
  8
Layer_31
  10
182.57211
  20
259.31802
  42
-0.19891237
  0
VERTEX
  5
2cc
  8
Layer_31
  10
182.43982
  20
259.02698
  42
-0.19891237
  0
VERTEX
  5
2cd
  8
Layer_31
  10
182.12231
  20
258.89468
  42
-0.080597061
  0
VERTEX
  5
2ce
  8
Layer_31
  10
182.25461
  20
258.81531
  42
-0.04938621
  0
VERTEX
  5
2cf
  8
Layer_31
  10
182.49274
  20
258.4978
  0
VERTEX
  5
2d0
  8
Layer_31
  10
182.67795
  20
258.1803
  0
VERTEX
  5
2d1
  8
Layer_31
  10
182.36044
  20
258.1803
  0
VERTEX
  5
2d2
  8
Layer_31
  10
182.22815
  20
258.41843
  0
VERTEX
  5
2d3
  8
Layer_31
  10
182.15332
  20
258.547
  0
VERTEX
  5
2d4
  8
Layer_31
  10
182.08594
  20
258.65325
  0
VERTEX
  5
2d5
  8
Layer_31
  10
182.02352
  20
258.73469
  0
VERTEX
  5
2d6
  8
Layer_31
  10
181.96358
  20
258.78885
  42
0.11641921
  0
VERTEX
  5
2d7
  8
Layer_31
  10
181.75191
  20
258.84177
  0
VERTEX
  5
2d8
  8
Layer_31
  10
181.59317
  20
258.84177
  0
VERTEX
  5
2d9
  8
Layer_31
  10
181.59317
  20
258.1803
  0
VERTEX
  5
2da
  8
Layer_31
  10
181.38148
  20
258.1803
  0
SEQEND
  0
POLYLINE
  5
2dc
  8
Layer_31
  62
142
  70
1
  66
1
  10
0
  20
0
  30
0
  0
VERTEX
  5
2dc
  8
Layer_31
  10
181.64607
  20
259.0799
  0
VERTEX
  5
2dd
  8
Layer_31
  10
181.96358
  20
259.0799
  42
0.11644844
  0
VERTEX
  5
2de
  8
Layer_31
  10
182.25461
  20
259.13281
  42
0.19891237
  0
VERTEX
  5
2df
  8
Layer_31
  10
182.33398
  20
259.31802
  42
0.11643382
  0
VERTEX
  5
2e0
  8
Layer_31
  10
182.30753
  20
259.45032
  42
0.080597061
  0
VERTEX
  5
2e1
  8
Layer_31
  10
182.20169
  20
259.52969
  0
VERTEX
  5
2e2
  8
Layer_31
  10
182.09917
  20
259.55284
  0
VERTEX
  5
2e3
  8
Layer_31
  10
181.93711
  20
259.55614
  0
VERTEX
  5
2e4
  8
Layer_31
  10
181.64607
  20
259.55615
  0
SEQEND
  0
ENDSEC
  0
EOF
