  0
SECTION
  2
HEADER
  9
$ACADVER
  1
AC1009
  0
ENDSEC
  0
SECTION
  2
TABLES
  0
TABLE
  2
LAYER
  70
1
  0
LAYER
  2
Layer_31
  70
0
  62
142
  6
CONTINUOUS
  0
ENDTAB
  0
ENDSEC
  0
SECTION
  2
ENTITIES
  0
POLYLINE
  5
90
  8
Layer_31
  62
142
  70
1
  66
1
  10
0
  20
0
  30
0
  0
VERTEX
  5
90
  8
Layer_31
  10
38.410255
  20
290.03879
  42
0.19892876
  0
VERTEX
  5
91
  8
Layer_31
  10
38.338821
  20
290.01498
  0
VERTEX
  5
92
  8
Layer_31
  10
38.305982
  20
289.99213
  0
VERTEX
  5
93
  8
Layer_31
  10
38.213031
  20
289.92748
  0
VERTEX
  5
94
  8
Layer_31
  10
38.068315
  20
289.82682
  0
VERTEX
  5
95
  8
Layer_31
  10
37.880183
  20
289.69599
  0
VERTEX
  5
96
  8
Layer_31
  10
37.407065
  20
289.36701
  0
VERTEX
  5
97
  8
Layer_31
  10
36.860462
  20
288.98707
  0
VERTEX
  5
98
  8
Layer_31
  10
36.307163
  20
288.60266
  0
VERTEX
  5
99
  8
Layer_31
  10
35.813952
  20
288.26029
  0
VERTEX
  5
9a
  8
Layer_31
  10
35.610751
  20
288.11941
  0
VERTEX
  5
9b
  8
Layer_31
  10
35.447617
  20
288.00648
  0
VERTEX
  5
9c
  8
Layer_31
  10
35.332899
  20
287.92731
  0
VERTEX
  5
9d
  8
Layer_31
  10
35.274945
  20
287.88772
  0
VERTEX
  5
9e
  8
Layer_31
  10
35.216813
  20
287.92731
  0
VERTEX
  5
9f
  8
Layer_31
  10
35.101592
  20
288.00648
  0
VERTEX
  5
a0
  8
Layer_31
  10
34.937676
  20
288.11941
  0
VERTEX
  5
a1
  8
Layer_31
  10
34.73346
  20
288.26029
  0
VERTEX
  5
a2
  8
Layer_31
  10
34.237708
  20
288.60266
  0
VERTEX
  5
a3
  8
Layer_31
  10
33.681494
  20
288.98707
  0
VERTEX
  5
a4
  8
Layer_31
  10
33.131978
  20
289.36701
  0
VERTEX
  5
a5
  8
Layer_31
  10
32.656317
  20
289.69599
  0
VERTEX
  5
a6
  8
Layer_31
  10
32.46717
  20
289.82682
  0
VERTEX
  5
a7
  8
Layer_31
  10
32.321671
  20
289.92748
  0
VERTEX
  5
a8
  8
Layer_31
  10
32.228215
  20
289.99213
  0
VERTEX
  5
a9
  8
Layer_31
  10
32.195198
  20
290.01497
  42
0.14806661
  0
VERTEX
  5
aa
  8
Layer_31
  10
32.12376
  20
290.03879
  0
VERTEX
  5
ab
  8
Layer_31
  10
29.41707
  20
290.03879
  42
0.33485914
  0
VERTEX
  5
ac
  8
Layer_31
  10
29.290071
  20
289.94354
  0
VERTEX
  5
ad
  8
Layer_31
  10
29.286103
  20
289.92369
  0
VERTEX
  5
ae
  8
Layer_31
  10
29.282134
  20
289.90385
  42
0.23607863
  0
VERTEX
  5
af
  8
Layer_31
  10
29.337698
  20
289.80066
  0
VERTEX
  5
b0
  8
Layer_31
  10
29.349433
  20
289.79273
  0
VERTEX
  5
b1
  8
Layer_31
  10
29.383677
  20
289.76959
  0
VERTEX
  5
b2
  8
Layer_31
  10
29.438987
  20
289.73221
  0
VERTEX
  5
b3
  8
Layer_31
  10
29.513919
  20
289.68157
  0
VERTEX
  5
b4
  8
Layer_31
  10
29.716878
  20
289.54439
  0
VERTEX
  5
b5
  8
Layer_31
  10
29.981007
  20
289.36584
  0
VERTEX
  5
b6
  8
Layer_31
  10
30.294761
  20
289.15371
  0
VERTEX
  5
b7
  8
Layer_31
  10
30.646594
  20
288.91579
  0
VERTEX
  5
b8
  8
Layer_31
  10
31.02496
  20
288.65987
  0
VERTEX
  5
b9
  8
Layer_31
  10
31.418314
  20
288.39374
  0
VERTEX
  5
ba
  8
Layer_31
  10
32.203801
  20
287.86202
  0
VERTEX
  5
bb
  8
Layer_31
  10
32.910689
  20
287.38295
  0
VERTEX
  5
bc
  8
Layer_31
  10
33.205793
  20
287.18263
  0
VERTEX
  5
bd
  8
Layer_31
  10
33.44661
  20
287.01885
  0
VERTEX
  5
be
  8
Layer_31
  10
33.621594
  20
286.89939
  0
VERTEX
  5
bf
  8
Layer_31
  10
33.719199
  20
286.83204
  0
VERTEX
  5
c0
  8
Layer_31
  10
33.679022
  20
286.80545
  0
VERTEX
  5
c1
  8
Layer_31
  10
33.616096
  20
286.76359
  0
VERTEX
  5
c2
  8
Layer_31
  10
33.531998
  20
286.70752
  0
VERTEX
  5
c3
  8
Layer_31
  10
33.428302
  20
286.6383
  0
VERTEX
  5
c4
  8
Layer_31
  10
33.168418
  20
286.46461
  0
VERTEX
  5
c5
  8
Layer_31
  10
32.84905
  20
286.25099
  0
VERTEX
  5
c6
  8
Layer_31
  10
32.482801
  20
286.00588
  0
VERTEX
  5
c7
  8
Layer_31
  10
32.082275
  20
285.73773
  0
VERTEX
  5
c8
  8
Layer_31
  10
31.660076
  20
285.45501
  0
VERTEX
  5
c9
  8
Layer_31
  10
31.228808
  20
285.16615
  0
VERTEX
  5
ca
  8
Layer_31
  10
30.801074
  20
284.87963
  0
VERTEX
  5
cb
  8
Layer_31
  10
30.389479
  20
284.60388
  0
VERTEX
  5
cc
  8
Layer_31
  10
30.006627
  20
284.34736
  0
VERTEX
  5
cd
  8
Layer_31
  10
29.66512
  20
284.11853
  0
VERTEX
  5
ce
  8
Layer_31
  10
29.377564
  20
283.92583
  0
VERTEX
  5
cf
  8
Layer_31
  10
29.156562
  20
283.77773
  0
VERTEX
  5
d0
  8
Layer_31
  10
29.074958
  20
283.72304
  0
VERTEX
  5
d1
  8
Layer_31
  10
29.014718
  20
283.68267
  0
VERTEX
  5
d2
  8
Layer_31
  10
28.977419
  20
283.65767
  0
VERTEX
  5
d3
  8
Layer_31
  10
28.964636
  20
283.6491
  42
0.26344714
  0
VERTEX
  5
d4
  8
Layer_31
  10
28.909073
  20
283.53796
  42
0.11644113
  0
VERTEX
  5
d5
  8
Layer_31
  10
28.917009
  20
283.49829
  42
0.33485876
  0
VERTEX
  5
d6
  8
Layer_31
  10
29.04401
  20
283.40305
  0
VERTEX
  5
d7
  8
Layer_31
  10
31.806259
  20
283.40305
  42
0.19892174
  0
VERTEX
  5
d8
  8
Layer_31
  10
31.877697
  20
283.42685
  0
VERTEX
  5
d9
  8
Layer_31
  10
31.914192
  20
283.4521
  0
VERTEX
  5
da
  8
Layer_31
  10
32.017472
  20
283.52357
  0
VERTEX
  5
db
  8
Layer_31
  10
32.178237
  20
283.63483
  0
VERTEX
  5
dc
  8
Layer_31
  10
32.387186
  20
283.77945
  0
VERTEX
  5
dd
  8
Layer_31
  10
32.912425
  20
284.14304
  0
VERTEX
  5
de
  8
Layer_31
  10
33.518776
  20
284.56291
  0
VERTEX
  5
df
  8
Layer_31
  10
34.131823
  20
284.98761
  0
VERTEX
  5
e0
  8
Layer_31
  10
34.677154
  20
285.36571
  0
VERTEX
  5
e1
  8
Layer_31
  10
34.901172
  20
285.52121
  0
VERTEX
  5
e2
  8
Layer_31
  10
35.080355
  20
285.64577
  0
VERTEX
  5
e3
  8
Layer_31
  10
35.205401
  20
285.73296
  0
VERTEX
  5
e4
  8
Layer_31
  10
35.26701
  20
285.77635
  0
VERTEX
  5
e5
  8
Layer_31
  10
35.328262
  20
285.73427
  0
VERTEX
  5
e6
  8
Layer_31
  10
35.452301
  20
285.64805
  0
VERTEX
  5
e7
  8
Layer_31
  10
35.629918
  20
285.52416
  0
VERTEX
  5
e8
  8
Layer_31
  10
35.851904
  20
285.36906
  0
VERTEX
  5
e9
  8
Layer_31
  10
36.39215
  20
284.9911
  0
VERTEX
  5
ea
  8
Layer_31
  10
36.999369
  20
284.56588
  0
VERTEX
  5
eb
  8
Layer_31
  10
37.59989
  20
284.14513
  0
VERTEX
  5
ec
  8
Layer_31
  10
38.120044
  20
283.78057
  0
VERTEX
  5
ed
  8
Layer_31
  10
38.326962
  20
283.63551
  0
VERTEX
  5
ee
  8
Layer_31
  10
38.486161
  20
283.5239
  0
VERTEX
  5
ef
  8
Layer_31
  10
38.588434
  20
283.45219
  0
VERTEX
  5
f0
  8
Layer_31
  10
38.624571
  20
283.42685
  42
0.14806024
  0
VERTEX
  5
f1
  8
Layer_31
  10
38.696007
  20
283.40305
  0
VERTEX
  5
f2
  8
Layer_31
  10
41.410637
  20
283.40305
  42
0.33485876
  0
VERTEX
  5
f3
  8
Layer_31
  10
41.537636
  20
283.49829
  42
0.11644113
  0
VERTEX
  5
f4
  8
Layer_31
  10
41.54557
  20
283.53796
  42
0.23607711
  0
VERTEX
  5
f5
  8
Layer_31
  10
41.490013
  20
283.64117
  0
VERTEX
  5
f6
  8
Layer_31
  10
41.477295
  20
283.64973
  0
VERTEX
  5
f7
  8
Layer_31
  10
41.440197
  20
283.67473
  0
VERTEX
  5
f8
  8
Layer_31
  10
41.380283
  20
283.7151
  0
VERTEX
  5
f9
  8
Layer_31
  10
41.299122
  20
283.76979
  0
VERTEX
  5
fa
  8
Layer_31
  10
41.079331
  20
283.9179
  0
VERTEX
  5
fb
  8
Layer_31
  10
40.79337
  20
284.11059
  0
VERTEX
  5
fc
  8
Layer_31
  10
40.453784
  20
284.33942
  0
VERTEX
  5
fd
  8
Layer_31
  10
40.073119
  20
284.59594
  0
VERTEX
  5
fe
  8
Layer_31
  10
39.663922
  20
284.87169
  0
VERTEX
  5
ff
  8
Layer_31
  10
39.238736
  20
285.15822
  0
VERTEX
  5
100
  8
Layer_31
  10
38.810109
  20
285.44707
  0
VERTEX
  5
101
  8
Layer_31
  10
38.390587
  20
285.7298
  0
VERTEX
  5
102
  8
Layer_31
  10
37.992714
  20
285.99794
  0
VERTEX
  5
103
  8
Layer_31
  10
37.629036
  20
286.24305
  0
VERTEX
  5
104
  8
Layer_31
  10
37.3121
  20
286.45668
  0
VERTEX
  5
105
  8
Layer_31
  10
37.054451
  20
286.63036
  0
VERTEX
  5
106
  8
Layer_31
  10
36.95178
  20
286.69958
  0
VERTEX
  5
107
  8
Layer_31
  10
36.868635
  20
286.75565
  0
VERTEX
  5
108
  8
Layer_31
  10
36.806585
  20
286.79751
  0
VERTEX
  5
109
  8
Layer_31
  10
36.767197
  20
286.8241
  0
VERTEX
  5
10a
  8
Layer_31
  10
36.86498
  20
286.89014
  0
VERTEX
  5
10b
  8
Layer_31
  10
37.040468
  20
287.00863
  0
VERTEX
  5
10c
  8
Layer_31
  10
37.282067
  20
287.17175
  0
VERTEX
  5
10d
  8
Layer_31
  10
37.578187
  20
287.37166
  0
VERTEX
  5
10e
  8
Layer_31
  10
38.287616
  20
287.8506
  0
VERTEX
  5
10f
  8
Layer_31
  10
39.076017
  20
288.38283
  0
VERTEX
  5
110
  8
Layer_31
  10
39.470852
  20
288.64937
  0
VERTEX
  5
111
  8
Layer_31
  10
39.850652
  20
288.90576
  0
VERTEX
  5
112
  8
Layer_31
  10
40.203826
  20
289.14417
  0
VERTEX
  5
113
  8
Layer_31
  10
40.518782
  20
289.35678
  0
VERTEX
  5
114
  8
Layer_31
  10
40.783926
  20
289.53577
  0
VERTEX
  5
115
  8
Layer_31
  10
40.987668
  20
289.67331
  0
VERTEX
  5
116
  8
Layer_31
  10
41.06289
  20
289.72409
  0
VERTEX
  5
117
  8
Layer_31
  10
41.118414
  20
289.76157
  0
VERTEX
  5
118
  8
Layer_31
  10
41.152791
  20
289.78477
  0
VERTEX
  5
119
  8
Layer_31
  10
41.164572
  20
289.79273
  42
0.26344856
  0
VERTEX
  5
11a
  8
Layer_31
  10
41.220139
  20
289.90384
  42
0.11643382
  0
VERTEX
  5
11b
  8
Layer_31
  10
41.212196
  20
289.94354
  42
0.33485914
  0
VERTEX
  5
11c
  8
Layer_31
  10
41.085197
  20
290.03879
  0
VERTEX
  5
11d
  8
Layer_31
  10
38.410255
  20
290.03879
  0
SEQEND
  0
POLYLINE
  5
11f
  8
Layer_31
  62
142
  70
1
  66
1
  10
0
  20
0
  30
0
  0
VERTEX
  5
11f
  8
Layer_31
  10
17.16157
  20
290.03879
  42
0.23606569
  0
VERTEX
  5
120
  8
Layer_31
  10
17.058382
  20
289.99115
  0
VERTEX
  5
121
  8
Layer_31
  10
17.04731
  20
289.97763
  0
VERTEX
  5
122
  8
Layer_31
  10
17.015013
  20
289.93815
  0
VERTEX
  5
123
  8
Layer_31
  10
16.962868
  20
289.87442
  0
VERTEX
  5
124
  8
Layer_31
  10
16.892253
  20
289.7881
  0
VERTEX
  5
125
  8
Layer_31
  10
16.701125
  20
289.55448
  0
VERTEX
  5
126
  8
Layer_31
  10
16.452652
  20
289.25074
  0
VERTEX
  5
127
  8
Layer_31
  10
16.157856
  20
288.89036
  0
VERTEX
  5
128
  8
Layer_31
  10
15.82776
  20
288.48679
  0
VERTEX
  5
129
  8
Layer_31
  10
15.473386
  20
288.0535
  0
VERTEX
  5
12a
  8
Layer_31
  10
15.105757
  20
287.60396
  0
VERTEX
  5
12b
  8
Layer_31
  10
14.735896
  20
287.15163
  0
VERTEX
  5
12c
  8
Layer_31
  10
14.374825
  20
286.70997
  0
VERTEX
  5
12d
  8
Layer_31
  10
14.033567
  20
286.29245
  0
VERTEX
  5
12e
  8
Layer_31
  10
13.723144
  20
285.91253
  0
VERTEX
  5
12f
  8
Layer_31
  10
13.454579
  20
285.58367
  0
VERTEX
  5
130
  8
Layer_31
  10
13.238895
  20
285.31935
  0
VERTEX
  5
131
  8
Layer_31
  10
13.154327
  20
285.2156
  0
VERTEX
  5
132
  8
Layer_31
  10
13.087113
  20
285.13303
  0
VERTEX
  5
133
  8
Layer_31
  10
13.038631
  20
285.07332
  0
VERTEX
  5
134
  8
Layer_31
  10
13.010258
  20
285.03816
  0
VERTEX
  5
135
  8
Layer_31
  10
12.982089
  20
285.07332
  0
VERTEX
  5
136
  8
Layer_31
  10
12.934204
  20
285.13303
  0
VERTEX
  5
137
  8
Layer_31
  10
12.867954
  20
285.2156
  0
VERTEX
  5
138
  8
Layer_31
  10
12.78469
  20
285.31935
  0
VERTEX
  5
139
  8
Layer_31
  10
12.572528
  20
285.58367
  0
VERTEX
  5
13a
  8
Layer_31
  10
12.308533
  20
285.91253
  0
VERTEX
  5
13b
  8
Layer_31
  10
12.003517
  20
286.29245
  0
VERTEX
  5
13c
  8
Layer_31
  10
11.668293
  20
286.70997
  0
VERTEX
  5
13d
  8
Layer_31
  10
11.313675
  20
287.15163
  0
VERTEX
  5
13e
  8
Layer_31
  10
10.950476
  20
287.60396
  0
VERTEX
  5
13f
  8
Layer_31
  10
10.58951
  20
288.0535
  0
VERTEX
  5
140
  8
Layer_31
  10
10.241589
  20
288.48679
  0
VERTEX
  5
141
  8
Layer_31
  10
9.9175279
  20
288.89036
  0
VERTEX
  5
142
  8
Layer_31
  10
9.6281386
  20
289.25074
  0
VERTEX
  5
143
  8
Layer_31
  10
9.3842349
  20
289.55448
  0
VERTEX
  5
144
  8
Layer_31
  10
9.1966301
  20
289.7881
  0
VERTEX
  5
145
  8
Layer_31
  10
9.1273189
  20
289.87442
  0
VERTEX
  5
146
  8
Layer_31
  10
9.0761375
  20
289.93815
  0
VERTEX
  5
147
  8
Layer_31
  10
9.0444374
  20
289.97763
  0
VERTEX
  5
148
  8
Layer_31
  10
9.0335703
  20
289.99116
  42
0.23606988
  0
VERTEX
  5
149
  8
Layer_31
  10
8.9303827
  20
290.03879
  0
VERTEX
  5
14a
  8
Layer_31
  10
6.6602583
  20
290.03879
  42
0.26344643
  0
VERTEX
  5
14b
  8
Layer_31
  10
6.5411959
  20
289.96735
  42
0.29253836
  0
VERTEX
  5
14c
  8
Layer_31
  10
6.5570707
  20
289.8324
  0
VERTEX
  5
14d
  8
Layer_31
  10
11.79582
  20
283.46652
  42
0.23606341
  0
VERTEX
  5
14e
  8
Layer_31
  10
11.899009
  20
283.41891
  0
VERTEX
  5
14f
  8
Layer_31
  10
14.105635
  20
283.41891
  42
0.19891237
  0
VERTEX
  5
150
  8
Layer_31
  10
14.208822
  20
283.46652
  0
VERTEX
  5
151
  8
Layer_31
  10
19.526947
  20
289.8324
  42
0.31349374
  0
VERTEX
  5
152
  8
Layer_31
  10
19.54282
  20
289.96735
  42
0.2840771
  0
VERTEX
  5
153
  8
Layer_31
  10
19.423759
  20
290.03879
  0
VERTEX
  5
154
  8
Layer_31
  10
17.16157
  20
290.03879
  0
SEQEND
  0
POLYLINE
  5
156
  8
Layer_31
  62
142
  70
1
  66
1
  10
0
  20
0
  30
0
  0
VERTEX
  5
156
  8
Layer_31
  10
20.749322
  20
290.04672
  0
VERTEX
  5
157
  8
Layer_31
  10
20.573084
  20
290.43194
  0
VERTEX
  5
158
  8
Layer_31
  10
20.440751
  20
290.86627
  0
VERTEX
  5
159
  8
Layer_31
  10
20.357531
  20
291.3393
  0
VERTEX
  5
15a
  8
Layer_31
  10
20.328633
  20
291.8406
  0
VERTEX
  5
15b
  8
Layer_31
  10
20.361732
  20
292.37224
  0
VERTEX
  5
15c
  8
Layer_31
  10
20.456501
  20
292.87012
  0
VERTEX
  5
15d
  8
Layer_31
  10
20.606151
  20
293.32279
  0
VERTEX
  5
15e
  8
Layer_31
  10
20.803891
  20
293.71881
  0
VERTEX
  5
15f
  8
Layer_31
  10
21.042931
  20
294.04674
  0
VERTEX
  5
160
  8
Layer_31
  10
21.31648
  20
294.29515
  0
VERTEX
  5
161
  8
Layer_31
  10
21.464074
  20
294.38595
  0
VERTEX
  5
162
  8
Layer_31
  10
21.617749
  20
294.45258
  0
VERTEX
  5
163
  8
Layer_31
  10
21.776656
  20
294.49361
  0
VERTEX
  5
164
  8
Layer_31
  10
21.939947
  20
294.5076
  0
VERTEX
  5
165
  8
Layer_31
  10
27.535885
  20
294.5076
  0
VERTEX
  5
166
  8
Layer_31
  10
27.645676
  20
294.48924
  0
VERTEX
  5
167
  8
Layer_31
  10
27.747467
  20
294.43666
  0
VERTEX
  5
168
  8
Layer_31
  10
27.839214
  20
294.35356
  0
VERTEX
  5
169
  8
Layer_31
  10
27.918868
  20
294.24368
  0
VERTEX
  5
16a
  8
Layer_31
  10
28.033714
  20
293.95842
  0
VERTEX
  5
16b
  8
Layer_31
  10
28.075634
  20
293.61066
  0
VERTEX
  5
16c
  8
Layer_31
  10
28.032597
  20
293.2629
  0
VERTEX
  5
16d
  8
Layer_31
  10
27.915891
  20
292.97765
  0
VERTEX
  5
16e
  8
Layer_31
  10
27.835725
  20
292.86776
  0
VERTEX
  5
16f
  8
Layer_31
  10
27.744119
  20
292.78467
  0
VERTEX
  5
170
  8
Layer_31
  10
27.643397
  20
292.73208
  0
VERTEX
  5
171
  8
Layer_31
  10
27.535885
  20
292.71372
  0
VERTEX
  5
172
  8
Layer_31
  10
21.939945
  20
292.71371
  0
VERTEX
  5
173
  8
Layer_31
  10
21.830837
  20
292.69541
  0
VERTEX
  5
174
  8
Layer_31
  10
21.730843
  20
292.64315
  0
VERTEX
  5
175
  8
Layer_31
  10
21.641639
  20
292.56094
  0
VERTEX
  5
176
  8
Layer_31
  10
21.564899
  20
292.45278
  0
VERTEX
  5
177
  8
Layer_31
  10
21.45551
  20
292.17459
  0
VERTEX
  5
178
  8
Layer_31
  10
21.41607
  20
291.8406
  0
VERTEX
  5
179
  8
Layer_31
  10
21.454394
  20
291.50375
  0
VERTEX
  5
17a
  8
Layer_31
  10
21.561922
  20
291.21155
  0
VERTEX
  5
17b
  8
Layer_31
  10
21.63815
  20
291.09522
  0
VERTEX
  5
17c
  8
Layer_31
  10
21.727494
  20
291.00567
  0
VERTEX
  5
17d
  8
Layer_31
  10
21.828558
  20
290.94813
  0
VERTEX
  5
17e
  8
Layer_31
  10
21.939947
  20
290.92779
  0
VERTEX
  5
17f
  8
Layer_31
  10
27.535885
  20
290.9278
  0
VERTEX
  5
180
  8
Layer_31
  10
27.645676
  20
290.90979
  0
VERTEX
  5
181
  8
Layer_31
  10
27.747467
  20
290.85821
  0
VERTEX
  5
182
  8
Layer_31
  10
27.839214
  20
290.77668
  0
VERTEX
  5
183
  8
Layer_31
  10
27.918868
  20
290.66883
  0
VERTEX
  5
184
  8
Layer_31
  10
28.033714
  20
290.38866
  0
VERTEX
  5
185
  8
Layer_31
  10
28.075634
  20
290.04672
  0
VERTEX
  5
186
  8
Layer_31
  10
28.032597
  20
289.70479
  0
VERTEX
  5
187
  8
Layer_31
  10
27.915891
  20
289.42462
  0
VERTEX
  5
188
  8
Layer_31
  10
27.835725
  20
289.31677
  0
VERTEX
  5
189
  8
Layer_31
  10
27.744119
  20
289.23524
  0
VERTEX
  5
18a
  8
Layer_31
  10
27.643397
  20
289.18366
  0
VERTEX
  5
18b
  8
Layer_31
  10
27.535885
  20
289.16566
  0
VERTEX
  5
18c
  8
Layer_31
  10
21.939945
  20
289.16565
  0
VERTEX
  5
18d
  8
Layer_31
  10
21.826279
  20
289.14532
  0
VERTEX
  5
18e
  8
Layer_31
  10
21.724145
  20
289.08778
  0
VERTEX
  5
18f
  8
Layer_31
  10
21.634662
  20
288.99823
  0
VERTEX
  5
190
  8
Layer_31
  10
21.558946
  20
288.8819
  0
VERTEX
  5
191
  8
Layer_31
  10
21.453278
  20
288.5897
  0
VERTEX
  5
192
  8
Layer_31
  10
21.41607
  20
288.25285
  0
VERTEX
  5
193
  8
Layer_31
  10
21.456626
  20
287.9222
  0
VERTEX
  5
194
  8
Layer_31
  10
21.567875
  20
287.64365
  0
VERTEX
  5
195
  8
Layer_31
  10
21.645127
  20
287.5346
  0
VERTEX
  5
196
  8
Layer_31
  10
21.734191
  20
287.45141
  0
VERTEX
  5
197
  8
Layer_31
  10
21.833116
  20
287.39836
  0
VERTEX
  5
198
  8
Layer_31
  10
21.939947
  20
287.37972
  0
VERTEX
  5
199
  8
Layer_31
  10
27.535885
  20
287.37973
  0
VERTEX
  5
19a
  8
Layer_31
  10
27.645676
  20
287.36137
  0
VERTEX
  5
19b
  8
Layer_31
  10
27.747467
  20
287.30878
  0
VERTEX
  5
19c
  8
Layer_31
  10
27.839214
  20
287.22569
  0
VERTEX
  5
19d
  8
Layer_31
  10
27.918868
  20
287.1158
  0
VERTEX
  5
19e
  8
Layer_31
  10
28.033714
  20
286.83055
  0
VERTEX
  5
19f
  8
Layer_31
  10
28.075634
  20
286.48279
  0
VERTEX
  5
1a0
  8
Layer_31
  10
28.032597
  20
286.13502
  0
VERTEX
  5
1a1
  8
Layer_31
  10
27.915891
  20
285.84977
  0
VERTEX
  5
1a2
  8
Layer_31
  10
27.835725
  20
285.73989
  0
VERTEX
  5
1a3
  8
Layer_31
  10
27.744119
  20
285.65679
  0
VERTEX
  5
1a4
  8
Layer_31
  10
27.643397
  20
285.6042
  0
VERTEX
  5
1a5
  8
Layer_31
  10
27.535885
  20
285.58585
  0
VERTEX
  5
1a6
  8
Layer_31
  10
21.939945
  20
285.58585
  0
VERTEX
  5
1a7
  8
Layer_31
  10
21.776656
  20
285.59984
  0
VERTEX
  5
1a8
  8
Layer_31
  10
21.617749
  20
285.64087
  0
VERTEX
  5
1a9
  8
Layer_31
  10
21.464074
  20
285.7075
  0
VERTEX
  5
1aa
  8
Layer_31
  10
21.31648
  20
285.7983
  0
VERTEX
  5
1ab
  8
Layer_31
  10
21.042931
  20
286.0467
  0
VERTEX
  5
1ac
  8
Layer_31
  10
20.803891
  20
286.37464
  0
VERTEX
  5
1ad
  8
Layer_31
  10
20.606151
  20
286.77066
  0
VERTEX
  5
1ae
  8
Layer_31
  10
20.456501
  20
287.22333
  0
VERTEX
  5
1af
  8
Layer_31
  10
20.361732
  20
287.72121
  0
VERTEX
  5
1b0
  8
Layer_31
  10
20.328633
  20
288.25285
  0
VERTEX
  5
1b1
  8
Layer_31
  10
20.357531
  20
288.74969
  0
VERTEX
  5
1b2
  8
Layer_31
  10
20.440751
  20
289.22122
  0
VERTEX
  5
1b3
  8
Layer_31
  10
20.573084
  20
289.65704
  0
SEQEND
  0
POLYLINE
  5
1b5
  8
Layer_31
  62
142
  70
1
  66
1
  10
0
  20
0
  30
0
  0
VERTEX
  5
1b5
  8
Layer_31
  10
46.093758
  20
290.04672
  0
VERTEX
  5
1b6
  8
Layer_31
  10
45.466698
  20
288.38779
  0
VERTEX
  5
1b7
  8
Layer_31
  10
46.490631
  20
288.38779
  0
VERTEX
  5
1b8
  8
Layer_31
  10
45.228569
  20
285.07785
  0
VERTEX
  5
1b9
  8
Layer_31
  10
44.204636
  20
285.07785
  0
VERTEX
  5
1ba
  8
Layer_31
  10
43.569633
  20
283.41891
  0
VERTEX
  5
1bb
  8
Layer_31
  10
47.673317
  20
283.41891
  0
VERTEX
  5
1bc
  8
Layer_31
  10
48.300385
  20
285.07785
  0
VERTEX
  5
1bd
  8
Layer_31
  10
47.276443
  20
285.07785
  0
VERTEX
  5
1be
  8
Layer_31
  10
48.538513
  20
288.38779
  0
VERTEX
  5
1bf
  8
Layer_31
  10
49.562447
  20
288.38779
  0
VERTEX
  5
1c0
  8
Layer_31
  10
50.189507
  20
290.04672
  0
SEQEND
  0
POLYLINE
  5
1c2
  8
Layer_31
  62
142
  70
1
  66
1
  10
0
  20
0
  30
0
  0
VERTEX
  5
1c2
  8
Layer_31
  10
57.190384
  20
290.04672
  0
VERTEX
  5
1c3
  8
Layer_31
  10
52.983513
  20
290.04672
  42
0.31120545
  0
VERTEX
  5
1c4
  8
Layer_31
  10
50.578445
  20
288.38779
  0
VERTEX
  5
1c5
  8
Layer_31
  10
49.411636
  20
285.33185
  42
0.52485889
  0
VERTEX
  5
1c6
  8
Layer_31
  10
50.729256
  20
283.41891
  0
VERTEX
  5
1c7
  8
Layer_31
  10
55.110756
  20
283.41891
  42
0.14578828
  0
VERTEX
  5
1c8
  8
Layer_31
  10
56.523628
  20
283.8396
  0
VERTEX
  5
1c9
  8
Layer_31
  10
56.880821
  20
283.41891
  0
VERTEX
  5
1ca
  8
Layer_31
  10
57.904762
  20
283.41891
  0
VERTEX
  5
1cb
  8
Layer_31
  10
58.22226
  20
284.24442
  0
VERTEX
  5
1cc
  8
Layer_31
  10
57.515823
  20
285.06992
  0
VERTEX
  5
1cd
  8
Layer_31
  10
58.619133
  20
287.9671
  42
0.52447778
  0
SEQEND
  0
POLYLINE
  5
1cf
  8
Layer_31
  62
142
  70
1
  66
1
  10
0
  20
0
  30
0
  0
VERTEX
  5
1cf
  8
Layer_31
  10
55.388573
  20
287.56229
  0
VERTEX
  5
1d0
  8
Layer_31
  10
54.761505
  20
285.90335
  0
VERTEX
  5
1d1
  8
Layer_31
  10
55.285378
  20
285.28421
  42
-0.14578908
  0
VERTEX
  5
1d2
  8
Layer_31
  10
54.578941
  20
285.06992
  0
VERTEX
  5
1d3
  8
Layer_31
  10
52.25325
  20
285.06992
  42
-0.525048
  0
VERTEX
  5
1d4
  8
Layer_31
  10
51.681755
  20
285.89542
  0
VERTEX
  5
1d5
  8
Layer_31
  10
52.308815
  20
287.55435
  42
-0.31120331
  0
VERTEX
  5
1d6
  8
Layer_31
  10
53.507378
  20
288.37985
  0
VERTEX
  5
1d7
  8
Layer_31
  10
55.833061
  20
288.37985
  42
-0.52504479
  0
VERTEX
  5
1d8
  8
Layer_31
  10
56.404564
  20
287.55435
  0
VERTEX
  5
1d9
  8
Layer_31
  10
56.087067
  20
286.72885
  0
SEQEND
  0
POLYLINE
  5
1db
  8
Layer_31
  62
142
  70
1
  66
1
  10
0
  20
0
  30
0
  0
VERTEX
  5
1db
  8
Layer_31
  10
59.174759
  20
284.29202
  42
-0.12745508
  0
VERTEX
  5
1dc
  8
Layer_31
  10
59.389069
  20
284.23648
  42
-0.12694804
  0
VERTEX
  5
1dd
  8
Layer_31
  10
59.555756
  20
284.07773
  42
-0.12745991
  0
VERTEX
  5
1de
  8
Layer_31
  10
59.61132
  20
283.85547
  42
-0.14056685
  0
VERTEX
  5
1df
  8
Layer_31
  10
59.555756
  20
283.64117
  42
-0.15114263
  0
VERTEX
  5
1e0
  8
Layer_31
  10
59.397011
  20
283.48242
  42
-0.12745508
  0
VERTEX
  5
1e1
  8
Layer_31
  10
59.182693
  20
283.42685
  42
-0.14056974
  0
VERTEX
  5
1e2
  8
Layer_31
  10
58.968384
  20
283.48242
  42
-0.12694804
  0
VERTEX
  5
1e3
  8
Layer_31
  10
58.809631
  20
283.64117
  42
-0.12745991
  0
VERTEX
  5
1e4
  8
Layer_31
  10
58.754066
  20
283.85547
  42
-0.12745819
  0
VERTEX
  5
1e5
  8
Layer_31
  10
58.809631
  20
284.07773
  42
-0.16277937
  0
VERTEX
  5
1e6
  8
Layer_31
  10
58.976318
  20
284.23648
  42
-0.15630376
  0
SEQEND
  0
POLYLINE
  5
1e8
  8
Layer_31
  62
142
  70
1
  66
1
  10
0
  20
0
  30
0
  0
VERTEX
  5
1e8
  8
Layer_31
  10
59.174759
  20
284.22061
  42
0.11644113
  0
VERTEX
  5
1e9
  8
Layer_31
  10
58.992203
  20
284.17297
  42
0.13391583
  0
VERTEX
  5
1ea
  8
Layer_31
  10
58.857262
  20
284.03802
  42
0.13052246
  0
VERTEX
  5
1eb
  8
Layer_31
  10
58.809631
  20
283.85547
  42
0.11642103
  0
VERTEX
  5
1ec
  8
Layer_31
  10
58.857262
  20
283.67291
  42
0.13391978
  0
VERTEX
  5
1ed
  8
Layer_31
  10
58.992203
  20
283.53796
  42
0.13051626
  0
VERTEX
  5
1ee
  8
Layer_31
  10
59.174759
  20
283.49036
  42
0.1305202
  0
VERTEX
  5
1ef
  8
Layer_31
  10
59.357323
  20
283.53796
  42
0.13390397
  0
VERTEX
  5
1f0
  8
Layer_31
  10
59.492264
  20
283.67291
  42
0.13052246
  0
VERTEX
  5
1f1
  8
Layer_31
  10
59.539879
  20
283.85547
  42
0.13050667
  0
VERTEX
  5
1f2
  8
Layer_31
  10
59.492264
  20
284.03802
  42
0.13390002
  0
VERTEX
  5
1f3
  8
Layer_31
  10
59.357323
  20
284.17297
  42
0.11643382
  0
SEQEND
  0
POLYLINE
  5
1f5
  8
Layer_31
  62
142
  70
1
  66
1
  10
0
  20
0
  30
0
  0
VERTEX
  5
1f5
  8
Layer_31
  10
58.984261
  20
283.61734
  0
VERTEX
  5
1f6
  8
Layer_31
  10
58.984261
  20
284.08566
  0
VERTEX
  5
1f7
  8
Layer_31
  10
59.143005
  20
284.08566
  42
-0.080600688
  0
VERTEX
  5
1f8
  8
Layer_31
  10
59.26207
  20
284.06979
  42
-0.2360109
  0
VERTEX
  5
1f9
  8
Layer_31
  10
59.317635
  20
284.02216
  42
-0.14806874
  0
VERTEX
  5
1fa
  8
Layer_31
  10
59.341446
  20
283.95071
  42
-0.19891237
  0
VERTEX
  5
1fb
  8
Layer_31
  10
59.301758
  20
283.8634
  42
-0.19891237
  0
VERTEX
  5
1fc
  8
Layer_31
  10
59.206505
  20
283.82373
  42
-0.080597061
  0
VERTEX
  5
1fd
  8
Layer_31
  10
59.246193
  20
283.79993
  42
-0.04938621
  0
VERTEX
  5
1fe
  8
Layer_31
  10
59.317635
  20
283.70465
  0
VERTEX
  5
1ff
  8
Layer_31
  10
59.373199
  20
283.60941
  0
VERTEX
  5
200
  8
Layer_31
  10
59.277946
  20
283.60941
  0
VERTEX
  5
201
  8
Layer_31
  10
59.238258
  20
283.68085
  42
0.11641752
  0
VERTEX
  5
202
  8
Layer_31
  10
59.158882
  20
283.79196
  42
0.11641921
  0
VERTEX
  5
203
  8
Layer_31
  10
59.095383
  20
283.80786
  0
VERTEX
  5
204
  8
Layer_31
  10
59.04776
  20
283.80786
  0
VERTEX
  5
205
  8
Layer_31
  10
59.04776
  20
283.60941
  0
VERTEX
  5
206
  8
Layer_31
  10
58.984261
  20
283.60941
  0
SEQEND
  0
POLYLINE
  5
208
  8
Layer_31
  62
142
  70
1
  66
1
  10
0
  20
0
  30
0
  0
VERTEX
  5
208
  8
Layer_31
  10
59.063637
  20
283.87927
  0
VERTEX
  5
209
  8
Layer_31
  10
59.158882
  20
283.87927
  42
0.11644844
  0
VERTEX
  5
20a
  8
Layer_31
  10
59.246193
  20
283.89517
  42
0.19891237
  0
VERTEX
  5
20b
  8
Layer_31
  10
59.270004
  20
283.95071
  42
0.11643382
  0
VERTEX
  5
20c
  8
Layer_31
  10
59.26207
  20
283.99042
  42
0.080597061
  0
VERTEX
  5
20d
  8
Layer_31
  10
59.230316
  20
284.01422
  42
0.11643382
  0
VERTEX
  5
20e
  8
Layer_31
  10
59.15094
  20
284.02216
  0
VERTEX
  5
20f
  8
Layer_31
  10
59.063637
  20
284.02216
  0
SEQEND
  0
ENDSEC
  0
EOF
