  0
SECTION
  2
HEADER
  9
$ACADVER
  1
AC1009
  0
ENDSEC
  0
SECTION
  2
TABLES
  0
TABLE
  2
LAYER
  70
1
  0
LAYER
  2
Layer_0
  70
0
  62
7
  6
CONTINUOUS
  0
ENDTAB
  0
ENDSEC
  0
SECTION
  2
ENTITIES
  0
POLYLINE
  5
90
  8
Layer_0
  62
7
  70
1
  66
1
  10
0
  20
0
  30
0
  0
VERTEX
  5
90
  8
Layer_0
  10
81.414619
  20
268.93835
  42
-0.40220163
  0
VERTEX
  5
91
  8
Layer_0
  10
81.114876
  20
268.65073
  0
VERTEX
  5
92
  8
Layer_0
  10
76.01487
  20
268.65073
  42
-0.41421356
  0
VERTEX
  5
93
  8
Layer_0
  10
75.714874
  20
268.95071
  0
VERTEX
  5
94
  8
Layer_0
  10
75.714874
  20
269.70001
  42
0.41421356
  0
VERTEX
  5
95
  8
Layer_0
  10
75.414871
  20
270
  0
VERTEX
  5
96
  8
Layer_0
  10
61.704872
  20
270
  42
0.41421356
  0
VERTEX
  5
97
  8
Layer_0
  10
61.404873
  20
269.70001
  0
VERTEX
  5
98
  8
Layer_0
  10
61.404873
  20
268.95001
  42
-0.41421356
  0
VERTEX
  5
99
  8
Layer_0
  10
61.10487
  20
268.64999
  0
VERTEX
  5
9a
  8
Layer_0
  10
57.504871
  20
268.64999
  42
-0.41421356
  0
VERTEX
  5
9b
  8
Layer_0
  10
57.204872
  20
268.95001
  0
VERTEX
  5
9c
  8
Layer_0
  10
57.204872
  20
269.70001
  42
0.41421356
  0
VERTEX
  5
9d
  8
Layer_0
  10
56.904873
  20
270
  0
VERTEX
  5
9e
  8
Layer_0
  10
42.104092
  20
270
  0
VERTEX
  5
9f
  8
Layer_0
  10
41.334873
  20
270
  0
VERTEX
  5
a0
  8
Layer_0
  10
25.554871
  20
270
  42
0.41421356
  0
VERTEX
  5
a1
  8
Layer_0
  10
25.254871
  20
269.70001
  0
VERTEX
  5
a2
  8
Layer_0
  10
25.254871
  20
268.95001
  42
-0.41421356
  0
VERTEX
  5
a3
  8
Layer_0
  10
24.954872
  20
268.64999
  0
VERTEX
  5
a4
  8
Layer_0
  10
21.354872
  20
268.64999
  42
-0.41421356
  0
VERTEX
  5
a5
  8
Layer_0
  10
21.054871
  20
268.95001
  0
VERTEX
  5
a6
  8
Layer_0
  10
21.054871
  20
269.70001
  42
0.41421356
  0
VERTEX
  5
a7
  8
Layer_0
  10
20.754871
  20
270
  0
VERTEX
  5
a8
  8
Layer_0
  10
6.9548702
  20
270
  42
0.41421356
  0
VERTEX
  5
a9
  8
Layer_0
  10
6.65487
  20
269.70001
  0
VERTEX
  5
aa
  8
Layer_0
  10
6.65487
  20
268.95001
  42
-0.41421356
  0
VERTEX
  5
ab
  8
Layer_0
  10
6.3548708
  20
268.64999
  0
VERTEX
  5
ac
  8
Layer_0
  10
1.2548704
  20
268.64999
  42
-0.41421356
  0
VERTEX
  5
ad
  8
Layer_0
  10
0.95487022
  20
268.95001
  0
VERTEX
  5
ae
  8
Layer_0
  10
0.95487022
  20
270
  0
VERTEX
  5
af
  8
Layer_0
  10
3.8146973e-06
  20
299.38052
  42
-0.203137
  0
VERTEX
  5
b0
  8
Layer_0
  10
0.16858673
  20
299.81732
  42
-0.20313614
  0
VERTEX
  5
b1
  8
Layer_0
  10
0.59968662
  20
300
  0
VERTEX
  5
b2
  8
Layer_0
  10
41.334873
  20
300
  0
VERTEX
  5
b3
  8
Layer_0
  10
82.070061
  20
300
  42
-0.20526421
  0
VERTEX
  5
b4
  8
Layer_0
  10
82.504555
  20
299.81378
  42
-0.20526566
  0
VERTEX
  5
b5
  8
Layer_0
  10
82.669342
  20
299.37073
  0
VERTEX
  5
b6
  8
Layer_0
  10
81.458374
  20
269.99957
  0
SEQEND
  0
POLYLINE
  5
b8
  8
Layer_0
  62
7
  66
1
  10
0
  20
0
  30
0
  0
VERTEX
  5
b8
  8
Layer_0
  10
61.704872
  20
270
  0
VERTEX
  5
b9
  8
Layer_0
  10
75.414871
  20
270
  0
VERTEX
  5
ba
  8
Layer_0
  10
70.865395
  20
270
  0
SEQEND
  0
POLYLINE
  5
bc
  8
Layer_0
  62
7
  66
1
  10
0
  20
0
  30
0
  0
VERTEX
  5
bc
  8
Layer_0
  10
6.65487
  20
270
  0
VERTEX
  5
bd
  8
Layer_0
  10
21.054871
  20
270
  0
SEQEND
  0
ENDSEC
  0
EOF
