  0
SECTION
  2
HEADER
  9
$ACADVER
  1
AC1009
  0
ENDSEC
  0
SECTION
  2
TABLES
  0
TABLE
  2
LAYER
  70
1
  0
LAYER
  2
Layer_0
  70
0
  62
7
  6
CONTINUOUS
  0
ENDTAB
  0
ENDSEC
  0
SECTION
  2
ENTITIES
  0
POLYLINE
  5
90
  8
Layer_0
  62
7
  70
1
  66
1
  10
0
  20
0
  30
0
  0
VERTEX
  5
90
  8
Layer_0
  10
32.565849
  20
287.57535
  42
-0.40212137
  0
VERTEX
  5
91
  8
Layer_0
  10
32.44595
  20
287.4603
  0
VERTEX
  5
92
  8
Layer_0
  10
30.405947
  20
287.4603
  42
-0.19894761
  0
VERTEX
  5
93
  8
Layer_0
  10
30.321095
  20
287.49542
  42
-0.19899016
  0
VERTEX
  5
94
  8
Layer_0
  10
30.285948
  20
287.58029
  0
VERTEX
  5
95
  8
Layer_0
  10
30.285948
  20
287.88
  42
0.19894762
  0
VERTEX
  5
96
  8
Layer_0
  10
30.250801
  20
287.96484
  42
0.19892999
  0
VERTEX
  5
97
  8
Layer_0
  10
30.165947
  20
288
  0
VERTEX
  5
98
  8
Layer_0
  10
24.681948
  20
288
  42
0.19894761
  0
VERTEX
  5
99
  8
Layer_0
  10
24.597095
  20
287.96484
  42
0.19896889
  0
VERTEX
  5
9a
  8
Layer_0
  10
24.561947
  20
287.88
  0
VERTEX
  5
9b
  8
Layer_0
  10
24.561947
  20
287.58002
  42
-0.19888594
  0
VERTEX
  5
9c
  8
Layer_0
  10
24.526802
  20
287.49515
  42
-0.19904729
  0
VERTEX
  5
9d
  8
Layer_0
  10
24.441946
  20
287.45999
  0
VERTEX
  5
9e
  8
Layer_0
  10
23.001947
  20
287.45999
  42
-0.19903847
  0
VERTEX
  5
9f
  8
Layer_0
  10
22.917088
  20
287.49515
  42
-0.19893578
  0
VERTEX
  5
a0
  8
Layer_0
  10
22.881947
  20
287.58002
  0
VERTEX
  5
a1
  8
Layer_0
  10
22.881947
  20
287.88
  42
0.19893516
  0
VERTEX
  5
a2
  8
Layer_0
  10
22.8468
  20
287.96484
  42
0.1989388
  0
VERTEX
  5
a3
  8
Layer_0
  10
22.761948
  20
288
  0
VERTEX
  5
a4
  8
Layer_0
  10
16.841635
  20
288
  0
VERTEX
  5
a5
  8
Layer_0
  10
16.533947
  20
288
  0
VERTEX
  5
a6
  8
Layer_0
  10
10.221947
  20
288
  42
0.1989432
  0
VERTEX
  5
a7
  8
Layer_0
  10
10.137094
  20
287.96484
  42
0.19895202
  0
VERTEX
  5
a8
  8
Layer_0
  10
10.101947
  20
287.88
  0
VERTEX
  5
a9
  8
Layer_0
  10
10.101947
  20
287.58002
  42
-0.19888153
  0
VERTEX
  5
aa
  8
Layer_0
  10
10.066802
  20
287.49515
  42
-0.19904729
  0
VERTEX
  5
ab
  8
Layer_0
  10
9.9819469
  20
287.45999
  0
VERTEX
  5
ac
  8
Layer_0
  10
8.5419474
  20
287.45999
  42
-0.19903847
  0
VERTEX
  5
ad
  8
Layer_0
  10
8.4570875
  20
287.49515
  42
-0.19893578
  0
VERTEX
  5
ae
  8
Layer_0
  10
8.4219465
  20
287.58002
  0
VERTEX
  5
af
  8
Layer_0
  10
8.4219465
  20
287.88
  42
0.19895202
  0
VERTEX
  5
b0
  8
Layer_0
  10
8.3867998
  20
287.96484
  42
0.1989432
  0
VERTEX
  5
b1
  8
Layer_0
  10
8.3019466
  20
288
  0
VERTEX
  5
b2
  8
Layer_0
  10
2.7819467
  20
288
  42
0.1989421
  0
VERTEX
  5
b3
  8
Layer_0
  10
2.697094
  20
287.96484
  42
0.19895202
  0
VERTEX
  5
b4
  8
Layer_0
  10
2.6619465
  20
287.88
  0
VERTEX
  5
b5
  8
Layer_0
  10
2.6619465
  20
287.58002
  42
-0.19888089
  0
VERTEX
  5
b6
  8
Layer_0
  10
2.626802
  20
287.49515
  42
-0.19904619
  0
VERTEX
  5
b7
  8
Layer_0
  10
2.5419469
  20
287.45999
  0
VERTEX
  5
b8
  8
Layer_0
  10
0.50194663
  20
287.45999
  42
-0.19903792
  0
VERTEX
  5
b9
  8
Layer_0
  10
0.41708729
  20
287.49515
  42
-0.19893803
  0
VERTEX
  5
ba
  8
Layer_0
  10
0.38194656
  20
287.58002
  0
VERTEX
  5
bb
  8
Layer_0
  10
0.38194656
  20
288
  0
VERTEX
  5
bc
  8
Layer_0
  10
0
  20
299.7522
  42
-0.20313907
  0
VERTEX
  5
bd
  8
Layer_0
  10
0.067433164
  20
299.92694
  42
-0.20313043
  0
VERTEX
  5
be
  8
Layer_0
  10
0.23987313
  20
300
  0
VERTEX
  5
bf
  8
Layer_0
  10
16.533947
  20
300
  0
VERTEX
  5
c0
  8
Layer_0
  10
32.828026
  20
300
  42
-0.20523934
  0
VERTEX
  5
c1
  8
Layer_0
  10
33.001823
  20
299.92551
  42
-0.20527686
  0
VERTEX
  5
c2
  8
Layer_0
  10
33.067738
  20
299.74829
  0
VERTEX
  5
c3
  8
Layer_0
  10
32.583351
  20
287.99982
  0
SEQEND
  0
POLYLINE
  5
c5
  8
Layer_0
  62
7
  66
1
  10
0
  20
0
  30
0
  0
VERTEX
  5
c5
  8
Layer_0
  10
24.681948
  20
288
  0
VERTEX
  5
c6
  8
Layer_0
  10
30.165947
  20
288
  0
VERTEX
  5
c7
  8
Layer_0
  10
28.346157
  20
288
  0
SEQEND
  0
POLYLINE
  5
c9
  8
Layer_0
  62
7
  66
1
  10
0
  20
0
  30
0
  0
VERTEX
  5
c9
  8
Layer_0
  10
2.6619465
  20
288
  0
VERTEX
  5
ca
  8
Layer_0
  10
8.4219465
  20
288
  0
SEQEND
  0
ENDSEC
  0
EOF
