  0
SECTION
  2
HEADER
  9
$ACADVER
  1
AC1009
  0
ENDSEC
  0
SECTION
  2
TABLES
  0
TABLE
  2
LAYER
  70
1
  0
LAYER
  2
Layer_5
  70
0
  62
30
  6
CONTINUOUS
  0
ENDTAB
  0
ENDSEC
  0
SECTION
  2
ENTITIES
  0
POLYLINE
  5
90
  8
Layer_5
  62
30
  70
1
  66
1
  10
0
  20
0
  30
0
  0
VERTEX
  5
90
  8
Layer_5
  10
259.6582
  20
199.99179
  0
VERTEX
  5
91
  8
Layer_5
  10
259.65033
  20
202.03516
  42
0.29844425
  0
VERTEX
  5
92
  8
Layer_5
  10
259.3631
  20
202.46774
  42
0.29843195
  0
VERTEX
  5
93
  8
Layer_5
  10
258.85181
  20
202.37708
  42
0.29841977
  0
VERTEX
  5
94
  8
Layer_5
  10
258.73077
  20
201.87213
  0
VERTEX
  5
95
  8
Layer_5
  10
212.15225
  20
201.72028
  42
0.1989063
  0
VERTEX
  5
96
  8
Layer_5
  10
211.4408
  20
201.42235
  42
0.19890888
  0
VERTEX
  5
97
  8
Layer_5
  10
211.14835
  20
200.70856
  0
VERTEX
  5
98
  8
Layer_5
  10
211.0941
  20
198.53162
  42
-0.40429929
  0
VERTEX
  5
99
  8
Layer_5
  10
210.12448
  20
197.52063
  0
VERTEX
  5
9a
  8
Layer_5
  10
194.03062
  20
197.4028
  42
-0.19888339
  0
VERTEX
  5
9b
  8
Layer_5
  10
192.94566
  20
197.8047
  42
-0.19890489
  0
VERTEX
  5
9c
  8
Layer_5
  10
192.46263
  20
198.85611
  0
VERTEX
  5
9d
  8
Layer_5
  10
192.39154
  20
200.72989
  42
0.40424237
  0
VERTEX
  5
9e
  8
Layer_5
  10
191.38052
  20
201.69952
  0
VERTEX
  5
9f
  8
Layer_5
  10
144.59731
  20
201.51813
  0
VERTEX
  5
a0
  8
Layer_5
  10
144.59793
  20
201.29831
  0
VERTEX
  5
a1
  8
Layer_5
  10
92.465637
  20
201.50046
  42
0.40423834
  0
VERTEX
  5
a2
  8
Layer_5
  10
91.454613
  20
200.53082
  0
VERTEX
  5
a3
  8
Layer_5
  10
91.38353
  20
198.65704
  42
-0.19890111
  0
VERTEX
  5
a4
  8
Layer_5
  10
90.900497
  20
197.60564
  42
-0.19888653
  0
VERTEX
  5
a5
  8
Layer_5
  10
89.815529
  20
197.20374
  0
VERTEX
  5
a6
  8
Layer_5
  10
73.721672
  20
197.32156
  42
-0.40429929
  0
VERTEX
  5
a7
  8
Layer_5
  10
72.752052
  20
198.33253
  0
VERTEX
  5
a8
  8
Layer_5
  10
72.697823
  20
200.50949
  42
0.19890154
  0
VERTEX
  5
a9
  8
Layer_5
  10
72.405365
  20
201.22327
  42
0.19890633
  0
VERTEX
  5
aa
  8
Layer_5
  10
71.693916
  20
201.52121
  0
VERTEX
  5
ab
  8
Layer_5
  10
28.822666
  20
201.66098
  42
0.41417337
  0
VERTEX
  5
ac
  8
Layer_5
  10
28.347137
  20
201.18913
  0
VERTEX
  5
ad
  8
Layer_5
  10
28.341757
  20
199.79271
  42
-0.19876665
  0
VERTEX
  5
ae
  8
Layer_5
  10
28.043861
  20
199.08118
  42
-0.19882971
  0
VERTEX
  5
af
  8
Layer_5
  10
27.329992
  20
198.78876
  0
VERTEX
  5
b0
  8
Layer_5
  10
9.5823011
  20
198.86566
  42
-0.40341144
  0
VERTEX
  5
b1
  8
Layer_5
  10
8.0772324
  20
200.32719
  0
VERTEX
  5
b2
  8
Layer_5
  10
1.5340267
  20
295.3223
  42
-0.20382479
  0
VERTEX
  5
b3
  8
Layer_5
  10
1.8183169
  20
296.05786
  42
-0.20373966
  0
VERTEX
  5
b4
  8
Layer_5
  10
2.5451248
  20
296.36359
  0
VERTEX
  5
b5
  8
Layer_5
  10
3.9294515
  20
296.35825
  0
VERTEX
  5
b6
  8
Layer_5
  10
143.67572
  20
296.59607
  0
VERTEX
  5
b7
  8
Layer_5
  10
143.6763
  20
296.79626
  0
VERTEX
  5
b8
  8
Layer_5
  10
284.0705
  20
296.55731
  0
VERTEX
  5
b9
  8
Layer_5
  10
285.45483
  20
296.56268
  42
-0.20374274
  0
VERTEX
  5
ba
  8
Layer_5
  10
286.18164
  20
296.25696
  42
-0.20378171
  0
VERTEX
  5
bb
  8
Layer_5
  10
286.46594
  20
295.52136
  0
VERTEX
  5
bc
  8
Layer_5
  10
279.92273
  20
200.52626
  42
-0.40340436
  0
VERTEX
  5
bd
  8
Layer_5
  10
278.41766
  20
199.06473
  0
VERTEX
  5
be
  8
Layer_5
  10
260.66995
  20
198.98782
  42
-0.19882975
  0
VERTEX
  5
bf
  8
Layer_5
  10
259.95609
  20
199.28024
  42
-0.1987687
  0
SEQEND
  0
ENDSEC
  0
EOF
