0
SECTION
2
HEADER
9
$INSUNITS
70
4
9
$ACADVER
1
AC1014
9
$HANDSEED
5
FFFF
0
ENDSEC
0
SECTION
2
TABLES
0
TABLE
2
VPORT
5
8
100
AcDbSymbolTable
0
ENDTAB
0
TABLE
2
LTYPE
5
5
100
AcDbSymbolTable
0
LTYPE
5
14
100
AcDbSymbolTableRecord
100
AcDbLinetypeTableRecord
2
BYBLOCK
70
0
0
LTYPE
5
15
100
AcDbSymbolTableRecord
100
AcDbLinetypeTableRecord
2
BYLAYER
70
0
0
LTYPE
5
16
100
AcDbSymbolTableRecord
100
AcDbLinetypeTableRecord
2
DASHED
70
0
3
Dashed __ __ __ __ __ __ __ __ __ __ __ __ __ _
72
65
73
2
40
0.75
49
0.5
74
0
49
-0.25
74
0
0
ENDTAB
0
TABLE
2
LAYER
5
2
100
AcDbSymbolTable
70
2
0
LAYER
5
50
100
AcDbSymbolTableRecord
100
AcDbLayerTableRecord
2
0
70
0
62
7
6
CONTINUOUS
0
ENDTAB
0
TABLE
2
STYLE
5
3
100
AcDbSymbolTable
70
1
0
STYLE
5
11
100
AcDbSymbolTableRecord
100
AcDbTextStyleTableRecord
2
STANDARD
70
0
0
ENDTAB
0
TABLE
2
VIEW
5
6
100
AcDbSymbolTable
70
0
0
ENDTAB
0
TABLE
2
UCS
5
7
100
AcDbSymbolTable
70
0
0
ENDTAB
0
TABLE
2
APPID
5
9
100
AcDbSymbolTable
70
2
0
APPID
5
12
100
AcDbSymbolTableRecord
100
AcDbRegAppTableRecord
2
ACAD
70
0
0
ENDTAB
0
TABLE
2
DIMSTYLE
5
A
100
AcDbSymbolTable
70
1
0
ENDTAB
0
TABLE
2
BLOCK_RECORD
5
1
100
AcDbSymbolTable
70
1
0
BLOCK_RECORD
5
1F
100
AcDbSymbolTableRecord
100
AcDbBlockTableRecord
2
*MODEL_SPACE
0
BLOCK_RECORD
5
1B
100
AcDbSymbolTableRecord
100
AcDbBlockTableRecord
2
*PAPER_SPACE
0
ENDTAB
0
ENDSEC
0
SECTION
2
BLOCKS
0
BLOCK
5
20
100
AcDbEntity
100
AcDbBlockBegin
2
*MODEL_SPACE
0
ENDBLK
5
21
100
AcDbEntity
100
AcDbBlockEnd
0
BLOCK
5
1C
100
AcDbEntity
100
AcDbBlockBegin
2
*PAPER_SPACE
0
ENDBLK
5
1D
100
AcDbEntity
100
AcDbBlockEnd
0
ENDSEC
0
SECTION
2
ENTITIES
0
POINT
5
100
100
AcDbEntity
8
0
100
AcDbPoint
10
277.33800000000002
20
200
30
0
0
POINT
5
101
100
AcDbEntity
8
0
100
AcDbPoint
10
-47.933944028768792
20
50
30
0
0
POINT
5
102
100
AcDbEntity
8
0
100
AcDbPoint
10
3.2493727756682484
20
95.499506328607481
30
0
0
POINT
5
103
100
AcDbEntity
8
0
100
AcDbPoint
10
-46.750000000000007
20
-54.499999999999993
30
0
0
POINT
5
104
100
AcDbEntity
8
0
100
AcDbPoint
10
-27.750000000000021
20
-49.999999999999986
30
0
0
POINT
5
105
100
AcDbEntity
8
0
100
AcDbPoint
10
22.249372775668249
20
95.499506328607481
30
0
0
POINT
5
106
100
AcDbEntity
8
0
100
AcDbPoint
10
22.249372775668249
20
99.999506328607467
30
0
0
POINT
5
107
100
AcDbEntity
8
0
100
AcDbPoint
10
20.249999999999979
20
-49.999999999999986
30
0
0
POINT
5
108
100
AcDbEntity
8
0
100
AcDbPoint
10
70.249372775668263
20
99.999506328607467
30
0
0
POINT
5
109
100
AcDbEntity
8
0
100
AcDbPoint
10
70.249372775668263
20
95.499506328607481
30
0
0
POINT
5
110
100
AcDbEntity
8
0
100
AcDbPoint
10
84.249372775668263
20
95.499506328607481
30
0
0
POINT
5
111
100
AcDbEntity
8
0
100
AcDbPoint
10
84.249372775668263
20
99.999506328607467
30
0
0
POINT
5
112
100
AcDbEntity
8
0
100
AcDbPoint
10
190.99937277566826
20
99.999506328607467
30
0
0
POINT
5
113
100
AcDbEntity
8
0
100
AcDbPoint
10
190.99937277566826
20
95.499506328607481
30
0
0
POINT
5
114
100
AcDbEntity
8
0
100
AcDbPoint
10
204.99937277566826
20
95.499506328607481
30
0
0
POINT
5
115
100
AcDbEntity
8
0
100
AcDbPoint
10
204.99937277566826
20
100
30
0
0
POINT
5
116
100
AcDbEntity
8
0
100
AcDbPoint
10
252.69937277566825
20
100
30
0
0
POINT
5
117
100
AcDbEntity
8
0
100
AcDbPoint
10
252.69937277566825
20
95.5
30
0
0
POINT
5
118
100
AcDbEntity
8
0
100
AcDbPoint
10
271.69937277566822
20
95.5
30
0
0
LINE
5
119
100
AcDbEntity
8
0
100
AcDbLine
10
0
20
200
30
0
11
276.2825871615355
21
200
31
0
0
ARC
5
120
100
AcDbEntity
8
0
100
AcDbCircle
10
-47.933944028768806
20
47.999999999999986
30
0
40
2.0000000000000107
210
0
220
-0
230
1
100
AcDbArc
50
89.999999999999588
51
181.86145763046648
0
LINE
5
121
100
AcDbEntity
8
0
100
AcDbLine
10
87.849999999999994
20
50
30
0
11
-47.933944028768792
21
50
31
0
0
LINE
5
122
100
AcDbEntity
8
0
100
AcDbLine
10
-47.933944028768792
20
50
30
0
11
-50
21
50.000000000000007
31
0
0
LINE
5
123
100
AcDbEntity
8
0
100
AcDbLine
10
0.032060719683300182
20
198.96892069156993
30
0
11
3.2192448364943975
21
96.46842702017743
31
0
0
LINE
5
124
100
AcDbEntity
8
0
100
AcDbLine
10
-27.750000000000025
20
-53.499999999999943
30
0
11
-27.750000000000018
21
-51.000000000000028
31
0
0
LINE
5
125
100
AcDbEntity
8
0
100
AcDbLine
10
-46.750000000000007
20
-54.499999999999993
30
0
11
-27.750000000000025
21
-54.500000000000064
31
0
0
LINE
5
126
100
AcDbEntity
8
0
100
AcDbLine
10
-27.750000000000025
20
-54.500000000000064
30
0
11
-27.750000000000021
21
-49.999999999999986
31
0
0
LINE
5
127
100
AcDbEntity
8
0
100
AcDbLine
10
4.2187617581057877
20
95.499506328607481
30
0
11
21.249372775668252
21
95.499506328607481
31
0
0
LINE
5
128
100
AcDbEntity
8
0
100
AcDbLine
10
22.249372775668256
20
96.499506328607481
30
0
11
22.249372775668252
21
98.999506328607481
31
0
0
LINE
5
129
100
AcDbEntity
8
0
100
AcDbLine
10
-27.750000000000021
20
-49.999999999999986
30
0
11
20.249999999999979
21
-49.999999999999986
31
0
0
LINE
5
130
100
AcDbEntity
8
0
100
AcDbLine
10
23.249372775668249
20
99.999506328607467
30
0
11
69.249372775668263
21
99.999506328607467
31
0
0
LINE
5
131
100
AcDbEntity
8
0
100
AcDbLine
10
70.249372775668263
20
98.999506328607481
30
0
11
70.249372775668263
21
96.499506328607481
31
0
0
LINE
5
132
100
AcDbEntity
8
0
100
AcDbLine
10
71.249372775668263
20
95.499506328607495
30
0
11
83.249372775668263
21
95.499506328607481
31
0
0
LINE
5
133
100
AcDbEntity
8
0
100
AcDbLine
10
84.249372775668263
20
96.499506328607481
30
0
11
84.249372775668263
21
98.999506328607481
31
0
0
LINE
5
134
100
AcDbEntity
8
0
100
AcDbLine
10
140.75000000000003
20
-53.499999999999936
30
0
11
140.75000000000003
21
-51.000000000000028
31
0
0
LINE
5
135
100
AcDbEntity
8
0
100
AcDbLine
10
34.000000506639481
20
-50.00000074505806
30
0
11
140.75000000000003
21
-50.00000074505806
31
0
0
LINE
5
136
100
AcDbEntity
8
0
100
AcDbLine
10
85.249372775668263
20
99.999506328607467
30
0
11
189.99937277566826
21
99.999506328607467
31
0
0
LINE
5
137
100
AcDbEntity
8
0
100
AcDbLine
10
190.99937277566823
20
98.999506328607481
30
0
11
190.99937277566826
21
96.499506328607453
31
0
0
LINE
5
138
100
AcDbEntity
8
0
100
AcDbLine
10
191.99937277566823
20
95.499506328607481
30
0
11
203.99937277566823
21
95.499506328607481
31
0
0
LINE
5
139
100
AcDbEntity
8
0
100
AcDbLine
10
204.99937277566823
20
96.499506328607481
30
0
11
204.99937277566826
21
99.000000000000028
31
0
0
LINE
5
140
100
AcDbEntity
8
0
100
AcDbLine
10
205.99937277566823
20
99.999999999999986
30
0
11
251.69937277566822
21
100
31
0
0
LINE
5
141
100
AcDbEntity
8
0
100
AcDbLine
10
252.69937277566825
20
99
30
0
11
252.69937277566825
21
96.5
31
0
0
LINE
5
142
100
AcDbEntity
8
0
100
AcDbLine
10
253.69937277566828
20
95.5
30
0
11
270.75187624771723
21
95.5
31
0
0
LINE
5
143
100
AcDbEntity
8
0
100
AcDbLine
10
277.28113459135722
20
198.94612022275041
30
0
11
271.75042367753895
21
96.446120222750437
31
0
0
ARC
5
144
100
AcDbEntity
8
0
100
AcDbCircle
10
1.0315776412947413
20
198.99999999999994
30
0
40
1.0000000000000497
210
0
220
0
230
1
100
AcDbArc
50
90.000000000001435
51
181.78099999999853
0
ARC
5
145
100
AcDbEntity
8
0
100
AcDbCircle
10
4.2187617581057806
20
96.499506328607481
30
0
40
0.99999999999999267
210
0
220
0
230
1
100
AcDbArc
50
181.781000000001
51
270.0000000000004
0
ARC
5
146
100
AcDbEntity
8
0
100
AcDbCircle
10
21.24937277566826
20
96.499506328607481
30
0
40
0.99999999999999645
210
0
220
0
230
1
100
AcDbArc
50
-90.000000000000398
51
0
0
ARC
5
147
100
AcDbEntity
8
0
100
AcDbCircle
10
23.249372775668235
20
98.999506328607495
30
0
40
0.99999999999997868
210
0
220
-0
230
1
100
AcDbArc
50
89.99999999999919
51
180
0
ARC
5
148
100
AcDbEntity
8
0
100
AcDbCircle
10
69.249372775668277
20
98.999506328607481
30
0
40
0.99999999999999645
210
0
220
-0
230
1
100
AcDbArc
50
0
51
90.00000000000081
0
ARC
5
149
100
AcDbEntity
8
0
100
AcDbCircle
10
71.249372775668249
20
96.499506328607481
30
0
40
0.99999999999998757
210
0
220
0
230
1
100
AcDbArc
50
180
51
270.0000000000008
0
ARC
5
150
100
AcDbEntity
8
0
100
AcDbCircle
10
83.249372775668263
20
96.499506328607481
30
0
40
0.99999999999999645
210
0
220
0
230
1
100
AcDbArc
50
-90
51
0
0
ARC
5
151
100
AcDbEntity
8
0
100
AcDbCircle
10
85.249372775668263
20
98.999506328607481
30
0
40
0.99999999999999645
210
0
220
-0
230
1
100
AcDbArc
50
90
51
180
0
ARC
5
152
100
AcDbEntity
8
0
100
AcDbCircle
10
189.99937277566823
20
98.999506328607438
30
0
40
1.0000000000000142
210
0
220
-0
230
1
100
AcDbArc
50
0
51
89.99999999999838
0
ARC
5
153
100
AcDbEntity
8
0
100
AcDbCircle
10
191.99937277566821
20
96.499506328607424
30
0
40
0.99999999999994316
210
0
220
0
230
1
100
AcDbArc
50
180
51
270.00000000000159
0
ARC
5
154
100
AcDbEntity
8
0
100
AcDbCircle
10
203.99937277566821
20
96.499506328607509
30
0
40
1.000000000000032
210
0
220
0
230
1
100
AcDbArc
50
270.00000000000159
51
360
0
ARC
5
155
100
AcDbEntity
8
0
100
AcDbCircle
10
205.99937277566821
20
99.000000000000043
30
0
40
0.99999999999994316
210
0
220
-0
230
1
100
AcDbArc
50
89.99999999999838
51
180
0
ARC
5
156
100
AcDbEntity
8
0
100
AcDbCircle
10
251.69937277566822
20
98.999999999999986
30
0
40
1.0000000000000142
210
0
220
-0
230
1
100
AcDbArc
50
0
51
90
0
ARC
5
157
100
AcDbEntity
8
0
100
AcDbCircle
10
253.69937277566828
20
96.500000000000028
30
0
40
1.0000000000000142
210
0
220
0
230
1
100
AcDbArc
50
180
51
270
0
ARC
5
158
100
AcDbEntity
8
0
100
AcDbCircle
10
270.75187624771723
20
96.500000000000028
30
0
40
1.0000000000000142
210
0
220
0
230
1
100
AcDbArc
50
270
51
356.9114205581626
0
ARC
5
159
100
AcDbEntity
8
0
100
AcDbCircle
10
276.28258716153545
20
198.99999999999994
30
0
40
1.0000000000000682
210
-0
220
0
230
1
100
AcDbArc
50
-3.0885794418339705
51
89.999999999996746
0
ENDSEC
0
SECTION
2
OBJECTS
0
DICTIONARY
5
C
100
AcDbDictionary
3
ACAD_GROUP
350
D
3
ACAD_MLINESTYLE
350
17
0
DICTIONARY
5
D
100
AcDbDictionary
0
DICTIONARY
5
1A
330
C
100
AcDbDictionary
0
DICTIONARY
5
17
100
AcDbDictionary
0
ENDSEC
0
EOF
