  0
SECTION
  2
HEADER
  9
$ACADVER
  1
AC1009
  0
ENDSEC
  0
SECTION
  2
TABLES
  0
TABLE
  2
LAYER
  70
1
  0
LAYER
  2
Layer_5
  70
0
  62
30
  6
CONTINUOUS
  0
ENDTAB
  0
ENDSEC
  0
SECTION
  2
ENTITIES
  0
POLYLINE
  5
90
  8
Layer_5
  62
30
  66
1
  10
0
  20
0
  30
0
  0
VERTEX
  5
90
  8
Layer_5
  10
1.2310324
  20
297.1756
  0
VERTEX
  5
91
  8
Layer_5
  10
282.02191
  20
297.19681
  42
-0.20592881
  0
VERTEX
  5
92
  8
Layer_5
  10
282.7478
  20
296.88458
  42
-0.20595258
  0
VERTEX
  5
93
  8
Layer_5
  10
283.02045
  20
296.14294
  0
VERTEX
  5
94
  8
Layer_5
  10
275.95667
  20
193.74393
  42
-0.39849692
  0
VERTEX
  5
95
  8
Layer_5
  10
274.9581
  20
192.79781
  0
VERTEX
  5
96
  8
Layer_5
  10
257.05807
  20
192.75
  42
-0.41421356
  0
VERTEX
  5
97
  8
Layer_5
  10
256.05807
  20
193.75
  0
VERTEX
  5
98
  8
Layer_5
  10
256.05807
  20
196.25
  42
0.41421356
  0
VERTEX
  5
99
  8
Layer_5
  10
255.05807
  20
197.25
  0
VERTEX
  5
9a
  8
Layer_5
  10
209.35808
  20
197.25
  42
0.41421356
  0
VERTEX
  5
9b
  8
Layer_5
  10
208.35808
  20
196.25
  0
VERTEX
  5
9c
  8
Layer_5
  10
208.35808
  20
193.74951
  42
-0.41421356
  0
VERTEX
  5
9d
  8
Layer_5
  10
207.35808
  20
192.74951
  0
VERTEX
  5
9e
  8
Layer_5
  10
195.35808
  20
192.74951
  42
-0.41421356
  0
VERTEX
  5
9f
  8
Layer_5
  10
194.35808
  20
193.74951
  0
VERTEX
  5
a0
  8
Layer_5
  10
194.35808
  20
196.24951
  42
0.41421356
  0
VERTEX
  5
a1
  8
Layer_5
  10
193.35808
  20
197.24951
  0
VERTEX
  5
a2
  8
Layer_5
  10
88.608078
  20
197.24951
  42
0.41421356
  0
VERTEX
  5
a3
  8
Layer_5
  10
87.608078
  20
196.24951
  0
VERTEX
  5
a4
  8
Layer_5
  10
87.608078
  20
193.74951
  42
-0.41421356
  0
VERTEX
  5
a5
  8
Layer_5
  10
86.608078
  20
192.74951
  0
VERTEX
  5
a6
  8
Layer_5
  10
74.608078
  20
192.74951
  42
-0.41421356
  0
VERTEX
  5
a7
  8
Layer_5
  10
73.608078
  20
193.74951
  0
VERTEX
  5
a8
  8
Layer_5
  10
73.608078
  20
196.24951
  42
0.41421356
  0
VERTEX
  5
a9
  8
Layer_5
  10
72.608078
  20
197.24951
  0
VERTEX
  5
aa
  8
Layer_5
  10
26.608076
  20
197.24951
  42
0.41421356
  0
VERTEX
  5
ab
  8
Layer_5
  10
25.608076
  20
196.24951
  0
VERTEX
  5
ac
  8
Layer_5
  10
25.608076
  20
193.74951
  42
-0.41421356
  0
VERTEX
  5
ad
  8
Layer_5
  10
24.608076
  20
192.74951
  0
VERTEX
  5
ae
  8
Layer_5
  10
6.0500178
  20
192.78613
  42
-0.40513801
  0
VERTEX
  5
af
  8
Layer_5
  10
5.0505009
  20
193.75507
  0
VERTEX
  5
b0
  8
Layer_5
  10
0.23412085
  20
296.14453
  42
-0.20296018
  0
VERTEX
  5
b1
  8
Layer_5
  10
0.51562691
  20
296.87164
  42
-0.20295952
  0
VERTEX
  5
b2
  8
Layer_5
  10
1.2336378
  20
297.1756
  0
SEQEND
  0
ENDSEC
  0
EOF
