0
SECTION
2
HEADER
9
$INSUNITS
70
4
9
$ACADVER
1
AC1014
9
$HANDSEED
5
FFFF
0
ENDSEC
0
SECTION
2
TABLES
0
TABLE
2
VPORT
5
8
100
AcDbSymbolTable
0
ENDTAB
0
TABLE
2
LTYPE
5
5
100
AcDbSymbolTable
0
LTYPE
5
14
100
AcDbSymbolTableRecord
100
AcDbLinetypeTableRecord
2
BYBLOCK
70
0
0
LTYPE
5
15
100
AcDbSymbolTableRecord
100
AcDbLinetypeTableRecord
2
BYLAYER
70
0
0
LTYPE
5
16
100
AcDbSymbolTableRecord
100
AcDbLinetypeTableRecord
2
DASHED
70
0
3
Dashed __ __ __ __ __ __ __ __ __ __ __ __ __ _
72
65
73
2
40
0.75
49
0.5
74
0
49
-0.25
74
0
0
ENDTAB
0
TABLE
2
LAYER
5
2
100
AcDbSymbolTable
70
2
0
LAYER
5
50
100
AcDbSymbolTableRecord
100
AcDbLayerTableRecord
2
0
70
0
62
7
6
CONTINUOUS
0
ENDTAB
0
TABLE
2
STYLE
5
3
100
AcDbSymbolTable
70
1
0
STYLE
5
11
100
AcDbSymbolTableRecord
100
AcDbTextStyleTableRecord
2
STANDARD
70
0
0
ENDTAB
0
TABLE
2
VIEW
5
6
100
AcDbSymbolTable
70
0
0
ENDTAB
0
TABLE
2
UCS
5
7
100
AcDbSymbolTable
70
0
0
ENDTAB
0
TABLE
2
APPID
5
9
100
AcDbSymbolTable
70
2
0
APPID
5
12
100
AcDbSymbolTableRecord
100
AcDbRegAppTableRecord
2
ACAD
70
0
0
ENDTAB
0
TABLE
2
DIMSTYLE
5
A
100
AcDbSymbolTable
70
1
0
ENDTAB
0
TABLE
2
BLOCK_RECORD
5
1
100
AcDbSymbolTable
70
1
0
BLOCK_RECORD
5
1F
100
AcDbSymbolTableRecord
100
AcDbBlockTableRecord
2
*MODEL_SPACE
0
BLOCK_RECORD
5
1B
100
AcDbSymbolTableRecord
100
AcDbBlockTableRecord
2
*PAPER_SPACE
0
ENDTAB
0
ENDSEC
0
SECTION
2
BLOCKS
0
BLOCK
5
20
100
AcDbEntity
100
AcDbBlockBegin
2
*MODEL_SPACE
0
ENDBLK
5
21
100
AcDbEntity
100
AcDbBlockEnd
0
BLOCK
5
1C
100
AcDbEntity
100
AcDbBlockBegin
2
*PAPER_SPACE
0
ENDBLK
5
1D
100
AcDbEntity
100
AcDbBlockEnd
0
ENDSEC
0
SECTION
2
ENTITIES
0
POINT
5
100
100
AcDbEntity
8
0
100
AcDbPoint
10
154.75000000000003
20
-54.499999999999986
30
0
0
POINT
5
101
100
AcDbEntity
8
0
100
AcDbPoint
10
140.75000000000003
20
-54.499999999999986
30
0
0
POINT
5
102
100
AcDbEntity
8
0
100
AcDbPoint
10
221.4096197001922
20
-54.497613503365692
30
0
0
LINE
5
103
100
AcDbEntity
8
0
100
AcDbLine
10
87.849999999999994
20
50
30
0
11
223.63394402876878
21
50
31
0
0
LINE
5
104
100
AcDbEntity
8
0
100
AcDbLine
10
201.44999999999999
20
-49.999999999999986
30
0
11
155.75000000000009
21
-49.999999999999986
31
0
0
LINE
5
105
100
AcDbEntity
8
0
100
AcDbLine
10
154.75000000000003
20
-51.000000000000028
30
0
11
154.75000000000003
21
-53.499999999999936
31
0
0
LINE
5
106
100
AcDbEntity
8
0
100
AcDbLine
10
153.74999999999997
20
-54.499999999999986
30
0
11
141.75000000000009
21
-54.499999999999986
31
0
0
LINE
5
107
100
AcDbEntity
8
0
100
AcDbLine
10
140.75000000000003
20
-53.499999999999936
30
0
11
140.75000000000003
21
-51.000000000000028
31
0
0
LINE
5
108
100
AcDbEntity
8
0
100
AcDbLine
10
90.414071957841117
20
-49.999999999999986
30
0
11
139.74999999999997
21
-49.999999999999986
31
0
0
LINE
5
109
100
AcDbEntity
8
0
100
AcDbLine
10
155.75000000000009
20
-49.999999999999986
30
0
11
201.44999999999999
21
-49.999999999999986
31
0
0
LINE
5
110
100
AcDbEntity
8
0
100
AcDbLine
10
87.849999999999994
20
-49.999999999999986
30
0
11
35.250000000000028
21
-49.999999999999986
31
0
0
LINE
5
111
100
AcDbEntity
8
0
100
AcDbLine
10
19.249999999999918
20
-49.999999999999986
30
0
11
-26.749999999999972
21
-49.999999999999986
31
0
0
LINE
5
112
100
AcDbEntity
8
0
100
AcDbLine
10
21.250000000000021
20
-54.499999999999993
30
0
11
33.249999999999929
21
-54.499999999999993
31
0
0
LINE
5
113
100
AcDbEntity
8
0
100
AcDbLine
10
-46.750000000000007
20
-49.999999999999986
30
0
11
-46.750000000000007
21
-53.499999999999943
31
0
0
LINE
5
114
100
AcDbEntity
8
0
100
AcDbLine
10
20.249999999999979
20
-51.000000000000028
30
0
11
20.249999999999979
21
-53.499999999999943
31
0
0
LINE
5
115
100
AcDbEntity
8
0
100
AcDbLine
10
87.849999999999994
20
50
30
0
11
-47.933944028768792
21
50
31
0
0
LINE
5
116
100
AcDbEntity
8
0
100
AcDbLine
10
-45.749999999999957
20
-54.499999999999993
30
0
11
-28.750000000000071
21
-54.499999999999993
31
0
0
LINE
5
117
100
AcDbEntity
8
0
100
AcDbLine
10
34.249999999999972
20
-53.499999999999943
30
0
11
34.249999999999979
21
-51.000000000000028
31
0
0
LINE
5
118
100
AcDbEntity
8
0
100
AcDbLine
10
-27.750000000000021
20
-49.999999999999986
30
0
11
20.249999999999979
21
-49.999999999999986
31
0
0
LINE
5
119
100
AcDbEntity
8
0
100
AcDbLine
10
-49.932888614781028
20
47.935034300954598
30
0
11
-46.750000000000007
21
-49.999999999999986
31
0
0
LINE
5
120
100
AcDbEntity
8
0
100
AcDbLine
10
-27.750000000000025
20
-53.499999999999943
30
0
11
-27.750000000000018
21
-51.000000000000028
31
0
0
ARC
5
121
100
AcDbEntity
8
0
100
AcDbCircle
10
201.44999999999999
20
-51.000000000000028
30
0
40
1.0000000000000497
210
0
220
-0
230
1
100
AcDbArc
50
0
51
90
0
ARC
5
122
100
AcDbEntity
8
0
100
AcDbCircle
10
155.75000000000009
20
-51.000000000000028
30
0
40
1.0000000000000497
210
0
220
-0
230
1
100
AcDbArc
50
90
51
180
0
ARC
5
123
100
AcDbEntity
8
0
100
AcDbCircle
10
153.74999999999997
20
-53.499999999999936
30
0
40
1.0000000000000497
210
0
220
0
230
1
100
AcDbArc
50
-90
51
0
0
ARC
5
124
100
AcDbEntity
8
0
100
AcDbCircle
10
141.75000000000009
20
-53.499999999999936
30
0
40
1.0000000000000497
210
0
220
0
230
1
100
AcDbArc
50
180
51
270
0
ARC
5
125
100
AcDbEntity
8
0
100
AcDbCircle
10
139.74999999999997
20
-51.000000000000028
30
0
40
1.0000000000000497
210
0
220
0
230
1
100
AcDbArc
50
0
51
90
0
ARC
5
126
100
AcDbEntity
8
0
100
AcDbCircle
10
35.250000000000028
20
-51.000000000000028
30
0
40
1.0000000000000497
210
0
220
-0
230
1
100
AcDbArc
50
90
51
180
0
ARC
5
127
100
AcDbEntity
8
0
100
AcDbCircle
10
33.249999999999922
20
-53.499999999999943
30
0
40
1.0000000000000497
210
0
220
0
230
1
100
AcDbArc
50
-89.999999999999588
51
0
0
ARC
5
128
100
AcDbEntity
8
0
100
AcDbCircle
10
21.250000000000028
20
-53.499999999999943
30
0
40
1.0000000000000497
210
0
220
0
230
1
100
AcDbArc
50
180
51
269.9999999999996
0
ARC
5
129
100
AcDbEntity
8
0
100
AcDbCircle
10
19.249999999999918
20
-51.000000000000043
30
0
40
1.0000000000000586
210
0
220
-0
230
1
100
AcDbArc
50
0
51
90
0
ARC
5
130
100
AcDbEntity
8
0
100
AcDbCircle
10
-26.749999999999968
20
-51.000000000000028
30
0
40
1.0000000000000497
210
0
220
0
230
1
100
AcDbArc
50
90.000000000000199
51
180
0
ARC
5
131
100
AcDbEntity
8
0
100
AcDbCircle
10
-28.750000000000075
20
-53.499999999999943
30
0
40
1.0000000000000497
210
0
220
0
230
1
100
AcDbArc
50
-89.999999999999801
51
0
0
ARC
5
132
100
AcDbEntity
8
0
100
AcDbCircle
10
-45.749999999999957
20
-53.499999999999943
30
0
40
1.0000000000000497
210
0
220
0
230
1
100
AcDbArc
50
180
51
270
0
ARC
5
133
100
AcDbEntity
8
0
100
AcDbCircle
10
-47.933944028768806
20
47.999999999999986
30
0
40
2.0000000000000107
210
0
220
-0
230
1
100
AcDbArc
50
89.999999999999588
51
181.86145763046648
0
ARC
5
134
100
AcDbEntity
8
0
100
AcDbCircle
10
223.63394402876878
20
47.999999999999964
30
0
40
2.0000000000000706
210
-0
220
0
230
1
100
AcDbArc
50
-2.7974785172107404
51
90
0
LINE
5
135
100
AcDbEntity
8
0
100
AcDbLine
10
90.414071957841117
20
-49.999999999999986
30
0
11
87.849999999999994
21
-49.999999999999986
31
0
0
LINE
5
136
100
AcDbEntity
8
0
100
AcDbLine
10
186.28506866097456
20
-49.999999999999993
30
0
11
201.44999999999999
21
-49.999999999999986
31
0
0
LINE
5
137
100
AcDbEntity
8
0
100
AcDbLine
10
225.63156060109591
20
47.902388371777285
30
0
11
221.59499671438971
21
-50.001433417714409
31
0
0
LINE
5
138
100
AcDbEntity
8
0
100
AcDbLine
10
221.59499671438971
20
-50.001433417714409
30
0
11
221.44915113014474
21
-53.538808395409639
31
0
0
LINE
5
139
100
AcDbEntity
8
0
100
AcDbLine
10
220.45000000000005
20
-54.497613503365692
30
0
11
203.45000000000005
21
-54.497613503365699
31
0
0
LINE
5
140
100
AcDbEntity
8
0
100
AcDbLine
10
202.45000000000005
20
-53.497613503365706
30
0
11
202.45000000000005
21
-50.999999999999979
31
0
0
ARC
5
141
100
AcDbEntity
8
0
100
AcDbCircle
10
203.45000000000005
20
-53.497613503365677
30
0
40
1.0000000000000142
210
0
220
0
230
1
100
AcDbArc
50
180
51
270
0
ARC
5
142
100
AcDbEntity
8
0
100
AcDbCircle
10
220.45000000000005
20
-53.497613503365741
30
0
40
0.99999999999995204
210
0
220
0
230
1
100
AcDbArc
50
270
51
357.6390384608809
0
ENDSEC
0
SECTION
2
OBJECTS
0
DICTIONARY
5
C
100
AcDbDictionary
3
ACAD_GROUP
350
D
3
ACAD_MLINESTYLE
350
17
0
DICTIONARY
5
D
100
AcDbDictionary
0
DICTIONARY
5
1A
330
C
100
AcDbDictionary
0
DICTIONARY
5
17
100
AcDbDictionary
0
ENDSEC
0
EOF
