  0
SECTION
  2
HEADER
  9
$ACADVER
  1
AC1009
  0
ENDSEC
  0
SECTION
  2
TABLES
  0
TABLE
  2
LAYER
  70
1
  0
LAYER
  2
Layer_5
  70
0
  62
30
  6
CONTINUOUS
  0
ENDTAB
  0
ENDSEC
  0
SECTION
  2
ENTITIES
  0
POLYLINE
  5
90
  8
Layer_5
  62
30
  70
1
  66
1
  10
0
  20
0
  30
0
  0
VERTEX
  5
90
  8
Layer_5
  10
5.7730484
  20
200.22183
  0
VERTEX
  5
91
  8
Layer_5
  10
294.97754
  20
200.21371
  0
VERTEX
  5
92
  8
Layer_5
  10
296.375
  20
200.21912
  42
-0.20370795
  0
VERTEX
  5
93
  8
Layer_5
  10
297.10873
  20
199.91049
  42
-0.20380244
  0
VERTEX
  5
94
  8
Layer_5
  10
297.39572
  20
199.16794
  0
VERTEX
  5
95
  8
Layer_5
  10
287.0159
  20
103.57437
  42
-0.40340706
  0
VERTEX
  5
96
  8
Layer_5
  10
285.49649
  20
102.09897
  0
VERTEX
  5
97
  8
Layer_5
  10
267.58044
  20
102.02133
  42
-0.19885796
  0
VERTEX
  5
98
  8
Layer_5
  10
266.85983
  20
102.31653
  42
-0.19880005
  0
VERTEX
  5
99
  8
Layer_5
  10
266.55911
  20
103.03482
  0
VERTEX
  5
9a
  8
Layer_5
  10
266.55365
  20
104.44449
  42
0.41414613
  0
VERTEX
  5
9b
  8
Layer_5
  10
266.07364
  20
104.92081
  0
VERTEX
  5
9c
  8
Layer_5
  10
222.65781
  20
104.75244
  42
0.41423749
  0
VERTEX
  5
9d
  8
Layer_5
  10
221.64436
  20
103.73111
  0
VERTEX
  5
9e
  8
Layer_5
  10
221.65085
  20
102.05569
  42
-0.40429619
  0
VERTEX
  5
9f
  8
Layer_5
  10
220.67204
  20
101.0351
  0
VERTEX
  5
a0
  8
Layer_5
  10
204.50206
  20
100.42128
  42
-0.41421866
  0
VERTEX
  5
a1
  8
Layer_5
  10
202.91919
  20
101.88837
  0
VERTEX
  5
a2
  8
Layer_5
  10
202.84741
  20
103.77994
  42
0.4042384
  0
VERTEX
  5
a3
  8
Layer_5
  10
201.8268
  20
104.75876
  0
VERTEX
  5
a4
  8
Layer_5
  10
103.44476
  20
104.37729
  42
0.41422144
  0
VERTEX
  5
a5
  8
Layer_5
  10
101.9246
  20
102.84529
  0
VERTEX
  5
a6
  8
Layer_5
  10
101.93233
  20
100.85645
  42
-0.41420558
  0
VERTEX
  5
a7
  8
Layer_5
  10
100.91889
  20
99.835098
  0
VERTEX
  5
a8
  8
Layer_5
  10
85.370338
  20
99.774811
  42
-0.37670661
  0
VERTEX
  5
a9
  8
Layer_5
  10
84.358078
  20
100.65668
  0
VERTEX
  5
aa
  8
Layer_5
  10
84.106117
  20
102.53081
  42
0.3767028
  0
VERTEX
  5
ab
  8
Layer_5
  10
82.081596
  20
104.29446
  0
VERTEX
  5
ac
  8
Layer_5
  10
40.197132
  20
104.13208
  42
0.4142076
  0
VERTEX
  5
ad
  8
Layer_5
  10
39.183697
  20
103.11078
  0
VERTEX
  5
ae
  8
Layer_5
  10
39.188457
  20
101.87985
  42
-0.41421745
  0
VERTEX
  5
af
  8
Layer_5
  10
38.175018
  20
100.85849
  0
VERTEX
  5
b0
  8
Layer_5
  10
19.870703
  20
99.985168
  42
-0.40519442
  0
VERTEX
  5
b1
  8
Layer_5
  10
17.318907
  20
102.44022
  0
VERTEX
  5
b2
  8
Layer_5
  10
2.7943726
  20
198.11972
  42
-0.20391083
  0
VERTEX
  5
b3
  8
Layer_5
  10
3.3669112
  20
199.60669
  42
-0.20393547
  0
VERTEX
  5
b4
  8
Layer_5
  10
4.8353348
  20
200.22519
  0
SEQEND
  0
ENDSEC
  0
EOF
