  0
SECTION
  2
HEADER
  9
$ACADVER
  1
AC1009
  0
ENDSEC
  0
SECTION
  2
TABLES
  0
TABLE
  2
LAYER
  70
1
  0
LAYER
  2
Layer_1
  70
0
  62
5
  6
CONTINUOUS
  0
ENDTAB
  0
ENDSEC
  0
SECTION
  2
ENTITIES
  0
POLYLINE
  5
90
  8
Layer_1
  62
5
  70
1
  66
1
  10
0
  20
0
  30
0
  0
VERTEX
  5
90
  8
Layer_1
  10
5.6583939
  20
110.80409
  0
VERTEX
  5
91
  8
Layer_1
  10
294.75171
  20
124.56679
  0
VERTEX
  5
92
  8
Layer_1
  10
296.14728
  20
124.63872
  42
-0.20369492
  0
VERTEX
  5
93
  8
Layer_1
  10
296.8949
  20
124.36534
  42
-0.20377574
  0
VERTEX
  5
94
  8
Layer_1
  10
297.21686
  20
123.63731
  0
VERTEX
  5
95
  8
Layer_1
  10
291.39746
  20
27.658112
  42
-0.40341233
  0
VERTEX
  5
96
  8
Layer_1
  10
289.95001
  20
26.112076
  0
VERTEX
  5
97
  8
Layer_1
  10
272.05792
  20
25.182022
  42
-0.19889071
  0
VERTEX
  5
98
  8
Layer_1
  10
271.3241
  20
25.442612
  42
-0.19888394
  0
VERTEX
  5
99
  8
Layer_1
  10
270.98956
  20
26.145737
  0
VERTEX
  5
9a
  8
Layer_1
  10
270.91699
  20
27.553558
  42
0.41421367
  0
VERTEX
  5
9b
  8
Layer_1
  10
270.41486
  20
28.0065
  0
VERTEX
  5
9c
  8
Layer_1
  10
227.05626
  20
25.772491
  42
0.4142136
  0
VERTEX
  5
9d
  8
Layer_1
  10
226.09254
  20
24.704071
  0
VERTEX
  5
9e
  8
Layer_1
  10
226.17877
  20
23.030853
  42
-0.40427933
  0
VERTEX
  5
9f
  8
Layer_1
  10
225.24965
  20
21.964844
  0
VERTEX
  5
a0
  8
Layer_1
  10
209.12718
  20
20.582291
  42
-0.41421356
  0
VERTEX
  5
a1
  8
Layer_1
  10
207.47629
  20
21.972412
  0
VERTEX
  5
a2
  8
Layer_1
  10
207.31456
  20
23.858429
  42
0.40425509
  0
VERTEX
  5
a3
  8
Layer_1
  10
206.24855
  20
24.787552
  0
VERTEX
  5
a4
  8
Layer_1
  10
107.99609
  20
19.725174
  42
0.41421885
  0
VERTEX
  5
a5
  8
Layer_1
  10
106.55055
  20
18.122589
  0
VERTEX
  5
a6
  8
Layer_1
  10
106.6529
  20
16.136322
  42
-0.41422151
  0
VERTEX
  5
a7
  8
Layer_1
  10
105.68921
  20
15.067947
  0
VERTEX
  5
a8
  8
Layer_1
  10
90.16114
  20
14.267868
  42
-0.37670577
  0
VERTEX
  5
a9
  8
Layer_1
  10
89.10807
  20
15.10054
  0
VERTEX
  5
aa
  8
Layer_1
  10
88.76722
  20
16.960587
  42
0.37669671
  0
VERTEX
  5
ab
  8
Layer_1
  10
86.661057
  20
18.625931
  0
VERTEX
  5
ac
  8
Layer_1
  10
44.831779
  20
16.470688
  42
0.4142235
  0
VERTEX
  5
ad
  8
Layer_1
  10
43.868092
  20
15.402328
  0
VERTEX
  5
ae
  8
Layer_1
  10
43.931423
  20
14.173004
  42
-0.41421354
  0
VERTEX
  5
af
  8
Layer_1
  10
42.967731
  20
13.104599
  0
VERTEX
  5
b0
  8
Layer_1
  10
24.7257
  20
11.361282
  42
-0.40519448
  0
VERTEX
  5
b1
  8
Layer_1
  10
22.059975
  20
13.692139
  0
VERTEX
  5
b2
  8
Layer_1
  10
2.7831163
  20
108.56267
  42
-0.20392568
  0
VERTEX
  5
b3
  8
Layer_1
  10
3.2842512
  20
110.07518
  42
-0.20391102
  0
VERTEX
  5
b4
  8
Layer_1
  10
4.7215805
  20
110.76286
  0
SEQEND
  0
POLYLINE
  5
b6
  8
Layer_1
  62
5
  70
1
  66
1
  10
0
  20
0
  30
0
  0
VERTEX
  5
b6
  8
Layer_1
  10
4.6584091
  20
220.80409
  0
VERTEX
  5
b7
  8
Layer_1
  10
293.75171
  20
234.56679
  0
VERTEX
  5
b8
  8
Layer_1
  10
295.14731
  20
234.63872
  42
-0.20369492
  0
VERTEX
  5
b9
  8
Layer_1
  10
295.8949
  20
234.36534
  42
-0.20377574
  0
VERTEX
  5
ba
  8
Layer_1
  10
296.21689
  20
233.63731
  0
VERTEX
  5
bb
  8
Layer_1
  10
290.39746
  20
137.65811
  42
-0.40341233
  0
VERTEX
  5
bc
  8
Layer_1
  10
288.95001
  20
136.11208
  0
VERTEX
  5
bd
  8
Layer_1
  10
271.05792
  20
135.18202
  42
-0.19889071
  0
VERTEX
  5
be
  8
Layer_1
  10
270.32413
  20
135.44261
  42
-0.19888394
  0
VERTEX
  5
bf
  8
Layer_1
  10
269.98956
  20
136.14574
  0
VERTEX
  5
c0
  8
Layer_1
  10
269.91699
  20
137.55356
  42
0.41421367
  0
VERTEX
  5
c1
  8
Layer_1
  10
269.41489
  20
138.0065
  0
VERTEX
  5
c2
  8
Layer_1
  10
226.05627
  20
135.77249
  42
0.4142136
  0
VERTEX
  5
c3
  8
Layer_1
  10
225.09256
  20
134.70407
  0
VERTEX
  5
c4
  8
Layer_1
  10
225.17879
  20
133.03085
  42
-0.40427933
  0
VERTEX
  5
c5
  8
Layer_1
  10
224.24966
  20
131.96484
  0
VERTEX
  5
c6
  8
Layer_1
  10
208.1272
  20
130.58229
  42
-0.41421356
  0
VERTEX
  5
c7
  8
Layer_1
  10
206.4763
  20
131.97241
  0
VERTEX
  5
c8
  8
Layer_1
  10
206.31458
  20
133.85843
  42
0.40425509
  0
VERTEX
  5
c9
  8
Layer_1
  10
205.24857
  20
134.78755
  0
VERTEX
  5
ca
  8
Layer_1
  10
106.99611
  20
129.72517
  42
0.41421886
  0
VERTEX
  5
cb
  8
Layer_1
  10
105.55057
  20
128.12259
  0
VERTEX
  5
cc
  8
Layer_1
  10
105.65292
  20
126.13634
  42
-0.41421753
  0
VERTEX
  5
cd
  8
Layer_1
  10
104.68922
  20
125.06795
  0
VERTEX
  5
ce
  8
Layer_1
  10
89.161156
  20
124.26787
  42
-0.37670577
  0
VERTEX
  5
cf
  8
Layer_1
  10
88.108086
  20
125.10054
  0
VERTEX
  5
d0
  8
Layer_1
  10
87.767235
  20
126.96059
  42
0.37669671
  0
VERTEX
  5
d1
  8
Layer_1
  10
85.661072
  20
128.62593
  0
VERTEX
  5
d2
  8
Layer_1
  10
43.831795
  20
126.47069
  42
0.4142235
  0
VERTEX
  5
d3
  8
Layer_1
  10
42.868107
  20
125.40233
  0
VERTEX
  5
d4
  8
Layer_1
  10
42.931438
  20
124.173
  42
-0.41421354
  0
VERTEX
  5
d5
  8
Layer_1
  10
41.967747
  20
123.1046
  0
VERTEX
  5
d6
  8
Layer_1
  10
23.725716
  20
121.36128
  42
-0.40519448
  0
VERTEX
  5
d7
  8
Layer_1
  10
21.05999
  20
123.69214
  0
VERTEX
  5
d8
  8
Layer_1
  10
1.7831316
  20
218.56267
  42
-0.20392568
  0
VERTEX
  5
d9
  8
Layer_1
  10
2.2842665
  20
220.07518
  42
-0.20391102
  0
VERTEX
  5
da
  8
Layer_1
  10
3.7215958
  20
220.76286
  0
SEQEND
  0
ENDSEC
  0
EOF
