0
SECTION
2
HEADER
9
$INSUNITS
70
4
9
$ACADVER
1
AC1014
9
$HANDSEED
5
FFFF
0
ENDSEC
0
SECTION
2
TABLES
0
TABLE
2
VPORT
5
8
100
AcDbSymbolTable
0
ENDTAB
0
TABLE
2
LTYPE
5
5
100
AcDbSymbolTable
0
LTYPE
5
14
100
AcDbSymbolTableRecord
100
AcDbLinetypeTableRecord
2
BYBLOCK
70
0
0
LTYPE
5
15
100
AcDbSymbolTableRecord
100
AcDbLinetypeTableRecord
2
BYLAYER
70
0
0
LTYPE
5
16
100
AcDbSymbolTableRecord
100
AcDbLinetypeTableRecord
2
DASHED
70
0
3
Dashed __ __ __ __ __ __ __ __ __ __ __ __ __ _
72
65
73
2
40
0.75
49
0.5
74
0
49
-0.25
74
0
0
ENDTAB
0
TABLE
2
LAYER
5
2
100
AcDbSymbolTable
70
2
0
LAYER
5
50
100
AcDbSymbolTableRecord
100
AcDbLayerTableRecord
2
0
70
0
62
7
6
CONTINUOUS
0
ENDTAB
0
TABLE
2
STYLE
5
3
100
AcDbSymbolTable
70
1
0
STYLE
5
11
100
AcDbSymbolTableRecord
100
AcDbTextStyleTableRecord
2
STANDARD
70
0
0
ENDTAB
0
TABLE
2
VIEW
5
6
100
AcDbSymbolTable
70
0
0
ENDTAB
0
TABLE
2
UCS
5
7
100
AcDbSymbolTable
70
0
0
ENDTAB
0
TABLE
2
APPID
5
9
100
AcDbSymbolTable
70
2
0
APPID
5
12
100
AcDbSymbolTableRecord
100
AcDbRegAppTableRecord
2
ACAD
70
0
0
ENDTAB
0
TABLE
2
DIMSTYLE
5
A
100
AcDbSymbolTable
70
1
0
ENDTAB
0
TABLE
2
BLOCK_RECORD
5
1
100
AcDbSymbolTable
70
1
0
BLOCK_RECORD
5
1F
100
AcDbSymbolTableRecord
100
AcDbBlockTableRecord
2
*MODEL_SPACE
0
BLOCK_RECORD
5
1B
100
AcDbSymbolTableRecord
100
AcDbBlockTableRecord
2
*PAPER_SPACE
0
ENDTAB
0
ENDSEC
0
SECTION
2
BLOCKS
0
BLOCK
5
20
100
AcDbEntity
100
AcDbBlockBegin
2
*MODEL_SPACE
0
ENDBLK
5
21
100
AcDbEntity
100
AcDbBlockEnd
0
BLOCK
5
1C
100
AcDbEntity
100
AcDbBlockBegin
2
*PAPER_SPACE
0
ENDBLK
5
1D
100
AcDbEntity
100
AcDbBlockEnd
0
ENDSEC
0
SECTION
2
ENTITIES
0
ARC
5
100
100
AcDbEntity
8
0
100
AcDbCircle
10
193.7784800950518
20
203.92534251801118
30
0
40
1.0000625170828867
210
-0
220
0
230
1
100
AcDbArc
50
-0.28775230485692849
51
44.854059558391249
0
LINE
5
101
100
AcDbEntity
8
0
100
AcDbLine
10
194.77853000000005
20
203.91902000000002
30
0
11
194.77853000000005
21
203.92032
31
0
0
LINE
5
102
100
AcDbEntity
8
0
100
AcDbLine
10
26.348065999999996
20
202.99646000000001
30
0
11
26.330395000000006
21
201.53658000000004
31
0
0
LINE
5
103
100
AcDbEntity
8
0
100
AcDbLine
10
191.08569
20
204.89417000000003
30
0
11
190.81726
21
204.89417000000003
31
0
0
ARC
5
104
100
AcDbEntity
8
0
100
AcDbCircle
10
-7.7104653727439523
20
201.74011139014897
30
0
40
1.0000253178047789
210
-0
220
0
230
-1
100
AcDbArc
50
271.50272021970602
51
354.89799577465897
0
LINE
5
105
100
AcDbEntity
8
0
100
AcDbLine
10
257.66449
20
203.19553999999999
30
0
11
257.68182000000002
21
201.73433000000003
31
0
0
LINE
5
106
100
AcDbEntity
8
0
100
AcDbLine
10
70.51265699999999
20
204.72496000000004
30
0
11
69.700226000000001
21
204.72496000000004
31
0
0
ARC
5
107
100
AcDbEntity
8
0
100
AcDbCircle
10
258.68182182244885
20
201.74648027780353
30
0
40
1.0002679295406363
210
0
220
0
230
1
100
AcDbArc
50
226.01135940815192
51
271.32548304130012
0
LINE
5
108
100
AcDbEntity
8
0
100
AcDbLine
10
194.77100000000002
20
201.73915
30
0
11
194.76978000000003
21
202.12963999999999
31
0
0
LINE
5
109
100
AcDbEntity
8
0
100
AcDbLine
10
258.70496000000003
20
200.74647999999999
30
0
11
259.03829999999999
21
200.75420000000003
31
0
0
LINE
5
110
100
AcDbEntity
8
0
100
AcDbLine
10
71.976996999999997
20
204.74536000000001
30
0
11
70.51265699999999
21
204.72496000000004
31
0
0
ARC
5
111
100
AcDbEntity
8
0
100
AcDbCircle
10
193.77853060397069
20
203.92534513219351
30
0
40
1.0000248678066823
210
0
220
-0
230
1
100
AcDbArc
50
44.855994440497902
51
90.000034604110169
0
LINE
5
112
100
AcDbEntity
8
0
100
AcDbLine
10
87.278594999999996
20
200.48705000000001
30
0
11
86.515640000000005
21
200.48705000000001
31
0
0
LINE
5
113
100
AcDbEntity
8
0
100
AcDbLine
10
277.96398999999997
20
203.67953
30
0
11
277.84766000000002
21
201.74496000000005
31
0
0
LINE
5
114
100
AcDbEntity
8
0
100
AcDbLine
10
211.40777999999997
20
204.92812000000001
30
0
11
256.70760999999999
21
205.07578999999998
31
0
0
ARC
5
115
100
AcDbEntity
8
0
100
AcDbCircle
10
258.68161038177669
20
201.74611720510575
30
0
40
0.99985986302946528
210
0
220
0
230
1
100
AcDbArc
50
180.67546740694871
51
226.0056271420988
0
LINE
5
116
100
AcDbEntity
8
0
100
AcDbLine
10
1.1737406000000001
20
299.23291
30
0
11
1.1526656000000002
21
299.23334
31
0
0
LINE
5
117
100
AcDbEntity
8
0
100
AcDbLine
10
192.61556999999999
20
204.89417000000003
30
0
11
191.08569
21
204.89417000000003
31
0
0
ARC
5
118
100
AcDbEntity
8
0
100
AcDbCircle
10
-208.64743922390329
20
201.75026918244842
30
0
40
1.0550533460514901
210
0
220
-0
230
-1
100
AcDbArc
50
182.35695979751313
51
267.95164040753673
0
LINE
5
119
100
AcDbEntity
8
0
100
AcDbLine
10
190.81726
20
204.89417000000003
30
0
11
189.38683999999998
21
204.89417000000003
31
0
0
LINE
5
120
100
AcDbEntity
8
0
100
AcDbLine
10
141.68261999999999
20
300
30
0
11
276.3231741904421
21
299.87126959516689
31
0
0
ARC
5
121
100
AcDbEntity
8
0
100
AcDbCircle
10
-256.6610533159041
20
204.07643033387365
30
0
40
1.0000542484654478
210
0
220
0
230
-1
100
AcDbArc
50
90.47649054209397
51
179.77715007460387
0
ARC
5
122
100
AcDbEntity
8
0
100
AcDbCircle
10
-256.72286571600091
20
199.48808269615046
30
0
40
5.5877281296036694
210
0
220
0
230
-1
100
AcDbArc
50
89.843569836263541
51
90.434709204971597
0
LINE
5
123
100
AcDbEntity
8
0
100
AcDbLine
10
276.32236
20
200.80391000000003
30
0
11
258.83904999999999
21
200.75513999999998
31
0
0
ARC
5
124
100
AcDbEntity
8
0
100
AcDbCircle
10
71.976996995948937
20
203.74535999594897
30
0
40
1.0000000040510582
210
0
220
-0
230
1
100
AcDbArc
50
0
51
89.999999767891367
0
ARC
5
125
100
AcDbEntity
8
0
100
AcDbCircle
10
210.86741563859835
20
203.86209361078465
30
0
40
1.0498154452385464
210
0
220
0
230
1
100
AcDbArc
50
133.65145014776553
51
177.4992306788773
0
LINE
5
126
100
AcDbEntity
8
0
100
AcDbLine
10
88.305092000000002
20
203.46683000000002
30
0
11
88.27859500000001
21
201.73721
31
0
0
ARC
5
127
100
AcDbEntity
8
0
100
AcDbCircle
10
26.827152318744165
20
204.39102447884494
30
0
40
0.47370903156488864
210
0
220
-0
230
1
100
AcDbArc
50
89.779422619625137
51
179.77315246246192
0
ARC
5
128
100
AcDbEntity
8
0
100
AcDbCircle
10
-276.84947655375504
20
201.80497605965272
30
0
40
0.99998605978971078
210
0
220
-0
230
-1
100
AcDbArc
50
183.44078260201036
51
270.00094847351954
0
LINE
5
129
100
AcDbEntity
8
0
100
AcDbLine
10
69.700226000000001
20
204.72496000000004
30
0
11
26.828976000000004
21
204.86473000000004
31
0
0
LINE
5
130
100
AcDbEntity
8
0
100
AcDbLine
10
276.84946000000002
20
200.80499
30
0
11
276.56442000000004
21
200.80499000000003
31
0
0
LINE
5
131
100
AcDbEntity
8
0
100
AcDbLine
10
276.56442000000004
20
200.80499000000003
30
0
11
276.32236
21
200.80391000000003
31
0
0
LINE
5
132
100
AcDbEntity
8
0
100
AcDbLine
10
6.7315930440995331
20
201.45856511436975
30
0
11
0.43969632416349425
21
291.76234462894934
31
0
0
LINE
5
133
100
AcDbEntity
8
0
100
AcDbLine
10
6.714402200000011
20
201.65118000000004
30
0
11
6.7315930440995331
21
201.45856511436975
31
0
0
LINE
5
134
100
AcDbEntity
8
0
100
AcDbLine
10
86.515640000000005
20
200.48705000000001
30
0
11
73.946617000000003
21
200.56857000000002
31
0
0
ARC
5
135
100
AcDbEntity
8
0
100
AcDbCircle
10
-195.77100000403857
20
201.74226000406378
30
0
40
1.000004840089477
210
0
220
-0
230
-1
100
AcDbArc
50
269.82181093231549
51
359.82181046808768
0
LINE
5
136
100
AcDbEntity
8
0
100
AcDbLine
10
193.77853000000002
20
204.92537000000002
30
0
11
192.61556999999999
21
204.89417000000003
31
0
0
LINE
5
137
100
AcDbEntity
8
0
100
AcDbLine
10
7.0381744875282184
20
299.23932911896878
30
0
11
141.68261999999999
21
300
31
0
0
ARC
5
138
100
AcDbEntity
8
0
100
AcDbCircle
10
-87.278594995948879
20
201.48705000405113
30
0
40
1.0000000040511203
210
0
220
-0
230
-1
100
AcDbArc
50
180
51
269.99999976788808
0
LINE
5
139
100
AcDbEntity
8
0
100
AcDbLine
10
194.77899000000002
20
203.99313000000004
30
0
11
194.77853000000005
21
203.91902000000002
31
0
0
LINE
5
140
100
AcDbEntity
8
0
100
AcDbLine
10
71.51265699999999
20
203.70373999999998
30
0
11
71.51265699999999
21
203.72496000000001
31
0
0
ARC
5
141
100
AcDbEntity
8
0
100
AcDbCircle
10
-25.330469978609319
20
201.54867882321543
30
0
40
0.99999821496158992
210
0
220
-0
230
-1
100
AcDbArc
50
180.69322965815761
51
270.24831990346098
0
LINE
5
142
100
AcDbEntity
8
0
100
AcDbLine
10
25.326135999999998
20
200.54869000000002
30
0
11
8.0422869000000006
21
200.73105000000001
31
0
0
LINE
5
143
100
AcDbEntity
8
0
100
AcDbLine
10
26.353446999999971
20
204.3929
30
0
11
26.348065999999996
21
202.99646000000001
31
0
0
LINE
5
144
100
AcDbEntity
8
0
100
AcDbLine
10
88.27859500000001
20
201.73721
30
0
11
88.27859500000001
21
201.48705000000004
31
0
0
ARC
5
145
100
AcDbEntity
8
0
100
AcDbCircle
10
89.312259423363599
20
203.42856325575923
30
0
40
1.0078941226139213
210
0
220
-0
230
1
100
AcDbArc
50
89.780764567548744
51
177.82412657702227
0
LINE
5
146
100
AcDbEntity
8
0
100
AcDbLine
10
283.29593660899496
20
292.33985744092888
30
0
11
277.96398999999997
21
203.67953
31
0
0
LINE
5
147
100
AcDbEntity
8
0
100
AcDbLine
10
72.976990000000001
20
201.57954000000001
30
0
11
72.976996999999997
21
203.72413999999998
31
0
0
LINE
5
148
100
AcDbEntity
8
0
100
AcDbLine
10
1.1667651999999999
20
299.22766000000001
30
0
11
1.1737406000000001
21
299.23291
31
0
0
ARC
5
149
100
AcDbEntity
8
0
100
AcDbCircle
10
-73.984778844132407
20
201.57564358720347
30
0
40
1.0077963764523199
210
-0
220
0
230
-1
100
AcDbArc
50
-87.829883566823497
51
0.22152149966835358
0
LINE
5
150
100
AcDbEntity
8
0
100
AcDbLine
10
194.77853000000005
20
203.89749
30
0
11
194.77853000000005
21
203.91902000000002
31
0
0
LINE
5
151
100
AcDbEntity
8
0
100
AcDbLine
10
189.38683999999998
20
204.89417000000003
30
0
11
142.60361
21
204.71277000000001
31
0
0
LINE
5
152
100
AcDbEntity
8
0
100
AcDbLine
10
256.76526000000001
20
205.07565
30
0
11
256.66937000000007
21
205.07644999999999
31
0
0
LINE
5
153
100
AcDbEntity
8
0
100
AcDbLine
10
8.0422869000000006
20
200.73105000000001
30
0
11
7.684240299999999
21
200.74043000000003
31
0
0
ARC
5
154
100
AcDbEntity
8
0
100
AcDbCircle
10
210.87771576088895
20
203.86424721510693
30
0
40
1.0554049189057233
210
0
220
0
230
1
100
AcDbArc
50
90.44710719145597
51
134.13674930802631
0
LINE
5
155
100
AcDbEntity
8
0
100
AcDbLine
10
142.60361
20
204.71277000000001
30
0
11
89.316116000000022
21
204.43645000000004
31
0
0
LINE
5
156
100
AcDbEntity
8
0
100
AcDbLine
10
209.8186
20
203.90790000000004
30
0
11
209.70160000000004
21
201.70688000000001
31
0
0
LINE
5
157
100
AcDbEntity
8
0
100
AcDbLine
10
208.68515000000002
20
200.69589000000002
30
0
11
195.77411000000001
21
200.74226000000004
31
0
0
LINE
5
158
100
AcDbEntity
8
0
100
AcDbLine
10
257.66109999999998
20
204.08032000000003
30
0
11
257.66449
21
203.19553999999999
31
0
0
LINE
5
159
100
AcDbEntity
8
0
100
AcDbLine
10
194.76978000000003
20
202.12963999999999
30
0
11
194.77899000000002
21
203.99313000000004
31
0
0
LINE
5
160
100
AcDbEntity
8
0
100
AcDbLine
10
283.29593660899496
20
292.33985744092888
30
0
11
283.29999878339567
21
292.40006601029006
31
0
0
ARC
5
161
100
AcDbEntity
8
0
100
AcDbCircle
10
276.31587653550145
20
292.87127340071368
30
0
40
6.9999999984514893
210
-0
220
0
230
1
100
AcDbArc
50
-3.8598037395794424
51
89.940267870817735
0
LINE
5
162
100
AcDbEntity
8
0
100
AcDbLine
10
7.0381744875282184
20
299.23932911896878
30
0
11
7.0593548464647879
21
299.23944877694817
31
0
0
LINE
5
163
100
AcDbEntity
8
0
100
AcDbLine
10
7.0381744875282184
20
299.23932911896878
30
0
11
7.1571268289709362
21
299.24384644589878
31
0
0
ARC
5
164
100
AcDbEntity
8
0
100
AcDbCircle
10
7.4227669216589316
20
292.24888859448043
30
0
40
7.0000000001401776
210
0
220
0
230
1
100
AcDbArc
50
92.174815943459222
51
183.98563012092097
0
ENDSEC
0
SECTION
2
OBJECTS
0
DICTIONARY
5
C
100
AcDbDictionary
3
ACAD_GROUP
350
D
3
ACAD_MLINESTYLE
350
17
0
DICTIONARY
5
D
100
AcDbDictionary
0
DICTIONARY
5
1A
330
C
100
AcDbDictionary
0
DICTIONARY
5
17
100
AcDbDictionary
0
ENDSEC
0
EOF
