0
SECTION
2
HEADER
9
$INSUNITS
70
4
9
$ACADVER
1
AC1014
9
$HANDSEED
5
FFFF
0
ENDSEC
0
SECTION
2
TABLES
0
TABLE
2
VPORT
5
8
100
AcDbSymbolTable
0
ENDTAB
0
TABLE
2
LTYPE
5
5
100
AcDbSymbolTable
0
LTYPE
5
14
100
AcDbSymbolTableRecord
100
AcDbLinetypeTableRecord
2
BYBLOCK
70
0
0
LTYPE
5
15
100
AcDbSymbolTableRecord
100
AcDbLinetypeTableRecord
2
BYLAYER
70
0
0
LTYPE
5
16
100
AcDbSymbolTableRecord
100
AcDbLinetypeTableRecord
2
DASHED
70
0
3
Dashed __ __ __ __ __ __ __ __ __ __ __ __ __ _
72
65
73
2
40
0.75
49
0.5
74
0
49
-0.25
74
0
0
ENDTAB
0
TABLE
2
LAYER
5
2
100
AcDbSymbolTable
70
2
0
LAYER
5
50
100
AcDbSymbolTableRecord
100
AcDbLayerTableRecord
2
0
70
0
62
7
6
CONTINUOUS
0
ENDTAB
0
TABLE
2
STYLE
5
3
100
AcDbSymbolTable
70
1
0
STYLE
5
11
100
AcDbSymbolTableRecord
100
AcDbTextStyleTableRecord
2
STANDARD
70
0
0
ENDTAB
0
TABLE
2
VIEW
5
6
100
AcDbSymbolTable
70
0
0
ENDTAB
0
TABLE
2
UCS
5
7
100
AcDbSymbolTable
70
0
0
ENDTAB
0
TABLE
2
APPID
5
9
100
AcDbSymbolTable
70
2
0
APPID
5
12
100
AcDbSymbolTableRecord
100
AcDbRegAppTableRecord
2
ACAD
70
0
0
ENDTAB
0
TABLE
2
DIMSTYLE
5
A
100
AcDbSymbolTable
70
1
0
ENDTAB
0
TABLE
2
BLOCK_RECORD
5
1
100
AcDbSymbolTable
70
1
0
BLOCK_RECORD
5
1F
100
AcDbSymbolTableRecord
100
AcDbBlockTableRecord
2
*MODEL_SPACE
0
BLOCK_RECORD
5
1B
100
AcDbSymbolTableRecord
100
AcDbBlockTableRecord
2
*PAPER_SPACE
0
ENDTAB
0
ENDSEC
0
SECTION
2
BLOCKS
0
BLOCK
5
20
100
AcDbEntity
100
AcDbBlockBegin
2
*MODEL_SPACE
0
ENDBLK
5
21
100
AcDbEntity
100
AcDbBlockEnd
0
BLOCK
5
1C
100
AcDbEntity
100
AcDbBlockBegin
2
*PAPER_SPACE
0
ENDBLK
5
1D
100
AcDbEntity
100
AcDbBlockEnd
0
ENDSEC
0
SECTION
2
ENTITIES
0
LINE
5
100
100
AcDbEntity
8
0
100
AcDbLine
10
65.828278815877582
20
140.47296705146488
30
0
11
65.845685486821395
21
136.16998371129694
31
0
0
LINE
5
101
100
AcDbEntity
8
0
100
AcDbLine
10
23.44169005801345
20
144.72145877494998
30
0
11
46.19113694965457
21
144.64403669861383
31
0
0
LINE
5
102
100
AcDbEntity
8
0
100
AcDbLine
10
23.522370942557306
20
124.71949459544831
30
0
11
22.142930844227333
21
124.70366397927549
31
0
0
LINE
5
103
100
AcDbEntity
8
0
100
AcDbLine
10
65.521055954539989
20
183.69035962914899
30
0
11
65.853358964180799
21
143.91712918202106
31
0
0
LINE
5
104
100
AcDbEntity
8
0
100
AcDbLine
10
17.426633451102994
20
134.69605178697375
30
0
11
17.547997128110097
21
140.32315618695856
31
0
0
LINE
5
105
100
AcDbEntity
8
0
100
AcDbLine
10
46.19591056149914
20
184.88498066785945
30
0
11
46.204266685480526
21
184.16005133811956
31
0
0
ARC
5
106
100
AcDbEntity
8
0
100
AcDbCircle
10
-61.919746324890269
20
85.422076092826913
30
0
40
4.0002198761626238
210
0
220
0
230
-1
100
AcDbArc
50
179.60746344571109
51
224.87735877542514
0
LINE
5
107
100
AcDbEntity
8
0
100
AcDbLine
10
46.112365588954759
20
140.50487590681198
30
0
11
46.11508549714614
21
136.46078634358906
31
0
0
LINE
5
108
100
AcDbEntity
8
0
100
AcDbLine
10
61.909439463341798
20
81.422003583553405
30
0
11
50.591695570201765
21
81.451810193815817
31
0
0
LINE
5
109
100
AcDbEntity
8
0
100
AcDbLine
10
239.97077350429618
20
52.56363084730858
30
0
11
239.94076922653406
21
57.337171794274155
31
0
0
LINE
5
110
100
AcDbEntity
8
0
100
AcDbLine
10
193.32427171927918
20
51.871068599104603
30
0
11
193.26633158764616
21
57.021817624084399
31
0
0
LINE
5
111
100
AcDbEntity
8
0
100
AcDbLine
10
155.18164041796322
20
164.2192348071016
30
0
11
159.66625891657267
21
164.27091435557162
31
0
0
ARC
5
112
100
AcDbEntity
8
0
100
AcDbCircle
10
119.79038040876182
20
81.147246836234288
30
0
40
4.8717999736696065
210
0
220
0
230
1
100
AcDbArc
50
119.0039422411669
51
160.21822959629142
0
LINE
5
113
100
AcDbEntity
8
0
100
AcDbLine
10
50.161286050718239
20
188.20603491807827
30
0
11
61.478404545024389
21
188.32711561876113
31
0
0
LINE
5
114
100
AcDbEntity
8
0
100
AcDbLine
10
46.19113694965457
20
144.64403669861383
30
0
11
46.19591056149914
21
184.88498066785945
31
0
0
ARC
5
115
100
AcDbEntity
8
0
100
AcDbCircle
10
-32.791187636494115
20
134.52070213471467
30
0
40
4.999963180978634
210
0
220
0
230
-1
100
AcDbArc
50
89.528899973993319
51
179.52953331793327
0
ARC
5
116
100
AcDbEntity
8
0
100
AcDbCircle
10
-81.655658593767669
20
173.18391116002115
30
0
40
3.9825021645586682
210
0
220
0
230
-1
100
AcDbArc
50
77.54085245429259
51
110.43995845258672
0
LINE
5
117
100
AcDbEntity
8
0
100
AcDbLine
10
61.67811189741041
20
124.93052410947081
30
0
11
61.677393370386035
21
124.97228011081093
31
0
0
LINE
5
118
100
AcDbEntity
8
0
100
AcDbLine
10
85.115665330859315
20
166.72875715227741
30
0
11
79.024783704652904
21
169.19037511009404
31
0
0
LINE
5
119
100
AcDbEntity
8
0
100
AcDbLine
10
254.60701922451111
20
189.02994151635971
30
0
11
254.52423141862994
21
189.01916639885602
31
0
0
LINE
5
120
100
AcDbEntity
8
0
100
AcDbLine
10
46.158287153761854
20
129.1187590255725
30
0
11
46.128467277664946
21
133.16274939444807
31
0
0
ARC
5
121
100
AcDbEntity
8
0
100
AcDbCircle
10
138.82031195137071
20
61.017145550309316
30
0
40
8.9998957747786914
210
0
220
0
230
1
100
AcDbArc
50
180.5086302896716
51
269.63443563133637
0
LINE
5
122
100
AcDbEntity
8
0
100
AcDbLine
10
271.71429865301087
20
86.471925019805852
30
0
11
271.2960750672072
21
183.29317182062883
31
0
0
ARC
5
123
100
AcDbEntity
8
0
100
AcDbCircle
10
103.22460494287709
20
189.63378455756958
30
0
40
9.0000105685947229
210
0
220
-0
230
1
100
AcDbArc
50
0.94478854275575463
51
90.94461202045008
0
LINE
5
124
100
AcDbEntity
8
0
100
AcDbLine
10
251.22359171175026
20
57.076026862831277
30
0
11
251.75297768184709
21
115.69281914323216
31
0
0
LINE
5
125
100
AcDbEntity
8
0
100
AcDbLine
10
27.530773551582016
20
130.06939867082943
30
0
11
27.047802943777359
21
129.99775518139879
31
0
0
LINE
5
126
100
AcDbEntity
8
0
100
AcDbLine
10
163.40424582573473
20
184.02296155863218
30
0
11
163.58501632530238
21
155.2708328954499
31
0
0
LINE
5
127
100
AcDbEntity
8
0
100
AcDbLine
10
65.927348557516922
20
125.62674689120605
30
0
11
65.915878639780999
21
86.030262878340494
31
0
0
ARC
5
128
100
AcDbEntity
8
0
100
AcDbCircle
10
101.92153683673595
20
189.61227583648105
30
0
40
9.0000442872285351
210
0
220
0
230
1
100
AcDbArc
50
136.07520733876194
51
181.20601422473672
0
LINE
5
129
100
AcDbEntity
8
0
100
AcDbLine
10
254.69132031640046
20
189.03908775563991
30
0
11
254.60701922451111
21
189.02994151635971
31
0
0
LINE
5
130
100
AcDbEntity
8
0
100
AcDbLine
10
254.77398704178989
20
189.04632251376071
30
0
11
254.69132031640046
21
189.03908775563991
31
0
0
LINE
5
131
100
AcDbEntity
8
0
100
AcDbLine
10
220.22975419707751
20
57.162833732307867
30
0
11
220.2594046596289
21
51.481948290733939
31
0
0
LINE
5
132
100
AcDbEntity
8
0
100
AcDbLine
10
152.90351230565196
20
125.6635310264533
30
0
11
163.7461429655433
21
115.3005837156887
31
0
0
ARC
5
133
100
AcDbEntity
8
0
100
AcDbCircle
10
119.66517584126741
20
70.864592091277231
30
0
40
4.500112933429155
210
0
220
0
230
1
100
AcDbArc
50
179.92436180444926
51
225.21572829585344
0
LINE
5
134
100
AcDbEntity
8
0
100
AcDbLine
10
17.593293479763261
20
129.07013818446904
30
0
11
17.426633451102994
21
134.69605178697375
31
0
0
LINE
5
135
100
AcDbEntity
8
0
100
AcDbLine
10
138.76289028919979
20
52.017432959921067
30
0
11
139.69575456496887
21
52.011482383241521
31
0
0
ARC
5
136
100
AcDbEntity
8
0
100
AcDbCircle
10
-50.602254393809432
20
85.45189127747976
30
0
40
4.0000950194516776
210
-0
220
0
230
-1
100
AcDbArc
50
270.1512405902742
51
315.17469326304985
0
LINE
5
137
100
AcDbEntity
8
0
100
AcDbLine
10
149.37510214879671
20
164.01155136175015
30
0
11
129.52310214879671
21
163.90294504060728
31
0
0
LINE
5
138
100
AcDbEntity
8
0
100
AcDbLine
10
162.71616510831967
20
116.39103974581056
30
0
11
162.5251786226606
21
116.59327134768225
31
0
0
LINE
5
139
100
AcDbEntity
8
0
100
AcDbLine
10
148.79639921764377
20
183.91991786796638
30
0
11
148.65931267528902
21
189.93361738074589
31
0
0
LINE
5
140
100
AcDbEntity
8
0
100
AcDbLine
10
163.7461429655433
20
115.3005837156887
30
0
11
163.40289703445674
21
115.66406628431136
31
0
0
ARC
5
141
100
AcDbEntity
8
0
100
AcDbCircle
10
229.25926204089862
20
51.529001224227294
30
0
40
8.9999803811866936
210
0
220
0
230
1
100
AcDbArc
50
180.29955029569473
51
269.27561316575259
0
ARC
5
142
100
AcDbEntity
8
0
100
AcDbCircle
10
229.97089464731221
20
52.51127583362323
30
0
40
9.9999365665252355
210
0
220
0
230
1
100
AcDbArc
50
270.20731655241582
51
315.25350613129393
0
LINE
5
143
100
AcDbEntity
8
0
100
AcDbLine
10
251.39571617169665
20
185.38883987781173
30
0
11
251.09632893276969
21
213.9033612376121
31
0
0
LINE
5
144
100
AcDbEntity
8
0
100
AcDbLine
10
92.923486242175528
20
189.42284862142
30
0
11
93.042262124533281
21
183.78404041299342
31
0
0
LINE
5
145
100
AcDbEntity
8
0
100
AcDbLine
10
37.79098226045032
20
134.56175733414915
30
0
11
37.788656332651897
21
134.85122815044139
31
0
0
LINE
5
146
100
AcDbEntity
8
0
100
AcDbLine
10
152.73748680052634
20
183.95264242371383
30
0
11
148.79639921764377
21
183.91991786796638
31
0
0
LINE
5
147
100
AcDbEntity
8
0
100
AcDbLine
10
183.36686194072055
20
42.736202719309219
30
0
11
184.69317390122529
21
42.773496957176043
31
0
0
ARC
5
148
100
AcDbEntity
8
0
100
AcDbCircle
10
35.379741985499237
20
134.76852572995961
30
0
40
2.4087708127410292
210
0
220
0
230
1
100
AcDbArc
50
-1.4758111027365579
51
1.9344755534631777
0
LINE
5
149
100
AcDbEntity
8
0
100
AcDbLine
10
256.36642006204085
20
82.135007551948348
30
0
11
256.37664633292286
21
82.137969842822741
31
0
0
ARC
5
150
100
AcDbEntity
8
0
100
AcDbCircle
10
152.90471496502747
20
187.94924428854441
30
0
40
4.0001170237322716
210
0
220
0
230
1
100
AcDbArc
50
224.44406646508625
51
270.40522225447535
0
LINE
5
151
100
AcDbEntity
8
0
100
AcDbLine
10
65.521102366765732
20
184.3320913886383
30
0
11
65.521055954539989
21
183.69035962914899
31
0
0
LINE
5
152
100
AcDbEntity
8
0
100
AcDbLine
10
251.09632893276969
20
213.9033612376121
30
0
11
163.1957328926629
21
213.75941424248344
31
0
0
ARC
5
153
100
AcDbEntity
8
0
100
AcDbCircle
10
267.52518026082691
20
86.517199902139495
30
0
40
4.1893630445098031
210
0
220
0
230
1
100
AcDbArc
50
268.43276117691056
51
359.38078649531099
0
LINE
5
154
100
AcDbEntity
8
0
100
AcDbLine
10
93.435614491348403
20
86.219452928079491
30
0
11
112.71395104450502
21
86.241117541620142
31
0
0
LINE
5
155
100
AcDbEntity
8
0
100
AcDbLine
10
163.58501632530238
20
155.2708328954499
30
0
11
152.82628869076802
21
144.82077875691044
31
0
0
ARC
5
156
100
AcDbEntity
8
0
100
AcDbCircle
10
-50.204034446367061
20
184.20622234520545
30
0
40
4.0000342377187978
210
-0
220
0
230
-1
100
AcDbArc
50
-0.66135998609974778
51
44.362718768248115
0
LINE
5
157
100
AcDbEntity
8
0
100
AcDbLine
10
103.07623218112843
20
198.63257201802156
30
0
11
101.77313029787045
21
198.61110420142433
31
0
0
LINE
5
158
100
AcDbEntity
8
0
100
AcDbLine
10
129.0903294394646
20
183.91412452421545
30
0
11
112.32005498182986
21
183.91781696294049
31
0
0
LINE
5
159
100
AcDbEntity
8
0
100
AcDbLine
10
193.26633158764616
20
57.021817624084399
30
0
11
220.22975419707751
21
57.162833732307867
31
0
0
LINE
5
160
100
AcDbEntity
8
0
100
AcDbLine
10
152.93300540699715
20
183.94922730677473
30
0
11
162.77150817366169
21
184.01898415545617
31
0
0
LINE
5
161
100
AcDbEntity
8
0
100
AcDbLine
10
149.19986298216318
20
199.13007521433258
30
0
11
148.90614230780213
21
188.0552147873135
31
0
0
LINE
5
162
100
AcDbEntity
8
0
100
AcDbLine
10
65.915878639780999
20
86.030262878340494
30
0
11
93.435614491348403
21
86.219452928079491
31
0
0
LINE
5
163
100
AcDbEntity
8
0
100
AcDbLine
10
174.01602644455517
20
57.313459340168187
30
0
11
174.11527681336025
21
51.576966438541973
31
0
0
ARC
5
164
100
AcDbEntity
8
0
100
AcDbCircle
10
-50.204063751476383
20
184.20617622544711
30
0
40
4.0000874356317526
210
0
220
0
230
-1
100
AcDbArc
50
44.362897558886651
51
89.387256286115459
0
ARC
5
165
100
AcDbEntity
8
0
100
AcDbCircle
10
-22.046880299542153
20
140.22625812764738
30
0
40
4.4999265576332244
210
0
220
0
230
-1
100
AcDbArc
50
1.2338599103476475
51
90.195424599476482
0
LINE
5
166
100
AcDbEntity
8
0
100
AcDbLine
10
115.18078767528642
20
82.720762381680132
30
0
11
115.16506682914132
21
70.870532848626326
31
0
0
LINE
5
167
100
AcDbEntity
8
0
100
AcDbLine
10
139.80711918771539
20
52.006911737277491
30
0
11
140.92192079097026
21
52.037789209912617
31
0
0
ARC
5
168
100
AcDbEntity
8
0
100
AcDbCircle
10
140.67269912283942
20
61.034313722797897
30
0
40
8.9999758194570525
210
0
220
0
230
1
100
AcDbArc
50
-88.413198480406507
51
0.25886625229643861
0
LINE
5
169
100
AcDbEntity
8
0
100
AcDbLine
10
46.602272035396069
20
85.465743806411254
30
0
11
46.599703251080513
21
84.740763205793485
31
0
0
LINE
5
170
100
AcDbEntity
8
0
100
AcDbLine
10
46.599703251080513
20
84.740763205793485
30
0
11
46.270494118356893
21
124.98036152177161
31
0
0
LINE
5
171
100
AcDbEntity
8
0
100
AcDbLine
10
71.758090182968573
20
144.83853099385016
30
0
11
75.77888995109204
21
144.8544616318558
31
0
0
ARC
5
172
100
AcDbEntity
8
0
100
AcDbCircle
10
254.91662416678747
20
185.9152910259003
30
0
40
3.1285802530297389
210
0
220
0
230
1
100
AcDbArc
50
97.205125575572367
51
155.71305282343025
0
LINE
5
173
100
AcDbEntity
8
0
100
AcDbLine
10
129.02505531490294
20
189.59970738220474
30
0
11
129.0903294394646
21
183.91412452421545
31
0
0
ARC
5
174
100
AcDbEntity
8
0
100
AcDbCircle
10
139.66165345765825
20
189.72850458201688
30
0
40
8.9999968142671065
210
0
220
-0
230
1
100
AcDbArc
50
1.3059021585179773
51
90.893629177098717
0
ARC
5
175
100
AcDbEntity
8
0
100
AcDbCircle
10
-80.457213671092603
20
173.90891831478393
30
0
40
4.238807853129245
210
0
220
0
230
-1
100
AcDbArc
50
165.83807219323134
51
210.75846565393158
0
LINE
5
176
100
AcDbEntity
8
0
100
AcDbLine
10
27.037559176862338
20
129.99625363040377
30
0
11
32.788437616315264
21
129.99535198775914
31
0
0
LINE
5
177
100
AcDbEntity
8
0
100
AcDbLine
10
229.14547890240823
20
42.529740129051739
30
0
11
230.46502750137134
21
42.513060834834278
31
0
0
ARC
5
178
100
AcDbEntity
8
0
100
AcDbCircle
10
32.789210205488523
20
134.99538453102301
30
0
40
5.0000326029528841
210
0
220
0
230
1
100
AcDbArc
50
269.99114683790754
51
359.99050278304912
0
LINE
5
179
100
AcDbEntity
8
0
100
AcDbLine
10
112.32005498182986
20
183.91781696294049
30
0
11
112.22339194616539
21
189.78218504364079
31
0
0
ARC
5
180
100
AcDbEntity
8
0
100
AcDbCircle
10
183.11389865827073
20
51.732600718378279
30
0
40
8.9999537432101366
210
0
220
0
230
1
100
AcDbArc
50
226.30074377692651
51
271.61063466786896
0
LINE
5
181
100
AcDbEntity
8
0
100
AcDbLine
10
163.79728396424252
20
86.547931062449322
30
0
11
163.7461429655433
21
115.3005837156887
31
0
0
LINE
5
182
100
AcDbEntity
8
0
100
AcDbLine
10
239.94076922653406
20
57.337171794274155
30
0
11
251.22359171175026
21
57.076026862831277
31
0
0
LINE
5
183
100
AcDbEntity
8
0
100
AcDbLine
10
66.262223722261183
20
85.992068872753222
30
0
11
66.263627688046682
21
85.992078674442666
31
0
0
LINE
5
184
100
AcDbEntity
8
0
100
AcDbLine
10
78.85102344896039
20
179.01568148030509
30
0
11
84.888934574991509
21
181.02019255805286
31
0
0
LINE
5
185
100
AcDbEntity
8
0
100
AcDbLine
10
153.32584360855736
20
86.537212950438857
30
0
11
163.16458637221754
21
86.546810008550196
31
0
0
LINE
5
186
100
AcDbEntity
8
0
100
AcDbLine
10
26.999351091799291
20
139.47321783674914
30
0
11
32.750077169647106
21
139.52049630454383
31
0
0
ARC
5
187
100
AcDbEntity
8
0
100
AcDbCircle
10
229.97080885296666
20
52.511422764155498
30
0
40
10.00010093507996
210
0
220
0
230
1
100
AcDbArc
50
-44.746745724035655
51
0.29912862173600774
0
LINE
5
188
100
AcDbEntity
8
0
100
AcDbLine
10
93.042262124533281
20
183.78404041299342
30
0
11
65.521055954539989
21
183.69035962914899
31
0
0
ARC
5
189
100
AcDbEntity
8
0
100
AcDbCircle
10
-32.813486594293039
20
134.8112535745253
30
0
40
4.9753303299581439
210
0
220
0
230
-1
100
AcDbArc
50
179.53964883157167
51
181.20656641386057
0
ARC
5
190
100
AcDbEntity
8
0
100
AcDbCircle
10
184.32480722940932
20
51.76995931726367
30
0
40
9.0000324550138764
210
0
220
0
230
1
100
AcDbArc
50
-89.355913439953085
51
0.6436928992861124
0
LINE
5
191
100
AcDbEntity
8
0
100
AcDbLine
10
85.643952784530327
20
101.16486751876165
30
0
11
85.756902658495292
21
90.476808590775661
31
0
0
LINE
5
192
100
AcDbEntity
8
0
100
AcDbLine
10
79.024783704652904
20
169.19037511009404
30
0
11
78.85102344896039
21
179.01568148030509
31
0
0
LINE
5
193
100
AcDbEntity
8
0
100
AcDbLine
10
65.915878639780999
20
86.030262878340494
30
0
11
65.9198723223423
21
85.449481606048025
31
0
0
LINE
5
194
100
AcDbEntity
8
0
100
AcDbLine
10
83.046450417617152
20
176.91566967222795
30
0
11
83.107922631640875
21
176.88820815653739
31
0
0
LINE
5
195
100
AcDbEntity
8
0
100
AcDbLine
10
162.94616542249426
20
203.29157314402346
30
0
11
153.80557155589153
21
203.50946558739653
31
0
0
ARC
5
196
100
AcDbEntity
8
0
100
AcDbCircle
10
-81.877430400815371
20
174.44740489758973
30
0
40
2.735586935222619
210
0
220
0
230
-1
100
AcDbArc
50
118.15513608267274
51
169.49845831336637
0
LINE
5
197
100
AcDbEntity
8
0
100
AcDbLine
10
163.23121396565679
20
115.84582214938152
30
0
11
162.88784810730706
21
116.20929388049663
31
0
0
LINE
5
198
100
AcDbEntity
8
0
100
AcDbLine
10
162.77150817366169
20
184.01898415545617
30
0
11
163.40424582573473
21
184.02296155863218
31
0
0
ARC
5
199
100
AcDbEntity
8
0
100
AcDbCircle
10
153.69831156411652
20
199.01071215122363
30
0
40
4.5000319093660917
210
0
220
-0
230
1
100
AcDbArc
50
88.634203708156491
51
178.48005478788178
0
LINE
5
200
100
AcDbEntity
8
0
100
AcDbLine
10
256.37664633292286
20
82.137969842822741
30
0
11
267.41060090205002
21
82.329404027309067
31
0
0
LINE
5
201
100
AcDbEntity
8
0
100
AcDbLine
10
163.1957328926629
20
213.75941424248344
30
0
11
162.94616542249426
21
203.29157314402346
31
0
0
ARC
5
202
100
AcDbEntity
8
0
100
AcDbCircle
10
152.90452203151378
20
187.94897525444921
30
0
40
3.9997909012011679
210
0
220
0
230
1
100
AcDbArc
50
178.47797223199362
51
224.44325026984745
0
ARC
5
203
100
AcDbEntity
8
0
100
AcDbCircle
10
265.41232174409237
20
183.27530035106972
30
0
40
5.9772242864463054
210
0
220
-0
230
1
100
AcDbArc
50
45.416000852176083
51
91.238660506391781
0
LINE
5
204
100
AcDbEntity
8
0
100
AcDbLine
10
115.20607267687267
20
82.796051737606305
30
0
11
115.18078767528642
21
82.720762381680132
31
0
0
LINE
5
205
100
AcDbEntity
8
0
100
AcDbLine
10
230.46502750137134
20
42.513060834834278
30
0
11
230.00707790316767
21
42.511404729127726
31
0
0
ARC
5
206
100
AcDbEntity
8
0
100
AcDbCircle
10
265.35407810575418
20
183.38283204283297
30
0
40
5.9426733752884564
210
0
220
0
230
1
100
AcDbArc
50
-0.86448420027623829
51
44.288222567196321
0
ARC
5
207
100
AcDbEntity
8
0
100
AcDbCircle
10
-50.602133188754586
20
85.451716365834045
30
0
40
3.9998857502728073
210
-0
220
0
230
-1
100
AcDbArc
50
-44.824753608757149
51
0.20093443665062757
0
LINE
5
208
100
AcDbEntity
8
0
100
AcDbLine
10
65.873254941025024
20
129.3096489993153
30
0
11
65.855970197295562
21
133.61264319095326
31
0
0
ARC
5
209
100
AcDbEntity
8
0
100
AcDbCircle
10
-61.91991871336689
20
85.42211510511315
30
0
40
4.0001252479886027
210
0
220
0
230
-1
100
AcDbArc
50
224.87949699696571
51
270.15009967149899
0
ARC
5
210
100
AcDbEntity
8
0
100
AcDbCircle
10
138.02447525291413
20
189.70295909125969
30
0
40
9.0000122297747964
210
0
220
0
230
1
100
AcDbArc
50
90.893713338718214
51
180.65733432175352
0
LINE
5
211
100
AcDbEntity
8
0
100
AcDbLine
10
112.71395104450502
20
86.241117541620142
30
0
11
129.4835297157851
21
86.380059721334391
31
0
0
LINE
5
212
100
AcDbEntity
8
0
100
AcDbLine
10
139.52128825547288
20
198.72740675210594
30
0
11
137.8840965918202
21
198.70187646878935
31
0
0
ARC
5
213
100
AcDbEntity
8
0
100
AcDbCircle
10
101.92157440924639
20
189.61221473964599
30
0
40
9.0001137325873319
210
0
220
0
230
1
100
AcDbArc
50
90.945055473694183
51
136.0750931274558
0
LINE
5
214
100
AcDbEntity
8
0
100
AcDbLine
10
37.78924273975192
20
134.99455573709477
30
0
11
37.789249444812327
21
134.70510873028459
31
0
0
ARC
5
215
100
AcDbEntity
8
0
100
AcDbCircle
10
-81.515996720261782
20
175.81620769008694
30
0
40
5.288849822603618
210
0
220
0
230
-1
100
AcDbArc
50
266.28673377587802
51
275.45923295337536
0
LINE
5
216
100
AcDbEntity
8
0
100
AcDbLine
10
256.31804625328903
20
82.122893060306154
30
0
11
256.36642006204085
21
82.135007551948348
31
0
0
ARC
5
217
100
AcDbEntity
8
0
100
AcDbCircle
10
-81.814287875611285
20
173.31057667638188
30
0
40
2.7724685308802908
210
0
220
0
230
-1
100
AcDbArc
50
214.47809287372726
51
269.08585228835352
0
ARC
5
218
100
AcDbEntity
8
0
100
AcDbCircle
10
259.96194370146787
20
183.25743550743499
30
0
40
8.8274083785600457
210
0
220
0
230
1
100
AcDbArc
50
153.45726453313131
51
166.02768562595094
0
LINE
5
219
100
AcDbEntity
8
0
100
AcDbLine
10
80.471236186017023
20
95.785687350913605
30
0
11
90.971020471614125
21
95.853237724238753
31
0
0
LINE
5
220
100
AcDbEntity
8
0
100
AcDbLine
10
83.107922631640875
20
176.88820815653739
30
0
11
83.168245926923419
21
176.85929858465786
31
0
0
LINE
5
221
100
AcDbEntity
8
0
100
AcDbLine
10
265.28311196590914
20
189.25112790913272
30
0
11
254.77398704178989
21
189.04632251376071
31
0
0
LINE
5
222
100
AcDbEntity
8
0
100
AcDbLine
10
129.4835297157851
20
86.380059721334391
30
0
11
153.32584360855736
21
86.537212950438857
31
0
0
LINE
5
223
100
AcDbEntity
8
0
100
AcDbLine
10
163.16458637221754
20
86.546810008550196
30
0
11
163.79728396424252
21
86.547931062449322
31
0
0
LINE
5
224
100
AcDbEntity
8
0
100
AcDbLine
10
163.65006725008965
20
57.19694504142231
30
0
11
174.01602644455517
21
57.313459340168187
31
0
0
ARC
5
225
100
AcDbEntity
8
0
100
AcDbCircle
10
183.11387851354598
20
51.732611560571023
30
0
40
8.9999476644365597
210
0
220
0
230
1
100
AcDbArc
50
180.99092278235653
51
226.30088418253609
0
ARC
5
226
100
AcDbEntity
8
0
100
AcDbCircle
10
-61.521177066668159
20
184.32742978842282
30
0
40
3.9999280164619528
210
0
220
0
230
-1
100
AcDbArc
50
134.66011815619041
51
179.93322627870825
0
ARC
5
227
100
AcDbEntity
8
0
100
AcDbCircle
10
-61.521178952523847
20
184.32738772071446
30
0
40
3.9999566133084286
210
0
220
0
230
-1
100
AcDbArc
50
89.387283420660182
51
134.65967538721313
0
ARC
5
228
100
AcDbEntity
8
0
100
AcDbCircle
10
119.66512553884216
20
70.864736921481864
30
0
40
4.5001802958120516
210
0
220
0
230
1
100
AcDbArc
50
225.21748181971392
51
270.50913035715064
0
LINE
5
229
100
AcDbEntity
8
0
100
AcDbLine
10
119.70511361943979
20
66.364734293902046
30
0
11
129.77163417919633
21
66.45422447503708
31
0
0
ARC
5
230
100
AcDbEntity
8
0
100
AcDbCircle
10
-22.091349285613212
20
129.20339769042769
30
0
40
4.5000293475119291
210
0
220
0
230
-1
100
AcDbArc
50
269.34323309855625
51
358.30305025855807
0
LINE
5
231
100
AcDbEntity
8
0
100
AcDbLine
10
129.77163417919633
20
66.45422447503708
30
0
11
129.82077079706639
21
60.937252065830741
31
0
0
LINE
5
232
100
AcDbEntity
8
0
100
AcDbLine
10
163.54241552200546
20
66.776748949750711
30
0
11
163.65006725008965
21
57.19694504142231
31
0
0
LINE
5
233
100
AcDbEntity
8
0
100
AcDbLine
10
149.67258308445921
20
61.074976091032298
30
0
11
149.64707483345475
21
66.71401943080096
31
0
0
LINE
5
234
100
AcDbEntity
8
0
100
AcDbLine
10
149.64707483345475
20
66.71401943080096
30
0
11
163.54241552200546
21
66.776748949750711
31
0
0
LINE
5
235
100
AcDbEntity
8
0
100
AcDbLine
10
22.062228631436511
20
144.72615851018929
30
0
11
23.44169005801345
21
144.72145877494998
31
0
0
ARC
5
236
100
AcDbEntity
8
0
100
AcDbCircle
10
123.50331423776341
20
75.300458445546937
30
0
40
11.792822114216861
210
0
220
0
230
1
100
AcDbArc
50
111.69402158275823
51
121.00776618748831
0
LINE
5
237
100
AcDbEntity
8
0
100
AcDbLine
10
46.270494118356893
20
124.98036152177161
30
0
11
23.522370942557306
21
124.71949459544831
31
0
0
LINE
5
238
100
AcDbEntity
8
0
100
AcDbLine
10
184.69317390122529
20
42.773496957176043
30
0
11
184.4259783436562
21
42.770495522295377
31
0
0
CIRCLE
5
239
100
AcDbEntity
8
0
100
AcDbCircle
10
229.04210775574487
20
167.0758235683688
30
0
40
2.7499999999999996
210
0
220
0
230
1
0
CIRCLE
5
240
100
AcDbEntity
8
0
100
AcDbCircle
10
263.7509659963016
20
177.70536417679781
30
0
40
2.7499999999999996
210
0
220
0
230
1
0
CIRCLE
5
241
100
AcDbEntity
8
0
100
AcDbCircle
10
255.74467513230658
20
135.45164048281418
30
0
40
2.7499999999999996
210
0
220
0
230
1
0
CIRCLE
5
242
100
AcDbEntity
8
0
100
AcDbCircle
10
264.27667113330432
20
93.181610476944158
30
0
40
2.7499999999999996
210
0
220
0
230
1
0
CIRCLE
5
243
100
AcDbEntity
8
0
100
AcDbCircle
10
229.63273850794749
20
103.82415551685693
30
0
40
2.7499999999999996
210
0
220
0
230
1
0
CIRCLE
5
244
100
AcDbEntity
8
0
100
AcDbCircle
10
229.75801433451178
20
80.22540890731895
30
0
40
4.4000000000000004
210
0
220
0
230
1
0
CIRCLE
5
245
100
AcDbEntity
8
0
100
AcDbCircle
10
229.92768715557204
20
50.115878797322409
30
0
40
2.7499999999999996
210
0
220
0
230
1
0
CIRCLE
5
246
100
AcDbEntity
8
0
100
AcDbCircle
10
102.75463660357345
20
156.60545270433201
30
0
40
2.7499999999999996
210
0
220
0
230
1
0
CIRCLE
5
247
100
AcDbEntity
8
0
100
AcDbCircle
10
102.99350362294227
20
191.67774498419388
30
0
40
2.7499999999999996
210
0
220
0
230
1
0
CIRCLE
5
248
100
AcDbEntity
8
0
100
AcDbCircle
10
53.802072609813976
20
181.6298819405273
30
0
40
2.7499999999999996
210
0
220
0
230
1
0
CIRCLE
5
249
100
AcDbEntity
8
0
100
AcDbCircle
10
103.20018092940985
20
96.834945600148629
30
0
40
4.4000000000000004
210
0
220
0
230
1
0
CIRCLE
5
250
100
AcDbEntity
8
0
100
AcDbCircle
10
102.95290074951863
20
112.85557068417873
30
0
40
2.7499999999999996
210
0
220
0
230
1
0
CIRCLE
5
251
100
AcDbEntity
8
0
100
AcDbCircle
10
54.17939773264591
20
88.057102842805918
30
0
40
2.7499999999999996
210
0
220
0
230
1
0
CIRCLE
5
252
100
AcDbEntity
8
0
100
AcDbCircle
10
103.08178268857469
20
174.76333425115851
30
0
40
4.4000000000000004
210
0
220
0
230
1
0
CIRCLE
5
253
100
AcDbEntity
8
0
100
AcDbCircle
10
229.6588563886009
20
195.11707553813739
30
0
40
4.4000000000000004
210
0
220
0
230
1
0
LINE
5
254
100
AcDbEntity
8
0
100
AcDbLine
10
250.57131351483986
20
172.71062032966395
30
0
11
246.53610503969801
21
172.71062032966395
31
0
0
LINE
5
255
100
AcDbEntity
8
0
100
AcDbLine
10
241.53610503973621
20
172.71063985262219
30
0
11
236.53610503976947
21
172.71065809326925
31
0
0
LINE
5
256
100
AcDbEntity
8
0
100
AcDbLine
10
231.53610503980843
20
172.71067783519729
30
0
11
226.53610503984211
21
172.71069619352031
31
0
0
LINE
5
257
100
AcDbEntity
8
0
100
AcDbLine
10
221.53610503988205
20
172.71071618016887
30
0
11
216.53610503991618
21
172.71073467366418
31
0
0
LINE
5
258
100
AcDbEntity
8
0
100
AcDbLine
10
211.53610503995739
20
172.71075493419841
30
0
11
206.53610503999209
21
172.71077358350109
31
0
0
LINE
5
259
100
AcDbEntity
8
0
100
AcDbLine
10
201.58796763679757
20
173.02472299627706
30
0
11
196.58872883243066
21
172.93747979074345
31
0
0
LINE
5
260
100
AcDbEntity
8
0
100
AcDbLine
10
183.52110790176854
20
178.96648538746263
30
0
11
183.63028215314461
21
172.71189671506082
31
0
0
LINE
5
261
100
AcDbEntity
8
0
100
AcDbLine
10
174.02624511731989
20
172.54425762502748
30
0
11
193.23431918896932
21
172.87953580509412
31
0
0
LINE
5
262
100
AcDbEntity
8
0
100
AcDbLine
10
168.53804401638942
20
172.44846071847164
30
0
11
164.53865323576389
21
172.37865109272249
31
0
0
LINE
5
263
100
AcDbEntity
8
0
100
AcDbLine
10
266.41784842360823
20
155.09111696149799
30
0
11
261.41789506909532
21
155.06951944556144
31
0
0
LINE
5
264
100
AcDbEntity
8
0
100
AcDbLine
10
261.41789506909532
20
155.06951944556144
30
0
11
266.41792348798015
21
155.09111728574072
31
0
0
LINE
5
265
100
AcDbEntity
8
0
100
AcDbLine
10
256.41794171458235
20
155.04792192962483
30
0
11
253.41794171458233
21
155.04792192962483
31
0
0
LINE
5
266
100
AcDbEntity
8
0
100
AcDbLine
10
246.41794171458233
20
155.04792192962483
30
0
11
241.41794171458233
21
155.04792192962483
31
0
0
LWPOLYLINE
5
267
100
AcDbEntity
8
0
100
AcDbPolyline
90
2
70
1
43
0.0
10
236.41794171458233
20
155.04792192962483
10
231.41794171458233
20
155.04792192962483
0
LWPOLYLINE
5
268
100
AcDbEntity
8
0
100
AcDbPolyline
90
2
70
1
43
0.0
10
226.41794171458233
20
155.04792192962483
10
221.41794171458233
20
155.04792192962483
0
LWPOLYLINE
5
269
100
AcDbEntity
8
0
100
AcDbPolyline
90
2
70
1
43
0.0
10
216.41794171458233
20
155.04792192962483
10
211.41794171458233
20
155.04792192962483
0
LWPOLYLINE
5
270
100
AcDbEntity
8
0
100
AcDbPolyline
90
2
70
1
43
0.0
10
206.41794171458233
20
155.04792192962483
10
201.41794171458233
20
155.04792192962483
0
LWPOLYLINE
5
271
100
AcDbEntity
8
0
100
AcDbPolyline
90
2
70
1
43
0.0
10
196.41794171458233
20
155.04792192962483
10
191.41794171458233
20
155.04792192962483
0
LWPOLYLINE
5
272
100
AcDbEntity
8
0
100
AcDbPolyline
90
2
70
1
43
0.0
10
186.41794171458233
20
155.04792192962483
10
181.41794171458233
20
155.04792192962483
0
LWPOLYLINE
5
273
100
AcDbEntity
8
0
100
AcDbPolyline
90
2
70
1
43
0.0
10
176.41794171458233
20
155.04792192962483
10
171.4179417145823
20
155.04792192962483
0
LWPOLYLINE
5
274
100
AcDbEntity
8
0
100
AcDbPolyline
90
2
70
1
43
0.0
10
166.4179417145823
20
155.04792192962483
10
163.9179417145823
20
155.04792192962483
0
LINE
5
275
100
AcDbEntity
8
0
100
AcDbLine
10
231.52308726862657
20
95.145358833574605
30
0
11
226.52309268333968
21
95.13800036213469
31
0
0
LINE
5
276
100
AcDbEntity
8
0
100
AcDbLine
10
241.52307643733707
20
95.160077042382127
30
0
11
236.52308185187692
21
95.152718688618052
31
0
0
LINE
5
277
100
AcDbEntity
8
0
100
AcDbLine
10
211.52310893287449
20
95.115921282109795
30
0
11
206.52311434801589
21
95.108562519690508
31
0
0
LINE
5
278
100
AcDbEntity
8
0
100
AcDbLine
10
250.55827514792963
20
95.173360455803632
30
0
11
246.52307102090975
21
95.167436678456014
31
0
0
LINE
5
279
100
AcDbEntity
8
0
100
AcDbLine
10
201.5231197659806
20
95.101201839120492
30
0
11
196.52312518138729
21
95.093842896483949
31
0
0
LINE
5
280
100
AcDbEntity
8
0
100
AcDbLine
10
221.5230981004494
20
95.130640262370946
30
0
11
216.52310351536144
21
95.123281655758873
31
0
0
LINE
5
281
100
AcDbEntity
8
0
100
AcDbLine
10
168.46820918301373
20
95.052050240001321
30
0
11
164.46821349319691
21
95.046178149491922
31
0
0
LINE
5
282
100
AcDbEntity
8
0
100
AcDbLine
10
176.44764740004456
20
114.57760641247738
30
0
11
171.44765278777354
21
114.57026629934064
31
0
0
LINE
5
283
100
AcDbEntity
8
0
100
AcDbLine
10
186.44763662458649
20
114.59228663875088
30
0
11
181.44764201231553
21
114.58494652561413
31
0
0
LINE
5
284
100
AcDbEntity
8
0
100
AcDbLine
10
166.44765817550254
20
114.5629261862039
30
0
11
163.94766086936696
21
114.55925612963554
31
0
0
LINE
5
285
100
AcDbEntity
8
0
100
AcDbLine
10
236.44758274729668
20
114.66568777011831
30
0
11
231.44758813502563
21
114.65834765698162
31
0
0
LINE
5
286
100
AcDbEntity
8
0
100
AcDbLine
10
196.44762584912857
20
114.60696686502438
30
0
11
191.4476312368576
21
114.59962675188764
31
0
0
LINE
5
287
100
AcDbEntity
8
0
100
AcDbLine
10
206.44761507367062
20
114.62164709129783
30
0
11
201.44762046139959
21
114.61430697816112
31
0
0
LINE
5
288
100
AcDbEntity
8
0
100
AcDbLine
10
226.44759352275463
20
114.65100754384487
30
0
11
221.44759891048358
21
114.64366743070809
31
0
0
LINE
5
289
100
AcDbEntity
8
0
100
AcDbLine
10
216.44760429821261
20
114.63632731757131
30
0
11
211.44760968594159
21
114.62898720443459
31
0
0
LINE
5
290
100
AcDbEntity
8
0
100
AcDbLine
10
246.44757197183867
20
114.68036799639179
30
0
11
241.4475773595677
21
114.67302788325506
31
0
0
LINE
5
291
100
AcDbEntity
8
0
100
AcDbLine
10
266.44752054133329
20
114.66653332665706
30
0
11
261.44754086885706
21
114.68079077466113
31
0
0
LINE
5
292
100
AcDbEntity
8
0
100
AcDbLine
10
256.4475611963806
20
114.69504822266529
30
0
11
253.44756442901812
21
114.69064415478329
31
0
0
LINE
5
293
100
AcDbEntity
8
0
100
AcDbLine
10
261.44754086885706
20
114.68079077466113
30
0
11
266.44759560610044
21
114.66653311261081
31
0
0
LINE
5
294
100
AcDbEntity
8
0
100
AcDbLine
10
193.62217904635293
20
95.088976876718533
30
0
11
188.62218443408193
21
95.081636763581784
31
0
0
LINE
5
295
100
AcDbEntity
8
0
100
AcDbLine
10
183.62218982181091
20
95.074296650445007
30
0
11
178.62219520953988
21
95.066956537308286
31
0
0
LINE
5
296
100
AcDbEntity
8
0
100
AcDbLine
10
173.62220059726889
20
95.059616424171509
30
0
11
170.62220382990628
21
95.055212356289459
31
0
0
LWPOLYLINE
5
297
100
AcDbEntity
8
0
100
AcDbPolyline
90
2
70
1
43
0.0
10
251.64867452815545
20
144.22560920858081
10
251.64867452815545
20
139.22560920858081
0
LWPOLYLINE
5
298
100
AcDbEntity
8
0
100
AcDbPolyline
90
2
70
1
43
0.0
10
251.66241174910286
20
125.51034789002615
10
251.65507163596615
20
130.51034250229722
0
LINE
5
299
100
AcDbEntity
8
0
100
AcDbLine
10
237.9458974396313
20
57.107944636531869
30
0
11
232.9458974396313
21
57.107944636531869
31
0
0
LINE
5
300
100
AcDbEntity
8
0
100
AcDbLine
10
227.9458974396313
20
57.107944636531869
30
0
11
222.9458974396313
21
57.107944636531869
31
0
0
LWPOLYLINE
5
301
100
AcDbEntity
8
0
100
AcDbPolyline
90
2
70
1
43
0.0
10
180.9458974396313
20
57.107944636531869
10
175.9458974396313
20
57.107944636531869
0
LWPOLYLINE
5
302
100
AcDbEntity
8
0
100
AcDbPolyline
90
2
70
1
43
0.0
10
190.9458974396313
20
57.107944636531869
10
185.9458974396313
20
57.107944636531869
0
LINE
5
303
100
AcDbEntity
8
0
100
AcDbLine
10
136.9458974396313
20
66.607944636531883
30
0
11
131.9458974396313
21
66.607944636531883
31
0
0
LINE
5
304
100
AcDbEntity
8
0
100
AcDbLine
10
146.9458974396313
20
66.607944636531883
30
0
11
141.9458974396313
21
66.607944636531883
31
0
0
LINE
5
305
100
AcDbEntity
8
0
100
AcDbLine
10
136.85588049049699
20
183.95483939261237
30
0
11
131.85588049049699
21
183.95483939261237
31
0
0
LINE
5
306
100
AcDbEntity
8
0
100
AcDbLine
10
146.85588049049699
20
183.95483939261237
30
0
11
141.85588049049699
21
183.95483939261237
31
0
0
LINE
5
307
100
AcDbEntity
8
0
100
AcDbLine
10
110.44136415885364
20
183.95483939261237
30
0
11
105.44136415885364
21
183.95483939261237
31
0
0
LINE
5
308
100
AcDbEntity
8
0
100
AcDbLine
10
100.44136415885364
20
183.95483939261237
30
0
11
95.441364158853645
21
183.95483939261237
31
0
0
LINE
5
309
100
AcDbEntity
8
0
100
AcDbLine
10
74.722415934464195
20
163.80372488262708
30
0
11
79.722415934430927
21
163.80370664198
31
0
0
LINE
5
310
100
AcDbEntity
8
0
100
AcDbLine
10
84.722415934391918
20
163.80368690005199
30
0
11
89.722415934358239
21
163.80366854172894
31
0
0
LINE
5
311
100
AcDbEntity
8
0
100
AcDbLine
10
139.4491021487967
20
170.21278962283841
30
0
11
139.4491021487967
21
163.95724820117869
31
0
0
LINE
5
312
100
AcDbEntity
8
0
100
AcDbLine
10
94.722415934318306
20
163.80364855508046
30
0
11
99.722415934284143
21
163.80363006158512
31
0
0
LINE
5
313
100
AcDbEntity
8
0
100
AcDbLine
10
104.722415934243
20
163.80360980105084
30
0
11
109.7224159342082
21
163.80359115174815
31
0
0
LINE
5
314
100
AcDbEntity
8
0
100
AcDbLine
10
65.687207459360536
20
163.80374440558538
30
0
11
69.722415934502322
21
163.80374440558529
31
0
0
LINE
5
315
100
AcDbEntity
8
0
100
AcDbLine
10
114.72241593416592
20
163.80357058429266
30
0
11
119.72241593413045
21
163.80355175477257
31
0
0
LINE
5
316
100
AcDbEntity
8
0
100
AcDbLine
10
122.22241593416592
20
163.80357058429266
30
0
11
127.22241593413045
21
163.80355175477257
31
0
0
LINE
5
317
100
AcDbEntity
8
0
100
AcDbLine
10
94.258090182968573
20
144.83853099385016
30
0
11
89.258090182968587
21
144.83853099385016
31
0
0
LINE
5
318
100
AcDbEntity
8
0
100
AcDbLine
10
124.25809018296857
20
144.83853099385016
30
0
11
119.25809018296857
21
144.83853099385016
31
0
0
LINE
5
319
100
AcDbEntity
8
0
100
AcDbLine
10
144.25809018296857
20
144.83853099385016
30
0
11
139.25809018296857
21
144.83853099385016
31
0
0
LINE
5
320
100
AcDbEntity
8
0
100
AcDbLine
10
104.25809018296857
20
144.83853099385016
30
0
11
99.258090182968573
21
144.83853099385016
31
0
0
LINE
5
321
100
AcDbEntity
8
0
100
AcDbLine
10
84.258090182968587
20
144.83853099385016
30
0
11
79.258090182968573
21
144.83853099385016
31
0
0
LINE
5
322
100
AcDbEntity
8
0
100
AcDbLine
10
114.25809018296857
20
144.83853099385016
30
0
11
109.25809018296857
21
144.83853099385016
31
0
0
LINE
5
323
100
AcDbEntity
8
0
100
AcDbLine
10
134.25809018296857
20
144.83853099385016
30
0
11
129.25809018296857
21
144.83853099385016
31
0
0
LINE
5
324
100
AcDbEntity
8
0
100
AcDbLine
10
94.272896782528321
20
124.66637382605775
30
0
11
89.272902170257339
21
124.65903371292102
31
0
0
LINE
5
325
100
AcDbEntity
8
0
100
AcDbLine
10
71.772921027308769
20
124.63334331694242
30
0
11
75.793739849373409
21
124.62331532114237
31
0
0
LINE
5
326
100
AcDbEntity
8
0
100
AcDbLine
10
124.27286445615442
20
124.7104145048782
30
0
11
119.2728698438834
21
124.7030743917415
31
0
0
LINE
5
327
100
AcDbEntity
8
0
100
AcDbLine
10
84.272907557986301
20
124.65169359978425
30
0
11
79.272912945715319
21
124.6443534866475
31
0
0
LINE
5
328
100
AcDbEntity
8
0
100
AcDbLine
10
114.27287523161242
20
124.6957342786047
30
0
11
109.27288061934138
21
124.68839416546797
31
0
0
LINE
5
329
100
AcDbEntity
8
0
100
AcDbLine
10
104.27288600707037
20
124.68105405233125
30
0
11
99.272891394799373
21
124.6737139391945
31
0
0
LINE
5
330
100
AcDbEntity
8
0
100
AcDbLine
10
134.27285368069644
20
124.7250947311517
30
0
11
129.27285906842542
21
124.71775461801496
31
0
0
LINE
5
331
100
AcDbEntity
8
0
100
AcDbLine
10
144.27284290523846
20
124.73977495742517
30
0
11
139.27284829296747
21
124.73243484428846
31
0
0
LINE
5
332
100
AcDbEntity
8
0
100
AcDbLine
10
65.729886207775863
20
105.65923814788698
30
0
11
69.765090334795701
21
105.66516192523459
31
0
0
LINE
5
333
100
AcDbEntity
8
0
100
AcDbLine
10
155.22483268133928
20
105.37512804668565
30
0
11
159.70952221431341
21
105.33003207533369
31
0
0
LINE
5
334
100
AcDbEntity
8
0
100
AcDbLine
10
84.765074087078901
20
105.68723977011604
30
0
11
89.765068672365814
21
105.69459824155599
31
0
0
LINE
5
335
100
AcDbEntity
8
0
100
AcDbLine
10
74.765084918368458
20
105.67252156130849
30
0
11
79.765079503828531
21
105.67987991507259
31
0
0
LINE
5
336
100
AcDbEntity
8
0
100
AcDbLine
10
114.7650415897248
20
105.73139676457018
30
0
11
119.76503617431817
21
105.73875570720671
31
0
0
LINE
5
337
100
AcDbEntity
8
0
100
AcDbLine
10
148.23450065280713
20
105.6268529582631
30
0
11
129.20110502737282
21
105.70303876118231
31
0
0
LINE
5
338
100
AcDbEntity
8
0
100
AcDbLine
10
104.76505242283096
20
105.71667732158085
30
0
11
109.76504700768959
21
105.72403608400015
31
0
0
LINE
5
339
100
AcDbEntity
8
0
100
AcDbLine
10
139.50111003879096
20
99.358483967113855
30
0
11
139.49192676243766
21
105.61401864814121
31
0
0
LINE
5
340
100
AcDbEntity
8
0
100
AcDbLine
10
94.765063255256038
20
105.70195834131965
30
0
11
99.765057840344014
21
105.70931694793174
31
0
0
LINE
5
341
100
AcDbEntity
8
0
100
AcDbLine
10
122.26503350813132
20
105.74240693427528
30
0
11
127.26502809272469
21
105.74976587691181
31
0
0
LINE
5
342
100
AcDbEntity
8
0
100
AcDbLine
10
251.39571617169665
20
185.38883987781173
30
0
11
251.72482800896574
21
154.04326032937647
31
0
0
LINE
5
343
100
AcDbEntity
8
0
100
AcDbLine
10
256.31804625328903
20
82.122893060306154
30
0
11
255.95001106646876
21
82.126216897330067
31
0
0
LINE
5
344
100
AcDbEntity
8
0
100
AcDbLine
10
251.49083377815285
20
86.666672591571142
30
0
11
251.46969556879142
21
84.326123167707991
31
0
0
ARC
5
345
100
AcDbEntity
8
0
100
AcDbCircle
10
255.99065026943123
20
86.626033388608491
30
0
40
4.4999999999998206
210
0
220
0
230
1
100
AcDbArc
50
179.48255856349058
51
269.48255856349266
0
LWPOLYLINE
5
346
100
AcDbEntity
8
0
100
AcDbPolyline
90
2
70
1
43
0.0
10
251.64867452815545
20
144.22560920858081
10
251.64867452815545
20
139.22560920858081
0
LWPOLYLINE
5
347
100
AcDbEntity
8
0
100
AcDbPolyline
90
2
70
1
43
0.0
10
251.66241174910286
20
125.51034789002615
10
251.65507163596615
20
130.51034250229722
0
LWPOLYLINE
5
348
100
AcDbEntity
8
0
100
AcDbPolyline
90
2
70
1
43
0.0
10
251.64867452815545
20
137.22560920858081
10
251.64867452815545
20
132.22560920858081
0
LWPOLYLINE
5
349
100
AcDbEntity
8
0
100
AcDbPolyline
90
2
70
1
43
0.0
10
251.66241174910286
20
118.51034789002618
10
251.65507163596615
20
123.51034250229722
0
LWPOLYLINE
5
350
100
AcDbEntity
8
0
100
AcDbPolyline
90
2
70
1
43
0.0
10
251.64867452815545
20
152.22560920858081
10
251.64867452815545
20
147.22560920858081
0
LINE
5
351
100
AcDbEntity
8
0
100
AcDbLine
10
62.642596077262368
20
125.01856235338195
30
0
11
57.64259628703428
21
125.02001070385306
31
0
0
LINE
5
352
100
AcDbEntity
8
0
100
AcDbLine
10
52.642596496806185
20
125.02145905432415
30
0
11
48.64259666462371
21
125.02261773470104
31
0
0
LINE
5
353
100
AcDbEntity
8
0
100
AcDbLine
10
61.663728198817182
20
144.5265311133262
30
0
11
61.663070971321865
21
144.48477410216617
31
0
0
LINE
5
354
100
AcDbEntity
8
0
100
AcDbLine
10
52.628356028951302
20
144.42233192540155
30
0
11
48.628362207920823
21
144.41530115601014
31
0
0
LINE
5
355
100
AcDbEntity
8
0
100
AcDbLine
10
62.628340581527411
20
144.43990884888001
30
0
11
57.628348305239321
21
144.43112038714079
31
0
0
ENDSEC
0
SECTION
2
OBJECTS
0
DICTIONARY
5
C
100
AcDbDictionary
3
ACAD_GROUP
350
D
3
ACAD_MLINESTYLE
350
17
0
DICTIONARY
5
D
100
AcDbDictionary
0
DICTIONARY
5
1A
330
C
100
AcDbDictionary
0
DICTIONARY
5
17
100
AcDbDictionary
0
ENDSEC
0
EOF
