0
SECTION
2
HEADER
9
$INSUNITS
70
4
9
$ACADVER
1
AC1014
9
$HANDSEED
5
FFFF
0
ENDSEC
0
SECTION
2
TABLES
0
TABLE
2
VPORT
5
8
100
AcDbSymbolTable
0
ENDTAB
0
TABLE
2
LTYPE
5
5
100
AcDbSymbolTable
0
LTYPE
5
14
100
AcDbSymbolTableRecord
100
AcDbLinetypeTableRecord
2
BYBLOCK
70
0
0
LTYPE
5
15
100
AcDbSymbolTableRecord
100
AcDbLinetypeTableRecord
2
BYLAYER
70
0
0
ENDTAB
0
TABLE
2
LAYER
5
2
100
AcDbSymbolTable
70
2
0
LAYER
5
50
100
AcDbSymbolTableRecord
100
AcDbLayerTableRecord
2
0
70
0
6
CONTINUOUS
0
ENDTAB
0
TABLE
2
STYLE
5
3
100
AcDbSymbolTable
70
1
0
STYLE
5
11
100
AcDbSymbolTableRecord
100
AcDbTextStyleTableRecord
2
STANDARD
70
0
0
ENDTAB
0
TABLE
2
VIEW
5
6
100
AcDbSymbolTable
70
0
0
ENDTAB
0
TABLE
2
UCS
5
7
100
AcDbSymbolTable
70
0
0
ENDTAB
0
TABLE
2
APPID
5
9
100
AcDbSymbolTable
70
2
0
APPID
5
12
100
AcDbSymbolTableRecord
100
AcDbRegAppTableRecord
2
ACAD
70
0
0
ENDTAB
0
TABLE
2
DIMSTYLE
5
A
100
AcDbSymbolTable
70
1
0
ENDTAB
0
TABLE
2
BLOCK_RECORD
5
1
100
AcDbSymbolTable
70
1
0
BLOCK_RECORD
5
1F
100
AcDbSymbolTableRecord
100
AcDbBlockTableRecord
2
*MODEL_SPACE
0
BLOCK_RECORD
5
1B
100
AcDbSymbolTableRecord
100
AcDbBlockTableRecord
2
*PAPER_SPACE
0
ENDTAB
0
ENDSEC
0
SECTION
2
BLOCKS
0
BLOCK
5
20
100
AcDbEntity
100
AcDbBlockBegin
2
*MODEL_SPACE
0
ENDBLK
5
21
100
AcDbEntity
100
AcDbBlockEnd
0
BLOCK
5
1C
100
AcDbEntity
100
AcDbBlockBegin
2
*PAPER_SPACE
0
ENDBLK
5
1D
100
AcDbEntity
100
AcDbBlockEnd
0
ENDSEC
0
SECTION
2
ENTITIES
0
LWPOLYLINE
5
100
100
AcDbEntity
8
0
100
AcDbPolyline
90
17
70
1
43
0.0
10
-134.73482519475391
20
-135.33770190725318
10
-134.73482519475391
20
-165
42
0.41421356237309448
10
-124.7348251947539
20
-175
10
-123.17081757217139
20
-175
42
0.41421356237309448
10
-113.17081757217139
20
-165
10
-113.17081757217139
20
-136.01770190725316
42
-0.41421356237311036
10
-112.49081757217139
20
-135.33770190725318
10
-110.46328691720848
20
-135.33770190725318
42
0.41421356237309404
10
-100.46328691720848
20
-125.33770190725318
10
-100.46328691720852
20
-95.112265037582631
42
0.30559631993293962
10
-109.83735271188964
20
-81.207270815454265
10
-122.03257784529379
20
-76.273105930265203
42
22.893656990573756
10
-126.58052688987942
20
-76.398248850433362
10
-140.17156236000577
20
-81.39010773766168
42
0.31449399001923312
10
-150.00000000000003
20
-95.470411099328643
10
-150.00000000000006
20
-125.33770190725322
42
0.41421356237309298
10
-139.99999999999997
20
-135.33770190725318
0
LINE
5
101
100
AcDbEntity
8
0
100
AcDbLine
10
113.17081757217139
20
-139.69309322431113
30
0
11
113.17081757217139
21
-165
31
0
0
LINE
5
102
100
AcDbEntity
8
0
100
AcDbLine
10
122.03257784529379
20
-76.273105930265203
30
0
11
89.277311004486563
21
-122.03137658745365
31
0
0
ARC
5
103
100
AcDbEntity
8
0
100
AcDbCircle
10
125.79030372484084
20
-50.561884293989863
30
0
40
25.984368797711646
210
0
220
-0
230
1
100
AcDbArc
50
90
51
261.68502272087915
0
LINE
5
104
100
AcDbEntity
8
0
100
AcDbLine
10
95.941782353551332
20
-135.1621336217695
30
0
11
108.8156523723047
21
-135.2933216574344
31
0
0
ARC
5
105
100
AcDbEntity
8
0
100
AcDbCircle
10
125.79030372484084
20
-50.561884293989863
30
0
40
25.984368797711646
210
-0
220
0
230
1
100
AcDbArc
50
-81.685022720879203
51
90
0
LINE
5
106
100
AcDbEntity
8
0
100
AcDbLine
10
129.54802960438786
20
-76.273105930265203
30
0
11
163.55103594031644
21
-123.77443677392408
31
0
0
LINE
5
107
100
AcDbEntity
8
0
100
AcDbLine
10
157.52029505720517
20
-135.14296096055756
30
0
11
142.76495507737695
21
-135.2933216574344
31
0
0
LINE
5
108
100
AcDbEntity
8
0
100
AcDbLine
10
138.40978987751026
20
-139.69309322431113
30
0
11
138.40978987751026
21
-175
31
0
0
CIRCLE
5
109
100
AcDbEntity
8
0
100
AcDbCircle
10
125
20
-170
30
0
40
3.300887422372059
210
0
220
0
230
1
0
CIRCLE
5
110
100
AcDbEntity
8
0
100
AcDbCircle
10
-124.00000184774399
20
-168.00000250339508
30
0
40
3.3010000000000055
210
0
220
0
230
1
0
ARC
5
111
100
AcDbEntity
8
0
100
AcDbCircle
10
96.026357090166513
20
-126.8625645297065
30
0
40
8.3000000000000558
210
0
220
0
230
1
100
AcDbArc
50
144.4036735604449
51
269.41616152747213
0
ARC
5
112
100
AcDbEntity
8
0
100
AcDbCircle
10
155.90420472712208
20
-127.00181533816433
30
0
40
8.3000000000000327
210
-0
220
0
230
1
100
AcDbArc
50
-80.596326439555099
51
44.416161527472205
0
ARC
5
113
100
AcDbEntity
8
0
100
AcDbCircle
10
108.77081757217142
20
-139.6930932243111
30
0
40
4.3999999999999595
210
0
220
0
230
1
100
AcDbArc
50
0
51
89.416161527473122
0
ARC
5
114
100
AcDbEntity
8
0
100
AcDbCircle
10
142.80978987751024
20
-139.6930932243111
30
0
40
4.3999999999999577
210
0
220
0
230
1
100
AcDbArc
50
90.583838472527063
51
180
0
LINE
5
115
100
AcDbEntity
8
0
100
AcDbLine
10
123.17081757217139
20
-175
30
0
11
138.40978987751026
21
-175
31
0
0
ARC
5
116
100
AcDbEntity
8
0
100
AcDbCircle
10
123.1708175721714
20
-165
30
0
40
10.000000000000018
210
0
220
0
230
1
100
AcDbArc
50
180
51
269.99999999999989
0
ENDSEC
0
SECTION
2
OBJECTS
0
DICTIONARY
5
C
100
AcDbDictionary
3
ACAD_GROUP
350
D
3
ACAD_MLINESTYLE
350
17
0
DICTIONARY
5
D
100
AcDbDictionary
0
DICTIONARY
5
1A
330
C
100
AcDbDictionary
0
DICTIONARY
5
17
100
AcDbDictionary
0
ENDSEC
0
EOF
