0
SECTION
2
HEADER
9
$INSUNITS
70
4
9
$ACADVER
1
AC1014
9
$HANDSEED
5
FFFF
0
ENDSEC
0
SECTION
2
TABLES
0
TABLE
2
VPORT
5
8
100
AcDbSymbolTable
0
ENDTAB
0
TABLE
2
LTYPE
5
5
100
AcDbSymbolTable
0
LTYPE
5
14
100
AcDbSymbolTableRecord
100
AcDbLinetypeTableRecord
2
BYBLOCK
70
0
0
LTYPE
5
15
100
AcDbSymbolTableRecord
100
AcDbLinetypeTableRecord
2
BYLAYER
70
0
0
ENDTAB
0
TABLE
2
LAYER
5
2
100
AcDbSymbolTable
70
2
0
LAYER
5
50
100
AcDbSymbolTableRecord
100
AcDbLayerTableRecord
2
0
70
0
6
CONTINUOUS
0
ENDTAB
0
TABLE
2
STYLE
5
3
100
AcDbSymbolTable
70
1
0
STYLE
5
11
100
AcDbSymbolTableRecord
100
AcDbTextStyleTableRecord
2
STANDARD
70
0
0
ENDTAB
0
TABLE
2
VIEW
5
6
100
AcDbSymbolTable
70
0
0
ENDTAB
0
TABLE
2
UCS
5
7
100
AcDbSymbolTable
70
0
0
ENDTAB
0
TABLE
2
APPID
5
9
100
AcDbSymbolTable
70
2
0
APPID
5
12
100
AcDbSymbolTableRecord
100
AcDbRegAppTableRecord
2
ACAD
70
0
0
ENDTAB
0
TABLE
2
DIMSTYLE
5
A
100
AcDbSymbolTable
70
1
0
ENDTAB
0
TABLE
2
BLOCK_RECORD
5
1
100
AcDbSymbolTable
70
1
0
BLOCK_RECORD
5
1F
100
AcDbSymbolTableRecord
100
AcDbBlockTableRecord
2
*MODEL_SPACE
0
BLOCK_RECORD
5
1B
100
AcDbSymbolTableRecord
100
AcDbBlockTableRecord
2
*PAPER_SPACE
0
ENDTAB
0
ENDSEC
0
SECTION
2
BLOCKS
0
BLOCK
5
20
100
AcDbEntity
100
AcDbBlockBegin
2
*MODEL_SPACE
0
ENDBLK
5
21
100
AcDbEntity
100
AcDbBlockEnd
0
BLOCK
5
1C
100
AcDbEntity
100
AcDbBlockBegin
2
*PAPER_SPACE
0
ENDBLK
5
1D
100
AcDbEntity
100
AcDbBlockEnd
0
ENDSEC
0
SECTION
2
ENTITIES
0
SPLINE
5
100
100
AcDbEntity
8
0
100
AcDbSpline
70
6
71
5
72
111
73
105
74
0
42
0.000000001
43
0.0000000001
44
0.0000000001
40
0
40
0
40
0
40
0
40
0
40
0
40
0.01
40
0.02
40
0.029999999999999999
40
0.040000000000000001
40
0.050000000000000003
40
0.060000000000000005
40
0.070000000000000007
40
0.080000000000000002
40
0.089999999999999997
40
0.099999999999999992
40
0.10999999999999999
40
0.11999999999999998
40
0.12999999999999998
40
0.13999999999999999
40
0.14999999999999999
40
0.16
40
0.17000000000000001
40
0.18000000000000002
40
0.19000000000000003
40
0.20000000000000004
40
0.21000000000000005
40
0.22000000000000006
40
0.23000000000000007
40
0.24000000000000007
40
0.25000000000000006
40
0.26000000000000006
40
0.27000000000000007
40
0.28000000000000008
40
0.29000000000000009
40
0.3000000000000001
40
0.31000000000000011
40
0.32000000000000012
40
0.33000000000000013
40
0.34000000000000014
40
0.35000000000000014
40
0.36000000000000015
40
0.37000000000000016
40
0.38000000000000017
40
0.39000000000000018
40
0.40000000000000019
40
0.4100000000000002
40
0.42000000000000021
40
0.43000000000000022
40
0.44000000000000022
40
0.45000000000000023
40
0.46000000000000024
40
0.47000000000000025
40
0.48000000000000026
40
0.49000000000000027
40
0.50000000000000022
40
0.51000000000000023
40
0.52000000000000024
40
0.53000000000000025
40
0.54000000000000026
40
0.55000000000000027
40
0.56000000000000028
40
0.57000000000000028
40
0.58000000000000029
40
0.5900000000000003
40
0.60000000000000031
40
0.61000000000000032
40
0.62000000000000033
40
0.63000000000000034
40
0.64000000000000035
40
0.65000000000000036
40
0.66000000000000036
40
0.67000000000000037
40
0.68000000000000038
40
0.69000000000000039
40
0.7000000000000004
40
0.71000000000000041
40
0.72000000000000042
40
0.73000000000000043
40
0.74000000000000044
40
0.75000000000000044
40
0.76000000000000045
40
0.77000000000000046
40
0.78000000000000047
40
0.79000000000000048
40
0.80000000000000049
40
0.8100000000000005
40
0.82000000000000051
40
0.83000000000000052
40
0.84000000000000052
40
0.85000000000000053
40
0.86000000000000054
40
0.87000000000000055
40
0.88000000000000056
40
0.89000000000000057
40
0.90000000000000058
40
0.91000000000000059
40
0.9200000000000006
40
0.9300000000000006
40
0.94000000000000061
40
0.95000000000000062
40
0.96000000000000063
40
0.97000000000000064
40
0.98000000000000065
40
0.99000000000000066
40
1
40
1
40
1
40
1
40
1
40
1
41
1
41
1
41
1
41
1
41
1
41
1
41
1
41
1
41
1
41
1
41
1
41
1
41
1
41
1
41
1
41
1
41
1
41
1
41
1
41
1
41
1
41
1
41
1
41
1
41
1
41
1
41
1
41
1
41
1
41
1
41
1
41
1
41
1
41
1
41
1
41
1
41
1
41
1
41
1
41
1
41
1
41
1
41
1
41
1
41
1
41
1
41
1
41
1
41
1
41
1
41
1
41
1
41
1
41
1
41
1
41
1
41
1
41
1
41
1
41
1
41
1
41
1
41
1
41
1
41
1
41
1
41
1
41
1
41
1
41
1
41
1
41
1
41
1
41
1
41
1
41
1
41
1
41
1
41
1
41
1
41
1
41
1
41
1
41
1
41
1
41
1
41
1
41
1
41
1
41
1
41
1
41
1
41
1
41
1
41
1
41
1
41
1
41
1
41
1
41
1
41
1
41
1
41
1
41
1
41
1
10
-4.562231829370651
20
15.58762541701638
30
0
10
-4.3516342563152861
20
15.599008252263868
30
0
10
-3.9325315235312228
20
15.605199779944323
30
0
10
-3.3097250561443374
20
15.5622210976384
30
0
10
-2.4896369575104975
20
15.394527788729892
30
0
10
-1.4847279060800695
20
15.002220194836386
30
0
10
-0.51483981003989054
20
14.438473933342429
30
0
10
0.38959515675071643
20
13.719225888811009
30
0
10
1.1748430977923816
20
12.858188159132542
30
0
10
1.7692366278664482
20
11.865416154084976
30
0
10
2.1060510188221468
20
10.753302119605499
30
0
10
2.1435460761605105
20
9.5412437430119201
30
0
10
1.883107723316555
20
8.2598221378485981
30
0
10
1.3957878888186439
20
6.9577401244511137
30
0
10
0.81181730798759022
20
5.6963847613696625
30
0
10
0.28451408580954235
20
4.5360347993078989
30
0
10
-0.039521420688536361
20
3.5237371361898173
30
0
10
-0.049946735539437986
20
2.682253113756647
30
0
10
0.29076049109905316
20
1.9942671642381944
30
0
10
0.93729735413861548
20
1.4033631228603136
30
0
10
1.8059873514440448
20
0.85073423804815029
30
0
10
2.8041303245938827
20
0.30004067680374052
30
0
10
3.8725602314138774
20
-0.22379955092449122
30
0
10
4.9932563883145544
20
-0.63914541770039879
30
0
10
6.1699830057521634
20
-0.84654433920918815
30
0
10
7.4158750995989173
20
-0.75960251582076621
30
0
10
8.7393960268023498
20
-0.33567023901254095
30
0
10
10.128056259320573
20
0.38488749173109899
30
0
10
11.544085905013041
20
1.2748682825726045
30
0
10
12.93562432771855
20
2.1610035371817164
30
0
10
14.24375209898426
20
2.8526550854823873
30
0
10
15.411488177286888
20
3.1766135371501676
30
0
10
16.391301199956231
20
3.0065005168156507
30
0
10
17.154831754205865
20
2.3013025027479208
30
0
10
17.696268060343623
20
1.1166104441807498
30
0
10
18.024882826415727
20
-0.43121492033724779
30
0
10
18.160103880536123
20
-2.1898021686898543
30
0
10
18.125382607455577
20
-4.0009067460314647
30
0
10
17.943025462311905
20
-5.7260265142467626
30
0
10
17.627525854836033
20
-7.2793716236074477
30
0
10
17.183427442768007
20
-8.6383602513250484
30
0
10
16.609726119745197
20
-9.8216483927613609
30
0
10
15.902633732579281
20
-10.875234952459163
30
0
10
15.059146529092448
20
-11.854760878106241
30
0
10
14.079933795466664
20
-12.810754820349576
30
0
10
12.973350166930162
20
-13.769380132810481
30
0
10
11.755681130548332
20
-14.727923672242811
30
0
10
10.44774709867189
20
-15.664488619074302
30
0
10
9.0724790378083071
20
-16.543858789988416
30
0
10
7.6521386799506779
20
-17.324855440526367
30
0
10
6.2056004370187532
20
-17.967190169264597
30
0
10
4.7458187049570641
20
-18.43820242753872
30
0
10
3.2766436518535209
20
-18.720531453566903
30
0
10
1.7960726608130453
20
-18.809915474327536
30
0
10
0.30053376058740655
20
-18.711448099022721
30
0
10
-1.2113084697630678
20
-18.436452932519959
30
0
10
-2.7342936713401738
20
-17.998954358960837
30
0
10
-4.2532822416300666
20
-17.41267067361655
30
0
10
-5.7378984026131459
20
-16.686935166249018
30
0
10
-7.1432999419086851
20
-15.826194988305751
30
0
10
-8.4187210059571083
20
-14.834095805481812
30
0
10
-9.5141000210800222
20
-13.716450769030262
30
0
10
-10.387403865083495
20
-12.484591847004381
30
0
10
-11.011841649173601
20
-11.158724526162999
30
0
10
-11.382704134829842
20
-9.7709017788024948
30
0
10
-11.525530250802456
20
-8.3691909152351123
30
0
10
-11.488228446538367
20
-7.0080859499948254
30
0
10
-11.331625271190426
20
-5.7378721520716969
30
0
10
-11.120248839484079
20
-4.5935063735089692
30
0
10
-10.913780624516868
20
-3.5856301624258453
30
0
10
-10.756362142266287
20
-2.6859220497993785
30
0
10
-10.673430344820725
20
-1.8320435997288969
30
0
10
-10.681008959848723
20
-0.96786598133678081
30
0
10
-10.791271231091105
20
-0.069538442782648993
30
0
10
-11.021386399321811
20
0.80945927719958688
30
0
10
-11.394257554275827
20
1.5512539935130556
30
0
10
-11.930674131388948
20
2.0519208602487509
30
0
10
-12.643741478389579
20
2.281560773647032
30
0
10
-13.532235756404551
20
2.3553244827144795
30
0
10
-14.570400593119977
20
2.4609650638816847
30
0
10
-15.695529551494777
20
2.7777375233708375
30
0
10
-16.800022473451008
20
3.4073301084527325
30
0
10
-17.712306272251471
20
4.2773415164960173
30
0
10
-18.239010655700177
20
5.1908618474445802
30
0
10
-18.234627636557818
20
5.9361294887864355
30
0
10
-17.654600391402997
20
6.3675614741166235
30
0
10
-16.634233478805228
20
6.5210088299805147
30
0
10
-15.434164072666652
20
6.5706868502536313
30
0
10
-14.337463569398423
20
6.7315628359225617
30
0
10
-13.57219663738223
20
7.1880877492569333
30
0
10
-13.200927929770748
20
7.9921035288257656
30
0
10
-13.112849263907478
20
9.0522390461720157
30
0
10
-13.117549672815304
20
10.212928349258902
30
0
10
-13.007507857063734
20
11.305926973401645
30
0
10
-12.641985268909606
20
12.220609530518345
30
0
10
-11.994763214621738
20
12.94260540210699
30
0
10
-11.10872576867996
20
13.51098716346174
30
0
10
-10.065989848891498
20
13.988986938479622
30
0
10
-8.952453921450461
20
14.429977047122424
30
0
10
-7.8234333926669617
20
14.843995552087172
30
0
10
-6.708748555088305
20
15.209263506678873
30
0
10
-5.8377551491851349
20
15.430714165416372
30
0
10
-5.1961169618633836
20
15.536902768459402
30
0
10
-4.7728294024260016
20
15.576242581768888
30
0
10
-4.562231829370651
20
15.58762541701638
30
0
0
SPLINE
5
101
100
AcDbEntity
8
0
100
AcDbSpline
70
6
71
5
72
51
73
45
74
0
42
0.000000001
43
0.0000000001
44
0.0000000001
40
0
40
0
40
0
40
0
40
0
40
0
40
0.025000000000000001
40
0.050000000000000003
40
0.075000000000000011
40
0.10000000000000001
40
0.125
40
0.14999999999999999
40
0.17499999999999999
40
0.19999999999999998
40
0.22499999999999998
40
0.24999999999999997
40
0.27499999999999997
40
0.29999999999999999
40
0.32500000000000001
40
0.35000000000000003
40
0.37500000000000006
40
0.40000000000000008
40
0.4250000000000001
40
0.45000000000000012
40
0.47500000000000014
40
0.50000000000000011
40
0.52500000000000013
40
0.55000000000000016
40
0.57500000000000018
40
0.6000000000000002
40
0.62500000000000022
40
0.65000000000000024
40
0.67500000000000027
40
0.70000000000000029
40
0.72500000000000031
40
0.75000000000000033
40
0.77500000000000036
40
0.80000000000000038
40
0.8250000000000004
40
0.85000000000000042
40
0.87500000000000044
40
0.90000000000000047
40
0.92500000000000049
40
0.95000000000000051
40
0.97500000000000053
40
1
40
1
40
1
40
1
40
1
40
1
41
1
41
1
41
1
41
1
41
1
41
1
41
1
41
1
41
1
41
1
41
1
41
1
41
1
41
1
41
1
41
1
41
1
41
1
41
1
41
1
41
1
41
1
41
1
41
1
41
1
41
1
41
1
41
1
41
1
41
1
41
1
41
1
41
1
41
1
41
1
41
1
41
1
41
1
41
1
41
1
41
1
41
1
41
1
41
1
41
1
10
-2.0000000298023224
20
-3.0000000447034836
30
0
10
-1.8125228926728989
20
-2.8677200913214058
30
0
10
-1.4350046243674379
20
-2.6208196976611662
30
0
10
-0.8662164643033512
20
-2.3063135305588163
30
0
10
-0.1190127390058647
20
-2.0083031811870216
30
0
10
0.77604513522045848
20
-1.8478629272333946
30
0
10
1.6299754335310008
20
-1.8890071882715702
30
0
10
2.4561198456835065
20
-2.0968230493900557
30
0
10
3.2822330520704623
20
-2.4026825710867188
30
0
10
4.1437138698827667
20
-2.7150556835730209
30
0
10
5.0720376079727894
20
-2.9471433521742361
30
0
10
6.0848534807120567
20
-3.038946529226239
30
0
10
7.1746741522155162
20
-2.9833900033365786
30
0
10
8.2999860935251295
20
-2.8461443376922571
30
0
10
9.398024668056788
20
-2.7323516485528505
30
0
10
10.39598723930327
20
-2.7567774160637537
30
0
10
11.222376454127502
20
-3.0143905015902517
30
0
10
11.819243251407659
20
-3.5468276914034256
30
0
10
12.151147404356273
20
-4.3224548386809651
30
0
10
12.201741262659727
20
-5.2690263109637581
30
0
10
11.972290712110592
20
-6.2964631450663422
30
0
10
11.47977706653354
20
-7.3263439975879097
30
0
10
10.754479919278403
20
-8.3091595457921787
30
0
10
9.8350407999137772
20
-9.2144921953559056
30
0
10
8.7641998941660226
20
-10.026406548231083
30
0
10
7.5840675145299876
20
-10.736626818449913
30
0
10
6.3321448696496425
20
-11.339227554363706
30
0
10
5.0356856578092355
20
-11.823405162843187
30
0
10
3.7123128937310295
20
-12.17246864279617
30
0
10
2.3760180365068768
20
-12.367925397390795
30
0
10
1.0414577154964539
20
-12.392084301948149
30
0
10
-0.27069525071121547
20
-12.231385018078171
30
0
10
-1.5296585376025131
20
-11.879192040114004
30
0
10
-2.6878537142404699
20
-11.339467185019597
30
0
10
-3.6824598855907382
20
-10.627935992950102
30
0
10
-4.4485950262296541
20
-9.7696804356447693
30
0
10
-4.9300369681117679
20
-8.7976470053589075
30
0
10
-5.0902262328330572
20
-7.7508112948076757
30
0
10
-4.9250207004410118
20
-6.6725737051522218
30
0
10
-4.4692751094497769
20
-5.6089357322223705
30
0
10
-3.7822017393562546
20
-4.6061375142151944
30
0
10
-3.1055796607878587
20
-3.8879412029901368
30
0
10
-2.559867447143974
20
-3.4144994179536274
30
0
10
-2.1874771669317417
20
-3.1322799980855578
30
0
10
-2.0000000298023224
20
-3.0000000447034836
30
0
0
ELLIPSE
5
102
100
AcDbEntity
8
0
100
AcDbEllipse
10
-10.000000149011612
20
8.0000001192092896
30
0
11
0
21
2.0000000298023224
31
0.0
40
0.5
41
0
42
6.2831853071795862
0
LINE
5
103
100
AcDbEntity
8
0
100
AcDbLine
10
-10.000000149011612
20
6.0000000894069672
30
0
11
-10.000000149011612
21
10.000000149011612
31
0
0
LINE
5
104
100
AcDbEntity
8
0
100
AcDbLine
10
-9.0000001341104507
20
8.0000001192092896
30
0
11
-11.000000163912773
21
8.0000001192092896
31
0
0
ENDSEC
0
SECTION
2
OBJECTS
0
DICTIONARY
5
C
100
AcDbDictionary
3
ACAD_GROUP
350
D
3
ACAD_MLINESTYLE
350
17
0
DICTIONARY
5
D
100
AcDbDictionary
0
DICTIONARY
5
1A
330
C
100
AcDbDictionary
0
DICTIONARY
5
17
100
AcDbDictionary
0
ENDSEC
0
EOF
