0
SECTION
2
HEADER
9
$INSUNITS
70
4
9
$ACADVER
1
AC1014
9
$HANDSEED
5
FFFF
0
ENDSEC
0
SECTION
2
TABLES
0
TABLE
2
VPORT
5
8
100
AcDbSymbolTable
0
ENDTAB
0
TABLE
2
LTYPE
5
5
100
AcDbSymbolTable
0
LTYPE
5
14
100
AcDbSymbolTableRecord
100
AcDbLinetypeTableRecord
2
BYBLOCK
70
0
0
LTYPE
5
15
100
AcDbSymbolTableRecord
100
AcDbLinetypeTableRecord
2
BYLAYER
70
0
0
ENDTAB
0
TABLE
2
LAYER
5
2
100
AcDbSymbolTable
70
2
0
LAYER
5
50
100
AcDbSymbolTableRecord
100
AcDbLayerTableRecord
2
0
70
0
6
CONTINUOUS
0
ENDTAB
0
TABLE
2
STYLE
5
3
100
AcDbSymbolTable
70
1
0
STYLE
5
11
100
AcDbSymbolTableRecord
100
AcDbTextStyleTableRecord
2
STANDARD
70
0
0
ENDTAB
0
TABLE
2
VIEW
5
6
100
AcDbSymbolTable
70
0
0
ENDTAB
0
TABLE
2
UCS
5
7
100
AcDbSymbolTable
70
0
0
ENDTAB
0
TABLE
2
APPID
5
9
100
AcDbSymbolTable
70
2
0
APPID
5
12
100
AcDbSymbolTableRecord
100
AcDbRegAppTableRecord
2
ACAD
70
0
0
ENDTAB
0
TABLE
2
DIMSTYLE
5
A
100
AcDbSymbolTable
70
1
0
ENDTAB
0
TABLE
2
BLOCK_RECORD
5
1
100
AcDbSymbolTable
70
1
0
BLOCK_RECORD
5
1F
100
AcDbSymbolTableRecord
100
AcDbBlockTableRecord
2
*MODEL_SPACE
0
BLOCK_RECORD
5
1B
100
AcDbSymbolTableRecord
100
AcDbBlockTableRecord
2
*PAPER_SPACE
0
ENDTAB
0
ENDSEC
0
SECTION
2
BLOCKS
0
BLOCK
5
20
100
AcDbEntity
100
AcDbBlockBegin
2
*MODEL_SPACE
0
ENDBLK
5
21
100
AcDbEntity
100
AcDbBlockEnd
0
BLOCK
5
1C
100
AcDbEntity
100
AcDbBlockBegin
2
*PAPER_SPACE
0
ENDBLK
5
1D
100
AcDbEntity
100
AcDbBlockEnd
0
ENDSEC
0
SECTION
2
ENTITIES
0
LINE
5
100
100
AcDbEntity
8
0
100
AcDbLine
10
-73.521255551055219
20
53.422775049472961
30
0
11
-78.23606730675499
21
48.667110782837142
31
0
0
LINE
5
101
100
AcDbEntity
8
0
100
AcDbLine
10
-78.23063795586917
20
47.408472422485374
30
0
11
-76.97892535620808
21
46.167512390667504
31
0
0
LINE
5
102
100
AcDbEntity
8
0
100
AcDbLine
10
-75.720286995856327
20
46.172941741553302
30
0
11
-70.913792587732502
21
51.021083064876777
31
0
0
SPLINE
5
103
100
AcDbEntity
8
0
100
AcDbSpline
70
4
71
5
72
25
73
19
74
0
42
0.000000001
43
0.0000000001
44
0.0000000001
40
0
40
0
40
0
40
0
40
0
40
0
40
0.066666666666666666
40
0.13333333333333333
40
0.20000000000000001
40
0.26666666666666666
40
0.33333333333333331
40
0.39999999999999997
40
0.46666666666666662
40
0.53333333333333333
40
0.59999999999999998
40
0.66666666666666663
40
0.73333333333333328
40
0.79999999999999993
40
0.86666666666666659
40
0.88668389263698633
40
0.88668389263698633
40
0.88668389263698633
40
0.88668389263698633
40
0.88668389263698633
40
0.88668389263698633
41
1
41
1
41
1
41
1
41
1
41
1
41
1
41
1
41
1
41
1
41
1
41
1
41
1
41
1
41
1
41
1
41
1
41
1
41
1
10
-70.913792587732502
20
51.021083064876777
30
0
10
-70.785099028467187
20
50.868500976972697
30
0
10
-70.517643596918617
20
50.556445992081962
30
0
10
-70.086254766099984
20
50.067690468452824
30
0
10
-69.450225520928555
20
49.374375081763418
30
0
10
-68.552620176755624
20
48.437829362300732
30
0
10
-67.553762687479605
20
47.433195261305372
30
0
10
-66.459880300960194
20
46.366546194157756
30
0
10
-65.285896588213092
20
45.25122434194828
30
0
10
-64.056453174177548
20
44.108601723507874
30
0
10
-62.801190589386877
20
42.964191890162773
30
0
10
-61.551694968535664
20
41.845070115365502
30
0
10
-60.337797878123652
20
40.77670277292534
30
0
10
-59.184566808512841
20
39.780333047186275
30
0
10
-58.258431013220672
20
38.996456911697138
30
0
10
-57.593112443323221
20
38.444023521499091
30
0
10
-57.151883763717599
20
38.083078445787834
30
0
10
-56.909669752070315
20
37.886736329773512
30
0
10
-56.854120993678322
20
37.841806312782083
30
0
0
SPLINE
5
104
100
AcDbEntity
8
0
100
AcDbSpline
70
4
71
5
72
25
73
19
74
0
42
0.000000001
43
0.0000000001
44
0.0000000001
40
0
40
0
40
0
40
0
40
0
40
0
40
0.066666666666666666
40
0.13333333333333333
40
0.20000000000000001
40
0.26666666666666666
40
0.33333333333333331
40
0.39999999999999997
40
0.46666666666666662
40
0.53333333333333333
40
0.59999999999999998
40
0.66666666666666663
40
0.73333333333333328
40
0.79999999999999993
40
0.86666666666666659
40
0.93039559403989025
40
0.93039559403989025
40
0.93039559403989025
40
0.93039559403989025
40
0.93039559403989025
40
0.93039559403989025
41
1
41
1
41
1
41
1
41
1
41
1
41
1
41
1
41
1
41
1
41
1
41
1
41
1
41
1
41
1
41
1
41
1
41
1
41
1
10
-60.00803504454079
20
60.007888037398452
30
0
10
-59.797401984406271
20
59.811475387246851
30
0
10
-59.379262739153091
20
59.419209480885797
30
0
10
-58.761434402903788
20
58.83248872320469
30
0
10
-57.956561528639277
20
58.053575699505771
30
0
10
-56.982867549071869
20
57.085349404336043
30
0
10
-56.042843457462808
20
56.121623206000947
30
0
10
-55.137860549898022
20
55.160315711618075
30
0
10
-54.269071383692534
20
54.19774412950062
30
0
10
-53.436904261870495
20
53.227962093975478
30
0
10
-52.641232300673465
20
52.2435535177395
30
0
10
-51.881585836820818
20
51.236687860196724
30
0
10
-51.157214789905623
20
50.200114398669484
30
0
10
-50.46708199447562
20
49.128244965804143
30
0
10
-49.815534307553058
20
48.028163633685068
30
0
10
-49.319934162295581
20
47.11973967153763
30
0
10
-48.962726499072332
20
46.424168302956829
30
0
10
-48.731994377845183
20
45.956646757449633
30
0
10
-48.62056354648368
20
45.726425596123654
30
0
0
LINE
5
105
100
AcDbEntity
8
0
100
AcDbLine
10
-55.404420778614764
20
38.533785842289852
30
0
11
-55.404420778614714
21
44.448681931694757
31
0
0
LINE
5
106
100
AcDbEntity
8
0
100
AcDbLine
10
-55.404420778614714
20
44.448681931694757
30
0
11
-49.421659577365887
21
44.448681931694736
31
0
0
LINE
5
107
100
AcDbEntity
8
0
100
AcDbLine
10
-65.430249425409968
20
65.368606891304665
30
0
11
-57.743284963707694
21
73.135218321498627
31
0
0
LINE
5
108
100
AcDbEntity
8
0
100
AcDbLine
10
-56.484651609754394
20
73.141705255771086
30
0
11
-52.330502591240631
21
69.03015723224209
31
0
0
LINE
5
109
100
AcDbEntity
8
0
100
AcDbLine
10
-52.324015656995797
20
67.771523878288662
30
0
11
-60.00803504454079
21
60.007888037398452
31
0
0
LINE
5
110
100
AcDbEntity
8
0
100
AcDbLine
10
-76.775664015857231
20
68.218176883729072
30
0
11
-77.872017216478355
21
63.4323740191669
31
0
0
LINE
5
111
100
AcDbEntity
8
0
100
AcDbLine
10
-74.452895827363534
20
64.714593737102589
30
0
11
-75.56594759931194
21
59.855898235608322
31
0
0
LINE
5
112
100
AcDbEntity
8
0
100
AcDbLine
10
-74.452895827363534
20
64.714593737102589
30
0
11
-69.641009209595026
21
66.237003967045808
31
0
0
LINE
5
113
100
AcDbEntity
8
0
100
AcDbLine
10
-76.775664015857231
20
68.218176883729072
30
0
11
-73.102793258378469
21
68.802887427050251
31
0
0
LINE
5
114
100
AcDbEntity
8
0
100
AcDbLine
10
-61.467645552081663
20
51.192313504556289
30
0
11
-62.189419171405369
21
45.116045393742219
31
0
0
LINE
5
115
100
AcDbEntity
8
0
100
AcDbLine
10
-59.104053883502431
20
48.563482808499273
30
0
11
-59.665536963797557
21
42.851729144111275
31
0
0
LINE
5
116
100
AcDbEntity
8
0
100
AcDbLine
10
-61.467645552081663
20
51.192313504556289
30
0
11
-55.190295004006686
21
52.1916497935877
31
0
0
LINE
5
117
100
AcDbEntity
8
0
100
AcDbLine
10
-59.104053883502431
20
48.563482808499273
30
0
11
-53.128975845753203
21
49.514698181725507
31
0
0
ARC
5
118
100
AcDbEntity
8
0
100
AcDbCircle
10
-77.604033451136189
20
48.040506278104161
30
0
40
0.89000000000001511
210
0
220
0
230
1
100
AcDbArc
50
135.24715356815821
51
225.24715356815756
0
ARC
5
119
100
AcDbEntity
8
0
100
AcDbCircle
10
-76.352320851475099
20
46.799546246286276
30
0
40
0.88999999999998991
210
0
220
0
230
1
100
AcDbArc
50
225.2471535681569
51
315.24715356815727
0
ARC
5
120
100
AcDbEntity
8
0
100
AcDbCircle
10
-57.110724819595056
20
72.509145111705337
30
0
40
0.88999999996666412
210
0
220
-0
230
1
100
AcDbArc
50
45.29529700688812
51
135.29529701117909
0
ARC
5
121
100
AcDbEntity
8
0
100
AcDbCircle
10
-52.956575801094921
20
68.397597088142959
30
0
40
0.88999999999998403
210
-0
220
0
230
1
100
AcDbArc
50
-44.704702992224348
51
45.295297007776284
0
ARC
5
122
100
AcDbEntity
8
0
100
AcDbCircle
10
-49.421659577365887
20
45.338681931694737
30
0
40
0.88999999999999524
210
-0
220
0
230
1
100
AcDbArc
50
-90
51
25.827746181061684
0
ARC
5
123
100
AcDbEntity
8
0
100
AcDbCircle
10
-56.294420778614764
20
38.533785842289859
30
0
40
0.89000000000000257
210
0
220
0
230
1
100
AcDbArc
50
231.03270793131156
51
360
0
LINE
5
124
100
AcDbEntity
8
0
100
AcDbLine
10
-63.772632754382585
20
63.88970595784356
30
0
11
-61.218466186262447
21
66.470337019759256
31
0
0
LINE
5
125
100
AcDbEntity
8
0
100
AcDbLine
10
-61.218466186262447
20
66.470337019759256
30
0
11
-58.611096423911498
21
63.88970595784356
31
0
0
LINE
5
126
100
AcDbEntity
8
0
100
AcDbLine
10
-58.611096423911498
20
63.88970595784356
30
0
11
-61.218466186262447
21
61.255320447279573
31
0
0
CIRCLE
5
127
100
AcDbEntity
8
0
100
AcDbCircle
10
-80.900766871142849
20
75.532532622484155
30
0
40
0
210
0
220
0
230
1
0
CIRCLE
5
128
100
AcDbEntity
8
0
100
AcDbCircle
10
-80.568970733697952
20
78.253782692479476
30
0
40
1.5364324184986697
210
0
220
0
230
1
0
ARC
5
129
100
AcDbEntity
8
0
100
AcDbCircle
10
-80.568970733697952
20
78.253782692479476
30
0
40
3.7179407713898991
210
0
220
0
230
1
100
AcDbArc
50
-65.900053268771174
51
231.60323479127931
0
SPLINE
5
130
100
AcDbEntity
8
0
100
AcDbSpline
70
4
71
5
72
26
73
20
74
0
42
0.000000001
43
0.0000000001
44
0.0000000001
40
0
40
0
40
0
40
0
40
0
40
0
40
0.066666666666666666
40
0.13333333333333333
40
0.20000000000000001
40
0.26666666666666666
40
0.33333333333333331
40
0.39999999999999997
40
0.46666666666666662
40
0.53333333333333333
40
0.59999999999999998
40
0.66666666666666663
40
0.73333333333333328
40
0.79999999999999993
40
0.86666666666666659
40
0.93333333333333324
40
1
40
1
40
1
40
1
40
1
40
1
41
1
41
1
41
1
41
1
41
1
41
1
41
1
41
1
41
1
41
1
41
1
41
1
41
1
41
1
41
1
41
1
41
1
41
1
41
1
41
1
10
-79.050825422173475
20
74.859917875981978
30
0
10
-78.884914264038414
20
74.783594401105915
30
0
10
-78.557037807010659
20
74.628720837552251
30
0
10
-78.077054609033368
20
74.38972717340468
30
0
10
-77.452792633128425
20
74.053568379932187
30
0
10
-76.656453278490361
20
73.582670287317853
30
0
10
-75.797719472259772
20
73.038423710264226
30
0
10
-74.841701777852052
20
72.405786757749297
30
0
10
-73.786725872126794
20
71.689775747825877
30
0
10
-72.666726386065818
20
70.916418276947667
30
0
10
-71.53264825334638
20
70.121174815379646
30
0
10
-70.440540384918023
20
69.34141626594581
30
0
10
-69.436574964557877
20
68.607028482998274
30
0
10
-68.544759592415772
20
67.932714178947847
30
0
10
-67.748449198835829
20
67.306319703350624
30
0
10
-67.002093989590406
20
66.696706146613963
30
0
10
-66.401289069019811
20
66.192849616122814
30
0
10
-65.927369438961051
20
65.791541506253907
30
0
10
-65.598166027920314
20
65.511645009808291
30
0
10
-65.430249425409968
20
65.368606891304665
30
0
0
SPLINE
5
131
100
AcDbEntity
8
0
100
AcDbSpline
70
4
71
5
72
31
73
25
74
0
42
0.000000001
43
0.0000000001
44
0.0000000001
40
0
40
0
40
0
40
0
40
0
40
0
40
0.050000000000000003
40
0.10000000000000001
40
0.15000000000000002
40
0.20000000000000001
40
0.25
40
0.29999999999999999
40
0.34999999999999998
40
0.39999999999999997
40
0.44999999999999996
40
0.49999999999999994
40
0.54999999999999993
40
0.59999999999999998
40
0.65000000000000002
40
0.70000000000000007
40
0.75000000000000011
40
0.80000000000000016
40
0.8500000000000002
40
0.90000000000000024
40
0.95000000000000029
40
1
40
1
40
1
40
1
40
1
40
1
41
1
41
1
41
1
41
1
41
1
41
1
41
1
41
1
41
1
41
1
41
1
41
1
41
1
41
1
41
1
41
1
41
1
41
1
41
1
41
1
41
1
41
1
41
1
41
1
41
1
10
-73.521255551055219
20
53.422775049472961
30
0
10
-73.69494373461346
20
53.642944830780365
30
0
10
-74.051010487888988
20
54.100424451395021
30
0
10
-74.611181598360261
20
54.838063933057988
30
0
10
-75.405789067812293
20
55.915095635058982
30
0
10
-76.451369446886801
20
57.362376831641058
30
0
10
-77.51167721124726
20
58.838712657735634
30
0
10
-78.544354335385563
20
60.26952103100345
30
0
10
-79.507694486215527
20
61.591394099517096
30
0
10
-80.366422661524183
20
62.767371699496024
30
0
10
-81.096824316883641
20
63.799615878628025
30
0
10
-81.694077839695325
20
64.750276493214571
30
0
10
-82.168666101470905
20
65.720136415752435
30
0
10
-82.539368905598693
20
66.813788270863682
30
0
10
-82.827596917737679
20
68.108823858927849
30
0
10
-83.051542749118425
20
69.624387301826417
30
0
10
-83.220051631174684
20
71.285516625907931
30
0
10
-83.327828206136303
20
72.897690323881307
30
0
10
-83.364593619861637
20
74.23219260457725
30
0
10
-83.322694198978823
20
75.098617372238138
30
0
10
-83.206009167536934
20
75.428387674710279
30
0
10
-83.070884517794624
20
75.35998391859043
30
0
10
-82.970080659911716
20
75.312724916993943
30
0
10
-82.907977733954198
20
75.323789729578351
30
0
10
-82.878196884941929
20
75.339926456840146
30
0
0
LINE
5
132
100
AcDbEntity
8
0
100
AcDbLine
10
-71.140094973520434
20
53.633527147563782
30
0
11
-70.794684132119528
21
53.981930876254182
31
0
0
SPLINE
5
133
100
AcDbEntity
8
0
100
AcDbSpline
70
0
71
3
72
11
73
7
74
0
42
0.000000001
43
0.0000000001
44
0.0000000001
40
0.44899751736626603
40
0.44899751736626603
40
0.44899751736626603
40
0.44899751736626603
40
0.45376837135903814
40
0.45376837135903814
40
0.45376837135903814
40
0.63657991929132507
40
0.63657991929132507
40
0.63657991929132507
40
0.63657991929132507
10
-55.190295004006686
20
52.1916497935877
30
0
10
-55.171516175363358
20
52.169433524813883
30
0
10
-55.152773703975271
20
52.147217682300692
30
0
10
-55.134067693405413
20
52.125002182442799
30
0
10
-54.417283077256222
20
51.273739510547536
30
0
10
-53.751735256646626
20
50.410636337604714
30
0
10
-53.128975845753189
20
49.514698181725485
30
0
0
SPLINE
5
134
100
AcDbEntity
8
0
100
AcDbSpline
70
0
71
3
72
8
73
4
74
0
42
0.000000001
43
0.0000000001
44
0.0000000001
40
0.49399031466553728
40
0.49399031466553728
40
0.49399031466553728
40
0.49399031466553728
40
0.63131569934681164
40
0.63131569934681164
40
0.63131569934681164
40
0.63131569934681164
10
-62.189419171405369
20
45.116045393742219
30
0
10
-61.343082131599346
20
44.342833755118704
30
0
10
-60.487460252657471
20
43.575698150214599
30
0
10
-59.665536963797557
20
42.851729144111275
30
0
0
SPLINE
5
135
100
AcDbEntity
8
0
100
AcDbSpline
70
0
71
3
72
8
73
4
74
0
42
0.000000001
43
0.0000000001
44
0.0000000001
40
0.11421972427748719
40
0.11421972427748719
40
0.11421972427748719
40
0.11421972427748719
40
0.18881121927360284
40
0.18881121927360284
40
0.18881121927360284
40
0.18881121927360284
10
-75.56594759931194
20
59.855898235608322
30
0
10
-76.384156482949692
20
61.110988316247912
30
0
10
-77.177660614194124
20
62.349620443306421
30
0
10
-77.872017216478355
20
63.4323740191669
30
0
0
SPLINE
5
136
100
AcDbEntity
8
0
100
AcDbSpline
70
0
71
3
72
11
73
7
74
0
42
0.000000001
43
0.0000000001
44
0.0000000001
40
0.77529097235439226
40
0.77529097235439226
40
0.77529097235439226
40
0.77529097235439226
40
0.79862424144012267
40
0.79862424144012267
40
0.79862424144012267
40
0.89322565662040754
40
0.89322565662040754
40
0.89322565662040754
40
0.89322565662040754
10
-73.102793258378469
20
68.802887427050251
30
0
10
-72.827006681930499
20
68.607487920007145
30
0
10
-72.56468165834076
20
68.419757941784852
30
0
10
-72.315539913885658
20
68.240452836749398
30
0
10
-71.305430206611462
20
67.513485834265538
30
0
10
-70.469814219222542
20
66.887179215048207
30
0
10
-69.641009209595026
20
66.237003967045808
30
0
0
ENDSEC
0
SECTION
2
OBJECTS
0
DICTIONARY
5
C
100
AcDbDictionary
3
ACAD_GROUP
350
D
3
ACAD_MLINESTYLE
350
17
0
DICTIONARY
5
D
100
AcDbDictionary
0
DICTIONARY
5
1A
330
C
100
AcDbDictionary
0
DICTIONARY
5
17
100
AcDbDictionary
0
ENDSEC
0
EOF
