0
SECTION
2
HEADER
9
$INSUNITS
70
4
9
$ACADVER
1
AC1014
9
$HANDSEED
5
FFFF
0
ENDSEC
0
SECTION
2
TABLES
0
TABLE
2
VPORT
5
8
100
AcDbSymbolTable
0
ENDTAB
0
TABLE
2
LTYPE
5
5
100
AcDbSymbolTable
0
LTYPE
5
14
100
AcDbSymbolTableRecord
100
AcDbLinetypeTableRecord
2
BYBLOCK
70
0
0
LTYPE
5
15
100
AcDbSymbolTableRecord
100
AcDbLinetypeTableRecord
2
BYLAYER
70
0
0
ENDTAB
0
TABLE
2
LAYER
5
2
100
AcDbSymbolTable
70
2
0
LAYER
5
50
100
AcDbSymbolTableRecord
100
AcDbLayerTableRecord
2
0
70
0
6
CONTINUOUS
0
ENDTAB
0
TABLE
2
STYLE
5
3
100
AcDbSymbolTable
70
1
0
STYLE
5
11
100
AcDbSymbolTableRecord
100
AcDbTextStyleTableRecord
2
STANDARD
70
0
0
ENDTAB
0
TABLE
2
VIEW
5
6
100
AcDbSymbolTable
70
0
0
ENDTAB
0
TABLE
2
UCS
5
7
100
AcDbSymbolTable
70
0
0
ENDTAB
0
TABLE
2
APPID
5
9
100
AcDbSymbolTable
70
2
0
APPID
5
12
100
AcDbSymbolTableRecord
100
AcDbRegAppTableRecord
2
ACAD
70
0
0
ENDTAB
0
TABLE
2
DIMSTYLE
5
A
100
AcDbSymbolTable
70
1
0
ENDTAB
0
TABLE
2
BLOCK_RECORD
5
1
100
AcDbSymbolTable
70
1
0
BLOCK_RECORD
5
1F
100
AcDbSymbolTableRecord
100
AcDbBlockTableRecord
2
*MODEL_SPACE
0
BLOCK_RECORD
5
1B
100
AcDbSymbolTableRecord
100
AcDbBlockTableRecord
2
*PAPER_SPACE
0
ENDTAB
0
ENDSEC
0
SECTION
2
BLOCKS
0
BLOCK
5
20
100
AcDbEntity
100
AcDbBlockBegin
2
*MODEL_SPACE
0
ENDBLK
5
21
100
AcDbEntity
100
AcDbBlockEnd
0
BLOCK
5
1C
100
AcDbEntity
100
AcDbBlockBegin
2
*PAPER_SPACE
0
ENDBLK
5
1D
100
AcDbEntity
100
AcDbBlockEnd
0
ENDSEC
0
SECTION
2
ENTITIES
0
LWPOLYLINE
5
100
100
AcDbEntity
8
0
100
AcDbPolyline
90
1
70
1
43
0.0
0
LWPOLYLINE
5
101
100
AcDbEntity
8
0
100
AcDbPolyline
90
1
70
1
43
0.0
0
SPLINE
5
102
100
AcDbEntity
8
0
100
AcDbSpline
70
4
71
5
72
13
73
7
74
0
42
0.000000001
43
0.0000000001
44
0.0000000001
40
0.11471967520284018
40
0.11471967520284018
40
0.11471967520284018
40
0.11471967520284018
40
0.11471967520284018
40
0.11471967520284018
40
0.15000000000000002
40
0.16142390681932789
40
0.16142390681932789
40
0.16142390681932789
40
0.16142390681932789
40
0.16142390681932789
40
0.16142390681932789
41
1
41
1
41
1
41
1
41
1
41
1
41
1
10
-11.466444873079599
20
17.17202127313972
30
0
10
-10.891313391448952
20
16.778782086298413
30
0
10
-10.123275241959615
20
16.213878807612375
30
0
10
-9.347298101029331
20
15.590609093872754
30
0
10
-8.5643437049326288
20
14.909720939020318
30
0
10
-7.775515371658126
20
14.172741030599445
30
0
10
-7.5822327794107416
20
13.989144479283889
30
0
0
LWPOLYLINE
5
103
100
AcDbEntity
8
0
100
AcDbPolyline
90
1
70
1
43
0.0
0
SPLINE
5
104
100
AcDbEntity
8
0
100
AcDbSpline
70
4
71
5
72
14
73
8
74
0
42
0.000000001
43
0.0000000001
44
0.0000000001
40
0.046135452189836348
40
0.046135452189836348
40
0.046135452189836348
40
0.046135452189836348
40
0.046135452189836348
40
0.046135452189836348
40
0.050000000000000003
40
0.10000000000000001
40
0.10686458997807805
40
0.10686458997807805
40
0.10686458997807805
40
0.10686458997807805
40
0.10686458997807805
40
0.10686458997807805
41
1
41
1
41
1
41
1
41
1
41
1
41
1
41
1
10
-11.826691618437808
20
16.203691295557498
30
0
10
-11.85245418839653
20
16.129039980140458
30
0
10
-12.208505640488173
20
15.082651782770046
30
0
10
-12.562105257732963
20
13.811133671070497
30
0
10
-12.858706680077887
20
12.448206530225253
30
0
10
-13.097292742108362
20
11.008361849105912
30
0
10
-13.270522663883156
20
9.6051235525501113
30
0
10
-13.29070501962461
20
9.4349473398736343
30
0
0
LWPOLYLINE
5
105
100
AcDbEntity
8
0
100
AcDbPolyline
90
1
70
1
43
0.0
0
LWPOLYLINE
5
106
100
AcDbEntity
8
0
100
AcDbPolyline
90
1
70
1
43
0.0
0
SPLINE
5
107
100
AcDbEntity
8
0
100
AcDbSpline
70
0
71
3
72
17
73
13
74
0
42
0.000000001
43
0.0000000001
44
0.0000000001
40
0.82528660075720917
40
0.82528660075720917
40
0.82528660075720917
40
0.82528660075720917
40
0.84119873183723581
40
0.84119873183723581
40
0.84119873183723581
40
0.89896088641242
40
0.89896088641242
40
0.89896088641242
40
0.94903360659197655
40
0.94903360659197655
40
0.94903360659197655
40
1
40
1
40
1
40
1
10
-0.55343052585034702
20
19.065720540239862
30
0
10
-0.75879866045112387
20
19.555517744661305
30
0
10
-0.97991878424882151
20
20.012267450169986
30
0
10
-1.2169572704898659
20
20.433346993365383
30
0
10
-2.0774236413149074
20
21.961895340546278
30
0
10
-3.1685862098014961
20
23.057824347977942
30
0
10
-4.4659401434733779
20
23.533556288654353
30
0
10
-5.5905872583943328
20
23.94595767016725
30
0
10
-6.8280182038475088
20
23.83418528042521
30
0
10
-7.9126884537743969
20
23.295695144821021
30
0
10
-9.016717363678179
20
22.747594302703238
30
0
10
-9.9890839018613633
20
21.797782588453231
30
0
10
-10.827635364767328
20
20.561266187106241
30
0
0
SPLINE
5
108
100
AcDbEntity
8
0
100
AcDbSpline
70
4
71
5
72
20
73
14
74
0
42
0.000000001
43
0.0000000001
44
0.0000000001
40
0.82359687555441485
40
0.82359687555441485
40
0.82359687555441485
40
0.82359687555441485
40
0.82359687555441485
40
0.82359687555441485
40
0.8500000000000002
40
0.90000000000000024
40
0.95000000000000029
40
1
40
1
40
1
40
1
40
1
40
1.0357893426092852
40
1.0357893426092852
40
1.0357893426092852
40
1.0357893426092852
40
1.0357893426092852
40
1.0357893426092852
41
1
41
1
41
1
41
1
41
1
41
1
41
1
41
1
41
1
41
1
41
1
41
1
41
1
41
1
10
-1.4149949349075019
20
18.534163107712981
30
0
10
-1.6034379491334947
20
18.996509952434085
30
0
10
-2.1791977402822562
20
20.249914792422096
30
0
10
-3.2709378141807659
20
21.905367465599639
30
0
10
-5.0604029366775816
20
23.177231037764585
30
0
10
-7.0127454474228799
20
22.974197878359313
30
0
10
-8.5870648269902166
20
21.822842030996917
30
0
10
-9.5471133860525281
20
20.6678203436148
30
0
10
-10
20
20
30
0
10
-10.324170283794505
20
19.521982978418379
30
0
10
-10.634436562435056
20
18.997695810699167
30
0
10
-10.929051993197421
20
18.429541807547309
30
0
10
-11.206704687452277
20
17.820084879474237
30
0
10
-11.466444873833463
20
17.172021271546271
30
0
0
SPLINE
5
109
100
AcDbEntity
8
0
100
AcDbSpline
70
4
71
5
72
12
73
6
74
0
42
0.000000001
43
0.0000000001
44
0.0000000001
40
1.1422664417862232
40
1.1422664417862232
40
1.1422664417862232
40
1.1422664417862232
40
1.1422664417862232
40
1.1422664417862232
40
1.1954854265621226
40
1.1954854265621226
40
1.1954854265621226
40
1.1954854265621226
40
1.1954854265621226
40
1.1954854265621226
41
1
41
1
41
1
41
1
41
1
41
1
10
-1.0591947186703867
20
17.575128499021339
30
0
10
-2.1573352738061828
20
16.871620008733942
30
0
10
-3.2975308432122965
20
16.08365392460901
30
0
10
-4.4691843677933196
20
15.218137976637752
30
0
10
-5.6609745298485254
20
14.283214787197508
30
0
10
-6.8614468822403119
20
13.287843853720799
30
0
0
SPLINE
5
110
100
AcDbEntity
8
0
100
AcDbSpline
70
0
71
3
72
14
73
10
74
0
42
0.000000001
43
0.0000000001
44
0.0000000001
40
0
40
0
40
0
40
0
40
0.035586951726084018
40
0.035586951726084018
40
0.035586951726084018
40
0.096312350553585058
40
0.096312350553585058
40
0.096312350553585058
40
0.13215894414630622
40
0.13215894414630622
40
0.13215894414630622
40
0.13215894414630622
10
9.6604068099428897
20
20.596063413435409
30
0
10
9.1867997446716352
20
21.234044377718106
30
0
10
8.4481417398859051
20
21.637926739032942
30
0
10
7.6524014974107821
20
21.775608024391989
30
0
10
6.2945542740989815
20
22.010546690363281
30
0
10
4.7313265971804386
20
21.632853292032127
30
0
10
2.9125843917577274
20
20.862788801043926
30
0
10
1.8389691673783077
20
20.408214777955934
30
0
10
0.67439250234928472
20
19.802181529470733
30
0
10
-0.55343050475399791
20
19.065720529043396
30
0
0
SPLINE
5
111
100
AcDbEntity
8
0
100
AcDbSpline
70
0
71
3
72
8
73
4
74
0
42
0.000000001
43
0.0000000001
44
0.0000000001
40
0.14044807092370443
40
0.14044807092370443
40
0.14044807092370443
40
0.14044807092370443
40
0.19620537737391627
40
0.19620537737391627
40
0.19620537737391627
40
0.19620537737391627
10
-1.4149947482520742
20
18.534162812927665
30
0
10
-3.3679941563106519
20
17.296565293658198
30
0
10
-5.4585063272668126
20
15.755177049338368
30
0
10
-7.5822327502546329
20
13.989144519109189
30
0
0
SPLINE
5
112
100
AcDbEntity
8
0
100
AcDbSpline
70
0
71
3
72
11
73
7
74
0
42
0.000000001
43
0.0000000001
44
0.0000000001
40
0.7456721602514168
40
0.7456721602514168
40
0.7456721602514168
40
0.7456721602514168
40
0.74825740875665769
40
0.74825740875665769
40
0.74825740875665769
40
0.81542291484164209
40
0.81542291484164209
40
0.81542291484164209
40
0.81542291484164209
10
1.3669912356745226
20
9.5604461011889317
30
0
10
1.3585734305317534
20
9.6830380650346122
30
0
10
1.3497554029170267
20
9.8051315759943378
30
0
10
1.3405337398684742
20
9.9267075338560105
30
0
10
1.1009522588829475
20
13.085286185382998
30
0
10
0.59506655880831605
20
15.881262462420562
30
0
10
-0.18963566535560558
20
18.117395732324297
30
0
0
SPLINE
5
113
100
AcDbEntity
8
0
100
AcDbSpline
70
4
71
5
72
14
73
8
74
0
42
0.000000001
43
0.0000000001
44
0.0000000001
40
0.7470621449783964
40
0.7470621449783964
40
0.7470621449783964
40
0.7470621449783964
40
0.7470621449783964
40
0.7470621449783964
40
0.75000000000000011
40
0.80000000000000016
40
0.81315750008812826
40
0.81315750008812826
40
0.81315750008812826
40
0.81315750008812826
40
0.81315750008812826
40
0.81315750008812826
41
1
41
1
41
1
41
1
41
1
41
1
41
1
41
1
10
0.35569787626354388
20
9.6853519678028626
30
0
10
0.3497717629030892
20
9.766983066709658
30
0
10
0.24032572016767892
20
11.234273790468023
30
0
10
0.043723994128759422
20
12.983361010054818
30
0
10
-0.22901310505346201
20
14.605549450646894
30
0
10
-0.57700981410113938
20
16.074816445532548
30
0
10
-0.97379239853234878
20
17.322199877720998
30
0
10
-1.059194541040001
20
17.57512822197662
30
0
0
SPLINE
5
114
100
AcDbEntity
8
0
100
AcDbSpline
70
4
71
5
72
13
73
7
74
0
42
0.000000001
43
0.0000000001
44
0.0000000001
40
0.16992324915632487
40
0.16992324915632487
40
0.16992324915632487
40
0.16992324915632487
40
0.16992324915632487
40
0.16992324915632487
40
0.20000000000000001
40
0.20528312826157225
40
0.20528312826157225
40
0.20528312826157225
40
0.20528312826157225
40
0.20528312826157225
40
0.20528312826157225
41
1
41
1
41
1
41
1
41
1
41
1
41
1
10
-6.8614469443387671
20
13.28784379119519
30
0
10
-6.3501094772321682
20
12.778615054010462
30
0
10
-5.7465551872425902
20
12.153305401575977
30
0
10
-5.1406573219292495
20
11.497452446959935
30
0
10
-4.5330791912020931
20
10.812226772845314
30
0
10
-3.9247214834666435
20
10.099205248992845
30
0
10
-3.8338123404040019
20
9.9920575012592252
30
0
0
SPLINE
5
115
100
AcDbEntity
8
0
100
AcDbSpline
70
0
71
3
72
11
73
7
74
0
42
0.000000001
43
0.0000000001
44
0.0000000001
40
0.20896489461965689
40
0.20896489461965689
40
0.20896489461965689
40
0.20896489461965689
40
0.22936797054077568
40
0.22936797054077568
40
0.22936797054077568
40
0.2602274503997431
40
0.2602274503997431
40
0.2602274503997431
40
0.2602274503997431
10
-12.03333334452666
20
8.6014003234430714
30
0
10
-11.041287066848927
20
8.7330146401481574
30
0
10
-10.029304337295271
20
8.8353562447602787
30
0
10
-9.0048767979179836
20
8.9049840038290142
30
0
10
-7.455438804322978
20
9.0102954008415903
30
0
10
-5.8787117035260046
20
9.0396006802461795
30
0
10
-4.3041076690449245
20
8.99816062814158
30
0
0
SPLINE
5
116
100
AcDbEntity
8
0
100
AcDbSpline
70
0
71
3
72
8
73
4
74
0
42
0.000000001
43
0.0000000001
44
0.0000000001
40
0.26898557995752109
40
0.26898557995752109
40
0.26898557995752109
40
0.26898557995752109
40
0.2913280414655457
40
0.2913280414655457
40
0.2913280414655457
40
0.2913280414655457
10
-2.9646431401574445
20
8.9459031630675803
30
0
10
-1.8272073993575106
20
8.8871338790459795
30
0
10
-0.69526010951129746
20
8.7920635657173953
30
0
10
0.42003641192839752
20
8.6626887625232403
30
0
0
SPLINE
5
117
100
AcDbEntity
8
0
100
AcDbSpline
70
4
71
5
72
12
73
6
74
0
42
0.000000001
43
0.0000000001
44
0.0000000001
40
1.2630858647542287
40
1.2630858647542287
40
1.2630858647542287
40
1.2630858647542287
40
1.2630858647542287
40
1.2630858647542287
40
1.2901465751149064
40
1.2901465751149064
40
1.2901465751149064
40
1.2901465751149064
40
1.2901465751149064
40
1.2901465751149064
41
1
41
1
41
1
41
1
41
1
41
1
10
-3.8338133070686942
20
9.9920586408267766
30
0
10
-2.989654256248981
20
9.9640534475143436
30
0
10
-2.1466407641401175
20
9.9191258516505219
30
0
10
-1.3067519281887123
20
9.8574469230818806
30
0
10
-0.47197895956095182
20
9.779361485515917
30
0
10
0.35570188624536009
20
9.6853515129250098
30
0
0
SPLINE
5
118
100
AcDbEntity
8
0
100
AcDbSpline
70
0
71
3
72
8
73
4
74
0
42
0.000000001
43
0.0000000001
44
0.0000000001
40
0.70160950633080088
40
0.70160950633080088
40
0.70160950633080088
40
0.70160950633080088
40
0.73854712668183997
40
0.73854712668183997
40
0.73854712668183997
40
0.73854712668183997
10
1.4655190386221033
20
2.9522950879747385
30
0
10
1.5260056860508784
20
4.8673603324059282
30
0
10
1.5166649377983887
20
6.7471270583631826
30
0
10
1.4275420225263429
20
8.5358846393147125
30
0
0
SPLINE
5
119
100
AcDbEntity
8
0
100
AcDbSpline
70
4
71
5
72
13
73
7
74
0
42
0.000000001
43
0.0000000001
44
0.0000000001
40
0.62579265408240936
40
0.62579265408240936
40
0.62579265408240936
40
0.62579265408240936
40
0.62579265408240936
40
0.62579265408240936
40
0.65000000000000002
40
0.67228524691645597
40
0.67228524691645597
40
0.67228524691645597
40
0.67228524691645597
40
0.67228524691645597
40
0.67228524691645597
41
1
41
1
41
1
41
1
41
1
41
1
41
1
10
-1.8534483270917812
20
-14.364942851143107
30
0
10
-2.4474431888116643
20
-13.907341469888186
30
0
10
-3.6038058687846681
20
-12.990472074835555
30
0
10
-4.7841175570180798
20
-12.005315939416922
30
0
10
-5.9766957985609164
20
-10.961485998711918
30
0
10
-7.169557770062025
20
-9.8693853135285767
30
0
10
-7.7400817611484953
20
-9.3359889296603953
30
0
0
SPLINE
5
120
100
AcDbEntity
8
0
100
AcDbSpline
70
0
71
3
72
11
73
7
74
0
42
0.000000001
43
0.0000000001
44
0.0000000001
40
0.62873517173260629
40
0.62873517173260629
40
0.62873517173260629
40
0.62873517173260629
40
0.63620554842256916
40
0.63620554842256916
40
0.63620554842256916
40
0.67195690208235681
40
0.67195690208235681
40
0.67195690208235681
40
0.67195690208235681
10
-1.5997440396217342
20
-13.29533429351261
30
0
10
-1.9027823944651556
20
-13.059005753518388
30
0
10
-2.2083244530304649
20
-12.816336919464559
30
0
10
-2.5158483235058124
20
-12.567626019959155
30
0
10
-3.9875806214182932
20
-11.377357885393929
30
0
10
-5.5047396129605177
20
-10.052443734729579
30
0
10
-7.013259692207944
20
-8.6426466417309129
30
0
0
SPLINE
5
121
100
AcDbEntity
8
0
100
AcDbSpline
70
4
71
5
72
18
73
12
74
0
42
0.000000001
43
0.0000000001
44
0.0000000001
40
0.2771903388782529
40
0.2771903388782529
40
0.2771903388782529
40
0.2771903388782529
40
0.2771903388782529
40
0.2771903388782529
40
0.29999999999999999
40
0.34999999999999998
40
0.39999999999999997
40
0.44999999999999996
40
0.49999999999999994
40
0.54999999999999993
40
0.58407061076621081
40
0.58407061076621081
40
0.58407061076621081
40
0.58407061076621081
40
0.58407061076621081
40
0.58407061076621081
41
1
41
1
41
1
41
1
41
1
41
1
41
1
41
1
41
1
41
1
41
1
41
1
10
-11.96303877371612
20
-12.988444088446126
30
0
10
-11.849876875475317
20
-13.528645776117136
30
0
10
-11.478123219125484
20
-15.219602237444594
30
0
10
-10.798612020877108
20
-17.877385344494819
30
0
10
-9.7486534524135422
20
-21.04625662314362
30
0
10
-8.2954339805841002
20
-23.771694290542381
30
0
10
-6.5651394232535276
20
-24.600608383895811
30
0
10
-4.8661872055984192
20
-23.023446562482363
30
0
10
-3.5267157947666075
20
-20.116361414844988
30
0
10
-2.6051937726848227
20
-17.25728424457251
30
0
10
-2.0650397887409495
20
-15.224436811310353
30
0
10
-1.8534483917801174
20
-14.364942835218045
30
0
0
SPLINE
5
122
100
AcDbEntity
8
0
100
AcDbSpline
70
0
71
3
72
11
73
7
74
0
42
0.000000001
43
0.0000000001
44
0.0000000001
40
0.67195350249412733
40
0.67195350249412733
40
0.67195350249412733
40
0.67195350249412733
40
0.68476424887818665
40
0.68476424887818665
40
0.68476424887818665
40
0.71040584198884882
40
0.71040584198884882
40
0.71040584198884882
40
0.71040584198884882
10
-11.963038773688904
20
-12.98844408825847
30
0
10
-11.501845654085693
20
-12.626056611700061
30
0
10
-11.036735837543567
20
-12.248149498705185
30
0
10
-10.568639742486122
20
-11.855631916136458
30
0
10
-9.6317130993134707
20
-11.069980882287888
30
0
10
-8.6853598718209
20
-10.22581481632839
30
0
10
-7.7400817598726963
20
-9.335988928295798
30
0
0
SPLINE
5
123
100
AcDbEntity
8
0
100
AcDbSpline
70
0
71
3
72
26
73
22
74
0
42
0.000000001
43
0.0000000001
44
0.0000000001
40
0.28113080740994123
40
0.28113080740994123
40
0.28113080740994123
40
0.28113080740994123
40
0.28337600200801882
40
0.28337600200801882
40
0.28337600200801882
40
0.37295400175701648
40
0.37295400175701648
40
0.37295400175701648
40
0.41510011875182778
40
0.41510011875182778
40
0.41510011875182778
40
0.44598392221386152
40
0.44598392221386152
40
0.44598392221386152
40
0.48071256049917072
40
0.48071256049917072
40
0.48071256049917072
40
0.54398110154266122
40
0.54398110154266122
40
0.54398110154266122
40
0.58073196040633124
40
0.58073196040633124
40
0.58073196040633124
40
0.58073196040633124
10
-12.841655881825604
20
-13.663555221977763
30
0
10
-12.822452361551361
20
-13.752242711582705
30
0
10
-12.803140469941015
20
-13.840582828366932
30
0
10
-12.783722501143577
20
-13.928567630563332
30
0
10
-12.008991078953121
20
-17.438954924303168
30
0
10
-11.096623047274235
20
-20.364796571306407
30
0
10
-10.045531209491301
20
-22.339929907567026
30
0
10
-9.5509963941167655
20
-23.269222824395342
30
0
10
-9.0320125406007321
20
-24.006304381958529
30
0
10
-8.3438088395600758
20
-24.502587855407015
30
0
10
-7.8395073911632878
20
-24.866254127612486
30
0
10
-7.190941641110129
20
-25.080385515529432
30
0
10
-6.5512321467096886
20
-24.993111531662642
30
0
10
-5.831882936175373
20
-24.894972498329082
30
0
10
-5.2257303163752216
20
-24.47622988836256
30
0
10
-4.7113648596861699
20
-23.918223450388254
30
0
10
-3.7742952360363633
20
-22.901648802874831
30
0
10
-2.996249655296908
20
-21.32179622483228
30
0
10
-2.2400216037041796
20
-19.206667232575214
30
0
10
-1.8007506811499767
20
-17.978050201253708
30
0
10
-1.3788607212876749
20
-16.567585737684162
30
0
10
-0.98673041787652582
20
-15.020893964055801
30
0
0
SPLINE
5
124
100
AcDbEntity
8
0
100
AcDbSpline
70
4
71
5
72
12
73
6
74
0
42
0.000000001
43
0.0000000001
44
0.0000000001
40
0.67568876219159202
40
0.67568876219159202
40
0.67568876219159202
40
0.67568876219159202
40
0.67568876219159202
40
0.67568876219159202
40
0.71001822047943319
40
0.71001822047943319
40
0.71001822047943319
40
0.71001822047943319
40
0.71001822047943319
40
0.71001822047943319
41
1
41
1
41
1
41
1
41
1
41
1
10
-12.18471358408906
20
-11.887755608893539
30
0
10
-11.452217172928016
20
-11.300753565833137
30
0
10
-10.711423130765031
20
-10.68095928280753
30
0
10
-9.9649844899335402
20
-10.030782006408662
30
0
10
-9.2156043850303178
20
-9.3528831581454455
30
0
10
-8.4659916217175475
20
-8.6501083550622866
30
0
0
SPLINE
5
125
100
AcDbEntity
8
0
100
AcDbSpline
70
4
71
5
72
13
73
7
74
0
42
0.000000001
43
0.0000000001
44
0.0000000001
40
0.27654099882391547
40
0.27654099882391547
40
0.27654099882391547
40
0.27654099882391547
40
0.27654099882391547
40
0.27654099882391547
40
0.29999999999999999
40
0.32788819245198109
40
0.32788819245198109
40
0.32788819245198109
40
0.32788819245198109
40
0.32788819245198109
40
0.32788819245198109
41
1
41
1
41
1
41
1
41
1
41
1
41
1
10
2.2188599320295914
20
1.8214843102132527
30
0
10
2.6032713838662618
20
1.2356835131465611
30
0
10
3.4355359283190561
20
-0.057491862929690482
30
0
10
4.2443070681791237
20
-1.3694227626002418
30
0
10
5.0212200094978314
20
-2.6876522627945549
30
0
10
5.7568192350976908
20
-3.9982118032733265
30
0
10
6.1426088149188462
20
-4.7054522195970776
30
0
0
SPLINE
5
126
100
AcDbEntity
8
0
100
AcDbSpline
70
4
71
5
72
18
73
12
74
0
42
0.000000001
43
0.0000000001
44
0.0000000001
40
0.33540629861831883
40
0.33540629861831883
40
0.33540629861831883
40
0.33540629861831883
40
0.33540629861831883
40
0.33540629861831883
40
0.34999999999999998
40
0.39999999999999997
40
0.44999999999999996
40
0.49999999999999994
40
0.54999999999999993
40
0.59999999999999998
40
0.61866788263539885
40
0.61866788263539885
40
0.61866788263539885
40
0.61866788263539885
40
0.61866788263539885
40
0.61866788263539885
41
1
41
1
41
1
41
1
41
1
41
1
41
1
41
1
41
1
41
1
41
1
41
1
10
6.6523281174037763
20
-5.6549736320678932
30
0
10
6.8461033657486583
20
-6.0219651830631591
30
0
10
7.6856038950747507
20
-7.6385178564220011
30
0
10
9.0244357321217628
20
-10.433529250802234
30
0
10
10.475606398238329
20
-14.130218750467192
30
0
10
11.196600790093708
20
-17.911786453457164
30
0
10
9.9962312532715352
20
-20.165837988022581
30
0
10
7.0669370994369585
20
-19.903582990922931
30
0
10
3.7747929194737493
20
-18.283048091138728
30
0
10
1.0982108032504772
20
-16.539747683320819
30
0
10
-0.53664218191235391
20
-15.355313459720588
30
0
10
-0.98673041338733691
20
-15.020893967393881
30
0
0
SPLINE
5
127
100
AcDbEntity
8
0
100
AcDbSpline
70
0
71
3
72
11
73
7
74
0
42
0.000000001
43
0.0000000001
44
0.0000000001
40
0.27889832443805068
40
0.27889832443805068
40
0.27889832443805068
40
0.27889832443805068
40
0.2963414778462391
40
0.2963414778462391
40
0.2963414778462391
40
0.32490332095653141
40
0.32490332095653141
40
0.32490332095653141
40
0.32490332095653141
10
1.5755184549740655
20
0.97829518190197684
30
0
10
2.0439574927458941
20
0.25869876818208237
30
0
10
2.5044836993207098
20
-0.46958716667290801
30
0
10
2.9546778382981573
20
-1.202841760008291
30
0
10
3.6918366573343322
20
-2.403490642962848
30
0
10
4.3990847076523849
20
-3.6154167766149841
30
0
10
5.0595192832223841
20
-4.8119861213216852
30
0
0
SPLINE
5
128
100
AcDbEntity
8
0
100
AcDbSpline
70
0
71
3
72
23
73
19
74
0
42
0.000000001
43
0.0000000001
44
0.0000000001
40
0.33251845572525884
40
0.33251845572525884
40
0.33251845572525884
40
0.33251845572525884
40
0.38429879311545923
40
0.38429879311545923
40
0.38429879311545923
40
0.43914894083759071
40
0.43914894083759071
40
0.43914894083759071
40
0.4761602675715661
40
0.4761602675715661
40
0.4761602675715661
40
0.50678877069744754
40
0.50678877069744754
40
0.50678877069744754
40
0.5502722756243873
40
0.5502722756243873
40
0.5502722756243873
40
0.62151152311943036
40
0.62151152311943036
40
0.62151152311943036
40
0.62151152311943036
10
5.5774691578557967
20
-5.7652913425682986
30
0
10
6.7273504773043902
20
-7.916297776268058
30
0
10
7.7085592315798852
20
-9.993492188146762
30
0
10
8.4203808795858848
20
-11.838176019793751
30
0
10
9.1744030531132683
20
-13.792222396587231
30
0
10
9.6157599549358217
20
-15.489086097681582
30
0
10
9.6876585415462628
20
-16.675309402785079
30
0
10
9.7361736721568644
20
-17.475739304032672
30
0
10
9.6081400269037367
20
-18.014088130812659
30
0
10
9.4485433061773545
20
-18.279879797280842
30
0
10
9.3164699899522123
20
-18.499834108720886
30
0
10
9.1970146504283008
20
-18.59439855170011
30
0
10
8.8975944660234045
20
-18.6679361746233
30
0
10
8.4725054889263305
20
-18.77233806379019
30
0
10
7.6382245619465383
20
-18.706933505222995
30
0
10
6.5155636910893442
20
-18.298069771156879
30
0
10
4.6763026709307107
20
-17.628226234123183
30
0
10
2.1108660825874908
20
-16.096942478685378
30
0
10
-0.72814982655442595
20
-13.962849021349733
30
0
0
SPLINE
5
129
100
AcDbEntity
8
0
100
AcDbSpline
70
0
71
3
72
11
73
7
74
0
42
0.000000001
43
0.0000000001
44
0.0000000001
40
0.5889540405341912
40
0.5889540405341912
40
0.5889540405341912
40
0.5889540405341912
40
0.64278655713221444
40
0.64278655713221444
40
0.64278655713221444
40
0.64365219128437112
40
0.64365219128437112
40
0.64365219128437112
40
0.64365219128437112
10
-0.72814982640853509
20
-13.962849021155641
30
0
10
-0.17417158877084712
20
-11.611319147793218
30
0
10
0.31001135649962575
20
-8.9893952138249027
30
0
10
0.68549392256900532
20
-6.2404570337660612
30
0
10
0.69153173304619586
20
-6.1962537358114993
30
0
10
0.69753990071140937
20
-6.1520210993808702
30
0
10
0.70351829744146954
20
-6.1077598414994245
30
0
0
SPLINE
5
130
100
AcDbEntity
8
0
100
AcDbSpline
70
0
71
3
72
8
73
4
74
0
42
0.000000001
43
0.0000000001
44
0.0000000001
40
0.65015009588175776
40
0.65015009588175776
40
0.65015009588175776
40
0.65015009588175776
40
0.68724610370133088
40
0.68724610370133088
40
0.68724610370133088
40
0.68724610370133088
10
0.83306247092201702
20
-5.1064801028938245
30
0
10
1.0697983740882995
20
-3.1930191351561343
30
0
10
1.2500943779891798
20
-1.2368801176966453
30
0
10
1.3638671040637496
20
0.70550658879674133
30
0
0
SPLINE
5
131
100
AcDbEntity
8
0
100
AcDbSpline
70
0
71
3
72
8
73
4
74
0
42
0.000000001
43
0.0000000001
44
0.0000000001
40
0.68480970808175534
40
0.68480970808175534
40
0.68480970808175534
40
0.68480970808175534
40
0.71354298809514405
40
0.71354298809514405
40
0.71354298809514405
40
0.71354298809514405
10
5.0595192830803359
20
-4.8119861213368322
30
0
10
3.6971591642909489
20
-4.9371859495726325
30
0
10
2.2802836367899939
20
-5.035161263022907
30
0
10
0.83306254359221166
20
-5.1064795155221256
30
0
0
SPLINE
5
132
100
AcDbEntity
8
0
100
AcDbSpline
70
4
71
5
72
13
73
7
74
0
42
0.000000001
43
0.0000000001
44
0.0000000001
40
0.68185428382066882
40
0.68185428382066882
40
0.68185428382066882
40
0.68185428382066882
40
0.68185428382066882
40
0.68185428382066882
40
0.70000000000000007
40
0.71473444473237857
40
0.71473444473237857
40
0.71473444473237857
40
0.71473444473237857
40
0.71473444473237857
40
0.71473444473237857
41
1
41
1
41
1
41
1
41
1
41
1
41
1
10
5.5774692153464134
20
-5.7652913369240526
30
0
10
5.0597024543034248
20
-5.8150060748519214
30
0
10
4.1094987822418858
20
-5.89900400932755
30
0
10
3.139421601662181
20
-5.9721062544599191
30
0
10
2.1529436884080684
20
-6.0345493640043948
30
0
10
1.1536080004081064
20
-6.0865423090956856
30
0
10
0.70351829798304788
20
-6.1077598529879733
30
0
0
SPLINE
5
133
100
AcDbEntity
8
0
100
AcDbSpline
70
4
71
5
72
13
73
7
74
0
42
0.000000001
43
0.0000000001
44
0.0000000001
40
0.59238650036321949
40
0.59238650036321949
40
0.59238650036321949
40
0.59238650036321949
40
0.59238650036321949
40
0.59238650036321949
40
0.59999999999999998
40
0.64248222706126223
40
0.64248222706126223
40
0.64248222706126223
40
0.64248222706126223
40
0.64248222706126223
40
0.64248222706126223
41
1
41
1
41
1
41
1
41
1
41
1
41
1
10
-1.5997440369573692
20
-13.295334290347094
30
0
10
-1.5541465331249347
20
-13.09579490842729
30
0
10
-1.2567953143650781
20
-11.7720625160604
30
0
10
-0.97758398857094098
20
-10.379211825258468
30
0
10
-0.72012350326558294
20
-8.9299072809499354
30
0
10
-0.48806060945493995
20
-7.4381003679655899
30
0
10
-0.31161551482619765
20
-6.151226888185132
30
0
0
SPLINE
5
134
100
AcDbEntity
8
0
100
AcDbSpline
70
0
71
3
72
8
73
4
74
0
42
0.000000001
43
0.0000000001
44
0.0000000001
40
0.71698128080668255
40
0.71698128080668255
40
0.71698128080668255
40
0.71698128080668255
40
0.73867484303345721
40
0.73867484303345721
40
0.73867484303345721
40
0.73867484303345721
10
-7.0132596918763435
20
-8.6426466413761069
30
0
10
-6.2145766162516169
20
-7.870730191473676
30
0
10
-5.4185906470303564
20
-7.0684915008868332
30
0
10
-4.6316611997658237
20
-6.2437151781752851
30
0
0
SPLINE
5
135
100
AcDbEntity
8
0
100
AcDbSpline
70
0
71
3
72
8
73
4
74
0
42
0.000000001
43
0.0000000001
44
0.0000000001
40
0.74736292711899732
40
0.74736292711899732
40
0.74736292711899732
40
0.74736292711899732
40
0.79888615499416882
40
0.79888615499416882
40
0.79888615499416882
40
0.79888615499416882
10
-3.6909522041151255
20
-5.2424232182151487
30
0
10
-1.8416092897298046
20
-3.2436312965129921
30
0
10
-0.057719461585824597
20
-1.1352943150054937
30
0
10
1.5755184212767093
20
0.97829516014205631
30
0
0
SPLINE
5
136
100
AcDbEntity
8
0
100
AcDbSpline
70
0
71
3
72
8
73
4
74
0
42
0.000000001
43
0.0000000001
44
0.0000000001
40
0.72021828339333605
40
0.72021828339333605
40
0.72021828339333605
40
0.72021828339333605
40
0.74302165932618824
40
0.74302165932618824
40
0.74302165932618824
40
0.74302165932618824
10
-0.18019999495520411
20
-5.1518762237195741
30
0
10
-1.3389017108267234
20
-5.198670568185646
30
0
10
-2.5131795656310905
20
-5.2287583520721874
30
0
10
-3.6909522041110239
20
-5.2424232185688577
30
0
0
SPLINE
5
137
100
AcDbEntity
8
0
100
AcDbSpline
70
4
71
5
72
12
73
6
74
0
42
0.000000001
43
0.0000000001
44
0.0000000001
40
0.72135289297099525
40
0.72135289297099525
40
0.72135289297099525
40
0.72135289297099525
40
0.72135289297099525
40
0.72135289297099525
40
0.74912649564165834
40
0.74912649564165834
40
0.74912649564165834
40
0.74912649564165834
40
0.74912649564165834
40
0.74912649564165834
41
1
41
1
41
1
41
1
41
1
41
1
10
-0.31161551916263308
20
-6.1512268875905507
30
0
10
-1.1669372681061589
20
-6.1842068705368458
30
0
10
-2.0287583125820099
20
-6.2098654550166374
30
0
10
-2.8949259187514627
20
-6.2283009870253538
30
0
10
-3.7632757634845451
20
-6.2395802669785585
30
0
10
-4.6316633326039884
20
-6.2437157828789935
30
0
0
SPLINE
5
138
100
AcDbEntity
8
0
100
AcDbSpline
70
4
71
5
72
12
73
6
74
0
42
0.000000001
43
0.0000000001
44
0.0000000001
40
0.71668785307753058
40
0.71668785307753058
40
0.71668785307753058
40
0.71668785307753058
40
0.71668785307753058
40
0.71668785307753058
40
0.73256614269868581
40
0.73256614269868581
40
0.73256614269868581
40
0.73256614269868581
40
0.73256614269868581
40
0.73256614269868581
41
1
41
1
41
1
41
1
41
1
41
1
10
-7.7379171277579335
20
-7.9582424361977919
30
0
10
-7.3914014112146562
20
-7.6245493677500153
30
0
10
-7.0451737490449347
20
-7.2858937376184834
30
0
10
-6.6995022262748467
20
-6.9425639441266762
30
0
10
-6.3546547924085495
20
-6.5948562111224893
30
0
10
-6.0108983208999778
20
-6.2430731489773752
30
0
0
SPLINE
5
139
100
AcDbEntity
8
0
100
AcDbSpline
70
4
71
5
72
13
73
7
74
0
42
0.000000001
43
0.0000000001
44
0.0000000001
40
0.74141313318277546
40
0.74141313318277546
40
0.74141313318277546
40
0.74141313318277546
40
0.74141313318277546
40
0.74141313318277546
40
0.79999999999999993
40
0.80112431481140023
40
0.80112431481140023
40
0.80112431481140023
40
0.80112431481140023
40
0.80112431481140023
40
0.80112431481140023
41
1
41
1
41
1
41
1
41
1
41
1
41
1
10
-5.0570831539705674
20
-5.2509238165928114
30
0
10
-3.7995112727001032
20
-3.921516127953335
30
0
10
-2.539116970978752
20
-2.5171465341346648
30
0
10
-1.3142898660841746
20
-1.078514706613575
30
0
10
-0.13882589380306504
20
0.3768487685766897
30
0
10
0.97451791895947038
20
1.8314550483952554
30
0
10
0.99545920241361618
20
1.8588437608595352
30
0
0
SPLINE
5
140
100
AcDbEntity
8
0
100
AcDbSpline
70
0
71
3
72
8
73
4
74
0
42
0.000000001
43
0.0000000001
44
0.0000000001
40
0.67768862665411278
40
0.67768862665411278
40
0.67768862665411278
40
0.67768862665411278
40
0.69221092857237654
40
0.69221092857237654
40
0.69221092857237654
40
0.69221092857237654
10
-7.7379171280061323
20
-7.9582424362051309
30
0
10
-8.3489926218074846
20
-7.375042693296157
30
0
10
-8.9572124784240419
20
-6.7791535946668757
30
0
10
-9.5589530166094363
20
-6.1739104495971819
30
0
0
SPLINE
5
141
100
AcDbEntity
8
0
100
AcDbSpline
70
4
71
5
72
12
73
6
74
0
42
0.000000001
43
0.0000000001
44
0.0000000001
40
0.75795304984755207
40
0.75795304984755207
40
0.75795304984755207
40
0.75795304984755207
40
0.75795304984755207
40
0.75795304984755207
40
0.78084416085453467
40
0.78084416085453467
40
0.78084416085453467
40
0.78084416085453467
40
0.78084416085453467
40
0.78084416085453467
41
1
41
1
41
1
41
1
41
1
41
1
10
-6.0108981743852361
20
-6.2430732921490852
30
0
10
-6.7255972965354838
20
-6.2389975143775542
30
0
10
-7.4389377162367412
20
-6.2300659503041089
30
0
10
-8.1497270821204673
20
-6.2162668358007362
30
0
10
-8.8567854046860148
20
-6.1975653570582683
30
0
10
-9.5589530148481359
20
-6.1739103973152911
30
0
0
SPLINE
5
142
100
AcDbEntity
8
0
100
AcDbSpline
70
4
71
5
72
12
73
6
74
0
42
0.000000001
43
0.0000000001
44
0.0000000001
40
0.67796423870215927
40
0.67796423870215927
40
0.67796423870215927
40
0.67796423870215927
40
0.67796423870215927
40
0.67796423870215927
40
0.69822795043546848
40
0.69822795043546848
40
0.69822795043546848
40
0.69822795043546848
40
0.69822795043546848
40
0.69822795043546848
41
1
41
1
41
1
41
1
41
1
41
1
10
-8.4659916225108383
20
-8.6501083556376415
30
0
10
-8.9831390756510707
20
-8.1563177942102953
30
0
10
-9.4984238207194842
20
-7.655067520641361
30
0
10
-10.010860606153795
20
-7.1472451731085673
30
0
10
-10.519471359756082
20
-6.6337516670535113
30
0
10
-11.023298245438449
20
-6.1154901551932745
30
0
0
SPLINE
5
143
100
AcDbEntity
8
0
100
AcDbSpline
70
0
71
3
72
8
73
4
74
0
42
0.000000001
43
0.0000000001
44
0.0000000001
40
0.75183280983474765
40
0.75183280983474765
40
0.75183280983474765
40
0.75183280983474765
40
0.78778810969897051
40
0.78778810969897051
40
0.78778810969897051
40
0.78778810969897051
10
-5.0570831541461034
20
-5.2509238166417251
30
0
10
-6.9155544324655089
20
-5.2525253109785357
30
0
10
-8.7711084291145802
20
-5.2135694288816792
30
0
10
-10.576385660378913
20
-5.1351680650629223
30
0
0
SPLINE
5
144
100
AcDbEntity
8
0
100
AcDbSpline
70
4
71
5
72
13
73
7
74
0
42
0.000000001
43
0.0000000001
44
0.0000000001
40
0.22228388706785865
40
0.22228388706785865
40
0.22228388706785865
40
0.22228388706785865
40
0.22228388706785865
40
0.22228388706785865
40
0.25
40
0.26803293208957413
40
0.26803293208957413
40
0.26803293208957413
40
0.26803293208957413
40
0.26803293208957413
40
0.26803293208957413
41
1
41
1
41
1
41
1
41
1
41
1
41
1
10
-13.097881585324691
20
-5.9997358858281826
30
0
10
-13.009954463964046
20
-6.7423428062564135
30
0
10
-12.852159638069033
20
-7.9577509830183901
30
0
10
-12.674761092291378
20
-9.1518193194677693
30
0
10
-12.479933414540309
20
-10.317559209675906
30
0
10
-12.269795946754588
20
-11.448048477688911
30
0
10
-12.184713584199285
20
-11.887755608974619
30
0
0
SPLINE
5
145
100
AcDbEntity
8
0
100
AcDbSpline
70
0
71
3
72
8
73
4
74
0
42
0.000000001
43
0.0000000001
44
0.0000000001
40
0.22088993064237636
40
0.22088993064237636
40
0.22088993064237636
40
0.22088993064237636
40
0.27212214698778947
40
0.27212214698778947
40
0.27212214698778947
40
0.27212214698778947
10
-14.109042273902116
20
-5.9280019919491833
30
0
10
-13.841231112058704
20
-8.2466217555320647
30
0
10
-13.484941520812406
20
-10.495319742367819
30
0
10
-13.067431192839498
20
-12.579736673402081
30
0
0
SPLINE
5
146
100
AcDbEntity
8
0
100
AcDbSpline
70
0
71
3
72
11
73
7
74
0
42
0.000000001
43
0.0000000001
44
0.0000000001
40
0.79752677752312684
40
0.79752677752312684
40
0.79752677752312684
40
0.79752677752312684
40
0.80071098344717062
40
0.80071098344717062
40
0.80071098344717062
40
0.80556376884861725
40
0.80556376884861725
40
0.80556376884861725
40
0.80556376884861725
10
-12.031283687572536
20
-5.0628025464970747
30
0
10
-12.18843960331019
20
-5.0539741828209959
30
0
10
-12.345100598486248
20
-5.0448388143130272
30
0
10
-12.501233778724725
20
-5.0353972132595164
30
0
10
-12.739183470364173
20
-5.0210080484719022
30
0
10
-12.975881106322642
20
-5.0058307953703407
30
0
10
-13.211225806668313
20
-4.9898653250979814
30
0
0
SPLINE
5
147
100
AcDbEntity
8
0
100
AcDbSpline
70
4
71
5
72
13
73
7
74
0
42
0.000000001
43
0.0000000001
44
0.0000000001
40
0.79045361463372521
40
0.79045361463372521
40
0.79045361463372521
40
0.79045361463372521
40
0.79045361463372521
40
0.79045361463372521
40
0.80000000000000016
40
0.80433515829895774
40
0.80433515829895774
40
0.80433515829895774
40
0.80433515829895774
40
0.80433515829895774
40
0.80433515829895774
41
1
41
1
41
1
41
1
41
1
41
1
41
1
10
-11.023293635995294
20
-6.115490396710336
30
0
10
-11.312188276649731
20
-6.1021322344195337
30
0
10
-11.730671030651239
20
-6.0814368760160464
30
0
10
-12.146647353704427
20
-6.0588835053328847
30
0
10
-12.559864952806263
20
-6.0344566830840485
30
0
10
-12.970075183591012
20
-6.0081395287855912
30
0
10
-13.097881583820373
20
-5.9997358838821926
30
0
0
SPLINE
5
148
100
AcDbEntity
8
0
100
AcDbSpline
70
4
71
5
72
17
73
11
74
0
42
0.000000001
43
0.0000000001
44
0.0000000001
40
0.35763885925003314
40
0.35763885925003314
40
0.35763885925003314
40
0.35763885925003314
40
0.35763885925003314
40
0.35763885925003314
40
0.39999999999999997
40
0.46666666666666662
40
0.53333333333333333
40
0.59999999999999998
40
0.66666666666666663
40
0.66736555136739595
40
0.66736555136739595
40
0.66736555136739595
40
0.66736555136739595
40
0.66736555136739595
40
0.66736555136739595
41
1
41
1
41
1
41
1
41
1
41
1
41
1
41
1
41
1
41
1
41
1
10
-22.815057824149228
20
-4.7059220671812083
30
0
10
-23.375845457573369
20
-5.6409809532431776
30
0
10
-24.684056215775428
20
-7.9937175895391928
30
0
10
-26.195606971765926
20
-11.506116623807248
30
0
10
-26.790058430842691
20
-15.423084809526465
30
0
10
-24.865720812703458
20
-18.035130794100269
30
0
10
-21.005636008625306
20
-17.52448160065714
30
0
10
-17.246841423666801
20
-15.574477262642423
30
0
10
-14.501527186064077
20
-13.677488325755419
30
0
10
-13.082160662282977
20
-12.591022523920863
30
0
10
-13.067431192839468
20
-12.579736673402104
30
0
0
SPLINE
5
149
100
AcDbEntity
8
0
100
AcDbSpline
70
0
71
3
72
8
73
4
74
0
42
0.000000001
43
0.0000000001
44
0.0000000001
40
0.81255604966904127
40
0.81255604966904127
40
0.81255604966904127
40
0.81255604966904127
40
0.87566829831318072
40
0.87566829831318072
40
0.87566829831318072
40
0.87566829831318072
10
-14.219807725049773
20
-4.9159426298933786
30
0
10
-17.227121982455078
20
-4.6787613011548475
30
0
10
-19.98101591460928
20
-4.3082298821264358
30
0
10
-22.259581764997716
20
-3.8040649236213135
30
0
0
LWPOLYLINE
5
150
100
AcDbEntity
8
0
100
AcDbPolyline
90
1
70
1
43
0.0
0
SPLINE
5
151
100
AcDbEntity
8
0
100
AcDbSpline
70
4
71
5
72
13
73
7
74
0
42
0.000000001
43
0.0000000001
44
0.0000000001
40
0.81124878979699855
40
0.81124878979699855
40
0.81124878979699855
40
0.81124878979699855
40
0.81124878979699855
40
0.81124878979699855
40
0.8500000000000002
40
0.87872143636867905
40
0.87872143636867905
40
0.87872143636867905
40
0.87872143636867905
40
0.87872143636867905
40
0.87872143636867905
41
1
41
1
41
1
41
1
41
1
41
1
41
1
10
-14.109042273605716
20
-5.9280019905372994
30
0
10
-15.233303741688903
20
-5.8422673482155272
30
0
10
-17.144008757874666
20
-5.666904774298108
30
0
10
-18.957116032638218
20
-5.4449191355488313
30
0
10
-20.646001752660101
20
-5.1739303543919597
30
0
10
-22.187345167354518
20
-4.8521749583458664
30
0
10
-22.815057825620805
20
-4.7059220696238899
30
0
0
SPLINE
5
152
100
AcDbEntity
8
0
100
AcDbSpline
70
0
71
3
72
20
73
16
74
0
42
0.000000001
43
0.0000000001
44
0.0000000001
40
0.35999918806563214
40
0.35999918806563214
40
0.35999918806563214
40
0.35999918806563214
40
0.42142952002761691
40
0.42142952002761691
40
0.42142952002761691
40
0.48354094144448134
40
0.48354094144448134
40
0.48354094144448134
40
0.52818892015047092
40
0.52818892015047092
40
0.52818892015047092
40
0.58699374297852336
40
0.58699374297852336
40
0.58699374297852336
40
0.66377164696576241
40
0.66377164696576241
40
0.66377164696576241
40
0.66377164696576241
10
-23.825706942654858
20
-4.4527245421869264
30
0
10
-25.18219129833281
20
-6.7522621187912559
30
0
10
-26.174966373368399
20
-8.9196764870484397
30
0
10
-26.713186496204525
20
-10.827484274078959
30
0
10
-27.257373965111555
20
-12.756444278982691
30
0
10
-27.371195256583235
20
-14.441584028390682
30
0
10
-26.872989054699072
20
-15.817489450216815
30
0
10
-26.514860076396921
20
-16.806540973653195
30
0
10
-25.77849656672408
20
-17.610997253308803
30
0
10
-24.821943878865063
20
-18.008251020633573
30
0
10
-23.562090399144132
20
-18.531464793851391
30
0
10
-22.041323882397137
20
-18.42045107900336
30
0
10
-20.350630814537798
20
-17.885452546290114
30
0
10
-18.143195033027869
20
-17.186937288484145
30
0
10
-15.573439366037656
20
-15.714399101029366
30
0
10
-12.841655884266325
20
-13.663555210611687
30
0
0
SPLINE
5
153
100
AcDbEntity
8
0
100
AcDbSpline
70
4
71
5
72
12
73
6
74
0
42
0.000000001
43
0.0000000001
44
0.0000000001
40
0.70640374554019936
40
0.70640374554019936
40
0.70640374554019936
40
0.70640374554019936
40
0.70640374554019936
40
0.70640374554019936
40
0.71729072645034542
40
0.71729072645034542
40
0.71729072645034542
40
0.71729072645034542
40
0.71729072645034542
40
0.71729072645034542
41
1
41
1
41
1
41
1
41
1
41
1
10
-12.031278990508927
20
-5.0628075271186468
30
0
10
-12.297319894959537
20
-4.7807036667985496
30
0
10
-12.56164835946603
20
-4.4975391662212285
30
0
10
-12.824118697751302
20
-4.2134540973806915
30
0
10
-13.084587342090032
20
-3.9285883589521147
30
0
10
-13.342913416793643
20
-3.6430812014733585
30
0
0
SPLINE
5
154
100
AcDbEntity
8
0
100
AcDbSpline
70
0
71
3
72
8
73
4
74
0
42
0.000000001
43
0.0000000001
44
0.0000000001
40
0.70045145185869784
40
0.70045145185869784
40
0.70045145185869784
40
0.70045145185869784
40
0.72481993699992531
40
0.72481993699992531
40
0.72481993699992531
40
0.72481993699992531
10
-10.576385663679284
20
-5.135168141057509
30
0
10
-11.571812251253103
20
-4.1035563931485957
30
0
10
-12.543205339990976
20
-3.0509354204224284
30
0
10
-13.473443926998524
20
-1.9930637391370079
30
0
0
SPLINE
5
155
100
AcDbEntity
8
0
100
AcDbSpline
70
4
71
5
72
13
73
7
74
0
42
0.000000001
43
0.0000000001
44
0.0000000001
40
0.29905773829733484
40
0.29905773829733484
40
0.29905773829733484
40
0.29905773829733484
40
0.29905773829733484
40
0.29905773829733484
40
0.33333333333333331
40
0.34953360741970829
40
0.34953360741970829
40
0.34953360741970829
40
0.34953360741970829
40
0.34953360741970829
40
0.34953360741970829
41
1
41
1
41
1
41
1
41
1
41
1
41
1
10
-18.034549235659302
20
2.0205006055843349
30
0
10
-18.686564197594848
20
1.2193287196536295
30
0
10
-19.612961335884219
20
0.038393784232702427
30
0
10
-20.483966818078997
20
-1.1379830484676166
30
0
10
-21.291855076156914
20
-2.3006923712525431
30
0
10
-22.030043160807004
20
-3.4407775442430779
30
0
10
-22.259581764943974
20
-3.8040649233783963
30
0
0
SPLINE
5
156
100
AcDbEntity
8
0
100
AcDbSpline
70
0
71
3
72
11
73
7
74
0
42
0.000000001
43
0.0000000001
44
0.0000000001
40
0.73434854240014913
40
0.73434854240014913
40
0.73434854240014913
40
0.73434854240014913
40
0.73718061847292637
40
0.73718061847292637
40
0.73718061847292637
40
0.76190831890366861
40
0.76190831890366861
40
0.76190831890366861
40
0.76190831890366861
10
-14.544773305522371
20
-0.75064520851930627
30
0
10
-14.648839827247029
20
-0.62750342804087533
30
0
10
-14.752260059164348
20
-0.50437395513657057
30
0
10
-14.855007125663214
20
-0.38128152666073345
30
0
10
-15.752122392072692
20
0.69347516010375787
30
0
10
-16.596747812142855
20
1.7642679309170914
30
0
10
-17.377805701281851
20
2.8160835100014485
30
0
0
SPLINE
5
157
100
AcDbEntity
8
0
100
AcDbSpline
70
4
71
5
72
13
73
7
74
0
42
0.000000001
43
0.0000000001
44
0.0000000001
40
0.72669015286020822
40
0.72669015286020822
40
0.72669015286020822
40
0.72669015286020822
40
0.72669015286020822
40
0.72669015286020822
40
0.75000000000000011
40
0.76036599500544111
40
0.76036599500544111
40
0.76036599500544111
40
0.76036599500544111
40
0.76036599500544111
40
0.76036599500544111
41
1
41
1
41
1
41
1
41
1
41
1
41
1
10
-14.441190961381514
20
-2.4067113192800105
30
0
10
-14.977110709667514
20
-1.7920055277573519
30
0
10
-15.73479232516682
20
-0.9020663138443753
30
0
10
-16.465761762587139
20
-0.012246600699391194
30
0
10
-17.166201852933817
20
0.87344299779677603
30
0
10
-17.832699610562386
20
1.7511818003370696
30
0
10
-18.034547392110881
20
2.020501987271182
30
0
0
SPLINE
5
158
100
AcDbEntity
8
0
100
AcDbSpline
70
0
71
3
72
11
73
7
74
0
42
0.000000001
43
0.0000000001
44
0.0000000001
40
0.2973806374453779
40
0.2973806374453779
40
0.2973806374453779
40
0.2973806374453779
40
0.32125950976937673
40
0.32125950976937673
40
0.32125950976937673
40
0.35210371480372193
40
0.35210371480372193
40
0.35210371480372193
40
0.35210371480372193
10
-18.645799689816052
20
2.8497190889038326
30
0
10
-19.419376883578408
20
1.9074380415742613
30
0
10
-20.156690969999012
20
0.96232580539564683
30
0
10
-20.848247911187844
20
0.023393377267768231
30
0
10
-21.741528121305439
20
-1.1894203575527738
30
0
10
-22.557558454645836
20
-2.3891930435189423
30
0
10
-23.284839479001434
20
-3.5597875727322936
30
0
0
SPLINE
5
159
100
AcDbEntity
8
0
100
AcDbSpline
70
4
71
5
72
13
73
7
74
0
42
0.000000001
43
0.0000000001
44
0.0000000001
40
0.64904811122539852
40
0.64904811122539852
40
0.64904811122539852
40
0.64904811122539852
40
0.64904811122539852
40
0.64904811122539852
40
0.65000000000000002
40
0.6994587728340631
40
0.6994587728340631
40
0.6994587728340631
40
0.6994587728340631
40
0.6994587728340631
40
0.6994587728340631
41
1
41
1
41
1
41
1
41
1
41
1
41
1
10
-0.18019971337222918
20
-5.151876259018497
30
0
10
-0.17653468236618963
20
-5.1227680244376756
30
0
10
0.016993620665369965
20
-3.5807670412594201
30
0
10
0.18045806912705792
20
-2.0141171409485548
30
0
10
0.3104597394532943
20
-0.43761030964781539
30
0
10
0.40393118079675211
20
1.1335720309192767
30
0
10
0.45821708375253711
20
2.6560633709641279
30
0
0
SPLINE
5
160
100
AcDbEntity
8
0
100
AcDbSpline
70
4
71
5
72
12
73
6
74
0
42
0.000000001
43
0.0000000001
44
0.0000000001
40
0.71055479691884493
40
0.71055479691884493
40
0.71055479691884493
40
0.71055479691884493
40
0.71055479691884493
40
0.71055479691884493
40
0.73978740070091598
40
0.73978740070091598
40
0.73978740070091598
40
0.73978740070091598
40
0.73978740070091598
40
0.73978740070091598
41
1
41
1
41
1
41
1
41
1
41
1
10
0.50003077819343211
20
4.3527721296326511
30
0
10
0.5118831194294039
20
5.2400829940945393
30
0
10
0.51016736510163296
20
6.1175071389473201
30
0
10
0.49448017706040565
20
6.9822240599057181
30
0
10
0.46450515291704708
20
7.8314887024390085
30
0
10
0.42003602768719067
20
8.6626887419663827
30
0
0
SPLINE
5
161
100
AcDbEntity
8
0
100
AcDbSpline
70
0
71
3
72
8
73
4
74
0
42
0.000000001
43
0.0000000001
44
0.0000000001
40
0.13419890679564017
40
0.13419890679564017
40
0.13419890679564017
40
0.13419890679564017
40
0.18331388229881376
40
0.18331388229881376
40
0.18331388229881376
40
0.18331388229881376
10
-14.576472011411088
20
5.9855864830184586
30
0
10
-14.681606907710689
20
3.7949444878013616
30
0
10
-14.663035419464903
20
1.5218215350376063
30
0
10
-14.544773589723041
20
-0.75064487222788712
30
0
0
SPLINE
5
162
100
AcDbEntity
8
0
100
AcDbSpline
70
0
71
3
72
8
73
4
74
0
42
0.000000001
43
0.0000000001
44
0.0000000001
40
0.19525420874404137
40
0.19525420874404137
40
0.19525420874404137
40
0.19525420874404137
40
0.21346610344667105
40
0.21346610344667105
40
0.21346610344667105
40
0.21346610344667105
10
-14.441191078698715
20
-2.4067097217782591
30
0
10
-14.379892513031789
20
-3.2474027789866722
30
0
10
-14.305689926857477
20
-4.0852266095837981
30
0
10
-14.219807725050533
20
-4.9159426317268959
30
0
0
SPLINE
5
163
100
AcDbEntity
8
0
100
AcDbSpline
70
4
71
5
72
13
73
7
74
0
42
0.000000001
43
0.0000000001
44
0.0000000001
40
0.12519456347807675
40
0.12519456347807675
40
0.12519456347807675
40
0.12519456347807675
40
0.12519456347807675
40
0.12519456347807675
40
0.15000000000000002
40
0.1927670963853666
40
0.1927670963853666
40
0.1927670963853666
40
0.1927670963853666
40
0.1927670963853666
40
0.1927670963853666
41
1
41
1
41
1
41
1
41
1
41
1
41
1
10
-13.508504174109198
20
7.1115093317954079
30
0
10
-13.553590309280656
20
6.4698947066733066
30
0
10
-13.651113811717641
20
4.7006628531798995
30
0
10
-13.680797781982717
20
2.8809782957331302
30
0
10
-13.646460314897251
20
1.0325668675293029
30
0
10
-13.553823921115224
20
-0.8222577870095138
30
0
10
-13.473444175697702
20
-1.9930637562110409
30
0
0
SPLINE
5
164
100
AcDbEntity
8
0
100
AcDbSpline
70
4
71
5
72
12
73
6
74
0
42
0.000000001
43
0.0000000001
44
0.0000000001
40
0.20484903885081804
40
0.20484903885081804
40
0.20484903885081804
40
0.20484903885081804
40
0.20484903885081804
40
0.20484903885081804
40
0.21477772266314343
40
0.21477772266314343
40
0.21477772266314343
40
0.21477772266314343
40
0.21477772266314343
40
0.21477772266314343
41
1
41
1
41
1
41
1
41
1
41
1
10
-13.34291341721617
20
-3.6430812016483936
30
0
10
-13.318728053538408
20
-3.913438723634231
30
0
10
-13.293445472806582
20
-4.1833673614850095
30
0
10
-13.267086662531025
20
-4.4527956745192938
30
0
10
-13.239672930392532
20
-4.7216521660940565
30
0
10
-13.211225806886663
20
-4.9898653283167622
30
0
0
SPLINE
5
165
100
AcDbEntity
8
0
100
AcDbSpline
70
0
71
3
72
11
73
7
74
0
42
0.000000001
43
0.0000000001
44
0.0000000001
40
0.80573739186290216
40
0.80573739186290216
40
0.80573739186290216
40
0.80573739186290216
40
0.82987688466411491
40
0.82987688466411491
40
0.82987688466411491
40
0.85399585856712168
40
0.85399585856712168
40
0.85399585856712168
40
0.85399585856712168
10
2.2188599086860878
20
1.8214843279889303
30
0
10
2.9645819605753614
20
2.8115267703592761
30
0
10
3.6747478688105173
20
3.7996780028890829
30
0
10
4.3405955171284996
20
4.7752122529517198
30
0
10
5.0058771858615323
20
5.749917285592999
30
0
10
5.6269681886361154
20
6.7099262449216823
30
0
10
6.1980275420122686
20
7.6465369029376067
30
0
0
LWPOLYLINE
5
166
100
AcDbEntity
8
0
100
AcDbPolyline
90
1
70
1
43
0.0
0
SPLINE
5
167
100
AcDbEntity
8
0
100
AcDbSpline
70
4
71
5
72
12
73
6
74
0
42
0.000000001
43
0.0000000001
44
0.0000000001
40
0.80806385946733339
40
0.80806385946733339
40
0.80806385946733339
40
0.80806385946733339
40
0.80806385946733339
40
0.80806385946733339
40
0.85149268282765567
40
0.85149268282765567
40
0.85149268282765567
40
0.85149268282765567
40
0.85149268282765567
40
0.85149268282765567
41
1
41
1
41
1
41
1
41
1
41
1
10
1.6331109271899762
20
2.7036715812438672
30
0
10
2.4201779379849233
20
3.7602156409810625
30
0
10
3.1719313755616261
20
4.8129619188560087
30
0
10
3.8835688869710072
20
5.8551936201326011
30
0
10
4.550607648966368
20
6.8802477735854168
30
0
10
5.1690395542413032
20
7.8817421957303679
30
0
0
SPLINE
5
168
100
AcDbEntity
8
0
100
AcDbSpline
70
4
71
5
72
21
73
15
74
0
42
0.000000001
43
0.0000000001
44
0.0000000001
40
0.85940289589092578
40
0.85940289589092578
40
0.85940289589092578
40
0.85940289589092578
40
0.85940289589092578
40
0.85940289589092578
40
0.86666666666666659
40
0.93333333333333324
40
1
40
1
40
1
40
1
40
1
40
1.0666666666666667
40
1.1333333333333333
40
1.1337290700080556
40
1.1337290700080556
40
1.1337290700080556
40
1.1337290700080556
40
1.1337290700080556
40
1.1337290700080556
41
1
41
1
41
1
41
1
41
1
41
1
41
1
41
1
41
1
41
1
41
1
41
1
41
1
41
1
41
1
10
5.7158864731741428
20
8.7856130444589784
30
0
10
5.8132688511995854
20
8.9500376573291085
30
0
10
6.7899741488174676
20
10.615853643207975
30
0
10
8.3642064967667658
20
13.629135455411516
30
0
10
9.3329999640319539
20
16.237302347644604
30
0
10
9.5998052743088618
20
18.250154947215989
30
0
10
9.2092201488575274
20
19.526167830676993
30
0
10
8.8574692082281725
20
20.000000298023174
30
0
10
8.505718267598823
20
20.473832765369345
30
0
10
7.4892996305327486
20
21.093149751293112
30
0
10
5.8599987530310855
20
21.031741463749395
30
0
10
3.7028880542370226
20
20.287822845837333
30
0
10
1.1656152042003445
20
18.938291171463217
30
0
10
-0.18168262790882872
20
18.122216256313649
30
0
10
-0.18963566536473414
20
18.11739573233935
30
0
0
SPLINE
5
169
100
AcDbEntity
8
0
100
AcDbSpline
70
4
71
5
72
13
73
7
74
0
42
0.000000001
43
0.0000000001
44
0.0000000001
40
0.2967891889748332
40
0.2967891889748332
40
0.2967891889748332
40
0.2967891889748332
40
0.2967891889748332
40
0.2967891889748332
40
0.29999999999999999
40
0.32633232561062275
40
0.32633232561062275
40
0.32633232561062275
40
0.32633232561062275
40
0.32633232561062275
40
0.32633232561062275
41
1
41
1
41
1
41
1
41
1
41
1
41
1
10
1.3669937913361807
20
9.560446276531092
30
0
10
1.4642889808157817
20
9.5474581662980853
30
0
10
2.3584092831657566
20
9.4259389912351903
30
0
10
3.2420674698255509
20
9.2859688947844994
30
0
10
4.1127070001574673
20
9.1282795661827532
30
0
10
4.9678065816342905
20
8.9537785954015021
30
0
10
5.7158864870218817
20
8.7856130521295377
30
0
0
SPLINE
5
170
100
AcDbEntity
8
0
100
AcDbSpline
70
4
71
5
72
19
73
13
74
0
42
0.000000001
43
0.0000000001
44
0.0000000001
40
0.33358102141944923
40
0.33358102141944923
40
0.33358102141944923
40
0.33358102141944923
40
0.33358102141944923
40
0.33358102141944923
40
0.34999999999999998
40
0.39999999999999997
40
0.44999999999999996
40
0.49999999999999994
40
0.54999999999999993
40
0.59999999999999998
40
0.65000000000000002
40
0.67423551612289323
40
0.67423551612289323
40
0.67423551612289323
40
0.67423551612289323
40
0.67423551612289323
40
0.67423551612289323
41
1
41
1
41
1
41
1
41
1
41
1
41
1
41
1
41
1
41
1
41
1
41
1
41
1
10
6.7344988031531585
20
8.5447354828458444
30
0
10
7.1907869369587303
20
8.4314182349310265
30
0
10
9.0121933319719094
20
7.9541297956702213
30
0
10
12.019855234386498
20
6.9889478928217379
30
0
10
15.737520042364839
20
5.3446600046284765
30
0
10
19.143027041814985
20
2.9364089259622004
30
0
10
20.647952493443196
20
0.18353947412174512
30
0
10
19.527458017485849
20
-2.2082715725962632
30
0
10
16.295953074822059
20
-3.8786626677917653
30
0
10
12.528965120001804
20
-4.828306437515665
30
0
10
9.3582965207964701
20
-5.3357239155251133
30
0
10
7.3281910942584076
20
-5.5809845535179257
30
0
10
6.6523282527332839
20
-5.6549736171213594
30
0
0
SPLINE
5
171
100
AcDbEntity
8
0
100
AcDbSpline
70
0
71
3
72
8
73
4
74
0
42
0.000000001
43
0.0000000001
44
0.0000000001
40
0.29808835044211957
40
0.29808835044211957
40
0.29808835044211957
40
0.29808835044211957
40
0.32398532402126234
40
0.32398532402126234
40
0.32398532402126234
40
0.32398532402126234
10
1.4275422576113903
20
8.5358846510275583
30
0
10
2.7074099428010472
20
8.3620770374086177
30
0
10
3.9603698105420793
20
8.1429931337348211
30
0
10
5.1690395162325196
20
7.8817420198839638
30
0
0
SPLINE
5
172
100
AcDbEntity
8
0
100
AcDbSpline
70
0
71
3
72
23
73
19
74
0
42
0.000000001
43
0.0000000001
44
0.0000000001
40
0.33141541166633981
40
0.33141541166633981
40
0.33141541166633981
40
0.33141541166633981
40
0.41469078255920078
40
0.41469078255920078
40
0.41469078255920078
40
0.47303863437836113
40
0.47303863437836113
40
0.47303863437836113
40
0.51388305106003895
40
0.51388305106003895
40
0.51388305106003895
40
0.55868579923351547
40
0.55868579923351547
40
0.55868579923351547
40
0.63313835290431597
40
0.63313835290431597
40
0.63313835290431597
40
0.6771094495823653
40
0.6771094495823653
40
0.6771094495823653
40
0.6771094495823653
10
6.1980275184575762
20
7.6465368047136586
30
0
10
9.9982835431904942
20
6.7296072409221166
30
0
10
13.28096932049602
20
5.4039824492937703
30
0
10
15.535753204712893
20
4.0075904699569032
30
0
10
17.115593613106626
20
3.0291922782918528
30
0
10
18.178226463057971
20
2.009620763994707
30
0
10
18.655601571250532
20
1.1875516801300459
30
0
10
18.989771677339601
20
0.61209035369493425
30
0
10
19.053843886124081
20
0.17828037205877043
30
0
10
18.970193484248888
20
-0.21346129775240641
30
0
10
18.878436319027685
20
-0.64316760298360587
30
0
10
18.568360148462105
20
-1.1207158455534159
30
0
10
17.8738406853515
20
-1.6315994984314632
30
0
10
16.719698367955225
20
-2.4805785038746011
30
0
10
14.559409247294742
20
-3.2862311501587467
30
0
10
11.739900851411015
20
-3.8691158746101091
30
0
10
10.074721214885029
20
-4.2133630401853157
30
0
10
8.1800837412825658
20
-4.4914639376562357
30
0
10
6.1426088149439293
20
-4.7054522198358937
30
0
0
SPLINE
5
173
100
AcDbEntity
8
0
100
AcDbSpline
70
4
71
5
72
12
73
6
74
0
42
0.000000001
43
0.0000000001
44
0.0000000001
40
1.2013507880241892
40
1.2013507880241892
40
1.2013507880241892
40
1.2013507880241892
40
1.2013507880241892
40
1.2013507880241892
40
1.2067987697920279
40
1.2067987697920279
40
1.2067987697920279
40
1.2067987697920279
40
1.2067987697920279
40
1.2067987697920279
41
1
41
1
41
1
41
1
41
1
41
1
10
-13.290705019170524
20
9.4349473453020654
30
0
10
-13.130850288764115
20
9.4597589857927709
30
0
10
-12.970511347060288
20
9.4839485117631241
30
0
10
-12.809703004158822
20
9.5075111257922593
30
0
10
-12.648440162246587
20
9.5304422481180069
30
0
10
-12.486737809921891
20
9.5527375274841546
30
0
0
SPLINE
5
174
100
AcDbEntity
8
0
100
AcDbSpline
70
4
71
5
72
13
73
7
74
0
42
0.000000001
43
0.0000000001
44
0.0000000001
40
1.217755832082358
40
1.217755832082358
40
1.217755832082358
40
1.217755832082358
40
1.217755832082358
40
1.217755832082358
40
1.25
40
1.2544748087919912
40
1.2544748087919912
40
1.2544748087919912
40
1.2544748087919912
40
1.2544748087919912
40
1.2544748087919912
41
1
41
1
41
1
41
1
41
1
41
1
41
1
10
-10.844095003560119
20
9.7508858276108281
30
0
10
-9.8682933681922833
20
9.8519866696188316
30
0
10
-8.7431862949545707
20
9.9408208688694586
30
0
10
-7.606384609030405
20
9.9987972986223284
30
0
10
-6.4627126839788964
20
10.02533218611835
30
0
10
-5.3170803353182006
20
10.020490797764126
30
0
10
-5.1774460541071887
20
10.019435069956979
30
0
0
SPLINE
5
175
100
AcDbEntity
8
0
100
AcDbSpline
70
0
71
3
72
8
73
4
74
0
42
0.000000001
43
0.0000000001
44
0.0000000001
40
0.76844131865863086
40
0.76844131865863086
40
0.76844131865863086
40
0.76844131865863086
40
0.79391091557530591
40
0.79391091557530591
40
0.79391091557530591
40
0.79391091557530591
10
-17.983351222791097
20
3.6454943403869171
30
0
10
-18.752449957222712
20
4.7174594903074132
30
0
10
-19.451004601524449
20
5.7650835824230988
30
0
10
-20.066910177293138
20
6.7719610784155311
30
0
0
SPLINE
5
176
100
AcDbEntity
8
0
100
AcDbSpline
70
0
71
3
72
17
73
13
74
0
42
0.000000001
43
0.0000000001
44
0.0000000001
40
0.80143144525822774
40
0.80143144525822774
40
0.80143144525822774
40
0.80143144525822774
40
0.81516178230407565
40
0.81516178230407565
40
0.81516178230407565
40
0.88145082631378291
40
0.88145082631378291
40
0.88145082631378291
40
0.94225413349069853
40
0.94225413349069853
40
0.94225413349069853
40
1
40
1
40
1
40
1
10
-20.590564876946438
20
7.6527975868303235
30
0
10
-20.895710843447766
20
8.1818494082919422
30
0
10
-21.175798994142518
20
8.6976518705631882
30
0
10
-21.428932879025993
20
9.197634768048907
30
0
10
-22.651044410546135
20
11.611514936092885
30
0
10
-23.232590018332495
20
13.650434220872722
30
0
10
-23.267473506232417
20
15.131472682522759
30
0
10
-23.299470217934442
20
16.489948096821188
30
0
10
-22.928165456279693
20
17.36078716679414
30
0
10
-22.332599978944302
20
17.963323706116142
30
0
10
-21.766981986296447
20
18.535562227047688
30
0
10
-20.941094893867728
20
18.895807387101293
30
0
10
-19.895686749352187
20
19.005455493433494
30
0
0
SPLINE
5
177
100
AcDbEntity
8
0
100
AcDbSpline
70
4
71
5
72
12
73
6
74
0
42
0.000000001
43
0.0000000001
44
0.0000000001
40
0.76677659107133123
40
0.76677659107133123
40
0.76677659107133123
40
0.76677659107133123
40
0.76677659107133123
40
0.76677659107133123
40
0.79537676528648271
40
0.79537676528648271
40
0.79537676528648271
40
0.79537676528648271
40
0.79537676528648271
40
0.79537676528648271
41
1
41
1
41
1
41
1
41
1
41
1
10
-18.645798869863587
20
2.8497179651745572
30
0
10
-19.179509886007928
20
3.5862079982819055
30
0
10
-19.686701268169305
20
4.3146056047604047
30
0
10
-20.165478610312654
20
5.0326715671780331
30
0
10
-20.614201739721508
20
5.7383014165298816
30
0
10
-21.031559662584002
20
6.4295866991024377
30
0
0
SPLINE
5
178
100
AcDbEntity
8
0
100
AcDbSpline
70
4
71
5
72
22
73
16
74
0
42
0.000000001
43
0.0000000001
44
0.0000000001
40
0.80270786862480781
40
0.80270786862480781
40
0.80270786862480781
40
0.80270786862480781
40
0.80270786862480781
40
0.80270786862480781
40
0.8500000000000002
40
0.90000000000000024
40
0.95000000000000029
40
1
40
1
40
1
40
1
40
1
40
1.05
40
1.1000000000000001
40
1.1042414260106519
40
1.1042414260106519
40
1.1042414260106519
40
1.1042414260106519
40
1.1042414260106519
40
1.1042414260106519
41
1
41
1
41
1
41
1
41
1
41
1
41
1
41
1
41
1
41
1
41
1
41
1
41
1
41
1
41
1
41
1
10
-21.545645693405614
20
7.3058326913685026
30
0
10
-22.181777409065639
20
8.4233729542218025
30
0
10
-23.308733870043707
20
10.633720387321276
30
0
10
-24.415901082710896
20
13.651417418056184
30
0
10
-24.616552673696042
20
16.851509752225766
30
0
10
-23.358867144902227
20
18.829900942651371
30
0
10
-21.829429061558081
20
19.661595031417733
30
0
10
-20.634041758610124
20
19.933498243215467
30
0
10
-20
20
20
30
0
10
-19.365958241389876
20
20.066501756784525
30
0
10
-18.025178509897344
20
20.060605572124899
30
0
10
-16.50762904206492
20
19.769839267292646
30
0
10
-14.911243823152178
20
19.185344011393152
30
0
10
-13.257876007452582
20
18.305957445001916
30
0
10
-12.384315164989861
20
17.768881579374501
30
0
10
-12.315926847667587
20
17.726398891919864
30
0
0
SPLINE
5
179
100
AcDbEntity
8
0
100
AcDbSpline
70
4
71
5
72
21
73
15
74
0
42
0.000000001
43
0.0000000001
44
0.0000000001
40
0.88826231402281397
40
0.88826231402281397
40
0.88826231402281397
40
0.88826231402281397
40
0.88826231402281397
40
0.88826231402281397
40
0.90000000000000024
40
0.95000000000000029
40
1
40
1
40
1
40
1
40
1
40
1.05
40
1.1000000000000001
40
1.1393893505467227
40
1.1393893505467227
40
1.1393893505467227
40
1.1393893505467227
40
1.1393893505467227
40
1.1393893505467227
41
1
41
1
41
1
41
1
41
1
41
1
41
1
41
1
41
1
41
1
41
1
41
1
41
1
41
1
41
1
10
-23.825706942722515
20
-4.4527245419956394
30
0
10
-24.06637280293808
20
-4.3878887257698533
30
0
10
-25.305858408652387
20
-4.0386404716530961
30
0
10
-27.292821811976353
20
-3.3280390799556714
30
0
10
-28.766555854779867
20
-2.4741863494841927
30
0
10
-29.657320770065859
20
-1.4830576083056644
30
0
10
-29.967153332011016
20
-0.50658830329665783
30
0
10
-30
20
0
30
0
10
-30.032846667988977
20
0.50658830329666071
30
0
10
-29.854400777999771
20
1.5564722114742953
30
0
10
-28.923778314902798
20
3.0998714605756099
30
0
10
-27.075248058117168
20
4.6698984137433071
30
0
10
-24.434782941941592
20
6.1175491310038836
30
0
10
-22.463645704955304
20
6.9565730509128665
30
0
10
-21.545645693358875
20
7.3058326912456737
30
0
0
SPLINE
5
180
100
AcDbEntity
8
0
100
AcDbSpline
70
4
71
5
72
13
73
7
74
0
42
0.000000001
43
0.0000000001
44
0.0000000001
40
1.1474127795117151
40
1.1474127795117151
40
1.1474127795117151
40
1.1474127795117151
40
1.1474127795117151
40
1.1474127795117151
40
1.1499999999999999
40
1.1943059762142594
40
1.1943059762142594
40
1.1943059762142594
40
1.1943059762142594
40
1.1943059762142594
40
1.1943059762142594
41
1
41
1
41
1
41
1
41
1
41
1
41
1
10
-20.590564876781883
20
7.6527975867482843
30
0
10
-20.527697783055345
20
7.6745930824341571
30
0
10
-19.384591908673151
20
8.0678893132946001
30
0
10
-18.175875220615406
20
8.4292659272287889
30
0
10
-16.909517800685489
20
8.7536839334868759
30
0
10
-15.594290421080814
20
9.0366867025515027
30
0
10
-14.315834163953838
20
9.2642313090479789
30
0
0
SPLINE
5
181
100
AcDbEntity
8
0
100
AcDbSpline
70
0
71
3
72
14
73
10
74
0
42
0.000000001
43
0.0000000001
44
0.0000000001
40
0
40
0
40
0
40
0
40
0.047957640556927639
40
0.047957640556927639
40
0.047957640556927639
40
0.12885006527260878
40
0.12885006527260878
40
0.12885006527260878
40
0.14078117640008989
40
0.14078117640008989
40
0.14078117640008989
40
0.14078117640008989
10
-29.002095426917176
20
0.064703112929037923
30
0
10
-29.034554589059386
20
0.56531498264966573
30
0
10
-28.837582529644163
20
1.1928693125570584
30
0
10
-28.253201980026841
20
1.9426969750236971
30
0
10
-27.267499617144452
20
3.2074668225689988
30
0
10
-25.198238395359432
20
4.6824494032109314
30
0
10
-22.343748104635498
20
5.9053382957734621
30
0
10
-21.922729189815641
20
6.0857065233919077
30
0
10
-21.484833650682084
20
6.2606852685983041
30
0
10
-21.031559559467606
20
6.4295864223725747
30
0
0
SPLINE
5
182
100
AcDbEntity
8
0
100
AcDbSpline
70
4
71
5
72
12
73
6
74
0
42
0.000000001
43
0.0000000001
44
0.0000000001
40
0.20231607134556082
40
0.20231607134556082
40
0.20231607134556082
40
0.20231607134556082
40
0.20231607134556082
40
0.20231607134556082
40
0.23075492364985561
40
0.23075492364985561
40
0.23075492364985561
40
0.23075492364985561
40
0.23075492364985561
40
0.23075492364985561
41
1
41
1
41
1
41
1
41
1
41
1
10
-7.6330365938938352
20
12.639298245000191
30
0
10
-8.2763144553391541
20
12.091290888844181
30
0
10
-8.920810593145573
20
11.527018730225841
30
0
10
-9.5647734040915662
20
10.94787988489597
30
0
10
-10.206446633219283
20
10.355334784657657
30
0
10
-10.844095343052288
20
9.7508889606195677
30
0
0
SPLINE
5
183
100
AcDbEntity
8
0
100
AcDbSpline
70
4
71
5
72
13
73
7
74
0
42
0.000000001
43
0.0000000001
44
0.0000000001
40
0.21538196450824235
40
0.21538196450824235
40
0.21538196450824235
40
0.21538196450824235
40
0.21538196450824235
40
0.21538196450824235
40
0.25
40
0.25589893505349515
40
0.25589893505349515
40
0.25589893505349515
40
0.25589893505349515
40
0.25589893505349515
40
0.25589893505349515
41
1
41
1
41
1
41
1
41
1
41
1
41
1
10
-2.9646431402116225
20
8.9459031649827878
30
0
10
-2.3687157456944359
20
8.2138230464462794
30
0
10
-1.6715048848700318
20
7.3277876830276139
30
0
10
-0.97602048996429325
20
6.4100050144644527
30
0
10
-0.28438088396576999
20
5.4640189128106433
30
0
10
0.40047470097289983
20
4.4944230765988298
30
0
10
0.5000307781211637
20
4.3527721295818642
30
0
0
SPLINE
5
184
100
AcDbEntity
8
0
100
AcDbSpline
70
4
71
5
72
12
73
6
74
0
42
0.000000001
43
0.0000000001
44
0.0000000001
40
0.26741827678592622
40
0.26741827678592622
40
0.26741827678592622
40
0.26741827678592622
40
0.26741827678592622
40
0.26741827678592622
40
0.26943614243991376
40
0.26943614243991376
40
0.26943614243991376
40
0.26943614243991376
40
0.26943614243991376
40
0.26943614243991376
41
1
41
1
41
1
41
1
41
1
41
1
10
1.4655191445049318
20
2.9522984374799979
30
0
10
1.499088026045988
20
2.9026642520852866
30
0
10
1.5326320752563392
20
2.8529838195744253
30
0
10
1.5661508639973245
20
2.8032577914393517
30
0
10
1.5996439599330834
20
2.75348682463664
30
0
10
1.6331109266293822
20
2.7036715814723484
30
0
0
SPLINE
5
185
100
AcDbEntity
8
0
100
AcDbSpline
70
0
71
3
72
8
73
4
74
0
42
0.000000001
43
0.0000000001
44
0.0000000001
40
0.16911383110178924
40
0.16911383110178924
40
0.16911383110178924
40
0.16911383110178924
40
0.1984117113149346
40
0.1984117113149346
40
0.1984117113149346
40
0.1984117113149346
10
-7.6330366383064643
20
12.639298199972615
30
0
10
-6.8221505064548236
20
11.836525605111879
30
0
10
-6.0022775735723632
20
10.962015328772212
30
0
10
-5.1774462801942454
20
10.019434872113198
30
0
0
SPLINE
5
186
100
AcDbEntity
8
0
100
AcDbSpline
70
0
71
3
72
8
73
4
74
0
42
0.000000001
43
0.0000000001
44
0.0000000001
40
0.20873210917758458
40
0.20873210917758458
40
0.20873210917758458
40
0.20873210917758458
40
0.27174594683158076
40
0.27174594683158076
40
0.27174594683158076
40
0.27174594683158076
10
-4.3041077084923671
20
8.9981605949813908
30
0
10
-2.52330217855011
20
6.8686464666946918
30
0
10
-0.7187619407621727
20
4.4304013048754074
30
0
10
0.99545885373511589
20
1.8588440274574969
30
0
0
SPLINE
5
187
100
AcDbEntity
8
0
100
AcDbSpline
70
4
71
5
72
12
73
6
74
0
42
0.000000001
43
0.0000000001
44
0.0000000001
40
0.24142146778023871
40
0.24142146778023871
40
0.24142146778023871
40
0.24142146778023871
40
0.24142146778023871
40
0.24142146778023871
40
0.25487321206828301
40
0.25487321206828301
40
0.25487321206828301
40
0.25487321206828301
40
0.25487321206828301
40
0.25487321206828301
41
1
41
1
41
1
41
1
41
1
41
1
10
-12.03333334379092
20
8.6014003242967512
30
0
10
-12.33139867419048
20
8.3076540842874671
30
0
10
-12.628129132955525
20
8.0116283106580468
30
0
10
-12.923343194452904
20
7.7134856543128985
30
0
10
-13.216860887711581
20
7.413390700456441
30
0
10
-13.508504411304303
20
7.1115095609465717
30
0
0
SPLINE
5
188
100
AcDbEntity
8
0
100
AcDbSpline
70
4
71
5
72
13
73
7
74
0
42
0.000000001
43
0.0000000001
44
0.0000000001
40
0.26482624731313176
40
0.26482624731313176
40
0.26482624731313176
40
0.26482624731313176
40
0.26482624731313176
40
0.26482624731313176
40
0.26666666666666666
40
0.29224602856015519
40
0.29224602856015519
40
0.29224602856015519
40
0.29224602856015519
40
0.29224602856015519
40
0.29224602856015519
41
1
41
1
41
1
41
1
41
1
41
1
41
1
10
-14.576472146576023
20
5.9855866086678198
30
0
10
-14.615535467535228
20
5.9436360171372993
30
0
10
-15.196894904948056
20
5.318233784227095
30
0
10
-15.768744103250999
20
4.6870473118860794
30
0
10
-16.329610262482362
20
4.0515021425183404
30
0
10
-16.878067344389272
20
3.4130440046430861
30
0
10
-17.377805738401605
20
2.8160834824370609
30
0
0
SPLINE
5
189
100
AcDbEntity
8
0
100
AcDbSpline
70
4
71
5
72
14
73
8
74
0
42
0.000000001
43
0.0000000001
44
0.0000000001
40
0
40
0
40
0
40
0
40
0
40
0
40
0.20000000000000001
40
0.40000000000000002
40
0.51739261039360818
40
0.51739261039360818
40
0.51739261039360818
40
0.51739261039360818
40
0.51739261039360818
40
0.51739261039360818
41
1
41
1
41
1
41
1
41
1
41
1
41
1
41
1
10
-14.315834163953841
20
9.2642313090479789
30
0
10
-14.326259683256946
20
9.1330855210316546
30
0
10
-14.347110721863638
20
8.8707939449992974
30
0
10
-14.374081155100312
20
8.5315246369810218
30
0
10
-14.40105158833852
20
8.1922553289636841
30
0
10
-14.42802202157784
20
7.852986020947041
30
0
10
-14.444566935512604
20
7.6448625009458473
30
0
10
-14.450686330142318
20
7.5678847689597788
30
0
0
SPLINE
5
190
100
AcDbEntity
8
0
100
AcDbSpline
70
0
71
3
72
8
73
4
74
0
42
0.000000001
43
0.0000000001
44
0.0000000001
40
0.25695027823724842
40
0.25695027823724842
40
0.25695027823724842
40
0.25695027823724842
40
0.29065117326463541
40
0.29065117326463541
40
0.29065117326463541
40
0.29065117326463541
10
-14.450679859840047
20
7.567884056479949
30
0
10
-15.677345361515481
20
6.2880057559868261
30
0
10
-16.863798850346686
20
4.9720987878896592
30
0
10
-17.983351232702507
20
3.6454943487513858
30
0
0
SPLINE
5
191
100
AcDbEntity
8
0
100
AcDbSpline
70
0
71
3
72
8
73
4
74
0
42
0.000000001
43
0.0000000001
44
0.0000000001
40
0.1490547616940722
40
0.1490547616940722
40
0.1490547616940722
40
0.1490547616940722
40
0.19245573591429657
40
0.19245573591429657
40
0.19245573591429657
40
0.19245573591429657
10
-20.06691017514364
20
6.7719610724476968
30
0
10
-18.343102111289387
20
7.3544959462051276
30
0
10
-16.429545776377296
20
7.8502959274769619
30
0
10
-14.398350011635735
20
8.2262392862219613
30
0
0
LWPOLYLINE
5
192
100
AcDbEntity
8
0
100
AcDbPolyline
90
12
70
1
43
0.0
10
-9.1798980461713207
20
6.1342138158569188
10
-4.0935211369438829
20
6.1342138158569188
10
-4.0935211369438829
20
5.3875896823923419
10
-6.2867295289960801
20
5.3875896823923419
10
-6.2867295289960801
20
0.67452483989719259
10
-4.0935211369438829
20
0.67452483989719259
10
-4.0935211369438829
20
-0.025435285225848814
10
-9.0865700294882501
20
-0.025435285225848814
10
-9.0865700294882501
20
0.67452483989719259
10
-7.1266816791437293
20
0.6745248398971927
10
-7.1266816791437293
20
5.3875896823923419
10
-9.1798980461713207
20
5.3875896823923419
0
LINE
5
193
100
AcDbEntity
8
0
100
AcDbLine
10
-7.1266816791437293
20
6.1342138158569188
30
0
11
-6.2867295289960801
21
6.1342138158569188
31
0
0
LINE
5
194
100
AcDbEntity
8
0
100
AcDbLine
10
-6.2867295289960801
20
-0.025435285225848814
30
0
11
-7.1266816791437293
21
-0.025435285225848814
31
0
0
ENDSEC
0
SECTION
2
OBJECTS
0
DICTIONARY
5
C
100
AcDbDictionary
3
ACAD_GROUP
350
D
3
ACAD_MLINESTYLE
350
17
0
DICTIONARY
5
D
100
AcDbDictionary
0
DICTIONARY
5
1A
330
C
100
AcDbDictionary
0
DICTIONARY
5
17
100
AcDbDictionary
0
ENDSEC
0
EOF
