0
SECTION
2
HEADER
9
$INSUNITS
70
4
9
$ACADVER
1
AC1014
9
$HANDSEED
5
FFFF
0
ENDSEC
0
SECTION
2
TABLES
0
TABLE
2
VPORT
5
8
100
AcDbSymbolTable
0
ENDTAB
0
TABLE
2
LTYPE
5
5
100
AcDbSymbolTable
0
LTYPE
5
14
100
AcDbSymbolTableRecord
100
AcDbLinetypeTableRecord
2
BYBLOCK
70
0
0
LTYPE
5
15
100
AcDbSymbolTableRecord
100
AcDbLinetypeTableRecord
2
BYLAYER
70
0
0
ENDTAB
0
TABLE
2
LAYER
5
2
100
AcDbSymbolTable
70
2
0
LAYER
5
50
100
AcDbSymbolTableRecord
100
AcDbLayerTableRecord
2
0
70
0
6
CONTINUOUS
0
ENDTAB
0
TABLE
2
STYLE
5
3
100
AcDbSymbolTable
70
1
0
STYLE
5
11
100
AcDbSymbolTableRecord
100
AcDbTextStyleTableRecord
2
STANDARD
70
0
0
ENDTAB
0
TABLE
2
VIEW
5
6
100
AcDbSymbolTable
70
0
0
ENDTAB
0
TABLE
2
UCS
5
7
100
AcDbSymbolTable
70
0
0
ENDTAB
0
TABLE
2
APPID
5
9
100
AcDbSymbolTable
70
2
0
APPID
5
12
100
AcDbSymbolTableRecord
100
AcDbRegAppTableRecord
2
ACAD
70
0
0
ENDTAB
0
TABLE
2
DIMSTYLE
5
A
100
AcDbSymbolTable
70
1
0
ENDTAB
0
TABLE
2
BLOCK_RECORD
5
1
100
AcDbSymbolTable
70
1
0
BLOCK_RECORD
5
1F
100
AcDbSymbolTableRecord
100
AcDbBlockTableRecord
2
*MODEL_SPACE
0
BLOCK_RECORD
5
1B
100
AcDbSymbolTableRecord
100
AcDbBlockTableRecord
2
*PAPER_SPACE
0
ENDTAB
0
ENDSEC
0
SECTION
2
BLOCKS
0
BLOCK
5
20
100
AcDbEntity
100
AcDbBlockBegin
2
*MODEL_SPACE
0
ENDBLK
5
21
100
AcDbEntity
100
AcDbBlockEnd
0
BLOCK
5
1C
100
AcDbEntity
100
AcDbBlockBegin
2
*PAPER_SPACE
0
ENDBLK
5
1D
100
AcDbEntity
100
AcDbBlockEnd
0
ENDSEC
0
SECTION
2
ENTITIES
0
CIRCLE
5
100
100
AcDbEntity
8
0
100
AcDbCircle
10
-80.900766871142849
20
75.532532622484155
30
0
40
0
210
0
220
0
230
1
0
LINE
5
101
100
AcDbEntity
8
0
100
AcDbLine
10
29.928909216584799
20
24.84210626779408
30
0
11
-20.071090783415201
21
24.84210626779408
31
0
0
LINE
5
102
100
AcDbEntity
8
0
100
AcDbLine
10
-20.071090783415201
20
24.84210626779408
30
0
11
-20.071090783415201
21
114.84210626779408
31
0
0
LINE
5
103
100
AcDbEntity
8
0
100
AcDbLine
10
29.928909216584799
20
114.84210626779408
30
0
11
29.928909216584799
21
24.84210626779408
31
0
0
CIRCLE
5
104
100
AcDbEntity
8
0
100
AcDbCircle
10
-12.571090783415201
20
104.84210626779408
30
0
40
2.7499999999999991
210
0
220
0
230
1
0
CIRCLE
5
105
100
AcDbEntity
8
0
100
AcDbCircle
10
22.428909216584799
20
104.84210626779408
30
0
40
2.7500000000000027
210
0
220
0
230
1
0
CIRCLE
5
106
100
AcDbEntity
8
0
100
AcDbCircle
10
22.428909216584799
20
34.84210626779408
30
0
40
2.7500000000000018
210
0
220
0
230
1
0
CIRCLE
5
107
100
AcDbEntity
8
0
100
AcDbCircle
10
-12.571090783415201
20
34.84210626779408
30
0
40
2.7500000000000009
210
0
220
0
230
1
0
LINE
5
108
100
AcDbEntity
8
0
100
AcDbLine
10
9.928909216584799
20
109.84210626779408
30
0
11
9.928909216584799
21
91.842106267794065
31
0
0
LINE
5
109
100
AcDbEntity
8
0
100
AcDbLine
10
-0.071090783415201919
20
91.842106267794065
30
0
11
-0.071090783415201919
21
109.84210626779408
31
0
0
LINE
5
110
100
AcDbEntity
8
0
100
AcDbLine
10
-5.0710907834152019
20
114.84210626779408
30
0
11
-0.071090783415201919
21
109.84210626779408
31
0
0
LINE
5
111
100
AcDbEntity
8
0
100
AcDbLine
10
9.928909216584799
20
109.84210626779408
30
0
11
14.928909216584799
21
114.84210626779408
31
0
0
LINE
5
112
100
AcDbEntity
8
0
100
AcDbLine
10
-20.071090783415201
20
114.84210626779408
30
0
11
-5.0710907834152019
21
114.84210626779408
31
0
0
LINE
5
113
100
AcDbEntity
8
0
100
AcDbLine
10
14.928909216584799
20
114.84210626779408
30
0
11
29.928909216584799
21
114.84210626779408
31
0
0
LINE
5
114
100
AcDbEntity
8
0
100
AcDbLine
10
4.9289092165847981
20
91.842106267794065
30
0
11
4.9280991176347522
21
91.842134557072768
31
0
0
LINE
5
115
100
AcDbEntity
8
0
100
AcDbLine
10
4.9289092165847981
20
91.842106267794065
30
0
11
7.5901984288499103
21
91.842106267794065
31
0
0
LINE
5
116
100
AcDbEntity
8
0
100
AcDbLine
10
6.2595538227173542
20
91.842106267794065
30
0
11
6.258949247023553
21
91.842127380042513
31
0
0
LINE
5
117
100
AcDbEntity
8
0
100
AcDbLine
10
6.2595538227173542
20
91.842106267794065
30
0
11
8.2456701753293142
21
91.842106267794065
31
0
0
LINE
5
118
100
AcDbEntity
8
0
100
AcDbLine
10
1.6494483736564602
20
36.532602310065407
30
0
11
3.4093318008171307
21
39.465741355333186
31
0
0
LINE
5
119
100
AcDbEntity
8
0
100
AcDbLine
10
3.4093318008171307
20
39.465741355333186
30
0
11
4.9776436079142155
21
36.571032443776133
31
0
0
LINE
5
120
100
AcDbEntity
8
0
100
AcDbLine
10
4.9776436079142155
20
36.571032443776133
30
0
11
6.726250993792835
21
39.485378086907161
31
0
0
LINE
5
121
100
AcDbEntity
8
0
100
AcDbLine
10
-2.64050476363981
20
65.033074054177547
30
0
11
-6.9521158458390939
21
65.033074054607866
31
0
0
LINE
5
122
100
AcDbEntity
8
0
100
AcDbLine
10
-6.9521158458390939
20
65.033074054607866
30
0
11
-6.9521158458390939
21
62.72231693095825
31
0
0
LINE
5
123
100
AcDbEntity
8
0
100
AcDbLine
10
-6.9521158458390939
20
62.72231693095825
30
0
11
-2.7605940402634381
21
62.72231691725176
31
0
0
LINE
5
124
100
AcDbEntity
8
0
100
AcDbLine
10
9.9320792931674351
20
67.603145028987512
30
0
11
20.778300145372096
21
67.603145028928623
31
0
0
LINE
5
125
100
AcDbEntity
8
0
100
AcDbLine
10
20.778300145372096
20
67.603145028928623
30
0
11
20.778300145372096
21
60.925127935813848
31
0
0
LINE
5
126
100
AcDbEntity
8
0
100
AcDbLine
10
20.778300145372096
20
60.925127935813848
30
0
11
10.170065818910718
21
60.925128393415861
31
0
0
LWPOLYLINE
5
127
100
AcDbEntity
8
0
100
AcDbPolyline
90
6
70
1
43
0.0
10
3.960316372923935
20
75.688976742097339
10
0.75077748505245268
20
72.479437854225864
10
0.75077748505245268
20
69.655043632898966
10
4.0886979284387834
20
71.067240743562408
10
7.1698552607953969
20
69.588285224031239
10
7.1698552607953969
20
72.992964076285304
0
LWPOLYLINE
5
128
100
AcDbEntity
8
0
100
AcDbPolyline
90
6
70
1
43
0.0
10
0.75077748505245268
20
69.655043632898966
10
4.0886979284387834
20
71.067240743562408
10
7.1698552607953969
20
69.588285224031239
10
7.1698552607953969
20
72.992964076285304
10
3.960316372923935
20
75.688976742097339
10
0.75077748505245268
20
72.479437854225864
0
SPLINE
5
129
100
AcDbEntity
8
0
100
AcDbSpline
70
4
71
5
72
22
73
16
74
0
42
0.000000001
43
0.0000000001
44
0.0000000001
40
0.5976956754223065
40
0.5976956754223065
40
0.5976956754223065
40
0.5976956754223065
40
0.5976956754223065
40
0.5976956754223065
40
0.59999999999999998
40
0.64000000000000001
40
0.68000000000000005
40
0.72000000000000008
40
0.76000000000000012
40
0.80000000000000016
40
0.84000000000000019
40
0.88000000000000023
40
0.92000000000000026
40
0.9600000000000003
40
1
40
1
40
1
40
1
40
1
40
1
41
1
41
1
41
1
41
1
41
1
41
1
41
1
41
1
41
1
41
1
41
1
41
1
41
1
41
1
41
1
41
1
10
-2.7605940402634381
20
62.72231691725176
30
0
10
-2.7614475279415887
20
62.696554980429049
30
0
10
-2.7768922686431963
20
62.223100085526468
30
0
10
-2.7989085213224367
20
61.284170589104995
30
0
10
-2.8070361544941913
20
59.840317783762266
30
0
10
-2.764063506108311
20
57.841865165494042
30
0
10
-2.6130974021510047
20
55.282092710568314
30
0
10
-2.3549598702124239
20
52.658541002644661
30
0
10
-1.9838918177374123
20
49.996018230239166
30
0
10
-1.4967664356374388
20
47.312114099706392
30
0
10
-0.89238718848664089
20
44.618466986485302
30
0
10
-0.17083470487101299
20
41.922014382499036
30
0
10
0.49954300701547522
20
39.765363075657177
30
0
10
1.0543261929581886
20
38.148673020949524
30
0
10
1.4472325017300016
20
37.071233561497593
30
0
10
1.6494483736564602
20
36.532602310065407
30
0
0
SPLINE
5
130
100
AcDbEntity
8
0
100
AcDbSpline
70
4
71
5
72
21
73
15
74
0
42
0.000000001
43
0.0000000001
44
0.0000000001
40
0
40
0
40
0
40
0
40
0
40
0
40
0.050000000000000003
40
0.10000000000000001
40
0.15000000000000002
40
0.20000000000000001
40
0.25
40
0.29999999999999999
40
0.34999999999999998
40
0.39999999999999997
40
0.44999999999999996
40
0.46095059801296834
40
0.46095059801296834
40
0.46095059801296834
40
0.46095059801296834
40
0.46095059801296834
40
0.46095059801296834
41
1
41
1
41
1
41
1
41
1
41
1
41
1
41
1
41
1
41
1
41
1
41
1
41
1
41
1
41
1
10
6.726250993792835
20
39.485378086907161
30
0
10
6.8453088433673015
20
39.85438547145656
30
0
10
7.0797633307444228
20
40.602073785608958
30
0
10
7.4204616955437475
20
41.752626498446816
30
0
10
7.852667522357951
20
43.344977474053394
30
0
10
8.3547813182631678
20
45.434411457544002
30
0
10
8.8154867604565545
20
47.626045404488735
30
0
10
9.2290198305403965
20
49.924291669358794
30
0
10
9.5862408039757003
20
52.334930687157311
30
0
10
9.8745736353161604
20
54.864080933108248
30
0
10
10.047868442136203
20
57.100313267966499
30
0
10
10.129837761854796
20
58.866918330958946
30
0
10
10.160258192428447
20
60.110597384638425
30
0
10
10.16879714452633
20
60.800885111138413
30
0
10
10.170065818910722
20
60.925128393415861
30
0
0
LWPOLYLINE
5
131
100
AcDbEntity
8
0
100
AcDbPolyline
90
6
70
1
43
0.0
10
4.0886979284387595
20
55.019546304205065
10
1.3926852626267283
20
53.607349193541616
10
1.3926852626267276
20
49.499139417066132
10
3.9603163729239093
20
51.039718083244438
10
6.9130921497656574
20
49.493026009660667
10
6.9130921497656583
20
53.350586082511896
0
LWPOLYLINE
5
132
100
AcDbEntity
8
0
100
AcDbPolyline
90
4
70
1
43
0.0
10
10.109648884692536
20
65.418856919922035
10
14.230840824296788
20
65.418856756717219
10
14.230840717514994
20
62.722439635096592
10
10.195087994107636
20
62.722439794917904
0
LINE
5
133
100
AcDbEntity
8
0
100
AcDbLine
10
-0.071090783415201919
20
91.842106267794065
30
0
11
1.4341662147464977
21
81.181394734196914
31
0
0
LINE
5
134
100
AcDbEntity
8
0
100
AcDbLine
10
9.928909216584799
20
91.842106267794065
30
0
11
7.4097363062224488
21
80.582863067707891
31
0
0
SPLINE
5
135
100
AcDbEntity
8
0
100
AcDbSpline
70
4
71
5
72
17
73
11
74
0
42
0.000000001
43
0.0000000001
44
0.0000000001
40
0.5756322209205097
40
0.5756322209205097
40
0.5756322209205097
40
0.5756322209205097
40
0.5756322209205097
40
0.5756322209205097
40
0.59999999999999998
40
0.65000000000000002
40
0.70000000000000007
40
0.75000000000000011
40
0.80000000000000016
40
0.82446865940391345
40
0.82446865940391345
40
0.82446865940391345
40
0.82446865940391345
40
0.82446865940391345
40
0.82446865940391345
41
1
41
1
41
1
41
1
41
1
41
1
41
1
41
1
41
1
41
1
41
1
10
9.9320792931674351
20
67.603145028987512
30
0
10
9.9087415367707781
20
67.890223370226352
30
0
10
9.8332272551182811
20
68.765823848954128
30
0
10
9.6851371607861996
20
70.225399995828965
30
0
10
9.4272733933916548
20
72.245650387580469
30
0
10
9.0092343378404518
20
74.748627617971195
30
0
10
8.5000419908722495
20
77.072244723653299
30
0
10
8.0483105931785328
20
78.712930663197767
30
0
10
7.6997585913704629
20
79.784736812819631
30
0
10
7.4821881753022144
20
80.388564006546787
30
0
10
7.4097363062224453
20
80.582863067707891
30
0
0
SPLINE
5
136
100
AcDbEntity
8
0
100
AcDbSpline
70
4
71
5
72
22
73
16
74
0
42
0.000000001
43
0.0000000001
44
0.0000000001
40
0.13534407264394965
40
0.13534407264394965
40
0.13534407264394965
40
0.13534407264394965
40
0.13534407264394965
40
0.13534407264394965
40
0.16
40
0.20000000000000001
40
0.24000000000000002
40
0.28000000000000003
40
0.32000000000000001
40
0.35999999999999999
40
0.39999999999999997
40
0.43999999999999995
40
0.47999999999999993
40
0.51999999999999991
40
0.55456690605080161
40
0.55456690605080161
40
0.55456690605080161
40
0.55456690605080161
40
0.55456690605080161
40
0.55456690605080161
41
1
41
1
41
1
41
1
41
1
41
1
41
1
41
1
41
1
41
1
41
1
41
1
41
1
41
1
41
1
41
1
10
1.4341662147464977
20
81.181394734196914
30
0
10
1.3473565474325708
20
81.01383336428961
30
0
10
1.1241713734624217
20
80.570922758542196
30
0
10
0.78162194785032479
20
79.839798441708012
30
0
10
0.34847482694005055
20
78.802342046562913
30
0
10
-0.14037998310910937
20
77.451812589138314
30
0
10
-0.60521887063673985
20
75.98842325950109
30
0
10
-1.0176622145016865
20
74.545341345447227
30
0
10
-1.387954686034341
20
73.123113688197662
30
0
10
-1.7220019685994015
20
71.689074736505759
30
0
10
-2.02153563191938
20
70.190291641751472
30
0
10
-2.2773527777221245
20
68.613655329039119
30
0
10
-2.4491432295064901
20
67.234646394280617
30
0
10
-2.55576824005735
20
66.135030897143906
30
0
10
-2.615211723854749
20
65.38680671463608
30
0
10
-2.6405047636398109
20
65.033074054177533
30
0
0
ENDSEC
0
SECTION
2
OBJECTS
0
DICTIONARY
5
C
100
AcDbDictionary
3
ACAD_GROUP
350
D
3
ACAD_MLINESTYLE
350
17
0
DICTIONARY
5
D
100
AcDbDictionary
0
DICTIONARY
5
1A
330
C
100
AcDbDictionary
0
DICTIONARY
5
17
100
AcDbDictionary
0
ENDSEC
0
EOF
