  0
SECTION
  2
HEADER
  9
$ACADVER
  1
AC1009
  0
ENDSEC
  0
SECTION
  2
TABLES
  0
TABLE
  2
LAYER
  70
1
  0
LAYER
  2
Layer_5
  70
0
  62
30
  6
CONTINUOUS
  0
ENDTAB
  0
ENDSEC
  0
SECTION
  2
ENTITIES
  0
POLYLINE
  5
90
  8
Layer_5
  62
30
  70
1
  66
1
  10
0
  20
0
  30
0
  0
VERTEX
  5
90
  8
Layer_5
  10
7.200882
  20
286.8078
  0
VERTEX
  5
91
  8
Layer_5
  10
8.1385956
  20
286.80444
  0
VERTEX
  5
92
  8
Layer_5
  10
291.59106
  20
286.32202
  0
VERTEX
  5
93
  8
Layer_5
  10
292.98853
  20
286.32742
  42
-0.20374274
  0
VERTEX
  5
94
  8
Layer_5
  10
293.72223
  20
286.0188
  42
-0.20384109
  0
VERTEX
  5
95
  8
Layer_5
  10
294.00922
  20
285.27625
  0
VERTEX
  5
96
  8
Layer_5
  10
287.40393
  20
189.37985
  42
-0.40340715
  0
VERTEX
  5
97
  8
Layer_5
  10
285.88458
  20
187.90445
  0
VERTEX
  5
98
  8
Layer_5
  10
267.96851
  20
187.82681
  42
-0.1988224
  0
VERTEX
  5
99
  8
Layer_5
  10
267.24786
  20
188.12201
  42
-0.1987687
  0
VERTEX
  5
9a
  8
Layer_5
  10
266.94714
  20
188.8403
  0
VERTEX
  5
9b
  8
Layer_5
  10
266.94171
  20
190.24997
  42
0.41417978
  0
VERTEX
  5
9c
  8
Layer_5
  10
266.46167
  20
190.72629
  0
VERTEX
  5
9d
  8
Layer_5
  10
223.18367
  20
190.58521
  42
0.19891673
  0
VERTEX
  5
9e
  8
Layer_5
  10
222.46547
  20
190.28444
  42
0.19890371
  0
VERTEX
  5
9f
  8
Layer_5
  10
222.17024
  20
189.56387
  0
VERTEX
  5
a0
  8
Layer_5
  10
222.11549
  20
187.36627
  42
-0.40429495
  0
VERTEX
  5
a1
  8
Layer_5
  10
221.13667
  20
186.3457
  0
VERTEX
  5
a2
  8
Layer_5
  10
204.89012
  20
186.22676
  42
-0.19889364
  0
VERTEX
  5
a3
  8
Layer_5
  10
203.79486
  20
186.63248
  42
-0.1989047
  0
VERTEX
  5
a4
  8
Layer_5
  10
203.30725
  20
187.69385
  0
VERTEX
  5
a5
  8
Layer_5
  10
203.23549
  20
189.58542
  42
0.40423833
  0
VERTEX
  5
a6
  8
Layer_5
  10
202.21487
  20
190.56424
  0
VERTEX
  5
a7
  8
Layer_5
  10
103.83282
  20
190.18277
  42
0.19890084
  0
VERTEX
  5
a8
  8
Layer_5
  10
102.75545
  20
189.73163
  42
0.19892675
  0
VERTEX
  5
a9
  8
Layer_5
  10
102.31265
  20
188.65077
  0
VERTEX
  5
aa
  8
Layer_5
  10
102.32039
  20
186.66193
  42
-0.41422152
  0
VERTEX
  5
ab
  8
Layer_5
  10
101.30696
  20
185.64058
  0
VERTEX
  5
ac
  8
Layer_5
  10
85.758392
  20
185.58029
  42
-0.37669158
  0
VERTEX
  5
ad
  8
Layer_5
  10
84.74614
  20
186.46216
  0
VERTEX
  5
ae
  8
Layer_5
  10
84.494171
  20
188.3363
  42
0.37670069
  0
VERTEX
  5
af
  8
Layer_5
  10
82.46965
  20
190.09995
  0
VERTEX
  5
b0
  8
Layer_5
  10
40.58519
  20
189.93756
  42
0.41421356
  0
VERTEX
  5
b1
  8
Layer_5
  10
39.571747
  20
188.91626
  0
VERTEX
  5
b2
  8
Layer_5
  10
39.405449
  20
186.80945
  42
-0.19891319
  0
VERTEX
  5
b3
  8
Layer_5
  10
39.11026
  20
186.08887
  42
-0.19889595
  0
VERTEX
  5
b4
  8
Layer_5
  10
38.392014
  20
185.78809
  0
VERTEX
  5
b5
  8
Layer_5
  10
20.258759
  20
185.79065
  42
-0.40518889
  0
VERTEX
  5
b6
  8
Layer_5
  10
17.706963
  20
188.2457
  0
VERTEX
  5
b7
  8
Layer_5
  10
5.1599197
  20
284.70233
  42
-0.20391179
  0
VERTEX
  5
b8
  8
Layer_5
  10
5.73246
  20
286.18933
  42
-0.20393047
  0
SEQEND
  0
POLYLINE
  5
ba
  8
Layer_5
  62
30
  70
1
  66
1
  10
0
  20
0
  30
0
  0
VERTEX
  5
ba
  8
Layer_5
  10
7.616333
  20
176.61377
  0
VERTEX
  5
bb
  8
Layer_5
  10
8.5540466
  20
176.61041
  0
VERTEX
  5
bc
  8
Layer_5
  10
292.0065
  20
176.12798
  0
VERTEX
  5
bd
  8
Layer_5
  10
293.40396
  20
176.13338
  42
-0.20374274
  0
VERTEX
  5
be
  8
Layer_5
  10
294.13766
  20
175.82474
  42
-0.20384109
  0
VERTEX
  5
bf
  8
Layer_5
  10
294.42465
  20
175.0822
  0
VERTEX
  5
c0
  8
Layer_5
  10
287.8194
  20
79.185806
  42
-0.40340715
  0
VERTEX
  5
c1
  8
Layer_5
  10
286.30002
  20
77.710403
  0
VERTEX
  5
c2
  8
Layer_5
  10
268.38397
  20
77.632767
  42
-0.1988224
  0
VERTEX
  5
c3
  8
Layer_5
  10
267.66333
  20
77.927963
  42
-0.1987687
  0
VERTEX
  5
c4
  8
Layer_5
  10
267.36261
  20
78.646255
  0
VERTEX
  5
c5
  8
Layer_5
  10
267.35718
  20
80.055923
  42
0.41417978
  0
VERTEX
  5
c6
  8
Layer_5
  10
266.87714
  20
80.532242
  0
VERTEX
  5
c7
  8
Layer_5
  10
223.59912
  20
80.391159
  42
0.19891673
  0
VERTEX
  5
c8
  8
Layer_5
  10
222.88092
  20
80.090393
  42
0.19890371
  0
VERTEX
  5
c9
  8
Layer_5
  10
222.58569
  20
79.369827
  0
VERTEX
  5
ca
  8
Layer_5
  10
222.53094
  20
77.172226
  42
-0.40429495
  0
VERTEX
  5
cb
  8
Layer_5
  10
221.55212
  20
76.151657
  0
VERTEX
  5
cc
  8
Layer_5
  10
205.30557
  20
76.032715
  42
-0.19889364
  0
VERTEX
  5
cd
  8
Layer_5
  10
204.21031
  20
76.438431
  42
-0.1989047
  0
VERTEX
  5
ce
  8
Layer_5
  10
203.7227
  20
77.499802
  0
VERTEX
  5
cf
  8
Layer_5
  10
203.65094
  20
79.391373
  42
0.40423833
  0
VERTEX
  5
d0
  8
Layer_5
  10
202.63033
  20
80.370193
  0
VERTEX
  5
d1
  8
Layer_5
  10
104.24828
  20
79.988724
  42
0.19890084
  0
VERTEX
  5
d2
  8
Layer_5
  10
103.1709
  20
79.537582
  42
0.19892675
  0
VERTEX
  5
d3
  8
Layer_5
  10
102.7281
  20
78.456726
  0
VERTEX
  5
d4
  8
Layer_5
  10
102.73584
  20
76.46788
  42
-0.41422152
  0
VERTEX
  5
d5
  8
Layer_5
  10
101.72241
  20
75.446533
  0
VERTEX
  5
d6
  8
Layer_5
  10
86.173843
  20
75.386246
  42
-0.37669158
  0
VERTEX
  5
d7
  8
Layer_5
  10
85.161591
  20
76.268112
  0
VERTEX
  5
d8
  8
Layer_5
  10
84.909622
  20
78.142258
  42
0.37670069
  0
VERTEX
  5
d9
  8
Layer_5
  10
82.885101
  20
79.905899
  0
VERTEX
  5
da
  8
Layer_5
  10
41.000641
  20
79.743515
  42
0.41421356
  0
VERTEX
  5
db
  8
Layer_5
  10
39.987198
  20
78.722214
  0
VERTEX
  5
dc
  8
Layer_5
  10
39.8209
  20
76.615402
  42
-0.19891319
  0
VERTEX
  5
dd
  8
Layer_5
  10
39.525711
  20
75.894821
  42
-0.19889595
  0
VERTEX
  5
de
  8
Layer_5
  10
38.807465
  20
75.59404
  0
VERTEX
  5
df
  8
Layer_5
  10
20.67421
  20
75.596603
  42
-0.40518889
  0
VERTEX
  5
e0
  8
Layer_5
  10
18.122414
  20
78.051651
  0
VERTEX
  5
e1
  8
Layer_5
  10
5.5753708
  20
174.5083
  42
-0.20391179
  0
VERTEX
  5
e2
  8
Layer_5
  10
6.1479111
  20
175.99527
  42
-0.20393047
  0
SEQEND
  0
ENDSEC
  0
EOF
