  0
SECTION
  2
HEADER
  9
$ACADVER
  1
AC1009
  0
ENDSEC
  0
SECTION
  2
TABLES
  0
TABLE
  2
LAYER
  70
1
  0
LAYER
  2
Layer_2
  70
0
  62
1
  6
CONTINUOUS
  0
ENDTAB
  0
ENDSEC
  0
SECTION
  2
ENTITIES
  0
CIRCLE
  5
90
  8
Layer_2
  62
1
  10
-1.0616913
  20
242.55125
  30
0
  40
3.4738767
  0
CIRCLE
  5
90
  8
Layer_2
  62
1
  10
-1.0683899
  20
195.21518
  30
0
  40
3.4738767
  0
CIRCLE
  5
90
  8
Layer_2
  62
1
  10
-128.22139
  20
184.4826
  30
0
  40
3.2078176
  0
CIRCLE
  5
90
  8
Layer_2
  62
1
  10
-146.45261
  20
151.14534
  30
0
  40
3.1069093
  0
CIRCLE
  5
90
  8
Layer_2
  62
1
  10
-128.2019
  20
253.30844
  30
0
  40
3.2078176
  0
CIRCLE
  5
90
  8
Layer_2
  62
1
  10
-146.41425
  20
286.65601
  30
0
  40
3.1069093
  0
POLYLINE
  5
90
  8
Layer_2
  62
1
  66
1
  10
0
  20
0
  30
0
  0
VERTEX
  5
90
  8
Layer_2
  10
-44.625351
  20
228.88577
  0
VERTEX
  5
91
  8
Layer_2
  10
-51.990036
  20
250.5052
  0
VERTEX
  5
92
  8
Layer_2
  10
-56.188454
  20
274.64612
  0
VERTEX
  5
93
  8
Layer_2
  10
-50.805077
  20
297.31522
  0
VERTEX
  5
94
  8
Layer_2
  10
-52.213966
  20
306.90707
  0
VERTEX
  5
95
  8
Layer_2
  10
-107.18138
  20
297.31522
  0
VERTEX
  5
96
  8
Layer_2
  10
-104.65803
  20
270.18616
  0
VERTEX
  5
97
  8
Layer_2
  10
-101.12147
  20
246.10901
  0
VERTEX
  5
98
  8
Layer_2
  10
-109.53236
  20
239.55037
  0
VERTEX
  5
99
  8
Layer_2
  10
-119.16473
  20
260.96353
  0
VERTEX
  5
9a
  8
Layer_2
  10
-135.49582
  20
260.96353
  0
VERTEX
  5
9b
  8
Layer_2
  10
-151.27223
  20
239.5408
  0
VERTEX
  5
9c
  8
Layer_2
  10
-151.27223
  20
228.88402
  0
VERTEX
  5
9d
  8
Layer_2
  10
-102.92761
  20
229.11731
  0
VERTEX
  5
9e
  8
Layer_2
  10
-102.92761
  20
227.815
  0
VERTEX
  5
9f
  8
Layer_2
  10
-153.12378
  20
227.815
  0
VERTEX
  5
a0
  8
Layer_2
  10
-153.12378
  20
247.10983
  0
VERTEX
  5
a1
  8
Layer_2
  10
-148.19063
  20
250.5052
  0
VERTEX
  5
a2
  8
Layer_2
  10
-148.19063
  20
275.22031
  0
VERTEX
  5
a3
  8
Layer_2
  10
-136.72887
  20
275.22031
  0
VERTEX
  5
a4
  8
Layer_2
  10
-136.72887
  20
294.44833
  0
VERTEX
  5
a5
  8
Layer_2
  10
-154.35773
  20
294.44833
  0
VERTEX
  5
a6
  8
Layer_2
  10
-175.84337
  20
283.04294
  0
VERTEX
  5
a7
  8
Layer_2
  10
-175.84337
  20
247.14648
  0
VERTEX
  5
a8
  8
Layer_2
  10
-168.56923
  20
247.14648
  0
VERTEX
  5
a9
  8
Layer_2
  10
-168.56923
  20
239.4537
  0
VERTEX
  5
aa
  8
Layer_2
  10
-172.58771
  20
239.4537
  0
VERTEX
  5
ab
  8
Layer_2
  10
-172.58771
  20
227.83374
  0
VERTEX
  5
ac
  8
Layer_2
  10
-168.49615
  20
227.83374
  0
VERTEX
  5
ad
  8
Layer_2
  10
-168.49615
  20
218.90692
  0
VERTEX
  5
ae
  8
Layer_2
  10
-168.49869
  20
209.9801
  0
VERTEX
  5
af
  8
Layer_2
  10
-172.59024
  20
209.98125
  0
VERTEX
  5
b0
  8
Layer_2
  10
-172.59352
  20
198.36128
  0
VERTEX
  5
b1
  8
Layer_2
  10
-168.57504
  20
198.36014
  0
VERTEX
  5
b2
  8
Layer_2
  10
-168.57722
  20
190.66739
  0
VERTEX
  5
b3
  8
Layer_2
  10
-175.85136
  20
190.66945
  0
VERTEX
  5
b4
  8
Layer_2
  10
-175.86153
  20
154.77298
  0
VERTEX
  5
b5
  8
Layer_2
  10
-154.37912
  20
143.36151
  0
VERTEX
  5
b6
  8
Layer_2
  10
-136.75026
  20
143.35652
  0
VERTEX
  5
b7
  8
Layer_2
  10
-136.74481
  20
162.58455
  0
VERTEX
  5
b8
  8
Layer_2
  10
-148.20657
  20
162.58778
  0
VERTEX
  5
b9
  8
Layer_2
  10
-148.19958
  20
187.30289
  0
VERTEX
  5
ba
  8
Layer_2
  10
-153.13177
  20
190.69968
  0
VERTEX
  5
bb
  8
Layer_2
  10
-153.12631
  20
209.99448
  0
VERTEX
  5
bc
  8
Layer_2
  10
-102.93014
  20
209.98026
  0
VERTEX
  5
bd
  8
Layer_2
  10
-102.93051
  20
208.67796
  0
VERTEX
  5
be
  8
Layer_2
  10
-151.27505
  20
208.92496
  0
VERTEX
  5
bf
  8
Layer_2
  10
-151.27808
  20
198.26816
  0
VERTEX
  5
c0
  8
Layer_2
  10
-135.50772
  20
176.84096
  0
VERTEX
  5
c1
  8
Layer_2
  10
-119.17664
  20
176.83633
  0
VERTEX
  5
c2
  8
Layer_2
  10
-109.53821
  20
198.24678
  0
VERTEX
  5
c3
  8
Layer_2
  10
-101.12917
  20
191.68576
  0
VERTEX
  5
c4
  8
Layer_2
  10
-104.67255
  20
167.60962
  0
VERTEX
  5
c5
  8
Layer_2
  10
-107.20358
  20
140.48126
  0
VERTEX
  5
c6
  8
Layer_2
  10
-52.238884
  20
130.87386
  0
VERTEX
  5
c7
  8
Layer_2
  10
-50.827278
  20
140.4653
  0
VERTEX
  5
c8
  8
Layer_2
  10
-56.204239
  20
163.13594
  0
VERTEX
  5
c9
  8
Layer_2
  10
-51.998985
  20
187.27565
  0
VERTEX
  5
ca
  8
Layer_2
  10
-44.628181
  20
208.89301
  0
SEQEND
  0
POLYLINE
  5
cc
  8
Layer_2
  62
1
  66
1
  10
0
  20
0
  30
0
  0
VERTEX
  5
cc
  8
Layer_2
  10
-51.990036
  20
250.5052
  0
VERTEX
  5
cd
  8
Layer_2
  10
-43.210022
  20
263.83798
  0
VERTEX
  5
ce
  8
Layer_2
  10
-19.452301
  20
263.83798
  0
VERTEX
  5
cf
  8
Layer_2
  10
-10.214951
  20
250.40813
  0
VERTEX
  5
d0
  8
Layer_2
  10
1.3043976
  20
250.40813
  0
VERTEX
  5
d1
  8
Layer_2
  10
9.949295
  20
263.83798
  0
VERTEX
  5
d2
  8
Layer_2
  10
34.077545
  20
263.83798
  0
VERTEX
  5
d3
  8
Layer_2
  10
43.123795
  20
250.39859
  0
VERTEX
  5
d4
  8
Layer_2
  10
43.123795
  20
238.95956
  0
VERTEX
  5
d5
  8
Layer_2
  10
20.79245
  20
228.97533
  0
VERTEX
  5
d6
  8
Layer_2
  10
55.603546
  20
228.97533
  0
VERTEX
  5
d7
  8
Layer_2
  10
54.875046
  20
237.1554
  0
VERTEX
  5
d8
  8
Layer_2
  10
50.149323
  20
240.19737
  0
VERTEX
  5
d9
  8
Layer_2
  10
50.149323
  20
250.71895
  0
VERTEX
  5
da
  8
Layer_2
  10
44.201843
  20
250.71895
  0
VERTEX
  5
db
  8
Layer_2
  10
44.201843
  20
264.57108
  0
VERTEX
  5
dc
  8
Layer_2
  10
69.645187
  20
260.61176
  0
VERTEX
  5
dd
  8
Layer_2
  10
71.918091
  20
229.82428
  0
VERTEX
  5
de
  8
Layer_2
  10
78.35611
  20
260.34155
  0
VERTEX
  5
df
  8
Layer_2
  10
87.607376
  20
260.34155
  0
VERTEX
  5
e0
  8
Layer_2
  10
94.415787
  20
226.06467
  0
VERTEX
  5
e1
  8
Layer_2
  10
111.74828
  20
226.06467
  0
VERTEX
  5
e2
  8
Layer_2
  10
111.74828
  20
218.86725
  0
VERTEX
  5
e3
  8
Layer_2
  10
111.74623
  20
211.66983
  0
VERTEX
  5
e4
  8
Layer_2
  10
94.413773
  20
211.67474
  0
VERTEX
  5
e5
  8
Layer_2
  10
87.595627
  20
177.39981
  0
VERTEX
  5
e6
  8
Layer_2
  10
78.344376
  20
177.40242
  0
VERTEX
  5
e7
  8
Layer_2
  10
71.914993
  20
207.92151
  0
VERTEX
  5
e8
  8
Layer_2
  10
69.633377
  20
177.13467
  0
VERTEX
  5
e9
  8
Layer_2
  10
44.188904
  20
173.18256
  0
VERTEX
  5
ea
  8
Layer_2
  10
44.192825
  20
187.03468
  0
VERTEX
  5
eb
  8
Layer_2
  10
50.140305
  20
187.033
  0
VERTEX
  5
ec
  8
Layer_2
  10
50.14328
  20
197.55457
  0
VERTEX
  5
ed
  8
Layer_2
  10
54.869873
  20
200.59521
  0
VERTEX
  5
ee
  8
Layer_2
  10
55.600693
  20
208.77509
  0
VERTEX
  5
ef
  8
Layer_2
  10
20.789581
  20
208.78493
  0
VERTEX
  5
f0
  8
Layer_2
  10
43.118118
  20
198.79437
  0
VERTEX
  5
f1
  8
Layer_2
  10
43.114883
  20
187.35535
  0
VERTEX
  5
f2
  8
Layer_2
  10
34.064819
  20
173.91852
  0
VERTEX
  5
f3
  8
Layer_2
  10
9.9365692
  20
173.92534
  0
VERTEX
  5
f4
  8
Layer_2
  10
1.2954712
  20
187.35765
  0
VERTEX
  5
f5
  8
Layer_2
  10
-10.223877
  20
187.36092
  0
VERTEX
  5
f6
  8
Layer_2
  10
-19.465012
  20
173.93367
  0
VERTEX
  5
f7
  8
Layer_2
  10
-43.222748
  20
173.94038
  0
VERTEX
  5
f8
  8
Layer_2
  10
-51.998985
  20
187.27565
  0
SEQEND
  0
POLYLINE
  5
fa
  8
Layer_2
  62
1
  66
1
  10
0
  20
0
  30
0
  0
VERTEX
  5
fa
  8
Layer_2
  10
-165.42041
  20
247.14648
  0
VERTEX
  5
fb
  8
Layer_2
  10
-162.27161
  20
247.14648
  0
SEQEND
  0
POLYLINE
  5
fd
  8
Layer_2
  62
1
  66
1
  10
0
  20
0
  30
0
  0
VERTEX
  5
fd
  8
Layer_2
  10
-159.12279
  20
247.14648
  0
VERTEX
  5
fe
  8
Layer_2
  10
-155.97397
  20
247.14648
  0
SEQEND
  0
POLYLINE
  5
100
  8
Layer_2
  62
1
  66
1
  10
0
  20
0
  30
0
  0
VERTEX
  5
100
  8
Layer_2
  10
-165.42291
  20
239.4537
  0
VERTEX
  5
101
  8
Layer_2
  10
-162.27411
  20
239.4537
  0
SEQEND
  0
POLYLINE
  5
103
  8
Layer_2
  62
1
  66
1
  10
0
  20
0
  30
0
  0
VERTEX
  5
103
  8
Layer_2
  10
-159.12529
  20
239.4537
  0
VERTEX
  5
104
  8
Layer_2
  10
-155.97647
  20
239.4537
  0
SEQEND
  0
POLYLINE
  5
106
  8
Layer_2
  62
1
  66
1
  10
0
  20
0
  30
0
  0
VERTEX
  5
106
  8
Layer_2
  10
-168.56923
  20
237.85692
  0
VERTEX
  5
107
  8
Layer_2
  10
-168.56923
  20
235.01291
  0
SEQEND
  0
POLYLINE
  5
109
  8
Layer_2
  62
1
  66
1
  10
0
  20
0
  30
0
  0
VERTEX
  5
109
  8
Layer_2
  10
-168.49615
  20
229.99844
  0
VERTEX
  5
10a
  8
Layer_2
  10
-168.49615
  20
233.36636
  0
SEQEND
  0
POLYLINE
  5
10c
  8
Layer_2
  62
1
  66
1
  10
0
  20
0
  30
0
  0
VERTEX
  5
10c
  8
Layer_2
  10
-148.40767
  20
239.5408
  0
VERTEX
  5
10d
  8
Layer_2
  10
-144.86185
  20
239.5408
  0
SEQEND
  0
POLYLINE
  5
10f
  8
Layer_2
  62
1
  66
1
  10
0
  20
0
  30
0
  0
VERTEX
  5
10f
  8
Layer_2
  10
-141.48898
  20
239.5408
  0
VERTEX
  5
110
  8
Layer_2
  10
-137.00801
  20
239.5408
  0
SEQEND
  0
POLYLINE
  5
112
  8
Layer_2
  62
1
  66
1
  10
0
  20
0
  30
0
  0
VERTEX
  5
112
  8
Layer_2
  10
-133.446
  20
239.5408
  0
VERTEX
  5
113
  8
Layer_2
  10
-128.61118
  20
239.5408
  0
SEQEND
  0
POLYLINE
  5
115
  8
Layer_2
  62
1
  66
1
  10
0
  20
0
  30
0
  0
VERTEX
  5
115
  8
Layer_2
  10
-125.23004
  20
239.5408
  0
VERTEX
  5
116
  8
Layer_2
  10
-121.42476
  20
239.5408
  0
SEQEND
  0
POLYLINE
  5
118
  8
Layer_2
  62
1
  66
1
  10
0
  20
0
  30
0
  0
VERTEX
  5
118
  8
Layer_2
  10
-117.87894
  20
239.5408
  0
VERTEX
  5
119
  8
Layer_2
  10
-112.51694
  20
239.5408
  0
SEQEND
  0
POLYLINE
  5
11b
  8
Layer_2
  62
1
  66
1
  10
0
  20
0
  30
0
  0
VERTEX
  5
11b
  8
Layer_2
  10
-118.52229
  20
226.84766
  0
VERTEX
  5
11c
  8
Layer_2
  10
-118.52229
  20
224.98669
  0
SEQEND
  0
POLYLINE
  5
11e
  8
Layer_2
  62
1
  66
1
  10
0
  20
0
  30
0
  0
VERTEX
  5
11e
  8
Layer_2
  10
-118.52229
  20
223.79037
  0
VERTEX
  5
11f
  8
Layer_2
  10
-118.52229
  20
222.16589
  0
SEQEND
  0
POLYLINE
  5
121
  8
Layer_2
  62
1
  66
1
  10
0
  20
0
  30
0
  0
VERTEX
  5
121
  8
Layer_2
  10
-118.52229
  20
221.0986
  0
VERTEX
  5
122
  8
Layer_2
  10
-118.52229
  20
219.43704
  0
SEQEND
  0
POLYLINE
  5
124
  8
Layer_2
  62
1
  66
1
  10
0
  20
0
  30
0
  0
VERTEX
  5
124
  8
Layer_2
  10
-102.8412
  20
221.0986
  0
VERTEX
  5
125
  8
Layer_2
  10
-102.8412
  20
219.43704
  0
SEQEND
  0
POLYLINE
  5
127
  8
Layer_2
  62
1
  66
1
  10
0
  20
0
  30
0
  0
VERTEX
  5
127
  8
Layer_2
  10
-102.8412
  20
223.79037
  0
VERTEX
  5
128
  8
Layer_2
  10
-102.8412
  20
222.16589
  0
SEQEND
  0
POLYLINE
  5
12a
  8
Layer_2
  62
1
  66
1
  10
0
  20
0
  30
0
  0
VERTEX
  5
12a
  8
Layer_2
  10
-102.8412
  20
226.84766
  0
VERTEX
  5
12b
  8
Layer_2
  10
-102.8412
  20
224.98669
  0
SEQEND
  0
POLYLINE
  5
12d
  8
Layer_2
  62
1
  66
1
  10
0
  20
0
  30
0
  0
VERTEX
  5
12d
  8
Layer_2
  10
-102.95241
  20
270.28506
  0
VERTEX
  5
12e
  8
Layer_2
  10
-99.031075
  20
270.65558
  0
SEQEND
  0
POLYLINE
  5
130
  8
Layer_2
  62
1
  66
1
  10
0
  20
0
  30
0
  0
VERTEX
  5
130
  8
Layer_2
  10
-96.807961
  20
270.90259
  0
VERTEX
  5
131
  8
Layer_2
  10
-91.38295
  20
271.38995
  0
SEQEND
  0
POLYLINE
  5
133
  8
Layer_2
  62
1
  66
1
  10
0
  20
0
  30
0
  0
VERTEX
  5
133
  8
Layer_2
  10
-89.203629
  20
271.62393
  0
VERTEX
  5
134
  8
Layer_2
  10
-83.838196
  20
272.09958
  0
SEQEND
  0
POLYLINE
  5
136
  8
Layer_2
  62
1
  66
1
  10
0
  20
0
  30
0
  0
VERTEX
  5
136
  8
Layer_2
  10
-81.945869
  20
272.31458
  0
VERTEX
  5
137
  8
Layer_2
  10
-76.913544
  20
272.79703
  0
SEQEND
  0
POLYLINE
  5
139
  8
Layer_2
  62
1
  66
1
  10
0
  20
0
  30
0
  0
VERTEX
  5
139
  8
Layer_2
  10
-75.501976
  20
272.93524
  0
VERTEX
  5
13a
  8
Layer_2
  10
-72.188179
  20
273.26117
  0
SEQEND
  0
POLYLINE
  5
13c
  8
Layer_2
  62
1
  66
1
  10
0
  20
0
  30
0
  0
VERTEX
  5
13c
  8
Layer_2
  10
-69.743568
  20
273.47849
  0
VERTEX
  5
13d
  8
Layer_2
  10
-64.780968
  20
273.96216
  0
SEQEND
  0
POLYLINE
  5
13f
  8
Layer_2
  62
1
  66
1
  10
0
  20
0
  30
0
  0
VERTEX
  5
13f
  8
Layer_2
  10
-62.906769
  20
274.15231
  0
VERTEX
  5
140
  8
Layer_2
  10
-58.096962
  20
274.57642
  0
SEQEND
  0
POLYLINE
  5
142
  8
Layer_2
  62
1
  66
1
  10
0
  20
0
  30
0
  0
VERTEX
  5
142
  8
Layer_2
  10
-99.102898
  20
246.27722
  0
VERTEX
  5
143
  8
Layer_2
  10
-95.181572
  20
246.64774
  0
SEQEND
  0
POLYLINE
  5
145
  8
Layer_2
  62
1
  66
1
  10
0
  20
0
  30
0
  0
VERTEX
  5
145
  8
Layer_2
  10
-92.991714
  20
246.82822
  0
VERTEX
  5
146
  8
Layer_2
  10
-87.566711
  20
247.31558
  0
SEQEND
  0
POLYLINE
  5
148
  8
Layer_2
  62
1
  66
1
  10
0
  20
0
  30
0
  0
VERTEX
  5
148
  8
Layer_2
  10
-85.38739
  20
247.48303
  0
VERTEX
  5
149
  8
Layer_2
  10
-80.021957
  20
247.95868
  0
SEQEND
  0
POLYLINE
  5
14b
  8
Layer_2
  62
1
  66
1
  10
0
  20
0
  30
0
  0
VERTEX
  5
14b
  8
Layer_2
  10
-78.129631
  20
248.17365
  0
VERTEX
  5
14c
  8
Layer_2
  10
-73.068283
  20
248.61694
  0
SEQEND
  0
POLYLINE
  5
14e
  8
Layer_2
  62
1
  66
1
  10
0
  20
0
  30
0
  0
VERTEX
  5
14e
  8
Layer_2
  10
-71.685738
  20
248.79434
  0
VERTEX
  5
14f
  8
Layer_2
  10
-68.295876
  20
248.95108
  0
SEQEND
  0
POLYLINE
  5
151
  8
Layer_2
  62
1
  66
1
  10
0
  20
0
  30
0
  0
VERTEX
  5
151
  8
Layer_2
  10
-65.92733
  20
249.24408
  0
VERTEX
  5
152
  8
Layer_2
  10
-60.964722
  20
249.72777
  0
SEQEND
  0
POLYLINE
  5
154
  8
Layer_2
  62
1
  66
1
  10
0
  20
0
  30
0
  0
VERTEX
  5
154
  8
Layer_2
  10
-59.090523
  20
249.82442
  0
VERTEX
  5
155
  8
Layer_2
  10
-54.280724
  20
250.24854
  0
SEQEND
  0
POLYLINE
  5
157
  8
Layer_2
  62
1
  66
1
  10
0
  20
0
  30
0
  0
VERTEX
  5
157
  8
Layer_2
  10
-49.761238
  20
250.31192
  0
VERTEX
  5
158
  8
Layer_2
  10
-45.39595
  20
250.31192
  0
SEQEND
  0
POLYLINE
  5
15a
  8
Layer_2
  62
1
  66
1
  10
0
  20
0
  30
0
  0
VERTEX
  5
15a
  8
Layer_2
  10
-42.901505
  20
250.31192
  0
VERTEX
  5
15b
  8
Layer_2
  10
-38.231796
  20
250.31192
  0
SEQEND
  0
POLYLINE
  5
15d
  8
Layer_2
  62
1
  66
1
  10
0
  20
0
  30
0
  0
VERTEX
  5
15d
  8
Layer_2
  10
-34.454391
  20
250.36861
  0
VERTEX
  5
15e
  8
Layer_2
  10
-29.891647
  20
250.36861
  0
SEQEND
  0
POLYLINE
  5
160
  8
Layer_2
  62
1
  66
1
  10
0
  20
0
  30
0
  0
VERTEX
  5
160
  8
Layer_2
  10
-27.384583
  20
250.3282
  0
VERTEX
  5
161
  8
Layer_2
  10
-22.395676
  20
250.3282
  0
SEQEND
  0
POLYLINE
  5
163
  8
Layer_2
  62
1
  66
1
  10
0
  20
0
  30
0
  0
VERTEX
  5
163
  8
Layer_2
  10
-19.334305
  20
250.3282
  0
VERTEX
  5
164
  8
Layer_2
  10
-14.204269
  20
250.3282
  0
SEQEND
  0
POLYLINE
  5
166
  8
Layer_2
  62
1
  66
1
  10
0
  20
0
  30
0
  0
VERTEX
  5
166
  8
Layer_2
  10
33.14592
  20
250.3282
  0
VERTEX
  5
167
  8
Layer_2
  10
38.275955
  20
250.3282
  0
SEQEND
  0
POLYLINE
  5
169
  8
Layer_2
  62
1
  66
1
  10
0
  20
0
  30
0
  0
VERTEX
  5
169
  8
Layer_2
  10
9.5787354
  20
250.31192
  0
VERTEX
  5
16a
  8
Layer_2
  10
14.248444
  20
250.31192
  0
SEQEND
  0
POLYLINE
  5
16c
  8
Layer_2
  62
1
  66
1
  10
0
  20
0
  30
0
  0
VERTEX
  5
16c
  8
Layer_2
  10
2.7189941
  20
250.31192
  0
VERTEX
  5
16d
  8
Layer_2
  10
7.0842743
  20
250.31192
  0
SEQEND
  0
POLYLINE
  5
16f
  8
Layer_2
  62
1
  66
1
  10
0
  20
0
  30
0
  0
VERTEX
  5
16f
  8
Layer_2
  10
25.095657
  20
250.3282
  0
VERTEX
  5
170
  8
Layer_2
  10
30.084549
  20
250.3282
  0
SEQEND
  0
POLYLINE
  5
172
  8
Layer_2
  62
1
  66
1
  10
0
  20
0
  30
0
  0
VERTEX
  5
172
  8
Layer_2
  10
18.025848
  20
250.36861
  0
VERTEX
  5
173
  8
Layer_2
  10
22.588577
  20
250.36861
  0
SEQEND
  0
POLYLINE
  5
175
  8
Layer_2
  62
1
  66
1
  10
0
  20
0
  30
0
  0
VERTEX
  5
175
  8
Layer_2
  10
-13.036682
  20
228.91626
  0
VERTEX
  5
176
  8
Layer_2
  10
-7.9066467
  20
228.91626
  0
SEQEND
  0
POLYLINE
  5
178
  8
Layer_2
  62
1
  66
1
  10
0
  20
0
  30
0
  0
VERTEX
  5
178
  8
Layer_2
  10
-36.603867
  20
228.89999
  0
VERTEX
  5
179
  8
Layer_2
  10
-31.934158
  20
228.89999
  0
SEQEND
  0
POLYLINE
  5
17b
  8
Layer_2
  62
1
  66
1
  10
0
  20
0
  30
0
  0
VERTEX
  5
17b
  8
Layer_2
  10
-43.463608
  20
228.89999
  0
VERTEX
  5
17c
  8
Layer_2
  10
-39.098328
  20
228.89999
  0
SEQEND
  0
POLYLINE
  5
17e
  8
Layer_2
  62
1
  66
1
  10
0
  20
0
  30
0
  0
VERTEX
  5
17e
  8
Layer_2
  10
-21.086945
  20
228.91626
  0
VERTEX
  5
17f
  8
Layer_2
  10
-16.098053
  20
228.91626
  0
SEQEND
  0
POLYLINE
  5
181
  8
Layer_2
  62
1
  66
1
  10
0
  20
0
  30
0
  0
VERTEX
  5
181
  8
Layer_2
  10
-28.156754
  20
228.95667
  0
VERTEX
  5
182
  8
Layer_2
  10
-23.594025
  20
228.95667
  0
SEQEND
  0
POLYLINE
  5
184
  8
Layer_2
  62
1
  66
1
  10
0
  20
0
  30
0
  0
VERTEX
  5
184
  8
Layer_2
  10
11.72821
  20
228.95667
  0
VERTEX
  5
185
  8
Layer_2
  10
16.290955
  20
228.95667
  0
SEQEND
  0
POLYLINE
  5
187
  8
Layer_2
  62
1
  66
1
  10
0
  20
0
  30
0
  0
VERTEX
  5
187
  8
Layer_2
  10
3.2810974
  20
228.89999
  0
VERTEX
  5
188
  8
Layer_2
  10
7.9508057
  20
228.89999
  0
SEQEND
  0
POLYLINE
  5
18a
  8
Layer_2
  62
1
  66
1
  10
0
  20
0
  30
0
  0
VERTEX
  5
18a
  8
Layer_2
  10
-3.5786285
  20
228.89999
  0
VERTEX
  5
18b
  8
Layer_2
  10
0.78665161
  20
228.89999
  0
SEQEND
  0
POLYLINE
  5
18d
  8
Layer_2
  62
1
  66
1
  10
0
  20
0
  30
0
  0
VERTEX
  5
18d
  8
Layer_2
  10
71.863312
  20
228.4635
  0
VERTEX
  5
18e
  8
Layer_2
  10
71.863312
  20
224.75467
  0
SEQEND
  0
POLYLINE
  5
190
  8
Layer_2
  62
1
  66
1
  10
0
  20
0
  30
0
  0
VERTEX
  5
190
  8
Layer_2
  10
71.863312
  20
223.21548
  0
VERTEX
  5
191
  8
Layer_2
  10
71.863312
  20
219.67401
  0
SEQEND
  0
POLYLINE
  5
193
  8
Layer_2
  62
1
  66
1
  10
0
  20
0
  30
0
  0
VERTEX
  5
193
  8
Layer_2
  10
94.493179
  20
225.2934
  0
VERTEX
  5
194
  8
Layer_2
  10
94.493179
  20
223.21548
  0
SEQEND
  0
POLYLINE
  5
196
  8
Layer_2
  62
1
  66
1
  10
0
  20
0
  30
0
  0
VERTEX
  5
196
  8
Layer_2
  10
94.4384
  20
221.84175
  0
VERTEX
  5
197
  8
Layer_2
  10
94.438065
  20
219.37628
  0
SEQEND
  0
POLYLINE
  5
199
  8
Layer_2
  62
1
  66
1
  10
0
  20
0
  30
0
  0
VERTEX
  5
199
  8
Layer_2
  10
71.860596
  20
209.28229
  0
VERTEX
  5
19a
  8
Layer_2
  10
71.861633
  20
212.99112
  0
SEQEND
  0
POLYLINE
  5
19c
  8
Layer_2
  62
1
  66
1
  10
0
  20
0
  30
0
  0
VERTEX
  5
19c
  8
Layer_2
  10
-69.759018
  20
164.3074
  0
VERTEX
  5
19d
  8
Layer_2
  10
-64.796555
  20
163.82231
  0
SEQEND
  0
POLYLINE
  5
19f
  8
Layer_2
  62
1
  66
1
  10
0
  20
0
  30
0
  0
VERTEX
  5
19f
  8
Layer_2
  10
-21.089783
  20
208.85585
  0
VERTEX
  5
1a0
  8
Layer_2
  10
-16.100891
  20
208.85443
  0
SEQEND
  0
POLYLINE
  5
1a2
  8
Layer_2
  62
1
  66
1
  10
0
  20
0
  30
0
  0
VERTEX
  5
1a2
  8
Layer_2
  10
-148.41351
  20
198.26735
  0
VERTEX
  5
1a3
  8
Layer_2
  10
-144.86768
  20
198.26636
  0
SEQEND
  0
POLYLINE
  5
1a5
  8
Layer_2
  62
1
  66
1
  10
0
  20
0
  30
0
  0
VERTEX
  5
1a5
  8
Layer_2
  10
-102.84183
  20
216.69664
  0
VERTEX
  5
1a6
  8
Layer_2
  10
-102.84135
  20
218.35822
  0
SEQEND
  0
POLYLINE
  5
1a8
  8
Layer_2
  62
1
  66
1
  10
0
  20
0
  30
0
  0
VERTEX
  5
1a8
  8
Layer_2
  10
3.2782745
  20
208.86523
  0
VERTEX
  5
1a9
  8
Layer_2
  10
7.9479675
  20
208.86391
  0
SEQEND
  0
POLYLINE
  5
1ab
  8
Layer_2
  62
1
  66
1
  10
0
  20
0
  30
0
  0
VERTEX
  5
1ab
  8
Layer_2
  10
-43.466438
  20
208.87846
  0
VERTEX
  5
1ac
  8
Layer_2
  10
-39.101151
  20
208.87723
  0
SEQEND
  0
POLYLINE
  5
1ae
  8
Layer_2
  62
1
  66
1
  10
0
  20
0
  30
0
  0
VERTEX
  5
1ae
  8
Layer_2
  10
-75.517273
  20
164.85228
  0
VERTEX
  5
1af
  8
Layer_2
  10
-72.203568
  20
164.52539
  0
SEQEND
  0
POLYLINE
  5
1b1
  8
Layer_2
  62
1
  66
1
  10
0
  20
0
  30
0
  0
VERTEX
  5
1b1
  8
Layer_2
  10
-96.822678
  20
166.89096
  0
VERTEX
  5
1b2
  8
Layer_2
  10
-91.397812
  20
166.40205
  0
SEQEND
  0
POLYLINE
  5
1b4
  8
Layer_2
  62
1
  66
1
  10
0
  20
0
  30
0
  0
VERTEX
  5
1b4
  8
Layer_2
  10
2.7100983
  20
187.45346
  0
VERTEX
  5
1b5
  8
Layer_2
  10
7.0753784
  20
187.45222
  0
SEQEND
  0
POLYLINE
  5
1b7
  8
Layer_2
  62
1
  66
1
  10
0
  20
0
  30
0
  0
VERTEX
  5
1b7
  8
Layer_2
  10
-102.84345
  20
210.94759
  0
VERTEX
  5
1b8
  8
Layer_2
  10
-102.84293
  20
212.80856
  0
SEQEND
  0
POLYLINE
  5
1ba
  8
Layer_2
  62
1
  66
1
  10
0
  20
0
  30
0
  0
VERTEX
  5
1ba
  8
Layer_2
  10
-34.463303
  20
187.40729
  0
VERTEX
  5
1bb
  8
Layer_2
  10
-29.900558
  20
187.40599
  0
SEQEND
  0
POLYLINE
  5
1bd
  8
Layer_2
  62
1
  66
1
  10
0
  20
0
  30
0
  0
VERTEX
  5
1bd
  8
Layer_2
  10
-102.84259
  20
214.00488
  0
VERTEX
  5
1be
  8
Layer_2
  10
-102.84213
  20
215.62936
  0
SEQEND
  0
POLYLINE
  5
1c0
  8
Layer_2
  62
1
  66
1
  10
0
  20
0
  30
0
  0
VERTEX
  5
1c0
  8
Layer_2
  10
-49.770126
  20
187.46831
  0
VERTEX
  5
1c1
  8
Layer_2
  10
-45.404846
  20
187.46707
  0
SEQEND
  0
POLYLINE
  5
1c3
  8
Layer_2
  62
1
  66
1
  10
0
  20
0
  30
0
  0
VERTEX
  5
1c3
  8
Layer_2
  10
-62.922409
  20
163.63165
  0
VERTEX
  5
1c4
  8
Layer_2
  10
-58.112724
  20
163.20616
  0
SEQEND
  0
POLYLINE
  5
1c6
  8
Layer_2
  62
1
  66
1
  10
0
  20
0
  30
0
  0
VERTEX
  5
1c6
  8
Layer_2
  10
33.137024
  20
187.42856
  0
VERTEX
  5
1c7
  8
Layer_2
  10
38.267059
  20
187.42711
  0
SEQEND
  0
POLYLINE
  5
1c9
  8
Layer_2
  62
1
  66
1
  10
0
  20
0
  30
0
  0
VERTEX
  5
1c9
  8
Layer_2
  10
-99.110649
  20
191.51697
  0
VERTEX
  5
1ca
  8
Layer_2
  10
-95.189423
  20
191.14536
  0
SEQEND
  0
POLYLINE
  5
1cc
  8
Layer_2
  62
1
  66
1
  10
0
  20
0
  30
0
  0
VERTEX
  5
1cc
  8
Layer_2
  10
-125.23589
  20
198.26079
  0
VERTEX
  5
1cd
  8
Layer_2
  10
-121.4306
  20
198.2597
  0
SEQEND
  0
POLYLINE
  5
1cf
  8
Layer_2
  62
1
  66
1
  10
0
  20
0
  30
0
  0
VERTEX
  5
1cf
  8
Layer_2
  10
-133.45184
  20
198.26312
  0
VERTEX
  5
1d0
  8
Layer_2
  10
-128.617
  20
198.26175
  0
SEQEND
  0
POLYLINE
  5
1d2
  8
Layer_2
  62
1
  66
1
  10
0
  20
0
  30
0
  0
VERTEX
  5
1d2
  8
Layer_2
  10
-165.42841
  20
190.6665
  0
VERTEX
  5
1d3
  8
Layer_2
  10
-162.2796
  20
190.6656
  0
SEQEND
  0
POLYLINE
  5
1d5
  8
Layer_2
  62
1
  66
1
  10
0
  20
0
  30
0
  0
VERTEX
  5
1d5
  8
Layer_2
  10
-81.960991
  20
165.47478
  0
VERTEX
  5
1d6
  8
Layer_2
  10
-76.928802
  20
164.99088
  0
SEQEND
  0
POLYLINE
  5
1d8
  8
Layer_2
  62
1
  66
1
  10
0
  20
0
  30
0
  0
VERTEX
  5
1d8
  8
Layer_2
  10
11.725357
  20
208.80615
  0
VERTEX
  5
1d9
  8
Layer_2
  10
16.288101
  20
208.80486
  0
SEQEND
  0
POLYLINE
  5
1db
  8
Layer_2
  62
1
  66
1
  10
0
  20
0
  30
0
  0
VERTEX
  5
1db
  8
Layer_2
  10
-3.5814667
  20
208.86717
  0
VERTEX
  5
1dc
  8
Layer_2
  10
0.78381348
  20
208.86594
  0
SEQEND
  0
POLYLINE
  5
1de
  8
Layer_2
  62
1
  66
1
  10
0
  20
0
  30
0
  0
VERTEX
  5
1de
  8
Layer_2
  10
9.5698395
  20
187.45152
  0
VERTEX
  5
1df
  8
Layer_2
  10
14.239548
  20
187.4502
  0
SEQEND
  0
POLYLINE
  5
1e1
  8
Layer_2
  62
1
  66
1
  10
0
  20
0
  30
0
  0
VERTEX
  5
1e1
  8
Layer_2
  10
94.437546
  20
215.89766
  0
VERTEX
  5
1e2
  8
Layer_2
  10
94.437912
  20
218.36313
  0
SEQEND
  0
POLYLINE
  5
1e4
  8
Layer_2
  62
1
  66
1
  10
0
  20
0
  30
0
  0
VERTEX
  5
1e4
  8
Layer_2
  10
71.862076
  20
214.5303
  0
VERTEX
  5
1e5
  8
Layer_2
  10
71.863083
  20
218.07178
  0
SEQEND
  0
POLYLINE
  5
1e7
  8
Layer_2
  62
1
  66
1
  10
0
  20
0
  30
0
  0
VERTEX
  5
1e7
  8
Layer_2
  10
-168.4993
  20
207.8154
  0
VERTEX
  5
1e8
  8
Layer_2
  10
-168.50024
  20
204.44748
  0
SEQEND
  0
POLYLINE
  5
1ea
  8
Layer_2
  62
1
  66
1
  10
0
  20
0
  30
0
  0
VERTEX
  5
1ea
  8
Layer_2
  10
-118.52368
  20
214.00934
  0
VERTEX
  5
1eb
  8
Layer_2
  10
-118.52322
  20
215.63382
  0
SEQEND
  0
POLYLINE
  5
1ed
  8
Layer_2
  62
1
  66
1
  10
0
  20
0
  30
0
  0
VERTEX
  5
1ed
  8
Layer_2
  10
25.086746
  20
187.43085
  0
VERTEX
  5
1ee
  8
Layer_2
  10
30.075653
  20
187.42943
  0
SEQEND
  0
POLYLINE
  5
1f0
  8
Layer_2
  62
1
  66
1
  10
0
  20
0
  30
0
  0
VERTEX
  5
1f0
  8
Layer_2
  10
-118.52455
  20
210.95203
  0
VERTEX
  5
1f1
  8
Layer_2
  10
-118.52402
  20
212.81299
  0
SEQEND
  0
POLYLINE
  5
1f3
  8
Layer_2
  62
1
  66
1
  10
0
  20
0
  30
0
  0
VERTEX
  5
1f3
  8
Layer_2
  10
-78.137924
  20
189.61461
  0
VERTEX
  5
1f4
  8
Layer_2
  10
-73.076698
  20
189.16989
  0
SEQEND
  0
POLYLINE
  5
1f6
  8
Layer_2
  62
1
  66
1
  10
0
  20
0
  30
0
  0
VERTEX
  5
1f6
  8
Layer_2
  10
-168.5746
  20
199.95694
  0
VERTEX
  5
1f7
  8
Layer_2
  10
-168.57379
  20
202.80096
  0
SEQEND
  0
POLYLINE
  5
1f9
  8
Layer_2
  62
1
  66
1
  10
0
  20
0
  30
0
  0
VERTEX
  5
1f9
  8
Layer_2
  10
-89.218552
  20
166.16745
  0
VERTEX
  5
1fa
  8
Layer_2
  10
-83.853256
  20
165.69029
  0
SEQEND
  0
POLYLINE
  5
1fc
  8
Layer_2
  62
1
  66
1
  10
0
  20
0
  30
0
  0
VERTEX
  5
1fc
  8
Layer_2
  10
-36.606705
  20
208.87653
  0
VERTEX
  5
1fd
  8
Layer_2
  10
-31.936996
  20
208.8752
  0
SEQEND
  0
POLYLINE
  5
1ff
  8
Layer_2
  62
1
  66
1
  10
0
  20
0
  30
0
  0
VERTEX
  5
1ff
  8
Layer_2
  10
-85.395477
  20
190.30728
  0
VERTEX
  5
200
  8
Layer_2
  10
-80.03019
  20
189.83011
  0
SEQEND
  0
POLYLINE
  5
202
  8
Layer_2
  62
1
  66
1
  10
0
  20
0
  30
0
  0
VERTEX
  5
202
  8
Layer_2
  10
-165.42873
  20
198.35925
  0
VERTEX
  5
203
  8
Layer_2
  10
-162.27992
  20
198.35837
  0
SEQEND
  0
POLYLINE
  5
205
  8
Layer_2
  62
1
  66
1
  10
0
  20
0
  30
0
  0
VERTEX
  5
205
  8
Layer_2
  10
94.491379
  20
212.44598
  0
VERTEX
  5
206
  8
Layer_2
  10
94.491959
  20
214.52391
  0
SEQEND
  0
POLYLINE
  5
208
  8
Layer_2
  62
1
  66
1
  10
0
  20
0
  30
0
  0
VERTEX
  5
208
  8
Layer_2
  10
-118.52292
  20
216.70108
  0
VERTEX
  5
209
  8
Layer_2
  10
-118.52245
  20
218.36266
  0
SEQEND
  0
POLYLINE
  5
20b
  8
Layer_2
  62
1
  66
1
  10
0
  20
0
  30
0
  0
VERTEX
  5
20b
  8
Layer_2
  10
-141.49481
  20
198.2654
  0
VERTEX
  5
20c
  8
Layer_2
  10
-137.01385
  20
198.26413
  0
SEQEND
  0
POLYLINE
  5
20e
  8
Layer_2
  62
1
  66
1
  10
0
  20
0
  30
0
  0
VERTEX
  5
20e
  8
Layer_2
  10
-102.96696
  20
167.51022
  0
VERTEX
  5
20f
  8
Layer_2
  10
-99.045731
  20
167.1386
  0
SEQEND
  0
POLYLINE
  5
211
  8
Layer_2
  62
1
  66
1
  10
0
  20
0
  30
0
  0
VERTEX
  5
211
  8
Layer_2
  10
-71.694199
  20
188.99211
  0
VERTEX
  5
212
  8
Layer_2
  10
-68.30439
  20
188.8344
  0
SEQEND
  0
POLYLINE
  5
214
  8
Layer_2
  62
1
  66
1
  10
0
  20
0
  30
0
  0
VERTEX
  5
214
  8
Layer_2
  10
-117.88478
  20
198.25871
  0
VERTEX
  5
215
  8
Layer_2
  10
-112.52279
  20
198.2572
  0
SEQEND
  0
POLYLINE
  5
217
  8
Layer_2
  62
1
  66
1
  10
0
  20
0
  30
0
  0
VERTEX
  5
217
  8
Layer_2
  10
-65.935921
  20
188.54073
  0
VERTEX
  5
218
  8
Layer_2
  10
-60.97345
  20
188.05563
  0
SEQEND
  0
POLYLINE
  5
21a
  8
Layer_2
  62
1
  66
1
  10
0
  20
0
  30
0
  0
VERTEX
  5
21a
  8
Layer_2
  10
-42.9104
  20
187.46637
  0
VERTEX
  5
21b
  8
Layer_2
  10
-38.240692
  20
187.46506
  0
SEQEND
  0
POLYLINE
  5
21d
  8
Layer_2
  62
1
  66
1
  10
0
  20
0
  30
0
  0
VERTEX
  5
21d
  8
Layer_2
  10
-27.393478
  20
187.44569
  0
VERTEX
  5
21e
  8
Layer_2
  10
-22.404572
  20
187.44429
  0
SEQEND
  0
POLYLINE
  5
220
  8
Layer_2
  62
1
  66
1
  10
0
  20
0
  30
0
  0
VERTEX
  5
220
  8
Layer_2
  10
-13.03952
  20
208.85358
  0
VERTEX
  5
221
  8
Layer_2
  10
-7.9094849
  20
208.85211
  0
SEQEND
  0
POLYLINE
  5
223
  8
Layer_2
  62
1
  66
1
  10
0
  20
0
  30
0
  0
VERTEX
  5
223
  8
Layer_2
  10
-159.1311
  20
198.35748
  0
VERTEX
  5
224
  8
Layer_2
  10
-155.98228
  20
198.35658
  0
SEQEND
  0
POLYLINE
  5
226
  8
Layer_2
  62
1
  66
1
  10
0
  20
0
  30
0
  0
VERTEX
  5
226
  8
Layer_2
  10
-28.159607
  20
208.81744
  0
VERTEX
  5
227
  8
Layer_2
  10
-23.596863
  20
208.81615
  0
SEQEND
  0
POLYLINE
  5
229
  8
Layer_2
  62
1
  66
1
  10
0
  20
0
  30
0
  0
VERTEX
  5
229
  8
Layer_2
  10
18.016937
  20
187.39243
  0
VERTEX
  5
22a
  8
Layer_2
  10
22.579666
  20
187.39114
  0
SEQEND
  0
POLYLINE
  5
22c
  8
Layer_2
  62
1
  66
1
  10
0
  20
0
  30
0
  0
VERTEX
  5
22c
  8
Layer_2
  10
-92.999626
  20
190.96425
  0
VERTEX
  5
22d
  8
Layer_2
  10
-87.57476
  20
190.47534
  0
SEQEND
  0
POLYLINE
  5
22f
  8
Layer_2
  62
1
  66
1
  10
0
  20
0
  30
0
  0
VERTEX
  5
22f
  8
Layer_2
  10
-59.099281
  20
187.95845
  0
VERTEX
  5
230
  8
Layer_2
  10
-54.289597
  20
187.53297
  0
SEQEND
  0
POLYLINE
  5
232
  8
Layer_2
  62
1
  66
1
  10
0
  20
0
  30
0
  0
VERTEX
  5
232
  8
Layer_2
  10
-159.13078
  20
190.6647
  0
VERTEX
  5
233
  8
Layer_2
  10
-155.98196
  20
190.66382
  0
SEQEND
  0
POLYLINE
  5
235
  8
Layer_2
  62
1
  66
1
  10
0
  20
0
  30
0
  0
VERTEX
  5
235
  8
Layer_2
  10
-19.343201
  20
187.44342
  0
VERTEX
  5
236
  8
Layer_2
  10
-14.213165
  20
187.44197
  0
SEQEND
  0
POLYLINE
  5
238
  8
Layer_2
  62
1
  70
1
  66
1
  10
0
  20
0
  30
0
  0
VERTEX
  5
238
  8
Layer_2
  10
38.632401
  20
169.19199
  0
VERTEX
  5
239
  8
Layer_2
  10
110.32082
  20
169.19199
  0
VERTEX
  5
23a
  8
Layer_2
  10
110.32082
  20
119.89511
  0
VERTEX
  5
23b
  8
Layer_2
  10
38.632401
  20
119.89511
  0
SEQEND
  0
POLYLINE
  5
23d
  8
Layer_2
  62
1
  66
1
  10
0
  20
0
  30
0
  0
VERTEX
  5
23d
  8
Layer_2
  10
50.38736
  20
167.52284
  0
VERTEX
  5
23e
  8
Layer_2
  10
50.38736
  20
161.28882
  0
SEQEND
  0
POLYLINE
  5
240
  8
Layer_2
  62
1
  66
1
  10
0
  20
0
  30
0
  0
VERTEX
  5
240
  8
Layer_2
  10
50.44519
  20
157.16751
  0
VERTEX
  5
241
  8
Layer_2
  10
50.44519
  20
152.94608
  0
SEQEND
  0
POLYLINE
  5
243
  8
Layer_2
  62
1
  66
1
  10
0
  20
0
  30
0
  0
VERTEX
  5
243
  8
Layer_2
  10
50.38736
  20
150.72916
  0
VERTEX
  5
244
  8
Layer_2
  10
50.38736
  20
144.49515
  0
SEQEND
  0
POLYLINE
  5
246
  8
Layer_2
  62
1
  66
1
  10
0
  20
0
  30
0
  0
VERTEX
  5
246
  8
Layer_2
  10
50.44519
  20
140.37384
  0
VERTEX
  5
247
  8
Layer_2
  10
50.44519
  20
136.1524
  0
SEQEND
  0
POLYLINE
  5
249
  8
Layer_2
  62
1
  66
1
  10
0
  20
0
  30
0
  0
VERTEX
  5
249
  8
Layer_2
  10
50.38736
  20
133.26239
  0
VERTEX
  5
24a
  8
Layer_2
  10
50.38736
  20
127.02837
  0
SEQEND
  0
POLYLINE
  5
24c
  8
Layer_2
  62
1
  66
1
  10
0
  20
0
  30
0
  0
VERTEX
  5
24c
  8
Layer_2
  10
50.44519
  20
125.05374
  0
VERTEX
  5
24d
  8
Layer_2
  10
50.44519
  20
120.83231
  0
SEQEND
  0
POLYLINE
  5
24f
  8
Layer_2
  62
1
  66
1
  10
0
  20
0
  30
0
  0
VERTEX
  5
24f
  8
Layer_2
  10
66.189255
  20
157.16751
  0
VERTEX
  5
250
  8
Layer_2
  10
66.189255
  20
152.94608
  0
SEQEND
  0
POLYLINE
  5
252
  8
Layer_2
  62
1
  66
1
  10
0
  20
0
  30
0
  0
VERTEX
  5
252
  8
Layer_2
  10
66.189255
  20
140.37384
  0
VERTEX
  5
253
  8
Layer_2
  10
66.189255
  20
136.1524
  0
SEQEND
  0
POLYLINE
  5
255
  8
Layer_2
  62
1
  66
1
  10
0
  20
0
  30
0
  0
VERTEX
  5
255
  8
Layer_2
  10
66.131424
  20
167.52284
  0
VERTEX
  5
256
  8
Layer_2
  10
66.131424
  20
161.28882
  0
SEQEND
  0
POLYLINE
  5
258
  8
Layer_2
  62
1
  66
1
  10
0
  20
0
  30
0
  0
VERTEX
  5
258
  8
Layer_2
  10
66.189255
  20
125.05374
  0
VERTEX
  5
259
  8
Layer_2
  10
66.189255
  20
120.83231
  0
SEQEND
  0
POLYLINE
  5
25b
  8
Layer_2
  62
1
  66
1
  10
0
  20
0
  30
0
  0
VERTEX
  5
25b
  8
Layer_2
  10
66.131424
  20
150.72916
  0
VERTEX
  5
25c
  8
Layer_2
  10
66.131424
  20
144.49515
  0
SEQEND
  0
POLYLINE
  5
25e
  8
Layer_2
  62
1
  66
1
  10
0
  20
0
  30
0
  0
VERTEX
  5
25e
  8
Layer_2
  10
66.131424
  20
133.26239
  0
VERTEX
  5
25f
  8
Layer_2
  10
66.131424
  20
127.02837
  0
SEQEND
  0
POLYLINE
  5
261
  8
Layer_2
  62
1
  66
1
  10
0
  20
0
  30
0
  0
VERTEX
  5
261
  8
Layer_2
  10
98.727005
  20
140.37384
  0
VERTEX
  5
262
  8
Layer_2
  10
98.727005
  20
136.1524
  0
SEQEND
  0
POLYLINE
  5
264
  8
Layer_2
  62
1
  66
1
  10
0
  20
0
  30
0
  0
VERTEX
  5
264
  8
Layer_2
  10
98.727005
  20
125.05374
  0
VERTEX
  5
265
  8
Layer_2
  10
98.727005
  20
120.83231
  0
SEQEND
  0
POLYLINE
  5
267
  8
Layer_2
  62
1
  66
1
  10
0
  20
0
  30
0
  0
VERTEX
  5
267
  8
Layer_2
  10
82.92511
  20
133.26239
  0
VERTEX
  5
268
  8
Layer_2
  10
82.92511
  20
127.02837
  0
SEQEND
  0
POLYLINE
  5
26a
  8
Layer_2
  62
1
  66
1
  10
0
  20
0
  30
0
  0
VERTEX
  5
26a
  8
Layer_2
  10
82.982925
  20
157.16751
  0
VERTEX
  5
26b
  8
Layer_2
  10
82.982925
  20
152.94608
  0
SEQEND
  0
POLYLINE
  5
26d
  8
Layer_2
  62
1
  66
1
  10
0
  20
0
  30
0
  0
VERTEX
  5
26d
  8
Layer_2
  10
98.727005
  20
157.16751
  0
VERTEX
  5
26e
  8
Layer_2
  10
98.727005
  20
152.94608
  0
SEQEND
  0
POLYLINE
  5
270
  8
Layer_2
  62
1
  66
1
  10
0
  20
0
  30
0
  0
VERTEX
  5
270
  8
Layer_2
  10
98.669174
  20
150.72916
  0
VERTEX
  5
271
  8
Layer_2
  10
98.669174
  20
144.49515
  0
SEQEND
  0
POLYLINE
  5
273
  8
Layer_2
  62
1
  66
1
  10
0
  20
0
  30
0
  0
VERTEX
  5
273
  8
Layer_2
  10
98.669174
  20
167.52284
  0
VERTEX
  5
274
  8
Layer_2
  10
98.669174
  20
161.28882
  0
SEQEND
  0
POLYLINE
  5
276
  8
Layer_2
  62
1
  66
1
  10
0
  20
0
  30
0
  0
VERTEX
  5
276
  8
Layer_2
  10
98.669174
  20
133.26239
  0
VERTEX
  5
277
  8
Layer_2
  10
98.669174
  20
127.02837
  0
SEQEND
  0
POLYLINE
  5
279
  8
Layer_2
  62
1
  66
1
  10
0
  20
0
  30
0
  0
VERTEX
  5
279
  8
Layer_2
  10
82.92511
  20
150.72916
  0
VERTEX
  5
27a
  8
Layer_2
  10
82.92511
  20
144.49515
  0
SEQEND
  0
POLYLINE
  5
27c
  8
Layer_2
  62
1
  66
1
  10
0
  20
0
  30
0
  0
VERTEX
  5
27c
  8
Layer_2
  10
82.92511
  20
167.52284
  0
VERTEX
  5
27d
  8
Layer_2
  10
82.92511
  20
161.28882
  0
SEQEND
  0
POLYLINE
  5
27f
  8
Layer_2
  62
1
  66
1
  10
0
  20
0
  30
0
  0
VERTEX
  5
27f
  8
Layer_2
  10
82.982925
  20
125.05374
  0
VERTEX
  5
280
  8
Layer_2
  10
82.982925
  20
120.83231
  0
SEQEND
  0
POLYLINE
  5
282
  8
Layer_2
  62
1
  66
1
  10
0
  20
0
  30
0
  0
VERTEX
  5
282
  8
Layer_2
  10
82.982925
  20
140.37384
  0
VERTEX
  5
283
  8
Layer_2
  10
82.982925
  20
136.1524
  0
SEQEND
  0
POLYLINE
  5
285
  8
Layer_2
  62
1
  70
1
  66
1
  10
0
  20
0
  30
0
  0
VERTEX
  5
285
  8
Layer_2
  10
-177.99771
  20
323.22589
  0
VERTEX
  5
286
  8
Layer_2
  10
113.99779
  20
323.22589
  0
VERTEX
  5
287
  8
Layer_2
  10
113.99779
  20
116.77408
  0
VERTEX
  5
288
  8
Layer_2
  10
-177.99771
  20
116.77408
  0
SEQEND
  0
POLYLINE
  5
28a
  8
Layer_2
  62
1
  66
1
  10
0
  20
0
  30
0
  0
VERTEX
  5
28a
  8
Layer_2
  10
158.26247
  20
666.92053
  0
VERTEX
  5
28b
  8
Layer_2
  10
138.88831
  20
666.92053
  0
VERTEX
  5
28c
  8
Layer_2
  10
128.29886
  20
666.96393
  42
-0.41139752
  0
VERTEX
  5
28d
  8
Layer_2
  10
123.81738
  20
671.43909
  0
VERTEX
  5
28e
  8
Layer_2
  10
123.75064
  20
683.52954
  42
-0.19966437
  0
VERTEX
  5
28f
  8
Layer_2
  10
123.89614
  20
683.88489
  42
-0.19969618
  0
VERTEX
  5
290
  8
Layer_2
  10
124.25073
  20
684.03229
  0
VERTEX
  5
291
  8
Layer_2
  10
134.63478
  20
684.03027
  0
VERTEX
  5
292
  8
Layer_2
  10
134.63657
  20
693.42944
  42
0.20008598
  0
VERTEX
  5
293
  8
Layer_2
  10
133.7487
  20
695.56042
  42
0.20008793
  0
VERTEX
  5
294
  8
Layer_2
  10
131.61005
  20
696.42987
  0
VERTEX
  5
295
  8
Layer_2
  10
131.50003
  20
696.42889
  42
0.41060449
  0
VERTEX
  5
296
  8
Layer_2
  10
128.52658
  20
693.43951
  0
VERTEX
  5
297
  8
Layer_2
  10
128.51608
  20
690.43762
  42
-0.19898469
  0
VERTEX
  5
298
  8
Layer_2
  10
128.36832
  20
690.08447
  42
-0.1989511
  0
VERTEX
  5
299
  8
Layer_2
  10
128.01408
  20
689.93933
  0
VERTEX
  5
29a
  8
Layer_2
  10
124.27733
  20
689.95435
  42
-0.19917812
  0
VERTEX
  5
29b
  8
Layer_2
  10
123.92398
  20
690.1026
  42
-0.19918769
  0
VERTEX
  5
29c
  8
Layer_2
  10
123.77935
  20
690.45746
  0
VERTEX
  5
29d
  8
Layer_2
  10
123.77876
  20
690.36407
  0
VERTEX
  5
29e
  8
Layer_2
  10
123.74349
  20
712.0708
  42
-0.19987501
  0
VERTEX
  5
29f
  8
Layer_2
  10
125.15643
  20
715.47974
  42
-0.19987292
  0
VERTEX
  5
2a0
  8
Layer_2
  10
128.57123
  20
716.87854
  0
VERTEX
  5
2a1
  8
Layer_2
  10
128.84355
  20
716.87695
  0
VERTEX
  5
2a2
  8
Layer_2
  10
166.18367
  20
716.80774
  0
VERTEX
  5
2a3
  8
Layer_2
  10
203.52368
  20
716.6947
  0
VERTEX
  5
2a4
  8
Layer_2
  10
203.79601
  20
716.69495
  42
-0.19987811
  0
VERTEX
  5
2a5
  8
Layer_2
  10
207.20395
  20
715.27954
  42
-0.19987806
  0
VERTEX
  5
2a6
  8
Layer_2
  10
208.60022
  20
711.86377
  0
VERTEX
  5
2a7
  8
Layer_2
  10
208.45901
  20
690.15747
  0
VERTEX
  5
2a8
  8
Layer_2
  10
208.45889
  20
690.25085
  42
-0.19922409
  0
VERTEX
  5
2a9
  8
Layer_2
  10
208.31253
  20
689.89673
  42
-0.19922517
  0
VERTEX
  5
2aa
  8
Layer_2
  10
207.95847
  20
689.75012
  0
VERTEX
  5
2ab
  8
Layer_2
  10
204.22168
  20
689.75342
  42
-0.19895858
  0
VERTEX
  5
2ac
  8
Layer_2
  10
203.86816
  20
689.90027
  42
-0.19898571
  0
VERTEX
  5
2ad
  8
Layer_2
  10
203.72211
  20
690.25409
  0
VERTEX
  5
2ae
  8
Layer_2
  10
203.72627
  20
693.25598
  42
0.41060169
  0
VERTEX
  5
2af
  8
Layer_2
  10
200.76743
  20
696.25989
  0
VERTEX
  5
2b0
  8
Layer_2
  10
200.65742
  20
696.26135
  42
0.20009895
  0
VERTEX
  5
2b1
  8
Layer_2
  10
198.51456
  20
695.40247
  42
0.20008497
  0
VERTEX
  5
2b2
  8
Layer_2
  10
197.6163
  20
693.27576
  0
VERTEX
  5
2b3
  8
Layer_2
  10
197.57222
  20
683.87671
  0
VERTEX
  5
2b4
  8
Layer_2
  10
207.95616
  20
683.828
  42
-0.19965176
  0
VERTEX
  5
2b5
  8
Layer_2
  10
208.31003
  20
683.67889
  42
-0.19967512
  0
VERTEX
  5
2b6
  8
Layer_2
  10
208.4538
  20
683.32288
  0
VERTEX
  5
2b7
  8
Layer_2
  10
208.32805
  20
671.23285
  42
-0.41139726
  0
VERTEX
  5
2b8
  8
Layer_2
  10
203.82477
  20
666.77966
  0
VERTEX
  5
2b9
  8
Layer_2
  10
193.23524
  20
666.7879
  0
VERTEX
  5
2ba
  8
Layer_2
  10
173.87148
  20
666.7879
  0
SEQEND
  0
POLYLINE
  5
2bc
  8
Layer_2
  62
1
  66
1
  10
0
  20
0
  30
0
  0
VERTEX
  5
2bc
  8
Layer_2
  10
193.23524
  20
666.7879
  0
VERTEX
  5
2bd
  8
Layer_2
  10
193.09857
  20
649.17908
  0
VERTEX
  5
2be
  8
Layer_2
  10
173.78554
  20
649.17908
  0
SEQEND
  0
POLYLINE
  5
2c0
  8
Layer_2
  62
1
  66
1
  10
0
  20
0
  30
0
  0
VERTEX
  5
2c0
  8
Layer_2
  10
193.09857
  20
649.17908
  0
VERTEX
  5
2c1
  8
Layer_2
  10
219.96494
  20
648.93402
  42
-0.4134468
  0
VERTEX
  5
2c2
  8
Layer_2
  10
224.91922
  20
643.90167
  0
VERTEX
  5
2c3
  8
Layer_2
  10
224.85916
  20
634.67108
  42
-0.40872955
  0
VERTEX
  5
2c4
  8
Layer_2
  10
221.896
  20
631.6908
  0
VERTEX
  5
2c5
  8
Layer_2
  10
214.01552
  20
631.59424
  0
VERTEX
  5
2c6
  8
Layer_2
  10
213.83711
  20
622.66479
  0
VERTEX
  5
2c7
  8
Layer_2
  10
213.83026
  20
622.32214
  42
0.20129259
  0
VERTEX
  5
2c8
  8
Layer_2
  10
214.68552
  20
620.16394
  42
0.20129409
  0
VERTEX
  5
2c9
  8
Layer_2
  10
216.82468
  20
619.26221
  0
VERTEX
  5
2ca
  8
Layer_2
  10
217.11243
  20
619.26172
  42
0.41364507
  0
VERTEX
  5
2cb
  8
Layer_2
  10
220.13406
  20
622.23401
  0
VERTEX
  5
2cc
  8
Layer_2
  10
220.16492
  20
625.5885
  0
VERTEX
  5
2cd
  8
Layer_2
  10
224.77318
  20
625.58081
  0
VERTEX
  5
2ce
  8
Layer_2
  10
224.73727
  20
604.1131
  42
-0.19929383
  0
VERTEX
  5
2cf
  8
Layer_2
  10
223.26166
  20
600.57483
  42
-0.19929338
  0
VERTEX
  5
2d0
  8
Layer_2
  10
219.71417
  20
599.12146
  0
VERTEX
  5
2d1
  8
Layer_2
  10
165.89711
  20
599.37024
  0
VERTEX
  5
2d2
  8
Layer_2
  10
112.07948
  20
599.38416
  42
-0.19929408
  0
VERTEX
  5
2d3
  8
Layer_2
  10
108.53912
  20
600.85474
  42
-0.19929547
  0
VERTEX
  5
2d4
  8
Layer_2
  10
107.0808
  20
604.40015
  0
VERTEX
  5
2d5
  8
Layer_2
  10
107.14966
  20
625.8678
  0
VERTEX
  5
2d6
  8
Layer_2
  10
111.75789
  20
625.85303
  0
VERTEX
  5
2d7
  8
Layer_2
  10
111.77238
  20
622.49841
  42
0.41364492
  0
VERTEX
  5
2d8
  8
Layer_2
  10
114.77949
  20
619.51141
  0
VERTEX
  5
2d9
  8
Layer_2
  10
115.06724
  20
619.5105
  42
0.20129704
  0
VERTEX
  5
2da
  8
Layer_2
  10
117.21077
  20
620.40179
  42
0.20129367
  0
VERTEX
  5
2db
  8
Layer_2
  10
118.07654
  20
622.55579
  0
VERTEX
  5
2dc
  8
Layer_2
  10
118.07137
  20
622.89844
  0
VERTEX
  5
2dd
  8
Layer_2
  10
117.93654
  20
631.82867
  0
VERTEX
  5
2de
  8
Layer_2
  10
110.05662
  20
631.96375
  42
-0.40872889
  0
VERTEX
  5
2df
  8
Layer_2
  10
107.10803
  20
634.95837
  0
VERTEX
  5
2e0
  8
Layer_2
  10
107.09303
  20
644.18921
  42
-0.41344784
  0
VERTEX
  5
2e1
  8
Layer_2
  10
112.07182
  20
649.19727
  0
VERTEX
  5
2e2
  8
Layer_2
  10
138.93904
  20
649.31122
  0
VERTEX
  5
2e3
  8
Layer_2
  10
158.26489
  20
649.31122
  0
SEQEND
  0
POLYLINE
  5
2e5
  8
Layer_2
  62
1
  66
1
  10
0
  20
0
  30
0
  0
VERTEX
  5
2e5
  8
Layer_2
  10
224.75612
  20
615.3324
  0
VERTEX
  5
2e6
  8
Layer_2
  10
224.77318
  20
625.53168
  0
SEQEND
  0
POLYLINE
  5
2e8
  8
Layer_2
  62
1
  66
1
  10
0
  20
0
  30
0
  0
VERTEX
  5
2e8
  8
Layer_2
  10
107.1167
  20
615.61951
  0
VERTEX
  5
2e9
  8
Layer_2
  10
107.14941
  20
625.81873
  0
SEQEND
  0
POLYLINE
  5
2eb
  8
Layer_2
  62
1
  66
1
  10
0
  20
0
  30
0
  0
VERTEX
  5
2eb
  8
Layer_2
  10
138.88831
  20
666.92053
  0
VERTEX
  5
2ec
  8
Layer_2
  10
138.93904
  20
649.31122
  0
SEQEND
  0
POLYLINE
  5
2ee
  8
Layer_2
  62
1
  66
1
  10
0
  20
0
  30
0
  0
VERTEX
  5
2ee
  8
Layer_2
  10
145.88249
  20
714.61389
  0
VERTEX
  5
2ef
  8
Layer_2
  10
145.88249
  20
710.78058
  0
SEQEND
  0
POLYLINE
  5
2f1
  8
Layer_2
  62
1
  66
1
  10
0
  20
0
  30
0
  0
VERTEX
  5
2f1
  8
Layer_2
  10
145.78963
  20
704.05005
  0
VERTEX
  5
2f2
  8
Layer_2
  10
145.78963
  20
700.10132
  0
SEQEND
  0
POLYLINE
  5
2f4
  8
Layer_2
  62
1
  66
1
  10
0
  20
0
  30
0
  0
VERTEX
  5
2f4
  8
Layer_2
  10
145.81668
  20
693.45636
  0
VERTEX
  5
2f5
  8
Layer_2
  10
145.81668
  20
689.2962
  0
SEQEND
  0
POLYLINE
  5
2f7
  8
Layer_2
  62
1
  66
1
  10
0
  20
0
  30
0
  0
VERTEX
  5
2f7
  8
Layer_2
  10
145.56561
  20
682.95178
  0
VERTEX
  5
2f8
  8
Layer_2
  10
145.56561
  20
679.10132
  0
SEQEND
  0
POLYLINE
  5
2fa
  8
Layer_2
  62
1
  66
1
  10
0
  20
0
  30
0
  0
VERTEX
  5
2fa
  8
Layer_2
  10
145.36729
  20
672.37299
  0
VERTEX
  5
2fb
  8
Layer_2
  10
145.36729
  20
668.60132
  0
SEQEND
  0
POLYLINE
  5
2fd
  8
Layer_2
  62
1
  66
1
  10
0
  20
0
  30
0
  0
VERTEX
  5
2fd
  8
Layer_2
  10
158.25185
  20
659.99731
  0
VERTEX
  5
2fe
  8
Layer_2
  10
158.25185
  20
655.37823
  0
SEQEND
  0
POLYLINE
  5
300
  8
Layer_2
  62
1
  66
1
  10
0
  20
0
  30
0
  0
VERTEX
  5
300
  8
Layer_2
  10
127.91794
  20
642.10419
  0
VERTEX
  5
301
  8
Layer_2
  10
127.86784
  20
637.56549
  0
SEQEND
  0
POLYLINE
  5
303
  8
Layer_2
  62
1
  66
1
  10
0
  20
0
  30
0
  0
VERTEX
  5
303
  8
Layer_2
  10
127.91895
  20
631.58563
  0
VERTEX
  5
304
  8
Layer_2
  10
127.91895
  20
626.86469
  0
SEQEND
  0
POLYLINE
  5
306
  8
Layer_2
  62
1
  66
1
  10
0
  20
0
  30
0
  0
VERTEX
  5
306
  8
Layer_2
  10
127.88364
  20
621.1499
  0
VERTEX
  5
307
  8
Layer_2
  10
127.88364
  20
616.10132
  0
SEQEND
  0
POLYLINE
  5
309
  8
Layer_2
  62
1
  66
1
  10
0
  20
0
  30
0
  0
VERTEX
  5
309
  8
Layer_2
  10
127.91887
  20
610.30005
  0
VERTEX
  5
30a
  8
Layer_2
  10
127.85201
  20
605.5791
  0
SEQEND
  0
POLYLINE
  5
30c
  8
Layer_2
  62
1
  66
1
  10
0
  20
0
  30
0
  0
VERTEX
  5
30c
  8
Layer_2
  10
140.91794
  20
642.10419
  0
VERTEX
  5
30d
  8
Layer_2
  10
140.86784
  20
637.56549
  0
SEQEND
  0
POLYLINE
  5
30f
  8
Layer_2
  62
1
  66
1
  10
0
  20
0
  30
0
  0
VERTEX
  5
30f
  8
Layer_2
  10
140.91895
  20
631.58563
  0
VERTEX
  5
310
  8
Layer_2
  10
140.91895
  20
626.86469
  0
SEQEND
  0
POLYLINE
  5
312
  8
Layer_2
  62
1
  66
1
  10
0
  20
0
  30
0
  0
VERTEX
  5
312
  8
Layer_2
  10
140.91887
  20
610.30005
  0
VERTEX
  5
313
  8
Layer_2
  10
140.85201
  20
605.5791
  0
SEQEND
  0
POLYLINE
  5
315
  8
Layer_2
  62
1
  66
1
  10
0
  20
0
  30
0
  0
VERTEX
  5
315
  8
Layer_2
  10
140.88364
  20
621.1499
  0
VERTEX
  5
316
  8
Layer_2
  10
140.88364
  20
616.10132
  0
SEQEND
  0
POLYLINE
  5
318
  8
Layer_2
  62
1
  66
1
  10
0
  20
0
  30
0
  0
VERTEX
  5
318
  8
Layer_2
  10
157.91895
  20
631.58563
  0
VERTEX
  5
319
  8
Layer_2
  10
157.91895
  20
626.86469
  0
SEQEND
  0
POLYLINE
  5
31b
  8
Layer_2
  62
1
  66
1
  10
0
  20
0
  30
0
  0
VERTEX
  5
31b
  8
Layer_2
  10
157.91794
  20
642.10419
  0
VERTEX
  5
31c
  8
Layer_2
  10
157.86784
  20
637.56549
  0
SEQEND
  0
POLYLINE
  5
31e
  8
Layer_2
  62
1
  66
1
  10
0
  20
0
  30
0
  0
VERTEX
  5
31e
  8
Layer_2
  10
157.88364
  20
621.1499
  0
VERTEX
  5
31f
  8
Layer_2
  10
157.88364
  20
616.10132
  0
SEQEND
  0
POLYLINE
  5
321
  8
Layer_2
  62
1
  66
1
  10
0
  20
0
  30
0
  0
VERTEX
  5
321
  8
Layer_2
  10
157.91887
  20
610.30005
  0
VERTEX
  5
322
  8
Layer_2
  10
157.85201
  20
605.5791
  0
SEQEND
  0
POLYLINE
  5
324
  8
Layer_2
  62
1
  66
1
  10
0
  20
0
  30
0
  0
VERTEX
  5
324
  8
Layer_2
  10
191.01657
  20
621.02759
  0
VERTEX
  5
325
  8
Layer_2
  10
190.99194
  20
615.979
  0
SEQEND
  0
POLYLINE
  5
327
  8
Layer_2
  62
1
  66
1
  10
0
  20
0
  30
0
  0
VERTEX
  5
327
  8
Layer_2
  10
174.01678
  20
621.11053
  0
VERTEX
  5
328
  8
Layer_2
  10
173.99213
  20
616.06201
  0
SEQEND
  0
POLYLINE
  5
32a
  8
Layer_2
  62
1
  66
1
  10
0
  20
0
  30
0
  0
VERTEX
  5
32a
  8
Layer_2
  10
204.01642
  20
620.96411
  0
VERTEX
  5
32b
  8
Layer_2
  10
203.99178
  20
615.91559
  0
SEQEND
  0
POLYLINE
  5
32d
  8
Layer_2
  62
1
  66
1
  10
0
  20
0
  30
0
  0
VERTEX
  5
32d
  8
Layer_2
  10
190.92839
  20
610.17798
  0
VERTEX
  5
32e
  8
Layer_2
  10
190.97221
  20
605.45679
  0
SEQEND
  0
POLYLINE
  5
330
  8
Layer_2
  62
1
  66
1
  10
0
  20
0
  30
0
  0
VERTEX
  5
330
  8
Layer_2
  10
174.08475
  20
642.0647
  0
VERTEX
  5
331
  8
Layer_2
  10
174.11269
  20
637.52588
  0
SEQEND
  0
POLYLINE
  5
333
  8
Layer_2
  62
1
  66
1
  10
0
  20
0
  30
0
  0
VERTEX
  5
333
  8
Layer_2
  10
204.08438
  20
641.91833
  0
VERTEX
  5
334
  8
Layer_2
  10
204.11234
  20
637.37946
  0
SEQEND
  0
POLYLINE
  5
336
  8
Layer_2
  62
1
  66
1
  10
0
  20
0
  30
0
  0
VERTEX
  5
336
  8
Layer_2
  10
204.03204
  20
631.3999
  0
VERTEX
  5
337
  8
Layer_2
  10
204.009
  20
626.67902
  0
SEQEND
  0
POLYLINE
  5
339
  8
Layer_2
  62
1
  66
1
  10
0
  20
0
  30
0
  0
VERTEX
  5
339
  8
Layer_2
  10
174.03241
  20
631.54626
  0
VERTEX
  5
33a
  8
Layer_2
  10
174.00937
  20
626.82544
  0
SEQEND
  0
POLYLINE
  5
33c
  8
Layer_2
  62
1
  66
1
  10
0
  20
0
  30
0
  0
VERTEX
  5
33c
  8
Layer_2
  10
191.0322
  20
631.46332
  0
VERTEX
  5
33d
  8
Layer_2
  10
191.00916
  20
626.74243
  0
SEQEND
  0
POLYLINE
  5
33f
  8
Layer_2
  62
1
  66
1
  10
0
  20
0
  30
0
  0
VERTEX
  5
33f
  8
Layer_2
  10
191.08453
  20
641.98175
  0
VERTEX
  5
340
  8
Layer_2
  10
191.11249
  20
637.44287
  0
SEQEND
  0
POLYLINE
  5
342
  8
Layer_2
  62
1
  66
1
  10
0
  20
0
  30
0
  0
VERTEX
  5
342
  8
Layer_2
  10
173.92859
  20
610.26099
  0
VERTEX
  5
343
  8
Layer_2
  10
173.97241
  20
605.53979
  0
SEQEND
  0
POLYLINE
  5
345
  8
Layer_2
  62
1
  66
1
  10
0
  20
0
  30
0
  0
VERTEX
  5
345
  8
Layer_2
  10
203.92824
  20
610.11456
  0
VERTEX
  5
346
  8
Layer_2
  10
203.97206
  20
605.39337
  0
SEQEND
  0
POLYLINE
  5
348
  8
Layer_2
  62
1
  66
1
  10
0
  20
0
  30
0
  0
VERTEX
  5
348
  8
Layer_2
  10
173.83815
  20
659.95929
  0
VERTEX
  5
349
  8
Layer_2
  10
173.81561
  20
655.34027
  0
SEQEND
  0
POLYLINE
  5
34b
  8
Layer_2
  62
1
  66
1
  10
0
  20
0
  30
0
  0
VERTEX
  5
34b
  8
Layer_2
  10
186.63626
  20
682.85156
  0
VERTEX
  5
34c
  8
Layer_2
  10
186.61746
  20
679.0011
  0
SEQEND
  0
POLYLINE
  5
34e
  8
Layer_2
  62
1
  66
1
  10
0
  20
0
  30
0
  0
VERTEX
  5
34e
  8
Layer_2
  10
186.78294
  20
672.27197
  0
VERTEX
  5
34f
  8
Layer_2
  10
186.76454
  20
668.50024
  0
SEQEND
  0
POLYLINE
  5
351
  8
Layer_2
  62
1
  66
1
  10
0
  20
0
  30
0
  0
VERTEX
  5
351
  8
Layer_2
  10
186.43646
  20
693.35724
  0
VERTEX
  5
352
  8
Layer_2
  10
186.41615
  20
689.19714
  0
SEQEND
  0
POLYLINE
  5
354
  8
Layer_2
  62
1
  66
1
  10
0
  20
0
  30
0
  0
VERTEX
  5
354
  8
Layer_2
  10
186.51521
  20
703.95068
  0
VERTEX
  5
355
  8
Layer_2
  10
186.49594
  20
700.00195
  0
SEQEND
  0
POLYLINE
  5
357
  8
Layer_2
  62
1
  66
1
  10
0
  20
0
  30
0
  0
VERTEX
  5
357
  8
Layer_2
  10
186.47391
  20
714.51483
  0
VERTEX
  5
358
  8
Layer_2
  10
186.4552
  20
710.68158
  0
SEQEND
  0
POLYLINE
  5
35a
  8
Layer_2
  62
1
  66
1
  10
0
  20
0
  30
0
  0
VERTEX
  5
35a
  8
Layer_2
  10
-130.40579
  20
424.08716
  42
0.041275081
  0
VERTEX
  5
35b
  8
Layer_2
  10
-132.14153
  20
423.20105
  42
0.18184233
  0
VERTEX
  5
35c
  8
Layer_2
  10
-134.36438
  20
420.58862
  0
VERTEX
  5
35d
  8
Layer_2
  10
-134.38968
  20
420.51337
  0
VERTEX
  5
35e
  8
Layer_2
  10
-134.4054
  20
408.66315
  42
0.20023374
  0
VERTEX
  5
35f
  8
Layer_2
  10
-133.07535
  20
405.4632
  42
0.20023916
  0
VERTEX
  5
360
  8
Layer_2
  10
-129.86536
  20
404.15735
  0
VERTEX
  5
361
  8
Layer_2
  10
-119.79883
  20
404.24683
  0
VERTEX
  5
362
  8
Layer_2
  10
-119.74969
  20
398.72986
  42
0.4097516
  0
VERTEX
  5
363
  8
Layer_2
  10
-110.80757
  20
389.81003
  0
VERTEX
  5
364
  8
Layer_2
  10
-109.87471
  20
389.80408
  0
VERTEX
  5
365
  8
Layer_2
  10
-108.64854
  20
389.83038
  42
0.40744093
  0
VERTEX
  5
366
  8
Layer_2
  10
-99.897888
  20
398.86755
  0
VERTEX
  5
367
  8
Layer_2
  10
-99.923386
  20
404.50662
  0
VERTEX
  5
368
  8
Layer_2
  10
-86.028046
  20
404.56934
  0
VERTEX
  5
369
  8
Layer_2
  10
-85.920395
  20
394.98956
  0
VERTEX
  5
36a
  8
Layer_2
  10
-75.554443
  20
395.10605
  0
VERTEX
  5
36b
  8
Layer_2
  10
-75.455185
  20
389.36957
  42
0.20032056
  0
VERTEX
  5
36c
  8
Layer_2
  10
-72.674393
  20
383.01846
  42
0.20032172
  0
VERTEX
  5
36d
  8
Layer_2
  10
-66.203598
  20
380.52878
  0
VERTEX
  5
36e
  8
Layer_2
  10
-65.145706
  20
380.55853
  42
0.41421535
  0
VERTEX
  5
36f
  8
Layer_2
  10
-56.246197
  20
389.66367
  0
VERTEX
  5
370
  8
Layer_2
  10
-56.304134
  20
394.81442
  0
VERTEX
  5
371
  8
Layer_2
  10
-29.340714
  20
394.95541
  0
VERTEX
  5
372
  8
Layer_2
  10
-29.311066
  20
389.27454
  42
0.40898884
  0
VERTEX
  5
373
  8
Layer_2
  10
-20.424988
  20
380.32233
  0
VERTEX
  5
374
  8
Layer_2
  10
-19.105438
  20
380.30563
  0
VERTEX
  5
375
  8
Layer_2
  10
-19.563385
  20
380.30402
  42
0.19912244
  0
VERTEX
  5
376
  8
Layer_2
  10
-12.497322
  20
383.26419
  0
SEQEND
  0
POLYLINE
  5
378
  8
Layer_2
  62
1
  66
1
  10
0
  20
0
  30
0
  0
VERTEX
  5
378
  8
Layer_2
  10
-63.624569
  20
394.90054
  0
VERTEX
  5
379
  8
Layer_2
  10
-58.624569
  20
394.90054
  0
SEQEND
  0
POLYLINE
  5
37b
  8
Layer_2
  62
1
  66
1
  10
0
  20
0
  30
0
  0
VERTEX
  5
37b
  8
Layer_2
  10
-23.122879
  20
452.44357
  0
VERTEX
  5
37c
  8
Layer_2
  10
-28.122864
  20
452.43628
  0
SEQEND
  0
POLYLINE
  5
37e
  8
Layer_2
  62
1
  66
1
  10
0
  20
0
  30
0
  0
VERTEX
  5
37e
  8
Layer_2
  10
-63.122829
  20
452.38489
  0
VERTEX
  5
37f
  8
Layer_2
  10
-68.122818
  20
452.37753
  0
SEQEND
  0
POLYLINE
  5
381
  8
Layer_2
  62
1
  66
1
  10
0
  20
0
  30
0
  0
VERTEX
  5
381
  8
Layer_2
  10
-183.6972
  20
467.1022
  0
VERTEX
  5
382
  8
Layer_2
  10
-183.71449
  20
471.40524
  0
SEQEND
  0
POLYLINE
  5
384
  8
Layer_2
  62
1
  66
1
  10
0
  20
0
  30
0
  0
VERTEX
  5
384
  8
Layer_2
  10
-47.982494
  20
510.81732
  0
VERTEX
  5
385
  8
Layer_2
  10
-52.981731
  20
510.7301
  0
SEQEND
  0
POLYLINE
  5
387
  8
Layer_2
  62
1
  66
1
  10
0
  20
0
  30
0
  0
VERTEX
  5
387
  8
Layer_2
  10
-145.29758
  20
462.47363
  0
VERTEX
  5
388
  8
Layer_2
  10
-150.29758
  20
462.46631
  0
SEQEND
  0
POLYLINE
  5
38a
  8
Layer_2
  62
1
  66
1
  10
0
  20
0
  30
0
  0
VERTEX
  5
38a
  8
Layer_2
  10
-18.047379
  20
432.93796
  0
VERTEX
  5
38b
  8
Layer_2
  10
-23.047379
  20
432.9306
  0
SEQEND
  0
POLYLINE
  5
38d
  8
Layer_2
  62
1
  66
1
  10
0
  20
0
  30
0
  0
VERTEX
  5
38d
  8
Layer_2
  10
-115.29761
  20
462.5177
  0
VERTEX
  5
38e
  8
Layer_2
  10
-120.29761
  20
462.51038
  0
SEQEND
  0
POLYLINE
  5
390
  8
Layer_2
  62
1
  66
1
  10
0
  20
0
  30
0
  0
VERTEX
  5
390
  8
Layer_2
  10
-165.31238
  20
482.63107
  0
VERTEX
  5
391
  8
Layer_2
  10
-170.31238
  20
482.63107
  0
SEQEND
  0
POLYLINE
  5
393
  8
Layer_2
  62
1
  66
1
  10
0
  20
0
  30
0
  0
VERTEX
  5
393
  8
Layer_2
  10
-186.94212
  20
482.23251
  0
VERTEX
  5
394
  8
Layer_2
  10
-191.94211
  20
482.22372
  0
SEQEND
  0
POLYLINE
  5
396
  8
Layer_2
  62
1
  66
1
  10
0
  20
0
  30
0
  0
VERTEX
  5
396
  8
Layer_2
  10
-53.122829
  20
452.39954
  0
VERTEX
  5
397
  8
Layer_2
  10
-58.122829
  20
452.39221
  0
SEQEND
  0
POLYLINE
  5
399
  8
Layer_2
  62
1
  66
1
  10
0
  20
0
  30
0
  0
VERTEX
  5
399
  8
Layer_2
  10
-183.84058
  20
443.45184
  0
VERTEX
  5
39a
  8
Layer_2
  10
-179.80537
  20
443.45773
  0
SEQEND
  0
POLYLINE
  5
39c
  8
Layer_2
  62
1
  66
1
  10
0
  20
0
  30
0
  0
VERTEX
  5
39c
  8
Layer_2
  10
-38.034363
  20
510.50336
  0
VERTEX
  5
39d
  8
Layer_2
  10
-43.034363
  20
510.50336
  0
SEQEND
  0
POLYLINE
  5
39f
  8
Layer_2
  62
1
  66
1
  10
0
  20
0
  30
0
  0
VERTEX
  5
39f
  8
Layer_2
  10
-144.84804
  20
501.59619
  0
VERTEX
  5
3a0
  8
Layer_2
  10
-139.84804
  20
501.59619
  0
SEQEND
  0
POLYLINE
  5
3a2
  8
Layer_2
  62
1
  66
1
  10
0
  20
0
  30
0
  0
VERTEX
  5
3a2
  8
Layer_2
  10
-115.31238
  20
482.63107
  0
VERTEX
  5
3a3
  8
Layer_2
  10
-120.31238
  20
482.63107
  0
SEQEND
  0
POLYLINE
  5
3a5
  8
Layer_2
  62
1
  66
1
  10
0
  20
0
  30
0
  0
VERTEX
  5
3a5
  8
Layer_2
  10
-125.31238
  20
482.63107
  0
VERTEX
  5
3a6
  8
Layer_2
  10
-130.31238
  20
482.63107
  0
SEQEND
  0
POLYLINE
  5
3a8
  8
Layer_2
  62
1
  66
1
  10
0
  20
0
  30
0
  0
VERTEX
  5
3a8
  8
Layer_2
  10
-154.84804
  20
501.59625
  0
VERTEX
  5
3a9
  8
Layer_2
  10
-149.84804
  20
501.59625
  0
SEQEND
  0
POLYLINE
  5
3ab
  8
Layer_2
  62
1
  66
1
  10
0
  20
0
  30
0
  0
VERTEX
  5
3ab
  8
Layer_2
  10
-66.049362
  20
516.75903
  0
VERTEX
  5
3ac
  8
Layer_2
  10
-65.940186
  20
510.50452
  0
SEQEND
  0
POLYLINE
  5
3ae
  8
Layer_2
  62
1
  66
1
  10
0
  20
0
  30
0
  0
VERTEX
  5
3ae
  8
Layer_2
  10
-33.122864
  20
452.42892
  0
VERTEX
  5
3af
  8
Layer_2
  10
-38.122849
  20
452.42157
  0
SEQEND
  0
POLYLINE
  5
3b1
  8
Layer_2
  62
1
  66
1
  10
0
  20
0
  30
0
  0
VERTEX
  5
3b1
  8
Layer_2
  10
-8.0343628
  20
510.5032
  0
VERTEX
  5
3b2
  8
Layer_2
  10
-13.034363
  20
510.5033
  0
SEQEND
  0
POLYLINE
  5
3b4
  8
Layer_2
  62
1
  66
1
  10
0
  20
0
  30
0
  0
VERTEX
  5
3b4
  8
Layer_2
  10
-125.29759
  20
462.50299
  0
VERTEX
  5
3b5
  8
Layer_2
  10
-130.29759
  20
462.49567
  0
SEQEND
  0
POLYLINE
  5
3b7
  8
Layer_2
  62
1
  66
1
  10
0
  20
0
  30
0
  0
VERTEX
  5
3b7
  8
Layer_2
  10
-187.90674
  20
482.31915
  0
VERTEX
  5
3b8
  8
Layer_2
  10
-187.90739
  20
482.27731
  0
SEQEND
  0
POLYLINE
  5
3ba
  8
Layer_2
  62
1
  66
1
  10
0
  20
0
  30
0
  0
VERTEX
  5
3ba
  8
Layer_2
  10
-165.29755
  20
462.44424
  0
VERTEX
  5
3bb
  8
Layer_2
  10
-170.29755
  20
462.43695
  0
SEQEND
  0
POLYLINE
  5
3bd
  8
Layer_2
  62
1
  66
1
  10
0
  20
0
  30
0
  0
VERTEX
  5
3bd
  8
Layer_2
  10
-75.54422
  20
510.33685
  0
VERTEX
  5
3be
  8
Layer_2
  10
-56.336147
  20
510.67212
  0
SEQEND
  0
POLYLINE
  5
3c0
  8
Layer_2
  62
1
  66
1
  10
0
  20
0
  30
0
  0
VERTEX
  5
3c0
  8
Layer_2
  10
-101.33597
  20
443.41943
  0
VERTEX
  5
3c1
  8
Layer_2
  10
-120.36935
  20
443.49564
  0
SEQEND
  0
POLYLINE
  5
3c3
  8
Layer_2
  62
1
  66
1
  10
0
  20
0
  30
0
  0
VERTEX
  5
3c3
  8
Layer_2
  10
-68.624573
  20
394.90054
  0
VERTEX
  5
3c4
  8
Layer_2
  10
-73.624573
  20
394.90054
  0
SEQEND
  0
POLYLINE
  5
3c6
  8
Layer_2
  62
1
  66
1
  10
0
  20
0
  30
0
  0
VERTEX
  5
3c6
  8
Layer_2
  10
-68.152527
  20
492.84048
  0
VERTEX
  5
3c7
  8
Layer_2
  10
-63.152523
  20
492.84048
  0
SEQEND
  0
POLYLINE
  5
3c9
  8
Layer_2
  62
1
  66
1
  10
0
  20
0
  30
0
  0
VERTEX
  5
3c9
  8
Layer_2
  10
-105.31238
  20
482.63107
  0
VERTEX
  5
3ca
  8
Layer_2
  10
-110.31238
  20
482.63107
  0
SEQEND
  0
POLYLINE
  5
3cc
  8
Layer_2
  62
1
  66
1
  10
0
  20
0
  30
0
  0
VERTEX
  5
3cc
  8
Layer_2
  10
-94.345627
  20
443.16769
  0
VERTEX
  5
3cd
  8
Layer_2
  10
-89.860947
  20
443.12262
  0
SEQEND
  0
POLYLINE
  5
3cf
  8
Layer_2
  62
1
  66
1
  10
0
  20
0
  30
0
  0
VERTEX
  5
3cf
  8
Layer_2
  10
-75.948257
  20
432.8522
  0
VERTEX
  5
3d0
  8
Layer_2
  10
-78.948257
  20
432.84781
  0
SEQEND
  0
POLYLINE
  5
3d2
  8
Layer_2
  62
1
  66
1
  10
0
  20
0
  30
0
  0
VERTEX
  5
3d2
  8
Layer_2
  10
-183.88324
  20
501.59628
  0
VERTEX
  5
3d3
  8
Layer_2
  10
-179.84805
  20
501.59628
  0
SEQEND
  0
POLYLINE
  5
3d5
  8
Layer_2
  62
1
  66
1
  10
0
  20
0
  30
0
  0
VERTEX
  5
3d5
  8
Layer_2
  10
-23.152519
  20
492.84048
  0
VERTEX
  5
3d6
  8
Layer_2
  10
-28.152519
  20
492.84048
  0
SEQEND
  0
POLYLINE
  5
3d8
  8
Layer_2
  62
1
  66
1
  10
0
  20
0
  30
0
  0
VERTEX
  5
3d8
  8
Layer_2
  10
-145.31238
  20
482.63107
  0
VERTEX
  5
3d9
  8
Layer_2
  10
-150.31238
  20
482.63107
  0
SEQEND
  0
POLYLINE
  5
3db
  8
Layer_2
  62
1
  66
1
  10
0
  20
0
  30
0
  0
VERTEX
  5
3db
  8
Layer_2
  10
-135.31238
  20
482.63107
  0
VERTEX
  5
3dc
  8
Layer_2
  10
-140.31238
  20
482.63107
  0
SEQEND
  0
POLYLINE
  5
3de
  8
Layer_2
  62
1
  66
1
  10
0
  20
0
  30
0
  0
VERTEX
  5
3de
  8
Layer_2
  10
-112.71458
  20
521.74744
  0
VERTEX
  5
3df
  8
Layer_2
  10
-117.71458
  20
521.74744
  0
SEQEND
  0
POLYLINE
  5
3e1
  8
Layer_2
  62
1
  66
1
  10
0
  20
0
  30
0
  0
VERTEX
  5
3e1
  8
Layer_2
  10
-28.034363
  20
510.5033
  0
VERTEX
  5
3e2
  8
Layer_2
  10
-33.034363
  20
510.50336
  0
SEQEND
  0
POLYLINE
  5
3e4
  8
Layer_2
  62
1
  66
1
  10
0
  20
0
  30
0
  0
VERTEX
  5
3e4
  8
Layer_2
  10
-164.80539
  20
443.47986
  0
VERTEX
  5
3e5
  8
Layer_2
  10
-159.80539
  20
443.48718
  0
SEQEND
  0
POLYLINE
  5
3e7
  8
Layer_2
  62
1
  66
1
  10
0
  20
0
  30
0
  0
VERTEX
  5
3e7
  8
Layer_2
  10
-134.84804
  20
501.59619
  0
VERTEX
  5
3e8
  8
Layer_2
  10
-129.84804
  20
501.59619
  0
SEQEND
  0
POLYLINE
  5
3ea
  8
Layer_2
  62
1
  66
1
  10
0
  20
0
  30
0
  0
VERTEX
  5
3ea
  8
Layer_2
  10
-11.624573
  20
394.90054
  0
VERTEX
  5
3eb
  8
Layer_2
  10
-16.624573
  20
394.90054
  0
SEQEND
  0
POLYLINE
  5
3ed
  8
Layer_2
  62
1
  66
1
  10
0
  20
0
  30
0
  0
VERTEX
  5
3ed
  8
Layer_2
  10
-3.1525192
  20
492.84048
  0
VERTEX
  5
3ee
  8
Layer_2
  10
-8.1525192
  20
492.84048
  0
SEQEND
  0
POLYLINE
  5
3f0
  8
Layer_2
  62
1
  66
1
  10
0
  20
0
  30
0
  0
VERTEX
  5
3f0
  8
Layer_2
  10
-149.1291
  20
521.74744
  0
VERTEX
  5
3f1
  8
Layer_2
  10
-154.1291
  20
521.74744
  0
SEQEND
  0
POLYLINE
  5
3f3
  8
Layer_2
  62
1
  66
1
  10
0
  20
0
  30
0
  0
VERTEX
  5
3f3
  8
Layer_2
  10
-13.122879
  20
452.45831
  0
VERTEX
  5
3f4
  8
Layer_2
  10
-18.122879
  20
452.45093
  0
SEQEND
  0
POLYLINE
  5
3f6
  8
Layer_2
  62
1
  66
1
  10
0
  20
0
  30
0
  0
VERTEX
  5
3f6
  8
Layer_2
  10
-127.34804
  20
501.59619
  0
VERTEX
  5
3f7
  8
Layer_2
  10
-122.34805
  20
501.59619
  0
SEQEND
  0
POLYLINE
  5
3f9
  8
Layer_2
  62
1
  66
1
  10
0
  20
0
  30
0
  0
VERTEX
  5
3f9
  8
Layer_2
  10
6.8474808
  20
492.84048
  0
VERTEX
  5
3fa
  8
Layer_2
  10
3.8474808
  20
492.84048
  0
SEQEND
  0
POLYLINE
  5
3fc
  8
Layer_2
  62
1
  66
1
  10
0
  20
0
  30
0
  0
VERTEX
  5
3fc
  8
Layer_2
  10
-73.122818
  20
452.37024
  0
VERTEX
  5
3fd
  8
Layer_2
  10
-78.122818
  20
452.36282
  0
SEQEND
  0
POLYLINE
  5
3ff
  8
Layer_2
  62
1
  66
1
  10
0
  20
0
  30
0
  0
VERTEX
  5
3ff
  8
Layer_2
  10
-3.1228943
  20
452.47296
  0
VERTEX
  5
400
  8
Layer_2
  10
-8.1228943
  20
452.46564
  0
SEQEND
  0
POLYLINE
  5
402
  8
Layer_2
  62
1
  66
1
  10
0
  20
0
  30
0
  0
VERTEX
  5
402
  8
Layer_2
  10
-83.152527
  20
492.84048
  0
VERTEX
  5
403
  8
Layer_2
  10
-85.652527
  20
492.84048
  0
SEQEND
  0
POLYLINE
  5
405
  8
Layer_2
  62
1
  66
1
  10
0
  20
0
  30
0
  0
VERTEX
  5
405
  8
Layer_2
  10
-55.948284
  20
432.88159
  0
VERTEX
  5
406
  8
Layer_2
  10
-60.948284
  20
432.87424
  0
SEQEND
  0
POLYLINE
  5
408
  8
Layer_2
  62
1
  66
1
  10
0
  20
0
  30
0
  0
VERTEX
  5
408
  8
Layer_2
  10
-81.102249
  20
432.84464
  0
VERTEX
  5
409
  8
Layer_2
  10
-85.102249
  20
432.83878
  0
SEQEND
  0
POLYLINE
  5
40b
  8
Layer_2
  62
1
  66
1
  10
0
  20
0
  30
0
  0
VERTEX
  5
40b
  8
Layer_2
  10
-174.84804
  20
501.59628
  0
VERTEX
  5
40c
  8
Layer_2
  10
-169.84804
  20
501.59628
  0
SEQEND
  0
POLYLINE
  5
40e
  8
Layer_2
  62
1
  66
1
  10
0
  20
0
  30
0
  0
VERTEX
  5
40e
  8
Layer_2
  10
-81.032425
  20
510.24109
  0
VERTEX
  5
40f
  8
Layer_2
  10
-85.031815
  20
510.17123
  0
SEQEND
  0
POLYLINE
  5
411
  8
Layer_2
  62
1
  66
1
  10
0
  20
0
  30
0
  0
VERTEX
  5
411
  8
Layer_2
  10
-18.152519
  20
492.84048
  0
VERTEX
  5
412
  8
Layer_2
  10
-13.152519
  20
492.84048
  0
SEQEND
  0
POLYLINE
  5
414
  8
Layer_2
  62
1
  66
1
  10
0
  20
0
  30
0
  0
VERTEX
  5
414
  8
Layer_2
  10
-43.122849
  20
452.41425
  0
VERTEX
  5
415
  8
Layer_2
  10
-48.122845
  20
452.40692
  0
SEQEND
  0
POLYLINE
  5
417
  8
Layer_2
  62
1
  66
1
  10
0
  20
0
  30
0
  0
VERTEX
  5
417
  8
Layer_2
  10
-102.62457
  20
404.40054
  0
VERTEX
  5
418
  8
Layer_2
  10
-107.62457
  20
404.40054
  0
SEQEND
  0
POLYLINE
  5
41a
  8
Layer_2
  62
1
  66
1
  10
0
  20
0
  30
0
  0
VERTEX
  5
41a
  8
Layer_2
  10
-48.047344
  20
432.8938
  0
VERTEX
  5
41b
  8
Layer_2
  10
-53.047329
  20
432.88641
  0
SEQEND
  0
POLYLINE
  5
41d
  8
Layer_2
  62
1
  66
1
  10
0
  20
0
  30
0
  0
VERTEX
  5
41d
  8
Layer_2
  10
-196.94211
  20
482.21497
  0
VERTEX
  5
41e
  8
Layer_2
  10
-200.94211
  20
482.20789
  0
SEQEND
  0
POLYLINE
  5
420
  8
Layer_2
  62
1
  66
1
  10
0
  20
0
  30
0
  0
VERTEX
  5
420
  8
Layer_2
  10
0.98780823
  20
432.96597
  0
VERTEX
  5
421
  8
Layer_2
  10
-3.0473938
  20
432.96002
  0
SEQEND
  0
POLYLINE
  5
423
  8
Layer_2
  62
1
  66
1
  10
0
  20
0
  30
0
  0
VERTEX
  5
423
  8
Layer_2
  10
-110.12137
  20
508.00537
  0
VERTEX
  5
424
  8
Layer_2
  10
-110.12137
  20
501.74988
  0
SEQEND
  0
POLYLINE
  5
426
  8
Layer_2
  62
1
  66
1
  10
0
  20
0
  30
0
  0
VERTEX
  5
426
  8
Layer_2
  10
-33.152519
  20
492.84048
  0
VERTEX
  5
427
  8
Layer_2
  10
-38.152519
  20
492.84048
  0
SEQEND
  0
POLYLINE
  5
429
  8
Layer_2
  62
1
  66
1
  10
0
  20
0
  30
0
  0
VERTEX
  5
429
  8
Layer_2
  10
-169.09923
  20
433.57831
  0
VERTEX
  5
42a
  8
Layer_2
  10
-158.59944
  20
433.64581
  0
SEQEND
  0
POLYLINE
  5
42c
  8
Layer_2
  62
1
  66
1
  10
0
  20
0
  30
0
  0
VERTEX
  5
42c
  8
Layer_2
  10
-135.29759
  20
462.48834
  0
VERTEX
  5
42d
  8
Layer_2
  10
-140.29758
  20
462.48102
  0
SEQEND
  0
POLYLINE
  5
42f
  8
Layer_2
  62
1
  66
1
  10
0
  20
0
  30
0
  0
VERTEX
  5
42f
  8
Layer_2
  10
-38.047363
  20
432.90851
  0
VERTEX
  5
430
  8
Layer_2
  10
-43.047348
  20
432.90115
  0
SEQEND
  0
POLYLINE
  5
432
  8
Layer_2
  62
1
  66
1
  10
0
  20
0
  30
0
  0
VERTEX
  5
432
  8
Layer_2
  10
-105.29762
  20
462.53235
  0
VERTEX
  5
433
  8
Layer_2
  10
-110.29762
  20
462.52499
  0
SEQEND
  0
POLYLINE
  5
435
  8
Layer_2
  62
1
  66
1
  10
0
  20
0
  30
0
  0
VERTEX
  5
435
  8
Layer_2
  10
-164.84804
  20
501.59628
  0
VERTEX
  5
436
  8
Layer_2
  10
-159.84804
  20
501.59625
  0
SEQEND
  0
POLYLINE
  5
438
  8
Layer_2
  62
1
  66
1
  10
0
  20
0
  30
0
  0
VERTEX
  5
438
  8
Layer_2
  10
-155.31238
  20
482.63107
  0
VERTEX
  5
439
  8
Layer_2
  10
-160.31238
  20
482.63107
  0
SEQEND
  0
POLYLINE
  5
43b
  8
Layer_2
  62
1
  66
1
  10
0
  20
0
  30
0
  0
VERTEX
  5
43b
  8
Layer_2
  10
-18.034363
  20
510.5033
  0
VERTEX
  5
43c
  8
Layer_2
  10
-23.034363
  20
510.5033
  0
SEQEND
  0
POLYLINE
  5
43e
  8
Layer_2
  62
1
  66
1
  10
0
  20
0
  30
0
  0
VERTEX
  5
43e
  8
Layer_2
  10
-112.62457
  20
404.40054
  0
VERTEX
  5
43f
  8
Layer_2
  10
-117.62457
  20
404.40054
  0
SEQEND
  0
POLYLINE
  5
441
  8
Layer_2
  62
1
  66
1
  10
0
  20
0
  30
0
  0
VERTEX
  5
441
  8
Layer_2
  10
-28.047363
  20
432.92325
  0
VERTEX
  5
442
  8
Layer_2
  10
-33.047363
  20
432.91586
  0
SEQEND
  0
POLYLINE
  5
444
  8
Layer_2
  62
1
  66
1
  10
0
  20
0
  30
0
  0
VERTEX
  5
444
  8
Layer_2
  10
-65.948273
  20
432.86688
  0
VERTEX
  5
445
  8
Layer_2
  10
-70.948273
  20
432.85956
  0
SEQEND
  0
POLYLINE
  5
447
  8
Layer_2
  62
1
  66
1
  10
0
  20
0
  30
0
  0
VERTEX
  5
447
  8
Layer_2
  10
-139.1291
  20
521.74744
  0
VERTEX
  5
448
  8
Layer_2
  10
-144.1291
  20
521.74744
  0
SEQEND
  0
POLYLINE
  5
44a
  8
Layer_2
  62
1
  66
1
  10
0
  20
0
  30
0
  0
VERTEX
  5
44a
  8
Layer_2
  10
-83.122803
  20
452.35553
  0
VERTEX
  5
44b
  8
Layer_2
  10
-85.622803
  20
452.35187
  0
SEQEND
  0
POLYLINE
  5
44d
  8
Layer_2
  62
1
  66
1
  10
0
  20
0
  30
0
  0
VERTEX
  5
44d
  8
Layer_2
  10
-144.8054
  20
443.50928
  0
VERTEX
  5
44e
  8
Layer_2
  10
-139.80542
  20
443.51663
  0
SEQEND
  0
POLYLINE
  5
450
  8
Layer_2
  62
1
  66
1
  10
0
  20
0
  30
0
  0
VERTEX
  5
450
  8
Layer_2
  10
-78.152527
  20
492.84048
  0
VERTEX
  5
451
  8
Layer_2
  10
-73.152527
  20
492.84048
  0
SEQEND
  0
POLYLINE
  5
453
  8
Layer_2
  62
1
  66
1
  10
0
  20
0
  30
0
  0
VERTEX
  5
453
  8
Layer_2
  10
1.0008545
  20
510.5032
  0
VERTEX
  5
454
  8
Layer_2
  10
-3.0343628
  20
510.5032
  0
SEQEND
  0
POLYLINE
  5
456
  8
Layer_2
  62
1
  66
1
  10
0
  20
0
  30
0
  0
VERTEX
  5
456
  8
Layer_2
  10
-8.0473938
  20
432.9527
  0
VERTEX
  5
457
  8
Layer_2
  10
-13.047379
  20
432.94531
  0
SEQEND
  0
POLYLINE
  5
459
  8
Layer_2
  62
1
  66
1
  10
0
  20
0
  30
0
  0
VERTEX
  5
459
  8
Layer_2
  10
-196.92787
  20
462.81409
  0
VERTEX
  5
45a
  8
Layer_2
  10
-200.92787
  20
462.81525
  0
SEQEND
  0
POLYLINE
  5
45c
  8
Layer_2
  62
1
  66
1
  10
0
  20
0
  30
0
  0
VERTEX
  5
45c
  8
Layer_2
  10
-134.80542
  20
443.52399
  0
VERTEX
  5
45d
  8
Layer_2
  10
-129.80542
  20
443.53137
  0
SEQEND
  0
POLYLINE
  5
45f
  8
Layer_2
  62
1
  66
1
  10
0
  20
0
  30
0
  0
VERTEX
  5
45f
  8
Layer_2
  10
-174.80537
  20
443.46512
  0
VERTEX
  5
460
  8
Layer_2
  10
-169.80537
  20
443.47247
  0
SEQEND
  0
POLYLINE
  5
462
  8
Layer_2
  62
1
  66
1
  10
0
  20
0
  30
0
  0
VERTEX
  5
462
  8
Layer_2
  10
-21.624573
  20
394.90054
  0
VERTEX
  5
463
  8
Layer_2
  10
-26.624573
  20
394.90054
  0
SEQEND
  0
POLYLINE
  5
465
  8
Layer_2
  62
1
  66
1
  10
0
  20
0
  30
0
  0
VERTEX
  5
465
  8
Layer_2
  10
-155.29756
  20
462.45895
  0
VERTEX
  5
466
  8
Layer_2
  10
-160.29756
  20
462.45166
  0
SEQEND
  0
POLYLINE
  5
468
  8
Layer_2
  62
1
  66
1
  10
0
  20
0
  30
0
  0
VERTEX
  5
468
  8
Layer_2
  10
6.8771057
  20
452.48767
  0
VERTEX
  5
469
  8
Layer_2
  10
3.8771057
  20
452.48328
  0
SEQEND
  0
POLYLINE
  5
46b
  8
Layer_2
  62
1
  66
1
  10
0
  20
0
  30
0
  0
VERTEX
  5
46b
  8
Layer_2
  10
-102.71458
  20
521.74744
  0
VERTEX
  5
46c
  8
Layer_2
  10
-107.71458
  20
521.74744
  0
SEQEND
  0
POLYLINE
  5
46e
  8
Layer_2
  62
1
  66
1
  10
0
  20
0
  30
0
  0
VERTEX
  5
46e
  8
Layer_2
  10
-58.152523
  20
492.84048
  0
VERTEX
  5
46f
  8
Layer_2
  10
-53.152523
  20
492.84048
  0
SEQEND
  0
POLYLINE
  5
471
  8
Layer_2
  62
1
  66
1
  10
0
  20
0
  30
0
  0
VERTEX
  5
471
  8
Layer_2
  10
-177.79755
  20
462.42593
  0
VERTEX
  5
472
  8
Layer_2
  10
-173.77672
  20
462.41586
  0
SEQEND
  0
POLYLINE
  5
474
  8
Layer_2
  62
1
  70
1
  66
1
  10
0
  20
0
  30
0
  0
VERTEX
  5
474
  8
Layer_2
  10
6.1742096
  20
475.99426
  42
-0.41421356
  0
VERTEX
  5
475
  8
Layer_2
  10
8.9242096
  20
473.24426
  42
-0.41421356
  0
VERTEX
  5
476
  8
Layer_2
  10
6.1742096
  20
470.49426
  42
-0.41421356
  0
VERTEX
  5
477
  8
Layer_2
  10
3.4242096
  20
473.24426
  42
-0.41421356
  0
SEQEND
  0
POLYLINE
  5
479
  8
Layer_2
  62
1
  66
1
  10
0
  20
0
  30
0
  0
VERTEX
  5
479
  8
Layer_2
  10
-222.57111
  20
477.26581
  0
VERTEX
  5
47a
  8
Layer_2
  10
-216.82037
  20
477.31311
  42
-0.19891076
  0
VERTEX
  5
47b
  8
Layer_2
  10
-213.27293
  20
475.87775
  42
-0.19891654
  0
VERTEX
  5
47c
  8
Layer_2
  10
-211.77948
  20
472.35437
  0
VERTEX
  5
47d
  8
Layer_2
  10
-211.7818
  20
472.6438
  42
-0.0074410867
  0
VERTEX
  5
47e
  8
Layer_2
  10
-211.78275
  20
472.49905
  0
VERTEX
  5
47f
  8
Layer_2
  10
-211.78122
  20
472.78717
  42
-0.41420709
  0
VERTEX
  5
480
  8
Layer_2
  10
-216.78201
  20
467.78793
  0
VERTEX
  5
481
  8
Layer_2
  10
-222.5329
  20
467.78882
  0
SEQEND
  0
POLYLINE
  5
483
  8
Layer_2
  62
1
  66
1
  10
0
  20
0
  30
0
  0
VERTEX
  5
483
  8
Layer_2
  10
-183.64313
  20
463.41937
  0
VERTEX
  5
484
  8
Layer_2
  10
-183.65457
  20
423.82288
  0
VERTEX
  5
485
  8
Layer_2
  10
-183.65057
  20
423.24203
  42
-0.20013791
  0
VERTEX
  5
486
  8
Layer_2
  10
-184.81609
  20
420.39215
  42
-0.20014788
  0
VERTEX
  5
487
  8
Layer_2
  10
-187.66103
  20
419.2146
  0
VERTEX
  5
488
  8
Layer_2
  10
-198.97876
  20
419.24438
  42
-0.19900869
  0
VERTEX
  5
489
  8
Layer_2
  10
-201.8053
  20
420.42462
  42
-0.19903593
  0
VERTEX
  5
48a
  8
Layer_2
  10
-202.96819
  20
423.25833
  0
VERTEX
  5
48b
  8
Layer_2
  10
-202.97076
  20
422.53336
  0
VERTEX
  5
48c
  8
Layer_2
  10
-203.29997
  20
462.77295
  0
VERTEX
  5
48d
  8
Layer_2
  10
-226.0481
  20
462.51205
  0
VERTEX
  5
48e
  8
Layer_2
  10
-227.42752
  20
462.49628
  42
-0.40890685
  0
VERTEX
  5
48f
  8
Layer_2
  10
-231.97717
  20
466.86273
  0
VERTEX
  5
490
  8
Layer_2
  10
-232.14383
  20
472.48865
  0
VERTEX
  5
491
  8
Layer_2
  10
-232.02246
  20
478.11572
  42
-0.40891303
  0
VERTEX
  5
492
  8
Layer_2
  10
-227.50824
  20
482.5188
  0
VERTEX
  5
493
  8
Layer_2
  10
-226.12875
  20
482.51404
  0
VERTEX
  5
494
  8
Layer_2
  10
-203.37933
  20
482.43661
  0
VERTEX
  5
495
  8
Layer_2
  10
-203.37454
  20
522.67761
  0
VERTEX
  5
496
  8
Layer_2
  10
-203.36618
  20
521.95264
  42
-0.19902684
  0
VERTEX
  5
497
  8
Layer_2
  10
-202.22617
  20
524.79565
  42
-0.19902286
  0
VERTEX
  5
498
  8
Layer_2
  10
-199.40918
  20
525.99866
  0
VERTEX
  5
499
  8
Layer_2
  10
-188.09204
  20
526.11975
  42
-0.20013553
  0
VERTEX
  5
49a
  8
Layer_2
  10
-185.23773
  20
524.96515
  42
-0.20014608
  0
VERTEX
  5
49b
  8
Layer_2
  10
-184.04935
  20
522.12463
  0
VERTEX
  5
49c
  8
Layer_2
  10
-184.04941
  20
521.48297
  0
VERTEX
  5
49d
  8
Layer_2
  10
-183.7171
  20
481.70972
  0
SEQEND
  0
POLYLINE
  5
49f
  8
Layer_2
  62
1
  66
1
  10
0
  20
0
  30
0
  0
VERTEX
  5
49f
  8
Layer_2
  10
16.877052
  20
452.45911
  0
VERTEX
  5
4a0
  8
Layer_2
  10
11.877075
  20
452.47339
  0
SEQEND
  0
POLYLINE
  5
4a2
  8
Layer_2
  62
1
  70
1
  66
1
  10
0
  20
0
  30
0
  0
VERTEX
  5
4a2
  8
Layer_2
  10
-23.811607
  20
531.6098
  42
-0.41420896
  0
VERTEX
  5
4a3
  8
Layer_2
  10
-19.411606
  20
536.00983
  42
-0.41420896
  0
VERTEX
  5
4a4
  8
Layer_2
  10
-15.011604
  20
531.6098
  42
-0.41420896
  0
VERTEX
  5
4a5
  8
Layer_2
  10
-19.411606
  20
527.20978
  42
-0.41420988
  0
SEQEND
  0
POLYLINE
  5
4a7
  8
Layer_2
  62
1
  66
1
  10
0
  20
0
  30
0
  0
VERTEX
  5
4a7
  8
Layer_2
  10
1.899231
  20
422.11868
  0
VERTEX
  5
4a8
  8
Layer_2
  10
1.920372
  20
424.45929
  42
0.41421625
  0
VERTEX
  5
4a9
  8
Layer_2
  10
6.3795547
  20
419.91882
  0
VERTEX
  5
4aa
  8
Layer_2
  10
6.7475891
  20
419.9155
  0
VERTEX
  5
4ab
  8
Layer_2
  10
6.7959595
  20
419.92761
  0
VERTEX
  5
4ac
  8
Layer_2
  10
6.8061829
  20
419.93057
  0
VERTEX
  5
4ad
  8
Layer_2
  10
17.840118
  20
420.12201
  42
0.20106397
  0
VERTEX
  5
4ae
  8
Layer_2
  10
20.859985
  20
421.29147
  42
0.20105893
  0
VERTEX
  5
4af
  8
Layer_2
  10
22.143829
  20
424.26453
  0
VERTEX
  5
4b0
  8
Layer_2
  10
21.725586
  20
521.08569
  42
0.19960187
  0
VERTEX
  5
4b1
  8
Layer_2
  10
20.037598
  20
525.32501
  42
0.20264594
  0
VERTEX
  5
4b2
  8
Layer_2
  10
15.712646
  20
527.0437
  0
VERTEX
  5
4b3
  8
Layer_2
  10
5.2035217
  20
526.83893
  0
VERTEX
  5
4b4
  8
Layer_2
  10
5.1208496
  20
526.83167
  0
VERTEX
  5
4b5
  8
Layer_2
  10
5.0365601
  20
526.82251
  0
VERTEX
  5
4b6
  8
Layer_2
  10
4.9537659
  20
526.81177
  42
0.26098358
  0
VERTEX
  5
4b7
  8
Layer_2
  10
2.4944839
  20
524.99463
  42
0.054910323
  0
VERTEX
  5
4b8
  8
Layer_2
  10
1.825264
  20
523.18146
  0
VERTEX
  5
4b9
  8
Layer_2
  10
2.1543579
  20
491.83588
  0
SEQEND
  0
POLYLINE
  5
4bb
  8
Layer_2
  62
1
  66
1
  10
0
  20
0
  30
0
  0
VERTEX
  5
4bb
  8
Layer_2
  10
-96.666946
  20
463.45612
  0
VERTEX
  5
4bc
  8
Layer_2
  10
-85.824326
  20
453.0932
  0
VERTEX
  5
4bd
  8
Layer_2
  10
-85.773178
  20
424.34048
  0
VERTEX
  5
4be
  8
Layer_2
  10
-86.405884
  20
424.33942
  0
VERTEX
  5
4bf
  8
Layer_2
  10
-96.244629
  20
424.3298
  0
VERTEX
  5
4c0
  8
Layer_2
  10
-120.08693
  20
424.17267
  0
VERTEX
  5
4c1
  8
Layer_2
  10
-136.85651
  20
424.03372
  0
VERTEX
  5
4c2
  8
Layer_2
  10
-156.13484
  20
424.01202
  0
VERTEX
  5
4c3
  8
Layer_2
  10
-183.65457
  20
423.82288
  0
SEQEND
  0
POLYLINE
  5
4c5
  8
Layer_2
  62
1
  70
1
  66
1
  10
0
  20
0
  30
0
  0
VERTEX
  5
4c5
  8
Layer_2
  10
-17.778351
  20
504.86841
  42
-0.41421356
  0
VERTEX
  5
4c6
  8
Layer_2
  10
-20.528351
  20
502.11841
  42
-0.41421356
  0
VERTEX
  5
4c7
  8
Layer_2
  10
-23.278351
  20
504.86841
  42
-0.41421356
  0
VERTEX
  5
4c8
  8
Layer_2
  10
-20.528351
  20
507.61841
  42
-0.41421356
  0
SEQEND
  0
POLYLINE
  5
4ca
  8
Layer_2
  62
1
  66
1
  10
0
  20
0
  30
0
  0
VERTEX
  5
4ca
  8
Layer_2
  10
1.8252563
  20
523.18146
  0
VERTEX
  5
4cb
  8
Layer_2
  10
1.5258636
  20
551.69592
  0
VERTEX
  5
4cc
  8
Layer_2
  10
-86.374725
  20
551.552
  0
VERTEX
  5
4cd
  8
Layer_2
  10
-86.624298
  20
541.08417
  0
VERTEX
  5
4ce
  8
Layer_2
  10
-95.764893
  20
541.30206
  42
0.41342343
  0
VERTEX
  5
4cf
  8
Layer_2
  10
-100.37061
  20
536.92267
  0
VERTEX
  5
4d0
  8
Layer_2
  10
-100.66432
  20
525.84778
  42
0.203298
  0
VERTEX
  5
4d1
  8
Layer_2
  10
-99.521576
  20
522.94092
  42
0.20327855
  0
VERTEX
  5
4d2
  8
Layer_2
  10
-96.637466
  20
521.74182
  0
VERTEX
  5
4d3
  8
Layer_2
  10
-86.79895
  20
521.81152
  0
VERTEX
  5
4d4
  8
Layer_2
  10
-86.166214
  20
521.81555
  0
VERTEX
  5
4d5
  8
Layer_2
  10
-85.985443
  20
493.06339
  0
VERTEX
  5
4d6
  8
Layer_2
  10
-96.744171
  20
482.61337
  0
SEQEND
  0
POLYLINE
  5
4d8
  8
Layer_2
  62
1
  70
1
  66
1
  10
0
  20
0
  30
0
  0
VERTEX
  5
4d8
  8
Layer_2
  10
-146.37029
  20
430.22757
  42
-0.41421172
  0
VERTEX
  5
4d9
  8
Layer_2
  10
-150.77028
  20
434.62753
  42
-0.41420988
  0
VERTEX
  5
4da
  8
Layer_2
  10
-146.37029
  20
439.02756
  42
-0.41420988
  0
VERTEX
  5
4db
  8
Layer_2
  10
-141.97028
  20
434.62753
  42
-0.41421149
  0
SEQEND
  0
POLYLINE
  5
4dd
  8
Layer_2
  62
1
  66
1
  10
0
  20
0
  30
0
  0
VERTEX
  5
4dd
  8
Layer_2
  10
-127.30544
  20
443.53497
  0
VERTEX
  5
4de
  8
Layer_2
  10
-122.30544
  20
443.54236
  0
SEQEND
  0
POLYLINE
  5
4e0
  8
Layer_2
  62
1
  70
1
  66
1
  10
0
  20
0
  30
0
  0
VERTEX
  5
4e0
  8
Layer_2
  10
-149.56583
  20
494.39807
  42
-0.41421356
  0
VERTEX
  5
4e1
  8
Layer_2
  10
-146.81583
  20
497.14807
  42
-0.41421356
  0
VERTEX
  5
4e2
  8
Layer_2
  10
-144.06583
  20
494.39807
  42
-0.41421356
  0
VERTEX
  5
4e3
  8
Layer_2
  10
-146.81583
  20
491.64807
  42
-0.41421356
  0
SEQEND
  0
POLYLINE
  5
4e5
  8
Layer_2
  62
1
  66
1
  10
0
  20
0
  30
0
  0
VERTEX
  5
4e5
  8
Layer_2
  10
-168.55763
  20
508.34393
  42
0.040055395
  0
VERTEX
  5
4e6
  8
Layer_2
  10
-167.71194
  20
508.33102
  42
0.24288559
  0
VERTEX
  5
4e7
  8
Layer_2
  10
-165.4707
  20
509.53369
  42
0.19855078
  0
VERTEX
  5
4e8
  8
Layer_2
  10
-165.00327
  20
512.73859
  42
0.22785384
  0
VERTEX
  5
4e9
  8
Layer_2
  10
-166.40222
  20
514.65186
  0
VERTEX
  5
4ea
  8
Layer_2
  10
-166.46254
  20
514.68079
  0
VERTEX
  5
4eb
  8
Layer_2
  10
-166.52402
  20
514.70825
  42
0.14454223
  0
VERTEX
  5
4ec
  8
Layer_2
  10
-168.774
  20
514.86523
  0
SEQEND
  0
POLYLINE
  5
4ee
  8
Layer_2
  62
1
  70
1
  66
1
  10
0
  20
0
  30
0
  0
VERTEX
  5
4ee
  8
Layer_2
  10
-143.82695
  20
529.47034
  42
-0.41421356
  0
VERTEX
  5
4ef
  8
Layer_2
  10
-146.57695
  20
526.72034
  42
-0.41421356
  0
VERTEX
  5
4f0
  8
Layer_2
  10
-149.32695
  20
529.47034
  42
-0.41421356
  0
VERTEX
  5
4f1
  8
Layer_2
  10
-146.57695
  20
532.22034
  42
-0.41421356
  0
SEQEND
  0
POLYLINE
  5
4f3
  8
Layer_2
  62
1
  70
1
  66
1
  10
0
  20
0
  30
0
  0
VERTEX
  5
4f3
  8
Layer_2
  10
-19.937721
  20
438.86676
  42
-0.41421356
  0
VERTEX
  5
4f4
  8
Layer_2
  10
-22.687721
  20
441.61676
  42
-0.41421356
  0
VERTEX
  5
4f5
  8
Layer_2
  10
-19.937721
  20
444.36676
  42
-0.41421356
  0
VERTEX
  5
4f6
  8
Layer_2
  10
-17.187721
  20
441.61676
  42
-0.41421356
  0
SEQEND
  0
POLYLINE
  5
4f8
  8
Layer_2
  62
1
  70
1
  66
1
  10
0
  20
0
  30
0
  0
VERTEX
  5
4f8
  8
Layer_2
  10
-193.01837
  20
519.42249
  42
-0.41421356
  0
VERTEX
  5
4f9
  8
Layer_2
  10
-195.76837
  20
516.67249
  42
-0.41421356
  0
VERTEX
  5
4fa
  8
Layer_2
  10
-198.51837
  20
519.42249
  42
-0.41421356
  0
VERTEX
  5
4fb
  8
Layer_2
  10
-195.76837
  20
522.17249
  42
-0.41421356
  0
SEQEND
  0
POLYLINE
  5
4fd
  8
Layer_2
  62
1
  66
1
  10
0
  20
0
  30
0
  0
VERTEX
  5
4fd
  8
Layer_2
  10
-94.388824
  20
502.01184
  0
VERTEX
  5
4fe
  8
Layer_2
  10
-89.904205
  20
502.06354
  0
SEQEND
  0
POLYLINE
  5
500
  8
Layer_2
  62
1
  66
1
  10
0
  20
0
  30
0
  0
VERTEX
  5
500
  8
Layer_2
  10
-96.832977
  20
521.74524
  0
VERTEX
  5
501
  8
Layer_2
  10
-100.77406
  20
521.71252
  0
VERTEX
  5
502
  8
Layer_2
  10
-100.91115
  20
527.7262
  42
0.41210723
  0
VERTEX
  5
503
  8
Layer_2
  10
-110.04918
  20
536.52002
  0
VERTEX
  5
504
  8
Layer_2
  10
-111.68637
  20
536.49451
  42
0.41300589
  0
VERTEX
  5
505
  8
Layer_2
  10
-120.54541
  20
527.39233
  0
VERTEX
  5
506
  8
Layer_2
  10
-120.48013
  20
521.70673
  0
VERTEX
  5
507
  8
Layer_2
  10
-137.25041
  20
521.71045
  0
VERTEX
  5
508
  8
Layer_2
  10
-137.34708
  20
527.57483
  42
0.41421391
  0
VERTEX
  5
509
  8
Layer_2
  10
-146.49423
  20
536.42517
  0
VERTEX
  5
50a
  8
Layer_2
  10
-147.79733
  20
536.40369
  42
0.19950314
  0
VERTEX
  5
50b
  8
Layer_2
  10
-154.13121
  20
533.64832
  42
0.19950837
  0
VERTEX
  5
50c
  8
Layer_2
  10
-156.64697
  20
527.21545
  0
VERTEX
  5
50d
  8
Layer_2
  10
-156.5282
  20
521.57666
  0
VERTEX
  5
50e
  8
Layer_2
  10
-184.04941
  20
521.48297
  0
SEQEND
  0
POLYLINE
  5
510
  8
Layer_2
  62
1
  66
1
  10
0
  20
0
  30
0
  0
VERTEX
  5
510
  8
Layer_2
  10
2.0782166
  20
490.01819
  0
VERTEX
  5
511
  8
Layer_2
  10
2.0782166
  20
485.01819
  0
SEQEND
  0
POLYLINE
  5
513
  8
Layer_2
  62
1
  66
1
  10
0
  20
0
  30
0
  0
VERTEX
  5
513
  8
Layer_2
  10
-164.4548
  20
504.52136
  0
VERTEX
  5
514
  8
Layer_2
  10
-170.54568
  20
506.98297
  0
VERTEX
  5
515
  8
Layer_2
  10
-170.71944
  20
516.80829
  0
VERTEX
  5
516
  8
Layer_2
  10
-164.68153
  20
518.81274
  0
SEQEND
  0
POLYLINE
  5
518
  8
Layer_2
  62
1
  70
1
  66
1
  10
0
  20
0
  30
0
  0
VERTEX
  5
518
  8
Layer_2
  10
11.956207
  20
430.97421
  42
-0.41421356
  0
VERTEX
  5
519
  8
Layer_2
  10
14.706207
  20
433.72421
  42
-0.41421356
  0
VERTEX
  5
51a
  8
Layer_2
  10
17.456207
  20
430.97421
  42
-0.41421356
  0
VERTEX
  5
51b
  8
Layer_2
  10
14.706207
  20
428.22421
  42
-0.41421356
  0
SEQEND
  0
POLYLINE
  5
51d
  8
Layer_2
  62
1
  70
1
  66
1
  10
0
  20
0
  30
0
  0
VERTEX
  5
51d
  8
Layer_2
  10
-19.642776
  20
390.65848
  42
-0.41421356
  0
VERTEX
  5
51e
  8
Layer_2
  10
-16.892776
  20
387.90848
  42
-0.41421356
  0
VERTEX
  5
51f
  8
Layer_2
  10
-19.642776
  20
385.15848
  42
-0.41421356
  0
VERTEX
  5
520
  8
Layer_2
  10
-22.392776
  20
387.90848
  42
-0.41421356
  0
SEQEND
  0
POLYLINE
  5
522
  8
Layer_2
  62
1
  70
1
  66
1
  10
0
  20
0
  30
0
  0
VERTEX
  5
522
  8
Layer_2
  10
-195.39105
  20
423.0997
  42
-0.41421356
  0
VERTEX
  5
523
  8
Layer_2
  10
-198.14105
  20
425.8497
  42
-0.41421356
  0
VERTEX
  5
524
  8
Layer_2
  10
-195.39105
  20
428.5997
  42
-0.41421356
  0
VERTEX
  5
525
  8
Layer_2
  10
-192.64105
  20
425.8497
  42
-0.41421356
  0
SEQEND
  0
POLYLINE
  5
527
  8
Layer_2
  62
1
  66
1
  10
0
  20
0
  30
0
  0
VERTEX
  5
527
  8
Layer_2
  10
-110.06935
  20
437.15109
  0
VERTEX
  5
528
  8
Layer_2
  10
-110.07854
  20
443.40662
  0
SEQEND
  0
POLYLINE
  5
52a
  8
Layer_2
  62
1
  66
1
  10
0
  20
0
  30
0
  0
VERTEX
  5
52a
  8
Layer_2
  10
2.0782166
  20
470.01819
  0
VERTEX
  5
52b
  8
Layer_2
  10
2.0782166
  20
475.01819
  0
SEQEND
  0
POLYLINE
  5
52d
  8
Layer_2
  62
1
  70
1
  66
1
  10
0
  20
0
  30
0
  0
VERTEX
  5
52d
  8
Layer_2
  10
14.180511
  20
512.74799
  42
-0.41421356
  0
VERTEX
  5
52e
  8
Layer_2
  10
11.430511
  20
515.49799
  42
-0.41421356
  0
VERTEX
  5
52f
  8
Layer_2
  10
14.180511
  20
518.24799
  42
-0.41421209
  0
VERTEX
  5
530
  8
Layer_2
  10
16.930519
  20
515.49799
  42
-0.41421209
  0
SEQEND
  0
POLYLINE
  5
532
  8
Layer_2
  62
1
  66
1
  10
0
  20
0
  30
0
  0
VERTEX
  5
532
  8
Layer_2
  10
-186.92787
  20
462.81116
  0
VERTEX
  5
533
  8
Layer_2
  10
-191.92787
  20
462.81262
  0
SEQEND
  0
POLYLINE
  5
535
  8
Layer_2
  62
1
  66
1
  10
0
  20
0
  30
0
  0
VERTEX
  5
535
  8
Layer_2
  10
-163.92651
  20
438.95746
  0
VERTEX
  5
536
  8
Layer_2
  10
-163.81355
  20
428.26941
  0
SEQEND
  0
POLYLINE
  5
538
  8
Layer_2
  62
1
  66
1
  10
0
  20
0
  30
0
  0
VERTEX
  5
538
  8
Layer_2
  10
-43.152519
  20
492.84048
  0
VERTEX
  5
539
  8
Layer_2
  10
-48.152523
  20
492.84048
  0
SEQEND
  0
POLYLINE
  5
53b
  8
Layer_2
  62
1
  70
1
  66
1
  10
0
  20
0
  30
0
  0
VERTEX
  5
53b
  8
Layer_2
  10
-150.88869
  20
512.55591
  42
-0.41420988
  0
VERTEX
  5
53c
  8
Layer_2
  10
-146.48868
  20
516.95593
  42
-0.41420988
  0
VERTEX
  5
53d
  8
Layer_2
  10
-142.08868
  20
512.55591
  42
-0.4142108
  0
VERTEX
  5
53e
  8
Layer_2
  10
-146.48868
  20
508.15585
  42
-0.41421494
  0
SEQEND
  0
POLYLINE
  5
540
  8
Layer_2
  62
1
  70
1
  66
1
  10
0
  20
0
  30
0
  0
VERTEX
  5
540
  8
Layer_2
  10
-149.36755
  20
450.64816
  42
-0.41421356
  0
VERTEX
  5
541
  8
Layer_2
  10
-146.61755
  20
453.39816
  42
-0.41421356
  0
VERTEX
  5
542
  8
Layer_2
  10
-143.86755
  20
450.64816
  42
-0.41421356
  0
VERTEX
  5
543
  8
Layer_2
  10
-146.61755
  20
447.89816
  42
-0.41421356
  0
SEQEND
  0
POLYLINE
  5
545
  8
Layer_2
  62
1
  66
1
  10
0
  20
0
  30
0
  0
VERTEX
  5
545
  8
Layer_2
  10
2.08461
  20
468.30298
  0
VERTEX
  5
546
  8
Layer_2
  10
2.0919495
  20
463.30298
  0
SEQEND
  0
POLYLINE
  5
548
  8
Layer_2
  62
1
  70
1
  66
1
  10
0
  20
0
  30
0
  0
VERTEX
  5
548
  8
Layer_2
  10
-24.212456
  20
416.21814
  42
-0.4142108
  0
VERTEX
  5
549
  8
Layer_2
  10
-19.812454
  20
420.6181
  42
-0.4142108
  0
VERTEX
  5
54a
  8
Layer_2
  10
-15.412453
  20
416.21814
  42
-0.41421816
  0
VERTEX
  5
54b
  8
Layer_2
  10
-19.812454
  20
411.81815
  42
-0.41421448
  0
SEQEND
  0
POLYLINE
  5
54d
  8
Layer_2
  62
1
  66
1
  10
0
  20
0
  30
0
  0
VERTEX
  5
54d
  8
Layer_2
  10
16.847389
  20
492.88373
  0
VERTEX
  5
54e
  8
Layer_2
  10
11.847443
  20
492.86212
  0
SEQEND
  0
POLYLINE
  5
550
  8
Layer_2
  62
1
  66
1
  10
0
  20
0
  30
0
  0
VERTEX
  5
550
  8
Layer_2
  10
2.0782166
  20
482.01819
  0
VERTEX
  5
551
  8
Layer_2
  10
2.0782166
  20
477.01819
  0
SEQEND
  0
POLYLINE
  5
553
  8
Layer_2
  62
1
  66
1
  10
0
  20
0
  30
0
  0
VERTEX
  5
553
  8
Layer_2
  10
-100.19536
  20
501.80414
  0
VERTEX
  5
554
  8
Layer_2
  10
-120.04736
  20
501.69556
  0
SEQEND
  0
POLYLINE
  5
556
  8
Layer_2
  62
1
  66
1
  10
0
  20
0
  30
0
  0
VERTEX
  5
556
  8
Layer_2
  10
2.1825104
  20
453.48541
  0
VERTEX
  5
557
  8
Layer_2
  10
1.6531219
  20
394.86862
  0
VERTEX
  5
558
  8
Layer_2
  10
-9.6296997
  20
395.12976
  0
VERTEX
  5
559
  8
Layer_2
  10
-9.5996857
  20
390.35623
  42
-0.19912077
  0
VERTEX
  5
55a
  8
Layer_2
  10
-12.497322
  20
383.26419
  0
SEQEND
  0
POLYLINE
  5
55c
  8
Layer_2
  62
1
  66
1
  10
0
  20
0
  30
0
  0
VERTEX
  5
55c
  8
Layer_2
  10
-183.74219
  20
478.26553
  0
VERTEX
  5
55d
  8
Layer_2
  10
-183.72476
  20
473.96255
  0
SEQEND
  0
POLYLINE
  5
55f
  8
Layer_2
  62
1
  66
1
  10
0
  20
0
  30
0
  0
VERTEX
  5
55f
  8
Layer_2
  10
2.08461
  20
461.30298
  0
VERTEX
  5
560
  8
Layer_2
  10
2.0919495
  20
456.30298
  0
SEQEND
  0
POLYLINE
  5
562
  8
Layer_2
  62
1
  66
1
  10
0
  20
0
  30
0
  0
VERTEX
  5
562
  8
Layer_2
  10
-187.89233
  20
462.72311
  0
VERTEX
  5
563
  8
Layer_2
  10
-187.89307
  20
462.76489
  0
SEQEND
  0
POLYLINE
  5
565
  8
Layer_2
  62
1
  66
1
  10
0
  20
0
  30
0
  0
VERTEX
  5
565
  8
Layer_2
  10
-203.41217
  20
466.91138
  0
VERTEX
  5
566
  8
Layer_2
  10
-203.442
  20
470.95532
  0
SEQEND
  0
POLYLINE
  5
568
  8
Layer_2
  62
1
  66
1
  10
0
  20
0
  30
0
  0
VERTEX
  5
568
  8
Layer_2
  10
-154.8054
  20
443.49457
  0
VERTEX
  5
569
  8
Layer_2
  10
-149.8054
  20
443.50192
  0
SEQEND
  0
POLYLINE
  5
56b
  8
Layer_2
  62
1
  66
1
  10
0
  20
0
  30
0
  0
VERTEX
  5
56b
  8
Layer_2
  10
-203.4581
  20
478.29745
  0
VERTEX
  5
56c
  8
Layer_2
  10
-203.45538
  20
474.25342
  0
SEQEND
  0
POLYLINE
  5
56e
  8
Layer_2
  62
1
  66
1
  10
0
  20
0
  30
0
  0
VERTEX
  5
56e
  8
Layer_2
  10
-222.03967
  20
467.862
  0
VERTEX
  5
56f
  8
Layer_2
  10
-222.52264
  20
467.79031
  0
SEQEND
  0
POLYLINE
  5
571
  8
Layer_2
  62
1
  66
1
  10
0
  20
0
  30
0
  0
VERTEX
  5
571
  8
Layer_2
  10
-177.81238
  20
482.63107
  0
VERTEX
  5
572
  8
Layer_2
  10
-173.79156
  20
482.64706
  0
SEQEND
  0
POLYLINE
  5
574
  8
Layer_2
  62
1
  66
1
  10
0
  20
0
  30
0
  0
VERTEX
  5
574
  8
Layer_2
  10
-183.30824
  20
423.78467
  0
VERTEX
  5
575
  8
Layer_2
  10
-183.30684
  20
423.78467
  0
SEQEND
  0
ENDSEC
  0
EOF
