0
SECTION
2
HEADER
9
$INSUNITS
70
4
9
$ACADVER
1
AC1014
9
$HANDSEED
5
FFFF
0
ENDSEC
0
SECTION
2
TABLES
0
TABLE
2
VPORT
5
8
100
AcDbSymbolTable
0
ENDTAB
0
TABLE
2
LTYPE
5
5
100
AcDbSymbolTable
0
LTYPE
5
14
100
AcDbSymbolTableRecord
100
AcDbLinetypeTableRecord
2
BYBLOCK
70
0
0
LTYPE
5
15
100
AcDbSymbolTableRecord
100
AcDbLinetypeTableRecord
2
BYLAYER
70
0
0
LTYPE
5
16
100
AcDbSymbolTableRecord
100
AcDbLinetypeTableRecord
2
DASHED
70
0
3
Dashed __ __ __ __ __ __ __ __ __ __ __ __ __ _
72
65
73
2
40
0.75
49
0.5
74
0
49
-0.25
74
0
0
ENDTAB
0
TABLE
2
LAYER
5
2
100
AcDbSymbolTable
70
2
0
LAYER
5
50
100
AcDbSymbolTableRecord
100
AcDbLayerTableRecord
2
0
70
0
62
7
6
CONTINUOUS
0
ENDTAB
0
TABLE
2
STYLE
5
3
100
AcDbSymbolTable
70
1
0
STYLE
5
11
100
AcDbSymbolTableRecord
100
AcDbTextStyleTableRecord
2
STANDARD
70
0
0
ENDTAB
0
TABLE
2
VIEW
5
6
100
AcDbSymbolTable
70
0
0
ENDTAB
0
TABLE
2
UCS
5
7
100
AcDbSymbolTable
70
0
0
ENDTAB
0
TABLE
2
APPID
5
9
100
AcDbSymbolTable
70
2
0
APPID
5
12
100
AcDbSymbolTableRecord
100
AcDbRegAppTableRecord
2
ACAD
70
0
0
ENDTAB
0
TABLE
2
DIMSTYLE
5
A
100
AcDbSymbolTable
70
1
0
ENDTAB
0
TABLE
2
BLOCK_RECORD
5
1
100
AcDbSymbolTable
70
1
0
BLOCK_RECORD
5
1F
100
AcDbSymbolTableRecord
100
AcDbBlockTableRecord
2
*MODEL_SPACE
0
BLOCK_RECORD
5
1B
100
AcDbSymbolTableRecord
100
AcDbBlockTableRecord
2
*PAPER_SPACE
0
ENDTAB
0
ENDSEC
0
SECTION
2
BLOCKS
0
BLOCK
5
20
100
AcDbEntity
100
AcDbBlockBegin
2
*MODEL_SPACE
0
ENDBLK
5
21
100
AcDbEntity
100
AcDbBlockEnd
0
BLOCK
5
1C
100
AcDbEntity
100
AcDbBlockBegin
2
*PAPER_SPACE
0
ENDBLK
5
1D
100
AcDbEntity
100
AcDbBlockEnd
0
ENDSEC
0
SECTION
2
ENTITIES
0
POINT
5
100
100
AcDbEntity
8
0
100
AcDbPoint
10
-44.490750095618296
20
-103.67021916079455
30
0
0
POINT
5
101
100
AcDbEntity
8
0
100
AcDbPoint
10
-34.764665812144706
20
-15.505640411979485
30
0
0
POINT
5
102
100
AcDbEntity
8
0
100
AcDbPoint
10
55.866740236498735
20
-119.77896785942234
30
0
0
POINT
5
103
100
AcDbEntity
8
0
100
AcDbPoint
10
55.866740236498735
20
-116.77896785942232
30
0
0
POINT
5
104
100
AcDbEntity
8
0
100
AcDbPoint
10
35.41474023649873
20
-119.77896785942234
30
0
0
POINT
5
105
100
AcDbEntity
8
0
100
AcDbPoint
10
35.41474023649873
20
-116.77896785942232
30
0
0
POINT
5
106
100
AcDbEntity
8
0
100
AcDbPoint
10
-3.919652509710625
20
-116.77896785942232
30
0
0
POINT
5
107
100
AcDbEntity
8
0
100
AcDbPoint
10
-24.371652509710628
20
-116.77896785942232
30
0
0
POINT
5
108
100
AcDbEntity
8
0
100
AcDbPoint
10
-24.371652509710628
20
-119.77896785942234
30
0
0
LINE
5
109
100
AcDbEntity
8
0
100
AcDbLine
10
5.4341864538741724
20
89.644309878267961
30
0
11
5.4341864538741724
21
114.54986499029184
31
0
0
LINE
5
110
100
AcDbEntity
8
0
100
AcDbLine
10
10.434186453874172
20
119.54986499029184
30
0
11
15.747543863394053
21
119.54986499029184
31
0
0
ARC
5
111
100
AcDbEntity
8
0
100
AcDbCircle
10
10.434186453874183
20
114.54986499029182
30
0
40
5.0000000000000178
210
0
220
0
230
1
100
AcDbArc
50
90.000000000000128
51
180
0
LINE
5
112
100
AcDbEntity
8
0
100
AcDbLine
10
10.626338001069641
20
109.64123601291801
30
0
11
10.626338001069641
21
104.29801009938191
31
0
0
LINE
5
113
100
AcDbEntity
8
0
100
AcDbLine
10
15.326338001069642
20
99.598010099381909
30
0
11
15.747543863394057
21
99.598010099381909
31
0
0
ARC
5
114
100
AcDbEntity
8
0
100
AcDbCircle
10
15.326338001069651
20
104.29801009938191
30
0
40
4.7000000000000082
210
0
220
0
230
1
100
AcDbArc
50
180
51
269.99999999999989
0
LINE
5
115
100
AcDbEntity
8
0
100
AcDbLine
10
5.4341864538741724
20
89.644309878267961
30
0
11
-39.529032450876542
21
89.644309878267961
31
0
0
LINE
5
116
100
AcDbEntity
8
0
100
AcDbLine
10
-44.529032450876535
20
84.644309878267961
30
0
11
-44.529032450876535
21
74.492833925595335
31
0
0
LINE
5
117
100
AcDbEntity
8
0
100
AcDbLine
10
-39.529032450876535
20
69.492833925595292
30
0
11
5.4341864538741724
21
69.492833925595292
31
0
0
LINE
5
118
100
AcDbEntity
8
0
100
AcDbLine
10
-29.874211353000444
20
49.46431112350075
30
0
11
-18.374211353000444
21
49.46431112350075
31
0
0
LINE
5
119
100
AcDbEntity
8
0
100
AcDbLine
10
-24.12421135300044
20
49.46431112350075
30
0
11
-24.12421135300044
21
55.21431112350075
31
0
0
LINE
5
120
100
AcDbEntity
8
0
100
AcDbLine
10
-24.12421135300044
20
49.46431112350075
30
0
11
-24.12421135300044
21
43.714311123500742
31
0
0
CIRCLE
5
121
100
AcDbEntity
8
0
100
AcDbCircle
10
-24.448947540658562
20
31.437473502206178
30
0
40
4.0000000000000018
210
0
220
0
230
1
0
CIRCLE
5
122
100
AcDbEntity
8
0
100
AcDbCircle
10
-6.7912127392434352
20
31.530293574499272
30
0
40
3.0000000000000004
210
0
220
0
230
1
0
ARC
5
123
100
AcDbEntity
8
0
100
AcDbCircle
10
-39.529032450876535
20
84.644309878267961
30
0
40
5
210
0
220
0
230
1
100
AcDbArc
50
90.000000000000071
51
180
0
ARC
5
124
100
AcDbEntity
8
0
100
AcDbCircle
10
-39.5290324508765
20
74.492833925595335
30
0
40
5.0000000000000311
210
0
220
0
230
1
100
AcDbArc
50
180
51
269.9999999999996
0
CIRCLE
5
125
100
AcDbEntity
8
0
100
AcDbCircle
10
-33.010591062701934
20
82.290321773968429
30
0
40
2.9999999999999987
210
0
220
0
230
1
0
LINE
5
126
100
AcDbEntity
8
0
100
AcDbLine
10
-34.510502832873229
20
69.492833925595292
30
0
11
-34.510502832873222
21
-30.777918560546325
31
0
0
LINE
5
127
100
AcDbEntity
8
0
100
AcDbLine
10
-34.510502832873222
20
-30.777918560546325
30
0
11
-4.5825185271068216
21
-30.777918560546325
31
0
0
LINE
5
128
100
AcDbEntity
8
0
100
AcDbLine
10
-4.5825185271068216
20
-30.777918560546325
30
0
11
5.596833250957749
21
-20.589254039174008
31
0
0
LINE
5
129
100
AcDbEntity
8
0
100
AcDbLine
10
-14.277180868267694
20
4.1806656503148432
30
0
11
-14.277180868267694
21
-14.685154938529642
31
0
0
LINE
5
130
100
AcDbEntity
8
0
100
AcDbLine
10
-14.277180868267694
20
-5.5691902859739066
30
0
11
-19.438869480152992
21
-5.5691902859739066
31
0
0
LINE
5
131
100
AcDbEntity
8
0
100
AcDbLine
10
-34.510502832873222
20
15.352197326983624
30
0
11
-34.510502832873222
21
14.858884395594661
31
0
0
LINE
5
132
100
AcDbEntity
8
0
100
AcDbLine
10
-39.010502832873222
20
19.358884395594661
30
0
11
-48.836233004754384
21
19.358884395594657
31
0
0
LINE
5
133
100
AcDbEntity
8
0
100
AcDbLine
10
-54.336233004754384
20
-30.995465314142944
30
0
11
-64.539672769048082
21
-30.995465314142947
31
0
0
LINE
5
134
100
AcDbEntity
8
0
100
AcDbLine
10
-34.53785035679924
20
-121.08058771883248
30
0
11
-24.368349870348325
21
-121.08058771883248
31
0
0
ARC
5
135
100
AcDbEntity
8
0
100
AcDbCircle
10
-39.010502832873215
20
14.858884395594663
30
0
40
4.4999999999999973
210
-0
220
0
230
1
100
AcDbArc
50
0
51
90.000000000000099
0
ARC
5
136
100
AcDbEntity
8
0
100
AcDbCircle
10
-48.836233004754384
20
13.858884395594661
30
0
40
5.4999999999999964
210
0
220
-0
230
1
100
AcDbArc
50
90
51
180
0
LINE
5
137
100
AcDbEntity
8
0
100
AcDbLine
10
-54.336233004754384
20
4.2217587289862273
30
0
11
-59.795420399135011
21
4.2217587289862273
31
0
0
LINE
5
138
100
AcDbEntity
8
0
100
AcDbLine
10
-69.295420399135011
20
-5.2782412710137745
30
0
11
-69.295420399135011
21
-6.1203369190729573
31
0
0
LINE
5
139
100
AcDbEntity
8
0
100
AcDbLine
10
-59.795420399135033
20
-15.620336919072958
30
0
11
-54.336233004754384
21
-15.620336919072958
31
0
0
ARC
5
140
100
AcDbEntity
8
0
100
AcDbCircle
10
-59.795420399135011
20
-5.2782412710137745
30
0
40
9.5000000000000018
210
0
220
-0
230
1
100
AcDbArc
50
90
51
180
0
ARC
5
141
100
AcDbEntity
8
0
100
AcDbCircle
10
-59.795420399135047
20
-6.1203369190729919
30
0
40
9.4999999999999662
210
0
220
0
230
1
100
AcDbArc
50
180
51
270.00000000000011
0
LINE
5
142
100
AcDbEntity
8
0
100
AcDbLine
10
-64.539672769048082
20
-41.056848643836744
30
0
11
-69.522304363282487
21
-41.056848643836744
31
0
0
LINE
5
143
100
AcDbEntity
8
0
100
AcDbLine
10
-79.522304363282501
20
-51.056848643836744
30
0
11
-79.522304363282487
21
-51.081618144569553
31
0
0
LINE
5
144
100
AcDbEntity
8
0
100
AcDbLine
10
-69.522304363282487
20
-61.081618144569553
30
0
11
-64.539672769048082
21
-61.081618144569553
31
0
0
ARC
5
145
100
AcDbEntity
8
0
100
AcDbCircle
10
-69.522304363282487
20
-51.056848643836744
30
0
40
10
210
0
220
-0
230
1
100
AcDbArc
50
90
51
180
0
ARC
5
146
100
AcDbEntity
8
0
100
AcDbCircle
10
-69.522304363282487
20
-51.081618144569553
30
0
40
10
210
0
220
0
230
1
100
AcDbArc
50
180
51
270
0
LINE
5
147
100
AcDbEntity
8
0
100
AcDbLine
10
-64.539672769048082
20
-88.196505707936012
30
0
11
-69.522271969527822
21
-88.196505707936012
31
0
0
LINE
5
148
100
AcDbEntity
8
0
100
AcDbLine
10
-79.52227196952785
20
-98.196505707936055
30
0
11
-79.522271969527822
21
-97.933838325883201
31
0
0
LINE
5
149
100
AcDbEntity
8
0
100
AcDbLine
10
-69.522271969527822
20
-107.9338383258832
30
0
11
-64.539672769048082
21
-107.9338383258832
31
0
0
CIRCLE
5
150
100
AcDbEntity
8
0
100
AcDbCircle
10
-72.783424847951522
20
-97.865823027823097
30
0
40
3.0000000000000022
210
0
220
0
230
1
0
ARC
5
151
100
AcDbEntity
8
0
100
AcDbCircle
10
-69.522271969527822
20
-98.196505707936012
30
0
40
10
210
0
220
-0
230
1
100
AcDbArc
50
90
51
180
0
ARC
5
152
100
AcDbEntity
8
0
100
AcDbCircle
10
-69.52227196952785
20
-97.933838325883215
30
0
40
9.9999999999999822
210
0
220
0
230
1
100
AcDbArc
50
180
51
270.00000000000017
0
CIRCLE
5
153
100
AcDbEntity
8
0
100
AcDbCircle
10
-44.241588890450117
20
-98.174235025294195
30
0
40
3.9999999999999938
210
0
220
0
230
1
0
ARC
5
154
100
AcDbEntity
8
0
100
AcDbCircle
10
-40.896147152099509
20
-104.99575837833176
30
0
40
0.25000000000000355
210
0
220
-0
230
1
100
AcDbArc
50
90
51
180
0
ARC
5
155
100
AcDbEntity
8
0
100
AcDbCircle
10
-44.146147152099488
20
-107.33320773182123
30
0
40
2.9999999999999716
210
0
220
0
230
1
100
AcDbArc
50
-90.000000000000398
51
0
0
LINE
5
156
100
AcDbEntity
8
0
100
AcDbLine
10
-37.018747229588215
20
-111.09395196248084
30
0
11
-44.490750095618296
21
-111.09395196248084
31
0
0
LINE
5
157
100
AcDbEntity
8
0
100
AcDbLine
10
-45.526923515128345
20
-110.33320773182123
30
0
11
-44.490750095618296
21
-110.33320773182123
31
0
0
LINE
5
158
100
AcDbEntity
8
0
100
AcDbLine
10
-38.934896720619605
20
-104.9094667433919
30
0
11
-36.784111866227519
21
-110.75766032754096
31
0
0
LINE
5
159
100
AcDbEntity
8
0
100
AcDbLine
10
-50.046603470616979
20
-104.9094667433919
30
0
11
-52.197388325009072
21
-110.75766032754096
31
0
0
LINE
5
160
100
AcDbEntity
8
0
100
AcDbLine
10
-47.835353039137075
20
-104.99575837833176
30
0
11
-47.835353039137075
21
-107.33320773182122
31
0
0
ARC
5
161
100
AcDbEntity
8
0
100
AcDbCircle
10
-39.169532083980314
20
-104.99575837833177
30
0
40
0.25000000000001837
210
0
220
-0
230
1
100
AcDbArc
50
20.191962301367919
51
90
0
ARC
5
162
100
AcDbEntity
8
0
100
AcDbCircle
10
-48.085353039137075
20
-104.99575837833176
30
0
40
0.25000000000000355
210
0
220
-0
230
1
100
AcDbArc
50
0
51
90
0
ARC
5
163
100
AcDbEntity
8
0
100
AcDbCircle
10
-49.81196810725627
20
-104.99575837833177
30
0
40
0.25000000000002132
210
0
220
-0
230
1
100
AcDbArc
50
90
51
159.80803769863209
0
ARC
5
164
100
AcDbEntity
8
0
100
AcDbCircle
10
-44.835353039137104
20
-107.33320773182123
30
0
40
2.9999999999999716
210
0
220
0
230
1
100
AcDbArc
50
180
51
270.00000000000057
0
LINE
5
165
100
AcDbEntity
8
0
100
AcDbLine
10
-48.085353039137075
20
-104.74575837833174
30
0
11
-49.81196810725627
21
-104.74575837833174
31
0
0
LINE
5
166
100
AcDbEntity
8
0
100
AcDbLine
10
-41.146147152099516
20
-104.99575837833176
30
0
11
-41.146147152099516
21
-107.33320773182122
31
0
0
LINE
5
167
100
AcDbEntity
8
0
100
AcDbLine
10
-40.896147152099509
20
-104.74575837833174
30
0
11
-39.169532083980314
21
-104.74575837833174
31
0
0
ARC
5
168
100
AcDbEntity
8
0
100
AcDbCircle
10
-37.018747229588236
20
-110.84395196248082
30
0
40
0.25000000000002132
210
-0
220
0
230
1
100
AcDbArc
50
-89.999999999995111
51
20.191962301364288
0
LINE
5
169
100
AcDbEntity
8
0
100
AcDbLine
10
-44.835353039137075
20
-110.3332077318212
30
0
11
-45.526923515128345
21
-110.33320773182123
31
0
0
LINE
5
170
100
AcDbEntity
8
0
100
AcDbLine
10
-43.454576676108239
20
-110.33320773182123
30
0
11
-44.490750095618296
21
-110.33320773182123
31
0
0
LINE
5
171
100
AcDbEntity
8
0
100
AcDbLine
10
-44.146147152099509
20
-110.3332077318212
30
0
11
-43.454576676108239
21
-110.33320773182123
31
0
0
ARC
5
172
100
AcDbEntity
8
0
100
AcDbCircle
10
-51.962752961648349
20
-110.84395196248082
30
0
40
0.25000000000002059
210
0
220
0
230
1
100
AcDbArc
50
159.8080376986363
51
269.99999999999676
0
LINE
5
173
100
AcDbEntity
8
0
100
AcDbLine
10
-51.962752961648363
20
-111.09395196248084
30
0
11
-44.490750095618296
21
-111.09395196248084
31
0
0
LINE
5
174
100
AcDbEntity
8
0
100
AcDbLine
10
-24.368349870348325
20
-121.08058771883248
30
0
11
-4.5825185271068216
21
-121.08058771883248
31
0
0
LINE
5
175
100
AcDbEntity
8
0
100
AcDbLine
10
-39.53785035679924
20
-126.08058771883248
30
0
11
-39.537850356799254
21
-136.14695469432331
31
0
0
ARC
5
176
100
AcDbEntity
8
0
100
AcDbCircle
10
-34.537850356799218
20
-126.08058771883249
30
0
40
5.0000000000000178
210
0
220
0
230
1
100
AcDbArc
50
90.000000000000242
51
180
0
LINE
5
177
100
AcDbEntity
8
0
100
AcDbLine
10
-34.53785035679924
20
-121.08058771883248
30
0
11
-64.539672769048082
21
-121.08058771883248
31
0
0
LINE
5
178
100
AcDbEntity
8
0
100
AcDbLine
10
15.584897066310477
20
-140.87658932269767
30
0
11
-34.510873163044138
21
-141.14688191689538
31
0
0
ARC
5
179
100
AcDbEntity
8
0
100
AcDbCircle
10
-34.537850356799275
20
-136.14695469432334
30
0
40
4.9999999999999778
210
0
220
0
230
1
100
AcDbArc
50
180
51
270.3091373689382
0
CIRCLE
5
180
100
AcDbEntity
8
0
100
AcDbCircle
10
-27.721423579334822
20
-133.53513927825975
30
0
40
3.0000000000000044
210
0
220
0
230
1
0
CIRCLE
5
181
100
AcDbEntity
8
0
100
AcDbCircle
10
15.747543863394069
20
-124.9637213123768
30
0
40
2.9999999999999987
210
0
220
0
230
1
0
CIRCLE
5
182
100
AcDbEntity
8
0
100
AcDbCircle
10
-17.01072013860896
20
-97.762348498418774
30
0
40
3.0000000000000027
210
0
220
0
230
1
0
ARC
5
183
100
AcDbEntity
8
0
100
AcDbCircle
10
20.898254475830349
20
114.54986499029182
30
0
40
5.0000000000000089
210
0
220
-0
230
1
100
AcDbArc
50
0
51
89.999999999999929
0
LINE
5
184
100
AcDbEntity
8
0
100
AcDbLine
10
45.772268595055799
20
4.1806656503148432
30
0
11
45.772268595055799
21
-14.685154938529639
31
0
0
CIRCLE
5
185
100
AcDbEntity
8
0
100
AcDbCircle
10
64.505678789490034
20
82.290321773968401
30
0
40
2.9999999999999987
210
0
220
0
230
1
0
CIRCLE
5
186
100
AcDbEntity
8
0
100
AcDbCircle
10
48.505807865397074
20
-97.762348498418774
30
0
40
3.0000000000000027
210
0
220
0
230
1
0
CIRCLE
5
187
100
AcDbEntity
8
0
100
AcDbCircle
10
59.216511306122932
20
-133.53513927825978
30
0
40
3.0000000000000044
210
0
220
0
230
1
0
CIRCLE
5
188
100
AcDbEntity
8
0
100
AcDbCircle
10
56.511511294074417
20
31.421493429441448
30
0
40
4.0000000000000018
210
0
220
0
230
1
0
CIRCLE
5
189
100
AcDbEntity
8
0
100
AcDbCircle
10
15.747543863394037
20
-124.96372131237683
30
0
40
2.9999999999999987
210
0
220
0
230
1
0
LINE
5
190
100
AcDbEntity
8
0
100
AcDbLine
10
70.870291286503772
20
-126.08058771883249
30
0
11
70.870291286503786
21
-136.14695469432331
31
0
0
ARC
5
191
100
AcDbEntity
8
0
100
AcDbCircle
10
16.168749725718456
20
104.29801009938191
30
0
40
4.7000000000000064
210
0
220
0
230
1
100
AcDbArc
50
-89.999999999999901
51
0
0
LINE
5
192
100
AcDbEntity
8
0
100
AcDbLine
10
65.870291286503772
20
-121.08058771883249
30
0
11
55.700790800052857
21
-121.08058771883249
31
0
0
LINE
5
193
100
AcDbEntity
8
0
100
AcDbLine
10
15.584897066310477
20
-140.87658932269767
30
0
11
65.84331409274867
21
-141.14688191689535
31
0
0
LINE
5
194
100
AcDbEntity
8
0
100
AcDbLine
10
16.168749725718467
20
99.598010099381909
30
0
11
15.74754386339405
21
99.598010099381909
31
0
0
LINE
5
195
100
AcDbEntity
8
0
100
AcDbLine
10
20.868749725718466
20
109.64123601291801
30
0
11
20.868749725718466
21
104.29801009938191
31
0
0
LINE
5
196
100
AcDbEntity
8
0
100
AcDbLine
10
20.898254475830356
20
119.54986499029184
30
0
11
15.747543863394053
21
119.54986499029184
31
0
0
LINE
5
197
100
AcDbEntity
8
0
100
AcDbLine
10
70.86147338058106
20
69.492833925595292
30
0
11
25.898254475830356
21
69.492833925595292
31
0
0
LINE
5
198
100
AcDbEntity
8
0
100
AcDbLine
10
75.86147338058106
20
84.644309878267961
30
0
11
75.86147338058106
21
74.492833925595335
31
0
0
LINE
5
199
100
AcDbEntity
8
0
100
AcDbLine
10
25.898254475830356
20
89.644309878267961
30
0
11
70.861473380581074
21
89.644309878267961
31
0
0
ARC
5
200
100
AcDbEntity
8
0
100
AcDbCircle
10
70.86147338058106
20
84.644309878267961
30
0
40
5
210
0
220
0
230
1
100
AcDbArc
50
0
51
89.999999999999844
0
LINE
5
201
100
AcDbEntity
8
0
100
AcDbLine
10
25.898254475830356
20
89.644309878267961
30
0
11
25.898254475830356
21
114.54986499029184
31
0
0
ARC
5
202
100
AcDbEntity
8
0
100
AcDbCircle
10
65.870291286503743
20
-126.08058771883249
30
0
40
5.0000000000000178
210
0
220
0
230
1
100
AcDbArc
50
0
51
89.999999999999673
0
LINE
5
203
100
AcDbEntity
8
0
100
AcDbLine
10
55.700790800052857
20
-121.08058771883249
30
0
11
35.414953914693335
21
-121.08058771883249
31
0
0
LINE
5
204
100
AcDbEntity
8
0
100
AcDbLine
10
45.772268595055799
20
-5.5691902859738995
30
0
11
50.933957206941102
21
-5.5691902859738995
31
0
0
CIRCLE
5
205
100
AcDbEntity
8
0
100
AcDbCircle
10
38.421887974671748
20
31.543040734402794
30
0
40
3.0000000000000004
210
0
220
0
230
1
0
ARC
5
206
100
AcDbEntity
8
0
100
AcDbCircle
10
70.861473380581032
20
74.492833925595335
30
0
40
5.0000000000000355
210
0
220
0
230
1
100
AcDbArc
50
-89.999999999999702
51
0
0
ARC
5
207
100
AcDbEntity
8
0
100
AcDbCircle
10
65.8702912865038
20
-136.14695469432331
30
0
40
4.9999999999999858
210
0
220
0
230
1
100
AcDbArc
50
-90.309137368938082
51
0
0
LINE
5
208
100
AcDbEntity
8
0
100
AcDbLine
10
66.079392439902819
20
4.3058984682419243
30
0
11
71.225908794361516
21
4.3058984682419243
31
0
0
LINE
5
209
100
AcDbEntity
8
0
100
AcDbLine
10
81.225908794361544
20
-5.6941015317580925
30
0
11
81.225908794361544
21
-5.4366736685338637
31
0
0
ARC
5
210
100
AcDbEntity
8
0
100
AcDbCircle
10
71.225908794361516
20
-5.6941015317580916
30
0
40
10.000000000000036
210
-0
220
0
230
1
100
AcDbArc
50
0
51
90
0
ARC
5
211
100
AcDbEntity
8
0
100
AcDbCircle
10
71.225908794361558
20
-5.4366736685338637
30
0
40
9.9999999999999964
210
0
220
0
230
1
100
AcDbArc
50
-89.189566899614704
51
0
0
LINE
5
212
100
AcDbEntity
8
0
100
AcDbLine
10
35.414953914693335
20
-30.70963702260746
30
0
11
25.940295748784767
21
-20.507166074404658
31
0
0
LINE
5
213
100
AcDbEntity
8
0
100
AcDbLine
10
65.844835804177976
20
-30.709637021846909
30
0
11
35.414953914693335
21
-30.70963702260746
31
0
0
LINE
5
214
100
AcDbEntity
8
0
100
AcDbLine
10
65.844835804177976
20
-30.709637021846909
30
0
11
66.259753538932813
21
-15.505640411979485
31
0
0
LINE
5
215
100
AcDbEntity
8
0
100
AcDbLine
10
66.259753538932813
20
-15.505640411979485
30
0
11
71.3673513374614
21
-15.435673318848957
31
0
0
LINE
5
216
100
AcDbEntity
8
0
100
AcDbLine
10
71.3673513374614
20
-15.435673318848957
30
0
11
66.259753538932756
21
-15.505640411979485
31
0
0
LINE
5
217
100
AcDbEntity
8
0
100
AcDbLine
10
72.008539486199766
20
-15.406001088184237
30
0
11
81.011760094160351
21
-15.406001088184237
31
0
0
LINE
5
218
100
AcDbEntity
8
0
100
AcDbLine
10
86.011760094160337
20
-20.406001088184237
30
0
11
86.011760094160351
21
-30.618037137749315
31
0
0
LINE
5
219
100
AcDbEntity
8
0
100
AcDbLine
10
86.011760094160351
20
-30.618037137749315
30
0
11
95.894403469380322
21
-30.618037137749315
31
0
0
LINE
5
220
100
AcDbEntity
8
0
100
AcDbLine
10
96.144403469380322
20
-30.868037137749312
30
0
11
96.144403469380322
21
-121.20061055390485
31
0
0
LINE
5
221
100
AcDbEntity
8
0
100
AcDbLine
10
96.144403469380322
20
-121.20061055390485
30
0
11
65.870291286503772
21
-121.08058771883249
31
0
0
ARC
5
222
100
AcDbEntity
8
0
100
AcDbCircle
10
81.011760094160337
20
-20.406001088184244
30
0
40
5
210
0
220
-0
230
1
100
AcDbArc
50
0
51
89.999999999999844
0
ARC
5
223
100
AcDbEntity
8
0
100
AcDbCircle
10
95.894403469380336
20
-30.868037137749301
30
0
40
0.24999999999998579
210
-0
220
0
230
1
100
AcDbArc
50
0
51
90.000000000003254
0
CIRCLE
5
224
100
AcDbEntity
8
0
100
AcDbCircle
10
75.928451374727516
20
-97.993529630602282
30
0
40
3.9999999999999991
210
0
220
0
230
1
0
LINE
5
225
100
AcDbEntity
8
0
100
AcDbLine
10
66.079392439902819
20
41.550351865619945
30
0
11
71.047048324151376
21
41.550351865619945
31
0
0
LINE
5
226
100
AcDbEntity
8
0
100
AcDbLine
10
81.047048324151376
20
31.550351865619938
30
0
11
81.047048324151376
21
31.667460272227324
31
0
0
LINE
5
227
100
AcDbEntity
8
0
100
AcDbLine
10
71.047048324151376
20
21.667460272227324
30
0
11
66.079392439902819
21
21.667460272227324
31
0
0
CIRCLE
5
228
100
AcDbEntity
8
0
100
AcDbCircle
10
74.767280416964169
20
31.821747817163125
30
0
40
2.9999999999999991
210
0
220
0
230
1
0
ARC
5
229
100
AcDbEntity
8
0
100
AcDbCircle
10
71.047048324151376
20
31.550351865619941
30
0
40
10
210
-0
220
0
230
1
100
AcDbArc
50
0
51
90
0
ARC
5
230
100
AcDbEntity
8
0
100
AcDbCircle
10
71.04704832415139
20
31.667460272227316
30
0
40
9.9999999999999911
210
0
220
0
230
1
100
AcDbArc
50
-90.000000000000099
51
0
0
LINE
5
231
100
AcDbEntity
8
0
100
AcDbLine
10
66.079392439902819
20
69.492833925595292
30
0
11
66.079392439902819
21
41.550351865619945
31
0
0
LINE
5
232
100
AcDbEntity
8
0
100
AcDbLine
10
66.079392439902819
20
21.667460272227324
30
0
11
66.079392439902819
21
4.3058984682419243
31
0
0
LINE
5
233
100
AcDbEntity
8
0
100
AcDbLine
10
-64.539672769048082
20
-107.9338383258832
30
0
11
-64.539672769048082
21
-121.08058771883248
31
0
0
LINE
5
234
100
AcDbEntity
8
0
100
AcDbLine
10
-64.539672769048082
20
-30.995465314142947
30
0
11
-64.539672769048082
21
-41.056848643836744
31
0
0
LINE
5
235
100
AcDbEntity
8
0
100
AcDbLine
10
-64.539672769048082
20
-61.081618144569553
30
0
11
-64.539672769048082
21
-88.196505707936012
31
0
0
LINE
5
236
100
AcDbEntity
8
0
100
AcDbLine
10
-54.336233004754384
20
13.858884395594657
30
0
11
-54.336233004754384
21
4.2217587289862273
31
0
0
LINE
5
237
100
AcDbEntity
8
0
100
AcDbLine
10
-54.336233004754384
20
-15.620336919072958
30
0
11
-54.336233004754384
21
-30.995465314142944
31
0
0
LINE
5
238
100
AcDbEntity
8
0
100
AcDbLine
10
5.4341864538741724
20
72.492833925595292
30
0
11
5.4341864538741724
21
75.492833925595292
31
0
0
LINE
5
239
100
AcDbEntity
8
0
100
AcDbLine
10
5.4341864538741724
20
78.492833925595292
30
0
11
5.4341864538741724
21
81.492833925595278
31
0
0
LINE
5
240
100
AcDbEntity
8
0
100
AcDbLine
10
5.4341864538741724
20
84.492833925595292
30
0
11
5.4341864538741724
21
87.492833925595306
31
0
0
LINE
5
241
100
AcDbEntity
8
0
100
AcDbLine
10
25.898254475830356
20
72.492833925595292
30
0
11
25.898254475830356
21
75.492833925595292
31
0
0
LINE
5
242
100
AcDbEntity
8
0
100
AcDbLine
10
25.898254475830356
20
78.492833925595292
30
0
11
25.898254475830356
21
81.492833925595278
31
0
0
LINE
5
243
100
AcDbEntity
8
0
100
AcDbLine
10
25.898254475830356
20
84.492833925595292
30
0
11
25.898254475830356
21
87.492833925595306
31
0
0
LINE
5
244
100
AcDbEntity
8
0
100
AcDbLine
10
22.89825447583036
20
69.492833925595292
30
0
11
19.89825447583036
21
69.492833925595292
31
0
0
LINE
5
245
100
AcDbEntity
8
0
100
AcDbLine
10
16.89825447583036
20
69.492833925595292
30
0
11
13.898254475830358
21
69.492833925595292
31
0
0
LINE
5
246
100
AcDbEntity
8
0
100
AcDbLine
10
10.898254475830358
20
69.492833925595292
30
0
11
7.8982544758303579
21
69.492833925595292
31
0
0
LINE
5
247
100
AcDbEntity
8
0
100
AcDbLine
10
8.4341864538741724
20
89.644309878267961
30
0
11
11.434186453874172
21
89.644309878267961
31
0
0
LINE
5
248
100
AcDbEntity
8
0
100
AcDbLine
10
14.434186453874174
20
89.644309878267961
30
0
11
17.434186453874176
21
89.644309878267961
31
0
0
LINE
5
249
100
AcDbEntity
8
0
100
AcDbLine
10
20.434186453874172
20
89.644309878267961
30
0
11
23.434186453874169
21
89.644309878267961
31
0
0
LINE
5
250
100
AcDbEntity
8
0
100
AcDbLine
10
45.733439501036855
20
69.492833925595292
30
0
11
45.733439501036855
21
66.492833925595292
31
0
0
LINE
5
251
100
AcDbEntity
8
0
100
AcDbLine
10
45.733439501036855
20
63.492833925595292
30
0
11
45.733439501036855
21
60.492833925595299
31
0
0
LINE
5
252
100
AcDbEntity
8
0
100
AcDbLine
10
45.733439501036855
20
57.492833925595299
30
0
11
45.733439501036855
21
54.492833925595299
31
0
0
LINE
5
253
100
AcDbEntity
8
0
100
AcDbLine
10
45.733439501036855
20
51.492833925595306
30
0
11
45.733439501036855
21
48.492833925595306
31
0
0
LINE
5
254
100
AcDbEntity
8
0
100
AcDbLine
10
45.733439501036855
20
45.492833925595306
30
0
11
45.733439501036855
21
42.492833925595306
31
0
0
LINE
5
255
100
AcDbEntity
8
0
100
AcDbLine
10
45.733439501036855
20
39.492833925595306
30
0
11
45.733439501036855
21
36.492833925595313
31
0
0
LINE
5
256
100
AcDbEntity
8
0
100
AcDbLine
10
45.733439501036855
20
27.492833925595317
30
0
11
45.733439501036855
21
24.49283392559532
31
0
0
LINE
5
257
100
AcDbEntity
8
0
100
AcDbLine
10
45.733439501036855
20
33.492833925595313
30
0
11
45.733439501036855
21
30.492833925595313
31
0
0
LINE
5
258
100
AcDbEntity
8
0
100
AcDbLine
10
45.733439501036855
20
21.49283392559532
30
0
11
45.733439501036855
21
18.49283392559532
31
0
0
LINE
5
259
100
AcDbEntity
8
0
100
AcDbLine
10
45.733439501036855
20
15.492833925595324
30
0
11
45.733439501036855
21
12.492833925595326
31
0
0
LINE
5
260
100
AcDbEntity
8
0
100
AcDbLine
10
45.733439501036855
20
9.4928339255953276
30
0
11
45.733439501036855
21
6.4928339255953276
31
0
0
LINE
5
261
100
AcDbEntity
8
0
100
AcDbLine
10
45.772268595055799
20
-20.685154938529639
30
0
11
45.772268595055799
21
-23.685154938529642
31
0
0
LINE
5
262
100
AcDbEntity
8
0
100
AcDbLine
10
45.772268595055799
20
-26.685154938529642
30
0
11
45.772268595055799
21
-29.685154938529639
31
0
0
LINE
5
263
100
AcDbEntity
8
0
100
AcDbLine
10
25.898254475830356
20
69.492833925595292
30
0
11
25.898254475830356
21
66.492833925595292
31
0
0
LINE
5
264
100
AcDbEntity
8
0
100
AcDbLine
10
25.898254475830356
20
63.492833925595292
30
0
11
25.898254475830356
21
60.492833925595299
31
0
0
LINE
5
265
100
AcDbEntity
8
0
100
AcDbLine
10
25.898254475830356
20
57.492833925595299
30
0
11
25.898254475830356
21
54.492833925595299
31
0
0
LINE
5
266
100
AcDbEntity
8
0
100
AcDbLine
10
25.898254475830356
20
51.492833925595306
30
0
11
25.898254475830356
21
48.492833925595306
31
0
0
LINE
5
267
100
AcDbEntity
8
0
100
AcDbLine
10
25.898254475830356
20
45.492833925595306
30
0
11
25.898254475830356
21
42.492833925595306
31
0
0
LINE
5
268
100
AcDbEntity
8
0
100
AcDbLine
10
25.898254475830356
20
21.49283392559532
30
0
11
25.898254475830356
21
18.49283392559532
31
0
0
LINE
5
269
100
AcDbEntity
8
0
100
AcDbLine
10
25.898254475830356
20
39.492833925595306
30
0
11
25.898254475830356
21
36.492833925595313
31
0
0
LINE
5
270
100
AcDbEntity
8
0
100
AcDbLine
10
25.898254475830356
20
33.492833925595313
30
0
11
25.898254475830356
21
30.492833925595313
31
0
0
LINE
5
271
100
AcDbEntity
8
0
100
AcDbLine
10
25.898254475830356
20
27.492833925595317
30
0
11
25.898254475830356
21
24.49283392559532
31
0
0
LINE
5
272
100
AcDbEntity
8
0
100
AcDbLine
10
25.898254475830356
20
15.492833925595324
30
0
11
25.898254475830356
21
12.492833925595324
31
0
0
LINE
5
273
100
AcDbEntity
8
0
100
AcDbLine
10
25.898254475830356
20
-2.5071660744046675
30
0
11
25.898254475830356
21
-5.507166074404668
31
0
0
LINE
5
274
100
AcDbEntity
8
0
100
AcDbLine
10
25.898254475830356
20
9.4928339255953258
30
0
11
25.898254475830356
21
6.4928339255953276
31
0
0
LINE
5
275
100
AcDbEntity
8
0
100
AcDbLine
10
25.898254475830356
20
3.4928339255953289
30
0
11
25.898254475830356
21
0.49283392559533068
31
0
0
LINE
5
276
100
AcDbEntity
8
0
100
AcDbLine
10
25.898254475830356
20
-20.507166074404658
30
0
11
25.940295748784767
21
-20.507166074404658
31
0
0
LINE
5
277
100
AcDbEntity
8
0
100
AcDbLine
10
25.898254475830356
20
-8.5071660744046653
30
0
11
25.898254475830356
21
-11.507166074404665
31
0
0
LINE
5
278
100
AcDbEntity
8
0
100
AcDbLine
10
25.898254475830356
20
-14.507166074404662
30
0
11
25.898254475830356
21
-17.507166074404662
31
0
0
LINE
5
279
100
AcDbEntity
8
0
100
AcDbLine
10
-14.238351774248752
20
39.492833925595306
30
0
11
-14.238351774248752
21
36.492833925595306
31
0
0
LINE
5
280
100
AcDbEntity
8
0
100
AcDbLine
10
-14.238351774248752
20
63.492833925595292
30
0
11
-14.238351774248752
21
60.492833925595299
31
0
0
LINE
5
281
100
AcDbEntity
8
0
100
AcDbLine
10
-14.238351774248752
20
33.492833925595313
30
0
11
-14.238351774248752
21
30.492833925595324
31
0
0
LINE
5
282
100
AcDbEntity
8
0
100
AcDbLine
10
-14.277180868267694
20
-26.685154938529632
30
0
11
-14.277180868267694
21
-29.685154938529639
31
0
0
LINE
5
283
100
AcDbEntity
8
0
100
AcDbLine
10
-14.238351774248752
20
21.49283392559532
30
0
11
-14.238351774248752
21
18.492833925595331
31
0
0
LINE
5
284
100
AcDbEntity
8
0
100
AcDbLine
10
-14.238351774248752
20
9.4928339255953276
30
0
11
-14.238351774248752
21
6.4928339255953205
31
0
0
LINE
5
285
100
AcDbEntity
8
0
100
AcDbLine
10
-14.238351774248752
20
15.492833925595324
30
0
11
-14.238351774248752
21
12.492833925595317
31
0
0
LINE
5
286
100
AcDbEntity
8
0
100
AcDbLine
10
-14.238351774248752
20
45.492833925595306
30
0
11
-14.238351774248752
21
42.492833925595306
31
0
0
LINE
5
287
100
AcDbEntity
8
0
100
AcDbLine
10
-14.277180868267694
20
-20.685154938529635
30
0
11
-14.277180868267694
21
-23.685154938529642
31
0
0
LINE
5
288
100
AcDbEntity
8
0
100
AcDbLine
10
-14.277180868267694
20
4.1806656503148432
30
0
11
-14.277180868267694
21
-14.685154938529639
31
0
0
LINE
5
289
100
AcDbEntity
8
0
100
AcDbLine
10
-14.238351774248752
20
69.492833925595292
30
0
11
-14.238351774248752
21
66.492833925595292
31
0
0
LINE
5
290
100
AcDbEntity
8
0
100
AcDbLine
10
-14.238351774248752
20
57.492833925595299
30
0
11
-14.238351774248752
21
54.492833925595299
31
0
0
LINE
5
291
100
AcDbEntity
8
0
100
AcDbLine
10
-14.277180868267694
20
-5.5691902859738995
30
0
11
-19.438869480152992
21
-5.5691902859738995
31
0
0
LINE
5
292
100
AcDbEntity
8
0
100
AcDbLine
10
-14.238351774248752
20
51.492833925595306
30
0
11
-14.238351774248752
21
48.492833925595306
31
0
0
LINE
5
293
100
AcDbEntity
8
0
100
AcDbLine
10
-14.238351774248752
20
27.492833925595317
30
0
11
-14.238351774248752
21
24.49283392559531
31
0
0
LINE
5
294
100
AcDbEntity
8
0
100
AcDbLine
10
5.596833250957749
20
-14.507166074404658
30
0
11
5.596833250957749
21
-17.507166074404665
31
0
0
LINE
5
295
100
AcDbEntity
8
0
100
AcDbLine
10
5.596833250957749
20
57.492833925595299
30
0
11
5.596833250957749
21
54.492833925595299
31
0
0
LINE
5
296
100
AcDbEntity
8
0
100
AcDbLine
10
5.596833250957749
20
51.492833925595306
30
0
11
5.596833250957749
21
48.492833925595306
31
0
0
LINE
5
297
100
AcDbEntity
8
0
100
AcDbLine
10
5.596833250957749
20
45.492833925595306
30
0
11
5.596833250957749
21
42.492833925595306
31
0
0
LINE
5
298
100
AcDbEntity
8
0
100
AcDbLine
10
5.596833250957749
20
69.492833925595292
30
0
11
5.596833250957749
21
66.492833925595292
31
0
0
LINE
5
299
100
AcDbEntity
8
0
100
AcDbLine
10
5.596833250957749
20
63.492833925595292
30
0
11
5.596833250957749
21
60.492833925595299
31
0
0
LINE
5
300
100
AcDbEntity
8
0
100
AcDbLine
10
5.596833250957749
20
9.4928339255953276
30
0
11
5.596833250957749
21
6.4928339255953205
31
0
0
LINE
5
301
100
AcDbEntity
8
0
100
AcDbLine
10
5.596833250957749
20
27.492833925595317
30
0
11
5.596833250957749
21
24.49283392559531
31
0
0
LINE
5
302
100
AcDbEntity
8
0
100
AcDbLine
10
5.596833250957749
20
39.492833925595306
30
0
11
5.596833250957749
21
36.492833925595306
31
0
0
LINE
5
303
100
AcDbEntity
8
0
100
AcDbLine
10
5.596833250957749
20
21.49283392559532
30
0
11
5.596833250957749
21
18.492833925595331
31
0
0
LINE
5
304
100
AcDbEntity
8
0
100
AcDbLine
10
5.596833250957749
20
33.492833925595313
30
0
11
5.596833250957749
21
30.492833925595324
31
0
0
LINE
5
305
100
AcDbEntity
8
0
100
AcDbLine
10
5.596833250957749
20
-8.5071660744046618
30
0
11
5.596833250957749
21
-11.507166074404669
31
0
0
LINE
5
306
100
AcDbEntity
8
0
100
AcDbLine
10
5.596833250957749
20
15.492833925595324
30
0
11
5.596833250957749
21
12.492833925595317
31
0
0
LINE
5
307
100
AcDbEntity
8
0
100
AcDbLine
10
5.596833250957749
20
3.4928339255953311
30
0
11
5.596833250957749
21
0.49283392559532402
31
0
0
LINE
5
308
100
AcDbEntity
8
0
100
AcDbLine
10
5.596833250957749
20
-2.5071660744046653
30
0
11
5.596833250957749
21
-5.5071660744046724
31
0
0
LINE
5
309
100
AcDbEntity
8
0
100
AcDbLine
10
59.764683135251971
20
46.334983818802193
30
0
11
61.491298203371166
21
46.334983818802193
31
0
0
LINE
5
310
100
AcDbEntity
8
0
100
AcDbLine
10
59.514683135251971
20
46.084983818802186
30
0
11
59.514683135251971
21
43.747534465312725
31
0
0
LINE
5
311
100
AcDbEntity
8
0
100
AcDbLine
10
55.133906772223142
20
40.747534465312718
30
0
11
56.170080191733192
21
40.747534465312718
31
0
0
ARC
5
312
100
AcDbEntity
8
0
100
AcDbCircle
10
63.642083057763244
20
40.236790234653128
30
0
40
0.25000000000002132
210
-0
220
0
230
1
100
AcDbArc
50
-89.999999999995111
51
20.191962301363716
0
ARC
5
313
100
AcDbEntity
8
0
100
AcDbCircle
10
59.764683135251971
20
46.084983818802186
30
0
40
0.25000000000000355
210
0
220
-0
230
1
100
AcDbArc
50
90
51
180
0
LINE
5
314
100
AcDbEntity
8
0
100
AcDbLine
10
57.206253611243241
20
40.747534465312718
30
0
11
56.170080191733192
21
40.747534465312718
31
0
0
LINE
5
315
100
AcDbEntity
8
0
100
AcDbLine
10
55.825477248214412
20
40.747534465312739
30
0
11
55.133906772223142
21
40.747534465312718
31
0
0
LINE
5
316
100
AcDbEntity
8
0
100
AcDbLine
10
52.825477248214412
20
46.084983818802186
30
0
11
52.825477248214412
21
43.747534465312725
31
0
0
LINE
5
317
100
AcDbEntity
8
0
100
AcDbLine
10
50.614226816734501
20
46.171275453742041
30
0
11
48.463441962342415
21
40.323081869592983
31
0
0
LINE
5
318
100
AcDbEntity
8
0
100
AcDbLine
10
61.725933566731882
20
46.171275453742041
30
0
11
63.876718421123968
21
40.323081869592983
31
0
0
ARC
5
319
100
AcDbEntity
8
0
100
AcDbCircle
10
55.825477248214384
20
43.747534465312711
30
0
40
2.9999999999999716
210
0
220
0
230
1
100
AcDbArc
50
180
51
270.00000000000057
0
ARC
5
320
100
AcDbEntity
8
0
100
AcDbCircle
10
50.848862180095217
20
46.084983818802172
30
0
40
0.25000000000002132
210
0
220
-0
230
1
100
AcDbArc
50
90
51
159.80803769863263
0
ARC
5
321
100
AcDbEntity
8
0
100
AcDbCircle
10
48.698077325703139
20
40.236790234653128
30
0
40
0.25000000000002059
210
0
220
0
230
1
100
AcDbArc
50
159.8080376986363
51
269.99999999999511
0
ARC
5
322
100
AcDbEntity
8
0
100
AcDbCircle
10
61.491298203371166
20
46.084983818802172
30
0
40
0.25000000000001837
210
0
220
-0
230
1
100
AcDbArc
50
20.191962301367365
51
90
0
LINE
5
323
100
AcDbEntity
8
0
100
AcDbLine
10
48.698077325703117
20
39.986790234653107
30
0
11
56.170080191733192
21
39.986790234653107
31
0
0
ARC
5
324
100
AcDbEntity
8
0
100
AcDbCircle
10
52.575477248214412
20
46.084983818802186
30
0
40
0.25000000000000355
210
0
220
-0
230
1
100
AcDbArc
50
0
51
90
0
LINE
5
325
100
AcDbEntity
8
0
100
AcDbLine
10
63.642083057763266
20
39.986790234653107
30
0
11
56.170080191733192
21
39.986790234653107
31
0
0
LINE
5
326
100
AcDbEntity
8
0
100
AcDbLine
10
52.575477248214412
20
46.334983818802193
30
0
11
50.848862180095217
21
46.334983818802193
31
0
0
LINE
5
327
100
AcDbEntity
8
0
100
AcDbLine
10
56.514683135251971
20
40.747534465312739
30
0
11
57.206253611243241
21
40.747534465312718
31
0
0
ARC
5
328
100
AcDbEntity
8
0
100
AcDbCircle
10
56.514683135252
20
43.747534465312711
30
0
40
2.9999999999999716
210
0
220
0
230
1
100
AcDbArc
50
-90.000000000000568
51
0
0
LINE
5
329
100
AcDbEntity
8
0
100
AcDbLine
10
66.079392439902819
20
38.550351865619945
30
0
11
66.079392439902819
21
35.550351865619945
31
0
0
LINE
5
330
100
AcDbEntity
8
0
100
AcDbLine
10
66.079392439902819
20
32.550351865619945
30
0
11
66.079392439902819
21
29.550351865619948
31
0
0
LINE
5
331
100
AcDbEntity
8
0
100
AcDbLine
10
66.079392439902819
20
26.550351865619952
30
0
11
66.079392439902819
21
23.550351865619952
31
0
0
LINE
5
332
100
AcDbEntity
8
0
100
AcDbLine
10
-54.336233004754384
20
1.2217587289862264
30
0
11
-54.336233004754384
21
-1.778241271013774
31
0
0
LINE
5
333
100
AcDbEntity
8
0
100
AcDbLine
10
-54.336233004754384
20
-4.7782412710137745
30
0
11
-54.336233004754384
21
-7.7782412710137745
31
0
0
LINE
5
334
100
AcDbEntity
8
0
100
AcDbLine
10
-54.336233004754384
20
-10.778241271013776
30
0
11
-54.336233004754384
21
-13.778241271013776
31
0
0
LINE
5
335
100
AcDbEntity
8
0
100
AcDbLine
10
66.079392439902819
20
1.3058984682419243
30
0
11
66.079392439902819
21
-1.6941015317580761
31
0
0
LINE
5
336
100
AcDbEntity
8
0
100
AcDbLine
10
66.079392439902819
20
-4.6941015317580765
30
0
11
66.079392439902819
21
-7.6941015317580774
31
0
0
LINE
5
337
100
AcDbEntity
8
0
100
AcDbLine
10
66.079392439902819
20
-10.694101531758077
30
0
11
66.079392439902819
21
-13.694101531758079
31
0
0
LINE
5
338
100
AcDbEntity
8
0
100
AcDbLine
10
-64.539672769048082
20
-44.056848643836737
30
0
11
-64.539672769048082
21
-47.056848643836737
31
0
0
LINE
5
339
100
AcDbEntity
8
0
100
AcDbLine
10
-64.539672769048082
20
-50.056848643836737
30
0
11
-64.539672769048082
21
-53.05684864383673
31
0
0
LINE
5
340
100
AcDbEntity
8
0
100
AcDbLine
10
-64.539672769048082
20
-56.05684864383673
30
0
11
-64.539672769048082
21
-59.05684864383673
31
0
0
LINE
5
341
100
AcDbEntity
8
0
100
AcDbLine
10
-64.539672769048082
20
-91.196505707936026
30
0
11
-64.539672769048082
21
-94.196505707936041
31
0
0
LINE
5
342
100
AcDbEntity
8
0
100
AcDbLine
10
-64.539672769048082
20
-97.196505707936041
30
0
11
-64.539672769048082
21
-100.19650570793604
31
0
0
LINE
5
343
100
AcDbEntity
8
0
100
AcDbLine
10
-64.539672769048082
20
-103.19650570793605
30
0
11
-64.539672769048082
21
-106.19650570793607
31
0
0
LINE
5
344
100
AcDbEntity
8
0
100
AcDbLine
10
35.414953914693335
20
-124.08058771883249
30
0
11
35.414953914693335
21
-127.0805877188325
31
0
0
LINE
5
345
100
AcDbEntity
8
0
100
AcDbLine
10
35.414953914693335
20
-130.0805877188325
30
0
11
35.414953914693335
21
-133.0805877188325
31
0
0
LINE
5
346
100
AcDbEntity
8
0
100
AcDbLine
10
35.414953914693335
20
-136.08058771883253
30
0
11
35.414953914693335
21
-139.08058771883253
31
0
0
LINE
5
347
100
AcDbEntity
8
0
100
AcDbLine
10
11.414953914693344
20
-121.08058771883249
30
0
11
8.4149539146933439
21
-121.08058771883249
31
0
0
LINE
5
348
100
AcDbEntity
8
0
100
AcDbLine
10
5.4149539146933439
20
-121.08058771883249
30
0
11
2.414953914693343
21
-121.08058771883249
31
0
0
LINE
5
349
100
AcDbEntity
8
0
100
AcDbLine
10
-0.58504608530665747
20
-121.08058771883249
30
0
11
-3.5850460853066579
21
-121.08058771883249
31
0
0
LINE
5
350
100
AcDbEntity
8
0
100
AcDbLine
10
32.080133812094765
20
-121.08058771883249
30
0
11
35.080133812094765
21
-121.08058771883249
31
0
0
LINE
5
351
100
AcDbEntity
8
0
100
AcDbLine
10
26.080133812094761
20
-121.08058771883249
30
0
11
29.080133812094765
21
-121.08058771883249
31
0
0
LINE
5
352
100
AcDbEntity
8
0
100
AcDbLine
10
20.080133812094765
20
-121.08058771883249
30
0
11
23.080133812094765
21
-121.08058771883249
31
0
0
LINE
5
353
100
AcDbEntity
8
0
100
AcDbLine
10
-4.5825175445819024
20
-124.08058771883316
30
0
11
-4.5825143917477202
21
-127.08058771883189
31
0
0
LINE
5
354
100
AcDbEntity
8
0
100
AcDbLine
10
-4.5825129849888047
20
-130.08058771883248
30
0
11
-4.5825129849888047
21
-133.0805877188325
31
0
0
LINE
5
355
100
AcDbEntity
8
0
100
AcDbLine
10
-4.5825129849888047
20
-136.0805877188325
30
0
11
-4.5825129849888047
21
-139.0805877188325
31
0
0
LINE
5
356
100
AcDbEntity
8
0
100
AcDbLine
10
55.866740236498735
20
-32.778967859422352
30
0
11
55.866740236498735
21
-35.778967859422352
31
0
0
LINE
5
357
100
AcDbEntity
8
0
100
AcDbLine
10
55.866740236498735
20
-38.778967859422345
30
0
11
55.866740236498735
21
-41.778967859422345
31
0
0
LINE
5
358
100
AcDbEntity
8
0
100
AcDbLine
10
55.866740236498735
20
-44.778967859422345
30
0
11
55.866740236498735
21
-47.778967859422337
31
0
0
LINE
5
359
100
AcDbEntity
8
0
100
AcDbLine
10
55.866740236498735
20
-50.778967859422337
30
0
11
55.866740236498735
21
-53.778967859422337
31
0
0
LINE
5
360
100
AcDbEntity
8
0
100
AcDbLine
10
55.866740236498735
20
-68.778967859422323
30
0
11
55.866740236498735
21
-71.778967859422323
31
0
0
LINE
5
361
100
AcDbEntity
8
0
100
AcDbLine
10
55.866740236498735
20
-56.778967859422337
30
0
11
55.866740236498735
21
-59.778967859422337
31
0
0
LINE
5
362
100
AcDbEntity
8
0
100
AcDbLine
10
55.866740236498735
20
-74.778967859422323
30
0
11
55.866740236498735
21
-77.778967859422323
31
0
0
LINE
5
363
100
AcDbEntity
8
0
100
AcDbLine
10
55.866740236498735
20
-62.77896785942233
30
0
11
55.866740236498735
21
-65.778967859422323
31
0
0
LINE
5
364
100
AcDbEntity
8
0
100
AcDbLine
10
55.866740236498735
20
-80.778967859422309
30
0
11
55.866740236498735
21
-83.778967859422323
31
0
0
LINE
5
365
100
AcDbEntity
8
0
100
AcDbLine
10
55.866740236498735
20
-92.778967859422309
30
0
11
55.866740236498735
21
-95.778967859422309
31
0
0
LINE
5
366
100
AcDbEntity
8
0
100
AcDbLine
10
55.866740236498735
20
-98.778967859422323
30
0
11
55.866740236498735
21
-101.77896785942231
31
0
0
LINE
5
367
100
AcDbEntity
8
0
100
AcDbLine
10
55.866740236498735
20
-104.77896785942229
30
0
11
55.866740236498735
21
-107.77896785942231
31
0
0
LINE
5
368
100
AcDbEntity
8
0
100
AcDbLine
10
55.866740236498735
20
-86.778967859422323
30
0
11
55.866740236498735
21
-89.778967859422323
31
0
0
LINE
5
369
100
AcDbEntity
8
0
100
AcDbLine
10
55.866740236498735
20
-110.77896785942231
30
0
11
55.866740236498735
21
-113.77896785942232
31
0
0
LINE
5
370
100
AcDbEntity
8
0
100
AcDbLine
10
55.866740236498735
20
-116.77896785942232
30
0
11
55.866740236498735
21
-119.77896785942234
31
0
0
LINE
5
371
100
AcDbEntity
8
0
100
AcDbLine
10
55.866740236498735
20
-56.778967859422337
30
0
11
55.866740236498735
21
-59.778967859422337
31
0
0
LINE
5
372
100
AcDbEntity
8
0
100
AcDbLine
10
55.866740236498735
20
-38.778967859422345
30
0
11
55.866740236498735
21
-41.778967859422345
31
0
0
LINE
5
373
100
AcDbEntity
8
0
100
AcDbLine
10
55.866740236498735
20
-80.778967859422309
30
0
11
55.866740236498735
21
-83.778967859422323
31
0
0
LINE
5
374
100
AcDbEntity
8
0
100
AcDbLine
10
55.866740236498735
20
-44.778967859422345
30
0
11
55.866740236498735
21
-47.778967859422337
31
0
0
LINE
5
375
100
AcDbEntity
8
0
100
AcDbLine
10
55.866740236498735
20
-62.77896785942233
30
0
11
55.866740236498735
21
-65.778967859422323
31
0
0
LINE
5
376
100
AcDbEntity
8
0
100
AcDbLine
10
55.866740236498735
20
-110.77896785942231
30
0
11
55.866740236498735
21
-113.77896785942232
31
0
0
LINE
5
377
100
AcDbEntity
8
0
100
AcDbLine
10
55.866740236498735
20
-86.778967859422323
30
0
11
55.866740236498735
21
-89.778967859422323
31
0
0
LINE
5
378
100
AcDbEntity
8
0
100
AcDbLine
10
55.866740236498735
20
-104.77896785942229
30
0
11
55.866740236498735
21
-107.77896785942231
31
0
0
LINE
5
379
100
AcDbEntity
8
0
100
AcDbLine
10
55.866740236498735
20
-92.778967859422309
30
0
11
55.866740236498735
21
-95.778967859422309
31
0
0
LINE
5
380
100
AcDbEntity
8
0
100
AcDbLine
10
55.866740236498735
20
-98.778967859422323
30
0
11
55.866740236498735
21
-101.77896785942231
31
0
0
LINE
5
381
100
AcDbEntity
8
0
100
AcDbLine
10
55.866740236498735
20
-68.778967859422323
30
0
11
55.866740236498735
21
-71.778967859422323
31
0
0
LINE
5
382
100
AcDbEntity
8
0
100
AcDbLine
10
55.866740236498735
20
-50.778967859422337
30
0
11
55.866740236498735
21
-53.778967859422337
31
0
0
LINE
5
383
100
AcDbEntity
8
0
100
AcDbLine
10
55.866740236498735
20
-74.778967859422323
30
0
11
55.866740236498735
21
-77.778967859422323
31
0
0
LINE
5
384
100
AcDbEntity
8
0
100
AcDbLine
10
55.866740236498735
20
-32.778967859422352
30
0
11
55.866740236498735
21
-35.778967859422352
31
0
0
LINE
5
385
100
AcDbEntity
8
0
100
AcDbLine
10
55.866740236498735
20
-116.77896785942232
30
0
11
55.866740236498735
21
-119.77896785942234
31
0
0
LINE
5
386
100
AcDbEntity
8
0
100
AcDbLine
10
55.866740236498735
20
-62.77896785942233
30
0
11
55.866740236498735
21
-65.778967859422323
31
0
0
LINE
5
387
100
AcDbEntity
8
0
100
AcDbLine
10
55.866740236498735
20
-68.778967859422323
30
0
11
55.866740236498735
21
-71.778967859422323
31
0
0
LINE
5
388
100
AcDbEntity
8
0
100
AcDbLine
10
55.866740236498735
20
-44.778967859422345
30
0
11
55.866740236498735
21
-47.778967859422337
31
0
0
LINE
5
389
100
AcDbEntity
8
0
100
AcDbLine
10
55.866740236498735
20
-44.778967859422345
30
0
11
55.866740236498735
21
-47.778967859422337
31
0
0
LINE
5
390
100
AcDbEntity
8
0
100
AcDbLine
10
55.866740236498735
20
-50.778967859422337
30
0
11
55.866740236498735
21
-53.778967859422337
31
0
0
LINE
5
391
100
AcDbEntity
8
0
100
AcDbLine
10
55.866740236498735
20
-38.778967859422345
30
0
11
55.866740236498735
21
-41.778967859422345
31
0
0
LINE
5
392
100
AcDbEntity
8
0
100
AcDbLine
10
55.866740236498735
20
-62.77896785942233
30
0
11
55.866740236498735
21
-65.778967859422323
31
0
0
LINE
5
393
100
AcDbEntity
8
0
100
AcDbLine
10
55.866740236498735
20
-56.778967859422337
30
0
11
55.866740236498735
21
-59.778967859422337
31
0
0
LINE
5
394
100
AcDbEntity
8
0
100
AcDbLine
10
55.866740236498735
20
-32.778967859422352
30
0
11
55.866740236498735
21
-35.778967859422352
31
0
0
LINE
5
395
100
AcDbEntity
8
0
100
AcDbLine
10
55.866740236498735
20
-74.778967859422323
30
0
11
55.866740236498735
21
-77.778967859422323
31
0
0
LINE
5
396
100
AcDbEntity
8
0
100
AcDbLine
10
55.866740236498735
20
-68.778967859422323
30
0
11
55.866740236498735
21
-71.778967859422323
31
0
0
LINE
5
397
100
AcDbEntity
8
0
100
AcDbLine
10
55.866740236498735
20
-80.778967859422309
30
0
11
55.866740236498735
21
-83.778967859422323
31
0
0
LINE
5
398
100
AcDbEntity
8
0
100
AcDbLine
10
55.866740236498735
20
-56.778967859422337
30
0
11
55.866740236498735
21
-59.778967859422337
31
0
0
LINE
5
399
100
AcDbEntity
8
0
100
AcDbLine
10
55.866740236498735
20
-80.778967859422309
30
0
11
55.866740236498735
21
-83.778967859422323
31
0
0
LINE
5
400
100
AcDbEntity
8
0
100
AcDbLine
10
55.866740236498735
20
-32.778967859422352
30
0
11
55.866740236498735
21
-35.778967859422352
31
0
0
LINE
5
401
100
AcDbEntity
8
0
100
AcDbLine
10
55.866740236498735
20
-74.778967859422323
30
0
11
55.866740236498735
21
-77.778967859422323
31
0
0
LINE
5
402
100
AcDbEntity
8
0
100
AcDbLine
10
55.866740236498735
20
-50.778967859422337
30
0
11
55.866740236498735
21
-53.778967859422337
31
0
0
LINE
5
403
100
AcDbEntity
8
0
100
AcDbLine
10
55.866740236498735
20
-38.778967859422345
30
0
11
55.866740236498735
21
-41.778967859422345
31
0
0
LINE
5
404
100
AcDbEntity
8
0
100
AcDbLine
10
55.866740236498735
20
-110.77896785942231
30
0
11
55.866740236498735
21
-113.77896785942232
31
0
0
LINE
5
405
100
AcDbEntity
8
0
100
AcDbLine
10
55.866740236498735
20
-98.778967859422323
30
0
11
55.866740236498735
21
-101.77896785942231
31
0
0
LINE
5
406
100
AcDbEntity
8
0
100
AcDbLine
10
55.866740236498735
20
-104.77896785942229
30
0
11
55.866740236498735
21
-107.77896785942231
31
0
0
LINE
5
407
100
AcDbEntity
8
0
100
AcDbLine
10
55.866740236498735
20
-92.778967859422309
30
0
11
55.866740236498735
21
-95.778967859422309
31
0
0
LINE
5
408
100
AcDbEntity
8
0
100
AcDbLine
10
55.866740236498735
20
-110.77896785942231
30
0
11
55.866740236498735
21
-113.77896785942232
31
0
0
LINE
5
409
100
AcDbEntity
8
0
100
AcDbLine
10
55.866740236498735
20
-86.778967859422323
30
0
11
55.866740236498735
21
-89.778967859422323
31
0
0
LINE
5
410
100
AcDbEntity
8
0
100
AcDbLine
10
55.866740236498735
20
-98.778967859422323
30
0
11
55.866740236498735
21
-101.77896785942231
31
0
0
LINE
5
411
100
AcDbEntity
8
0
100
AcDbLine
10
55.866740236498735
20
-86.778967859422323
30
0
11
55.866740236498735
21
-89.778967859422323
31
0
0
LINE
5
412
100
AcDbEntity
8
0
100
AcDbLine
10
55.866740236498735
20
-92.778967859422309
30
0
11
55.866740236498735
21
-95.778967859422309
31
0
0
LINE
5
413
100
AcDbEntity
8
0
100
AcDbLine
10
55.866740236498735
20
-104.77896785942229
30
0
11
55.866740236498735
21
-107.77896785942231
31
0
0
LINE
5
414
100
AcDbEntity
8
0
100
AcDbLine
10
55.866740236498735
20
-116.77896785942232
30
0
11
55.866740236498735
21
-119.77896785942234
31
0
0
LINE
5
415
100
AcDbEntity
8
0
100
AcDbLine
10
35.41474023649873
20
-62.77896785942233
30
0
11
35.41474023649873
21
-65.778967859422323
31
0
0
LINE
5
416
100
AcDbEntity
8
0
100
AcDbLine
10
35.41474023649873
20
-68.778967859422323
30
0
11
35.41474023649873
21
-71.778967859422323
31
0
0
LINE
5
417
100
AcDbEntity
8
0
100
AcDbLine
10
35.41474023649873
20
-44.778967859422345
30
0
11
35.41474023649873
21
-47.778967859422337
31
0
0
LINE
5
418
100
AcDbEntity
8
0
100
AcDbLine
10
35.41474023649873
20
-44.778967859422345
30
0
11
35.41474023649873
21
-47.778967859422337
31
0
0
LINE
5
419
100
AcDbEntity
8
0
100
AcDbLine
10
35.41474023649873
20
-50.778967859422337
30
0
11
35.41474023649873
21
-53.778967859422337
31
0
0
LINE
5
420
100
AcDbEntity
8
0
100
AcDbLine
10
35.41474023649873
20
-38.778967859422345
30
0
11
35.41474023649873
21
-41.778967859422345
31
0
0
LINE
5
421
100
AcDbEntity
8
0
100
AcDbLine
10
35.41474023649873
20
-62.77896785942233
30
0
11
35.41474023649873
21
-65.778967859422323
31
0
0
LINE
5
422
100
AcDbEntity
8
0
100
AcDbLine
10
35.41474023649873
20
-56.778967859422337
30
0
11
35.41474023649873
21
-59.778967859422337
31
0
0
LINE
5
423
100
AcDbEntity
8
0
100
AcDbLine
10
35.41474023649873
20
-32.778967859422352
30
0
11
35.41474023649873
21
-35.778967859422352
31
0
0
LINE
5
424
100
AcDbEntity
8
0
100
AcDbLine
10
35.41474023649873
20
-74.778967859422323
30
0
11
35.41474023649873
21
-77.778967859422323
31
0
0
LINE
5
425
100
AcDbEntity
8
0
100
AcDbLine
10
35.41474023649873
20
-68.778967859422323
30
0
11
35.41474023649873
21
-71.778967859422323
31
0
0
LINE
5
426
100
AcDbEntity
8
0
100
AcDbLine
10
35.41474023649873
20
-80.778967859422309
30
0
11
35.41474023649873
21
-83.778967859422323
31
0
0
LINE
5
427
100
AcDbEntity
8
0
100
AcDbLine
10
35.41474023649873
20
-56.778967859422337
30
0
11
35.41474023649873
21
-59.778967859422337
31
0
0
LINE
5
428
100
AcDbEntity
8
0
100
AcDbLine
10
35.41474023649873
20
-80.778967859422309
30
0
11
35.41474023649873
21
-83.778967859422323
31
0
0
LINE
5
429
100
AcDbEntity
8
0
100
AcDbLine
10
35.41474023649873
20
-32.778967859422352
30
0
11
35.41474023649873
21
-35.778967859422352
31
0
0
LINE
5
430
100
AcDbEntity
8
0
100
AcDbLine
10
35.41474023649873
20
-74.778967859422323
30
0
11
35.41474023649873
21
-77.778967859422323
31
0
0
LINE
5
431
100
AcDbEntity
8
0
100
AcDbLine
10
35.41474023649873
20
-50.778967859422337
30
0
11
35.41474023649873
21
-53.778967859422337
31
0
0
LINE
5
432
100
AcDbEntity
8
0
100
AcDbLine
10
35.41474023649873
20
-38.778967859422345
30
0
11
35.41474023649873
21
-41.778967859422345
31
0
0
LINE
5
433
100
AcDbEntity
8
0
100
AcDbLine
10
35.41474023649873
20
-110.77896785942231
30
0
11
35.41474023649873
21
-113.77896785942232
31
0
0
LINE
5
434
100
AcDbEntity
8
0
100
AcDbLine
10
35.41474023649873
20
-98.778967859422323
30
0
11
35.41474023649873
21
-101.77896785942231
31
0
0
LINE
5
435
100
AcDbEntity
8
0
100
AcDbLine
10
35.41474023649873
20
-104.77896785942229
30
0
11
35.41474023649873
21
-107.77896785942231
31
0
0
LINE
5
436
100
AcDbEntity
8
0
100
AcDbLine
10
35.41474023649873
20
-92.778967859422309
30
0
11
35.41474023649873
21
-95.778967859422309
31
0
0
LINE
5
437
100
AcDbEntity
8
0
100
AcDbLine
10
35.41474023649873
20
-110.77896785942231
30
0
11
35.41474023649873
21
-113.77896785942232
31
0
0
LINE
5
438
100
AcDbEntity
8
0
100
AcDbLine
10
35.41474023649873
20
-86.778967859422323
30
0
11
35.41474023649873
21
-89.778967859422323
31
0
0
LINE
5
439
100
AcDbEntity
8
0
100
AcDbLine
10
35.41474023649873
20
-98.778967859422323
30
0
11
35.41474023649873
21
-101.77896785942231
31
0
0
LINE
5
440
100
AcDbEntity
8
0
100
AcDbLine
10
35.41474023649873
20
-86.778967859422323
30
0
11
35.41474023649873
21
-89.778967859422323
31
0
0
LINE
5
441
100
AcDbEntity
8
0
100
AcDbLine
10
35.41474023649873
20
-92.778967859422309
30
0
11
35.41474023649873
21
-95.778967859422309
31
0
0
LINE
5
442
100
AcDbEntity
8
0
100
AcDbLine
10
35.41474023649873
20
-104.77896785942229
30
0
11
35.41474023649873
21
-107.77896785942231
31
0
0
LINE
5
443
100
AcDbEntity
8
0
100
AcDbLine
10
35.41474023649873
20
-116.77896785942232
30
0
11
35.41474023649873
21
-119.77896785942234
31
0
0
LINE
5
444
100
AcDbEntity
8
0
100
AcDbLine
10
-3.919652509710625
20
-56.778967859422323
30
0
11
-3.919652509710625
21
-59.778967859422337
31
0
0
LINE
5
445
100
AcDbEntity
8
0
100
AcDbLine
10
-3.919652509710625
20
-68.778967859422323
30
0
11
-3.919652509710625
21
-71.778967859422323
31
0
0
LINE
5
446
100
AcDbEntity
8
0
100
AcDbLine
10
-3.919652509710625
20
-50.778967859422352
30
0
11
-3.919652509710625
21
-53.778967859422323
31
0
0
LINE
5
447
100
AcDbEntity
8
0
100
AcDbLine
10
-3.919652509710625
20
-32.778967859422337
30
0
11
-3.919652509710625
21
-35.778967859422352
31
0
0
LINE
5
448
100
AcDbEntity
8
0
100
AcDbLine
10
-3.919652509710625
20
-62.778967859422337
30
0
11
-3.919652509710625
21
-65.778967859422352
31
0
0
LINE
5
449
100
AcDbEntity
8
0
100
AcDbLine
10
-3.919652509710625
20
-56.778967859422323
30
0
11
-3.919652509710625
21
-59.778967859422337
31
0
0
LINE
5
450
100
AcDbEntity
8
0
100
AcDbLine
10
-3.919652509710625
20
-38.778967859422352
30
0
11
-3.919652509710625
21
-41.778967859422366
31
0
0
LINE
5
451
100
AcDbEntity
8
0
100
AcDbLine
10
-3.919652509710625
20
-44.778967859422337
30
0
11
-3.919652509710625
21
-47.778967859422337
31
0
0
LINE
5
452
100
AcDbEntity
8
0
100
AcDbLine
10
-3.919652509710625
20
-86.778967859422323
30
0
11
-3.919652509710625
21
-89.778967859422337
31
0
0
LINE
5
453
100
AcDbEntity
8
0
100
AcDbLine
10
-3.919652509710625
20
-86.778967859422323
30
0
11
-3.919652509710625
21
-89.778967859422337
31
0
0
LINE
5
454
100
AcDbEntity
8
0
100
AcDbLine
10
-3.919652509710625
20
-80.778967859422309
30
0
11
-3.919652509710625
21
-83.778967859422323
31
0
0
LINE
5
455
100
AcDbEntity
8
0
100
AcDbLine
10
-3.919652509710625
20
-92.778967859422309
30
0
11
-3.919652509710625
21
-95.778967859422309
31
0
0
LINE
5
456
100
AcDbEntity
8
0
100
AcDbLine
10
-3.919652509710625
20
-98.778967859422323
30
0
11
-3.919652509710625
21
-101.77896785942229
31
0
0
LINE
5
457
100
AcDbEntity
8
0
100
AcDbLine
10
-3.919652509710625
20
-104.77896785942229
30
0
11
-3.919652509710625
21
-107.77896785942231
31
0
0
LINE
5
458
100
AcDbEntity
8
0
100
AcDbLine
10
-3.919652509710625
20
-104.77896785942229
30
0
11
-3.919652509710625
21
-107.77896785942231
31
0
0
LINE
5
459
100
AcDbEntity
8
0
100
AcDbLine
10
-3.919652509710625
20
-110.77896785942231
30
0
11
-3.919652509710625
21
-113.77896785942232
31
0
0
LINE
5
460
100
AcDbEntity
8
0
100
AcDbLine
10
-3.919652509710625
20
-98.778967859422323
30
0
11
-3.919652509710625
21
-101.77896785942229
31
0
0
LINE
5
461
100
AcDbEntity
8
0
100
AcDbLine
10
-3.919652509710625
20
-74.778967859422337
30
0
11
-3.919652509710625
21
-77.778967859422309
31
0
0
LINE
5
462
100
AcDbEntity
8
0
100
AcDbLine
10
-3.919652509710625
20
-74.778967859422337
30
0
11
-3.919652509710625
21
-77.778967859422309
31
0
0
LINE
5
463
100
AcDbEntity
8
0
100
AcDbLine
10
-3.919652509710625
20
-92.778967859422309
30
0
11
-3.919652509710625
21
-95.778967859422309
31
0
0
LINE
5
464
100
AcDbEntity
8
0
100
AcDbLine
10
-3.919652509710625
20
-116.77896785942232
30
0
11
-3.919652509710625
21
-119.77896785942234
31
0
0
LINE
5
465
100
AcDbEntity
8
0
100
AcDbLine
10
-3.919652509710625
20
-44.778967859422337
30
0
11
-3.919652509710625
21
-47.778967859422337
31
0
0
LINE
5
466
100
AcDbEntity
8
0
100
AcDbLine
10
-3.919652509710625
20
-80.778967859422309
30
0
11
-3.919652509710625
21
-83.778967859422323
31
0
0
LINE
5
467
100
AcDbEntity
8
0
100
AcDbLine
10
-3.919652509710625
20
-38.778967859422352
30
0
11
-3.919652509710625
21
-41.778967859422366
31
0
0
LINE
5
468
100
AcDbEntity
8
0
100
AcDbLine
10
-3.919652509710625
20
-110.77896785942231
30
0
11
-3.919652509710625
21
-113.77896785942232
31
0
0
LINE
5
469
100
AcDbEntity
8
0
100
AcDbLine
10
-3.919652509710625
20
-32.778967859422337
30
0
11
-3.919652509710625
21
-35.778967859422352
31
0
0
LINE
5
470
100
AcDbEntity
8
0
100
AcDbLine
10
-3.919652509710625
20
-68.778967859422323
30
0
11
-3.919652509710625
21
-71.778967859422323
31
0
0
LINE
5
471
100
AcDbEntity
8
0
100
AcDbLine
10
-3.919652509710625
20
-62.778967859422337
30
0
11
-3.919652509710625
21
-65.778967859422352
31
0
0
LINE
5
472
100
AcDbEntity
8
0
100
AcDbLine
10
-3.919652509710625
20
-50.778967859422352
30
0
11
-3.919652509710625
21
-53.778967859422323
31
0
0
LINE
5
473
100
AcDbEntity
8
0
100
AcDbLine
10
-24.371652509710628
20
-98.778967859422323
30
0
11
-24.371652509710628
21
-101.77896785942229
31
0
0
LINE
5
474
100
AcDbEntity
8
0
100
AcDbLine
10
-24.371652509710628
20
-92.778967859422309
30
0
11
-24.371652509710628
21
-95.778967859422309
31
0
0
LINE
5
475
100
AcDbEntity
8
0
100
AcDbLine
10
-24.371652509710628
20
-98.778967859422323
30
0
11
-24.371652509710628
21
-101.77896785942229
31
0
0
LINE
5
476
100
AcDbEntity
8
0
100
AcDbLine
10
-24.371652509710628
20
-62.778967859422337
30
0
11
-24.371652509710628
21
-65.778967859422352
31
0
0
LINE
5
477
100
AcDbEntity
8
0
100
AcDbLine
10
-24.371652509710628
20
-104.77896785942229
30
0
11
-24.371652509710628
21
-107.77896785942231
31
0
0
LINE
5
478
100
AcDbEntity
8
0
100
AcDbLine
10
-24.371652509710628
20
-62.778967859422337
30
0
11
-24.371652509710628
21
-65.778967859422352
31
0
0
LINE
5
479
100
AcDbEntity
8
0
100
AcDbLine
10
-24.371652509710628
20
-74.778967859422337
30
0
11
-24.371652509710628
21
-77.778967859422309
31
0
0
LINE
5
480
100
AcDbEntity
8
0
100
AcDbLine
10
-24.371652509710628
20
-68.778967859422323
30
0
11
-24.371652509710628
21
-71.778967859422323
31
0
0
LINE
5
481
100
AcDbEntity
8
0
100
AcDbLine
10
-24.371652509710628
20
-92.778967859422309
30
0
11
-24.371652509710628
21
-95.778967859422309
31
0
0
LINE
5
482
100
AcDbEntity
8
0
100
AcDbLine
10
-24.371652509710628
20
-50.778967859422352
30
0
11
-24.371652509710628
21
-53.778967859422323
31
0
0
LINE
5
483
100
AcDbEntity
8
0
100
AcDbLine
10
-24.371652509710628
20
-74.778967859422337
30
0
11
-24.371652509710628
21
-77.778967859422309
31
0
0
LINE
5
484
100
AcDbEntity
8
0
100
AcDbLine
10
-24.371652509710628
20
-98.778967859422323
30
0
11
-24.371652509710628
21
-101.77896785942229
31
0
0
LINE
5
485
100
AcDbEntity
8
0
100
AcDbLine
10
-24.371652509710628
20
-56.778967859422323
30
0
11
-24.371652509710628
21
-59.778967859422337
31
0
0
LINE
5
486
100
AcDbEntity
8
0
100
AcDbLine
10
-24.371652509710628
20
-86.778967859422323
30
0
11
-24.371652509710628
21
-89.778967859422337
31
0
0
LINE
5
487
100
AcDbEntity
8
0
100
AcDbLine
10
-24.371652509710628
20
-86.778967859422323
30
0
11
-24.371652509710628
21
-89.778967859422337
31
0
0
LINE
5
488
100
AcDbEntity
8
0
100
AcDbLine
10
-24.371652509710628
20
-68.778967859422323
30
0
11
-24.371652509710628
21
-71.778967859422323
31
0
0
LINE
5
489
100
AcDbEntity
8
0
100
AcDbLine
10
-24.371652509710628
20
-98.778967859422323
30
0
11
-24.371652509710628
21
-101.77896785942229
31
0
0
LINE
5
490
100
AcDbEntity
8
0
100
AcDbLine
10
-24.371652509710628
20
-50.778967859422352
30
0
11
-24.371652509710628
21
-53.778967859422323
31
0
0
LINE
5
491
100
AcDbEntity
8
0
100
AcDbLine
10
-24.371652509710628
20
-56.778967859422323
30
0
11
-24.371652509710628
21
-59.778967859422337
31
0
0
LINE
5
492
100
AcDbEntity
8
0
100
AcDbLine
10
-24.371652509710628
20
-80.778967859422309
30
0
11
-24.371652509710628
21
-83.778967859422323
31
0
0
LINE
5
493
100
AcDbEntity
8
0
100
AcDbLine
10
-24.371652509710628
20
-38.778967859422352
30
0
11
-24.371652509710628
21
-41.778967859422366
31
0
0
LINE
5
494
100
AcDbEntity
8
0
100
AcDbLine
10
-24.371652509710628
20
-92.778967859422309
30
0
11
-24.371652509710628
21
-95.778967859422309
31
0
0
LINE
5
495
100
AcDbEntity
8
0
100
AcDbLine
10
-24.371652509710628
20
-50.778967859422352
30
0
11
-24.371652509710628
21
-53.778967859422323
31
0
0
LINE
5
496
100
AcDbEntity
8
0
100
AcDbLine
10
-24.371652509710628
20
-86.778967859422323
30
0
11
-24.371652509710628
21
-89.778967859422337
31
0
0
LINE
5
497
100
AcDbEntity
8
0
100
AcDbLine
10
-24.371652509710628
20
-80.778967859422309
30
0
11
-24.371652509710628
21
-83.778967859422323
31
0
0
LINE
5
498
100
AcDbEntity
8
0
100
AcDbLine
10
-24.371652509710628
20
-80.778967859422309
30
0
11
-24.371652509710628
21
-83.778967859422323
31
0
0
LINE
5
499
100
AcDbEntity
8
0
100
AcDbLine
10
-24.371652509710628
20
-86.778967859422323
30
0
11
-24.371652509710628
21
-89.778967859422337
31
0
0
LINE
5
500
100
AcDbEntity
8
0
100
AcDbLine
10
-24.371652509710628
20
-38.778967859422352
30
0
11
-24.371652509710628
21
-41.778967859422366
31
0
0
LINE
5
501
100
AcDbEntity
8
0
100
AcDbLine
10
-24.371652509710628
20
-32.778967859422337
30
0
11
-24.371652509710628
21
-35.778967859422352
31
0
0
LINE
5
502
100
AcDbEntity
8
0
100
AcDbLine
10
-24.371652509710628
20
-62.778967859422337
30
0
11
-24.371652509710628
21
-65.778967859422352
31
0
0
LINE
5
503
100
AcDbEntity
8
0
100
AcDbLine
10
-24.371652509710628
20
-104.77896785942229
30
0
11
-24.371652509710628
21
-107.77896785942231
31
0
0
LINE
5
504
100
AcDbEntity
8
0
100
AcDbLine
10
-24.371652509710628
20
-92.778967859422309
30
0
11
-24.371652509710628
21
-95.778967859422309
31
0
0
LINE
5
505
100
AcDbEntity
8
0
100
AcDbLine
10
-24.371652509710628
20
-50.778967859422352
30
0
11
-24.371652509710628
21
-53.778967859422323
31
0
0
LINE
5
506
100
AcDbEntity
8
0
100
AcDbLine
10
-24.371652509710628
20
-44.778967859422337
30
0
11
-24.371652509710628
21
-47.778967859422337
31
0
0
LINE
5
507
100
AcDbEntity
8
0
100
AcDbLine
10
-24.371652509710628
20
-32.778967859422337
30
0
11
-24.371652509710628
21
-35.778967859422352
31
0
0
LINE
5
508
100
AcDbEntity
8
0
100
AcDbLine
10
-24.371652509710628
20
-104.77896785942229
30
0
11
-24.371652509710628
21
-107.77896785942231
31
0
0
LINE
5
509
100
AcDbEntity
8
0
100
AcDbLine
10
-24.371652509710628
20
-38.778967859422352
30
0
11
-24.371652509710628
21
-41.778967859422366
31
0
0
LINE
5
510
100
AcDbEntity
8
0
100
AcDbLine
10
-24.371652509710628
20
-104.77896785942229
30
0
11
-24.371652509710628
21
-107.77896785942231
31
0
0
LINE
5
511
100
AcDbEntity
8
0
100
AcDbLine
10
-24.371652509710628
20
-62.778967859422337
30
0
11
-24.371652509710628
21
-65.778967859422352
31
0
0
LINE
5
512
100
AcDbEntity
8
0
100
AcDbLine
10
-24.371652509710628
20
-44.778967859422337
30
0
11
-24.371652509710628
21
-47.778967859422337
31
0
0
LINE
5
513
100
AcDbEntity
8
0
100
AcDbLine
10
-24.371652509710628
20
-56.778967859422323
30
0
11
-24.371652509710628
21
-59.778967859422337
31
0
0
LINE
5
514
100
AcDbEntity
8
0
100
AcDbLine
10
-24.371652509710628
20
-56.778967859422323
30
0
11
-24.371652509710628
21
-59.778967859422337
31
0
0
LINE
5
515
100
AcDbEntity
8
0
100
AcDbLine
10
-24.371652509710628
20
-38.778967859422352
30
0
11
-24.371652509710628
21
-41.778967859422366
31
0
0
LINE
5
516
100
AcDbEntity
8
0
100
AcDbLine
10
-24.371652509710628
20
-44.778967859422337
30
0
11
-24.371652509710628
21
-47.778967859422337
31
0
0
LINE
5
517
100
AcDbEntity
8
0
100
AcDbLine
10
-24.371652509710628
20
-68.778967859422323
30
0
11
-24.371652509710628
21
-71.778967859422323
31
0
0
LINE
5
518
100
AcDbEntity
8
0
100
AcDbLine
10
-24.371652509710628
20
-80.778967859422309
30
0
11
-24.371652509710628
21
-83.778967859422323
31
0
0
LINE
5
519
100
AcDbEntity
8
0
100
AcDbLine
10
-24.371652509710628
20
-32.778967859422337
30
0
11
-24.371652509710628
21
-35.778967859422352
31
0
0
LINE
5
520
100
AcDbEntity
8
0
100
AcDbLine
10
-24.371652509710628
20
-74.778967859422337
30
0
11
-24.371652509710628
21
-77.778967859422309
31
0
0
LINE
5
521
100
AcDbEntity
8
0
100
AcDbLine
10
-24.371652509710628
20
-44.778967859422337
30
0
11
-24.371652509710628
21
-47.778967859422337
31
0
0
LINE
5
522
100
AcDbEntity
8
0
100
AcDbLine
10
-24.371652509710628
20
-68.778967859422323
30
0
11
-24.371652509710628
21
-71.778967859422323
31
0
0
LINE
5
523
100
AcDbEntity
8
0
100
AcDbLine
10
-24.371652509710628
20
-32.778967859422337
30
0
11
-24.371652509710628
21
-35.778967859422352
31
0
0
LINE
5
524
100
AcDbEntity
8
0
100
AcDbLine
10
-24.371652509710628
20
-74.778967859422337
30
0
11
-24.371652509710628
21
-77.778967859422309
31
0
0
LINE
5
525
100
AcDbEntity
8
0
100
AcDbLine
10
-24.371652509710628
20
-116.77896785942232
30
0
11
-24.371652509710628
21
-119.77896785942234
31
0
0
LINE
5
526
100
AcDbEntity
8
0
100
AcDbLine
10
-24.371652509710628
20
-110.77896785942231
30
0
11
-24.371652509710628
21
-113.77896785942232
31
0
0
LINE
5
527
100
AcDbEntity
8
0
100
AcDbLine
10
-24.371652509710628
20
-110.77896785942231
30
0
11
-24.371652509710628
21
-113.77896785942232
31
0
0
LINE
5
528
100
AcDbEntity
8
0
100
AcDbLine
10
-24.371652509710628
20
-110.77896785942231
30
0
11
-24.371652509710628
21
-113.77896785942232
31
0
0
LINE
5
529
100
AcDbEntity
8
0
100
AcDbLine
10
-24.371652509710628
20
-110.77896785942231
30
0
11
-24.371652509710628
21
-113.77896785942232
31
0
0
LINE
5
530
100
AcDbEntity
8
0
100
AcDbLine
10
-24.371652509710628
20
-116.77896785942232
30
0
11
-24.371652509710628
21
-119.77896785942234
31
0
0
LINE
5
531
100
AcDbEntity
8
0
100
AcDbLine
10
-24.371652509710628
20
-116.77896785942232
30
0
11
-24.371652509710628
21
-119.77896785942234
31
0
0
ENDSEC
0
SECTION
2
OBJECTS
0
DICTIONARY
5
C
100
AcDbDictionary
3
ACAD_GROUP
350
D
3
ACAD_MLINESTYLE
350
17
0
DICTIONARY
5
D
100
AcDbDictionary
0
DICTIONARY
5
1A
330
C
100
AcDbDictionary
0
DICTIONARY
5
17
100
AcDbDictionary
0
ENDSEC
0
EOF
