  0
SECTION
  2
HEADER
  9
$ACADVER
  1
AC1009
  0
ENDSEC
  0
SECTION
  2
TABLES
  0
TABLE
  2
LAYER
  70
1
  0
LAYER
  2
Layer_10
  70
0
  62
12
  6
CONTINUOUS
  0
ENDTAB
  0
ENDSEC
  0
SECTION
  2
ENTITIES
  0
POLYLINE
  5
90
  8
Layer_10
  62
12
  66
1
  10
0
  20
0
  30
0
  0
VERTEX
  5
90
  8
Layer_10
  10
76.097893
  20
132.88777
  0
VERTEX
  5
91
  8
Layer_10
  10
75.822227
  20
172.48329
  0
VERTEX
  5
92
  8
Layer_10
  10
75.82235
  20
173.06416
  42
0.2001461
  0
VERTEX
  5
93
  8
Layer_10
  10
74.637848
  20
175.9062
  42
0.20014733
  0
VERTEX
  5
94
  8
Layer_10
  10
71.785118
  20
177.06477
  0
VERTEX
  5
95
  8
Layer_10
  10
60.467827
  20
176.95946
  42
0.1990045
  0
VERTEX
  5
96
  8
Layer_10
  10
57.649223
  20
175.76039
  42
0.19903985
  0
VERTEX
  5
97
  8
Layer_10
  10
56.505272
  20
172.91896
  0
VERTEX
  5
98
  8
Layer_10
  10
56.497856
  20
173.64391
  0
VERTEX
  5
99
  8
Layer_10
  10
56.437172
  20
133.40303
  0
VERTEX
  5
9a
  8
Layer_10
  10
33.68782
  20
133.5121
  0
VERTEX
  5
9b
  8
Layer_10
  10
32.308319
  20
133.51869
  42
0.40890484
  0
VERTEX
  5
9c
  8
Layer_10
  10
27.787903
  20
129.12196
  0
VERTEX
  5
9d
  8
Layer_10
  10
27.658783
  20
123.49507
  0
VERTEX
  5
9e
  8
Layer_10
  10
27.817703
  20
117.86894
  42
0.40891442
  0
VERTEX
  5
9f
  8
Layer_10
  10
32.361206
  20
113.49608
  0
VERTEX
  5
a0
  8
Layer_10
  10
33.740631
  20
113.51006
  0
VERTEX
  5
a1
  8
Layer_10
  10
56.489021
  20
113.73927
  0
VERTEX
  5
a2
  8
Layer_10
  10
56.762337
  20
73.499191
  0
VERTEX
  5
a3
  8
Layer_10
  10
56.765862
  20
74.224213
  42
0.19904153
  0
VERTEX
  5
a4
  8
Layer_10
  10
57.92482
  20
71.388855
  42
0.19902403
  0
VERTEX
  5
a5
  8
Layer_10
  10
60.749771
  20
70.204666
  0
VERTEX
  5
a6
  8
Layer_10
  10
72.067467
  20
70.159103
  42
0.20014924
  0
VERTEX
  5
a7
  8
Layer_10
  10
74.914009
  20
71.332748
  42
0.20014564
  0
VERTEX
  5
a8
  8
Layer_10
  10
76.083412
  20
74.181122
  0
VERTEX
  5
a9
  8
Layer_10
  10
76.079063
  20
74.822769
  0
VERTEX
  5
aa
  8
Layer_10
  10
76.145966
  20
114.59734
  0
SEQEND
  0
POLYLINE
  5
ac
  8
Layer_10
  62
12
  66
1
  10
0
  20
0
  30
0
  0
VERTEX
  5
ac
  8
Layer_10
  10
261.99258
  20
107.52885
  0
VERTEX
  5
ad
  8
Layer_10
  10
261.95923
  20
112.52873
  0
SEQEND
  0
POLYLINE
  5
af
  8
Layer_10
  62
12
  66
1
  10
0
  20
0
  30
0
  0
VERTEX
  5
af
  8
Layer_10
  10
104.80202
  20
153.00456
  0
VERTEX
  5
b0
  8
Layer_10
  10
109.80196
  20
153.03059
  0
SEQEND
  0
POLYLINE
  5
b2
  8
Layer_10
  62
12
  66
1
  10
0
  20
0
  30
0
  0
VERTEX
  5
b2
  8
Layer_10
  10
81.936714
  20
133.92021
  0
VERTEX
  5
b3
  8
Layer_10
  10
85.95739
  20
133.95711
  0
SEQEND
  0
POLYLINE
  5
b5
  8
Layer_10
  62
12
  66
1
  10
0
  20
0
  30
0
  0
VERTEX
  5
b5
  8
Layer_10
  10
144.55531
  20
114.13246
  0
VERTEX
  5
b6
  8
Layer_10
  10
139.55542
  20
114.09911
  0
SEQEND
  0
POLYLINE
  5
b8
  8
Layer_10
  62
12
  66
1
  10
0
  20
0
  30
0
  0
VERTEX
  5
b8
  8
Layer_10
  10
261.85913
  20
127.5284
  0
VERTEX
  5
b9
  8
Layer_10
  10
261.89252
  20
122.52849
  0
SEQEND
  0
POLYLINE
  5
bb
  8
Layer_10
  62
12
  66
1
  10
0
  20
0
  30
0
  0
VERTEX
  5
bb
  8
Layer_10
  10
37.263168
  20
118.78191
  0
VERTEX
  5
bc
  8
Layer_10
  10
43.014095
  20
118.77299
  42
0.19892048
  0
VERTEX
  5
bd
  8
Layer_10
  10
46.55188
  20
120.23198
  42
0.1989216
  0
VERTEX
  5
be
  8
Layer_10
  10
48.02179
  20
123.76524
  0
VERTEX
  5
bf
  8
Layer_10
  10
48.0214
  20
123.47581
  42
0.0075137993
  0
VERTEX
  5
c0
  8
Layer_10
  10
48.019489
  20
123.62053
  0
VERTEX
  5
c1
  8
Layer_10
  10
48.022938
  20
123.33244
  42
0.41420448
  0
VERTEX
  5
c2
  8
Layer_10
  10
42.988892
  20
128.29823
  0
VERTEX
  5
c3
  8
Layer_10
  10
37.238144
  20
128.25896
  0
SEQEND
  0
POLYLINE
  5
c5
  8
Layer_10
  62
12
  70
1
  66
1
  10
0
  20
0
  30
0
  0
VERTEX
  5
c5
  8
Layer_10
  10
109.17947
  20
83.970901
  42
0.41421172
  0
VERTEX
  5
c6
  8
Layer_10
  10
113.60876
  20
79.600327
  42
0.4142154
  0
VERTEX
  5
c7
  8
Layer_10
  10
117.97929
  20
84.029617
  42
0.4142154
  0
VERTEX
  5
c8
  8
Layer_10
  10
113.55003
  20
88.400223
  42
0.41420896
  0
SEQEND
  0
POLYLINE
  5
ca
  8
Layer_10
  62
12
  70
1
  66
1
  10
0
  20
0
  30
0
  0
VERTEX
  5
ca
  8
Layer_10
  10
263.22662
  20
124.31139
  42
0.19889871
  0
VERTEX
  5
cb
  8
Layer_10
  10
264.04504
  20
122.37224
  42
0.19893689
  0
VERTEX
  5
cc
  8
Layer_10
  10
265.99493
  20
121.57979
  42
0.4142165
  0
VERTEX
  5
cd
  8
Layer_10
  10
268.7265
  20
124.34807
  42
0.41420768
  0
VERTEX
  5
ce
  8
Layer_10
  10
265.95822
  20
127.07967
  42
0.41421358
  0
SEQEND
  0
POLYLINE
  5
d0
  8
Layer_10
  62
12
  66
1
  10
0
  20
0
  30
0
  0
VERTEX
  5
d0
  8
Layer_10
  10
75.822227
  20
172.48329
  0
VERTEX
  5
d1
  8
Layer_10
  10
103.34261
  20
172.4778
  0
VERTEX
  5
d2
  8
Layer_10
  10
122.61124
  20
172.58467
  0
VERTEX
  5
d3
  8
Layer_10
  10
139.38939
  20
172.55769
  0
VERTEX
  5
d4
  8
Layer_10
  10
163.23361
  20
172.55965
  0
VERTEX
  5
d5
  8
Layer_10
  10
173.0722
  20
172.61571
  0
VERTEX
  5
d6
  8
Layer_10
  10
173.7049
  20
172.61885
  0
VERTEX
  5
d7
  8
Layer_10
  10
173.84561
  20
143.86644
  0
VERTEX
  5
d8
  8
Layer_10
  10
163.07239
  20
133.43141
  0
SEQEND
  0
POLYLINE
  5
da
  8
Layer_10
  62
12
  66
1
  10
0
  20
0
  30
0
  0
VERTEX
  5
da
  8
Layer_10
  10
94.802155
  20
152.95253
  0
VERTEX
  5
db
  8
Layer_10
  10
99.802094
  20
152.97859
  0
SEQEND
  0
POLYLINE
  5
dd
  8
Layer_10
  62
12
  70
1
  66
1
  10
0
  20
0
  30
0
  0
VERTEX
  5
dd
  8
Layer_10
  10
239.67255
  20
153.03233
  42
0.41420768
  0
VERTEX
  5
de
  8
Layer_10
  10
242.40411
  20
155.80061
  42
0.41421354
  0
VERTEX
  5
df
  8
Layer_10
  10
239.63583
  20
158.53221
  42
0.41421358
  0
VERTEX
  5
e0
  8
Layer_10
  10
236.90424
  20
155.76393
  42
0.41421945
  0
SEQEND
  0
POLYLINE
  5
e2
  8
Layer_10
  62
12
  66
1
  10
0
  20
0
  30
0
  0
VERTEX
  5
e2
  8
Layer_10
  10
85.14753
  20
94.770401
  0
VERTEX
  5
e3
  8
Layer_10
  10
90.14743
  20
94.803772
  0
SEQEND
  0
POLYLINE
  5
e5
  8
Layer_10
  62
12
  70
1
  66
1
  10
0
  20
0
  30
0
  0
VERTEX
  5
e5
  8
Layer_10
  10
242.70041
  20
184.31316
  42
0.19891976
  0
VERTEX
  5
e6
  8
Layer_10
  10
239.5806
  20
185.58107
  42
0.4142154
  0
VERTEX
  5
e7
  8
Layer_10
  10
235.21005
  20
181.15181
  42
0.41420621
  0
VERTEX
  5
e8
  8
Layer_10
  10
239.63931
  20
176.78133
  42
0.41420437
  0
VERTEX
  5
e9
  8
Layer_10
  10
244.00986
  20
181.21053
  42
0.19891517
  0
SEQEND
  0
POLYLINE
  5
eb
  8
Layer_10
  62
12
  66
1
  10
0
  20
0
  30
0
  0
VERTEX
  5
eb
  8
Layer_10
  10
95.650841
  20
157.48073
  0
VERTEX
  5
ec
  8
Layer_10
  10
95.692474
  20
168.16927
  0
SEQEND
  0
POLYLINE
  5
ee
  8
Layer_10
  62
12
  66
1
  10
0
  20
0
  30
0
  0
VERTEX
  5
ee
  8
Layer_10
  10
91.429001
  20
87.366241
  42
-0.1445286
  0
VERTEX
  5
ef
  8
Layer_10
  10
93.668991
  20
87.102493
  0
VERTEX
  5
f0
  8
Layer_10
  10
93.729095
  20
87.072144
  0
VERTEX
  5
f1
  8
Layer_10
  10
93.787964
  20
87.040375
  42
-0.2278498
  0
VERTEX
  5
f2
  8
Layer_10
  10
95.094391
  20
85.062775
  42
-0.040830076
  0
VERTEX
  5
f3
  8
Layer_10
  10
95.175774
  20
84.376465
  42
-0.04083757
  0
VERTEX
  5
f4
  8
Layer_10
  10
95.066414
  20
83.694046
  42
-0.22785171
  0
VERTEX
  5
f5
  8
Layer_10
  10
93.680275
  20
81.771484
  0
VERTEX
  5
f6
  8
Layer_10
  10
93.620155
  20
81.742142
  0
VERTEX
  5
f7
  8
Layer_10
  10
93.558861
  20
81.714279
  42
-0.14452128
  0
VERTEX
  5
f8
  8
Layer_10
  10
91.309967
  20
81.542282
  0
SEQEND
  0
POLYLINE
  5
fa
  8
Layer_10
  62
12
  66
1
  10
0
  20
0
  30
0
  0
VERTEX
  5
fa
  8
Layer_10
  10
115.14686
  20
94.970688
  0
VERTEX
  5
fb
  8
Layer_10
  10
120.14675
  20
95.004044
  0
SEQEND
  0
POLYLINE
  5
fd
  8
Layer_10
  62
12
  70
1
  66
1
  10
0
  20
0
  30
0
  0
VERTEX
  5
fd
  8
Layer_10
  10
64.328262
  20
79.554947
  42
0.41420474
  0
VERTEX
  5
fe
  8
Layer_10
  10
61.596672
  20
76.786652
  42
0.4142165
  0
VERTEX
  5
ff
  8
Layer_10
  10
64.364967
  20
74.055069
  42
0.41420989
  0
VERTEX
  5
100
  8
Layer_10
  10
67.09655
  20
76.823349
  42
0.4142143
  0
SEQEND
  0
POLYLINE
  5
102
  8
Layer_10
  62
12
  70
1
  66
1
  10
0
  20
0
  30
0
  0
VERTEX
  5
102
  8
Layer_10
  10
245.18069
  20
66.824463
  42
0.41420805
  0
VERTEX
  5
103
  8
Layer_10
  10
240.75143
  20
71.195007
  42
0.41420437
  0
VERTEX
  5
104
  8
Layer_10
  10
236.38086
  20
66.765717
  42
0.41420988
  0
VERTEX
  5
105
  8
Layer_10
  10
240.81015
  20
62.395172
  42
0.41420988
  0
SEQEND
  0
POLYLINE
  5
107
  8
Layer_10
  62
12
  66
1
  10
0
  20
0
  30
0
  0
VERTEX
  5
107
  8
Layer_10
  10
114.43627
  20
134.08937
  0
VERTEX
  5
108
  8
Layer_10
  10
109.43634
  20
134.06334
  0
SEQEND
  0
POLYLINE
  5
10a
  8
Layer_10
  62
12
  66
1
  10
0
  20
0
  30
0
  0
VERTEX
  5
10a
  8
Layer_10
  10
242.02716
  20
86.409683
  0
VERTEX
  5
10b
  8
Layer_10
  10
237.02728
  20
86.376328
  0
SEQEND
  0
POLYLINE
  5
10d
  8
Layer_10
  62
12
  66
1
  10
0
  20
0
  30
0
  0
VERTEX
  5
10d
  8
Layer_10
  10
159.79993
  20
95.060699
  0
VERTEX
  5
10e
  8
Layer_10
  10
139.94766
  20
95.036819
  0
SEQEND
  0
POLYLINE
  5
110
  8
Layer_10
  62
12
  66
1
  10
0
  20
0
  30
0
  0
VERTEX
  5
110
  8
Layer_10
  10
226.78146
  20
104.47151
  0
VERTEX
  5
111
  8
Layer_10
  10
221.78159
  20
104.43816
  0
SEQEND
  0
POLYLINE
  5
113
  8
Layer_10
  62
12
  70
1
  66
1
  10
0
  20
0
  30
0
  0
VERTEX
  5
113
  8
Layer_10
  10
113.05577
  20
143.15584
  42
0.41421505
  0
VERTEX
  5
114
  8
Layer_10
  10
115.78736
  20
145.92412
  42
0.4142062
  0
VERTEX
  5
115
  8
Layer_10
  10
113.01907
  20
148.65572
  42
0.414218
  0
VERTEX
  5
116
  8
Layer_10
  10
110.28749
  20
145.88741
  42
0.19891652
  0
VERTEX
  5
117
  8
Layer_10
  10
111.1059
  20
143.94829
  42
0.19893691
  0
SEQEND
  0
POLYLINE
  5
119
  8
Layer_10
  62
12
  66
1
  10
0
  20
0
  30
0
  0
VERTEX
  5
119
  8
Layer_10
  10
247.65543
  20
202.55293
  0
VERTEX
  5
11a
  8
Layer_10
  10
242.65552
  20
202.51955
  0
SEQEND
  0
POLYLINE
  5
11c
  8
Layer_10
  62
12
  66
1
  10
0
  20
0
  30
0
  0
VERTEX
  5
11c
  8
Layer_10
  10
195.65656
  20
202.20595
  0
VERTEX
  5
11d
  8
Layer_10
  10
200.65646
  20
202.2393
  0
SEQEND
  0
POLYLINE
  5
11f
  8
Layer_10
  62
12
  66
1
  10
0
  20
0
  30
0
  0
VERTEX
  5
11f
  8
Layer_10
  10
181.78247
  20
104.17125
  0
VERTEX
  5
120
  8
Layer_10
  10
186.78235
  20
104.20461
  0
SEQEND
  0
POLYLINE
  5
122
  8
Layer_10
  62
12
  66
1
  10
0
  20
0
  30
0
  0
VERTEX
  5
122
  8
Layer_10
  10
56.382637
  20
117.87779
  0
VERTEX
  5
123
  8
Layer_10
  10
56.358368
  20
121.92177
  0
SEQEND
  0
POLYLINE
  5
125
  8
Layer_10
  62
12
  70
1
  66
1
  10
0
  20
0
  30
0
  0
VERTEX
  5
125
  8
Layer_10
  10
276.97626
  20
166.67409
  42
0.41420475
  0
VERTEX
  5
126
  8
Layer_10
  10
274.20795
  20
169.40572
  42
0.41421652
  0
VERTEX
  5
127
  8
Layer_10
  10
271.47638
  20
166.63741
  42
0.41421062
  0
VERTEX
  5
128
  8
Layer_10
  10
274.24466
  20
163.90584
  42
0.19889873
  0
VERTEX
  5
129
  8
Layer_10
  10
276.18378
  20
164.72423
  42
0.19892984
  0
SEQEND
  0
POLYLINE
  5
12b
  8
Layer_10
  62
12
  66
1
  10
0
  20
0
  30
0
  0
VERTEX
  5
12b
  8
Layer_10
  10
94.436554
  20
133.98531
  0
VERTEX
  5
12c
  8
Layer_10
  10
89.43663
  20
133.95924
  0
SEQEND
  0
POLYLINE
  5
12e
  8
Layer_10
  62
12
  66
1
  10
0
  20
0
  30
0
  0
VERTEX
  5
12e
  8
Layer_10
  10
132.64648
  20
95.087479
  0
VERTEX
  5
12f
  8
Layer_10
  10
137.64636
  20
95.120819
  0
SEQEND
  0
POLYLINE
  5
131
  8
Layer_10
  62
12
  66
1
  10
0
  20
0
  30
0
  0
VERTEX
  5
131
  8
Layer_10
  10
241.78113
  20
104.57161
  0
VERTEX
  5
132
  8
Layer_10
  10
246.78104
  20
104.60497
  0
SEQEND
  0
POLYLINE
  5
134
  8
Layer_10
  62
12
  66
1
  10
0
  20
0
  30
0
  0
VERTEX
  5
134
  8
Layer_10
  10
104.43642
  20
134.03731
  0
VERTEX
  5
135
  8
Layer_10
  10
99.436478
  20
134.01125
  0
SEQEND
  0
POLYLINE
  5
137
  8
Layer_10
  62
12
  66
1
  10
0
  20
0
  30
0
  0
VERTEX
  5
137
  8
Layer_10
  10
149.91551
  20
88.793365
  0
VERTEX
  5
138
  8
Layer_10
  10
149.87378
  20
95.048721
  0
SEQEND
  0
POLYLINE
  5
13a
  8
Layer_10
  62
12
  66
1
  10
0
  20
0
  30
0
  0
VERTEX
  5
13a
  8
Layer_10
  10
276.54047
  20
145.18581
  0
VERTEX
  5
13b
  8
Layer_10
  10
271.54071
  20
145.1382
  0
SEQEND
  0
POLYLINE
  5
13d
  8
Layer_10
  62
12
  66
1
  10
0
  20
0
  30
0
  0
VERTEX
  5
13d
  8
Layer_10
  10
165.25827
  20
153.73488
  0
VERTEX
  5
13e
  8
Layer_10
  10
169.74255
  20
153.80989
  0
SEQEND
  0
POLYLINE
  5
140
  8
Layer_10
  62
12
  66
1
  10
0
  20
0
  30
0
  0
VERTEX
  5
140
  8
Layer_10
  10
95.147308
  20
94.837143
  0
VERTEX
  5
141
  8
Layer_10
  10
100.14719
  20
94.870529
  0
SEQEND
  0
POLYLINE
  5
143
  8
Layer_10
  62
12
  66
1
  10
0
  20
0
  30
0
  0
VERTEX
  5
143
  8
Layer_10
  10
121.00013
  20
74.858047
  0
VERTEX
  5
144
  8
Layer_10
  10
116.00024
  20
74.824677
  0
SEQEND
  0
POLYLINE
  5
146
  8
Layer_10
  62
12
  66
1
  10
0
  20
0
  30
0
  0
VERTEX
  5
146
  8
Layer_10
  10
37.73185
  20
128.18904
  0
VERTEX
  5
147
  8
Layer_10
  10
37.248405
  20
128.25749
  0
SEQEND
  0
POLYLINE
  5
149
  8
Layer_10
  62
12
  66
1
  10
0
  20
0
  30
0
  0
VERTEX
  5
149
  8
Layer_10
  10
114.8019
  20
153.05659
  0
VERTEX
  5
14a
  8
Layer_10
  10
119.80181
  20
153.0826
  0
SEQEND
  0
POLYLINE
  5
14c
  8
Layer_10
  62
12
  66
1
  10
0
  20
0
  30
0
  0
VERTEX
  5
14c
  8
Layer_10
  10
261.80737
  20
136.24342
  0
VERTEX
  5
14d
  8
Layer_10
  10
261.78134
  20
141.24339
  0
SEQEND
  0
POLYLINE
  5
14f
  8
Layer_10
  62
12
  66
1
  10
0
  20
0
  30
0
  0
VERTEX
  5
14f
  8
Layer_10
  10
72.924507
  20
114.05305
  0
VERTEX
  5
150
  8
Layer_10
  10
67.924568
  20
114.02849
  0
SEQEND
  0
POLYLINE
  5
152
  8
Layer_10
  62
12
  66
1
  10
0
  20
0
  30
0
  0
VERTEX
  5
152
  8
Layer_10
  10
105.14709
  20
94.9039
  0
VERTEX
  5
153
  8
Layer_10
  10
110.14698
  20
94.937256
  0
SEQEND
  0
POLYLINE
  5
155
  8
Layer_10
  62
12
  66
1
  10
0
  20
0
  30
0
  0
VERTEX
  5
155
  8
Layer_10
  10
154.43573
  20
134.29756
  0
VERTEX
  5
156
  8
Layer_10
  10
149.43579
  20
134.27156
  0
SEQEND
  0
POLYLINE
  5
158
  8
Layer_10
  62
12
  66
1
  10
0
  20
0
  30
0
  0
VERTEX
  5
158
  8
Layer_10
  10
82.056709
  20
113.71541
  0
VERTEX
  5
159
  8
Layer_10
  10
86.077538
  20
113.72624
  0
SEQEND
  0
POLYLINE
  5
15b
  8
Layer_10
  62
12
  70
1
  66
1
  10
0
  20
0
  30
0
  0
VERTEX
  5
15b
  8
Layer_10
  10
113.11274
  20
104.90544
  42
0.4142121
  0
VERTEX
  5
15c
  8
Layer_10
  10
110.38115
  20
102.13716
  42
0.41421503
  0
VERTEX
  5
15d
  8
Layer_10
  10
113.14944
  20
99.405563
  42
0.41420327
  0
VERTEX
  5
15e
  8
Layer_10
  10
115.88103
  20
102.17386
  42
0.41421209
  0
SEQEND
  0
POLYLINE
  5
160
  8
Layer_10
  62
12
  66
1
  10
0
  20
0
  30
0
  0
VERTEX
  5
160
  8
Layer_10
  10
236.78125
  20
104.53825
  0
VERTEX
  5
161
  8
Layer_10
  10
231.78137
  20
104.50487
  0
SEQEND
  0
POLYLINE
  5
163
  8
Layer_10
  62
12
  66
1
  10
0
  20
0
  30
0
  0
VERTEX
  5
163
  8
Layer_10
  10
84.802299
  20
152.90056
  0
VERTEX
  5
164
  8
Layer_10
  10
89.802238
  20
152.92659
  0
SEQEND
  0
POLYLINE
  5
166
  8
Layer_10
  62
12
  66
1
  10
0
  20
0
  30
0
  0
VERTEX
  5
166
  8
Layer_10
  10
201.78201
  20
104.30467
  0
VERTEX
  5
167
  8
Layer_10
  10
206.78189
  20
104.33806
  0
SEQEND
  0
POLYLINE
  5
169
  8
Layer_10
  62
12
  66
1
  10
0
  20
0
  30
0
  0
VERTEX
  5
169
  8
Layer_10
  10
276.78055
  20
104.76189
  0
VERTEX
  5
16a
  8
Layer_10
  10
271.78058
  20
104.75014
  0
SEQEND
  0
POLYLINE
  5
16c
  8
Layer_10
  62
12
  66
1
  10
0
  20
0
  30
0
  0
VERTEX
  5
16c
  8
Layer_10
  10
95.428688
  20
77.622162
  0
VERTEX
  5
16d
  8
Layer_10
  10
89.377548
  20
79.586288
  0
VERTEX
  5
16e
  8
Layer_10
  10
89.43158
  20
84.493866
  0
VERTEX
  5
16f
  8
Layer_10
  10
89.578125
  20
89.399567
  0
VERTEX
  5
170
  8
Layer_10
  10
95.704468
  20
91.114792
  0
SEQEND
  0
POLYLINE
  5
172
  8
Layer_10
  62
12
  66
1
  10
0
  20
0
  30
0
  0
VERTEX
  5
172
  8
Layer_10
  10
156.72083
  20
192.44591
  0
VERTEX
  5
173
  8
Layer_10
  10
151.72093
  20
192.41255
  0
SEQEND
  0
POLYLINE
  5
175
  8
Layer_10
  62
12
  66
1
  10
0
  20
0
  30
0
  0
VERTEX
  5
175
  8
Layer_10
  10
62.924629
  20
114.00389
  0
VERTEX
  5
176
  8
Layer_10
  10
58.924675
  20
113.98424
  0
SEQEND
  0
POLYLINE
  5
178
  8
Layer_10
  62
12
  66
1
  10
0
  20
0
  30
0
  0
VERTEX
  5
178
  8
Layer_10
  10
222.03131
  20
86.242813
  0
VERTEX
  5
179
  8
Layer_10
  10
217.02771
  20
86.242813
  0
SEQEND
  0
POLYLINE
  5
17b
  8
Layer_10
  62
12
  66
1
  10
0
  20
0
  30
0
  0
VERTEX
  5
17b
  8
Layer_10
  10
191.78223
  20
104.23796
  0
VERTEX
  5
17c
  8
Layer_10
  10
196.78214
  20
104.27135
  0
SEQEND
  0
POLYLINE
  5
17e
  8
Layer_10
  62
12
  66
1
  10
0
  20
0
  30
0
  0
VERTEX
  5
17e
  8
Layer_10
  10
71.960487
  20
113.95998
  0
VERTEX
  5
17f
  8
Layer_10
  10
71.959557
  20
114.00182
  0
SEQEND
  0
POLYLINE
  5
181
  8
Layer_10
  62
12
  66
1
  10
0
  20
0
  30
0
  0
VERTEX
  5
181
  8
Layer_10
  10
216.78171
  20
104.40477
  0
VERTEX
  5
182
  8
Layer_10
  10
211.7818
  20
104.37141
  0
SEQEND
  0
POLYLINE
  5
184
  8
Layer_10
  62
12
  66
1
  10
0
  20
0
  30
0
  0
VERTEX
  5
184
  8
Layer_10
  10
124.43612
  20
134.14137
  0
VERTEX
  5
185
  8
Layer_10
  10
119.43621
  20
134.11537
  0
SEQEND
  0
POLYLINE
  5
187
  8
Layer_10
  62
12
  66
1
  10
0
  20
0
  30
0
  0
VERTEX
  5
187
  8
Layer_10
  10
62.809402
  20
133.4044
  0
VERTEX
  5
188
  8
Layer_10
  10
58.809502
  20
133.37654
  0
SEQEND
  0
POLYLINE
  5
18a
  8
Layer_10
  62
12
  66
1
  10
0
  20
0
  30
0
  0
VERTEX
  5
18a
  8
Layer_10
  10
261.93921
  20
115.52867
  0
VERTEX
  5
18b
  8
Layer_10
  10
261.90585
  20
120.52855
  0
SEQEND
  0
POLYLINE
  5
18d
  8
Layer_10
  62
12
  66
1
  10
0
  20
0
  30
0
  0
VERTEX
  5
18d
  8
Layer_10
  10
147.41406
  20
75.034302
  0
VERTEX
  5
18e
  8
Layer_10
  10
142.41418
  20
75.000931
  0
SEQEND
  0
POLYLINE
  5
190
  8
Layer_10
  62
12
  66
1
  10
0
  20
0
  30
0
  0
VERTEX
  5
190
  8
Layer_10
  10
76.168297
  20
172.52382
  0
VERTEX
  5
191
  8
Layer_10
  10
76.169701
  20
172.52382
  0
SEQEND
  0
POLYLINE
  5
193
  8
Layer_10
  62
12
  66
1
  10
0
  20
0
  30
0
  0
VERTEX
  5
193
  8
Layer_10
  10
134.436
  20
134.19347
  0
VERTEX
  5
194
  8
Layer_10
  10
129.43607
  20
134.16743
  0
SEQEND
  0
POLYLINE
  5
196
  8
Layer_10
  62
12
  66
1
  10
0
  20
0
  30
0
  0
VERTEX
  5
196
  8
Layer_10
  10
72.809166
  20
133.47408
  0
VERTEX
  5
197
  8
Layer_10
  10
67.809288
  20
133.43922
  0
SEQEND
  0
POLYLINE
  5
199
  8
Layer_10
  62
12
  66
1
  10
0
  20
0
  30
0
  0
VERTEX
  5
199
  8
Layer_10
  10
144.43588
  20
134.2455
  0
VERTEX
  5
19a
  8
Layer_10
  10
139.43594
  20
134.21944
  0
SEQEND
  0
POLYLINE
  5
19c
  8
Layer_10
  62
12
  70
1
  66
1
  10
0
  20
0
  30
0
  0
VERTEX
  5
19c
  8
Layer_10
  10
116.35394
  20
67.103989
  42
0.41420768
  0
VERTEX
  5
19d
  8
Layer_10
  10
113.58564
  20
69.835556
  42
0.4142121
  0
VERTEX
  5
19e
  8
Layer_10
  10
110.85405
  20
67.067276
  42
0.41421209
  0
VERTEX
  5
19f
  8
Layer_10
  10
113.62234
  20
64.335678
  42
0.41421504
  0
SEQEND
  0
POLYLINE
  5
1a1
  8
Layer_10
  62
12
  66
1
  10
0
  20
0
  30
0
  0
VERTEX
  5
1a1
  8
Layer_10
  10
125.14663
  20
95.037415
  0
VERTEX
  5
1a2
  8
Layer_10
  10
130.14651
  20
95.07077
  0
SEQEND
  0
POLYLINE
  5
1a4
  8
Layer_10
  62
12
  66
1
  10
0
  20
0
  30
0
  0
VERTEX
  5
1a4
  8
Layer_10
  10
157.41385
  20
75.101028
  0
VERTEX
  5
1a5
  8
Layer_10
  10
152.41397
  20
75.067657
  0
SEQEND
  0
POLYLINE
  5
1a7
  8
Layer_10
  62
12
  66
1
  10
0
  20
0
  30
0
  0
VERTEX
  5
1a7
  8
Layer_10
  10
94.556427
  20
113.79881
  0
VERTEX
  5
1a8
  8
Layer_10
  10
89.556534
  20
113.76546
  0
SEQEND
  0
POLYLINE
  5
1aa
  8
Layer_10
  62
12
  66
1
  10
0
  20
0
  30
0
  0
VERTEX
  5
1aa
  8
Layer_10
  10
124.55576
  20
113.99901
  0
VERTEX
  5
1ab
  8
Layer_10
  10
119.55587
  20
113.96562
  0
SEQEND
  0
POLYLINE
  5
1ad
  8
Layer_10
  62
12
  66
1
  10
0
  20
0
  30
0
  0
VERTEX
  5
1ad
  8
Layer_10
  10
266.54095
  20
145.09053
  0
VERTEX
  5
1ae
  8
Layer_10
  10
263.54099
  20
145.07491
  0
SEQEND
  0
POLYLINE
  5
1b0
  8
Layer_10
  62
12
  66
1
  10
0
  20
0
  30
0
  0
VERTEX
  5
1b0
  8
Layer_10
  10
252.02695
  20
86.476517
  0
VERTEX
  5
1b1
  8
Layer_10
  10
247.02707
  20
86.443054
  0
SEQEND
  0
POLYLINE
  5
1b3
  8
Layer_10
  62
12
  66
1
  10
0
  20
0
  30
0
  0
VERTEX
  5
1b3
  8
Layer_10
  10
124.80175
  20
153.1086
  0
VERTEX
  5
1b4
  8
Layer_10
  10
129.8017
  20
153.1346
  0
SEQEND
  0
POLYLINE
  5
1b6
  8
Layer_10
  62
12
  66
1
  10
0
  20
0
  30
0
  0
VERTEX
  5
1b6
  8
Layer_10
  10
76.112534
  20
94.710129
  0
VERTEX
  5
1b7
  8
Layer_10
  10
80.147629
  20
94.737045
  0
SEQEND
  0
POLYLINE
  5
1b9
  8
Layer_10
  62
12
  66
1
  10
0
  20
0
  30
0
  0
VERTEX
  5
1b9
  8
Layer_10
  10
134.55554
  20
114.06572
  0
VERTEX
  5
1ba
  8
Layer_10
  10
129.55566
  20
114.03236
  0
SEQEND
  0
POLYLINE
  5
1bc
  8
Layer_10
  62
12
  66
1
  10
0
  20
0
  30
0
  0
VERTEX
  5
1bc
  8
Layer_10
  10
179.02875
  20
86.251526
  0
VERTEX
  5
1bd
  8
Layer_10
  10
175.02899
  20
86.294693
  0
SEQEND
  0
POLYLINE
  5
1bf
  8
Layer_10
  62
12
  66
1
  10
0
  20
0
  30
0
  0
VERTEX
  5
1bf
  8
Layer_10
  10
256.78079
  20
104.67168
  0
VERTEX
  5
1c0
  8
Layer_10
  10
251.78091
  20
104.63835
  0
SEQEND
  0
POLYLINE
  5
1c2
  8
Layer_10
  62
12
  66
1
  10
0
  20
0
  30
0
  0
VERTEX
  5
1c2
  8
Layer_10
  10
76.06839
  20
129.20467
  0
VERTEX
  5
1c3
  8
Layer_10
  10
76.079819
  20
124.9016
  0
SEQEND
  0
POLYLINE
  5
1c5
  8
Layer_10
  62
12
  66
1
  10
0
  20
0
  30
0
  0
VERTEX
  5
1c5
  8
Layer_10
  10
75.767204
  20
152.85353
  0
VERTEX
  5
1c6
  8
Layer_10
  10
79.802361
  20
152.87459
  0
SEQEND
  0
POLYLINE
  5
1c8
  8
Layer_10
  62
12
  66
1
  10
0
  20
0
  30
0
  0
VERTEX
  5
1c8
  8
Layer_10
  10
261.8541
  20
129.24361
  0
VERTEX
  5
1c9
  8
Layer_10
  10
261.82806
  20
134.24355
  0
SEQEND
  0
POLYLINE
  5
1cb
  8
Layer_10
  62
12
  66
1
  10
0
  20
0
  30
0
  0
VERTEX
  5
1cb
  8
Layer_10
  10
56.352592
  20
129.26393
  0
VERTEX
  5
1cc
  8
Layer_10
  10
56.349739
  20
125.21989
  0
SEQEND
  0
POLYLINE
  5
1ce
  8
Layer_10
  62
12
  66
1
  10
0
  20
0
  30
0
  0
VERTEX
  5
1ce
  8
Layer_10
  10
71.844131
  20
133.55568
  0
VERTEX
  5
1cf
  8
Layer_10
  10
71.843681
  20
133.51387
  0
SEQEND
  0
POLYLINE
  5
1d1
  8
Layer_10
  62
12
  66
1
  10
0
  20
0
  30
0
  0
VERTEX
  5
1d1
  8
Layer_10
  10
76.0979
  20
118.04131
  0
VERTEX
  5
1d2
  8
Layer_10
  10
76.086609
  20
122.34428
  0
SEQEND
  0
POLYLINE
  5
1d4
  8
Layer_10
  62
12
  66
1
  10
0
  20
0
  30
0
  0
VERTEX
  5
1d4
  8
Layer_10
  10
158.26978
  20
153.43648
  0
VERTEX
  5
1d5
  8
Layer_10
  10
139.2373
  20
153.23329
  0
SEQEND
  0
POLYLINE
  5
1d7
  8
Layer_10
  62
12
  66
1
  10
0
  20
0
  30
0
  0
VERTEX
  5
1d7
  8
Layer_10
  10
132.30164
  20
153.14766
  0
VERTEX
  5
1d8
  8
Layer_10
  10
137.30157
  20
153.17366
  0
SEQEND
  0
POLYLINE
  5
1da
  8
Layer_10
  62
12
  66
1
  10
0
  20
0
  30
0
  0
VERTEX
  5
1da
  8
Layer_10
  10
146.72104
  20
192.37917
  0
VERTEX
  5
1db
  8
Layer_10
  10
141.72116
  20
192.34584
  0
SEQEND
  0
POLYLINE
  5
1dd
  8
Layer_10
  62
12
  66
1
  10
0
  20
0
  30
0
  0
VERTEX
  5
1dd
  8
Layer_10
  10
176.78256
  20
104.13786
  0
VERTEX
  5
1de
  8
Layer_10
  10
174.28262
  20
104.12119
  0
SEQEND
  0
POLYLINE
  5
1e0
  8
Layer_10
  62
12
  66
1
  10
0
  20
0
  30
0
  0
VERTEX
  5
1e0
  8
Layer_10
  10
154.5551
  20
114.1992
  0
VERTEX
  5
1e1
  8
Layer_10
  10
149.55521
  20
114.16582
  0
SEQEND
  0
POLYLINE
  5
1e3
  8
Layer_10
  62
12
  66
1
  10
0
  20
0
  30
0
  0
VERTEX
  5
1e3
  8
Layer_10
  10
111.00036
  20
74.791321
  0
VERTEX
  5
1e4
  8
Layer_10
  10
106.00048
  20
74.75795
  0
SEQEND
  0
POLYLINE
  5
1e6
  8
Layer_10
  62
12
  66
1
  10
0
  20
0
  30
0
  0
VERTEX
  5
1e6
  8
Layer_10
  10
190.65668
  20
202.17256
  0
VERTEX
  5
1e7
  8
Layer_10
  10
185.6568
  20
202.13921
  0
SEQEND
  0
POLYLINE
  5
1e9
  8
Layer_10
  62
12
  66
1
  10
0
  20
0
  30
0
  0
VERTEX
  5
1e9
  8
Layer_10
  10
266.78058
  20
104.73842
  0
VERTEX
  5
1ea
  8
Layer_10
  10
263.78064
  20
104.7184
  0
SEQEND
  0
POLYLINE
  5
1ec
  8
Layer_10
  62
12
  66
1
  10
0
  20
0
  30
0
  0
VERTEX
  5
1ec
  8
Layer_10
  10
114.55598
  20
113.9323
  0
VERTEX
  5
1ed
  8
Layer_10
  10
109.55608
  20
113.89891
  0
SEQEND
  0
POLYLINE
  5
1ef
  8
Layer_10
  62
12
  66
1
  10
0
  20
0
  30
0
  0
VERTEX
  5
1ef
  8
Layer_10
  10
194.05496
  20
79.833694
  0
VERTEX
  5
1f0
  8
Layer_10
  10
194.12241
  20
86.088806
  0
SEQEND
  0
POLYLINE
  5
1f2
  8
Layer_10
  62
12
  66
1
  10
0
  20
0
  30
0
  0
VERTEX
  5
1f2
  8
Layer_10
  10
212.08179
  20
86.160355
  0
VERTEX
  5
1f3
  8
Layer_10
  10
207.3815
  20
86.138229
  0
SEQEND
  0
POLYLINE
  5
1f5
  8
Layer_10
  62
12
  66
1
  10
0
  20
0
  30
0
  0
VERTEX
  5
1f5
  8
Layer_10
  10
184.38184
  20
86.013885
  0
VERTEX
  5
1f6
  8
Layer_10
  10
203.82559
  20
86.013885
  0
SEQEND
  0
POLYLINE
  5
1f8
  8
Layer_10
  62
12
  66
1
  10
0
  20
0
  30
0
  0
VERTEX
  5
1f8
  8
Layer_10
  10
237.65564
  20
202.48619
  0
VERTEX
  5
1f9
  8
Layer_10
  10
232.65573
  20
202.45284
  0
SEQEND
  0
POLYLINE
  5
1fb
  8
Layer_10
  62
12
  66
1
  10
0
  20
0
  30
0
  0
VERTEX
  5
1fb
  8
Layer_10
  10
104.55622
  20
113.86555
  0
VERTEX
  5
1fc
  8
Layer_10
  10
99.55632
  20
113.8322
  0
SEQEND
  0
POLYLINE
  5
1fe
  8
Layer_10
  62
12
  66
1
  10
0
  20
0
  30
0
  0
VERTEX
  5
1fe
  8
Layer_10
  10
201.68976
  20
143.50475
  0
VERTEX
  5
1ff
  8
Layer_10
  10
206.68976
  20
143.49492
  0
SEQEND
  0
POLYLINE
  5
201
  8
Layer_10
  62
12
  66
1
  10
0
  20
0
  30
0
  0
VERTEX
  5
201
  8
Layer_10
  10
231.75043
  20
161.64159
  0
VERTEX
  5
202
  8
Layer_10
  10
226.85025
  20
161.61855
  0
SEQEND
  0
POLYLINE
  5
204
  8
Layer_10
  62
12
  66
1
  10
0
  20
0
  30
0
  0
VERTEX
  5
204
  8
Layer_10
  10
216.68976
  20
143.47527
  0
VERTEX
  5
205
  8
Layer_10
  10
211.68973
  20
143.48509
  0
SEQEND
  0
POLYLINE
  5
207
  8
Layer_10
  62
12
  66
1
  10
0
  20
0
  30
0
  0
VERTEX
  5
207
  8
Layer_10
  10
90.442345
  20
162.82521
  0
VERTEX
  5
208
  8
Layer_10
  10
100.94234
  20
162.82777
  0
SEQEND
  0
POLYLINE
  5
20a
  8
Layer_10
  62
12
  66
1
  10
0
  20
0
  30
0
  0
VERTEX
  5
20a
  8
Layer_10
  10
226.68973
  20
143.45561
  0
VERTEX
  5
20b
  8
Layer_10
  10
221.68973
  20
143.46544
  0
SEQEND
  0
POLYLINE
  5
20d
  8
Layer_10
  62
12
  66
1
  10
0
  20
0
  30
0
  0
VERTEX
  5
20d
  8
Layer_10
  10
241.6897
  20
143.4261
  0
VERTEX
  5
20e
  8
Layer_10
  10
246.6897
  20
143.41628
  0
SEQEND
  0
POLYLINE
  5
210
  8
Layer_10
  62
12
  66
1
  10
0
  20
0
  30
0
  0
VERTEX
  5
210
  8
Layer_10
  10
231.9277
  20
86.30954
  0
VERTEX
  5
211
  8
Layer_10
  10
227.0275
  20
86.30954
  0
SEQEND
  0
POLYLINE
  5
213
  8
Layer_10
  62
12
  66
1
  10
0
  20
0
  30
0
  0
VERTEX
  5
213
  8
Layer_10
  10
221.85382
  20
161.66176
  0
VERTEX
  5
214
  8
Layer_10
  10
216.85028
  20
161.6382
  0
SEQEND
  0
POLYLINE
  5
216
  8
Layer_10
  62
12
  66
1
  10
0
  20
0
  30
0
  0
VERTEX
  5
216
  8
Layer_10
  10
194.20358
  20
161.76054
  0
VERTEX
  5
217
  8
Layer_10
  10
199.20352
  20
161.78407
  0
SEQEND
  0
POLYLINE
  5
219
  8
Layer_10
  62
12
  66
1
  10
0
  20
0
  30
0
  0
VERTEX
  5
219
  8
Layer_10
  10
181.68982
  20
143.54408
  0
VERTEX
  5
21a
  8
Layer_10
  10
186.68979
  20
143.53426
  0
SEQEND
  0
POLYLINE
  5
21c
  8
Layer_10
  62
12
  66
1
  10
0
  20
0
  30
0
  0
VERTEX
  5
21c
  8
Layer_10
  10
184.2037
  20
161.71346
  0
VERTEX
  5
21d
  8
Layer_10
  10
189.20364
  20
161.73698
  0
SEQEND
  0
POLYLINE
  5
21f
  8
Layer_10
  62
12
  66
1
  10
0
  20
0
  30
0
  0
VERTEX
  5
21f
  8
Layer_10
  10
178.85178
  20
161.45064
  0
VERTEX
  5
220
  8
Layer_10
  10
174.85226
  20
161.38866
  0
SEQEND
  0
POLYLINE
  5
222
  8
Layer_10
  62
12
  66
1
  10
0
  20
0
  30
0
  0
VERTEX
  5
222
  8
Layer_10
  10
251.85022
  20
161.56923
  0
VERTEX
  5
223
  8
Layer_10
  10
246.85025
  20
161.57915
  0
SEQEND
  0
POLYLINE
  5
225
  8
Layer_10
  62
12
  66
1
  10
0
  20
0
  30
0
  0
VERTEX
  5
225
  8
Layer_10
  10
260.88544
  20
161.55144
  0
VERTEX
  5
226
  8
Layer_10
  10
256.85022
  20
161.55937
  0
SEQEND
  0
POLYLINE
  5
228
  8
Layer_10
  62
12
  66
1
  10
0
  20
0
  30
0
  0
VERTEX
  5
228
  8
Layer_10
  10
236.6897
  20
143.43593
  0
VERTEX
  5
229
  8
Layer_10
  10
231.68973
  20
143.44579
  0
SEQEND
  0
POLYLINE
  5
22b
  8
Layer_10
  62
12
  66
1
  10
0
  20
0
  30
0
  0
VERTEX
  5
22b
  8
Layer_10
  10
176.68982
  20
143.55391
  0
VERTEX
  5
22c
  8
Layer_10
  10
174.18982
  20
143.55885
  0
SEQEND
  0
POLYLINE
  5
22e
  8
Layer_10
  62
12
  66
1
  10
0
  20
0
  30
0
  0
VERTEX
  5
22e
  8
Layer_10
  10
211.90402
  20
161.69737
  0
VERTEX
  5
22f
  8
Layer_10
  10
207.2037
  20
161.69737
  0
SEQEND
  0
POLYLINE
  5
231
  8
Layer_10
  62
12
  66
1
  10
0
  20
0
  30
0
  0
VERTEX
  5
231
  8
Layer_10
  10
256.68967
  20
143.39662
  0
VERTEX
  5
232
  8
Layer_10
  10
251.6897
  20
143.40645
  0
SEQEND
  0
POLYLINE
  5
234
  8
Layer_10
  62
12
  66
1
  10
0
  20
0
  30
0
  0
VERTEX
  5
234
  8
Layer_10
  10
241.85025
  20
161.58897
  0
VERTEX
  5
235
  8
Layer_10
  10
236.85025
  20
161.5988
  0
SEQEND
  0
POLYLINE
  5
237
  8
Layer_10
  62
12
  66
1
  10
0
  20
0
  30
0
  0
VERTEX
  5
237
  8
Layer_10
  10
191.68979
  20
143.52443
  0
VERTEX
  5
238
  8
Layer_10
  10
196.68979
  20
143.5146
  0
SEQEND
  0
POLYLINE
  5
23a
  8
Layer_10
  62
12
  66
1
  10
0
  20
0
  30
0
  0
VERTEX
  5
23a
  8
Layer_10
  10
129.07159
  20
172.5743
  42
-0.04140448
  0
VERTEX
  5
23b
  8
Layer_10
  10
127.32534
  20
173.45137
  42
-0.18156404
  0
VERTEX
  5
23c
  8
Layer_10
  10
125.08974
  20
176.0464
  0
VERTEX
  5
23d
  8
Layer_10
  10
125.06394
  20
176.12148
  0
VERTEX
  5
23e
  8
Layer_10
  10
124.96914
  20
187.97133
  42
-0.20022989
  0
VERTEX
  5
23f
  8
Layer_10
  10
126.27782
  20
191.1801
  42
-0.20023271
  0
VERTEX
  5
240
  8
Layer_10
  10
129.47903
  20
192.50734
  0
VERTEX
  5
241
  8
Layer_10
  10
139.54593
  20
192.48503
  0
VERTEX
  5
242
  8
Layer_10
  10
139.55824
  20
198.00221
  42
-0.40975352
  0
VERTEX
  5
243
  8
Layer_10
  10
148.44066
  20
206.98149
  0
VERTEX
  5
244
  8
Layer_10
  10
149.37344
  20
206.99367
  0
VERTEX
  5
245
  8
Layer_10
  10
150.59976
  20
206.97557
  42
-0.40744133
  0
VERTEX
  5
246
  8
Layer_10
  10
159.41052
  20
197.99696
  0
VERTEX
  5
247
  8
Layer_10
  10
159.42267
  20
192.35786
  0
VERTEX
  5
248
  8
Layer_10
  10
173.31935
  20
192.40944
  0
VERTEX
  5
249
  8
Layer_10
  10
173.36182
  20
201.96764
  0
VERTEX
  5
24a
  8
Layer_10
  10
183.55582
  20
201.92104
  0
VERTEX
  5
24b
  8
Layer_10
  10
183.55582
  20
207.43144
  42
-0.20499136
  0
VERTEX
  5
24c
  8
Layer_10
  10
186.41098
  20
213.91228
  42
-0.20505727
  0
VERTEX
  5
24d
  8
Layer_10
  10
192.98169
  20
216.56017
  0
VERTEX
  5
24e
  8
Layer_10
  10
194.03976
  20
216.53749
  42
-0.41421626
  0
VERTEX
  5
24f
  8
Layer_10
  10
202.99982
  20
207.49193
  0
VERTEX
  5
250
  8
Layer_10
  10
202.99982
  20
202.13438
  0
VERTEX
  5
251
  8
Layer_10
  10
202.99982
  20
201.92082
  0
VERTEX
  5
252
  8
Layer_10
  10
229.95567
  20
202.03444
  0
VERTEX
  5
253
  8
Layer_10
  10
229.93176
  20
208.06081
  42
-0.4089895
  0
VERTEX
  5
254
  8
Layer_10
  10
238.7579
  20
217.0721
  0
VERTEX
  5
255
  8
Layer_10
  10
240.0773
  20
217.09761
  0
VERTEX
  5
256
  8
Layer_10
  10
239.61938
  20
217.09615
  42
-0.19911679
  0
VERTEX
  5
257
  8
Layer_10
  10
246.70505
  20
214.18318
  42
-0.19911961
  0
VERTEX
  5
258
  8
Layer_10
  10
249.64993
  20
207.11064
  0
VERTEX
  5
259
  8
Layer_10
  10
249.65176
  20
202.33702
  0
VERTEX
  5
25a
  8
Layer_10
  10
260.93259
  20
202.67345
  0
VERTEX
  5
25b
  8
Layer_10
  10
261.85309
  20
144.06148
  0
SEQEND
  0
POLYLINE
  5
25d
  8
Layer_10
  62
12
  66
1
  10
0
  20
0
  30
0
  0
VERTEX
  5
25d
  8
Layer_10
  10
262.08084
  20
105.71172
  0
VERTEX
  5
25e
  8
Layer_10
  10
261.96094
  20
74.364609
  0
VERTEX
  5
25f
  8
Layer_10
  10
261.87283
  20
51.347153
  0
VERTEX
  5
260
  8
Layer_10
  10
175.08484
  20
50.910172
  0
VERTEX
  5
261
  8
Layer_10
  10
174.93951
  20
55.657028
  0
VERTEX
  5
262
  8
Layer_10
  10
174.93951
  20
57.157028
  0
VERTEX
  5
263
  8
Layer_10
  10
162.76688
  20
57.157028
  42
-0.3416897
  0
VERTEX
  5
264
  8
Layer_10
  10
159.86298
  20
59.403824
  42
-0.03775992
  0
VERTEX
  5
265
  8
Layer_10
  10
159.74301
  20
60.069321
  0
VERTEX
  5
266
  8
Layer_10
  10
159.52225
  20
71.143692
  42
-0.2052544
  0
VERTEX
  5
267
  8
Layer_10
  10
160.81316
  20
74.1008
  42
-0.205143
  0
VERTEX
  5
268
  8
Layer_10
  10
163.76279
  20
75.256424
  0
VERTEX
  5
269
  8
Layer_10
  10
173.60684
  20
75.116608
  0
VERTEX
  5
26a
  8
Layer_10
  10
173.9603
  20
75.176804
  0
VERTEX
  5
26b
  8
Layer_10
  10
173.94897
  20
103.89716
  0
VERTEX
  5
26c
  8
Layer_10
  10
163.12241
  20
114.27342
  0
SEQEND
  0
POLYLINE
  5
26e
  8
Layer_10
  62
12
  66
1
  10
0
  20
0
  30
0
  0
VERTEX
  5
26e
  8
Layer_10
  10
261.36053
  20
175.42561
  0
VERTEX
  5
26f
  8
Layer_10
  10
261.39722
  20
173.08659
  42
-0.41412182
  0
VERTEX
  5
270
  8
Layer_10
  10
265.82605
  20
177.65535
  0
VERTEX
  5
271
  8
Layer_10
  10
266.19409
  20
177.66115
  0
VERTEX
  5
272
  8
Layer_10
  10
266.24252
  20
177.64934
  0
VERTEX
  5
273
  8
Layer_10
  10
266.25278
  20
177.64644
  0
VERTEX
  5
274
  8
Layer_10
  10
277.28775
  20
177.52864
  42
-0.20106437
  0
VERTEX
  5
275
  8
Layer_10
  10
280.31534
  20
176.37935
  42
-0.20105565
  0
VERTEX
  5
276
  8
Layer_10
  10
281.61899
  20
173.41493
  0
VERTEX
  5
277
  8
Layer_10
  10
281.84683
  20
76.593124
  42
-0.19960989
  0
VERTEX
  5
278
  8
Layer_10
  10
280.18719
  20
72.342636
  42
-0.20264352
  0
VERTEX
  5
279
  8
Layer_10
  10
275.87378
  20
70.595123
  0
VERTEX
  5
27a
  8
Layer_10
  10
265.36353
  20
70.729782
  0
VERTEX
  5
27b
  8
Layer_10
  10
265.28079
  20
70.736496
  0
VERTEX
  5
27c
  8
Layer_10
  10
265.19644
  20
70.745071
  0
VERTEX
  5
27d
  8
Layer_10
  10
265.11359
  20
70.755264
  42
-0.26100622
  0
VERTEX
  5
27e
  8
Layer_10
  10
262.64227
  20
72.555954
  42
-0.054903437
  0
VERTEX
  5
27f
  8
Layer_10
  10
261.96094
  20
74.364609
  0
SEQEND
  0
POLYLINE
  5
281
  8
Layer_10
  62
12
  66
1
  10
0
  20
0
  30
0
  0
VERTEX
  5
281
  8
Layer_10
  10
162.90967
  20
75.143631
  0
VERTEX
  5
282
  8
Layer_10
  10
159.3541
  20
75.148895
  0
VERTEX
  5
283
  8
Layer_10
  10
159.25714
  20
69.134445
  42
-0.41210837
  0
VERTEX
  5
284
  8
Layer_10
  10
150.17798
  20
60.279846
  0
VERTEX
  5
285
  8
Layer_10
  10
148.54065
  20
60.294434
  42
-0.41300884
  0
VERTEX
  5
286
  8
Layer_10
  10
139.62109
  20
69.337265
  0
VERTEX
  5
287
  8
Layer_10
  10
139.64841
  20
75.023193
  0
VERTEX
  5
288
  8
Layer_10
  10
122.87853
  20
74.907562
  0
VERTEX
  5
289
  8
Layer_10
  10
122.82098
  20
69.042648
  42
-0.41421716
  0
VERTEX
  5
28a
  8
Layer_10
  10
113.73312
  20
60.131485
  0
VERTEX
  5
28b
  8
Layer_10
  10
112.42989
  20
60.144272
  42
-0.19950196
  0
VERTEX
  5
28c
  8
Layer_10
  10
106.07776
  20
62.857346
  42
-0.19951264
  0
VERTEX
  5
28d
  8
Layer_10
  10
103.51913
  20
69.273239
  0
VERTEX
  5
28e
  8
Layer_10
  10
103.60029
  20
74.91272
  0
VERTEX
  5
28f
  8
Layer_10
  10
76.079063
  20
74.822769
  0
SEQEND
  0
POLYLINE
  5
291
  8
Layer_10
  62
12
  66
1
  10
0
  20
0
  30
0
  0
VERTEX
  5
291
  8
Layer_10
  10
149.49475
  20
159.64644
  0
VERTEX
  5
292
  8
Layer_10
  10
149.52731
  20
153.39098
  0
SEQEND
  0
POLYLINE
  5
294
  8
Layer_10
  62
12
  70
1
  66
1
  10
0
  20
0
  30
0
  0
VERTEX
  5
294
  8
Layer_10
  10
241.74057
  20
209.50969
  42
0.41421358
  0
VERTEX
  5
295
  8
Layer_10
  10
238.97226
  20
212.24129
  42
0.19892498
  0
VERTEX
  5
296
  8
Layer_10
  10
237.03314
  20
211.42287
  42
0.19890902
  0
VERTEX
  5
297
  8
Layer_10
  10
236.24069
  20
209.47298
  42
0.41421062
  0
VERTEX
  5
298
  8
Layer_10
  10
239.00897
  20
206.74141
  42
0.19890573
  0
VERTEX
  5
299
  8
Layer_10
  10
240.94812
  20
207.5598
  42
0.19890902
  0
SEQEND
  0
POLYLINE
  5
29b
  8
Layer_10
  62
12
  70
1
  66
1
  10
0
  20
0
  30
0
  0
VERTEX
  5
29b
  8
Layer_10
  10
239.46729
  20
95.278046
  42
0.41421945
  0
VERTEX
  5
29c
  8
Layer_10
  10
236.73569
  20
92.50975
  42
0.41420768
  0
VERTEX
  5
29d
  8
Layer_10
  10
239.50397
  20
89.778168
  42
0.41421356
  0
VERTEX
  5
29e
  8
Layer_10
  10
242.23557
  20
92.546448
  42
0.41421356
  0
SEQEND
  0
POLYLINE
  5
2a0
  8
Layer_10
  62
12
  70
1
  66
1
  10
0
  20
0
  30
0
  0
VERTEX
  5
2a0
  8
Layer_10
  10
117.57769
  20
161.95705
  42
0.41420897
  0
VERTEX
  5
2a1
  8
Layer_10
  10
113.14843
  20
166.32756
  42
0.41421356
  0
VERTEX
  5
2a2
  8
Layer_10
  10
108.7779
  20
161.89833
  42
0.41421264
  0
VERTEX
  5
2a3
  8
Layer_10
  10
113.20715
  20
157.52779
  42
0.41420712
  0
SEQEND
  0
POLYLINE
  5
2a5
  8
Layer_10
  62
12
  70
1
  66
1
  10
0
  20
0
  30
0
  0
VERTEX
  5
2a5
  8
Layer_10
  10
276.19617
  20
84.087845
  42
0.19891446
  0
VERTEX
  5
2a6
  8
Layer_10
  10
274.24628
  20
84.880295
  42
0.41420179
  0
VERTEX
  5
2a7
  8
Layer_10
  10
271.51471
  20
82.112
  42
0.19890799
  0
VERTEX
  5
2a8
  8
Layer_10
  10
272.33313
  20
80.172867
  42
0.19891832
  0
VERTEX
  5
2a9
  8
Layer_10
  10
274.28299
  20
79.380417
  42
0.41420768
  0
VERTEX
  5
2aa
  8
Layer_10
  10
277.01459
  20
82.148712
  42
0.19890799
  0
SEQEND
  0
POLYLINE
  5
2ac
  8
Layer_10
  62
12
  70
1
  66
1
  10
0
  20
0
  30
0
  0
VERTEX
  5
2ac
  8
Layer_10
  10
66.849472
  20
170.39656
  42
0.41420914
  0
VERTEX
  5
2ad
  8
Layer_10
  10
64.081184
  20
173.12816
  42
0.4142121
  0
VERTEX
  5
2ae
  8
Layer_10
  10
61.349594
  20
170.35988
  42
0.41420914
  0
VERTEX
  5
2af
  8
Layer_10
  10
64.117882
  20
167.62828
  42
0.4142121
  0
SEQEND
  0
POLYLINE
  5
2b1
  8
Layer_10
  62
12
  66
1
  10
0
  20
0
  30
0
  0
VERTEX
  5
2b1
  8
Layer_10
  10
261.06195
  20
86.536819
  0
VERTEX
  5
2b2
  8
Layer_10
  10
257.02682
  20
86.509903
  0
SEQEND
  0
POLYLINE
  5
2b4
  8
Layer_10
  62
12
  66
1
  10
0
  20
0
  30
0
  0
VERTEX
  5
2b4
  8
Layer_10
  10
165.60773
  20
94.891769
  0
VERTEX
  5
2b5
  8
Layer_10
  10
170.09259
  20
94.86998
  0
SEQEND
  0
ENDSEC
  0
EOF
