  0
SECTION
  2
HEADER
  9
$ACADVER
  1
AC1009
  0
ENDSEC
  0
SECTION
  2
TABLES
  0
TABLE
  2
LAYER
  70
1
  0
LAYER
  2
Layer_8
  70
0
  62
254
  6
CONTINUOUS
  0
ENDTAB
  0
ENDSEC
  0
SECTION
  2
ENTITIES
  0
CIRCLE
  5
90
  8
Layer_8
  62
254
  10
262.05338
  20
-81.832344
  30
0
  40
2.7500198
  0
CIRCLE
  5
90
  8
Layer_8
  62
254
  10
135.77151
  20
-72.136299
  30
0
  40
2.8499999
  0
CIRCLE
  5
90
  8
Layer_8
  62
254
  10
136.17172
  20
-107.27488
  30
0
  40
2.8499999
  0
CIRCLE
  5
90
  8
Layer_8
  62
254
  10
135.60501
  20
-28.455017
  30
0
  40
2.8499999
  0
CIRCLE
  5
90
  8
Layer_8
  62
254
  10
86.91433
  20
-97.555481
  30
0
  40
2.8499999
  0
CIRCLE
  5
90
  8
Layer_8
  62
254
  10
86.66729
  20
-3.9822235
  30
0
  40
2.8499999
  0
CIRCLE
  5
90
  8
Layer_8
  62
254
  10
261.55719
  20
33.980865
  30
0
  40
2.8499999
  0
CIRCLE
  5
90
  8
Layer_8
  62
254
  10
262.22192
  20
-18.578217
  30
0
  40
2.8499999
  0
CIRCLE
  5
90
  8
Layer_8
  62
254
  10
262.05338
  20
-81.832344
  30
0
  40
2.8499999
  0
CIRCLE
  5
90
  8
Layer_8
  62
254
  10
296.79407
  20
-7.7046814
  30
0
  40
2.8499999
  0
CIRCLE
  5
90
  8
Layer_8
  62
254
  10
296.83246
  20
-91.730095
  30
0
  40
2.8499999
  0
CIRCLE
  5
90
  8
Layer_8
  62
254
  10
288.54419
  20
-50.031052
  30
0
  40
2.8499999
  0
POLYLINE
  5
90
  8
Layer_8
  62
254
  66
1
  10
0
  20
0
  30
0
  0
VERTEX
  5
90
  8
Layer_8
  10
284.42084
  20
-30.298996
  0
VERTEX
  5
91
  8
Layer_8
  10
283.50031
  20
28.312973
  0
VERTEX
  5
92
  8
Layer_8
  10
272.21948
  20
27.976547
  0
VERTEX
  5
93
  8
Layer_8
  10
272.21765
  20
32.750168
  42
0.19911855
  0
VERTEX
  5
94
  8
Layer_8
  10
269.27277
  20
39.822708
  42
0.19911828
  0
VERTEX
  5
95
  8
Layer_8
  10
262.18713
  20
42.735672
  0
VERTEX
  5
96
  8
Layer_8
  10
262.64502
  20
42.737137
  0
VERTEX
  5
97
  8
Layer_8
  10
261.32562
  20
42.711639
  42
0.4089895
  0
VERTEX
  5
98
  8
Layer_8
  10
252.4995
  20
33.700348
  0
VERTEX
  5
99
  8
Layer_8
  10
252.52341
  20
27.673965
  0
VERTEX
  5
9a
  8
Layer_8
  10
225.56755
  20
27.560349
  0
VERTEX
  5
9b
  8
Layer_8
  10
225.56755
  20
27.773911
  0
VERTEX
  5
9c
  8
Layer_8
  10
225.56755
  20
33.131454
  42
0.19891492
  0
VERTEX
  5
9d
  8
Layer_8
  10
222.96092
  20
39.509918
  42
0.19891265
  0
VERTEX
  5
9e
  8
Layer_8
  10
216.6075
  20
42.177002
  0
VERTEX
  5
9f
  8
Layer_8
  10
215.54942
  20
42.199692
  42
0.20505728
  0
VERTEX
  5
a0
  8
Layer_8
  10
208.97871
  20
39.551804
  42
0.20498864
  0
VERTEX
  5
a1
  8
Layer_8
  10
206.12355
  20
33.070969
  0
VERTEX
  5
a2
  8
Layer_8
  10
206.12355
  20
27.560562
  0
VERTEX
  5
a3
  8
Layer_8
  10
195.92955
  20
27.607162
  0
VERTEX
  5
a4
  8
Layer_8
  10
195.88708
  20
18.048965
  0
VERTEX
  5
a5
  8
Layer_8
  10
181.9904
  20
17.997391
  0
VERTEX
  5
a6
  8
Layer_8
  10
181.97826
  20
23.63649
  42
0.40744134
  0
VERTEX
  5
a7
  8
Layer_8
  10
173.1675
  20
32.615097
  0
VERTEX
  5
a8
  8
Layer_8
  10
171.94118
  20
32.633194
  0
VERTEX
  5
a9
  8
Layer_8
  10
171.00839
  20
32.621017
  42
0.40975308
  0
VERTEX
  5
aa
  8
Layer_8
  10
162.12598
  20
23.641724
  0
VERTEX
  5
ab
  8
Layer_8
  10
162.11366
  20
18.124557
  0
VERTEX
  5
ac
  8
Layer_8
  10
152.04675
  20
18.146866
  42
0.20023621
  0
VERTEX
  5
ad
  8
Layer_8
  10
148.84555
  20
16.819626
  42
0.20022986
  0
VERTEX
  5
ae
  8
Layer_8
  10
147.53687
  20
13.610855
  0
VERTEX
  5
af
  8
Layer_8
  10
147.63168
  20
1.7610016
  0
VERTEX
  5
b0
  8
Layer_8
  10
147.65747
  20
1.6859283
  42
0.18156756
  0
VERTEX
  5
b1
  8
Layer_8
  10
149.89307
  20
-0.90910339
  42
0.04140448
  0
VERTEX
  5
b2
  8
Layer_8
  10
151.63931
  20
-1.7861786
  0
SEQEND
  0
POLYLINE
  5
b4
  8
Layer_8
  62
254
  66
1
  10
0
  20
0
  30
0
  0
VERTEX
  5
b4
  8
Layer_8
  10
104.50445
  20
-40.440262
  0
VERTEX
  5
b5
  8
Layer_8
  10
108.52512
  20
-40.403366
  0
SEQEND
  0
POLYLINE
  5
b7
  8
Layer_8
  62
254
  70
1
  66
1
  10
0
  20
0
  30
0
  0
VERTEX
  5
b7
  8
Layer_8
  10
262.20703
  20
2.3206787
  42
0.41420437
  0
VERTEX
  5
b8
  8
Layer_8
  10
266.57758
  20
6.7498779
  42
0.19891756
  0
VERTEX
  5
b9
  8
Layer_8
  10
265.26813
  20
9.8525085
  42
0.19891976
  0
VERTEX
  5
ba
  8
Layer_8
  10
262.14832
  20
11.120422
  42
0.4142154
  0
VERTEX
  5
bb
  8
Layer_8
  10
257.77777
  20
6.6911621
  42
0.41420437
  0
SEQEND
  0
POLYLINE
  5
bd
  8
Layer_8
  62
254
  66
1
  10
0
  20
0
  30
0
  0
VERTEX
  5
bd
  8
Layer_8
  10
59.805878
  20
-46.101517
  0
VERTEX
  5
be
  8
Layer_8
  10
65.556625
  20
-46.062241
  42
-0.41420304
  0
VERTEX
  5
bf
  8
Layer_8
  10
70.590668
  20
-51.02803
  0
VERTEX
  5
c0
  8
Layer_8
  10
70.587219
  20
-50.739944
  42
-0.0074522849
  0
VERTEX
  5
c1
  8
Layer_8
  10
70.589127
  20
-50.884659
  0
VERTEX
  5
c2
  8
Layer_8
  10
70.589523
  20
-50.59523
  42
-0.19892107
  0
VERTEX
  5
c3
  8
Layer_8
  10
69.119614
  20
-54.128494
  42
-0.19892206
  0
VERTEX
  5
c4
  8
Layer_8
  10
65.581833
  20
-55.587479
  0
VERTEX
  5
c5
  8
Layer_8
  10
59.830902
  20
-55.578568
  0
SEQEND
  0
POLYLINE
  5
c7
  8
Layer_8
  62
254
  66
1
  10
0
  20
0
  30
0
  0
VERTEX
  5
c7
  8
Layer_8
  10
98.713699
  20
-59.763138
  0
VERTEX
  5
c8
  8
Layer_8
  10
98.646797
  20
-99.537704
  0
VERTEX
  5
c9
  8
Layer_8
  10
98.651146
  20
-100.17935
  42
-0.20014722
  0
VERTEX
  5
ca
  8
Layer_8
  10
97.481743
  20
-103.02773
  42
-0.20014913
  0
VERTEX
  5
cb
  8
Layer_8
  10
94.635201
  20
-104.20137
  0
VERTEX
  5
cc
  8
Layer_8
  10
83.317505
  20
-104.15581
  42
-0.19902722
  0
VERTEX
  5
cd
  8
Layer_8
  10
80.492554
  20
-102.97162
  42
-0.19904026
  0
VERTEX
  5
ce
  8
Layer_8
  10
79.333595
  20
-100.13626
  0
VERTEX
  5
cf
  8
Layer_8
  10
79.33007
  20
-100.86128
  0
VERTEX
  5
d0
  8
Layer_8
  10
79.056755
  20
-60.621201
  0
VERTEX
  5
d1
  8
Layer_8
  10
56.308365
  20
-60.850418
  0
VERTEX
  5
d2
  8
Layer_8
  10
54.92894
  20
-60.864395
  42
-0.40891345
  0
VERTEX
  5
d3
  8
Layer_8
  10
50.385437
  20
-56.491531
  0
VERTEX
  5
d4
  8
Layer_8
  10
50.226517
  20
-50.865402
  0
VERTEX
  5
d5
  8
Layer_8
  10
50.355637
  20
-45.23851
  42
-0.40890387
  0
VERTEX
  5
d6
  8
Layer_8
  10
54.876053
  20
-40.841782
  0
VERTEX
  5
d7
  8
Layer_8
  10
56.255554
  20
-40.848373
  0
VERTEX
  5
d8
  8
Layer_8
  10
79.004906
  20
-40.957443
  0
VERTEX
  5
d9
  8
Layer_8
  10
79.06559
  20
-0.71656799
  0
VERTEX
  5
da
  8
Layer_8
  10
79.073006
  20
-1.4415131
  42
-0.19903821
  0
VERTEX
  5
db
  8
Layer_8
  10
80.216957
  20
1.3999176
  42
-0.19900551
  0
VERTEX
  5
dc
  8
Layer_8
  10
83.035568
  20
2.5989838
  0
VERTEX
  5
dd
  8
Layer_8
  10
94.352852
  20
2.7042999
  42
-0.2001517
  0
VERTEX
  5
de
  8
Layer_8
  10
97.205582
  20
1.5457306
  42
-0.20014625
  0
VERTEX
  5
df
  8
Layer_8
  10
98.390083
  20
-1.2963257
  0
VERTEX
  5
e0
  8
Layer_8
  10
98.389961
  20
-1.877182
  0
VERTEX
  5
e1
  8
Layer_8
  10
98.665627
  20
-41.472702
  0
SEQEND
  0
POLYLINE
  5
e3
  8
Layer_8
  62
254
  66
1
  10
0
  20
0
  30
0
  0
VERTEX
  5
e3
  8
Layer_8
  10
284.42688
  20
-46.832077
  0
VERTEX
  5
e4
  8
Layer_8
  10
284.46027
  20
-51.831985
  0
SEQEND
  0
POLYLINE
  5
e6
  8
Layer_8
  62
254
  66
1
  10
0
  20
0
  30
0
  0
VERTEX
  5
e6
  8
Layer_8
  10
294.04407
  20
-7.7046204
  42
0.0012376143
  0
VERTEX
  5
e7
  8
Layer_8
  10
294.04413
  20
-7.7230682
  0
SEQEND
  0
POLYLINE
  5
e9
  8
Layer_8
  62
254
  66
1
  10
0
  20
0
  30
0
  0
VERTEX
  5
e9
  8
Layer_8
  10
179.28856
  20
18.085434
  0
VERTEX
  5
ea
  8
Layer_8
  10
174.28867
  20
18.052078
  0
SEQEND
  0
POLYLINE
  5
ec
  8
Layer_8
  62
254
  66
1
  10
0
  20
0
  30
0
  0
VERTEX
  5
ec
  8
Layer_8
  10
259.349
  20
-69.82222
  0
VERTEX
  5
ed
  8
Layer_8
  10
254.34911
  20
-69.855606
  0
SEQEND
  0
POLYLINE
  5
ef
  8
Layer_8
  62
254
  66
1
  10
0
  20
0
  30
0
  0
VERTEX
  5
ef
  8
Layer_8
  10
284.37512
  20
-38.11705
  0
VERTEX
  5
f0
  8
Layer_8
  10
284.34906
  20
-33.117081
  0
SEQEND
  0
POLYLINE
  5
f2
  8
Layer_8
  62
254
  70
1
  66
1
  10
0
  20
0
  30
0
  0
VERTEX
  5
f2
  8
Layer_8
  10
136.46777
  20
-85.960251
  42
0.41420988
  0
VERTEX
  5
f3
  8
Layer_8
  10
132.0972
  20
-90.389572
  42
0.41420988
  0
VERTEX
  5
f4
  8
Layer_8
  10
136.52649
  20
-94.760147
  42
0.4142154
  0
VERTEX
  5
f5
  8
Layer_8
  10
140.89703
  20
-90.330856
  42
0.4142154
  0
SEQEND
  0
POLYLINE
  5
f7
  8
Layer_8
  62
254
  66
1
  10
0
  20
0
  30
0
  0
VERTEX
  5
f7
  8
Layer_8
  10
185.64012
  20
-40.929062
  0
VERTEX
  5
f8
  8
Layer_8
  10
196.41335
  20
-30.494034
  0
VERTEX
  5
f9
  8
Layer_8
  10
196.27263
  20
-1.7416229
  0
VERTEX
  5
fa
  8
Layer_8
  10
195.63994
  20
-1.7447662
  0
VERTEX
  5
fb
  8
Layer_8
  10
185.80135
  20
-1.800827
  0
VERTEX
  5
fc
  8
Layer_8
  10
161.95712
  20
-1.8027802
  0
VERTEX
  5
fd
  8
Layer_8
  10
145.17897
  20
-1.7758026
  0
VERTEX
  5
fe
  8
Layer_8
  10
125.91035
  20
-1.8826752
  0
VERTEX
  5
ff
  8
Layer_8
  10
98.389961
  20
-1.877182
  0
SEQEND
  0
POLYLINE
  5
101
  8
Layer_8
  62
254
  66
1
  10
0
  20
0
  30
0
  0
VERTEX
  5
101
  8
Layer_8
  10
187.826
  20
-20.625595
  0
VERTEX
  5
102
  8
Layer_8
  10
192.31029
  20
-20.550583
  0
SEQEND
  0
POLYLINE
  5
104
  8
Layer_8
  62
254
  66
1
  10
0
  20
0
  30
0
  0
VERTEX
  5
104
  8
Layer_8
  10
117.71504
  20
-79.523331
  0
VERTEX
  5
105
  8
Layer_8
  10
122.71492
  20
-79.489944
  0
SEQEND
  0
POLYLINE
  5
107
  8
Layer_8
  62
254
  66
1
  10
0
  20
0
  30
0
  0
VERTEX
  5
107
  8
Layer_8
  10
207.21826
  20
-88.27166
  0
VERTEX
  5
108
  8
Layer_8
  10
226.16202
  20
-88.27166
  0
SEQEND
  0
POLYLINE
  5
10a
  8
Layer_8
  62
254
  66
1
  10
0
  20
0
  30
0
  0
VERTEX
  5
10a
  8
Layer_8
  10
113.8777
  20
-92.818192
  42
0.14452155
  0
VERTEX
  5
10b
  8
Layer_8
  10
116.12659
  20
-92.646194
  0
VERTEX
  5
10c
  8
Layer_8
  10
116.18789
  20
-92.618332
  0
VERTEX
  5
10d
  8
Layer_8
  10
116.24801
  20
-92.588989
  42
0.22785269
  0
VERTEX
  5
10e
  8
Layer_8
  10
117.63415
  20
-90.666428
  42
0.040834958
  0
VERTEX
  5
10f
  8
Layer_8
  10
117.74351
  20
-89.984016
  42
0.040852937
  0
VERTEX
  5
110
  8
Layer_8
  10
117.66212
  20
-89.297699
  42
0.2278474
  0
VERTEX
  5
111
  8
Layer_8
  10
116.3557
  20
-87.320099
  0
VERTEX
  5
112
  8
Layer_8
  10
116.29683
  20
-87.28833
  0
VERTEX
  5
113
  8
Layer_8
  10
116.23672
  20
-87.25798
  42
0.14452549
  0
VERTEX
  5
114
  8
Layer_8
  10
113.99673
  20
-86.994232
  0
SEQEND
  0
POLYLINE
  5
116
  8
Layer_8
  62
254
  66
1
  10
0
  20
0
  30
0
  0
VERTEX
  5
116
  8
Layer_8
  10
204.3502
  20
-70.189224
  0
VERTEX
  5
117
  8
Layer_8
  10
209.35008
  20
-70.155861
  0
SEQEND
  0
POLYLINE
  5
119
  8
Layer_8
  62
254
  66
1
  10
0
  20
0
  30
0
  0
VERTEX
  5
119
  8
Layer_8
  10
216.6227
  20
-94.526779
  0
VERTEX
  5
11a
  8
Layer_8
  10
216.69014
  20
-88.27166
  0
SEQEND
  0
POLYLINE
  5
11c
  8
Layer_8
  62
254
  66
1
  10
0
  20
0
  30
0
  0
VERTEX
  5
11c
  8
Layer_8
  10
244.59904
  20
-88.117661
  0
VERTEX
  5
11d
  8
Layer_8
  10
239.59544
  20
-88.117661
  0
SEQEND
  0
POLYLINE
  5
11f
  8
Layer_8
  62
254
  66
1
  10
0
  20
0
  30
0
  0
VERTEX
  5
11f
  8
Layer_8
  10
127.12395
  20
-60.494919
  0
VERTEX
  5
120
  8
Layer_8
  10
122.12405
  20
-60.528275
  0
SEQEND
  0
POLYLINE
  5
122
  8
Layer_8
  62
254
  66
1
  10
0
  20
0
  30
0
  0
VERTEX
  5
122
  8
Layer_8
  10
107.37003
  20
-21.459915
  0
VERTEX
  5
123
  8
Layer_8
  10
112.36997
  20
-21.433884
  0
SEQEND
  0
POLYLINE
  5
125
  8
Layer_8
  62
254
  66
1
  10
0
  20
0
  30
0
  0
VERTEX
  5
125
  8
Layer_8
  10
270.22314
  20
28.192459
  0
VERTEX
  5
126
  8
Layer_8
  10
265.22327
  20
28.159073
  0
SEQEND
  0
POLYLINE
  5
128
  8
Layer_8
  62
254
  66
1
  10
0
  20
0
  30
0
  0
VERTEX
  5
128
  8
Layer_8
  10
98.334938
  20
-21.506943
  0
VERTEX
  5
129
  8
Layer_8
  10
102.37009
  20
-21.485886
  0
SEQEND
  0
POLYLINE
  5
12b
  8
Layer_8
  62
254
  66
1
  10
0
  20
0
  30
0
  0
VERTEX
  5
12b
  8
Layer_8
  10
283.92828
  20
1.0651398
  0
VERTEX
  5
12c
  8
Layer_8
  10
283.96497
  20
-1.27388
  42
-0.41411999
  0
VERTEX
  5
12d
  8
Layer_8
  10
288.3938
  20
3.2948914
  0
VERTEX
  5
12e
  8
Layer_8
  10
288.76184
  20
3.3006744
  0
VERTEX
  5
12f
  8
Layer_8
  10
288.81024
  20
3.2888641
  0
VERTEX
  5
130
  8
Layer_8
  10
288.8205
  20
3.285965
  0
VERTEX
  5
131
  8
Layer_8
  10
299.85547
  20
3.1681671
  42
-0.20105353
  0
VERTEX
  5
132
  8
Layer_8
  10
302.88306
  20
2.0188751
  42
-0.20105212
  0
VERTEX
  5
133
  8
Layer_8
  10
304.18671
  20
-0.94554138
  0
VERTEX
  5
134
  8
Layer_8
  10
304.41455
  20
-97.767349
  42
-0.19960045
  0
VERTEX
  5
135
  8
Layer_8
  10
302.75494
  20
-102.01784
  42
-0.20264645
  0
VERTEX
  5
136
  8
Layer_8
  10
298.44153
  20
-103.76535
  0
VERTEX
  5
137
  8
Layer_8
  10
287.93127
  20
-103.63069
  0
VERTEX
  5
138
  8
Layer_8
  10
287.84851
  20
-103.62398
  0
VERTEX
  5
139
  8
Layer_8
  10
287.76416
  20
-103.6154
  0
VERTEX
  5
13a
  8
Layer_8
  10
287.68134
  20
-103.60521
  42
-0.26099709
  0
VERTEX
  5
13b
  8
Layer_8
  10
285.21002
  20
-101.80452
  42
-0.054909173
  0
VERTEX
  5
13c
  8
Layer_8
  10
284.52869
  20
-99.995865
  0
VERTEX
  5
13d
  8
Layer_8
  10
284.64856
  20
-68.64875
  0
SEQEND
  0
POLYLINE
  5
13f
  8
Layer_8
  62
254
  66
1
  10
0
  20
0
  30
0
  0
VERTEX
  5
13f
  8
Layer_8
  10
133.56808
  20
-99.569153
  0
VERTEX
  5
140
  8
Layer_8
  10
128.56821
  20
-99.602524
  0
SEQEND
  0
POLYLINE
  5
142
  8
Layer_8
  62
254
  66
1
  10
0
  20
0
  30
0
  0
VERTEX
  5
142
  8
Layer_8
  10
94.411865
  20
-40.804794
  0
VERTEX
  5
143
  8
Layer_8
  10
94.411415
  20
-40.846603
  0
SEQEND
  0
POLYLINE
  5
145
  8
Layer_8
  62
254
  66
1
  10
0
  20
0
  30
0
  0
VERTEX
  5
145
  8
Layer_8
  10
284.52869
  20
-99.995865
  0
VERTEX
  5
146
  8
Layer_8
  10
284.44055
  20
-123.01332
  0
VERTEX
  5
147
  8
Layer_8
  10
197.65257
  20
-123.4503
  0
VERTEX
  5
148
  8
Layer_8
  10
197.50725
  20
-118.70345
  0
VERTEX
  5
149
  8
Layer_8
  10
197.50725
  20
-117.20345
  0
VERTEX
  5
14a
  8
Layer_8
  10
185.33461
  20
-117.20345
  42
-0.34168775
  0
VERTEX
  5
14b
  8
Layer_8
  10
182.43071
  20
-114.95665
  42
-0.037762045
  0
VERTEX
  5
14c
  8
Layer_8
  10
182.31075
  20
-114.29115
  0
VERTEX
  5
14d
  8
Layer_8
  10
182.08998
  20
-103.21678
  42
-0.2052544
  0
VERTEX
  5
14e
  8
Layer_8
  10
183.38089
  20
-100.25967
  42
-0.20514352
  0
VERTEX
  5
14f
  8
Layer_8
  10
186.33052
  20
-99.10405
  0
VERTEX
  5
150
  8
Layer_8
  10
196.17458
  20
-99.243866
  0
VERTEX
  5
151
  8
Layer_8
  10
196.52803
  20
-99.18367
  0
VERTEX
  5
152
  8
Layer_8
  10
196.51671
  20
-70.46331
  0
VERTEX
  5
153
  8
Layer_8
  10
185.69014
  20
-60.087051
  0
SEQEND
  0
POLYLINE
  5
155
  8
Layer_8
  62
254
  66
1
  10
0
  20
0
  30
0
  0
VERTEX
  5
155
  8
Layer_8
  10
78.920326
  20
-45.096542
  0
VERTEX
  5
156
  8
Layer_8
  10
78.917473
  20
-49.140579
  0
SEQEND
  0
POLYLINE
  5
158
  8
Layer_8
  62
254
  66
1
  10
0
  20
0
  30
0
  0
VERTEX
  5
158
  8
Layer_8
  10
284.42181
  20
-45.116867
  0
VERTEX
  5
159
  8
Layer_8
  10
284.39581
  20
-40.116928
  0
SEQEND
  0
POLYLINE
  5
15b
  8
Layer_8
  62
254
  66
1
  10
0
  20
0
  30
0
  0
VERTEX
  5
15b
  8
Layer_8
  10
234.64952
  20
-88.200119
  0
VERTEX
  5
15c
  8
Layer_8
  10
229.94923
  20
-88.222244
  0
SEQEND
  0
POLYLINE
  5
15e
  8
Layer_8
  62
254
  66
1
  10
0
  20
0
  30
0
  0
VERTEX
  5
15e
  8
Layer_8
  10
117.12416
  20
-60.561661
  0
VERTEX
  5
15f
  8
Layer_8
  10
112.12427
  20
-60.595016
  0
SEQEND
  0
POLYLINE
  5
161
  8
Layer_8
  62
254
  66
1
  10
0
  20
0
  30
0
  0
VERTEX
  5
161
  8
Layer_8
  10
107.71526
  20
-79.590073
  0
VERTEX
  5
162
  8
Layer_8
  10
112.71516
  20
-79.556702
  0
SEQEND
  0
POLYLINE
  5
164
  8
Layer_8
  62
254
  70
1
  66
1
  10
0
  20
0
  30
0
  0
VERTEX
  5
164
  8
Layer_8
  10
263.37787
  20
-111.66484
  42
0.41420896
  0
VERTEX
  5
165
  8
Layer_8
  10
267.74841
  20
-107.23555
  42
0.41420528
  0
VERTEX
  5
166
  8
Layer_8
  10
263.31915
  20
-102.86501
  42
0.41420344
  0
VERTEX
  5
167
  8
Layer_8
  10
258.94861
  20
-107.2943
  42
0.41420989
  0
SEQEND
  0
POLYLINE
  5
169
  8
Layer_8
  62
254
  66
1
  10
0
  20
0
  30
0
  0
VERTEX
  5
169
  8
Layer_8
  10
127.71482
  20
-79.456573
  0
VERTEX
  5
16a
  8
Layer_8
  10
132.71472
  20
-79.423225
  0
SEQEND
  0
POLYLINE
  5
16c
  8
Layer_8
  62
254
  66
1
  10
0
  20
0
  30
0
  0
VERTEX
  5
16c
  8
Layer_8
  10
147.71436
  20
-79.323059
  0
VERTEX
  5
16d
  8
Layer_8
  10
152.71426
  20
-79.289703
  0
SEQEND
  0
POLYLINE
  5
16f
  8
Layer_8
  62
254
  66
1
  10
0
  20
0
  30
0
  0
VERTEX
  5
16f
  8
Layer_8
  10
179.98158
  20
-99.259445
  0
VERTEX
  5
170
  8
Layer_8
  10
174.9817
  20
-99.292816
  0
SEQEND
  0
POLYLINE
  5
172
  8
Layer_8
  62
254
  66
1
  10
0
  20
0
  30
0
  0
VERTEX
  5
172
  8
Layer_8
  10
117.99642
  20
-96.738312
  0
VERTEX
  5
173
  8
Layer_8
  10
111.94528
  20
-94.774185
  0
VERTEX
  5
174
  8
Layer_8
  10
111.99931
  20
-89.866615
  0
VERTEX
  5
175
  8
Layer_8
  10
112.14586
  20
-84.960899
  0
VERTEX
  5
176
  8
Layer_8
  10
118.2722
  20
-83.245682
  0
SEQEND
  0
POLYLINE
  5
178
  8
Layer_8
  62
254
  66
1
  10
0
  20
0
  30
0
  0
VERTEX
  5
178
  8
Layer_8
  10
177.00346
  20
-40.062912
  0
VERTEX
  5
179
  8
Layer_8
  10
172.00352
  20
-40.088913
  0
SEQEND
  0
POLYLINE
  5
17b
  8
Layer_8
  62
254
  66
1
  10
0
  20
0
  30
0
  0
VERTEX
  5
17b
  8
Layer_8
  10
259.47198
  20
-18.596542
  42
0.032951587
  0
VERTEX
  5
17c
  8
Layer_8
  10
259.49814
  20
-18.957047
  0
SEQEND
  0
POLYLINE
  5
17e
  8
Layer_8
  62
254
  66
1
  10
0
  20
0
  30
0
  0
VERTEX
  5
17e
  8
Layer_8
  10
85.492363
  20
-60.356583
  0
VERTEX
  5
17f
  8
Layer_8
  10
81.492409
  20
-60.376236
  0
SEQEND
  0
POLYLINE
  5
181
  8
Layer_8
  62
254
  66
1
  10
0
  20
0
  30
0
  0
VERTEX
  5
181
  8
Layer_8
  10
284.50696
  20
-58.831802
  0
VERTEX
  5
182
  8
Layer_8
  10
284.47357
  20
-53.831924
  0
SEQEND
  0
POLYLINE
  5
184
  8
Layer_8
  62
254
  66
1
  10
0
  20
0
  30
0
  0
VERTEX
  5
184
  8
Layer_8
  10
169.9818
  20
-99.326172
  0
VERTEX
  5
185
  8
Layer_8
  10
164.98192
  20
-99.359543
  0
SEQEND
  0
POLYLINE
  5
187
  8
Layer_8
  62
254
  66
1
  10
0
  20
0
  30
0
  0
VERTEX
  5
187
  8
Layer_8
  10
182.11765
  20
-79.30011
  0
VERTEX
  5
188
  8
Layer_8
  10
162.76538
  20
-79.323395
  0
SEQEND
  0
POLYLINE
  5
18a
  8
Layer_8
  62
254
  66
1
  10
0
  20
0
  30
0
  0
VERTEX
  5
18a
  8
Layer_8
  10
249.3492
  20
-69.888962
  0
VERTEX
  5
18b
  8
Layer_8
  10
244.34932
  20
-69.92231
  0
SEQEND
  0
POLYLINE
  5
18d
  8
Layer_8
  62
254
  66
1
  10
0
  20
0
  30
0
  0
VERTEX
  5
18d
  8
Layer_8
  10
264.59491
  20
-87.95079
  0
VERTEX
  5
18e
  8
Layer_8
  10
259.59503
  20
-87.984146
  0
SEQEND
  0
POLYLINE
  5
190
  8
Layer_8
  62
254
  66
1
  10
0
  20
0
  30
0
  0
VERTEX
  5
190
  8
Layer_8
  10
157.12328
  20
-60.294754
  0
VERTEX
  5
191
  8
Layer_8
  10
152.12338
  20
-60.32811
  0
SEQEND
  0
POLYLINE
  5
193
  8
Layer_8
  62
254
  66
1
  10
0
  20
0
  30
0
  0
VERTEX
  5
193
  8
Layer_8
  10
260.22339
  20
28.125717
  0
VERTEX
  5
194
  8
Layer_8
  10
255.22346
  20
28.092361
  0
SEQEND
  0
POLYLINE
  5
196
  8
Layer_8
  62
254
  66
1
  10
0
  20
0
  30
0
  0
VERTEX
  5
196
  8
Layer_8
  10
94.528221
  20
-60.400497
  0
VERTEX
  5
197
  8
Layer_8
  10
94.52729
  20
-60.358658
  0
SEQEND
  0
POLYLINE
  5
199
  8
Layer_8
  62
254
  66
1
  10
0
  20
0
  30
0
  0
VERTEX
  5
199
  8
Layer_8
  10
201.59648
  20
-88.108955
  0
VERTEX
  5
19a
  8
Layer_8
  10
197.59673
  20
-88.065781
  0
SEQEND
  0
POLYLINE
  5
19c
  8
Layer_8
  62
254
  66
1
  10
0
  20
0
  30
0
  0
VERTEX
  5
19c
  8
Layer_8
  10
279.34851
  20
-69.688789
  0
VERTEX
  5
19d
  8
Layer_8
  10
274.34863
  20
-69.722122
  0
SEQEND
  0
POLYLINE
  5
19f
  8
Layer_8
  62
254
  66
1
  10
0
  20
0
  30
0
  0
VERTEX
  5
19f
  8
Layer_8
  10
127.36975
  20
-21.355911
  0
VERTEX
  5
1a0
  8
Layer_8
  10
132.36969
  20
-21.32988
  0
SEQEND
  0
POLYLINE
  5
1a2
  8
Layer_8
  62
254
  66
1
  10
0
  20
0
  30
0
  0
VERTEX
  5
1a2
  8
Layer_8
  10
289.1087
  20
-29.269943
  0
VERTEX
  5
1a3
  8
Layer_8
  10
286.1087
  20
-29.285568
  0
SEQEND
  0
POLYLINE
  5
1a5
  8
Layer_8
  62
254
  66
1
  10
0
  20
0
  30
0
  0
VERTEX
  5
1a5
  8
Layer_8
  10
104.62444
  20
-60.645065
  0
VERTEX
  5
1a6
  8
Layer_8
  10
108.64527
  20
-60.634232
  0
SEQEND
  0
POLYLINE
  5
1a8
  8
Layer_8
  62
254
  66
1
  10
0
  20
0
  30
0
  0
VERTEX
  5
1a8
  8
Layer_8
  10
289.34833
  20
-69.622055
  0
VERTEX
  5
1a9
  8
Layer_8
  10
286.34839
  20
-69.642075
  0
SEQEND
  0
POLYLINE
  5
1ab
  8
Layer_8
  62
254
  66
1
  10
0
  20
0
  30
0
  0
VERTEX
  5
1ab
  8
Layer_8
  10
60.299583
  20
-46.171432
  0
VERTEX
  5
1ac
  8
Layer_8
  10
59.816139
  20
-46.102982
  0
SEQEND
  0
POLYLINE
  5
1ae
  8
Layer_8
  62
254
  66
1
  10
0
  20
0
  30
0
  0
VERTEX
  5
1ae
  8
Layer_8
  10
147.00385
  20
-40.219101
  0
VERTEX
  5
1af
  8
Layer_8
  10
142.00394
  20
-40.245102
  0
SEQEND
  0
POLYLINE
  5
1b1
  8
Layer_8
  62
254
  66
1
  10
0
  20
0
  30
0
  0
VERTEX
  5
1b1
  8
Layer_8
  10
155.2142
  20
-79.272995
  0
VERTEX
  5
1b2
  8
Layer_8
  10
160.2141
  20
-79.239655
  0
SEQEND
  0
POLYLINE
  5
1b4
  8
Layer_8
  62
254
  66
1
  10
0
  20
0
  30
0
  0
VERTEX
  5
1b4
  8
Layer_8
  10
95.3769
  20
-40.886398
  0
VERTEX
  5
1b5
  8
Layer_8
  10
90.377022
  20
-40.921249
  0
SEQEND
  0
POLYLINE
  5
1b7
  8
Layer_8
  62
254
  66
1
  10
0
  20
0
  30
0
  0
VERTEX
  5
1b7
  8
Layer_8
  10
147.1235
  20
-60.361465
  0
VERTEX
  5
1b8
  8
Layer_8
  10
142.1236
  20
-60.394852
  0
SEQEND
  0
POLYLINE
  5
1ba
  8
Layer_8
  62
254
  66
1
  10
0
  20
0
  30
0
  0
VERTEX
  5
1ba
  8
Layer_8
  10
274.41797
  20
-12.791245
  0
VERTEX
  5
1bb
  8
Layer_8
  10
269.41797
  20
-12.781326
  0
SEQEND
  0
POLYLINE
  5
1bd
  8
Layer_8
  62
254
  66
1
  10
0
  20
0
  30
0
  0
VERTEX
  5
1bd
  8
Layer_8
  10
98.665634
  20
-56.319168
  0
VERTEX
  5
1be
  8
Layer_8
  10
98.654343
  20
-52.01619
  0
SEQEND
  0
POLYLINE
  5
1c0
  8
Layer_8
  62
254
  66
1
  10
0
  20
0
  30
0
  0
VERTEX
  5
1c0
  8
Layer_8
  10
224.25749
  20
-30.855728
  0
VERTEX
  5
1c1
  8
Layer_8
  10
229.25749
  20
-30.865555
  0
SEQEND
  0
POLYLINE
  5
1c3
  8
Layer_8
  62
254
  66
1
  10
0
  20
0
  30
0
  0
VERTEX
  5
1c3
  8
Layer_8
  10
132.94888
  20
-72.223312
  42
0.18958575
  0
VERTEX
  5
1c4
  8
Layer_8
  10
133.69821
  20
-74.091774
  0
SEQEND
  0
POLYLINE
  5
1c6
  8
Layer_8
  62
254
  66
1
  10
0
  20
0
  30
0
  0
VERTEX
  5
1c6
  8
Layer_8
  10
254.31816
  20
-12.718887
  0
VERTEX
  5
1c7
  8
Layer_8
  10
249.41798
  20
-12.741928
  0
SEQEND
  0
POLYLINE
  5
1c9
  8
Layer_8
  62
254
  66
1
  10
0
  20
0
  30
0
  0
VERTEX
  5
1c9
  8
Layer_8
  10
234.47176
  20
-12.663101
  0
VERTEX
  5
1ca
  8
Layer_8
  10
229.77144
  20
-12.663101
  0
SEQEND
  0
POLYLINE
  5
1cc
  8
Layer_8
  62
254
  66
1
  10
0
  20
0
  30
0
  0
VERTEX
  5
1cc
  8
Layer_8
  10
283.45319
  20
-12.809036
  0
VERTEX
  5
1cd
  8
Layer_8
  10
279.41797
  20
-12.801102
  0
SEQEND
  0
POLYLINE
  5
1cf
  8
Layer_8
  62
254
  66
1
  10
0
  20
0
  30
0
  0
VERTEX
  5
1cf
  8
Layer_8
  10
264.25745
  20
-30.934372
  0
VERTEX
  5
1d0
  8
Layer_8
  10
269.25745
  20
-30.944199
  0
SEQEND
  0
POLYLINE
  5
1d2
  8
Layer_8
  62
254
  66
1
  10
0
  20
0
  30
0
  0
VERTEX
  5
1d2
  8
Layer_8
  10
249.25746
  20
-30.904861
  0
VERTEX
  5
1d3
  8
Layer_8
  10
244.25746
  20
-30.895035
  0
SEQEND
  0
POLYLINE
  5
1d5
  8
Layer_8
  62
254
  66
1
  10
0
  20
0
  30
0
  0
VERTEX
  5
1d5
  8
Layer_8
  10
137.7146
  20
-79.389786
  0
VERTEX
  5
1d6
  8
Layer_8
  10
142.71448
  20
-79.35643
  0
SEQEND
  0
POLYLINE
  5
1d8
  8
Layer_8
  62
254
  66
1
  10
0
  20
0
  30
0
  0
VERTEX
  5
1d8
  8
Layer_8
  10
206.77144
  20
-12.647018
  0
VERTEX
  5
1d9
  8
Layer_8
  10
211.77138
  20
-12.623489
  0
SEQEND
  0
POLYLINE
  5
1db
  8
Layer_8
  62
254
  66
1
  10
0
  20
0
  30
0
  0
VERTEX
  5
1db
  8
Layer_8
  10
180.83751
  20
-20.923996
  0
VERTEX
  5
1dc
  8
Layer_8
  10
161.80504
  20
-21.127182
  0
SEQEND
  0
POLYLINE
  5
1de
  8
Layer_8
  62
254
  66
1
  10
0
  20
0
  30
0
  0
VERTEX
  5
1de
  8
Layer_8
  10
264.34888
  20
-69.788864
  0
VERTEX
  5
1df
  8
Layer_8
  10
269.34875
  20
-69.755501
  0
SEQEND
  0
POLYLINE
  5
1e1
  8
Layer_8
  62
254
  66
1
  10
0
  20
0
  30
0
  0
VERTEX
  5
1e1
  8
Layer_8
  10
264.41797
  20
-12.7715
  0
VERTEX
  5
1e2
  8
Layer_8
  10
259.41797
  20
-12.761673
  0
SEQEND
  0
POLYLINE
  5
1e4
  8
Layer_8
  62
254
  66
1
  10
0
  20
0
  30
0
  0
VERTEX
  5
1e4
  8
Layer_8
  10
239.25749
  20
-30.885208
  0
VERTEX
  5
1e5
  8
Layer_8
  10
234.25746
  20
-30.875381
  0
SEQEND
  0
POLYLINE
  5
1e7
  8
Layer_8
  62
254
  66
1
  10
0
  20
0
  30
0
  0
VERTEX
  5
1e7
  8
Layer_8
  10
113.01008
  20
-11.535263
  0
VERTEX
  5
1e8
  8
Layer_8
  10
123.51007
  20
-11.5327
  0
SEQEND
  0
POLYLINE
  5
1ea
  8
Layer_8
  62
254
  66
1
  10
0
  20
0
  30
0
  0
VERTEX
  5
1ea
  8
Layer_8
  10
244.42155
  20
-12.698715
  0
VERTEX
  5
1eb
  8
Layer_8
  10
239.41801
  20
-12.722275
  0
SEQEND
  0
POLYLINE
  5
1ed
  8
Layer_8
  62
254
  66
1
  10
0
  20
0
  30
0
  0
VERTEX
  5
1ed
  8
Layer_8
  10
177.12283
  20
-60.16127
  0
VERTEX
  5
1ee
  8
Layer_8
  10
172.12294
  20
-60.194656
  0
SEQEND
  0
POLYLINE
  5
1f0
  8
Layer_8
  62
254
  66
1
  10
0
  20
0
  30
0
  0
VERTEX
  5
1f0
  8
Layer_8
  10
204.25755
  20
-30.816391
  0
VERTEX
  5
1f1
  8
Layer_8
  10
209.25752
  20
-30.826218
  0
SEQEND
  0
POLYLINE
  5
1f3
  8
Layer_8
  62
254
  66
1
  10
0
  20
0
  30
0
  0
VERTEX
  5
1f3
  8
Layer_8
  10
169.28877
  20
18.018692
  0
VERTEX
  5
1f4
  8
Layer_8
  10
164.28889
  20
17.985367
  0
SEQEND
  0
POLYLINE
  5
1f6
  8
Layer_8
  62
254
  66
1
  10
0
  20
0
  30
0
  0
VERTEX
  5
1f6
  8
Layer_8
  10
199.3503
  20
-70.22261
  0
VERTEX
  5
1f7
  8
Layer_8
  10
196.85036
  20
-70.239281
  0
SEQEND
  0
POLYLINE
  5
1f9
  8
Layer_8
  62
254
  66
1
  10
0
  20
0
  30
0
  0
VERTEX
  5
1f9
  8
Layer_8
  10
137.12372
  20
-60.428177
  0
VERTEX
  5
1fa
  8
Layer_8
  10
132.12381
  20
-60.461563
  0
SEQEND
  0
POLYLINE
  5
1fc
  8
Layer_8
  62
254
  66
1
  10
0
  20
0
  30
0
  0
VERTEX
  5
1fc
  8
Layer_8
  10
213.22441
  20
27.812088
  0
VERTEX
  5
1fd
  8
Layer_8
  10
208.22453
  20
27.778732
  0
SEQEND
  0
POLYLINE
  5
1ff
  8
Layer_8
  62
254
  66
1
  10
0
  20
0
  30
0
  0
VERTEX
  5
1ff
  8
Layer_8
  10
185.4774
  20
-99.216843
  0
VERTEX
  5
200
  8
Layer_8
  10
181.92183
  20
-99.211578
  0
VERTEX
  5
201
  8
Layer_8
  10
181.82487
  20
-105.22603
  42
-0.41210747
  0
VERTEX
  5
202
  8
Layer_8
  10
172.74571
  20
-114.08063
  0
VERTEX
  5
203
  8
Layer_8
  10
171.10838
  20
-114.06604
  42
-0.4130093
  0
VERTEX
  5
204
  8
Layer_8
  10
162.18883
  20
-105.02321
  0
VERTEX
  5
205
  8
Layer_8
  10
162.21614
  20
-99.33728
  0
VERTEX
  5
206
  8
Layer_8
  10
145.44626
  20
-99.452911
  0
VERTEX
  5
207
  8
Layer_8
  10
145.3887
  20
-105.31783
  42
-0.19891424
  0
VERTEX
  5
208
  8
Layer_8
  10
142.69037
  20
-111.65558
  42
-0.19891348
  0
VERTEX
  5
209
  8
Layer_8
  10
136.30084
  20
-114.22899
  0
VERTEX
  5
20a
  8
Layer_8
  10
134.99762
  20
-114.2162
  42
-0.1995022
  0
VERTEX
  5
20b
  8
Layer_8
  10
128.64549
  20
-111.50313
  42
-0.19951145
  0
VERTEX
  5
20c
  8
Layer_8
  10
126.08687
  20
-105.08723
  0
VERTEX
  5
20d
  8
Layer_8
  10
126.16802
  20
-99.447754
  0
VERTEX
  5
20e
  8
Layer_8
  10
98.646797
  20
-99.537704
  0
SEQEND
  0
POLYLINE
  5
210
  8
Layer_8
  62
254
  66
1
  10
0
  20
0
  30
0
  0
VERTEX
  5
210
  8
Layer_8
  10
299.34827
  20
-69.598579
  0
VERTEX
  5
211
  8
Layer_8
  10
294.34833
  20
-69.610336
  0
SEQEND
  0
POLYLINE
  5
213
  8
Layer_8
  62
254
  66
1
  10
0
  20
0
  30
0
  0
VERTEX
  5
213
  8
Layer_8
  10
98.636124
  20
-45.155807
  0
VERTEX
  5
214
  8
Layer_8
  10
98.647552
  20
-49.458878
  0
SEQEND
  0
POLYLINE
  5
216
  8
Layer_8
  62
254
  66
1
  10
0
  20
0
  30
0
  0
VERTEX
  5
216
  8
Layer_8
  10
137.36963
  20
-21.303879
  0
VERTEX
  5
217
  8
Layer_8
  10
142.36954
  20
-21.277878
  0
SEQEND
  0
POLYLINE
  5
219
  8
Layer_8
  62
254
  66
1
  10
0
  20
0
  30
0
  0
VERTEX
  5
219
  8
Layer_8
  10
127.00415
  20
-40.323166
  0
VERTEX
  5
21a
  8
Layer_8
  10
122.00421
  20
-40.349228
  0
SEQEND
  0
POLYLINE
  5
21c
  8
Layer_8
  62
254
  66
1
  10
0
  20
0
  30
0
  0
VERTEX
  5
21c
  8
Layer_8
  10
117.36989
  20
-21.407944
  0
VERTEX
  5
21d
  8
Layer_8
  10
122.36983
  20
-21.381882
  0
SEQEND
  0
POLYLINE
  5
21f
  8
Layer_8
  62
254
  66
1
  10
0
  20
0
  30
0
  0
VERTEX
  5
21f
  8
Layer_8
  10
118.24255
  20
-16.033981
  0
VERTEX
  5
220
  8
Layer_8
  10
118.2776
  20
-7.0339813
  0
SEQEND
  0
POLYLINE
  5
222
  8
Layer_8
  62
254
  66
1
  10
0
  20
0
  30
0
  0
VERTEX
  5
222
  8
Layer_8
  10
218.22429
  20
27.845474
  0
VERTEX
  5
223
  8
Layer_8
  10
223.2242
  20
27.87883
  0
SEQEND
  0
POLYLINE
  5
225
  8
Layer_8
  62
254
  66
1
  10
0
  20
0
  30
0
  0
VERTEX
  5
225
  8
Layer_8
  10
95.492241
  20
-60.307419
  0
VERTEX
  5
226
  8
Layer_8
  10
90.492302
  20
-60.331985
  0
SEQEND
  0
POLYLINE
  5
228
  8
Layer_8
  62
254
  66
1
  10
0
  20
0
  30
0
  0
VERTEX
  5
228
  8
Layer_8
  10
167.00362
  20
-40.114975
  0
VERTEX
  5
229
  8
Layer_8
  10
162.00368
  20
-40.141037
  0
SEQEND
  0
POLYLINE
  5
22b
  8
Layer_8
  62
254
  66
1
  10
0
  20
0
  30
0
  0
VERTEX
  5
22b
  8
Layer_8
  10
78.950371
  20
-56.482681
  0
VERTEX
  5
22c
  8
Layer_8
  10
78.926102
  20
-52.438705
  0
SEQEND
  0
POLYLINE
  5
22e
  8
Layer_8
  62
254
  66
1
  10
0
  20
0
  30
0
  0
VERTEX
  5
22e
  8
Layer_8
  10
214.34996
  20
-70.122513
  0
VERTEX
  5
22f
  8
Layer_8
  10
219.34987
  20
-70.089119
  0
SEQEND
  0
POLYLINE
  5
231
  8
Layer_8
  62
254
  66
1
  10
0
  20
0
  30
0
  0
VERTEX
  5
231
  8
Layer_8
  10
137.004
  20
-40.271103
  0
VERTEX
  5
232
  8
Layer_8
  10
132.00407
  20
-40.297134
  0
SEQEND
  0
POLYLINE
  5
234
  8
Layer_8
  62
254
  66
1
  10
0
  20
0
  30
0
  0
VERTEX
  5
234
  8
Layer_8
  10
224.34975
  20
-70.055801
  0
VERTEX
  5
235
  8
Layer_8
  10
229.34962
  20
-70.022415
  0
SEQEND
  0
POLYLINE
  5
237
  8
Layer_8
  62
254
  66
1
  10
0
  20
0
  30
0
  0
VERTEX
  5
237
  8
Layer_8
  10
199.25755
  20
-30.806564
  0
VERTEX
  5
238
  8
Layer_8
  10
196.75755
  20
-30.80162
  0
SEQEND
  0
POLYLINE
  5
23a
  8
Layer_8
  62
254
  66
1
  10
0
  20
0
  30
0
  0
VERTEX
  5
23a
  8
Layer_8
  10
259.25745
  20
-30.924545
  0
VERTEX
  5
23b
  8
Layer_8
  10
254.25746
  20
-30.914688
  0
SEQEND
  0
POLYLINE
  5
23d
  8
Layer_8
  62
254
  66
1
  10
0
  20
0
  30
0
  0
VERTEX
  5
23d
  8
Layer_8
  10
279.25739
  20
-30.963852
  0
VERTEX
  5
23e
  8
Layer_8
  10
274.25745
  20
-30.954025
  0
SEQEND
  0
POLYLINE
  5
240
  8
Layer_8
  62
254
  66
1
  10
0
  20
0
  30
0
  0
VERTEX
  5
240
  8
Layer_8
  10
147.36948
  20
-21.251877
  0
VERTEX
  5
241
  8
Layer_8
  10
152.36943
  20
-21.225876
  0
SEQEND
  0
POLYLINE
  5
243
  8
Layer_8
  62
254
  66
1
  10
0
  20
0
  30
0
  0
VERTEX
  5
243
  8
Layer_8
  10
274.59467
  20
-87.883949
  0
VERTEX
  5
244
  8
Layer_8
  10
269.59479
  20
-87.917419
  0
SEQEND
  0
POLYLINE
  5
246
  8
Layer_8
  62
254
  66
1
  10
0
  20
0
  30
0
  0
VERTEX
  5
246
  8
Layer_8
  10
98.680267
  20
-79.650345
  0
VERTEX
  5
247
  8
Layer_8
  10
102.71536
  20
-79.623436
  0
SEQEND
  0
POLYLINE
  5
249
  8
Layer_8
  62
254
  66
1
  10
0
  20
0
  30
0
  0
VERTEX
  5
249
  8
Layer_8
  10
239.34944
  20
-69.955704
  0
VERTEX
  5
24a
  8
Layer_8
  10
234.34953
  20
-69.989059
  0
SEQEND
  0
POLYLINE
  5
24c
  8
Layer_8
  62
254
  66
1
  10
0
  20
0
  30
0
  0
VERTEX
  5
24c
  8
Layer_8
  10
117.00429
  20
-40.375168
  0
VERTEX
  5
24d
  8
Layer_8
  10
112.00436
  20
-40.40123
  0
SEQEND
  0
POLYLINE
  5
24f
  8
Layer_8
  62
254
  66
1
  10
0
  20
0
  30
0
  0
VERTEX
  5
24f
  8
Layer_8
  10
299.10822
  20
-29.174667
  0
VERTEX
  5
250
  8
Layer_8
  10
294.10846
  20
-29.222275
  0
SEQEND
  0
POLYLINE
  5
252
  8
Layer_8
  62
254
  66
1
  10
0
  20
0
  30
0
  0
VERTEX
  5
252
  8
Layer_8
  10
172.48325
  20
-85.567116
  0
VERTEX
  5
253
  8
Layer_8
  10
172.44151
  20
-79.311752
  0
SEQEND
  0
POLYLINE
  5
255
  8
Layer_8
  62
254
  66
1
  10
0
  20
0
  30
0
  0
VERTEX
  5
255
  8
Layer_8
  10
85.377136
  20
-40.95607
  0
VERTEX
  5
256
  8
Layer_8
  10
81.377235
  20
-40.983932
  0
SEQEND
  0
POLYLINE
  5
258
  8
Layer_8
  62
254
  66
1
  10
0
  20
0
  30
0
  0
VERTEX
  5
258
  8
Layer_8
  10
254.49544
  20
-88.050934
  0
VERTEX
  5
259
  8
Layer_8
  10
249.59523
  20
-88.050934
  0
SEQEND
  0
POLYLINE
  5
25b
  8
Layer_8
  62
254
  66
1
  10
0
  20
0
  30
0
  0
VERTEX
  5
25b
  8
Layer_8
  10
167.12305
  20
-60.228012
  0
VERTEX
  5
25c
  8
Layer_8
  10
162.12315
  20
-60.261368
  0
SEQEND
  0
POLYLINE
  5
25e
  8
Layer_8
  62
254
  66
1
  10
0
  20
0
  30
0
  0
VERTEX
  5
25e
  8
Layer_8
  10
214.25752
  20
-30.836044
  0
VERTEX
  5
25f
  8
Layer_8
  10
219.25752
  20
-30.845871
  0
SEQEND
  0
POLYLINE
  5
261
  8
Layer_8
  62
254
  66
1
  10
0
  20
0
  30
0
  0
VERTEX
  5
261
  8
Layer_8
  10
284.5603
  20
-66.831619
  0
VERTEX
  5
262
  8
Layer_8
  10
284.52698
  20
-61.831741
  0
SEQEND
  0
POLYLINE
  5
264
  8
Layer_8
  62
254
  66
1
  10
0
  20
0
  30
0
  0
VERTEX
  5
264
  8
Layer_8
  10
157.00374
  20
-40.167007
  0
VERTEX
  5
265
  8
Layer_8
  10
152.00381
  20
-40.193039
  0
SEQEND
  0
POLYLINE
  5
267
  8
Layer_8
  62
254
  66
1
  10
0
  20
0
  30
0
  0
VERTEX
  5
267
  8
Layer_8
  10
143.56787
  20
-99.502426
  0
VERTEX
  5
268
  8
Layer_8
  10
138.56796
  20
-99.535797
  0
SEQEND
  0
POLYLINE
  5
26a
  8
Layer_8
  62
254
  66
1
  10
0
  20
0
  30
0
  0
VERTEX
  5
26a
  8
Layer_8
  10
98.736031
  20
-1.8366547
  0
VERTEX
  5
26b
  8
Layer_8
  10
98.737434
  20
-1.8366547
  0
SEQEND
  0
POLYLINE
  5
26d
  8
Layer_8
  62
254
  66
1
  10
0
  20
0
  30
0
  0
VERTEX
  5
26d
  8
Layer_8
  10
201.41951
  20
-12.909836
  0
VERTEX
  5
26e
  8
Layer_8
  10
197.42
  20
-12.971817
  0
SEQEND
  0
POLYLINE
  5
270
  8
Layer_8
  62
254
  66
1
  10
0
  20
0
  30
0
  0
VERTEX
  5
270
  8
Layer_8
  10
154.86937
  20
-21.212814
  0
VERTEX
  5
271
  8
Layer_8
  10
159.86931
  20
-21.186813
  0
SEQEND
  0
POLYLINE
  5
273
  8
Layer_8
  62
254
  66
1
  10
0
  20
0
  30
0
  0
VERTEX
  5
273
  8
Layer_8
  10
216.77132
  20
-12.59993
  0
VERTEX
  5
274
  8
Layer_8
  10
221.77126
  20
-12.576401
  0
SEQEND
  0
POLYLINE
  5
276
  8
Layer_8
  62
254
  66
1
  10
0
  20
0
  30
0
  0
VERTEX
  5
276
  8
Layer_8
  10
172.06248
  20
-14.714035
  0
VERTEX
  5
277
  8
Layer_8
  10
172.09505
  20
-20.969498
  0
SEQEND
  0
POLYLINE
  5
279
  8
Layer_8
  62
254
  70
1
  66
1
  10
0
  20
0
  30
0
  0
VERTEX
  5
279
  8
Layer_8
  10
135.71616
  20
-8.0329132
  42
0.41421356
  0
VERTEX
  5
27a
  8
Layer_8
  10
131.34564
  20
-12.462143
  42
0.41421541
  0
VERTEX
  5
27b
  8
Layer_8
  10
135.77489
  20
-16.832687
  42
0.41420988
  0
VERTEX
  5
27c
  8
Layer_8
  10
140.14542
  20
-12.403427
  42
0.41420896
  0
SEQEND
  0
POLYLINE
  5
27e
  8
Layer_8
  62
254
  66
1
  10
0
  20
0
  30
0
  0
VERTEX
  5
27e
  8
Layer_8
  10
188.17546
  20
-79.468704
  0
VERTEX
  5
27f
  8
Layer_8
  10
192.66032
  20
-79.490494
  0
SEQEND
  0
POLYLINE
  5
281
  8
Layer_8
  62
254
  66
1
  10
0
  20
0
  30
0
  0
VERTEX
  5
281
  8
Layer_8
  10
283.6297
  20
-87.823654
  0
VERTEX
  5
282
  8
Layer_8
  10
279.59454
  20
-87.850571
  0
SEQEND
  0
ENDSEC
  0
EOF
