  0
SECTION
  2
HEADER
  9
$ACADVER
  1
AC1009
  0
ENDSEC
  0
SECTION
  2
TABLES
  0
TABLE
  2
LAYER
  70
2
  0
LAYER
  2
Layer_9
  70
0
  62
172
  6
CONTINUOUS
  0
LAYER
  2
Layer_30
  70
0
  62
30
  6
CONTINUOUS
  0
ENDTAB
  0
ENDSEC
  0
SECTION
  2
ENTITIES
  0
POLYLINE
  5
90
  8
Layer_30
  62
30
  66
1
  10
0
  20
0
  30
0
  0
VERTEX
  5
90
  8
Layer_30
  10
561.26245
  20
-91.079498
  0
VERTEX
  5
91
  8
Layer_30
  10
541.88831
  20
-91.079498
  0
VERTEX
  5
92
  8
Layer_30
  10
531.29883
  20
-91.036072
  42
-0.41139752
  0
VERTEX
  5
93
  8
Layer_30
  10
526.81738
  20
-86.560944
  0
VERTEX
  5
94
  8
Layer_30
  10
526.75061
  20
-74.470459
  42
-0.19966437
  0
VERTEX
  5
95
  8
Layer_30
  10
526.89612
  20
-74.115112
  42
-0.19969618
  0
VERTEX
  5
96
  8
Layer_30
  10
527.25073
  20
-73.967712
  0
VERTEX
  5
97
  8
Layer_30
  10
537.63477
  20
-73.969696
  0
VERTEX
  5
98
  8
Layer_30
  10
537.63654
  20
-64.570587
  42
0.20008598
  0
VERTEX
  5
99
  8
Layer_30
  10
536.74866
  20
-62.439545
  42
0.20008793
  0
VERTEX
  5
9a
  8
Layer_30
  10
534.61005
  20
-61.570129
  0
VERTEX
  5
9b
  8
Layer_30
  10
534.5
  20
-61.571106
  42
0.41060449
  0
VERTEX
  5
9c
  8
Layer_30
  10
531.52655
  20
-64.560486
  0
VERTEX
  5
9d
  8
Layer_30
  10
531.51605
  20
-67.562408
  42
-0.19898469
  0
VERTEX
  5
9e
  8
Layer_30
  10
531.36829
  20
-67.915558
  42
-0.1989511
  0
VERTEX
  5
9f
  8
Layer_30
  10
531.01404
  20
-68.060669
  0
VERTEX
  5
a0
  8
Layer_30
  10
527.27734
  20
-68.045654
  42
-0.19917812
  0
VERTEX
  5
a1
  8
Layer_30
  10
526.92395
  20
-67.8974
  42
-0.19918769
  0
VERTEX
  5
a2
  8
Layer_30
  10
526.77936
  20
-67.542542
  0
VERTEX
  5
a3
  8
Layer_30
  10
526.77875
  20
-67.635925
  0
VERTEX
  5
a4
  8
Layer_30
  10
526.74347
  20
-45.92923
  42
-0.19987501
  0
VERTEX
  5
a5
  8
Layer_30
  10
528.15643
  20
-42.520264
  42
-0.19987292
  0
VERTEX
  5
a6
  8
Layer_30
  10
531.57123
  20
-41.12149
  0
VERTEX
  5
a7
  8
Layer_30
  10
531.84357
  20
-41.123077
  0
VERTEX
  5
a8
  8
Layer_30
  10
569.18365
  20
-41.192261
  0
VERTEX
  5
a9
  8
Layer_30
  10
606.52368
  20
-41.305298
  0
VERTEX
  5
aa
  8
Layer_30
  10
606.79602
  20
-41.305054
  42
-0.19987811
  0
VERTEX
  5
ab
  8
Layer_30
  10
610.20392
  20
-42.720459
  42
-0.19987806
  0
VERTEX
  5
ac
  8
Layer_30
  10
611.60022
  20
-46.136261
  0
VERTEX
  5
ad
  8
Layer_30
  10
611.45898
  20
-67.842529
  0
VERTEX
  5
ae
  8
Layer_30
  10
611.45886
  20
-67.749176
  42
-0.19922409
  0
VERTEX
  5
af
  8
Layer_30
  10
611.3125
  20
-68.103302
  42
-0.19922517
  0
VERTEX
  5
b0
  8
Layer_30
  10
610.95844
  20
-68.249847
  0
VERTEX
  5
b1
  8
Layer_30
  10
607.22168
  20
-68.246613
  42
-0.19895858
  0
VERTEX
  5
b2
  8
Layer_30
  10
606.86816
  20
-68.099762
  42
-0.19898571
  0
VERTEX
  5
b3
  8
Layer_30
  10
606.72211
  20
-67.745911
  0
VERTEX
  5
b4
  8
Layer_30
  10
606.72626
  20
-64.743988
  42
0.41060169
  0
VERTEX
  5
b5
  8
Layer_30
  10
603.7674
  20
-61.740112
  0
VERTEX
  5
b6
  8
Layer_30
  10
603.65741
  20
-61.738617
  42
0.20009895
  0
VERTEX
  5
b7
  8
Layer_30
  10
601.51453
  20
-62.597565
  42
0.20008497
  0
VERTEX
  5
b8
  8
Layer_30
  10
600.61627
  20
-64.724243
  0
VERTEX
  5
b9
  8
Layer_30
  10
600.5722
  20
-74.12326
  0
VERTEX
  5
ba
  8
Layer_30
  10
610.95618
  20
-74.171967
  42
-0.19965176
  0
VERTEX
  5
bb
  8
Layer_30
  10
611.31
  20
-74.321106
  42
-0.19967512
  0
VERTEX
  5
bc
  8
Layer_30
  10
611.4538
  20
-74.677155
  0
VERTEX
  5
bd
  8
Layer_30
  10
611.328
  20
-86.767166
  42
-0.41139726
  0
VERTEX
  5
be
  8
Layer_30
  10
606.82477
  20
-91.220367
  0
VERTEX
  5
bf
  8
Layer_30
  10
596.23523
  20
-91.212112
  0
VERTEX
  5
c0
  8
Layer_30
  10
576.87146
  20
-91.212112
  0
SEQEND
  0
POLYLINE
  5
c2
  8
Layer_30
  62
30
  66
1
  10
0
  20
0
  30
0
  0
VERTEX
  5
c2
  8
Layer_30
  10
596.23523
  20
-91.212112
  0
VERTEX
  5
c3
  8
Layer_30
  10
596.09857
  20
-108.82094
  0
VERTEX
  5
c4
  8
Layer_30
  10
576.78552
  20
-108.82094
  0
SEQEND
  0
POLYLINE
  5
c6
  8
Layer_30
  62
30
  66
1
  10
0
  20
0
  30
0
  0
VERTEX
  5
c6
  8
Layer_30
  10
596.09857
  20
-108.82094
  0
VERTEX
  5
c7
  8
Layer_30
  10
622.9649
  20
-109.06598
  42
-0.4134468
  0
VERTEX
  5
c8
  8
Layer_30
  10
627.91919
  20
-114.09831
  0
VERTEX
  5
c9
  8
Layer_30
  10
627.85913
  20
-123.32892
  42
-0.40872955
  0
VERTEX
  5
ca
  8
Layer_30
  10
624.896
  20
-126.30917
  0
VERTEX
  5
cb
  8
Layer_30
  10
617.0155
  20
-126.40578
  0
VERTEX
  5
cc
  8
Layer_30
  10
616.8371
  20
-135.33524
  0
VERTEX
  5
cd
  8
Layer_30
  10
616.83026
  20
-135.67789
  42
0.20129259
  0
VERTEX
  5
ce
  8
Layer_30
  10
617.68549
  20
-137.83606
  42
0.20129409
  0
VERTEX
  5
cf
  8
Layer_30
  10
619.82465
  20
-138.73782
  0
VERTEX
  5
d0
  8
Layer_30
  10
620.11243
  20
-138.7383
  42
0.41364507
  0
VERTEX
  5
d1
  8
Layer_30
  10
623.13403
  20
-135.76598
  0
VERTEX
  5
d2
  8
Layer_30
  10
623.16492
  20
-132.41147
  0
VERTEX
  5
d3
  8
Layer_30
  10
627.77319
  20
-132.41917
  0
VERTEX
  5
d4
  8
Layer_30
  10
627.73724
  20
-153.88692
  42
-0.19929383
  0
VERTEX
  5
d5
  8
Layer_30
  10
626.26166
  20
-157.4252
  42
-0.19929338
  0
VERTEX
  5
d6
  8
Layer_30
  10
622.71417
  20
-158.87851
  0
VERTEX
  5
d7
  8
Layer_30
  10
568.89709
  20
-158.62979
  0
VERTEX
  5
d8
  8
Layer_30
  10
515.07947
  20
-158.61586
  42
-0.19929408
  0
VERTEX
  5
d9
  8
Layer_30
  10
511.53909
  20
-157.14526
  42
-0.19929547
  0
VERTEX
  5
da
  8
Layer_30
  10
510.08078
  20
-153.59982
  0
VERTEX
  5
db
  8
Layer_30
  10
510.14963
  20
-132.13217
  0
VERTEX
  5
dc
  8
Layer_30
  10
514.75787
  20
-132.14694
  0
VERTEX
  5
dd
  8
Layer_30
  10
514.77234
  20
-135.50156
  42
0.41364492
  0
VERTEX
  5
de
  8
Layer_30
  10
517.77948
  20
-138.48857
  0
VERTEX
  5
df
  8
Layer_30
  10
518.0672
  20
-138.48952
  42
0.20129704
  0
VERTEX
  5
e0
  8
Layer_30
  10
520.21075
  20
-137.59821
  42
0.20129367
  0
VERTEX
  5
e1
  8
Layer_30
  10
521.07654
  20
-135.44424
  0
VERTEX
  5
e2
  8
Layer_30
  10
521.07135
  20
-135.10156
  0
VERTEX
  5
e3
  8
Layer_30
  10
520.93652
  20
-126.17133
  0
VERTEX
  5
e4
  8
Layer_30
  10
513.05658
  20
-126.03627
  42
-0.40872889
  0
VERTEX
  5
e5
  8
Layer_30
  10
510.108
  20
-123.0416
  0
VERTEX
  5
e6
  8
Layer_30
  10
510.09302
  20
-113.81079
  42
-0.41344784
  0
VERTEX
  5
e7
  8
Layer_30
  10
515.07178
  20
-108.80272
  0
VERTEX
  5
e8
  8
Layer_30
  10
541.93903
  20
-108.68878
  0
VERTEX
  5
e9
  8
Layer_30
  10
561.26489
  20
-108.68878
  0
SEQEND
  0
POLYLINE
  5
eb
  8
Layer_30
  62
30
  66
1
  10
0
  20
0
  30
0
  0
VERTEX
  5
eb
  8
Layer_30
  10
627.7561
  20
-142.66757
  0
VERTEX
  5
ec
  8
Layer_30
  10
627.77319
  20
-132.46832
  0
SEQEND
  0
POLYLINE
  5
ee
  8
Layer_30
  62
30
  66
1
  10
0
  20
0
  30
0
  0
VERTEX
  5
ee
  8
Layer_30
  10
510.1167
  20
-142.38052
  0
VERTEX
  5
ef
  8
Layer_30
  10
510.14941
  20
-132.1813
  0
SEQEND
  0
POLYLINE
  5
f1
  8
Layer_30
  62
30
  66
1
  10
0
  20
0
  30
0
  0
VERTEX
  5
f1
  8
Layer_30
  10
541.88831
  20
-91.079498
  0
VERTEX
  5
f2
  8
Layer_30
  10
541.93903
  20
-108.68878
  0
SEQEND
  0
POLYLINE
  5
f4
  8
Layer_30
  62
30
  66
1
  10
0
  20
0
  30
0
  0
VERTEX
  5
f4
  8
Layer_30
  10
548.88251
  20
-43.386108
  0
VERTEX
  5
f5
  8
Layer_30
  10
548.88251
  20
-47.219421
  0
SEQEND
  0
POLYLINE
  5
f7
  8
Layer_30
  62
30
  66
1
  10
0
  20
0
  30
0
  0
VERTEX
  5
f7
  8
Layer_30
  10
548.78961
  20
-53.949982
  0
VERTEX
  5
f8
  8
Layer_30
  10
548.78961
  20
-57.898712
  0
SEQEND
  0
POLYLINE
  5
fa
  8
Layer_30
  62
30
  66
1
  10
0
  20
0
  30
0
  0
VERTEX
  5
fa
  8
Layer_30
  10
548.81665
  20
-64.54364
  0
VERTEX
  5
fb
  8
Layer_30
  10
548.81665
  20
-68.703796
  0
SEQEND
  0
POLYLINE
  5
fd
  8
Layer_30
  62
30
  66
1
  10
0
  20
0
  30
0
  0
VERTEX
  5
fd
  8
Layer_30
  10
548.56561
  20
-75.048248
  0
VERTEX
  5
fe
  8
Layer_30
  10
548.56561
  20
-78.898712
  0
SEQEND
  0
POLYLINE
  5
100
  8
Layer_30
  62
30
  66
1
  10
0
  20
0
  30
0
  0
VERTEX
  5
100
  8
Layer_30
  10
548.36731
  20
-85.626999
  0
VERTEX
  5
101
  8
Layer_30
  10
548.36731
  20
-89.398712
  0
SEQEND
  0
POLYLINE
  5
103
  8
Layer_30
  62
30
  66
1
  10
0
  20
0
  30
0
  0
VERTEX
  5
103
  8
Layer_30
  10
561.25183
  20
-98.00267
  0
VERTEX
  5
104
  8
Layer_30
  10
561.25183
  20
-102.62175
  0
SEQEND
  0
POLYLINE
  5
106
  8
Layer_30
  62
30
  66
1
  10
0
  20
0
  30
0
  0
VERTEX
  5
106
  8
Layer_30
  10
530.91791
  20
-115.89583
  0
VERTEX
  5
107
  8
Layer_30
  10
530.8678
  20
-120.43451
  0
SEQEND
  0
POLYLINE
  5
109
  8
Layer_30
  62
30
  66
1
  10
0
  20
0
  30
0
  0
VERTEX
  5
109
  8
Layer_30
  10
530.91895
  20
-126.41438
  0
VERTEX
  5
10a
  8
Layer_30
  10
530.91895
  20
-131.13531
  0
SEQEND
  0
POLYLINE
  5
10c
  8
Layer_30
  62
30
  66
1
  10
0
  20
0
  30
0
  0
VERTEX
  5
10c
  8
Layer_30
  10
530.88361
  20
-136.85011
  0
VERTEX
  5
10d
  8
Layer_30
  10
530.88361
  20
-141.89871
  0
SEQEND
  0
POLYLINE
  5
10f
  8
Layer_30
  62
30
  66
1
  10
0
  20
0
  30
0
  0
VERTEX
  5
10f
  8
Layer_30
  10
530.91888
  20
-147.69997
  0
VERTEX
  5
110
  8
Layer_30
  10
530.85199
  20
-152.4209
  0
SEQEND
  0
POLYLINE
  5
112
  8
Layer_30
  62
30
  66
1
  10
0
  20
0
  30
0
  0
VERTEX
  5
112
  8
Layer_30
  10
543.91791
  20
-115.89583
  0
VERTEX
  5
113
  8
Layer_30
  10
543.8678
  20
-120.43451
  0
SEQEND
  0
POLYLINE
  5
115
  8
Layer_30
  62
30
  66
1
  10
0
  20
0
  30
0
  0
VERTEX
  5
115
  8
Layer_30
  10
543.91895
  20
-126.41438
  0
VERTEX
  5
116
  8
Layer_30
  10
543.91895
  20
-131.13531
  0
SEQEND
  0
POLYLINE
  5
118
  8
Layer_30
  62
30
  66
1
  10
0
  20
0
  30
0
  0
VERTEX
  5
118
  8
Layer_30
  10
543.91888
  20
-147.69997
  0
VERTEX
  5
119
  8
Layer_30
  10
543.85199
  20
-152.4209
  0
SEQEND
  0
POLYLINE
  5
11b
  8
Layer_30
  62
30
  66
1
  10
0
  20
0
  30
0
  0
VERTEX
  5
11b
  8
Layer_30
  10
543.88361
  20
-136.85011
  0
VERTEX
  5
11c
  8
Layer_30
  10
543.88361
  20
-141.89871
  0
SEQEND
  0
POLYLINE
  5
11e
  8
Layer_30
  62
30
  66
1
  10
0
  20
0
  30
0
  0
VERTEX
  5
11e
  8
Layer_30
  10
560.91895
  20
-126.41438
  0
VERTEX
  5
11f
  8
Layer_30
  10
560.91895
  20
-131.13531
  0
SEQEND
  0
POLYLINE
  5
121
  8
Layer_30
  62
30
  66
1
  10
0
  20
0
  30
0
  0
VERTEX
  5
121
  8
Layer_30
  10
560.91791
  20
-115.89583
  0
VERTEX
  5
122
  8
Layer_30
  10
560.8678
  20
-120.43451
  0
SEQEND
  0
POLYLINE
  5
124
  8
Layer_30
  62
30
  66
1
  10
0
  20
0
  30
0
  0
VERTEX
  5
124
  8
Layer_30
  10
560.88361
  20
-136.85011
  0
VERTEX
  5
125
  8
Layer_30
  10
560.88361
  20
-141.89871
  0
SEQEND
  0
POLYLINE
  5
127
  8
Layer_30
  62
30
  66
1
  10
0
  20
0
  30
0
  0
VERTEX
  5
127
  8
Layer_30
  10
560.91888
  20
-147.69997
  0
VERTEX
  5
128
  8
Layer_30
  10
560.85199
  20
-152.4209
  0
SEQEND
  0
POLYLINE
  5
12a
  8
Layer_30
  62
30
  66
1
  10
0
  20
0
  30
0
  0
VERTEX
  5
12a
  8
Layer_30
  10
594.01654
  20
-136.97244
  0
VERTEX
  5
12b
  8
Layer_30
  10
593.99194
  20
-142.02098
  0
SEQEND
  0
POLYLINE
  5
12d
  8
Layer_30
  62
30
  66
1
  10
0
  20
0
  30
0
  0
VERTEX
  5
12d
  8
Layer_30
  10
577.01678
  20
-136.88948
  0
VERTEX
  5
12e
  8
Layer_30
  10
576.99213
  20
-141.93802
  0
SEQEND
  0
POLYLINE
  5
130
  8
Layer_30
  62
30
  66
1
  10
0
  20
0
  30
0
  0
VERTEX
  5
130
  8
Layer_30
  10
607.01642
  20
-137.03589
  0
VERTEX
  5
131
  8
Layer_30
  10
606.99176
  20
-142.08443
  0
SEQEND
  0
POLYLINE
  5
133
  8
Layer_30
  62
30
  66
1
  10
0
  20
0
  30
0
  0
VERTEX
  5
133
  8
Layer_30
  10
593.92834
  20
-147.82199
  0
VERTEX
  5
134
  8
Layer_30
  10
593.97217
  20
-152.5432
  0
SEQEND
  0
POLYLINE
  5
136
  8
Layer_30
  62
30
  66
1
  10
0
  20
0
  30
0
  0
VERTEX
  5
136
  8
Layer_30
  10
577.08472
  20
-115.93527
  0
VERTEX
  5
137
  8
Layer_30
  10
577.11267
  20
-120.47414
  0
SEQEND
  0
POLYLINE
  5
139
  8
Layer_30
  62
30
  66
1
  10
0
  20
0
  30
0
  0
VERTEX
  5
139
  8
Layer_30
  10
607.08435
  20
-116.08168
  0
VERTEX
  5
13a
  8
Layer_30
  10
607.1123
  20
-120.62054
  0
SEQEND
  0
POLYLINE
  5
13c
  8
Layer_30
  62
30
  66
1
  10
0
  20
0
  30
0
  0
VERTEX
  5
13c
  8
Layer_30
  10
607.03204
  20
-126.60011
  0
VERTEX
  5
13d
  8
Layer_30
  10
607.00897
  20
-131.32098
  0
SEQEND
  0
POLYLINE
  5
13f
  8
Layer_30
  62
30
  66
1
  10
0
  20
0
  30
0
  0
VERTEX
  5
13f
  8
Layer_30
  10
577.03241
  20
-126.4537
  0
VERTEX
  5
140
  8
Layer_30
  10
577.00934
  20
-131.17458
  0
SEQEND
  0
POLYLINE
  5
142
  8
Layer_30
  62
30
  66
1
  10
0
  20
0
  30
0
  0
VERTEX
  5
142
  8
Layer_30
  10
594.03217
  20
-126.53667
  0
VERTEX
  5
143
  8
Layer_30
  10
594.00916
  20
-131.25754
  0
SEQEND
  0
POLYLINE
  5
145
  8
Layer_30
  62
30
  66
1
  10
0
  20
0
  30
0
  0
VERTEX
  5
145
  8
Layer_30
  10
594.08453
  20
-116.01823
  0
VERTEX
  5
146
  8
Layer_30
  10
594.11249
  20
-120.5571
  0
SEQEND
  0
POLYLINE
  5
148
  8
Layer_30
  62
30
  66
1
  10
0
  20
0
  30
0
  0
VERTEX
  5
148
  8
Layer_30
  10
576.92859
  20
-147.73903
  0
VERTEX
  5
149
  8
Layer_30
  10
576.97241
  20
-152.46024
  0
SEQEND
  0
POLYLINE
  5
14b
  8
Layer_30
  62
30
  66
1
  10
0
  20
0
  30
0
  0
VERTEX
  5
14b
  8
Layer_30
  10
606.92822
  20
-147.88544
  0
VERTEX
  5
14c
  8
Layer_30
  10
606.97205
  20
-152.60664
  0
SEQEND
  0
POLYLINE
  5
14e
  8
Layer_30
  62
30
  66
1
  10
0
  20
0
  30
0
  0
VERTEX
  5
14e
  8
Layer_30
  10
576.83813
  20
-98.040695
  0
VERTEX
  5
14f
  8
Layer_30
  10
576.81561
  20
-102.65973
  0
SEQEND
  0
POLYLINE
  5
151
  8
Layer_30
  62
30
  66
1
  10
0
  20
0
  30
0
  0
VERTEX
  5
151
  8
Layer_30
  10
589.63623
  20
-75.148468
  0
VERTEX
  5
152
  8
Layer_30
  10
589.61743
  20
-78.998871
  0
SEQEND
  0
POLYLINE
  5
154
  8
Layer_30
  62
30
  66
1
  10
0
  20
0
  30
0
  0
VERTEX
  5
154
  8
Layer_30
  10
589.78296
  20
-85.728058
  0
VERTEX
  5
155
  8
Layer_30
  10
589.76453
  20
-89.499725
  0
SEQEND
  0
POLYLINE
  5
157
  8
Layer_30
  62
30
  66
1
  10
0
  20
0
  30
0
  0
VERTEX
  5
157
  8
Layer_30
  10
589.43646
  20
-64.642761
  0
VERTEX
  5
158
  8
Layer_30
  10
589.41614
  20
-68.802887
  0
SEQEND
  0
POLYLINE
  5
15a
  8
Layer_30
  62
30
  66
1
  10
0
  20
0
  30
0
  0
VERTEX
  5
15a
  8
Layer_30
  10
589.5152
  20
-54.049347
  0
VERTEX
  5
15b
  8
Layer_30
  10
589.49591
  20
-57.998047
  0
SEQEND
  0
POLYLINE
  5
15d
  8
Layer_30
  62
30
  66
1
  10
0
  20
0
  30
0
  0
VERTEX
  5
15d
  8
Layer_30
  10
589.47388
  20
-43.485168
  0
VERTEX
  5
15e
  8
Layer_30
  10
589.4552
  20
-47.31842
  0
SEQEND
  0
CIRCLE
  5
160
  8
Layer_30
  62
30
  10
325.99493
  20
-217.84984
  30
0
  40
3.4738767
  0
CIRCLE
  5
160
  8
Layer_30
  62
30
  10
325.98822
  20
-265.18591
  30
0
  40
3.4738767
  0
CIRCLE
  5
160
  8
Layer_30
  62
30
  10
198.83524
  20
-275.91849
  30
0
  40
3.2078176
  0
CIRCLE
  5
160
  8
Layer_30
  62
30
  10
180.604
  20
-309.25574
  30
0
  40
3.1069093
  0
CIRCLE
  5
160
  8
Layer_30
  62
30
  10
198.85472
  20
-207.09265
  30
0
  40
3.2078176
  0
CIRCLE
  5
160
  8
Layer_30
  62
30
  10
180.64236
  20
-173.74509
  30
0
  40
3.1069093
  0
POLYLINE
  5
160
  8
Layer_30
  62
30
  66
1
  10
0
  20
0
  30
0
  0
VERTEX
  5
160
  8
Layer_30
  10
282.43127
  20
-231.51532
  0
VERTEX
  5
161
  8
Layer_30
  10
275.06659
  20
-209.89589
  0
VERTEX
  5
162
  8
Layer_30
  10
270.86816
  20
-185.75497
  0
VERTEX
  5
163
  8
Layer_30
  10
276.25156
  20
-163.08586
  0
VERTEX
  5
164
  8
Layer_30
  10
274.84265
  20
-153.49402
  0
VERTEX
  5
165
  8
Layer_30
  10
219.87524
  20
-163.08586
  0
VERTEX
  5
166
  8
Layer_30
  10
222.39859
  20
-190.21494
  0
VERTEX
  5
167
  8
Layer_30
  10
225.93515
  20
-214.29208
  0
VERTEX
  5
168
  8
Layer_30
  10
217.52426
  20
-220.85072
  0
VERTEX
  5
169
  8
Layer_30
  10
207.89189
  20
-199.43755
  0
VERTEX
  5
16a
  8
Layer_30
  10
191.56081
  20
-199.43755
  0
VERTEX
  5
16b
  8
Layer_30
  10
175.78439
  20
-220.86029
  0
VERTEX
  5
16c
  8
Layer_30
  10
175.78439
  20
-231.51707
  0
VERTEX
  5
16d
  8
Layer_30
  10
224.12901
  20
-231.28378
  0
VERTEX
  5
16e
  8
Layer_30
  10
224.12901
  20
-232.58609
  0
VERTEX
  5
16f
  8
Layer_30
  10
173.93285
  20
-232.58609
  0
VERTEX
  5
170
  8
Layer_30
  10
173.93285
  20
-213.29126
  0
VERTEX
  5
171
  8
Layer_30
  10
178.866
  20
-209.89589
  0
VERTEX
  5
172
  8
Layer_30
  10
178.866
  20
-185.18079
  0
VERTEX
  5
173
  8
Layer_30
  10
190.32776
  20
-185.18079
  0
VERTEX
  5
174
  8
Layer_30
  10
190.32776
  20
-165.95276
  0
VERTEX
  5
175
  8
Layer_30
  10
172.6989
  20
-165.95276
  0
VERTEX
  5
176
  8
Layer_30
  10
151.21326
  20
-177.35814
  0
VERTEX
  5
177
  8
Layer_30
  10
151.21326
  20
-213.25461
  0
VERTEX
  5
178
  8
Layer_30
  10
158.4874
  20
-213.25461
  0
VERTEX
  5
179
  8
Layer_30
  10
158.4874
  20
-220.94739
  0
VERTEX
  5
17a
  8
Layer_30
  10
154.46892
  20
-220.94739
  0
VERTEX
  5
17b
  8
Layer_30
  10
154.46892
  20
-232.56735
  0
VERTEX
  5
17c
  8
Layer_30
  10
158.56047
  20
-232.56735
  0
VERTEX
  5
17d
  8
Layer_30
  10
158.56047
  20
-241.49417
  0
VERTEX
  5
17e
  8
Layer_30
  10
158.55795
  20
-250.42099
  0
VERTEX
  5
17f
  8
Layer_30
  10
154.46638
  20
-250.41985
  0
VERTEX
  5
180
  8
Layer_30
  10
154.4631
  20
-262.03979
  0
VERTEX
  5
181
  8
Layer_30
  10
158.48158
  20
-262.04095
  0
VERTEX
  5
182
  8
Layer_30
  10
158.4794
  20
-269.7337
  0
VERTEX
  5
183
  8
Layer_30
  10
151.20526
  20
-269.73163
  0
VERTEX
  5
184
  8
Layer_30
  10
151.1951
  20
-305.62811
  0
VERTEX
  5
185
  8
Layer_30
  10
172.67751
  20
-317.03958
  0
VERTEX
  5
186
  8
Layer_30
  10
190.30637
  20
-317.04456
  0
VERTEX
  5
187
  8
Layer_30
  10
190.31181
  20
-297.81653
  0
VERTEX
  5
188
  8
Layer_30
  10
178.85005
  20
-297.81329
  0
VERTEX
  5
189
  8
Layer_30
  10
178.85706
  20
-273.09821
  0
VERTEX
  5
18a
  8
Layer_30
  10
173.92487
  20
-269.70142
  0
VERTEX
  5
18b
  8
Layer_30
  10
173.93033
  20
-250.40662
  0
VERTEX
  5
18c
  8
Layer_30
  10
224.1265
  20
-250.42084
  0
VERTEX
  5
18d
  8
Layer_30
  10
224.12611
  20
-251.72313
  0
VERTEX
  5
18e
  8
Layer_30
  10
175.78157
  20
-251.47614
  0
VERTEX
  5
18f
  8
Layer_30
  10
175.77855
  20
-262.13293
  0
VERTEX
  5
190
  8
Layer_30
  10
191.54889
  20
-283.56012
  0
VERTEX
  5
191
  8
Layer_30
  10
207.87999
  20
-283.56476
  0
VERTEX
  5
192
  8
Layer_30
  10
217.51842
  20
-262.1543
  0
VERTEX
  5
193
  8
Layer_30
  10
225.92746
  20
-268.71533
  0
VERTEX
  5
194
  8
Layer_30
  10
222.38408
  20
-292.79147
  0
VERTEX
  5
195
  8
Layer_30
  10
219.85304
  20
-319.91983
  0
VERTEX
  5
196
  8
Layer_30
  10
274.81775
  20
-329.52722
  0
VERTEX
  5
197
  8
Layer_30
  10
276.22934
  20
-319.93579
  0
VERTEX
  5
198
  8
Layer_30
  10
270.85239
  20
-297.26514
  0
VERTEX
  5
199
  8
Layer_30
  10
275.05765
  20
-273.12543
  0
VERTEX
  5
19a
  8
Layer_30
  10
282.42844
  20
-251.50809
  0
SEQEND
  0
POLYLINE
  5
19c
  8
Layer_30
  62
30
  66
1
  10
0
  20
0
  30
0
  0
VERTEX
  5
19c
  8
Layer_30
  10
275.06659
  20
-209.89589
  0
VERTEX
  5
19d
  8
Layer_30
  10
283.84662
  20
-196.56311
  0
VERTEX
  5
19e
  8
Layer_30
  10
307.60431
  20
-196.56311
  0
VERTEX
  5
19f
  8
Layer_30
  10
316.84167
  20
-209.99297
  0
VERTEX
  5
1a0
  8
Layer_30
  10
328.36102
  20
-209.99297
  0
VERTEX
  5
1a1
  8
Layer_30
  10
337.00592
  20
-196.56311
  0
VERTEX
  5
1a2
  8
Layer_30
  10
361.13416
  20
-196.56311
  0
VERTEX
  5
1a3
  8
Layer_30
  10
370.18042
  20
-210.0025
  0
VERTEX
  5
1a4
  8
Layer_30
  10
370.18042
  20
-221.44153
  0
VERTEX
  5
1a5
  8
Layer_30
  10
347.84906
  20
-231.42577
  0
VERTEX
  5
1a6
  8
Layer_30
  10
382.66016
  20
-231.42577
  0
VERTEX
  5
1a7
  8
Layer_30
  10
381.93167
  20
-223.2457
  0
VERTEX
  5
1a8
  8
Layer_30
  10
377.20593
  20
-220.20372
  0
VERTEX
  5
1a9
  8
Layer_30
  10
377.20593
  20
-209.68214
  0
VERTEX
  5
1aa
  8
Layer_30
  10
371.25848
  20
-209.68214
  0
VERTEX
  5
1ab
  8
Layer_30
  10
371.25848
  20
-195.83002
  0
VERTEX
  5
1ac
  8
Layer_30
  10
396.70181
  20
-199.78934
  0
VERTEX
  5
1ad
  8
Layer_30
  10
398.97473
  20
-230.57681
  0
VERTEX
  5
1ae
  8
Layer_30
  10
405.41272
  20
-200.05956
  0
VERTEX
  5
1af
  8
Layer_30
  10
414.664
  20
-200.05956
  0
VERTEX
  5
1b0
  8
Layer_30
  10
421.47241
  20
-234.33643
  0
VERTEX
  5
1b1
  8
Layer_30
  10
438.8049
  20
-234.33643
  0
VERTEX
  5
1b2
  8
Layer_30
  10
438.8049
  20
-241.53384
  0
VERTEX
  5
1b3
  8
Layer_30
  10
438.80286
  20
-248.73126
  0
VERTEX
  5
1b4
  8
Layer_30
  10
421.4704
  20
-248.72635
  0
VERTEX
  5
1b5
  8
Layer_30
  10
414.65225
  20
-283.00128
  0
VERTEX
  5
1b6
  8
Layer_30
  10
405.401
  20
-282.99866
  0
VERTEX
  5
1b7
  8
Layer_30
  10
398.97162
  20
-252.47958
  0
VERTEX
  5
1b8
  8
Layer_30
  10
396.69
  20
-283.26642
  0
VERTEX
  5
1b9
  8
Layer_30
  10
371.24554
  20
-287.21854
  0
VERTEX
  5
1ba
  8
Layer_30
  10
371.24945
  20
-273.36639
  0
VERTEX
  5
1bb
  8
Layer_30
  10
377.19693
  20
-273.3681
  0
VERTEX
  5
1bc
  8
Layer_30
  10
377.19989
  20
-262.84653
  0
VERTEX
  5
1bd
  8
Layer_30
  10
381.92651
  20
-259.80588
  0
VERTEX
  5
1be
  8
Layer_30
  10
382.65732
  20
-251.62601
  0
VERTEX
  5
1bf
  8
Layer_30
  10
347.84619
  20
-251.61617
  0
VERTEX
  5
1c0
  8
Layer_30
  10
370.17474
  20
-261.60672
  0
VERTEX
  5
1c1
  8
Layer_30
  10
370.17151
  20
-273.04575
  0
VERTEX
  5
1c2
  8
Layer_30
  10
361.12146
  20
-286.48257
  0
VERTEX
  5
1c3
  8
Layer_30
  10
336.99319
  20
-286.47577
  0
VERTEX
  5
1c4
  8
Layer_30
  10
328.35211
  20
-273.04346
  0
VERTEX
  5
1c5
  8
Layer_30
  10
316.83276
  20
-273.04016
  0
VERTEX
  5
1c6
  8
Layer_30
  10
307.59161
  20
-286.46741
  0
VERTEX
  5
1c7
  8
Layer_30
  10
283.83386
  20
-286.46069
  0
VERTEX
  5
1c8
  8
Layer_30
  10
275.05765
  20
-273.12543
  0
SEQEND
  0
POLYLINE
  5
1ca
  8
Layer_30
  62
30
  66
1
  10
0
  20
0
  30
0
  0
VERTEX
  5
1ca
  8
Layer_30
  10
161.6362
  20
-213.25461
  0
VERTEX
  5
1cb
  8
Layer_30
  10
164.78502
  20
-213.25461
  0
SEQEND
  0
POLYLINE
  5
1cd
  8
Layer_30
  62
30
  66
1
  10
0
  20
0
  30
0
  0
VERTEX
  5
1cd
  8
Layer_30
  10
167.93384
  20
-213.25461
  0
VERTEX
  5
1ce
  8
Layer_30
  10
171.08264
  20
-213.25461
  0
SEQEND
  0
POLYLINE
  5
1d0
  8
Layer_30
  62
30
  66
1
  10
0
  20
0
  30
0
  0
VERTEX
  5
1d0
  8
Layer_30
  10
161.63371
  20
-220.94739
  0
VERTEX
  5
1d1
  8
Layer_30
  10
164.78252
  20
-220.94739
  0
SEQEND
  0
POLYLINE
  5
1d3
  8
Layer_30
  62
30
  66
1
  10
0
  20
0
  30
0
  0
VERTEX
  5
1d3
  8
Layer_30
  10
167.93134
  20
-220.94739
  0
VERTEX
  5
1d4
  8
Layer_30
  10
171.08015
  20
-220.94739
  0
SEQEND
  0
POLYLINE
  5
1d6
  8
Layer_30
  62
30
  66
1
  10
0
  20
0
  30
0
  0
VERTEX
  5
1d6
  8
Layer_30
  10
158.4874
  20
-222.54417
  0
VERTEX
  5
1d7
  8
Layer_30
  10
158.4874
  20
-225.38818
  0
SEQEND
  0
POLYLINE
  5
1d9
  8
Layer_30
  62
30
  66
1
  10
0
  20
0
  30
0
  0
VERTEX
  5
1d9
  8
Layer_30
  10
158.56047
  20
-230.40265
  0
VERTEX
  5
1da
  8
Layer_30
  10
158.56047
  20
-227.03473
  0
SEQEND
  0
POLYLINE
  5
1dc
  8
Layer_30
  62
30
  66
1
  10
0
  20
0
  30
0
  0
VERTEX
  5
1dc
  8
Layer_30
  10
178.64896
  20
-220.86029
  0
VERTEX
  5
1dd
  8
Layer_30
  10
182.19478
  20
-220.86029
  0
SEQEND
  0
POLYLINE
  5
1df
  8
Layer_30
  62
30
  66
1
  10
0
  20
0
  30
0
  0
VERTEX
  5
1df
  8
Layer_30
  10
185.56764
  20
-220.86029
  0
VERTEX
  5
1e0
  8
Layer_30
  10
190.04861
  20
-220.86029
  0
SEQEND
  0
POLYLINE
  5
1e2
  8
Layer_30
  62
30
  66
1
  10
0
  20
0
  30
0
  0
VERTEX
  5
1e2
  8
Layer_30
  10
193.61063
  20
-220.86029
  0
VERTEX
  5
1e3
  8
Layer_30
  10
198.44547
  20
-220.86029
  0
SEQEND
  0
POLYLINE
  5
1e5
  8
Layer_30
  62
30
  66
1
  10
0
  20
0
  30
0
  0
VERTEX
  5
1e5
  8
Layer_30
  10
201.82658
  20
-220.86029
  0
VERTEX
  5
1e6
  8
Layer_30
  10
205.63187
  20
-220.86029
  0
SEQEND
  0
POLYLINE
  5
1e8
  8
Layer_30
  62
30
  66
1
  10
0
  20
0
  30
0
  0
VERTEX
  5
1e8
  8
Layer_30
  10
209.17769
  20
-220.86029
  0
VERTEX
  5
1e9
  8
Layer_30
  10
214.53967
  20
-220.86029
  0
SEQEND
  0
POLYLINE
  5
1eb
  8
Layer_30
  62
30
  66
1
  10
0
  20
0
  30
0
  0
VERTEX
  5
1eb
  8
Layer_30
  10
208.53433
  20
-233.55344
  0
VERTEX
  5
1ec
  8
Layer_30
  10
208.53433
  20
-235.4144
  0
SEQEND
  0
POLYLINE
  5
1ee
  8
Layer_30
  62
30
  66
1
  10
0
  20
0
  30
0
  0
VERTEX
  5
1ee
  8
Layer_30
  10
208.53433
  20
-236.61072
  0
VERTEX
  5
1ef
  8
Layer_30
  10
208.53433
  20
-238.2352
  0
SEQEND
  0
POLYLINE
  5
1f1
  8
Layer_30
  62
30
  66
1
  10
0
  20
0
  30
0
  0
VERTEX
  5
1f1
  8
Layer_30
  10
208.53433
  20
-239.30249
  0
VERTEX
  5
1f2
  8
Layer_30
  10
208.53433
  20
-240.96405
  0
SEQEND
  0
POLYLINE
  5
1f4
  8
Layer_30
  62
30
  66
1
  10
0
  20
0
  30
0
  0
VERTEX
  5
1f4
  8
Layer_30
  10
224.21542
  20
-239.30249
  0
VERTEX
  5
1f5
  8
Layer_30
  10
224.21542
  20
-240.96405
  0
SEQEND
  0
POLYLINE
  5
1f7
  8
Layer_30
  62
30
  66
1
  10
0
  20
0
  30
0
  0
VERTEX
  5
1f7
  8
Layer_30
  10
224.21542
  20
-236.61072
  0
VERTEX
  5
1f8
  8
Layer_30
  10
224.21542
  20
-238.2352
  0
SEQEND
  0
POLYLINE
  5
1fa
  8
Layer_30
  62
30
  66
1
  10
0
  20
0
  30
0
  0
VERTEX
  5
1fa
  8
Layer_30
  10
224.21542
  20
-233.55344
  0
VERTEX
  5
1fb
  8
Layer_30
  10
224.21542
  20
-235.4144
  0
SEQEND
  0
POLYLINE
  5
1fd
  8
Layer_30
  62
30
  66
1
  10
0
  20
0
  30
0
  0
VERTEX
  5
1fd
  8
Layer_30
  10
224.10422
  20
-190.11603
  0
VERTEX
  5
1fe
  8
Layer_30
  10
228.02554
  20
-189.74551
  0
SEQEND
  0
POLYLINE
  5
200
  8
Layer_30
  62
30
  66
1
  10
0
  20
0
  30
0
  0
VERTEX
  5
200
  8
Layer_30
  10
230.24866
  20
-189.4985
  0
VERTEX
  5
201
  8
Layer_30
  10
235.67368
  20
-189.01114
  0
SEQEND
  0
POLYLINE
  5
203
  8
Layer_30
  62
30
  66
1
  10
0
  20
0
  30
0
  0
VERTEX
  5
203
  8
Layer_30
  10
237.853
  20
-188.77715
  0
VERTEX
  5
204
  8
Layer_30
  10
243.21843
  20
-188.3015
  0
SEQEND
  0
POLYLINE
  5
206
  8
Layer_30
  62
30
  66
1
  10
0
  20
0
  30
0
  0
VERTEX
  5
206
  8
Layer_30
  10
245.11075
  20
-188.08653
  0
VERTEX
  5
207
  8
Layer_30
  10
250.14308
  20
-187.60405
  0
SEQEND
  0
POLYLINE
  5
209
  8
Layer_30
  62
30
  66
1
  10
0
  20
0
  30
0
  0
VERTEX
  5
209
  8
Layer_30
  10
251.55466
  20
-187.46585
  0
VERTEX
  5
20a
  8
Layer_30
  10
254.86844
  20
-187.13991
  0
SEQEND
  0
POLYLINE
  5
20c
  8
Layer_30
  62
30
  66
1
  10
0
  20
0
  30
0
  0
VERTEX
  5
20c
  8
Layer_30
  10
257.31305
  20
-186.92261
  0
VERTEX
  5
20d
  8
Layer_30
  10
262.27567
  20
-186.43893
  0
SEQEND
  0
POLYLINE
  5
20f
  8
Layer_30
  62
30
  66
1
  10
0
  20
0
  30
0
  0
VERTEX
  5
20f
  8
Layer_30
  10
264.14984
  20
-186.24879
  0
VERTEX
  5
210
  8
Layer_30
  10
268.95966
  20
-185.82466
  0
SEQEND
  0
POLYLINE
  5
212
  8
Layer_30
  62
30
  66
1
  10
0
  20
0
  30
0
  0
VERTEX
  5
212
  8
Layer_30
  10
227.95374
  20
-214.12387
  0
VERTEX
  5
213
  8
Layer_30
  10
231.87506
  20
-213.75336
  0
SEQEND
  0
POLYLINE
  5
215
  8
Layer_30
  62
30
  66
1
  10
0
  20
0
  30
0
  0
VERTEX
  5
215
  8
Layer_30
  10
234.06491
  20
-213.57288
  0
VERTEX
  5
216
  8
Layer_30
  10
239.48991
  20
-213.08551
  0
SEQEND
  0
POLYLINE
  5
218
  8
Layer_30
  62
30
  66
1
  10
0
  20
0
  30
0
  0
VERTEX
  5
218
  8
Layer_30
  10
241.66924
  20
-212.91806
  0
VERTEX
  5
219
  8
Layer_30
  10
247.03467
  20
-212.44241
  0
SEQEND
  0
POLYLINE
  5
21b
  8
Layer_30
  62
30
  66
1
  10
0
  20
0
  30
0
  0
VERTEX
  5
21b
  8
Layer_30
  10
248.927
  20
-212.22745
  0
VERTEX
  5
21c
  8
Layer_30
  10
253.98834
  20
-211.78415
  0
SEQEND
  0
POLYLINE
  5
21e
  8
Layer_30
  62
30
  66
1
  10
0
  20
0
  30
0
  0
VERTEX
  5
21e
  8
Layer_30
  10
255.37088
  20
-211.60675
  0
VERTEX
  5
21f
  8
Layer_30
  10
258.76074
  20
-211.45001
  0
SEQEND
  0
POLYLINE
  5
221
  8
Layer_30
  62
30
  66
1
  10
0
  20
0
  30
0
  0
VERTEX
  5
221
  8
Layer_30
  10
261.1293
  20
-211.15701
  0
VERTEX
  5
222
  8
Layer_30
  10
266.09192
  20
-210.67332
  0
SEQEND
  0
POLYLINE
  5
224
  8
Layer_30
  62
30
  66
1
  10
0
  20
0
  30
0
  0
VERTEX
  5
224
  8
Layer_30
  10
267.96609
  20
-210.57668
  0
VERTEX
  5
225
  8
Layer_30
  10
272.77591
  20
-210.15256
  0
SEQEND
  0
POLYLINE
  5
227
  8
Layer_30
  62
30
  66
1
  10
0
  20
0
  30
0
  0
VERTEX
  5
227
  8
Layer_30
  10
277.29538
  20
-210.08917
  0
VERTEX
  5
228
  8
Layer_30
  10
281.66068
  20
-210.08917
  0
SEQEND
  0
POLYLINE
  5
22a
  8
Layer_30
  62
30
  66
1
  10
0
  20
0
  30
0
  0
VERTEX
  5
22a
  8
Layer_30
  10
284.15512
  20
-210.08917
  0
VERTEX
  5
22b
  8
Layer_30
  10
288.82483
  20
-210.08917
  0
SEQEND
  0
POLYLINE
  5
22d
  8
Layer_30
  62
30
  66
1
  10
0
  20
0
  30
0
  0
VERTEX
  5
22d
  8
Layer_30
  10
292.60223
  20
-210.03249
  0
VERTEX
  5
22e
  8
Layer_30
  10
297.16498
  20
-210.03249
  0
SEQEND
  0
POLYLINE
  5
230
  8
Layer_30
  62
30
  66
1
  10
0
  20
0
  30
0
  0
VERTEX
  5
230
  8
Layer_30
  10
299.67206
  20
-210.07289
  0
VERTEX
  5
231
  8
Layer_30
  10
304.66095
  20
-210.07289
  0
SEQEND
  0
POLYLINE
  5
233
  8
Layer_30
  62
30
  66
1
  10
0
  20
0
  30
0
  0
VERTEX
  5
233
  8
Layer_30
  10
307.72232
  20
-210.07289
  0
VERTEX
  5
234
  8
Layer_30
  10
312.85236
  20
-210.07289
  0
SEQEND
  0
POLYLINE
  5
236
  8
Layer_30
  62
30
  66
1
  10
0
  20
0
  30
0
  0
VERTEX
  5
236
  8
Layer_30
  10
360.20255
  20
-210.07289
  0
VERTEX
  5
237
  8
Layer_30
  10
365.33258
  20
-210.07289
  0
SEQEND
  0
POLYLINE
  5
239
  8
Layer_30
  62
30
  66
1
  10
0
  20
0
  30
0
  0
VERTEX
  5
239
  8
Layer_30
  10
336.63538
  20
-210.08917
  0
VERTEX
  5
23a
  8
Layer_30
  10
341.30505
  20
-210.08917
  0
SEQEND
  0
POLYLINE
  5
23c
  8
Layer_30
  62
30
  66
1
  10
0
  20
0
  30
0
  0
VERTEX
  5
23c
  8
Layer_30
  10
329.77563
  20
-210.08917
  0
VERTEX
  5
23d
  8
Layer_30
  10
334.1409
  20
-210.08917
  0
SEQEND
  0
POLYLINE
  5
23f
  8
Layer_30
  62
30
  66
1
  10
0
  20
0
  30
0
  0
VERTEX
  5
23f
  8
Layer_30
  10
352.15228
  20
-210.07289
  0
VERTEX
  5
240
  8
Layer_30
  10
357.14117
  20
-210.07289
  0
SEQEND
  0
POLYLINE
  5
242
  8
Layer_30
  62
30
  66
1
  10
0
  20
0
  30
0
  0
VERTEX
  5
242
  8
Layer_30
  10
345.08246
  20
-210.03249
  0
VERTEX
  5
243
  8
Layer_30
  10
349.6452
  20
-210.03249
  0
SEQEND
  0
POLYLINE
  5
245
  8
Layer_30
  62
30
  66
1
  10
0
  20
0
  30
0
  0
VERTEX
  5
245
  8
Layer_30
  10
314.01996
  20
-231.48483
  0
VERTEX
  5
246
  8
Layer_30
  10
319.14996
  20
-231.48483
  0
SEQEND
  0
POLYLINE
  5
248
  8
Layer_30
  62
30
  66
1
  10
0
  20
0
  30
0
  0
VERTEX
  5
248
  8
Layer_30
  10
290.45276
  20
-231.5011
  0
VERTEX
  5
249
  8
Layer_30
  10
295.12247
  20
-231.5011
  0
SEQEND
  0
POLYLINE
  5
24b
  8
Layer_30
  62
30
  66
1
  10
0
  20
0
  30
0
  0
VERTEX
  5
24b
  8
Layer_30
  10
283.59302
  20
-231.5011
  0
VERTEX
  5
24c
  8
Layer_30
  10
287.95831
  20
-231.5011
  0
SEQEND
  0
POLYLINE
  5
24e
  8
Layer_30
  62
30
  66
1
  10
0
  20
0
  30
0
  0
VERTEX
  5
24e
  8
Layer_30
  10
305.96967
  20
-231.48483
  0
VERTEX
  5
24f
  8
Layer_30
  10
310.95856
  20
-231.48483
  0
SEQEND
  0
POLYLINE
  5
251
  8
Layer_30
  62
30
  66
1
  10
0
  20
0
  30
0
  0
VERTEX
  5
251
  8
Layer_30
  10
298.89987
  20
-231.44443
  0
VERTEX
  5
252
  8
Layer_30
  10
303.46259
  20
-231.44443
  0
SEQEND
  0
POLYLINE
  5
254
  8
Layer_30
  62
30
  66
1
  10
0
  20
0
  30
0
  0
VERTEX
  5
254
  8
Layer_30
  10
338.78485
  20
-231.44443
  0
VERTEX
  5
255
  8
Layer_30
  10
343.3476
  20
-231.44443
  0
SEQEND
  0
POLYLINE
  5
257
  8
Layer_30
  62
30
  66
1
  10
0
  20
0
  30
0
  0
VERTEX
  5
257
  8
Layer_30
  10
330.33771
  20
-231.5011
  0
VERTEX
  5
258
  8
Layer_30
  10
335.00745
  20
-231.5011
  0
SEQEND
  0
POLYLINE
  5
25a
  8
Layer_30
  62
30
  66
1
  10
0
  20
0
  30
0
  0
VERTEX
  5
25a
  8
Layer_30
  10
323.478
  20
-231.5011
  0
VERTEX
  5
25b
  8
Layer_30
  10
327.84326
  20
-231.5011
  0
SEQEND
  0
POLYLINE
  5
25d
  8
Layer_30
  62
30
  66
1
  10
0
  20
0
  30
0
  0
VERTEX
  5
25d
  8
Layer_30
  10
398.91992
  20
-231.93759
  0
VERTEX
  5
25e
  8
Layer_30
  10
398.91992
  20
-235.64642
  0
SEQEND
  0
POLYLINE
  5
260
  8
Layer_30
  62
30
  66
1
  10
0
  20
0
  30
0
  0
VERTEX
  5
260
  8
Layer_30
  10
398.91992
  20
-237.18561
  0
VERTEX
  5
261
  8
Layer_30
  10
398.91992
  20
-240.72708
  0
SEQEND
  0
POLYLINE
  5
263
  8
Layer_30
  62
30
  66
1
  10
0
  20
0
  30
0
  0
VERTEX
  5
263
  8
Layer_30
  10
421.5498
  20
-235.1077
  0
VERTEX
  5
264
  8
Layer_30
  10
421.5498
  20
-237.18561
  0
SEQEND
  0
POLYLINE
  5
266
  8
Layer_30
  62
30
  66
1
  10
0
  20
0
  30
0
  0
VERTEX
  5
266
  8
Layer_30
  10
421.49503
  20
-238.55934
  0
VERTEX
  5
267
  8
Layer_30
  10
421.49469
  20
-241.02481
  0
SEQEND
  0
POLYLINE
  5
269
  8
Layer_30
  62
30
  66
1
  10
0
  20
0
  30
0
  0
VERTEX
  5
269
  8
Layer_30
  10
398.91724
  20
-251.1188
  0
VERTEX
  5
26a
  8
Layer_30
  10
398.91827
  20
-247.40997
  0
SEQEND
  0
POLYLINE
  5
26c
  8
Layer_30
  62
30
  66
1
  10
0
  20
0
  30
0
  0
VERTEX
  5
26c
  8
Layer_30
  10
257.29761
  20
-296.09369
  0
VERTEX
  5
26d
  8
Layer_30
  10
262.26007
  20
-296.5788
  0
SEQEND
  0
POLYLINE
  5
26f
  8
Layer_30
  62
30
  66
1
  10
0
  20
0
  30
0
  0
VERTEX
  5
26f
  8
Layer_30
  10
305.96686
  20
-251.54524
  0
VERTEX
  5
270
  8
Layer_30
  10
310.95575
  20
-251.54666
  0
SEQEND
  0
POLYLINE
  5
272
  8
Layer_30
  62
30
  66
1
  10
0
  20
0
  30
0
  0
VERTEX
  5
272
  8
Layer_30
  10
178.64311
  20
-262.13373
  0
VERTEX
  5
273
  8
Layer_30
  10
182.18895
  20
-262.13474
  0
SEQEND
  0
POLYLINE
  5
275
  8
Layer_30
  62
30
  66
1
  10
0
  20
0
  30
0
  0
VERTEX
  5
275
  8
Layer_30
  10
224.2148
  20
-243.70445
  0
VERTEX
  5
276
  8
Layer_30
  10
224.21527
  20
-242.04288
  0
SEQEND
  0
POLYLINE
  5
278
  8
Layer_30
  62
30
  66
1
  10
0
  20
0
  30
0
  0
VERTEX
  5
278
  8
Layer_30
  10
330.3349
  20
-251.53586
  0
VERTEX
  5
279
  8
Layer_30
  10
335.00458
  20
-251.53719
  0
SEQEND
  0
POLYLINE
  5
27b
  8
Layer_30
  62
30
  66
1
  10
0
  20
0
  30
0
  0
VERTEX
  5
27b
  8
Layer_30
  10
283.59018
  20
-251.52263
  0
VERTEX
  5
27c
  8
Layer_30
  10
287.95547
  20
-251.52386
  0
SEQEND
  0
POLYLINE
  5
27e
  8
Layer_30
  62
30
  66
1
  10
0
  20
0
  30
0
  0
VERTEX
  5
27e
  8
Layer_30
  10
251.53935
  20
-295.54883
  0
VERTEX
  5
27f
  8
Layer_30
  10
254.85306
  20
-295.8757
  0
SEQEND
  0
POLYLINE
  5
281
  8
Layer_30
  62
30
  66
1
  10
0
  20
0
  30
0
  0
VERTEX
  5
281
  8
Layer_30
  10
230.23395
  20
-293.51013
  0
VERTEX
  5
282
  8
Layer_30
  10
235.65881
  20
-293.99902
  0
SEQEND
  0
POLYLINE
  5
284
  8
Layer_30
  62
30
  66
1
  10
0
  20
0
  30
0
  0
VERTEX
  5
284
  8
Layer_30
  10
329.76672
  20
-272.94763
  0
VERTEX
  5
285
  8
Layer_30
  10
334.13202
  20
-272.94885
  0
SEQEND
  0
POLYLINE
  5
287
  8
Layer_30
  62
30
  66
1
  10
0
  20
0
  30
0
  0
VERTEX
  5
287
  8
Layer_30
  10
224.21317
  20
-249.45351
  0
VERTEX
  5
288
  8
Layer_30
  10
224.2137
  20
-247.59253
  0
SEQEND
  0
POLYLINE
  5
28a
  8
Layer_30
  62
30
  66
1
  10
0
  20
0
  30
0
  0
VERTEX
  5
28a
  8
Layer_30
  10
292.59332
  20
-272.9938
  0
VERTEX
  5
28b
  8
Layer_30
  10
297.15607
  20
-272.99512
  0
SEQEND
  0
POLYLINE
  5
28d
  8
Layer_30
  62
30
  66
1
  10
0
  20
0
  30
0
  0
VERTEX
  5
28d
  8
Layer_30
  10
224.21404
  20
-246.39621
  0
VERTEX
  5
28e
  8
Layer_30
  10
224.21449
  20
-244.77173
  0
SEQEND
  0
POLYLINE
  5
290
  8
Layer_30
  62
30
  66
1
  10
0
  20
0
  30
0
  0
VERTEX
  5
290
  8
Layer_30
  10
277.2865
  20
-272.9328
  0
VERTEX
  5
291
  8
Layer_30
  10
281.65179
  20
-272.93402
  0
SEQEND
  0
POLYLINE
  5
293
  8
Layer_30
  62
30
  66
1
  10
0
  20
0
  30
0
  0
VERTEX
  5
293
  8
Layer_30
  10
264.13422
  20
-296.76944
  0
VERTEX
  5
294
  8
Layer_30
  10
268.94391
  20
-297.19495
  0
SEQEND
  0
POLYLINE
  5
296
  8
Layer_30
  62
30
  66
1
  10
0
  20
0
  30
0
  0
VERTEX
  5
296
  8
Layer_30
  10
360.19366
  20
-272.97253
  0
VERTEX
  5
297
  8
Layer_30
  10
365.32367
  20
-272.974
  0
SEQEND
  0
POLYLINE
  5
299
  8
Layer_30
  62
30
  66
1
  10
0
  20
0
  30
0
  0
VERTEX
  5
299
  8
Layer_30
  10
227.94598
  20
-268.88412
  0
VERTEX
  5
29a
  8
Layer_30
  10
231.8672
  20
-269.25574
  0
SEQEND
  0
POLYLINE
  5
29c
  8
Layer_30
  62
30
  66
1
  10
0
  20
0
  30
0
  0
VERTEX
  5
29c
  8
Layer_30
  10
201.82074
  20
-262.14032
  0
VERTEX
  5
29d
  8
Layer_30
  10
205.62602
  20
-262.14139
  0
SEQEND
  0
POLYLINE
  5
29f
  8
Layer_30
  62
30
  66
1
  10
0
  20
0
  30
0
  0
VERTEX
  5
29f
  8
Layer_30
  10
193.6048
  20
-262.13797
  0
VERTEX
  5
2a0
  8
Layer_30
  10
198.43961
  20
-262.13934
  0
SEQEND
  0
POLYLINE
  5
2a2
  8
Layer_30
  62
30
  66
1
  10
0
  20
0
  30
0
  0
VERTEX
  5
2a2
  8
Layer_30
  10
161.62822
  20
-269.73459
  0
VERTEX
  5
2a3
  8
Layer_30
  10
164.77702
  20
-269.73547
  0
SEQEND
  0
POLYLINE
  5
2a5
  8
Layer_30
  62
30
  66
1
  10
0
  20
0
  30
0
  0
VERTEX
  5
2a5
  8
Layer_30
  10
245.09564
  20
-294.92633
  0
VERTEX
  5
2a6
  8
Layer_30
  10
250.12782
  20
-295.41022
  0
SEQEND
  0
POLYLINE
  5
2a8
  8
Layer_30
  62
30
  66
1
  10
0
  20
0
  30
0
  0
VERTEX
  5
2a8
  8
Layer_30
  10
338.78198
  20
-251.59494
  0
VERTEX
  5
2a9
  8
Layer_30
  10
343.34473
  20
-251.59624
  0
SEQEND
  0
POLYLINE
  5
2ab
  8
Layer_30
  62
30
  66
1
  10
0
  20
0
  30
0
  0
VERTEX
  5
2ab
  8
Layer_30
  10
323.47516
  20
-251.53392
  0
VERTEX
  5
2ac
  8
Layer_30
  10
327.84045
  20
-251.53516
  0
SEQEND
  0
POLYLINE
  5
2ae
  8
Layer_30
  62
30
  66
1
  10
0
  20
0
  30
0
  0
VERTEX
  5
2ae
  8
Layer_30
  10
336.62646
  20
-272.94958
  0
VERTEX
  5
2af
  8
Layer_30
  10
341.29617
  20
-272.9509
  0
SEQEND
  0
POLYLINE
  5
2b1
  8
Layer_30
  62
30
  66
1
  10
0
  20
0
  30
0
  0
VERTEX
  5
2b1
  8
Layer_30
  10
421.49417
  20
-244.50343
  0
VERTEX
  5
2b2
  8
Layer_30
  10
421.49454
  20
-242.03796
  0
SEQEND
  0
POLYLINE
  5
2b4
  8
Layer_30
  62
30
  66
1
  10
0
  20
0
  30
0
  0
VERTEX
  5
2b4
  8
Layer_30
  10
398.9187
  20
-245.87079
  0
VERTEX
  5
2b5
  8
Layer_30
  10
398.91971
  20
-242.32932
  0
SEQEND
  0
POLYLINE
  5
2b7
  8
Layer_30
  62
30
  66
1
  10
0
  20
0
  30
0
  0
VERTEX
  5
2b7
  8
Layer_30
  10
158.55733
  20
-252.58569
  0
VERTEX
  5
2b8
  8
Layer_30
  10
158.55638
  20
-255.95361
  0
SEQEND
  0
POLYLINE
  5
2ba
  8
Layer_30
  62
30
  66
1
  10
0
  20
0
  30
0
  0
VERTEX
  5
2ba
  8
Layer_30
  10
208.53294
  20
-246.39175
  0
VERTEX
  5
2bb
  8
Layer_30
  10
208.5334
  20
-244.76727
  0
SEQEND
  0
POLYLINE
  5
2bd
  8
Layer_30
  62
30
  66
1
  10
0
  20
0
  30
0
  0
VERTEX
  5
2bd
  8
Layer_30
  10
352.14337
  20
-272.97025
  0
VERTEX
  5
2be
  8
Layer_30
  10
357.13226
  20
-272.97168
  0
SEQEND
  0
POLYLINE
  5
2c0
  8
Layer_30
  62
30
  66
1
  10
0
  20
0
  30
0
  0
VERTEX
  5
2c0
  8
Layer_30
  10
208.53207
  20
-249.44907
  0
VERTEX
  5
2c1
  8
Layer_30
  10
208.53261
  20
-247.5881
  0
SEQEND
  0
POLYLINE
  5
2c3
  8
Layer_30
  62
30
  66
1
  10
0
  20
0
  30
0
  0
VERTEX
  5
2c3
  8
Layer_30
  10
248.9187
  20
-270.7865
  0
VERTEX
  5
2c4
  8
Layer_30
  10
253.97992
  20
-271.2312
  0
SEQEND
  0
POLYLINE
  5
2c6
  8
Layer_30
  62
30
  66
1
  10
0
  20
0
  30
0
  0
VERTEX
  5
2c6
  8
Layer_30
  10
158.48203
  20
-260.44415
  0
VERTEX
  5
2c7
  8
Layer_30
  10
158.48283
  20
-257.60013
  0
SEQEND
  0
POLYLINE
  5
2c9
  8
Layer_30
  62
30
  66
1
  10
0
  20
0
  30
0
  0
VERTEX
  5
2c9
  8
Layer_30
  10
237.83807
  20
-294.23364
  0
VERTEX
  5
2ca
  8
Layer_30
  10
243.20337
  20
-294.71082
  0
SEQEND
  0
POLYLINE
  5
2cc
  8
Layer_30
  62
30
  66
1
  10
0
  20
0
  30
0
  0
VERTEX
  5
2cc
  8
Layer_30
  10
290.44992
  20
-251.52457
  0
VERTEX
  5
2cd
  8
Layer_30
  10
295.11963
  20
-251.52589
  0
SEQEND
  0
POLYLINE
  5
2cf
  8
Layer_30
  62
30
  66
1
  10
0
  20
0
  30
0
  0
VERTEX
  5
2cf
  8
Layer_30
  10
241.66115
  20
-270.09381
  0
VERTEX
  5
2d0
  8
Layer_30
  10
247.02643
  20
-270.57098
  0
SEQEND
  0
POLYLINE
  5
2d2
  8
Layer_30
  62
30
  66
1
  10
0
  20
0
  30
0
  0
VERTEX
  5
2d2
  8
Layer_30
  10
161.6279
  20
-262.04184
  0
VERTEX
  5
2d3
  8
Layer_30
  10
164.7767
  20
-262.04272
  0
SEQEND
  0
POLYLINE
  5
2d5
  8
Layer_30
  62
30
  66
1
  10
0
  20
0
  30
0
  0
VERTEX
  5
2d5
  8
Layer_30
  10
421.548
  20
-247.95511
  0
VERTEX
  5
2d6
  8
Layer_30
  10
421.54858
  20
-245.87718
  0
SEQEND
  0
POLYLINE
  5
2d8
  8
Layer_30
  62
30
  66
1
  10
0
  20
0
  30
0
  0
VERTEX
  5
2d8
  8
Layer_30
  10
208.53371
  20
-243.70001
  0
VERTEX
  5
2d9
  8
Layer_30
  10
208.53418
  20
-242.03844
  0
SEQEND
  0
POLYLINE
  5
2db
  8
Layer_30
  62
30
  66
1
  10
0
  20
0
  30
0
  0
VERTEX
  5
2db
  8
Layer_30
  10
185.5618
  20
-262.13568
  0
VERTEX
  5
2dc
  8
Layer_30
  10
190.04279
  20
-262.13696
  0
SEQEND
  0
POLYLINE
  5
2de
  8
Layer_30
  62
30
  66
1
  10
0
  20
0
  30
0
  0
VERTEX
  5
2de
  8
Layer_30
  10
224.08966
  20
-292.89087
  0
VERTEX
  5
2df
  8
Layer_30
  10
228.01089
  20
-293.26251
  0
SEQEND
  0
POLYLINE
  5
2e1
  8
Layer_30
  62
30
  66
1
  10
0
  20
0
  30
0
  0
VERTEX
  5
2e1
  8
Layer_30
  10
255.36243
  20
-271.409
  0
VERTEX
  5
2e2
  8
Layer_30
  10
258.75223
  20
-271.56671
  0
SEQEND
  0
POLYLINE
  5
2e4
  8
Layer_30
  62
30
  66
1
  10
0
  20
0
  30
0
  0
VERTEX
  5
2e4
  8
Layer_30
  10
209.17184
  20
-262.1424
  0
VERTEX
  5
2e5
  8
Layer_30
  10
214.53384
  20
-262.14389
  0
SEQEND
  0
POLYLINE
  5
2e7
  8
Layer_30
  62
30
  66
1
  10
0
  20
0
  30
0
  0
VERTEX
  5
2e7
  8
Layer_30
  10
261.1207
  20
-271.86035
  0
VERTEX
  5
2e8
  8
Layer_30
  10
266.08319
  20
-272.34546
  0
SEQEND
  0
POLYLINE
  5
2ea
  8
Layer_30
  62
30
  66
1
  10
0
  20
0
  30
0
  0
VERTEX
  5
2ea
  8
Layer_30
  10
284.14624
  20
-272.93472
  0
VERTEX
  5
2eb
  8
Layer_30
  10
288.81592
  20
-272.93604
  0
SEQEND
  0
POLYLINE
  5
2ed
  8
Layer_30
  62
30
  66
1
  10
0
  20
0
  30
0
  0
VERTEX
  5
2ed
  8
Layer_30
  10
299.66315
  20
-272.95538
  0
VERTEX
  5
2ee
  8
Layer_30
  10
304.65204
  20
-272.95679
  0
SEQEND
  0
POLYLINE
  5
2f0
  8
Layer_30
  62
30
  66
1
  10
0
  20
0
  30
0
  0
VERTEX
  5
2f0
  8
Layer_30
  10
314.01709
  20
-251.54752
  0
VERTEX
  5
2f1
  8
Layer_30
  10
319.14716
  20
-251.54898
  0
SEQEND
  0
POLYLINE
  5
2f3
  8
Layer_30
  62
30
  66
1
  10
0
  20
0
  30
0
  0
VERTEX
  5
2f3
  8
Layer_30
  10
167.92552
  20
-262.04361
  0
VERTEX
  5
2f4
  8
Layer_30
  10
171.07434
  20
-262.04449
  0
SEQEND
  0
POLYLINE
  5
2f6
  8
Layer_30
  62
30
  66
1
  10
0
  20
0
  30
0
  0
VERTEX
  5
2f6
  8
Layer_30
  10
298.89703
  20
-251.58365
  0
VERTEX
  5
2f7
  8
Layer_30
  10
303.45978
  20
-251.58495
  0
SEQEND
  0
POLYLINE
  5
2f9
  8
Layer_30
  62
30
  66
1
  10
0
  20
0
  30
0
  0
VERTEX
  5
2f9
  8
Layer_30
  10
345.07355
  20
-273.00867
  0
VERTEX
  5
2fa
  8
Layer_30
  10
349.63629
  20
-273.00995
  0
SEQEND
  0
POLYLINE
  5
2fc
  8
Layer_30
  62
30
  66
1
  10
0
  20
0
  30
0
  0
VERTEX
  5
2fc
  8
Layer_30
  10
234.05701
  20
-269.43683
  0
VERTEX
  5
2fd
  8
Layer_30
  10
239.48187
  20
-269.92575
  0
SEQEND
  0
POLYLINE
  5
2ff
  8
Layer_30
  62
30
  66
1
  10
0
  20
0
  30
0
  0
VERTEX
  5
2ff
  8
Layer_30
  10
267.95734
  20
-272.44263
  0
VERTEX
  5
300
  8
Layer_30
  10
272.76703
  20
-272.8681
  0
SEQEND
  0
POLYLINE
  5
302
  8
Layer_30
  62
30
  66
1
  10
0
  20
0
  30
0
  0
VERTEX
  5
302
  8
Layer_30
  10
167.92584
  20
-269.73639
  0
VERTEX
  5
303
  8
Layer_30
  10
171.07466
  20
-269.73727
  0
SEQEND
  0
POLYLINE
  5
305
  8
Layer_30
  62
30
  66
1
  10
0
  20
0
  30
0
  0
VERTEX
  5
305
  8
Layer_30
  10
307.71344
  20
-272.95767
  0
VERTEX
  5
306
  8
Layer_30
  10
312.84344
  20
-272.95911
  0
SEQEND
  0
POLYLINE
  5
308
  8
Layer_30
  62
30
  70
1
  66
1
  10
0
  20
0
  30
0
  0
VERTEX
  5
308
  8
Layer_30
  10
365.68903
  20
-291.20911
  0
VERTEX
  5
309
  8
Layer_30
  10
437.37744
  20
-291.20911
  0
VERTEX
  5
30a
  8
Layer_30
  10
437.37744
  20
-340.50598
  0
VERTEX
  5
30b
  8
Layer_30
  10
365.68903
  20
-340.50598
  0
SEQEND
  0
POLYLINE
  5
30d
  8
Layer_30
  62
30
  66
1
  10
0
  20
0
  30
0
  0
VERTEX
  5
30d
  8
Layer_30
  10
377.44397
  20
-292.87823
  0
VERTEX
  5
30e
  8
Layer_30
  10
377.44397
  20
-299.11227
  0
SEQEND
  0
POLYLINE
  5
310
  8
Layer_30
  62
30
  66
1
  10
0
  20
0
  30
0
  0
VERTEX
  5
310
  8
Layer_30
  10
377.50183
  20
-303.23358
  0
VERTEX
  5
311
  8
Layer_30
  10
377.50183
  20
-307.45502
  0
SEQEND
  0
POLYLINE
  5
313
  8
Layer_30
  62
30
  66
1
  10
0
  20
0
  30
0
  0
VERTEX
  5
313
  8
Layer_30
  10
377.44397
  20
-309.67194
  0
VERTEX
  5
314
  8
Layer_30
  10
377.44397
  20
-315.90594
  0
SEQEND
  0
POLYLINE
  5
316
  8
Layer_30
  62
30
  66
1
  10
0
  20
0
  30
0
  0
VERTEX
  5
316
  8
Layer_30
  10
377.50183
  20
-320.02725
  0
VERTEX
  5
317
  8
Layer_30
  10
377.50183
  20
-324.24869
  0
SEQEND
  0
POLYLINE
  5
319
  8
Layer_30
  62
30
  66
1
  10
0
  20
0
  30
0
  0
VERTEX
  5
319
  8
Layer_30
  10
377.44397
  20
-327.1387
  0
VERTEX
  5
31a
  8
Layer_30
  10
377.44397
  20
-333.37274
  0
SEQEND
  0
POLYLINE
  5
31c
  8
Layer_30
  62
30
  66
1
  10
0
  20
0
  30
0
  0
VERTEX
  5
31c
  8
Layer_30
  10
377.50183
  20
-335.34735
  0
VERTEX
  5
31d
  8
Layer_30
  10
377.50183
  20
-339.56879
  0
SEQEND
  0
POLYLINE
  5
31f
  8
Layer_30
  62
30
  66
1
  10
0
  20
0
  30
0
  0
VERTEX
  5
31f
  8
Layer_30
  10
393.24588
  20
-303.23358
  0
VERTEX
  5
320
  8
Layer_30
  10
393.24588
  20
-307.45502
  0
SEQEND
  0
POLYLINE
  5
322
  8
Layer_30
  62
30
  66
1
  10
0
  20
0
  30
0
  0
VERTEX
  5
322
  8
Layer_30
  10
393.24588
  20
-320.02725
  0
VERTEX
  5
323
  8
Layer_30
  10
393.24588
  20
-324.24869
  0
SEQEND
  0
POLYLINE
  5
325
  8
Layer_30
  62
30
  66
1
  10
0
  20
0
  30
0
  0
VERTEX
  5
325
  8
Layer_30
  10
393.18805
  20
-292.87823
  0
VERTEX
  5
326
  8
Layer_30
  10
393.18805
  20
-299.11227
  0
SEQEND
  0
POLYLINE
  5
328
  8
Layer_30
  62
30
  66
1
  10
0
  20
0
  30
0
  0
VERTEX
  5
328
  8
Layer_30
  10
393.24588
  20
-335.34735
  0
VERTEX
  5
329
  8
Layer_30
  10
393.24588
  20
-339.56879
  0
SEQEND
  0
POLYLINE
  5
32b
  8
Layer_30
  62
30
  66
1
  10
0
  20
0
  30
0
  0
VERTEX
  5
32b
  8
Layer_30
  10
393.18805
  20
-309.67194
  0
VERTEX
  5
32c
  8
Layer_30
  10
393.18805
  20
-315.90594
  0
SEQEND
  0
POLYLINE
  5
32e
  8
Layer_30
  62
30
  66
1
  10
0
  20
0
  30
0
  0
VERTEX
  5
32e
  8
Layer_30
  10
393.18805
  20
-327.1387
  0
VERTEX
  5
32f
  8
Layer_30
  10
393.18805
  20
-333.37274
  0
SEQEND
  0
POLYLINE
  5
331
  8
Layer_30
  62
30
  66
1
  10
0
  20
0
  30
0
  0
VERTEX
  5
331
  8
Layer_30
  10
425.78363
  20
-320.02725
  0
VERTEX
  5
332
  8
Layer_30
  10
425.78363
  20
-324.24869
  0
SEQEND
  0
POLYLINE
  5
334
  8
Layer_30
  62
30
  66
1
  10
0
  20
0
  30
0
  0
VERTEX
  5
334
  8
Layer_30
  10
425.78363
  20
-335.34735
  0
VERTEX
  5
335
  8
Layer_30
  10
425.78363
  20
-339.56879
  0
SEQEND
  0
POLYLINE
  5
337
  8
Layer_30
  62
30
  66
1
  10
0
  20
0
  30
0
  0
VERTEX
  5
337
  8
Layer_30
  10
409.98175
  20
-327.1387
  0
VERTEX
  5
338
  8
Layer_30
  10
409.98175
  20
-333.37274
  0
SEQEND
  0
POLYLINE
  5
33a
  8
Layer_30
  62
30
  66
1
  10
0
  20
0
  30
0
  0
VERTEX
  5
33a
  8
Layer_30
  10
410.03955
  20
-303.23358
  0
VERTEX
  5
33b
  8
Layer_30
  10
410.03955
  20
-307.45502
  0
SEQEND
  0
POLYLINE
  5
33d
  8
Layer_30
  62
30
  66
1
  10
0
  20
0
  30
0
  0
VERTEX
  5
33d
  8
Layer_30
  10
425.78363
  20
-303.23358
  0
VERTEX
  5
33e
  8
Layer_30
  10
425.78363
  20
-307.45502
  0
SEQEND
  0
POLYLINE
  5
340
  8
Layer_30
  62
30
  66
1
  10
0
  20
0
  30
0
  0
VERTEX
  5
340
  8
Layer_30
  10
425.7258
  20
-309.67194
  0
VERTEX
  5
341
  8
Layer_30
  10
425.7258
  20
-315.90594
  0
SEQEND
  0
POLYLINE
  5
343
  8
Layer_30
  62
30
  66
1
  10
0
  20
0
  30
0
  0
VERTEX
  5
343
  8
Layer_30
  10
425.7258
  20
-292.87823
  0
VERTEX
  5
344
  8
Layer_30
  10
425.7258
  20
-299.11227
  0
SEQEND
  0
POLYLINE
  5
346
  8
Layer_30
  62
30
  66
1
  10
0
  20
0
  30
0
  0
VERTEX
  5
346
  8
Layer_30
  10
425.7258
  20
-327.1387
  0
VERTEX
  5
347
  8
Layer_30
  10
425.7258
  20
-333.37274
  0
SEQEND
  0
POLYLINE
  5
349
  8
Layer_30
  62
30
  66
1
  10
0
  20
0
  30
0
  0
VERTEX
  5
349
  8
Layer_30
  10
409.98175
  20
-309.67194
  0
VERTEX
  5
34a
  8
Layer_30
  10
409.98175
  20
-315.90594
  0
SEQEND
  0
POLYLINE
  5
34c
  8
Layer_30
  62
30
  66
1
  10
0
  20
0
  30
0
  0
VERTEX
  5
34c
  8
Layer_30
  10
409.98175
  20
-292.87823
  0
VERTEX
  5
34d
  8
Layer_30
  10
409.98175
  20
-299.11227
  0
SEQEND
  0
POLYLINE
  5
34f
  8
Layer_30
  62
30
  66
1
  10
0
  20
0
  30
0
  0
VERTEX
  5
34f
  8
Layer_30
  10
410.03955
  20
-335.34735
  0
VERTEX
  5
350
  8
Layer_30
  10
410.03955
  20
-339.56879
  0
SEQEND
  0
POLYLINE
  5
352
  8
Layer_30
  62
30
  66
1
  10
0
  20
0
  30
0
  0
VERTEX
  5
352
  8
Layer_30
  10
410.03955
  20
-320.02725
  0
VERTEX
  5
353
  8
Layer_30
  10
410.03955
  20
-324.24869
  0
SEQEND
  0
CIRCLE
  5
355
  8
Layer_9
  62
172
  10
229.4007
  20
166.61752
  30
0
  40
2.75
  0
CIRCLE
  5
355
  8
Layer_9
  62
172
  10
264.18292
  20
177.00449
  30
0
  40
2.75
  0
CIRCLE
  5
355
  8
Layer_9
  62
172
  10
255.88184
  20
134.80769
  30
0
  40
2.75
  0
CIRCLE
  5
355
  8
Layer_9
  62
172
  10
264.11853
  20
92.479126
  30
0
  40
2.75
  0
CIRCLE
  5
355
  8
Layer_9
  62
172
  10
229.54974
  20
103.36327
  30
0
  40
2.75
  0
CIRCLE
  5
355
  8
Layer_9
  62
172
  10
229.48932
  20
76.764297
  30
0
  40
5
  0
CIRCLE
  5
355
  8
Layer_9
  62
172
  10
229.46973
  20
49.654243
  30
0
  40
2.75
  0
CIRCLE
  5
355
  8
Layer_9
  62
172
  10
103.04321
  20
157.02905
  30
0
  40
2.75
  0
CIRCLE
  5
355
  8
Layer_9
  62
172
  10
103.52692
  20
192.09882
  30
0
  40
2.75
  0
CIRCLE
  5
355
  8
Layer_9
  62
172
  10
54.266541
  20
182.39462
  30
0
  40
2.75
  0
CIRCLE
  5
355
  8
Layer_9
  62
172
  10
103.07147
  20
97.256889
  30
0
  40
5
  0
CIRCLE
  5
355
  8
Layer_9
  62
172
  10
102.93604
  20
113.27885
  30
0
  40
2.75
  0
CIRCLE
  5
355
  8
Layer_9
  62
172
  10
53.990601
  20
88.821487
  30
0
  40
2.75
  0
CIRCLE
  5
355
  8
Layer_9
  62
172
  10
102.89252
  20
174.52841
  30
0
  40
5
  0
CIRCLE
  5
355
  8
Layer_9
  62
172
  10
230.20831
  20
193.9538
  30
0
  40
5
  0
POLYLINE
  5
355
  8
Layer_9
  62
172
  66
1
  10
0
  20
0
  30
0
  0
VERTEX
  5
355
  8
Layer_9
  10
27.170166
  20
140.4261
  0
VERTEX
  5
356
  8
Layer_9
  10
32.921082
  20
140.43323
  42
-0.4142168
  0
VERTEX
  5
357
  8
Layer_9
  10
37.927246
  20
135.43942
  0
VERTEX
  5
358
  8
Layer_9
  10
37.926941
  20
135.7289
  42
-0.0072734283
  0
VERTEX
  5
359
  8
Layer_9
  10
37.924988
  20
135.58417
  42
0.014881281
  0
VERTEX
  5
35a
  8
Layer_9
  10
37.925415
  20
135.72752
  0
SEQEND
  0
POLYLINE
  5
35c
  8
Layer_9
  62
172
  66
1
  10
0
  20
0
  30
0
  0
VERTEX
  5
35c
  8
Layer_9
  10
66.000549
  20
126.3082
  0
VERTEX
  5
35d
  8
Layer_9
  10
65.712646
  20
86.712761
  0
VERTEX
  5
35e
  8
Layer_9
  10
65.712585
  20
86.131966
  42
-0.20013689
  0
VERTEX
  5
35f
  8
Layer_9
  10
64.527222
  20
83.290245
  42
-0.2001401
  0
VERTEX
  5
360
  8
Layer_9
  10
61.674133
  20
82.132584
  0
VERTEX
  5
361
  8
Layer_9
  10
50.356873
  20
82.241402
  42
-0.19901875
  0
VERTEX
  5
362
  8
Layer_9
  10
47.538635
  20
83.44133
  42
-0.19902889
  0
VERTEX
  5
363
  8
Layer_9
  10
46.395569
  20
86.283089
  0
VERTEX
  5
364
  8
Layer_9
  10
46.387939
  20
85.558144
  0
VERTEX
  5
365
  8
Layer_9
  10
46.339661
  20
125.79906
  0
VERTEX
  5
366
  8
Layer_9
  10
23.590271
  20
125.69701
  0
VERTEX
  5
367
  8
Layer_9
  10
22.210754
  20
125.69081
  42
-0.40890614
  0
VERTEX
  5
368
  8
Layer_9
  10
17.691711
  20
130.08894
  0
VERTEX
  5
369
  8
Layer_9
  10
17.564331
  20
135.71588
  0
VERTEX
  5
36a
  8
Layer_9
  10
17.724976
  20
141.342
  42
-0.40891504
  0
VERTEX
  5
36b
  8
Layer_9
  10
22.269836
  20
145.71338
  0
VERTEX
  5
36c
  8
Layer_9
  10
23.649231
  20
145.69905
  0
VERTEX
  5
36d
  8
Layer_9
  10
46.397583
  20
145.46281
  0
VERTEX
  5
36e
  8
Layer_9
  10
46.683289
  20
185.70274
  0
VERTEX
  5
36f
  8
Layer_9
  10
46.686584
  20
184.97777
  42
-0.19902159
  0
VERTEX
  5
370
  8
Layer_9
  10
47.846436
  20
187.81273
  42
-0.19902286
  0
VERTEX
  5
371
  8
Layer_9
  10
50.671753
  20
188.99603
  0
VERTEX
  5
372
  8
Layer_9
  10
61.989441
  20
189.0381
  42
-0.20014822
  0
VERTEX
  5
373
  8
Layer_9
  10
64.835632
  20
187.86362
  42
-0.20015147
  0
VERTEX
  5
374
  8
Layer_9
  10
66.00415
  20
185.01495
  0
VERTEX
  5
375
  8
Layer_9
  10
66.000793
  20
184.43417
  0
VERTEX
  5
376
  8
Layer_9
  10
66.055176
  20
144.83771
  0
SEQEND
  0
POLYLINE
  5
378
  8
Layer_9
  62
172
  66
1
  10
0
  20
0
  30
0
  0
VERTEX
  5
378
  8
Layer_9
  10
118.94116
  20
86.568901
  42
0.040661264
  0
VERTEX
  5
379
  8
Layer_9
  10
117.21936
  20
85.730949
  42
0.1817952
  0
VERTEX
  5
37a
  8
Layer_9
  10
114.97906
  20
83.134521
  0
VERTEX
  5
37b
  8
Layer_9
  10
114.95325
  20
83.05941
  0
VERTEX
  5
37c
  8
Layer_9
  10
114.8548
  20
71.209579
  42
0.20023433
  0
VERTEX
  5
37d
  8
Layer_9
  10
116.16248
  20
68.000412
  42
0.20023561
  0
VERTEX
  5
37e
  8
Layer_9
  10
119.36328
  20
66.672195
  0
VERTEX
  5
37f
  8
Layer_9
  10
129.43018
  20
66.691406
  0
VERTEX
  5
380
  8
Layer_9
  10
129.4408
  20
61.174225
  42
0.40975175
  0
VERTEX
  5
381
  8
Layer_9
  10
138.32043
  20
52.192196
  0
VERTEX
  5
382
  8
Layer_9
  10
139.25323
  20
52.179733
  0
SEQEND
  0
POLYLINE
  5
384
  8
Layer_9
  62
172
  66
1
  10
0
  20
0
  30
0
  0
VERTEX
  5
384
  8
Layer_9
  10
139.36456
  20
52.174385
  0
VERTEX
  5
385
  8
Layer_9
  10
140.47955
  20
52.197479
  42
0.4074414
  0
VERTEX
  5
386
  8
Layer_9
  10
149.29309
  20
61.173355
  0
VERTEX
  5
387
  8
Layer_9
  10
149.30695
  20
66.812439
  0
VERTEX
  5
388
  8
Layer_9
  10
163.20239
  20
66.77816
  0
VERTEX
  5
389
  8
Layer_9
  10
163.24316
  20
57.197838
  0
VERTEX
  5
38a
  8
Layer_9
  10
173.60968
  20
57.241982
  0
VERTEX
  5
38b
  8
Layer_9
  10
173.66888
  20
51.504936
  42
0.20031872
  0
VERTEX
  5
38c
  8
Layer_9
  10
176.40527
  20
45.13456
  42
0.2003184
  0
VERTEX
  5
38d
  8
Layer_9
  10
182.85852
  20
42.5998
  0
VERTEX
  5
38e
  8
Layer_9
  10
184.18506
  20
42.627834
  0
VERTEX
  5
38f
  8
Layer_9
  10
183.91785
  20
42.626698
  42
0.41421155
  0
VERTEX
  5
390
  8
Layer_9
  10
192.87946
  20
51.664928
  0
VERTEX
  5
391
  8
Layer_9
  10
192.85748
  20
56.815956
  0
VERTEX
  5
392
  8
Layer_9
  10
219.82123
  20
56.76873
  0
VERTEX
  5
393
  8
Layer_9
  10
219.81122
  20
51.087776
  42
0.40898888
  0
VERTEX
  5
394
  8
Layer_9
  10
228.63458
  20
42.07375
  0
VERTEX
  5
395
  8
Layer_9
  10
229.95398
  20
42.047859
  0
VERTEX
  5
396
  8
Layer_9
  10
229.49603
  20
42.0494
  42
0.19912189
  0
VERTEX
  5
397
  8
Layer_9
  10
236.58258
  20
44.960201
  42
0.19912046
  0
VERTEX
  5
398
  8
Layer_9
  10
239.52966
  20
52.031822
  0
VERTEX
  5
399
  8
Layer_9
  10
239.53802
  20
56.802338
  0
VERTEX
  5
39a
  8
Layer_9
  10
252.13489
  20
56.707336
  0
VERTEX
  5
39b
  8
Layer_9
  10
251.52008
  20
115.08207
  0
SEQEND
  0
POLYLINE
  5
39d
  8
Layer_9
  62
172
  66
1
  10
0
  20
0
  30
0
  0
VERTEX
  5
39d
  8
Layer_9
  10
251.83795
  20
84.895554
  42
0.0079671141
  0
VERTEX
  5
39e
  8
Layer_9
  10
252.11682
  20
84.485466
  42
0.08108037
  0
VERTEX
  5
39f
  8
Layer_9
  10
254.49341
  20
81.947685
  0
VERTEX
  5
3a0
  8
Layer_9
  10
254.55212
  20
81.907852
  0
VERTEX
  5
3a1
  8
Layer_9
  10
254.61066
  20
81.869568
  42
0.20344401
  0
VERTEX
  5
3a2
  8
Layer_9
  10
256.07208
  20
81.502098
  0
VERTEX
  5
3a3
  8
Layer_9
  10
256.12097
  20
81.513985
  0
VERTEX
  5
3a4
  8
Layer_9
  10
256.16949
  20
81.527679
  0
VERTEX
  5
3a5
  8
Layer_9
  10
267.17615
  20
81.643585
  42
0.41420951
  0
VERTEX
  5
3a6
  8
Layer_9
  10
271.13373
  20
85.685486
  0
VERTEX
  5
3a7
  8
Layer_9
  10
271.92108
  20
182.50003
  42
0.20271144
  0
VERTEX
  5
3a8
  8
Layer_9
  10
270.13647
  20
186.81874
  42
0.20270865
  0
VERTEX
  5
3a9
  8
Layer_9
  10
265.79504
  20
188.5475
  0
VERTEX
  5
3aa
  8
Layer_9
  10
255.28821
  20
188.41571
  0
VERTEX
  5
3ab
  8
Layer_9
  10
255.20276
  20
188.40883
  0
VERTEX
  5
3ac
  8
Layer_9
  10
255.1181
  20
188.40024
  0
VERTEX
  5
3ad
  8
Layer_9
  10
255.03442
  20
188.38994
  42
0.26120391
  0
VERTEX
  5
3ae
  8
Layer_9
  10
252.56177
  20
186.58293
  42
0.058819786
  0
VERTEX
  5
3af
  8
Layer_9
  10
251.84705
  20
184.64035
  0
VERTEX
  5
3b0
  8
Layer_9
  10
251.92316
  20
154.60977
  0
SEQEND
  0
POLYLINE
  5
3b2
  8
Layer_9
  62
172
  66
1
  10
0
  20
0
  30
0
  0
VERTEX
  5
3b2
  8
Layer_9
  10
251.84705
  20
184.64035
  0
VERTEX
  5
3b3
  8
Layer_9
  10
251.78015
  20
213.28995
  0
VERTEX
  5
3b4
  8
Layer_9
  10
163.88184
  20
213.75966
  0
VERTEX
  5
3b5
  8
Layer_9
  10
163.5592
  20
203.29382
  0
VERTEX
  5
3b6
  8
Layer_9
  10
154.42035
  20
203.57552
  42
0.41342578
  0
VERTEX
  5
3b7
  8
Layer_9
  10
149.78418
  20
199.22839
  0
VERTEX
  5
3b8
  8
Layer_9
  10
149.41315
  20
188.15585
  42
0.20329453
  0
VERTEX
  5
3b9
  8
Layer_9
  10
150.53558
  20
185.24104
  42
0.2032758
  0
VERTEX
  5
3ba
  8
Layer_9
  10
153.41125
  20
184.02185
  0
VERTEX
  5
3bb
  8
Layer_9
  10
163.25
  20
184.02292
  0
VERTEX
  5
3bc
  8
Layer_9
  10
163.88275
  20
184.02248
  0
VERTEX
  5
3bd
  8
Layer_9
  10
163.86279
  20
155.26979
  0
VERTEX
  5
3be
  8
Layer_9
  10
153.03137
  20
144.8951
  0
SEQEND
  0
POLYLINE
  5
3c0
  8
Layer_9
  62
172
  66
1
  10
0
  20
0
  30
0
  0
VERTEX
  5
3c0
  8
Layer_9
  10
153.21576
  20
184.02663
  0
VERTEX
  5
3c1
  8
Layer_9
  10
149.27454
  20
184.02142
  0
VERTEX
  5
3c2
  8
Layer_9
  10
149.17944
  20
190.03593
  42
0.41210761
  0
VERTEX
  5
3c3
  8
Layer_9
  10
140.10303
  20
198.8933
  0
VERTEX
  5
3c4
  8
Layer_9
  10
138.4657
  20
198.8792
  42
0.41300572
  0
VERTEX
  5
3c5
  8
Layer_9
  10
129.54333
  20
189.8391
  0
VERTEX
  5
3c6
  8
Layer_9
  10
129.56891
  20
184.1532
  0
VERTEX
  5
3c7
  8
Layer_9
  10
112.79907
  20
184.27397
  0
VERTEX
  5
3c8
  8
Layer_9
  10
112.74335
  20
190.13887
  42
0.41421266
  0
VERTEX
  5
3c9
  8
Layer_9
  10
103.6582
  20
199.0529
  0
VERTEX
  5
3ca
  8
Layer_9
  10
102.35498
  20
199.04053
  42
0.19950228
  0
VERTEX
  5
3cb
  8
Layer_9
  10
96.002014
  20
196.32944
  42
0.19950577
  0
VERTEX
  5
3cc
  8
Layer_9
  10
93.441406
  20
189.91428
  0
VERTEX
  5
3cd
  8
Layer_9
  10
93.520813
  20
184.27478
  0
VERTEX
  5
3ce
  8
Layer_9
  10
66.000793
  20
184.43417
  0
SEQEND
  0
POLYLINE
  5
3d0
  8
Layer_9
  62
172
  66
1
  10
0
  20
0
  30
0
  0
VERTEX
  5
3d0
  8
Layer_9
  10
85.475342
  20
167.27525
  0
VERTEX
  5
3d1
  8
Layer_9
  10
79.401794
  20
169.77933
  0
VERTEX
  5
3d2
  8
Layer_9
  10
79.296631
  20
179.60561
  0
VERTEX
  5
3d3
  8
Layer_9
  10
85.348389
  20
181.56792
  0
SEQEND
  0
POLYLINE
  5
3d5
  8
Layer_9
  62
172
  66
1
  10
0
  20
0
  30
0
  0
VERTEX
  5
3d5
  8
Layer_9
  10
81.228455
  20
177.64902
  42
-0.14454364
  0
VERTEX
  5
3d6
  8
Layer_9
  10
83.477295
  20
177.47636
  0
VERTEX
  5
3d7
  8
Layer_9
  10
83.538574
  20
177.44847
  0
VERTEX
  5
3d8
  8
Layer_9
  10
83.598694
  20
177.41914
  42
-0.22785216
  0
VERTEX
  5
3d9
  8
Layer_9
  10
84.984253
  20
175.49612
  42
-0.1985513
  0
VERTEX
  5
3da
  8
Layer_9
  10
84.494446
  20
172.29457
  42
-0.24288525
  0
VERTEX
  5
3db
  8
Layer_9
  10
82.244873
  20
171.1076
  42
-0.040043961
  0
VERTEX
  5
3dc
  8
Layer_9
  10
81.399292
  20
171.12639
  0
SEQEND
  0
POLYLINE
  5
3de
  8
Layer_9
  62
172
  66
1
  10
0
  20
0
  30
0
  0
VERTEX
  5
3de
  8
Layer_9
  10
148.57239
  20
164.25645
  0
VERTEX
  5
3df
  8
Layer_9
  10
129.49695
  20
164.09221
  0
SEQEND
  0
POLYLINE
  5
3e1
  8
Layer_9
  62
172
  66
1
  10
0
  20
0
  30
0
  0
VERTEX
  5
3e1
  8
Layer_9
  10
139.83881
  20
164.18126
  0
VERTEX
  5
3e2
  8
Layer_9
  10
139.78442
  20
170.50305
  0
SEQEND
  0
POLYLINE
  5
3e4
  8
Layer_9
  62
172
  66
1
  10
0
  20
0
  30
0
  0
VERTEX
  5
3e4
  8
Layer_9
  10
166.93744
  20
174.49355
  0
VERTEX
  5
3e5
  8
Layer_9
  10
170.64063
  20
174.52544
  0
SEQEND
  0
POLYLINE
  5
3e7
  8
Layer_9
  62
172
  66
1
  10
0
  20
0
  30
0
  0
VERTEX
  5
3e7
  8
Layer_9
  10
173.9928
  20
174.3847
  0
VERTEX
  5
3e8
  8
Layer_9
  10
193.94385
  20
174.55647
  0
SEQEND
  0
POLYLINE
  5
3ea
  8
Layer_9
  62
172
  66
1
  10
0
  20
0
  30
0
  0
VERTEX
  5
3ea
  8
Layer_9
  10
183.83704
  20
180.71153
  0
VERTEX
  5
3eb
  8
Layer_9
  10
183.89081
  20
174.46992
  0
SEQEND
  0
POLYLINE
  5
3ed
  8
Layer_9
  62
172
  66
1
  10
0
  20
0
  30
0
  0
VERTEX
  5
3ed
  8
Layer_9
  10
197.85492
  20
174.22787
  0
VERTEX
  5
3ee
  8
Layer_9
  10
200.8548
  20
174.25371
  0
SEQEND
  0
POLYLINE
  5
3f0
  8
Layer_9
  62
172
  66
1
  10
0
  20
0
  30
0
  0
VERTEX
  5
3f0
  8
Layer_9
  10
208.19763
  20
174.33339
  0
VERTEX
  5
3f1
  8
Layer_9
  10
211.909
  20
174.33437
  0
SEQEND
  0
POLYLINE
  5
3f3
  8
Layer_9
  62
172
  66
1
  10
0
  20
0
  30
0
  0
VERTEX
  5
3f3
  8
Layer_9
  10
218.64233
  20
174.30832
  0
VERTEX
  5
3f4
  8
Layer_9
  10
222.37378
  20
174.32048
  0
SEQEND
  0
POLYLINE
  5
3f6
  8
Layer_9
  62
172
  66
1
  10
0
  20
0
  30
0
  0
VERTEX
  5
3f6
  8
Layer_9
  10
229.26929
  20
174.16275
  0
VERTEX
  5
3f7
  8
Layer_9
  10
233.65448
  20
174.2005
  0
SEQEND
  0
POLYLINE
  5
3f9
  8
Layer_9
  62
172
  66
1
  10
0
  20
0
  30
0
  0
VERTEX
  5
3f9
  8
Layer_9
  10
239.69928
  20
174.01654
  0
VERTEX
  5
3fa
  8
Layer_9
  10
243.62604
  20
174.05196
  0
SEQEND
  0
POLYLINE
  5
3fc
  8
Layer_9
  62
172
  66
1
  10
0
  20
0
  30
0
  0
VERTEX
  5
3fc
  8
Layer_9
  10
247.9361
  20
174.00549
  0
VERTEX
  5
3fd
  8
Layer_9
  10
250.01996
  20
173.95967
  0
SEQEND
  0
POLYLINE
  5
3ff
  8
Layer_9
  62
172
  66
1
  10
0
  20
0
  30
0
  0
VERTEX
  5
3ff
  8
Layer_9
  10
46.289917
  20
141.3243
  0
VERTEX
  5
400
  8
Layer_9
  10
46.264404
  20
137.28029
  0
SEQEND
  0
POLYLINE
  5
402
  8
Layer_9
  62
172
  66
1
  10
0
  20
0
  30
0
  0
VERTEX
  5
402
  8
Layer_9
  10
51.320435
  20
145.42924
  0
VERTEX
  5
403
  8
Layer_9
  10
53.320374
  20
145.44647
  0
SEQEND
  0
POLYLINE
  5
405
  8
Layer_9
  62
172
  66
1
  10
0
  20
0
  30
0
  0
VERTEX
  5
405
  8
Layer_9
  10
57.765625
  20
145.33502
  0
VERTEX
  5
406
  8
Layer_9
  10
61.739136
  20
145.24596
  0
SEQEND
  0
POLYLINE
  5
408
  8
Layer_9
  62
172
  66
1
  10
0
  20
0
  30
0
  0
VERTEX
  5
408
  8
Layer_9
  10
66.005127
  20
141.15475
  0
VERTEX
  5
409
  8
Layer_9
  10
65.992493
  20
136.85175
  0
SEQEND
  0
POLYLINE
  5
40b
  8
Layer_9
  62
172
  66
1
  10
0
  20
0
  30
0
  0
VERTEX
  5
40b
  8
Layer_9
  10
71.965271
  20
145.47881
  0
VERTEX
  5
40c
  8
Layer_9
  10
75.986084
  20
145.46667
  0
SEQEND
  0
POLYLINE
  5
40e
  8
Layer_9
  62
172
  66
1
  10
0
  20
0
  30
0
  0
VERTEX
  5
40e
  8
Layer_9
  10
93.190247
  20
145.21149
  0
VERTEX
  5
40f
  8
Layer_9
  10
96.987183
  20
145.18785
  0
SEQEND
  0
POLYLINE
  5
411
  8
Layer_9
  62
172
  66
1
  10
0
  20
0
  30
0
  0
VERTEX
  5
411
  8
Layer_9
  10
103.66547
  20
145.0256
  0
VERTEX
  5
412
  8
Layer_9
  10
107.52277
  20
144.91756
  0
SEQEND
  0
POLYLINE
  5
414
  8
Layer_9
  62
172
  66
1
  10
0
  20
0
  30
0
  0
VERTEX
  5
414
  8
Layer_9
  10
114.32123
  20
144.90279
  0
VERTEX
  5
415
  8
Layer_9
  10
118.31049
  20
144.95764
  0
SEQEND
  0
POLYLINE
  5
417
  8
Layer_9
  62
172
  66
1
  10
0
  20
0
  30
0
  0
VERTEX
  5
417
  8
Layer_9
  10
124.69281
  20
145.01704
  0
VERTEX
  5
418
  8
Layer_9
  10
128.66388
  20
144.94466
  0
SEQEND
  0
POLYLINE
  5
41a
  8
Layer_9
  62
172
  66
1
  10
0
  20
0
  30
0
  0
VERTEX
  5
41a
  8
Layer_9
  10
133.24396
  20
144.92065
  0
VERTEX
  5
41b
  8
Layer_9
  10
136.88586
  20
144.95201
  0
SEQEND
  0
POLYLINE
  5
41d
  8
Layer_9
  62
172
  66
1
  10
0
  20
0
  30
0
  0
VERTEX
  5
41d
  8
Layer_9
  10
144.99402
  20
144.92357
  0
VERTEX
  5
41e
  8
Layer_9
  10
148.72009
  20
144.95564
  0
SEQEND
  0
POLYLINE
  5
420
  8
Layer_9
  62
172
  66
1
  10
0
  20
0
  30
0
  0
VERTEX
  5
420
  8
Layer_9
  10
68.232605
  20
164.61012
  0
VERTEX
  5
421
  8
Layer_9
  10
70.490173
  20
164.62956
  0
SEQEND
  0
POLYLINE
  5
423
  8
Layer_9
  62
172
  66
1
  10
0
  20
0
  30
0
  0
VERTEX
  5
423
  8
Layer_9
  10
74.70282
  20
164.47174
  0
VERTEX
  5
424
  8
Layer_9
  10
78.866638
  20
164.53218
  0
SEQEND
  0
POLYLINE
  5
426
  8
Layer_9
  62
172
  66
1
  10
0
  20
0
  30
0
  0
VERTEX
  5
426
  8
Layer_9
  10
85.062073
  20
164.4296
  0
VERTEX
  5
427
  8
Layer_9
  10
89.637573
  20
164.47881
  0
SEQEND
  0
POLYLINE
  5
429
  8
Layer_9
  62
172
  66
1
  10
0
  20
0
  30
0
  0
VERTEX
  5
429
  8
Layer_9
  10
95.68457
  20
164.3428
  0
VERTEX
  5
42a
  8
Layer_9
  10
100.09393
  20
164.46002
  0
SEQEND
  0
POLYLINE
  5
42c
  8
Layer_9
  62
172
  66
1
  10
0
  20
0
  30
0
  0
VERTEX
  5
42c
  8
Layer_9
  10
116.75055
  20
164.26796
  0
VERTEX
  5
42d
  8
Layer_9
  10
121.29187
  20
164.36937
  0
SEQEND
  0
POLYLINE
  5
42f
  8
Layer_9
  62
172
  66
1
  10
0
  20
0
  30
0
  0
VERTEX
  5
42f
  8
Layer_9
  10
155.52209
  20
164.27664
  0
VERTEX
  5
430
  8
Layer_9
  10
160.00696
  20
164.29701
  0
SEQEND
  0
POLYLINE
  5
432
  8
Layer_9
  62
172
  66
1
  10
0
  20
0
  30
0
  0
VERTEX
  5
432
  8
Layer_9
  10
96.824036
  20
184.04218
  0
VERTEX
  5
433
  8
Layer_9
  10
101.13116
  20
184.07927
  0
SEQEND
  0
POLYLINE
  5
435
  8
Layer_9
  62
172
  66
1
  10
0
  20
0
  30
0
  0
VERTEX
  5
435
  8
Layer_9
  10
105.33081
  20
184.14095
  0
VERTEX
  5
436
  8
Layer_9
  10
109.67242
  20
184.17833
  0
SEQEND
  0
POLYLINE
  5
438
  8
Layer_9
  62
172
  66
1
  10
0
  20
0
  30
0
  0
VERTEX
  5
438
  8
Layer_9
  10
132.83197
  20
183.95584
  0
VERTEX
  5
439
  8
Layer_9
  10
137.63684
  20
183.99721
  0
SEQEND
  0
POLYLINE
  5
43b
  8
Layer_9
  62
172
  66
1
  10
0
  20
0
  30
0
  0
VERTEX
  5
43b
  8
Layer_9
  10
141.7251
  20
183.92464
  0
VERTEX
  5
43c
  8
Layer_9
  10
146.02655
  20
183.96167
  0
SEQEND
  0
POLYLINE
  5
43e
  8
Layer_9
  62
172
  66
1
  10
0
  20
0
  30
0
  0
VERTEX
  5
43e
  8
Layer_9
  10
132.88116
  20
66.611649
  0
VERTEX
  5
43f
  8
Layer_9
  10
137.44806
  20
66.661057
  0
SEQEND
  0
POLYLINE
  5
441
  8
Layer_9
  62
172
  66
1
  10
0
  20
0
  30
0
  0
VERTEX
  5
441
  8
Layer_9
  10
141.37921
  20
66.720123
  0
VERTEX
  5
442
  8
Layer_9
  10
145.85199
  20
66.758629
  0
SEQEND
  0
POLYLINE
  5
444
  8
Layer_9
  62
172
  66
1
  10
0
  20
0
  30
0
  0
VERTEX
  5
444
  8
Layer_9
  10
177.27545
  20
56.975262
  0
VERTEX
  5
445
  8
Layer_9
  10
181.36426
  20
57.010464
  0
SEQEND
  0
POLYLINE
  5
447
  8
Layer_9
  62
172
  66
1
  10
0
  20
0
  30
0
  0
VERTEX
  5
447
  8
Layer_9
  10
185.80219
  20
56.968773
  0
VERTEX
  5
448
  8
Layer_9
  10
190.20892
  20
57.006718
  0
SEQEND
  0
POLYLINE
  5
44a
  8
Layer_9
  62
172
  66
1
  10
0
  20
0
  30
0
  0
VERTEX
  5
44a
  8
Layer_9
  10
223.35406
  20
56.723457
  0
VERTEX
  5
44b
  8
Layer_9
  10
228.42462
  20
56.767117
  0
SEQEND
  0
POLYLINE
  5
44d
  8
Layer_9
  62
172
  66
1
  10
0
  20
0
  30
0
  0
VERTEX
  5
44d
  8
Layer_9
  10
232.05121
  20
56.903034
  0
VERTEX
  5
44e
  8
Layer_9
  10
236.44287
  20
56.932026
  0
SEQEND
  0
POLYLINE
  5
450
  8
Layer_9
  62
172
  66
1
  10
0
  20
0
  30
0
  0
VERTEX
  5
450
  8
Layer_9
  10
251.65558
  20
148.54359
  0
VERTEX
  5
451
  8
Layer_9
  10
251.74194
  20
143.74872
  0
SEQEND
  0
POLYLINE
  5
453
  8
Layer_9
  62
172
  66
1
  10
0
  20
0
  30
0
  0
VERTEX
  5
453
  8
Layer_9
  10
246.86603
  20
154.48367
  0
VERTEX
  5
454
  8
Layer_9
  10
249.85632
  20
154.50674
  0
SEQEND
  0
POLYLINE
  5
456
  8
Layer_9
  62
172
  66
1
  10
0
  20
0
  30
0
  0
VERTEX
  5
456
  8
Layer_9
  10
207.25421
  20
154.68102
  0
VERTEX
  5
457
  8
Layer_9
  10
211.45221
  20
154.71716
  0
SEQEND
  0
POLYLINE
  5
459
  8
Layer_9
  62
172
  66
1
  10
0
  20
0
  30
0
  0
VERTEX
  5
459
  8
Layer_9
  10
186.22113
  20
154.72672
  0
VERTEX
  5
45a
  8
Layer_9
  10
190.46619
  20
154.72189
  0
SEQEND
  0
POLYLINE
  5
45c
  8
Layer_9
  62
172
  66
1
  10
0
  20
0
  30
0
  0
VERTEX
  5
45c
  8
Layer_9
  10
228.36353
  20
154.55679
  0
VERTEX
  5
45d
  8
Layer_9
  10
232.78033
  20
154.59483
  0
SEQEND
  0
POLYLINE
  5
45f
  8
Layer_9
  62
172
  66
1
  10
0
  20
0
  30
0
  0
VERTEX
  5
45f
  8
Layer_9
  10
217.6991
  20
154.60109
  0
VERTEX
  5
460
  8
Layer_9
  10
222.11597
  20
154.59473
  0
SEQEND
  0
POLYLINE
  5
462
  8
Layer_9
  62
172
  66
1
  10
0
  20
0
  30
0
  0
VERTEX
  5
462
  8
Layer_9
  10
238.84448
  20
154.54796
  0
VERTEX
  5
463
  8
Layer_9
  10
242.93719
  20
154.58319
  0
SEQEND
  0
POLYLINE
  5
465
  8
Layer_9
  62
172
  66
1
  10
0
  20
0
  30
0
  0
VERTEX
  5
465
  8
Layer_9
  10
177.8186
  20
154.72101
  0
VERTEX
  5
466
  8
Layer_9
  10
181.93201
  20
154.75642
  0
SEQEND
  0
POLYLINE
  5
468
  8
Layer_9
  62
172
  66
1
  10
0
  20
0
  30
0
  0
VERTEX
  5
468
  8
Layer_9
  10
196.74731
  20
154.6093
  0
VERTEX
  5
469
  8
Layer_9
  10
200.83917
  20
154.60335
  0
SEQEND
  0
POLYLINE
  5
46b
  8
Layer_9
  62
172
  66
1
  10
0
  20
0
  30
0
  0
VERTEX
  5
46b
  8
Layer_9
  10
165.99084
  20
154.8177
  0
VERTEX
  5
46c
  8
Layer_9
  10
170.30115
  20
154.85481
  0
SEQEND
  0
POLYLINE
  5
46e
  8
Layer_9
  62
172
  66
1
  10
0
  20
0
  30
0
  0
VERTEX
  5
46e
  8
Layer_9
  10
256.07996
  20
154.22781
  0
VERTEX
  5
46f
  8
Layer_9
  10
260.58643
  20
154.26662
  0
SEQEND
  0
POLYLINE
  5
471
  8
Layer_9
  62
172
  66
1
  10
0
  20
0
  30
0
  0
VERTEX
  5
471
  8
Layer_9
  10
264.51263
  20
154.22371
  0
VERTEX
  5
472
  8
Layer_9
  10
267.29974
  20
154.17729
  0
SEQEND
  0
POLYLINE
  5
474
  8
Layer_9
  62
172
  66
1
  10
0
  20
0
  30
0
  0
VERTEX
  5
474
  8
Layer_9
  10
66.058716
  20
86.67215
  0
VERTEX
  5
475
  8
Layer_9
  10
66.06012
  20
86.67215
  0
SEQEND
  0
POLYLINE
  5
477
  8
Layer_9
  62
172
  66
1
  10
0
  20
0
  30
0
  0
VERTEX
  5
477
  8
Layer_9
  10
103.59314
  20
125.73351
  0
VERTEX
  5
478
  8
Layer_9
  10
103.5899
  20
125.70041
  0
SEQEND
  0
POLYLINE
  5
47a
  8
Layer_9
  62
172
  66
1
  10
0
  20
0
  30
0
  0
VERTEX
  5
47a
  8
Layer_9
  10
103.60901
  20
125.89847
  0
VERTEX
  5
47b
  8
Layer_9
  10
107.46692
  20
125.98378
  0
SEQEND
  0
POLYLINE
  5
47d
  8
Layer_9
  62
172
  66
1
  10
0
  20
0
  30
0
  0
VERTEX
  5
47d
  8
Layer_9
  10
27.142212
  20
130.9491
  0
VERTEX
  5
47e
  8
Layer_9
  10
32.892944
  20
130.90805
  42
0.41421027
  0
VERTEX
  5
47f
  8
Layer_9
  10
37.928528
  20
135.87222
  0
VERTEX
  5
480
  8
Layer_9
  10
37.926514
  20
135.58278
  0
SEQEND
  0
POLYLINE
  5
482
  8
Layer_9
  62
172
  66
1
  10
0
  20
0
  30
0
  0
VERTEX
  5
482
  8
Layer_9
  10
92.825806
  20
125.74028
  0
VERTEX
  5
483
  8
Layer_9
  10
96.929932
  20
125.7756
  0
SEQEND
  0
POLYLINE
  5
485
  8
Layer_9
  62
172
  66
1
  10
0
  20
0
  30
0
  0
VERTEX
  5
485
  8
Layer_9
  10
65.712646
  20
86.712761
  0
VERTEX
  5
486
  8
Layer_9
  10
93.233032
  20
86.709824
  0
VERTEX
  5
487
  8
Layer_9
  10
112.51105
  20
86.596901
  0
VERTEX
  5
488
  8
Layer_9
  10
129.28119
  20
86.618767
  0
VERTEX
  5
489
  8
Layer_9
  10
153.12402
  20
86.609467
  0
VERTEX
  5
48a
  8
Layer_9
  10
162.96259
  20
86.550377
  0
VERTEX
  5
48b
  8
Layer_9
  10
163.59528
  20
86.547081
  0
VERTEX
  5
48c
  8
Layer_9
  10
163.74487
  20
115.29939
  0
VERTEX
  5
48d
  8
Layer_9
  10
163.40417
  20
115.66526
  0
SEQEND
  0
POLYLINE
  5
48f
  8
Layer_9
  62
172
  66
1
  10
0
  20
0
  30
0
  0
VERTEX
  5
48f
  8
Layer_9
  10
163.23376
  20
115.84821
  0
VERTEX
  5
490
  8
Layer_9
  10
162.89294
  20
116.21407
  0
SEQEND
  0
POLYLINE
  5
492
  8
Layer_9
  62
172
  66
1
  10
0
  20
0
  30
0
  0
VERTEX
  5
492
  8
Layer_9
  10
162.72253
  20
116.39701
  0
VERTEX
  5
493
  8
Layer_9
  10
162.53296
  20
116.60057
  0
SEQEND
  0
POLYLINE
  5
495
  8
Layer_9
  62
172
  66
1
  10
0
  20
0
  30
0
  0
VERTEX
  5
495
  8
Layer_9
  10
124.63586
  20
125.80296
  0
VERTEX
  5
496
  8
Layer_9
  10
124.63629
  20
125.76303
  0
SEQEND
  0
POLYLINE
  5
498
  8
Layer_9
  62
172
  66
1
  10
0
  20
0
  30
0
  0
VERTEX
  5
498
  8
Layer_9
  10
84.891479
  20
106.60456
  0
VERTEX
  5
499
  8
Layer_9
  10
89.466736
  20
106.52834
  0
SEQEND
  0
POLYLINE
  5
49b
  8
Layer_9
  62
172
  66
1
  10
0
  20
0
  30
0
  0
VERTEX
  5
49b
  8
Layer_9
  10
68.06134
  20
106.52329
  0
VERTEX
  5
49c
  8
Layer_9
  10
70.318665
  20
106.49055
  0
SEQEND
  0
POLYLINE
  5
49e
  8
Layer_9
  62
172
  66
1
  10
0
  20
0
  30
0
  0
VERTEX
  5
49e
  8
Layer_9
  10
152.97485
  20
125.73778
  0
VERTEX
  5
49f
  8
Layer_9
  10
163.74487
  20
115.29939
  0
SEQEND
  0
POLYLINE
  5
4a1
  8
Layer_9
  62
172
  66
1
  10
0
  20
0
  30
0
  0
VERTEX
  5
4a1
  8
Layer_9
  10
148.40186
  20
106.40308
  0
VERTEX
  5
4a2
  8
Layer_9
  10
129.32764
  20
106.67982
  0
SEQEND
  0
POLYLINE
  5
4a4
  8
Layer_9
  62
172
  66
1
  10
0
  20
0
  30
0
  0
VERTEX
  5
4a4
  8
Layer_9
  10
95.514404
  20
106.62867
  0
VERTEX
  5
4a5
  8
Layer_9
  10
99.922852
  20
106.48545
  0
SEQEND
  0
POLYLINE
  5
4a7
  8
Layer_9
  62
172
  66
1
  10
0
  20
0
  30
0
  0
VERTEX
  5
4a7
  8
Layer_9
  10
107.49774
  20
125.86566
  0
VERTEX
  5
4a8
  8
Layer_9
  10
107.43616
  20
126.10187
  0
SEQEND
  0
POLYLINE
  5
4aa
  8
Layer_9
  62
172
  66
1
  10
0
  20
0
  30
0
  0
VERTEX
  5
4aa
  8
Layer_9
  10
144.93158
  20
125.77956
  0
VERTEX
  5
4ab
  8
Layer_9
  10
144.94336
  20
125.73392
  0
SEQEND
  0
POLYLINE
  5
4ad
  8
Layer_9
  62
172
  66
1
  10
0
  20
0
  30
0
  0
VERTEX
  5
4ad
  8
Layer_9
  10
124.63605
  20
125.783
  0
VERTEX
  5
4ae
  8
Layer_9
  10
128.60754
  20
125.83195
  0
SEQEND
  0
POLYLINE
  5
4b0
  8
Layer_9
  62
172
  66
1
  10
0
  20
0
  30
0
  0
VERTEX
  5
4b0
  8
Layer_9
  10
155.35126
  20
106.34189
  0
VERTEX
  5
4b1
  8
Layer_9
  10
159.83588
  20
106.29507
  0
SEQEND
  0
POLYLINE
  5
4b3
  8
Layer_9
  62
172
  66
1
  10
0
  20
0
  30
0
  0
VERTEX
  5
4b3
  8
Layer_9
  10
133.18762
  20
125.82895
  0
VERTEX
  5
4b4
  8
Layer_9
  10
136.82928
  20
125.77611
  0
SEQEND
  0
POLYLINE
  5
4b6
  8
Layer_9
  62
172
  66
1
  10
0
  20
0
  30
0
  0
VERTEX
  5
4b6
  8
Layer_9
  10
139.66876
  20
106.52979
  0
VERTEX
  5
4b7
  8
Layer_9
  10
139.57709
  20
100.20842
  0
SEQEND
  0
POLYLINE
  5
4b9
  8
Layer_9
  62
172
  66
1
  10
0
  20
0
  30
0
  0
VERTEX
  5
4b9
  8
Layer_9
  10
144.9375
  20
125.75674
  0
VERTEX
  5
4ba
  8
Layer_9
  10
148.66333
  20
125.70268
  0
SEQEND
  0
POLYLINE
  5
4bc
  8
Layer_9
  62
172
  66
1
  10
0
  20
0
  30
0
  0
VERTEX
  5
4bc
  8
Layer_9
  10
27.635925
  20
131.0188
  0
VERTEX
  5
4bd
  8
Layer_9
  10
27.152466
  20
130.95053
  0
SEQEND
  0
POLYLINE
  5
4bf
  8
Layer_9
  62
172
  66
1
  10
0
  20
0
  30
0
  0
VERTEX
  5
4bf
  8
Layer_9
  10
74.532288
  20
106.6235
  0
VERTEX
  5
4c0
  8
Layer_9
  10
78.695557
  20
106.53851
  0
SEQEND
  0
POLYLINE
  5
4c2
  8
Layer_9
  62
172
  66
1
  10
0
  20
0
  30
0
  0
VERTEX
  5
4c2
  8
Layer_9
  10
65.972168
  20
129.99139
  0
VERTEX
  5
4c3
  8
Layer_9
  10
65.984924
  20
134.2944
  0
SEQEND
  0
POLYLINE
  5
4c5
  8
Layer_9
  62
172
  66
1
  10
0
  20
0
  30
0
  0
VERTEX
  5
4c5
  8
Layer_9
  10
71.906738
  20
125.63228
  0
VERTEX
  5
4c6
  8
Layer_9
  10
75.927612
  20
125.62068
  0
SEQEND
  0
POLYLINE
  5
4c8
  8
Layer_9
  62
172
  66
1
  10
0
  20
0
  30
0
  0
VERTEX
  5
4c8
  8
Layer_9
  10
82.844543
  20
125.62556
  0
VERTEX
  5
4c9
  8
Layer_9
  10
87.0979
  20
125.66219
  0
SEQEND
  0
POLYLINE
  5
4cb
  8
Layer_9
  62
172
  66
1
  10
0
  20
0
  30
0
  0
VERTEX
  5
4cb
  8
Layer_9
  10
51.262634
  20
125.80359
  0
VERTEX
  5
4cc
  8
Layer_9
  10
53.26239
  20
125.77457
  0
SEQEND
  0
POLYLINE
  5
4ce
  8
Layer_9
  62
172
  66
1
  10
0
  20
0
  30
0
  0
VERTEX
  5
4ce
  8
Layer_9
  10
57.708191
  20
125.85982
  0
VERTEX
  5
4cf
  8
Layer_9
  10
61.68219
  20
125.92542
  0
SEQEND
  0
POLYLINE
  5
4d1
  8
Layer_9
  62
172
  66
1
  10
0
  20
0
  30
0
  0
VERTEX
  5
4d1
  8
Layer_9
  10
46.256348
  20
129.93814
  0
VERTEX
  5
4d2
  8
Layer_9
  10
46.254761
  20
133.98224
  0
SEQEND
  0
POLYLINE
  5
4d4
  8
Layer_9
  62
172
  66
1
  10
0
  20
0
  30
0
  0
VERTEX
  5
4d4
  8
Layer_9
  10
61.682373
  20
125.90454
  0
VERTEX
  5
4d5
  8
Layer_9
  10
61.681946
  20
125.9463
  0
SEQEND
  0
POLYLINE
  5
4d7
  8
Layer_9
  62
172
  66
1
  10
0
  20
0
  30
0
  0
VERTEX
  5
4d7
  8
Layer_9
  10
116.58038
  20
106.57926
  0
VERTEX
  5
4d8
  8
Layer_9
  10
121.12109
  20
106.45107
  0
SEQEND
  0
POLYLINE
  5
4da
  8
Layer_9
  62
172
  66
1
  10
0
  20
0
  30
0
  0
VERTEX
  5
4da
  8
Layer_9
  10
80.335754
  20
96.366333
  0
VERTEX
  5
4db
  8
Layer_9
  10
90.835754
  20
96.36058
  0
SEQEND
  0
POLYLINE
  5
4dd
  8
Layer_9
  62
172
  66
1
  10
0
  20
0
  30
0
  0
VERTEX
  5
4dd
  8
Layer_9
  10
85.545898
  20
101.70927
  0
VERTEX
  5
4de
  8
Layer_9
  10
85.584229
  20
91.020683
  0
SEQEND
  0
POLYLINE
  5
4e0
  8
Layer_9
  62
172
  66
1
  10
0
  20
0
  30
0
  0
VERTEX
  5
4e0
  8
Layer_9
  10
177.70374
  20
115.76582
  0
VERTEX
  5
4e1
  8
Layer_9
  10
181.81677
  20
115.70615
  0
SEQEND
  0
POLYLINE
  5
4e3
  8
Layer_9
  62
172
  66
1
  10
0
  20
0
  30
0
  0
VERTEX
  5
4e3
  8
Layer_9
  10
207.13898
  20
115.63221
  0
VERTEX
  5
4e4
  8
Layer_9
  10
211.33679
  20
115.5713
  0
SEQEND
  0
POLYLINE
  5
4e6
  8
Layer_9
  62
172
  66
1
  10
0
  20
0
  30
0
  0
VERTEX
  5
4e6
  8
Layer_9
  10
186.10614
  20
115.71057
  0
VERTEX
  5
4e7
  8
Layer_9
  10
190.35114
  20
115.69036
  0
SEQEND
  0
POLYLINE
  5
4e9
  8
Layer_9
  62
172
  66
1
  10
0
  20
0
  30
0
  0
VERTEX
  5
4e9
  8
Layer_9
  10
228.24866
  20
115.6319
  0
VERTEX
  5
4ea
  8
Layer_9
  10
232.66516
  20
115.56781
  0
SEQEND
  0
POLYLINE
  5
4ec
  8
Layer_9
  62
172
  66
1
  10
0
  20
0
  30
0
  0
VERTEX
  5
4ec
  8
Layer_9
  10
196.63269
  20
115.76588
  0
VERTEX
  5
4ed
  8
Layer_9
  10
200.72455
  20
115.7477
  0
SEQEND
  0
POLYLINE
  5
4ef
  8
Layer_9
  62
172
  66
1
  10
0
  20
0
  30
0
  0
VERTEX
  5
4ef
  8
Layer_9
  10
238.72949
  20
115.57893
  0
VERTEX
  5
4f0
  8
Layer_9
  10
242.82196
  20
115.51954
  0
SEQEND
  0
POLYLINE
  5
4f2
  8
Layer_9
  62
172
  66
1
  10
0
  20
0
  30
0
  0
VERTEX
  5
4f2
  8
Layer_9
  10
217.58429
  20
115.65053
  0
VERTEX
  5
4f3
  8
Layer_9
  10
222.00104
  20
115.63084
  0
SEQEND
  0
POLYLINE
  5
4f5
  8
Layer_9
  62
172
  66
1
  10
0
  20
0
  30
0
  0
VERTEX
  5
4f5
  8
Layer_9
  10
165.87561
  20
115.73892
  0
VERTEX
  5
4f6
  8
Layer_9
  10
170.18555
  20
115.67638
  0
SEQEND
  0
POLYLINE
  5
4f8
  8
Layer_9
  62
172
  66
1
  10
0
  20
0
  30
0
  0
VERTEX
  5
4f8
  8
Layer_9
  10
246.7514
  20
115.59589
  0
VERTEX
  5
4f9
  8
Layer_9
  10
249.74139
  20
115.55517
  0
SEQEND
  0
POLYLINE
  5
4fb
  8
Layer_9
  62
172
  66
1
  10
0
  20
0
  30
0
  0
VERTEX
  5
4fb
  8
Layer_9
  10
255.96655
  20
115.79739
  0
VERTEX
  5
4fc
  8
Layer_9
  10
260.47278
  20
115.73201
  0
SEQEND
  0
POLYLINE
  5
4fe
  8
Layer_9
  62
172
  66
1
  10
0
  20
0
  30
0
  0
VERTEX
  5
4fe
  8
Layer_9
  10
264.39917
  20
115.75175
  0
VERTEX
  5
4ff
  8
Layer_9
  10
267.18652
  20
115.78173
  0
SEQEND
  0
POLYLINE
  5
501
  8
Layer_9
  62
172
  66
1
  10
0
  20
0
  30
0
  0
VERTEX
  5
501
  8
Layer_9
  10
265.4762
  20
115.96155
  0
VERTEX
  5
502
  8
Layer_9
  10
265.97614
  20
115.96693
  0
SEQEND
  0
POLYLINE
  5
504
  8
Layer_9
  62
172
  66
1
  10
0
  20
0
  30
0
  0
VERTEX
  5
504
  8
Layer_9
  10
251.57587
  20
121.5076
  0
VERTEX
  5
505
  8
Layer_9
  10
251.69043
  20
126.30191
  0
SEQEND
  0
POLYLINE
  5
507
  8
Layer_9
  62
172
  66
1
  10
0
  20
0
  30
0
  0
VERTEX
  5
507
  8
Layer_9
  10
80.412231
  20
145.46828
  0
VERTEX
  5
508
  8
Layer_9
  10
85.306458
  20
145.44167
  0
SEQEND
  0
POLYLINE
  5
50a
  8
Layer_9
  62
172
  66
1
  10
0
  20
0
  30
0
  0
VERTEX
  5
50a
  8
Layer_9
  10
228.41656
  20
96.132622
  0
VERTEX
  5
50b
  8
Layer_9
  10
232.83307
  20
96.068535
  0
SEQEND
  0
POLYLINE
  5
50d
  8
Layer_9
  62
172
  66
1
  10
0
  20
0
  30
0
  0
VERTEX
  5
50d
  8
Layer_9
  10
207.30688
  20
96.132935
  0
VERTEX
  5
50e
  8
Layer_9
  10
211.5047
  20
96.072014
  0
SEQEND
  0
POLYLINE
  5
510
  8
Layer_9
  62
172
  66
1
  10
0
  20
0
  30
0
  0
VERTEX
  5
510
  8
Layer_9
  10
166.04352
  20
96.239647
  0
VERTEX
  5
511
  8
Layer_9
  10
170.35345
  20
96.177109
  0
SEQEND
  0
POLYLINE
  5
513
  8
Layer_9
  62
172
  66
1
  10
0
  20
0
  30
0
  0
VERTEX
  5
513
  8
Layer_9
  10
246.91925
  20
96.096611
  0
VERTEX
  5
514
  8
Layer_9
  10
249.9093
  20
96.055893
  0
SEQEND
  0
POLYLINE
  5
516
  8
Layer_9
  62
172
  66
1
  10
0
  20
0
  30
0
  0
VERTEX
  5
516
  8
Layer_9
  10
196.80054
  20
96.266609
  0
VERTEX
  5
517
  8
Layer_9
  10
200.89246
  20
96.248428
  0
SEQEND
  0
POLYLINE
  5
519
  8
Layer_9
  62
172
  66
1
  10
0
  20
0
  30
0
  0
VERTEX
  5
519
  8
Layer_9
  10
238.8974
  20
96.079643
  0
VERTEX
  5
51a
  8
Layer_9
  10
242.98981
  20
96.020264
  0
SEQEND
  0
POLYLINE
  5
51c
  8
Layer_9
  62
172
  66
1
  10
0
  20
0
  30
0
  0
VERTEX
  5
51c
  8
Layer_9
  10
217.7522
  20
96.151253
  0
VERTEX
  5
51d
  8
Layer_9
  10
222.16888
  20
96.131554
  0
SEQEND
  0
POLYLINE
  5
51f
  8
Layer_9
  62
172
  66
1
  10
0
  20
0
  30
0
  0
VERTEX
  5
51f
  8
Layer_9
  10
186.27399
  20
96.211296
  0
VERTEX
  5
520
  8
Layer_9
  10
190.51898
  20
96.191086
  0
SEQEND
  0
POLYLINE
  5
522
  8
Layer_9
  62
172
  66
1
  10
0
  20
0
  30
0
  0
VERTEX
  5
522
  8
Layer_9
  10
177.87158
  20
96.266548
  0
VERTEX
  5
523
  8
Layer_9
  10
181.98468
  20
96.206871
  0
SEQEND
  0
ENDSEC
  0
EOF
