0
SECTION
2
HEADER
9
$INSUNITS
70
4
9
$ACADVER
1
AC1014
9
$HANDSEED
5
FFFF
0
ENDSEC
0
SECTION
2
TABLES
0
TABLE
2
VPORT
5
8
100
AcDbSymbolTable
0
ENDTAB
0
TABLE
2
LTYPE
5
5
100
AcDbSymbolTable
0
LTYPE
5
14
100
AcDbSymbolTableRecord
100
AcDbLinetypeTableRecord
2
BYBLOCK
70
0
0
LTYPE
5
15
100
AcDbSymbolTableRecord
100
AcDbLinetypeTableRecord
2
BYLAYER
70
0
0
LTYPE
5
16
100
AcDbSymbolTableRecord
100
AcDbLinetypeTableRecord
2
DASHED
70
0
3
Dashed __ __ __ __ __ __ __ __ __ __ __ __ __ _
72
65
73
2
40
0.75
49
0.5
74
0
49
-0.25
74
0
0
ENDTAB
0
TABLE
2
LAYER
5
2
100
AcDbSymbolTable
70
2
0
LAYER
5
50
100
AcDbSymbolTableRecord
100
AcDbLayerTableRecord
2
0
70
0
62
7
6
CONTINUOUS
0
ENDTAB
0
TABLE
2
STYLE
5
3
100
AcDbSymbolTable
70
1
0
STYLE
5
11
100
AcDbSymbolTableRecord
100
AcDbTextStyleTableRecord
2
STANDARD
70
0
0
ENDTAB
0
TABLE
2
VIEW
5
6
100
AcDbSymbolTable
70
0
0
ENDTAB
0
TABLE
2
UCS
5
7
100
AcDbSymbolTable
70
0
0
ENDTAB
0
TABLE
2
APPID
5
9
100
AcDbSymbolTable
70
2
0
APPID
5
12
100
AcDbSymbolTableRecord
100
AcDbRegAppTableRecord
2
ACAD
70
0
0
ENDTAB
0
TABLE
2
DIMSTYLE
5
A
100
AcDbSymbolTable
70
1
0
ENDTAB
0
TABLE
2
BLOCK_RECORD
5
1
100
AcDbSymbolTable
70
1
0
BLOCK_RECORD
5
1F
100
AcDbSymbolTableRecord
100
AcDbBlockTableRecord
2
*MODEL_SPACE
0
BLOCK_RECORD
5
1B
100
AcDbSymbolTableRecord
100
AcDbBlockTableRecord
2
*PAPER_SPACE
0
ENDTAB
0
ENDSEC
0
SECTION
2
BLOCKS
0
BLOCK
5
20
100
AcDbEntity
100
AcDbBlockBegin
2
*MODEL_SPACE
0
ENDBLK
5
21
100
AcDbEntity
100
AcDbBlockEnd
0
BLOCK
5
1C
100
AcDbEntity
100
AcDbBlockBegin
2
*PAPER_SPACE
0
ENDBLK
5
1D
100
AcDbEntity
100
AcDbBlockEnd
0
ENDSEC
0
SECTION
2
ENTITIES
0
LINE
5
100
100
AcDbEntity
8
0
100
AcDbLine
10
28.242209999999996
20
325.50952000000001
30
0
11
28.181526000000009
21
285.26864999999998
31
0
0
LINE
5
101
100
AcDbEntity
8
0
100
AcDbLine
10
233.73694
20
259.39447000000001
30
0
11
233.70357999999999
21
264.39434999999997
31
0
0
LINE
5
102
100
AcDbEntity
8
0
100
AcDbLine
10
76.546370999999994
20
304.87018
30
0
11
81.546310000000005
21
304.89621
31
0
0
LINE
5
103
100
AcDbEntity
8
0
100
AcDbLine
10
53.681068000000003
20
285.78582999999998
30
0
11
57.701744000000019
21
285.82272
31
0
0
LINE
5
104
100
AcDbEntity
8
0
100
AcDbLine
10
116.29967000000001
20
265.99807999999996
30
0
11
111.29978000000001
21
265.96472
31
0
0
LINE
5
105
100
AcDbEntity
8
0
100
AcDbLine
10
233.60348999999999
20
279.39401000000004
30
0
11
233.63686999999999
21
274.39409999999998
31
0
0
LINE
5
106
100
AcDbEntity
8
0
100
AcDbLine
10
9.0075225999999997
20
270.64752000000004
30
0
11
14.75845
21
270.63861000000003
31
0
0
LWPOLYLINE
5
107
100
AcDbEntity
8
0
100
AcDbPolyline
90
4
70
1
43
0.0
10
80.923828000000015
20
235.83652000000001
42
0.41421172000000389
10
85.353110999999998
20
231.46593999999999
42
0.41421540000000118
10
89.723640000000003
20
235.89523
42
0.41421539999998042
10
85.294379999999975
20
240.26584000000003
42
0.41420805000000149
0
LWPOLYLINE
5
108
100
AcDbEntity
8
0
100
AcDbPolyline
90
5
70
1
43
0.0
10
234.97097999999997
20
276.17700000000002
42
0.19891027000001571
10
235.78940000000003
20
274.23784999999998
42
0.19891832999997994
10
237.73929000000004
20
273.44540000000006
42
0.41421061999999931
10
240.47086000000007
20
276.21367999999995
42
0.41421358000002073
10
237.70258000000001
20
278.94527999999991
42
0.41420766000000059
0
LINE
5
109
100
AcDbEntity
8
0
100
AcDbLine
10
94.355601881448251
20
324.45029779426028
30
0
11
111.13374134636997
21
324.42330988561031
31
0
0
LINE
5
110
100
AcDbEntity
8
0
100
AcDbLine
10
66.546509
20
304.81815
30
0
11
71.546447999999998
21
304.84421000000009
31
0
0
LWPOLYLINE
5
111
100
AcDbEntity
8
0
100
AcDbPolyline
90
4
70
1
43
0.0
10
211.4169
20
304.89795000000009
42
0.41421357999998065
10
214.14847000000009
20
307.66622999999998
42
0.4142076799999882
10
211.38019
20
310.39783
42
0.41421358000001313
10
208.64859000000001
20
307.62954999999999
42
0.41421358000000402
0
LINE
5
112
100
AcDbEntity
8
0
100
AcDbLine
10
56.891883999999997
20
246.63602000000003
30
0
11
61.891785000000013
21
246.66938999999999
31
0
0
LWPOLYLINE
5
113
100
AcDbEntity
8
0
100
AcDbPolyline
90
5
70
1
43
0.0
10
214.44476000000006
20
336.17877000000016
42
0.19891056999999832
10
211.32495000000006
20
337.44668999999993
42
0.41421539999998858
10
206.95441000000002
20
333.01742999999999
42
0.4142062099999948
10
211.38367000000002
20
328.64693999999992
42
0.41420253000000351
10
215.75421000000006
20
333.07614000000001
42
0.19892096000001602
0
LINE
5
114
100
AcDbEntity
8
0
100
AcDbLine
10
-0.59686278999999998
20
275.36068999999998
30
0
11
-0.43794250000000012
21
269.73455999999999
31
0
0
LINE
5
115
100
AcDbEntity
8
0
100
AcDbLine
10
67.395195000000001
20
309.34634000000005
30
0
11
67.436829000000003
21
320.03487999999999
31
0
0
LINE
5
116
100
AcDbEntity
8
0
100
AcDbLine
10
28.249625999999999
20
324.78458000000001
30
0
11
28.242209999999996
21
325.50952000000001
31
0
0
LINE
5
117
100
AcDbEntity
8
0
100
AcDbLine
10
65.364509999999996
20
233.60776000000001
30
0
11
65.42462900000001
21
233.6371
31
0
0
LINE
5
118
100
AcDbEntity
8
0
100
AcDbLine
10
86.891212000000024
20
246.83629999999999
30
0
11
91.891105999999994
21
246.86966000000001
31
0
0
LWPOLYLINE
5
119
100
AcDbEntity
8
0
100
AcDbPolyline
90
4
70
1
43
0.0
10
36.072617000000008
20
231.42055999999999
42
0.41420913999999243
10
33.341025999999985
20
228.65227000000004
42
0.41421502999999921
10
36.109321999999999
20
225.92068
42
0.41421354999999416
10
38.840903999999988
20
228.68896000000007
42
0.41421355999999354
0
LWPOLYLINE
5
120
100
AcDbEntity
8
0
100
AcDbPolyline
90
4
70
1
43
0.0
10
216.92505
20
217.68973
42
0.41420987999998976
10
212.49579
20
222.06027000000009
42
0.41420620999999974
10
208.12521000000007
20
217.63097999999999
42
0.41420988000000225
10
212.55449999999999
20
213.26043999999996
42
0.41420987000000414
0
LINE
5
121
100
AcDbEntity
8
0
100
AcDbLine
10
86.180626000000004
20
285.95499000000007
30
0
11
81.180695000000028
21
285.92896000000002
31
0
0
LINE
5
122
100
AcDbEntity
8
0
100
AcDbLine
10
32.494124999999997
20
222.07027999999997
30
0
11
43.811821000000002
21
222.02472000000003
31
0
0
LINE
5
123
100
AcDbEntity
8
0
100
AcDbLine
10
213.77151000000001
20
238.27529999999999
30
0
11
208.77163999999999
21
238.24194000000006
31
0
0
LINE
5
124
100
AcDbEntity
8
0
100
AcDbLine
10
131.54427999999999
20
246.92632000000003
30
0
11
111.69201000000001
21
246.90244000000004
31
0
0
LINE
5
125
100
AcDbEntity
8
0
100
AcDbLine
10
14.733245999999999
20
280.1638200000001
30
0
11
8.9824981999999984
21
280.12457000000001
31
0
0
LINE
5
126
100
AcDbEntity
8
0
100
AcDbLine
10
198.52582000000001
20
256.33713
30
0
11
193.52593999999999
21
256.30377000000004
31
0
0
LWPOLYLINE
5
127
100
AcDbEntity
8
0
100
AcDbPolyline
90
5
70
1
43
0.0
10
84.800124999999994
20
295.02145000000002
42
0.41421063000000702
10
87.53171500000002
20
297.78972999999996
42
0.4142135799999821
10
84.763420000000025
20
300.52132999999998
42
0.41421652000001541
10
82.031845000000047
20
297.75301999999999
42
0.19891461000000157
10
82.850250000000031
20
295.81389999999999
42
0.19891641000001292
0
LINE
5
128
100
AcDbEntity
8
0
100
AcDbLine
10
75.086959999999976
20
324.34341000000012
30
0
11
94.355601881448251
21
324.45029779426028
31
0
0
ARC
5
129
100
AcDbEntity
8
0
100
AcDbCircle
10
14.76733752334769
20
275.16386481547329
30
0
40
5.0000714074141328
210
0
220
-0
230
1
100
AcDbArc
50
0.39184540906767285
51
90.390657528724518
0
LINE
5
130
100
AcDbEntity
8
0
100
AcDbLine
10
144.81656000000001
20
324.4813200000001
30
0
11
145.44925000000001
21
324.4844700000001
31
0
0
LINE
5
131
100
AcDbEntity
8
0
100
AcDbLine
10
111.13374134636997
20
324.42330988561031
30
0
11
134.97797
21
324.42526000000009
31
0
0
LINE
5
132
100
AcDbEntity
8
0
100
AcDbLine
10
219.39977999999999
20
354.41854999999998
30
0
11
214.39987000000002
21
354.38515999999998
31
0
0
LINE
5
133
100
AcDbEntity
8
0
100
AcDbLine
10
167.40091000000004
20
354.07156000000009
30
0
11
172.40081999999998
21
354.10491999999999
31
0
0
ARC
5
134
100
AcDbEntity
8
0
100
AcDbCircle
10
32.249591469218075
20
324.8247871631329
30
0
40
4.0004577635742686
210
0
220
0
230
1
100
AcDbArc
50
90.53581199082204
51
135.55489530070858
0
LINE
5
135
100
AcDbEntity
8
0
100
AcDbLine
10
153.52681999999999
20
256.03687000000002
30
0
11
158.52670000000001
21
256.07022000000001
31
0
0
ARC
5
136
100
AcDbEntity
8
0
100
AcDbCircle
10
14.9484998345139
20
275.35019168144868
30
0
40
4.8172631334051417
210
0
220
0
230
1
100
AcDbArc
50
-0.10421013578113571
51
1.6172818794460486
0
ARC
5
137
100
AcDbEntity
8
0
100
AcDbCircle
10
43.827673663700637
20
226.02473941648978
30
0
40
4.0001528376545519
210
0
220
0
230
1
100
AcDbArc
50
-44.956348388512303
51
0.31512469355064227
0
LINE
5
138
100
AcDbEntity
8
0
100
AcDbLine
10
28.126990999999997
20
269.74340999999998
30
0
11
28.102722
21
273.78737999999998
31
0
0
LINE
5
139
100
AcDbEntity
8
0
100
AcDbLine
10
5.4849854000000011
20
265.37567000000001
30
0
11
28.233376000000003
21
265.60489000000007
31
0
0
LWPOLYLINE
5
140
100
AcDbEntity
8
0
100
AcDbPolyline
90
5
70
1
43
0.0
10
248.72061000000002
20
318.53969999999998
42
0.41420768000001607
10
245.95230000000001
20
321.27133000000003
42
0.41421356000000087
10
243.22073000000003
20
318.50301999999999
42
0.41420767999999691
10
245.98901000000001
20
315.77145000000002
42
0.19892115000004157
10
247.92813000000001
20
316.58983999999998
42
0.19891895999996428
0
LINE
5
141
100
AcDbEntity
8
0
100
AcDbLine
10
66.180908000000017
20
285.85092000000009
30
0
11
61.180984000000009
21
285.82486000000006
31
0
0
ARC
5
142
100
AcDbEntity
8
0
100
AcDbCircle
10
43.566666601485402
20
324.93057100468292
30
0
40
3.9999919292017569
210
0
220
-0
230
1
100
AcDbArc
50
45.260443093308737
51
90.532782174470341
0
LINE
5
143
100
AcDbEntity
8
0
100
AcDbLine
10
104.39083000000004
20
246.95309000000006
30
0
11
109.39071
21
246.98643000000004
31
0
0
LINE
5
144
100
AcDbEntity
8
0
100
AcDbLine
10
213.52547999999999
20
256.43723
30
0
11
218.52539000000002
21
256.47058000000004
31
0
0
ARC
5
145
100
AcDbEntity
8
0
100
AcDbCircle
10
32.509896462214044
20
226.07015296588969
30
0
40
3.9997288639966695
210
0
220
0
230
1
100
AcDbArc
50
179.71812700462664
51
224.74646926819997
0
LINE
5
146
100
AcDbEntity
8
0
100
AcDbLine
10
76.180770999999993
20
285.90291999999999
30
0
11
71.180831999999981
21
285.87686000000008
31
0
0
LINE
5
147
100
AcDbEntity
8
0
100
AcDbLine
10
47.566581999999997
20
324.34890999999999
30
0
11
75.086959999999976
21
324.34341000000012
31
0
0
LINE
5
148
100
AcDbEntity
8
0
100
AcDbLine
10
121.65987000000001
20
240.65898000000004
30
0
11
121.61814
21
246.91434000000001
31
0
0
LINE
5
149
100
AcDbEntity
8
0
100
AcDbLine
10
248.28482000000005
20
297.05142000000001
30
0
11
243.28506000000004
21
297.00380999999999
31
0
0
LINE
5
150
100
AcDbEntity
8
0
100
AcDbLine
10
137.00262000000004
20
305.60048999999998
30
0
11
141.48691000000008
21
305.67551000000009
31
0
0
LINE
5
151
100
AcDbEntity
8
0
100
AcDbLine
10
5.4321747
20
285.37772000000007
30
0
11
4.0526733000000004
21
285.38431000000008
31
0
0
LINE
5
152
100
AcDbEntity
8
0
100
AcDbLine
10
66.891662999999994
20
246.70276000000001
30
0
11
71.891548
21
246.73615000000001
31
0
0
LINE
5
153
100
AcDbEntity
8
0
100
AcDbLine
10
92.744484
20
226.72366
30
0
11
87.744591
21
226.69029
31
0
0
LINE
5
154
100
AcDbEntity
8
0
100
AcDbLine
10
9.4762038999999998
20
280.05466000000001
30
0
11
8.9927596999999988
21
280.12311
31
0
0
LINE
5
155
100
AcDbEntity
8
0
100
AcDbLine
10
4.1055602999999996
20
265.36169000000001
30
0
11
5.4849854000000011
21
265.37567000000001
31
0
0
LINE
5
156
100
AcDbEntity
8
0
100
AcDbLine
10
86.546256999999997
20
304.92221000000001
30
0
11
91.546165000000016
21
304.94821000000002
31
0
0
LINE
5
157
100
AcDbEntity
8
0
100
AcDbLine
10
19.763843999999999
20
275.48615000000007
30
0
11
19.767292000000005
21
275.19806000000005
31
0
0
LINE
5
158
100
AcDbEntity
8
0
100
AcDbLine
10
28.233376000000003
20
265.60489000000007
30
0
11
28.506690999999996
21
225.36481000000006
31
0
0
LINE
5
159
100
AcDbEntity
8
0
100
AcDbLine
10
233.55173000000002
20
288.10903999999999
30
0
11
233.5257
21
293.10901000000001
31
0
0
LINE
5
160
100
AcDbEntity
8
0
100
AcDbLine
10
44.668861
20
265.91867000000002
30
0
11
39.668921999999988
21
265.89409999999998
31
0
0
LINE
5
161
100
AcDbEntity
8
0
100
AcDbLine
10
76.891441
20
246.76952000000003
30
0
11
81.891334999999998
21
246.80287000000007
31
0
0
LINE
5
162
100
AcDbEntity
8
0
100
AcDbLine
10
126.18009000000001
20
286.1631799999999
30
0
11
121.18015
21
286.13718
31
0
0
LINE
5
163
100
AcDbEntity
8
0
100
AcDbLine
10
53.801064000000018
20
265.58102000000008
30
0
11
57.82189200000002
21
265.59186
31
0
0
LWPOLYLINE
5
164
100
AcDbEntity
8
0
100
AcDbPolyline
90
4
70
1
43
0.0
10
84.857093999999975
20
256.77106000000009
42
0.4142135499999956
10
82.125504000000035
20
254.00278
42
0.41421356000001713
10
84.893790999999993
20
251.27117999999999
42
0.41420767999999669
10
87.625389000000013
20
254.03947000000002
42
0.41421062000000475
0
LINE
5
165
100
AcDbEntity
8
0
100
AcDbLine
10
208.5256
20
256.40387000000004
30
0
11
203.52573000000007
21
256.37047999999999
31
0
0
ARC
5
166
100
AcDbEntity
8
0
100
AcDbCircle
10
62.694182256034942
20
236.5693430544801
30
0
40
4.2386009552587911
210
0
220
0
230
1
100
AcDbArc
50
346.21900042713446
51
355.57176862667126
0
LINE
5
167
100
AcDbEntity
8
0
100
AcDbLine
10
56.546653999999997
20
304.7661700000001
30
0
11
61.546593000000023
21
304.79221000000001
31
0
0
ARC
5
168
100
AcDbEntity
8
0
100
AcDbCircle
10
4.0602570282876691
20
269.86145087177988
30
0
40
4.4999889210561923
210
0
220
0
230
1
100
AcDbArc
50
181.61584291814501
51
270.57683033481112
0
ARC
5
169
100
AcDbEntity
8
0
100
AcDbCircle
10
64.117744511092582
20
236.04031898875988
30
0
40
2.7355819445380942
210
0
220
0
230
1
100
AcDbArc
50
298.53760526249073
51
349.88023683864469
0
LINE
5
170
100
AcDbEntity
8
0
100
AcDbLine
10
173.52636999999999
20
256.17028999999997
30
0
11
178.52625
21
256.20367000000005
31
0
0
LINE
5
171
100
AcDbEntity
8
0
100
AcDbLine
10
248.52490000000003
20
256.62750000000005
30
0
11
243.52493000000004
21
256.61574999999999
31
0
0
LINE
5
172
100
AcDbEntity
8
0
100
AcDbLine
10
61.121902000000013
20
231.45189999999999
30
0
11
67.173042000000009
21
229.48778000000001
31
0
0
LINE
5
173
100
AcDbEntity
8
0
100
AcDbLine
10
128.46518
20
344.31152000000009
30
0
11
123.46529000000001
21
344.2781700000001
31
0
0
LINE
5
174
100
AcDbEntity
8
0
100
AcDbLine
10
34.668983000000004
20
265.86950999999999
30
0
11
30.669029000000002
21
265.84985000000006
31
0
0
LINE
5
175
100
AcDbEntity
8
0
100
AcDbLine
10
193.77566999999999
20
238.10843
30
0
11
188.77206000000001
21
238.10843
31
0
0
ARC
5
176
100
AcDbEntity
8
0
100
AcDbCircle
10
32.510228357575841
20
226.07035296904826
30
0
40
4.0001053830913067
210
0
220
0
230
1
100
AcDbArc
50
224.74515727666298
51
269.76934184754856
0
LINE
5
177
100
AcDbEntity
8
0
100
AcDbLine
10
163.52658000000002
20
256.10357999999997
30
0
11
168.52649
21
256.13695999999999
31
0
0
LINE
5
178
100
AcDbEntity
8
0
100
AcDbLine
10
43.704841999999999
20
265.82558999999998
30
0
11
43.703910999999998
21
265.86743000000001
31
0
0
LINE
5
179
100
AcDbEntity
8
0
100
AcDbLine
10
61.175937423860908
20
236.35948796245188
30
0
11
61.121902000000013
21
231.45189999999999
31
0
0
LINE
5
180
100
AcDbEntity
8
0
100
AcDbLine
10
47.842247
20
284.75338999999991
30
0
11
47.566581999999997
21
324.34890999999999
31
0
0
LINE
5
181
100
AcDbEntity
8
0
100
AcDbLine
10
188.52606000000006
20
256.27038999999996
30
0
11
183.52615
21
256.23703
31
0
0
LINE
5
182
100
AcDbEntity
8
0
100
AcDbLine
10
96.180473000000006
20
286.00698999999992
30
0
11
91.180565000000001
21
285.98098999999991
31
0
0
LINE
5
183
100
AcDbEntity
8
0
100
AcDbLine
10
47.827766000000011
20
226.04673999999994
30
0
11
47.823418000000004
21
226.68839000000006
31
0
0
LINE
5
184
100
AcDbEntity
8
0
100
AcDbLine
10
34.553756999999997
20
285.2700200000001
30
0
11
30.553856000000007
21
285.24216000000001
31
0
0
LINE
5
185
100
AcDbEntity
8
0
100
AcDbLine
10
233.68356000000006
20
267.39429000000001
30
0
11
233.65020999999999
21
272.39417000000003
31
0
0
LINE
5
186
100
AcDbEntity
8
0
100
AcDbLine
10
28.181526000000009
20
285.26864999999998
30
0
11
5.4321747
21
285.37772000000007
31
0
0
ARC
5
187
100
AcDbEntity
8
0
100
AcDbCircle
10
43.566660726441945
20
324.93050445046032
30
0
40
4.0000433391609045
210
0
220
0
230
1
100
AcDbArc
50
-0.010376876074891761
51
45.261054338304263
0
LINE
5
188
100
AcDbEntity
8
0
100
AcDbLine
10
119.15842000000001
20
226.89992000000004
30
0
11
114.15853
21
226.86655000000002
31
0
0
LINE
5
189
100
AcDbEntity
8
0
100
AcDbLine
10
47.912650999999997
20
324.38943
30
0
11
47.914054999999998
21
324.38943
31
0
0
LINE
5
190
100
AcDbEntity
8
0
100
AcDbLine
10
134.97797
20
324.42526000000009
30
0
11
144.81656000000001
21
324.4813200000001
31
0
0
LINE
5
191
100
AcDbEntity
8
0
100
AcDbLine
10
-0.46774292000000001
20
280.98757999999998
30
0
11
-0.59686278999999998
21
275.36068999999998
31
0
0
ARC
5
192
100
AcDbEntity
8
0
100
AcDbCircle
10
14.766368859212236
20
275.6384843071117
30
0
40
4.9997809540517064
210
0
220
0
230
1
100
AcDbArc
50
314.91070943502507
51
359.91262801460124
0
LINE
5
193
100
AcDbEntity
8
0
100
AcDbLine
10
106.18037000000001
20
286.05907999999999
30
0
11
101.18043
21
286.03305
31
0
0
ARC
5
194
100
AcDbEntity
8
0
100
AcDbCircle
10
63.887457477482094
20
237.30277491992709
30
0
40
3.9829846888970271
210
0
220
0
230
1
100
AcDbArc
50
257.92605438638651
51
290.8211127688071
0
LINE
5
195
100
AcDbEntity
8
0
100
AcDbLine
10
44.553520000000006
20
285.33969000000002
30
0
11
39.553642000000004
21
285.30484000000001
31
0
0
LINE
5
196
100
AcDbEntity
8
0
100
AcDbLine
10
116.18023000000001
20
286.11111
30
0
11
111.18029
21
286.08505000000002
31
0
0
ARC
5
197
100
AcDbEntity
8
0
100
AcDbCircle
10
43.827885071024113
20
226.02457434274646
30
0
40
3.9998866005882476
210
0
220
0
230
1
100
AcDbArc
50
269.76989199003583
51
315.04318521117057
0
LWPOLYLINE
5
198
100
AcDbEntity
8
0
100
AcDbPolyline
90
4
70
1
43
0.0
10
88.098288999999994
20
218.96960000000007
42
0.4142047300000094
10
85.329993999999999
20
221.70117000000002
42
0.4142135499999956
10
82.598404000000031
20
218.93289000000007
42
0.41420915999999863
10
85.366692
20
216.20129000000009
42
0.41421355999999926
0
LINE
5
199
100
AcDbEntity
8
0
100
AcDbLine
10
19.766143999999993
20
275.6308600000001
30
0
11
19.765754999999999
21
275.34143000000006
31
0
0
LINE
5
200
100
AcDbEntity
8
0
100
AcDbLine
10
28.506690999999996
20
225.36481000000006
30
0
11
28.510216
21
226.08982999999998
31
0
0
LINE
5
201
100
AcDbEntity
8
0
100
AcDbLine
10
96.890984000000003
20
246.90303
30
0
11
101.89088
21
246.93639000000002
31
0
0
LINE
5
202
100
AcDbEntity
8
0
100
AcDbLine
10
129.15819999999999
20
226.96664000000001
30
0
11
124.15832
21
226.93327000000008
31
0
0
LINE
5
203
100
AcDbEntity
8
0
100
AcDbLine
10
66.300781000000001
20
265.66442999999998
30
0
11
61.300888
21
265.63107000000002
31
0
0
LINE
5
204
100
AcDbEntity
8
0
100
AcDbLine
10
96.300117
20
265.86462
30
0
11
91.300224
21
265.83123999999998
31
0
0
LINE
5
205
100
AcDbEntity
8
0
100
AcDbLine
10
238.28531000000001
20
296.95614999999998
30
0
11
235.28534000000002
21
296.94051999999999
31
0
0
LINE
5
206
100
AcDbEntity
8
0
100
AcDbLine
10
223.7713
20
238.34213
30
0
11
218.77142000000006
21
238.30867000000001
31
0
0
LINE
5
207
100
AcDbEntity
8
0
100
AcDbLine
10
96.546104000000014
20
304.97421000000008
30
0
11
101.54604
21
305.00020999999998
31
0
0
LINE
5
208
100
AcDbEntity
8
0
100
AcDbLine
10
47.856887999999998
20
246.57574
30
0
11
51.89198300000001
21
246.60266000000007
31
0
0
ARC
5
209
100
AcDbEntity
8
0
100
AcDbCircle
10
4.0311112122428048
20
280.88432270575299
30
0
40
4.5000389522773885
210
0
220
-0
230
1
100
AcDbArc
50
89.72546429788548
51
178.68518328177055
0
LINE
5
210
100
AcDbEntity
8
0
100
AcDbLine
10
106.29989
20
265.93133999999998
30
0
11
101.30001
21
265.89797999999996
31
0
0
LINE
5
211
100
AcDbEntity
8
0
100
AcDbLine
10
150.7731
20
238.11714000000001
30
0
11
146.77334999999999
21
238.16031000000007
31
0
0
LINE
5
212
100
AcDbEntity
8
0
100
AcDbLine
10
228.52515
20
256.53728999999998
30
0
11
223.52527000000006
21
256.50397000000004
31
0
0
ARC
5
213
100
AcDbEntity
8
0
100
AcDbCircle
10
32.249163373131921
20
324.82536810124941
30
0
40
3.9997453504295817
210
0
220
0
230
1
100
AcDbArc
50
135.55654237961895
51
180.58429383821866
0
LINE
5
214
100
AcDbEntity
8
0
100
AcDbLine
10
47.812744000000002
20
281.07028000000003
30
0
11
47.824172999999988
21
276.76721000000003
31
0
0
LINE
5
215
100
AcDbEntity
8
0
100
AcDbLine
10
47.511559000000013
20
304.71915000000001
30
0
11
51.546714999999999
21
304.74020000000002
31
0
0
LINE
5
216
100
AcDbEntity
8
0
100
AcDbLine
10
47.566581999999997
20
324.34890999999999
30
0
11
47.566704000000001
21
324.92978000000079
31
0
0
LINE
5
217
100
AcDbEntity
8
0
100
AcDbLine
10
233.59845000000007
20
281.10922000000005
30
0
11
233.57241999999999
21
286.10916000000009
31
0
0
LINE
5
218
100
AcDbEntity
8
0
100
AcDbLine
10
28.096946999999997
20
281.12954999999999
30
0
11
28.094093000000004
21
277.08551
31
0
0
LINE
5
219
100
AcDbEntity
8
0
100
AcDbLine
10
47.823418000000004
20
226.68839000000006
30
0
11
47.890320000000003
21
266.46294999999998
31
0
0
LINE
5
220
100
AcDbEntity
8
0
100
AcDbLine
10
43.58848600000001
20
285.42129999999992
30
0
11
43.58803600000001
21
285.37948999999998
31
0
0
LINE
5
221
100
AcDbEntity
8
0
100
AcDbLine
10
47.842255000000009
20
269.90692000000001
30
0
11
47.830962999999997
21
274.20990000000006
31
0
0
LINE
5
222
100
AcDbEntity
8
0
100
AcDbLine
10
130.01412999999999
20
305.30209000000002
30
0
11
110.98167000000001
21
305.09890999999999
31
0
0
LINE
5
223
100
AcDbEntity
8
0
100
AcDbLine
10
104.04600000000002
20
305.01328000000001
30
0
11
109.04592000000001
21
305.03927999999991
31
0
0
LINE
5
224
100
AcDbEntity
8
0
100
AcDbLine
10
65.303215000000009
20
233.57990000000001
30
0
11
65.364509999999996
21
233.60776000000001
31
0
0
LINE
5
225
100
AcDbEntity
8
0
100
AcDbLine
10
118.46540000000003
20
344.24477999999999
30
0
11
113.46551000000004
21
344.21145999999999
31
0
0
LINE
5
226
100
AcDbEntity
8
0
100
AcDbLine
10
148.52691999999999
20
256.00347999999997
30
0
11
146.02698000000001
21
255.98680000000002
31
0
0
LINE
5
227
100
AcDbEntity
8
0
100
AcDbLine
10
126.29944999999999
20
266.06482
30
0
11
121.29955000000001
21
266.03143
31
0
0
LINE
5
228
100
AcDbEntity
8
0
100
AcDbLine
10
82.744713000000004
20
226.65694000000002
30
0
11
77.744834999999995
21
226.62357000000003
31
0
0
LINE
5
229
100
AcDbEntity
8
0
100
AcDbLine
10
162.40103000000005
20
354.03817999999995
30
0
11
157.40115
21
354.00482000000005
31
0
0
LINE
5
230
100
AcDbEntity
8
0
100
AcDbLine
10
145.58996999999999
20
295.73205999999999
30
0
11
134.81673999999998
21
285.29703000000001
31
0
0
LINE
5
231
100
AcDbEntity
8
0
100
AcDbLine
10
238.52493000000004
20
256.60402999999997
30
0
11
235.52499
21
256.58401000000003
31
0
0
LINE
5
232
100
AcDbEntity
8
0
100
AcDbLine
10
145.44925000000001
20
324.4844700000001
30
0
11
145.58996999999999
21
295.73205999999999
31
0
0
LINE
5
233
100
AcDbEntity
8
0
100
AcDbLine
10
43.529471999999991
20
328.93038999999999
30
0
11
32.212180999999994
21
328.8250700000001
31
0
0
LINE
5
234
100
AcDbEntity
8
0
100
AcDbLine
10
86.300331
20
265.79791
30
0
11
81.300438000000014
21
265.76453000000004
31
0
0
LINE
5
235
100
AcDbEntity
8
0
100
AcDbLine
10
165.79931999999999
20
231.69931000000005
30
0
11
165.86676
21
237.95442000000008
31
0
0
LINE
5
236
100
AcDbEntity
8
0
100
AcDbLine
10
183.82614000000001
20
238.02597000000009
30
0
11
179.12585000000004
21
238.00385000000006
31
0
0
LINE
5
237
100
AcDbEntity
8
0
100
AcDbLine
10
156.12618999999995
20
237.87950000000001
30
0
11
175.56995000000001
21
237.87950000000001
31
0
0
LINE
5
238
100
AcDbEntity
8
0
100
AcDbLine
10
209.39999
20
354.35181
30
0
11
204.40009000000003
21
354.3184500000001
31
0
0
LINE
5
239
100
AcDbEntity
8
0
100
AcDbLine
10
76.300574999999995
20
265.73117000000002
30
0
11
71.300674000000001
21
265.69781
31
0
0
LINE
5
240
100
AcDbEntity
8
0
100
AcDbLine
10
173.43411
20
295.37036000000001
30
0
11
178.43411
21
295.36052999999998
31
0
0
LINE
5
241
100
AcDbEntity
8
0
100
AcDbLine
10
203.49478000000002
20
313.50720000000001
30
0
11
198.59460000000001
21
313.48416000000009
31
0
0
LINE
5
242
100
AcDbEntity
8
0
100
AcDbLine
10
188.43411
20
295.34087999999991
30
0
11
183.43407999999999
21
295.35071000000005
31
0
0
LINE
5
243
100
AcDbEntity
8
0
100
AcDbLine
10
62.186699000000004
20
314.69083000000001
30
0
11
72.686699000000004
21
314.69338999999991
31
0
0
LINE
5
244
100
AcDbEntity
8
0
100
AcDbLine
10
198.43407999999999
20
295.32123000000001
30
0
11
193.43407999999999
21
295.33105
31
0
0
LINE
5
245
100
AcDbEntity
8
0
100
AcDbLine
10
213.43405000000004
20
295.29172000000005
30
0
11
218.43405000000004
21
295.28188999999998
31
0
0
LINE
5
246
100
AcDbEntity
8
0
100
AcDbLine
10
203.67206000000007
20
238.17516000000001
30
0
11
198.77185
21
238.17516000000001
31
0
0
LINE
5
247
100
AcDbEntity
8
0
100
AcDbLine
10
193.59818000000004
20
313.52737000000002
30
0
11
188.59464
21
313.50380999999999
31
0
0
LINE
5
248
100
AcDbEntity
8
0
100
AcDbLine
10
165.94794000000005
20
313.62616000000008
30
0
11
170.94788
21
313.64968999999991
31
0
0
LINE
5
249
100
AcDbEntity
8
0
100
AcDbLine
10
153.43416999999999
20
295.4097000000001
30
0
11
158.43414000000001
21
295.39987000000002
31
0
0
LINE
5
250
100
AcDbEntity
8
0
100
AcDbLine
10
155.94806
20
313.57907
30
0
11
160.94799999999995
21
313.6026
31
0
0
LINE
5
251
100
AcDbEntity
8
0
100
AcDbLine
10
150.59613000000007
20
313.31625000000008
30
0
11
146.59662
21
313.25427000000002
31
0
0
LINE
5
252
100
AcDbEntity
8
0
100
AcDbLine
10
223.59457000000006
20
313.43484000000001
30
0
11
218.59460000000001
21
313.44476000000009
31
0
0
LINE
5
253
100
AcDbEntity
8
0
100
AcDbLine
10
232.62979000000001
20
313.41705000000002
30
0
11
228.59457000000006
21
313.42498999999998
31
0
0
LINE
5
254
100
AcDbEntity
8
0
100
AcDbLine
10
208.43405000000004
20
295.30153999999999
30
0
11
203.43407999999999
21
295.31139999999999
31
0
0
LINE
5
255
100
AcDbEntity
8
0
100
AcDbLine
10
148.43416999999999
20
295.41953000000001
30
0
11
145.93416999999999
21
295.4244700000001
31
0
0
LINE
5
256
100
AcDbEntity
8
0
100
AcDbLine
10
183.64838000000003
20
313.56299000000001
30
0
11
178.94806
21
313.56299000000001
31
0
0
LINE
5
257
100
AcDbEntity
8
0
100
AcDbLine
10
228.43402000000003
20
295.26224000000002
30
0
11
223.43405000000004
21
295.27206000000001
31
0
0
LINE
5
258
100
AcDbEntity
8
0
100
AcDbLine
10
213.59460000000001
20
313.45459
30
0
11
208.59460000000001
21
313.46442000000002
31
0
0
LINE
5
259
100
AcDbEntity
8
0
100
AcDbLine
10
163.43414000000001
20
295.39004999999992
30
0
11
168.43414000000001
21
295.38022000000001
31
0
0
LINE
5
260
100
AcDbEntity
8
0
100
AcDbLine
10
121.11779
20
358.85928000000001
30
0
11
120.18501000000001
21
358.8471100000001
31
0
0
LINE
5
261
100
AcDbEntity
8
0
100
AcDbLine
10
233.61718999999999
20
203.21277000000006
30
0
11
233.70529000000002
21
226.23022000000009
31
0
0
LINE
5
262
100
AcDbEntity
8
0
100
AcDbLine
10
237.93845000000002
20
329.52676000000002
30
0
11
237.57040000000003
21
329.52097000000009
31
0
0
ARC
5
263
100
AcDbEntity
8
0
100
AcDbCircle
10
247.70747499696316
20
228.43738230592223
30
0
40
5.9773000801930536
210
0
220
0
230
1
100
AcDbArc
50
269.14354611302332
51
314.96551817871614
0
LINE
5
264
100
AcDbEntity
8
0
100
AcDbLine
10
134.86676
20
266.13903999999997
30
0
11
145.69333
21
255.76277000000005
31
0
0
LINE
5
265
100
AcDbEntity
8
0
100
AcDbLine
10
253.59119000000004
20
228.45874000000003
30
0
11
253.36333999999999
21
325.28055000000001
31
0
0
LINE
5
266
100
AcDbEntity
8
0
100
AcDbLine
10
131.00149999999999
20
221.00006000000008
30
0
11
131.09845000000001
21
227.01451000000006
31
0
0
LINE
5
267
100
AcDbEntity
8
0
100
AcDbLine
10
121.23910000000001
20
311.51204999999999
30
0
11
121.27166000000004
21
305.25659000000007
31
0
0
ARC
5
268
100
AcDbEntity
8
0
100
AcDbCircle
10
210.67607413424213
20
359.93942504139261
30
0
40
8.9999635304573449
210
0
220
0
230
1
100
AcDbArc
50
91.106608427879081
51
180.08279302921287
0
LWPOLYLINE
5
269
100
AcDbEntity
8
0
100
AcDbPolyline
90
6
70
1
43
0.0
10
213.48491999999999
20
361.37531000000001
42
0.41421358000003983
10
210.71661000000006
20
364.10689999999994
42
0.19892115000005778
10
208.77750000000006
20
363.28847999999999
42
0.19891446000001764
10
207.98505000000009
20
361.33859000000001
42
0.4142106200000189
10
210.75333000000001
20
358.60702999999995
42
0.19891347000003276
10
212.69247000000007
20
359.42542000000009
42
0.19891446000001339
0
ARC
5
270
100
AcDbEntity
8
0
100
AcDbCircle
10
249.17464496268536
20
325.20733913906435
30
0
40
4.1893466509857031
210
0
220
-0
230
1
100
AcDbArc
50
46.475689801397557
51
91.949898677702947
0
ARC
5
271
100
AcDbEntity
8
0
100
AcDbCircle
10
122.15492101003665
20
349.84319904731808
30
0
40
8.9999798578857266
210
0
220
-0
230
1
100
AcDbArc
50
0.12338334833616127
51
88.795430391225537
0
LWPOLYLINE
5
272
100
AcDbEntity
8
0
100
AcDbPolyline
90
4
70
1
43
0.0
10
211.21163999999999
20
247.1436600000001
42
0.4142135600000052
10
208.48004000000003
20
244.37537000000009
42
0.41420768000000119
10
211.24832000000001
20
241.64377999999999
42
0.41421356000000087
10
213.97992000000002
20
244.41206
42
0.41421356000001985
0
ARC
5
273
100
AcDbEntity
8
0
100
AcDbCircle
10
165.74138775840933
20
359.40032749597162
30
0
40
9.0028839190179362
210
0
220
0
230
1
100
AcDbArc
50
-0.27230742796716451
51
89.728044223631755
0
LINE
5
274
100
AcDbEntity
8
0
100
AcDbLine
10
145.06369863983784
20
344.27506347937884
30
0
11
131.16702000000001
21
344.22348
31
0
0
LINE
5
275
100
AcDbEntity
8
0
100
AcDbLine
10
47.823418000000004
20
226.68839000000006
30
0
11
75.344643000000005
21
226.77834000000001
31
0
0
LINE
5
276
100
AcDbEntity
8
0
100
AcDbLine
10
131.09845000000001
20
227.01451000000006
30
0
11
134.65402
21
227.00925000000001
31
0
0
ARC
5
277
100
AcDbEntity
8
0
100
AcDbCircle
10
120.36527655800151
20
221.15963252888241
30
0
40
8.9999404672752412
210
0
220
0
230
1
100
AcDbArc
50
179.72467516702665
51
269.48899706663622
0
ARC
5
278
100
AcDbEntity
8
0
100
AcDbCircle
10
101.21364135759286
20
339.87283617050508
30
0
40
4.5002915211575356
210
0
220
0
230
1
100
AcDbArc
50
135.1672549221359
51
180.45701947762862
0
LINE
5
279
100
AcDbEntity
8
0
100
AcDbLine
10
145.70464999999999
20
227.04242000000008
30
0
11
145.35120000000001
21
226.98222000000001
31
0
0
LINE
5
280
100
AcDbEntity
8
0
100
AcDbLine
10
94.622887000000006
20
226.77318
30
0
11
111.39277
21
226.88881000000006
31
0
0
LWPOLYLINE
5
281
100
AcDbEntity
8
0
100
AcDbPolyline
90
4
70
1
43
0.0
10
89.32204400000002
20
313.8226600000001
42
0.41420989999999935
10
84.89278400000002
20
318.19318000000004
42
0.41420805999999738
10
80.522255000000001
20
313.76395000000002
42
0.41421263999999736
10
84.951500000000024
20
309.3934000000001
42
0.41420620999999319
0
LINE
5
282
100
AcDbEntity
8
0
100
AcDbLine
10
75.344643000000005
20
226.77834000000001
30
0
11
75.263489000000007
21
221.13884999999999
31
0
0
LINE
5
283
100
AcDbEntity
8
0
100
AcDbLine
10
233.59744000000003
20
295.92709000000002
30
0
11
232.67694000000006
21
354.53906000000012
31
0
0
LINE
5
284
100
AcDbEntity
8
0
100
AcDbLine
10
155.30017000000001
20
359.29704290690148
30
0
11
155.30016999999998
21
353.78665840193332
31
0
0
LINE
5
285
100
AcDbEntity
8
0
100
AcDbLine
10
96.808296000000013
20
327.98708999999997
30
0
11
96.834099000000023
21
327.9120200000001
31
0
0
ARC
5
286
100
AcDbEntity
8
0
100
AcDbCircle
10
134.51124207332253
20
212.02264346480388
30
0
40
3.0000034648281049
210
0
220
0
230
1
100
AcDbArc
50
194.54069219218655
51
269.9997694167912
0
LINE
5
287
100
AcDbEntity
8
0
100
AcDbLine
10
120.28501000000004
20
212.16005000000001
30
0
11
121.92234000000001
21
212.14545000000001
31
0
0
ARC
5
288
100
AcDbEntity
8
0
100
AcDbCircle
10
135.38138184800664
20
223.10084308271374
30
0
40
4.0231629050269957
210
0
220
-0
230
1
100
AcDbArc
50
88.208726459530709
51
134.5801166984966
0
LWPOLYLINE
5
289
100
AcDbEntity
8
0
100
AcDbPolyline
90
5
70
1
43
0.0
10
247.94052000000008
20
235.95346000000006
42
0.1989183300000282
10
245.99063000000001
20
236.74591000000004
42
0.41420768000000285
10
243.25906000000009
20
233.97762000000003
42
0.4142165199999841
10
246.02734000000001
20
231.24603000000002
42
0.4142047199999932
10
248.75894000000002
20
234.01432999999997
42
0.19891026999997188
0
LINE
5
290
100
AcDbEntity
8
0
100
AcDbLine
10
165.78412
20
368.40311000000008
30
0
11
164.72604000000001
21
368.42577999999997
31
0
0
LINE
5
291
100
AcDbEntity
8
0
100
AcDbLine
10
232.67694000000006
20
354.53906000000012
30
0
11
221.39612
21
354.20263999999997
31
0
0
LINE
5
292
100
AcDbEntity
8
0
100
AcDbLine
10
237.10788000000002
20
222.59540000000001
30
0
11
247.61813000000001
21
222.46074999999996
31
0
0
LINE
5
293
100
AcDbEntity
8
0
100
AcDbLine
10
146.68386999999996
20
207.52264
30
0
11
146.82918999999995
21
202.77579000000003
31
0
0
ARC
5
294
100
AcDbEntity
8
0
100
AcDbCircle
10
237.6410664670513
20
325.02149501717747
30
0
40
4.5000298744133076
210
0
220
0
230
1
100
AcDbArc
50
90.899784414128064
51
180.88219323780132
0
LINE
5
295
100
AcDbEntity
8
0
100
AcDbLine
10
237.02515000000002
20
222.60211000000001
30
0
11
237.10788000000002
21
222.59540000000001
31
0
0
LWPOLYLINE
5
296
100
AcDbEntity
8
0
100
AcDbPolyline
90
4
70
1
43
0.0
10
38.593826
20
322.26218000000011
42
0.41420619999995845
10
35.825538999999999
20
324.99376999999993
42
0.41421505000000708
10
33.093947999999997
20
322.22549000000009
42
0.4142062000000063
10
35.862235999999989
20
319.49390000000005
42
0.41421505000002451
0
ARC
5
297
100
AcDbEntity
8
0
100
AcDbCircle
10
101.21347212545132
20
339.87271149024508
30
0
40
4.5002594164703877
210
0
220
-0
230
1
100
AcDbArc
50
89.873856193242489
51
135.16461011546315
0
LINE
5
298
100
AcDbEntity
8
0
100
AcDbLine
10
174.74417
20
354.00000527501106
30
0
11
174.74417
21
359.35754000000003
31
0
0
LINE
5
299
100
AcDbEntity
8
0
100
AcDbLine
10
146.82918999999995
20
202.77579000000003
30
0
11
233.61718999999999
21
203.21277000000006
31
0
0
LINE
5
300
100
AcDbEntity
8
0
100
AcDbLine
10
134.51123000000001
20
209.02264000000005
30
0
11
146.68386999999996
21
209.02264000000002
31
0
0
LINE
5
301
100
AcDbEntity
8
0
100
AcDbLine
10
236.85794000000001
20
222.62088
30
0
11
236.9408
21
222.61069000000003
31
0
0
LINE
5
302
100
AcDbEntity
8
0
100
AcDbLine
10
237.98688000000001
20
329.51495
30
0
11
237.93845000000002
21
329.52676000000002
31
0
0
LINE
5
303
100
AcDbEntity
8
0
100
AcDbLine
10
233.14157
20
324.95221000000021
30
0
11
233.10489000000004
21
327.2912300000001
31
0
0
ARC
5
304
100
AcDbEntity
8
0
100
AcDbCircle
10
249.1745286052145
20
325.20730473719487
30
0
40
4.1894517266115221
210
0
220
-0
230
1
100
AcDbArc
50
1.0017678983790503
51
46.474859964242917
0
LINE
5
305
100
AcDbEntity
8
0
100
AcDbLine
10
232.80630000000002
20
238.40244000000001
30
0
11
228.77117999999999
21
238.37552000000002
31
0
0
ARC
5
306
100
AcDbEntity
8
0
100
AcDbCircle
10
84.262675127361717
20
221.00961513970418
30
0
40
9.0001596298052142
210
0
220
0
230
1
100
AcDbArc
50
224.3071705432219
51
269.4370054192666
0
ARC
5
307
100
AcDbEntity
8
0
100
AcDbCircle
10
237.22958311062766
20
225.72711934815274
30
0
40
3.1283927965792833
210
0
220
0
230
1
100
AcDbArc
50
204.66567376300458
51
263.17733135944661
0
ARC
5
308
100
AcDbEntity
8
0
100
AcDbCircle
10
164.29940994177602
20
359.20175974464473
30
0
40
8.9997443525172862
210
0
220
0
230
1
100
AcDbArc
50
133.05452804768802
51
179.39337998528396
0
LINE
5
309
100
AcDbEntity
8
0
100
AcDbLine
10
211.82166000000001
20
368.9632299999999
30
0
11
210.50226000000006
21
368.93771000000004
31
0
0
ARC
5
310
100
AcDbEntity
8
0
100
AcDbCircle
10
105.23067030409624
20
335.40643181306496
30
0
40
11.821778749279119
210
0
220
0
230
1
100
AcDbArc
50
238.59026303293916
51
248.07206191067425
0
LINE
5
311
100
AcDbEntity
8
0
100
AcDbLine
10
237.99712999999997
20
329.5120500000001
30
0
11
237.98688000000001
21
329.51495
31
0
0
LINE
5
312
100
AcDbEntity
8
0
100
AcDbLine
10
201.67612000000008
20
359.92642000000023
30
0
11
201.70002559199929
21
353.90004483982921
31
0
0
LINE
5
313
100
AcDbEntity
8
0
100
AcDbLine
10
145.69333
20
255.76277000000005
30
0
11
145.70464999999999
21
227.04242000000008
31
0
0
LINE
5
314
100
AcDbEntity
8
0
100
AcDbLine
10
211.36374000000004
20
368.96176000000003
30
0
11
211.82166000000001
21
368.9632299999999
31
0
0
LINE
5
315
100
AcDbEntity
8
0
100
AcDbLine
10
111.3026
20
349.86782999999997
30
0
11
111.29028000000004
21
344.35065000000009
31
0
0
ARC
5
316
100
AcDbEntity
8
0
100
AcDbCircle
10
135.36200731365338
20
222.98181690026919
30
0
40
4.0954995953190068
210
0
220
0
230
1
100
AcDbArc
50
133.21813701237659
51
179.61537039008817
0
ARC
5
317
100
AcDbEntity
8
0
100
AcDbCircle
10
135.94917577518402
20
212.3956361503827
30
0
40
4.4855258894158458
210
0
220
0
230
1
100
AcDbArc
50
185.89496057191911
51
194.54103842343045
0
ARC
5
318
100
AcDbEntity
8
0
100
AcDbCircle
10
164.5331653295421
20
359.42784546455198
30
0
40
9.0000014745949475
210
0
220
-0
230
1
100
AcDbArc
50
88.77202790641428
51
135.12496944985253
0
LINE
5
319
100
AcDbEntity
8
0
100
AcDbLine
10
145.35120000000001
20
226.98222000000001
30
0
11
135.50714000000002
21
227.12204
31
0
0
LINE
5
320
100
AcDbEntity
8
0
100
AcDbLine
10
221.39612
20
354.20263999999997
30
0
11
221.39429000000004
21
358.97626000000002
31
0
0
LINE
5
321
100
AcDbEntity
8
0
100
AcDbLine
10
137.35208
20
246.75738999999999
30
0
11
141.83694
21
246.73560000000006
31
0
0
LINE
5
322
100
AcDbEntity
8
0
100
AcDbLine
10
146.68386999999996
20
209.02264000000002
30
0
11
146.68386999999996
21
207.52264
31
0
0
LINE
5
323
100
AcDbEntity
8
0
100
AcDbLine
10
111.39277
20
226.88881000000006
30
0
11
111.36544000000001
21
221.20287999999994
31
0
0
ARC
5
324
100
AcDbEntity
8
0
100
AcDbCircle
10
120.30246740755018
20
349.84798721792311
30
0
40
8.9998892820681888
210
0
220
0
230
1
100
AcDbArc
50
90.747787508827855
51
179.87367526952275
0
LINE
5
325
100
AcDbEntity
8
0
100
AcDbLine
10
249.03210000000001
20
329.39425999999997
30
0
11
237.99712999999997
21
329.5120500000001
31
0
0
ARC
5
326
100
AcDbEntity
8
0
100
AcDbCircle
10
85.565861536886118
20
220.99656864938609
30
0
40
8.9999027236451639
210
0
220
0
230
1
100
AcDbArc
50
269.43726686980057
51
359.43779457914763
0
LINE
5
327
100
AcDbEntity
8
0
100
AcDbLine
10
131.26660000000001
20
223.00930999999997
30
0
11
131.48737
21
211.93495000000001
31
0
0
LINE
5
328
100
AcDbEntity
8
0
100
AcDbLine
10
233.8252
20
257.57732999999996
30
0
11
233.70529000000002
21
226.23022000000009
31
0
0
ARC
5
329
100
AcDbEntity
8
0
100
AcDbCircle
10
211.39422357510585
20
358.96163622562096
30
0
40
10.000170236113608
210
0
220
-0
230
1
100
AcDbArc
50
45.129592201302351
51
90.174655317032148
0
LINE
5
330
100
AcDbEntity
8
0
100
AcDbLine
10
96.713493000000028
20
339.83694000000008
30
0
11
96.808296000000013
21
327.98708999999997
31
0
0
LINE
5
331
100
AcDbEntity
8
0
100
AcDbLine
10
155.30016999999998
20
353.78665840193332
30
0
11
145.10616758411567
21
353.83324066611914
31
0
0
ARC
5
332
100
AcDbEntity
8
0
100
AcDbCircle
10
84.262242508186347
20
221.00937865048994
30
0
40
8.9996848573402737
210
0
220
0
230
1
100
AcDbArc
50
179.17570249213426
51
224.30801698209333
0
ARC
5
333
100
AcDbEntity
8
0
100
AcDbCircle
10
242.25586733641862
20
228.41866489168464
30
0
40
8.8261919212090358
210
0
220
0
230
1
100
AcDbArc
50
194.35617388502925
51
206.92780494345283
0
LINE
5
334
100
AcDbEntity
8
0
100
AcDbLine
10
94.565331
20
220.90826000000015
30
0
11
94.622887000000006
21
226.77318
31
0
0
LINE
5
335
100
AcDbEntity
8
0
100
AcDbLine
10
236.9408
20
222.61069000000003
30
0
11
237.02515000000002
21
222.60211000000001
31
0
0
ARC
5
336
100
AcDbEntity
8
0
100
AcDbCircle
10
101.4072667099426
20
329.59127625199648
30
0
40
4.8717311566967938
210
0
220
0
230
1
100
AcDbArc
50
200.16311441508685
51
241.32611659544554
0
LINE
5
337
100
AcDbEntity
8
0
100
AcDbLine
10
122.34411999999999
20
358.84118999999998
30
0
11
121.11779
21
358.85928000000001
31
0
0
LINE
5
338
100
AcDbEntity
8
0
100
AcDbLine
10
84.174239999999983
20
212.00988999999996
30
0
11
85.477469999999997
21
211.99710000000005
31
0
0
LINE
5
339
100
AcDbEntity
8
0
100
AcDbLine
10
145.10616758411567
20
353.83324066611914
30
0
11
145.06369863983784
21
344.27506347937884
31
0
0
LINE
5
340
100
AcDbEntity
8
0
100
AcDbLine
10
131.16702000000001
20
344.22348
30
0
11
131.15487999999999
21
349.86257999999964
31
0
0
ARC
5
341
100
AcDbEntity
8
0
100
AcDbCircle
10
122.00264078165961
20
221.14512007401089
30
0
40
9.0000283142100237
210
0
220
0
230
1
100
AcDbArc
50
269.4887841719771
51
359.07648180390316
0
ARC
5
342
100
AcDbEntity
8
0
100
AcDbCircle
10
211.39412286874318
20
358.96172595688148
30
0
40
10.000177692995223
210
0
220
-0
230
1
100
AcDbArc
50
0.083272482616501775
51
45.128820572969147
0
ARC
5
343
100
AcDbEntity
8
0
100
AcDbCircle
10
247.65001696822605
20
228.32929651728253
30
0
40
5.942582991317531
210
0
220
0
230
1
100
AcDbArc
50
-43.906003022430149
51
1.2481360163415622
0
LINE
5
344
100
AcDbEntity
8
0
100
AcDbLine
10
111.29028000000004
20
344.35065000000009
30
0
11
101.22338000000001
21
344.37296000000009
31
0
0
ARC
5
345
100
AcDbEntity
8
0
100
AcDbCircle
10
14.766208973211628
20
275.63853059856035
30
0
40
4.9999266188188454
210
0
220
0
230
1
100
AcDbArc
50
269.91108737573592
51
314.91163249023515
0
LINE
5
346
100
AcDbEntity
8
0
100
AcDbLine
10
174.74417
20
354.00000527501106
30
0
11
174.74417
21
353.78644000000008
31
0
0
LINE
5
347
100
AcDbEntity
8
0
100
AcDbLine
10
174.74417
20
353.78644000000008
30
0
11
201.70002559199929
21
353.90004483982921
31
0
0
LINE
5
348
100
AcDbEntity
8
0
100
AcDbLine
10
61.175937423860908
20
236.35948796245188
30
0
11
61.322480840941154
21
241.26518510589079
31
0
0
LINE
5
349
100
AcDbEntity
8
0
100
AcDbLine
10
61.322480840941154
20
241.26518510589079
30
0
11
67.448824746406942
21
242.98040317539744
31
0
0
ARC
5
350
100
AcDbEntity
8
0
100
AcDbCircle
10
64.128329389502454
20
236.55818233446414
30
0
40
2.7355819445380929
210
0
220
-0
230
1
100
AcDbArc
50
7.7778927428386444
51
59.120524318992942
0
ARC
5
351
100
AcDbEntity
8
0
100
AcDbCircle
10
63.846648255403707
20
235.30619078709603
30
0
40
3.982984688897047
210
0
220
-0
230
1
100
AcDbArc
50
66.83701681267631
51
99.73207519509684
0
ARC
5
352
100
AcDbEntity
8
0
100
AcDbCircle
10
62.684339126963316
20
236.0877696668752
30
0
40
4.2386009552587947
210
0
220
-0
230
1
100
AcDbArc
50
2.0863609548127648
51
11.43912915434915
0
LINE
5
353
100
AcDbEntity
8
0
100
AcDbLine
10
65.473452732726628
20
238.93776435861048
30
0
11
65.5323226312033
21
238.90599228259478
31
0
0
LINE
5
354
100
AcDbEntity
8
0
100
AcDbLine
10
65.413347340728933
20
238.96810572439719
30
0
11
65.473452732726628
21
238.93776435861048
31
0
0
ENDSEC
0
SECTION
2
OBJECTS
0
DICTIONARY
5
C
100
AcDbDictionary
3
ACAD_GROUP
350
D
3
ACAD_MLINESTYLE
350
17
0
DICTIONARY
5
D
100
AcDbDictionary
0
DICTIONARY
5
1A
330
C
100
AcDbDictionary
0
DICTIONARY
5
17
100
AcDbDictionary
0
ENDSEC
0
EOF
