  0
SECTION
  2
HEADER
  9
$ACADVER
  1
AC1009
  0
ENDSEC
  0
SECTION
  2
TABLES
  0
TABLE
  2
LAYER
  70
1
  0
LAYER
  2
Layer_9
  70
0
  62
172
  6
CONTINUOUS
  0
ENDTAB
  0
ENDSEC
  0
SECTION
  2
ENTITIES
  0
POLYLINE
  5
90
  8
Layer_9
  62
172
  66
1
  10
0
  20
0
  30
0
  0
VERTEX
  5
90
  8
Layer_9
  10
68.593536
  20
148.91844
  0
VERTEX
  5
91
  8
Layer_9
  10
63.593655
  20
148.88361
  0
SEQEND
  0
POLYLINE
  5
93
  8
Layer_9
  62
172
  66
1
  10
0
  20
0
  30
0
  0
VERTEX
  5
93
  8
Layer_9
  10
174.20938
  20
176.69055
  0
VERTEX
  5
94
  8
Layer_9
  10
170.20944
  20
176.66972
  0
SEQEND
  0
POLYLINE
  5
96
  8
Layer_9
  62
172
  66
1
  10
0
  20
0
  30
0
  0
VERTEX
  5
96
  8
Layer_9
  10
91.435211
  20
172.92509
  0
VERTEX
  5
97
  8
Layer_9
  10
91.476845
  20
183.61366
  0
SEQEND
  0
POLYLINE
  5
99
  8
Layer_9
  62
172
  66
1
  10
0
  20
0
  30
0
  0
VERTEX
  5
99
  8
Layer_9
  10
272.76062
  20
182.11848
  42
0.41421356
  0
VERTEX
  5
9a
  8
Layer_9
  10
269.99231
  20
184.85008
  0
SEQEND
  0
POLYLINE
  5
9c
  8
Layer_9
  62
172
  66
1
  10
0
  20
0
  30
0
  0
VERTEX
  5
9c
  8
Layer_9
  10
269.99231
  20
184.85008
  42
0.41421356
  0
VERTEX
  5
9d
  8
Layer_9
  10
267.26074
  20
182.08179
  0
SEQEND
  0
POLYLINE
  5
9f
  8
Layer_9
  62
172
  66
1
  10
0
  20
0
  30
0
  0
VERTEX
  5
9f
  8
Layer_9
  10
267.26074
  20
182.08179
  42
0.41421356
  0
VERTEX
  5
a0
  8
Layer_9
  10
270.02902
  20
179.3502
  0
SEQEND
  0
POLYLINE
  5
a2
  8
Layer_9
  62
172
  66
1
  10
0
  20
0
  30
0
  0
VERTEX
  5
a2
  8
Layer_9
  10
270.02902
  20
179.3502
  42
0.41421356
  0
VERTEX
  5
a3
  8
Layer_9
  10
272.76062
  20
182.11848
  0
SEQEND
  0
POLYLINE
  5
a5
  8
Layer_9
  62
172
  66
1
  10
0
  20
0
  30
0
  0
VERTEX
  5
a5
  8
Layer_9
  10
71.930336
  20
130.04173
  0
VERTEX
  5
a6
  8
Layer_9
  10
71.863434
  20
90.267151
  0
SEQEND
  0
POLYLINE
  5
a8
  8
Layer_9
  62
172
  66
1
  10
0
  20
0
  30
0
  0
VERTEX
  5
a8
  8
Layer_9
  10
71.863434
  20
90.267151
  0
VERTEX
  5
a9
  8
Layer_9
  10
71.867783
  20
89.625504
  0
SEQEND
  0
POLYLINE
  5
ab
  8
Layer_9
  62
172
  66
1
  10
0
  20
0
  30
0
  0
VERTEX
  5
ab
  8
Layer_9
  10
71.867783
  20
89.625504
  42
-0.20014213
  0
VERTEX
  5
ac
  8
Layer_9
  10
70.69838
  20
86.77713
  0
SEQEND
  0
POLYLINE
  5
ae
  8
Layer_9
  62
172
  66
1
  10
0
  20
0
  30
0
  0
VERTEX
  5
ae
  8
Layer_9
  10
70.69838
  20
86.77713
  42
-0.20014956
  0
VERTEX
  5
af
  8
Layer_9
  10
67.85183
  20
85.603485
  0
SEQEND
  0
POLYLINE
  5
b1
  8
Layer_9
  62
172
  66
1
  10
0
  20
0
  30
0
  0
VERTEX
  5
b1
  8
Layer_9
  10
67.85183
  20
85.603485
  0
VERTEX
  5
b2
  8
Layer_9
  10
56.534142
  20
85.649048
  0
SEQEND
  0
POLYLINE
  5
b4
  8
Layer_9
  62
172
  66
1
  10
0
  20
0
  30
0
  0
VERTEX
  5
b4
  8
Layer_9
  10
56.534142
  20
85.649048
  42
-0.19902219
  0
VERTEX
  5
b5
  8
Layer_9
  10
53.709187
  20
86.833221
  0
SEQEND
  0
POLYLINE
  5
b7
  8
Layer_9
  62
172
  66
1
  10
0
  20
0
  30
0
  0
VERTEX
  5
b7
  8
Layer_9
  10
53.709187
  20
86.833221
  42
-0.19903823
  0
VERTEX
  5
b8
  8
Layer_9
  10
52.550228
  20
89.668594
  0
SEQEND
  0
POLYLINE
  5
ba
  8
Layer_9
  62
172
  66
1
  10
0
  20
0
  30
0
  0
VERTEX
  5
ba
  8
Layer_9
  10
52.550228
  20
89.668594
  0
VERTEX
  5
bb
  8
Layer_9
  10
52.546703
  20
88.943573
  0
SEQEND
  0
POLYLINE
  5
bd
  8
Layer_9
  62
172
  66
1
  10
0
  20
0
  30
0
  0
VERTEX
  5
bd
  8
Layer_9
  10
52.546703
  20
88.943573
  0
VERTEX
  5
be
  8
Layer_9
  10
52.273396
  20
129.18365
  0
SEQEND
  0
POLYLINE
  5
c0
  8
Layer_9
  62
172
  66
1
  10
0
  20
0
  30
0
  0
VERTEX
  5
c0
  8
Layer_9
  10
52.273396
  20
129.18365
  0
VERTEX
  5
c1
  8
Layer_9
  10
29.525002
  20
128.95442
  0
SEQEND
  0
POLYLINE
  5
c3
  8
Layer_9
  62
172
  66
1
  10
0
  20
0
  30
0
  0
VERTEX
  5
c3
  8
Layer_9
  10
29.525002
  20
128.95442
  0
VERTEX
  5
c4
  8
Layer_9
  10
28.145576
  20
128.94046
  0
SEQEND
  0
POLYLINE
  5
c6
  8
Layer_9
  62
172
  66
1
  10
0
  20
0
  30
0
  0
VERTEX
  5
c6
  8
Layer_9
  10
28.145576
  20
128.94046
  42
-0.40891217
  0
VERTEX
  5
c7
  8
Layer_9
  10
23.602074
  20
133.31332
  0
SEQEND
  0
POLYLINE
  5
c9
  8
Layer_9
  62
172
  66
1
  10
0
  20
0
  30
0
  0
VERTEX
  5
c9
  8
Layer_9
  10
23.602074
  20
133.31332
  0
VERTEX
  5
ca
  8
Layer_9
  10
23.443153
  20
138.93945
  0
SEQEND
  0
POLYLINE
  5
cc
  8
Layer_9
  62
172
  66
1
  10
0
  20
0
  30
0
  0
VERTEX
  5
cc
  8
Layer_9
  10
23.443153
  20
138.93945
  0
VERTEX
  5
cd
  8
Layer_9
  10
23.572273
  20
144.56635
  0
SEQEND
  0
POLYLINE
  5
cf
  8
Layer_9
  62
172
  66
1
  10
0
  20
0
  30
0
  0
VERTEX
  5
cf
  8
Layer_9
  10
23.572273
  20
144.56635
  42
-0.40890689
  0
VERTEX
  5
d0
  8
Layer_9
  10
28.09269
  20
148.96307
  0
SEQEND
  0
POLYLINE
  5
d2
  8
Layer_9
  62
172
  66
1
  10
0
  20
0
  30
0
  0
VERTEX
  5
d2
  8
Layer_9
  10
28.09269
  20
148.96307
  0
VERTEX
  5
d3
  8
Layer_9
  10
29.472191
  20
148.9565
  0
SEQEND
  0
POLYLINE
  5
d5
  8
Layer_9
  62
172
  66
1
  10
0
  20
0
  30
0
  0
VERTEX
  5
d5
  8
Layer_9
  10
29.472191
  20
148.9565
  0
VERTEX
  5
d6
  8
Layer_9
  10
52.221539
  20
148.8474
  0
SEQEND
  0
POLYLINE
  5
d8
  8
Layer_9
  62
172
  66
1
  10
0
  20
0
  30
0
  0
VERTEX
  5
d8
  8
Layer_9
  10
52.221539
  20
148.8474
  0
VERTEX
  5
d9
  8
Layer_9
  10
52.28223
  20
189.08829
  0
SEQEND
  0
POLYLINE
  5
db
  8
Layer_9
  62
172
  66
1
  10
0
  20
0
  30
0
  0
VERTEX
  5
db
  8
Layer_9
  10
52.28223
  20
189.08829
  0
VERTEX
  5
dc
  8
Layer_9
  10
52.289646
  20
188.36336
  0
SEQEND
  0
POLYLINE
  5
de
  8
Layer_9
  62
172
  66
1
  10
0
  20
0
  30
0
  0
VERTEX
  5
de
  8
Layer_9
  10
52.289646
  20
188.36336
  42
-0.19903517
  0
VERTEX
  5
df
  8
Layer_9
  10
53.43359
  20
191.20476
  0
SEQEND
  0
POLYLINE
  5
e1
  8
Layer_9
  62
172
  66
1
  10
0
  20
0
  30
0
  0
VERTEX
  5
e1
  8
Layer_9
  10
53.43359
  20
191.20476
  42
-0.19899768
  0
VERTEX
  5
e2
  8
Layer_9
  10
56.252201
  20
192.40384
  0
SEQEND
  0
POLYLINE
  5
e4
  8
Layer_9
  62
172
  66
1
  10
0
  20
0
  30
0
  0
VERTEX
  5
e4
  8
Layer_9
  10
56.252201
  20
192.40384
  0
VERTEX
  5
e5
  8
Layer_9
  10
67.569489
  20
192.50914
  0
SEQEND
  0
POLYLINE
  5
e7
  8
Layer_9
  62
172
  66
1
  10
0
  20
0
  30
0
  0
VERTEX
  5
e7
  8
Layer_9
  10
67.569489
  20
192.50914
  42
-0.20014592
  0
VERTEX
  5
e8
  8
Layer_9
  10
70.422218
  20
191.35059
  0
SEQEND
  0
POLYLINE
  5
ea
  8
Layer_9
  62
172
  66
1
  10
0
  20
0
  30
0
  0
VERTEX
  5
ea
  8
Layer_9
  10
70.422218
  20
191.35059
  42
-0.20014166
  0
VERTEX
  5
eb
  8
Layer_9
  10
71.60672
  20
188.50856
  0
SEQEND
  0
POLYLINE
  5
ed
  8
Layer_9
  62
172
  66
1
  10
0
  20
0
  30
0
  0
VERTEX
  5
ed
  8
Layer_9
  10
71.60672
  20
188.50856
  0
VERTEX
  5
ee
  8
Layer_9
  10
71.606598
  20
187.92769
  0
SEQEND
  0
POLYLINE
  5
f0
  8
Layer_9
  62
172
  66
1
  10
0
  20
0
  30
0
  0
VERTEX
  5
f0
  8
Layer_9
  10
71.606598
  20
187.92769
  0
VERTEX
  5
f1
  8
Layer_9
  10
71.882263
  20
148.33215
  0
SEQEND
  0
POLYLINE
  5
f3
  8
Layer_9
  62
172
  66
1
  10
0
  20
0
  30
0
  0
VERTEX
  5
f3
  8
Layer_9
  10
91.213058
  20
93.066544
  0
VERTEX
  5
f4
  8
Layer_9
  10
85.161919
  20
95.03067
  0
SEQEND
  0
POLYLINE
  5
f6
  8
Layer_9
  62
172
  66
1
  10
0
  20
0
  30
0
  0
VERTEX
  5
f6
  8
Layer_9
  10
85.161919
  20
95.03067
  0
VERTEX
  5
f7
  8
Layer_9
  10
85.270103
  20
104.85693
  0
SEQEND
  0
POLYLINE
  5
f9
  8
Layer_9
  62
172
  66
1
  10
0
  20
0
  30
0
  0
VERTEX
  5
f9
  8
Layer_9
  10
85.270103
  20
104.85693
  0
VERTEX
  5
fa
  8
Layer_9
  10
91.344421
  20
107.35912
  0
SEQEND
  0
POLYLINE
  5
fc
  8
Layer_9
  62
172
  66
1
  10
0
  20
0
  30
0
  0
VERTEX
  5
fc
  8
Layer_9
  10
62.633842
  20
185.84094
  42
0.41421356
  0
VERTEX
  5
fd
  8
Layer_9
  10
59.865555
  20
188.57254
  0
SEQEND
  0
POLYLINE
  5
ff
  8
Layer_9
  62
172
  66
1
  10
0
  20
0
  30
0
  0
VERTEX
  5
ff
  8
Layer_9
  10
59.865555
  20
188.57254
  42
0.41421356
  0
VERTEX
  5
100
  8
Layer_9
  10
57.133965
  20
185.80424
  0
SEQEND
  0
POLYLINE
  5
102
  8
Layer_9
  62
172
  66
1
  10
0
  20
0
  30
0
  0
VERTEX
  5
102
  8
Layer_9
  10
57.133965
  20
185.80424
  42
0.41421356
  0
VERTEX
  5
103
  8
Layer_9
  10
59.902256
  20
183.07266
  0
SEQEND
  0
POLYLINE
  5
105
  8
Layer_9
  62
172
  66
1
  10
0
  20
0
  30
0
  0
VERTEX
  5
105
  8
Layer_9
  10
59.902256
  20
183.07266
  42
0.41421356
  0
VERTEX
  5
106
  8
Layer_9
  10
62.633842
  20
185.84094
  0
SEQEND
  0
POLYLINE
  5
108
  8
Layer_9
  62
172
  66
1
  10
0
  20
0
  30
0
  0
VERTEX
  5
108
  8
Layer_9
  10
145.27911
  20
175.09081
  0
VERTEX
  5
109
  8
Layer_9
  10
145.31168
  20
168.83536
  0
SEQEND
  0
POLYLINE
  5
10b
  8
Layer_9
  62
172
  66
1
  10
0
  20
0
  30
0
  0
VERTEX
  5
10b
  8
Layer_9
  10
267.29907
  20
97.556381
  42
0.41421356
  0
VERTEX
  5
10c
  8
Layer_9
  10
270.06735
  20
94.824799
  0
SEQEND
  0
POLYLINE
  5
10e
  8
Layer_9
  62
172
  66
1
  10
0
  20
0
  30
0
  0
VERTEX
  5
10e
  8
Layer_9
  10
270.06735
  20
94.824799
  42
0.41421356
  0
VERTEX
  5
10f
  8
Layer_9
  10
272.79895
  20
97.593094
  0
SEQEND
  0
POLYLINE
  5
111
  8
Layer_9
  62
172
  66
1
  10
0
  20
0
  30
0
  0
VERTEX
  5
111
  8
Layer_9
  10
272.79895
  20
97.593094
  42
0.41421356
  0
VERTEX
  5
112
  8
Layer_9
  10
270.03064
  20
100.32468
  0
SEQEND
  0
POLYLINE
  5
114
  8
Layer_9
  62
172
  66
1
  10
0
  20
0
  30
0
  0
VERTEX
  5
114
  8
Layer_9
  10
270.03064
  20
100.32468
  42
0.41421356
  0
VERTEX
  5
115
  8
Layer_9
  10
267.29907
  20
97.556381
  0
SEQEND
  0
POLYLINE
  5
117
  8
Layer_9
  62
172
  66
1
  10
0
  20
0
  30
0
  0
VERTEX
  5
117
  8
Layer_9
  10
232.62515
  20
224.91736
  42
0.41421356
  0
VERTEX
  5
118
  8
Layer_9
  10
235.39343
  20
222.18578
  0
SEQEND
  0
POLYLINE
  5
11a
  8
Layer_9
  62
172
  66
1
  10
0
  20
0
  30
0
  0
VERTEX
  5
11a
  8
Layer_9
  10
235.39343
  20
222.18578
  42
0.41421356
  0
VERTEX
  5
11b
  8
Layer_9
  10
238.12503
  20
224.95407
  0
SEQEND
  0
POLYLINE
  5
11d
  8
Layer_9
  62
172
  66
1
  10
0
  20
0
  30
0
  0
VERTEX
  5
11d
  8
Layer_9
  10
238.12503
  20
224.95407
  42
0.41421356
  0
VERTEX
  5
11e
  8
Layer_9
  10
235.35672
  20
227.68565
  0
SEQEND
  0
POLYLINE
  5
120
  8
Layer_9
  62
172
  66
1
  10
0
  20
0
  30
0
  0
VERTEX
  5
120
  8
Layer_9
  10
235.35672
  20
227.68565
  42
0.41421356
  0
VERTEX
  5
121
  8
Layer_9
  10
232.62515
  20
224.91736
  0
SEQEND
  0
POLYLINE
  5
123
  8
Layer_9
  62
172
  66
1
  10
0
  20
0
  30
0
  0
VERTEX
  5
123
  8
Layer_9
  10
252.32544
  20
160.48289
  0
VERTEX
  5
124
  8
Layer_9
  10
247.32547
  20
160.45686
  0
SEQEND
  0
POLYLINE
  5
126
  8
Layer_9
  62
172
  66
1
  10
0
  20
0
  30
0
  0
VERTEX
  5
126
  8
Layer_9
  10
87.094345
  20
96.986664
  42
0.14452741
  0
VERTEX
  5
127
  8
Layer_9
  10
89.343231
  20
97.158661
  0
SEQEND
  0
POLYLINE
  5
129
  8
Layer_9
  62
172
  66
1
  10
0
  20
0
  30
0
  0
VERTEX
  5
129
  8
Layer_9
  10
89.343231
  20
97.158661
  0
VERTEX
  5
12a
  8
Layer_9
  10
89.404526
  20
97.186523
  0
SEQEND
  0
POLYLINE
  5
12c
  8
Layer_9
  62
172
  66
1
  10
0
  20
0
  30
0
  0
VERTEX
  5
12c
  8
Layer_9
  10
89.404526
  20
97.186523
  0
VERTEX
  5
12d
  8
Layer_9
  10
89.464645
  20
97.215866
  0
SEQEND
  0
POLYLINE
  5
12f
  8
Layer_9
  62
172
  66
1
  10
0
  20
0
  30
0
  0
VERTEX
  5
12f
  8
Layer_9
  10
89.464645
  20
97.215866
  42
0.22785035
  0
VERTEX
  5
130
  8
Layer_9
  10
90.850792
  20
99.138428
  0
SEQEND
  0
POLYLINE
  5
132
  8
Layer_9
  62
172
  66
1
  10
0
  20
0
  30
0
  0
VERTEX
  5
132
  8
Layer_9
  10
90.850792
  20
99.138428
  42
0.1985555
  0
VERTEX
  5
133
  8
Layer_9
  10
90.361992
  20
102.34013
  0
SEQEND
  0
POLYLINE
  5
135
  8
Layer_9
  62
172
  66
1
  10
0
  20
0
  30
0
  0
VERTEX
  5
135
  8
Layer_9
  10
90.361992
  20
102.34013
  42
0.24289347
  0
VERTEX
  5
136
  8
Layer_9
  10
88.112778
  20
103.52782
  0
SEQEND
  0
POLYLINE
  5
138
  8
Layer_9
  62
172
  66
1
  10
0
  20
0
  30
0
  0
VERTEX
  5
138
  8
Layer_9
  10
88.112778
  20
103.52782
  42
0.040069497
  0
VERTEX
  5
139
  8
Layer_9
  10
87.267189
  20
103.50929
  0
SEQEND
  0
POLYLINE
  5
13b
  8
Layer_9
  62
172
  66
1
  10
0
  20
0
  30
0
  0
VERTEX
  5
13b
  8
Layer_9
  10
257.63745
  20
159.50587
  0
VERTEX
  5
13c
  8
Layer_9
  10
256.71695
  20
218.11783
  0
SEQEND
  0
POLYLINE
  5
13e
  8
Layer_9
  62
172
  66
1
  10
0
  20
0
  30
0
  0
VERTEX
  5
13e
  8
Layer_9
  10
256.71695
  20
218.11783
  0
VERTEX
  5
13f
  8
Layer_9
  10
245.43613
  20
217.7814
  0
SEQEND
  0
POLYLINE
  5
141
  8
Layer_9
  62
172
  66
1
  10
0
  20
0
  30
0
  0
VERTEX
  5
141
  8
Layer_9
  10
245.43613
  20
217.7814
  0
VERTEX
  5
142
  8
Layer_9
  10
245.4343
  20
222.55502
  0
SEQEND
  0
POLYLINE
  5
144
  8
Layer_9
  62
172
  66
1
  10
0
  20
0
  30
0
  0
VERTEX
  5
144
  8
Layer_9
  10
245.4343
  20
222.55502
  42
0.1991195
  0
VERTEX
  5
145
  8
Layer_9
  10
242.48941
  20
229.62756
  0
SEQEND
  0
POLYLINE
  5
147
  8
Layer_9
  62
172
  66
1
  10
0
  20
0
  30
0
  0
VERTEX
  5
147
  8
Layer_9
  10
242.48941
  20
229.62756
  42
0.19911966
  0
VERTEX
  5
148
  8
Layer_9
  10
235.40375
  20
232.54053
  0
SEQEND
  0
POLYLINE
  5
14a
  8
Layer_9
  62
172
  66
1
  10
0
  20
0
  30
0
  0
VERTEX
  5
14a
  8
Layer_9
  10
235.40375
  20
232.54053
  0
VERTEX
  5
14b
  8
Layer_9
  10
235.86166
  20
232.54198
  0
SEQEND
  0
POLYLINE
  5
14d
  8
Layer_9
  62
172
  66
1
  10
0
  20
0
  30
0
  0
VERTEX
  5
14d
  8
Layer_9
  10
235.86166
  20
232.54198
  0
VERTEX
  5
14e
  8
Layer_9
  10
234.54227
  20
232.51648
  0
SEQEND
  0
POLYLINE
  5
150
  8
Layer_9
  62
172
  66
1
  10
0
  20
0
  30
0
  0
VERTEX
  5
150
  8
Layer_9
  10
234.54227
  20
232.51648
  42
0.40898839
  0
VERTEX
  5
151
  8
Layer_9
  10
225.71613
  20
223.50517
  0
SEQEND
  0
POLYLINE
  5
153
  8
Layer_9
  62
172
  66
1
  10
0
  20
0
  30
0
  0
VERTEX
  5
153
  8
Layer_9
  10
225.71613
  20
223.50517
  0
VERTEX
  5
154
  8
Layer_9
  10
225.7244
  20
217.82422
  0
SEQEND
  0
POLYLINE
  5
156
  8
Layer_9
  62
172
  66
1
  10
0
  20
0
  30
0
  0
VERTEX
  5
156
  8
Layer_9
  10
225.7244
  20
217.82422
  0
VERTEX
  5
157
  8
Layer_9
  10
198.76062
  20
217.78528
  0
SEQEND
  0
POLYLINE
  5
159
  8
Layer_9
  62
172
  66
1
  10
0
  20
0
  30
0
  0
VERTEX
  5
159
  8
Layer_9
  10
198.76062
  20
217.78528
  0
VERTEX
  5
15a
  8
Layer_9
  10
198.78419
  20
222.93631
  0
SEQEND
  0
POLYLINE
  5
15c
  8
Layer_9
  62
172
  66
1
  10
0
  20
0
  30
0
  0
VERTEX
  5
15c
  8
Layer_9
  10
198.78419
  20
222.93631
  42
0.41421491
  0
VERTEX
  5
15d
  8
Layer_9
  10
189.82413
  20
231.98186
  0
SEQEND
  0
POLYLINE
  5
15f
  8
Layer_9
  62
172
  66
1
  10
0
  20
0
  30
0
  0
VERTEX
  5
15f
  8
Layer_9
  10
189.82413
  20
231.98186
  0
VERTEX
  5
160
  8
Layer_9
  10
188.76607
  20
232.00455
  0
SEQEND
  0
POLYLINE
  5
162
  8
Layer_9
  62
172
  66
1
  10
0
  20
0
  30
0
  0
VERTEX
  5
162
  8
Layer_9
  10
188.76607
  20
232.00455
  42
0.20032136
  0
VERTEX
  5
163
  8
Layer_9
  10
182.31201
  20
229.47174
  0
SEQEND
  0
POLYLINE
  5
165
  8
Layer_9
  62
172
  66
1
  10
0
  20
0
  30
0
  0
VERTEX
  5
165
  8
Layer_9
  10
182.31201
  20
229.47174
  42
0.20032067
  0
VERTEX
  5
166
  8
Layer_9
  10
179.57367
  20
223.10223
  0
SEQEND
  0
POLYLINE
  5
168
  8
Layer_9
  62
172
  66
1
  10
0
  20
0
  30
0
  0
VERTEX
  5
168
  8
Layer_9
  10
179.57367
  20
223.10223
  0
VERTEX
  5
169
  8
Layer_9
  10
179.5127
  20
217.3652
  0
SEQEND
  0
POLYLINE
  5
16b
  8
Layer_9
  62
172
  66
1
  10
0
  20
0
  30
0
  0
VERTEX
  5
16b
  8
Layer_9
  10
179.5127
  20
217.3652
  0
VERTEX
  5
16c
  8
Layer_9
  10
169.14619
  20
217.41252
  0
SEQEND
  0
POLYLINE
  5
16e
  8
Layer_9
  62
172
  66
1
  10
0
  20
0
  30
0
  0
VERTEX
  5
16e
  8
Layer_9
  10
169.14619
  20
217.41252
  0
VERTEX
  5
16f
  8
Layer_9
  10
169.10248
  20
207.83224
  0
SEQEND
  0
POLYLINE
  5
171
  8
Layer_9
  62
172
  66
1
  10
0
  20
0
  30
0
  0
VERTEX
  5
171
  8
Layer_9
  10
169.10248
  20
207.83224
  0
VERTEX
  5
172
  8
Layer_9
  10
155.20703
  20
207.80225
  0
SEQEND
  0
POLYLINE
  5
174
  8
Layer_9
  62
172
  66
1
  10
0
  20
0
  30
0
  0
VERTEX
  5
174
  8
Layer_9
  10
155.20703
  20
207.80225
  0
VERTEX
  5
175
  8
Layer_9
  10
155.19489
  20
213.44136
  0
SEQEND
  0
POLYLINE
  5
177
  8
Layer_9
  62
172
  66
1
  10
0
  20
0
  30
0
  0
VERTEX
  5
177
  8
Layer_9
  10
155.19489
  20
213.44136
  42
0.4074412
  0
VERTEX
  5
178
  8
Layer_9
  10
146.38414
  20
222.41992
  0
SEQEND
  0
POLYLINE
  5
17a
  8
Layer_9
  62
172
  66
1
  10
0
  20
0
  30
0
  0
VERTEX
  5
17a
  8
Layer_9
  10
146.38414
  20
222.41992
  0
VERTEX
  5
17b
  8
Layer_9
  10
145.15781
  20
222.43805
  0
SEQEND
  0
POLYLINE
  5
17d
  8
Layer_9
  62
172
  66
1
  10
0
  20
0
  30
0
  0
VERTEX
  5
17d
  8
Layer_9
  10
145.15781
  20
222.43805
  0
VERTEX
  5
17e
  8
Layer_9
  10
144.22502
  20
222.42587
  0
SEQEND
  0
POLYLINE
  5
180
  8
Layer_9
  62
172
  66
1
  10
0
  20
0
  30
0
  0
VERTEX
  5
180
  8
Layer_9
  10
144.22502
  20
222.42587
  42
0.40975223
  0
VERTEX
  5
181
  8
Layer_9
  10
135.34262
  20
213.44658
  0
SEQEND
  0
POLYLINE
  5
183
  8
Layer_9
  62
172
  66
1
  10
0
  20
0
  30
0
  0
VERTEX
  5
183
  8
Layer_9
  10
135.34262
  20
213.44658
  0
VERTEX
  5
184
  8
Layer_9
  10
135.33029
  20
207.92941
  0
SEQEND
  0
POLYLINE
  5
186
  8
Layer_9
  62
172
  66
1
  10
0
  20
0
  30
0
  0
VERTEX
  5
186
  8
Layer_9
  10
135.33029
  20
207.92941
  0
VERTEX
  5
187
  8
Layer_9
  10
125.26339
  20
207.95172
  0
SEQEND
  0
POLYLINE
  5
189
  8
Layer_9
  62
172
  66
1
  10
0
  20
0
  30
0
  0
VERTEX
  5
189
  8
Layer_9
  10
125.26339
  20
207.95172
  42
0.20023323
  0
VERTEX
  5
18a
  8
Layer_9
  10
122.06219
  20
206.62448
  0
SEQEND
  0
POLYLINE
  5
18c
  8
Layer_9
  62
172
  66
1
  10
0
  20
0
  30
0
  0
VERTEX
  5
18c
  8
Layer_9
  10
122.06219
  20
206.62448
  42
0.20023263
  0
VERTEX
  5
18d
  8
Layer_9
  10
120.75352
  20
203.41571
  0
SEQEND
  0
POLYLINE
  5
18f
  8
Layer_9
  62
172
  66
1
  10
0
  20
0
  30
0
  0
VERTEX
  5
18f
  8
Layer_9
  10
120.75352
  20
203.41571
  0
VERTEX
  5
190
  8
Layer_9
  10
120.84831
  20
191.56587
  0
SEQEND
  0
POLYLINE
  5
192
  8
Layer_9
  62
172
  66
1
  10
0
  20
0
  30
0
  0
VERTEX
  5
192
  8
Layer_9
  10
120.84831
  20
191.56587
  0
VERTEX
  5
193
  8
Layer_9
  10
120.87411
  20
191.49078
  0
SEQEND
  0
POLYLINE
  5
195
  8
Layer_9
  62
172
  66
1
  10
0
  20
0
  30
0
  0
VERTEX
  5
195
  8
Layer_9
  10
120.87411
  20
191.49078
  42
0.18184245
  0
VERTEX
  5
196
  8
Layer_9
  10
123.11435
  20
188.89323
  0
SEQEND
  0
POLYLINE
  5
198
  8
Layer_9
  62
172
  66
1
  10
0
  20
0
  30
0
  0
VERTEX
  5
198
  8
Layer_9
  10
123.11435
  20
188.89323
  42
0.041280181
  0
VERTEX
  5
199
  8
Layer_9
  10
124.85596
  20
188.01874
  0
SEQEND
  0
POLYLINE
  5
19b
  8
Layer_9
  62
172
  66
1
  10
0
  20
0
  30
0
  0
VERTEX
  5
19b
  8
Layer_9
  10
71.863434
  20
90.267151
  0
VERTEX
  5
19c
  8
Layer_9
  10
99.384659
  20
90.357101
  0
SEQEND
  0
POLYLINE
  5
19e
  8
Layer_9
  62
172
  66
1
  10
0
  20
0
  30
0
  0
VERTEX
  5
19e
  8
Layer_9
  10
99.384659
  20
90.357101
  0
VERTEX
  5
19f
  8
Layer_9
  10
99.303513
  20
84.717621
  0
SEQEND
  0
POLYLINE
  5
1a1
  8
Layer_9
  62
172
  66
1
  10
0
  20
0
  30
0
  0
VERTEX
  5
1a1
  8
Layer_9
  10
99.303513
  20
84.717621
  42
0.19951216
  0
VERTEX
  5
1a2
  8
Layer_9
  10
101.86213
  20
78.301727
  0
SEQEND
  0
POLYLINE
  5
1a4
  8
Layer_9
  62
172
  66
1
  10
0
  20
0
  30
0
  0
VERTEX
  5
1a4
  8
Layer_9
  10
101.86213
  20
78.301727
  42
0.19950044
  0
VERTEX
  5
1a5
  8
Layer_9
  10
108.21426
  20
75.588654
  0
SEQEND
  0
POLYLINE
  5
1a7
  8
Layer_9
  62
172
  66
1
  10
0
  20
0
  30
0
  0
VERTEX
  5
1a7
  8
Layer_9
  10
108.21426
  20
75.588654
  0
VERTEX
  5
1a8
  8
Layer_9
  10
109.51748
  20
75.575867
  0
SEQEND
  0
POLYLINE
  5
1aa
  8
Layer_9
  62
172
  66
1
  10
0
  20
0
  30
0
  0
VERTEX
  5
1aa
  8
Layer_9
  10
109.51748
  20
75.575867
  42
0.41421503
  0
VERTEX
  5
1ab
  8
Layer_9
  10
118.60536
  20
84.48703
  0
SEQEND
  0
POLYLINE
  5
1ad
  8
Layer_9
  62
172
  66
1
  10
0
  20
0
  30
0
  0
VERTEX
  5
1ad
  8
Layer_9
  10
118.60536
  20
84.48703
  0
VERTEX
  5
1ae
  8
Layer_9
  10
118.6629
  20
90.351944
  0
SEQEND
  0
POLYLINE
  5
1b0
  8
Layer_9
  62
172
  66
1
  10
0
  20
0
  30
0
  0
VERTEX
  5
1b0
  8
Layer_9
  10
118.6629
  20
90.351944
  0
VERTEX
  5
1b1
  8
Layer_9
  10
135.43279
  20
90.467575
  0
SEQEND
  0
POLYLINE
  5
1b3
  8
Layer_9
  62
172
  66
1
  10
0
  20
0
  30
0
  0
VERTEX
  5
1b3
  8
Layer_9
  10
135.43279
  20
90.467575
  0
VERTEX
  5
1b4
  8
Layer_9
  10
135.40546
  20
84.781647
  0
SEQEND
  0
POLYLINE
  5
1b6
  8
Layer_9
  62
172
  66
1
  10
0
  20
0
  30
0
  0
VERTEX
  5
1b6
  8
Layer_9
  10
135.40546
  20
84.781647
  42
0.41300922
  0
VERTEX
  5
1b7
  8
Layer_9
  10
144.32503
  20
75.7388
  0
SEQEND
  0
POLYLINE
  5
1b9
  8
Layer_9
  62
172
  66
1
  10
0
  20
0
  30
0
  0
VERTEX
  5
1b9
  8
Layer_9
  10
144.32503
  20
75.7388
  0
VERTEX
  5
1ba
  8
Layer_9
  10
145.96236
  20
75.724213
  0
SEQEND
  0
POLYLINE
  5
1bc
  8
Layer_9
  62
172
  66
1
  10
0
  20
0
  30
0
  0
VERTEX
  5
1bc
  8
Layer_9
  10
145.96236
  20
75.724213
  42
0.41210817
  0
VERTEX
  5
1bd
  8
Layer_9
  10
155.0415
  20
84.578827
  0
SEQEND
  0
POLYLINE
  5
1bf
  8
Layer_9
  62
172
  66
1
  10
0
  20
0
  30
0
  0
VERTEX
  5
1bf
  8
Layer_9
  10
155.0415
  20
84.578827
  0
VERTEX
  5
1c0
  8
Layer_9
  10
155.13846
  20
90.593277
  0
SEQEND
  0
POLYLINE
  5
1c2
  8
Layer_9
  62
172
  66
1
  10
0
  20
0
  30
0
  0
VERTEX
  5
1c2
  8
Layer_9
  10
155.13846
  20
90.593277
  0
VERTEX
  5
1c3
  8
Layer_9
  10
158.69127
  20
90.587494
  0
SEQEND
  0
POLYLINE
  5
1c5
  8
Layer_9
  62
172
  66
1
  10
0
  20
0
  30
0
  0
VERTEX
  5
1c5
  8
Layer_9
  10
86.226715
  20
178.26961
  0
VERTEX
  5
1c6
  8
Layer_9
  10
96.726715
  20
178.27217
  0
SEQEND
  0
POLYLINE
  5
1c8
  8
Layer_9
  62
172
  66
1
  10
0
  20
0
  30
0
  0
VERTEX
  5
1c8
  8
Layer_9
  10
161.39209
  20
110.33614
  0
VERTEX
  5
1c9
  8
Layer_9
  10
165.87695
  20
110.31436
  0
SEQEND
  0
POLYLINE
  5
1cb
  8
Layer_9
  62
172
  66
1
  10
0
  20
0
  30
0
  0
VERTEX
  5
1cb
  8
Layer_9
  10
233.44
  20
217.93057
  0
VERTEX
  5
1cc
  8
Layer_9
  10
228.44011
  20
217.89722
  0
SEQEND
  0
POLYLINE
  5
1ce
  8
Layer_9
  62
172
  66
1
  10
0
  20
0
  30
0
  0
VERTEX
  5
1ce
  8
Layer_9
  10
100.34058
  20
129.30994
  0
VERTEX
  5
1cf
  8
Layer_9
  10
95.340683
  20
129.27657
  0
SEQEND
  0
POLYLINE
  5
1d1
  8
Layer_9
  62
172
  66
1
  10
0
  20
0
  30
0
  0
VERTEX
  5
1d1
  8
Layer_9
  10
257.8652
  20
121.15608
  0
VERTEX
  5
1d2
  8
Layer_9
  10
257.7453
  20
89.80899
  0
SEQEND
  0
POLYLINE
  5
1d4
  8
Layer_9
  62
172
  66
1
  10
0
  20
0
  30
0
  0
VERTEX
  5
1d4
  8
Layer_9
  10
257.7453
  20
89.80899
  42
0.054913196
  0
VERTEX
  5
1d5
  8
Layer_9
  10
258.42661
  20
88.000336
  0
SEQEND
  0
POLYLINE
  5
1d7
  8
Layer_9
  62
172
  66
1
  10
0
  20
0
  30
0
  0
VERTEX
  5
1d7
  8
Layer_9
  10
258.42661
  20
88.000336
  42
0.26100014
  0
VERTEX
  5
1d8
  8
Layer_9
  10
260.89795
  20
86.199646
  0
SEQEND
  0
POLYLINE
  5
1da
  8
Layer_9
  62
172
  66
1
  10
0
  20
0
  30
0
  0
VERTEX
  5
1da
  8
Layer_9
  10
260.89795
  20
86.199646
  0
VERTEX
  5
1db
  8
Layer_9
  10
260.9808
  20
86.189453
  0
SEQEND
  0
POLYLINE
  5
1dd
  8
Layer_9
  62
172
  66
1
  10
0
  20
0
  30
0
  0
VERTEX
  5
1dd
  8
Layer_9
  10
260.9808
  20
86.189453
  0
VERTEX
  5
1de
  8
Layer_9
  10
261.06516
  20
86.180878
  0
SEQEND
  0
POLYLINE
  5
1e0
  8
Layer_9
  62
172
  66
1
  10
0
  20
0
  30
0
  0
VERTEX
  5
1e0
  8
Layer_9
  10
261.06516
  20
86.180878
  0
VERTEX
  5
1e1
  8
Layer_9
  10
261.14789
  20
86.174164
  0
SEQEND
  0
POLYLINE
  5
1e3
  8
Layer_9
  62
172
  66
1
  10
0
  20
0
  30
0
  0
VERTEX
  5
1e3
  8
Layer_9
  10
261.14789
  20
86.174164
  0
VERTEX
  5
1e4
  8
Layer_9
  10
271.65814
  20
86.03952
  0
SEQEND
  0
POLYLINE
  5
1e6
  8
Layer_9
  62
172
  66
1
  10
0
  20
0
  30
0
  0
VERTEX
  5
1e6
  8
Layer_9
  10
271.65814
  20
86.03952
  42
0.20264626
  0
VERTEX
  5
1e7
  8
Layer_9
  10
275.97153
  20
87.787018
  0
SEQEND
  0
POLYLINE
  5
1e9
  8
Layer_9
  62
172
  66
1
  10
0
  20
0
  30
0
  0
VERTEX
  5
1e9
  8
Layer_9
  10
275.97153
  20
87.787018
  42
0.19960618
  0
VERTEX
  5
1ea
  8
Layer_9
  10
277.6312
  20
92.037506
  0
SEQEND
  0
POLYLINE
  5
1ec
  8
Layer_9
  62
172
  66
1
  10
0
  20
0
  30
0
  0
VERTEX
  5
1ec
  8
Layer_9
  10
277.6312
  20
92.037506
  0
VERTEX
  5
1ed
  8
Layer_9
  10
277.40335
  20
188.8593
  0
SEQEND
  0
POLYLINE
  5
1ef
  8
Layer_9
  62
172
  66
1
  10
0
  20
0
  30
0
  0
VERTEX
  5
1ef
  8
Layer_9
  10
277.40335
  20
188.8593
  42
0.20105893
  0
VERTEX
  5
1f0
  8
Layer_9
  10
276.0997
  20
191.82373
  0
SEQEND
  0
POLYLINE
  5
1f2
  8
Layer_9
  62
172
  66
1
  10
0
  20
0
  30
0
  0
VERTEX
  5
1f2
  8
Layer_9
  10
276.0997
  20
191.82373
  42
0.20106063
  0
VERTEX
  5
1f3
  8
Layer_9
  10
273.07211
  20
192.97301
  0
SEQEND
  0
POLYLINE
  5
1f5
  8
Layer_9
  62
172
  66
1
  10
0
  20
0
  30
0
  0
VERTEX
  5
1f5
  8
Layer_9
  10
273.07211
  20
192.97301
  0
VERTEX
  5
1f6
  8
Layer_9
  10
262.03714
  20
193.09082
  0
SEQEND
  0
POLYLINE
  5
1f8
  8
Layer_9
  62
172
  66
1
  10
0
  20
0
  30
0
  0
VERTEX
  5
1f8
  8
Layer_9
  10
262.03714
  20
193.09082
  0
VERTEX
  5
1f9
  8
Layer_9
  10
262.02689
  20
193.09372
  0
SEQEND
  0
POLYLINE
  5
1fb
  8
Layer_9
  62
172
  66
1
  10
0
  20
0
  30
0
  0
VERTEX
  5
1fb
  8
Layer_9
  10
262.02689
  20
193.09372
  0
VERTEX
  5
1fc
  8
Layer_9
  10
261.97845
  20
193.10551
  0
SEQEND
  0
POLYLINE
  5
1fe
  8
Layer_9
  62
172
  66
1
  10
0
  20
0
  30
0
  0
VERTEX
  5
1fe
  8
Layer_9
  10
261.97845
  20
193.10551
  0
VERTEX
  5
1ff
  8
Layer_9
  10
261.61041
  20
193.09973
  0
SEQEND
  0
POLYLINE
  5
201
  8
Layer_9
  62
172
  66
1
  10
0
  20
0
  30
0
  0
VERTEX
  5
201
  8
Layer_9
  10
261.61041
  20
193.09973
  42
0.41421356
  0
VERTEX
  5
202
  8
Layer_9
  10
257.18167
  20
188.5296
  0
SEQEND
  0
POLYLINE
  5
204
  8
Layer_9
  62
172
  66
1
  10
0
  20
0
  30
0
  0
VERTEX
  5
204
  8
Layer_9
  10
257.18167
  20
188.5296
  0
VERTEX
  5
205
  8
Layer_9
  10
257.1449
  20
190.87001
  0
SEQEND
  0
POLYLINE
  5
207
  8
Layer_9
  62
172
  66
1
  10
0
  20
0
  30
0
  0
VERTEX
  5
207
  8
Layer_9
  10
232.32568
  20
160.37883
  0
VERTEX
  5
208
  8
Layer_9
  10
227.32578
  20
160.35275
  0
SEQEND
  0
POLYLINE
  5
20a
  8
Layer_9
  62
172
  66
1
  10
0
  20
0
  30
0
  0
VERTEX
  5
20a
  8
Layer_9
  10
232.52005
  20
107.95413
  42
0.41421356
  0
VERTEX
  5
20b
  8
Layer_9
  10
235.28833
  20
105.22255
  0
SEQEND
  0
POLYLINE
  5
20d
  8
Layer_9
  62
172
  66
1
  10
0
  20
0
  30
0
  0
VERTEX
  5
20d
  8
Layer_9
  10
235.28833
  20
105.22255
  42
0.41421356
  0
VERTEX
  5
20e
  8
Layer_9
  10
238.01993
  20
107.99083
  0
SEQEND
  0
POLYLINE
  5
210
  8
Layer_9
  62
172
  66
1
  10
0
  20
0
  30
0
  0
VERTEX
  5
210
  8
Layer_9
  10
238.01993
  20
107.99083
  42
0.41421356
  0
VERTEX
  5
211
  8
Layer_9
  10
235.25165
  20
110.72243
  0
SEQEND
  0
POLYLINE
  5
213
  8
Layer_9
  62
172
  66
1
  10
0
  20
0
  30
0
  0
VERTEX
  5
213
  8
Layer_9
  10
235.25165
  20
110.72243
  42
0.41421356
  0
VERTEX
  5
214
  8
Layer_9
  10
232.52005
  20
107.95413
  0
SEQEND
  0
POLYLINE
  5
216
  8
Layer_9
  62
172
  66
1
  10
0
  20
0
  30
0
  0
VERTEX
  5
216
  8
Layer_9
  10
104.56226
  20
177.34271
  42
0.4142146
  0
VERTEX
  5
217
  8
Layer_9
  10
108.99152
  20
172.97215
  0
SEQEND
  0
POLYLINE
  5
219
  8
Layer_9
  62
172
  66
1
  10
0
  20
0
  30
0
  0
VERTEX
  5
219
  8
Layer_9
  10
108.99152
  20
172.97215
  42
0.4142069
  0
VERTEX
  5
21a
  8
Layer_9
  10
113.36206
  20
177.40143
  0
SEQEND
  0
POLYLINE
  5
21c
  8
Layer_9
  62
172
  66
1
  10
0
  20
0
  30
0
  0
VERTEX
  5
21c
  8
Layer_9
  10
113.36206
  20
177.40143
  42
0.41421057
  0
VERTEX
  5
21d
  8
Layer_9
  10
108.93279
  20
181.77194
  0
SEQEND
  0
POLYLINE
  5
21f
  8
Layer_9
  62
172
  66
1
  10
0
  20
0
  30
0
  0
VERTEX
  5
21f
  8
Layer_9
  10
108.93279
  20
181.77194
  42
0.41421161
  0
VERTEX
  5
220
  8
Layer_9
  10
104.56226
  20
177.34271
  0
SEQEND
  0
POLYLINE
  5
222
  8
Layer_9
  62
172
  66
1
  10
0
  20
0
  30
0
  0
VERTEX
  5
222
  8
Layer_9
  10
256.84631
  20
100.98152
  0
VERTEX
  5
223
  8
Layer_9
  10
252.81119
  20
100.95461
  0
SEQEND
  0
POLYLINE
  5
225
  8
Layer_9
  62
172
  66
1
  10
0
  20
0
  30
0
  0
VERTEX
  5
225
  8
Layer_9
  10
227.81174
  20
100.78766
  0
VERTEX
  5
226
  8
Layer_9
  10
222.81186
  20
100.75424
  0
SEQEND
  0
POLYLINE
  5
228
  8
Layer_9
  62
172
  66
1
  10
0
  20
0
  30
0
  0
VERTEX
  5
228
  8
Layer_9
  10
179.36331
  20
176.71738
  0
VERTEX
  5
229
  8
Layer_9
  10
176.36334
  20
176.70175
  0
SEQEND
  0
POLYLINE
  5
22b
  8
Layer_9
  62
172
  66
1
  10
0
  20
0
  30
0
  0
VERTEX
  5
22b
  8
Layer_9
  10
247.26332
  20
177.06998
  0
VERTEX
  5
22c
  8
Layer_9
  10
242.26341
  20
177.04399
  0
SEQEND
  0
POLYLINE
  5
22e
  8
Layer_9
  62
172
  66
1
  10
0
  20
0
  30
0
  0
VERTEX
  5
22e
  8
Layer_9
  10
108.84014
  20
158.60022
  42
0.41421356
  0
VERTEX
  5
22f
  8
Layer_9
  10
111.57173
  20
161.3685
  0
SEQEND
  0
POLYLINE
  5
231
  8
Layer_9
  62
172
  66
1
  10
0
  20
0
  30
0
  0
VERTEX
  5
231
  8
Layer_9
  10
111.57173
  20
161.3685
  42
0.41421356
  0
VERTEX
  5
232
  8
Layer_9
  10
108.80344
  20
164.1001
  0
SEQEND
  0
POLYLINE
  5
234
  8
Layer_9
  62
172
  66
1
  10
0
  20
0
  30
0
  0
VERTEX
  5
234
  8
Layer_9
  10
108.80344
  20
164.1001
  42
0.41421365
  0
VERTEX
  5
235
  8
Layer_9
  10
106.07185
  20
161.3318
  0
SEQEND
  0
POLYLINE
  5
237
  8
Layer_9
  62
172
  66
1
  10
0
  20
0
  30
0
  0
VERTEX
  5
237
  8
Layer_9
  10
106.07185
  20
161.3318
  42
0.41421356
  0
VERTEX
  5
238
  8
Layer_9
  10
108.84014
  20
158.60022
  0
SEQEND
  0
POLYLINE
  5
23a
  8
Layer_9
  62
172
  66
1
  10
0
  20
0
  30
0
  0
VERTEX
  5
23a
  8
Layer_9
  10
104.96385
  20
99.415283
  42
0.41421167
  0
VERTEX
  5
23b
  8
Layer_9
  10
109.39312
  20
95.044708
  0
SEQEND
  0
POLYLINE
  5
23d
  8
Layer_9
  62
172
  66
1
  10
0
  20
0
  30
0
  0
VERTEX
  5
23d
  8
Layer_9
  10
109.39312
  20
95.044708
  42
0.41421264
  0
VERTEX
  5
23e
  8
Layer_9
  10
113.76366
  20
99.473999
  0
SEQEND
  0
POLYLINE
  5
240
  8
Layer_9
  62
172
  66
1
  10
0
  20
0
  30
0
  0
VERTEX
  5
240
  8
Layer_9
  10
113.76366
  20
99.473999
  42
0.41420988
  0
VERTEX
  5
241
  8
Layer_9
  10
109.3344
  20
103.8446
  0
SEQEND
  0
POLYLINE
  5
243
  8
Layer_9
  62
172
  66
1
  10
0
  20
0
  30
0
  0
VERTEX
  5
243
  8
Layer_9
  10
109.3344
  20
103.8446
  42
0.41421
  0
VERTEX
  5
244
  8
Layer_9
  10
104.96385
  20
99.415283
  0
SEQEND
  0
POLYLINE
  5
246
  8
Layer_9
  62
172
  66
1
  10
0
  20
0
  30
0
  0
VERTEX
  5
246
  8
Layer_9
  10
112.1383
  20
82.54837
  42
0.41421356
  0
VERTEX
  5
247
  8
Layer_9
  10
109.37001
  20
85.279938
  0
SEQEND
  0
POLYLINE
  5
249
  8
Layer_9
  62
172
  66
1
  10
0
  20
0
  30
0
  0
VERTEX
  5
249
  8
Layer_9
  10
109.37001
  20
85.279938
  42
0.41421365
  0
VERTEX
  5
24a
  8
Layer_9
  10
106.63842
  20
82.511658
  0
SEQEND
  0
POLYLINE
  5
24c
  8
Layer_9
  62
172
  66
1
  10
0
  20
0
  30
0
  0
VERTEX
  5
24c
  8
Layer_9
  10
106.63842
  20
82.511658
  42
0.41421356
  0
VERTEX
  5
24d
  8
Layer_9
  10
109.40671
  20
79.78006
  0
SEQEND
  0
POLYLINE
  5
24f
  8
Layer_9
  62
172
  66
1
  10
0
  20
0
  30
0
  0
VERTEX
  5
24f
  8
Layer_9
  10
109.40671
  20
79.78006
  42
0.41421356
  0
VERTEX
  5
250
  8
Layer_9
  10
112.1383
  20
82.54837
  0
SEQEND
  0
POLYLINE
  5
252
  8
Layer_9
  62
172
  66
1
  10
0
  20
0
  30
0
  0
VERTEX
  5
252
  8
Layer_9
  10
207.86615
  20
100.34055
  0
VERTEX
  5
253
  8
Layer_9
  10
202.86646
  20
100.39439
  0
SEQEND
  0
POLYLINE
  5
255
  8
Layer_9
  62
172
  66
1
  10
0
  20
0
  30
0
  0
VERTEX
  5
255
  8
Layer_9
  10
77.721085
  20
149.36459
  0
VERTEX
  5
256
  8
Layer_9
  10
81.74176
  20
149.40149
  0
SEQEND
  0
POLYLINE
  5
258
  8
Layer_9
  62
172
  66
1
  10
0
  20
0
  30
0
  0
VERTEX
  5
258
  8
Layer_9
  10
110.93123
  20
110.41507
  0
VERTEX
  5
259
  8
Layer_9
  10
115.93112
  20
110.44843
  0
SEQEND
  0
POLYLINE
  5
25b
  8
Layer_9
  62
172
  66
1
  10
0
  20
0
  30
0
  0
VERTEX
  5
25b
  8
Layer_9
  10
197.56638
  20
119.74907
  0
VERTEX
  5
25c
  8
Layer_9
  10
202.56627
  20
119.78244
  0
SEQEND
  0
POLYLINE
  5
25e
  8
Layer_9
  62
172
  66
1
  10
0
  20
0
  30
0
  0
VERTEX
  5
25e
  8
Layer_9
  10
232.56561
  20
119.98262
  0
VERTEX
  5
25f
  8
Layer_9
  10
227.56573
  20
119.94925
  0
SEQEND
  0
POLYLINE
  5
261
  8
Layer_9
  62
172
  66
1
  10
0
  20
0
  30
0
  0
VERTEX
  5
261
  8
Layer_9
  10
158.90736
  20
129.71844
  0
VERTEX
  5
262
  8
Layer_9
  10
169.73557
  20
119.34047
  0
SEQEND
  0
POLYLINE
  5
264
  8
Layer_9
  62
172
  66
1
  10
0
  20
0
  30
0
  0
VERTEX
  5
264
  8
Layer_9
  10
169.73557
  20
119.34047
  0
VERTEX
  5
265
  8
Layer_9
  10
169.74667
  20
90.587738
  0
SEQEND
  0
POLYLINE
  5
267
  8
Layer_9
  62
172
  66
1
  10
0
  20
0
  30
0
  0
VERTEX
  5
267
  8
Layer_9
  10
169.74667
  20
90.587738
  0
VERTEX
  5
268
  8
Layer_9
  10
169.38452
  20
90.526108
  0
SEQEND
  0
POLYLINE
  5
26a
  8
Layer_9
  62
172
  66
1
  10
0
  20
0
  30
0
  0
VERTEX
  5
26a
  8
Layer_9
  10
169.38452
  20
90.526108
  0
VERTEX
  5
26b
  8
Layer_9
  10
159.54677
  20
90.66748
  0
SEQEND
  0
POLYLINE
  5
26d
  8
Layer_9
  62
172
  66
1
  10
0
  20
0
  30
0
  0
VERTEX
  5
26d
  8
Layer_9
  10
159.54677
  20
90.66748
  42
0.20326551
  0
VERTEX
  5
26e
  8
Layer_9
  10
156.65399
  20
89.48941
  0
SEQEND
  0
POLYLINE
  5
270
  8
Layer_9
  62
172
  66
1
  10
0
  20
0
  30
0
  0
VERTEX
  5
270
  8
Layer_9
  10
156.65399
  20
89.48941
  42
0.20330625
  0
VERTEX
  5
271
  8
Layer_9
  10
155.49008
  20
86.591003
  0
SEQEND
  0
POLYLINE
  5
273
  8
Layer_9
  62
172
  66
1
  10
0
  20
0
  30
0
  0
VERTEX
  5
273
  8
Layer_9
  10
155.49008
  20
86.591003
  0
VERTEX
  5
274
  8
Layer_9
  10
155.70306
  20
75.514252
  0
SEQEND
  0
POLYLINE
  5
276
  8
Layer_9
  62
172
  66
1
  10
0
  20
0
  30
0
  0
VERTEX
  5
276
  8
Layer_9
  10
155.70306
  20
75.514252
  42
0.41342461
  0
VERTEX
  5
277
  8
Layer_9
  10
160.27673
  20
71.10141
  0
SEQEND
  0
POLYLINE
  5
279
  8
Layer_9
  62
172
  66
1
  10
0
  20
0
  30
0
  0
VERTEX
  5
279
  8
Layer_9
  10
160.27673
  20
71.10141
  0
VERTEX
  5
27a
  8
Layer_9
  10
169.41867
  20
71.252625
  0
SEQEND
  0
POLYLINE
  5
27c
  8
Layer_9
  62
172
  66
1
  10
0
  20
0
  30
0
  0
VERTEX
  5
27c
  8
Layer_9
  10
169.41867
  20
71.252625
  0
VERTEX
  5
27d
  8
Layer_9
  10
170.71805
  20
71.29245
  0
SEQEND
  0
POLYLINE
  5
27f
  8
Layer_9
  62
172
  66
1
  10
0
  20
0
  30
0
  0
VERTEX
  5
27f
  8
Layer_9
  10
170.71805
  20
71.29245
  0
VERTEX
  5
280
  8
Layer_9
  10
170.8692
  20
66.354553
  0
SEQEND
  0
POLYLINE
  5
282
  8
Layer_9
  62
172
  66
1
  10
0
  20
0
  30
0
  0
VERTEX
  5
282
  8
Layer_9
  10
170.8692
  20
66.354553
  0
VERTEX
  5
283
  8
Layer_9
  10
257.6572
  20
66.791534
  0
SEQEND
  0
POLYLINE
  5
285
  8
Layer_9
  62
172
  66
1
  10
0
  20
0
  30
0
  0
VERTEX
  5
285
  8
Layer_9
  10
257.6572
  20
66.791534
  0
VERTEX
  5
286
  8
Layer_9
  10
257.7453
  20
89.80899
  0
SEQEND
  0
POLYLINE
  5
288
  8
Layer_9
  62
172
  66
1
  10
0
  20
0
  30
0
  0
VERTEX
  5
288
  8
Layer_9
  10
189.83934
  20
94.278397
  0
VERTEX
  5
289
  8
Layer_9
  10
189.90677
  20
100.53351
  0
SEQEND
  0
POLYLINE
  5
28b
  8
Layer_9
  62
172
  66
1
  10
0
  20
0
  30
0
  0
VERTEX
  5
28b
  8
Layer_9
  10
262.32532
  20
160.53491
  0
VERTEX
  5
28c
  8
Layer_9
  10
259.32535
  20
160.51929
  0
SEQEND
  0
POLYLINE
  5
28e
  8
Layer_9
  62
172
  66
1
  10
0
  20
0
  30
0
  0
VERTEX
  5
28e
  8
Layer_9
  10
100.93146
  20
110.34828
  0
VERTEX
  5
28f
  8
Layer_9
  10
105.93134
  20
110.38164
  0
SEQEND
  0
POLYLINE
  5
291
  8
Layer_9
  62
172
  66
1
  10
0
  20
0
  30
0
  0
VERTEX
  5
291
  8
Layer_9
  10
142.50542
  20
207.82356
  0
VERTEX
  5
292
  8
Layer_9
  10
137.50552
  20
207.79021
  0
SEQEND
  0
POLYLINE
  5
294
  8
Layer_9
  62
172
  66
1
  10
0
  20
0
  30
0
  0
VERTEX
  5
294
  8
Layer_9
  10
237.26347
  20
177.01799
  0
VERTEX
  5
295
  8
Layer_9
  10
232.26353
  20
176.99197
  0
SEQEND
  0
POLYLINE
  5
297
  8
Layer_9
  62
172
  66
1
  10
0
  20
0
  30
0
  0
VERTEX
  5
297
  8
Layer_9
  10
116.7845
  20
90.302429
  0
VERTEX
  5
298
  8
Layer_9
  10
111.78461
  20
90.269058
  0
SEQEND
  0
POLYLINE
  5
29a
  8
Layer_9
  62
172
  66
1
  10
0
  20
0
  30
0
  0
VERTEX
  5
29a
  8
Layer_9
  10
110.34035
  20
129.37666
  0
VERTEX
  5
29b
  8
Layer_9
  10
105.34046
  20
129.34329
  0
SEQEND
  0
POLYLINE
  5
29d
  8
Layer_9
  62
172
  66
1
  10
0
  20
0
  30
0
  0
VERTEX
  5
29d
  8
Layer_9
  10
238.18848
  20
171.245
  42
0.41421356
  0
VERTEX
  5
29e
  8
Layer_9
  10
235.4202
  20
173.97659
  0
SEQEND
  0
POLYLINE
  5
2a0
  8
Layer_9
  62
172
  66
1
  10
0
  20
0
  30
0
  0
VERTEX
  5
2a0
  8
Layer_9
  10
235.4202
  20
173.97659
  42
0.41421356
  0
VERTEX
  5
2a1
  8
Layer_9
  10
232.6886
  20
171.2083
  0
SEQEND
  0
POLYLINE
  5
2a3
  8
Layer_9
  62
172
  66
1
  10
0
  20
0
  30
0
  0
VERTEX
  5
2a3
  8
Layer_9
  10
232.6886
  20
171.2083
  42
0.41421356
  0
VERTEX
  5
2a4
  8
Layer_9
  10
235.45691
  20
168.47672
  0
SEQEND
  0
POLYLINE
  5
2a6
  8
Layer_9
  62
172
  66
1
  10
0
  20
0
  30
0
  0
VERTEX
  5
2a6
  8
Layer_9
  10
235.45691
  20
168.47672
  42
0.41421356
  0
VERTEX
  5
2a7
  8
Layer_9
  10
238.18848
  20
171.245
  0
SEQEND
  0
POLYLINE
  5
2a9
  8
Layer_9
  62
172
  66
1
  10
0
  20
0
  30
0
  0
VERTEX
  5
2a9
  8
Layer_9
  10
235.36496
  20
201.02545
  42
0.41421172
  0
VERTEX
  5
2aa
  8
Layer_9
  10
230.99442
  20
196.59618
  0
SEQEND
  0
POLYLINE
  5
2ac
  8
Layer_9
  62
172
  66
1
  10
0
  20
0
  30
0
  0
VERTEX
  5
2ac
  8
Layer_9
  10
230.99442
  20
196.59618
  42
0.41420804
  0
VERTEX
  5
2ad
  8
Layer_9
  10
235.42368
  20
192.22569
  0
SEQEND
  0
POLYLINE
  5
2af
  8
Layer_9
  62
172
  66
1
  10
0
  20
0
  30
0
  0
VERTEX
  5
2af
  8
Layer_9
  10
235.42368
  20
192.22569
  42
0.41420988
  0
VERTEX
  5
2b0
  8
Layer_9
  10
239.79422
  20
196.65491
  0
SEQEND
  0
POLYLINE
  5
2b2
  8
Layer_9
  62
172
  66
1
  10
0
  20
0
  30
0
  0
VERTEX
  5
2b2
  8
Layer_9
  10
239.79422
  20
196.65491
  42
0.19891577
  0
VERTEX
  5
2b3
  8
Layer_9
  10
238.48477
  20
199.75754
  0
SEQEND
  0
POLYLINE
  5
2b5
  8
Layer_9
  62
172
  66
1
  10
0
  20
0
  30
0
  0
VERTEX
  5
2b5
  8
Layer_9
  10
238.48477
  20
199.75754
  42
0.19891916
  0
VERTEX
  5
2b6
  8
Layer_9
  10
235.36496
  20
201.02545
  0
SEQEND
  0
POLYLINE
  5
2b8
  8
Layer_9
  62
172
  66
1
  10
0
  20
0
  30
0
  0
VERTEX
  5
2b8
  8
Layer_9
  10
155.5843
  20
110.50508
  0
VERTEX
  5
2b9
  8
Layer_9
  10
135.73203
  20
110.48119
  0
SEQEND
  0
POLYLINE
  5
2bb
  8
Layer_9
  62
172
  66
1
  10
0
  20
0
  30
0
  0
VERTEX
  5
2bb
  8
Layer_9
  10
257.72357
  20
130.97304
  0
VERTEX
  5
2bc
  8
Layer_9
  10
257.69022
  20
135.97293
  0
SEQEND
  0
POLYLINE
  5
2be
  8
Layer_9
  62
172
  66
1
  10
0
  20
0
  30
0
  0
VERTEX
  5
2be
  8
Layer_9
  10
52.167007
  20
133.32219
  0
VERTEX
  5
2bf
  8
Layer_9
  10
52.142738
  20
137.36615
  0
SEQEND
  0
POLYLINE
  5
2c1
  8
Layer_9
  62
172
  66
1
  10
0
  20
0
  30
0
  0
VERTEX
  5
2c1
  8
Layer_9
  10
272.56491
  20
120.20628
  0
VERTEX
  5
2c2
  8
Layer_9
  10
267.56494
  20
120.19453
  0
SEQEND
  0
POLYLINE
  5
2c4
  8
Layer_9
  62
172
  66
1
  10
0
  20
0
  30
0
  0
VERTEX
  5
2c4
  8
Layer_9
  10
207.26389
  20
176.86195
  0
VERTEX
  5
2c5
  8
Layer_9
  10
202.26395
  20
176.83598
  0
SEQEND
  0
POLYLINE
  5
2c7
  8
Layer_9
  62
172
  66
1
  10
0
  20
0
  30
0
  0
VERTEX
  5
2c7
  8
Layer_9
  10
257.63846
  20
144.68797
  0
VERTEX
  5
2c8
  8
Layer_9
  10
257.61243
  20
149.68793
  0
SEQEND
  0
POLYLINE
  5
2ca
  8
Layer_9
  62
172
  66
1
  10
0
  20
0
  30
0
  0
VERTEX
  5
2ca
  8
Layer_9
  10
71.606598
  20
187.92769
  0
VERTEX
  5
2cb
  8
Layer_9
  10
99.126976
  20
187.9222
  0
SEQEND
  0
POLYLINE
  5
2cd
  8
Layer_9
  62
172
  66
1
  10
0
  20
0
  30
0
  0
VERTEX
  5
2cd
  8
Layer_9
  10
99.126976
  20
187.9222
  0
VERTEX
  5
2ce
  8
Layer_9
  10
118.40503
  20
188.02913
  0
SEQEND
  0
POLYLINE
  5
2d0
  8
Layer_9
  62
172
  66
1
  10
0
  20
0
  30
0
  0
VERTEX
  5
2d0
  8
Layer_9
  10
118.40503
  20
188.02913
  0
VERTEX
  5
2d1
  8
Layer_9
  10
135.17516
  20
188.00209
  0
SEQEND
  0
POLYLINE
  5
2d3
  8
Layer_9
  62
172
  66
1
  10
0
  20
0
  30
0
  0
VERTEX
  5
2d3
  8
Layer_9
  10
135.17516
  20
188.00209
  0
VERTEX
  5
2d4
  8
Layer_9
  10
159.01797
  20
188.00404
  0
SEQEND
  0
POLYLINE
  5
2d6
  8
Layer_9
  62
172
  66
1
  10
0
  20
0
  30
0
  0
VERTEX
  5
2d6
  8
Layer_9
  10
159.01797
  20
188.00404
  0
VERTEX
  5
2d7
  8
Layer_9
  10
168.85657
  20
188.06009
  0
SEQEND
  0
POLYLINE
  5
2d9
  8
Layer_9
  62
172
  66
1
  10
0
  20
0
  30
0
  0
VERTEX
  5
2d9
  8
Layer_9
  10
168.85657
  20
188.06009
  0
VERTEX
  5
2da
  8
Layer_9
  10
169.48926
  20
188.06325
  0
SEQEND
  0
POLYLINE
  5
2dc
  8
Layer_9
  62
172
  66
1
  10
0
  20
0
  30
0
  0
VERTEX
  5
2dc
  8
Layer_9
  10
169.48926
  20
188.06325
  0
VERTEX
  5
2dd
  8
Layer_9
  10
169.62997
  20
159.31082
  0
SEQEND
  0
POLYLINE
  5
2df
  8
Layer_9
  62
172
  66
1
  10
0
  20
0
  30
0
  0
VERTEX
  5
2df
  8
Layer_9
  10
169.62997
  20
159.31082
  0
VERTEX
  5
2e0
  8
Layer_9
  10
158.85675
  20
148.87579
  0
SEQEND
  0
POLYLINE
  5
2e2
  8
Layer_9
  62
172
  66
1
  10
0
  20
0
  30
0
  0
VERTEX
  5
2e2
  8
Layer_9
  10
33.022514
  20
143.70332
  0
VERTEX
  5
2e3
  8
Layer_9
  10
38.773266
  20
143.74257
  0
SEQEND
  0
POLYLINE
  5
2e5
  8
Layer_9
  62
172
  66
1
  10
0
  20
0
  30
0
  0
VERTEX
  5
2e5
  8
Layer_9
  10
38.773266
  20
143.74257
  42
-0.41420668
  0
VERTEX
  5
2e6
  8
Layer_9
  10
43.807308
  20
138.77681
  0
SEQEND
  0
POLYLINE
  5
2e8
  8
Layer_9
  62
172
  66
1
  10
0
  20
0
  30
0
  0
VERTEX
  5
2e8
  8
Layer_9
  10
43.807308
  20
138.77681
  0
VERTEX
  5
2e9
  8
Layer_9
  10
43.80386
  20
139.06491
  0
SEQEND
  0
POLYLINE
  5
2eb
  8
Layer_9
  62
172
  66
1
  10
0
  20
0
  30
0
  0
VERTEX
  5
2eb
  8
Layer_9
  10
43.80386
  20
139.06491
  42
-0.0075103219
  0
VERTEX
  5
2ec
  8
Layer_9
  10
43.805771
  20
138.92018
  0
SEQEND
  0
POLYLINE
  5
2ee
  8
Layer_9
  62
172
  66
1
  10
0
  20
0
  30
0
  0
VERTEX
  5
2ee
  8
Layer_9
  10
43.805771
  20
138.92018
  0
VERTEX
  5
2ef
  8
Layer_9
  10
43.80616
  20
139.20961
  0
SEQEND
  0
POLYLINE
  5
2f1
  8
Layer_9
  62
172
  66
1
  10
0
  20
0
  30
0
  0
VERTEX
  5
2f1
  8
Layer_9
  10
43.80616
  20
139.20961
  42
-0.19891854
  0
VERTEX
  5
2f2
  8
Layer_9
  10
42.33625
  20
135.67635
  0
SEQEND
  0
POLYLINE
  5
2f4
  8
Layer_9
  62
172
  66
1
  10
0
  20
0
  30
0
  0
VERTEX
  5
2f4
  8
Layer_9
  10
42.33625
  20
135.67635
  42
-0.19891289
  0
VERTEX
  5
2f5
  8
Layer_9
  10
38.798462
  20
134.21736
  0
SEQEND
  0
POLYLINE
  5
2f7
  8
Layer_9
  62
172
  66
1
  10
0
  20
0
  30
0
  0
VERTEX
  5
2f7
  8
Layer_9
  10
38.798462
  20
134.21736
  0
VERTEX
  5
2f8
  8
Layer_9
  10
33.047539
  20
134.22627
  0
SEQEND
  0
POLYLINE
  5
2fa
  8
Layer_9
  62
172
  66
1
  10
0
  20
0
  30
0
  0
VERTEX
  5
2fa
  8
Layer_9
  10
243.43979
  20
217.9973
  0
VERTEX
  5
2fb
  8
Layer_9
  10
238.43988
  20
217.96393
  0
SEQEND
  0
POLYLINE
  5
2fd
  8
Layer_9
  62
172
  66
1
  10
0
  20
0
  30
0
  0
VERTEX
  5
2fd
  8
Layer_9
  10
236.59451
  20
76.839203
  42
0.41420988
  0
VERTEX
  5
2fe
  8
Layer_9
  10
240.96506
  20
81.268494
  0
SEQEND
  0
POLYLINE
  5
300
  8
Layer_9
  62
172
  66
1
  10
0
  20
0
  30
0
  0
VERTEX
  5
300
  8
Layer_9
  10
240.96506
  20
81.268494
  42
0.41420988
  0
VERTEX
  5
301
  8
Layer_9
  10
236.5358
  20
85.639038
  0
SEQEND
  0
POLYLINE
  5
303
  8
Layer_9
  62
172
  66
1
  10
0
  20
0
  30
0
  0
VERTEX
  5
303
  8
Layer_9
  10
236.5358
  20
85.639038
  42
0.41420804
  0
VERTEX
  5
304
  8
Layer_9
  10
232.16522
  20
81.209747
  0
SEQEND
  0
POLYLINE
  5
306
  8
Layer_9
  62
172
  66
1
  10
0
  20
0
  30
0
  0
VERTEX
  5
306
  8
Layer_9
  10
232.16522
  20
81.209747
  42
0.41420988
  0
VERTEX
  5
307
  8
Layer_9
  10
236.59451
  20
76.839203
  0
SEQEND
  0
POLYLINE
  5
309
  8
Layer_9
  62
172
  66
1
  10
0
  20
0
  30
0
  0
VERTEX
  5
309
  8
Layer_9
  10
186.44104
  20
217.61694
  0
VERTEX
  5
30a
  8
Layer_9
  10
181.44116
  20
217.58359
  0
SEQEND
  0
POLYLINE
  5
30c
  8
Layer_9
  62
172
  66
1
  10
0
  20
0
  30
0
  0
VERTEX
  5
30c
  8
Layer_9
  10
189.36316
  20
176.76942
  0
VERTEX
  5
30d
  8
Layer_9
  10
184.36322
  20
176.74339
  0
SEQEND
  0
POLYLINE
  5
30f
  8
Layer_9
  62
172
  66
1
  10
0
  20
0
  30
0
  0
VERTEX
  5
30f
  8
Layer_9
  10
140.33969
  20
129.57684
  0
VERTEX
  5
310
  8
Layer_9
  10
135.3398
  20
129.54347
  0
SEQEND
  0
POLYLINE
  5
312
  8
Layer_9
  62
172
  66
1
  10
0
  20
0
  30
0
  0
VERTEX
  5
312
  8
Layer_9
  10
110.58627
  20
168.50096
  0
VERTEX
  5
313
  8
Layer_9
  10
115.58618
  20
168.52698
  0
SEQEND
  0
POLYLINE
  5
315
  8
Layer_9
  62
172
  66
1
  10
0
  20
0
  30
0
  0
VERTEX
  5
315
  8
Layer_9
  10
120.93101
  20
110.4818
  0
VERTEX
  5
316
  8
Layer_9
  10
125.93089
  20
110.51515
  0
SEQEND
  0
POLYLINE
  5
318
  8
Layer_9
  62
172
  66
1
  10
0
  20
0
  30
0
  0
VERTEX
  5
318
  8
Layer_9
  10
106.78473
  20
90.235703
  0
VERTEX
  5
319
  8
Layer_9
  10
101.78484
  20
90.202332
  0
SEQEND
  0
POLYLINE
  5
31b
  8
Layer_9
  62
172
  66
1
  10
0
  20
0
  30
0
  0
VERTEX
  5
31b
  8
Layer_9
  10
130.22038
  20
149.63785
  0
VERTEX
  5
31c
  8
Layer_9
  10
125.22044
  20
149.61182
  0
SEQEND
  0
POLYLINE
  5
31e
  8
Layer_9
  62
172
  66
1
  10
0
  20
0
  30
0
  0
VERTEX
  5
31e
  8
Layer_9
  10
120.34013
  20
129.44339
  0
VERTEX
  5
31f
  8
Layer_9
  10
115.34024
  20
129.41002
  0
SEQEND
  0
POLYLINE
  5
321
  8
Layer_9
  62
172
  66
1
  10
0
  20
0
  30
0
  0
VERTEX
  5
321
  8
Layer_9
  10
153.19821
  20
90.54541
  0
VERTEX
  5
322
  8
Layer_9
  10
148.19833
  20
90.512039
  0
SEQEND
  0
POLYLINE
  5
324
  8
Layer_9
  62
172
  66
1
  10
0
  20
0
  30
0
  0
VERTEX
  5
324
  8
Layer_9
  10
90.586533
  20
168.39693
  0
VERTEX
  5
325
  8
Layer_9
  10
95.586464
  20
168.42297
  0
SEQEND
  0
POLYLINE
  5
327
  8
Layer_9
  62
172
  66
1
  10
0
  20
0
  30
0
  0
VERTEX
  5
327
  8
Layer_9
  10
262.56494
  20
120.1828
  0
VERTEX
  5
328
  8
Layer_9
  10
259.565
  20
120.16278
  0
SEQEND
  0
POLYLINE
  5
32a
  8
Layer_9
  62
172
  66
1
  10
0
  20
0
  30
0
  0
VERTEX
  5
32a
  8
Layer_9
  10
58.593773
  20
148.84879
  0
VERTEX
  5
32b
  8
Layer_9
  10
54.593872
  20
148.82094
  0
SEQEND
  0
POLYLINE
  5
32d
  8
Layer_9
  62
172
  66
1
  10
0
  20
0
  30
0
  0
VERTEX
  5
32d
  8
Layer_9
  10
202.32611
  20
160.22269
  0
VERTEX
  5
32e
  8
Layer_9
  10
197.32617
  20
160.19664
  0
SEQEND
  0
POLYLINE
  5
330
  8
Layer_9
  62
172
  66
1
  10
0
  20
0
  30
0
  0
VERTEX
  5
330
  8
Layer_9
  10
237.81152
  20
100.85439
  0
VERTEX
  5
331
  8
Layer_9
  10
232.81165
  20
100.82103
  0
SEQEND
  0
POLYLINE
  5
333
  8
Layer_9
  62
172
  66
1
  10
0
  20
0
  30
0
  0
VERTEX
  5
333
  8
Layer_9
  10
71.551575
  20
168.29793
  0
VERTEX
  5
334
  8
Layer_9
  10
75.586731
  20
168.31897
  0
SEQEND
  0
POLYLINE
  5
336
  8
Layer_9
  62
172
  66
1
  10
0
  20
0
  30
0
  0
VERTEX
  5
336
  8
Layer_9
  10
52.136963
  20
144.70831
  0
VERTEX
  5
337
  8
Layer_9
  10
52.134113
  20
140.66426
  0
SEQEND
  0
POLYLINE
  5
339
  8
Layer_9
  62
172
  66
1
  10
0
  20
0
  30
0
  0
VERTEX
  5
339
  8
Layer_9
  10
257.77695
  20
122.97322
  0
VERTEX
  5
33a
  8
Layer_9
  10
257.74359
  20
127.97311
  0
SEQEND
  0
POLYLINE
  5
33c
  8
Layer_9
  62
172
  66
1
  10
0
  20
0
  30
0
  0
VERTEX
  5
33c
  8
Layer_9
  10
237.56549
  20
120.01599
  0
VERTEX
  5
33d
  8
Layer_9
  10
242.5654
  20
120.04935
  0
SEQEND
  0
POLYLINE
  5
33f
  8
Layer_9
  62
172
  66
1
  10
0
  20
0
  30
0
  0
VERTEX
  5
33f
  8
Layer_9
  10
67.628502
  20
149.00005
  0
VERTEX
  5
340
  8
Layer_9
  10
67.628052
  20
148.95827
  0
SEQEND
  0
POLYLINE
  5
342
  8
Layer_9
  62
172
  66
1
  10
0
  20
0
  30
0
  0
VERTEX
  5
342
  8
Layer_9
  10
174.81311
  20
100.69623
  0
VERTEX
  5
343
  8
Layer_9
  10
170.81335
  20
100.7394
  0
SEQEND
  0
POLYLINE
  5
345
  8
Layer_9
  62
172
  66
1
  10
0
  20
0
  30
0
  0
VERTEX
  5
345
  8
Layer_9
  10
111.6654
  20
117.61824
  42
0.41421356
  0
VERTEX
  5
346
  8
Layer_9
  10
108.89711
  20
120.34982
  0
SEQEND
  0
POLYLINE
  5
348
  8
Layer_9
  62
172
  66
1
  10
0
  20
0
  30
0
  0
VERTEX
  5
348
  8
Layer_9
  10
108.89711
  20
120.34982
  42
0.41421365
  0
VERTEX
  5
349
  8
Layer_9
  10
106.16552
  20
117.58154
  0
SEQEND
  0
POLYLINE
  5
34b
  8
Layer_9
  62
172
  66
1
  10
0
  20
0
  30
0
  0
VERTEX
  5
34b
  8
Layer_9
  10
106.16552
  20
117.58154
  42
0.41421356
  0
VERTEX
  5
34c
  8
Layer_9
  10
108.93381
  20
114.84995
  0
SEQEND
  0
POLYLINE
  5
34e
  8
Layer_9
  62
172
  66
1
  10
0
  20
0
  30
0
  0
VERTEX
  5
34e
  8
Layer_9
  10
108.93381
  20
114.84995
  42
0.41421356
  0
VERTEX
  5
34f
  8
Layer_9
  10
111.6654
  20
117.61824
  0
SEQEND
  0
POLYLINE
  5
351
  8
Layer_9
  62
172
  66
1
  10
0
  20
0
  30
0
  0
VERTEX
  5
351
  8
Layer_9
  10
257.59174
  20
151.68782
  0
VERTEX
  5
352
  8
Layer_9
  10
257.5657
  20
156.68777
  0
SEQEND
  0
POLYLINE
  5
354
  8
Layer_9
  62
172
  66
1
  10
0
  20
0
  30
0
  0
VERTEX
  5
354
  8
Layer_9
  10
33.51622
  20
143.63342
  0
VERTEX
  5
355
  8
Layer_9
  10
33.032776
  20
143.70189
  0
SEQEND
  0
POLYLINE
  5
357
  8
Layer_9
  62
172
  66
1
  10
0
  20
0
  30
0
  0
VERTEX
  5
357
  8
Layer_9
  10
257.64349
  20
142.97278
  0
VERTEX
  5
358
  8
Layer_9
  10
257.67688
  20
137.97289
  0
SEQEND
  0
POLYLINE
  5
35a
  8
Layer_9
  62
172
  66
1
  10
0
  20
0
  30
0
  0
VERTEX
  5
35a
  8
Layer_9
  10
100.58639
  20
168.44894
  0
VERTEX
  5
35b
  8
Layer_9
  10
105.58633
  20
168.47496
  0
SEQEND
  0
POLYLINE
  5
35d
  8
Layer_9
  62
172
  66
1
  10
0
  20
0
  30
0
  0
VERTEX
  5
35d
  8
Layer_9
  10
80.9319
  20
110.21478
  0
VERTEX
  5
35e
  8
Layer_9
  10
85.931793
  20
110.24815
  0
SEQEND
  0
POLYLINE
  5
360
  8
Layer_9
  62
172
  66
1
  10
0
  20
0
  30
0
  0
VERTEX
  5
360
  8
Layer_9
  10
212.56607
  20
119.84917
  0
VERTEX
  5
361
  8
Layer_9
  10
207.56616
  20
119.8158
  0
SEQEND
  0
POLYLINE
  5
363
  8
Layer_9
  62
172
  66
1
  10
0
  20
0
  30
0
  0
VERTEX
  5
363
  8
Layer_9
  10
150.22011
  20
149.74194
  0
VERTEX
  5
364
  8
Layer_9
  10
145.22017
  20
149.71594
  0
SEQEND
  0
POLYLINE
  5
366
  8
Layer_9
  62
172
  66
1
  10
0
  20
0
  30
0
  0
VERTEX
  5
366
  8
Layer_9
  10
199.36304
  20
176.82144
  0
VERTEX
  5
367
  8
Layer_9
  10
194.3631
  20
176.79544
  0
SEQEND
  0
POLYLINE
  5
369
  8
Layer_9
  62
172
  66
1
  10
0
  20
0
  30
0
  0
VERTEX
  5
369
  8
Layer_9
  10
217.26373
  20
176.91397
  0
VERTEX
  5
36a
  8
Layer_9
  10
212.26381
  20
176.88797
  0
SEQEND
  0
POLYLINE
  5
36c
  8
Layer_9
  62
172
  66
1
  10
0
  20
0
  30
0
  0
VERTEX
  5
36c
  8
Layer_9
  10
212.32599
  20
160.2747
  0
VERTEX
  5
36d
  8
Layer_9
  10
207.32605
  20
160.24866
  0
SEQEND
  0
POLYLINE
  5
36f
  8
Layer_9
  62
172
  66
1
  10
0
  20
0
  30
0
  0
VERTEX
  5
36f
  8
Layer_9
  10
120.58612
  20
168.55298
  0
VERTEX
  5
370
  8
Layer_9
  10
125.58606
  20
168.57896
  0
SEQEND
  0
POLYLINE
  5
372
  8
Layer_9
  62
172
  66
1
  10
0
  20
0
  30
0
  0
VERTEX
  5
372
  8
Layer_9
  10
145.69989
  20
104.23775
  0
VERTEX
  5
373
  8
Layer_9
  10
145.65816
  20
110.4931
  0
SEQEND
  0
POLYLINE
  5
375
  8
Layer_9
  62
172
  66
1
  10
0
  20
0
  30
0
  0
VERTEX
  5
375
  8
Layer_9
  10
172.56694
  20
119.58226
  0
VERTEX
  5
376
  8
Layer_9
  10
170.06699
  20
119.56557
  0
SEQEND
  0
POLYLINE
  5
378
  8
Layer_9
  62
172
  66
1
  10
0
  20
0
  30
0
  0
VERTEX
  5
378
  8
Layer_9
  10
143.19844
  20
90.478683
  0
VERTEX
  5
379
  8
Layer_9
  10
138.19855
  20
90.445313
  0
SEQEND
  0
POLYLINE
  5
37b
  8
Layer_9
  62
172
  66
1
  10
0
  20
0
  30
0
  0
VERTEX
  5
37b
  8
Layer_9
  10
60.112633
  20
94.999329
  42
0.41421356
  0
VERTEX
  5
37c
  8
Layer_9
  10
57.381042
  20
92.231033
  0
SEQEND
  0
POLYLINE
  5
37e
  8
Layer_9
  62
172
  66
1
  10
0
  20
0
  30
0
  0
VERTEX
  5
37e
  8
Layer_9
  10
57.381042
  20
92.231033
  42
0.41421356
  0
VERTEX
  5
37f
  8
Layer_9
  10
60.149334
  20
89.499451
  0
SEQEND
  0
POLYLINE
  5
381
  8
Layer_9
  62
172
  66
1
  10
0
  20
0
  30
0
  0
VERTEX
  5
381
  8
Layer_9
  10
60.149334
  20
89.499451
  42
0.41421356
  0
VERTEX
  5
382
  8
Layer_9
  10
62.88092
  20
92.267731
  0
SEQEND
  0
POLYLINE
  5
384
  8
Layer_9
  62
172
  66
1
  10
0
  20
0
  30
0
  0
VERTEX
  5
384
  8
Layer_9
  10
62.88092
  20
92.267731
  42
0.41421356
  0
VERTEX
  5
385
  8
Layer_9
  10
60.112633
  20
94.999329
  0
SEQEND
  0
POLYLINE
  5
387
  8
Layer_9
  62
172
  66
1
  10
0
  20
0
  30
0
  0
VERTEX
  5
387
  8
Layer_9
  10
71.85276
  20
144.64906
  0
VERTEX
  5
388
  8
Layer_9
  10
71.864189
  20
140.34599
  0
SEQEND
  0
POLYLINE
  5
38a
  8
Layer_9
  62
172
  66
1
  10
0
  20
0
  30
0
  0
VERTEX
  5
38a
  8
Layer_9
  10
80.58667
  20
168.34494
  0
VERTEX
  5
38b
  8
Layer_9
  10
85.586609
  20
168.37096
  0
SEQEND
  0
POLYLINE
  5
38d
  8
Layer_9
  62
172
  66
1
  10
0
  20
0
  30
0
  0
VERTEX
  5
38d
  8
Layer_9
  10
100.22079
  20
149.4817
  0
VERTEX
  5
38e
  8
Layer_9
  10
95.220848
  20
149.45563
  0
SEQEND
  0
POLYLINE
  5
390
  8
Layer_9
  62
172
  66
1
  10
0
  20
0
  30
0
  0
VERTEX
  5
390
  8
Layer_9
  10
130.3399
  20
129.51012
  0
VERTEX
  5
391
  8
Layer_9
  10
125.34002
  20
129.47675
  0
SEQEND
  0
POLYLINE
  5
393
  8
Layer_9
  62
172
  66
1
  10
0
  20
0
  30
0
  0
VERTEX
  5
393
  8
Layer_9
  10
172.32651
  20
160.06651
  0
VERTEX
  5
394
  8
Layer_9
  10
169.82654
  20
160.05348
  0
SEQEND
  0
POLYLINE
  5
396
  8
Layer_9
  62
172
  66
1
  10
0
  20
0
  30
0
  0
VERTEX
  5
396
  8
Layer_9
  10
177.56683
  20
119.61562
  0
VERTEX
  5
397
  8
Layer_9
  10
182.56671
  20
119.64899
  0
SEQEND
  0
POLYLINE
  5
399
  8
Layer_9
  62
172
  66
1
  10
0
  20
0
  30
0
  0
VERTEX
  5
399
  8
Layer_9
  10
187.5666
  20
119.68234
  0
VERTEX
  5
39a
  8
Layer_9
  10
192.5665
  20
119.71571
  0
SEQEND
  0
POLYLINE
  5
39c
  8
Layer_9
  62
172
  66
1
  10
0
  20
0
  30
0
  0
VERTEX
  5
39c
  8
Layer_9
  10
222.32584
  20
160.32675
  0
VERTEX
  5
39d
  8
Layer_9
  10
217.32593
  20
160.30074
  0
SEQEND
  0
POLYLINE
  5
39f
  8
Layer_9
  62
172
  66
1
  10
0
  20
0
  30
0
  0
VERTEX
  5
39f
  8
Layer_9
  10
272.32483
  20
160.6302
  0
VERTEX
  5
3a0
  8
Layer_9
  10
267.32507
  20
160.58257
  0
SEQEND
  0
POLYLINE
  5
3a2
  8
Layer_9
  62
172
  66
1
  10
0
  20
0
  30
0
  0
VERTEX
  5
3a2
  8
Layer_9
  10
252.56516
  20
120.11607
  0
VERTEX
  5
3a3
  8
Layer_9
  10
247.56528
  20
120.08272
  0
SEQEND
  0
POLYLINE
  5
3a5
  8
Layer_9
  62
172
  66
1
  10
0
  20
0
  30
0
  0
VERTEX
  5
3a5
  8
Layer_9
  10
68.708878
  20
129.49744
  0
VERTEX
  5
3a6
  8
Layer_9
  10
63.708942
  20
129.47285
  0
SEQEND
  0
POLYLINE
  5
3a8
  8
Layer_9
  62
172
  66
1
  10
0
  20
0
  30
0
  0
VERTEX
  5
3a8
  8
Layer_9
  10
90.220924
  20
149.42969
  0
VERTEX
  5
3a9
  8
Layer_9
  10
85.220993
  20
149.40361
  0
SEQEND
  0
POLYLINE
  5
3ab
  8
Layer_9
  62
172
  66
1
  10
0
  20
0
  30
0
  0
VERTEX
  5
3ab
  8
Layer_9
  10
90.931679
  20
110.28152
  0
VERTEX
  5
3ac
  8
Layer_9
  10
95.931564
  20
110.31491
  0
SEQEND
  0
POLYLINE
  5
3ae
  8
Layer_9
  62
172
  66
1
  10
0
  20
0
  30
0
  0
VERTEX
  5
3ae
  8
Layer_9
  10
110.22065
  20
149.53375
  0
VERTEX
  5
3af
  8
Layer_9
  10
105.22071
  20
149.50772
  0
SEQEND
  0
POLYLINE
  5
3b1
  8
Layer_9
  62
172
  66
1
  10
0
  20
0
  30
0
  0
VERTEX
  5
3b1
  8
Layer_9
  10
227.26361
  20
176.96596
  0
VERTEX
  5
3b2
  8
Layer_9
  10
222.26367
  20
176.93999
  0
SEQEND
  0
POLYLINE
  5
3b4
  8
Layer_9
  62
172
  66
1
  10
0
  20
0
  30
0
  0
VERTEX
  5
3b4
  8
Layer_9
  10
217.81197
  20
100.72087
  0
VERTEX
  5
3b5
  8
Layer_9
  10
212.81207
  20
100.68752
  0
SEQEND
  0
POLYLINE
  5
3b7
  8
Layer_9
  62
172
  66
1
  10
0
  20
0
  30
0
  0
VERTEX
  5
3b7
  8
Layer_9
  10
261.74258
  20
142.52405
  42
0.41421356
  0
VERTEX
  5
3b8
  8
Layer_9
  10
259.01099
  20
139.75575
  0
SEQEND
  0
POLYLINE
  5
3ba
  8
Layer_9
  62
172
  66
1
  10
0
  20
0
  30
0
  0
VERTEX
  5
3ba
  8
Layer_9
  10
259.01099
  20
139.75575
  42
0.41421356
  0
VERTEX
  5
3bb
  8
Layer_9
  10
261.7793
  20
137.02417
  0
SEQEND
  0
POLYLINE
  5
3bd
  8
Layer_9
  62
172
  66
1
  10
0
  20
0
  30
0
  0
VERTEX
  5
3bd
  8
Layer_9
  10
261.7793
  20
137.02417
  42
0.41421356
  0
VERTEX
  5
3be
  8
Layer_9
  10
264.51086
  20
139.79245
  0
SEQEND
  0
POLYLINE
  5
3c0
  8
Layer_9
  62
172
  66
1
  10
0
  20
0
  30
0
  0
VERTEX
  5
3c0
  8
Layer_9
  10
264.51086
  20
139.79245
  42
0.41421356
  0
VERTEX
  5
3c1
  8
Layer_9
  10
261.74258
  20
142.52405
  0
SEQEND
  0
POLYLINE
  5
3c3
  8
Layer_9
  62
172
  66
1
  10
0
  20
0
  30
0
  0
VERTEX
  5
3c3
  8
Layer_9
  10
90.340797
  20
129.24319
  0
VERTEX
  5
3c4
  8
Layer_9
  10
85.340912
  20
129.20984
  0
SEQEND
  0
POLYLINE
  5
3c6
  8
Layer_9
  62
172
  66
1
  10
0
  20
0
  30
0
  0
VERTEX
  5
3c6
  8
Layer_9
  10
71.896904
  20
110.1545
  0
VERTEX
  5
3c7
  8
Layer_9
  10
75.931999
  20
110.18143
  0
SEQEND
  0
POLYLINE
  5
3c9
  8
Layer_9
  62
172
  66
1
  10
0
  20
0
  30
0
  0
VERTEX
  5
3c9
  8
Layer_9
  10
180.30185
  20
100.63708
  0
VERTEX
  5
3ca
  8
Layer_9
  10
199.51172
  20
100.42999
  0
SEQEND
  0
POLYLINE
  5
3cc
  8
Layer_9
  62
172
  66
1
  10
0
  20
0
  30
0
  0
VERTEX
  5
3cc
  8
Layer_9
  10
140.22025
  20
149.68987
  0
VERTEX
  5
3cd
  8
Layer_9
  10
135.22031
  20
149.66383
  0
SEQEND
  0
POLYLINE
  5
3cf
  8
Layer_9
  62
172
  66
1
  10
0
  20
0
  30
0
  0
VERTEX
  5
3cf
  8
Layer_9
  10
192.32623
  20
160.17061
  0
VERTEX
  5
3d0
  8
Layer_9
  10
187.32632
  20
160.14459
  0
SEQEND
  0
POLYLINE
  5
3d2
  8
Layer_9
  62
172
  66
1
  10
0
  20
0
  30
0
  0
VERTEX
  5
3d2
  8
Layer_9
  10
150.33946
  20
129.64357
  0
VERTEX
  5
3d3
  8
Layer_9
  10
145.33957
  20
129.6102
  0
SEQEND
  0
POLYLINE
  5
3d5
  8
Layer_9
  62
172
  66
1
  10
0
  20
0
  30
0
  0
VERTEX
  5
3d5
  8
Layer_9
  10
161.04263
  20
169.17926
  0
VERTEX
  5
3d6
  8
Layer_9
  10
165.52692
  20
169.25426
  0
SEQEND
  0
POLYLINE
  5
3d8
  8
Layer_9
  62
172
  66
1
  10
0
  20
0
  30
0
  0
VERTEX
  5
3d8
  8
Layer_9
  10
191.44093
  20
217.65033
  0
VERTEX
  5
3d9
  8
Layer_9
  10
196.44083
  20
217.68369
  0
SEQEND
  0
POLYLINE
  5
3db
  8
Layer_9
  62
172
  66
1
  10
0
  20
0
  30
0
  0
VERTEX
  5
3db
  8
Layer_9
  10
154.05414
  20
168.88087
  0
VERTEX
  5
3dc
  8
Layer_9
  10
135.02168
  20
168.67766
  0
SEQEND
  0
POLYLINE
  5
3de
  8
Layer_9
  62
172
  66
1
  10
0
  20
0
  30
0
  0
VERTEX
  5
3de
  8
Layer_9
  10
242.32556
  20
160.43082
  0
VERTEX
  5
3df
  8
Layer_9
  10
237.32562
  20
160.40483
  0
SEQEND
  0
POLYLINE
  5
3e1
  8
Layer_9
  62
172
  66
1
  10
0
  20
0
  30
0
  0
VERTEX
  5
3e1
  8
Layer_9
  10
247.81131
  20
100.92123
  0
VERTEX
  5
3e2
  8
Layer_9
  10
242.81143
  20
100.88776
  0
SEQEND
  0
POLYLINE
  5
3e4
  8
Layer_9
  62
172
  66
1
  10
0
  20
0
  30
0
  0
VERTEX
  5
3e4
  8
Layer_9
  10
67.744858
  20
129.40436
  0
VERTEX
  5
3e5
  8
Layer_9
  10
67.743927
  20
129.4462
  0
SEQEND
  0
POLYLINE
  5
3e7
  8
Layer_9
  62
172
  66
1
  10
0
  20
0
  30
0
  0
VERTEX
  5
3e7
  8
Layer_9
  10
182.32639
  20
160.11853
  0
VERTEX
  5
3e8
  8
Layer_9
  10
177.32645
  20
160.09258
  0
SEQEND
  0
POLYLINE
  5
3ea
  8
Layer_9
  62
172
  66
1
  10
0
  20
0
  30
0
  0
VERTEX
  5
3ea
  8
Layer_9
  10
128.08601
  20
168.59204
  0
VERTEX
  5
3eb
  8
Layer_9
  10
133.08594
  20
168.61803
  0
SEQEND
  0
POLYLINE
  5
3ed
  8
Layer_9
  62
172
  66
1
  10
0
  20
0
  30
0
  0
VERTEX
  5
3ed
  8
Layer_9
  10
256.2984
  20
177.11699
  0
VERTEX
  5
3ee
  8
Layer_9
  10
252.26326
  20
177.09601
  0
SEQEND
  0
POLYLINE
  5
3f0
  8
Layer_9
  62
172
  66
1
  10
0
  20
0
  30
0
  0
VERTEX
  5
3f0
  8
Layer_9
  10
222.56584
  20
119.91589
  0
VERTEX
  5
3f1
  8
Layer_9
  10
217.56595
  20
119.88252
  0
SEQEND
  0
POLYLINE
  5
3f3
  8
Layer_9
  62
172
  66
1
  10
0
  20
0
  30
0
  0
VERTEX
  5
3f3
  8
Layer_9
  10
120.2205
  20
149.58577
  0
VERTEX
  5
3f4
  8
Layer_9
  10
115.22058
  20
149.55974
  0
SEQEND
  0
POLYLINE
  5
3f6
  8
Layer_9
  62
172
  66
1
  10
0
  20
0
  30
0
  0
VERTEX
  5
3f6
  8
Layer_9
  10
77.84108
  20
129.15979
  0
VERTEX
  5
3f7
  8
Layer_9
  10
81.861908
  20
129.17062
  0
SEQEND
  0
POLYLINE
  5
3f9
  8
Layer_9
  62
172
  66
1
  10
0
  20
0
  30
0
  0
VERTEX
  5
3f9
  8
Layer_9
  10
71.882271
  20
133.48567
  0
VERTEX
  5
3fa
  8
Layer_9
  10
71.870979
  20
137.78868
  0
SEQEND
  0
POLYLINE
  5
3fc
  8
Layer_9
  62
172
  66
1
  10
0
  20
0
  30
0
  0
VERTEX
  5
3fc
  8
Layer_9
  10
152.50519
  20
207.89029
  0
VERTEX
  5
3fd
  8
Layer_9
  10
147.50531
  20
207.85693
  0
SEQEND
  0
POLYLINE
  5
3ff
  8
Layer_9
  62
172
  66
1
  10
0
  20
0
  30
0
  0
VERTEX
  5
3ff
  8
Layer_9
  10
58.708996
  20
129.44826
  0
VERTEX
  5
400
  8
Layer_9
  10
54.709042
  20
129.42863
  0
SEQEND
  0
POLYLINE
  5
402
  8
Layer_9
  62
172
  66
1
  10
0
  20
0
  30
0
  0
VERTEX
  5
402
  8
Layer_9
  10
71.952667
  20
187.96822
  0
VERTEX
  5
403
  8
Layer_9
  10
71.954071
  20
187.96822
  0
SEQEND
  0
POLYLINE
  5
405
  8
Layer_9
  62
172
  66
1
  10
0
  20
0
  30
0
  0
VERTEX
  5
405
  8
Layer_9
  10
128.43085
  20
110.53185
  0
VERTEX
  5
406
  8
Layer_9
  10
133.43073
  20
110.5652
  0
SEQEND
  0
ENDSEC
  0
EOF
