0
SECTION
2
HEADER
9
$INSUNITS
70
4
9
$ACADVER
1
AC1014
9
$HANDSEED
5
FFFF
0
ENDSEC
0
SECTION
2
TABLES
0
TABLE
2
VPORT
5
8
100
AcDbSymbolTable
0
ENDTAB
0
TABLE
2
LTYPE
5
5
100
AcDbSymbolTable
0
LTYPE
5
14
100
AcDbSymbolTableRecord
100
AcDbLinetypeTableRecord
2
BYBLOCK
70
0
0
LTYPE
5
15
100
AcDbSymbolTableRecord
100
AcDbLinetypeTableRecord
2
BYLAYER
70
0
0
LTYPE
5
16
100
AcDbSymbolTableRecord
100
AcDbLinetypeTableRecord
2
DASHED
70
0
3
Dashed __ __ __ __ __ __ __ __ __ __ __ __ __ _
72
65
73
2
40
0.75
49
0.5
74
0
49
-0.25
74
0
0
ENDTAB
0
TABLE
2
LAYER
5
2
100
AcDbSymbolTable
70
2
0
LAYER
5
50
100
AcDbSymbolTableRecord
100
AcDbLayerTableRecord
2
0
70
0
62
7
6
CONTINUOUS
0
ENDTAB
0
TABLE
2
STYLE
5
3
100
AcDbSymbolTable
70
1
0
STYLE
5
11
100
AcDbSymbolTableRecord
100
AcDbTextStyleTableRecord
2
STANDARD
70
0
0
ENDTAB
0
TABLE
2
VIEW
5
6
100
AcDbSymbolTable
70
0
0
ENDTAB
0
TABLE
2
UCS
5
7
100
AcDbSymbolTable
70
0
0
ENDTAB
0
TABLE
2
APPID
5
9
100
AcDbSymbolTable
70
2
0
APPID
5
12
100
AcDbSymbolTableRecord
100
AcDbRegAppTableRecord
2
ACAD
70
0
0
ENDTAB
0
TABLE
2
DIMSTYLE
5
A
100
AcDbSymbolTable
70
1
0
ENDTAB
0
TABLE
2
BLOCK_RECORD
5
1
100
AcDbSymbolTable
70
1
0
BLOCK_RECORD
5
1F
100
AcDbSymbolTableRecord
100
AcDbBlockTableRecord
2
*MODEL_SPACE
0
BLOCK_RECORD
5
1B
100
AcDbSymbolTableRecord
100
AcDbBlockTableRecord
2
*PAPER_SPACE
0
ENDTAB
0
ENDSEC
0
SECTION
2
BLOCKS
0
BLOCK
5
20
100
AcDbEntity
100
AcDbBlockBegin
2
*MODEL_SPACE
0
ENDBLK
5
21
100
AcDbEntity
100
AcDbBlockEnd
0
BLOCK
5
1C
100
AcDbEntity
100
AcDbBlockBegin
2
*PAPER_SPACE
0
ENDBLK
5
1D
100
AcDbEntity
100
AcDbBlockEnd
0
ENDSEC
0
SECTION
2
ENTITIES
0
ARC
5
100
100
AcDbEntity
8
0
100
AcDbCircle
10
-238.9317141342421
20
208.07381504139266
30
0
40
8.9999635304573662
210
-0
220
0
230
-1
100
AcDbArc
50
-0.082793029212881536
51
88.893391572120748
0
LWPOLYLINE
5
101
100
AcDbEntity
8
0
100
AcDbPolyline
90
4
70
1
43
0.0
10
113.11273999999999
20
104.90544
42
0.41421210000000136
10
110.38115000000002
20
102.13715999999999
42
0.41421503000000148
10
113.14943999999998
20
99.405562999999987
42
0.41420327000000423
10
115.88103000000002
20
102.17385999999999
42
0.4142120899999982
0
LINE
5
102
100
AcDbEntity
8
0
100
AcDbLine
10
81.936713999999995
20
133.92021
30
0
11
85.957390000000004
21
133.95711
31
0
0
LWPOLYLINE
5
103
100
AcDbEntity
8
0
100
AcDbPolyline
90
5
70
1
43
0.0
10
239.63931000000002
20
176.78133
42
0.41420436999999555
10
244.00986
20
181.21053000000001
42
0.19891516999999664
10
242.70041000000003
20
184.31316000000004
42
0.19891975999999234
10
239.58060000000003
20
185.58107000000001
42
0.41421540000000279
10
235.21005
20
181.15181000000004
42
0.4142062099999973
0
LINE
5
104
100
AcDbEntity
8
0
100
AcDbLine
10
42.988892000000007
20
128.29823000000002
30
0
11
37.238144000000005
21
128.25896
31
0
0
LINE
5
105
100
AcDbEntity
8
0
100
AcDbLine
10
56.489021000000001
20
113.73927
30
0
11
56.762337000000009
21
73.499190999999996
31
0
0
LINE
5
106
100
AcDbEntity
8
0
100
AcDbLine
10
261.85912999999999
20
127.5284
30
0
11
261.89251999999999
21
122.52848999999999
31
0
0
ARC
5
107
100
AcDbEntity
8
0
100
AcDbCircle
10
32.286763160725265
20
129.0186965066022
30
0
40
4.5000451214215129
210
0
220
-0
230
1
100
AcDbArc
50
89.725544232516285
51
178.68510613454254
0
LWPOLYLINE
5
108
100
AcDbEntity
8
0
100
AcDbPolyline
90
5
70
1
43
0.0
10
274.20794999999998
20
169.40572
42
0.41421651999999104
10
271.47637999999995
20
166.63741000000002
42
0.41421061999998421
10
274.24466000000001
20
163.90584000000001
42
0.19889873000001068
10
276.18377999999996
20
164.72423000000003
42
0.19892983999999253
10
276.97626000000002
20
166.67408999999998
42
0.41420474999999807
0
LINE
5
109
100
AcDbEntity
8
0
100
AcDbLine
10
156.72083000000001
20
192.44591
30
0
11
151.72093000000001
21
192.41255000000001
31
0
0
LINE
5
110
100
AcDbEntity
8
0
100
AcDbLine
10
236.78125
20
104.53825000000002
30
0
11
231.78137000000004
21
104.50487000000001
31
0
0
ARC
5
111
100
AcDbEntity
8
0
100
AcDbCircle
10
43.022027158567781
20
123.77285919032273
30
0
40
4.9997686469103382
210
-0
220
0
230
1
100
AcDbArc
50
314.91065101323125
51
359.9126864363958
0
LINE
5
112
100
AcDbEntity
8
0
100
AcDbLine
10
261.80736999999999
20
136.24341999999999
30
0
11
261.78134
21
141.24338999999998
31
0
0
LWPOLYLINE
5
113
100
AcDbEntity
8
0
100
AcDbPolyline
90
4
70
1
43
0.0
10
113.90003000000002
20
88.400222999999997
42
0.41420895999999729
10
109.52947000000002
20
83.970900999999998
42
0.41421172000000156
10
113.95876000000001
20
79.600327000000021
42
0.41421540000000395
10
118.32928999999999
20
84.029617000000002
42
0.41421539999999868
0
LINE
5
114
100
AcDbEntity
8
0
100
AcDbLine
10
173.84561000000002
20
143.86643999999998
30
0
11
163.07238999999998
21
133.43141
31
0
0
LINE
5
115
100
AcDbEntity
8
0
100
AcDbLine
10
165.25826999999998
20
153.73488000000003
30
0
11
169.74254999999999
21
153.80989
31
0
0
LINE
5
116
100
AcDbEntity
8
0
100
AcDbLine
10
95.14730800000001
20
94.837143000000012
30
0
11
100.14719000000001
21
94.870529000000005
31
0
0
LINE
5
117
100
AcDbEntity
8
0
100
AcDbLine
10
184.38184000000001
20
86.013885000000002
30
0
11
203.82559000000001
21
86.013885000000002
31
0
0
ARC
5
118
100
AcDbEntity
8
0
100
AcDbCircle
10
-92.373414919902842
20
84.174684890347493
30
0
40
2.7355543840908365
210
0
220
-0
230
-1
100
AcDbArc
50
190.11943857999776
51
241.46266276830903
0
LINE
5
119
100
AcDbEntity
8
0
100
AcDbLine
10
181.78246999999999
20
104.17125
30
0
11
186.78235000000001
21
104.20461000000002
31
0
0
LINE
5
120
100
AcDbEntity
8
0
100
AcDbLine
10
194.05496000000002
20
79.833693999999994
30
0
11
194.12241
21
86.088806000000005
31
0
0
LINE
5
121
100
AcDbEntity
8
0
100
AcDbLine
10
222.03131000000002
20
86.242812999999998
30
0
11
217.02771000000001
21
86.242812999999998
31
0
0
LINE
5
122
100
AcDbEntity
8
0
100
AcDbLine
10
104.55622
20
113.86555000000001
30
0
11
99.556320000000014
21
113.83220000000001
31
0
0
ARC
5
123
100
AcDbEntity
8
0
100
AcDbCircle
10
-92.143099458302245
20
85.437274406502993
30
0
40
3.9830987358829866
210
0
220
-0
230
-1
100
AcDbArc
50
249.17944924839168
51
282.07353557133803
0
LINE
5
124
100
AcDbEntity
8
0
100
AcDbLine
10
84.802299000000005
20
152.90056000000001
30
0
11
89.802238000000017
21
152.92659
31
0
0
LINE
5
125
100
AcDbEntity
8
0
100
AcDbLine
10
247.65543000000002
20
202.55293
30
0
11
242.65552000000002
21
202.51955000000004
31
0
0
LINE
5
126
100
AcDbEntity
8
0
100
AcDbLine
10
173.70490000000001
20
172.61885000000004
30
0
11
173.84561000000002
21
143.86643999999998
31
0
0
LINE
5
127
100
AcDbEntity
8
0
100
AcDbLine
10
93.620155000000011
20
81.742142000000001
30
0
11
93.558860999999993
21
81.714279000000005
31
0
0
LINE
5
128
100
AcDbEntity
8
0
100
AcDbLine
10
75.767204000000007
20
152.85353000000001
30
0
11
79.802361000000005
21
152.87458999999998
31
0
0
LINE
5
129
100
AcDbEntity
8
0
100
AcDbLine
10
260.93259
20
202.67345000000003
30
0
11
261.85309000000007
21
144.06148000000002
31
0
0
LINE
5
130
100
AcDbEntity
8
0
100
AcDbLine
10
261.36052999999998
20
175.42561000000003
30
0
11
261.39722
21
173.08659000000003
31
0
0
ARC
5
131
100
AcDbEntity
8
0
100
AcDbCircle
10
32.31587983242585
20
117.99581757837043
30
0
40
4.4999658593889089
210
0
220
0
230
1
100
AcDbArc
50
181.61568187574471
51
270.57712482724276
0
LINE
5
132
100
AcDbEntity
8
0
100
AcDbLine
10
111.00036000000003
20
74.791320999999996
30
0
11
106.00048000000001
21
74.757949999999994
31
0
0
LINE
5
133
100
AcDbEntity
8
0
100
AcDbLine
10
71.844131000000004
20
133.55568
30
0
11
71.843681000000004
21
133.51387
31
0
0
ARC
5
134
100
AcDbEntity
8
0
100
AcDbCircle
10
-162.76688948838026
20
60.157029464803877
30
0
40
3.0000014648188724
210
-0
220
0
230
-1
100
AcDbArc
50
270.00018121462506
51
345.45925843922925
0
LINE
5
135
100
AcDbEntity
8
0
100
AcDbLine
10
174.93951000000004
20
55.657028000000004
30
0
11
174.93951000000004
21
57.157028000000011
31
0
0
LINE
5
136
100
AcDbEntity
8
0
100
AcDbLine
10
175.08483999999999
20
50.910171999999996
30
0
11
174.93951000000004
21
55.657028000000004
31
0
0
LINE
5
137
100
AcDbEntity
8
0
100
AcDbLine
10
159.74301
20
60.069321000000002
30
0
11
159.52225000000001
21
71.143692000000001
31
0
0
LINE
5
138
100
AcDbEntity
8
0
100
AcDbLine
10
163.76279
20
75.256423999999996
30
0
11
173.60683999999998
21
75.116607999999999
31
0
0
ARC
5
139
100
AcDbEntity
8
0
100
AcDbCircle
10
-164.20281977905691
20
60.529734570968657
30
0
40
4.4835124536131374
210
-0
220
0
230
-1
100
AcDbArc
50
345.45605787670434
51
354.10588463396715
0
LINE
5
140
100
AcDbEntity
8
0
100
AcDbLine
10
56.352592000000001
20
129.26393000000002
30
0
11
56.349739
21
125.21988999999999
31
0
0
LINE
5
141
100
AcDbEntity
8
0
100
AcDbLine
10
249.65176
20
202.33702
30
0
11
260.93259
21
202.67345000000003
31
0
0
LINE
5
142
100
AcDbEntity
8
0
100
AcDbLine
10
174.93951000000004
20
57.157028000000011
30
0
11
162.76688000000004
21
57.157028000000011
31
0
0
LINE
5
143
100
AcDbEntity
8
0
100
AcDbLine
10
266.25277999999997
20
177.64644000000001
30
0
11
277.28775000000002
21
177.52864
31
0
0
LINE
5
144
100
AcDbEntity
8
0
100
AcDbLine
10
173.07220000000001
20
172.61571000000001
30
0
11
173.70490000000001
21
172.61885000000004
31
0
0
ARC
5
145
100
AcDbEntity
8
0
100
AcDbCircle
10
-239.64979707768339
20
207.09613017647527
30
0
40
10.000143448920076
210
0
220
0
230
-1
100
AcDbArc
50
134.87117902906414
51
179.91686599843135
0
ARC
5
146
100
AcDbEntity
8
0
100
AcDbCircle
10
-163.63702313171001
20
71.235283684963463
30
0
40
4.0231066029092002
210
0
220
0
230
-1
100
AcDbArc
50
45.41946735873492
51
91.791422812318203
0
LINE
5
147
100
AcDbEntity
8
0
100
AcDbLine
10
173.96029999999999
20
75.176804000000004
30
0
11
173.94897
21
103.89716
31
0
0
LINE
5
148
100
AcDbEntity
8
0
100
AcDbLine
10
261.85410000000002
20
129.24361000000002
30
0
11
261.82805999999999
21
134.24355
31
0
0
LINE
5
149
100
AcDbEntity
8
0
100
AcDbLine
10
173.60683999999998
20
75.116607999999999
30
0
11
173.96029999999999
21
75.176804000000004
31
0
0
ARC
5
150
100
AcDbEntity
8
0
100
AcDbCircle
10
-163.61772471544208
20
71.116157973840245
30
0
40
4.095567270528182
210
0
220
0
230
-1
100
AcDbArc
50
0.3851958157953122
51
46.781650683953259
0
LINE
5
151
100
AcDbEntity
8
0
100
AcDbLine
10
266.19409000000007
20
177.66114999999999
30
0
11
266.24252000000001
21
177.64934
31
0
0
LINE
5
152
100
AcDbEntity
8
0
100
AcDbLine
10
212.08179000000001
20
86.16035500000001
30
0
11
207.38150000000002
21
86.13822900000001
31
0
0
LINE
5
153
100
AcDbEntity
8
0
100
AcDbLine
10
261.96094000000005
20
74.364609000000002
30
0
11
261.87282999999996
21
51.347153000000006
31
0
0
LINE
5
154
100
AcDbEntity
8
0
100
AcDbLine
10
265.82605000000001
20
177.65535
30
0
11
266.19409000000007
21
177.66114999999999
31
0
0
LINE
5
155
100
AcDbEntity
8
0
100
AcDbLine
10
275.87377999999995
20
70.595123000000001
30
0
11
265.36352999999997
21
70.729782
31
0
0
LINE
5
156
100
AcDbEntity
8
0
100
AcDbLine
10
94.556426999999999
20
113.79881
30
0
11
89.556534000000013
21
113.76546000000002
31
0
0
LINE
5
157
100
AcDbEntity
8
0
100
AcDbLine
10
33.740631
20
113.51006000000001
30
0
11
56.489021000000001
21
113.73927
31
0
0
LINE
5
158
100
AcDbEntity
8
0
100
AcDbLine
10
60.749770999999996
20
70.204666000000003
30
0
11
72.067467000000008
21
70.159103000000002
31
0
0
LINE
5
159
100
AcDbEntity
8
0
100
AcDbLine
10
85.147530000000003
20
94.770401000000021
30
0
11
90.147430000000014
21
94.803771999999995
31
0
0
LINE
5
160
100
AcDbEntity
8
0
100
AcDbLine
10
173.94897
20
103.89716
30
0
11
163.12241
21
114.27342000000002
31
0
0
LWPOLYLINE
5
161
100
AcDbEntity
8
0
100
AcDbPolyline
90
4
70
1
43
0.0
10
240.81015000000002
20
62.395172000000002
42
0.41420988000001041
10
245.18069000000003
20
66.824462999999994
42
0.41420805000000827
10
240.75142999999997
20
71.195006999999976
42
0.41420437000000565
10
236.38086000000001
20
66.765717000000009
42
0.41420987999999748
0
LINE
5
162
100
AcDbEntity
8
0
100
AcDbLine
10
105.14708999999999
20
94.903899999999993
30
0
11
110.14698000000001
21
94.937256000000019
31
0
0
LINE
5
163
100
AcDbEntity
8
0
100
AcDbLine
10
125.14663
20
95.03741500000001
30
0
11
130.14651000000001
21
95.07077000000001
31
0
0
LINE
5
164
100
AcDbEntity
8
0
100
AcDbLine
10
157.41385000000002
20
75.101027999999999
30
0
11
152.41397000000001
21
75.067656999999997
31
0
0
LWPOLYLINE
5
165
100
AcDbEntity
8
0
100
AcDbPolyline
90
4
70
1
43
0.0
10
239.67255
20
153.03233
42
0.41420768000000996
10
242.40411
20
155.80061000000001
42
0.41421354000000171
10
239.63583
20
158.53221000000005
42
0.41421357999999597
10
236.90424000000002
20
155.76393000000002
42
0.41421945000000415
0
LINE
5
166
100
AcDbEntity
8
0
100
AcDbLine
10
76.097892999999999
20
132.88776999999999
30
0
11
75.822226999999998
21
172.48328999999998
31
0
0
LWPOLYLINE
5
167
100
AcDbEntity
8
0
100
AcDbPolyline
90
4
70
1
43
0.0
10
116.35393999999999
20
67.103988999999999
42
0.41420767999999653
10
113.58564
20
69.835556000000011
42
0.41421210000000136
10
110.85405
20
67.067276000000007
42
0.41421208999999903
10
113.62234000000001
20
64.335678000000001
42
0.41421503999999276
0
ARC
5
168
100
AcDbEntity
8
0
100
AcDbCircle
10
71.822348048921725
20
173.06490167279347
30
0
40
4.0000020198380621
210
-0
220
0
230
1
100
AcDbArc
50
-0.010623674869730031
51
45.261301137127369
0
LINE
5
169
100
AcDbEntity
8
0
100
AcDbLine
10
95.428687999999994
20
77.622162000000003
30
0
11
89.377548000000004
21
79.586287999999996
31
0
0
LINE
5
170
100
AcDbEntity
8
0
100
AcDbLine
10
154.43573000000001
20
134.29756
30
0
11
149.43579
21
134.27156000000002
31
0
0
LINE
5
171
100
AcDbEntity
8
0
100
AcDbLine
10
139.38938999999999
20
172.55768999999998
30
0
11
163.23361000000003
21
172.55965
31
0
0
LWPOLYLINE
5
172
100
AcDbEntity
8
0
100
AcDbPolyline
90
4
70
1
43
0.0
10
61.596672000000005
20
76.786652000000004
42
0.41421649999999499
10
64.364967000000007
20
74.055068999999989
42
0.41420989000000102
10
67.096549999999993
20
76.823348999999993
42
0.41421430000000398
10
64.328261999999995
20
79.554946999999999
42
0.41420474000000346
0
LWPOLYLINE
5
173
100
AcDbEntity
8
0
100
AcDbPolyline
90
5
70
1
43
0.0
10
113.05577
20
143.15583999999998
42
0.41421504999998904
10
115.78736000000001
20
145.92411999999999
42
0.41420619999999597
10
113.01907
20
148.65572
42
0.41421800000000386
10
110.28748999999998
20
145.88741000000002
42
0.19891652000000024
10
111.10590000000002
20
143.94828999999999
42
0.19893691000000538
0
LINE
5
174
100
AcDbEntity
8
0
100
AcDbLine
10
71.785118000000011
20
177.06477000000001
30
0
11
60.467827000000007
21
176.95946000000004
31
0
0
LINE
5
175
100
AcDbEntity
8
0
100
AcDbLine
10
62.924629000000003
20
114.00388999999998
30
0
11
58.924675000000008
21
113.98423999999999
31
0
0
LINE
5
176
100
AcDbEntity
8
0
100
AcDbLine
10
261.93921
20
115.52866999999999
30
0
11
261.90584999999999
21
120.52855000000001
31
0
0
ARC
5
177
100
AcDbEntity
8
0
100
AcDbCircle
10
60.765516826483939
20
74.204537403982911
30
0
40
3.9997032215021786
210
0
220
0
230
1
100
AcDbArc
50
179.71814579844147
51
224.74662033170381
0
LINE
5
178
100
AcDbEntity
8
0
100
AcDbLine
10
147.41406000000001
20
75.034301999999997
30
0
11
142.41418000000004
21
75.000931000000008
31
0
0
LINE
5
179
100
AcDbEntity
8
0
100
AcDbLine
10
159.79993000000002
20
95.060699
30
0
11
139.94766000000001
21
95.036819000000008
31
0
0
ARC
5
180
100
AcDbEntity
8
0
100
AcDbCircle
10
43.022943006067237
20
123.29823394776679
30
0
40
5.0001119980818647
210
0
220
-0
230
1
100
AcDbArc
50
0.39196676290175614
51
90.39019006312347
0
LINE
5
181
100
AcDbEntity
8
0
100
AcDbLine
10
226.78146000000001
20
104.47150999999999
30
0
11
221.78158999999999
21
104.43816
31
0
0
LINE
5
182
100
AcDbEntity
8
0
100
AcDbLine
10
33.687820000000002
20
133.51210000000003
30
0
11
32.308318999999997
21
133.51868999999999
31
0
0
LINE
5
183
100
AcDbEntity
8
0
100
AcDbLine
10
93.668991000000005
20
87.10249300000001
30
0
11
93.729095000000001
21
87.072143999999994
31
0
0
LINE
5
184
100
AcDbEntity
8
0
100
AcDbLine
10
242.02716000000004
20
86.409683000000001
30
0
11
237.02728000000002
21
86.376328000000001
31
0
0
LINE
5
185
100
AcDbEntity
8
0
100
AcDbLine
10
173.36182000000002
20
201.96764000000002
30
0
11
183.55581999999998
21
201.92104
31
0
0
LINE
5
186
100
AcDbEntity
8
0
100
AcDbLine
10
134.55554000000001
20
114.06572
30
0
11
129.55566000000002
21
114.03236000000001
31
0
0
LINE
5
187
100
AcDbEntity
8
0
100
AcDbLine
10
93.680274999999995
20
81.771484000000001
30
0
11
93.620155000000011
21
81.742142000000001
31
0
0
ARC
5
188
100
AcDbEntity
8
0
100
AcDbCircle
10
-150.41056132535604
20
197.97757935674281
30
0
40
8.9999795419007338
210
0
220
0
230
-1
100
AcDbArc
50
91.204567643238747
51
179.87661861719673
0
LINE
5
189
100
AcDbEntity
8
0
100
AcDbLine
10
173.31934999999999
20
192.40943999999999
30
0
11
173.36182000000002
21
201.96764000000002
31
0
0
ARC
5
190
100
AcDbEntity
8
0
100
AcDbCircle
10
-192.78882501480749
20
207.56224493844346
30
0
40
8.9999917953241351
210
0
220
0
230
-1
100
AcDbArc
50
44.874811012947198
51
91.22791174190823
0
LINE
5
191
100
AcDbEntity
8
0
100
AcDbLine
10
202.99982
20
207.49193000000002
30
0
11
202.99982
21
202.13437999999999
31
0
0
LINE
5
192
100
AcDbEntity
8
0
100
AcDbLine
10
37.263168
20
118.78191000000001
30
0
11
43.014095000000012
21
118.77299000000001
31
0
0
LINE
5
193
100
AcDbEntity
8
0
100
AcDbLine
10
237.65563999999998
20
202.48619000000002
30
0
11
232.65573000000001
21
202.45283999999998
31
0
0
LINE
5
194
100
AcDbEntity
8
0
100
AcDbLine
10
71.960487000000001
20
113.95998
30
0
11
71.95955699999999
21
114.00182000000001
31
0
0
LINE
5
195
100
AcDbEntity
8
0
100
AcDbLine
10
179.02875
20
86.251525999999998
30
0
11
175.02898999999999
21
86.294693000000024
31
0
0
ARC
5
196
100
AcDbEntity
8
0
100
AcDbCircle
10
-90.950419024895837
20
84.703620559116814
30
0
40
4.2380013479821574
210
0
220
-0
230
-1
100
AcDbArc
50
184.42739358639176
51
193.78147756569655
0
ARC
5
197
100
AcDbEntity
8
0
100
AcDbCircle
10
-192.55506747935573
20
207.33613158819571
30
0
40
8.9997521570347434
210
0
220
0
230
-1
100
AcDbArc
50
0.60678024569183797
51
46.945384859126079
0
ARC
5
198
100
AcDbEntity
8
0
100
AcDbCircle
10
43.205575758511003
20
123.4845905765271
30
0
40
4.8158322461893635
210
-0
220
0
230
1
100
AcDbArc
50
-0.10446590115812508
51
1.6175376448257852
0
ARC
5
199
100
AcDbEntity
8
0
100
AcDbCircle
10
-193.99705165581315
20
207.53472126207612
30
0
40
9.0028700396708476
210
0
220
0
230
-1
100
AcDbArc
50
90.27180410682368
51
180.2723318161695
0
LINE
5
200
100
AcDbEntity
8
0
100
AcDbLine
10
256.78078999999997
20
104.67168000000001
30
0
11
251.78091000000001
21
104.63835000000002
31
0
0
LINE
5
201
100
AcDbEntity
8
0
100
AcDbLine
10
104.80202
20
153.00456
30
0
11
109.80196000000001
21
153.03058999999999
31
0
0
LINE
5
202
100
AcDbEntity
8
0
100
AcDbLine
10
89.578125000000014
20
89.399567000000019
30
0
11
95.704468000000006
21
91.114792000000023
31
0
0
LINE
5
203
100
AcDbEntity
8
0
100
AcDbLine
10
192.98169000000001
20
216.56017000000006
30
0
11
194.03976
21
216.53749000000002
31
0
0
LINE
5
204
100
AcDbEntity
8
0
100
AcDbLine
10
183.55581999999998
20
201.92104
30
0
11
183.55581999999998
21
207.43144000000001
31
0
0
LINE
5
205
100
AcDbEntity
8
0
100
AcDbLine
10
202.99982
20
201.92081999999999
30
0
11
229.95567000000005
21
202.03444000000002
31
0
0
LINE
5
206
100
AcDbEntity
8
0
100
AcDbLine
10
202.99982
20
202.13437999999999
30
0
11
202.99982
21
201.92081999999999
31
0
0
LINE
5
207
100
AcDbEntity
8
0
100
AcDbLine
10
139.54593
20
192.48502999999999
30
0
11
139.55824000000001
21
198.00221000000005
31
0
0
LINE
5
208
100
AcDbEntity
8
0
100
AcDbLine
10
159.42266999999998
20
192.35786000000004
30
0
11
173.31934999999999
21
192.40943999999999
31
0
0
ARC
5
209
100
AcDbEntity
8
0
100
AcDbCircle
10
-148.55809132728706
20
197.98238299392366
30
0
40
8.9998731670752168
210
0
220
0
230
-1
100
AcDbArc
50
0.12622452187343983
51
89.252377200713241
0
LINE
5
210
100
AcDbEntity
8
0
100
AcDbLine
10
122.61124000000001
20
172.58466999999999
30
0
11
139.38938999999999
21
172.55768999999998
31
0
0
LINE
5
211
100
AcDbEntity
8
0
100
AcDbLine
10
89.431580000000025
20
84.493865999999997
30
0
11
89.578125000000014
21
89.399567000000019
31
0
0
LINE
5
212
100
AcDbEntity
8
0
100
AcDbLine
10
266.54095000000001
20
145.09053
30
0
11
263.54098999999997
21
145.07491000000002
31
0
0
ARC
5
213
100
AcDbEntity
8
0
100
AcDbCircle
10
60.765869985722489
20
74.204707138599275
30
0
40
4.0000735353025494
210
0
220
0
230
1
100
AcDbArc
50
224.74478597775266
51
269.76940263262691
0
LINE
5
214
100
AcDbEntity
8
0
100
AcDbLine
10
82.056708999999998
20
113.71541000000001
30
0
11
86.077538000000004
21
113.72624
31
0
0
LINE
5
215
100
AcDbEntity
8
0
100
AcDbLine
10
266.78057999999999
20
104.73841999999999
30
0
11
263.78064000000001
21
104.7184
31
0
0
LINE
5
216
100
AcDbEntity
8
0
100
AcDbLine
10
37.731850000000001
20
128.18903999999998
30
0
11
37.248404999999998
21
128.25748999999999
31
0
0
ARC
5
217
100
AcDbEntity
8
0
100
AcDbCircle
10
-129.66290970994254
20
177.72566157813114
30
0
40
4.871734870015338
210
-0
220
0
230
-1
100
AcDbArc
50
298.67383271131609
51
339.83683489167328
0
LINE
5
218
100
AcDbEntity
8
0
100
AcDbLine
10
149.37343999999999
20
206.99367000000001
30
0
11
150.59976
21
206.97557000000003
31
0
0
LINE
5
219
100
AcDbEntity
8
0
100
AcDbLine
10
124.43612
20
134.14136999999999
30
0
11
119.43621
21
134.11536999999998
31
0
0
LINE
5
220
100
AcDbEntity
8
0
100
AcDbLine
10
132.64648
20
95.087479000000016
30
0
11
137.64636000000002
21
95.120818999999997
31
0
0
LINE
5
221
100
AcDbEntity
8
0
100
AcDbLine
10
72.809166000000005
20
133.47408000000001
30
0
11
67.809287999999995
21
133.43922000000001
31
0
0
LINE
5
222
100
AcDbEntity
8
0
100
AcDbLine
10
103.34260999999999
20
172.47780000000003
30
0
11
122.61124000000001
21
172.58466999999999
31
0
0
LINE
5
223
100
AcDbEntity
8
0
100
AcDbLine
10
124.55576000000001
20
113.99901000000001
30
0
11
119.55587000000001
21
113.96562000000002
31
0
0
LINE
5
224
100
AcDbEntity
8
0
100
AcDbLine
10
251.85022000000004
20
161.56923000000003
30
0
11
246.85024999999999
21
161.57915
31
0
0
LINE
5
225
100
AcDbEntity
8
0
100
AcDbLine
10
76.09790000000001
20
118.04131000000001
30
0
11
76.08660900000001
21
122.34428000000001
31
0
0
LINE
5
226
100
AcDbEntity
8
0
100
AcDbLine
10
201.68976000000001
20
143.50475
30
0
11
206.68976000000001
21
143.49492000000001
31
0
0
LINE
5
227
100
AcDbEntity
8
0
100
AcDbLine
10
240.07730000000004
20
217.09761
30
0
11
239.61938000000001
21
217.09614999999999
31
0
0
LINE
5
228
100
AcDbEntity
8
0
100
AcDbLine
10
266.24252000000001
20
177.64934
30
0
11
266.25277999999997
21
177.64644000000001
31
0
0
LINE
5
229
100
AcDbEntity
8
0
100
AcDbLine
10
76.083411999999996
20
74.181122000000002
30
0
11
76.079063000000005
21
74.822768999999994
31
0
0
LINE
5
230
100
AcDbEntity
8
0
100
AcDbLine
10
249.64992999999998
20
207.11063999999999
30
0
11
249.65176
21
202.33702
31
0
0
ARC
5
231
100
AcDbEntity
8
0
100
AcDbCircle
10
-277.43009934122551
20
173.34166012668197
30
0
40
4.1895314088217841
210
0
220
0
230
-1
100
AcDbArc
50
133.52560005063589
51
178.99791453318798
0
LINE
5
232
100
AcDbEntity
8
0
100
AcDbLine
10
231.75043000000002
20
161.64158999999998
30
0
11
226.85024999999999
21
161.61855
31
0
0
LINE
5
233
100
AcDbEntity
8
0
100
AcDbLine
10
211.90402000000006
20
161.69737000000001
30
0
11
207.20370000000003
21
161.69737000000001
31
0
0
LINE
5
234
100
AcDbEntity
8
0
100
AcDbLine
10
125.08974000000001
20
176.04640000000001
30
0
11
125.06394
21
176.12148000000002
31
0
0
LINE
5
235
100
AcDbEntity
8
0
100
AcDbLine
10
229.95567000000005
20
202.03444000000002
30
0
11
229.93176000000003
21
208.06081000000003
31
0
0
LINE
5
236
100
AcDbEntity
8
0
100
AcDbLine
10
260.88544000000002
20
161.55144000000001
30
0
11
256.85022000000004
21
161.55937
31
0
0
LINE
5
237
100
AcDbEntity
8
0
100
AcDbLine
10
125.06394
20
176.12148000000002
30
0
11
124.96914000000001
21
187.97132999999999
31
0
0
LINE
5
238
100
AcDbEntity
8
0
100
AcDbLine
10
265.28078999999997
20
70.736496000000002
30
0
11
265.19644
21
70.745070999999996
31
0
0
LINE
5
239
100
AcDbEntity
8
0
100
AcDbLine
10
241.68970000000002
20
143.42610000000002
30
0
11
246.68970000000002
21
143.41628
31
0
0
LINE
5
240
100
AcDbEntity
8
0
100
AcDbLine
10
226.68972999999997
20
143.45561000000001
30
0
11
221.68972999999997
21
143.46544
31
0
0
LINE
5
241
100
AcDbEntity
8
0
100
AcDbLine
10
115.14686
20
94.970687999999996
30
0
11
120.14675
21
95.004043999999993
31
0
0
ARC
5
242
100
AcDbEntity
8
0
100
AcDbCircle
10
-129.46910764035951
20
188.00710478711818
30
0
40
4.500246151543549
210
0
220
0
230
-1
100
AcDbArc
50
44.835319072145346
51
90.126328598856261
0
LINE
5
243
100
AcDbEntity
8
0
100
AcDbLine
10
184.20370000000003
20
161.71346
30
0
11
189.20364000000001
21
161.73698000000002
31
0
0
LINE
5
244
100
AcDbEntity
8
0
100
AcDbLine
10
129.47902999999999
20
192.50734
30
0
11
139.54593
21
192.48502999999999
31
0
0
ARC
5
245
100
AcDbEntity
8
0
100
AcDbCircle
10
-133.4851297023518
20
183.53860630272561
30
0
40
11.819278548381201
210
-0
220
0
230
-1
100
AcDbArc
50
291.92661289019293
51
301.41040374113572
0
ARC
5
246
100
AcDbEntity
8
0
100
AcDbCircle
10
-129.46921447646159
20
188.0072523820325
30
0
40
4.500217851530282
210
-0
220
0
230
-1
100
AcDbArc
50
-0.45736068930611096
51
44.833027453874251
0
LINE
5
247
100
AcDbEntity
8
0
100
AcDbLine
10
158.26978
20
153.43648000000002
30
0
11
139.2373
21
153.23328999999998
31
0
0
LINE
5
248
100
AcDbEntity
8
0
100
AcDbLine
10
241.78112999999999
20
104.57160999999999
30
0
11
246.78104000000002
21
104.60497000000001
31
0
0
LINE
5
249
100
AcDbEntity
8
0
100
AcDbLine
10
241.85024999999999
20
161.58896999999999
30
0
11
236.85024999999999
21
161.59880000000001
31
0
0
LINE
5
250
100
AcDbEntity
8
0
100
AcDbLine
10
216.68976000000001
20
143.47526999999999
30
0
11
211.68972999999997
21
143.48509000000001
31
0
0
LINE
5
251
100
AcDbEntity
8
0
100
AcDbLine
10
159.41051999999996
20
197.99696
30
0
11
159.42266999999998
21
192.35786000000004
31
0
0
LINE
5
252
100
AcDbEntity
8
0
100
AcDbLine
10
90.442345000000003
20
162.82521
30
0
11
100.94234
21
162.82776999999999
31
0
0
LINE
5
253
100
AcDbEntity
8
0
100
AcDbLine
10
221.85382000000004
20
161.66176000000004
30
0
11
216.85028
21
161.63820000000001
31
0
0
LINE
5
254
100
AcDbEntity
8
0
100
AcDbLine
10
154.55510000000001
20
114.19920000000002
30
0
11
149.55521000000002
21
114.16582
31
0
0
LINE
5
255
100
AcDbEntity
8
0
100
AcDbLine
10
181.68982
20
143.54408000000001
30
0
11
186.68979000000002
21
143.53426000000002
31
0
0
ARC
5
256
100
AcDbEntity
8
0
100
AcDbCircle
10
-239.64985670841347
20
207.09600963247271
30
0
40
10.000186808255345
210
0
220
0
230
-1
100
AcDbArc
50
89.82538431510153
51
134.87044963526247
0
LINE
5
257
100
AcDbEntity
8
0
100
AcDbLine
10
146.72103999999999
20
192.37916999999999
30
0
11
141.72116
21
192.34583999999998
31
0
0
LINE
5
258
100
AcDbEntity
8
0
100
AcDbLine
10
176.78256000000002
20
104.13786000000002
30
0
11
174.28262000000001
21
104.12119000000001
31
0
0
ARC
5
259
100
AcDbEntity
8
0
100
AcDbCircle
10
-265.89673066720422
20
173.15586125194059
30
0
40
4.5000438609673328
210
-0
220
0
230
-1
100
AcDbArc
50
-0.88201521214437062
51
89.100037560213579
0
LINE
5
260
100
AcDbEntity
8
0
100
AcDbLine
10
114.55598000000002
20
113.93230000000001
30
0
11
109.55608000000001
21
113.89891000000003
31
0
0
LINE
5
261
100
AcDbEntity
8
0
100
AcDbLine
10
190.65667999999999
20
202.17256000000003
30
0
11
185.6568
21
202.13921000000002
31
0
0
LINE
5
262
100
AcDbEntity
8
0
100
AcDbLine
10
162.90967000000001
20
75.143630999999999
30
0
11
159.35409999999999
21
75.148894999999996
31
0
0
ARC
5
263
100
AcDbEntity
8
0
100
AcDbCircle
10
-148.62092919652298
20
69.29401904745022
30
0
40
8.9999430984692275
210
-0
220
0
230
-1
100
AcDbArc
50
-89.488916752999089
51
0.27531508480443051
0
LWPOLYLINE
5
264
100
AcDbEntity
8
0
100
AcDbPolyline
90
5
70
1
43
0.0
10
263.22662000000003
20
124.31139
42
0.19889871000000589
10
264.04504000000003
20
122.37224000000001
42
0.19893689000001227
10
265.99492999999995
20
121.57978999999999
42
0.41421649999999055
10
268.72649999999999
20
124.34806999999999
42
0.41420768000000324
10
265.95822000000004
20
127.07966999999999
42
0.41421358000000746
0
ARC
5
265
100
AcDbEntity
8
0
100
AcDbCircle
10
-150.25830019699552
20
69.27949634649751
30
0
40
9.0000087607323156
210
0
220
-0
230
-1
100
AcDbArc
50
180.92346463447345
51
270.51134054539165
0
LINE
5
266
100
AcDbEntity
8
0
100
AcDbLine
10
276.78055000000001
20
104.76189000000002
30
0
11
271.78057999999999
21
104.75014000000002
31
0
0
ARC
5
267
100
AcDbEntity
8
0
100
AcDbCircle
10
-265.48518992457963
20
73.861459866507857
30
0
40
3.1283444927082469
210
-0
220
0
230
-1
100
AcDbArc
50
276.82197789312283
51
335.33479629301183
0
LINE
5
268
100
AcDbEntity
8
0
100
AcDbLine
10
56.505271999999998
20
172.91896000000003
30
0
11
56.497856000000013
21
173.64391000000001
31
0
0
ARC
5
269
100
AcDbEntity
8
0
100
AcDbCircle
10
60.505205202421706
20
172.95927399107933
30
0
40
4.0003606382401715
210
0
220
0
230
1
100
AcDbArc
50
90.535362833919649
51
135.55567406599437
0
ARC
5
270
100
AcDbEntity
8
0
100
AcDbCircle
10
71.822307713468916
20
173.06493896899124
30
0
40
4.0000039189241541
210
0
220
-0
230
1
100
AcDbArc
50
45.260514708967392
51
90.532710558811146
0
LINE
5
271
100
AcDbEntity
8
0
100
AcDbLine
10
76.068390000000008
20
129.20466999999999
30
0
11
76.079819000000001
21
124.90160000000002
31
0
0
ARC
5
272
100
AcDbEntity
8
0
100
AcDbCircle
10
-275.90562611981545
20
76.463664282395158
30
0
40
5.9426141860634072
210
0
220
0
230
-1
100
AcDbArc
50
178.75171397057824
51
223.90546951100347
0
LINE
5
273
100
AcDbEntity
8
0
100
AcDbLine
10
261.87282999999996
20
51.347153000000006
30
0
11
175.08483999999999
21
50.910171999999996
31
0
0
ARC
5
274
100
AcDbEntity
8
0
100
AcDbCircle
10
72.083501689799732
20
74.159016563234729
30
0
40
3.9999457027097325
210
0
220
0
230
1
100
AcDbArc
50
269.77031625420744
51
315.04293298365127
0
LINE
5
275
100
AcDbEntity
8
0
100
AcDbLine
10
114.8019
20
153.05659
30
0
11
119.80181000000002
21
153.08260000000001
31
0
0
LINE
5
276
100
AcDbEntity
8
0
100
AcDbLine
10
150.17797999999999
20
60.279845999999978
30
0
11
148.54065
21
60.294433999999995
31
0
0
LINE
5
277
100
AcDbEntity
8
0
100
AcDbLine
10
104.43642
20
134.03731000000002
30
0
11
99.436478000000008
21
134.01125000000002
31
0
0
LINE
5
278
100
AcDbEntity
8
0
100
AcDbLine
10
94.802154999999999
20
152.95253
30
0
11
99.802093999999997
21
152.97859
31
0
0
LINE
5
279
100
AcDbEntity
8
0
100
AcDbLine
10
159.35409999999999
20
75.148894999999996
30
0
11
159.25713999999999
21
69.134444999999999
31
0
0
ARC
5
280
100
AcDbEntity
8
0
100
AcDbCircle
10
72.08335625507695
20
74.159112347523802
30
0
40
4.0001162967211377
210
-0
220
0
230
1
100
AcDbArc
50
-44.956565974475836
51
0.31525747379189439
0
ARC
5
281
100
AcDbEntity
8
0
100
AcDbCircle
10
-270.51239794711381
20
76.553331063712832
30
0
40
8.8271137578168215
210
-0
220
0
230
-1
100
AcDbArc
50
333.07318004993311
51
345.64350046518808
0
LINE
5
282
100
AcDbEntity
8
0
100
AcDbLine
10
265.19644
20
70.745070999999996
30
0
11
265.11358999999999
21
70.755263999999997
31
0
0
LINE
5
283
100
AcDbEntity
8
0
100
AcDbLine
10
265.36352999999997
20
70.729782
30
0
11
265.28078999999997
21
70.736496000000002
31
0
0
ARC
5
284
100
AcDbEntity
8
0
100
AcDbCircle
10
-275.9631200605649
20
76.57178437304465
30
0
40
5.9773290702842843
210
0
220
-0
230
-1
100
AcDbArc
50
225.0344215382359
51
270.85640240965228
0
LINE
5
285
100
AcDbEntity
8
0
100
AcDbLine
10
281.61899
20
173.41493
30
0
11
281.84682999999995
21
76.593124000000017
31
0
0
LINE
5
286
100
AcDbEntity
8
0
100
AcDbLine
10
95.650841
20
157.48072999999999
30
0
11
95.692474000000004
21
168.16926999999998
31
0
0
ARC
5
287
100
AcDbEntity
8
0
100
AcDbCircle
10
-277.43030778120612
20
173.3417264766089
30
0
40
4.1893397538678654
210
0
220
0
230
-1
100
AcDbArc
50
88.049922695922234
51
133.5241580055845
0
LINE
5
288
100
AcDbEntity
8
0
100
AcDbLine
10
195.65656000000004
20
202.20595000000003
30
0
11
200.65646000000001
21
202.23929999999999
31
0
0
ARC
5
289
100
AcDbEntity
8
0
100
AcDbCircle
10
60.504779047232205
20
172.95976131534553
30
0
40
3.999715160882559
210
0
220
0
230
1
100
AcDbArc
50
135.55638337182819
51
180.58448754988768
0
ARC
5
290
100
AcDbEntity
8
0
100
AcDbCircle
10
-92.102304660665553
20
83.44065431518024
30
0
40
3.9829095695860173
210
0
220
0
230
-1
100
AcDbArc
50
80.267516464863974
51
113.16324608395627
0
LINE
5
291
100
AcDbEntity
8
0
100
AcDbLine
10
163.23361000000003
20
172.55965
30
0
11
173.07220000000001
21
172.61571000000001
31
0
0
LINE
5
292
100
AcDbEntity
8
0
100
AcDbLine
10
72.924507000000006
20
114.05305
30
0
11
67.924568000000008
21
114.02849000000001
31
0
0
LINE
5
293
100
AcDbEntity
8
0
100
AcDbLine
10
48.019489
20
123.62053000000002
30
0
11
48.022938000000011
21
123.33244000000001
31
0
0
LINE
5
294
100
AcDbEntity
8
0
100
AcDbLine
10
262.08083999999997
20
105.71172000000001
30
0
11
261.96094000000005
21
74.364609000000002
31
0
0
LINE
5
295
100
AcDbEntity
8
0
100
AcDbLine
10
144.43588
20
134.24549999999999
30
0
11
139.43593999999999
21
134.21943999999999
31
0
0
LINE
5
296
100
AcDbEntity
8
0
100
AcDbLine
10
89.377548000000004
20
79.586287999999996
30
0
11
89.431580000000025
21
84.493865999999997
31
0
0
LINE
5
297
100
AcDbEntity
8
0
100
AcDbLine
10
56.382637000000003
20
117.87779
30
0
11
56.358368000000006
21
121.92177000000001
31
0
0
ARC
5
298
100
AcDbEntity
8
0
100
AcDbCircle
10
43.021908520977441
20
123.77278074966334
30
0
40
4.9997968550261218
210
0
220
0
230
1
100
AcDbArc
50
269.91045997060496
51
314.91224847898974
0
LINE
5
299
100
AcDbEntity
8
0
100
AcDbLine
10
191.78223
20
104.23796000000002
30
0
11
196.78214
21
104.27135
31
0
0
LINE
5
300
100
AcDbEntity
8
0
100
AcDbLine
10
114.43626999999999
20
134.08937000000003
30
0
11
109.43634
21
134.06333999999998
31
0
0
LINE
5
301
100
AcDbEntity
8
0
100
AcDbLine
10
201.78201000000001
20
104.30467
30
0
11
206.78189000000003
21
104.33806000000001
31
0
0
LINE
5
302
100
AcDbEntity
8
0
100
AcDbLine
10
148.44066000000001
20
206.98148999999998
30
0
11
149.37343999999999
21
206.99367000000001
31
0
0
LINE
5
303
100
AcDbEntity
8
0
100
AcDbLine
10
176.68982
20
143.55391
30
0
11
174.18982
21
143.55885000000001
31
0
0
LINE
5
304
100
AcDbEntity
8
0
100
AcDbLine
10
236.68970000000002
20
143.43593000000001
30
0
11
231.68972999999997
21
143.44578999999999
31
0
0
LINE
5
305
100
AcDbEntity
8
0
100
AcDbLine
10
256.68967000000004
20
143.39661999999998
30
0
11
251.68970000000002
21
143.40645000000001
31
0
0
LINE
5
306
100
AcDbEntity
8
0
100
AcDbLine
10
56.437172000000004
20
133.40303
30
0
11
33.687820000000002
21
133.51210000000003
31
0
0
LINE
5
307
100
AcDbEntity
8
0
100
AcDbLine
10
93.729095000000001
20
87.072143999999994
30
0
11
93.787964000000002
21
87.040374999999997
31
0
0
LINE
5
308
100
AcDbEntity
8
0
100
AcDbLine
10
75.822226999999998
20
172.48328999999998
30
0
11
103.34260999999999
21
172.47780000000003
31
0
0
LINE
5
309
100
AcDbEntity
8
0
100
AcDbLine
10
124.80175000000001
20
153.1086
30
0
11
129.80170000000001
21
153.13460000000001
31
0
0
ARC
5
310
100
AcDbEntity
8
0
100
AcDbCircle
10
-92.383975951894271
20
84.692562233572474
30
0
40
2.7355816978156282
210
0
220
0
230
-1
100
AcDbArc
50
120.87935202714596
51
172.22216007978832
0
ARC
5
311
100
AcDbEntity
8
0
100
AcDbCircle
10
-90.939854845038013
20
84.222147702869279
30
0
40
4.2387291627995705
210
0
220
0
230
-1
100
AcDbArc
50
168.56123074037345
51
177.91360008038163
0
LINE
5
312
100
AcDbEntity
8
0
100
AcDbLine
10
252.02695000000003
20
86.476517000000001
30
0
11
247.02707000000004
21
86.443054000000004
31
0
0
LINE
5
313
100
AcDbEntity
8
0
100
AcDbLine
10
76.112533999999997
20
94.710129000000023
30
0
11
80.147629000000009
21
94.737044999999995
31
0
0
LINE
5
314
100
AcDbEntity
8
0
100
AcDbLine
10
76.079063000000005
20
74.822768999999994
30
0
11
76.145966000000001
21
114.59733999999999
31
0
0
LINE
5
315
100
AcDbEntity
8
0
100
AcDbLine
10
32.361206000000003
20
113.49608000000002
30
0
11
33.740631
21
113.51006000000001
31
0
0
LINE
5
316
100
AcDbEntity
8
0
100
AcDbLine
10
216.78171000000003
20
104.40477000000001
30
0
11
211.7818
21
104.37141
31
0
0
LINE
5
317
100
AcDbEntity
8
0
100
AcDbLine
10
27.787903000000011
20
129.12196
30
0
11
27.658783000000007
21
123.49507000000001
31
0
0
LINE
5
318
100
AcDbEntity
8
0
100
AcDbLine
10
75.822226999999998
20
172.48328999999998
30
0
11
75.82235
21
173.06416000000002
31
0
0
LINE
5
319
100
AcDbEntity
8
0
100
AcDbLine
10
94.436554000000001
20
133.98531
30
0
11
89.436630000000008
21
133.95924000000002
31
0
0
LINE
5
320
100
AcDbEntity
8
0
100
AcDbLine
10
276.54047000000003
20
145.18581
30
0
11
271.54070999999999
21
145.13820000000004
31
0
0
LINE
5
321
100
AcDbEntity
8
0
100
AcDbLine
10
56.497856000000013
20
173.64391000000001
30
0
11
56.437172000000004
21
133.40303
31
0
0
LINE
5
322
100
AcDbEntity
8
0
100
AcDbLine
10
149.91551000000001
20
88.793365000000009
30
0
11
149.87378000000001
21
95.048721
31
0
0
LINE
5
323
100
AcDbEntity
8
0
100
AcDbLine
10
62.809401999999999
20
133.40440000000001
30
0
11
58.809502000000009
21
133.37653999999998
31
0
0
LINE
5
324
100
AcDbEntity
8
0
100
AcDbLine
10
231.92769999999999
20
86.309540000000013
30
0
11
227.02750000000003
21
86.309540000000013
31
0
0
LINE
5
325
100
AcDbEntity
8
0
100
AcDbLine
10
144.55531000000002
20
114.13246000000001
30
0
11
139.55542000000003
21
114.09911000000001
31
0
0
LINE
5
326
100
AcDbEntity
8
0
100
AcDbLine
10
191.68979000000002
20
143.52443
30
0
11
196.68979000000002
21
143.5146
31
0
0
LINE
5
327
100
AcDbEntity
8
0
100
AcDbLine
10
261.99257999999998
20
107.52885000000001
30
0
11
261.95922999999999
21
112.52873000000001
31
0
0
LINE
5
328
100
AcDbEntity
8
0
100
AcDbLine
10
134.43600000000001
20
134.19346999999999
30
0
11
129.43607
21
134.16743
31
0
0
LINE
5
329
100
AcDbEntity
8
0
100
AcDbLine
10
48.021789999999996
20
123.76524000000001
30
0
11
48.021400000000007
21
123.47581000000002
31
0
0
LINE
5
330
100
AcDbEntity
8
0
100
AcDbLine
10
56.762337000000009
20
73.499190999999996
30
0
11
56.765861999999998
21
74.224213000000006
31
0
0
LINE
5
331
100
AcDbEntity
8
0
100
AcDbLine
10
121.00013000000001
20
74.858046999999999
30
0
11
116.00023999999999
21
74.824677000000008
31
0
0
LINE
5
332
100
AcDbEntity
8
0
100
AcDbLine
10
76.168296999999995
20
172.52382
30
0
11
76.169701000000003
21
172.52382
31
0
0
LINE
5
333
100
AcDbEntity
8
0
100
AcDbLine
10
178.85177999999999
20
161.45064000000002
30
0
11
174.85226
21
161.38866000000004
31
0
0
LINE
5
334
100
AcDbEntity
8
0
100
AcDbLine
10
139.64841000000001
20
75.023193000000006
30
0
11
122.87853
21
74.907561999999999
31
0
0
LINE
5
335
100
AcDbEntity
8
0
100
AcDbLine
10
132.30163999999999
20
153.14766
30
0
11
137.30157
21
153.17366000000001
31
0
0
LINE
5
336
100
AcDbEntity
8
0
100
AcDbLine
10
194.20358000000004
20
161.76053999999999
30
0
11
199.20352000000003
21
161.78406999999999
31
0
0
LINE
5
337
100
AcDbEntity
8
0
100
AcDbLine
10
27.658783000000007
20
123.49507000000001
30
0
11
27.817703000000002
21
117.86894000000001
31
0
0
LINE
5
338
100
AcDbEntity
8
0
100
AcDbLine
10
238.75790000000001
20
217.07210000000003
30
0
11
240.07730000000004
21
217.09761
31
0
0
LINE
5
339
100
AcDbEntity
8
0
100
AcDbLine
10
139.62108999999995
20
69.337265000000002
30
0
11
139.64841000000001
21
75.023193000000006
31
0
0
LINE
5
340
100
AcDbEntity
8
0
100
AcDbLine
10
113.73312
20
60.131484999999998
30
0
11
112.42989
21
60.144272000000001
31
0
0
LINE
5
341
100
AcDbEntity
8
0
100
AcDbLine
10
103.51913000000002
20
69.273239000000018
30
0
11
103.60029
21
74.912719999999993
31
0
0
ARC
5
342
100
AcDbEntity
8
0
100
AcDbCircle
10
-112.51788886072923
20
69.143772868263255
30
0
40
8.9996901342668174
210
-0
220
0
230
-1
100
AcDbArc
50
-44.30805729969677
51
0.82426380255117304
0
ARC
5
343
100
AcDbEntity
8
0
100
AcDbCircle
10
-112.51831780847758
20
69.143977856991953
30
0
40
9.0001402761116704
210
-0
220
0
230
-1
100
AcDbArc
50
270.56294919643619
51
315.69291631882618
0
ARC
5
344
100
AcDbEntity
8
0
100
AcDbCircle
10
-113.82152322779844
20
69.13094068701912
30
0
40
8.9998898767321549
210
0
220
-0
230
-1
100
AcDbArc
50
180.56210459768178
51
270.56280836466038
0
LINE
5
345
100
AcDbEntity
8
0
100
AcDbLine
10
149.49475000000001
20
159.64643999999998
30
0
11
149.52731
21
153.39098000000001
31
0
0
LINE
5
346
100
AcDbEntity
8
0
100
AcDbLine
10
103.60029
20
74.912719999999993
30
0
11
76.079063000000005
21
74.822768999999994
31
0
0
LWPOLYLINE
5
347
100
AcDbEntity
8
0
100
AcDbPolyline
90
6
70
1
43
0.0
10
241.74057000000005
20
208.00969000000003
42
0.41421358000000025
10
238.97226000000003
20
210.74129000000002
42
0.19892497999998765
10
237.03314000000006
20
209.92287000000002
42
0.19890901999999799
10
236.24069000000003
20
207.97298000000006
42
0.41421061999998038
10
239.00897000000001
20
205.24141000000003
42
0.1989057299999899
10
240.94812000000005
20
206.05980000000002
42
0.19890901999999566
0
LINE
5
348
100
AcDbEntity
8
0
100
AcDbLine
10
122.87853
20
74.907561999999999
30
0
11
122.82098000000002
21
69.042648
31
0
0
LWPOLYLINE
5
349
100
AcDbEntity
8
0
100
AcDbPolyline
90
4
70
1
43
0.0
10
236.73569000000001
20
92.509749999999997
42
0.41420768000000591
10
239.50397000000004
20
89.778167999999994
42
0.4142135600000047
10
242.23557000000002
20
92.546447999999998
42
0.41421356000000581
10
239.46729000000002
20
95.278046000000018
42
0.41421944999999327
0
LWPOLYLINE
5
350
100
AcDbEntity
8
0
100
AcDbPolyline
90
4
70
1
43
0.0
10
113.14843000000002
20
166.32756000000001
42
0.41421356000000714
10
108.77790000000003
20
161.89832999999999
42
0.41421263999999475
10
113.20715
20
157.52778999999998
42
0.41420712000000359
10
117.57768999999999
20
161.95705000000001
42
0.41420897000000234
0
LWPOLYLINE
5
351
100
AcDbEntity
8
0
100
AcDbPolyline
90
6
70
1
43
0.0
10
274.24627999999996
20
85.380295000000004
42
0.41420178999999574
10
271.51471000000004
20
82.612000000000023
42
0.19890799000001208
10
272.33312999999998
20
80.672867000000025
42
0.19891832000000179
10
274.28298999999998
20
79.880417000000008
42
0.41420767999998759
10
277.01459
20
82.648712000000017
42
0.19890798999999629
10
276.19617
20
84.587845000000016
42
0.19891445999999349
0
LWPOLYLINE
5
352
100
AcDbEntity
8
0
100
AcDbPolyline
90
4
70
1
43
0.0
10
64.081183999999993
20
173.12816000000001
42
0.41421210000000425
10
61.349594000000003
20
170.35988
42
0.41420914000000136
10
64.117882000000009
20
167.62828000000002
42
0.41421210000000425
10
66.849471999999992
20
170.39656000000005
42
0.41420914000000136
0
LINE
5
353
100
AcDbEntity
8
0
100
AcDbLine
10
165.60773
20
94.891769000000011
30
0
11
170.09259
21
94.869979999999998
31
0
0
LINE
5
354
100
AcDbEntity
8
0
100
AcDbLine
10
261.06195000000002
20
86.536819000000008
30
0
11
257.02682000000004
21
86.509903000000023
31
0
0
ENDSEC
0
SECTION
2
OBJECTS
0
DICTIONARY
5
C
100
AcDbDictionary
3
ACAD_GROUP
350
D
3
ACAD_MLINESTYLE
350
17
0
DICTIONARY
5
D
100
AcDbDictionary
0
DICTIONARY
5
1A
330
C
100
AcDbDictionary
0
DICTIONARY
5
17
100
AcDbDictionary
0
ENDSEC
0
EOF
