0
SECTION
2
HEADER
9
$INSUNITS
70
4
9
$ACADVER
1
AC1014
9
$HANDSEED
5
FFFF
0
ENDSEC
0
SECTION
2
TABLES
0
TABLE
2
VPORT
5
8
100
AcDbSymbolTable
0
ENDTAB
0
TABLE
2
LTYPE
5
5
100
AcDbSymbolTable
0
LTYPE
5
14
100
AcDbSymbolTableRecord
100
AcDbLinetypeTableRecord
2
BYBLOCK
70
0
0
LTYPE
5
15
100
AcDbSymbolTableRecord
100
AcDbLinetypeTableRecord
2
BYLAYER
70
0
0
LTYPE
5
16
100
AcDbSymbolTableRecord
100
AcDbLinetypeTableRecord
2
DASHED
70
0
3
Dashed __ __ __ __ __ __ __ __ __ __ __ __ __ _
72
65
73
2
40
0.75
49
0.5
74
0
49
-0.25
74
0
0
ENDTAB
0
TABLE
2
LAYER
5
2
100
AcDbSymbolTable
70
2
0
LAYER
5
50
100
AcDbSymbolTableRecord
100
AcDbLayerTableRecord
2
0
70
0
62
7
6
CONTINUOUS
0
ENDTAB
0
TABLE
2
STYLE
5
3
100
AcDbSymbolTable
70
1
0
STYLE
5
11
100
AcDbSymbolTableRecord
100
AcDbTextStyleTableRecord
2
STANDARD
70
0
0
ENDTAB
0
TABLE
2
VIEW
5
6
100
AcDbSymbolTable
70
0
0
ENDTAB
0
TABLE
2
UCS
5
7
100
AcDbSymbolTable
70
0
0
ENDTAB
0
TABLE
2
APPID
5
9
100
AcDbSymbolTable
70
2
0
APPID
5
12
100
AcDbSymbolTableRecord
100
AcDbRegAppTableRecord
2
ACAD
70
0
0
ENDTAB
0
TABLE
2
DIMSTYLE
5
A
100
AcDbSymbolTable
70
1
0
ENDTAB
0
TABLE
2
BLOCK_RECORD
5
1
100
AcDbSymbolTable
70
1
0
BLOCK_RECORD
5
1F
100
AcDbSymbolTableRecord
100
AcDbBlockTableRecord
2
*MODEL_SPACE
0
BLOCK_RECORD
5
1B
100
AcDbSymbolTableRecord
100
AcDbBlockTableRecord
2
*PAPER_SPACE
0
ENDTAB
0
ENDSEC
0
SECTION
2
BLOCKS
0
BLOCK
5
20
100
AcDbEntity
100
AcDbBlockBegin
2
*MODEL_SPACE
0
ENDBLK
5
21
100
AcDbEntity
100
AcDbBlockEnd
0
BLOCK
5
1C
100
AcDbEntity
100
AcDbBlockBegin
2
*PAPER_SPACE
0
ENDBLK
5
1D
100
AcDbEntity
100
AcDbBlockEnd
0
ENDSEC
0
SECTION
2
ENTITIES
0
LINE
5
100
100
AcDbEntity
8
0
100
AcDbLine
10
11.035510798254911
20
307.93892004705486
30
0
11
11.061007798254911
21
302.29988004705496
31
0
0
LINE
5
101
100
AcDbEntity
8
0
100
AcDbLine
10
47.334323798254914
20
298.33284004705484
30
0
11
52.334323798254914
21
298.33284004705484
31
0
0
LINE
5
102
100
AcDbEntity
8
0
100
AcDbLine
10
87.836016798254917
20
355.87590004705487
30
0
11
82.836032798254919
21
355.86858004705482
31
0
0
LINE
5
103
100
AcDbEntity
8
0
100
AcDbLine
10
47.836062798254915
20
355.81719004705491
30
0
11
42.836077798254919
21
355.80986004705494
31
0
0
LINE
5
104
100
AcDbEntity
8
0
100
AcDbLine
10
-72.738318201745074
20
370.53453004705489
30
0
11
-72.755598201745087
21
374.83757004705478
31
0
0
LINE
5
105
100
AcDbEntity
8
0
100
AcDbLine
10
62.976397798254915
20
414.24962004705492
30
0
11
57.977160798254914
21
414.16240004705503
31
0
0
LINE
5
106
100
AcDbEntity
8
0
100
AcDbLine
10
-34.338681201745096
20
365.90593004705499
30
0
11
-39.338681201745082
21
365.89861004705489
31
0
0
LINE
5
107
100
AcDbEntity
8
0
100
AcDbLine
10
92.91151779825492
20
336.3702600470549
30
0
11
87.91151779825492
21
336.36290004705501
31
0
0
LINE
5
108
100
AcDbEntity
8
0
100
AcDbLine
10
-4.3387112017450891
20
365.95000004705497
30
0
11
-9.3387112017450882
21
365.94268004705498
31
0
0
LINE
5
109
100
AcDbEntity
8
0
100
AcDbLine
10
-54.353482201745095
20
386.06340004705487
30
0
11
-59.353482201745095
21
386.06340004705487
31
0
0
LINE
5
110
100
AcDbEntity
8
0
100
AcDbLine
10
-75.983228201745092
20
385.66484004705489
30
0
11
-80.983218201745075
21
385.65605004705503
31
0
0
LINE
5
111
100
AcDbEntity
8
0
100
AcDbLine
10
57.836062798254915
20
355.83184004705487
30
0
11
52.836062798254915
21
355.82451004705496
31
0
0
LINE
5
112
100
AcDbEntity
8
0
100
AcDbLine
10
-72.881678201745089
20
346.88414004705493
30
0
11
-68.846478201745086
21
346.89006004705499
31
0
0
LINE
5
113
100
AcDbEntity
8
0
100
AcDbLine
10
72.924533798254913
20
413.93566004705491
30
0
11
67.924533798254913
21
413.93566004705491
31
0
0
LINE
5
114
100
AcDbEntity
8
0
100
AcDbLine
10
-33.889149201745091
20
405.02849004705479
30
0
11
-28.889149201745091
21
405.02849004705479
31
0
0
LINE
5
115
100
AcDbEntity
8
0
100
AcDbLine
10
-4.3534822017450914
20
386.06340004705487
30
0
11
-9.3534822017450949
21
386.06340004705487
31
0
0
LINE
5
116
100
AcDbEntity
8
0
100
AcDbLine
10
-14.353482201745095
20
386.06340004705487
30
0
11
-19.353482201745095
21
386.06340004705487
31
0
0
LINE
5
117
100
AcDbEntity
8
0
100
AcDbLine
10
-43.889149201745084
20
405.02855004705498
30
0
11
-38.889149201745084
21
405.02855004705498
31
0
0
LINE
5
118
100
AcDbEntity
8
0
100
AcDbLine
10
44.909533798254913
20
420.19139004705494
30
0
11
45.018710798254915
21
413.93682004705482
31
0
0
LINE
5
119
100
AcDbEntity
8
0
100
AcDbLine
10
77.836032798254919
20
355.86125004705491
30
0
11
72.836047798254924
21
355.85387004705478
31
0
0
LINE
5
120
100
AcDbEntity
8
0
100
AcDbLine
10
102.92453379825491
20
413.93553004705495
30
0
11
97.924533798254913
21
413.935600047055
31
0
0
LINE
5
121
100
AcDbEntity
8
0
100
AcDbLine
10
-14.338703201745094
20
365.93529004705488
30
0
11
-19.338696201745083
21
365.92797004705483
31
0
0
LINE
5
122
100
AcDbEntity
8
0
100
AcDbLine
10
-76.947838201745085
20
385.7514500470549
30
0
11
-76.948498201745096
21
385.7096400470549
31
0
0
LINE
5
123
100
AcDbEntity
8
0
100
AcDbLine
10
-54.338658201745091
20
365.87657004705477
30
0
11
-59.338658201745091
21
365.86925004705483
31
0
0
LINE
5
124
100
AcDbEntity
8
0
100
AcDbLine
10
35.414676198254909
20
413.76915004705495
30
0
11
54.622744798254921
21
414.10442004705487
31
0
0
LINE
5
125
100
AcDbEntity
8
0
100
AcDbLine
10
9.6229277982549117
20
346.85176004705482
30
0
11
-9.4104582017450866
21
346.92794004705485
31
0
0
LINE
5
126
100
AcDbEntity
8
0
100
AcDbLine
10
42.334323798254914
20
298.33284004705484
30
0
11
37.334323398254917
21
298.33284004705484
31
0
0
LINE
5
127
100
AcDbEntity
8
0
100
AcDbLine
10
42.806369798254913
20
396.2728100470548
30
0
11
47.806369798254913
21
396.2728100470548
31
0
0
LINE
5
128
100
AcDbEntity
8
0
100
AcDbLine
10
5.6465177982549086
20
386.06340004705487
30
0
11
0.64651779825490863
21
386.06340004705487
31
0
0
LINE
5
129
100
AcDbEntity
8
0
100
AcDbLine
10
16.613269798254912
20
346.6000200470549
30
0
11
21.097949498254913
21
346.55492004705485
31
0
0
LINE
5
130
100
AcDbEntity
8
0
100
AcDbLine
10
35.010638698254915
20
336.28453004705489
30
0
11
32.010638698254908
21
336.28011004705485
31
0
0
LINE
5
131
100
AcDbEntity
8
0
100
AcDbLine
10
-72.924358201745093
20
405.02861004705494
30
0
11
-68.889149201745084
21
405.02861004705494
31
0
0
LINE
5
132
100
AcDbEntity
8
0
100
AcDbLine
10
87.806369798254906
20
396.2728100470548
30
0
11
82.806369798254906
21
396.2728100470548
31
0
0
LINE
5
133
100
AcDbEntity
8
0
100
AcDbLine
10
-34.353482201745088
20
386.06340004705487
30
0
11
-39.353482201745088
21
386.06340004705487
31
0
0
LINE
5
134
100
AcDbEntity
8
0
100
AcDbLine
10
-24.353482201745095
20
386.06340004705487
30
0
11
-29.353482201745088
21
386.06340004705487
31
0
0
LINE
5
135
100
AcDbEntity
8
0
100
AcDbLine
10
-1.7556882017450892
20
425.17974004705479
30
0
11
-6.7556882017450937
21
425.17974004705479
31
0
0
LINE
5
136
100
AcDbEntity
8
0
100
AcDbLine
10
82.924533798254913
20
413.93560004705489
30
0
11
77.924533798254913
21
413.93566004705485
31
0
0
LINE
5
137
100
AcDbEntity
8
0
100
AcDbLine
10
-53.846493201745091
20
346.91216004705495
30
0
11
-48.846501201745092
21
346.91948004705495
31
0
0
LINE
5
138
100
AcDbEntity
8
0
100
AcDbLine
10
-23.889149201745091
20
405.02849004705479
30
0
11
-18.889149201745091
21
405.02849004705479
31
0
0
LINE
5
139
100
AcDbEntity
8
0
100
AcDbLine
10
99.334323798254914
20
298.33284004705484
30
0
11
94.334323798254914
21
298.33284004705484
31
0
0
LINE
5
140
100
AcDbEntity
8
0
100
AcDbLine
10
107.80636979825493
20
396.2728100470548
30
0
11
102.80636979825491
21
396.2728100470548
31
0
0
LINE
5
141
100
AcDbEntity
8
0
100
AcDbLine
10
-38.170208201745098
20
425.17974004705479
30
0
11
-43.170208201745091
21
425.17974004705479
31
0
0
LINE
5
142
100
AcDbEntity
8
0
100
AcDbLine
10
97.836016798254917
20
355.89061004705502
30
0
11
92.836016798254917
21
355.88323004705501
31
0
0
LINE
5
143
100
AcDbEntity
8
0
100
AcDbLine
10
-16.389149201745091
20
405.02849004705479
30
0
11
-11.389149201745091
21
405.02849004705479
31
0
0
LINE
5
144
100
AcDbEntity
8
0
100
AcDbLine
10
117.80636979825493
20
396.2728100470548
30
0
11
114.80636979825492
21
396.2728100470548
31
0
0
LINE
5
145
100
AcDbEntity
8
0
100
AcDbLine
10
37.836077798254912
20
355.80254004705478
30
0
11
32.836078198254917
21
355.7951500470549
31
0
0
LINE
5
146
100
AcDbEntity
8
0
100
AcDbLine
10
107.83600179825491
20
355.90526004705498
30
0
11
102.83600179825491
21
355.89794004705487
31
0
0
LINE
5
147
100
AcDbEntity
8
0
100
AcDbLine
10
27.806369328254913
20
396.2728100470548
30
0
11
25.306369298254914
21
396.2728100470548
31
0
0
LINE
5
148
100
AcDbEntity
8
0
100
AcDbLine
10
55.010607798254924
20
336.31389004705483
30
0
11
50.010607798254924
21
336.30654004705485
31
0
0
LINE
5
149
100
AcDbEntity
8
0
100
AcDbLine
10
29.856646998254913
20
336.27696004705484
30
0
11
25.856646998254913
21
336.27108004705485
31
0
0
LINE
5
150
100
AcDbEntity
8
0
100
AcDbLine
10
-63.889149201745084
20
405.02861004705494
30
0
11
-58.889149201745084
21
405.02861004705494
31
0
0
LINE
5
151
100
AcDbEntity
8
0
100
AcDbLine
10
29.92647129825491
20
413.67339004705485
30
0
11
25.927081598254912
21
413.60356004705494
31
0
0
LINE
5
152
100
AcDbEntity
8
0
100
AcDbLine
10
92.806369798254906
20
396.2728100470548
30
0
11
97.806369798254906
21
396.2728100470548
31
0
0
LINE
5
153
100
AcDbEntity
8
0
100
AcDbLine
10
67.836047798254924
20
355.84655004705496
30
0
11
62.836047798254917
21
355.83922004705494
31
0
0
LINE
5
154
100
AcDbEntity
8
0
100
AcDbLine
10
8.3343237982549123
20
307.8328400470549
30
0
11
3.3343237982549123
21
307.8328400470549
31
0
0
LINE
5
155
100
AcDbEntity
8
0
100
AcDbLine
10
62.911547798254915
20
336.32610004705498
30
0
11
57.91156379825491
21
336.31874004705492
31
0
0
LINE
5
156
100
AcDbEntity
8
0
100
AcDbLine
10
-85.983208201745086
20
385.64727004705492
30
0
11
-89.9832082017451
21
385.64019004705494
31
0
0
LINE
5
157
100
AcDbEntity
8
0
100
AcDbLine
10
111.94670479825491
20
336.39827004705495
30
0
11
107.91150279825493
21
336.39232004705491
31
0
0
LINE
5
158
100
AcDbEntity
8
0
100
AcDbLine
10
0.83752779825491341
20
411.43767004705478
30
0
11
0.83752779825491341
21
405.18218004705489
31
0
0
LINE
5
159
100
AcDbEntity
8
0
100
AcDbLine
10
77.806369798254906
20
396.2728100470548
30
0
11
72.806369798254906
21
396.2728100470548
31
0
0
LINE
5
160
100
AcDbEntity
8
0
100
AcDbLine
10
-58.140332201745082
20
337.01061004705491
30
0
11
-47.640545201745084
21
337.07814004705489
31
0
0
LINE
5
161
100
AcDbEntity
8
0
100
AcDbLine
10
-24.338696201745091
20
365.92064004705492
30
0
11
-29.338688201745097
21
365.91332004705492
31
0
0
LINE
5
162
100
AcDbEntity
8
0
100
AcDbLine
10
72.911532798254925
20
336.3408100470549
30
0
11
67.911547798254929
21
336.33348004705499
31
0
0
LINE
5
163
100
AcDbEntity
8
0
100
AcDbLine
10
5.6612737982549133
20
365.96465004705493
30
0
11
0.66127379825490884
21
365.95732004705496
31
0
0
LINE
5
164
100
AcDbEntity
8
0
100
AcDbLine
10
-53.889149201745084
20
405.02861004705494
30
0
11
-48.889149201745084
21
405.02855004705498
31
0
0
LINE
5
165
100
AcDbEntity
8
0
100
AcDbLine
10
-44.353482201745095
20
386.06340004705487
30
0
11
-49.353482201745095
21
386.06340004705487
31
0
0
LINE
5
166
100
AcDbEntity
8
0
100
AcDbLine
10
92.924533798254913
20
413.93560004705489
30
0
11
87.924533798254913
21
413.93560004705489
31
0
0
LINE
5
167
100
AcDbEntity
8
0
100
AcDbLine
10
-1.6656762017450921
20
307.8328400470549
30
0
11
-6.6656762017450921
21
307.8328400470549
31
0
0
LINE
5
168
100
AcDbEntity
8
0
100
AcDbLine
10
82.911532798254925
20
336.35555004705498
30
0
11
77.91153279825491
21
336.34819004705491
31
0
0
LINE
5
169
100
AcDbEntity
8
0
100
AcDbLine
10
45.010623798254912
20
336.29918004705485
30
0
11
40.010623798254912
21
336.29186004705491
31
0
0
LINE
5
170
100
AcDbEntity
8
0
100
AcDbLine
10
-28.170208201745094
20
425.17974004705479
30
0
11
-33.170208201745098
21
425.17974004705479
31
0
0
LINE
5
171
100
AcDbEntity
8
0
100
AcDbLine
10
27.83609344825491
20
355.78783004705485
30
0
11
25.336093498254911
21
355.78417004705477
31
0
0
LINE
5
172
100
AcDbEntity
8
0
100
AcDbLine
10
-33.846516201745096
20
346.94158004705486
30
0
11
-28.84652420174509
21
346.94893004705489
31
0
0
LINE
5
173
100
AcDbEntity
8
0
100
AcDbLine
10
32.806369298254914
20
396.2728100470548
30
0
11
37.806369798254913
21
396.2728100470548
31
0
0
LINE
5
174
100
AcDbEntity
8
0
100
AcDbLine
10
111.95975079825493
20
413.93553004705495
30
0
11
107.92453379825491
21
413.93553004705495
31
0
0
LINE
5
175
100
AcDbEntity
8
0
100
AcDbLine
10
102.9115027982549
20
336.38500004705492
30
0
11
97.911517798254906
21
336.37761004705487
31
0
0
LINE
5
176
100
AcDbEntity
8
0
100
AcDbLine
10
-85.968978201745102
20
366.246390047055
30
0
11
-89.968978201745102
21
366.24755004705497
31
0
0
LINE
5
177
100
AcDbEntity
8
0
100
AcDbLine
10
-23.84652420174509
20
346.95629004705495
30
0
11
-18.846531201745091
21
346.96367004705485
31
0
0
LINE
5
178
100
AcDbEntity
8
0
100
AcDbLine
10
-63.846485201745082
20
346.89742004705494
30
0
11
-58.846485201745082
21
346.90477004705485
31
0
0
LINE
5
179
100
AcDbEntity
8
0
100
AcDbLine
10
89.334323798254914
20
298.33284004705484
30
0
11
84.334323798254914
21
298.33284004705484
31
0
0
LINE
5
180
100
AcDbEntity
8
0
100
AcDbLine
10
-44.338673201745081
20
365.89128004705503
30
0
11
-49.338665201745087
21
365.88396004705493
31
0
0
LINE
5
181
100
AcDbEntity
8
0
100
AcDbLine
10
117.83600179825491
20
355.9199700470549
30
0
11
114.83600179825493
21
355.9155800470549
31
0
0
LINE
5
182
100
AcDbEntity
8
0
100
AcDbLine
10
8.2443117982549108
20
425.17974004705479
30
0
11
3.2443117982549108
21
425.17974004705479
31
0
0
LINE
5
183
100
AcDbEntity
8
0
100
AcDbLine
10
52.806369798254913
20
396.2728100470548
30
0
11
57.806369798254913
21
396.2728100470548
31
0
0
LINE
5
184
100
AcDbEntity
8
0
100
AcDbLine
10
-66.838650201745082
20
365.85826004705496
30
0
11
-62.817829201745084
21
365.84819004705486
31
0
0
LWPOLYLINE
5
185
100
AcDbEntity
8
0
100
AcDbPolyline
90
4
70
1
43
0.0
10
117.13310579825492
20
379.42656004705492
42
-0.41421356000000925
10
119.88310579825493
20
376.67656004705486
42
-0.41421355999998644
10
117.13310579825492
20
373.92656004705492
42
-0.41421355999997517
10
114.38310579825489
20
376.67656004705492
42
-0.41421355999999593
0
LINE
5
186
100
AcDbEntity
8
0
100
AcDbLine
10
-111.61220820174512
20
380.69811004705485
30
0
11
-105.86148820174508
21
380.74541004705497
31
0
0
ARC
5
187
100
AcDbEntity
8
0
100
AcDbCircle
10
-18.946419977184942
20
312.08950131661663
30
0
40
4.5000831564218569
210
0
220
0
230
1
100
AcDbArc
50
179.92425978921318
51
225.21579374546431
0
ARC
5
188
100
AcDbEntity
8
0
100
AcDbCircle
10
-76.691641466299444
20
326.64700167323758
30
0
40
4.000115372262333
210
0
220
0
230
1
100
AcDbArc
50
269.84979273989785
51
315.12054305326626
0
LINE
5
189
100
AcDbEntity
8
0
100
AcDbLine
10
127.83594179825492
20
355.89141004705482
30
0
11
122.83597179825492
21
355.9056900470548
31
0
0
LWPOLYLINE
5
190
100
AcDbEntity
8
0
100
AcDbPolyline
90
4
70
1
43
0.0
10
87.14728879825492
20
435.04210004705493
42
-0.41421355999999537
10
91.54729079825492
20
439.44213004705489
42
-0.41421356000001874
10
95.947291798254909
20
435.04210004705499
42
-0.41421355999999593
10
91.547290798254934
20
430.64208004705483
42
-0.41421355999999504
0
ARC
5
191
100
AcDbEntity
8
0
100
AcDbCircle
10
-117.37908034070148
20
327.85093971406081
30
0
40
4.5000031515718364
210
-0
220
0
230
-1
100
AcDbArc
50
-89.482592801990194
51
0.51758279175263056
0
LINE
5
192
100
AcDbEntity
8
0
100
AcDbLine
10
25.134570598254911
20
356.52550004705489
30
0
11
25.185718098254913
21
327.77281004705492
31
0
0
LINE
5
193
100
AcDbEntity
8
0
100
AcDbLine
10
81.618182798254935
20
298.38774004705488
30
0
11
54.65475779825492
21
298.24672004705485
31
0
0
LINE
5
194
100
AcDbEntity
8
0
100
AcDbLine
10
91.853457798254937
20
283.73796004705491
30
0
11
90.533908798254927
21
283.75463004705489
31
0
0
LWPOLYLINE
5
195
100
AcDbEntity
8
0
100
AcDbPolyline
90
4
70
1
43
0.0
10
93.180545798254926
20
408.30071004705496
42
-0.41421355999998644
10
90.430545798254926
20
405.55071004705496
42
-0.41421356000001114
10
87.680545798254968
20
408.30071004705496
42
-0.4142135599999846
10
90.430545798254911
20
411.05071004705485
42
-0.41421355999999404
0
LINE
5
196
100
AcDbEntity
8
0
100
AcDbLine
10
-9.1280332017450903
20
327.60497004705485
30
0
11
-25.897618201745086
21
327.46602004705494
31
0
0
ARC
5
197
100
AcDbEntity
8
0
100
AcDbCircle
10
-14.293143616147157
20
429.17410769643436
30
0
40
4.0000876619503885
210
0
220
-0
230
-1
100
AcDbArc
50
269.59483578924454
51
315.55642075166361
0
LWPOLYLINE
5
198
100
AcDbEntity
8
0
100
AcDbPolyline
90
4
70
1
43
0.0
10
-35.411389201745095
20
333.65987004705488
42
-0.41421356000000498
10
-39.811390201745084
20
338.05986004705488
42
-0.41421355999998583
10
-35.411389201745095
20
342.45986004705486
42
-0.41421355999999848
10
-31.011387201745094
20
338.05986004705483
42
-0.4142135600000017
0
ARC
5
199
100
AcDbEntity
8
0
100
AcDbCircle
10
-15.086751756930335
20
440.23559369278428
30
0
40
4.5000446342993028
210
0
220
0
230
-1
100
AcDbArc
50
1.5201101993250317
51
91.365691172962244
0
ARC
5
200
100
AcDbEntity
8
0
100
AcDbCircle
10
-103.14367120129263
20
375.99368708471928
30
0
40
2.3206595864478277
210
-0
220
0
230
1
100
AcDbArc
50
-1.5385105837536805
51
2.0020532097193451
0
LINE
5
201
100
AcDbEntity
8
0
100
AcDbLine
10
24.930850498254912
20
308.00164004705488
30
0
11
11.035510798254911
21
307.93892004705486
31
0
0
LINE
5
202
100
AcDbEntity
8
0
100
AcDbLine
10
-73.090508201745081
20
424.91527004705489
30
0
11
-73.090468201745082
21
425.55699004705491
31
0
0
LINE
5
203
100
AcDbEntity
8
0
100
AcDbLine
10
-16.346539201745088
20
346.96730004705501
30
0
11
-11.346539201745088
21
346.9746600470549
31
0
0
LINE
5
204
100
AcDbEntity
8
0
100
AcDbLine
10
24.973453098254911
20
396.4957100470549
30
0
11
24.792682198254916
21
425.24785004705484
31
0
0
LWPOLYLINE
5
205
100
AcDbEntity
8
0
100
AcDbPolyline
90
4
70
1
43
0.0
10
-38.60693020174508
20
397.83037004705483
42
-0.41421355999998549
10
-35.856930201745087
20
400.58037004705483
42
-0.41421356000000159
10
-33.106930201745087
20
397.83037004705477
42
-0.414213559999978
10
-35.856930201745087
20
395.08037004705477
42
-0.41421356000000825
0
ARC
5
206
100
AcDbEntity
8
0
100
AcDbCircle
10
58.15439147277047
20
415.13381086875512
30
0
40
4.2388461036451366
210
0
220
0
230
-1
100
AcDbArc
50
165.83821523321177
51
210.75830662144818
0
LWPOLYLINE
5
207
100
AcDbEntity
8
0
100
AcDbPolyline
90
4
70
1
43
0.0
10
-32.868061201745093
20
432.902640047055
42
-0.41421355999998549
10
-35.6180612017451
20
430.152640047055
42
-0.41421355999999881
10
-38.368061201745071
20
432.90264004705489
42
-0.41421355999999682
10
-35.6180612017451
20
435.65264004705489
42
-0.41421355999999404
0
LWPOLYLINE
5
208
100
AcDbEntity
8
0
100
AcDbPolyline
90
4
70
1
43
0.0
10
91.021167798254922
20
342.29906004705492
42
-0.41421356000000159
10
88.271167798254908
20
345.04906004705492
42
-0.41421355999999404
10
91.021167798254922
20
347.79906004705492
42
-0.41421356000001114
10
93.771167798254865
20
345.04906004705498
42
-0.41421355999998644
0
LWPOLYLINE
5
209
100
AcDbEntity
8
0
100
AcDbPolyline
90
4
70
1
43
0.0
10
-82.059488201745069
20
422.85478004705487
42
-0.41421355999998644
10
-84.809488201745069
20
420.10478004705487
42
-0.41421355999997517
10
-87.559488201745111
20
422.85478004705499
42
-0.41421355999997894
10
-84.809488201745069
20
425.60478004705493
42
-0.41421355999998272
0
LINE
5
210
100
AcDbEntity
8
0
100
AcDbLine
10
16.570071798254911
20
405.44414004705487
30
0
11
21.054690898254911
21
405.49584004705486
31
0
0
LINE
5
211
100
AcDbEntity
8
0
100
AcDbLine
10
24.334598098254911
20
444.51647004705478
30
0
11
24.58417079825491
21
454.98430004705494
31
0
0
LINE
5
212
100
AcDbEntity
8
0
100
AcDbLine
10
14.214724798254913
20
386.04570004705494
30
0
11
24.973453098254911
21
396.4957100470549
31
0
0
ARC
5
213
100
AcDbEntity
8
0
100
AcDbCircle
10
-105.82237461321027
20
376.22030647169095
30
0
40
5.0000464814251222
210
0
220
0
230
1
100
AcDbArc
50
269.99136459173758
51
359.99041536876967
0
LINE
5
214
100
AcDbEntity
8
0
100
AcDbLine
10
-92.407298201745078
20
425.38494004705484
30
0
11
-92.415658201745089
21
426.109910047055
31
0
0
LINE
5
215
100
AcDbEntity
8
0
100
AcDbLine
10
24.553012398254914
20
327.77172004705494
30
0
11
14.714266798254913
21
327.76213004705494
31
0
0
LINE
5
216
100
AcDbEntity
8
0
100
AcDbLine
10
35.503711198254912
20
292.80187004705488
30
0
11
35.404452798254916
21
298.53835004705496
31
0
0
ARC
5
217
100
AcDbEntity
8
0
100
AcDbCircle
10
-1.0500645654662
20
430.95339374118066
30
0
40
9.0000206752160565
210
0
220
0
230
-1
100
AcDbArc
50
89.106484200029541
51
178.69414264974358
0
ARC
5
218
100
AcDbEntity
8
0
100
AcDbCircle
10
36.69007639339484
20
430.83718351431543
30
0
40
8.9999936438638546
210
-0
220
0
230
-1
100
AcDbArc
50
-1.206060823620023
51
43.924871696169838
0
LINE
5
219
100
AcDbEntity
8
0
100
AcDbLine
10
-100.82232820174511
20
376.21947004705498
30
0
11
-100.82232820174511
21
375.92998004705487
31
0
0
LINE
5
220
100
AcDbEntity
8
0
100
AcDbLine
10
113.03711279825491
20
393.45049004705487
30
0
11
113.03711279825491
21
388.45049004705487
31
0
0
LINE
5
221
100
AcDbEntity
8
0
100
AcDbLine
10
-115.16986820174509
20
385.94634004705483
30
0
11
-116.54934820174509
21
385.95110004705487
31
0
0
ARC
5
222
100
AcDbEntity
8
0
100
AcDbCircle
10
-116.56464454824464
20
381.4511598292745
30
0
40
4.4999662156302547
210
0
220
-0
230
1
100
AcDbArc
50
89.805239030208838
51
178.76663289393406
0
ARC
5
223
100
AcDbEntity
8
0
100
AcDbCircle
10
56.797255957689003
20
414.53543174387494
30
0
40
2.7724341758695115
210
0
220
-0
230
-1
100
AcDbArc
50
214.47787760309532
51
269.08635335425174
0
LINE
5
224
100
AcDbEntity
8
0
100
AcDbLine
10
-116.46863820174508
20
365.92858004705488
30
0
11
-115.08919820174509
21
365.94438004705489
31
0
0
LINE
5
225
100
AcDbEntity
8
0
100
AcDbLine
10
-59.586788201745087
20
410.41527004705483
30
0
11
-59.760548201745095
21
420.24059004705487
31
0
0
LINE
5
226
100
AcDbEntity
8
0
100
AcDbLine
10
115.99545579825494
20
430.254810047055
30
0
11
116.07974579825492
21
430.26396004705498
31
0
0
ARC
5
227
100
AcDbEntity
8
0
100
AcDbCircle
10
0.20875690732267138
20
302.24205655209454
30
0
40
8.9999097558067334
210
0
220
0
230
1
100
AcDbArc
50
180.50864872995254
51
269.63436969020307
0
LWPOLYLINE
5
228
100
AcDbEntity
8
0
100
AcDbPolyline
90
4
70
1
43
0.0
10
122.91510379825493
20
334.40651004705495
42
-0.4142135599999846
10
125.66510379825493
20
337.15651004705489
42
-0.41421356000001969
10
128.41510179825494
20
334.40651004705489
42
-0.41421355999996479
10
125.66510379825493
20
331.65651004705489
42
-0.41421356000000925
0
LWPOLYLINE
5
229
100
AcDbEntity
8
0
100
AcDbPolyline
90
4
70
1
43
0.0
10
91.316119798254931
20
294.09078004705486
42
-0.41421355999999593
10
94.066119798254874
20
291.34078004705492
42
-0.41421355999999593
10
91.316119798254931
20
288.59078004705492
42
-0.41421356000000159
10
88.566119798254903
20
291.34078004705492
42
-0.41421355999998644
0
LWPOLYLINE
5
230
100
AcDbEntity
8
0
100
AcDbPolyline
90
4
70
1
43
0.0
10
-84.4321682017451
20
326.53200004705491
42
-0.41421356000000925
10
-87.1821682017451
20
329.28200004705496
42
-0.41421355999998644
10
-84.4321682017451
20
332.03200004705502
42
-0.41421355999997517
10
-81.682168201745057
20
329.28200004705502
42
-0.41421355999999593
0
LINE
5
231
100
AcDbEntity
8
0
100
AcDbLine
10
0.88954479825491095
20
340.58339004705488
30
0
11
0.88035879825491214
21
346.8389200470549
31
0
0
ARC
5
232
100
AcDbEntity
8
0
100
AcDbCircle
10
-128.9135270054135
20
327.7421304912454
30
0
40
4.1894397170282245
210
0
220
-0
230
-1
100
AcDbArc
50
180.6195517822832
51
226.09260419803067
0
LINE
5
233
100
AcDbEntity
8
0
100
AcDbLine
10
113.03711279825491
20
373.45049004705487
30
0
11
113.03711279825491
21
378.45049004705487
31
0
0
ARC
5
234
100
AcDbEntity
8
0
100
AcDbCircle
10
36.68997705005571
20
430.83707202298729
30
0
40
9.0001425390717777
210
0
220
0
230
-1
100
AcDbArc
50
43.924944178729511
51
89.054851790270419
0
LWPOLYLINE
5
235
100
AcDbEntity
8
0
100
AcDbPolyline
90
4
70
1
43
0.0
10
125.13940779825492
20
416.180290047055
42
-0.41421355999997517
10
122.38940779825489
20
418.930290047055
42
-0.41421355999997894
10
125.13940779825492
20
421.68029004705488
42
-0.41421356000000903
10
127.88941179825493
20
418.93029004705488
42
-0.41421356000001652
0
LINE
5
236
100
AcDbEntity
8
0
100
AcDbLine
10
-23.43078320174509
20
323.94567004705493
30
0
11
-23.446499201745091
21
312.09545004705495
31
0
0
ARC
5
237
100
AcDbEntity
8
0
100
AcDbCircle
10
105.82037454831195
20
375.74562106686255
30
0
40
4.9999548528052955
210
0
220
0
230
-1
100
AcDbArc
50
134.52927474107807
51
179.52960380459422
0
ARC
5
238
100
AcDbEntity
8
0
100
AcDbCircle
10
-18.946446590494489
20
312.08962358405182
30
0
40
4.5001511913443846
210
0
220
0
230
1
100
AcDbArc
50
225.21713084516924
51
270.50911210860113
0
LINE
5
239
100
AcDbEntity
8
0
100
AcDbLine
10
-75.968978201745102
20
366.24346004705501
30
0
11
-80.968978201745102
21
366.24492004705496
31
0
0
LINE
5
240
100
AcDbEntity
8
0
100
AcDbLine
10
-52.967617201745071
20
342.38976004705489
30
0
11
-52.854664201745081
21
331.70171004705492
31
0
0
ARC
5
241
100
AcDbEntity
8
0
100
AcDbCircle
10
-2.0611243960204062
20
302.25920390376893
30
0
40
8.9999753223244312
210
0
220
0
230
-1
100
AcDbArc
50
179.74104603756592
51
268.41316187419159
0
LINE
5
242
100
AcDbEntity
8
0
100
AcDbLine
10
117.70648479825493
20
323.34780004705493
30
0
11
117.33844379825491
21
323.35112004705479
31
0
0
LINE
5
243
100
AcDbEntity
8
0
100
AcDbLine
10
67.806369798254906
20
396.2728100470548
30
0
11
62.806369798254913
21
396.2728100470548
31
0
0
LINE
5
244
100
AcDbEntity
8
0
100
AcDbLine
10
91.395510798254918
20
283.73632004705479
30
0
11
91.853457798254937
21
283.73796004705491
31
0
0
LINE
5
245
100
AcDbEntity
8
0
100
AcDbLine
10
-88.019878201745101
20
322.67671004705494
30
0
11
-76.702128201745097
21
322.64690004705494
31
0
0
LINE
5
246
100
AcDbEntity
8
0
100
AcDbLine
10
15.194003798254911
20
444.73436004705496
30
0
11
24.334598098254911
21
444.51647004705478
31
0
0
LINE
5
247
100
AcDbEntity
8
0
100
AcDbLine
10
-55.503643201745078
20
418.11309004705492
30
0
11
-55.443325201745083
21
418.08422004705494
31
0
0
LWPOLYLINE
5
248
100
AcDbEntity
8
0
100
AcDbPolyline
90
4
70
1
43
0.0
10
-39.929791201745097
20
415.98821004705491
42
-0.41421356000000975
10
-35.529789201745096
20
420.388230047055
42
-0.41421356000000481
10
-31.129788201745093
20
415.98821004705491
42
-0.41421356000000809
10
-35.529789201745096
20
411.58818004705495
42
-0.41421355999999299
0
LWPOLYLINE
5
249
100
AcDbEntity
8
0
100
AcDbPolyline
90
4
70
1
43
0.0
10
-38.408665201745087
20
354.08046004705488
42
-0.41421356000000792
10
-35.658665201745102
20
356.83049004705487
42
-0.41421356000000698
10
-32.908665201745094
20
354.08046004705488
42
-0.41421355999998549
10
-35.658665201745102
20
351.33046004705488
42
-0.41421356000000631
0
ARC
5
250
100
AcDbEntity
8
0
100
AcDbCircle
10
56.955956470411081
20
414.40876977196058
30
0
40
3.9825377294068169
210
0
220
0
230
-1
100
AcDbArc
50
77.541584711621738
51
110.44043478806138
0
LINE
5
251
100
AcDbEntity
8
0
100
AcDbLine
10
-25.897618201745086
20
327.46602004705494
30
0
11
-45.175953201745088
21
327.44435004705502
31
0
0
LINE
5
252
100
AcDbEntity
8
0
100
AcDbLine
10
-72.69168820174508
20
326.67436004705496
30
0
11
-72.695688201745099
21
327.25518004705492
31
0
0
LINE
5
253
100
AcDbEntity
8
0
100
AcDbLine
10
113.04350579825494
20
371.73528004705486
30
0
11
113.05084579825491
21
366.73528004705486
31
0
0
LWPOLYLINE
5
254
100
AcDbEntity
8
0
100
AcDbPolyline
90
4
70
1
43
0.0
10
86.746440798254909
20
319.65044004705487
42
-0.41421355999999021
10
91.146441798254912
20
324.05043004705499
42
-0.41421355999999993
10
95.546443798254927
20
319.65044004705487
42
-0.41421356000001408
10
91.146441798254912
20
315.25045004705493
42
-0.41421355999999254
0
LINE
5
255
100
AcDbEntity
8
0
100
AcDbLine
10
127.80628179825491
20
396.31603004705482
30
0
11
122.80633879825493
21
396.29442004705481
31
0
0
LINE
5
256
100
AcDbEntity
8
0
100
AcDbLine
10
-23.405491201745082
20
324.02095004705501
30
0
11
-23.43078320174509
21
323.94567004705493
31
0
0
LINE
5
257
100
AcDbEntity
8
0
100
AcDbLine
10
-77.133158201745076
20
429.55205004705488
30
0
11
-88.450288201745067
21
429.4309600470549
31
0
0
LINE
5
258
100
AcDbEntity
8
0
100
AcDbLine
10
-121.18492820174509
20
375.92095004705499
30
0
11
-121.01827820174508
21
370.29503004705498
31
0
0
LINE
5
259
100
AcDbEntity
8
0
100
AcDbLine
10
-26.388180201745083
20
431.00713004705483
30
0
11
-26.291516201745097
21
425.1427500470549
31
0
0
ARC
5
260
100
AcDbEntity
8
0
100
AcDbCircle
10
105.82039606076594
20
375.74557892417727
30
0
40
4.9999999821346242
210
0
220
0
230
-1
100
AcDbArc
50
89.529113447549832
51
134.52911182062795
0
LINE
5
261
100
AcDbEntity
8
0
100
AcDbLine
10
81.647830798254915
20
292.70684004705481
30
0
11
81.618182798254935
21
298.38774004705488
31
0
0
LINE
5
262
100
AcDbEntity
8
0
100
AcDbLine
10
-59.760548201745095
20
420.24059004705487
30
0
11
-53.722637201745087
21
422.24510004705496
31
0
0
ARC
5
263
100
AcDbEntity
8
0
100
AcDbCircle
10
-88.407484032147238
20
425.43109040347446
30
0
40
4.0000986691044451
210
0
220
0
230
1
100
AcDbArc
50
90.613121143594839
51
135.63733216861596
0
LINE
5
264
100
AcDbEntity
8
0
100
AcDbLine
10
113.03711279825491
20
385.45049004705493
30
0
11
113.03711279825491
21
380.45049004705493
31
0
0
LINE
5
265
100
AcDbEntity
8
0
100
AcDbLine
10
2.3103517982549122
20
293.26268004705491
30
0
11
1.0841857982549108
21
293.23638004705492
31
0
0
LINE
5
266
100
AcDbEntity
8
0
100
AcDbLine
10
-121.0635682017451
20
381.54802004705488
30
0
11
-121.18492820174509
21
375.92095004705499
31
0
0
LINE
5
267
100
AcDbEntity
8
0
100
AcDbLine
10
14.714266798254913
20
327.76213004705494
30
0
11
-9.1280332017450903
21
327.60497004705485
31
0
0
LINE
5
268
100
AcDbEntity
8
0
100
AcDbLine
10
-72.695688201745099
20
327.25518004705492
30
0
11
-72.684228201745086
21
366.85167004705482
31
0
0
LINE
5
269
100
AcDbEntity
8
0
100
AcDbLine
10
115.91266179825493
20
430.24407004705495
30
0
11
115.99545579825494
21
430.254810047055
31
0
0
LINE
5
270
100
AcDbEntity
8
0
100
AcDbLine
10
0.15132479825490863
20
293.24233004705491
30
0
11
1.0841857982549108
21
293.23638004705492
31
0
0
LINE
5
271
100
AcDbEntity
8
0
100
AcDbLine
10
-92.420438201745085
20
385.86894004705482
30
0
11
-115.16986820174509
21
385.94634004705483
31
0
0
ARC
5
272
100
AcDbEntity
8
0
100
AcDbCircle
10
-44.502281993506934
20
292.95750523836097
30
0
40
8.9999165923877165
210
-0
220
0
230
-1
100
AcDbArc
50
313.69906765971552
51
359.00913702714718
0
LINE
5
273
100
AcDbEntity
8
0
100
AcDbLine
10
-72.75821820174508
20
385.14202004705498
30
0
11
-73.090508201745081
21
424.91527004705489
31
0
0
LINE
5
274
100
AcDbEntity
8
0
100
AcDbLine
10
112.48475979825491
20
455.128280047055
30
0
11
112.78415279825494
21
426.61376004705488
31
0
0
ARC
5
275
100
AcDbEntity
8
0
100
AcDbCircle
10
56.734161056803494
20
415.67231130477467
30
0
40
2.7356098014505377
210
0
220
0
230
-1
100
AcDbArc
50
118.1553626915321
51
169.49886139847538
0
LINE
5
276
100
AcDbEntity
8
0
100
AcDbLine
10
10.763537798254909
20
405.23644004705488
30
0
11
-9.0884672017450896
21
405.12786004705481
31
0
0
ARC
5
277
100
AcDbEntity
8
0
100
AcDbCircle
10
57.095632781758923
20
417.03954380242237
30
0
40
5.2873041087723447
210
0
220
-0
230
-1
100
AcDbArc
50
266.28498560710943
51
275.4601321868808
0
LINE
5
278
100
AcDbEntity
8
0
100
AcDbLine
10
-73.090508201745081
20
424.91527004705489
30
0
11
-45.569309201745085
21
425.00896004705498
31
0
0
LINE
5
279
100
AcDbEntity
8
0
100
AcDbLine
10
-45.175953201745088
20
327.44435004705502
30
0
11
-72.695688201745099
21
327.25518004705492
31
0
0
LINE
5
280
100
AcDbEntity
8
0
100
AcDbLine
10
-111.5739982017451
20
371.22112004705485
30
0
11
-105.82312820174509
21
371.22026004705492
31
0
0
ARC
5
281
100
AcDbEntity
8
0
100
AcDbCircle
10
-91.359252063112848
20
293.73633710509824
30
0
40
10.000094939936034
210
0
220
0
230
-1
100
AcDbArc
50
179.70095795195488
51
224.74679702688101
0
LINE
5
282
100
AcDbEntity
8
0
100
AcDbLine
10
-115.08919820174509
20
365.94438004705489
30
0
11
-92.341078201745091
21
366.2052500470549
31
0
0
ARC
5
283
100
AcDbEntity
8
0
100
AcDbCircle
10
-88.009333298052894
20
326.67677579800784
30
0
40
4.0000796500745794
210
0
220
0
230
1
100
AcDbArc
50
224.82549672260947
51
269.84895821344281
0
ARC
5
284
100
AcDbEntity
8
0
100
AcDbCircle
10
-126.80076136624453
20
424.50012547517599
30
0
40
5.9772714792906534
210
0
220
0
230
-1
100
AcDbArc
50
88.761264999500767
51
134.58345720822962
0
LINE
5
285
100
AcDbEntity
8
0
100
AcDbLine
10
10.047747798254914
20
431.15850004705493
30
0
11
10.184832798254909
21
425.14482004705491
31
0
0
LINE
5
286
100
AcDbEntity
8
0
100
AcDbLine
10
116.16241779825492
20
430.27123004705487
30
0
11
126.67154279825493
21
430.47600004705487
31
0
0
LINE
5
287
100
AcDbEntity
8
0
100
AcDbLine
10
24.792682198254916
20
425.24785004705484
30
0
11
24.159945998254916
21
425.24388004705492
31
0
0
LINE
5
288
100
AcDbEntity
8
0
100
AcDbLine
10
-55.565121201745072
20
418.14055004705494
30
0
11
-55.503643201745078
21
418.11309004705492
31
0
0
LINE
5
289
100
AcDbEntity
8
0
100
AcDbLine
10
-9.521237201745091
20
425.13903004705497
30
0
11
-9.5865142017450857
21
430.82463004705488
31
0
0
ARC
5
290
100
AcDbEntity
8
0
100
AcDbCircle
10
-116.52023416448375
20
370.4283022035288
30
0
40
4.5000179587234213
210
0
220
0
230
1
100
AcDbArc
50
181.69711517878898
51
270.65695197401391
0
LINE
5
291
100
AcDbEntity
8
0
100
AcDbLine
10
112.61201779825493
20
298.30092004705489
30
0
11
101.32919679825491
21
298.5620600470549
31
0
0
ARC
5
292
100
AcDbEntity
8
0
100
AcDbCircle
10
-128.91358860446115
20
327.74216439274551
30
0
40
4.1894214236861576
210
0
220
-0
230
-1
100
AcDbArc
50
226.0935326855664
51
271.56718205553932
0
LINE
5
293
100
AcDbEntity
8
0
100
AcDbLine
10
117.76507879825493
20
323.3628700470548
30
0
11
117.75485579825492
21
323.35991004705483
31
0
0
ARC
5
294
100
AcDbEntity
8
0
100
AcDbCircle
10
-18.821197547160743
20
322.37215380070541
30
0
40
4.8717837978960468
210
0
220
0
230
1
100
AcDbArc
50
118.99399479714913
51
160.21826934728406
0
ARC
5
295
100
AcDbEntity
8
0
100
AcDbCircle
10
35.38692823759898
20
430.85872200999847
30
0
40
8.9999717309693636
210
0
220
0
230
-1
100
AcDbArc
50
89.055159766297038
51
179.05515930207198
0
ARC
5
296
100
AcDbEntity
8
0
100
AcDbCircle
10
-77.090431177703891
20
425.55227766176216
30
0
40
4.0000005915916823
210
0
220
-0
230
1
100
AcDbArc
50
45.340214248227795
51
90.612031085817037
0
LINE
5
297
100
AcDbEntity
8
0
100
AcDbLine
10
-72.78328820174508
20
381.69786004705486
30
0
11
-72.765878201745096
21
377.39488004705493
31
0
0
LINE
5
298
100
AcDbEntity
8
0
100
AcDbLine
10
113.04350579825494
20
364.73528004705486
30
0
11
113.05084579825491
21
359.73528004705486
31
0
0
ARC
5
299
100
AcDbEntity
8
0
100
AcDbCircle
10
-14.957369898220474
20
316.58221938324027
30
0
40
11.822833285874143
210
0
220
0
230
1
100
AcDbArc
50
112.31723599768868
51
121.77239542319427
0
LINE
5
300
100
AcDbEntity
8
0
100
AcDbLine
10
24.58417079825491
20
454.98430004705494
30
0
11
112.48475979825491
21
455.128280047055
31
0
0
LINE
5
301
100
AcDbEntity
8
0
100
AcDbLine
10
25.038501298254911
20
298.42186004705491
30
0
11
24.930850498254912
21
308.00164004705488
31
0
0
LINE
5
302
100
AcDbEntity
8
0
100
AcDbLine
10
-92.415658201745089
20
426.109910047055
30
0
11
-92.420438201745085
21
385.86894004705482
31
0
0
LINE
5
303
100
AcDbEntity
8
0
100
AcDbLine
10
-0.72747420174509081
20
439.92681004705491
30
0
11
0.90971679825491147
21
439.95232004705491
31
0
0
ARC
5
304
100
AcDbEntity
8
0
100
AcDbCircle
10
-116.30503809999745
20
427.14023984767095
30
0
40
3.1285333734478034
210
0
220
0
230
-1
100
AcDbArc
50
24.286211988152576
51
82.795069482318027
0
ARC
5
305
100
AcDbEntity
8
0
100
AcDbCircle
10
-126.74238320999805
20
424.60771541267491
30
0
40
5.9427750681273288
210
0
220
0
230
-1
100
AcDbArc
50
135.71253108237744
51
180.86451900069235
0
ARC
5
306
100
AcDbEntity
8
0
100
AcDbCircle
10
-88.407506262536245
20
425.43112501511473
30
0
40
4.000058575600411
210
0
220
0
230
1
100
AcDbArc
50
135.63746396715825
51
180.6615559485748
0
ARC
5
307
100
AcDbEntity
8
0
100
AcDbCircle
10
-45.710415197362849
20
292.99313551227675
30
0
40
9.0028688884902461
210
0
220
0
230
-1
100
AcDbArc
50
179.34552960708487
51
269.34592845827035
0
LINE
5
308
100
AcDbEntity
8
0
100
AcDbLine
10
-92.011868201745074
20
325.96566004705494
30
0
11
-92.009298201745082
21
326.69066004705491
31
0
0
ARC
5
309
100
AcDbEntity
8
0
100
AcDbCircle
10
-77.090480728287133
20
425.55230599296095
30
0
40
4.0000152690778625
210
0
220
-0
230
1
100
AcDbArc
50
0.067093891864188571
51
45.339424158792575
0
ARC
5
310
100
AcDbEntity
8
0
100
AcDbCircle
10
0.58708770515675468
20
430.92788618203173
30
0
40
9.0000188386973115
210
-0
220
0
230
-1
100
AcDbArc
50
-0.65736201712564446
51
89.106237429337995
0
LINE
5
311
100
AcDbEntity
8
0
100
AcDbLine
10
101.32919679825491
20
298.5620600470549
30
0
11
101.35921079825492
21
293.78853004705485
31
0
0
LINE
5
312
100
AcDbEntity
8
0
100
AcDbLine
10
116.07974579825492
20
430.26396004705498
30
0
11
116.16241779825492
21
430.27123004705487
31
0
0
LINE
5
313
100
AcDbEntity
8
0
100
AcDbLine
10
-92.341078201745091
20
366.2052500470549
30
0
11
-92.011868201745074
21
325.96566004705494
31
0
0
LINE
5
314
100
AcDbEntity
8
0
100
AcDbLine
10
117.75485579825492
20
323.35991004705483
30
0
11
117.70648479825493
21
323.34780004705493
31
0
0
LINE
5
315
100
AcDbEntity
8
0
100
AcDbLine
10
112.87926079825495
20
327.89159004705482
30
0
11
112.85812679825492
21
325.55101004705483
31
0
0
LINE
5
316
100
AcDbEntity
8
0
100
AcDbLine
10
-76.933448201745094
20
366.15544004705498
30
0
11
-76.934168201745081
21
366.19719004705496
31
0
0
LINE
5
317
100
AcDbEntity
8
0
100
AcDbLine
10
35.404452798254916
20
298.53835004705496
30
0
11
25.038501298254911
21
298.42186004705491
31
0
0
LINE
5
318
100
AcDbEntity
8
0
100
AcDbLine
10
-8.839932201745091
20
307.67913004705485
30
0
11
-8.7907982017450905
21
302.1621600470549
31
0
0
LINE
5
319
100
AcDbEntity
8
0
100
AcDbLine
10
113.14140679825492
20
356.91771004705487
30
0
11
112.61201779825493
21
298.30092004705489
31
0
0
LINE
5
320
100
AcDbEntity
8
0
100
AcDbLine
10
-92.453278201745093
20
370.34368004705482
30
0
11
-92.483108201745097
21
374.3876200470549
31
0
0
LINE
5
321
100
AcDbEntity
8
0
100
AcDbLine
10
14.291949798254912
20
366.88842004705492
30
0
11
25.134570598254911
21
356.52550004705489
31
0
0
LINE
5
322
100
AcDbEntity
8
0
100
AcDbLine
10
113.11325379825492
20
395.2681800470549
30
0
11
112.78415279825494
21
426.61376004705488
31
0
0
LINE
5
323
100
AcDbEntity
8
0
100
AcDbLine
10
24.159945998254916
20
425.24388004705492
30
0
11
14.321429798254911
21
425.17412004705477
31
0
0
LINE
5
324
100
AcDbEntity
8
0
100
AcDbLine
10
-26.291516201745097
20
425.1427500470549
30
0
11
-9.521237201745091
21
425.13903004705497
31
0
0
LINE
5
325
100
AcDbEntity
8
0
100
AcDbLine
10
132.68448179825492
20
424.51805004705488
30
0
11
133.10272179825492
21
327.69683004705485
31
0
0
LINE
5
326
100
AcDbEntity
8
0
100
AcDbLine
10
-43.846508201745081
20
346.92687004705488
30
0
11
-38.846508201745081
21
346.93422004705491
31
0
0
LINE
5
327
100
AcDbEntity
8
0
100
AcDbLine
10
45.81318703305152
20
283.99085323647932
30
0
11
44.755297798254915
21
283.96111004705494
31
0
0
LINE
5
328
100
AcDbEntity
8
0
100
AcDbLine
10
10.294573798254911
20
429.28014004705489
30
0
11
10.588290798254912
21
440.35497004705491
31
0
0
ARC
5
329
100
AcDbEntity
8
0
100
AcDbCircle
10
-76.691826032638133
20
326.64698094134837
30
0
40
4.0002315284956955
210
-0
220
0
230
1
100
AcDbArc
50
-44.877381187540621
51
0.39215716408721873
0
LINE
5
330
100
AcDbEntity
8
0
100
AcDbLine
10
10.184832798254909
20
425.14482004705491
30
0
11
14.125918798254913
21
425.17754004705478
31
0
0
ARC
5
331
100
AcDbEntity
8
0
100
AcDbCircle
10
-44.502329156184217
20
292.9574983286081
30
0
40
8.9999441801790354
210
0
220
-0
230
-1
100
AcDbArc
50
268.38932948617111
51
313.69931512389826
0
ARC
5
332
100
AcDbEntity
8
0
100
AcDbCircle
10
-121.34983464434242
20
424.48248250124522
30
0
40
8.8268482181164334
210
0
220
0
230
-1
100
AcDbArc
50
13.972370747939694
51
26.543433998190018
0
LINE
5
333
100
AcDbEntity
8
0
100
AcDbLine
10
-18.906460201745087
20
307.58965004705493
30
0
11
-8.839932201745091
21
307.67913004705485
31
0
0
LINE
5
334
100
AcDbEntity
8
0
100
AcDbLine
10
-100.8205882017451
20
375.78667004705494
30
0
11
-100.82289820174509
21
376.07610004705492
31
0
0
ARC
5
335
100
AcDbEntity
8
0
100
AcDbCircle
10
-14.293016686495754
20
429.17390336469271
30
0
40
3.9998539677347567
210
-0
220
0
230
-1
100
AcDbArc
50
-44.442762700796052
51
1.5219629178941991
0
LINE
5
336
100
AcDbEntity
8
0
100
AcDbLine
10
-92.499198201745102
20
381.72978004705499
30
0
11
-92.49648820174508
21
377.68572004705493
31
0
0
ARC
5
337
100
AcDbEntity
8
0
100
AcDbCircle
10
-91.35933389297314
20
293.73618281179893
30
0
40
9.9999282038518036
210
0
220
-0
230
-1
100
AcDbArc
50
224.74649921996385
51
269.79271966081637
0
LINE
5
338
100
AcDbEntity
8
0
100
AcDbLine
10
-45.569309201745085
20
425.00896004705498
30
0
11
-45.688076201745105
21
430.64775004705496
31
0
0
LINE
5
339
100
AcDbEntity
8
0
100
AcDbLine
10
54.65475779825492
20
298.24672004705485
30
0
11
54.712696757519936
21
293.09597001524816
31
0
0
LINE
5
340
100
AcDbEntity
8
0
100
AcDbLine
10
128.79901179825492
20
323.55431004705486
30
0
11
117.76507879825493
21
323.3628700470548
31
0
0
LINE
5
341
100
AcDbEntity
8
0
100
AcDbLine
10
-111.08078820174509
20
371.294300047055
30
0
11
-111.5637582017451
21
371.22264004705494
31
0
0
LINE
5
342
100
AcDbEntity
8
0
100
AcDbLine
10
25.185718098254913
20
327.77281004705492
30
0
11
24.553012398254914
21
327.77172004705494
31
0
0
ARC
5
343
100
AcDbEntity
8
0
100
AcDbCircle
10
-90.647698646588864
20
292.75390157006382
30
0
40
8.9999908930188806
210
-0
220
0
230
-1
100
AcDbArc
50
270.72442870777945
51
359.70039537081931
0
LINE
5
344
100
AcDbEntity
8
0
100
AcDbLine
10
-66.853482201745095
20
386.06340004705487
30
0
11
-62.832676201745095
21
386.07939004705486
31
0
0
LINE
5
345
100
AcDbEntity
8
0
100
AcDbLine
10
-36.83843620174509
20
439.83599004705479
30
0
11
-35.535336201745096
21
439.85747004705479
31
0
0
ARC
5
346
100
AcDbEntity
8
0
100
AcDbCircle
10
-88.009409332406193
20
326.67661663706554
30
0
40
3.9999135221183519
210
0
220
0
230
1
100
AcDbArc
50
179.79883820713138
51
224.82464750031056
0
LINE
5
347
100
AcDbEntity
8
0
100
AcDbLine
10
-53.495907201745098
20
407.953660047055
30
0
11
-59.586788201745087
21
410.41527004705483
31
0
0
LINE
5
348
100
AcDbEntity
8
0
100
AcDbLine
10
-72.349346201745078
20
327.21697004705493
30
0
11
-72.347943201745082
21
327.21697004705493
31
0
0
ENDSEC
0
SECTION
2
OBJECTS
0
DICTIONARY
5
C
100
AcDbDictionary
3
ACAD_GROUP
350
D
3
ACAD_MLINESTYLE
350
17
0
DICTIONARY
5
D
100
AcDbDictionary
0
DICTIONARY
5
1A
330
C
100
AcDbDictionary
0
DICTIONARY
5
17
100
AcDbDictionary
0
ENDSEC
0
EOF
