  0
SECTION
  2
HEADER
  9
$ACADVER
  1
AC1009
  0
ENDSEC
  0
SECTION
  2
TABLES
  0
TABLE
  2
LAYER
  70
1
  0
LAYER
  2
Layer_8
  70
0
  62
254
  6
CONTINUOUS
  0
ENDTAB
  0
ENDSEC
  0
SECTION
  2
ENTITIES
  0
CIRCLE
  5
90
  8
Layer_8
  62
254
  10
234.23711
  20
223.98744
  30
0
  40
2.7500162
  0
CIRCLE
  5
90
  8
Layer_8
  62
254
  10
234.73213
  20
108.52424
  30
0
  40
2.7500198
  0
CIRCLE
  5
90
  8
Layer_8
  62
254
  10
108.45028
  20
118.22028
  30
0
  40
2.8499999
  0
CIRCLE
  5
90
  8
Layer_8
  62
254
  10
108.85047
  20
83.081703
  30
0
  40
2.8499999
  0
CIRCLE
  5
90
  8
Layer_8
  62
254
  10
108.28377
  20
161.90157
  30
0
  40
2.8499999
  0
CIRCLE
  5
90
  8
Layer_8
  62
254
  10
59.593086
  20
92.801102
  30
0
  40
2.8499999
  0
CIRCLE
  5
90
  8
Layer_8
  62
254
  10
59.346046
  20
186.37436
  30
0
  40
2.8499999
  0
CIRCLE
  5
90
  8
Layer_8
  62
254
  10
234.23596
  20
224.33745
  30
0
  40
2.8499999
  0
CIRCLE
  5
90
  8
Layer_8
  62
254
  10
234.90067
  20
171.77837
  30
0
  40
2.8499999
  0
CIRCLE
  5
90
  8
Layer_8
  62
254
  10
234.73213
  20
108.52424
  30
0
  40
2.8499999
  0
CIRCLE
  5
90
  8
Layer_8
  62
254
  10
269.47281
  20
182.6519
  30
0
  40
2.8499999
  0
CIRCLE
  5
90
  8
Layer_8
  62
254
  10
269.5112
  20
98.626488
  30
0
  40
2.8499999
  0
CIRCLE
  5
90
  8
Layer_8
  62
254
  10
261.22293
  20
140.32553
  30
0
  40
2.8499999
  0
POLYLINE
  5
90
  8
Layer_8
  62
254
  66
1
  10
0
  20
0
  30
0
  0
VERTEX
  5
90
  8
Layer_8
  10
257.09958
  20
160.05759
  0
VERTEX
  5
91
  8
Layer_8
  10
256.17908
  20
218.66956
  0
VERTEX
  5
92
  8
Layer_8
  10
244.89825
  20
218.33313
  0
VERTEX
  5
93
  8
Layer_8
  10
244.89642
  20
223.10675
  42
0.19911854
  0
VERTEX
  5
94
  8
Layer_8
  10
241.95154
  20
230.17929
  42
0.19911828
  0
VERTEX
  5
95
  8
Layer_8
  10
234.86588
  20
233.09225
  0
VERTEX
  5
96
  8
Layer_8
  10
235.32379
  20
233.09372
  0
VERTEX
  5
97
  8
Layer_8
  10
234.00439
  20
233.06822
  42
0.4089895
  0
VERTEX
  5
98
  8
Layer_8
  10
225.17825
  20
224.05693
  0
VERTEX
  5
99
  8
Layer_8
  10
225.20216
  20
218.03055
  0
VERTEX
  5
9a
  8
Layer_8
  10
198.24631
  20
217.91693
  0
VERTEX
  5
9b
  8
Layer_8
  10
198.24631
  20
218.13049
  0
VERTEX
  5
9c
  8
Layer_8
  10
198.24631
  20
223.48804
  42
0.41421716
  0
VERTEX
  5
9d
  8
Layer_8
  10
189.28625
  20
232.53358
  0
VERTEX
  5
9e
  8
Layer_8
  10
188.22818
  20
232.55627
  42
0.20505724
  0
VERTEX
  5
9f
  8
Layer_8
  10
181.65747
  20
229.90839
  42
0.20499094
  0
VERTEX
  5
a0
  8
Layer_8
  10
178.80231
  20
223.42755
  0
VERTEX
  5
a1
  8
Layer_8
  10
178.80231
  20
217.91714
  0
VERTEX
  5
a2
  8
Layer_8
  10
168.60831
  20
217.96375
  0
VERTEX
  5
a3
  8
Layer_8
  10
168.56584
  20
208.40555
  0
VERTEX
  5
a4
  8
Layer_8
  10
154.66916
  20
208.35397
  0
VERTEX
  5
a5
  8
Layer_8
  10
154.65701
  20
213.99307
  42
0.40744134
  0
VERTEX
  5
a6
  8
Layer_8
  10
145.84625
  20
222.97168
  0
VERTEX
  5
a7
  8
Layer_8
  10
144.61993
  20
222.98978
  0
VERTEX
  5
a8
  8
Layer_8
  10
143.68715
  20
222.9776
  42
0.40975307
  0
VERTEX
  5
a9
  8
Layer_8
  10
134.80473
  20
213.99831
  0
VERTEX
  5
aa
  8
Layer_8
  10
134.79242
  20
208.48114
  0
VERTEX
  5
ab
  8
Layer_8
  10
124.72552
  20
208.50345
  42
0.20023503
  0
VERTEX
  5
ac
  8
Layer_8
  10
121.52431
  20
207.17621
  42
0.20022986
  0
VERTEX
  5
ad
  8
Layer_8
  10
120.21562
  20
203.96744
  0
VERTEX
  5
ae
  8
Layer_8
  10
120.31043
  20
192.11758
  0
VERTEX
  5
af
  8
Layer_8
  10
120.33623
  20
192.04251
  42
0.18156519
  0
VERTEX
  5
b0
  8
Layer_8
  10
122.57182
  20
189.44748
  42
0.041403386
  0
VERTEX
  5
b1
  8
Layer_8
  10
124.31807
  20
188.5704
  0
SEQEND
  0
POLYLINE
  5
b3
  8
Layer_8
  62
254
  66
1
  10
0
  20
0
  30
0
  0
VERTEX
  5
b3
  8
Layer_8
  10
77.183205
  20
149.91632
  0
VERTEX
  5
b4
  8
Layer_8
  10
81.20388
  20
149.95322
  0
SEQEND
  0
POLYLINE
  5
b6
  8
Layer_8
  62
254
  70
1
  66
1
  10
0
  20
0
  30
0
  0
VERTEX
  5
b6
  8
Layer_8
  10
234.8858
  20
192.67726
  42
0.41420069
  0
VERTEX
  5
b7
  8
Layer_8
  10
239.25635
  20
197.10646
  42
0.19891756
  0
VERTEX
  5
b8
  8
Layer_8
  10
237.9469
  20
200.20909
  42
0.19891976
  0
VERTEX
  5
b9
  8
Layer_8
  10
234.82709
  20
201.47701
  42
0.4142154
  0
VERTEX
  5
ba
  8
Layer_8
  10
230.45654
  20
197.04774
  42
0.41420437
  0
SEQEND
  0
POLYLINE
  5
bc
  8
Layer_8
  62
254
  66
1
  10
0
  20
0
  30
0
  0
VERTEX
  5
bc
  8
Layer_8
  10
32.484634
  20
144.25507
  0
VERTEX
  5
bd
  8
Layer_8
  10
38.235382
  20
144.29434
  42
-0.41420385
  0
VERTEX
  5
be
  8
Layer_8
  10
43.269428
  20
139.32855
  0
VERTEX
  5
bf
  8
Layer_8
  10
43.26598
  20
139.61664
  42
-0.0074929943
  0
VERTEX
  5
c0
  8
Layer_8
  10
43.267887
  20
139.47192
  0
VERTEX
  5
c1
  8
Layer_8
  10
43.26828
  20
139.76135
  42
-0.19892108
  0
VERTEX
  5
c2
  8
Layer_8
  10
41.79837
  20
136.22809
  42
-0.1989195
  0
VERTEX
  5
c3
  8
Layer_8
  10
38.260586
  20
134.7691
  0
VERTEX
  5
c4
  8
Layer_8
  10
32.509659
  20
134.77802
  0
SEQEND
  0
POLYLINE
  5
c6
  8
Layer_8
  62
254
  66
1
  10
0
  20
0
  30
0
  0
VERTEX
  5
c6
  8
Layer_8
  10
71.392456
  20
130.59344
  0
VERTEX
  5
c7
  8
Layer_8
  10
71.325554
  20
90.818878
  0
VERTEX
  5
c8
  8
Layer_8
  10
71.329903
  20
90.177231
  42
-0.20014722
  0
VERTEX
  5
c9
  8
Layer_8
  10
70.1605
  20
87.328857
  42
-0.20014913
  0
VERTEX
  5
ca
  8
Layer_8
  10
67.313957
  20
86.155212
  0
VERTEX
  5
cb
  8
Layer_8
  10
55.996262
  20
86.200775
  42
-0.19902656
  0
VERTEX
  5
cc
  8
Layer_8
  10
53.17131
  20
87.384964
  42
-0.19904026
  0
VERTEX
  5
cd
  8
Layer_8
  10
52.012352
  20
90.220322
  0
VERTEX
  5
ce
  8
Layer_8
  10
52.008827
  20
89.4953
  0
VERTEX
  5
cf
  8
Layer_8
  10
51.735512
  20
129.73538
  0
VERTEX
  5
d0
  8
Layer_8
  10
28.987122
  20
129.50616
  0
VERTEX
  5
d1
  8
Layer_8
  10
27.607697
  20
129.49219
  42
-0.40891433
  0
VERTEX
  5
d2
  8
Layer_8
  10
23.064194
  20
133.86505
  0
VERTEX
  5
d3
  8
Layer_8
  10
22.905273
  20
139.49118
  0
VERTEX
  5
d4
  8
Layer_8
  10
23.034393
  20
145.11807
  42
-0.40890455
  0
VERTEX
  5
d5
  8
Layer_8
  10
27.55481
  20
149.5148
  0
VERTEX
  5
d6
  8
Layer_8
  10
28.934311
  20
149.50821
  0
VERTEX
  5
d7
  8
Layer_8
  10
51.683662
  20
149.39914
  0
VERTEX
  5
d8
  8
Layer_8
  10
51.744347
  20
189.64001
  0
VERTEX
  5
d9
  8
Layer_8
  10
51.751762
  20
188.91507
  42
-0.19903887
  0
VERTEX
  5
da
  8
Layer_8
  10
52.895714
  20
191.7565
  42
-0.1990029
  0
VERTEX
  5
db
  8
Layer_8
  10
55.714321
  20
192.95557
  0
VERTEX
  5
dc
  8
Layer_8
  10
67.031609
  20
193.06088
  42
-0.20014533
  0
VERTEX
  5
dd
  8
Layer_8
  10
69.884338
  20
191.90231
  42
-0.20014439
  0
VERTEX
  5
de
  8
Layer_8
  10
71.06884
  20
189.06026
  0
VERTEX
  5
df
  8
Layer_8
  10
71.068718
  20
188.4794
  0
VERTEX
  5
e0
  8
Layer_8
  10
71.344383
  20
148.88388
  0
SEQEND
  0
POLYLINE
  5
e2
  8
Layer_8
  62
254
  66
1
  10
0
  20
0
  30
0
  0
VERTEX
  5
e2
  8
Layer_8
  10
257.10562
  20
143.52451
  0
VERTEX
  5
e3
  8
Layer_8
  10
257.13901
  20
138.5246
  0
SEQEND
  0
POLYLINE
  5
e5
  8
Layer_8
  62
254
  66
1
  10
0
  20
0
  30
0
  0
VERTEX
  5
e5
  8
Layer_8
  10
266.72281
  20
182.65196
  42
0.0012437715
  0
VERTEX
  5
e6
  8
Layer_8
  10
266.72287
  20
182.63351
  0
SEQEND
  0
POLYLINE
  5
e8
  8
Layer_8
  62
254
  66
1
  10
0
  20
0
  30
0
  0
VERTEX
  5
e8
  8
Layer_8
  10
151.96732
  20
208.44202
  0
VERTEX
  5
e9
  8
Layer_8
  10
146.96742
  20
208.40866
  0
SEQEND
  0
POLYLINE
  5
eb
  8
Layer_8
  62
254
  66
1
  10
0
  20
0
  30
0
  0
VERTEX
  5
eb
  8
Layer_8
  10
232.02774
  20
120.53436
  0
VERTEX
  5
ec
  8
Layer_8
  10
227.02786
  20
120.50098
  0
SEQEND
  0
POLYLINE
  5
ee
  8
Layer_8
  62
254
  66
1
  10
0
  20
0
  30
0
  0
VERTEX
  5
ee
  8
Layer_8
  10
257.05386
  20
152.23953
  0
VERTEX
  5
ef
  8
Layer_8
  10
257.02783
  20
157.2395
  0
SEQEND
  0
POLYLINE
  5
f1
  8
Layer_8
  62
254
  70
1
  66
1
  10
0
  20
0
  30
0
  0
VERTEX
  5
f1
  8
Layer_8
  10
109.14652
  20
104.39633
  42
0.41420805
  0
VERTEX
  5
f2
  8
Layer_8
  10
104.77596
  20
99.96701
  42
0.4142108
  0
VERTEX
  5
f3
  8
Layer_8
  10
109.20525
  20
95.596436
  42
0.4142154
  0
VERTEX
  5
f4
  8
Layer_8
  10
113.57578
  20
100.02573
  42
0.4142154
  0
SEQEND
  0
POLYLINE
  5
f6
  8
Layer_8
  62
254
  66
1
  10
0
  20
0
  30
0
  0
VERTEX
  5
f6
  8
Layer_8
  10
158.31888
  20
149.42752
  0
VERTEX
  5
f7
  8
Layer_8
  10
169.0921
  20
159.86255
  0
VERTEX
  5
f8
  8
Layer_8
  10
168.95139
  20
188.61496
  0
VERTEX
  5
f9
  8
Layer_8
  10
168.3187
  20
188.61182
  0
VERTEX
  5
fa
  8
Layer_8
  10
158.4801
  20
188.55576
  0
VERTEX
  5
fb
  8
Layer_8
  10
134.63588
  20
188.5538
  0
VERTEX
  5
fc
  8
Layer_8
  10
117.85773
  20
188.58078
  0
VERTEX
  5
fd
  8
Layer_8
  10
98.589104
  20
188.47391
  0
VERTEX
  5
fe
  8
Layer_8
  10
71.068718
  20
188.4794
  0
SEQEND
  0
POLYLINE
  5
100
  8
Layer_8
  62
254
  66
1
  10
0
  20
0
  30
0
  0
VERTEX
  5
100
  8
Layer_8
  10
160.50476
  20
169.73099
  0
VERTEX
  5
101
  8
Layer_8
  10
164.98904
  20
169.806
  0
SEQEND
  0
POLYLINE
  5
103
  8
Layer_8
  62
254
  66
1
  10
0
  20
0
  30
0
  0
VERTEX
  5
103
  8
Layer_8
  10
90.393799
  20
110.83325
  0
VERTEX
  5
104
  8
Layer_8
  10
95.393677
  20
110.86664
  0
SEQEND
  0
POLYLINE
  5
106
  8
Layer_8
  62
254
  66
1
  10
0
  20
0
  30
0
  0
VERTEX
  5
106
  8
Layer_8
  10
179.89702
  20
102.08492
  0
VERTEX
  5
107
  8
Layer_8
  10
198.84077
  20
102.08492
  0
SEQEND
  0
POLYLINE
  5
109
  8
Layer_8
  62
254
  66
1
  10
0
  20
0
  30
0
  0
VERTEX
  5
109
  8
Layer_8
  10
86.556458
  20
97.538391
  42
0.14452313
  0
VERTEX
  5
10a
  8
Layer_8
  10
88.805351
  20
97.710388
  0
VERTEX
  5
10b
  8
Layer_8
  10
88.866646
  20
97.738251
  0
VERTEX
  5
10c
  8
Layer_8
  10
88.926765
  20
97.767593
  42
0.22785154
  0
VERTEX
  5
10d
  8
Layer_8
  10
90.312904
  20
99.690155
  42
0.040833625
  0
VERTEX
  5
10e
  8
Layer_8
  10
90.422264
  20
100.37257
  42
0.040836247
  0
VERTEX
  5
10f
  8
Layer_8
  10
90.340881
  20
101.05888
  42
0.2278498
  0
VERTEX
  5
110
  8
Layer_8
  10
89.034454
  20
103.03648
  0
VERTEX
  5
111
  8
Layer_8
  10
88.975586
  20
103.06825
  0
VERTEX
  5
112
  8
Layer_8
  10
88.915482
  20
103.0986
  42
0.14452549
  0
VERTEX
  5
113
  8
Layer_8
  10
86.675491
  20
103.36235
  0
SEQEND
  0
POLYLINE
  5
115
  8
Layer_8
  62
254
  66
1
  10
0
  20
0
  30
0
  0
VERTEX
  5
115
  8
Layer_8
  10
177.02896
  20
120.16736
  0
VERTEX
  5
116
  8
Layer_8
  10
182.02884
  20
120.20072
  0
SEQEND
  0
POLYLINE
  5
118
  8
Layer_8
  62
254
  66
1
  10
0
  20
0
  30
0
  0
VERTEX
  5
118
  8
Layer_8
  10
189.30145
  20
95.829803
  0
VERTEX
  5
119
  8
Layer_8
  10
189.3689
  20
102.08492
  0
SEQEND
  0
POLYLINE
  5
11b
  8
Layer_8
  62
254
  66
1
  10
0
  20
0
  30
0
  0
VERTEX
  5
11b
  8
Layer_8
  10
217.2778
  20
102.23892
  0
VERTEX
  5
11c
  8
Layer_8
  10
212.2742
  20
102.23892
  0
SEQEND
  0
POLYLINE
  5
11e
  8
Layer_8
  62
254
  66
1
  10
0
  20
0
  30
0
  0
VERTEX
  5
11e
  8
Layer_8
  10
99.802711
  20
129.86166
  0
VERTEX
  5
11f
  8
Layer_8
  10
94.802811
  20
129.82831
  0
SEQEND
  0
POLYLINE
  5
121
  8
Layer_8
  62
254
  66
1
  10
0
  20
0
  30
0
  0
VERTEX
  5
121
  8
Layer_8
  10
80.04879
  20
168.89667
  0
VERTEX
  5
122
  8
Layer_8
  10
85.048729
  20
168.9227
  0
SEQEND
  0
POLYLINE
  5
124
  8
Layer_8
  62
254
  66
1
  10
0
  20
0
  30
0
  0
VERTEX
  5
124
  8
Layer_8
  10
242.90192
  20
218.54904
  0
VERTEX
  5
125
  8
Layer_8
  10
237.90201
  20
218.51566
  0
SEQEND
  0
POLYLINE
  5
127
  8
Layer_8
  62
254
  66
1
  10
0
  20
0
  30
0
  0
VERTEX
  5
127
  8
Layer_8
  10
71.013695
  20
168.84964
  0
VERTEX
  5
128
  8
Layer_8
  10
75.048851
  20
168.8707
  0
SEQEND
  0
POLYLINE
  5
12a
  8
Layer_8
  62
254
  66
1
  10
0
  20
0
  30
0
  0
VERTEX
  5
12a
  8
Layer_8
  10
256.60703
  20
191.42172
  0
VERTEX
  5
12b
  8
Layer_8
  10
256.64371
  20
189.0827
  42
-0.41411999
  0
VERTEX
  5
12c
  8
Layer_8
  10
261.07254
  20
193.65147
  0
VERTEX
  5
12d
  8
Layer_8
  10
261.44058
  20
193.65726
  0
VERTEX
  5
12e
  8
Layer_8
  10
261.48901
  20
193.64545
  0
VERTEX
  5
12f
  8
Layer_8
  10
261.49927
  20
193.64255
  0
VERTEX
  5
130
  8
Layer_8
  10
272.53424
  20
193.52475
  42
-0.20105962
  0
VERTEX
  5
131
  8
Layer_8
  10
275.56183
  20
192.37546
  42
-0.20104981
  0
VERTEX
  5
132
  8
Layer_8
  10
276.86548
  20
189.41104
  0
VERTEX
  5
133
  8
Layer_8
  10
277.09332
  20
92.589233
  42
-0.19961076
  0
VERTEX
  5
134
  8
Layer_8
  10
275.43369
  20
88.338745
  42
-0.20264428
  0
VERTEX
  5
135
  8
Layer_8
  10
271.12027
  20
86.591232
  0
VERTEX
  5
136
  8
Layer_8
  10
260.61002
  20
86.725891
  0
VERTEX
  5
137
  8
Layer_8
  10
260.52728
  20
86.732605
  0
VERTEX
  5
138
  8
Layer_8
  10
260.44293
  20
86.74118
  0
VERTEX
  5
139
  8
Layer_8
  10
260.36008
  20
86.751373
  42
-0.26100237
  0
VERTEX
  5
13a
  8
Layer_8
  10
257.88876
  20
88.552063
  42
-0.054909173
  0
VERTEX
  5
13b
  8
Layer_8
  10
257.20743
  20
90.360718
  0
VERTEX
  5
13c
  8
Layer_8
  10
257.32733
  20
121.70783
  0
SEQEND
  0
POLYLINE
  5
13e
  8
Layer_8
  62
254
  66
1
  10
0
  20
0
  30
0
  0
VERTEX
  5
13e
  8
Layer_8
  10
106.24685
  20
90.78743
  0
VERTEX
  5
13f
  8
Layer_8
  10
101.24697
  20
90.754059
  0
SEQEND
  0
POLYLINE
  5
141
  8
Layer_8
  62
254
  66
1
  10
0
  20
0
  30
0
  0
VERTEX
  5
141
  8
Layer_8
  10
67.090622
  20
149.55179
  0
VERTEX
  5
142
  8
Layer_8
  10
67.090172
  20
149.50998
  0
SEQEND
  0
POLYLINE
  5
144
  8
Layer_8
  62
254
  66
1
  10
0
  20
0
  30
0
  0
VERTEX
  5
144
  8
Layer_8
  10
257.20743
  20
90.360718
  0
VERTEX
  5
145
  8
Layer_8
  10
257.11932
  20
67.343262
  0
VERTEX
  5
146
  8
Layer_8
  10
170.33133
  20
66.906281
  0
VERTEX
  5
147
  8
Layer_8
  10
170.186
  20
71.653137
  0
VERTEX
  5
148
  8
Layer_8
  10
170.186
  20
73.153137
  0
VERTEX
  5
149
  8
Layer_8
  10
158.01337
  20
73.153137
  42
-0.34168892
  0
VERTEX
  5
14a
  8
Layer_8
  10
155.10947
  20
75.399933
  42
-0.037763542
  0
VERTEX
  5
14b
  8
Layer_8
  10
154.9895
  20
76.06543
  0
VERTEX
  5
14c
  8
Layer_8
  10
154.76874
  20
87.139801
  42
-0.2052544
  0
VERTEX
  5
14d
  8
Layer_8
  10
156.05965
  20
90.096909
  42
-0.2051411
  0
VERTEX
  5
14e
  8
Layer_8
  10
159.00928
  20
91.252533
  0
VERTEX
  5
14f
  8
Layer_8
  10
168.85333
  20
91.112717
  0
VERTEX
  5
150
  8
Layer_8
  10
169.20679
  20
91.172913
  0
VERTEX
  5
151
  8
Layer_8
  10
169.19547
  20
119.89327
  0
VERTEX
  5
152
  8
Layer_8
  10
158.3689
  20
130.26953
  0
SEQEND
  0
POLYLINE
  5
154
  8
Layer_8
  62
254
  66
1
  10
0
  20
0
  30
0
  0
VERTEX
  5
154
  8
Layer_8
  10
51.599083
  20
145.26004
  0
VERTEX
  5
155
  8
Layer_8
  10
51.59623
  20
141.216
  0
SEQEND
  0
POLYLINE
  5
157
  8
Layer_8
  62
254
  66
1
  10
0
  20
0
  30
0
  0
VERTEX
  5
157
  8
Layer_8
  10
257.10059
  20
145.23972
  0
VERTEX
  5
158
  8
Layer_8
  10
257.07455
  20
150.23965
  0
SEQEND
  0
POLYLINE
  5
15a
  8
Layer_8
  62
254
  66
1
  10
0
  20
0
  30
0
  0
VERTEX
  5
15a
  8
Layer_8
  10
207.32828
  20
102.15646
  0
VERTEX
  5
15b
  8
Layer_8
  10
202.62799
  20
102.13434
  0
SEQEND
  0
POLYLINE
  5
15d
  8
Layer_8
  62
254
  66
1
  10
0
  20
0
  30
0
  0
VERTEX
  5
15d
  8
Layer_8
  10
89.802917
  20
129.79492
  0
VERTEX
  5
15e
  8
Layer_8
  10
84.803024
  20
129.76157
  0
SEQEND
  0
POLYLINE
  5
160
  8
Layer_8
  62
254
  66
1
  10
0
  20
0
  30
0
  0
VERTEX
  5
160
  8
Layer_8
  10
80.39402
  20
110.76651
  0
VERTEX
  5
161
  8
Layer_8
  10
85.393921
  20
110.79988
  0
SEQEND
  0
POLYLINE
  5
163
  8
Layer_8
  62
254
  70
1
  66
1
  10
0
  20
0
  30
0
  0
VERTEX
  5
163
  8
Layer_8
  10
236.05664
  20
78.391281
  42
0.41420896
  0
VERTEX
  5
164
  8
Layer_8
  10
240.42719
  20
82.820572
  42
0.41420528
  0
VERTEX
  5
165
  8
Layer_8
  10
235.99792
  20
87.191116
  42
0.41420344
  0
VERTEX
  5
166
  8
Layer_8
  10
231.62735
  20
82.761826
  42
0.41420989
  0
SEQEND
  0
POLYLINE
  5
168
  8
Layer_8
  62
254
  66
1
  10
0
  20
0
  30
0
  0
VERTEX
  5
168
  8
Layer_8
  10
100.39358
  20
110.90001
  0
VERTEX
  5
169
  8
Layer_8
  10
105.39347
  20
110.93336
  0
SEQEND
  0
POLYLINE
  5
16b
  8
Layer_8
  62
254
  66
1
  10
0
  20
0
  30
0
  0
VERTEX
  5
16b
  8
Layer_8
  10
120.39312
  20
111.03352
  0
VERTEX
  5
16c
  8
Layer_8
  10
125.39301
  20
111.06688
  0
SEQEND
  0
POLYLINE
  5
16e
  8
Layer_8
  62
254
  66
1
  10
0
  20
0
  30
0
  0
VERTEX
  5
16e
  8
Layer_8
  10
152.66034
  20
91.097137
  0
VERTEX
  5
16f
  8
Layer_8
  10
147.66046
  20
91.063766
  0
SEQEND
  0
POLYLINE
  5
171
  8
Layer_8
  62
254
  66
1
  10
0
  20
0
  30
0
  0
VERTEX
  5
171
  8
Layer_8
  10
90.675179
  20
93.618271
  0
VERTEX
  5
172
  8
Layer_8
  10
84.624039
  20
95.582397
  0
VERTEX
  5
173
  8
Layer_8
  10
84.67807
  20
100.48997
  0
VERTEX
  5
174
  8
Layer_8
  10
84.824615
  20
105.39568
  0
VERTEX
  5
175
  8
Layer_8
  10
90.950958
  20
107.1109
  0
SEQEND
  0
POLYLINE
  5
177
  8
Layer_8
  62
254
  66
1
  10
0
  20
0
  30
0
  0
VERTEX
  5
177
  8
Layer_8
  10
149.68222
  20
150.29367
  0
VERTEX
  5
178
  8
Layer_8
  10
144.68228
  20
150.26767
  0
SEQEND
  0
POLYLINE
  5
17a
  8
Layer_8
  62
254
  66
1
  10
0
  20
0
  30
0
  0
VERTEX
  5
17a
  8
Layer_8
  10
232.15074
  20
171.76004
  42
0.032920019
  0
VERTEX
  5
17b
  8
Layer_8
  10
232.1769
  20
171.39954
  0
SEQEND
  0
POLYLINE
  5
17d
  8
Layer_8
  62
254
  66
1
  10
0
  20
0
  30
0
  0
VERTEX
  5
17d
  8
Layer_8
  10
58.17112
  20
130
  0
VERTEX
  5
17e
  8
Layer_8
  10
54.171165
  20
129.98035
  0
SEQEND
  0
POLYLINE
  5
180
  8
Layer_8
  62
254
  66
1
  10
0
  20
0
  30
0
  0
VERTEX
  5
180
  8
Layer_8
  10
257.1857
  20
131.52478
  0
VERTEX
  5
181
  8
Layer_8
  10
257.15234
  20
136.52466
  0
SEQEND
  0
POLYLINE
  5
183
  8
Layer_8
  62
254
  66
1
  10
0
  20
0
  30
0
  0
VERTEX
  5
183
  8
Layer_8
  10
142.66055
  20
91.030411
  0
VERTEX
  5
184
  8
Layer_8
  10
137.66068
  20
90.99704
  0
SEQEND
  0
POLYLINE
  5
186
  8
Layer_8
  62
254
  66
1
  10
0
  20
0
  30
0
  0
VERTEX
  5
186
  8
Layer_8
  10
154.7964
  20
111.05647
  0
VERTEX
  5
187
  8
Layer_8
  10
135.44414
  20
111.03319
  0
SEQEND
  0
POLYLINE
  5
189
  8
Layer_8
  62
254
  66
1
  10
0
  20
0
  30
0
  0
VERTEX
  5
189
  8
Layer_8
  10
222.02795
  20
120.46762
  0
VERTEX
  5
18a
  8
Layer_8
  10
217.02808
  20
120.43427
  0
SEQEND
  0
POLYLINE
  5
18c
  8
Layer_8
  62
254
  66
1
  10
0
  20
0
  30
0
  0
VERTEX
  5
18c
  8
Layer_8
  10
237.27365
  20
102.40579
  0
VERTEX
  5
18d
  8
Layer_8
  10
232.27377
  20
102.37244
  0
SEQEND
  0
POLYLINE
  5
18f
  8
Layer_8
  62
254
  66
1
  10
0
  20
0
  30
0
  0
VERTEX
  5
18f
  8
Layer_8
  10
129.80203
  20
130.06183
  0
VERTEX
  5
190
  8
Layer_8
  10
124.80215
  20
130.02847
  0
SEQEND
  0
POLYLINE
  5
192
  8
Layer_8
  62
254
  66
1
  10
0
  20
0
  30
0
  0
VERTEX
  5
192
  8
Layer_8
  10
232.90213
  20
218.4823
  0
VERTEX
  5
193
  8
Layer_8
  10
227.90222
  20
218.44894
  0
SEQEND
  0
POLYLINE
  5
195
  8
Layer_8
  62
254
  66
1
  10
0
  20
0
  30
0
  0
VERTEX
  5
195
  8
Layer_8
  10
67.206978
  20
129.95609
  0
VERTEX
  5
196
  8
Layer_8
  10
67.206047
  20
129.99792
  0
SEQEND
  0
POLYLINE
  5
198
  8
Layer_8
  62
254
  66
1
  10
0
  20
0
  30
0
  0
VERTEX
  5
198
  8
Layer_8
  10
174.27524
  20
102.24763
  0
VERTEX
  5
199
  8
Layer_8
  10
170.27548
  20
102.2908
  0
SEQEND
  0
POLYLINE
  5
19b
  8
Layer_8
  62
254
  66
1
  10
0
  20
0
  30
0
  0
VERTEX
  5
19b
  8
Layer_8
  10
252.02728
  20
120.66779
  0
VERTEX
  5
19c
  8
Layer_8
  10
247.0274
  20
120.63446
  0
SEQEND
  0
POLYLINE
  5
19e
  8
Layer_8
  62
254
  66
1
  10
0
  20
0
  30
0
  0
VERTEX
  5
19e
  8
Layer_8
  10
100.04851
  20
169.00067
  0
VERTEX
  5
19f
  8
Layer_8
  10
105.04845
  20
169.0267
  0
SEQEND
  0
POLYLINE
  5
1a1
  8
Layer_8
  62
254
  66
1
  10
0
  20
0
  30
0
  0
VERTEX
  5
1a1
  8
Layer_8
  10
261.78745
  20
161.08664
  0
VERTEX
  5
1a2
  8
Layer_8
  10
258.78748
  20
161.07101
  0
SEQEND
  0
POLYLINE
  5
1a4
  8
Layer_8
  62
254
  66
1
  10
0
  20
0
  30
0
  0
VERTEX
  5
1a4
  8
Layer_8
  10
77.3032
  20
129.71152
  0
VERTEX
  5
1a5
  8
Layer_8
  10
81.324028
  20
129.72235
  0
SEQEND
  0
POLYLINE
  5
1a7
  8
Layer_8
  62
254
  66
1
  10
0
  20
0
  30
0
  0
VERTEX
  5
1a7
  8
Layer_8
  10
262.02707
  20
120.73453
  0
VERTEX
  5
1a8
  8
Layer_8
  10
259.02713
  20
120.71451
  0
SEQEND
  0
POLYLINE
  5
1aa
  8
Layer_8
  62
254
  66
1
  10
0
  20
0
  30
0
  0
VERTEX
  5
1aa
  8
Layer_8
  10
32.97834
  20
144.18515
  0
VERTEX
  5
1ab
  8
Layer_8
  10
32.494896
  20
144.2536
  0
SEQEND
  0
POLYLINE
  5
1ad
  8
Layer_8
  62
254
  66
1
  10
0
  20
0
  30
0
  0
VERTEX
  5
1ad
  8
Layer_8
  10
119.68261
  20
150.13748
  0
VERTEX
  5
1ae
  8
Layer_8
  10
114.6827
  20
150.11148
  0
SEQEND
  0
POLYLINE
  5
1b0
  8
Layer_8
  62
254
  66
1
  10
0
  20
0
  30
0
  0
VERTEX
  5
1b0
  8
Layer_8
  10
127.89297
  20
111.08359
  0
VERTEX
  5
1b1
  8
Layer_8
  10
132.89285
  20
111.11693
  0
SEQEND
  0
POLYLINE
  5
1b3
  8
Layer_8
  62
254
  66
1
  10
0
  20
0
  30
0
  0
VERTEX
  5
1b3
  8
Layer_8
  10
68.055656
  20
149.47018
  0
VERTEX
  5
1b4
  8
Layer_8
  10
63.055779
  20
149.43533
  0
SEQEND
  0
POLYLINE
  5
1b6
  8
Layer_8
  62
254
  66
1
  10
0
  20
0
  30
0
  0
VERTEX
  5
1b6
  8
Layer_8
  10
119.80225
  20
129.99512
  0
VERTEX
  5
1b7
  8
Layer_8
  10
114.80236
  20
129.96173
  0
SEQEND
  0
POLYLINE
  5
1b9
  8
Layer_8
  62
254
  66
1
  10
0
  20
0
  30
0
  0
VERTEX
  5
1b9
  8
Layer_8
  10
247.09671
  20
177.56534
  0
VERTEX
  5
1ba
  8
Layer_8
  10
242.09674
  20
177.57526
  0
SEQEND
  0
POLYLINE
  5
1bc
  8
Layer_8
  62
254
  66
1
  10
0
  20
0
  30
0
  0
VERTEX
  5
1bc
  8
Layer_8
  10
71.344391
  20
134.03741
  0
VERTEX
  5
1bd
  8
Layer_8
  10
71.333099
  20
138.34039
  0
SEQEND
  0
POLYLINE
  5
1bf
  8
Layer_8
  62
254
  66
1
  10
0
  20
0
  30
0
  0
VERTEX
  5
1bf
  8
Layer_8
  10
196.93625
  20
159.50085
  0
VERTEX
  5
1c0
  8
Layer_8
  10
201.93625
  20
159.49103
  0
SEQEND
  0
POLYLINE
  5
1c2
  8
Layer_8
  62
254
  66
1
  10
0
  20
0
  30
0
  0
VERTEX
  5
1c2
  8
Layer_8
  10
105.62764
  20
118.13327
  42
0.18958575
  0
VERTEX
  5
1c3
  8
Layer_8
  10
106.37696
  20
116.26481
  0
SEQEND
  0
POLYLINE
  5
1c5
  8
Layer_8
  62
254
  66
1
  10
0
  20
0
  30
0
  0
VERTEX
  5
1c5
  8
Layer_8
  10
226.99692
  20
177.6377
  0
VERTEX
  5
1c6
  8
Layer_8
  10
222.09674
  20
177.61465
  0
SEQEND
  0
POLYLINE
  5
1c8
  8
Layer_8
  62
254
  66
1
  10
0
  20
0
  30
0
  0
VERTEX
  5
1c8
  8
Layer_8
  10
207.15051
  20
177.69348
  0
VERTEX
  5
1c9
  8
Layer_8
  10
202.4502
  20
177.69348
  0
SEQEND
  0
POLYLINE
  5
1cb
  8
Layer_8
  62
254
  66
1
  10
0
  20
0
  30
0
  0
VERTEX
  5
1cb
  8
Layer_8
  10
256.13193
  20
177.54755
  0
VERTEX
  5
1cc
  8
Layer_8
  10
252.09671
  20
177.55548
  0
SEQEND
  0
POLYLINE
  5
1ce
  8
Layer_8
  62
254
  66
1
  10
0
  20
0
  30
0
  0
VERTEX
  5
1ce
  8
Layer_8
  10
236.93619
  20
159.42221
  0
VERTEX
  5
1cf
  8
Layer_8
  10
241.93619
  20
159.41238
  0
SEQEND
  0
POLYLINE
  5
1d1
  8
Layer_8
  62
254
  66
1
  10
0
  20
0
  30
0
  0
VERTEX
  5
1d1
  8
Layer_8
  10
221.93622
  20
159.45172
  0
VERTEX
  5
1d2
  8
Layer_8
  10
216.93622
  20
159.46155
  0
SEQEND
  0
POLYLINE
  5
1d4
  8
Layer_8
  62
254
  66
1
  10
0
  20
0
  30
0
  0
VERTEX
  5
1d4
  8
Layer_8
  10
110.39335
  20
110.9668
  0
VERTEX
  5
1d5
  8
Layer_8
  10
115.39324
  20
111.00015
  0
SEQEND
  0
POLYLINE
  5
1d7
  8
Layer_8
  62
254
  66
1
  10
0
  20
0
  30
0
  0
VERTEX
  5
1d7
  8
Layer_8
  10
179.4502
  20
177.70956
  0
VERTEX
  5
1d8
  8
Layer_8
  10
184.45013
  20
177.73309
  0
SEQEND
  0
POLYLINE
  5
1da
  8
Layer_8
  62
254
  66
1
  10
0
  20
0
  30
0
  0
VERTEX
  5
1da
  8
Layer_8
  10
153.51627
  20
169.43259
  0
VERTEX
  5
1db
  8
Layer_8
  10
134.4838
  20
169.2294
  0
SEQEND
  0
POLYLINE
  5
1dd
  8
Layer_8
  62
254
  66
1
  10
0
  20
0
  30
0
  0
VERTEX
  5
1dd
  8
Layer_8
  10
237.02762
  20
120.56772
  0
VERTEX
  5
1de
  8
Layer_8
  10
242.02753
  20
120.60108
  0
SEQEND
  0
POLYLINE
  5
1e0
  8
Layer_8
  62
254
  66
1
  10
0
  20
0
  30
0
  0
VERTEX
  5
1e0
  8
Layer_8
  10
237.09674
  20
177.58508
  0
VERTEX
  5
1e1
  8
Layer_8
  10
232.09674
  20
177.59491
  0
SEQEND
  0
POLYLINE
  5
1e3
  8
Layer_8
  62
254
  66
1
  10
0
  20
0
  30
0
  0
VERTEX
  5
1e3
  8
Layer_8
  10
211.93625
  20
159.47137
  0
VERTEX
  5
1e4
  8
Layer_8
  10
206.93622
  20
159.4812
  0
SEQEND
  0
POLYLINE
  5
1e6
  8
Layer_8
  62
254
  66
1
  10
0
  20
0
  30
0
  0
VERTEX
  5
1e6
  8
Layer_8
  10
85.688835
  20
178.82132
  0
VERTEX
  5
1e7
  8
Layer_8
  10
96.188828
  20
178.82388
  0
SEQEND
  0
POLYLINE
  5
1e9
  8
Layer_8
  62
254
  66
1
  10
0
  20
0
  30
0
  0
VERTEX
  5
1e9
  8
Layer_8
  10
217.10031
  20
177.65787
  0
VERTEX
  5
1ea
  8
Layer_8
  10
212.09677
  20
177.63431
  0
SEQEND
  0
POLYLINE
  5
1ec
  8
Layer_8
  62
254
  66
1
  10
0
  20
0
  30
0
  0
VERTEX
  5
1ec
  8
Layer_8
  10
149.80159
  20
130.19531
  0
VERTEX
  5
1ed
  8
Layer_8
  10
144.8017
  20
130.16193
  0
SEQEND
  0
POLYLINE
  5
1ef
  8
Layer_8
  62
254
  66
1
  10
0
  20
0
  30
0
  0
VERTEX
  5
1ef
  8
Layer_8
  10
176.93631
  20
159.54019
  0
VERTEX
  5
1f0
  8
Layer_8
  10
181.93628
  20
159.53036
  0
SEQEND
  0
POLYLINE
  5
1f2
  8
Layer_8
  62
254
  66
1
  10
0
  20
0
  30
0
  0
VERTEX
  5
1f2
  8
Layer_8
  10
141.96753
  20
208.37527
  0
VERTEX
  5
1f3
  8
Layer_8
  10
136.96765
  20
208.34195
  0
SEQEND
  0
POLYLINE
  5
1f5
  8
Layer_8
  62
254
  66
1
  10
0
  20
0
  30
0
  0
VERTEX
  5
1f5
  8
Layer_8
  10
172.02905
  20
120.13397
  0
VERTEX
  5
1f6
  8
Layer_8
  10
169.52911
  20
120.1173
  0
SEQEND
  0
POLYLINE
  5
1f8
  8
Layer_8
  62
254
  66
1
  10
0
  20
0
  30
0
  0
VERTEX
  5
1f8
  8
Layer_8
  10
109.80247
  20
129.92841
  0
VERTEX
  5
1f9
  8
Layer_8
  10
104.80257
  20
129.89502
  0
SEQEND
  0
POLYLINE
  5
1fb
  8
Layer_8
  62
254
  66
1
  10
0
  20
0
  30
0
  0
VERTEX
  5
1fb
  8
Layer_8
  10
185.90317
  20
218.16867
  0
VERTEX
  5
1fc
  8
Layer_8
  10
180.90329
  20
218.13531
  0
SEQEND
  0
POLYLINE
  5
1fe
  8
Layer_8
  62
254
  66
1
  10
0
  20
0
  30
0
  0
VERTEX
  5
1fe
  8
Layer_8
  10
158.15616
  20
91.13974
  0
VERTEX
  5
1ff
  8
Layer_8
  10
154.60059
  20
91.145004
  0
VERTEX
  5
200
  8
Layer_8
  10
154.50363
  20
85.130554
  42
-0.41210882
  0
VERTEX
  5
201
  8
Layer_8
  10
145.42447
  20
76.275955
  0
VERTEX
  5
202
  8
Layer_8
  10
143.78714
  20
76.290543
  42
-0.41300885
  0
VERTEX
  5
203
  8
Layer_8
  10
134.86758
  20
85.333374
  0
VERTEX
  5
204
  8
Layer_8
  10
134.8949
  20
91.019302
  0
VERTEX
  5
205
  8
Layer_8
  10
118.12502
  20
90.903671
  0
VERTEX
  5
206
  8
Layer_8
  10
118.06747
  20
85.038757
  42
-0.19891341
  0
VERTEX
  5
207
  8
Layer_8
  10
115.36913
  20
78.701004
  42
-0.19891318
  0
VERTEX
  5
208
  8
Layer_8
  10
108.97961
  20
76.127594
  0
VERTEX
  5
209
  8
Layer_8
  10
107.67638
  20
76.140381
  42
-0.19950191
  0
VERTEX
  5
20a
  8
Layer_8
  10
101.32425
  20
78.853455
  42
-0.19951174
  0
VERTEX
  5
20b
  8
Layer_8
  10
98.765625
  20
85.269348
  0
VERTEX
  5
20c
  8
Layer_8
  10
98.846779
  20
90.908829
  0
VERTEX
  5
20d
  8
Layer_8
  10
71.325554
  20
90.818878
  0
SEQEND
  0
POLYLINE
  5
20f
  8
Layer_8
  62
254
  66
1
  10
0
  20
0
  30
0
  0
VERTEX
  5
20f
  8
Layer_8
  10
272.02704
  20
120.758
  0
VERTEX
  5
210
  8
Layer_8
  10
267.02707
  20
120.74625
  0
SEQEND
  0
POLYLINE
  5
212
  8
Layer_8
  62
254
  66
1
  10
0
  20
0
  30
0
  0
VERTEX
  5
212
  8
Layer_8
  10
71.31488
  20
145.20078
  0
VERTEX
  5
213
  8
Layer_8
  10
71.326309
  20
140.89771
  0
SEQEND
  0
POLYLINE
  5
215
  8
Layer_8
  62
254
  66
1
  10
0
  20
0
  30
0
  0
VERTEX
  5
215
  8
Layer_8
  10
110.04839
  20
169.0527
  0
VERTEX
  5
216
  8
Layer_8
  10
115.0483
  20
169.0787
  0
SEQEND
  0
POLYLINE
  5
218
  8
Layer_8
  62
254
  66
1
  10
0
  20
0
  30
0
  0
VERTEX
  5
218
  8
Layer_8
  10
99.682907
  20
150.03342
  0
VERTEX
  5
219
  8
Layer_8
  10
94.682968
  20
150.00735
  0
SEQEND
  0
POLYLINE
  5
21b
  8
Layer_8
  62
254
  66
1
  10
0
  20
0
  30
0
  0
VERTEX
  5
21b
  8
Layer_8
  10
90.048645
  20
168.94864
  0
VERTEX
  5
21c
  8
Layer_8
  10
95.048584
  20
168.9747
  0
SEQEND
  0
POLYLINE
  5
21e
  8
Layer_8
  62
254
  66
1
  10
0
  20
0
  30
0
  0
VERTEX
  5
21e
  8
Layer_8
  10
90.921303
  20
174.3226
  0
VERTEX
  5
21f
  8
Layer_8
  10
90.95636
  20
183.3226
  0
SEQEND
  0
POLYLINE
  5
221
  8
Layer_8
  62
254
  66
1
  10
0
  20
0
  30
0
  0
VERTEX
  5
221
  8
Layer_8
  10
190.90305
  20
218.20206
  0
VERTEX
  5
222
  8
Layer_8
  10
195.90295
  20
218.23541
  0
SEQEND
  0
POLYLINE
  5
224
  8
Layer_8
  62
254
  66
1
  10
0
  20
0
  30
0
  0
VERTEX
  5
224
  8
Layer_8
  10
68.170998
  20
130.04916
  0
VERTEX
  5
225
  8
Layer_8
  10
63.171059
  20
130.0246
  0
SEQEND
  0
POLYLINE
  5
227
  8
Layer_8
  62
254
  66
1
  10
0
  20
0
  30
0
  0
VERTEX
  5
227
  8
Layer_8
  10
139.68237
  20
150.24161
  0
VERTEX
  5
228
  8
Layer_8
  10
134.68243
  20
150.21555
  0
SEQEND
  0
POLYLINE
  5
22a
  8
Layer_8
  62
254
  66
1
  10
0
  20
0
  30
0
  0
VERTEX
  5
22a
  8
Layer_8
  10
51.629128
  20
133.8739
  0
VERTEX
  5
22b
  8
Layer_8
  10
51.604858
  20
137.91788
  0
SEQEND
  0
POLYLINE
  5
22d
  8
Layer_8
  62
254
  66
1
  10
0
  20
0
  30
0
  0
VERTEX
  5
22d
  8
Layer_8
  10
187.02872
  20
120.23407
  0
VERTEX
  5
22e
  8
Layer_8
  10
192.02863
  20
120.26746
  0
SEQEND
  0
POLYLINE
  5
230
  8
Layer_8
  62
254
  66
1
  10
0
  20
0
  30
0
  0
VERTEX
  5
230
  8
Layer_8
  10
109.68276
  20
150.08548
  0
VERTEX
  5
231
  8
Layer_8
  10
104.68283
  20
150.05945
  0
SEQEND
  0
POLYLINE
  5
233
  8
Layer_8
  62
254
  66
1
  10
0
  20
0
  30
0
  0
VERTEX
  5
233
  8
Layer_8
  10
197.0285
  20
120.30078
  0
VERTEX
  5
234
  8
Layer_8
  10
202.02838
  20
120.33417
  0
SEQEND
  0
POLYLINE
  5
236
  8
Layer_8
  62
254
  66
1
  10
0
  20
0
  30
0
  0
VERTEX
  5
236
  8
Layer_8
  10
171.93631
  20
159.55002
  0
VERTEX
  5
237
  8
Layer_8
  10
169.43631
  20
159.55496
  0
SEQEND
  0
POLYLINE
  5
239
  8
Layer_8
  62
254
  66
1
  10
0
  20
0
  30
0
  0
VERTEX
  5
239
  8
Layer_8
  10
231.93619
  20
159.43204
  0
VERTEX
  5
23a
  8
Layer_8
  10
226.93622
  20
159.44189
  0
SEQEND
  0
POLYLINE
  5
23c
  8
Layer_8
  62
254
  66
1
  10
0
  20
0
  30
0
  0
VERTEX
  5
23c
  8
Layer_8
  10
251.93616
  20
159.39273
  0
VERTEX
  5
23d
  8
Layer_8
  10
246.93619
  20
159.40256
  0
SEQEND
  0
POLYLINE
  5
23f
  8
Layer_8
  62
254
  66
1
  10
0
  20
0
  30
0
  0
VERTEX
  5
23f
  8
Layer_8
  10
120.04824
  20
169.10471
  0
VERTEX
  5
240
  8
Layer_8
  10
125.04819
  20
169.13071
  0
SEQEND
  0
POLYLINE
  5
242
  8
Layer_8
  62
254
  66
1
  10
0
  20
0
  30
0
  0
VERTEX
  5
242
  8
Layer_8
  10
247.27344
  20
102.47263
  0
VERTEX
  5
243
  8
Layer_8
  10
242.27356
  20
102.43916
  0
SEQEND
  0
POLYLINE
  5
245
  8
Layer_8
  62
254
  66
1
  10
0
  20
0
  30
0
  0
VERTEX
  5
245
  8
Layer_8
  10
71.359024
  20
110.70624
  0
VERTEX
  5
246
  8
Layer_8
  10
75.394119
  20
110.73315
  0
SEQEND
  0
POLYLINE
  5
248
  8
Layer_8
  62
254
  66
1
  10
0
  20
0
  30
0
  0
VERTEX
  5
248
  8
Layer_8
  10
212.0282
  20
120.40088
  0
VERTEX
  5
249
  8
Layer_8
  10
207.02829
  20
120.36752
  0
SEQEND
  0
POLYLINE
  5
24b
  8
Layer_8
  62
254
  66
1
  10
0
  20
0
  30
0
  0
VERTEX
  5
24b
  8
Layer_8
  10
89.683044
  20
149.98141
  0
VERTEX
  5
24c
  8
Layer_8
  10
84.683121
  20
149.95535
  0
SEQEND
  0
POLYLINE
  5
24e
  8
Layer_8
  62
254
  66
1
  10
0
  20
0
  30
0
  0
VERTEX
  5
24e
  8
Layer_8
  10
271.78696
  20
161.18192
  0
VERTEX
  5
24f
  8
Layer_8
  10
266.7872
  20
161.13431
  0
SEQEND
  0
POLYLINE
  5
251
  8
Layer_8
  62
254
  66
1
  10
0
  20
0
  30
0
  0
VERTEX
  5
251
  8
Layer_8
  10
145.162
  20
104.78947
  0
VERTEX
  5
252
  8
Layer_8
  10
145.12027
  20
111.04483
  0
SEQEND
  0
POLYLINE
  5
254
  8
Layer_8
  62
254
  66
1
  10
0
  20
0
  30
0
  0
VERTEX
  5
254
  8
Layer_8
  10
58.055893
  20
149.40051
  0
VERTEX
  5
255
  8
Layer_8
  10
54.055992
  20
149.37265
  0
SEQEND
  0
POLYLINE
  5
257
  8
Layer_8
  62
254
  66
1
  10
0
  20
0
  30
0
  0
VERTEX
  5
257
  8
Layer_8
  10
227.17419
  20
102.30565
  0
VERTEX
  5
258
  8
Layer_8
  10
222.27399
  20
102.30565
  0
SEQEND
  0
POLYLINE
  5
25a
  8
Layer_8
  62
254
  66
1
  10
0
  20
0
  30
0
  0
VERTEX
  5
25a
  8
Layer_8
  10
139.8018
  20
130.12857
  0
VERTEX
  5
25b
  8
Layer_8
  10
134.80191
  20
130.09521
  0
SEQEND
  0
POLYLINE
  5
25d
  8
Layer_8
  62
254
  66
1
  10
0
  20
0
  30
0
  0
VERTEX
  5
25d
  8
Layer_8
  10
186.93628
  20
159.52054
  0
VERTEX
  5
25e
  8
Layer_8
  10
191.93628
  20
159.51071
  0
SEQEND
  0
POLYLINE
  5
260
  8
Layer_8
  62
254
  66
1
  10
0
  20
0
  30
0
  0
VERTEX
  5
260
  8
Layer_8
  10
257.23907
  20
123.52496
  0
VERTEX
  5
261
  8
Layer_8
  10
257.20572
  20
128.52484
  0
SEQEND
  0
POLYLINE
  5
263
  8
Layer_8
  62
254
  66
1
  10
0
  20
0
  30
0
  0
VERTEX
  5
263
  8
Layer_8
  10
129.6825
  20
150.18958
  0
VERTEX
  5
264
  8
Layer_8
  10
124.68256
  20
150.16354
  0
SEQEND
  0
POLYLINE
  5
266
  8
Layer_8
  62
254
  66
1
  10
0
  20
0
  30
0
  0
VERTEX
  5
266
  8
Layer_8
  10
116.24662
  20
90.854156
  0
VERTEX
  5
267
  8
Layer_8
  10
111.24673
  20
90.820786
  0
SEQEND
  0
POLYLINE
  5
269
  8
Layer_8
  62
254
  66
1
  10
0
  20
0
  30
0
  0
VERTEX
  5
269
  8
Layer_8
  10
71.414787
  20
188.51993
  0
VERTEX
  5
26a
  8
Layer_8
  10
71.416191
  20
188.51993
  0
SEQEND
  0
POLYLINE
  5
26c
  8
Layer_8
  62
254
  66
1
  10
0
  20
0
  30
0
  0
VERTEX
  5
26c
  8
Layer_8
  10
174.09827
  20
177.44675
  0
VERTEX
  5
26d
  8
Layer_8
  10
170.09875
  20
177.38477
  0
SEQEND
  0
POLYLINE
  5
26f
  8
Layer_8
  62
254
  66
1
  10
0
  20
0
  30
0
  0
VERTEX
  5
26f
  8
Layer_8
  10
127.54813
  20
169.14377
  0
VERTEX
  5
270
  8
Layer_8
  10
132.54807
  20
169.16977
  0
SEQEND
  0
POLYLINE
  5
272
  8
Layer_8
  62
254
  66
1
  10
0
  20
0
  30
0
  0
VERTEX
  5
272
  8
Layer_8
  10
189.45007
  20
177.75665
  0
VERTEX
  5
273
  8
Layer_8
  10
194.45001
  20
177.78018
  0
SEQEND
  0
POLYLINE
  5
275
  8
Layer_8
  62
254
  66
1
  10
0
  20
0
  30
0
  0
VERTEX
  5
275
  8
Layer_8
  10
144.74124
  20
175.64255
  0
VERTEX
  5
276
  8
Layer_8
  10
144.7738
  20
169.38708
  0
SEQEND
  0
POLYLINE
  5
278
  8
Layer_8
  62
254
  70
1
  66
1
  10
0
  20
0
  30
0
  0
VERTEX
  5
278
  8
Layer_8
  10
108.39492
  20
182.32367
  42
0.41421173
  0
VERTEX
  5
279
  8
Layer_8
  10
104.02439
  20
177.89444
  42
0.41421448
  0
VERTEX
  5
27a
  8
Layer_8
  10
108.45364
  20
173.5239
  42
0.41420896
  0
VERTEX
  5
27b
  8
Layer_8
  10
112.82418
  20
177.95316
  42
0.41420989
  0
SEQEND
  0
POLYLINE
  5
27d
  8
Layer_8
  62
254
  66
1
  10
0
  20
0
  30
0
  0
VERTEX
  5
27d
  8
Layer_8
  10
160.85422
  20
110.88788
  0
VERTEX
  5
27e
  8
Layer_8
  10
165.33908
  20
110.86609
  0
SEQEND
  0
POLYLINE
  5
280
  8
Layer_8
  62
254
  66
1
  10
0
  20
0
  30
0
  0
VERTEX
  5
280
  8
Layer_8
  10
256.30844
  20
102.53293
  0
VERTEX
  5
281
  8
Layer_8
  10
252.27332
  20
102.50601
  0
SEQEND
  0
POLYLINE
  5
283
  8
Layer_8
  62
254
  66
1
  10
0
  20
0
  30
0
  0
VERTEX
  5
283
  8
Layer_8
  10
234.25546
  20
221.23752
  0
VERTEX
  5
284
  8
Layer_8
  10
234.2538
  20
221.4875
  0
SEQEND
  0
POLYLINE
  5
286
  8
Layer_8
  62
254
  66
1
  10
0
  20
0
  30
0
  0
VERTEX
  5
286
  8
Layer_8
  10
234.21574
  20
227.18738
  0
VERTEX
  5
287
  8
Layer_8
  10
234.21875
  20
226.7374
  0
SEQEND
  0
ENDSEC
  0
EOF
