0
SECTION
2
HEADER
9
$INSUNITS
70
4
9
$ACADVER
1
AC1014
9
$HANDSEED
5
FFFF
0
ENDSEC
0
SECTION
2
TABLES
0
TABLE
2
VPORT
5
8
100
AcDbSymbolTable
0
ENDTAB
0
TABLE
2
LTYPE
5
5
100
AcDbSymbolTable
0
LTYPE
5
14
100
AcDbSymbolTableRecord
100
AcDbLinetypeTableRecord
2
BYBLOCK
70
0
0
LTYPE
5
15
100
AcDbSymbolTableRecord
100
AcDbLinetypeTableRecord
2
BYLAYER
70
0
0
LTYPE
5
16
100
AcDbSymbolTableRecord
100
AcDbLinetypeTableRecord
2
DASHED
70
0
3
Dashed __ __ __ __ __ __ __ __ __ __ __ __ __ _
72
65
73
2
40
0.75
49
0.5
74
0
49
-0.25
74
0
0
ENDTAB
0
TABLE
2
LAYER
5
2
100
AcDbSymbolTable
70
2
0
LAYER
5
50
100
AcDbSymbolTableRecord
100
AcDbLayerTableRecord
2
0
70
0
62
7
6
CONTINUOUS
0
ENDTAB
0
TABLE
2
STYLE
5
3
100
AcDbSymbolTable
70
1
0
STYLE
5
11
100
AcDbSymbolTableRecord
100
AcDbTextStyleTableRecord
2
STANDARD
70
0
0
ENDTAB
0
TABLE
2
VIEW
5
6
100
AcDbSymbolTable
70
0
0
ENDTAB
0
TABLE
2
UCS
5
7
100
AcDbSymbolTable
70
0
0
ENDTAB
0
TABLE
2
APPID
5
9
100
AcDbSymbolTable
70
2
0
APPID
5
12
100
AcDbSymbolTableRecord
100
AcDbRegAppTableRecord
2
ACAD
70
0
0
ENDTAB
0
TABLE
2
DIMSTYLE
5
A
100
AcDbSymbolTable
70
1
0
ENDTAB
0
TABLE
2
BLOCK_RECORD
5
1
100
AcDbSymbolTable
70
1
0
BLOCK_RECORD
5
1F
100
AcDbSymbolTableRecord
100
AcDbBlockTableRecord
2
*MODEL_SPACE
0
BLOCK_RECORD
5
1B
100
AcDbSymbolTableRecord
100
AcDbBlockTableRecord
2
*PAPER_SPACE
0
ENDTAB
0
ENDSEC
0
SECTION
2
BLOCKS
0
BLOCK
5
20
100
AcDbEntity
100
AcDbBlockBegin
2
*MODEL_SPACE
0
ENDBLK
5
21
100
AcDbEntity
100
AcDbBlockEnd
0
BLOCK
5
1C
100
AcDbEntity
100
AcDbBlockBegin
2
*PAPER_SPACE
0
ENDBLK
5
1D
100
AcDbEntity
100
AcDbBlockEnd
0
ENDSEC
0
SECTION
2
ENTITIES
0
POINT
5
100
100
AcDbEntity
8
0
100
AcDbPoint
10
138.99720738929435
20
-100.60316442814334
30
0
0
POINT
5
101
100
AcDbEntity
8
0
100
AcDbPoint
10
-8.2462637570308743
20
-0.055000002612359822
30
0
0
LWPOLYLINE
5
102
100
AcDbEntity
8
0
100
AcDbPolyline
90
100
70
1
43
0.0
10
-4.7982859787300924
20
-35.268758749911754
10
16.687356210691
20
-23.863372464024462
10
34.316217741837463
20
-23.863372464024462
10
34.316217741837463
20
-43.091402436440688
10
22.854457701803899
20
-43.091402436440688
10
22.854457701803899
20
-67.806500653791517
10
17.921306830909266
20
-71.201883731835181
10
17.921306830909266
20
-90.496693586830915
10
68.117474510702493
20
-90.496693586830915
10
68.117474510702493
20
-89.194391754888557
10
19.772854016313364
20
-89.427691050056453
10
19.772854016313364
20
-78.77090483741101
10
35.549265963283894
20
-57.348165111616972
10
51.880361208673385
20
-57.348165111616972
10
61.512729834715508
20
-78.761339252978374
10
69.923619489443638
20
-72.202706955243187
10
66.387062537438851
20
-48.125558165147226
10
63.863707408108034
20
-20.996479887822581
10
118.83112160745779
20
-11.404637837850034
10
120.24001333214218
20
-20.996479887822581
10
114.85663586134393
20
-43.665595370267809
10
119.05505417152196
20
-67.806500653791517
10
127.83506597813482
20
-54.473718144089531
10
151.59279607540174
20
-54.473718144089531
10
160.83014007636854
20
-67.903579993442449
10
172.34949109636528
20
-67.903579993442449
10
180.99437790622108
20
-54.473718144089531
10
205.12262953017174
20
-54.473718144089531
10
214.16889017084242
20
-67.913111950429453
10
214.16889017084242
20
-79.352151006781114
10
191.83753591903636
20
-89.336377637825692
10
226.64863920702862
20
-89.336377637825692
10
225.92013750956886
20
-81.156317478022103
10
221.19440566260639
20
-78.114334070524038
10
221.19440566260639
20
-67.592760575738708
10
215.24692579388216
20
-67.592760575738708
10
215.24692579388216
20
-53.740622165861083
10
240.69027867567544
20
-57.699957176337492
10
242.9631821939752
20
-88.487425135046038
10
249.40119836562801
20
-57.970164688922459
10
258.65246298494162
20
-57.970164688922459
10
265.46088953376653
20
-92.247031834744917
10
282.79336826846537
20
-92.247031834744917
10
282.79336826846537
20
-99.444450928841661
10
282.79133091035254
20
-106.64186973458307
10
265.45885287005717
20
-106.63696346669688
10
258.64072391413316
20
-140.91190199244042
10
249.38945966545958
20
-140.90928325664373
10
242.96008220773643
20
-110.39020163761194
10
240.6784638374329
20
-141.17702497689623
10
215.23399121445556
20
-145.12915763296925
10
215.23791230980933
20
-131.27701977805972
10
221.18539194025541
20
-131.27870331853478
10
221.1883702596833
20
-120.75713024528272
10
225.91496300508783
20
-117.71648466251932
10
226.64578018559013
20
-109.53663104586512
10
191.8346782922597
20
-109.5267771409068
10
214.16320543559465
20
-119.51732466089148
10
214.15996741114185
20
-130.95636325895276
10
205.10990287228111
20
-144.39319582110417
10
180.98165221499784
20
-144.3863658882421
10
172.34056731391419
20
-130.95405748721925
10
160.82121675542541
20
-130.95079672902969
10
151.58007156211494
20
-144.37804324501565
10
127.82234241667084
20
-144.37131819489397
10
119.0461050442017
20
-131.03605088008723
10
114.84085338752126
20
-155.1757667590964
10
120.21781374434309
20
-177.84640519454206
10
118.80620693377857
20
-187.43784804824625
10
63.841510078952922
20
-177.83044687354661
10
66.372544477668384
20
-150.70208396388233
10
69.915916755277181
20
-126.62593722405978
10
61.506883975613668
20
-120.06492433644462
10
51.868454353825435
20
-141.47537100581758
10
35.537359762720186
20
-141.47074819742562
10
19.767012537175489
20
-120.0435435345355
10
19.770029130979818
20
-109.38675774884041
10
68.114581648968795
20
-109.63374184354721
10
68.114950288778175
20
-108.33144006377985
10
17.918784620029665
20
-108.31723114137093
10
17.913322879247495
20
-127.61204022334505
10
22.845512428636532
20
-131.00881958188035
10
22.838516378357575
20
-155.7239168090527
10
34.300275959190444
20
-155.72716126508595
10
34.294833121647642
20
-174.955190467156
10
16.665972296778762
20
-174.95020030282208
10
-4.8164405334130755
20
-163.53873257884612
10
-4.8062793946891524
20
-127.64225935647201
10
2.4678645499803409
20
-127.64431843300753
10
2.4700421230252623
20
-119.95155932187498
10
-1.5484343048942328
20
-119.95042182025493
10
-1.5451450657920418
20
-108.33045612932978
10
2.5464096350880898
20
-108.33161431706186
10
2.5489365332569847
20
-99.404786830466364
10
2.5489365332569847
20
-90.477958986229083
10
-1.5426183315460129
20
-90.477958986229083
10
-1.5426183315460129
20
-78.85799282976491
10
2.4758582573685572
20
-78.85799282976491
10
2.4758582573685572
20
-71.165233410431881
10
-4.7982859787300924
20
-71.165233410431881
0
LINE
5
103
100
AcDbEntity
8
0
100
AcDbLine
10
119.05505417152196
20
-67.806500653791517
30
0
11
126.41974088984051
21
-89.425929937170636
31
0
0
CIRCLE
5
104
100
AcDbEntity
8
0
100
AcDbCircle
10
169.98340220412217
20
-75.760449350799519
30
0
40
2.8500000000000005
210
0
220
0
230
1
0
LINE
5
105
100
AcDbEntity
8
0
100
AcDbLine
10
5.6246720603835598
20
-71.165233410431881
30
0
11
8.7734858633985624
21
-71.165233410431881
31
0
0
LINE
5
106
100
AcDbEntity
8
0
100
AcDbLine
10
11.922299666413565
20
-71.165233410431881
30
0
11
15.071113469428568
21
-71.165233410431881
31
0
0
LINE
5
107
100
AcDbEntity
8
0
100
AcDbLine
10
5.6221736273251999
20
-78.85799282976491
30
0
11
8.7709874303402025
21
-78.85799282976491
31
0
0
LINE
5
108
100
AcDbEntity
8
0
100
AcDbLine
10
11.919801233355205
20
-78.85799282976491
30
0
11
15.068615036370208
21
-78.85799282976491
31
0
0
LINE
5
109
100
AcDbEntity
8
0
100
AcDbLine
10
2.4758582573685572
20
-80.454784771799481
30
0
11
2.4758582573685572
21
-83.298806825351321
31
0
0
LINE
5
110
100
AcDbEntity
8
0
100
AcDbLine
10
2.5489365332569847
20
-88.313266761876918
30
0
11
2.5489365332569847
21
-84.945345908986582
31
0
0
LINE
5
111
100
AcDbEntity
8
0
100
AcDbLine
10
22.637418443887736
20
-78.77090483741101
30
0
11
26.18324929987077
21
-78.77090483741101
31
0
0
LINE
5
112
100
AcDbEntity
8
0
100
AcDbLine
10
29.556112797025325
20
-78.77090483741101
30
0
11
34.037083390416733
21
-78.77090483741101
31
0
0
LINE
5
113
100
AcDbEntity
8
0
100
AcDbLine
10
37.599094982547726
20
-78.77090483741101
30
0
11
42.433920010772816
21
-78.77090483741101
31
0
0
LINE
5
114
100
AcDbEntity
8
0
100
AcDbLine
10
45.815044526898575
20
-78.77090483741101
30
0
11
49.620326421124226
21
-78.77090483741101
31
0
0
LINE
5
115
100
AcDbEntity
8
0
100
AcDbLine
10
53.166157277107224
20
-78.77090483741101
30
0
11
58.52814540078883
21
-78.77090483741101
31
0
0
LINE
5
116
100
AcDbEntity
8
0
100
AcDbLine
10
52.522793260314778
20
-91.464040644356842
30
0
11
52.522793260314778
21
-93.325006214001306
31
0
0
LINE
5
117
100
AcDbEntity
8
0
100
AcDbLine
10
52.522793260314778
20
-94.521341223058485
30
0
11
52.522793260314778
21
-96.145824247493294
31
0
0
LINE
5
118
100
AcDbEntity
8
0
100
AcDbLine
10
52.522793260314778
20
-97.213094993437096
30
0
11
52.522793260314778
21
-98.874671394905377
31
0
0
LINE
5
119
100
AcDbEntity
8
0
100
AcDbLine
10
68.203885999329486
20
-97.213094993437096
30
0
11
68.203885999329486
21
-98.874671394905377
31
0
0
LINE
5
120
100
AcDbEntity
8
0
100
AcDbLine
10
68.203885999329486
20
-94.521341223058485
30
0
11
68.203885999329486
21
-96.145824247493294
31
0
0
LINE
5
121
100
AcDbEntity
8
0
100
AcDbLine
10
68.203885999329486
20
-91.464040644356842
30
0
11
68.203885999329486
21
-93.325006214001306
31
0
0
LINE
5
122
100
AcDbEntity
8
0
100
AcDbLine
10
68.092680994844542
20
-48.026647784905087
30
0
11
72.014013984291452
21
-47.656128132358894
31
0
0
LINE
5
123
100
AcDbEntity
8
0
100
AcDbLine
10
74.237131899568453
20
-47.409115030661468
30
0
11
79.662136913744519
21
-46.921745706374701
31
0
0
LINE
5
124
100
AcDbEntity
8
0
100
AcDbLine
10
81.841462595488181
20
-46.687764021818545
30
0
11
87.206890329544947
21
-46.212116381491654
31
0
0
LINE
5
125
100
AcDbEntity
8
0
100
AcDbLine
10
89.099216725549795
20
-45.997146804663586
30
0
11
94.131545931838446
21
-45.514669054641942
31
0
0
LINE
5
126
100
AcDbEntity
8
0
100
AcDbLine
10
95.543114172353029
20
-45.376469902398846
30
0
11
98.856913505034868
21
-45.050522427053068
31
0
0
LINE
5
127
100
AcDbEntity
8
0
100
AcDbLine
10
101.30151957012806
20
-44.833224110155896
30
0
11
106.2641252522761
21
-44.349540196954358
31
0
0
LINE
5
128
100
AcDbEntity
8
0
100
AcDbLine
10
108.13832323551424
20
-44.15940416966933
30
0
11
112.94812695471926
21
-43.73528094104681
31
0
0
LINE
5
129
100
AcDbEntity
8
0
100
AcDbLine
10
71.942188332093835
20
-72.034483906029863
30
0
11
75.863521321540745
21
-71.663964253483684
31
0
0
LINE
5
130
100
AcDbEntity
8
0
100
AcDbLine
10
78.053371811320204
20
-71.483486002781376
30
0
11
83.478376825496269
21
-70.996116678494602
31
0
0
LINE
5
131
100
AcDbEntity
8
0
100
AcDbLine
10
85.657702507239932
20
-70.828669844933572
30
0
11
91.023130241296698
21
-70.353022204606674
31
0
0
LINE
5
132
100
AcDbEntity
8
0
100
AcDbLine
10
92.915456637301531
20
-70.13805262777862
30
0
11
97.976802922928528
21
-69.694768293802667
31
0
0
LINE
5
133
100
AcDbEntity
8
0
100
AcDbLine
10
99.35935408410478
20
-69.517375725513858
30
0
11
102.74921145120069
21
-69.360622684507291
31
0
0
LINE
5
134
100
AcDbEntity
8
0
100
AcDbLine
10
105.11775948187977
20
-69.067619457007254
30
0
11
110.08036516402782
21
-68.583935543805723
31
0
0
LINE
5
135
100
AcDbEntity
8
0
100
AcDbLine
10
111.95456314726593
20
-68.487289040257025
30
0
11
116.76436686647095
21
-68.063165811634491
31
0
0
LINE
5
136
100
AcDbEntity
8
0
100
AcDbLine
10
121.28385489150425
20
-67.999789342658929
30
0
11
125.64914124042824
21
-67.999789342658929
31
0
0
LINE
5
137
100
AcDbEntity
8
0
100
AcDbLine
10
128.14359058267053
20
-67.999789342658943
30
0
11
132.8132977406116
21
-67.999789342658943
31
0
0
LINE
5
138
100
AcDbEntity
8
0
100
AcDbLine
10
136.59070312799102
20
-67.943097312153427
30
0
11
141.15344233046216
21
-67.943097312153427
31
0
0
LINE
5
139
100
AcDbEntity
8
0
100
AcDbLine
10
143.66051469978606
20
-67.98350625500531
30
0
11
148.64941338427062
21
-67.98350625500531
31
0
0
LINE
5
140
100
AcDbEntity
8
0
100
AcDbLine
10
151.71078303156798
20
-67.98350625500531
30
0
11
156.84081896312426
21
-67.98350625500531
31
0
0
LINE
5
141
100
AcDbEntity
8
0
100
AcDbLine
10
204.19101308181808
20
-67.98350625500531
30
0
11
209.32104901337428
21
-67.98350625500531
31
0
0
LINE
5
142
100
AcDbEntity
8
0
100
AcDbLine
10
180.62382063292057
20
-67.999789342658943
30
0
11
185.29352779086162
21
-67.999789342658943
31
0
0
LINE
5
143
100
AcDbEntity
8
0
100
AcDbLine
10
173.76408494175428
20
-67.999789342658929
30
0
11
178.12937129067825
21
-67.999789342658929
31
0
0
LINE
5
144
100
AcDbEntity
8
0
100
AcDbLine
10
196.14074475003608
20
-67.98350625500531
30
0
11
201.12964343452063
21
-67.98350625500531
31
0
0
LINE
5
145
100
AcDbEntity
8
0
100
AcDbLine
10
189.07093317824098
20
-67.943097312153427
30
0
11
193.6336723807122
21
-67.943097312153427
31
0
0
LINE
5
146
100
AcDbEntity
8
0
100
AcDbLine
10
158.00841063759799
20
-89.395440115507313
30
0
11
163.13844656915427
21
-89.395440115507313
31
0
0
LINE
5
147
100
AcDbEntity
8
0
100
AcDbLine
10
134.44121818870053
20
-89.411723203160932
30
0
11
139.11092534664158
21
-89.411723203160932
31
0
0
LINE
5
148
100
AcDbEntity
8
0
100
AcDbLine
10
127.58148249753425
20
-89.411723203160932
30
0
11
131.94676884645821
21
-89.411723203160932
31
0
0
LINE
5
149
100
AcDbEntity
8
0
100
AcDbLine
10
149.9581423058161
20
-89.395440115507313
30
0
11
154.94704099030062
21
-89.395440115507313
31
0
0
LINE
5
150
100
AcDbEntity
8
0
100
AcDbLine
10
142.888330734021
20
-89.35503117265543
30
0
11
147.45106993649216
21
-89.35503117265543
31
0
0
LINE
5
151
100
AcDbEntity
8
0
100
AcDbLine
10
182.77330557221097
20
-89.35503117265543
30
0
11
187.33604477468216
21
-89.35503117265543
31
0
0
LINE
5
152
100
AcDbEntity
8
0
100
AcDbLine
10
174.32619302689056
20
-89.411723203160932
30
0
11
178.99590018483161
21
-89.411723203160932
31
0
0
LINE
5
153
100
AcDbEntity
8
0
100
AcDbLine
10
167.46645733572427
20
-89.411723203160932
30
0
11
171.83174368464825
21
-89.411723203160932
31
0
0
LINE
5
154
100
AcDbEntity
8
0
100
AcDbLine
10
242.90839432177398
20
-89.848196782226196
30
0
11
242.90839432177398
21
-93.557031798273087
31
0
0
LINE
5
155
100
AcDbEntity
8
0
100
AcDbLine
10
242.90839432177398
20
-95.096219669948766
30
0
11
242.90839432177398
21
-98.637684134989883
31
0
0
LINE
5
156
100
AcDbEntity
8
0
100
AcDbLine
10
265.53827758722315
20
-93.018303903984133
30
0
11
265.53827758722315
21
-95.096219669948766
31
0
0
LINE
5
157
100
AcDbEntity
8
0
100
AcDbLine
10
265.483489454265
20
-96.469956280348867
30
0
11
265.48314050715931
21
-98.93542221407877
31
0
0
LINE
5
158
100
AcDbEntity
8
0
100
AcDbLine
10
242.90567952846573
20
-109.02941453626286
30
0
11
242.90672938050437
21
-105.32057966880571
31
0
0
LINE
5
159
100
AcDbEntity
8
0
100
AcDbLine
10
101.28606815755731
20
-154.00430104805346
30
0
11
106.24853672550856
21
-154.489389696111
31
0
0
LINE
5
160
100
AcDbEntity
8
0
100
AcDbLine
10
149.95530307557328
20
-109.45585995472625
30
0
11
154.9442015601841
21
-109.45727215166458
31
0
0
LINE
5
161
100
AcDbEntity
8
0
100
AcDbLine
10
22.631576849984789
20
-120.04435440069456
30
0
11
26.177407563908641
21
-120.04535811149232
31
0
0
LINE
5
162
100
AcDbEntity
8
0
100
AcDbLine
10
68.203262971402324
20
-101.61506338657396
30
0
11
68.203733310299839
21
-99.9534870516746
31
0
0
LINE
5
163
100
AcDbEntity
8
0
100
AcDbLine
10
174.32335742959222
20
-109.4464746800074
30
0
11
178.99306440044742
21
-109.44779652407931
31
0
0
LINE
5
164
100
AcDbEntity
8
0
100
AcDbLine
10
127.5786487730025
20
-109.43324275423221
30
0
11
131.94393494703692
21
-109.43447842655328
31
0
0
LINE
5
165
100
AcDbEntity
8
0
100
AcDbLine
10
95.527816765916199
20
-153.4594252580082
30
0
11
98.841523700576488
21
-153.78631075042333
31
0
0
LINE
5
166
100
AcDbEntity
8
0
100
AcDbLine
10
74.222410723261007
20
-151.42074917210053
30
0
11
79.647277561493325
21
-151.90965412149092
31
0
0
LINE
5
167
100
AcDbEntity
8
0
100
AcDbLine
10
173.75518833640515
20
-130.85824856792794
30
0
11
178.12047451043964
21
-130.859484240249
31
0
0
LINE
5
168
100
AcDbEntity
8
0
100
AcDbLine
10
68.201635598817006
20
-107.36411750532574
30
0
11
68.202162378382212
21
-105.50315201023844
31
0
0
LINE
5
169
100
AcDbEntity
8
0
100
AcDbLine
10
136.58179196425306
20
-130.90441800604654
30
0
11
141.14453098392397
21
-130.90570957092683
31
0
0
LINE
5
170
100
AcDbEntity
8
0
100
AcDbLine
10
68.20250102238839
20
-104.30681704911095
30
0
11
68.202960861342532
21
-102.68233408975894
31
0
0
LINE
5
171
100
AcDbEntity
8
0
100
AcDbLine
10
121.27496038870794
20
-130.84339310084243
30
0
11
125.64024656274236
21
-130.84462877316349
31
0
0
LINE
5
172
100
AcDbEntity
8
0
100
AcDbLine
10
108.12268081225852
20
-154.68005624101474
30
0
11
112.93236428310486
21
-155.10554095355283
31
0
0
LINE
5
173
100
AcDbEntity
8
0
100
AcDbLine
10
204.1821106482343
20
-130.8831445407543
30
0
11
209.31214637426228
21
-130.88459668911295
31
0
0
LINE
5
174
100
AcDbEntity
8
0
100
AcDbLine
10
71.934437898515355
20
-126.79473165852188
30
0
11
75.85566584864921
21
-127.16636129961159
31
0
0
LINE
5
175
100
AcDbEntity
8
0
100
AcDbLine
10
45.809202004413898
20
-120.05091524200694
30
0
11
49.614483746185826
21
-120.05199239505821
31
0
0
LINE
5
176
100
AcDbEntity
8
0
100
AcDbLine
10
37.593252789224508
20
-120.04858957064621
30
0
11
42.428077623748514
21
-120.04995815428238
31
0
0
LINE
5
177
100
AcDbEntity
8
0
100
AcDbLine
10
5.61667822684214
20
-127.64520976103263
30
0
11
8.7654919037039392
21
-127.64610108905778
31
0
0
LINE
5
178
100
AcDbEntity
8
0
100
AcDbLine
10
89.084095270969868
20
-152.83692432026712
30
0
11
94.116287701694361
21
-153.32082654168264
31
0
0
LINE
5
179
100
AcDbEntity
8
0
100
AcDbLine
10
182.77045358879747
20
-109.50555781442132
30
0
11
187.33319260846841
21
-109.5068493793016
31
0
0
LINE
5
180
100
AcDbEntity
8
0
100
AcDbLine
10
167.46362201325238
20
-109.44453290921722
30
0
11
171.8289081872868
21
-109.44576858153823
31
0
0
LINE
5
181
100
AcDbEntity
8
0
100
AcDbLine
10
180.61492375274497
20
-130.86019033871818
30
0
11
185.28463072360023
21
-130.86151218279008
31
0
0
LINE
5
182
100
AcDbEntity
8
0
100
AcDbLine
10
265.48264816389008
20
-102.41404558759031
30
0
11
265.48299711099571
21
-99.948579653860492
31
0
0
LINE
5
183
100
AcDbEntity
8
0
100
AcDbLine
10
242.90716507514117
20
-103.7813918587956
30
0
11
242.90816754995393
21
-100.23992753563871
31
0
0
LINE
5
184
100
AcDbEntity
8
0
100
AcDbLine
10
2.5457968802648168
20
-110.49630645468844
30
0
11
2.5448435300731376
21
-113.8642271726473
31
0
0
LINE
5
185
100
AcDbEntity
8
0
100
AcDbLine
10
52.521408911616483
20
-104.30237823554577
30
0
11
52.521868750570647
21
-102.67789527619379
31
0
0
LINE
5
186
100
AcDbEntity
8
0
100
AcDbLine
10
196.13184263897602
20
-130.88086576842198
30
0
11
201.12074112358673
21
-130.88227796536034
31
0
0
LINE
5
187
100
AcDbEntity
8
0
100
AcDbLine
10
52.520543488045099
20
-107.35967869176058
30
0
11
52.521070267610284
21
-105.49871319667329
31
0
0
LINE
5
188
100
AcDbEntity
8
0
100
AcDbLine
10
92.907168544688204
20
-128.69709971924036
30
0
11
97.96838914798542
21
-129.14181673998337
31
0
0
LINE
5
189
100
AcDbEntity
8
0
100
AcDbLine
10
2.4704941235236433
20
-118.3547674438138
30
0
11
2.4712991747966129
21
-115.51074550420404
31
0
0
LINE
5
190
100
AcDbEntity
8
0
100
AcDbLine
10
81.82653692322738
20
-152.14425269375778
30
0
11
87.191829801759468
21
-152.62141909524391
31
0
0
LINE
5
191
100
AcDbEntity
8
0
100
AcDbLine
10
134.43838418934229
20
-109.43518452502241
30
0
11
139.10809116019757
21
-109.43650636909432
31
0
0
LINE
5
192
100
AcDbEntity
8
0
100
AcDbLine
10
85.649610196945702
20
-128.00442809273102
30
0
11
91.01490307547779
21
-128.48159449421715
31
0
0
LINE
5
193
100
AcDbEntity
8
0
100
AcDbLine
10
5.6163573669288347
20
-119.95244994267395
30
0
11
8.7651710437906338
21
-119.9533412706991
31
0
0
LINE
5
194
100
AcDbEntity
8
0
100
AcDbLine
10
265.53645924275736
20
-105.86571333442936
30
0
11
265.53704743395315
21
-103.78779765171373
31
0
0
LINE
5
195
100
AcDbEntity
8
0
100
AcDbLine
10
52.522170860630425
20
-101.61062457300881
30
0
11
52.522641199527911
21
-99.949048238109413
31
0
0
LINE
5
196
100
AcDbEntity
8
0
100
AcDbLine
10
29.550270925933795
20
-120.04631286078778
30
0
11
34.031241339800893
21
-120.04758127960186
31
0
0
LINE
5
197
100
AcDbEntity
8
0
100
AcDbLine
10
68.078134868389753
20
-150.80147714595032
30
0
11
71.999362818523608
21
-151.17310678704001
31
0
0
LINE
5
198
100
AcDbEntity
8
0
100
AcDbLine
10
99.350890039634521
20
-129.31960065698144
30
0
11
102.74070289917032
21
-129.47731325142195
31
0
0
LINE
5
199
100
AcDbEntity
8
0
100
AcDbLine
10
53.160314460109674
20
-120.05299610585598
30
0
11
58.522302368970188
21
-120.05451391242828
31
0
0
LINE
5
200
100
AcDbEntity
8
0
100
AcDbLine
10
119.0461050442017
20
-131.03605088008723
30
0
11
126.41691123332244
21
-109.41870716906601
31
0
0
LINE
5
201
100
AcDbEntity
8
0
100
AcDbLine
10
105.1091678951563
20
-129.77098692703586
30
0
11
110.07163646310751
21
-130.2560755750934
31
0
0
LINE
5
202
100
AcDbEntity
8
0
100
AcDbLine
10
128.13469580504776
20
-130.84533487163264
30
0
11
132.80440277590299
21
-130.84665671570457
31
0
0
LINE
5
203
100
AcDbEntity
8
0
100
AcDbLine
10
143.65161469127878
20
-130.86601030133647
30
0
11
148.64051317588954
21
-130.86742249827481
31
0
0
CIRCLE
5
204
100
AcDbEntity
8
0
100
AcDbCircle
10
169.97670254376146
20
-123.09651868088785
30
0
40
2.8500000000000005
210
0
220
0
230
1
0
LINE
5
205
100
AcDbEntity
8
0
100
AcDbLine
10
158.00557108483159
20
-109.45813872705857
30
0
11
163.13560681085957
21
-109.45959087541723
31
0
0
LINE
5
206
100
AcDbEntity
8
0
100
AcDbLine
10
11.913984720652524
20
-119.95423259872423
30
0
11
15.062798397514356
21
-119.95512392674934
31
0
0
LINE
5
207
100
AcDbEntity
8
0
100
AcDbLine
10
142.88548034854759
20
-109.49426765943633
30
0
11
147.4482193682185
21
-109.49555922431659
31
0
0
LINE
5
208
100
AcDbEntity
8
0
100
AcDbLine
10
189.0620199119503
20
-130.91927347313205
30
0
11
193.62475893162116
21
-130.92056503801234
31
0
0
LINE
5
209
100
AcDbEntity
8
0
100
AcDbLine
10
78.04546516310063
20
-127.34745941940324
30
0
11
83.470332001332949
21
-127.83636436879361
31
0
0
LINE
5
210
100
AcDbEntity
8
0
100
AcDbLine
10
111.94580701373806
20
-130.35325260000641
30
0
11
116.75549048458443
21
-130.77873731254448
31
0
0
LINE
5
211
100
AcDbEntity
8
0
100
AcDbLine
10
11.914305580565793
20
-127.64699241708288
30
0
11
15.063119257427681
21
-127.64788374510802
31
0
0
LINE
5
212
100
AcDbEntity
8
0
100
AcDbLine
10
151.70188270053708
20
-130.86828907366879
30
0
11
156.83191842656504
21
-130.86974122202744
31
0
0
LWPOLYLINE
5
213
100
AcDbEntity
8
0
100
AcDbPolyline
90
4
70
1
43
0.0
10
209.67749527791312
20
-198.41660053267901
10
209.67749527791312
20
-149.11971952178806
10
281.36591231138925
20
-149.11971952178806
10
281.36591231138925
20
-198.41660053267901
0
LINE
5
214
100
AcDbEntity
8
0
100
AcDbLine
10
221.43245103790633
20
-150.78887052346062
30
0
11
221.43245103790633
21
-157.02288974507479
31
0
0
LINE
5
215
100
AcDbEntity
8
0
100
AcDbLine
10
221.49027848539859
20
-161.14419083925512
30
0
11
221.49027848539859
21
-165.36562454261548
31
0
0
LINE
5
216
100
AcDbEntity
8
0
100
AcDbLine
10
221.43245103790633
20
-167.58254413954063
30
0
11
221.43245103790633
21
-173.81656336115483
31
0
0
LINE
5
217
100
AcDbEntity
8
0
100
AcDbLine
10
221.49027848539859
20
-177.93786445533513
30
0
11
221.49027848539859
21
-182.15929815869546
31
0
0
LINE
5
218
100
AcDbEntity
8
0
100
AcDbLine
10
221.43245103790633
20
-185.04932103506752
30
0
11
221.43245103790633
21
-191.28334025668167
31
0
0
LINE
5
219
100
AcDbEntity
8
0
100
AcDbLine
10
221.49027848539859
20
-193.2579674104916
30
0
11
221.49027848539859
21
-197.47940111385196
31
0
0
LINE
5
220
100
AcDbEntity
8
0
100
AcDbLine
10
237.2343475004736
20
-161.14419083925512
30
0
11
237.2343475004736
21
-165.36562454261548
31
0
0
LINE
5
221
100
AcDbEntity
8
0
100
AcDbLine
10
237.2343475004736
20
-177.93786445533513
30
0
11
237.2343475004736
21
-182.15929815869546
31
0
0
LINE
5
222
100
AcDbEntity
8
0
100
AcDbLine
10
237.17652005298137
20
-150.78887052346062
30
0
11
237.17652005298137
21
-157.02288974507479
31
0
0
LINE
5
223
100
AcDbEntity
8
0
100
AcDbLine
10
237.2343475004736
20
-193.2579674104916
30
0
11
237.2343475004736
21
-197.47940111385196
31
0
0
LINE
5
224
100
AcDbEntity
8
0
100
AcDbLine
10
237.17652005298137
20
-167.58254413954063
30
0
11
237.17652005298137
21
-173.81656336115483
31
0
0
LINE
5
225
100
AcDbEntity
8
0
100
AcDbLine
10
237.17652005298137
20
-185.04932103506752
30
0
11
237.17652005298137
21
-191.28334025668167
31
0
0
LINE
5
226
100
AcDbEntity
8
0
100
AcDbLine
10
269.7720901316286
20
-177.93786445533513
30
0
11
269.7720901316286
21
-182.15929815869546
31
0
0
LINE
5
227
100
AcDbEntity
8
0
100
AcDbLine
10
269.7720901316286
20
-193.2579674104916
30
0
11
269.7720901316286
21
-197.47940111385196
31
0
0
LINE
5
228
100
AcDbEntity
8
0
100
AcDbLine
10
253.97019366906136
20
-185.04932103506752
30
0
11
253.97019366906136
21
-191.28334025668167
31
0
0
LINE
5
229
100
AcDbEntity
8
0
100
AcDbLine
10
254.02802111655362
20
-161.14419083925512
30
0
11
254.02802111655362
21
-165.36562454261548
31
0
0
LINE
5
230
100
AcDbEntity
8
0
100
AcDbLine
10
269.7720901316286
20
-161.14419083925512
30
0
11
269.7720901316286
21
-165.36562454261548
31
0
0
LINE
5
231
100
AcDbEntity
8
0
100
AcDbLine
10
269.71426268413632
20
-167.58254413954063
30
0
11
269.71426268413632
21
-173.81656336115483
31
0
0
LINE
5
232
100
AcDbEntity
8
0
100
AcDbLine
10
269.71426268413632
20
-150.78887052346062
30
0
11
269.71426268413632
21
-157.02288974507479
31
0
0
LINE
5
233
100
AcDbEntity
8
0
100
AcDbLine
10
269.71426268413632
20
-185.04932103506752
30
0
11
269.71426268413632
21
-191.28334025668167
31
0
0
LINE
5
234
100
AcDbEntity
8
0
100
AcDbLine
10
253.97019366906136
20
-167.58254413954063
30
0
11
253.97019366906136
21
-173.81656336115483
31
0
0
LINE
5
235
100
AcDbEntity
8
0
100
AcDbLine
10
253.97019366906136
20
-150.78887052346062
30
0
11
253.97019366906136
21
-157.02288974507479
31
0
0
LINE
5
236
100
AcDbEntity
8
0
100
AcDbLine
10
254.02802111655362
20
-193.2579674104916
30
0
11
254.02802111655362
21
-197.47940111385196
31
0
0
LINE
5
237
100
AcDbEntity
8
0
100
AcDbLine
10
254.02802111655362
20
-177.93786445533513
30
0
11
254.02802111655362
21
-182.15929815869546
31
0
0
CIRCLE
5
238
100
AcDbEntity
8
0
100
AcDbCircle
10
42.823700131270293
20
-133.82910728743869
30
0
40
2.8500000000000005
210
0
220
0
230
1
0
CIRCLE
5
239
100
AcDbEntity
8
0
100
AcDbCircle
10
24.592478552995072
20
-167.16636017511291
30
0
40
2.8500000000000005
210
0
220
0
230
1
0
CIRCLE
5
240
100
AcDbEntity
8
0
100
AcDbCircle
10
42.843182514593707
20
-65.003272872564608
30
0
40
2.8500000000000005
210
0
220
0
230
1
0
CIRCLE
5
241
100
AcDbEntity
8
0
100
AcDbCircle
10
24.630837267725028
20
-31.655703981537894
30
0
40
2.8500000000000005
210
0
220
0
230
1
0
LWPOLYLINE
5
242
100
AcDbEntity
8
0
100
AcDbPolyline
90
4
70
1
43
0.0
10
-6.9526261186232929
20
-201.53763411046586
10
-6.9526261186232929
20
4.91419473778965
10
285.0428872191269
20
4.9141947377896678
10
285.0428872191269
20
-201.53763411046589
0
ENDSEC
0
SECTION
2
OBJECTS
0
DICTIONARY
5
C
100
AcDbDictionary
3
ACAD_GROUP
350
D
3
ACAD_MLINESTYLE
350
17
0
DICTIONARY
5
D
100
AcDbDictionary
0
DICTIONARY
5
1A
330
C
100
AcDbDictionary
0
DICTIONARY
5
17
100
AcDbDictionary
0
ENDSEC
0
EOF
