  0
SECTION
  2
HEADER
  9
$ACADVER
  1
AC1009
  0
ENDSEC
  0
SECTION
  2
TABLES
  0
TABLE
  2
LAYER
  70
1
  0
LAYER
  2
Layer_0
  70
0
  62
7
  6
CONTINUOUS
  0
ENDTAB
  0
ENDSEC
  0
SECTION
  2
ENTITIES
  0
POLYLINE
  5
90
  8
Layer_0
  62
7
  66
1
  10
0
  20
0
  30
0
  0
VERTEX
  5
90
  8
Layer_0
  10
-33.315567
  20
195.98483
  0
VERTEX
  5
91
  8
Layer_0
  10
-38.315567
  20
195.9863
  0
SEQEND
  0
POLYLINE
  5
93
  8
Layer_0
  62
7
  66
1
  10
0
  20
0
  30
0
  0
VERTEX
  5
93
  8
Layer_0
  10
72.510056
  20
166.01831
  0
VERTEX
  5
94
  8
Layer_0
  10
68.510056
  20
166.01245
  0
SEQEND
  0
POLYLINE
  5
96
  8
Layer_0
  62
7
  66
1
  10
0
  20
0
  30
0
  0
VERTEX
  5
96
  8
Layer_0
  10
-10.314209
  20
172.13113
  0
VERTEX
  5
97
  8
Layer_0
  10
-10.201248
  20
161.44308
  0
SEQEND
  0
POLYLINE
  5
99
  8
Layer_0
  62
7
  70
1
  66
1
  10
0
  20
0
  30
0
  0
VERTEX
  5
99
  8
Layer_0
  10
171.06851
  20
164.14789
  42
-0.41421356
  0
VERTEX
  5
9a
  8
Layer_0
  10
168.31851
  20
161.39789
  42
-0.41421356
  0
VERTEX
  5
9b
  8
Layer_0
  10
165.56851
  20
164.14789
  42
-0.41421356
  0
VERTEX
  5
9c
  8
Layer_0
  10
168.31851
  20
166.89789
  42
-0.41421356
  0
SEQEND
  0
POLYLINE
  5
9e
  8
Layer_0
  62
7
  66
1
  10
0
  20
0
  30
0
  0
VERTEX
  5
9e
  8
Layer_0
  10
-30.104797
  20
214.88339
  0
VERTEX
  5
9f
  8
Layer_0
  10
-30.437103
  20
254.65665
  0
VERTEX
  5
a0
  8
Layer_0
  10
-30.437042
  20
255.29831
  42
0.20014209
  0
VERTEX
  5
a1
  8
Layer_0
  10
-31.625427
  20
258.13882
  42
0.20014694
  0
VERTEX
  5
a2
  8
Layer_0
  10
-34.479736
  20
259.29343
  0
VERTEX
  5
a3
  8
Layer_0
  10
-45.796875
  20
259.17233
  42
0.19901763
  0
VERTEX
  5
a4
  8
Layer_0
  10
-48.613861
  20
257.96933
  42
0.19903503
  0
VERTEX
  5
a5
  8
Layer_0
  10
-49.753876
  20
255.12631
  0
VERTEX
  5
a6
  8
Layer_0
  10
-49.762238
  20
255.85129
  0
VERTEX
  5
a7
  8
Layer_0
  10
-49.767029
  20
215.61029
  0
VERTEX
  5
a8
  8
Layer_0
  10
-72.516449
  20
215.68771
  0
VERTEX
  5
a9
  8
Layer_0
  10
-73.895935
  20
215.69247
  42
0.40891311
  0
VERTEX
  5
aa
  8
Layer_0
  10
-78.410156
  20
211.2894
  0
VERTEX
  5
ab
  8
Layer_0
  10
-78.531525
  20
205.66232
  0
VERTEX
  5
ac
  8
Layer_0
  10
-78.364868
  20
200.03641
  42
0.40890684
  0
VERTEX
  5
ad
  8
Layer_0
  10
-73.815216
  20
195.66995
  0
VERTEX
  5
ae
  8
Layer_0
  10
-72.435791
  20
195.68573
  0
VERTEX
  5
af
  8
Layer_0
  10
-49.687668
  20
195.94662
  0
VERTEX
  5
b0
  8
Layer_0
  10
-49.358459
  20
155.70703
  0
VERTEX
  5
b1
  8
Layer_0
  10
-49.355881
  20
156.43201
  42
0.19903779
  0
VERTEX
  5
b2
  8
Layer_0
  10
-48.193008
  20
153.5983
  42
0.19900206
  0
VERTEX
  5
b3
  8
Layer_0
  10
-45.366455
  20
152.41806
  0
VERTEX
  5
b4
  8
Layer_0
  10
-34.048721
  20
152.38828
  42
0.20014788
  0
VERTEX
  5
b5
  8
Layer_0
  10
-31.203781
  20
153.56583
  42
0.20014311
  0
VERTEX
  5
b6
  8
Layer_0
  10
-30.038269
  20
156.41571
  0
VERTEX
  5
b7
  8
Layer_0
  10
-30.042267
  20
156.99655
  0
VERTEX
  5
b8
  8
Layer_0
  10
-30.030823
  20
196.59305
  0
SEQEND
  0
POLYLINE
  5
ba
  8
Layer_0
  62
7
  66
1
  10
0
  20
0
  30
0
  0
VERTEX
  5
ba
  8
Layer_0
  10
-11.069229
  20
251.98642
  0
VERTEX
  5
bb
  8
Layer_0
  10
-17.107132
  20
249.98196
  0
VERTEX
  5
bc
  8
Layer_0
  10
-16.93338
  20
240.15665
  0
VERTEX
  5
bd
  8
Layer_0
  10
-10.842499
  20
237.69504
  0
SEQEND
  0
POLYLINE
  5
bf
  8
Layer_0
  62
7
  70
1
  66
1
  10
0
  20
0
  30
0
  0
VERTEX
  5
bf
  8
Layer_0
  10
-39.028748
  20
159.02338
  42
-0.41421356
  0
VERTEX
  5
c0
  8
Layer_0
  10
-41.778748
  20
156.27338
  42
-0.41421356
  0
VERTEX
  5
c1
  8
Layer_0
  10
-44.528748
  20
159.02338
  42
-0.41421356
  0
VERTEX
  5
c2
  8
Layer_0
  10
-41.778748
  20
161.77338
  42
-0.41421356
  0
SEQEND
  0
POLYLINE
  5
c4
  8
Layer_0
  62
7
  66
1
  10
0
  20
0
  30
0
  0
VERTEX
  5
c4
  8
Layer_0
  10
43.542953
  20
170.32477
  0
VERTEX
  5
c5
  8
Layer_0
  10
43.533768
  20
176.58029
  0
SEQEND
  0
POLYLINE
  5
c7
  8
Layer_0
  62
7
  70
1
  66
1
  10
0
  20
0
  30
0
  0
VERTEX
  5
c7
  8
Layer_0
  10
165.04282
  20
248.67166
  42
-0.41421356
  0
VERTEX
  5
c8
  8
Layer_0
  10
167.79282
  20
251.42166
  42
-0.41421356
  0
VERTEX
  5
c9
  8
Layer_0
  10
170.54282
  20
248.67166
  42
-0.41421356
  0
VERTEX
  5
ca
  8
Layer_0
  10
167.79282
  20
245.92166
  42
-0.41421356
  0
SEQEND
  0
POLYLINE
  5
cc
  8
Layer_0
  62
7
  70
1
  66
1
  10
0
  20
0
  30
0
  0
VERTEX
  5
cc
  8
Layer_0
  10
131.21953
  20
121.08215
  42
-0.41421356
  0
VERTEX
  5
cd
  8
Layer_0
  10
133.96953
  20
123.83215
  42
-0.41421356
  0
VERTEX
  5
ce
  8
Layer_0
  10
136.71953
  20
121.08215
  42
-0.41421356
  0
VERTEX
  5
cf
  8
Layer_0
  10
133.96953
  20
118.33215
  42
-0.41421356
  0
SEQEND
  0
POLYLINE
  5
d1
  8
Layer_0
  62
7
  66
1
  10
0
  20
0
  30
0
  0
VERTEX
  5
d1
  8
Layer_0
  10
150.48941
  20
185.64664
  0
VERTEX
  5
d2
  8
Layer_0
  10
145.48941
  20
185.63931
  0
SEQEND
  0
POLYLINE
  5
d4
  8
Layer_0
  62
7
  66
1
  10
0
  20
0
  30
0
  0
VERTEX
  5
d4
  8
Layer_0
  10
-15.161697
  20
248.03891
  42
-0.14453211
  0
VERTEX
  5
d5
  8
Layer_0
  10
-12.911713
  20
247.88193
  0
VERTEX
  5
d6
  8
Layer_0
  10
-12.850235
  20
247.85446
  0
VERTEX
  5
d7
  8
Layer_0
  10
-12.789917
  20
247.82553
  42
-0.22784981
  0
VERTEX
  5
d8
  8
Layer_0
  10
-11.390976
  20
245.91226
  42
-0.19855582
  0
VERTEX
  5
d9
  8
Layer_0
  10
-11.858398
  20
242.70737
  42
-0.2428886
  0
VERTEX
  5
da
  8
Layer_0
  10
-14.09964
  20
241.5047
  42
-0.040082941
  0
VERTEX
  5
db
  8
Layer_0
  10
-14.945328
  20
241.51758
  0
SEQEND
  0
POLYLINE
  5
dd
  8
Layer_0
  62
7
  66
1
  10
0
  20
0
  30
0
  0
VERTEX
  5
dd
  8
Layer_0
  10
155.79482
  20
186.65909
  0
VERTEX
  5
de
  8
Layer_0
  10
155.26543
  20
128.0423
  0
VERTEX
  5
df
  8
Layer_0
  10
143.9826
  20
128.30344
  0
VERTEX
  5
e0
  8
Layer_0
  10
144.01262
  20
123.52991
  42
-0.19911915
  0
VERTEX
  5
e1
  8
Layer_0
  10
141.11499
  20
116.43787
  42
-0.19911911
  0
VERTEX
  5
e2
  8
Layer_0
  10
134.04892
  20
113.47769
  0
VERTEX
  5
e3
  8
Layer_0
  10
134.50687
  20
113.47931
  0
VERTEX
  5
e4
  8
Layer_0
  10
133.18732
  20
113.496
  42
-0.40898907
  0
VERTEX
  5
e5
  8
Layer_0
  10
124.30124
  20
122.44821
  0
VERTEX
  5
e6
  8
Layer_0
  10
124.27159
  20
128.12909
  0
VERTEX
  5
e7
  8
Layer_0
  10
97.308167
  20
127.9881
  0
VERTEX
  5
e8
  8
Layer_0
  10
97.366104
  20
122.83734
  42
-0.41421558
  0
VERTEX
  5
e9
  8
Layer_0
  10
88.466599
  20
113.73221
  0
VERTEX
  5
ea
  8
Layer_0
  10
87.408707
  20
113.70245
  42
-0.20032198
  0
VERTEX
  5
eb
  8
Layer_0
  10
80.937904
  20
116.19214
  42
-0.20032151
  0
VERTEX
  5
ec
  8
Layer_0
  10
78.15712
  20
122.54324
  0
VERTEX
  5
ed
  8
Layer_0
  10
78.057861
  20
128.27972
  0
VERTEX
  5
ee
  8
Layer_0
  10
67.69191
  20
128.16324
  0
VERTEX
  5
ef
  8
Layer_0
  10
67.584259
  20
137.74301
  0
VERTEX
  5
f0
  8
Layer_0
  10
53.688919
  20
137.6803
  0
VERTEX
  5
f1
  8
Layer_0
  10
53.714417
  20
132.04123
  42
-0.40744028
  0
VERTEX
  5
f2
  8
Layer_0
  10
44.963768
  20
123.00406
  0
VERTEX
  5
f3
  8
Layer_0
  10
43.737595
  20
122.97775
  0
VERTEX
  5
f4
  8
Layer_0
  10
42.804733
  20
122.9837
  42
-0.40975177
  0
VERTEX
  5
f5
  8
Layer_0
  10
33.862617
  20
131.90353
  0
VERTEX
  5
f6
  8
Layer_0
  10
33.813477
  20
137.4205
  0
VERTEX
  5
f7
  8
Layer_0
  10
23.746948
  20
137.33102
  42
-0.20023593
  0
VERTEX
  5
f8
  8
Layer_0
  10
20.536957
  20
138.63687
  42
-0.20023392
  0
VERTEX
  5
f9
  8
Layer_0
  10
19.206909
  20
141.83682
  0
VERTEX
  5
fa
  8
Layer_0
  10
19.222626
  20
153.68704
  0
VERTEX
  5
fb
  8
Layer_0
  10
19.247925
  20
153.7623
  42
-0.18184306
  0
VERTEX
  5
fc
  8
Layer_0
  10
21.470779
  20
156.37473
  42
-0.041274416
  0
VERTEX
  5
fd
  8
Layer_0
  10
23.206512
  20
157.26083
  0
SEQEND
  0
POLYLINE
  5
ff
  8
Layer_0
  62
7
  66
1
  10
0
  20
0
  30
0
  0
VERTEX
  5
ff
  8
Layer_0
  10
-30.437103
  20
254.65665
  0
VERTEX
  5
100
  8
Layer_0
  10
-2.9158936
  20
254.75034
  0
VERTEX
  5
101
  8
Layer_0
  10
-3.034668
  20
260.38913
  42
-0.19951002
  0
VERTEX
  5
102
  8
Layer_0
  10
-0.5189209
  20
266.82199
  42
-0.19950056
  0
VERTEX
  5
103
  8
Layer_0
  10
5.8149719
  20
269.57736
  0
VERTEX
  5
104
  8
Layer_0
  10
7.1180725
  20
269.59885
  42
-0.41421451
  0
VERTEX
  5
105
  8
Layer_0
  10
16.265213
  20
260.7485
  0
VERTEX
  5
106
  8
Layer_0
  10
16.361893
  20
254.88412
  0
VERTEX
  5
107
  8
Layer_0
  10
33.132172
  20
254.8804
  0
VERTEX
  5
108
  8
Layer_0
  10
33.066895
  20
260.56601
  42
-0.41300786
  0
VERTEX
  5
109
  8
Layer_0
  10
41.925934
  20
269.66818
  0
VERTEX
  5
10a
  8
Layer_0
  10
43.563126
  20
269.6937
  42
-0.41210908
  0
VERTEX
  5
10b
  8
Layer_0
  10
52.701149
  20
260.89987
  0
VERTEX
  5
10c
  8
Layer_0
  10
52.838242
  20
254.8862
  0
VERTEX
  5
10d
  8
Layer_0
  10
56.390938
  20
254.91568
  0
SEQEND
  0
POLYLINE
  5
10f
  8
Layer_0
  62
7
  66
1
  10
0
  20
0
  30
0
  0
VERTEX
  5
10f
  8
Layer_0
  10
-15.486923
  20
166.75198
  0
VERTEX
  5
110
  8
Layer_0
  10
-4.9871368
  20
166.81949
  0
SEQEND
  0
POLYLINE
  5
112
  8
Layer_0
  62
7
  66
1
  10
0
  20
0
  30
0
  0
VERTEX
  5
112
  8
Layer_0
  10
59.22348
  20
235.18552
  0
VERTEX
  5
113
  8
Layer_0
  10
63.708099
  20
235.23721
  0
SEQEND
  0
POLYLINE
  5
115
  8
Layer_0
  62
7
  66
1
  10
0
  20
0
  30
0
  0
VERTEX
  5
115
  8
Layer_0
  10
131.98773
  20
128.07422
  0
VERTEX
  5
116
  8
Layer_0
  10
126.98773
  20
128.07422
  0
SEQEND
  0
POLYLINE
  5
118
  8
Layer_0
  62
7
  66
1
  10
0
  20
0
  30
0
  0
VERTEX
  5
118
  8
Layer_0
  10
-1.7000732
  20
215.80475
  0
VERTEX
  5
119
  8
Layer_0
  10
-6.7000732
  20
215.80475
  0
SEQEND
  0
POLYLINE
  5
11b
  8
Layer_0
  62
7
  66
1
  10
0
  20
0
  30
0
  0
VERTEX
  5
11b
  8
Layer_0
  10
155.76666
  20
225.00955
  0
VERTEX
  5
11c
  8
Layer_0
  10
155.43758
  20
256.35513
  42
-0.054912781
  0
VERTEX
  5
11d
  8
Layer_0
  10
156.10678
  20
258.1683
  42
-0.26099419
  0
VERTEX
  5
11e
  8
Layer_0
  10
158.56607
  20
259.98544
  0
VERTEX
  5
11f
  8
Layer_0
  10
158.64886
  20
259.99619
  0
VERTEX
  5
120
  8
Layer_0
  10
158.73315
  20
260.00534
  0
VERTEX
  5
121
  8
Layer_0
  10
158.81583
  20
260.0126
  0
VERTEX
  5
122
  8
Layer_0
  10
169.32495
  20
260.21738
  42
-0.20264582
  0
VERTEX
  5
123
  8
Layer_0
  10
173.6499
  20
258.49869
  42
-0.19960753
  0
VERTEX
  5
124
  8
Layer_0
  10
175.33789
  20
254.25937
  0
VERTEX
  5
125
  8
Layer_0
  10
175.75613
  20
157.4382
  42
-0.20105889
  0
VERTEX
  5
126
  8
Layer_0
  10
174.47229
  20
154.46515
  42
-0.2010619
  0
VERTEX
  5
127
  8
Layer_0
  10
171.45242
  20
153.29568
  0
VERTEX
  5
128
  8
Layer_0
  10
160.41849
  20
153.10425
  0
VERTEX
  5
129
  8
Layer_0
  10
160.40826
  20
153.10129
  0
VERTEX
  5
12a
  8
Layer_0
  10
160.35989
  20
153.08917
  0
VERTEX
  5
12b
  8
Layer_0
  10
159.99185
  20
153.0925
  42
-0.41421331
  0
VERTEX
  5
12c
  8
Layer_0
  10
155.53268
  20
157.63297
  0
VERTEX
  5
12d
  8
Layer_0
  10
155.51154
  20
155.29236
  0
SEQEND
  0
POLYLINE
  5
12f
  8
Layer_0
  62
7
  66
1
  10
0
  20
0
  30
0
  0
VERTEX
  5
12f
  8
Layer_0
  10
130.48943
  20
185.61725
  0
VERTEX
  5
130
  8
Layer_0
  10
125.48944
  20
185.60995
  0
SEQEND
  0
POLYLINE
  5
132
  8
Layer_0
  62
7
  70
1
  66
1
  10
0
  20
0
  30
0
  0
VERTEX
  5
132
  8
Layer_0
  10
130.33395
  20
238.04208
  42
-0.41421356
  0
VERTEX
  5
133
  8
Layer_0
  10
133.08395
  20
240.79208
  42
-0.41421356
  0
VERTEX
  5
134
  8
Layer_0
  10
135.83395
  20
238.04208
  42
-0.41421356
  0
VERTEX
  5
135
  8
Layer_0
  10
133.08395
  20
235.29208
  42
-0.41421356
  0
SEQEND
  0
POLYLINE
  5
137
  8
Layer_0
  62
7
  70
1
  66
1
  10
0
  20
0
  30
0
  0
VERTEX
  5
137
  8
Layer_0
  10
2.8420258
  20
167.80121
  42
-0.41421356
  0
VERTEX
  5
138
  8
Layer_0
  10
7.2420197
  20
172.20123
  42
-0.41420621
  0
VERTEX
  5
139
  8
Layer_0
  10
11.642029
  20
167.80121
  42
-0.41420988
  0
VERTEX
  5
13a
  8
Layer_0
  10
7.2420197
  20
163.40125
  42
-0.41421172
  0
SEQEND
  0
POLYLINE
  5
13c
  8
Layer_0
  62
7
  66
1
  10
0
  20
0
  30
0
  0
VERTEX
  5
13c
  8
Layer_0
  10
154.61316
  20
245.17685
  0
VERTEX
  5
13d
  8
Layer_0
  10
150.57794
  20
245.17685
  0
SEQEND
  0
POLYLINE
  5
13f
  8
Layer_0
  62
7
  66
1
  10
0
  20
0
  30
0
  0
VERTEX
  5
13f
  8
Layer_0
  10
125.57794
  20
245.17697
  0
VERTEX
  5
140
  8
Layer_0
  10
120.57794
  20
245.17703
  0
SEQEND
  0
POLYLINE
  5
142
  8
Layer_0
  62
7
  66
1
  10
0
  20
0
  30
0
  0
VERTEX
  5
142
  8
Layer_0
  10
77.664047
  20
166.02588
  0
VERTEX
  5
143
  8
Layer_0
  10
74.664047
  20
166.02148
  0
SEQEND
  0
POLYLINE
  5
145
  8
Layer_0
  62
7
  66
1
  10
0
  20
0
  30
0
  0
VERTEX
  5
145
  8
Layer_0
  10
145.56491
  20
166.12637
  0
VERTEX
  5
146
  8
Layer_0
  10
140.56493
  20
166.11899
  0
SEQEND
  0
POLYLINE
  5
148
  8
Layer_0
  62
7
  70
1
  66
1
  10
0
  20
0
  30
0
  0
VERTEX
  5
148
  8
Layer_0
  10
6.994751
  20
186.57184
  42
-0.41421356
  0
VERTEX
  5
149
  8
Layer_0
  10
9.744751
  20
183.82184
  42
-0.41421356
  0
VERTEX
  5
14a
  8
Layer_0
  10
6.994751
  20
181.07184
  42
-0.41421356
  0
VERTEX
  5
14b
  8
Layer_0
  10
4.244751
  20
183.82184
  42
-0.41421356
  0
SEQEND
  0
POLYLINE
  5
14d
  8
Layer_0
  62
7
  70
1
  66
1
  10
0
  20
0
  30
0
  0
VERTEX
  5
14d
  8
Layer_0
  10
2.7236176
  20
245.72958
  42
-0.41421356
  0
VERTEX
  5
14e
  8
Layer_0
  10
7.1236267
  20
250.12961
  42
-0.41421356
  0
VERTEX
  5
14f
  8
Layer_0
  10
11.523621
  20
245.72958
  42
-0.41420988
  0
VERTEX
  5
150
  8
Layer_0
  10
7.1236267
  20
241.32953
  42
-0.41420988
  0
SEQEND
  0
POLYLINE
  5
152
  8
Layer_0
  62
7
  70
1
  66
1
  10
0
  20
0
  30
0
  0
VERTEX
  5
152
  8
Layer_0
  10
9.7853546
  20
262.64401
  42
-0.41421356
  0
VERTEX
  5
153
  8
Layer_0
  10
7.0353546
  20
259.89401
  42
-0.41421356
  0
VERTEX
  5
154
  8
Layer_0
  10
4.2853546
  20
262.64401
  42
-0.41421356
  0
VERTEX
  5
155
  8
Layer_0
  10
7.0353546
  20
265.39401
  42
-0.41421356
  0
SEQEND
  0
POLYLINE
  5
157
  8
Layer_0
  62
7
  66
1
  10
0
  20
0
  30
0
  0
VERTEX
  5
157
  8
Layer_0
  10
105.62981
  20
245.491
  0
VERTEX
  5
158
  8
Layer_0
  10
100.63057
  20
245.40378
  0
SEQEND
  0
POLYLINE
  5
15a
  8
Layer_0
  62
7
  66
1
  10
0
  20
0
  30
0
  0
VERTEX
  5
15a
  8
Layer_0
  10
-24.185242
  20
195.59961
  0
VERTEX
  5
15b
  8
Layer_0
  10
-20.164413
  20
195.58954
  0
SEQEND
  0
POLYLINE
  5
15d
  8
Layer_0
  62
7
  66
1
  10
0
  20
0
  30
0
  0
VERTEX
  5
15d
  8
Layer_0
  10
8.764267
  20
234.76987
  0
VERTEX
  5
15e
  8
Layer_0
  10
13.764267
  20
234.76987
  0
SEQEND
  0
POLYLINE
  5
160
  8
Layer_0
  62
7
  66
1
  10
0
  20
0
  30
0
  0
VERTEX
  5
160
  8
Layer_0
  10
95.459778
  20
226.01416
  0
VERTEX
  5
161
  8
Layer_0
  10
100.45978
  20
226.01416
  0
SEQEND
  0
POLYLINE
  5
163
  8
Layer_0
  62
7
  66
1
  10
0
  20
0
  30
0
  0
VERTEX
  5
163
  8
Layer_0
  10
130.45978
  20
226.01416
  0
VERTEX
  5
164
  8
Layer_0
  10
125.45979
  20
226.01416
  0
SEQEND
  0
POLYLINE
  5
166
  8
Layer_0
  62
7
  66
1
  10
0
  20
0
  30
0
  0
VERTEX
  5
166
  8
Layer_0
  10
56.868134
  20
215.78705
  0
VERTEX
  5
167
  8
Layer_0
  10
67.626862
  20
226.23706
  0
VERTEX
  5
168
  8
Layer_0
  10
67.446091
  20
254.98923
  0
VERTEX
  5
169
  8
Layer_0
  10
67.083534
  20
255.04843
  0
VERTEX
  5
16a
  8
Layer_0
  10
57.246948
  20
254.8414
  42
-0.2032694
  0
VERTEX
  5
16b
  8
Layer_0
  10
54.346375
  20
256.00015
  42
-0.20330695
  0
VERTEX
  5
16c
  8
Layer_0
  10
53.163162
  20
258.89072
  0
VERTEX
  5
16d
  8
Layer_0
  10
53.302216
  20
269.96866
  42
-0.41342275
  0
VERTEX
  5
16e
  8
Layer_0
  10
57.846336
  20
274.4119
  0
VERTEX
  5
16f
  8
Layer_0
  10
66.989082
  20
274.32169
  0
VERTEX
  5
170
  8
Layer_0
  10
68.288712
  20
274.29056
  0
VERTEX
  5
171
  8
Layer_0
  10
68.406906
  20
279.22934
  0
VERTEX
  5
172
  8
Layer_0
  10
155.19589
  20
279.37149
  0
VERTEX
  5
173
  8
Layer_0
  10
155.43756
  20
256.35513
  0
SEQEND
  0
POLYLINE
  5
175
  8
Layer_0
  62
7
  66
1
  10
0
  20
0
  30
0
  0
VERTEX
  5
175
  8
Layer_0
  10
87.562943
  20
251.43271
  0
VERTEX
  5
176
  8
Layer_0
  10
87.672119
  20
245.17819
  0
SEQEND
  0
POLYLINE
  5
178
  8
Layer_0
  62
7
  66
1
  10
0
  20
0
  30
0
  0
VERTEX
  5
178
  8
Layer_0
  10
160.48941
  20
185.66135
  0
VERTEX
  5
179
  8
Layer_0
  10
157.48941
  20
185.65695
  0
SEQEND
  0
POLYLINE
  5
17b
  8
Layer_0
  62
7
  66
1
  10
0
  20
0
  30
0
  0
VERTEX
  5
17b
  8
Layer_0
  10
-1.235733
  20
234.76993
  0
VERTEX
  5
17c
  8
Layer_0
  10
3.764267
  20
234.76993
  0
SEQEND
  0
POLYLINE
  5
17e
  8
Layer_0
  62
7
  66
1
  10
0
  20
0
  30
0
  0
VERTEX
  5
17e
  8
Layer_0
  10
40.987732
  20
137.57422
  0
VERTEX
  5
17f
  8
Layer_0
  10
35.987732
  20
137.57422
  0
SEQEND
  0
POLYLINE
  5
181
  8
Layer_0
  62
7
  66
1
  10
0
  20
0
  30
0
  0
VERTEX
  5
181
  8
Layer_0
  10
135.56493
  20
166.11163
  0
VERTEX
  5
182
  8
Layer_0
  10
130.56493
  20
166.10428
  0
SEQEND
  0
POLYLINE
  5
184
  8
Layer_0
  62
7
  66
1
  10
0
  20
0
  30
0
  0
VERTEX
  5
184
  8
Layer_0
  10
14.4832
  20
254.92111
  0
VERTEX
  5
185
  8
Layer_0
  10
9.4832001
  20
254.92111
  0
SEQEND
  0
POLYLINE
  5
187
  8
Layer_0
  62
7
  66
1
  10
0
  20
0
  30
0
  0
VERTEX
  5
187
  8
Layer_0
  10
8.2999268
  20
215.80475
  0
VERTEX
  5
188
  8
Layer_0
  10
3.2999268
  20
215.80475
  0
SEQEND
  0
POLYLINE
  5
18a
  8
Layer_0
  62
7
  70
1
  66
1
  10
0
  20
0
  30
0
  0
VERTEX
  5
18a
  8
Layer_0
  10
136.42459
  20
174.79044
  42
-0.41421356
  0
VERTEX
  5
18b
  8
Layer_0
  10
133.67459
  20
172.04044
  42
-0.41421356
  0
VERTEX
  5
18c
  8
Layer_0
  10
130.92459
  20
174.79044
  42
-0.41421356
  0
VERTEX
  5
18d
  8
Layer_0
  10
133.67459
  20
177.54044
  42
-0.41421356
  0
SEQEND
  0
POLYLINE
  5
18f
  8
Layer_0
  62
7
  70
1
  66
1
  10
0
  20
0
  30
0
  0
VERTEX
  5
18f
  8
Layer_0
  10
133.79985
  20
144.99182
  42
-0.41421471
  0
VERTEX
  5
190
  8
Layer_0
  10
129.39984
  20
149.39182
  42
-0.41421172
  0
VERTEX
  5
191
  8
Layer_0
  10
133.79985
  20
153.79178
  42
-0.41421172
  0
VERTEX
  5
192
  8
Layer_0
  10
138.19986
  20
149.39182
  42
-0.19891347
  0
VERTEX
  5
193
  8
Layer_0
  10
136.91113
  20
146.28052
  42
-0.19891946
  0
SEQEND
  0
POLYLINE
  5
195
  8
Layer_0
  62
7
  66
1
  10
0
  20
0
  30
0
  0
VERTEX
  5
195
  8
Layer_0
  10
53.416946
  20
234.97781
  0
VERTEX
  5
196
  8
Layer_0
  10
33.564941
  20
234.86923
  0
SEQEND
  0
POLYLINE
  5
198
  8
Layer_0
  62
7
  66
1
  10
0
  20
0
  30
0
  0
VERTEX
  5
198
  8
Layer_0
  10
155.69052
  20
215.19186
  0
VERTEX
  5
199
  8
Layer_0
  10
155.69052
  20
210.19186
  0
SEQEND
  0
POLYLINE
  5
19b
  8
Layer_0
  62
7
  66
1
  10
0
  20
0
  30
0
  0
VERTEX
  5
19b
  8
Layer_0
  10
-49.845795
  20
211.47113
  0
VERTEX
  5
19c
  8
Layer_0
  10
-49.843079
  20
207.42709
  0
SEQEND
  0
POLYLINE
  5
19e
  8
Layer_0
  62
7
  66
1
  10
0
  20
0
  30
0
  0
VERTEX
  5
19e
  8
Layer_0
  10
170.45969
  20
226.0574
  0
VERTEX
  5
19f
  8
Layer_0
  10
165.45975
  20
226.0358
  0
SEQEND
  0
POLYLINE
  5
1a1
  8
Layer_0
  62
7
  66
1
  10
0
  20
0
  30
0
  0
VERTEX
  5
1a1
  8
Layer_0
  10
105.56496
  20
166.06747
  0
VERTEX
  5
1a2
  8
Layer_0
  10
100.56497
  20
166.06009
  0
SEQEND
  0
POLYLINE
  5
1a4
  8
Layer_0
  62
7
  66
1
  10
0
  20
0
  30
0
  0
VERTEX
  5
1a4
  8
Layer_0
  10
155.69691
  20
201.47665
  0
VERTEX
  5
1a5
  8
Layer_0
  10
155.70425
  20
196.47665
  0
SEQEND
  0
POLYLINE
  5
1a7
  8
Layer_0
  62
7
  66
1
  10
0
  20
0
  30
0
  0
VERTEX
  5
1a7
  8
Layer_0
  10
-30.042267
  20
156.99655
  0
VERTEX
  5
1a8
  8
Layer_0
  10
-2.5225372
  20
157.1857
  0
VERTEX
  5
1a9
  8
Layer_0
  10
16.755798
  20
157.2074
  0
VERTEX
  5
1aa
  8
Layer_0
  10
33.525375
  20
157.34634
  0
VERTEX
  5
1ab
  8
Layer_0
  10
57.367676
  20
157.50348
  0
VERTEX
  5
1ac
  8
Layer_0
  10
67.206421
  20
157.51309
  0
VERTEX
  5
1ad
  8
Layer_0
  10
67.839127
  20
157.51416
  0
VERTEX
  5
1ae
  8
Layer_0
  10
67.787979
  20
186.26688
  0
VERTEX
  5
1af
  8
Layer_0
  10
56.945358
  20
196.62979
  0
SEQEND
  0
POLYLINE
  5
1b1
  8
Layer_0
  62
7
  66
1
  10
0
  20
0
  30
0
  0
VERTEX
  5
1b1
  8
Layer_0
  10
-68.920593
  20
200.96249
  0
VERTEX
  5
1b2
  8
Layer_0
  10
-63.169708
  20
200.96161
  42
0.41420709
  0
VERTEX
  5
1b3
  8
Layer_0
  10
-58.168915
  20
205.96085
  0
VERTEX
  5
1b4
  8
Layer_0
  10
-58.170441
  20
205.67273
  42
0.0075089803
  0
VERTEX
  5
1b5
  8
Layer_0
  10
-58.169495
  20
205.81747
  0
VERTEX
  5
1b6
  8
Layer_0
  10
-58.167175
  20
205.52805
  42
0.19891804
  0
VERTEX
  5
1b7
  8
Layer_0
  10
-59.660629
  20
209.05142
  42
0.19891398
  0
VERTEX
  5
1b8
  8
Layer_0
  10
-63.208069
  20
210.48679
  0
VERTEX
  5
1b9
  8
Layer_0
  10
-68.958801
  20
210.43948
  0
SEQEND
  0
POLYLINE
  5
1bb
  8
Layer_0
  62
7
  66
1
  10
0
  20
0
  30
0
  0
VERTEX
  5
1bb
  8
Layer_0
  10
141.98773
  20
128.07422
  0
VERTEX
  5
1bc
  8
Layer_0
  10
136.98773
  20
128.07422
  0
SEQEND
  0
POLYLINE
  5
1be
  8
Layer_0
  62
7
  70
1
  66
1
  10
0
  20
0
  30
0
  0
VERTEX
  5
1be
  8
Layer_0
  10
134.2007
  20
269.1835
  42
-0.41421356
  0
VERTEX
  5
1bf
  8
Layer_0
  10
138.60071
  20
264.78348
  42
-0.41421356
  0
VERTEX
  5
1c0
  8
Layer_0
  10
134.2007
  20
260.38345
  42
-0.41421379
  0
VERTEX
  5
1c1
  8
Layer_0
  10
129.80069
  20
264.78348
  42
-0.41421356
  0
SEQEND
  0
POLYLINE
  5
1c3
  8
Layer_0
  62
7
  66
1
  10
0
  20
0
  30
0
  0
VERTEX
  5
1c3
  8
Layer_0
  10
84.987732
  20
128.07422
  0
VERTEX
  5
1c4
  8
Layer_0
  10
79.987732
  20
128.07422
  0
SEQEND
  0
POLYLINE
  5
1c6
  8
Layer_0
  62
7
  66
1
  10
0
  20
0
  30
0
  0
VERTEX
  5
1c6
  8
Layer_0
  10
87.664032
  20
166.04056
  0
VERTEX
  5
1c7
  8
Layer_0
  10
82.664032
  20
166.03323
  0
SEQEND
  0
POLYLINE
  5
1c9
  8
Layer_0
  62
7
  66
1
  10
0
  20
0
  30
0
  0
VERTEX
  5
1c9
  8
Layer_0
  10
38.299927
  20
215.80475
  0
VERTEX
  5
1ca
  8
Layer_0
  10
33.299927
  20
215.80475
  0
SEQEND
  0
POLYLINE
  5
1cc
  8
Layer_0
  62
7
  66
1
  10
0
  20
0
  30
0
  0
VERTEX
  5
1cc
  8
Layer_0
  10
8.8069
  20
176.68295
  0
VERTEX
  5
1cd
  8
Layer_0
  10
13.806885
  20
176.69031
  0
SEQEND
  0
POLYLINE
  5
1cf
  8
Layer_0
  62
7
  66
1
  10
0
  20
0
  30
0
  0
VERTEX
  5
1cf
  8
Layer_0
  10
18.764267
  20
234.76987
  0
VERTEX
  5
1d0
  8
Layer_0
  10
23.764267
  20
234.76987
  0
SEQEND
  0
POLYLINE
  5
1d2
  8
Layer_0
  62
7
  66
1
  10
0
  20
0
  30
0
  0
VERTEX
  5
1d2
  8
Layer_0
  10
4.4832001
  20
254.92111
  0
VERTEX
  5
1d3
  8
Layer_0
  10
-0.51679993
  20
254.92111
  0
SEQEND
  0
POLYLINE
  5
1d5
  8
Layer_0
  62
7
  66
1
  10
0
  20
0
  30
0
  0
VERTEX
  5
1d5
  8
Layer_0
  10
28.314713
  20
195.67667
  0
VERTEX
  5
1d6
  8
Layer_0
  10
23.314713
  20
195.66934
  0
SEQEND
  0
POLYLINE
  5
1d8
  8
Layer_0
  62
7
  66
1
  10
0
  20
0
  30
0
  0
VERTEX
  5
1d8
  8
Layer_0
  10
18.299927
  20
215.80475
  0
VERTEX
  5
1d9
  8
Layer_0
  10
13.299927
  20
215.80475
  0
SEQEND
  0
POLYLINE
  5
1db
  8
Layer_0
  62
7
  66
1
  10
0
  20
0
  30
0
  0
VERTEX
  5
1db
  8
Layer_0
  10
50.897728
  20
254.92111
  0
VERTEX
  5
1dc
  8
Layer_0
  10
45.897728
  20
254.92111
  0
SEQEND
  0
POLYLINE
  5
1de
  8
Layer_0
  62
7
  66
1
  10
0
  20
0
  30
0
  0
VERTEX
  5
1de
  8
Layer_0
  10
-11.193085
  20
176.65353
  0
VERTEX
  5
1df
  8
Layer_0
  10
-6.1930847
  20
176.66086
  0
SEQEND
  0
POLYLINE
  5
1e1
  8
Layer_0
  62
7
  66
1
  10
0
  20
0
  30
0
  0
VERTEX
  5
1e1
  8
Layer_0
  10
160.45978
  20
226.01416
  0
VERTEX
  5
1e2
  8
Layer_0
  10
157.45978
  20
226.01416
  0
SEQEND
  0
POLYLINE
  5
1e4
  8
Layer_0
  62
7
  66
1
  10
0
  20
0
  30
0
  0
VERTEX
  5
1e4
  8
Layer_0
  10
-43.315567
  20
195.98776
  0
VERTEX
  5
1e5
  8
Layer_0
  10
-47.315567
  20
195.98892
  0
SEQEND
  0
POLYLINE
  5
1e7
  8
Layer_0
  62
7
  66
1
  10
0
  20
0
  30
0
  0
VERTEX
  5
1e7
  8
Layer_0
  10
100.48947
  20
185.57321
  0
VERTEX
  5
1e8
  8
Layer_0
  10
95.489471
  20
185.56589
  0
SEQEND
  0
POLYLINE
  5
1ea
  8
Layer_0
  62
7
  66
1
  10
0
  20
0
  30
0
  0
VERTEX
  5
1ea
  8
Layer_0
  10
135.57794
  20
245.17697
  0
VERTEX
  5
1eb
  8
Layer_0
  10
130.57794
  20
245.17697
  0
SEQEND
  0
POLYLINE
  5
1ed
  8
Layer_0
  62
7
  66
1
  10
0
  20
0
  30
0
  0
VERTEX
  5
1ed
  8
Layer_0
  10
-30.228271
  20
176.62552
  0
VERTEX
  5
1ee
  8
Layer_0
  10
-26.193069
  20
176.63141
  0
SEQEND
  0
POLYLINE
  5
1f0
  8
Layer_0
  62
7
  66
1
  10
0
  20
0
  30
0
  0
VERTEX
  5
1f0
  8
Layer_0
  10
-49.799866
  20
200.08505
  0
VERTEX
  5
1f1
  8
Layer_0
  10
-49.829697
  20
204.129
  0
SEQEND
  0
POLYLINE
  5
1f3
  8
Layer_0
  62
7
  66
1
  10
0
  20
0
  30
0
  0
VERTEX
  5
1f3
  8
Layer_0
  10
155.69052
  20
223.19186
  0
VERTEX
  5
1f4
  8
Layer_0
  10
155.69052
  20
218.19186
  0
SEQEND
  0
POLYLINE
  5
1f6
  8
Layer_0
  62
7
  66
1
  10
0
  20
0
  30
0
  0
VERTEX
  5
1f6
  8
Layer_0
  10
135.45978
  20
226.01416
  0
VERTEX
  5
1f7
  8
Layer_0
  10
140.45978
  20
226.01416
  0
SEQEND
  0
POLYLINE
  5
1f9
  8
Layer_0
  62
7
  66
1
  10
0
  20
0
  30
0
  0
VERTEX
  5
1f9
  8
Layer_0
  10
-34.280029
  20
195.89679
  0
VERTEX
  5
1fa
  8
Layer_0
  10
-34.280762
  20
195.93857
  0
SEQEND
  0
POLYLINE
  5
1fc
  8
Layer_0
  62
7
  66
1
  10
0
  20
0
  30
0
  0
VERTEX
  5
1fc
  8
Layer_0
  10
72.57988
  20
244.91476
  0
VERTEX
  5
1fd
  8
Layer_0
  10
68.58049
  20
244.84491
  0
SEQEND
  0
POLYLINE
  5
1ff
  8
Layer_0
  62
7
  70
1
  66
1
  10
0
  20
0
  30
0
  0
VERTEX
  5
1ff
  8
Layer_0
  10
9.5464783
  20
227.57175
  42
-0.41421356
  0
VERTEX
  5
200
  8
Layer_0
  10
6.7964783
  20
224.82175
  42
-0.41421356
  0
VERTEX
  5
201
  8
Layer_0
  10
4.0464783
  20
227.57175
  42
-0.41421356
  0
VERTEX
  5
202
  8
Layer_0
  10
6.7964783
  20
230.32175
  42
-0.41421356
  0
SEQEND
  0
POLYLINE
  5
204
  8
Layer_0
  62
7
  66
1
  10
0
  20
0
  30
0
  0
VERTEX
  5
204
  8
Layer_0
  10
155.69691
  20
194.47665
  0
VERTEX
  5
205
  8
Layer_0
  10
155.70425
  20
189.47665
  0
SEQEND
  0
POLYLINE
  5
207
  8
Layer_0
  62
7
  66
1
  10
0
  20
0
  30
0
  0
VERTEX
  5
207
  8
Layer_0
  10
-68.427368
  20
201.03568
  0
VERTEX
  5
208
  8
Layer_0
  10
-68.910339
  20
200.96399
  0
SEQEND
  0
POLYLINE
  5
20a
  8
Layer_0
  62
7
  66
1
  10
0
  20
0
  30
0
  0
VERTEX
  5
20a
  8
Layer_0
  10
155.69052
  20
203.19186
  0
VERTEX
  5
20b
  8
Layer_0
  10
155.69052
  20
208.19186
  0
SEQEND
  0
POLYLINE
  5
20d
  8
Layer_0
  62
7
  66
1
  10
0
  20
0
  30
0
  0
VERTEX
  5
20d
  8
Layer_0
  10
-1.1931
  20
176.66824
  0
VERTEX
  5
20e
  8
Layer_0
  10
3.8069
  20
176.6756
  0
SEQEND
  0
POLYLINE
  5
210
  8
Layer_0
  62
7
  66
1
  10
0
  20
0
  30
0
  0
VERTEX
  5
210
  8
Layer_0
  10
-21.235733
  20
234.76996
  0
VERTEX
  5
211
  8
Layer_0
  10
-16.235733
  20
234.76996
  0
SEQEND
  0
POLYLINE
  5
213
  8
Layer_0
  62
7
  66
1
  10
0
  20
0
  30
0
  0
VERTEX
  5
213
  8
Layer_0
  10
110.45979
  20
226.01416
  0
VERTEX
  5
214
  8
Layer_0
  10
105.45978
  20
226.01416
  0
SEQEND
  0
POLYLINE
  5
216
  8
Layer_0
  62
7
  66
1
  10
0
  20
0
  30
0
  0
VERTEX
  5
216
  8
Layer_0
  10
48.314682
  20
195.70602
  0
VERTEX
  5
217
  8
Layer_0
  10
43.314682
  20
195.69867
  0
SEQEND
  0
POLYLINE
  5
219
  8
Layer_0
  62
7
  66
1
  10
0
  20
0
  30
0
  0
VERTEX
  5
219
  8
Layer_0
  10
97.664017
  20
166.05527
  0
VERTEX
  5
21a
  8
Layer_0
  10
92.664017
  20
166.04791
  0
SEQEND
  0
POLYLINE
  5
21c
  8
Layer_0
  62
7
  66
1
  10
0
  20
0
  30
0
  0
VERTEX
  5
21c
  8
Layer_0
  10
115.56494
  20
166.08218
  0
VERTEX
  5
21d
  8
Layer_0
  10
110.56496
  20
166.07483
  0
SEQEND
  0
POLYLINE
  5
21f
  8
Layer_0
  62
7
  66
1
  10
0
  20
0
  30
0
  0
VERTEX
  5
21f
  8
Layer_0
  10
110.48946
  20
185.58792
  0
VERTEX
  5
220
  8
Layer_0
  10
105.48946
  20
185.5806
  0
SEQEND
  0
POLYLINE
  5
222
  8
Layer_0
  62
7
  66
1
  10
0
  20
0
  30
0
  0
VERTEX
  5
222
  8
Layer_0
  10
18.806885
  20
176.69766
  0
VERTEX
  5
223
  8
Layer_0
  10
23.806885
  20
176.70505
  0
SEQEND
  0
POLYLINE
  5
225
  8
Layer_0
  62
7
  66
1
  10
0
  20
0
  30
0
  0
VERTEX
  5
225
  8
Layer_0
  10
43.490936
  20
241.17905
  0
VERTEX
  5
226
  8
Layer_0
  10
43.490936
  20
234.92355
  0
SEQEND
  0
POLYLINE
  5
228
  8
Layer_0
  62
7
  66
1
  10
0
  20
0
  30
0
  0
VERTEX
  5
228
  8
Layer_0
  10
70.459778
  20
226.01416
  0
VERTEX
  5
229
  8
Layer_0
  10
67.959778
  20
226.01416
  0
SEQEND
  0
POLYLINE
  5
22b
  8
Layer_0
  62
7
  66
1
  10
0
  20
0
  30
0
  0
VERTEX
  5
22b
  8
Layer_0
  10
40.897728
  20
254.92111
  0
VERTEX
  5
22c
  8
Layer_0
  10
35.897728
  20
254.92111
  0
SEQEND
  0
POLYLINE
  5
22e
  8
Layer_0
  62
7
  70
1
  66
1
  10
0
  20
0
  30
0
  0
VERTEX
  5
22e
  8
Layer_0
  10
-42.156067
  20
249.84616
  42
-0.41421356
  0
VERTEX
  5
22f
  8
Layer_0
  10
-44.906067
  20
252.59616
  42
-0.41421356
  0
VERTEX
  5
230
  8
Layer_0
  10
-42.156067
  20
255.34616
  42
-0.41421356
  0
VERTEX
  5
231
  8
Layer_0
  10
-39.406067
  20
252.59616
  42
-0.41421356
  0
SEQEND
  0
POLYLINE
  5
233
  8
Layer_0
  62
7
  66
1
  10
0
  20
0
  30
0
  0
VERTEX
  5
233
  8
Layer_0
  10
-30.0849
  20
200.27588
  0
VERTEX
  5
234
  8
Layer_0
  10
-30.102188
  20
204.57892
  0
SEQEND
  0
POLYLINE
  5
236
  8
Layer_0
  62
7
  66
1
  10
0
  20
0
  30
0
  0
VERTEX
  5
236
  8
Layer_0
  10
-21.193069
  20
176.63879
  0
VERTEX
  5
237
  8
Layer_0
  10
-16.193069
  20
176.64615
  0
SEQEND
  0
POLYLINE
  5
239
  8
Layer_0
  62
7
  66
1
  10
0
  20
0
  30
0
  0
VERTEX
  5
239
  8
Layer_0
  10
-1.685257
  20
195.63263
  0
VERTEX
  5
23a
  8
Layer_0
  10
-6.685257
  20
195.62534
  0
SEQEND
  0
POLYLINE
  5
23c
  8
Layer_0
  62
7
  66
1
  10
0
  20
0
  30
0
  0
VERTEX
  5
23c
  8
Layer_0
  10
28.299927
  20
215.80475
  0
VERTEX
  5
23d
  8
Layer_0
  10
23.299927
  20
215.80475
  0
SEQEND
  0
POLYLINE
  5
23f
  8
Layer_0
  62
7
  66
1
  10
0
  20
0
  30
0
  0
VERTEX
  5
23f
  8
Layer_0
  10
70.489502
  20
185.52921
  0
VERTEX
  5
240
  8
Layer_0
  10
67.989502
  20
185.52554
  0
SEQEND
  0
POLYLINE
  5
242
  8
Layer_0
  62
7
  66
1
  10
0
  20
0
  30
0
  0
VERTEX
  5
242
  8
Layer_0
  10
75.459778
  20
226.01416
  0
VERTEX
  5
243
  8
Layer_0
  10
80.459778
  20
226.01416
  0
SEQEND
  0
POLYLINE
  5
245
  8
Layer_0
  62
7
  66
1
  10
0
  20
0
  30
0
  0
VERTEX
  5
245
  8
Layer_0
  10
85.459778
  20
226.01416
  0
VERTEX
  5
246
  8
Layer_0
  10
90.459778
  20
226.01416
  0
SEQEND
  0
POLYLINE
  5
248
  8
Layer_0
  62
7
  66
1
  10
0
  20
0
  30
0
  0
VERTEX
  5
248
  8
Layer_0
  10
120.48944
  20
185.6026
  0
VERTEX
  5
249
  8
Layer_0
  10
115.48946
  20
185.59525
  0
SEQEND
  0
POLYLINE
  5
24b
  8
Layer_0
  62
7
  66
1
  10
0
  20
0
  30
0
  0
VERTEX
  5
24b
  8
Layer_0
  10
170.48935
  20
185.63278
  0
VERTEX
  5
24c
  8
Layer_0
  10
165.48938
  20
185.64706
  0
SEQEND
  0
POLYLINE
  5
24e
  8
Layer_0
  62
7
  66
1
  10
0
  20
0
  30
0
  0
VERTEX
  5
24e
  8
Layer_0
  10
150.45978
  20
226.01416
  0
VERTEX
  5
24f
  8
Layer_0
  10
145.45978
  20
226.01416
  0
SEQEND
  0
POLYLINE
  5
251
  8
Layer_0
  62
7
  66
1
  10
0
  20
0
  30
0
  0
VERTEX
  5
251
  8
Layer_0
  10
-33.329819
  20
215.40619
  0
VERTEX
  5
252
  8
Layer_0
  10
-38.329803
  20
215.3974
  0
SEQEND
  0
POLYLINE
  5
254
  8
Layer_0
  62
7
  66
1
  10
0
  20
0
  30
0
  0
VERTEX
  5
254
  8
Layer_0
  10
-11.685242
  20
195.61792
  0
VERTEX
  5
255
  8
Layer_0
  10
-16.685242
  20
195.61063
  0
SEQEND
  0
POLYLINE
  5
257
  8
Layer_0
  62
7
  66
1
  10
0
  20
0
  30
0
  0
VERTEX
  5
257
  8
Layer_0
  10
-11.235733
  20
234.76996
  0
VERTEX
  5
258
  8
Layer_0
  10
-6.235733
  20
234.76993
  0
SEQEND
  0
POLYLINE
  5
25a
  8
Layer_0
  62
7
  66
1
  10
0
  20
0
  30
0
  0
VERTEX
  5
25a
  8
Layer_0
  10
8.3147278
  20
195.64731
  0
VERTEX
  5
25b
  8
Layer_0
  10
3.3147278
  20
195.63998
  0
SEQEND
  0
POLYLINE
  5
25d
  8
Layer_0
  62
7
  66
1
  10
0
  20
0
  30
0
  0
VERTEX
  5
25d
  8
Layer_0
  10
125.56494
  20
166.09692
  0
VERTEX
  5
25e
  8
Layer_0
  10
120.56494
  20
166.08954
  0
SEQEND
  0
POLYLINE
  5
260
  8
Layer_0
  62
7
  66
1
  10
0
  20
0
  30
0
  0
VERTEX
  5
260
  8
Layer_0
  10
115.57794
  20
245.17703
  0
VERTEX
  5
261
  8
Layer_0
  10
110.57794
  20
245.17703
  0
SEQEND
  0
POLYLINE
  5
263
  8
Layer_0
  62
7
  70
1
  66
1
  10
0
  20
0
  30
0
  0
VERTEX
  5
263
  8
Layer_0
  10
159.78651
  20
203.66794
  42
-0.41421365
  0
VERTEX
  5
264
  8
Layer_0
  10
157.03651
  20
206.41794
  42
-0.41421356
  0
VERTEX
  5
265
  8
Layer_0
  10
159.78651
  20
209.16794
  42
-0.41421356
  0
VERTEX
  5
266
  8
Layer_0
  10
162.53651
  20
206.41794
  42
-0.41421356
  0
SEQEND
  0
POLYLINE
  5
268
  8
Layer_0
  62
7
  66
1
  10
0
  20
0
  30
0
  0
VERTEX
  5
268
  8
Layer_0
  10
-11.700073
  20
215.80475
  0
VERTEX
  5
269
  8
Layer_0
  10
-16.700073
  20
215.80475
  0
SEQEND
  0
POLYLINE
  5
26b
  8
Layer_0
  62
7
  66
1
  10
0
  20
0
  30
0
  0
VERTEX
  5
26b
  8
Layer_0
  10
-30.270935
  20
234.76996
  0
VERTEX
  5
26c
  8
Layer_0
  10
-26.235748
  20
234.76996
  0
SEQEND
  0
POLYLINE
  5
26e
  8
Layer_0
  62
7
  66
1
  10
0
  20
0
  30
0
  0
VERTEX
  5
26e
  8
Layer_0
  10
78.068085
  20
245.01053
  0
VERTEX
  5
26f
  8
Layer_0
  10
97.276154
  20
245.34579
  0
SEQEND
  0
POLYLINE
  5
271
  8
Layer_0
  62
7
  66
1
  10
0
  20
0
  30
0
  0
VERTEX
  5
271
  8
Layer_0
  10
38.314697
  20
195.69138
  0
VERTEX
  5
272
  8
Layer_0
  10
33.314697
  20
195.68405
  0
SEQEND
  0
POLYLINE
  5
274
  8
Layer_0
  62
7
  66
1
  10
0
  20
0
  30
0
  0
VERTEX
  5
274
  8
Layer_0
  10
90.489471
  20
185.55856
  0
VERTEX
  5
275
  8
Layer_0
  10
85.489487
  20
185.55121
  0
SEQEND
  0
POLYLINE
  5
277
  8
Layer_0
  62
7
  66
1
  10
0
  20
0
  30
0
  0
VERTEX
  5
277
  8
Layer_0
  10
48.299927
  20
215.80475
  0
VERTEX
  5
278
  8
Layer_0
  10
43.299927
  20
215.80475
  0
SEQEND
  0
POLYLINE
  5
27a
  8
Layer_0
  62
7
  66
1
  10
0
  20
0
  30
0
  0
VERTEX
  5
27a
  8
Layer_0
  10
59.266678
  20
176.34137
  0
VERTEX
  5
27b
  8
Layer_0
  10
63.751358
  20
176.2963
  0
SEQEND
  0
POLYLINE
  5
27d
  8
Layer_0
  62
7
  66
1
  10
0
  20
0
  30
0
  0
VERTEX
  5
27d
  8
Layer_0
  10
89.987732
  20
128.07422
  0
VERTEX
  5
27e
  8
Layer_0
  10
94.987732
  20
128.07422
  0
SEQEND
  0
POLYLINE
  5
280
  8
Layer_0
  62
7
  66
1
  10
0
  20
0
  30
0
  0
VERTEX
  5
280
  8
Layer_0
  10
52.276337
  20
176.59311
  0
VERTEX
  5
281
  8
Layer_0
  10
33.242958
  20
176.66931
  0
SEQEND
  0
POLYLINE
  5
283
  8
Layer_0
  62
7
  66
1
  10
0
  20
0
  30
0
  0
VERTEX
  5
283
  8
Layer_0
  10
140.48943
  20
185.63199
  0
VERTEX
  5
284
  8
Layer_0
  10
135.48943
  20
185.6246
  0
SEQEND
  0
POLYLINE
  5
286
  8
Layer_0
  62
7
  66
1
  10
0
  20
0
  30
0
  0
VERTEX
  5
286
  8
Layer_0
  10
145.57794
  20
245.17685
  0
VERTEX
  5
287
  8
Layer_0
  10
140.57794
  20
245.17697
  0
SEQEND
  0
POLYLINE
  5
289
  8
Layer_0
  62
7
  66
1
  10
0
  20
0
  30
0
  0
VERTEX
  5
289
  8
Layer_0
  10
-34.294434
  20
215.49283
  0
VERTEX
  5
28a
  8
Layer_0
  10
-34.29509
  20
215.45099
  0
SEQEND
  0
POLYLINE
  5
28c
  8
Layer_0
  62
7
  66
1
  10
0
  20
0
  30
0
  0
VERTEX
  5
28c
  8
Layer_0
  10
80.489487
  20
185.54391
  0
VERTEX
  5
28d
  8
Layer_0
  10
75.489487
  20
185.5365
  0
SEQEND
  0
POLYLINE
  5
28f
  8
Layer_0
  62
7
  66
1
  10
0
  20
0
  30
0
  0
VERTEX
  5
28f
  8
Layer_0
  10
26.306862
  20
176.70865
  0
VERTEX
  5
290
  8
Layer_0
  10
31.306862
  20
176.71603
  0
SEQEND
  0
POLYLINE
  5
292
  8
Layer_0
  62
7
  66
1
  10
0
  20
0
  30
0
  0
VERTEX
  5
292
  8
Layer_0
  10
154.60011
  20
166.13965
  0
VERTEX
  5
293
  8
Layer_0
  10
150.56491
  20
166.1337
  0
SEQEND
  0
POLYLINE
  5
295
  8
Layer_0
  62
7
  66
1
  10
0
  20
0
  30
0
  0
VERTEX
  5
295
  8
Layer_0
  10
120.45979
  20
226.01416
  0
VERTEX
  5
296
  8
Layer_0
  10
115.45979
  20
226.01416
  0
SEQEND
  0
POLYLINE
  5
298
  8
Layer_0
  62
7
  66
1
  10
0
  20
0
  30
0
  0
VERTEX
  5
298
  8
Layer_0
  10
18.314713
  20
195.66202
  0
VERTEX
  5
299
  8
Layer_0
  10
13.314728
  20
195.65469
  0
SEQEND
  0
POLYLINE
  5
29b
  8
Layer_0
  62
7
  66
1
  10
0
  20
0
  30
0
  0
VERTEX
  5
29b
  8
Layer_0
  10
-24.200073
  20
215.80475
  0
VERTEX
  5
29c
  8
Layer_0
  10
-20.17926
  20
215.82074
  0
SEQEND
  0
POLYLINE
  5
29e
  8
Layer_0
  62
7
  66
1
  10
0
  20
0
  30
0
  0
VERTEX
  5
29e
  8
Layer_0
  10
-30.129883
  20
211.43921
  0
VERTEX
  5
29f
  8
Layer_0
  10
-30.112457
  20
207.13623
  0
SEQEND
  0
POLYLINE
  5
2a1
  8
Layer_0
  62
7
  66
1
  10
0
  20
0
  30
0
  0
VERTEX
  5
2a1
  8
Layer_0
  10
50.987732
  20
137.57422
  0
VERTEX
  5
2a2
  8
Layer_0
  10
45.987732
  20
137.57422
  0
SEQEND
  0
POLYLINE
  5
2a4
  8
Layer_0
  62
7
  66
1
  10
0
  20
0
  30
0
  0
VERTEX
  5
2a4
  8
Layer_0
  10
-43.329803
  20
215.38864
  0
VERTEX
  5
2a5
  8
Layer_0
  10
-47.329803
  20
215.38156
  0
SEQEND
  0
POLYLINE
  5
2a7
  8
Layer_0
  62
7
  66
1
  10
0
  20
0
  30
0
  0
VERTEX
  5
2a7
  8
Layer_0
  10
-29.695938
  20
156.95834
  0
VERTEX
  5
2a8
  8
Layer_0
  10
-29.694534
  20
156.95834
  0
SEQEND
  0
POLYLINE
  5
2aa
  8
Layer_0
  62
7
  66
1
  10
0
  20
0
  30
0
  0
VERTEX
  5
2aa
  8
Layer_0
  10
26.264267
  20
234.76987
  0
VERTEX
  5
2ab
  8
Layer_0
  10
31.264252
  20
234.76987
  0
SEQEND
  0
ENDSEC
  0
EOF
