  0
SECTION
  2
HEADER
  9
$ACADVER
  1
AC1009
  0
ENDSEC
  0
SECTION
  2
TABLES
  0
TABLE
  2
LAYER
  70
1
  0
LAYER
  2
Layer_0
  70
0
  62
7
  6
CONTINUOUS
  0
ENDTAB
  0
ENDSEC
  0
SECTION
  2
ENTITIES
  0
POLYLINE
  5
90
  8
Layer_0
  62
7
  66
1
  10
0
  20
0
  30
0
  0
VERTEX
  5
90
  8
Layer_0
  10
111.68625
  20
135.11057
  42
-0.41421356
  0
VERTEX
  5
91
  8
Layer_0
  10
108.73625
  20
132.16057
  0
SEQEND
  0
POLYLINE
  5
93
  8
Layer_0
  62
7
  66
1
  10
0
  20
0
  30
0
  0
VERTEX
  5
93
  8
Layer_0
  10
108.73625
  20
132.16057
  42
-0.41421356
  0
VERTEX
  5
94
  8
Layer_0
  10
105.78625
  20
135.11057
  0
SEQEND
  0
POLYLINE
  5
96
  8
Layer_0
  62
7
  66
1
  10
0
  20
0
  30
0
  0
VERTEX
  5
96
  8
Layer_0
  10
105.78625
  20
135.11057
  42
-0.41421356
  0
VERTEX
  5
97
  8
Layer_0
  10
108.73625
  20
138.06056
  0
SEQEND
  0
POLYLINE
  5
99
  8
Layer_0
  62
7
  66
1
  10
0
  20
0
  30
0
  0
VERTEX
  5
99
  8
Layer_0
  10
108.73625
  20
138.06056
  42
-0.41421356
  0
VERTEX
  5
9a
  8
Layer_0
  10
111.68625
  20
135.11057
  0
SEQEND
  0
POLYLINE
  5
9c
  8
Layer_0
  62
7
  66
1
  10
0
  20
0
  30
0
  0
VERTEX
  5
9c
  8
Layer_0
  10
62.933773
  20
109.7761
  42
-0.41421356
  0
VERTEX
  5
9d
  8
Layer_0
  10
59.983772
  20
106.8261
  0
SEQEND
  0
POLYLINE
  5
9f
  8
Layer_0
  62
7
  66
1
  10
0
  20
0
  30
0
  0
VERTEX
  5
9f
  8
Layer_0
  10
59.983772
  20
106.8261
  42
-0.41421356
  0
VERTEX
  5
a0
  8
Layer_0
  10
57.033772
  20
109.7761
  0
SEQEND
  0
POLYLINE
  5
a2
  8
Layer_0
  62
7
  66
1
  10
0
  20
0
  30
0
  0
VERTEX
  5
a2
  8
Layer_0
  10
57.033772
  20
109.7761
  42
-0.41421356
  0
VERTEX
  5
a3
  8
Layer_0
  10
59.983772
  20
112.7261
  0
SEQEND
  0
POLYLINE
  5
a5
  8
Layer_0
  62
7
  66
1
  10
0
  20
0
  30
0
  0
VERTEX
  5
a5
  8
Layer_0
  10
59.983772
  20
112.7261
  42
-0.41421356
  0
VERTEX
  5
a6
  8
Layer_0
  10
62.933773
  20
109.7761
  0
SEQEND
  0
POLYLINE
  5
a8
  8
Layer_0
  62
7
  66
1
  10
0
  20
0
  30
0
  0
VERTEX
  5
a8
  8
Layer_0
  10
62.043507
  20
204.40051
  42
-0.41421356
  0
VERTEX
  5
a9
  8
Layer_0
  10
59.093506
  20
201.45052
  0
SEQEND
  0
POLYLINE
  5
ab
  8
Layer_0
  62
7
  66
1
  10
0
  20
0
  30
0
  0
VERTEX
  5
ab
  8
Layer_0
  10
59.093506
  20
201.45052
  42
-0.41421356
  0
VERTEX
  5
ac
  8
Layer_0
  10
56.143505
  20
204.40051
  0
SEQEND
  0
POLYLINE
  5
ae
  8
Layer_0
  62
7
  66
1
  10
0
  20
0
  30
0
  0
VERTEX
  5
ae
  8
Layer_0
  10
56.143505
  20
204.40051
  42
-0.41421356
  0
VERTEX
  5
af
  8
Layer_0
  10
59.093506
  20
207.35051
  0
SEQEND
  0
POLYLINE
  5
b1
  8
Layer_0
  62
7
  66
1
  10
0
  20
0
  30
0
  0
VERTEX
  5
b1
  8
Layer_0
  10
59.093506
  20
207.35051
  42
-0.41421356
  0
VERTEX
  5
b2
  8
Layer_0
  10
62.043507
  20
204.40051
  0
SEQEND
  0
POLYLINE
  5
b4
  8
Layer_0
  62
7
  66
1
  10
0
  20
0
  30
0
  0
VERTEX
  5
b4
  8
Layer_0
  10
111.85634
  20
179.11194
  42
-0.41421356
  0
VERTEX
  5
b5
  8
Layer_0
  10
108.90634
  20
176.16194
  0
SEQEND
  0
POLYLINE
  5
b7
  8
Layer_0
  62
7
  66
1
  10
0
  20
0
  30
0
  0
VERTEX
  5
b7
  8
Layer_0
  10
108.90634
  20
176.16194
  42
-0.41421356
  0
VERTEX
  5
b8
  8
Layer_0
  10
105.95634
  20
179.11194
  0
SEQEND
  0
POLYLINE
  5
ba
  8
Layer_0
  62
7
  66
1
  10
0
  20
0
  30
0
  0
VERTEX
  5
ba
  8
Layer_0
  10
105.95634
  20
179.11194
  42
-0.41421356
  0
VERTEX
  5
bb
  8
Layer_0
  10
108.90634
  20
182.06194
  0
SEQEND
  0
POLYLINE
  5
bd
  8
Layer_0
  62
7
  66
1
  10
0
  20
0
  30
0
  0
VERTEX
  5
bd
  8
Layer_0
  10
108.90634
  20
182.06194
  42
-0.41421356
  0
VERTEX
  5
be
  8
Layer_0
  10
111.85634
  20
179.11194
  0
SEQEND
  0
POLYLINE
  5
c0
  8
Layer_0
  62
7
  66
1
  10
0
  20
0
  30
0
  0
VERTEX
  5
c0
  8
Layer_0
  10
111.9534
  20
213.91513
  42
-0.41421356
  0
VERTEX
  5
c1
  8
Layer_0
  10
109.0034
  20
210.96513
  0
SEQEND
  0
POLYLINE
  5
c3
  8
Layer_0
  62
7
  66
1
  10
0
  20
0
  30
0
  0
VERTEX
  5
c3
  8
Layer_0
  10
109.0034
  20
210.96513
  42
-0.41421356
  0
VERTEX
  5
c4
  8
Layer_0
  10
106.05341
  20
213.91513
  0
SEQEND
  0
POLYLINE
  5
c6
  8
Layer_0
  62
7
  66
1
  10
0
  20
0
  30
0
  0
VERTEX
  5
c6
  8
Layer_0
  10
106.05341
  20
213.91513
  42
-0.41421356
  0
VERTEX
  5
c7
  8
Layer_0
  10
109.0034
  20
216.86513
  0
SEQEND
  0
POLYLINE
  5
c9
  8
Layer_0
  62
7
  66
1
  10
0
  20
0
  30
0
  0
VERTEX
  5
c9
  8
Layer_0
  10
109.0034
  20
216.86513
  42
-0.41421356
  0
VERTEX
  5
ca
  8
Layer_0
  10
111.9534
  20
213.91513
  0
SEQEND
  0
POLYLINE
  5
cc
  8
Layer_0
  62
7
  66
1
  10
0
  20
0
  30
0
  0
VERTEX
  5
cc
  8
Layer_0
  10
237.32158
  20
70.735878
  42
-0.41421356
  0
VERTEX
  5
cd
  8
Layer_0
  10
234.37158
  20
67.785881
  0
SEQEND
  0
POLYLINE
  5
cf
  8
Layer_0
  62
7
  66
1
  10
0
  20
0
  30
0
  0
VERTEX
  5
cf
  8
Layer_0
  10
234.37158
  20
67.785881
  42
-0.41421356
  0
VERTEX
  5
d0
  8
Layer_0
  10
231.42159
  20
70.735878
  0
SEQEND
  0
POLYLINE
  5
d2
  8
Layer_0
  62
7
  66
1
  10
0
  20
0
  30
0
  0
VERTEX
  5
d2
  8
Layer_0
  10
231.42159
  20
70.735878
  42
-0.41421356
  0
VERTEX
  5
d3
  8
Layer_0
  10
234.37158
  20
73.685875
  0
SEQEND
  0
POLYLINE
  5
d5
  8
Layer_0
  62
7
  66
1
  10
0
  20
0
  30
0
  0
VERTEX
  5
d5
  8
Layer_0
  10
234.37158
  20
73.685875
  42
-0.41421356
  0
VERTEX
  5
d6
  8
Layer_0
  10
237.32158
  20
70.735878
  0
SEQEND
  0
POLYLINE
  5
d8
  8
Layer_0
  62
7
  66
1
  10
0
  20
0
  30
0
  0
VERTEX
  5
d8
  8
Layer_0
  10
237.5294
  20
125.4195
  42
-0.41421356
  0
VERTEX
  5
d9
  8
Layer_0
  10
234.57941
  20
122.46951
  0
SEQEND
  0
POLYLINE
  5
db
  8
Layer_0
  62
7
  66
1
  10
0
  20
0
  30
0
  0
VERTEX
  5
db
  8
Layer_0
  10
234.57941
  20
122.46951
  42
-0.41421356
  0
VERTEX
  5
dc
  8
Layer_0
  10
231.62941
  20
125.4195
  0
SEQEND
  0
POLYLINE
  5
de
  8
Layer_0
  62
7
  66
1
  10
0
  20
0
  30
0
  0
VERTEX
  5
de
  8
Layer_0
  10
231.62941
  20
125.4195
  42
-0.41421356
  0
VERTEX
  5
df
  8
Layer_0
  10
234.57941
  20
128.36951
  0
SEQEND
  0
POLYLINE
  5
e1
  8
Layer_0
  62
7
  66
1
  10
0
  20
0
  30
0
  0
VERTEX
  5
e1
  8
Layer_0
  10
234.57941
  20
128.36951
  42
-0.41421356
  0
VERTEX
  5
e2
  8
Layer_0
  10
237.5294
  20
125.4195
  0
SEQEND
  0
POLYLINE
  5
e4
  8
Layer_0
  62
7
  66
1
  10
0
  20
0
  30
0
  0
VERTEX
  5
e4
  8
Layer_0
  10
272.48996
  20
113.90448
  42
-0.41421356
  0
VERTEX
  5
e5
  8
Layer_0
  10
269.53995
  20
110.95448
  0
SEQEND
  0
POLYLINE
  5
e7
  8
Layer_0
  62
7
  66
1
  10
0
  20
0
  30
0
  0
VERTEX
  5
e7
  8
Layer_0
  10
269.53995
  20
110.95448
  42
-0.41421356
  0
VERTEX
  5
e8
  8
Layer_0
  10
266.58994
  20
113.90448
  0
SEQEND
  0
POLYLINE
  5
ea
  8
Layer_0
  62
7
  66
1
  10
0
  20
0
  30
0
  0
VERTEX
  5
ea
  8
Layer_0
  10
266.58994
  20
113.90448
  42
-0.41421356
  0
VERTEX
  5
eb
  8
Layer_0
  10
269.53995
  20
116.85448
  0
SEQEND
  0
POLYLINE
  5
ed
  8
Layer_0
  62
7
  66
1
  10
0
  20
0
  30
0
  0
VERTEX
  5
ed
  8
Layer_0
  10
269.53995
  20
116.85448
  42
-0.41421356
  0
VERTEX
  5
ee
  8
Layer_0
  10
272.48996
  20
113.90448
  0
SEQEND
  0
POLYLINE
  5
f0
  8
Layer_0
  62
7
  66
1
  10
0
  20
0
  30
0
  0
VERTEX
  5
f0
  8
Layer_0
  10
264.34113
  20
157.07498
  42
-0.41421356
  0
VERTEX
  5
f1
  8
Layer_0
  10
261.39111
  20
154.12498
  0
SEQEND
  0
POLYLINE
  5
f3
  8
Layer_0
  62
7
  66
1
  10
0
  20
0
  30
0
  0
VERTEX
  5
f3
  8
Layer_0
  10
261.39111
  20
154.12498
  42
-0.41421356
  0
VERTEX
  5
f4
  8
Layer_0
  10
258.4411
  20
157.07498
  0
SEQEND
  0
POLYLINE
  5
f6
  8
Layer_0
  62
7
  66
1
  10
0
  20
0
  30
0
  0
VERTEX
  5
f6
  8
Layer_0
  10
258.4411
  20
157.07498
  42
-0.41421356
  0
VERTEX
  5
f7
  8
Layer_0
  10
261.39111
  20
160.02498
  0
SEQEND
  0
POLYLINE
  5
f9
  8
Layer_0
  62
7
  66
1
  10
0
  20
0
  30
0
  0
VERTEX
  5
f9
  8
Layer_0
  10
261.39111
  20
160.02498
  42
-0.41421356
  0
VERTEX
  5
fa
  8
Layer_0
  10
264.34113
  20
157.07498
  0
SEQEND
  0
POLYLINE
  5
fc
  8
Layer_0
  62
7
  66
1
  10
0
  20
0
  30
0
  0
VERTEX
  5
fc
  8
Layer_0
  10
272.612
  20
199.70102
  42
-0.41421356
  0
VERTEX
  5
fd
  8
Layer_0
  10
269.66199
  20
196.75102
  0
SEQEND
  0
POLYLINE
  5
ff
  8
Layer_0
  62
7
  66
1
  10
0
  20
0
  30
0
  0
VERTEX
  5
ff
  8
Layer_0
  10
269.66199
  20
196.75102
  42
-0.41421356
  0
VERTEX
  5
100
  8
Layer_0
  10
266.71198
  20
199.70102
  0
SEQEND
  0
POLYLINE
  5
102
  8
Layer_0
  62
7
  66
1
  10
0
  20
0
  30
0
  0
VERTEX
  5
102
  8
Layer_0
  10
266.71198
  20
199.70102
  42
-0.41421356
  0
VERTEX
  5
103
  8
Layer_0
  10
269.66199
  20
202.65102
  0
SEQEND
  0
POLYLINE
  5
105
  8
Layer_0
  62
7
  66
1
  10
0
  20
0
  30
0
  0
VERTEX
  5
105
  8
Layer_0
  10
269.66199
  20
202.65102
  42
-0.41421356
  0
VERTEX
  5
106
  8
Layer_0
  10
272.612
  20
199.70102
  0
SEQEND
  0
POLYLINE
  5
108
  8
Layer_0
  62
7
  66
1
  10
0
  20
0
  30
0
  0
VERTEX
  5
108
  8
Layer_0
  10
237.74947
  20
188.90121
  42
-0.41421356
  0
VERTEX
  5
109
  8
Layer_0
  10
234.79947
  20
185.95122
  0
SEQEND
  0
POLYLINE
  5
10b
  8
Layer_0
  62
7
  66
1
  10
0
  20
0
  30
0
  0
VERTEX
  5
10b
  8
Layer_0
  10
234.79947
  20
185.95122
  42
-0.41421356
  0
VERTEX
  5
10c
  8
Layer_0
  10
231.84947
  20
188.90121
  0
SEQEND
  0
POLYLINE
  5
10e
  8
Layer_0
  62
7
  66
1
  10
0
  20
0
  30
0
  0
VERTEX
  5
10e
  8
Layer_0
  10
231.84947
  20
188.90121
  42
-0.41421356
  0
VERTEX
  5
10f
  8
Layer_0
  10
234.79947
  20
191.85121
  0
SEQEND
  0
POLYLINE
  5
111
  8
Layer_0
  62
7
  66
1
  10
0
  20
0
  30
0
  0
VERTEX
  5
111
  8
Layer_0
  10
234.79947
  20
191.85121
  42
-0.41421356
  0
VERTEX
  5
112
  8
Layer_0
  10
237.74947
  20
188.90121
  0
SEQEND
  0
POLYLINE
  5
114
  8
Layer_0
  62
7
  66
1
  10
0
  20
0
  30
0
  0
VERTEX
  5
114
  8
Layer_0
  10
113.13625
  20
118.55812
  42
-0.41421356
  0
VERTEX
  5
115
  8
Layer_0
  10
108.73625
  20
114.15812
  0
SEQEND
  0
POLYLINE
  5
117
  8
Layer_0
  62
7
  66
1
  10
0
  20
0
  30
0
  0
VERTEX
  5
117
  8
Layer_0
  10
108.73625
  20
114.15812
  42
-0.41421356
  0
VERTEX
  5
118
  8
Layer_0
  10
104.33625
  20
118.55812
  0
SEQEND
  0
POLYLINE
  5
11a
  8
Layer_0
  62
7
  66
1
  10
0
  20
0
  30
0
  0
VERTEX
  5
11a
  8
Layer_0
  10
104.33625
  20
118.55812
  42
-0.41421356
  0
VERTEX
  5
11b
  8
Layer_0
  10
108.73625
  20
122.95812
  0
SEQEND
  0
POLYLINE
  5
11d
  8
Layer_0
  62
7
  66
1
  10
0
  20
0
  30
0
  0
VERTEX
  5
11d
  8
Layer_0
  10
108.73625
  20
122.95812
  42
-0.41421356
  0
VERTEX
  5
11e
  8
Layer_0
  10
113.13625
  20
118.55812
  0
SEQEND
  0
POLYLINE
  5
120
  8
Layer_0
  62
7
  66
1
  10
0
  20
0
  30
0
  0
VERTEX
  5
120
  8
Layer_0
  10
113.30634
  20
196.68083
  42
-0.41421356
  0
VERTEX
  5
121
  8
Layer_0
  10
108.90634
  20
192.28084
  0
SEQEND
  0
POLYLINE
  5
123
  8
Layer_0
  62
7
  66
1
  10
0
  20
0
  30
0
  0
VERTEX
  5
123
  8
Layer_0
  10
108.90634
  20
192.28084
  42
-0.41421356
  0
VERTEX
  5
124
  8
Layer_0
  10
104.50634
  20
196.68083
  0
SEQEND
  0
POLYLINE
  5
126
  8
Layer_0
  62
7
  66
1
  10
0
  20
0
  30
0
  0
VERTEX
  5
126
  8
Layer_0
  10
104.50634
  20
196.68083
  42
-0.41421356
  0
VERTEX
  5
127
  8
Layer_0
  10
108.90634
  20
201.08083
  0
SEQEND
  0
POLYLINE
  5
129
  8
Layer_0
  62
7
  66
1
  10
0
  20
0
  30
0
  0
VERTEX
  5
129
  8
Layer_0
  10
108.90634
  20
201.08083
  42
-0.41421356
  0
VERTEX
  5
12a
  8
Layer_0
  10
113.30634
  20
196.68083
  0
SEQEND
  0
POLYLINE
  5
12c
  8
Layer_0
  62
7
  66
1
  10
0
  20
0
  30
0
  0
VERTEX
  5
12c
  8
Layer_0
  10
239.12941
  20
98.993057
  42
-0.41421356
  0
VERTEX
  5
12d
  8
Layer_0
  10
234.72942
  20
94.593056
  0
SEQEND
  0
POLYLINE
  5
12f
  8
Layer_0
  62
7
  66
1
  10
0
  20
0
  30
0
  0
VERTEX
  5
12f
  8
Layer_0
  10
234.72942
  20
94.593056
  42
-0.41421356
  0
VERTEX
  5
130
  8
Layer_0
  10
230.32942
  20
98.993057
  0
SEQEND
  0
POLYLINE
  5
132
  8
Layer_0
  62
7
  66
1
  10
0
  20
0
  30
0
  0
VERTEX
  5
132
  8
Layer_0
  10
230.32942
  20
98.993057
  42
-0.41421356
  0
VERTEX
  5
133
  8
Layer_0
  10
234.72942
  20
103.39306
  0
SEQEND
  0
POLYLINE
  5
135
  8
Layer_0
  62
7
  66
1
  10
0
  20
0
  30
0
  0
VERTEX
  5
135
  8
Layer_0
  10
234.72942
  20
103.39306
  42
-0.41421356
  0
VERTEX
  5
136
  8
Layer_0
  10
239.12941
  20
98.993057
  0
SEQEND
  0
POLYLINE
  5
138
  8
Layer_0
  62
7
  66
1
  10
0
  20
0
  30
0
  0
VERTEX
  5
138
  8
Layer_0
  10
239.78476
  20
216.82703
  42
-0.41421356
  0
VERTEX
  5
139
  8
Layer_0
  10
235.38477
  20
212.42703
  0
SEQEND
  0
POLYLINE
  5
13b
  8
Layer_0
  62
7
  66
1
  10
0
  20
0
  30
0
  0
VERTEX
  5
13b
  8
Layer_0
  10
235.38477
  20
212.42703
  42
-0.41421356
  0
VERTEX
  5
13c
  8
Layer_0
  10
230.98477
  20
216.82703
  0
SEQEND
  0
POLYLINE
  5
13e
  8
Layer_0
  62
7
  66
1
  10
0
  20
0
  30
0
  0
VERTEX
  5
13e
  8
Layer_0
  10
230.98477
  20
216.82703
  42
-0.41421356
  0
VERTEX
  5
13f
  8
Layer_0
  10
235.38477
  20
221.22702
  0
SEQEND
  0
POLYLINE
  5
141
  8
Layer_0
  62
7
  66
1
  10
0
  20
0
  30
0
  0
VERTEX
  5
141
  8
Layer_0
  10
235.38477
  20
221.22702
  42
-0.41421356
  0
VERTEX
  5
142
  8
Layer_0
  10
239.78476
  20
216.82703
  0
SEQEND
  0
POLYLINE
  5
144
  8
Layer_0
  62
7
  66
1
  10
0
  20
0
  30
0
  0
VERTEX
  5
144
  8
Layer_0
  10
159.08957
  20
166.71321
  0
VERTEX
  5
145
  8
Layer_0
  10
156.58955
  20
166.71321
  0
SEQEND
  0
POLYLINE
  5
147
  8
Layer_0
  62
7
  66
1
  10
0
  20
0
  30
0
  0
VERTEX
  5
147
  8
Layer_0
  10
153.08955
  20
166.71321
  0
VERTEX
  5
148
  8
Layer_0
  10
155.58955
  20
166.71321
  0
SEQEND
  0
POLYLINE
  5
14a
  8
Layer_0
  62
7
  66
1
  10
0
  20
0
  30
0
  0
VERTEX
  5
14a
  8
Layer_0
  10
149.58955
  20
166.71321
  0
VERTEX
  5
14b
  8
Layer_0
  10
152.08955
  20
166.71321
  0
SEQEND
  0
POLYLINE
  5
14d
  8
Layer_0
  62
7
  66
1
  10
0
  20
0
  30
0
  0
VERTEX
  5
14d
  8
Layer_0
  10
148.58955
  20
166.71321
  0
VERTEX
  5
14e
  8
Layer_0
  10
146.08955
  20
166.71321
  0
SEQEND
  0
POLYLINE
  5
150
  8
Layer_0
  62
7
  66
1
  10
0
  20
0
  30
0
  0
VERTEX
  5
150
  8
Layer_0
  10
145.08955
  20
166.71321
  0
VERTEX
  5
151
  8
Layer_0
  10
142.58955
  20
166.71321
  0
SEQEND
  0
POLYLINE
  5
153
  8
Layer_0
  62
7
  66
1
  10
0
  20
0
  30
0
  0
VERTEX
  5
153
  8
Layer_0
  10
141.58955
  20
166.71321
  0
VERTEX
  5
154
  8
Layer_0
  10
139.08957
  20
166.71321
  0
SEQEND
  0
POLYLINE
  5
156
  8
Layer_0
  62
7
  66
1
  10
0
  20
0
  30
0
  0
VERTEX
  5
156
  8
Layer_0
  10
138.08957
  20
166.71321
  0
VERTEX
  5
157
  8
Layer_0
  10
135.58957
  20
166.71321
  0
SEQEND
  0
POLYLINE
  5
159
  8
Layer_0
  62
7
  66
1
  10
0
  20
0
  30
0
  0
VERTEX
  5
159
  8
Layer_0
  10
132.08957
  20
166.71321
  0
VERTEX
  5
15a
  8
Layer_0
  10
134.58957
  20
166.71321
  0
SEQEND
  0
POLYLINE
  5
15c
  8
Layer_0
  62
7
  66
1
  10
0
  20
0
  30
0
  0
VERTEX
  5
15c
  8
Layer_0
  10
131.08957
  20
166.71321
  0
VERTEX
  5
15d
  8
Layer_0
  10
128.58957
  20
166.71321
  0
SEQEND
  0
POLYLINE
  5
15f
  8
Layer_0
  62
7
  66
1
  10
0
  20
0
  30
0
  0
VERTEX
  5
15f
  8
Layer_0
  10
127.58956
  20
166.71321
  0
VERTEX
  5
160
  8
Layer_0
  10
125.08956
  20
166.71321
  0
SEQEND
  0
POLYLINE
  5
162
  8
Layer_0
  62
7
  66
1
  10
0
  20
0
  30
0
  0
VERTEX
  5
162
  8
Layer_0
  10
121.58956
  20
166.71321
  0
VERTEX
  5
163
  8
Layer_0
  10
124.08956
  20
166.71321
  0
SEQEND
  0
POLYLINE
  5
165
  8
Layer_0
  62
7
  66
1
  10
0
  20
0
  30
0
  0
VERTEX
  5
165
  8
Layer_0
  10
120.58956
  20
166.71321
  0
VERTEX
  5
166
  8
Layer_0
  10
118.08956
  20
166.71321
  0
SEQEND
  0
POLYLINE
  5
168
  8
Layer_0
  62
7
  66
1
  10
0
  20
0
  30
0
  0
VERTEX
  5
168
  8
Layer_0
  10
114.58956
  20
166.71321
  0
VERTEX
  5
169
  8
Layer_0
  10
117.08956
  20
166.71321
  0
SEQEND
  0
POLYLINE
  5
16b
  8
Layer_0
  62
7
  66
1
  10
0
  20
0
  30
0
  0
VERTEX
  5
16b
  8
Layer_0
  10
113.58956
  20
166.71321
  0
VERTEX
  5
16c
  8
Layer_0
  10
111.08956
  20
166.71321
  0
SEQEND
  0
POLYLINE
  5
16e
  8
Layer_0
  62
7
  66
1
  10
0
  20
0
  30
0
  0
VERTEX
  5
16e
  8
Layer_0
  10
112.58956
  20
186.06937
  0
VERTEX
  5
16f
  8
Layer_0
  10
110.08956
  20
186.06937
  0
SEQEND
  0
POLYLINE
  5
171
  8
Layer_0
  62
7
  66
1
  10
0
  20
0
  30
0
  0
VERTEX
  5
171
  8
Layer_0
  10
112.58956
  20
127.50497
  0
VERTEX
  5
172
  8
Layer_0
  10
110.08956
  20
127.50497
  0
SEQEND
  0
POLYLINE
  5
174
  8
Layer_0
  62
7
  66
1
  10
0
  20
0
  30
0
  0
VERTEX
  5
174
  8
Layer_0
  10
107.58956
  20
166.71321
  0
VERTEX
  5
175
  8
Layer_0
  10
110.08956
  20
166.71321
  0
SEQEND
  0
POLYLINE
  5
177
  8
Layer_0
  62
7
  66
1
  10
0
  20
0
  30
0
  0
VERTEX
  5
177
  8
Layer_0
  10
106.58956
  20
186.06937
  0
VERTEX
  5
178
  8
Layer_0
  10
109.08956
  20
186.06937
  0
SEQEND
  0
POLYLINE
  5
17a
  8
Layer_0
  62
7
  66
1
  10
0
  20
0
  30
0
  0
VERTEX
  5
17a
  8
Layer_0
  10
106.58956
  20
166.71321
  0
VERTEX
  5
17b
  8
Layer_0
  10
104.08956
  20
166.71321
  0
SEQEND
  0
POLYLINE
  5
17d
  8
Layer_0
  62
7
  66
1
  10
0
  20
0
  30
0
  0
VERTEX
  5
17d
  8
Layer_0
  10
105.58956
  20
127.50497
  0
VERTEX
  5
17e
  8
Layer_0
  10
103.08956
  20
127.50497
  0
SEQEND
  0
POLYLINE
  5
180
  8
Layer_0
  62
7
  66
1
  10
0
  20
0
  30
0
  0
VERTEX
  5
180
  8
Layer_0
  10
103.08956
  20
166.71321
  0
VERTEX
  5
181
  8
Layer_0
  10
100.58956
  20
166.71321
  0
SEQEND
  0
POLYLINE
  5
183
  8
Layer_0
  62
7
  66
1
  10
0
  20
0
  30
0
  0
VERTEX
  5
183
  8
Layer_0
  10
99.589561
  20
186.06937
  0
VERTEX
  5
184
  8
Layer_0
  10
102.08956
  20
186.06937
  0
SEQEND
  0
POLYLINE
  5
186
  8
Layer_0
  62
7
  66
1
  10
0
  20
0
  30
0
  0
VERTEX
  5
186
  8
Layer_0
  10
99.589561
  20
127.50497
  0
VERTEX
  5
187
  8
Layer_0
  10
102.08956
  20
127.50497
  0
SEQEND
  0
POLYLINE
  5
189
  8
Layer_0
  62
7
  66
1
  10
0
  20
0
  30
0
  0
VERTEX
  5
189
  8
Layer_0
  10
99.589561
  20
166.71321
  0
VERTEX
  5
18a
  8
Layer_0
  10
97.089561
  20
166.71321
  0
SEQEND
  0
POLYLINE
  5
18c
  8
Layer_0
  62
7
  66
1
  10
0
  20
0
  30
0
  0
VERTEX
  5
18c
  8
Layer_0
  10
96.089561
  20
127.50497
  0
VERTEX
  5
18d
  8
Layer_0
  10
98.589561
  20
127.50497
  0
SEQEND
  0
POLYLINE
  5
18f
  8
Layer_0
  62
7
  66
1
  10
0
  20
0
  30
0
  0
VERTEX
  5
18f
  8
Layer_0
  10
93.589561
  20
166.71321
  0
VERTEX
  5
190
  8
Layer_0
  10
96.089561
  20
166.71321
  0
SEQEND
  0
POLYLINE
  5
192
  8
Layer_0
  62
7
  66
1
  10
0
  20
0
  30
0
  0
VERTEX
  5
192
  8
Layer_0
  10
90.089561
  20
166.71321
  0
VERTEX
  5
193
  8
Layer_0
  10
92.589561
  20
166.71321
  0
SEQEND
  0
POLYLINE
  5
195
  8
Layer_0
  62
7
  66
1
  10
0
  20
0
  30
0
  0
VERTEX
  5
195
  8
Layer_0
  10
89.089561
  20
186.06937
  0
VERTEX
  5
196
  8
Layer_0
  10
91.589561
  20
186.06937
  0
SEQEND
  0
POLYLINE
  5
198
  8
Layer_0
  62
7
  66
1
  10
0
  20
0
  30
0
  0
VERTEX
  5
198
  8
Layer_0
  10
91.589561
  20
127.50497
  0
VERTEX
  5
199
  8
Layer_0
  10
89.089561
  20
127.50497
  0
SEQEND
  0
POLYLINE
  5
19b
  8
Layer_0
  62
7
  66
1
  10
0
  20
0
  30
0
  0
VERTEX
  5
19b
  8
Layer_0
  10
89.089561
  20
166.71321
  0
VERTEX
  5
19c
  8
Layer_0
  10
86.589561
  20
166.71321
  0
SEQEND
  0
POLYLINE
  5
19e
  8
Layer_0
  62
7
  66
1
  10
0
  20
0
  30
0
  0
VERTEX
  5
19e
  8
Layer_0
  10
85.589561
  20
186.06937
  0
VERTEX
  5
19f
  8
Layer_0
  10
88.089561
  20
186.06937
  0
SEQEND
  0
POLYLINE
  5
1a1
  8
Layer_0
  62
7
  66
1
  10
0
  20
0
  30
0
  0
VERTEX
  5
1a1
  8
Layer_0
  10
85.589561
  20
166.71321
  0
VERTEX
  5
1a2
  8
Layer_0
  10
83.089561
  20
166.71321
  0
SEQEND
  0
POLYLINE
  5
1a4
  8
Layer_0
  62
7
  66
1
  10
0
  20
0
  30
0
  0
VERTEX
  5
1a4
  8
Layer_0
  10
82.089561
  20
166.71321
  0
VERTEX
  5
1a5
  8
Layer_0
  10
79.589561
  20
166.71321
  0
SEQEND
  0
POLYLINE
  5
1a7
  8
Layer_0
  62
7
  66
1
  10
0
  20
0
  30
0
  0
VERTEX
  5
1a7
  8
Layer_0
  10
78.589561
  20
186.06937
  0
VERTEX
  5
1a8
  8
Layer_0
  10
81.089561
  20
186.06937
  0
SEQEND
  0
POLYLINE
  5
1aa
  8
Layer_0
  62
7
  66
1
  10
0
  20
0
  30
0
  0
VERTEX
  5
1aa
  8
Layer_0
  10
81.089561
  20
127.50497
  0
VERTEX
  5
1ab
  8
Layer_0
  10
78.589561
  20
127.50497
  0
SEQEND
  0
POLYLINE
  5
1ad
  8
Layer_0
  62
7
  66
1
  10
0
  20
0
  30
0
  0
VERTEX
  5
1ad
  8
Layer_0
  10
76.089561
  20
166.71321
  0
VERTEX
  5
1ae
  8
Layer_0
  10
78.589561
  20
166.71321
  0
SEQEND
  0
POLYLINE
  5
1b0
  8
Layer_0
  62
7
  66
1
  10
0
  20
0
  30
0
  0
VERTEX
  5
1b0
  8
Layer_0
  10
72.589561
  20
166.71321
  0
VERTEX
  5
1b1
  8
Layer_0
  10
75.089561
  20
166.71321
  0
SEQEND
  0
POLYLINE
  5
1b3
  8
Layer_0
  62
7
  66
1
  10
0
  20
0
  30
0
  0
VERTEX
  5
1b3
  8
Layer_0
  10
71.589561
  20
127.50497
  0
VERTEX
  5
1b4
  8
Layer_0
  10
74.089561
  20
127.50497
  0
SEQEND
  0
POLYLINE
  5
1b6
  8
Layer_0
  62
7
  66
1
  10
0
  20
0
  30
0
  0
VERTEX
  5
1b6
  8
Layer_0
  10
105.58956
  20
186.06937
  0
VERTEX
  5
1b7
  8
Layer_0
  10
103.08956
  20
186.06937
  0
SEQEND
  0
POLYLINE
  5
1b9
  8
Layer_0
  62
7
  66
1
  10
0
  20
0
  30
0
  0
VERTEX
  5
1b9
  8
Layer_0
  10
96.089561
  20
186.06937
  0
VERTEX
  5
1ba
  8
Layer_0
  10
98.589561
  20
186.06937
  0
SEQEND
  0
POLYLINE
  5
1bc
  8
Layer_0
  62
7
  66
1
  10
0
  20
0
  30
0
  0
VERTEX
  5
1bc
  8
Layer_0
  10
92.589561
  20
127.50497
  0
VERTEX
  5
1bd
  8
Layer_0
  10
95.089561
  20
127.50497
  0
SEQEND
  0
POLYLINE
  5
1bf
  8
Layer_0
  62
7
  66
1
  10
0
  20
0
  30
0
  0
VERTEX
  5
1bf
  8
Layer_0
  10
82.089561
  20
127.50497
  0
VERTEX
  5
1c0
  8
Layer_0
  10
84.589561
  20
127.50497
  0
SEQEND
  0
POLYLINE
  5
1c2
  8
Layer_0
  62
7
  66
1
  10
0
  20
0
  30
0
  0
VERTEX
  5
1c2
  8
Layer_0
  10
77.589561
  20
186.06937
  0
VERTEX
  5
1c3
  8
Layer_0
  10
75.089561
  20
186.06937
  0
SEQEND
  0
POLYLINE
  5
1c5
  8
Layer_0
  62
7
  66
1
  10
0
  20
0
  30
0
  0
VERTEX
  5
1c5
  8
Layer_0
  10
75.089561
  20
127.50497
  0
VERTEX
  5
1c6
  8
Layer_0
  10
77.589561
  20
127.50497
  0
SEQEND
  0
POLYLINE
  5
1c8
  8
Layer_0
  62
7
  66
1
  10
0
  20
0
  30
0
  0
VERTEX
  5
1c8
  8
Layer_0
  10
71.589561
  20
186.06937
  0
VERTEX
  5
1c9
  8
Layer_0
  10
74.089561
  20
186.06937
  0
SEQEND
  0
POLYLINE
  5
1cb
  8
Layer_0
  62
7
  66
1
  10
0
  20
0
  30
0
  0
VERTEX
  5
1cb
  8
Layer_0
  10
106.58956
  20
127.50497
  0
VERTEX
  5
1cc
  8
Layer_0
  10
109.08956
  20
127.50497
  0
SEQEND
  0
POLYLINE
  5
1ce
  8
Layer_0
  62
7
  66
1
  10
0
  20
0
  30
0
  0
VERTEX
  5
1ce
  8
Layer_0
  10
95.089561
  20
186.06937
  0
VERTEX
  5
1cf
  8
Layer_0
  10
92.589561
  20
186.06937
  0
SEQEND
  0
POLYLINE
  5
1d1
  8
Layer_0
  62
7
  66
1
  10
0
  20
0
  30
0
  0
VERTEX
  5
1d1
  8
Layer_0
  10
85.589561
  20
127.50497
  0
VERTEX
  5
1d2
  8
Layer_0
  10
88.089561
  20
127.50497
  0
SEQEND
  0
POLYLINE
  5
1d4
  8
Layer_0
  62
7
  66
1
  10
0
  20
0
  30
0
  0
VERTEX
  5
1d4
  8
Layer_0
  10
84.589561
  20
186.06937
  0
VERTEX
  5
1d5
  8
Layer_0
  10
82.089561
  20
186.06937
  0
SEQEND
  0
POLYLINE
  5
1d7
  8
Layer_0
  62
7
  66
1
  10
0
  20
0
  30
0
  0
VERTEX
  5
1d7
  8
Layer_0
  10
100.99567
  20
206.17741
  0
VERTEX
  5
1d8
  8
Layer_0
  10
98.995674
  20
206.17741
  0
SEQEND
  0
POLYLINE
  5
1da
  8
Layer_0
  62
7
  66
1
  10
0
  20
0
  30
0
  0
VERTEX
  5
1da
  8
Layer_0
  10
98.995674
  20
206.17741
  0
VERTEX
  5
1db
  8
Layer_0
  10
71.589561
  20
206.17741
  0
SEQEND
  0
POLYLINE
  5
1dd
  8
Layer_0
  62
7
  66
1
  10
0
  20
0
  30
0
  0
VERTEX
  5
1dd
  8
Layer_0
  10
71.589561
  20
206.17741
  0
VERTEX
  5
1de
  8
Layer_0
  10
71.589561
  20
205.42552
  0
SEQEND
  0
POLYLINE
  5
1e0
  8
Layer_0
  62
7
  66
1
  10
0
  20
0
  30
0
  0
VERTEX
  5
1e0
  8
Layer_0
  10
71.589561
  20
205.42552
  0
VERTEX
  5
1e1
  8
Layer_0
  10
71.589561
  20
166.71321
  0
SEQEND
  0
POLYLINE
  5
1e3
  8
Layer_0
  62
7
  66
1
  10
0
  20
0
  30
0
  0
VERTEX
  5
1e3
  8
Layer_0
  10
71.589561
  20
166.71321
  0
VERTEX
  5
1e4
  8
Layer_0
  10
71.589561
  20
164.71321
  0
SEQEND
  0
POLYLINE
  5
1e6
  8
Layer_0
  62
7
  66
1
  10
0
  20
0
  30
0
  0
VERTEX
  5
1e6
  8
Layer_0
  10
71.589561
  20
205.42552
  42
0.41421356
  0
VERTEX
  5
1e7
  8
Layer_0
  10
66.589561
  20
210.42552
  0
SEQEND
  0
POLYLINE
  5
1e9
  8
Layer_0
  62
7
  66
1
  10
0
  20
0
  30
0
  0
VERTEX
  5
1e9
  8
Layer_0
  10
66.589561
  20
210.42552
  0
VERTEX
  5
1ea
  8
Layer_0
  10
56.881081
  20
210.42552
  0
SEQEND
  0
POLYLINE
  5
1ec
  8
Layer_0
  62
7
  66
1
  10
0
  20
0
  30
0
  0
VERTEX
  5
1ec
  8
Layer_0
  10
56.881081
  20
210.42552
  42
0.41421356
  0
VERTEX
  5
1ed
  8
Layer_0
  10
51.881081
  20
205.42552
  0
SEQEND
  0
POLYLINE
  5
1ef
  8
Layer_0
  62
7
  66
1
  10
0
  20
0
  30
0
  0
VERTEX
  5
1ef
  8
Layer_0
  10
51.881081
  20
205.42552
  0
VERTEX
  5
1f0
  8
Layer_0
  10
51.881081
  20
166.71321
  0
SEQEND
  0
POLYLINE
  5
1f2
  8
Layer_0
  62
7
  66
1
  10
0
  20
0
  30
0
  0
VERTEX
  5
1f2
  8
Layer_0
  10
51.881081
  20
166.71321
  0
VERTEX
  5
1f3
  8
Layer_0
  10
51.881081
  20
164.71321
  0
SEQEND
  0
POLYLINE
  5
1f5
  8
Layer_0
  62
7
  66
1
  10
0
  20
0
  30
0
  0
VERTEX
  5
1f5
  8
Layer_0
  10
53.881081
  20
166.71321
  0
VERTEX
  5
1f6
  8
Layer_0
  10
51.881081
  20
166.71321
  0
SEQEND
  0
POLYLINE
  5
1f8
  8
Layer_0
  62
7
  66
1
  10
0
  20
0
  30
0
  0
VERTEX
  5
1f8
  8
Layer_0
  10
51.881081
  20
166.71321
  0
VERTEX
  5
1f9
  8
Layer_0
  10
27.987762
  20
166.71321
  0
SEQEND
  0
POLYLINE
  5
1fb
  8
Layer_0
  62
7
  66
1
  10
0
  20
0
  30
0
  0
VERTEX
  5
1fb
  8
Layer_0
  10
27.987762
  20
166.71321
  42
0.41421366
  0
VERTEX
  5
1fc
  8
Layer_0
  10
22.987762
  20
161.71321
  0
SEQEND
  0
POLYLINE
  5
1fe
  8
Layer_0
  62
7
  66
1
  10
0
  20
0
  30
0
  0
VERTEX
  5
1fe
  8
Layer_0
  10
22.987762
  20
161.71321
  0
VERTEX
  5
1ff
  8
Layer_0
  10
22.987762
  20
152.10497
  0
SEQEND
  0
POLYLINE
  5
201
  8
Layer_0
  62
7
  66
1
  10
0
  20
0
  30
0
  0
VERTEX
  5
201
  8
Layer_0
  10
22.987762
  20
152.10497
  42
0.41112271
  0
VERTEX
  5
202
  8
Layer_0
  10
27.934944
  20
147.10526
  0
SEQEND
  0
POLYLINE
  5
204
  8
Layer_0
  62
7
  66
1
  10
0
  20
0
  30
0
  0
VERTEX
  5
204
  8
Layer_0
  10
27.934944
  20
147.10526
  0
VERTEX
  5
205
  8
Layer_0
  10
51.881081
  20
146.85226
  0
SEQEND
  0
POLYLINE
  5
207
  8
Layer_0
  62
7
  66
1
  10
0
  20
0
  30
0
  0
VERTEX
  5
207
  8
Layer_0
  10
51.881081
  20
146.85226
  0
VERTEX
  5
208
  8
Layer_0
  10
53.881081
  20
146.85226
  0
SEQEND
  0
POLYLINE
  5
20a
  8
Layer_0
  62
7
  66
1
  10
0
  20
0
  30
0
  0
VERTEX
  5
20a
  8
Layer_0
  10
98.995674
  20
206.17741
  0
VERTEX
  5
20b
  8
Layer_0
  10
98.995674
  20
210.96231
  0
SEQEND
  0
POLYLINE
  5
20d
  8
Layer_0
  62
7
  66
1
  10
0
  20
0
  30
0
  0
VERTEX
  5
20d
  8
Layer_0
  10
98.995674
  20
210.96231
  42
-0.41421356
  0
VERTEX
  5
20e
  8
Layer_0
  10
108.99567
  20
220.96231
  0
SEQEND
  0
POLYLINE
  5
210
  8
Layer_0
  62
7
  66
1
  10
0
  20
0
  30
0
  0
VERTEX
  5
210
  8
Layer_0
  10
108.99567
  20
220.96231
  0
VERTEX
  5
211
  8
Layer_0
  10
108.28447
  20
220.96231
  0
SEQEND
  0
POLYLINE
  5
213
  8
Layer_0
  62
7
  66
1
  10
0
  20
0
  30
0
  0
VERTEX
  5
213
  8
Layer_0
  10
108.28447
  20
220.96231
  42
-0.41421316
  0
VERTEX
  5
214
  8
Layer_0
  10
118.28447
  20
210.96231
  0
SEQEND
  0
POLYLINE
  5
216
  8
Layer_0
  62
7
  66
1
  10
0
  20
0
  30
0
  0
VERTEX
  5
216
  8
Layer_0
  10
118.28447
  20
210.96231
  0
VERTEX
  5
217
  8
Layer_0
  10
118.28447
  20
206.17741
  0
SEQEND
  0
POLYLINE
  5
219
  8
Layer_0
  62
7
  66
1
  10
0
  20
0
  30
0
  0
VERTEX
  5
219
  8
Layer_0
  10
118.28447
  20
206.17741
  0
VERTEX
  5
21a
  8
Layer_0
  10
135.07677
  20
206.17741
  0
SEQEND
  0
POLYLINE
  5
21c
  8
Layer_0
  62
7
  66
1
  10
0
  20
0
  30
0
  0
VERTEX
  5
21c
  8
Layer_0
  10
135.07677
  20
206.17741
  0
VERTEX
  5
21d
  8
Layer_0
  10
137.07677
  20
206.17741
  0
SEQEND
  0
POLYLINE
  5
21f
  8
Layer_0
  62
7
  66
1
  10
0
  20
0
  30
0
  0
VERTEX
  5
21f
  8
Layer_0
  10
135.07677
  20
206.17741
  0
VERTEX
  5
220
  8
Layer_0
  10
135.07677
  20
211.01389
  0
SEQEND
  0
POLYLINE
  5
222
  8
Layer_0
  62
7
  66
1
  10
0
  20
0
  30
0
  0
VERTEX
  5
222
  8
Layer_0
  10
135.07677
  20
211.01389
  42
-0.41421351
  0
VERTEX
  5
223
  8
Layer_0
  10
145.07677
  20
221.01389
  0
SEQEND
  0
POLYLINE
  5
225
  8
Layer_0
  62
7
  66
1
  10
0
  20
0
  30
0
  0
VERTEX
  5
225
  8
Layer_0
  10
145.07677
  20
221.01389
  0
VERTEX
  5
226
  8
Layer_0
  10
144.84451
  20
221.01389
  0
SEQEND
  0
POLYLINE
  5
228
  8
Layer_0
  62
7
  66
1
  10
0
  20
0
  30
0
  0
VERTEX
  5
228
  8
Layer_0
  10
144.84451
  20
221.01389
  42
-0.41421356
  0
VERTEX
  5
229
  8
Layer_0
  10
154.84451
  20
211.01389
  0
SEQEND
  0
POLYLINE
  5
22b
  8
Layer_0
  62
7
  66
1
  10
0
  20
0
  30
0
  0
VERTEX
  5
22b
  8
Layer_0
  10
154.84451
  20
211.01389
  0
VERTEX
  5
22c
  8
Layer_0
  10
154.84451
  20
206.17741
  0
SEQEND
  0
POLYLINE
  5
22e
  8
Layer_0
  62
7
  66
1
  10
0
  20
0
  30
0
  0
VERTEX
  5
22e
  8
Layer_0
  10
154.84451
  20
206.17741
  0
VERTEX
  5
22f
  8
Layer_0
  10
152.57677
  20
206.17741
  0
SEQEND
  0
POLYLINE
  5
231
  8
Layer_0
  62
7
  66
1
  10
0
  20
0
  30
0
  0
VERTEX
  5
231
  8
Layer_0
  10
154.84451
  20
206.17741
  0
VERTEX
  5
232
  8
Layer_0
  10
169.6387
  20
206.17741
  0
SEQEND
  0
POLYLINE
  5
234
  8
Layer_0
  62
7
  66
1
  10
0
  20
0
  30
0
  0
VERTEX
  5
234
  8
Layer_0
  10
169.6387
  20
206.17741
  0
VERTEX
  5
235
  8
Layer_0
  10
169.6387
  20
176.5472
  0
SEQEND
  0
POLYLINE
  5
237
  8
Layer_0
  62
7
  66
1
  10
0
  20
0
  30
0
  0
VERTEX
  5
237
  8
Layer_0
  10
169.6387
  20
176.5472
  0
VERTEX
  5
238
  8
Layer_0
  10
159.1752
  20
166.71321
  0
SEQEND
  0
POLYLINE
  5
23a
  8
Layer_0
  62
7
  66
1
  10
0
  20
0
  30
0
  0
VERTEX
  5
23a
  8
Layer_0
  10
159.1752
  20
166.71321
  0
VERTEX
  5
23b
  8
Layer_0
  10
159.09402
  20
166.71321
  0
SEQEND
  0
POLYLINE
  5
23d
  8
Layer_0
  62
7
  66
1
  10
0
  20
0
  30
0
  0
VERTEX
  5
23d
  8
Layer_0
  10
169.6387
  20
206.17741
  0
VERTEX
  5
23e
  8
Layer_0
  10
158.2097
  20
206.17741
  0
SEQEND
  0
POLYLINE
  5
240
  8
Layer_0
  62
7
  66
1
  10
0
  20
0
  30
0
  0
VERTEX
  5
240
  8
Layer_0
  10
158.2097
  20
206.17741
  42
-0.41421348
  0
VERTEX
  5
241
  8
Layer_0
  10
155.2097
  20
209.17741
  0
SEQEND
  0
POLYLINE
  5
243
  8
Layer_0
  62
7
  66
1
  10
0
  20
0
  30
0
  0
VERTEX
  5
243
  8
Layer_0
  10
155.2097
  20
209.17741
  0
VERTEX
  5
244
  8
Layer_0
  10
155.2097
  20
220.29333
  0
SEQEND
  0
POLYLINE
  5
246
  8
Layer_0
  62
7
  66
1
  10
0
  20
0
  30
0
  0
VERTEX
  5
246
  8
Layer_0
  10
155.2097
  20
220.29333
  42
-0.41421351
  0
VERTEX
  5
247
  8
Layer_0
  10
160.2097
  20
225.29333
  0
SEQEND
  0
POLYLINE
  5
249
  8
Layer_0
  62
7
  66
1
  10
0
  20
0
  30
0
  0
VERTEX
  5
249
  8
Layer_0
  10
160.2097
  20
225.29333
  0
VERTEX
  5
24a
  8
Layer_0
  10
169.12943
  20
225.29333
  0
SEQEND
  0
POLYLINE
  5
24c
  8
Layer_0
  62
7
  66
1
  10
0
  20
0
  30
0
  0
VERTEX
  5
24c
  8
Layer_0
  10
169.12943
  20
225.29333
  0
VERTEX
  5
24d
  8
Layer_0
  10
169.12943
  20
235.8425
  0
SEQEND
  0
POLYLINE
  5
24f
  8
Layer_0
  62
7
  66
1
  10
0
  20
0
  30
0
  0
VERTEX
  5
24f
  8
Layer_0
  10
169.12943
  20
235.8425
  0
VERTEX
  5
250
  8
Layer_0
  10
257.45407
  20
235.8425
  0
SEQEND
  0
POLYLINE
  5
252
  8
Layer_0
  62
7
  66
1
  10
0
  20
0
  30
0
  0
VERTEX
  5
252
  8
Layer_0
  10
257.45407
  20
235.8425
  0
VERTEX
  5
253
  8
Layer_0
  10
257.45407
  20
176.54601
  0
SEQEND
  0
POLYLINE
  5
255
  8
Layer_0
  62
7
  66
1
  10
0
  20
0
  30
0
  0
VERTEX
  5
255
  8
Layer_0
  10
257.45407
  20
206.19426
  0
VERTEX
  5
256
  8
Layer_0
  10
257.45435
  20
206.03566
  0
SEQEND
  0
POLYLINE
  5
258
  8
Layer_0
  62
7
  66
1
  10
0
  20
0
  30
0
  0
VERTEX
  5
258
  8
Layer_0
  10
257.45435
  20
206.03566
  42
-0.19913418
  0
VERTEX
  5
259
  8
Layer_0
  10
258.91577
  20
209.57671
  0
SEQEND
  0
POLYLINE
  5
25b
  8
Layer_0
  62
7
  66
1
  10
0
  20
0
  30
0
  0
VERTEX
  5
25b
  8
Layer_0
  10
258.91577
  20
209.57671
  42
-0.19913363
  0
VERTEX
  5
25c
  8
Layer_0
  10
262.45432
  20
211.04419
  0
SEQEND
  0
POLYLINE
  5
25e
  8
Layer_0
  62
7
  66
1
  10
0
  20
0
  30
0
  0
VERTEX
  5
25e
  8
Layer_0
  10
262.45432
  20
211.04419
  0
VERTEX
  5
25f
  8
Layer_0
  10
272.01224
  20
211.04419
  0
SEQEND
  0
POLYLINE
  5
261
  8
Layer_0
  62
7
  66
1
  10
0
  20
0
  30
0
  0
VERTEX
  5
261
  8
Layer_0
  10
272.01224
  20
211.04419
  42
-0.41421356
  0
VERTEX
  5
262
  8
Layer_0
  10
277.01224
  20
206.04419
  0
SEQEND
  0
POLYLINE
  5
264
  8
Layer_0
  62
7
  66
1
  10
0
  20
0
  30
0
  0
VERTEX
  5
264
  8
Layer_0
  10
277.01224
  20
206.04419
  0
VERTEX
  5
265
  8
Layer_0
  10
277.01224
  20
108.34623
  0
SEQEND
  0
POLYLINE
  5
267
  8
Layer_0
  62
7
  66
1
  10
0
  20
0
  30
0
  0
VERTEX
  5
267
  8
Layer_0
  10
277.01224
  20
108.34623
  42
-0.41421356
  0
VERTEX
  5
268
  8
Layer_0
  10
272.01224
  20
103.34623
  0
SEQEND
  0
POLYLINE
  5
26a
  8
Layer_0
  62
7
  66
1
  10
0
  20
0
  30
0
  0
VERTEX
  5
26a
  8
Layer_0
  10
272.01224
  20
103.34623
  0
VERTEX
  5
26b
  8
Layer_0
  10
262.45407
  20
103.34623
  0
SEQEND
  0
POLYLINE
  5
26d
  8
Layer_0
  62
7
  66
1
  10
0
  20
0
  30
0
  0
VERTEX
  5
26d
  8
Layer_0
  10
262.45407
  20
103.34623
  42
-0.41421356
  0
VERTEX
  5
26e
  8
Layer_0
  10
257.45407
  20
108.34623
  0
SEQEND
  0
POLYLINE
  5
270
  8
Layer_0
  62
7
  66
1
  10
0
  20
0
  30
0
  0
VERTEX
  5
270
  8
Layer_0
  10
257.45407
  20
108.34623
  0
VERTEX
  5
271
  8
Layer_0
  10
257.45407
  20
137.15752
  0
SEQEND
  0
POLYLINE
  5
273
  8
Layer_0
  62
7
  66
1
  10
0
  20
0
  30
0
  0
VERTEX
  5
273
  8
Layer_0
  10
257.45407
  20
108.34623
  0
VERTEX
  5
274
  8
Layer_0
  10
257.45407
  20
78.66478
  0
SEQEND
  0
POLYLINE
  5
276
  8
Layer_0
  62
7
  66
1
  10
0
  20
0
  30
0
  0
VERTEX
  5
276
  8
Layer_0
  10
257.45407
  20
78.66478
  0
VERTEX
  5
277
  8
Layer_0
  10
257.53845
  20
78.66478
  0
SEQEND
  0
POLYLINE
  5
279
  8
Layer_0
  62
7
  66
1
  10
0
  20
0
  30
0
  0
VERTEX
  5
279
  8
Layer_0
  10
257.53845
  20
78.66478
  0
VERTEX
  5
27a
  8
Layer_0
  10
244.81253
  20
78.66478
  0
SEQEND
  0
POLYLINE
  5
27c
  8
Layer_0
  62
7
  66
1
  10
0
  20
0
  30
0
  0
VERTEX
  5
27c
  8
Layer_0
  10
244.81253
  20
78.66478
  0
VERTEX
  5
27d
  8
Layer_0
  10
244.81253
  20
74.157516
  0
SEQEND
  0
POLYLINE
  5
27f
  8
Layer_0
  62
7
  66
1
  10
0
  20
0
  30
0
  0
VERTEX
  5
27f
  8
Layer_0
  10
244.81253
  20
74.157516
  42
-0.41421356
  0
VERTEX
  5
280
  8
Layer_0
  10
234.81253
  20
64.157516
  0
SEQEND
  0
POLYLINE
  5
282
  8
Layer_0
  62
7
  66
1
  10
0
  20
0
  30
0
  0
VERTEX
  5
282
  8
Layer_0
  10
234.81253
  20
64.157516
  0
VERTEX
  5
283
  8
Layer_0
  10
235.0116
  20
64.157516
  0
SEQEND
  0
POLYLINE
  5
285
  8
Layer_0
  62
7
  66
1
  10
0
  20
0
  30
0
  0
VERTEX
  5
285
  8
Layer_0
  10
235.0116
  20
64.157516
  42
-0.41421356
  0
VERTEX
  5
286
  8
Layer_0
  10
225.0116
  20
74.157516
  0
SEQEND
  0
POLYLINE
  5
288
  8
Layer_0
  62
7
  66
1
  10
0
  20
0
  30
0
  0
VERTEX
  5
288
  8
Layer_0
  10
225.0116
  20
74.157516
  0
VERTEX
  5
289
  8
Layer_0
  10
225.0116
  20
78.66478
  0
SEQEND
  0
POLYLINE
  5
28b
  8
Layer_0
  62
7
  66
1
  10
0
  20
0
  30
0
  0
VERTEX
  5
28b
  8
Layer_0
  10
225.0116
  20
78.66478
  0
VERTEX
  5
28c
  8
Layer_0
  10
198.79646
  20
78.66478
  0
SEQEND
  0
POLYLINE
  5
28e
  8
Layer_0
  62
7
  66
1
  10
0
  20
0
  30
0
  0
VERTEX
  5
28e
  8
Layer_0
  10
198.79646
  20
78.66478
  0
VERTEX
  5
28f
  8
Layer_0
  10
198.79646
  20
74.5606
  0
SEQEND
  0
POLYLINE
  5
291
  8
Layer_0
  62
7
  66
1
  10
0
  20
0
  30
0
  0
VERTEX
  5
291
  8
Layer_0
  10
198.79646
  20
74.5606
  42
-0.41421356
  0
VERTEX
  5
292
  8
Layer_0
  10
188.79646
  20
64.5606
  0
SEQEND
  0
POLYLINE
  5
294
  8
Layer_0
  62
7
  66
1
  10
0
  20
0
  30
0
  0
VERTEX
  5
294
  8
Layer_0
  10
188.79646
  20
64.5606
  0
VERTEX
  5
295
  8
Layer_0
  10
188.93185
  20
64.5606
  0
SEQEND
  0
POLYLINE
  5
297
  8
Layer_0
  62
7
  66
1
  10
0
  20
0
  30
0
  0
VERTEX
  5
297
  8
Layer_0
  10
188.93185
  20
64.5606
  42
-0.41421356
  0
VERTEX
  5
298
  8
Layer_0
  10
178.93185
  20
74.5606
  0
SEQEND
  0
POLYLINE
  5
29a
  8
Layer_0
  62
7
  66
1
  10
0
  20
0
  30
0
  0
VERTEX
  5
29a
  8
Layer_0
  10
178.93185
  20
74.5606
  0
VERTEX
  5
29b
  8
Layer_0
  10
178.93184
  20
78.66478
  0
SEQEND
  0
POLYLINE
  5
29d
  8
Layer_0
  62
7
  66
1
  10
0
  20
0
  30
0
  0
VERTEX
  5
29d
  8
Layer_0
  10
178.93184
  20
78.66478
  0
VERTEX
  5
29e
  8
Layer_0
  10
168.64085
  20
78.66478
  0
SEQEND
  0
POLYLINE
  5
2a0
  8
Layer_0
  62
7
  66
1
  10
0
  20
0
  30
0
  0
VERTEX
  5
2a0
  8
Layer_0
  10
168.64085
  20
78.66478
  0
VERTEX
  5
2a1
  8
Layer_0
  10
168.64085
  20
88.473366
  0
SEQEND
  0
POLYLINE
  5
2a3
  8
Layer_0
  62
7
  66
1
  10
0
  20
0
  30
0
  0
VERTEX
  5
2a3
  8
Layer_0
  10
168.64085
  20
88.473366
  0
VERTEX
  5
2a4
  8
Layer_0
  10
154.90355
  20
88.473366
  0
SEQEND
  0
POLYLINE
  5
2a6
  8
Layer_0
  62
7
  66
1
  10
0
  20
0
  30
0
  0
VERTEX
  5
2a6
  8
Layer_0
  10
154.90355
  20
88.473366
  0
VERTEX
  5
2a7
  8
Layer_0
  10
154.90355
  20
83.817894
  0
SEQEND
  0
POLYLINE
  5
2a9
  8
Layer_0
  62
7
  66
1
  10
0
  20
0
  30
0
  0
VERTEX
  5
2a9
  8
Layer_0
  10
154.90355
  20
83.817894
  42
-0.41421356
  0
VERTEX
  5
2aa
  8
Layer_0
  10
144.90355
  20
73.817894
  0
SEQEND
  0
POLYLINE
  5
2ac
  8
Layer_0
  62
7
  66
1
  10
0
  20
0
  30
0
  0
VERTEX
  5
2ac
  8
Layer_0
  10
144.90355
  20
73.817894
  0
VERTEX
  5
2ad
  8
Layer_0
  10
144.59113
  20
73.817894
  0
SEQEND
  0
POLYLINE
  5
2af
  8
Layer_0
  62
7
  66
1
  10
0
  20
0
  30
0
  0
VERTEX
  5
2af
  8
Layer_0
  10
144.59113
  20
73.817894
  42
-0.41421351
  0
VERTEX
  5
2b0
  8
Layer_0
  10
134.59113
  20
83.817894
  0
SEQEND
  0
POLYLINE
  5
2b2
  8
Layer_0
  62
7
  66
1
  10
0
  20
0
  30
0
  0
VERTEX
  5
2b2
  8
Layer_0
  10
134.59113
  20
83.817894
  0
VERTEX
  5
2b3
  8
Layer_0
  10
134.59113
  20
88.473366
  0
SEQEND
  0
POLYLINE
  5
2b5
  8
Layer_0
  62
7
  66
1
  10
0
  20
0
  30
0
  0
VERTEX
  5
2b5
  8
Layer_0
  10
134.59113
  20
88.473366
  0
VERTEX
  5
2b6
  8
Layer_0
  10
125.10322
  20
88.473366
  0
SEQEND
  0
POLYLINE
  5
2b8
  8
Layer_0
  62
7
  66
1
  10
0
  20
0
  30
0
  0
VERTEX
  5
2b8
  8
Layer_0
  10
125.10322
  20
88.473366
  42
-0.41421356
  0
VERTEX
  5
2b9
  8
Layer_0
  10
120.10322
  20
93.473366
  0
SEQEND
  0
POLYLINE
  5
2bb
  8
Layer_0
  62
7
  66
1
  10
0
  20
0
  30
0
  0
VERTEX
  5
2bb
  8
Layer_0
  10
120.10322
  20
93.473366
  0
VERTEX
  5
2bc
  8
Layer_0
  10
120.10322
  20
103.14553
  0
SEQEND
  0
POLYLINE
  5
2be
  8
Layer_0
  62
7
  66
1
  10
0
  20
0
  30
0
  0
VERTEX
  5
2be
  8
Layer_0
  10
120.10322
  20
103.14553
  42
-0.41421356
  0
VERTEX
  5
2bf
  8
Layer_0
  10
125.10322
  20
108.14553
  0
SEQEND
  0
POLYLINE
  5
2c1
  8
Layer_0
  62
7
  66
1
  10
0
  20
0
  30
0
  0
VERTEX
  5
2c1
  8
Layer_0
  10
125.10322
  20
108.14553
  0
VERTEX
  5
2c2
  8
Layer_0
  10
168.90387
  20
108.14553
  0
SEQEND
  0
POLYLINE
  5
2c4
  8
Layer_0
  62
7
  66
1
  10
0
  20
0
  30
0
  0
VERTEX
  5
2c4
  8
Layer_0
  10
168.90387
  20
108.14553
  0
VERTEX
  5
2c5
  8
Layer_0
  10
168.90387
  20
137.19502
  0
SEQEND
  0
POLYLINE
  5
2c7
  8
Layer_0
  62
7
  66
1
  10
0
  20
0
  30
0
  0
VERTEX
  5
2c7
  8
Layer_0
  10
168.90387
  20
137.19502
  0
VERTEX
  5
2c8
  8
Layer_0
  10
159.08957
  20
146.85226
  0
SEQEND
  0
POLYLINE
  5
2ca
  8
Layer_0
  62
7
  66
1
  10
0
  20
0
  30
0
  0
VERTEX
  5
2ca
  8
Layer_0
  10
125.10322
  20
108.14553
  0
VERTEX
  5
2cb
  8
Layer_0
  10
71.58963
  20
108.14553
  0
SEQEND
  0
POLYLINE
  5
2cd
  8
Layer_0
  62
7
  66
1
  10
0
  20
0
  30
0
  0
VERTEX
  5
2cd
  8
Layer_0
  10
71.58963
  20
108.14553
  0
VERTEX
  5
2ce
  8
Layer_0
  10
71.589561
  20
108.15769
  0
SEQEND
  0
POLYLINE
  5
2d0
  8
Layer_0
  62
7
  66
1
  10
0
  20
0
  30
0
  0
VERTEX
  5
2d0
  8
Layer_0
  10
71.589561
  20
108.15769
  0
VERTEX
  5
2d1
  8
Layer_0
  10
71.589561
  20
146.85226
  0
SEQEND
  0
POLYLINE
  5
2d3
  8
Layer_0
  62
7
  66
1
  10
0
  20
0
  30
0
  0
VERTEX
  5
2d3
  8
Layer_0
  10
71.589561
  20
108.15769
  42
-0.40404514
  0
VERTEX
  5
2d4
  8
Layer_0
  10
66.412071
  20
103.15752
  0
SEQEND
  0
POLYLINE
  5
2d6
  8
Layer_0
  62
7
  66
1
  10
0
  20
0
  30
0
  0
VERTEX
  5
2d6
  8
Layer_0
  10
66.412071
  20
103.15752
  0
VERTEX
  5
2d7
  8
Layer_0
  10
56.881081
  20
103.15752
  0
SEQEND
  0
POLYLINE
  5
2d9
  8
Layer_0
  62
7
  66
1
  10
0
  20
0
  30
0
  0
VERTEX
  5
2d9
  8
Layer_0
  10
56.881081
  20
103.15752
  42
-0.41421356
  0
VERTEX
  5
2da
  8
Layer_0
  10
51.881081
  20
108.15752
  0
SEQEND
  0
POLYLINE
  5
2dc
  8
Layer_0
  62
7
  66
1
  10
0
  20
0
  30
0
  0
VERTEX
  5
2dc
  8
Layer_0
  10
51.881081
  20
108.15752
  0
VERTEX
  5
2dd
  8
Layer_0
  10
51.881081
  20
146.85226
  0
SEQEND
  0
POLYLINE
  5
2df
  8
Layer_0
  62
7
  66
1
  10
0
  20
0
  30
0
  0
VERTEX
  5
2df
  8
Layer_0
  10
86.432968
  20
118.35812
  0
VERTEX
  5
2e0
  8
Layer_0
  10
96.813614
  20
118.35812
  0
SEQEND
  0
POLYLINE
  5
2e2
  8
Layer_0
  62
7
  66
1
  10
0
  20
0
  30
0
  0
VERTEX
  5
2e2
  8
Layer_0
  10
91.313614
  20
123.50813
  0
VERTEX
  5
2e3
  8
Layer_0
  10
91.313614
  20
113.20813
  0
SEQEND
  0
POLYLINE
  5
2e5
  8
Layer_0
  62
7
  66
1
  10
0
  20
0
  30
0
  0
VERTEX
  5
2e5
  8
Layer_0
  10
32.91362
  20
162.24142
  0
VERTEX
  5
2e6
  8
Layer_0
  10
40.316429
  20
162.24142
  0
SEQEND
  0
POLYLINE
  5
2e8
  8
Layer_0
  62
7
  66
1
  10
0
  20
0
  30
0
  0
VERTEX
  5
2e8
  8
Layer_0
  10
40.316429
  20
162.24142
  42
-0.29959126
  0
VERTEX
  5
2e9
  8
Layer_0
  10
43.479019
  20
157.437
  0
SEQEND
  0
POLYLINE
  5
2eb
  8
Layer_0
  62
7
  66
1
  10
0
  20
0
  30
0
  0
VERTEX
  5
2eb
  8
Layer_0
  10
43.479019
  20
157.437
  42
-0.29959132
  0
VERTEX
  5
2ec
  8
Layer_0
  10
40.316429
  20
152.63257
  0
SEQEND
  0
POLYLINE
  5
2ee
  8
Layer_0
  62
7
  66
1
  10
0
  20
0
  30
0
  0
VERTEX
  5
2ee
  8
Layer_0
  10
40.316429
  20
152.63257
  0
VERTEX
  5
2ef
  8
Layer_0
  10
32.91362
  20
152.63257
  0
SEQEND
  0
POLYLINE
  5
2f1
  8
Layer_0
  62
7
  66
1
  10
0
  20
0
  30
0
  0
VERTEX
  5
2f1
  8
Layer_0
  10
90.985504
  20
203.11102
  0
VERTEX
  5
2f2
  8
Layer_0
  10
89.813614
  20
203.11102
  0
SEQEND
  0
POLYLINE
  5
2f4
  8
Layer_0
  62
7
  66
1
  10
0
  20
0
  30
0
  0
VERTEX
  5
2f4
  8
Layer_0
  10
89.813614
  20
203.11102
  0
VERTEX
  5
2f5
  8
Layer_0
  10
85.180702
  20
201.39423
  0
SEQEND
  0
POLYLINE
  5
2f7
  8
Layer_0
  62
7
  66
1
  10
0
  20
0
  30
0
  0
VERTEX
  5
2f7
  8
Layer_0
  10
85.180702
  20
201.39423
  0
VERTEX
  5
2f8
  8
Layer_0
  10
85.180702
  20
196.18083
  0
SEQEND
  0
POLYLINE
  5
2fa
  8
Layer_0
  62
7
  66
1
  10
0
  20
0
  30
0
  0
VERTEX
  5
2fa
  8
Layer_0
  10
85.180702
  20
196.18083
  0
VERTEX
  5
2fb
  8
Layer_0
  10
85.205208
  20
191.67645
  0
SEQEND
  0
POLYLINE
  5
2fd
  8
Layer_0
  62
7
  66
1
  10
0
  20
0
  30
0
  0
VERTEX
  5
2fd
  8
Layer_0
  10
85.205208
  20
191.67645
  0
VERTEX
  5
2fe
  8
Layer_0
  10
90.35762
  20
189.28592
  0
SEQEND
  0
POLYLINE
  5
300
  8
Layer_0
  62
7
  66
1
  10
0
  20
0
  30
0
  0
VERTEX
  5
300
  8
Layer_0
  10
90.35762
  20
189.28592
  0
VERTEX
  5
301
  8
Layer_0
  10
91.485901
  20
189.28592
  0
SEQEND
  0
POLYLINE
  5
303
  8
Layer_0
  62
7
  66
1
  10
0
  20
0
  30
0
  0
VERTEX
  5
303
  8
Layer_0
  10
85.180702
  20
199.39722
  0
VERTEX
  5
304
  8
Layer_0
  10
89.020645
  20
199.39722
  0
SEQEND
  0
POLYLINE
  5
306
  8
Layer_0
  62
7
  66
1
  10
0
  20
0
  30
0
  0
VERTEX
  5
306
  8
Layer_0
  10
89.020645
  20
199.39722
  42
-0.24413845
  0
VERTEX
  5
307
  8
Layer_0
  10
90.531273
  20
196.18083
  0
SEQEND
  0
POLYLINE
  5
309
  8
Layer_0
  62
7
  66
1
  10
0
  20
0
  30
0
  0
VERTEX
  5
309
  8
Layer_0
  10
90.531273
  20
196.18083
  42
-0.24413906
  0
VERTEX
  5
30a
  8
Layer_0
  10
89.020645
  20
192.96445
  0
SEQEND
  0
POLYLINE
  5
30c
  8
Layer_0
  62
7
  66
1
  10
0
  20
0
  30
0
  0
VERTEX
  5
30c
  8
Layer_0
  10
89.020645
  20
192.96445
  0
VERTEX
  5
30d
  8
Layer_0
  10
85.180702
  20
192.96445
  0
SEQEND
  0
POLYLINE
  5
30f
  8
Layer_0
  62
7
  66
1
  10
0
  20
0
  30
0
  0
VERTEX
  5
30f
  8
Layer_0
  10
135.15175
  20
186.06937
  0
VERTEX
  5
310
  8
Layer_0
  10
155.46375
  20
186.06937
  0
SEQEND
  0
POLYLINE
  5
312
  8
Layer_0
  62
7
  66
1
  10
0
  20
0
  30
0
  0
VERTEX
  5
312
  8
Layer_0
  10
145.30775
  20
186.06937
  0
VERTEX
  5
313
  8
Layer_0
  10
145.30775
  20
192.22398
  0
SEQEND
  0
POLYLINE
  5
315
  8
Layer_0
  62
7
  66
1
  10
0
  20
0
  30
0
  0
VERTEX
  5
315
  8
Layer_0
  10
134.94356
  20
127.50497
  0
VERTEX
  5
316
  8
Layer_0
  10
154.71155
  20
127.50497
  0
SEQEND
  0
POLYLINE
  5
318
  8
Layer_0
  62
7
  66
1
  10
0
  20
0
  30
0
  0
VERTEX
  5
318
  8
Layer_0
  10
144.82756
  20
127.50497
  0
VERTEX
  5
319
  8
Layer_0
  10
144.82756
  20
122.39857
  0
SEQEND
  0
POLYLINE
  5
31b
  8
Layer_0
  62
7
  66
1
  10
0
  20
0
  30
0
  0
VERTEX
  5
31b
  8
Layer_0
  10
179.4948
  20
196.41666
  0
VERTEX
  5
31c
  8
Layer_0
  10
199.3598
  20
196.41666
  0
SEQEND
  0
POLYLINE
  5
31e
  8
Layer_0
  62
7
  66
1
  10
0
  20
0
  30
0
  0
VERTEX
  5
31e
  8
Layer_0
  10
189.42731
  20
196.41666
  0
VERTEX
  5
31f
  8
Layer_0
  10
189.42731
  20
202.52298
  0
SEQEND
  0
POLYLINE
  5
321
  8
Layer_0
  62
7
  66
1
  10
0
  20
0
  30
0
  0
VERTEX
  5
321
  8
Layer_0
  10
113.58956
  20
186.06937
  0
VERTEX
  5
322
  8
Layer_0
  10
116.08956
  20
186.06937
  0
SEQEND
  0
POLYLINE
  5
324
  8
Layer_0
  62
7
  66
1
  10
0
  20
0
  30
0
  0
VERTEX
  5
324
  8
Layer_0
  10
117.08956
  20
186.06937
  0
VERTEX
  5
325
  8
Layer_0
  10
119.58956
  20
186.06937
  0
SEQEND
  0
POLYLINE
  5
327
  8
Layer_0
  62
7
  66
1
  10
0
  20
0
  30
0
  0
VERTEX
  5
327
  8
Layer_0
  10
120.58956
  20
186.06937
  0
VERTEX
  5
328
  8
Layer_0
  10
123.08956
  20
186.06937
  0
SEQEND
  0
POLYLINE
  5
32a
  8
Layer_0
  62
7
  66
1
  10
0
  20
0
  30
0
  0
VERTEX
  5
32a
  8
Layer_0
  10
124.08956
  20
186.06937
  0
VERTEX
  5
32b
  8
Layer_0
  10
126.58956
  20
186.06937
  0
SEQEND
  0
POLYLINE
  5
32d
  8
Layer_0
  62
7
  66
1
  10
0
  20
0
  30
0
  0
VERTEX
  5
32d
  8
Layer_0
  10
127.58956
  20
186.06937
  0
VERTEX
  5
32e
  8
Layer_0
  10
130.08957
  20
186.06937
  0
SEQEND
  0
POLYLINE
  5
330
  8
Layer_0
  62
7
  66
1
  10
0
  20
0
  30
0
  0
VERTEX
  5
330
  8
Layer_0
  10
131.08957
  20
186.06937
  0
VERTEX
  5
331
  8
Layer_0
  10
133.58957
  20
186.06937
  0
SEQEND
  0
POLYLINE
  5
333
  8
Layer_0
  62
7
  66
1
  10
0
  20
0
  30
0
  0
VERTEX
  5
333
  8
Layer_0
  10
156.6387
  20
186.06937
  0
VERTEX
  5
334
  8
Layer_0
  10
159.1387
  20
186.06937
  0
SEQEND
  0
POLYLINE
  5
336
  8
Layer_0
  62
7
  66
1
  10
0
  20
0
  30
0
  0
VERTEX
  5
336
  8
Layer_0
  10
160.1387
  20
186.06937
  0
VERTEX
  5
337
  8
Layer_0
  10
162.6387
  20
186.06937
  0
SEQEND
  0
POLYLINE
  5
339
  8
Layer_0
  62
7
  66
1
  10
0
  20
0
  30
0
  0
VERTEX
  5
339
  8
Layer_0
  10
163.6387
  20
186.06937
  0
VERTEX
  5
33a
  8
Layer_0
  10
166.1387
  20
186.06937
  0
SEQEND
  0
POLYLINE
  5
33c
  8
Layer_0
  62
7
  66
1
  10
0
  20
0
  30
0
  0
VERTEX
  5
33c
  8
Layer_0
  10
167.1387
  20
186.06937
  0
VERTEX
  5
33d
  8
Layer_0
  10
169.6387
  20
186.06937
  0
SEQEND
  0
POLYLINE
  5
33f
  8
Layer_0
  62
7
  66
1
  10
0
  20
0
  30
0
  0
VERTEX
  5
33f
  8
Layer_0
  10
72.589561
  20
146.85226
  0
VERTEX
  5
340
  8
Layer_0
  10
75.089561
  20
146.85226
  0
SEQEND
  0
POLYLINE
  5
342
  8
Layer_0
  62
7
  66
1
  10
0
  20
0
  30
0
  0
VERTEX
  5
342
  8
Layer_0
  10
76.089561
  20
146.85226
  0
VERTEX
  5
343
  8
Layer_0
  10
78.589561
  20
146.85226
  0
SEQEND
  0
POLYLINE
  5
345
  8
Layer_0
  62
7
  66
1
  10
0
  20
0
  30
0
  0
VERTEX
  5
345
  8
Layer_0
  10
79.589561
  20
146.85226
  0
VERTEX
  5
346
  8
Layer_0
  10
82.089561
  20
146.85226
  0
SEQEND
  0
POLYLINE
  5
348
  8
Layer_0
  62
7
  66
1
  10
0
  20
0
  30
0
  0
VERTEX
  5
348
  8
Layer_0
  10
83.089561
  20
146.85226
  0
VERTEX
  5
349
  8
Layer_0
  10
85.589561
  20
146.85226
  0
SEQEND
  0
POLYLINE
  5
34b
  8
Layer_0
  62
7
  66
1
  10
0
  20
0
  30
0
  0
VERTEX
  5
34b
  8
Layer_0
  10
86.589561
  20
146.85226
  0
VERTEX
  5
34c
  8
Layer_0
  10
89.089561
  20
146.85226
  0
SEQEND
  0
POLYLINE
  5
34e
  8
Layer_0
  62
7
  66
1
  10
0
  20
0
  30
0
  0
VERTEX
  5
34e
  8
Layer_0
  10
90.089561
  20
146.85226
  0
VERTEX
  5
34f
  8
Layer_0
  10
92.589561
  20
146.85226
  0
SEQEND
  0
POLYLINE
  5
351
  8
Layer_0
  62
7
  66
1
  10
0
  20
0
  30
0
  0
VERTEX
  5
351
  8
Layer_0
  10
93.589561
  20
146.85226
  0
VERTEX
  5
352
  8
Layer_0
  10
96.089561
  20
146.85226
  0
SEQEND
  0
POLYLINE
  5
354
  8
Layer_0
  62
7
  66
1
  10
0
  20
0
  30
0
  0
VERTEX
  5
354
  8
Layer_0
  10
97.089561
  20
146.85226
  0
VERTEX
  5
355
  8
Layer_0
  10
99.589561
  20
146.85226
  0
SEQEND
  0
POLYLINE
  5
357
  8
Layer_0
  62
7
  66
1
  10
0
  20
0
  30
0
  0
VERTEX
  5
357
  8
Layer_0
  10
100.58956
  20
146.85226
  0
VERTEX
  5
358
  8
Layer_0
  10
103.08956
  20
146.85226
  0
SEQEND
  0
POLYLINE
  5
35a
  8
Layer_0
  62
7
  66
1
  10
0
  20
0
  30
0
  0
VERTEX
  5
35a
  8
Layer_0
  10
104.08956
  20
146.85226
  0
VERTEX
  5
35b
  8
Layer_0
  10
106.58956
  20
146.85226
  0
SEQEND
  0
POLYLINE
  5
35d
  8
Layer_0
  62
7
  66
1
  10
0
  20
0
  30
0
  0
VERTEX
  5
35d
  8
Layer_0
  10
107.58956
  20
146.85226
  0
VERTEX
  5
35e
  8
Layer_0
  10
110.08956
  20
146.85226
  0
SEQEND
  0
POLYLINE
  5
360
  8
Layer_0
  62
7
  66
1
  10
0
  20
0
  30
0
  0
VERTEX
  5
360
  8
Layer_0
  10
111.08956
  20
146.85226
  0
VERTEX
  5
361
  8
Layer_0
  10
113.58956
  20
146.85226
  0
SEQEND
  0
POLYLINE
  5
363
  8
Layer_0
  62
7
  66
1
  10
0
  20
0
  30
0
  0
VERTEX
  5
363
  8
Layer_0
  10
114.58956
  20
146.85226
  0
VERTEX
  5
364
  8
Layer_0
  10
117.08956
  20
146.85226
  0
SEQEND
  0
POLYLINE
  5
366
  8
Layer_0
  62
7
  66
1
  10
0
  20
0
  30
0
  0
VERTEX
  5
366
  8
Layer_0
  10
118.08956
  20
146.85226
  0
VERTEX
  5
367
  8
Layer_0
  10
120.58956
  20
146.85226
  0
SEQEND
  0
POLYLINE
  5
369
  8
Layer_0
  62
7
  66
1
  10
0
  20
0
  30
0
  0
VERTEX
  5
369
  8
Layer_0
  10
121.58956
  20
146.85226
  0
VERTEX
  5
36a
  8
Layer_0
  10
124.08956
  20
146.85226
  0
SEQEND
  0
POLYLINE
  5
36c
  8
Layer_0
  62
7
  66
1
  10
0
  20
0
  30
0
  0
VERTEX
  5
36c
  8
Layer_0
  10
125.08956
  20
146.85226
  0
VERTEX
  5
36d
  8
Layer_0
  10
127.58956
  20
146.85226
  0
SEQEND
  0
POLYLINE
  5
36f
  8
Layer_0
  62
7
  66
1
  10
0
  20
0
  30
0
  0
VERTEX
  5
36f
  8
Layer_0
  10
128.58957
  20
146.85226
  0
VERTEX
  5
370
  8
Layer_0
  10
131.08957
  20
146.85226
  0
SEQEND
  0
POLYLINE
  5
372
  8
Layer_0
  62
7
  66
1
  10
0
  20
0
  30
0
  0
VERTEX
  5
372
  8
Layer_0
  10
132.08957
  20
146.85226
  0
VERTEX
  5
373
  8
Layer_0
  10
134.58957
  20
146.85226
  0
SEQEND
  0
POLYLINE
  5
375
  8
Layer_0
  62
7
  66
1
  10
0
  20
0
  30
0
  0
VERTEX
  5
375
  8
Layer_0
  10
135.58957
  20
146.85226
  0
VERTEX
  5
376
  8
Layer_0
  10
138.08957
  20
146.85226
  0
SEQEND
  0
POLYLINE
  5
378
  8
Layer_0
  62
7
  66
1
  10
0
  20
0
  30
0
  0
VERTEX
  5
378
  8
Layer_0
  10
139.08957
  20
146.85226
  0
VERTEX
  5
379
  8
Layer_0
  10
141.58955
  20
146.85226
  0
SEQEND
  0
POLYLINE
  5
37b
  8
Layer_0
  62
7
  66
1
  10
0
  20
0
  30
0
  0
VERTEX
  5
37b
  8
Layer_0
  10
142.58955
  20
146.85226
  0
VERTEX
  5
37c
  8
Layer_0
  10
145.08955
  20
146.85226
  0
SEQEND
  0
POLYLINE
  5
37e
  8
Layer_0
  62
7
  66
1
  10
0
  20
0
  30
0
  0
VERTEX
  5
37e
  8
Layer_0
  10
146.08955
  20
146.85226
  0
VERTEX
  5
37f
  8
Layer_0
  10
148.58955
  20
146.85226
  0
SEQEND
  0
POLYLINE
  5
381
  8
Layer_0
  62
7
  66
1
  10
0
  20
0
  30
0
  0
VERTEX
  5
381
  8
Layer_0
  10
149.58955
  20
146.85226
  0
VERTEX
  5
382
  8
Layer_0
  10
152.08955
  20
146.85226
  0
SEQEND
  0
POLYLINE
  5
384
  8
Layer_0
  62
7
  66
1
  10
0
  20
0
  30
0
  0
VERTEX
  5
384
  8
Layer_0
  10
153.08955
  20
146.85226
  0
VERTEX
  5
385
  8
Layer_0
  10
155.58955
  20
146.85226
  0
SEQEND
  0
POLYLINE
  5
387
  8
Layer_0
  62
7
  66
1
  10
0
  20
0
  30
0
  0
VERTEX
  5
387
  8
Layer_0
  10
156.58955
  20
146.85226
  0
VERTEX
  5
388
  8
Layer_0
  10
159.08957
  20
146.85226
  0
SEQEND
  0
POLYLINE
  5
38a
  8
Layer_0
  62
7
  66
1
  10
0
  20
0
  30
0
  0
VERTEX
  5
38a
  8
Layer_0
  10
124.08956
  20
127.50497
  0
VERTEX
  5
38b
  8
Layer_0
  10
126.58956
  20
127.50497
  0
SEQEND
  0
POLYLINE
  5
38d
  8
Layer_0
  62
7
  66
1
  10
0
  20
0
  30
0
  0
VERTEX
  5
38d
  8
Layer_0
  10
131.08957
  20
127.50497
  0
VERTEX
  5
38e
  8
Layer_0
  10
133.58957
  20
127.50497
  0
SEQEND
  0
POLYLINE
  5
390
  8
Layer_0
  62
7
  66
1
  10
0
  20
0
  30
0
  0
VERTEX
  5
390
  8
Layer_0
  10
113.58956
  20
127.50497
  0
VERTEX
  5
391
  8
Layer_0
  10
116.08956
  20
127.50497
  0
SEQEND
  0
POLYLINE
  5
393
  8
Layer_0
  62
7
  66
1
  10
0
  20
0
  30
0
  0
VERTEX
  5
393
  8
Layer_0
  10
117.08956
  20
127.50497
  0
VERTEX
  5
394
  8
Layer_0
  10
119.58956
  20
127.50497
  0
SEQEND
  0
POLYLINE
  5
396
  8
Layer_0
  62
7
  66
1
  10
0
  20
0
  30
0
  0
VERTEX
  5
396
  8
Layer_0
  10
127.58956
  20
127.50497
  0
VERTEX
  5
397
  8
Layer_0
  10
130.08957
  20
127.50497
  0
SEQEND
  0
POLYLINE
  5
399
  8
Layer_0
  62
7
  66
1
  10
0
  20
0
  30
0
  0
VERTEX
  5
399
  8
Layer_0
  10
120.58956
  20
127.50497
  0
VERTEX
  5
39a
  8
Layer_0
  10
123.08956
  20
127.50497
  0
SEQEND
  0
POLYLINE
  5
39c
  8
Layer_0
  62
7
  66
1
  10
0
  20
0
  30
0
  0
VERTEX
  5
39c
  8
Layer_0
  10
162.90387
  20
127.50497
  0
VERTEX
  5
39d
  8
Layer_0
  10
165.40387
  20
127.50497
  0
SEQEND
  0
POLYLINE
  5
39f
  8
Layer_0
  62
7
  66
1
  10
0
  20
0
  30
0
  0
VERTEX
  5
39f
  8
Layer_0
  10
166.40387
  20
127.50497
  0
VERTEX
  5
3a0
  8
Layer_0
  10
168.90387
  20
127.50497
  0
SEQEND
  0
POLYLINE
  5
3a2
  8
Layer_0
  62
7
  66
1
  10
0
  20
0
  30
0
  0
VERTEX
  5
3a2
  8
Layer_0
  10
155.90387
  20
127.50497
  0
VERTEX
  5
3a3
  8
Layer_0
  10
158.40387
  20
127.50497
  0
SEQEND
  0
POLYLINE
  5
3a5
  8
Layer_0
  62
7
  66
1
  10
0
  20
0
  30
0
  0
VERTEX
  5
3a5
  8
Layer_0
  10
159.40387
  20
127.50497
  0
VERTEX
  5
3a6
  8
Layer_0
  10
161.90387
  20
127.50497
  0
SEQEND
  0
POLYLINE
  5
3a8
  8
Layer_0
  62
7
  66
1
  10
0
  20
0
  30
0
  0
VERTEX
  5
3a8
  8
Layer_0
  10
102.49567
  20
206.17741
  0
VERTEX
  5
3a9
  8
Layer_0
  10
104.49567
  20
206.17741
  0
SEQEND
  0
POLYLINE
  5
3ab
  8
Layer_0
  62
7
  66
1
  10
0
  20
0
  30
0
  0
VERTEX
  5
3ab
  8
Layer_0
  10
105.99567
  20
206.17741
  0
VERTEX
  5
3ac
  8
Layer_0
  10
107.99567
  20
206.17741
  0
SEQEND
  0
POLYLINE
  5
3ae
  8
Layer_0
  62
7
  66
1
  10
0
  20
0
  30
0
  0
VERTEX
  5
3ae
  8
Layer_0
  10
109.49567
  20
206.17741
  0
VERTEX
  5
3af
  8
Layer_0
  10
111.49567
  20
206.17741
  0
SEQEND
  0
POLYLINE
  5
3b1
  8
Layer_0
  62
7
  66
1
  10
0
  20
0
  30
0
  0
VERTEX
  5
3b1
  8
Layer_0
  10
112.99567
  20
206.17741
  0
VERTEX
  5
3b2
  8
Layer_0
  10
114.99567
  20
206.17741
  0
SEQEND
  0
POLYLINE
  5
3b4
  8
Layer_0
  62
7
  66
1
  10
0
  20
0
  30
0
  0
VERTEX
  5
3b4
  8
Layer_0
  10
116.49567
  20
206.17741
  0
VERTEX
  5
3b5
  8
Layer_0
  10
118.28447
  20
206.17741
  0
SEQEND
  0
POLYLINE
  5
3b7
  8
Layer_0
  62
7
  66
1
  10
0
  20
0
  30
0
  0
VERTEX
  5
3b7
  8
Layer_0
  10
149.07677
  20
206.17741
  0
VERTEX
  5
3b8
  8
Layer_0
  10
151.07677
  20
206.17741
  0
SEQEND
  0
POLYLINE
  5
3ba
  8
Layer_0
  62
7
  66
1
  10
0
  20
0
  30
0
  0
VERTEX
  5
3ba
  8
Layer_0
  10
142.07677
  20
206.17741
  0
VERTEX
  5
3bb
  8
Layer_0
  10
144.07677
  20
206.17741
  0
SEQEND
  0
POLYLINE
  5
3bd
  8
Layer_0
  62
7
  66
1
  10
0
  20
0
  30
0
  0
VERTEX
  5
3bd
  8
Layer_0
  10
145.57677
  20
206.17741
  0
VERTEX
  5
3be
  8
Layer_0
  10
147.57677
  20
206.17741
  0
SEQEND
  0
POLYLINE
  5
3c0
  8
Layer_0
  62
7
  66
1
  10
0
  20
0
  30
0
  0
VERTEX
  5
3c0
  8
Layer_0
  10
138.57677
  20
206.17741
  0
VERTEX
  5
3c1
  8
Layer_0
  10
140.57677
  20
206.17741
  0
SEQEND
  0
POLYLINE
  5
3c3
  8
Layer_0
  62
7
  66
1
  10
0
  20
0
  30
0
  0
VERTEX
  5
3c3
  8
Layer_0
  10
51.881081
  20
163.21321
  0
VERTEX
  5
3c4
  8
Layer_0
  10
51.881081
  20
161.21321
  0
SEQEND
  0
POLYLINE
  5
3c6
  8
Layer_0
  62
7
  66
1
  10
0
  20
0
  30
0
  0
VERTEX
  5
3c6
  8
Layer_0
  10
51.881081
  20
159.71321
  0
VERTEX
  5
3c7
  8
Layer_0
  10
51.881081
  20
157.71321
  0
SEQEND
  0
POLYLINE
  5
3c9
  8
Layer_0
  62
7
  66
1
  10
0
  20
0
  30
0
  0
VERTEX
  5
3c9
  8
Layer_0
  10
51.881081
  20
156.21321
  0
VERTEX
  5
3ca
  8
Layer_0
  10
51.881081
  20
154.21321
  0
SEQEND
  0
POLYLINE
  5
3cc
  8
Layer_0
  62
7
  66
1
  10
0
  20
0
  30
0
  0
VERTEX
  5
3cc
  8
Layer_0
  10
51.881081
  20
152.71321
  0
VERTEX
  5
3cd
  8
Layer_0
  10
51.881081
  20
150.71321
  0
SEQEND
  0
POLYLINE
  5
3cf
  8
Layer_0
  62
7
  66
1
  10
0
  20
0
  30
0
  0
VERTEX
  5
3cf
  8
Layer_0
  10
51.881081
  20
149.21321
  0
VERTEX
  5
3d0
  8
Layer_0
  10
51.881081
  20
147.21321
  0
SEQEND
  0
POLYLINE
  5
3d2
  8
Layer_0
  62
7
  66
1
  10
0
  20
0
  30
0
  0
VERTEX
  5
3d2
  8
Layer_0
  10
51.881081
  20
147.21321
  0
VERTEX
  5
3d3
  8
Layer_0
  10
51.881081
  20
146.85226
  0
SEQEND
  0
POLYLINE
  5
3d5
  8
Layer_0
  62
7
  66
1
  10
0
  20
0
  30
0
  0
VERTEX
  5
3d5
  8
Layer_0
  10
69.381081
  20
166.71321
  0
VERTEX
  5
3d6
  8
Layer_0
  10
71.381081
  20
166.71321
  0
SEQEND
  0
POLYLINE
  5
3d8
  8
Layer_0
  62
7
  66
1
  10
0
  20
0
  30
0
  0
VERTEX
  5
3d8
  8
Layer_0
  10
71.381081
  20
166.71321
  0
VERTEX
  5
3d9
  8
Layer_0
  10
71.589561
  20
166.71321
  0
SEQEND
  0
POLYLINE
  5
3db
  8
Layer_0
  62
7
  66
1
  10
0
  20
0
  30
0
  0
VERTEX
  5
3db
  8
Layer_0
  10
67.881081
  20
166.71321
  0
VERTEX
  5
3dc
  8
Layer_0
  10
65.881081
  20
166.71321
  0
SEQEND
  0
POLYLINE
  5
3de
  8
Layer_0
  62
7
  66
1
  10
0
  20
0
  30
0
  0
VERTEX
  5
3de
  8
Layer_0
  10
64.381081
  20
166.71321
  0
VERTEX
  5
3df
  8
Layer_0
  10
62.381081
  20
166.71321
  0
SEQEND
  0
POLYLINE
  5
3e1
  8
Layer_0
  62
7
  66
1
  10
0
  20
0
  30
0
  0
VERTEX
  5
3e1
  8
Layer_0
  10
60.881081
  20
166.71321
  0
VERTEX
  5
3e2
  8
Layer_0
  10
58.881081
  20
166.71321
  0
SEQEND
  0
POLYLINE
  5
3e4
  8
Layer_0
  62
7
  66
1
  10
0
  20
0
  30
0
  0
VERTEX
  5
3e4
  8
Layer_0
  10
57.381081
  20
166.71321
  0
VERTEX
  5
3e5
  8
Layer_0
  10
55.381081
  20
166.71321
  0
SEQEND
  0
POLYLINE
  5
3e7
  8
Layer_0
  62
7
  66
1
  10
0
  20
0
  30
0
  0
VERTEX
  5
3e7
  8
Layer_0
  10
71.589561
  20
149.21321
  0
VERTEX
  5
3e8
  8
Layer_0
  10
71.589561
  20
147.21321
  0
SEQEND
  0
POLYLINE
  5
3ea
  8
Layer_0
  62
7
  66
1
  10
0
  20
0
  30
0
  0
VERTEX
  5
3ea
  8
Layer_0
  10
71.589561
  20
147.21321
  0
VERTEX
  5
3eb
  8
Layer_0
  10
71.589561
  20
146.85226
  0
SEQEND
  0
POLYLINE
  5
3ed
  8
Layer_0
  62
7
  66
1
  10
0
  20
0
  30
0
  0
VERTEX
  5
3ed
  8
Layer_0
  10
71.589561
  20
150.71321
  0
VERTEX
  5
3ee
  8
Layer_0
  10
71.589561
  20
152.71321
  0
SEQEND
  0
POLYLINE
  5
3f0
  8
Layer_0
  62
7
  66
1
  10
0
  20
0
  30
0
  0
VERTEX
  5
3f0
  8
Layer_0
  10
71.589561
  20
154.21321
  0
VERTEX
  5
3f1
  8
Layer_0
  10
71.589561
  20
156.21321
  0
SEQEND
  0
POLYLINE
  5
3f3
  8
Layer_0
  62
7
  66
1
  10
0
  20
0
  30
0
  0
VERTEX
  5
3f3
  8
Layer_0
  10
71.589561
  20
157.71321
  0
VERTEX
  5
3f4
  8
Layer_0
  10
71.589561
  20
159.71321
  0
SEQEND
  0
POLYLINE
  5
3f6
  8
Layer_0
  62
7
  66
1
  10
0
  20
0
  30
0
  0
VERTEX
  5
3f6
  8
Layer_0
  10
71.589561
  20
161.21321
  0
VERTEX
  5
3f7
  8
Layer_0
  10
71.589561
  20
163.21321
  0
SEQEND
  0
POLYLINE
  5
3f9
  8
Layer_0
  62
7
  66
1
  10
0
  20
0
  30
0
  0
VERTEX
  5
3f9
  8
Layer_0
  10
69.381081
  20
146.85226
  0
VERTEX
  5
3fa
  8
Layer_0
  10
71.381081
  20
146.85226
  0
SEQEND
  0
POLYLINE
  5
3fc
  8
Layer_0
  62
7
  66
1
  10
0
  20
0
  30
0
  0
VERTEX
  5
3fc
  8
Layer_0
  10
71.381081
  20
146.85226
  0
VERTEX
  5
3fd
  8
Layer_0
  10
71.589561
  20
146.85226
  0
SEQEND
  0
POLYLINE
  5
3ff
  8
Layer_0
  62
7
  66
1
  10
0
  20
0
  30
0
  0
VERTEX
  5
3ff
  8
Layer_0
  10
67.881081
  20
146.85226
  0
VERTEX
  5
400
  8
Layer_0
  10
65.881081
  20
146.85226
  0
SEQEND
  0
POLYLINE
  5
402
  8
Layer_0
  62
7
  66
1
  10
0
  20
0
  30
0
  0
VERTEX
  5
402
  8
Layer_0
  10
64.381081
  20
146.85226
  0
VERTEX
  5
403
  8
Layer_0
  10
62.381081
  20
146.85226
  0
SEQEND
  0
POLYLINE
  5
405
  8
Layer_0
  62
7
  66
1
  10
0
  20
0
  30
0
  0
VERTEX
  5
405
  8
Layer_0
  10
60.881081
  20
146.85226
  0
VERTEX
  5
406
  8
Layer_0
  10
58.881081
  20
146.85226
  0
SEQEND
  0
POLYLINE
  5
408
  8
Layer_0
  62
7
  66
1
  10
0
  20
0
  30
0
  0
VERTEX
  5
408
  8
Layer_0
  10
57.381081
  20
146.85226
  0
VERTEX
  5
409
  8
Layer_0
  10
55.381081
  20
146.85226
  0
SEQEND
  0
POLYLINE
  5
40b
  8
Layer_0
  62
7
  66
1
  10
0
  20
0
  30
0
  0
VERTEX
  5
40b
  8
Layer_0
  10
152.59113
  20
88.473366
  0
VERTEX
  5
40c
  8
Layer_0
  10
154.37993
  20
88.473366
  0
SEQEND
  0
POLYLINE
  5
40e
  8
Layer_0
  62
7
  66
1
  10
0
  20
0
  30
0
  0
VERTEX
  5
40e
  8
Layer_0
  10
149.09113
  20
88.473366
  0
VERTEX
  5
40f
  8
Layer_0
  10
151.09113
  20
88.473366
  0
SEQEND
  0
POLYLINE
  5
411
  8
Layer_0
  62
7
  66
1
  10
0
  20
0
  30
0
  0
VERTEX
  5
411
  8
Layer_0
  10
145.59113
  20
88.473366
  0
VERTEX
  5
412
  8
Layer_0
  10
147.59113
  20
88.473366
  0
SEQEND
  0
POLYLINE
  5
414
  8
Layer_0
  62
7
  66
1
  10
0
  20
0
  30
0
  0
VERTEX
  5
414
  8
Layer_0
  10
142.09113
  20
88.473366
  0
VERTEX
  5
415
  8
Layer_0
  10
144.09113
  20
88.473366
  0
SEQEND
  0
POLYLINE
  5
417
  8
Layer_0
  62
7
  66
1
  10
0
  20
0
  30
0
  0
VERTEX
  5
417
  8
Layer_0
  10
138.59113
  20
88.473366
  0
VERTEX
  5
418
  8
Layer_0
  10
140.59113
  20
88.473366
  0
SEQEND
  0
POLYLINE
  5
41a
  8
Layer_0
  62
7
  66
1
  10
0
  20
0
  30
0
  0
VERTEX
  5
41a
  8
Layer_0
  10
135.09113
  20
88.473366
  0
VERTEX
  5
41b
  8
Layer_0
  10
137.09113
  20
88.473366
  0
SEQEND
  0
POLYLINE
  5
41d
  8
Layer_0
  62
7
  66
1
  10
0
  20
0
  30
0
  0
VERTEX
  5
41d
  8
Layer_0
  10
196.63184
  20
78.66478
  0
VERTEX
  5
41e
  8
Layer_0
  10
198.42064
  20
78.66478
  0
SEQEND
  0
POLYLINE
  5
420
  8
Layer_0
  62
7
  66
1
  10
0
  20
0
  30
0
  0
VERTEX
  5
420
  8
Layer_0
  10
193.13184
  20
78.66478
  0
VERTEX
  5
421
  8
Layer_0
  10
195.13184
  20
78.66478
  0
SEQEND
  0
POLYLINE
  5
423
  8
Layer_0
  62
7
  66
1
  10
0
  20
0
  30
0
  0
VERTEX
  5
423
  8
Layer_0
  10
189.63184
  20
78.66478
  0
VERTEX
  5
424
  8
Layer_0
  10
191.63184
  20
78.66478
  0
SEQEND
  0
POLYLINE
  5
426
  8
Layer_0
  62
7
  66
1
  10
0
  20
0
  30
0
  0
VERTEX
  5
426
  8
Layer_0
  10
186.13184
  20
78.66478
  0
VERTEX
  5
427
  8
Layer_0
  10
188.13184
  20
78.66478
  0
SEQEND
  0
POLYLINE
  5
429
  8
Layer_0
  62
7
  66
1
  10
0
  20
0
  30
0
  0
VERTEX
  5
429
  8
Layer_0
  10
182.63184
  20
78.66478
  0
VERTEX
  5
42a
  8
Layer_0
  10
184.63184
  20
78.66478
  0
SEQEND
  0
POLYLINE
  5
42c
  8
Layer_0
  62
7
  66
1
  10
0
  20
0
  30
0
  0
VERTEX
  5
42c
  8
Layer_0
  10
179.13185
  20
78.66478
  0
VERTEX
  5
42d
  8
Layer_0
  10
181.13185
  20
78.66478
  0
SEQEND
  0
POLYLINE
  5
42f
  8
Layer_0
  62
7
  66
1
  10
0
  20
0
  30
0
  0
VERTEX
  5
42f
  8
Layer_0
  10
242.71159
  20
78.66478
  0
VERTEX
  5
430
  8
Layer_0
  10
244.5004
  20
78.66478
  0
SEQEND
  0
POLYLINE
  5
432
  8
Layer_0
  62
7
  66
1
  10
0
  20
0
  30
0
  0
VERTEX
  5
432
  8
Layer_0
  10
239.21159
  20
78.66478
  0
VERTEX
  5
433
  8
Layer_0
  10
241.21159
  20
78.66478
  0
SEQEND
  0
POLYLINE
  5
435
  8
Layer_0
  62
7
  66
1
  10
0
  20
0
  30
0
  0
VERTEX
  5
435
  8
Layer_0
  10
235.71159
  20
78.66478
  0
VERTEX
  5
436
  8
Layer_0
  10
237.71159
  20
78.66478
  0
SEQEND
  0
POLYLINE
  5
438
  8
Layer_0
  62
7
  66
1
  10
0
  20
0
  30
0
  0
VERTEX
  5
438
  8
Layer_0
  10
232.21159
  20
78.66478
  0
VERTEX
  5
439
  8
Layer_0
  10
234.21159
  20
78.66478
  0
SEQEND
  0
POLYLINE
  5
43b
  8
Layer_0
  62
7
  66
1
  10
0
  20
0
  30
0
  0
VERTEX
  5
43b
  8
Layer_0
  10
228.71159
  20
78.66478
  0
VERTEX
  5
43c
  8
Layer_0
  10
230.71159
  20
78.66478
  0
SEQEND
  0
POLYLINE
  5
43e
  8
Layer_0
  62
7
  66
1
  10
0
  20
0
  30
0
  0
VERTEX
  5
43e
  8
Layer_0
  10
225.21159
  20
78.66478
  0
VERTEX
  5
43f
  8
Layer_0
  10
227.21159
  20
78.66478
  0
SEQEND
  0
POLYLINE
  5
441
  8
Layer_0
  62
7
  66
1
  10
0
  20
0
  30
0
  0
VERTEX
  5
441
  8
Layer_0
  10
250.40387
  20
137.19502
  0
VERTEX
  5
442
  8
Layer_0
  10
252.90387
  20
137.19502
  0
SEQEND
  0
POLYLINE
  5
444
  8
Layer_0
  62
7
  66
1
  10
0
  20
0
  30
0
  0
VERTEX
  5
444
  8
Layer_0
  10
253.90387
  20
137.19502
  0
VERTEX
  5
445
  8
Layer_0
  10
256.40387
  20
137.19502
  0
SEQEND
  0
POLYLINE
  5
447
  8
Layer_0
  62
7
  66
1
  10
0
  20
0
  30
0
  0
VERTEX
  5
447
  8
Layer_0
  10
190.90387
  20
137.19502
  0
VERTEX
  5
448
  8
Layer_0
  10
193.40387
  20
137.19502
  0
SEQEND
  0
POLYLINE
  5
44a
  8
Layer_0
  62
7
  66
1
  10
0
  20
0
  30
0
  0
VERTEX
  5
44a
  8
Layer_0
  10
187.40387
  20
137.19502
  0
VERTEX
  5
44b
  8
Layer_0
  10
189.90387
  20
137.19502
  0
SEQEND
  0
POLYLINE
  5
44d
  8
Layer_0
  62
7
  66
1
  10
0
  20
0
  30
0
  0
VERTEX
  5
44d
  8
Layer_0
  10
180.40387
  20
137.19502
  0
VERTEX
  5
44e
  8
Layer_0
  10
182.90387
  20
137.19502
  0
SEQEND
  0
POLYLINE
  5
450
  8
Layer_0
  62
7
  66
1
  10
0
  20
0
  30
0
  0
VERTEX
  5
450
  8
Layer_0
  10
183.90387
  20
137.19502
  0
VERTEX
  5
451
  8
Layer_0
  10
186.40387
  20
137.19502
  0
SEQEND
  0
POLYLINE
  5
453
  8
Layer_0
  62
7
  66
1
  10
0
  20
0
  30
0
  0
VERTEX
  5
453
  8
Layer_0
  10
169.90387
  20
137.19502
  0
VERTEX
  5
454
  8
Layer_0
  10
172.40387
  20
137.19502
  0
SEQEND
  0
POLYLINE
  5
456
  8
Layer_0
  62
7
  66
1
  10
0
  20
0
  30
0
  0
VERTEX
  5
456
  8
Layer_0
  10
176.90387
  20
137.19502
  0
VERTEX
  5
457
  8
Layer_0
  10
179.40387
  20
137.19502
  0
SEQEND
  0
POLYLINE
  5
459
  8
Layer_0
  62
7
  66
1
  10
0
  20
0
  30
0
  0
VERTEX
  5
459
  8
Layer_0
  10
173.40387
  20
137.19502
  0
VERTEX
  5
45a
  8
Layer_0
  10
175.90387
  20
137.19502
  0
SEQEND
  0
POLYLINE
  5
45c
  8
Layer_0
  62
7
  66
1
  10
0
  20
0
  30
0
  0
VERTEX
  5
45c
  8
Layer_0
  10
194.40387
  20
137.19502
  0
VERTEX
  5
45d
  8
Layer_0
  10
196.90387
  20
137.19502
  0
SEQEND
  0
POLYLINE
  5
45f
  8
Layer_0
  62
7
  66
1
  10
0
  20
0
  30
0
  0
VERTEX
  5
45f
  8
Layer_0
  10
201.40387
  20
137.19502
  0
VERTEX
  5
460
  8
Layer_0
  10
203.90387
  20
137.19502
  0
SEQEND
  0
POLYLINE
  5
462
  8
Layer_0
  62
7
  66
1
  10
0
  20
0
  30
0
  0
VERTEX
  5
462
  8
Layer_0
  10
211.90387
  20
137.19502
  0
VERTEX
  5
463
  8
Layer_0
  10
214.40387
  20
137.19502
  0
SEQEND
  0
POLYLINE
  5
465
  8
Layer_0
  62
7
  66
1
  10
0
  20
0
  30
0
  0
VERTEX
  5
465
  8
Layer_0
  10
204.90387
  20
137.19502
  0
VERTEX
  5
466
  8
Layer_0
  10
207.40387
  20
137.19502
  0
SEQEND
  0
POLYLINE
  5
468
  8
Layer_0
  62
7
  66
1
  10
0
  20
0
  30
0
  0
VERTEX
  5
468
  8
Layer_0
  10
197.90387
  20
137.19502
  0
VERTEX
  5
469
  8
Layer_0
  10
200.40387
  20
137.19502
  0
SEQEND
  0
POLYLINE
  5
46b
  8
Layer_0
  62
7
  66
1
  10
0
  20
0
  30
0
  0
VERTEX
  5
46b
  8
Layer_0
  10
208.40387
  20
137.19502
  0
VERTEX
  5
46c
  8
Layer_0
  10
210.90387
  20
137.19502
  0
SEQEND
  0
POLYLINE
  5
46e
  8
Layer_0
  62
7
  66
1
  10
0
  20
0
  30
0
  0
VERTEX
  5
46e
  8
Layer_0
  10
243.40387
  20
137.19502
  0
VERTEX
  5
46f
  8
Layer_0
  10
245.90387
  20
137.19502
  0
SEQEND
  0
POLYLINE
  5
471
  8
Layer_0
  62
7
  66
1
  10
0
  20
0
  30
0
  0
VERTEX
  5
471
  8
Layer_0
  10
215.40387
  20
137.19502
  0
VERTEX
  5
472
  8
Layer_0
  10
217.90387
  20
137.19502
  0
SEQEND
  0
POLYLINE
  5
474
  8
Layer_0
  62
7
  66
1
  10
0
  20
0
  30
0
  0
VERTEX
  5
474
  8
Layer_0
  10
218.90387
  20
137.19502
  0
VERTEX
  5
475
  8
Layer_0
  10
221.40387
  20
137.19502
  0
SEQEND
  0
POLYLINE
  5
477
  8
Layer_0
  62
7
  66
1
  10
0
  20
0
  30
0
  0
VERTEX
  5
477
  8
Layer_0
  10
225.90387
  20
137.19502
  0
VERTEX
  5
478
  8
Layer_0
  10
228.40387
  20
137.19502
  0
SEQEND
  0
POLYLINE
  5
47a
  8
Layer_0
  62
7
  66
1
  10
0
  20
0
  30
0
  0
VERTEX
  5
47a
  8
Layer_0
  10
222.40387
  20
137.19502
  0
VERTEX
  5
47b
  8
Layer_0
  10
224.90387
  20
137.19502
  0
SEQEND
  0
POLYLINE
  5
47d
  8
Layer_0
  62
7
  66
1
  10
0
  20
0
  30
0
  0
VERTEX
  5
47d
  8
Layer_0
  10
232.90387
  20
137.19502
  0
VERTEX
  5
47e
  8
Layer_0
  10
235.40387
  20
137.19502
  0
SEQEND
  0
POLYLINE
  5
480
  8
Layer_0
  62
7
  66
1
  10
0
  20
0
  30
0
  0
VERTEX
  5
480
  8
Layer_0
  10
246.90387
  20
137.19502
  0
VERTEX
  5
481
  8
Layer_0
  10
249.40387
  20
137.19502
  0
SEQEND
  0
POLYLINE
  5
483
  8
Layer_0
  62
7
  66
1
  10
0
  20
0
  30
0
  0
VERTEX
  5
483
  8
Layer_0
  10
236.40387
  20
137.19502
  0
VERTEX
  5
484
  8
Layer_0
  10
238.90387
  20
137.19502
  0
SEQEND
  0
POLYLINE
  5
486
  8
Layer_0
  62
7
  66
1
  10
0
  20
0
  30
0
  0
VERTEX
  5
486
  8
Layer_0
  10
229.40387
  20
137.19502
  0
VERTEX
  5
487
  8
Layer_0
  10
231.90387
  20
137.19502
  0
SEQEND
  0
POLYLINE
  5
489
  8
Layer_0
  62
7
  66
1
  10
0
  20
0
  30
0
  0
VERTEX
  5
489
  8
Layer_0
  10
239.90387
  20
137.19502
  0
VERTEX
  5
48a
  8
Layer_0
  10
242.40387
  20
137.19502
  0
SEQEND
  0
POLYLINE
  5
48c
  8
Layer_0
  62
7
  66
1
  10
0
  20
0
  30
0
  0
VERTEX
  5
48c
  8
Layer_0
  10
201.40387
  20
118.15752
  0
VERTEX
  5
48d
  8
Layer_0
  10
203.90387
  20
118.15752
  0
SEQEND
  0
POLYLINE
  5
48f
  8
Layer_0
  62
7
  66
1
  10
0
  20
0
  30
0
  0
VERTEX
  5
48f
  8
Layer_0
  10
169.90387
  20
118.15752
  0
VERTEX
  5
490
  8
Layer_0
  10
172.40387
  20
118.15752
  0
SEQEND
  0
POLYLINE
  5
492
  8
Layer_0
  62
7
  66
1
  10
0
  20
0
  30
0
  0
VERTEX
  5
492
  8
Layer_0
  10
208.40387
  20
118.15752
  0
VERTEX
  5
493
  8
Layer_0
  10
210.90387
  20
118.15752
  0
SEQEND
  0
POLYLINE
  5
495
  8
Layer_0
  62
7
  66
1
  10
0
  20
0
  30
0
  0
VERTEX
  5
495
  8
Layer_0
  10
253.90387
  20
118.15752
  0
VERTEX
  5
496
  8
Layer_0
  10
256.40387
  20
118.15752
  0
SEQEND
  0
POLYLINE
  5
498
  8
Layer_0
  62
7
  66
1
  10
0
  20
0
  30
0
  0
VERTEX
  5
498
  8
Layer_0
  10
225.90387
  20
118.15752
  0
VERTEX
  5
499
  8
Layer_0
  10
228.40387
  20
118.15752
  0
SEQEND
  0
POLYLINE
  5
49b
  8
Layer_0
  62
7
  66
1
  10
0
  20
0
  30
0
  0
VERTEX
  5
49b
  8
Layer_0
  10
246.90387
  20
118.15752
  0
VERTEX
  5
49c
  8
Layer_0
  10
249.40387
  20
118.15752
  0
SEQEND
  0
POLYLINE
  5
49e
  8
Layer_0
  62
7
  66
1
  10
0
  20
0
  30
0
  0
VERTEX
  5
49e
  8
Layer_0
  10
187.40387
  20
118.15752
  0
VERTEX
  5
49f
  8
Layer_0
  10
189.90387
  20
118.15752
  0
SEQEND
  0
POLYLINE
  5
4a1
  8
Layer_0
  62
7
  66
1
  10
0
  20
0
  30
0
  0
VERTEX
  5
4a1
  8
Layer_0
  10
176.90387
  20
118.15752
  0
VERTEX
  5
4a2
  8
Layer_0
  10
179.40387
  20
118.15752
  0
SEQEND
  0
POLYLINE
  5
4a4
  8
Layer_0
  62
7
  66
1
  10
0
  20
0
  30
0
  0
VERTEX
  5
4a4
  8
Layer_0
  10
218.90387
  20
118.15752
  0
VERTEX
  5
4a5
  8
Layer_0
  10
221.40387
  20
118.15752
  0
SEQEND
  0
POLYLINE
  5
4a7
  8
Layer_0
  62
7
  66
1
  10
0
  20
0
  30
0
  0
VERTEX
  5
4a7
  8
Layer_0
  10
250.40387
  20
118.15752
  0
VERTEX
  5
4a8
  8
Layer_0
  10
252.90387
  20
118.15752
  0
SEQEND
  0
POLYLINE
  5
4aa
  8
Layer_0
  62
7
  66
1
  10
0
  20
0
  30
0
  0
VERTEX
  5
4aa
  8
Layer_0
  10
239.90387
  20
118.15752
  0
VERTEX
  5
4ab
  8
Layer_0
  10
242.40387
  20
118.15752
  0
SEQEND
  0
POLYLINE
  5
4ad
  8
Layer_0
  62
7
  66
1
  10
0
  20
0
  30
0
  0
VERTEX
  5
4ad
  8
Layer_0
  10
194.40387
  20
118.15752
  0
VERTEX
  5
4ae
  8
Layer_0
  10
196.90387
  20
118.15752
  0
SEQEND
  0
POLYLINE
  5
4b0
  8
Layer_0
  62
7
  66
1
  10
0
  20
0
  30
0
  0
VERTEX
  5
4b0
  8
Layer_0
  10
232.90387
  20
118.15752
  0
VERTEX
  5
4b1
  8
Layer_0
  10
235.40387
  20
118.15752
  0
SEQEND
  0
POLYLINE
  5
4b3
  8
Layer_0
  62
7
  66
1
  10
0
  20
0
  30
0
  0
VERTEX
  5
4b3
  8
Layer_0
  10
236.40387
  20
118.15752
  0
VERTEX
  5
4b4
  8
Layer_0
  10
238.90387
  20
118.15752
  0
SEQEND
  0
POLYLINE
  5
4b6
  8
Layer_0
  62
7
  66
1
  10
0
  20
0
  30
0
  0
VERTEX
  5
4b6
  8
Layer_0
  10
190.90387
  20
118.15752
  0
VERTEX
  5
4b7
  8
Layer_0
  10
193.40387
  20
118.15752
  0
SEQEND
  0
POLYLINE
  5
4b9
  8
Layer_0
  62
7
  66
1
  10
0
  20
0
  30
0
  0
VERTEX
  5
4b9
  8
Layer_0
  10
215.40387
  20
118.15752
  0
VERTEX
  5
4ba
  8
Layer_0
  10
217.90387
  20
118.15752
  0
SEQEND
  0
POLYLINE
  5
4bc
  8
Layer_0
  62
7
  66
1
  10
0
  20
0
  30
0
  0
VERTEX
  5
4bc
  8
Layer_0
  10
173.40387
  20
118.15752
  0
VERTEX
  5
4bd
  8
Layer_0
  10
175.90387
  20
118.15752
  0
SEQEND
  0
POLYLINE
  5
4bf
  8
Layer_0
  62
7
  66
1
  10
0
  20
0
  30
0
  0
VERTEX
  5
4bf
  8
Layer_0
  10
180.40387
  20
118.15752
  0
VERTEX
  5
4c0
  8
Layer_0
  10
182.90387
  20
118.15752
  0
SEQEND
  0
POLYLINE
  5
4c2
  8
Layer_0
  62
7
  66
1
  10
0
  20
0
  30
0
  0
VERTEX
  5
4c2
  8
Layer_0
  10
183.90387
  20
118.15752
  0
VERTEX
  5
4c3
  8
Layer_0
  10
186.40387
  20
118.15752
  0
SEQEND
  0
POLYLINE
  5
4c5
  8
Layer_0
  62
7
  66
1
  10
0
  20
0
  30
0
  0
VERTEX
  5
4c5
  8
Layer_0
  10
243.40387
  20
118.15752
  0
VERTEX
  5
4c6
  8
Layer_0
  10
245.90387
  20
118.15752
  0
SEQEND
  0
POLYLINE
  5
4c8
  8
Layer_0
  62
7
  66
1
  10
0
  20
0
  30
0
  0
VERTEX
  5
4c8
  8
Layer_0
  10
229.40387
  20
118.15752
  0
VERTEX
  5
4c9
  8
Layer_0
  10
231.90387
  20
118.15752
  0
SEQEND
  0
POLYLINE
  5
4cb
  8
Layer_0
  62
7
  66
1
  10
0
  20
0
  30
0
  0
VERTEX
  5
4cb
  8
Layer_0
  10
204.90387
  20
118.15752
  0
VERTEX
  5
4cc
  8
Layer_0
  10
207.40387
  20
118.15752
  0
SEQEND
  0
POLYLINE
  5
4ce
  8
Layer_0
  62
7
  66
1
  10
0
  20
0
  30
0
  0
VERTEX
  5
4ce
  8
Layer_0
  10
211.90387
  20
118.15752
  0
VERTEX
  5
4cf
  8
Layer_0
  10
214.40387
  20
118.15752
  0
SEQEND
  0
POLYLINE
  5
4d1
  8
Layer_0
  62
7
  66
1
  10
0
  20
0
  30
0
  0
VERTEX
  5
4d1
  8
Layer_0
  10
197.90387
  20
118.15752
  0
VERTEX
  5
4d2
  8
Layer_0
  10
200.40387
  20
118.15752
  0
SEQEND
  0
POLYLINE
  5
4d4
  8
Layer_0
  62
7
  66
1
  10
0
  20
0
  30
0
  0
VERTEX
  5
4d4
  8
Layer_0
  10
222.40387
  20
118.15752
  0
VERTEX
  5
4d5
  8
Layer_0
  10
224.90387
  20
118.15752
  0
SEQEND
  0
POLYLINE
  5
4d7
  8
Layer_0
  62
7
  66
1
  10
0
  20
0
  30
0
  0
VERTEX
  5
4d7
  8
Layer_0
  10
202.1387
  20
176.5472
  0
VERTEX
  5
4d8
  8
Layer_0
  10
204.6387
  20
176.5472
  0
SEQEND
  0
POLYLINE
  5
4da
  8
Layer_0
  62
7
  66
1
  10
0
  20
0
  30
0
  0
VERTEX
  5
4da
  8
Layer_0
  10
170.6387
  20
176.5472
  0
VERTEX
  5
4db
  8
Layer_0
  10
173.1387
  20
176.5472
  0
SEQEND
  0
POLYLINE
  5
4dd
  8
Layer_0
  62
7
  66
1
  10
0
  20
0
  30
0
  0
VERTEX
  5
4dd
  8
Layer_0
  10
209.1387
  20
176.5472
  0
VERTEX
  5
4de
  8
Layer_0
  10
211.6387
  20
176.5472
  0
SEQEND
  0
POLYLINE
  5
4e0
  8
Layer_0
  62
7
  66
1
  10
0
  20
0
  30
0
  0
VERTEX
  5
4e0
  8
Layer_0
  10
254.6387
  20
176.54601
  0
VERTEX
  5
4e1
  8
Layer_0
  10
257.1387
  20
176.54601
  0
SEQEND
  0
POLYLINE
  5
4e3
  8
Layer_0
  62
7
  66
1
  10
0
  20
0
  30
0
  0
VERTEX
  5
4e3
  8
Layer_0
  10
226.6387
  20
176.5472
  0
VERTEX
  5
4e4
  8
Layer_0
  10
229.1387
  20
176.5472
  0
SEQEND
  0
POLYLINE
  5
4e6
  8
Layer_0
  62
7
  66
1
  10
0
  20
0
  30
0
  0
VERTEX
  5
4e6
  8
Layer_0
  10
247.6387
  20
176.5472
  0
VERTEX
  5
4e7
  8
Layer_0
  10
250.1387
  20
176.5472
  0
SEQEND
  0
POLYLINE
  5
4e9
  8
Layer_0
  62
7
  66
1
  10
0
  20
0
  30
0
  0
VERTEX
  5
4e9
  8
Layer_0
  10
188.1387
  20
176.5472
  0
VERTEX
  5
4ea
  8
Layer_0
  10
190.6387
  20
176.5472
  0
SEQEND
  0
POLYLINE
  5
4ec
  8
Layer_0
  62
7
  66
1
  10
0
  20
0
  30
0
  0
VERTEX
  5
4ec
  8
Layer_0
  10
177.6387
  20
176.5472
  0
VERTEX
  5
4ed
  8
Layer_0
  10
180.1387
  20
176.5472
  0
SEQEND
  0
POLYLINE
  5
4ef
  8
Layer_0
  62
7
  66
1
  10
0
  20
0
  30
0
  0
VERTEX
  5
4ef
  8
Layer_0
  10
219.6387
  20
176.5472
  0
VERTEX
  5
4f0
  8
Layer_0
  10
222.1387
  20
176.5472
  0
SEQEND
  0
POLYLINE
  5
4f2
  8
Layer_0
  62
7
  66
1
  10
0
  20
0
  30
0
  0
VERTEX
  5
4f2
  8
Layer_0
  10
251.1387
  20
176.5472
  0
VERTEX
  5
4f3
  8
Layer_0
  10
253.6387
  20
176.5472
  0
SEQEND
  0
POLYLINE
  5
4f5
  8
Layer_0
  62
7
  66
1
  10
0
  20
0
  30
0
  0
VERTEX
  5
4f5
  8
Layer_0
  10
240.6387
  20
176.5472
  0
VERTEX
  5
4f6
  8
Layer_0
  10
243.1387
  20
176.5472
  0
SEQEND
  0
POLYLINE
  5
4f8
  8
Layer_0
  62
7
  66
1
  10
0
  20
0
  30
0
  0
VERTEX
  5
4f8
  8
Layer_0
  10
195.1387
  20
176.5472
  0
VERTEX
  5
4f9
  8
Layer_0
  10
197.6387
  20
176.5472
  0
SEQEND
  0
POLYLINE
  5
4fb
  8
Layer_0
  62
7
  66
1
  10
0
  20
0
  30
0
  0
VERTEX
  5
4fb
  8
Layer_0
  10
233.6387
  20
176.5472
  0
VERTEX
  5
4fc
  8
Layer_0
  10
236.1387
  20
176.5472
  0
SEQEND
  0
POLYLINE
  5
4fe
  8
Layer_0
  62
7
  66
1
  10
0
  20
0
  30
0
  0
VERTEX
  5
4fe
  8
Layer_0
  10
237.1387
  20
176.5472
  0
VERTEX
  5
4ff
  8
Layer_0
  10
239.6387
  20
176.5472
  0
SEQEND
  0
POLYLINE
  5
501
  8
Layer_0
  62
7
  66
1
  10
0
  20
0
  30
0
  0
VERTEX
  5
501
  8
Layer_0
  10
191.6387
  20
176.5472
  0
VERTEX
  5
502
  8
Layer_0
  10
194.1387
  20
176.5472
  0
SEQEND
  0
POLYLINE
  5
504
  8
Layer_0
  62
7
  66
1
  10
0
  20
0
  30
0
  0
VERTEX
  5
504
  8
Layer_0
  10
216.1387
  20
176.5472
  0
VERTEX
  5
505
  8
Layer_0
  10
218.6387
  20
176.5472
  0
SEQEND
  0
POLYLINE
  5
507
  8
Layer_0
  62
7
  66
1
  10
0
  20
0
  30
0
  0
VERTEX
  5
507
  8
Layer_0
  10
174.1387
  20
176.5472
  0
VERTEX
  5
508
  8
Layer_0
  10
176.6387
  20
176.5472
  0
SEQEND
  0
POLYLINE
  5
50a
  8
Layer_0
  62
7
  66
1
  10
0
  20
0
  30
0
  0
VERTEX
  5
50a
  8
Layer_0
  10
181.1387
  20
176.5472
  0
VERTEX
  5
50b
  8
Layer_0
  10
183.6387
  20
176.5472
  0
SEQEND
  0
POLYLINE
  5
50d
  8
Layer_0
  62
7
  66
1
  10
0
  20
0
  30
0
  0
VERTEX
  5
50d
  8
Layer_0
  10
184.6387
  20
176.5472
  0
VERTEX
  5
50e
  8
Layer_0
  10
187.1387
  20
176.5472
  0
SEQEND
  0
POLYLINE
  5
510
  8
Layer_0
  62
7
  66
1
  10
0
  20
0
  30
0
  0
VERTEX
  5
510
  8
Layer_0
  10
244.1387
  20
176.5472
  0
VERTEX
  5
511
  8
Layer_0
  10
246.6387
  20
176.5472
  0
SEQEND
  0
POLYLINE
  5
513
  8
Layer_0
  62
7
  66
1
  10
0
  20
0
  30
0
  0
VERTEX
  5
513
  8
Layer_0
  10
230.1387
  20
176.5472
  0
VERTEX
  5
514
  8
Layer_0
  10
232.6387
  20
176.5472
  0
SEQEND
  0
POLYLINE
  5
516
  8
Layer_0
  62
7
  66
1
  10
0
  20
0
  30
0
  0
VERTEX
  5
516
  8
Layer_0
  10
205.6387
  20
176.5472
  0
VERTEX
  5
517
  8
Layer_0
  10
208.1387
  20
176.5472
  0
SEQEND
  0
POLYLINE
  5
519
  8
Layer_0
  62
7
  66
1
  10
0
  20
0
  30
0
  0
VERTEX
  5
519
  8
Layer_0
  10
212.6387
  20
176.5472
  0
VERTEX
  5
51a
  8
Layer_0
  10
215.1387
  20
176.5472
  0
SEQEND
  0
POLYLINE
  5
51c
  8
Layer_0
  62
7
  66
1
  10
0
  20
0
  30
0
  0
VERTEX
  5
51c
  8
Layer_0
  10
198.6387
  20
176.5472
  0
VERTEX
  5
51d
  8
Layer_0
  10
201.1387
  20
176.5472
  0
SEQEND
  0
POLYLINE
  5
51f
  8
Layer_0
  62
7
  66
1
  10
0
  20
0
  30
0
  0
VERTEX
  5
51f
  8
Layer_0
  10
223.1387
  20
176.5472
  0
VERTEX
  5
520
  8
Layer_0
  10
225.6387
  20
176.5472
  0
SEQEND
  0
POLYLINE
  5
522
  8
Layer_0
  62
7
  66
1
  10
0
  20
0
  30
0
  0
VERTEX
  5
522
  8
Layer_0
  10
169.6387
  20
196.41666
  0
VERTEX
  5
523
  8
Layer_0
  10
172.1387
  20
196.41666
  0
SEQEND
  0
POLYLINE
  5
525
  8
Layer_0
  62
7
  66
1
  10
0
  20
0
  30
0
  0
VERTEX
  5
525
  8
Layer_0
  10
173.1387
  20
196.41666
  0
VERTEX
  5
526
  8
Layer_0
  10
175.6387
  20
196.41666
  0
SEQEND
  0
POLYLINE
  5
528
  8
Layer_0
  62
7
  66
1
  10
0
  20
0
  30
0
  0
VERTEX
  5
528
  8
Layer_0
  10
176.6387
  20
196.41666
  0
VERTEX
  5
529
  8
Layer_0
  10
179.1387
  20
196.41666
  0
SEQEND
  0
POLYLINE
  5
52b
  8
Layer_0
  62
7
  66
1
  10
0
  20
0
  30
0
  0
VERTEX
  5
52b
  8
Layer_0
  10
200.3598
  20
196.41666
  0
VERTEX
  5
52c
  8
Layer_0
  10
202.8598
  20
196.41666
  0
SEQEND
  0
POLYLINE
  5
52e
  8
Layer_0
  62
7
  66
1
  10
0
  20
0
  30
0
  0
VERTEX
  5
52e
  8
Layer_0
  10
203.62389
  20
196.41666
  0
VERTEX
  5
52f
  8
Layer_0
  10
206.12389
  20
196.41666
  0
SEQEND
  0
POLYLINE
  5
531
  8
Layer_0
  62
7
  66
1
  10
0
  20
0
  30
0
  0
VERTEX
  5
531
  8
Layer_0
  10
207.12389
  20
196.41666
  0
VERTEX
  5
532
  8
Layer_0
  10
209.62389
  20
196.41666
  0
SEQEND
  0
POLYLINE
  5
534
  8
Layer_0
  62
7
  66
1
  10
0
  20
0
  30
0
  0
VERTEX
  5
534
  8
Layer_0
  10
210.62389
  20
196.41666
  0
VERTEX
  5
535
  8
Layer_0
  10
213.12389
  20
196.41666
  0
SEQEND
  0
POLYLINE
  5
537
  8
Layer_0
  62
7
  66
1
  10
0
  20
0
  30
0
  0
VERTEX
  5
537
  8
Layer_0
  10
214.12389
  20
196.41666
  0
VERTEX
  5
538
  8
Layer_0
  10
216.62389
  20
196.41666
  0
SEQEND
  0
POLYLINE
  5
53a
  8
Layer_0
  62
7
  66
1
  10
0
  20
0
  30
0
  0
VERTEX
  5
53a
  8
Layer_0
  10
217.62389
  20
196.41666
  0
VERTEX
  5
53b
  8
Layer_0
  10
220.12389
  20
196.41666
  0
SEQEND
  0
POLYLINE
  5
53d
  8
Layer_0
  62
7
  66
1
  10
0
  20
0
  30
0
  0
VERTEX
  5
53d
  8
Layer_0
  10
238.62389
  20
196.41666
  0
VERTEX
  5
53e
  8
Layer_0
  10
241.12389
  20
196.41666
  0
SEQEND
  0
POLYLINE
  5
540
  8
Layer_0
  62
7
  66
1
  10
0
  20
0
  30
0
  0
VERTEX
  5
540
  8
Layer_0
  10
228.12389
  20
196.41666
  0
VERTEX
  5
541
  8
Layer_0
  10
230.62389
  20
196.41666
  0
SEQEND
  0
POLYLINE
  5
543
  8
Layer_0
  62
7
  66
1
  10
0
  20
0
  30
0
  0
VERTEX
  5
543
  8
Layer_0
  10
231.62389
  20
196.41666
  0
VERTEX
  5
544
  8
Layer_0
  10
234.12389
  20
196.41666
  0
SEQEND
  0
POLYLINE
  5
546
  8
Layer_0
  62
7
  66
1
  10
0
  20
0
  30
0
  0
VERTEX
  5
546
  8
Layer_0
  10
235.12389
  20
196.41666
  0
VERTEX
  5
547
  8
Layer_0
  10
237.62389
  20
196.41666
  0
SEQEND
  0
POLYLINE
  5
549
  8
Layer_0
  62
7
  66
1
  10
0
  20
0
  30
0
  0
VERTEX
  5
549
  8
Layer_0
  10
224.62389
  20
196.41666
  0
VERTEX
  5
54a
  8
Layer_0
  10
227.12389
  20
196.41666
  0
SEQEND
  0
POLYLINE
  5
54c
  8
Layer_0
  62
7
  66
1
  10
0
  20
0
  30
0
  0
VERTEX
  5
54c
  8
Layer_0
  10
221.12389
  20
196.41666
  0
VERTEX
  5
54d
  8
Layer_0
  10
223.62389
  20
196.41666
  0
SEQEND
  0
POLYLINE
  5
54f
  8
Layer_0
  62
7
  66
1
  10
0
  20
0
  30
0
  0
VERTEX
  5
54f
  8
Layer_0
  10
249.12389
  20
196.41666
  0
VERTEX
  5
550
  8
Layer_0
  10
251.62389
  20
196.41666
  0
SEQEND
  0
POLYLINE
  5
552
  8
Layer_0
  62
7
  66
1
  10
0
  20
0
  30
0
  0
VERTEX
  5
552
  8
Layer_0
  10
252.62389
  20
196.41666
  0
VERTEX
  5
553
  8
Layer_0
  10
255.12389
  20
196.41666
  0
SEQEND
  0
POLYLINE
  5
555
  8
Layer_0
  62
7
  66
1
  10
0
  20
0
  30
0
  0
VERTEX
  5
555
  8
Layer_0
  10
245.62389
  20
196.41666
  0
VERTEX
  5
556
  8
Layer_0
  10
248.12389
  20
196.41666
  0
SEQEND
  0
POLYLINE
  5
558
  8
Layer_0
  62
7
  66
1
  10
0
  20
0
  30
0
  0
VERTEX
  5
558
  8
Layer_0
  10
242.12389
  20
196.41666
  0
VERTEX
  5
559
  8
Layer_0
  10
244.62389
  20
196.41666
  0
SEQEND
  0
POLYLINE
  5
55b
  8
Layer_0
  62
7
  66
1
  10
0
  20
0
  30
0
  0
VERTEX
  5
55b
  8
Layer_0
  10
257.45407
  20
175.04601
  0
VERTEX
  5
55c
  8
Layer_0
  10
257.45407
  20
173.04601
  0
SEQEND
  0
POLYLINE
  5
55e
  8
Layer_0
  62
7
  66
1
  10
0
  20
0
  30
0
  0
VERTEX
  5
55e
  8
Layer_0
  10
257.45407
  20
171.54601
  0
VERTEX
  5
55f
  8
Layer_0
  10
257.45407
  20
169.54601
  0
SEQEND
  0
POLYLINE
  5
561
  8
Layer_0
  62
7
  66
1
  10
0
  20
0
  30
0
  0
VERTEX
  5
561
  8
Layer_0
  10
257.45407
  20
168.04601
  0
VERTEX
  5
562
  8
Layer_0
  10
257.45407
  20
166.04601
  0
SEQEND
  0
POLYLINE
  5
564
  8
Layer_0
  62
7
  66
1
  10
0
  20
0
  30
0
  0
VERTEX
  5
564
  8
Layer_0
  10
257.45407
  20
164.54601
  0
VERTEX
  5
565
  8
Layer_0
  10
257.45407
  20
162.54601
  0
SEQEND
  0
POLYLINE
  5
567
  8
Layer_0
  62
7
  66
1
  10
0
  20
0
  30
0
  0
VERTEX
  5
567
  8
Layer_0
  10
257.45407
  20
154.04601
  0
VERTEX
  5
568
  8
Layer_0
  10
257.45407
  20
152.04601
  0
SEQEND
  0
POLYLINE
  5
56a
  8
Layer_0
  62
7
  66
1
  10
0
  20
0
  30
0
  0
VERTEX
  5
56a
  8
Layer_0
  10
257.45407
  20
157.54601
  0
VERTEX
  5
56b
  8
Layer_0
  10
257.45407
  20
155.54601
  0
SEQEND
  0
POLYLINE
  5
56d
  8
Layer_0
  62
7
  66
1
  10
0
  20
0
  30
0
  0
VERTEX
  5
56d
  8
Layer_0
  10
257.45407
  20
161.04601
  0
VERTEX
  5
56e
  8
Layer_0
  10
257.45407
  20
159.04601
  0
SEQEND
  0
POLYLINE
  5
570
  8
Layer_0
  62
7
  66
1
  10
0
  20
0
  30
0
  0
VERTEX
  5
570
  8
Layer_0
  10
257.45407
  20
150.54601
  0
VERTEX
  5
571
  8
Layer_0
  10
257.45407
  20
148.54601
  0
SEQEND
  0
POLYLINE
  5
573
  8
Layer_0
  62
7
  66
1
  10
0
  20
0
  30
0
  0
VERTEX
  5
573
  8
Layer_0
  10
257.45407
  20
140.04601
  0
VERTEX
  5
574
  8
Layer_0
  10
257.45407
  20
138.04601
  0
SEQEND
  0
POLYLINE
  5
576
  8
Layer_0
  62
7
  66
1
  10
0
  20
0
  30
0
  0
VERTEX
  5
576
  8
Layer_0
  10
257.45407
  20
143.54601
  0
VERTEX
  5
577
  8
Layer_0
  10
257.45407
  20
141.54601
  0
SEQEND
  0
POLYLINE
  5
579
  8
Layer_0
  62
7
  66
1
  10
0
  20
0
  30
0
  0
VERTEX
  5
579
  8
Layer_0
  10
257.45407
  20
147.04601
  0
VERTEX
  5
57a
  8
Layer_0
  10
257.45407
  20
145.04601
  0
SEQEND
  0
POLYLINE
  5
57c
  8
Layer_0
  62
7
  66
1
  10
0
  20
0
  30
0
  0
VERTEX
  5
57c
  8
Layer_0
  10
258.95407
  20
137.15752
  0
VERTEX
  5
57d
  8
Layer_0
  10
260.95407
  20
137.15752
  0
SEQEND
  0
POLYLINE
  5
57f
  8
Layer_0
  62
7
  66
1
  10
0
  20
0
  30
0
  0
VERTEX
  5
57f
  8
Layer_0
  10
262.45407
  20
137.15752
  0
VERTEX
  5
580
  8
Layer_0
  10
264.45407
  20
137.15752
  0
SEQEND
  0
POLYLINE
  5
582
  8
Layer_0
  62
7
  66
1
  10
0
  20
0
  30
0
  0
VERTEX
  5
582
  8
Layer_0
  10
265.95407
  20
137.15752
  0
VERTEX
  5
583
  8
Layer_0
  10
267.95407
  20
137.15752
  0
SEQEND
  0
POLYLINE
  5
585
  8
Layer_0
  62
7
  66
1
  10
0
  20
0
  30
0
  0
VERTEX
  5
585
  8
Layer_0
  10
269.45407
  20
137.15752
  0
VERTEX
  5
586
  8
Layer_0
  10
271.45407
  20
137.15752
  0
SEQEND
  0
POLYLINE
  5
588
  8
Layer_0
  62
7
  66
1
  10
0
  20
0
  30
0
  0
VERTEX
  5
588
  8
Layer_0
  10
272.95407
  20
137.15752
  0
VERTEX
  5
589
  8
Layer_0
  10
274.95407
  20
137.15752
  0
SEQEND
  0
POLYLINE
  5
58b
  8
Layer_0
  62
7
  66
1
  10
0
  20
0
  30
0
  0
VERTEX
  5
58b
  8
Layer_0
  10
276.45407
  20
137.15752
  0
VERTEX
  5
58c
  8
Layer_0
  10
277.01224
  20
137.15752
  0
SEQEND
  0
POLYLINE
  5
58e
  8
Layer_0
  62
7
  66
1
  10
0
  20
0
  30
0
  0
VERTEX
  5
58e
  8
Layer_0
  10
258.95407
  20
176.54601
  0
VERTEX
  5
58f
  8
Layer_0
  10
260.95407
  20
176.54601
  0
SEQEND
  0
POLYLINE
  5
591
  8
Layer_0
  62
7
  66
1
  10
0
  20
0
  30
0
  0
VERTEX
  5
591
  8
Layer_0
  10
262.45407
  20
176.54601
  0
VERTEX
  5
592
  8
Layer_0
  10
264.45407
  20
176.54601
  0
SEQEND
  0
POLYLINE
  5
594
  8
Layer_0
  62
7
  66
1
  10
0
  20
0
  30
0
  0
VERTEX
  5
594
  8
Layer_0
  10
265.95407
  20
176.54601
  0
VERTEX
  5
595
  8
Layer_0
  10
267.95407
  20
176.54601
  0
SEQEND
  0
POLYLINE
  5
597
  8
Layer_0
  62
7
  66
1
  10
0
  20
0
  30
0
  0
VERTEX
  5
597
  8
Layer_0
  10
269.45407
  20
176.54601
  0
VERTEX
  5
598
  8
Layer_0
  10
271.45407
  20
176.54601
  0
SEQEND
  0
POLYLINE
  5
59a
  8
Layer_0
  62
7
  66
1
  10
0
  20
0
  30
0
  0
VERTEX
  5
59a
  8
Layer_0
  10
272.95407
  20
176.54601
  0
VERTEX
  5
59b
  8
Layer_0
  10
274.95407
  20
176.54601
  0
SEQEND
  0
POLYLINE
  5
59d
  8
Layer_0
  62
7
  66
1
  10
0
  20
0
  30
0
  0
VERTEX
  5
59d
  8
Layer_0
  10
276.45407
  20
176.54601
  0
VERTEX
  5
59e
  8
Layer_0
  10
277.01224
  20
176.54601
  0
SEQEND
  0
ENDSEC
  0
EOF
