  0
SECTION
  2
HEADER
  9
$ACADVER
  1
AC1009
  0
ENDSEC
  0
SECTION
  2
TABLES
  0
TABLE
  2
LAYER
  70
1
  0
LAYER
  2
Layer_8
  70
0
  62
254
  6
CONTINUOUS
  0
ENDTAB
  0
ENDSEC
  0
SECTION
  2
ENTITIES
  0
POLYLINE
  5
90
  8
Layer_8
  62
254
  66
1
  10
0
  20
0
  30
0
  0
VERTEX
  5
90
  8
Layer_8
  10
96.733017
  20
260.81839
  0
VERTEX
  5
91
  8
Layer_8
  10
100.75369
  20
260.85529
  0
SEQEND
  0
POLYLINE
  5
93
  8
Layer_8
  62
254
  70
1
  66
1
  10
0
  20
0
  30
0
  0
VERTEX
  5
93
  8
Layer_8
  10
286.27267
  20
293.53558
  42
0.41420179
  0
VERTEX
  5
94
  8
Layer_8
  10
289.04095
  20
290.80402
  42
0.41421947
  0
VERTEX
  5
95
  8
Layer_8
  10
291.77255
  20
293.57227
  42
0.4142165
  0
VERTEX
  5
96
  8
Layer_8
  10
289.00424
  20
296.30389
  42
0.41421356
  0
SEQEND
  0
POLYLINE
  5
98
  8
Layer_8
  62
254
  66
1
  10
0
  20
0
  30
0
  0
VERTEX
  5
98
  8
Layer_8
  10
90.942268
  20
241.49553
  0
VERTEX
  5
99
  8
Layer_8
  10
90.875366
  20
201.72095
  0
VERTEX
  5
9a
  8
Layer_8
  10
90.879715
  20
201.0793
  42
-0.20014275
  0
VERTEX
  5
9b
  8
Layer_8
  10
89.710312
  20
198.23093
  42
-0.20015045
  0
VERTEX
  5
9c
  8
Layer_8
  10
86.86377
  20
197.05728
  0
VERTEX
  5
9d
  8
Layer_8
  10
75.546074
  20
197.10284
  42
-0.19902326
  0
VERTEX
  5
9e
  8
Layer_8
  10
72.721123
  20
198.28702
  42
-0.1990396
  0
VERTEX
  5
9f
  8
Layer_8
  10
71.562164
  20
201.12239
  0
VERTEX
  5
a0
  8
Layer_8
  10
71.55864
  20
200.39737
  0
VERTEX
  5
a1
  8
Layer_8
  10
71.285324
  20
240.63745
  0
VERTEX
  5
a2
  8
Layer_8
  10
48.536934
  20
240.40822
  0
VERTEX
  5
a3
  8
Layer_8
  10
47.157509
  20
240.39426
  42
-0.4089121
  0
VERTEX
  5
a4
  8
Layer_8
  10
42.614006
  20
244.76712
  0
VERTEX
  5
a5
  8
Layer_8
  10
42.455086
  20
250.39325
  0
VERTEX
  5
a6
  8
Layer_8
  10
42.584206
  20
256.02014
  42
-0.40890686
  0
VERTEX
  5
a7
  8
Layer_8
  10
47.104622
  20
260.41687
  0
VERTEX
  5
a8
  8
Layer_8
  10
48.484123
  20
260.41028
  0
VERTEX
  5
a9
  8
Layer_8
  10
71.233475
  20
260.30121
  0
VERTEX
  5
aa
  8
Layer_8
  10
71.294159
  20
300.54208
  0
VERTEX
  5
ab
  8
Layer_8
  10
71.301575
  20
299.81714
  42
-0.19903504
  0
VERTEX
  5
ac
  8
Layer_8
  10
72.445526
  20
302.65857
  42
-0.19899782
  0
VERTEX
  5
ad
  8
Layer_8
  10
75.26413
  20
303.85764
  0
VERTEX
  5
ae
  8
Layer_8
  10
86.581421
  20
303.96295
  42
-0.20014775
  0
VERTEX
  5
af
  8
Layer_8
  10
89.434151
  20
302.80438
  42
-0.20014386
  0
VERTEX
  5
b0
  8
Layer_8
  10
90.618652
  20
299.96234
  0
VERTEX
  5
b1
  8
Layer_8
  10
90.61853
  20
299.38147
  0
VERTEX
  5
b2
  8
Layer_8
  10
90.894196
  20
259.78595
  0
SEQEND
  0
POLYLINE
  5
b4
  8
Layer_8
  62
254
  66
1
  10
0
  20
0
  30
0
  0
VERTEX
  5
b4
  8
Layer_8
  10
110.22499
  20
204.52034
  0
VERTEX
  5
b5
  8
Layer_8
  10
104.17385
  20
206.48447
  0
VERTEX
  5
b6
  8
Layer_8
  10
104.28204
  20
216.31073
  0
VERTEX
  5
b7
  8
Layer_8
  10
110.35635
  20
218.81293
  0
SEQEND
  0
POLYLINE
  5
b9
  8
Layer_8
  62
254
  70
1
  66
1
  10
0
  20
0
  30
0
  0
VERTEX
  5
b9
  8
Layer_8
  10
81.645775
  20
297.29474
  42
0.4142143
  0
VERTEX
  5
ba
  8
Layer_8
  10
78.877487
  20
300.02634
  42
0.41421356
  0
VERTEX
  5
bb
  8
Layer_8
  10
76.145897
  20
297.25806
  42
0.41421577
  0
VERTEX
  5
bc
  8
Layer_8
  10
78.914185
  20
294.52646
  42
0.41421357
  0
SEQEND
  0
POLYLINE
  5
be
  8
Layer_8
  62
254
  66
1
  10
0
  20
0
  30
0
  0
VERTEX
  5
be
  8
Layer_8
  10
164.29105
  20
286.54462
  0
VERTEX
  5
bf
  8
Layer_8
  10
164.32361
  20
280.28915
  0
SEQEND
  0
POLYLINE
  5
c1
  8
Layer_8
  62
254
  70
1
  66
1
  10
0
  20
0
  30
0
  0
VERTEX
  5
c1
  8
Layer_8
  10
286.311
  20
209.01018
  42
0.41421209
  0
VERTEX
  5
c2
  8
Layer_8
  10
289.07928
  20
206.27859
  42
0.41421211
  0
VERTEX
  5
c3
  8
Layer_8
  10
291.81088
  20
209.04689
  42
0.41421649
  0
VERTEX
  5
c4
  8
Layer_8
  10
289.04257
  20
211.77847
  42
0.41421061
  0
SEQEND
  0
POLYLINE
  5
c6
  8
Layer_8
  62
254
  70
1
  66
1
  10
0
  20
0
  30
0
  0
VERTEX
  5
c6
  8
Layer_8
  10
251.037
  20
336.37115
  42
0.41421358
  0
VERTEX
  5
c7
  8
Layer_8
  10
253.80528
  20
333.63959
  42
0.41421945
  0
VERTEX
  5
c8
  8
Layer_8
  10
256.53687
  20
336.40787
  42
0.41421356
  0
VERTEX
  5
c9
  8
Layer_8
  10
253.76857
  20
339.13947
  42
0.41421945
  0
SEQEND
  0
POLYLINE
  5
cb
  8
Layer_8
  62
254
  66
1
  10
0
  20
0
  30
0
  0
VERTEX
  5
cb
  8
Layer_8
  10
271.33737
  20
271.93671
  0
VERTEX
  5
cc
  8
Layer_8
  10
266.3374
  20
271.91064
  0
SEQEND
  0
POLYLINE
  5
ce
  8
Layer_8
  62
254
  66
1
  10
0
  20
0
  30
0
  0
VERTEX
  5
ce
  8
Layer_8
  10
106.10627
  20
208.44046
  42
0.14452497
  0
VERTEX
  5
cf
  8
Layer_8
  10
108.35516
  20
208.61246
  0
VERTEX
  5
d0
  8
Layer_8
  10
108.41646
  20
208.64032
  0
VERTEX
  5
d1
  8
Layer_8
  10
108.47658
  20
208.66966
  42
0.22785032
  0
VERTEX
  5
d2
  8
Layer_8
  10
109.86272
  20
210.59222
  42
0.19855667
  0
VERTEX
  5
d3
  8
Layer_8
  10
109.37392
  20
213.79391
  42
0.24289499
  0
VERTEX
  5
d4
  8
Layer_8
  10
107.12471
  20
214.98161
  42
0.040073161
  0
VERTEX
  5
d5
  8
Layer_8
  10
106.27912
  20
214.96307
  0
SEQEND
  0
POLYLINE
  5
d7
  8
Layer_8
  62
254
  66
1
  10
0
  20
0
  30
0
  0
VERTEX
  5
d7
  8
Layer_8
  10
276.64938
  20
270.95966
  0
VERTEX
  5
d8
  8
Layer_8
  10
275.72888
  20
329.57162
  0
VERTEX
  5
d9
  8
Layer_8
  10
264.44806
  20
329.2352
  0
VERTEX
  5
da
  8
Layer_8
  10
264.44623
  20
334.00882
  42
0.19912004
  0
VERTEX
  5
db
  8
Layer_8
  10
261.50134
  20
341.08136
  42
0.19912039
  0
VERTEX
  5
dc
  8
Layer_8
  10
254.41568
  20
343.99432
  0
VERTEX
  5
dd
  8
Layer_8
  10
254.8736
  20
343.99579
  0
VERTEX
  5
de
  8
Layer_8
  10
253.5542
  20
343.97028
  42
0.40898859
  0
VERTEX
  5
df
  8
Layer_8
  10
244.72806
  20
334.95898
  0
VERTEX
  5
e0
  8
Layer_8
  10
244.73633
  20
329.27802
  0
VERTEX
  5
e1
  8
Layer_8
  10
217.77255
  20
329.23907
  0
VERTEX
  5
e2
  8
Layer_8
  10
217.79613
  20
334.39011
  42
0.41421356
  0
VERTEX
  5
e3
  8
Layer_8
  10
208.83606
  20
343.43567
  0
VERTEX
  5
e4
  8
Layer_8
  10
207.778
  20
343.45834
  42
0.20031961
  0
VERTEX
  5
e5
  8
Layer_8
  10
201.32394
  20
340.92554
  42
0.20031975
  0
VERTEX
  5
e6
  8
Layer_8
  10
198.5856
  20
334.55603
  0
VERTEX
  5
e7
  8
Layer_8
  10
198.52463
  20
328.819
  0
VERTEX
  5
e8
  8
Layer_8
  10
188.15813
  20
328.86633
  0
VERTEX
  5
e9
  8
Layer_8
  10
188.11441
  20
319.28604
  0
VERTEX
  5
ea
  8
Layer_8
  10
174.21896
  20
319.25604
  0
VERTEX
  5
eb
  8
Layer_8
  10
174.20682
  20
324.89514
  42
0.4074413
  0
VERTEX
  5
ec
  8
Layer_8
  10
165.39607
  20
333.87372
  0
VERTEX
  5
ed
  8
Layer_8
  10
164.16974
  20
333.89185
  0
VERTEX
  5
ee
  8
Layer_8
  10
163.23695
  20
333.87967
  42
0.40975216
  0
VERTEX
  5
ef
  8
Layer_8
  10
154.35455
  20
324.90039
  0
VERTEX
  5
f0
  8
Layer_8
  10
154.34222
  20
319.38321
  0
VERTEX
  5
f1
  8
Layer_8
  10
144.27533
  20
319.40552
  42
0.20023505
  0
VERTEX
  5
f2
  8
Layer_8
  10
141.07413
  20
318.07828
  42
0.20023154
  0
VERTEX
  5
f3
  8
Layer_8
  10
139.76544
  20
314.86951
  0
VERTEX
  5
f4
  8
Layer_8
  10
139.86024
  20
303.01965
  0
VERTEX
  5
f5
  8
Layer_8
  10
139.88605
  20
302.94458
  42
0.18156362
  0
VERTEX
  5
f6
  8
Layer_8
  10
142.12164
  20
300.34955
  42
0.041387932
  0
VERTEX
  5
f7
  8
Layer_8
  10
143.86774
  20
299.47253
  0
SEQEND
  0
POLYLINE
  5
f9
  8
Layer_8
  62
254
  66
1
  10
0
  20
0
  30
0
  0
VERTEX
  5
f9
  8
Layer_8
  10
90.875366
  20
201.72095
  0
VERTEX
  5
fa
  8
Layer_8
  10
118.39659
  20
201.8109
  0
VERTEX
  5
fb
  8
Layer_8
  10
118.31544
  20
196.17142
  42
0.19951289
  0
VERTEX
  5
fc
  8
Layer_8
  10
120.87406
  20
189.75552
  42
0.1995002
  0
VERTEX
  5
fd
  8
Layer_8
  10
127.22619
  20
187.04245
  0
VERTEX
  5
fe
  8
Layer_8
  10
128.52942
  20
187.02966
  42
0.41421536
  0
VERTEX
  5
ff
  8
Layer_8
  10
137.61728
  20
195.94083
  0
VERTEX
  5
100
  8
Layer_8
  10
137.67484
  20
201.80574
  0
VERTEX
  5
101
  8
Layer_8
  10
154.44472
  20
201.92137
  0
VERTEX
  5
102
  8
Layer_8
  10
154.41739
  20
196.23544
  42
0.41300885
  0
VERTEX
  5
103
  8
Layer_8
  10
163.33696
  20
187.1926
  0
VERTEX
  5
104
  8
Layer_8
  10
164.97429
  20
187.17801
  42
0.41210792
  0
VERTEX
  5
105
  8
Layer_8
  10
174.05344
  20
196.03262
  0
VERTEX
  5
106
  8
Layer_8
  10
174.15039
  20
202.04707
  0
VERTEX
  5
107
  8
Layer_8
  10
177.70596
  20
202.04181
  0
SEQEND
  0
POLYLINE
  5
109
  8
Layer_8
  62
254
  66
1
  10
0
  20
0
  30
0
  0
VERTEX
  5
109
  8
Layer_8
  10
105.23865
  20
289.72339
  0
VERTEX
  5
10a
  8
Layer_8
  10
115.73865
  20
289.72595
  0
SEQEND
  0
POLYLINE
  5
10c
  8
Layer_8
  62
254
  66
1
  10
0
  20
0
  30
0
  0
VERTEX
  5
10c
  8
Layer_8
  10
180.40402
  20
221.78995
  0
VERTEX
  5
10d
  8
Layer_8
  10
184.88889
  20
221.76816
  0
SEQEND
  0
POLYLINE
  5
10f
  8
Layer_8
  62
254
  66
1
  10
0
  20
0
  30
0
  0
VERTEX
  5
10f
  8
Layer_8
  10
252.45193
  20
329.38437
  0
VERTEX
  5
110
  8
Layer_8
  10
247.45204
  20
329.35101
  0
SEQEND
  0
POLYLINE
  5
112
  8
Layer_8
  62
254
  66
1
  10
0
  20
0
  30
0
  0
VERTEX
  5
112
  8
Layer_8
  10
119.35252
  20
240.76373
  0
VERTEX
  5
113
  8
Layer_8
  10
114.35262
  20
240.73036
  0
SEQEND
  0
POLYLINE
  5
115
  8
Layer_8
  62
254
  66
1
  10
0
  20
0
  30
0
  0
VERTEX
  5
115
  8
Layer_8
  10
276.87714
  20
232.60988
  0
VERTEX
  5
116
  8
Layer_8
  10
276.75723
  20
201.26279
  0
VERTEX
  5
117
  8
Layer_8
  10
276.66913
  20
178.24533
  0
VERTEX
  5
118
  8
Layer_8
  10
189.88113
  20
177.80835
  0
VERTEX
  5
119
  8
Layer_8
  10
189.72998
  20
182.74625
  0
VERTEX
  5
11a
  8
Layer_8
  10
188.4306
  20
182.70642
  0
VERTEX
  5
11b
  8
Layer_8
  10
179.28867
  20
182.55521
  42
-0.4134245
  0
VERTEX
  5
11c
  8
Layer_8
  10
174.715
  20
186.96805
  0
VERTEX
  5
11d
  8
Layer_8
  10
174.50201
  20
198.0448
  42
-0.20330425
  0
VERTEX
  5
11e
  8
Layer_8
  10
175.66592
  20
200.94321
  42
-0.20326878
  0
VERTEX
  5
11f
  8
Layer_8
  10
178.5587
  20
202.12128
  0
VERTEX
  5
120
  8
Layer_8
  10
188.39645
  20
201.9799
  0
VERTEX
  5
121
  8
Layer_8
  10
188.75861
  20
202.04153
  0
VERTEX
  5
122
  8
Layer_8
  10
188.7475
  20
230.79427
  0
VERTEX
  5
123
  8
Layer_8
  10
177.9193
  20
241.17224
  0
SEQEND
  0
POLYLINE
  5
125
  8
Layer_8
  62
254
  66
1
  10
0
  20
0
  30
0
  0
VERTEX
  5
125
  8
Layer_8
  10
276.75723
  20
201.26279
  42
0.054909173
  0
VERTEX
  5
126
  8
Layer_8
  10
277.43857
  20
199.45413
  42
0.26100653
  0
VERTEX
  5
127
  8
Layer_8
  10
279.90988
  20
197.65344
  0
VERTEX
  5
128
  8
Layer_8
  10
279.99274
  20
197.64325
  0
VERTEX
  5
129
  8
Layer_8
  10
280.07709
  20
197.63467
  0
VERTEX
  5
12a
  8
Layer_8
  10
280.15982
  20
197.62796
  0
VERTEX
  5
12b
  8
Layer_8
  10
290.67007
  20
197.49332
  42
0.20264558
  0
VERTEX
  5
12c
  8
Layer_8
  10
294.98346
  20
199.24081
  42
0.19960989
  0
VERTEX
  5
12d
  8
Layer_8
  10
296.64313
  20
203.4913
  0
VERTEX
  5
12e
  8
Layer_8
  10
296.41528
  20
300.31311
  42
0.20105924
  0
VERTEX
  5
12f
  8
Layer_8
  10
295.11163
  20
303.27753
  42
0.20106169
  0
VERTEX
  5
130
  8
Layer_8
  10
292.08405
  20
304.42682
  0
VERTEX
  5
131
  8
Layer_8
  10
281.04907
  20
304.54462
  0
VERTEX
  5
132
  8
Layer_8
  10
281.03882
  20
304.54752
  0
VERTEX
  5
133
  8
Layer_8
  10
280.99039
  20
304.55933
  0
VERTEX
  5
134
  8
Layer_8
  10
280.62234
  20
304.55353
  42
0.41412541
  0
VERTEX
  5
135
  8
Layer_8
  10
276.19354
  20
299.98477
  0
VERTEX
  5
136
  8
Layer_8
  10
276.15683
  20
302.32379
  0
SEQEND
  0
POLYLINE
  5
138
  8
Layer_8
  62
254
  66
1
  10
0
  20
0
  30
0
  0
VERTEX
  5
138
  8
Layer_8
  10
251.33762
  20
271.83264
  0
VERTEX
  5
139
  8
Layer_8
  10
246.33771
  20
271.80655
  0
SEQEND
  0
POLYLINE
  5
13b
  8
Layer_8
  62
254
  70
1
  66
1
  10
0
  20
0
  30
0
  0
VERTEX
  5
13b
  8
Layer_8
  10
251.53198
  20
219.40793
  42
0.41421063
  0
VERTEX
  5
13c
  8
Layer_8
  10
254.30026
  20
216.67635
  42
0.41421356
  0
VERTEX
  5
13d
  8
Layer_8
  10
257.03186
  20
219.44463
  42
0.41421356
  0
VERTEX
  5
13e
  8
Layer_8
  10
254.26358
  20
222.17622
  42
0.41421209
  0
SEQEND
  0
POLYLINE
  5
140
  8
Layer_8
  62
254
  70
1
  66
1
  10
0
  20
0
  30
0
  0
VERTEX
  5
140
  8
Layer_8
  10
123.5742
  20
288.79651
  42
0.41421357
  0
VERTEX
  5
141
  8
Layer_8
  10
128.00345
  20
284.42596
  42
0.41420345
  0
VERTEX
  5
142
  8
Layer_8
  10
132.37399
  20
288.85522
  42
0.41420989
  0
VERTEX
  5
143
  8
Layer_8
  10
127.94473
  20
293.22574
  42
0.41421356
  0
SEQEND
  0
POLYLINE
  5
145
  8
Layer_8
  62
254
  66
1
  10
0
  20
0
  30
0
  0
VERTEX
  5
145
  8
Layer_8
  10
275.85825
  20
213.435
  0
VERTEX
  5
146
  8
Layer_8
  10
271.82312
  20
213.40808
  0
SEQEND
  0
POLYLINE
  5
148
  8
Layer_8
  62
254
  66
1
  10
0
  20
0
  30
0
  0
VERTEX
  5
148
  8
Layer_8
  10
246.82367
  20
213.24113
  0
VERTEX
  5
149
  8
Layer_8
  10
241.82379
  20
213.20772
  0
SEQEND
  0
POLYLINE
  5
14b
  8
Layer_8
  62
254
  66
1
  10
0
  20
0
  30
0
  0
VERTEX
  5
14b
  8
Layer_8
  10
198.37524
  20
286.57138
  0
VERTEX
  5
14c
  8
Layer_8
  10
195.37527
  20
286.55576
  0
SEQEND
  0
POLYLINE
  5
14e
  8
Layer_8
  62
254
  66
1
  10
0
  20
0
  30
0
  0
VERTEX
  5
14e
  8
Layer_8
  10
266.27527
  20
286.92398
  0
VERTEX
  5
14f
  8
Layer_8
  10
261.27533
  20
286.89801
  0
SEQEND
  0
POLYLINE
  5
151
  8
Layer_8
  62
254
  70
1
  66
1
  10
0
  20
0
  30
0
  0
VERTEX
  5
151
  8
Layer_8
  10
127.85207
  20
270.05402
  42
0.4142121
  0
VERTEX
  5
152
  8
Layer_8
  10
130.58366
  20
272.8223
  42
0.41421209
  0
VERTEX
  5
153
  8
Layer_8
  10
127.81537
  20
275.55389
  42
0.41421502
  0
VERTEX
  5
154
  8
Layer_8
  10
125.08379
  20
272.78558
  42
0.4142165
  0
SEQEND
  0
POLYLINE
  5
156
  8
Layer_8
  62
254
  70
1
  66
1
  10
0
  20
0
  30
0
  0
VERTEX
  5
156
  8
Layer_8
  10
123.97578
  20
210.86908
  42
0.41421264
  0
VERTEX
  5
157
  8
Layer_8
  10
128.40506
  20
206.4985
  42
0.41421264
  0
VERTEX
  5
158
  8
Layer_8
  10
132.77559
  20
210.9278
  42
0.41421264
  0
VERTEX
  5
159
  8
Layer_8
  10
128.34633
  20
215.2984
  42
0.41420988
  0
SEQEND
  0
POLYLINE
  5
15b
  8
Layer_8
  62
254
  70
1
  66
1
  10
0
  20
0
  30
0
  0
VERTEX
  5
15b
  8
Layer_8
  10
131.15024
  20
194.00217
  42
0.41421062
  0
VERTEX
  5
15c
  8
Layer_8
  10
128.38194
  20
196.73373
  42
0.41421356
  0
VERTEX
  5
15d
  8
Layer_8
  10
125.65035
  20
193.96545
  42
0.41421062
  0
VERTEX
  5
15e
  8
Layer_8
  10
128.41864
  20
191.23386
  42
0.41421356
  0
SEQEND
  0
POLYLINE
  5
160
  8
Layer_8
  62
254
  66
1
  10
0
  20
0
  30
0
  0
VERTEX
  5
160
  8
Layer_8
  10
226.87808
  20
212.79404
  0
VERTEX
  5
161
  8
Layer_8
  10
221.87839
  20
212.84787
  0
SEQEND
  0
POLYLINE
  5
163
  8
Layer_8
  62
254
  66
1
  10
0
  20
0
  30
0
  0
VERTEX
  5
163
  8
Layer_8
  10
129.94316
  20
221.86887
  0
VERTEX
  5
164
  8
Layer_8
  10
134.94305
  20
221.90222
  0
SEQEND
  0
POLYLINE
  5
166
  8
Layer_8
  62
254
  66
1
  10
0
  20
0
  30
0
  0
VERTEX
  5
166
  8
Layer_8
  10
216.57831
  20
231.20287
  0
VERTEX
  5
167
  8
Layer_8
  10
221.5782
  20
231.23624
  0
SEQEND
  0
POLYLINE
  5
169
  8
Layer_8
  62
254
  66
1
  10
0
  20
0
  30
0
  0
VERTEX
  5
169
  8
Layer_8
  10
251.57755
  20
231.43642
  0
VERTEX
  5
16a
  8
Layer_8
  10
246.57767
  20
231.40305
  0
SEQEND
  0
POLYLINE
  5
16c
  8
Layer_8
  62
254
  66
1
  10
0
  20
0
  30
0
  0
VERTEX
  5
16c
  8
Layer_8
  10
208.85127
  20
206.73187
  0
VERTEX
  5
16d
  8
Layer_8
  10
208.9187
  20
212.98698
  0
SEQEND
  0
POLYLINE
  5
16f
  8
Layer_8
  62
254
  66
1
  10
0
  20
0
  30
0
  0
VERTEX
  5
16f
  8
Layer_8
  10
281.33725
  20
271.98871
  0
VERTEX
  5
170
  8
Layer_8
  10
278.33728
  20
271.97308
  0
SEQEND
  0
POLYLINE
  5
172
  8
Layer_8
  62
254
  66
1
  10
0
  20
0
  30
0
  0
VERTEX
  5
172
  8
Layer_8
  10
119.94339
  20
221.80208
  0
VERTEX
  5
173
  8
Layer_8
  10
124.94328
  20
221.83543
  0
SEQEND
  0
POLYLINE
  5
175
  8
Layer_8
  62
254
  66
1
  10
0
  20
0
  30
0
  0
VERTEX
  5
175
  8
Layer_8
  10
161.51735
  20
319.27734
  0
VERTEX
  5
176
  8
Layer_8
  10
156.51746
  20
319.24402
  0
SEQEND
  0
POLYLINE
  5
178
  8
Layer_8
  62
254
  66
1
  10
0
  20
0
  30
0
  0
VERTEX
  5
178
  8
Layer_8
  10
256.27539
  20
286.87201
  0
VERTEX
  5
179
  8
Layer_8
  10
251.27547
  20
286.84598
  0
SEQEND
  0
POLYLINE
  5
17b
  8
Layer_8
  62
254
  66
1
  10
0
  20
0
  30
0
  0
VERTEX
  5
17b
  8
Layer_8
  10
135.79643
  20
201.75623
  0
VERTEX
  5
17c
  8
Layer_8
  10
130.79654
  20
201.72285
  0
SEQEND
  0
POLYLINE
  5
17e
  8
Layer_8
  62
254
  66
1
  10
0
  20
0
  30
0
  0
VERTEX
  5
17e
  8
Layer_8
  10
129.35228
  20
240.83046
  0
VERTEX
  5
17f
  8
Layer_8
  10
124.35239
  20
240.79709
  0
SEQEND
  0
POLYLINE
  5
181
  8
Layer_8
  62
254
  70
1
  66
1
  10
0
  20
0
  30
0
  0
VERTEX
  5
181
  8
Layer_8
  10
257.20041
  20
282.69879
  42
0.41421356
  0
VERTEX
  5
182
  8
Layer_8
  10
254.43213
  20
285.43039
  42
0.41420768
  0
VERTEX
  5
183
  8
Layer_8
  10
251.70053
  20
282.66211
  42
0.41421356
  0
VERTEX
  5
184
  8
Layer_8
  10
254.46884
  20
279.93051
  42
0.41421356
  0
SEQEND
  0
POLYLINE
  5
186
  8
Layer_8
  62
254
  70
1
  66
1
  10
0
  20
0
  30
0
  0
VERTEX
  5
186
  8
Layer_8
  10
254.37689
  20
312.47925
  42
0.41421356
  0
VERTEX
  5
187
  8
Layer_8
  10
250.00635
  20
308.04999
  42
0.41420621
  0
VERTEX
  5
188
  8
Layer_8
  10
254.43561
  20
303.6795
  42
0.41420621
  0
VERTEX
  5
189
  8
Layer_8
  10
258.80615
  20
308.1087
  42
0.19891756
  0
VERTEX
  5
18a
  8
Layer_8
  10
257.4967
  20
311.21133
  42
0.19891976
  0
SEQEND
  0
POLYLINE
  5
18c
  8
Layer_8
  62
254
  66
1
  10
0
  20
0
  30
0
  0
VERTEX
  5
18c
  8
Layer_8
  10
174.59624
  20
221.95888
  0
VERTEX
  5
18d
  8
Layer_8
  10
154.74396
  20
221.935
  0
SEQEND
  0
POLYLINE
  5
18f
  8
Layer_8
  62
254
  66
1
  10
0
  20
0
  30
0
  0
VERTEX
  5
18f
  8
Layer_8
  10
276.7355
  20
242.42683
  0
VERTEX
  5
190
  8
Layer_8
  10
276.70215
  20
247.42673
  0
SEQEND
  0
POLYLINE
  5
192
  8
Layer_8
  62
254
  66
1
  10
0
  20
0
  30
0
  0
VERTEX
  5
192
  8
Layer_8
  10
71.17894
  20
244.77599
  0
VERTEX
  5
193
  8
Layer_8
  10
71.154671
  20
248.81995
  0
SEQEND
  0
POLYLINE
  5
195
  8
Layer_8
  62
254
  66
1
  10
0
  20
0
  30
0
  0
VERTEX
  5
195
  8
Layer_8
  10
291.57684
  20
231.66008
  0
VERTEX
  5
196
  8
Layer_8
  10
286.57687
  20
231.64832
  0
SEQEND
  0
POLYLINE
  5
198
  8
Layer_8
  62
254
  66
1
  10
0
  20
0
  30
0
  0
VERTEX
  5
198
  8
Layer_8
  10
226.27582
  20
286.71594
  0
VERTEX
  5
199
  8
Layer_8
  10
221.27588
  20
286.69
  0
SEQEND
  0
POLYLINE
  5
19b
  8
Layer_8
  62
254
  66
1
  10
0
  20
0
  30
0
  0
VERTEX
  5
19b
  8
Layer_8
  10
276.65039
  20
256.14178
  0
VERTEX
  5
19c
  8
Layer_8
  10
276.62436
  20
261.14172
  0
SEQEND
  0
POLYLINE
  5
19e
  8
Layer_8
  62
254
  66
1
  10
0
  20
0
  30
0
  0
VERTEX
  5
19e
  8
Layer_8
  10
90.61853
  20
299.38147
  0
VERTEX
  5
19f
  8
Layer_8
  10
118.13891
  20
299.37598
  0
VERTEX
  5
1a0
  8
Layer_8
  10
137.41696
  20
299.48291
  0
VERTEX
  5
1a1
  8
Layer_8
  10
154.18709
  20
299.45587
  0
VERTEX
  5
1a2
  8
Layer_8
  10
178.02991
  20
299.45782
  0
VERTEX
  5
1a3
  8
Layer_8
  10
187.8685
  20
299.51389
  0
VERTEX
  5
1a4
  8
Layer_8
  10
188.50119
  20
299.51703
  0
VERTEX
  5
1a5
  8
Layer_8
  10
188.64191
  20
270.76462
  0
VERTEX
  5
1a6
  8
Layer_8
  10
177.86868
  20
260.32959
  0
SEQEND
  0
POLYLINE
  5
1a8
  8
Layer_8
  62
254
  66
1
  10
0
  20
0
  30
0
  0
VERTEX
  5
1a8
  8
Layer_8
  10
52.034447
  20
255.15712
  0
VERTEX
  5
1a9
  8
Layer_8
  10
57.785198
  20
255.19637
  42
-0.4142075
  0
VERTEX
  5
1aa
  8
Layer_8
  10
62.819241
  20
250.23061
  0
VERTEX
  5
1ab
  8
Layer_8
  10
62.815792
  20
250.51871
  42
-0.0075091928
  0
VERTEX
  5
1ac
  8
Layer_8
  10
62.817703
  20
250.37398
  0
VERTEX
  5
1ad
  8
Layer_8
  10
62.818092
  20
250.66341
  42
-0.19892033
  0
VERTEX
  5
1ae
  8
Layer_8
  10
61.348183
  20
247.13014
  42
-0.19891272
  0
VERTEX
  5
1af
  8
Layer_8
  10
57.810398
  20
245.67116
  0
VERTEX
  5
1b0
  8
Layer_8
  10
52.059471
  20
245.68007
  0
SEQEND
  0
POLYLINE
  5
1b2
  8
Layer_8
  62
254
  66
1
  10
0
  20
0
  30
0
  0
VERTEX
  5
1b2
  8
Layer_8
  10
262.45172
  20
329.45111
  0
VERTEX
  5
1b3
  8
Layer_8
  10
257.45181
  20
329.41772
  0
SEQEND
  0
POLYLINE
  5
1b5
  8
Layer_8
  62
254
  70
1
  66
1
  10
0
  20
0
  30
0
  0
VERTEX
  5
1b5
  8
Layer_8
  10
255.60645
  20
188.293
  42
0.41420896
  0
VERTEX
  5
1b6
  8
Layer_8
  10
259.97699
  20
192.72229
  42
0.41420896
  0
VERTEX
  5
1b7
  8
Layer_8
  10
255.54773
  20
197.09283
  42
0.41420805
  0
VERTEX
  5
1b8
  8
Layer_8
  10
251.17715
  20
192.66354
  42
0.41420989
  0
SEQEND
  0
POLYLINE
  5
1ba
  8
Layer_8
  62
254
  66
1
  10
0
  20
0
  30
0
  0
VERTEX
  5
1ba
  8
Layer_8
  10
205.45297
  20
329.07074
  0
VERTEX
  5
1bb
  8
Layer_8
  10
200.45309
  20
329.03738
  0
SEQEND
  0
POLYLINE
  5
1bd
  8
Layer_8
  62
254
  66
1
  10
0
  20
0
  30
0
  0
VERTEX
  5
1bd
  8
Layer_8
  10
208.37509
  20
286.62341
  0
VERTEX
  5
1be
  8
Layer_8
  10
203.37515
  20
286.59741
  0
SEQEND
  0
POLYLINE
  5
1c0
  8
Layer_8
  62
254
  66
1
  10
0
  20
0
  30
0
  0
VERTEX
  5
1c0
  8
Layer_8
  10
159.35162
  20
241.03064
  0
VERTEX
  5
1c1
  8
Layer_8
  10
154.35173
  20
240.99727
  0
SEQEND
  0
POLYLINE
  5
1c3
  8
Layer_8
  62
254
  66
1
  10
0
  20
0
  30
0
  0
VERTEX
  5
1c3
  8
Layer_8
  10
129.59821
  20
279.95477
  0
VERTEX
  5
1c4
  8
Layer_8
  10
134.59811
  20
279.98077
  0
SEQEND
  0
POLYLINE
  5
1c6
  8
Layer_8
  62
254
  66
1
  10
0
  20
0
  30
0
  0
VERTEX
  5
1c6
  8
Layer_8
  10
139.94293
  20
221.93559
  0
VERTEX
  5
1c7
  8
Layer_8
  10
144.94283
  20
221.96895
  0
SEQEND
  0
POLYLINE
  5
1c9
  8
Layer_8
  62
254
  66
1
  10
0
  20
0
  30
0
  0
VERTEX
  5
1c9
  8
Layer_8
  10
125.79666
  20
201.6895
  0
VERTEX
  5
1ca
  8
Layer_8
  10
120.79678
  20
201.65613
  0
SEQEND
  0
POLYLINE
  5
1cc
  8
Layer_8
  62
254
  66
1
  10
0
  20
0
  30
0
  0
VERTEX
  5
1cc
  8
Layer_8
  10
149.23232
  20
261.09164
  0
VERTEX
  5
1cd
  8
Layer_8
  10
144.23238
  20
261.06561
  0
SEQEND
  0
POLYLINE
  5
1cf
  8
Layer_8
  62
254
  66
1
  10
0
  20
0
  30
0
  0
VERTEX
  5
1cf
  8
Layer_8
  10
139.35207
  20
240.89719
  0
VERTEX
  5
1d0
  8
Layer_8
  10
134.35217
  20
240.86382
  0
SEQEND
  0
POLYLINE
  5
1d2
  8
Layer_8
  62
254
  66
1
  10
0
  20
0
  30
0
  0
VERTEX
  5
1d2
  8
Layer_8
  10
172.21014
  20
201.99921
  0
VERTEX
  5
1d3
  8
Layer_8
  10
167.21027
  20
201.96584
  0
SEQEND
  0
POLYLINE
  5
1d5
  8
Layer_8
  62
254
  66
1
  10
0
  20
0
  30
0
  0
VERTEX
  5
1d5
  8
Layer_8
  10
109.59846
  20
279.85071
  0
VERTEX
  5
1d6
  8
Layer_8
  10
114.5984
  20
279.87677
  0
SEQEND
  0
POLYLINE
  5
1d8
  8
Layer_8
  62
254
  66
1
  10
0
  20
0
  30
0
  0
VERTEX
  5
1d8
  8
Layer_8
  10
281.57687
  20
231.6366
  0
VERTEX
  5
1d9
  8
Layer_8
  10
278.57693
  20
231.61658
  0
SEQEND
  0
POLYLINE
  5
1db
  8
Layer_8
  62
254
  66
1
  10
0
  20
0
  30
0
  0
VERTEX
  5
1db
  8
Layer_8
  10
77.605705
  20
260.30258
  0
VERTEX
  5
1dc
  8
Layer_8
  10
73.605804
  20
260.27472
  0
SEQEND
  0
POLYLINE
  5
1de
  8
Layer_8
  62
254
  66
1
  10
0
  20
0
  30
0
  0
VERTEX
  5
1de
  8
Layer_8
  10
221.33804
  20
271.67648
  0
VERTEX
  5
1df
  8
Layer_8
  10
216.3381
  20
271.65045
  0
SEQEND
  0
POLYLINE
  5
1e1
  8
Layer_8
  62
254
  66
1
  10
0
  20
0
  30
0
  0
VERTEX
  5
1e1
  8
Layer_8
  10
256.82346
  20
213.30786
  0
VERTEX
  5
1e2
  8
Layer_8
  10
251.82358
  20
213.27451
  0
SEQEND
  0
POLYLINE
  5
1e4
  8
Layer_8
  62
254
  66
1
  10
0
  20
0
  30
0
  0
VERTEX
  5
1e4
  8
Layer_8
  10
90.563507
  20
279.75171
  0
VERTEX
  5
1e5
  8
Layer_8
  10
94.598663
  20
279.77277
  0
SEQEND
  0
POLYLINE
  5
1e7
  8
Layer_8
  62
254
  66
1
  10
0
  20
0
  30
0
  0
VERTEX
  5
1e7
  8
Layer_8
  10
71.148895
  20
256.16211
  0
VERTEX
  5
1e8
  8
Layer_8
  10
71.146042
  20
252.11806
  0
SEQEND
  0
POLYLINE
  5
1ea
  8
Layer_8
  62
254
  66
1
  10
0
  20
0
  30
0
  0
VERTEX
  5
1ea
  8
Layer_8
  10
276.78888
  20
234.42702
  0
VERTEX
  5
1eb
  8
Layer_8
  10
276.75552
  20
239.42691
  0
SEQEND
  0
POLYLINE
  5
1ed
  8
Layer_8
  62
254
  66
1
  10
0
  20
0
  30
0
  0
VERTEX
  5
1ed
  8
Layer_8
  10
256.57742
  20
231.46979
  0
VERTEX
  5
1ee
  8
Layer_8
  10
261.57733
  20
231.50314
  0
SEQEND
  0
POLYLINE
  5
1f0
  8
Layer_8
  62
254
  66
1
  10
0
  20
0
  30
0
  0
VERTEX
  5
1f0
  8
Layer_8
  10
86.640434
  20
260.45386
  0
VERTEX
  5
1f1
  8
Layer_8
  10
86.639984
  20
260.41205
  0
SEQEND
  0
POLYLINE
  5
1f3
  8
Layer_8
  62
254
  66
1
  10
0
  20
0
  30
0
  0
VERTEX
  5
1f3
  8
Layer_8
  10
193.82504
  20
213.1497
  0
VERTEX
  5
1f4
  8
Layer_8
  10
189.82529
  20
213.19287
  0
SEQEND
  0
POLYLINE
  5
1f6
  8
Layer_8
  62
254
  70
1
  66
1
  10
0
  20
0
  30
0
  0
VERTEX
  5
1f6
  8
Layer_8
  10
130.67734
  20
229.07204
  42
0.41421209
  0
VERTEX
  5
1f7
  8
Layer_8
  10
127.90904
  20
231.80362
  42
0.41421356
  0
VERTEX
  5
1f8
  8
Layer_8
  10
125.17745
  20
229.03534
  42
0.41421356
  0
VERTEX
  5
1f9
  8
Layer_8
  10
127.94574
  20
226.30374
  42
0.41421356
  0
SEQEND
  0
POLYLINE
  5
1fb
  8
Layer_8
  62
254
  66
1
  10
0
  20
0
  30
0
  0
VERTEX
  5
1fb
  8
Layer_8
  10
276.60367
  20
263.1416
  0
VERTEX
  5
1fc
  8
Layer_8
  10
276.57764
  20
268.14157
  0
SEQEND
  0
POLYLINE
  5
1fe
  8
Layer_8
  62
254
  66
1
  10
0
  20
0
  30
0
  0
VERTEX
  5
1fe
  8
Layer_8
  10
52.528152
  20
255.08722
  0
VERTEX
  5
1ff
  8
Layer_8
  10
52.044708
  20
255.15569
  0
SEQEND
  0
POLYLINE
  5
201
  8
Layer_8
  62
254
  66
1
  10
0
  20
0
  30
0
  0
VERTEX
  5
201
  8
Layer_8
  10
276.65543
  20
254.42657
  0
VERTEX
  5
202
  8
Layer_8
  10
276.68881
  20
249.42668
  0
SEQEND
  0
POLYLINE
  5
204
  8
Layer_8
  62
254
  66
1
  10
0
  20
0
  30
0
  0
VERTEX
  5
204
  8
Layer_8
  10
119.59832
  20
279.90274
  0
VERTEX
  5
205
  8
Layer_8
  10
124.59826
  20
279.92877
  0
SEQEND
  0
POLYLINE
  5
207
  8
Layer_8
  62
254
  66
1
  10
0
  20
0
  30
0
  0
VERTEX
  5
207
  8
Layer_8
  10
99.943832
  20
221.66858
  0
VERTEX
  5
208
  8
Layer_8
  10
104.94373
  20
221.70195
  0
SEQEND
  0
POLYLINE
  5
20a
  8
Layer_8
  62
254
  66
1
  10
0
  20
0
  30
0
  0
VERTEX
  5
20a
  8
Layer_8
  10
231.578
  20
231.30296
  0
VERTEX
  5
20b
  8
Layer_8
  10
226.57809
  20
231.26959
  0
SEQEND
  0
POLYLINE
  5
20d
  8
Layer_8
  62
254
  66
1
  10
0
  20
0
  30
0
  0
VERTEX
  5
20d
  8
Layer_8
  10
169.23204
  20
261.19574
  0
VERTEX
  5
20e
  8
Layer_8
  10
164.2321
  20
261.16974
  0
SEQEND
  0
POLYLINE
  5
210
  8
Layer_8
  62
254
  66
1
  10
0
  20
0
  30
0
  0
VERTEX
  5
210
  8
Layer_8
  10
218.37497
  20
286.67545
  0
VERTEX
  5
211
  8
Layer_8
  10
213.37503
  20
286.64944
  0
SEQEND
  0
POLYLINE
  5
213
  8
Layer_8
  62
254
  66
1
  10
0
  20
0
  30
0
  0
VERTEX
  5
213
  8
Layer_8
  10
236.27567
  20
286.76797
  0
VERTEX
  5
214
  8
Layer_8
  10
231.27574
  20
286.74197
  0
SEQEND
  0
POLYLINE
  5
216
  8
Layer_8
  62
254
  66
1
  10
0
  20
0
  30
0
  0
VERTEX
  5
216
  8
Layer_8
  10
231.33792
  20
271.72852
  0
VERTEX
  5
217
  8
Layer_8
  10
226.33798
  20
271.70245
  0
SEQEND
  0
POLYLINE
  5
219
  8
Layer_8
  62
254
  66
1
  10
0
  20
0
  30
0
  0
VERTEX
  5
219
  8
Layer_8
  10
139.59805
  20
280.00677
  0
VERTEX
  5
21a
  8
Layer_8
  10
144.59799
  20
280.03278
  0
SEQEND
  0
POLYLINE
  5
21c
  8
Layer_8
  62
254
  66
1
  10
0
  20
0
  30
0
  0
VERTEX
  5
21c
  8
Layer_8
  10
164.71182
  20
215.69154
  0
VERTEX
  5
21d
  8
Layer_8
  10
164.67009
  20
221.9469
  0
SEQEND
  0
POLYLINE
  5
21f
  8
Layer_8
  62
254
  66
1
  10
0
  20
0
  30
0
  0
VERTEX
  5
21f
  8
Layer_8
  10
191.57887
  20
231.03606
  0
VERTEX
  5
220
  8
Layer_8
  10
189.07892
  20
231.01936
  0
SEQEND
  0
POLYLINE
  5
222
  8
Layer_8
  62
254
  66
1
  10
0
  20
0
  30
0
  0
VERTEX
  5
222
  8
Layer_8
  10
162.21037
  20
201.93248
  0
VERTEX
  5
223
  8
Layer_8
  10
157.21048
  20
201.89911
  0
SEQEND
  0
POLYLINE
  5
225
  8
Layer_8
  62
254
  70
1
  66
1
  10
0
  20
0
  30
0
  0
VERTEX
  5
225
  8
Layer_8
  10
79.124565
  20
206.45313
  42
0.41421503
  0
VERTEX
  5
226
  8
Layer_8
  10
76.392975
  20
203.68483
  42
0.41421209
  0
VERTEX
  5
227
  8
Layer_8
  10
79.16127
  20
200.95325
  42
0.4142143
  0
VERTEX
  5
228
  8
Layer_8
  10
81.892853
  20
203.72153
  42
0.4142143
  0
SEQEND
  0
POLYLINE
  5
22a
  8
Layer_8
  62
254
  66
1
  10
0
  20
0
  30
0
  0
VERTEX
  5
22a
  8
Layer_8
  10
90.864693
  20
256.10284
  0
VERTEX
  5
22b
  8
Layer_8
  10
90.876122
  20
251.79979
  0
SEQEND
  0
POLYLINE
  5
22d
  8
Layer_8
  62
254
  66
1
  10
0
  20
0
  30
0
  0
VERTEX
  5
22d
  8
Layer_8
  10
99.598602
  20
279.79874
  0
VERTEX
  5
22e
  8
Layer_8
  10
104.59854
  20
279.82477
  0
SEQEND
  0
POLYLINE
  5
230
  8
Layer_8
  62
254
  66
1
  10
0
  20
0
  30
0
  0
VERTEX
  5
230
  8
Layer_8
  10
119.23272
  20
260.93549
  0
VERTEX
  5
231
  8
Layer_8
  10
114.23278
  20
260.90942
  0
SEQEND
  0
POLYLINE
  5
233
  8
Layer_8
  62
254
  66
1
  10
0
  20
0
  30
0
  0
VERTEX
  5
233
  8
Layer_8
  10
149.35184
  20
240.96391
  0
VERTEX
  5
234
  8
Layer_8
  10
144.35196
  20
240.93054
  0
SEQEND
  0
POLYLINE
  5
236
  8
Layer_8
  62
254
  66
1
  10
0
  20
0
  30
0
  0
VERTEX
  5
236
  8
Layer_8
  10
191.33844
  20
271.52032
  0
VERTEX
  5
237
  8
Layer_8
  10
188.83847
  20
271.50726
  0
SEQEND
  0
POLYLINE
  5
239
  8
Layer_8
  62
254
  66
1
  10
0
  20
0
  30
0
  0
VERTEX
  5
239
  8
Layer_8
  10
196.57877
  20
231.06943
  0
VERTEX
  5
23a
  8
Layer_8
  10
201.57864
  20
231.10278
  0
SEQEND
  0
POLYLINE
  5
23c
  8
Layer_8
  62
254
  66
1
  10
0
  20
0
  30
0
  0
VERTEX
  5
23c
  8
Layer_8
  10
206.57854
  20
231.13614
  0
VERTEX
  5
23d
  8
Layer_8
  10
211.57843
  20
231.16951
  0
SEQEND
  0
POLYLINE
  5
23f
  8
Layer_8
  62
254
  66
1
  10
0
  20
0
  30
0
  0
VERTEX
  5
23f
  8
Layer_8
  10
241.33777
  20
271.78055
  0
VERTEX
  5
240
  8
Layer_8
  10
236.33786
  20
271.75452
  0
SEQEND
  0
POLYLINE
  5
242
  8
Layer_8
  62
254
  66
1
  10
0
  20
0
  30
0
  0
VERTEX
  5
242
  8
Layer_8
  10
291.33676
  20
272.08398
  0
VERTEX
  5
243
  8
Layer_8
  10
286.33701
  20
272.03638
  0
SEQEND
  0
POLYLINE
  5
245
  8
Layer_8
  62
254
  66
1
  10
0
  20
0
  30
0
  0
VERTEX
  5
245
  8
Layer_8
  10
271.57709
  20
231.56987
  0
VERTEX
  5
246
  8
Layer_8
  10
266.57721
  20
231.53651
  0
SEQEND
  0
POLYLINE
  5
248
  8
Layer_8
  62
254
  66
1
  10
0
  20
0
  30
0
  0
VERTEX
  5
248
  8
Layer_8
  10
87.72081
  20
240.95123
  0
VERTEX
  5
249
  8
Layer_8
  10
82.720871
  20
240.92665
  0
SEQEND
  0
POLYLINE
  5
24b
  8
Layer_8
  62
254
  66
1
  10
0
  20
0
  30
0
  0
VERTEX
  5
24b
  8
Layer_8
  10
109.23286
  20
260.88348
  0
VERTEX
  5
24c
  8
Layer_8
  10
104.23293
  20
260.85742
  0
SEQEND
  0
POLYLINE
  5
24e
  8
Layer_8
  62
254
  66
1
  10
0
  20
0
  30
0
  0
VERTEX
  5
24e
  8
Layer_8
  10
109.94361
  20
221.73532
  0
VERTEX
  5
24f
  8
Layer_8
  10
114.9435
  20
221.76871
  0
SEQEND
  0
POLYLINE
  5
251
  8
Layer_8
  62
254
  66
1
  10
0
  20
0
  30
0
  0
VERTEX
  5
251
  8
Layer_8
  10
129.23257
  20
260.98755
  0
VERTEX
  5
252
  8
Layer_8
  10
124.23264
  20
260.96152
  0
SEQEND
  0
POLYLINE
  5
254
  8
Layer_8
  62
254
  66
1
  10
0
  20
0
  30
0
  0
VERTEX
  5
254
  8
Layer_8
  10
246.27554
  20
286.81995
  0
VERTEX
  5
255
  8
Layer_8
  10
241.2756
  20
286.79401
  0
SEQEND
  0
POLYLINE
  5
257
  8
Layer_8
  62
254
  66
1
  10
0
  20
0
  30
0
  0
VERTEX
  5
257
  8
Layer_8
  10
236.8239
  20
213.17435
  0
VERTEX
  5
258
  8
Layer_8
  10
231.82401
  20
213.14099
  0
SEQEND
  0
POLYLINE
  5
25a
  8
Layer_8
  62
254
  70
1
  66
1
  10
0
  20
0
  30
0
  0
VERTEX
  5
25a
  8
Layer_8
  10
280.75452
  20
253.97784
  42
0.41421358
  0
VERTEX
  5
25b
  8
Layer_8
  10
278.02292
  20
251.20955
  42
0.41421649
  0
VERTEX
  5
25c
  8
Layer_8
  10
280.79123
  20
248.47797
  42
0.41421062
  0
VERTEX
  5
25d
  8
Layer_8
  10
283.5228
  20
251.24625
  42
0.41421358
  0
SEQEND
  0
POLYLINE
  5
25f
  8
Layer_8
  62
254
  66
1
  10
0
  20
0
  30
0
  0
VERTEX
  5
25f
  8
Layer_8
  10
109.35273
  20
240.69699
  0
VERTEX
  5
260
  8
Layer_8
  10
104.35284
  20
240.66364
  0
SEQEND
  0
POLYLINE
  5
262
  8
Layer_8
  62
254
  66
1
  10
0
  20
0
  30
0
  0
VERTEX
  5
262
  8
Layer_8
  10
90.908836
  20
221.60831
  0
VERTEX
  5
263
  8
Layer_8
  10
94.943932
  20
221.63522
  0
SEQEND
  0
POLYLINE
  5
265
  8
Layer_8
  62
254
  66
1
  10
0
  20
0
  30
0
  0
VERTEX
  5
265
  8
Layer_8
  10
199.31378
  20
213.09055
  0
VERTEX
  5
266
  8
Layer_8
  10
218.52365
  20
212.88347
  0
SEQEND
  0
POLYLINE
  5
268
  8
Layer_8
  62
254
  66
1
  10
0
  20
0
  30
0
  0
VERTEX
  5
268
  8
Layer_8
  10
159.23218
  20
261.14368
  0
VERTEX
  5
269
  8
Layer_8
  10
154.23224
  20
261.11761
  0
SEQEND
  0
POLYLINE
  5
26b
  8
Layer_8
  62
254
  66
1
  10
0
  20
0
  30
0
  0
VERTEX
  5
26b
  8
Layer_8
  10
211.33817
  20
271.62439
  0
VERTEX
  5
26c
  8
Layer_8
  10
206.33826
  20
271.59839
  0
SEQEND
  0
POLYLINE
  5
26e
  8
Layer_8
  62
254
  66
1
  10
0
  20
0
  30
0
  0
VERTEX
  5
26e
  8
Layer_8
  10
169.35139
  20
241.09737
  0
VERTEX
  5
26f
  8
Layer_8
  10
164.3515
  20
241.064
  0
SEQEND
  0
POLYLINE
  5
271
  8
Layer_8
  62
254
  66
1
  10
0
  20
0
  30
0
  0
VERTEX
  5
271
  8
Layer_8
  10
180.05457
  20
280.63306
  0
VERTEX
  5
272
  8
Layer_8
  10
184.53885
  20
280.70807
  0
SEQEND
  0
POLYLINE
  5
274
  8
Layer_8
  62
254
  66
1
  10
0
  20
0
  30
0
  0
VERTEX
  5
274
  8
Layer_8
  10
210.45287
  20
329.10413
  0
VERTEX
  5
275
  8
Layer_8
  10
215.45276
  20
329.13748
  0
SEQEND
  0
POLYLINE
  5
277
  8
Layer_8
  62
254
  66
1
  10
0
  20
0
  30
0
  0
VERTEX
  5
277
  8
Layer_8
  10
173.06607
  20
280.33466
  0
VERTEX
  5
278
  8
Layer_8
  10
154.03362
  20
280.13147
  0
SEQEND
  0
POLYLINE
  5
27a
  8
Layer_8
  62
254
  66
1
  10
0
  20
0
  30
0
  0
VERTEX
  5
27a
  8
Layer_8
  10
261.33749
  20
271.88461
  0
VERTEX
  5
27b
  8
Layer_8
  10
256.33755
  20
271.85864
  0
SEQEND
  0
POLYLINE
  5
27d
  8
Layer_8
  62
254
  66
1
  10
0
  20
0
  30
0
  0
VERTEX
  5
27d
  8
Layer_8
  10
266.82324
  20
213.37469
  0
VERTEX
  5
27e
  8
Layer_8
  10
261.82336
  20
213.34123
  0
SEQEND
  0
POLYLINE
  5
280
  8
Layer_8
  62
254
  66
1
  10
0
  20
0
  30
0
  0
VERTEX
  5
280
  8
Layer_8
  10
86.75679
  20
240.85815
  0
VERTEX
  5
281
  8
Layer_8
  10
86.755859
  20
240.89999
  0
SEQEND
  0
POLYLINE
  5
283
  8
Layer_8
  62
254
  66
1
  10
0
  20
0
  30
0
  0
VERTEX
  5
283
  8
Layer_8
  10
201.33832
  20
271.57233
  0
VERTEX
  5
284
  8
Layer_8
  10
196.33838
  20
271.54639
  0
SEQEND
  0
POLYLINE
  5
286
  8
Layer_8
  62
254
  66
1
  10
0
  20
0
  30
0
  0
VERTEX
  5
286
  8
Layer_8
  10
147.09795
  20
280.04584
  0
VERTEX
  5
287
  8
Layer_8
  10
152.09787
  20
280.07184
  0
SEQEND
  0
POLYLINE
  5
289
  8
Layer_8
  62
254
  66
1
  10
0
  20
0
  30
0
  0
VERTEX
  5
289
  8
Layer_8
  10
275.31033
  20
286.97101
  0
VERTEX
  5
28a
  8
Layer_8
  10
271.27521
  20
286.95001
  0
SEQEND
  0
POLYLINE
  5
28c
  8
Layer_8
  62
254
  66
1
  10
0
  20
0
  30
0
  0
VERTEX
  5
28c
  8
Layer_8
  10
241.57777
  20
231.36969
  0
VERTEX
  5
28d
  8
Layer_8
  10
236.57788
  20
231.33632
  0
SEQEND
  0
POLYLINE
  5
28f
  8
Layer_8
  62
254
  66
1
  10
0
  20
0
  30
0
  0
VERTEX
  5
28f
  8
Layer_8
  10
139.23242
  20
261.03955
  0
VERTEX
  5
290
  8
Layer_8
  10
134.23251
  20
261.01355
  0
SEQEND
  0
POLYLINE
  5
292
  8
Layer_8
  62
254
  66
1
  10
0
  20
0
  30
0
  0
VERTEX
  5
292
  8
Layer_8
  10
96.853012
  20
240.61359
  0
VERTEX
  5
293
  8
Layer_8
  10
100.87384
  20
240.62442
  0
SEQEND
  0
POLYLINE
  5
295
  8
Layer_8
  62
254
  66
1
  10
0
  20
0
  30
0
  0
VERTEX
  5
295
  8
Layer_8
  10
90.894203
  20
244.93947
  0
VERTEX
  5
296
  8
Layer_8
  10
90.882912
  20
249.24248
  0
SEQEND
  0
POLYLINE
  5
298
  8
Layer_8
  62
254
  66
1
  10
0
  20
0
  30
0
  0
VERTEX
  5
298
  8
Layer_8
  10
171.51712
  20
319.34409
  0
VERTEX
  5
299
  8
Layer_8
  10
166.51724
  20
319.31073
  0
SEQEND
  0
POLYLINE
  5
29b
  8
Layer_8
  62
254
  66
1
  10
0
  20
0
  30
0
  0
VERTEX
  5
29b
  8
Layer_8
  10
77.720932
  20
240.90205
  0
VERTEX
  5
29c
  8
Layer_8
  10
73.720978
  20
240.88243
  0
SEQEND
  0
POLYLINE
  5
29e
  8
Layer_8
  62
254
  66
1
  10
0
  20
0
  30
0
  0
VERTEX
  5
29e
  8
Layer_8
  10
90.9646
  20
299.422
  0
VERTEX
  5
29f
  8
Layer_8
  10
90.966003
  20
299.422
  0
SEQEND
  0
POLYLINE
  5
2a1
  8
Layer_8
  62
254
  66
1
  10
0
  20
0
  30
0
  0
VERTEX
  5
2a1
  8
Layer_8
  10
147.44278
  20
221.98566
  0
VERTEX
  5
2a2
  8
Layer_8
  10
152.44266
  20
222.019
  0
SEQEND
  0
POLYLINE
  5
2a4
  8
Layer_8
  62
254
  66
1
  10
0
  20
0
  30
0
  0
VERTEX
  5
2a4
  8
Layer_8
  10
110.44714
  20
284.37891
  0
VERTEX
  5
2a5
  8
Layer_8
  10
110.48878
  20
295.06744
  0
SEQEND
  0
POLYLINE
  5
2a7
  8
Layer_8
  62
254
  66
1
  10
0
  20
0
  30
0
  0
VERTEX
  5
2a7
  8
Layer_8
  10
193.22131
  20
286.54456
  0
VERTEX
  5
2a8
  8
Layer_8
  10
189.22137
  20
286.52374
  0
SEQEND
  0
POLYLINE
  5
2aa
  8
Layer_8
  62
254
  66
1
  10
0
  20
0
  30
0
  0
VERTEX
  5
2aa
  8
Layer_8
  10
87.605469
  20
260.37225
  0
VERTEX
  5
2ab
  8
Layer_8
  10
82.605591
  20
260.3374
  0
SEQEND
  0
ENDSEC
  0
EOF
