  0
SECTION
  2
HEADER
  9
$ACADVER
  1
AC1009
  0
ENDSEC
  0
SECTION
  2
TABLES
  0
TABLE
  2
LAYER
  70
1
  0
LAYER
  2
Layer_0
  70
0
  62
7
  6
CONTINUOUS
  0
ENDTAB
  0
ENDSEC
  0
SECTION
  2
ENTITIES
  0
POLYLINE
  5
90
  8
Layer_0
  62
7
  66
1
  10
0
  20
0
  30
0
  0
VERTEX
  5
90
  8
Layer_0
  10
65.790894
  20
565.5376
  42
-0.41421356
  0
VERTEX
  5
91
  8
Layer_0
  10
63.040894
  20
562.7876
  0
SEQEND
  0
POLYLINE
  5
93
  8
Layer_0
  62
7
  66
1
  10
0
  20
0
  30
0
  0
VERTEX
  5
93
  8
Layer_0
  10
63.040894
  20
562.7876
  42
-0.41421356
  0
VERTEX
  5
94
  8
Layer_0
  10
60.290894
  20
565.5376
  0
SEQEND
  0
POLYLINE
  5
96
  8
Layer_0
  62
7
  66
1
  10
0
  20
0
  30
0
  0
VERTEX
  5
96
  8
Layer_0
  10
60.290894
  20
565.5376
  42
-0.41421356
  0
VERTEX
  5
97
  8
Layer_0
  10
63.040894
  20
568.2876
  0
SEQEND
  0
POLYLINE
  5
99
  8
Layer_0
  62
7
  66
1
  10
0
  20
0
  30
0
  0
VERTEX
  5
99
  8
Layer_0
  10
63.040894
  20
568.2876
  42
-0.41421356
  0
VERTEX
  5
9a
  8
Layer_0
  10
65.790894
  20
565.5376
  0
SEQEND
  0
POLYLINE
  5
9c
  8
Layer_0
  62
7
  66
1
  10
0
  20
0
  30
0
  0
VERTEX
  5
9c
  8
Layer_0
  10
100.49976
  20
576.16718
  42
-0.41421356
  0
VERTEX
  5
9d
  8
Layer_0
  10
97.749756
  20
573.41718
  0
SEQEND
  0
POLYLINE
  5
9f
  8
Layer_0
  62
7
  66
1
  10
0
  20
0
  30
0
  0
VERTEX
  5
9f
  8
Layer_0
  10
97.749756
  20
573.41718
  42
-0.41421356
  0
VERTEX
  5
a0
  8
Layer_0
  10
94.999756
  20
576.16718
  0
SEQEND
  0
POLYLINE
  5
a2
  8
Layer_0
  62
7
  66
1
  10
0
  20
0
  30
0
  0
VERTEX
  5
a2
  8
Layer_0
  10
94.999756
  20
576.16718
  42
-0.41421356
  0
VERTEX
  5
a3
  8
Layer_0
  10
97.749756
  20
578.91718
  0
SEQEND
  0
POLYLINE
  5
a5
  8
Layer_0
  62
7
  66
1
  10
0
  20
0
  30
0
  0
VERTEX
  5
a5
  8
Layer_0
  10
97.749756
  20
578.91718
  42
-0.41421356
  0
VERTEX
  5
a6
  8
Layer_0
  10
100.49976
  20
576.16718
  0
SEQEND
  0
POLYLINE
  5
a8
  8
Layer_0
  62
7
  66
1
  10
0
  20
0
  30
0
  0
VERTEX
  5
a8
  8
Layer_0
  10
92.493454
  20
533.91345
  42
-0.41421356
  0
VERTEX
  5
a9
  8
Layer_0
  10
89.743454
  20
531.16345
  0
SEQEND
  0
POLYLINE
  5
ab
  8
Layer_0
  62
7
  66
1
  10
0
  20
0
  30
0
  0
VERTEX
  5
ab
  8
Layer_0
  10
89.743454
  20
531.16345
  42
-0.41421356
  0
VERTEX
  5
ac
  8
Layer_0
  10
86.993454
  20
533.91345
  0
SEQEND
  0
POLYLINE
  5
ae
  8
Layer_0
  62
7
  66
1
  10
0
  20
0
  30
0
  0
VERTEX
  5
ae
  8
Layer_0
  10
86.993454
  20
533.91345
  42
-0.41421356
  0
VERTEX
  5
af
  8
Layer_0
  10
89.743454
  20
536.66345
  0
SEQEND
  0
POLYLINE
  5
b1
  8
Layer_0
  62
7
  66
1
  10
0
  20
0
  30
0
  0
VERTEX
  5
b1
  8
Layer_0
  10
89.743454
  20
536.66345
  42
-0.41421356
  0
VERTEX
  5
b2
  8
Layer_0
  10
92.493454
  20
533.91345
  0
SEQEND
  0
POLYLINE
  5
b4
  8
Layer_0
  62
7
  66
1
  10
0
  20
0
  30
0
  0
VERTEX
  5
b4
  8
Layer_0
  10
101.02545
  20
491.6434
  42
-0.41421356
  0
VERTEX
  5
b5
  8
Layer_0
  10
98.275452
  20
488.8934
  0
SEQEND
  0
POLYLINE
  5
b7
  8
Layer_0
  62
7
  66
1
  10
0
  20
0
  30
0
  0
VERTEX
  5
b7
  8
Layer_0
  10
98.275452
  20
488.8934
  42
-0.41421356
  0
VERTEX
  5
b8
  8
Layer_0
  10
95.525452
  20
491.6434
  0
SEQEND
  0
POLYLINE
  5
ba
  8
Layer_0
  62
7
  66
1
  10
0
  20
0
  30
0
  0
VERTEX
  5
ba
  8
Layer_0
  10
95.525452
  20
491.6434
  42
-0.41421356
  0
VERTEX
  5
bb
  8
Layer_0
  10
98.275452
  20
494.3934
  0
SEQEND
  0
POLYLINE
  5
bd
  8
Layer_0
  62
7
  66
1
  10
0
  20
0
  30
0
  0
VERTEX
  5
bd
  8
Layer_0
  10
98.275452
  20
494.3934
  42
-0.41421356
  0
VERTEX
  5
be
  8
Layer_0
  10
101.02545
  20
491.6434
  0
SEQEND
  0
POLYLINE
  5
c0
  8
Layer_0
  62
7
  66
1
  10
0
  20
0
  30
0
  0
VERTEX
  5
c0
  8
Layer_0
  10
66.381516
  20
502.28595
  42
-0.41421356
  0
VERTEX
  5
c1
  8
Layer_0
  10
63.631516
  20
499.53595
  0
SEQEND
  0
POLYLINE
  5
c3
  8
Layer_0
  62
7
  66
1
  10
0
  20
0
  30
0
  0
VERTEX
  5
c3
  8
Layer_0
  10
63.631516
  20
499.53595
  42
-0.41421356
  0
VERTEX
  5
c4
  8
Layer_0
  10
60.881516
  20
502.28595
  0
SEQEND
  0
POLYLINE
  5
c6
  8
Layer_0
  62
7
  66
1
  10
0
  20
0
  30
0
  0
VERTEX
  5
c6
  8
Layer_0
  10
60.881516
  20
502.28595
  42
-0.41421356
  0
VERTEX
  5
c7
  8
Layer_0
  10
63.631516
  20
505.03595
  0
SEQEND
  0
POLYLINE
  5
c9
  8
Layer_0
  62
7
  66
1
  10
0
  20
0
  30
0
  0
VERTEX
  5
c9
  8
Layer_0
  10
63.631516
  20
505.03595
  42
-0.41421356
  0
VERTEX
  5
ca
  8
Layer_0
  10
66.381516
  20
502.28595
  0
SEQEND
  0
POLYLINE
  5
cc
  8
Layer_0
  62
7
  66
1
  10
0
  20
0
  30
0
  0
VERTEX
  5
cc
  8
Layer_0
  10
68.156792
  20
476.88733
  42
-0.41421356
  0
VERTEX
  5
cd
  8
Layer_0
  10
63.75679
  20
472.48734
  0
SEQEND
  0
POLYLINE
  5
cf
  8
Layer_0
  62
7
  66
1
  10
0
  20
0
  30
0
  0
VERTEX
  5
cf
  8
Layer_0
  10
63.75679
  20
472.48734
  42
-0.41421356
  0
VERTEX
  5
d0
  8
Layer_0
  10
59.356789
  20
476.88733
  0
SEQEND
  0
POLYLINE
  5
d2
  8
Layer_0
  62
7
  66
1
  10
0
  20
0
  30
0
  0
VERTEX
  5
d2
  8
Layer_0
  10
59.356789
  20
476.88733
  42
-0.41421356
  0
VERTEX
  5
d3
  8
Layer_0
  10
63.75679
  20
481.28732
  0
SEQEND
  0
POLYLINE
  5
d5
  8
Layer_0
  62
7
  66
1
  10
0
  20
0
  30
0
  0
VERTEX
  5
d5
  8
Layer_0
  10
63.75679
  20
481.28732
  42
-0.41421356
  0
VERTEX
  5
d6
  8
Layer_0
  10
68.156792
  20
476.88733
  0
SEQEND
  0
POLYLINE
  5
d8
  8
Layer_0
  62
7
  66
1
  10
0
  20
0
  30
0
  0
VERTEX
  5
d8
  8
Layer_0
  10
66.676468
  20
448.57767
  42
-0.41421356
  0
VERTEX
  5
d9
  8
Layer_0
  10
63.926468
  20
445.82767
  0
SEQEND
  0
POLYLINE
  5
db
  8
Layer_0
  62
7
  66
1
  10
0
  20
0
  30
0
  0
VERTEX
  5
db
  8
Layer_0
  10
63.926468
  20
445.82767
  42
-0.41421356
  0
VERTEX
  5
dc
  8
Layer_0
  10
61.176468
  20
448.57767
  0
SEQEND
  0
POLYLINE
  5
de
  8
Layer_0
  62
7
  66
1
  10
0
  20
0
  30
0
  0
VERTEX
  5
de
  8
Layer_0
  10
61.176468
  20
448.57767
  42
-0.41421356
  0
VERTEX
  5
df
  8
Layer_0
  10
63.926468
  20
451.32767
  0
SEQEND
  0
POLYLINE
  5
e1
  8
Layer_0
  62
7
  66
1
  10
0
  20
0
  30
0
  0
VERTEX
  5
e1
  8
Layer_0
  10
63.926468
  20
451.32767
  42
-0.41421356
  0
VERTEX
  5
e2
  8
Layer_0
  10
66.676468
  20
448.57767
  0
SEQEND
  0
POLYLINE
  5
e4
  8
Layer_0
  62
7
  66
1
  10
0
  20
0
  30
0
  0
VERTEX
  5
e4
  8
Layer_0
  10
-60.496582
  20
555.06726
  42
-0.41421356
  0
VERTEX
  5
e5
  8
Layer_0
  10
-63.246582
  20
552.31726
  0
SEQEND
  0
POLYLINE
  5
e7
  8
Layer_0
  62
7
  66
1
  10
0
  20
0
  30
0
  0
VERTEX
  5
e7
  8
Layer_0
  10
-63.246582
  20
552.31726
  42
-0.41421356
  0
VERTEX
  5
e8
  8
Layer_0
  10
-65.996582
  20
555.06726
  0
SEQEND
  0
POLYLINE
  5
ea
  8
Layer_0
  62
7
  66
1
  10
0
  20
0
  30
0
  0
VERTEX
  5
ea
  8
Layer_0
  10
-65.996582
  20
555.06726
  42
-0.41421356
  0
VERTEX
  5
eb
  8
Layer_0
  10
-63.246582
  20
557.81726
  0
SEQEND
  0
POLYLINE
  5
ed
  8
Layer_0
  62
7
  66
1
  10
0
  20
0
  30
0
  0
VERTEX
  5
ed
  8
Layer_0
  10
-63.246582
  20
557.81726
  42
-0.41421356
  0
VERTEX
  5
ee
  8
Layer_0
  10
-60.496582
  20
555.06726
  0
SEQEND
  0
POLYLINE
  5
f0
  8
Layer_0
  62
7
  66
1
  10
0
  20
0
  30
0
  0
VERTEX
  5
f0
  8
Layer_0
  10
-60.257713
  20
590.13953
  42
-0.41421356
  0
VERTEX
  5
f1
  8
Layer_0
  10
-63.007713
  20
587.38953
  0
SEQEND
  0
POLYLINE
  5
f3
  8
Layer_0
  62
7
  66
1
  10
0
  20
0
  30
0
  0
VERTEX
  5
f3
  8
Layer_0
  10
-63.007713
  20
587.38953
  42
-0.41421356
  0
VERTEX
  5
f4
  8
Layer_0
  10
-65.757713
  20
590.13953
  0
SEQEND
  0
POLYLINE
  5
f6
  8
Layer_0
  62
7
  66
1
  10
0
  20
0
  30
0
  0
VERTEX
  5
f6
  8
Layer_0
  10
-65.757713
  20
590.13953
  42
-0.41421356
  0
VERTEX
  5
f7
  8
Layer_0
  10
-63.007713
  20
592.88953
  0
SEQEND
  0
POLYLINE
  5
f9
  8
Layer_0
  62
7
  66
1
  10
0
  20
0
  30
0
  0
VERTEX
  5
f9
  8
Layer_0
  10
-63.007713
  20
592.88953
  42
-0.41421356
  0
VERTEX
  5
fa
  8
Layer_0
  10
-60.257713
  20
590.13953
  0
SEQEND
  0
POLYLINE
  5
fc
  8
Layer_0
  62
7
  66
1
  10
0
  20
0
  30
0
  0
VERTEX
  5
fc
  8
Layer_0
  10
-109.44914
  20
580.09167
  42
-0.41421356
  0
VERTEX
  5
fd
  8
Layer_0
  10
-112.19914
  20
577.34167
  0
SEQEND
  0
POLYLINE
  5
ff
  8
Layer_0
  62
7
  66
1
  10
0
  20
0
  30
0
  0
VERTEX
  5
ff
  8
Layer_0
  10
-112.19914
  20
577.34167
  42
-0.41421356
  0
VERTEX
  5
100
  8
Layer_0
  10
-114.94914
  20
580.09167
  0
SEQEND
  0
POLYLINE
  5
102
  8
Layer_0
  62
7
  66
1
  10
0
  20
0
  30
0
  0
VERTEX
  5
102
  8
Layer_0
  10
-114.94914
  20
580.09167
  42
-0.41421356
  0
VERTEX
  5
103
  8
Layer_0
  10
-112.19914
  20
582.84167
  0
SEQEND
  0
POLYLINE
  5
105
  8
Layer_0
  62
7
  66
1
  10
0
  20
0
  30
0
  0
VERTEX
  5
105
  8
Layer_0
  10
-112.19914
  20
582.84167
  42
-0.41421356
  0
VERTEX
  5
106
  8
Layer_0
  10
-109.44914
  20
580.09167
  0
SEQEND
  0
POLYLINE
  5
108
  8
Layer_0
  62
7
  66
1
  10
0
  20
0
  30
0
  0
VERTEX
  5
108
  8
Layer_0
  10
-58.401039
  20
495.29675
  42
-0.41421356
  0
VERTEX
  5
109
  8
Layer_0
  10
-62.801041
  20
490.89676
  0
SEQEND
  0
POLYLINE
  5
10b
  8
Layer_0
  62
7
  66
1
  10
0
  20
0
  30
0
  0
VERTEX
  5
10b
  8
Layer_0
  10
-62.801041
  20
490.89676
  42
-0.41421356
  0
VERTEX
  5
10c
  8
Layer_0
  10
-67.201042
  20
495.29675
  0
SEQEND
  0
POLYLINE
  5
10e
  8
Layer_0
  62
7
  66
1
  10
0
  20
0
  30
0
  0
VERTEX
  5
10e
  8
Layer_0
  10
-67.201042
  20
495.29675
  42
-0.41421356
  0
VERTEX
  5
10f
  8
Layer_0
  10
-62.801041
  20
499.69675
  0
SEQEND
  0
POLYLINE
  5
111
  8
Layer_0
  62
7
  66
1
  10
0
  20
0
  30
0
  0
VERTEX
  5
111
  8
Layer_0
  10
-62.801041
  20
499.69675
  42
-0.41421356
  0
VERTEX
  5
112
  8
Layer_0
  10
-58.401039
  20
495.29675
  0
SEQEND
  0
POLYLINE
  5
114
  8
Layer_0
  62
7
  66
1
  10
0
  20
0
  30
0
  0
VERTEX
  5
114
  8
Layer_0
  10
-60.298317
  20
511.31735
  42
-0.41421356
  0
VERTEX
  5
115
  8
Layer_0
  10
-63.048317
  20
508.56735
  0
SEQEND
  0
POLYLINE
  5
117
  8
Layer_0
  62
7
  66
1
  10
0
  20
0
  30
0
  0
VERTEX
  5
117
  8
Layer_0
  10
-63.048317
  20
508.56735
  42
-0.41421356
  0
VERTEX
  5
118
  8
Layer_0
  10
-65.798317
  20
511.31735
  0
SEQEND
  0
POLYLINE
  5
11a
  8
Layer_0
  62
7
  66
1
  10
0
  20
0
  30
0
  0
VERTEX
  5
11a
  8
Layer_0
  10
-65.798317
  20
511.31735
  42
-0.41421356
  0
VERTEX
  5
11b
  8
Layer_0
  10
-63.048317
  20
514.06738
  0
SEQEND
  0
POLYLINE
  5
11d
  8
Layer_0
  62
7
  66
1
  10
0
  20
0
  30
0
  0
VERTEX
  5
11d
  8
Layer_0
  10
-63.048317
  20
514.06738
  42
-0.41421356
  0
VERTEX
  5
11e
  8
Layer_0
  10
-60.298317
  20
511.31735
  0
SEQEND
  0
POLYLINE
  5
120
  8
Layer_0
  62
7
  66
1
  10
0
  20
0
  30
0
  0
VERTEX
  5
120
  8
Layer_0
  10
-109.07182
  20
486.51889
  42
-0.41421356
  0
VERTEX
  5
121
  8
Layer_0
  10
-111.82182
  20
483.76889
  0
SEQEND
  0
POLYLINE
  5
123
  8
Layer_0
  62
7
  66
1
  10
0
  20
0
  30
0
  0
VERTEX
  5
123
  8
Layer_0
  10
-111.82182
  20
483.76889
  42
-0.41421356
  0
VERTEX
  5
124
  8
Layer_0
  10
-114.57182
  20
486.51889
  0
SEQEND
  0
POLYLINE
  5
126
  8
Layer_0
  62
7
  66
1
  10
0
  20
0
  30
0
  0
VERTEX
  5
126
  8
Layer_0
  10
-114.57182
  20
486.51889
  42
-0.41421356
  0
VERTEX
  5
127
  8
Layer_0
  10
-111.82182
  20
489.26889
  0
SEQEND
  0
POLYLINE
  5
129
  8
Layer_0
  62
7
  66
1
  10
0
  20
0
  30
0
  0
VERTEX
  5
129
  8
Layer_0
  10
-111.82182
  20
489.26889
  42
-0.41421356
  0
VERTEX
  5
12a
  8
Layer_0
  10
-109.07182
  20
486.51889
  0
SEQEND
  0
POLYLINE
  5
12c
  8
Layer_0
  62
7
  66
1
  10
0
  20
0
  30
0
  0
VERTEX
  5
12c
  8
Layer_0
  10
-58.51944
  20
573.2251
  42
-0.41421356
  0
VERTEX
  5
12d
  8
Layer_0
  10
-62.919441
  20
568.82507
  0
SEQEND
  0
POLYLINE
  5
12f
  8
Layer_0
  62
7
  66
1
  10
0
  20
0
  30
0
  0
VERTEX
  5
12f
  8
Layer_0
  10
-62.919441
  20
568.82507
  42
-0.41421356
  0
VERTEX
  5
130
  8
Layer_0
  10
-67.319443
  20
573.2251
  0
SEQEND
  0
POLYLINE
  5
132
  8
Layer_0
  62
7
  66
1
  10
0
  20
0
  30
0
  0
VERTEX
  5
132
  8
Layer_0
  10
-67.319443
  20
573.2251
  42
-0.41421356
  0
VERTEX
  5
133
  8
Layer_0
  10
-62.919441
  20
577.62512
  0
SEQEND
  0
POLYLINE
  5
135
  8
Layer_0
  62
7
  66
1
  10
0
  20
0
  30
0
  0
VERTEX
  5
135
  8
Layer_0
  10
-62.919441
  20
577.62512
  42
-0.41421356
  0
VERTEX
  5
136
  8
Layer_0
  10
-58.51944
  20
573.2251
  0
SEQEND
  0
POLYLINE
  5
138
  8
Layer_0
  62
7
  66
1
  10
0
  20
0
  30
0
  0
VERTEX
  5
138
  8
Layer_0
  10
68.55764
  20
592.27899
  42
-0.41421356
  0
VERTEX
  5
139
  8
Layer_0
  10
64.157639
  20
587.87897
  0
SEQEND
  0
POLYLINE
  5
13b
  8
Layer_0
  62
7
  66
1
  10
0
  20
0
  30
0
  0
VERTEX
  5
13b
  8
Layer_0
  10
64.157639
  20
587.87897
  42
-0.41421356
  0
VERTEX
  5
13c
  8
Layer_0
  10
59.757637
  20
592.27899
  0
SEQEND
  0
POLYLINE
  5
13e
  8
Layer_0
  62
7
  66
1
  10
0
  20
0
  30
0
  0
VERTEX
  5
13e
  8
Layer_0
  10
59.757637
  20
592.27899
  42
-0.41421356
  0
VERTEX
  5
13f
  8
Layer_0
  10
64.157639
  20
596.67902
  0
SEQEND
  0
POLYLINE
  5
141
  8
Layer_0
  62
7
  66
1
  10
0
  20
0
  30
0
  0
VERTEX
  5
141
  8
Layer_0
  10
64.157639
  20
596.67902
  42
-0.41421356
  0
VERTEX
  5
142
  8
Layer_0
  10
68.55764
  20
592.27899
  0
SEQEND
  0
POLYLINE
  5
144
  8
Layer_0
  62
7
  66
1
  10
0
  20
0
  30
0
  0
VERTEX
  5
144
  8
Layer_0
  10
100.44629
  20
513.1283
  0
VERTEX
  5
145
  8
Layer_0
  10
95.44632
  20
513.14258
  0
SEQEND
  0
POLYLINE
  5
147
  8
Layer_0
  62
7
  66
1
  10
0
  20
0
  30
0
  0
VERTEX
  5
147
  8
Layer_0
  10
100.41663
  20
553.55292
  0
VERTEX
  5
148
  8
Layer_0
  10
95.416687
  20
553.53131
  0
SEQEND
  0
POLYLINE
  5
14a
  8
Layer_0
  62
7
  66
1
  10
0
  20
0
  30
0
  0
VERTEX
  5
14a
  8
Layer_0
  10
-128.2135
  20
533.16827
  42
0.015449853
  0
VERTEX
  5
14b
  8
Layer_0
  10
-128.21408
  20
533.31165
  0
SEQEND
  0
POLYLINE
  5
14d
  8
Layer_0
  62
7
  66
1
  10
0
  20
0
  30
0
  0
VERTEX
  5
14d
  8
Layer_0
  10
85.653854
  20
528.97217
  0
VERTEX
  5
14e
  8
Layer_0
  10
85.661194
  20
523.97217
  0
SEQEND
  0
POLYLINE
  5
150
  8
Layer_0
  62
7
  66
1
  10
0
  20
0
  30
0
  0
VERTEX
  5
150
  8
Layer_0
  10
85.647461
  20
542.68738
  0
VERTEX
  5
151
  8
Layer_0
  10
85.647461
  20
537.68738
  0
SEQEND
  0
POLYLINE
  5
153
  8
Layer_0
  62
7
  66
1
  10
0
  20
0
  30
0
  0
VERTEX
  5
153
  8
Layer_0
  10
-100.17294
  20
538.93475
  0
VERTEX
  5
154
  8
Layer_0
  10
-100.15553
  20
534.63177
  0
SEQEND
  0
POLYLINE
  5
156
  8
Layer_0
  62
7
  66
1
  10
0
  20
0
  30
0
  0
VERTEX
  5
156
  8
Layer_0
  10
-100.14787
  20
542.37891
  0
VERTEX
  5
157
  8
Layer_0
  10
-100.48016
  20
582.15216
  0
SEQEND
  0
POLYLINE
  5
159
  8
Layer_0
  62
7
  66
1
  10
0
  20
0
  30
0
  0
VERTEX
  5
159
  8
Layer_0
  10
-100.48016
  20
582.15216
  0
VERTEX
  5
15a
  8
Layer_0
  10
-100.48012
  20
582.79388
  0
SEQEND
  0
POLYLINE
  5
15c
  8
Layer_0
  62
7
  66
1
  10
0
  20
0
  30
0
  0
VERTEX
  5
15c
  8
Layer_0
  10
-100.48012
  20
582.79388
  42
0.20014794
  0
VERTEX
  5
15d
  8
Layer_0
  10
-101.6685
  20
585.63434
  0
SEQEND
  0
POLYLINE
  5
15f
  8
Layer_0
  62
7
  66
1
  10
0
  20
0
  30
0
  0
VERTEX
  5
15f
  8
Layer_0
  10
-101.6685
  20
585.63434
  42
0.20014561
  0
VERTEX
  5
160
  8
Layer_0
  10
-104.52281
  20
586.78894
  0
SEQEND
  0
POLYLINE
  5
162
  8
Layer_0
  62
7
  66
1
  10
0
  20
0
  30
0
  0
VERTEX
  5
162
  8
Layer_0
  10
-104.52281
  20
586.78894
  0
VERTEX
  5
163
  8
Layer_0
  10
-115.83994
  20
586.66785
  0
SEQEND
  0
POLYLINE
  5
165
  8
Layer_0
  62
7
  66
1
  10
0
  20
0
  30
0
  0
VERTEX
  5
165
  8
Layer_0
  10
-115.83994
  20
586.66785
  42
0.19902219
  0
VERTEX
  5
166
  8
Layer_0
  10
-118.65692
  20
585.46484
  0
SEQEND
  0
POLYLINE
  5
168
  8
Layer_0
  62
7
  66
1
  10
0
  20
0
  30
0
  0
VERTEX
  5
168
  8
Layer_0
  10
-118.65692
  20
585.46484
  42
0.19902165
  0
VERTEX
  5
169
  8
Layer_0
  10
-119.79695
  20
582.62183
  0
SEQEND
  0
POLYLINE
  5
16b
  8
Layer_0
  62
7
  66
1
  10
0
  20
0
  30
0
  0
VERTEX
  5
16b
  8
Layer_0
  10
-119.79695
  20
582.62183
  0
VERTEX
  5
16c
  8
Layer_0
  10
-119.80531
  20
583.3468
  0
SEQEND
  0
POLYLINE
  5
16e
  8
Layer_0
  62
7
  66
1
  10
0
  20
0
  30
0
  0
VERTEX
  5
16e
  8
Layer_0
  10
-119.80531
  20
583.3468
  0
VERTEX
  5
16f
  8
Layer_0
  10
-119.81009
  20
543.10583
  0
SEQEND
  0
POLYLINE
  5
171
  8
Layer_0
  62
7
  66
1
  10
0
  20
0
  30
0
  0
VERTEX
  5
171
  8
Layer_0
  10
-119.81009
  20
543.10583
  0
VERTEX
  5
172
  8
Layer_0
  10
-142.55952
  20
543.18323
  0
SEQEND
  0
POLYLINE
  5
174
  8
Layer_0
  62
7
  66
1
  10
0
  20
0
  30
0
  0
VERTEX
  5
174
  8
Layer_0
  10
-142.55952
  20
543.18323
  0
VERTEX
  5
175
  8
Layer_0
  10
-143.939
  20
543.18799
  0
SEQEND
  0
POLYLINE
  5
177
  8
Layer_0
  62
7
  66
1
  10
0
  20
0
  30
0
  0
VERTEX
  5
177
  8
Layer_0
  10
-143.939
  20
543.18799
  42
0.40891417
  0
VERTEX
  5
178
  8
Layer_0
  10
-148.45322
  20
538.78491
  0
SEQEND
  0
POLYLINE
  5
17a
  8
Layer_0
  62
7
  66
1
  10
0
  20
0
  30
0
  0
VERTEX
  5
17a
  8
Layer_0
  10
-148.45322
  20
538.78491
  0
VERTEX
  5
17b
  8
Layer_0
  10
-148.57458
  20
533.15784
  0
SEQEND
  0
POLYLINE
  5
17d
  8
Layer_0
  62
7
  66
1
  10
0
  20
0
  30
0
  0
VERTEX
  5
17d
  8
Layer_0
  10
-148.57458
  20
533.15784
  0
VERTEX
  5
17e
  8
Layer_0
  10
-148.40793
  20
527.53192
  0
SEQEND
  0
POLYLINE
  5
180
  8
Layer_0
  62
7
  66
1
  10
0
  20
0
  30
0
  0
VERTEX
  5
180
  8
Layer_0
  10
-148.40793
  20
527.53192
  42
0.40890624
  0
VERTEX
  5
181
  8
Layer_0
  10
-143.85829
  20
523.16547
  0
SEQEND
  0
POLYLINE
  5
183
  8
Layer_0
  62
7
  66
1
  10
0
  20
0
  30
0
  0
VERTEX
  5
183
  8
Layer_0
  10
-143.85829
  20
523.16547
  0
VERTEX
  5
184
  8
Layer_0
  10
-142.47885
  20
523.18127
  0
SEQEND
  0
POLYLINE
  5
186
  8
Layer_0
  62
7
  66
1
  10
0
  20
0
  30
0
  0
VERTEX
  5
186
  8
Layer_0
  10
-142.47885
  20
523.18127
  0
VERTEX
  5
187
  8
Layer_0
  10
-119.73073
  20
523.44214
  0
SEQEND
  0
POLYLINE
  5
189
  8
Layer_0
  62
7
  66
1
  10
0
  20
0
  30
0
  0
VERTEX
  5
189
  8
Layer_0
  10
-119.73073
  20
523.44214
  0
VERTEX
  5
18a
  8
Layer_0
  10
-119.40152
  20
483.20255
  0
SEQEND
  0
POLYLINE
  5
18c
  8
Layer_0
  62
7
  66
1
  10
0
  20
0
  30
0
  0
VERTEX
  5
18c
  8
Layer_0
  10
-119.40152
  20
483.20255
  0
VERTEX
  5
18d
  8
Layer_0
  10
-119.39895
  20
483.92755
  0
SEQEND
  0
POLYLINE
  5
18f
  8
Layer_0
  62
7
  66
1
  10
0
  20
0
  30
0
  0
VERTEX
  5
18f
  8
Layer_0
  10
-119.39895
  20
483.92755
  42
0.19902944
  0
VERTEX
  5
190
  8
Layer_0
  10
-118.23607
  20
481.09381
  0
SEQEND
  0
POLYLINE
  5
192
  8
Layer_0
  62
7
  66
1
  10
0
  20
0
  30
0
  0
VERTEX
  5
192
  8
Layer_0
  10
-118.23607
  20
481.09381
  42
0.19901879
  0
VERTEX
  5
193
  8
Layer_0
  10
-115.40953
  20
479.9136
  0
SEQEND
  0
POLYLINE
  5
195
  8
Layer_0
  62
7
  66
1
  10
0
  20
0
  30
0
  0
VERTEX
  5
195
  8
Layer_0
  10
-115.40953
  20
479.9136
  0
VERTEX
  5
196
  8
Layer_0
  10
-104.09178
  20
479.88379
  0
SEQEND
  0
POLYLINE
  5
198
  8
Layer_0
  62
7
  66
1
  10
0
  20
0
  30
0
  0
VERTEX
  5
198
  8
Layer_0
  10
-104.09178
  20
479.88379
  42
0.20014077
  0
VERTEX
  5
199
  8
Layer_0
  10
-101.24684
  20
481.06134
  0
SEQEND
  0
POLYLINE
  5
19b
  8
Layer_0
  62
7
  66
1
  10
0
  20
0
  30
0
  0
VERTEX
  5
19b
  8
Layer_0
  10
-101.24684
  20
481.06134
  42
0.20013527
  0
VERTEX
  5
19c
  8
Layer_0
  10
-100.08134
  20
483.91125
  0
SEQEND
  0
POLYLINE
  5
19e
  8
Layer_0
  62
7
  66
1
  10
0
  20
0
  30
0
  0
VERTEX
  5
19e
  8
Layer_0
  10
-100.08134
  20
483.91125
  0
VERTEX
  5
19f
  8
Layer_0
  10
-100.08534
  20
484.49207
  0
SEQEND
  0
POLYLINE
  5
1a1
  8
Layer_0
  62
7
  66
1
  10
0
  20
0
  30
0
  0
VERTEX
  5
1a1
  8
Layer_0
  10
-100.08534
  20
484.49207
  0
VERTEX
  5
1a2
  8
Layer_0
  10
-100.07388
  20
524.08856
  0
SEQEND
  0
POLYLINE
  5
1a4
  8
Layer_0
  62
7
  66
1
  10
0
  20
0
  30
0
  0
VERTEX
  5
1a4
  8
Layer_0
  10
-119.88885
  20
538.96667
  0
VERTEX
  5
1a5
  8
Layer_0
  10
-119.88614
  20
534.92261
  0
SEQEND
  0
POLYLINE
  5
1a7
  8
Layer_0
  62
7
  66
1
  10
0
  20
0
  30
0
  0
VERTEX
  5
1a7
  8
Layer_0
  10
85.751755
  20
514.1546
  0
VERTEX
  5
1a8
  8
Layer_0
  10
85.222366
  20
455.53781
  0
SEQEND
  0
POLYLINE
  5
1aa
  8
Layer_0
  62
7
  66
1
  10
0
  20
0
  30
0
  0
VERTEX
  5
1aa
  8
Layer_0
  10
85.222366
  20
455.53781
  0
VERTEX
  5
1ab
  8
Layer_0
  10
73.939545
  20
455.79895
  0
SEQEND
  0
POLYLINE
  5
1ad
  8
Layer_0
  62
7
  66
1
  10
0
  20
0
  30
0
  0
VERTEX
  5
1ad
  8
Layer_0
  10
73.939545
  20
455.79895
  0
VERTEX
  5
1ae
  8
Layer_0
  10
73.969559
  20
451.02542
  0
SEQEND
  0
POLYLINE
  5
1b0
  8
Layer_0
  62
7
  66
1
  10
0
  20
0
  30
0
  0
VERTEX
  5
1b0
  8
Layer_0
  10
73.969559
  20
451.02542
  42
-0.1991203
  0
VERTEX
  5
1b1
  8
Layer_0
  10
71.071915
  20
443.93341
  0
SEQEND
  0
POLYLINE
  5
1b3
  8
Layer_0
  62
7
  66
1
  10
0
  20
0
  30
0
  0
VERTEX
  5
1b3
  8
Layer_0
  10
71.071915
  20
443.93341
  42
-0.19912203
  0
VERTEX
  5
1b4
  8
Layer_0
  10
64.005859
  20
440.97321
  0
SEQEND
  0
POLYLINE
  5
1b6
  8
Layer_0
  62
7
  66
1
  10
0
  20
0
  30
0
  0
VERTEX
  5
1b6
  8
Layer_0
  10
64.005859
  20
440.97321
  0
VERTEX
  5
1b7
  8
Layer_0
  10
64.463806
  20
440.97485
  0
SEQEND
  0
POLYLINE
  5
1b9
  8
Layer_0
  62
7
  66
1
  10
0
  20
0
  30
0
  0
VERTEX
  5
1b9
  8
Layer_0
  10
64.463806
  20
440.97485
  0
VERTEX
  5
1ba
  8
Layer_0
  10
63.144257
  20
440.99152
  0
SEQEND
  0
POLYLINE
  5
1bc
  8
Layer_0
  62
7
  66
1
  10
0
  20
0
  30
0
  0
VERTEX
  5
1bc
  8
Layer_0
  10
63.144257
  20
440.99152
  42
-0.40898839
  0
VERTEX
  5
1bd
  8
Layer_0
  10
54.258179
  20
449.94373
  0
SEQEND
  0
POLYLINE
  5
1bf
  8
Layer_0
  62
7
  66
1
  10
0
  20
0
  30
0
  0
VERTEX
  5
1bf
  8
Layer_0
  10
54.258179
  20
449.94373
  0
VERTEX
  5
1c0
  8
Layer_0
  10
54.228531
  20
455.62463
  0
SEQEND
  0
POLYLINE
  5
1c2
  8
Layer_0
  62
7
  66
1
  10
0
  20
0
  30
0
  0
VERTEX
  5
1c2
  8
Layer_0
  10
54.228531
  20
455.62463
  0
VERTEX
  5
1c3
  8
Layer_0
  10
27.265106
  20
455.48361
  0
SEQEND
  0
POLYLINE
  5
1c5
  8
Layer_0
  62
7
  66
1
  10
0
  20
0
  30
0
  0
VERTEX
  5
1c5
  8
Layer_0
  10
27.265106
  20
455.48361
  0
VERTEX
  5
1c6
  8
Layer_0
  10
27.323044
  20
450.33286
  0
SEQEND
  0
POLYLINE
  5
1c8
  8
Layer_0
  62
7
  66
1
  10
0
  20
0
  30
0
  0
VERTEX
  5
1c8
  8
Layer_0
  10
27.323044
  20
450.33286
  42
-0.41421177
  0
VERTEX
  5
1c9
  8
Layer_0
  10
18.424759
  20
441.2323
  0
SEQEND
  0
POLYLINE
  5
1cb
  8
Layer_0
  62
7
  66
1
  10
0
  20
0
  30
0
  0
VERTEX
  5
1cb
  8
Layer_0
  10
18.424759
  20
441.2323
  0
VERTEX
  5
1cc
  8
Layer_0
  10
18.691956
  20
441.23529
  0
SEQEND
  0
POLYLINE
  5
1ce
  8
Layer_0
  62
7
  66
1
  10
0
  20
0
  30
0
  0
VERTEX
  5
1ce
  8
Layer_0
  10
18.691956
  20
441.23529
  0
VERTEX
  5
1cf
  8
Layer_0
  10
17.365646
  20
441.198
  0
SEQEND
  0
POLYLINE
  5
1d1
  8
Layer_0
  62
7
  66
1
  10
0
  20
0
  30
0
  0
VERTEX
  5
1d1
  8
Layer_0
  10
17.365646
  20
441.198
  42
-0.20031883
  0
VERTEX
  5
1d2
  8
Layer_0
  10
10.894852
  20
443.68765
  0
SEQEND
  0
POLYLINE
  5
1d4
  8
Layer_0
  62
7
  66
1
  10
0
  20
0
  30
0
  0
VERTEX
  5
1d4
  8
Layer_0
  10
10.894852
  20
443.68765
  42
-0.20031921
  0
VERTEX
  5
1d5
  8
Layer_0
  10
8.1140594
  20
450.03876
  0
SEQEND
  0
POLYLINE
  5
1d7
  8
Layer_0
  62
7
  66
1
  10
0
  20
0
  30
0
  0
VERTEX
  5
1d7
  8
Layer_0
  10
8.1140594
  20
450.03876
  0
VERTEX
  5
1d8
  8
Layer_0
  10
8.014801
  20
455.77524
  0
SEQEND
  0
POLYLINE
  5
1da
  8
Layer_0
  62
7
  66
1
  10
0
  20
0
  30
0
  0
VERTEX
  5
1da
  8
Layer_0
  10
8.014801
  20
455.77524
  0
VERTEX
  5
1db
  8
Layer_0
  10
-2.3511505
  20
455.65875
  0
SEQEND
  0
POLYLINE
  5
1dd
  8
Layer_0
  62
7
  66
1
  10
0
  20
0
  30
0
  0
VERTEX
  5
1dd
  8
Layer_0
  10
-2.3511505
  20
455.65875
  0
VERTEX
  5
1de
  8
Layer_0
  10
-2.4588013
  20
465.23853
  0
SEQEND
  0
POLYLINE
  5
1e0
  8
Layer_0
  62
7
  66
1
  10
0
  20
0
  30
0
  0
VERTEX
  5
1e0
  8
Layer_0
  10
-2.4588013
  20
465.23853
  0
VERTEX
  5
1e1
  8
Layer_0
  10
-16.354141
  20
465.17581
  0
SEQEND
  0
POLYLINE
  5
1e3
  8
Layer_0
  62
7
  66
1
  10
0
  20
0
  30
0
  0
VERTEX
  5
1e3
  8
Layer_0
  10
-16.354141
  20
465.17581
  0
VERTEX
  5
1e4
  8
Layer_0
  10
-16.328644
  20
459.53677
  0
SEQEND
  0
POLYLINE
  5
1e6
  8
Layer_0
  62
7
  66
1
  10
0
  20
0
  30
0
  0
VERTEX
  5
1e6
  8
Layer_0
  10
-16.328644
  20
459.53677
  42
-0.40744166
  0
VERTEX
  5
1e7
  8
Layer_0
  10
-25.0793
  20
450.49957
  0
SEQEND
  0
POLYLINE
  5
1e9
  8
Layer_0
  62
7
  66
1
  10
0
  20
0
  30
0
  0
VERTEX
  5
1e9
  8
Layer_0
  10
-25.0793
  20
450.49957
  0
VERTEX
  5
1ea
  8
Layer_0
  10
-26.194107
  20
450.46869
  0
SEQEND
  0
POLYLINE
  5
1ec
  8
Layer_0
  62
7
  66
1
  10
0
  20
0
  30
0
  0
VERTEX
  5
1ec
  8
Layer_0
  10
-10.81958
  20
562.68103
  0
VERTEX
  5
1ed
  8
Layer_0
  10
-6.3349609
  20
562.73273
  0
SEQEND
  0
POLYLINE
  5
1ef
  8
Layer_0
  62
7
  66
1
  10
0
  20
0
  30
0
  0
VERTEX
  5
1ef
  8
Layer_0
  10
-46.857124
  20
484.71979
  42
0.04066218
  0
VERTEX
  5
1f0
  8
Layer_0
  10
-48.573029
  20
483.86984
  0
SEQEND
  0
POLYLINE
  5
1f2
  8
Layer_0
  62
7
  66
1
  10
0
  20
0
  30
0
  0
VERTEX
  5
1f2
  8
Layer_0
  10
-48.573029
  20
483.86984
  42
0.18179545
  0
VERTEX
  5
1f3
  8
Layer_0
  10
-50.795143
  20
481.25784
  0
SEQEND
  0
POLYLINE
  5
1f5
  8
Layer_0
  62
7
  66
1
  10
0
  20
0
  30
0
  0
VERTEX
  5
1f5
  8
Layer_0
  10
-50.795143
  20
481.25784
  0
VERTEX
  5
1f6
  8
Layer_0
  10
-50.820435
  20
481.18256
  0
SEQEND
  0
POLYLINE
  5
1f8
  8
Layer_0
  62
7
  66
1
  10
0
  20
0
  30
0
  0
VERTEX
  5
1f8
  8
Layer_0
  10
-50.820435
  20
481.18256
  0
VERTEX
  5
1f9
  8
Layer_0
  10
-50.836151
  20
469.33234
  0
SEQEND
  0
POLYLINE
  5
1fb
  8
Layer_0
  62
7
  66
1
  10
0
  20
0
  30
0
  0
VERTEX
  5
1fb
  8
Layer_0
  10
-50.836151
  20
469.33234
  42
0.20023509
  0
VERTEX
  5
1fc
  8
Layer_0
  10
-49.506104
  20
466.13239
  0
SEQEND
  0
POLYLINE
  5
1fe
  8
Layer_0
  62
7
  66
1
  10
0
  20
0
  30
0
  0
VERTEX
  5
1fe
  8
Layer_0
  10
-49.506104
  20
466.13239
  42
0.20023712
  0
VERTEX
  5
1ff
  8
Layer_0
  10
-46.296112
  20
464.82654
  0
SEQEND
  0
POLYLINE
  5
201
  8
Layer_0
  62
7
  66
1
  10
0
  20
0
  30
0
  0
VERTEX
  5
201
  8
Layer_0
  10
-46.296112
  20
464.82654
  0
VERTEX
  5
202
  8
Layer_0
  10
-36.229584
  20
464.91602
  0
SEQEND
  0
POLYLINE
  5
204
  8
Layer_0
  62
7
  66
1
  10
0
  20
0
  30
0
  0
VERTEX
  5
204
  8
Layer_0
  10
-36.229584
  20
464.91602
  0
VERTEX
  5
205
  8
Layer_0
  10
-36.18045
  20
459.39905
  0
SEQEND
  0
POLYLINE
  5
207
  8
Layer_0
  62
7
  66
1
  10
0
  20
0
  30
0
  0
VERTEX
  5
207
  8
Layer_0
  10
-36.18045
  20
459.39905
  42
0.40975132
  0
VERTEX
  5
208
  8
Layer_0
  10
-27.238327
  20
450.47922
  0
SEQEND
  0
POLYLINE
  5
20a
  8
Layer_0
  62
7
  66
1
  10
0
  20
0
  30
0
  0
VERTEX
  5
20a
  8
Layer_0
  10
-27.238327
  20
450.47922
  0
VERTEX
  5
20b
  8
Layer_0
  10
-26.305466
  20
450.47327
  0
SEQEND
  0
POLYLINE
  5
20d
  8
Layer_0
  62
7
  66
1
  10
0
  20
0
  30
0
  0
VERTEX
  5
20d
  8
Layer_0
  10
-139.00186
  20
537.935
  0
VERTEX
  5
20e
  8
Layer_0
  10
-133.25114
  20
537.9823
  0
SEQEND
  0
POLYLINE
  5
210
  8
Layer_0
  62
7
  66
1
  10
0
  20
0
  30
0
  0
VERTEX
  5
210
  8
Layer_0
  10
-133.25114
  20
537.9823
  42
-0.19891236
  0
VERTEX
  5
211
  8
Layer_0
  10
-129.70369
  20
536.54694
  0
SEQEND
  0
POLYLINE
  5
213
  8
Layer_0
  62
7
  66
1
  10
0
  20
0
  30
0
  0
VERTEX
  5
213
  8
Layer_0
  10
-129.70369
  20
536.54694
  42
-0.19891386
  0
VERTEX
  5
214
  8
Layer_0
  10
-128.21024
  20
533.02356
  0
SEQEND
  0
POLYLINE
  5
216
  8
Layer_0
  62
7
  66
1
  10
0
  20
0
  30
0
  0
VERTEX
  5
216
  8
Layer_0
  10
-128.21024
  20
533.02356
  0
VERTEX
  5
217
  8
Layer_0
  10
-128.21255
  20
533.31299
  0
SEQEND
  0
POLYLINE
  5
219
  8
Layer_0
  62
7
  66
1
  10
0
  20
0
  30
0
  0
VERTEX
  5
219
  8
Layer_0
  10
-85.204765
  20
575.53442
  42
-0.1445425
  0
VERTEX
  5
21a
  8
Layer_0
  10
-82.954773
  20
575.37744
  0
SEQEND
  0
POLYLINE
  5
21c
  8
Layer_0
  62
7
  66
1
  10
0
  20
0
  30
0
  0
VERTEX
  5
21c
  8
Layer_0
  10
-82.954773
  20
575.37744
  0
VERTEX
  5
21d
  8
Layer_0
  10
-82.893295
  20
575.34998
  0
SEQEND
  0
POLYLINE
  5
21f
  8
Layer_0
  62
7
  66
1
  10
0
  20
0
  30
0
  0
VERTEX
  5
21f
  8
Layer_0
  10
-82.893295
  20
575.34998
  0
VERTEX
  5
220
  8
Layer_0
  10
-82.832977
  20
575.32111
  0
SEQEND
  0
POLYLINE
  5
222
  8
Layer_0
  62
7
  66
1
  10
0
  20
0
  30
0
  0
VERTEX
  5
222
  8
Layer_0
  10
-82.832977
  20
575.32111
  42
-0.22785297
  0
VERTEX
  5
223
  8
Layer_0
  10
-81.434021
  20
573.40778
  0
SEQEND
  0
POLYLINE
  5
225
  8
Layer_0
  62
7
  66
1
  10
0
  20
0
  30
0
  0
VERTEX
  5
225
  8
Layer_0
  10
-81.434021
  20
573.40778
  42
-0.19854993
  0
VERTEX
  5
226
  8
Layer_0
  10
-81.901466
  20
570.20288
  0
SEQEND
  0
POLYLINE
  5
228
  8
Layer_0
  62
7
  66
1
  10
0
  20
0
  30
0
  0
VERTEX
  5
228
  8
Layer_0
  10
-81.901466
  20
570.20288
  42
-0.24288856
  0
VERTEX
  5
229
  8
Layer_0
  10
-84.1427
  20
569.00024
  0
SEQEND
  0
POLYLINE
  5
22b
  8
Layer_0
  62
7
  66
1
  10
0
  20
0
  30
0
  0
VERTEX
  5
22b
  8
Layer_0
  10
-84.1427
  20
569.00024
  42
-0.040055531
  0
VERTEX
  5
22c
  8
Layer_0
  10
-84.988388
  20
569.01312
  0
SEQEND
  0
POLYLINE
  5
22e
  8
Layer_0
  62
7
  66
1
  10
0
  20
0
  30
0
  0
VERTEX
  5
22e
  8
Layer_0
  10
-104.3231
  20
523.39233
  0
VERTEX
  5
22f
  8
Layer_0
  10
-104.32382
  20
523.43408
  0
SEQEND
  0
POLYLINE
  5
231
  8
Layer_0
  62
7
  66
1
  10
0
  20
0
  30
0
  0
VERTEX
  5
231
  8
Layer_0
  10
-80.885559
  20
565.19055
  0
VERTEX
  5
232
  8
Layer_0
  10
-86.97644
  20
567.65216
  0
SEQEND
  0
POLYLINE
  5
234
  8
Layer_0
  62
7
  66
1
  10
0
  20
0
  30
0
  0
VERTEX
  5
234
  8
Layer_0
  10
-86.97644
  20
567.65216
  0
VERTEX
  5
235
  8
Layer_0
  10
-87.1502
  20
577.47748
  0
SEQEND
  0
POLYLINE
  5
237
  8
Layer_0
  62
7
  66
1
  10
0
  20
0
  30
0
  0
VERTEX
  5
237
  8
Layer_0
  10
-87.1502
  20
577.47748
  0
VERTEX
  5
238
  8
Layer_0
  10
-81.112289
  20
579.48199
  0
SEQEND
  0
POLYLINE
  5
23a
  8
Layer_0
  62
7
  66
1
  10
0
  20
0
  30
0
  0
VERTEX
  5
23a
  8
Layer_0
  10
85.723602
  20
552.50507
  0
VERTEX
  5
23b
  8
Layer_0
  10
85.394501
  20
583.85065
  0
SEQEND
  0
POLYLINE
  5
23d
  8
Layer_0
  62
7
  66
1
  10
0
  20
0
  30
0
  0
VERTEX
  5
23d
  8
Layer_0
  10
85.394501
  20
583.85065
  42
-0.054906688
  0
VERTEX
  5
23e
  8
Layer_0
  10
86.063721
  20
585.66388
  0
SEQEND
  0
POLYLINE
  5
240
  8
Layer_0
  62
7
  66
1
  10
0
  20
0
  30
0
  0
VERTEX
  5
240
  8
Layer_0
  10
86.063721
  20
585.66388
  42
-0.26098776
  0
VERTEX
  5
241
  8
Layer_0
  10
88.52301
  20
587.48096
  0
SEQEND
  0
POLYLINE
  5
243
  8
Layer_0
  62
7
  66
1
  10
0
  20
0
  30
0
  0
VERTEX
  5
243
  8
Layer_0
  10
88.52301
  20
587.48096
  0
VERTEX
  5
244
  8
Layer_0
  10
88.605804
  20
587.4917
  0
SEQEND
  0
POLYLINE
  5
246
  8
Layer_0
  62
7
  66
1
  10
0
  20
0
  30
0
  0
VERTEX
  5
246
  8
Layer_0
  10
88.605804
  20
587.4917
  0
VERTEX
  5
247
  8
Layer_0
  10
88.690094
  20
587.50085
  0
SEQEND
  0
POLYLINE
  5
249
  8
Layer_0
  62
7
  66
1
  10
0
  20
0
  30
0
  0
VERTEX
  5
249
  8
Layer_0
  10
88.690094
  20
587.50085
  0
VERTEX
  5
24a
  8
Layer_0
  10
88.772766
  20
587.50812
  0
SEQEND
  0
POLYLINE
  5
24c
  8
Layer_0
  62
7
  66
1
  10
0
  20
0
  30
0
  0
VERTEX
  5
24c
  8
Layer_0
  10
88.772766
  20
587.50812
  0
VERTEX
  5
24d
  8
Layer_0
  10
99.281891
  20
587.71289
  0
SEQEND
  0
POLYLINE
  5
24f
  8
Layer_0
  62
7
  66
1
  10
0
  20
0
  30
0
  0
VERTEX
  5
24f
  8
Layer_0
  10
99.281891
  20
587.71289
  42
-0.20264448
  0
VERTEX
  5
250
  8
Layer_0
  10
103.60684
  20
585.9942
  0
SEQEND
  0
POLYLINE
  5
252
  8
Layer_0
  62
7
  66
1
  10
0
  20
0
  30
0
  0
VERTEX
  5
252
  8
Layer_0
  10
103.60684
  20
585.9942
  42
-0.19960187
  0
VERTEX
  5
253
  8
Layer_0
  10
105.29483
  20
581.75494
  0
SEQEND
  0
POLYLINE
  5
255
  8
Layer_0
  62
7
  66
1
  10
0
  20
0
  30
0
  0
VERTEX
  5
255
  8
Layer_0
  10
105.29483
  20
581.75494
  0
VERTEX
  5
256
  8
Layer_0
  10
105.71307
  20
484.93372
  0
SEQEND
  0
POLYLINE
  5
258
  8
Layer_0
  62
7
  66
1
  10
0
  20
0
  30
0
  0
VERTEX
  5
258
  8
Layer_0
  10
105.71307
  20
484.93372
  42
-0.201059
  0
VERTEX
  5
259
  8
Layer_0
  10
104.42923
  20
481.96069
  0
SEQEND
  0
POLYLINE
  5
25b
  8
Layer_0
  62
7
  66
1
  10
0
  20
0
  30
0
  0
VERTEX
  5
25b
  8
Layer_0
  10
104.42923
  20
481.96069
  42
-0.20106171
  0
VERTEX
  5
25c
  8
Layer_0
  10
101.40936
  20
480.7912
  0
SEQEND
  0
POLYLINE
  5
25e
  8
Layer_0
  62
7
  66
1
  10
0
  20
0
  30
0
  0
VERTEX
  5
25e
  8
Layer_0
  10
101.40936
  20
480.7912
  0
VERTEX
  5
25f
  8
Layer_0
  10
90.375427
  20
480.59976
  0
SEQEND
  0
POLYLINE
  5
261
  8
Layer_0
  62
7
  66
1
  10
0
  20
0
  30
0
  0
VERTEX
  5
261
  8
Layer_0
  10
90.375427
  20
480.59976
  0
VERTEX
  5
262
  8
Layer_0
  10
90.365204
  20
480.5968
  0
SEQEND
  0
POLYLINE
  5
264
  8
Layer_0
  62
7
  66
1
  10
0
  20
0
  30
0
  0
VERTEX
  5
264
  8
Layer_0
  10
90.365204
  20
480.5968
  0
VERTEX
  5
265
  8
Layer_0
  10
90.316833
  20
480.58469
  0
SEQEND
  0
POLYLINE
  5
267
  8
Layer_0
  62
7
  66
1
  10
0
  20
0
  30
0
  0
VERTEX
  5
267
  8
Layer_0
  10
90.316833
  20
480.58469
  0
VERTEX
  5
268
  8
Layer_0
  10
89.948792
  20
480.58801
  0
SEQEND
  0
POLYLINE
  5
26a
  8
Layer_0
  62
7
  66
1
  10
0
  20
0
  30
0
  0
VERTEX
  5
26a
  8
Layer_0
  10
89.948792
  20
480.58801
  42
-0.41421446
  0
VERTEX
  5
26b
  8
Layer_0
  10
85.489609
  20
485.12848
  0
SEQEND
  0
POLYLINE
  5
26d
  8
Layer_0
  62
7
  66
1
  10
0
  20
0
  30
0
  0
VERTEX
  5
26d
  8
Layer_0
  10
85.489609
  20
485.12848
  0
VERTEX
  5
26e
  8
Layer_0
  10
85.468475
  20
482.7879
  0
SEQEND
  0
POLYLINE
  5
270
  8
Layer_0
  62
7
  66
1
  10
0
  20
0
  30
0
  0
VERTEX
  5
270
  8
Layer_0
  10
-119.84293
  20
527.58057
  0
VERTEX
  5
271
  8
Layer_0
  10
-119.87276
  20
531.62451
  0
SEQEND
  0
POLYLINE
  5
273
  8
Layer_0
  62
7
  66
1
  10
0
  20
0
  30
0
  0
VERTEX
  5
273
  8
Layer_0
  10
-100.48016
  20
582.15216
  0
VERTEX
  5
274
  8
Layer_0
  10
-72.958961
  20
582.24585
  0
SEQEND
  0
POLYLINE
  5
276
  8
Layer_0
  62
7
  66
1
  10
0
  20
0
  30
0
  0
VERTEX
  5
276
  8
Layer_0
  10
-72.958961
  20
582.24585
  0
VERTEX
  5
277
  8
Layer_0
  10
-73.077728
  20
587.88464
  0
SEQEND
  0
POLYLINE
  5
279
  8
Layer_0
  62
7
  66
1
  10
0
  20
0
  30
0
  0
VERTEX
  5
279
  8
Layer_0
  10
-73.077728
  20
587.88464
  42
-0.19950634
  0
VERTEX
  5
27a
  8
Layer_0
  10
-70.561974
  20
594.3175
  0
SEQEND
  0
POLYLINE
  5
27c
  8
Layer_0
  62
7
  66
1
  10
0
  20
0
  30
0
  0
VERTEX
  5
27c
  8
Layer_0
  10
-70.561974
  20
594.3175
  42
-0.19950169
  0
VERTEX
  5
27d
  8
Layer_0
  10
-64.228088
  20
597.07288
  0
SEQEND
  0
POLYLINE
  5
27f
  8
Layer_0
  62
7
  66
1
  10
0
  20
0
  30
0
  0
VERTEX
  5
27f
  8
Layer_0
  10
-64.228088
  20
597.07288
  0
VERTEX
  5
280
  8
Layer_0
  10
-62.924988
  20
597.09436
  0
SEQEND
  0
POLYLINE
  5
282
  8
Layer_0
  62
7
  66
1
  10
0
  20
0
  30
0
  0
VERTEX
  5
282
  8
Layer_0
  10
-62.924988
  20
597.09436
  42
-0.41421356
  0
VERTEX
  5
283
  8
Layer_0
  10
-53.777832
  20
588.24402
  0
SEQEND
  0
POLYLINE
  5
285
  8
Layer_0
  62
7
  66
1
  10
0
  20
0
  30
0
  0
VERTEX
  5
285
  8
Layer_0
  10
-53.777832
  20
588.24402
  0
VERTEX
  5
286
  8
Layer_0
  10
-53.681168
  20
582.37964
  0
SEQEND
  0
POLYLINE
  5
288
  8
Layer_0
  62
7
  66
1
  10
0
  20
0
  30
0
  0
VERTEX
  5
288
  8
Layer_0
  10
-53.681168
  20
582.37964
  0
VERTEX
  5
289
  8
Layer_0
  10
-36.910889
  20
582.37592
  0
SEQEND
  0
POLYLINE
  5
28b
  8
Layer_0
  62
7
  66
1
  10
0
  20
0
  30
0
  0
VERTEX
  5
28b
  8
Layer_0
  10
-36.910889
  20
582.37592
  0
VERTEX
  5
28c
  8
Layer_0
  10
-36.976166
  20
588.06152
  0
SEQEND
  0
POLYLINE
  5
28e
  8
Layer_0
  62
7
  66
1
  10
0
  20
0
  30
0
  0
VERTEX
  5
28e
  8
Layer_0
  10
-36.976166
  20
588.06152
  42
-0.41300561
  0
VERTEX
  5
28f
  8
Layer_0
  10
-28.117126
  20
597.1637
  0
SEQEND
  0
POLYLINE
  5
291
  8
Layer_0
  62
7
  66
1
  10
0
  20
0
  30
0
  0
VERTEX
  5
291
  8
Layer_0
  10
-28.117126
  20
597.1637
  0
VERTEX
  5
292
  8
Layer_0
  10
-26.479935
  20
597.18921
  0
SEQEND
  0
POLYLINE
  5
294
  8
Layer_0
  62
7
  66
1
  10
0
  20
0
  30
0
  0
VERTEX
  5
294
  8
Layer_0
  10
-26.479935
  20
597.18921
  42
-0.41210726
  0
VERTEX
  5
295
  8
Layer_0
  10
-17.341904
  20
588.39539
  0
SEQEND
  0
POLYLINE
  5
297
  8
Layer_0
  62
7
  66
1
  10
0
  20
0
  30
0
  0
VERTEX
  5
297
  8
Layer_0
  10
-17.341904
  20
588.39539
  0
VERTEX
  5
298
  8
Layer_0
  10
-17.204819
  20
582.38171
  0
SEQEND
  0
POLYLINE
  5
29a
  8
Layer_0
  62
7
  66
1
  10
0
  20
0
  30
0
  0
VERTEX
  5
29a
  8
Layer_0
  10
-17.204819
  20
582.38171
  0
VERTEX
  5
29b
  8
Layer_0
  10
-13.263733
  20
582.41443
  0
SEQEND
  0
POLYLINE
  5
29d
  8
Layer_0
  62
7
  66
1
  10
0
  20
0
  30
0
  0
VERTEX
  5
29d
  8
Layer_0
  10
-138.47044
  20
528.53119
  0
VERTEX
  5
29e
  8
Layer_0
  10
-138.95341
  20
528.45953
  0
SEQEND
  0
POLYLINE
  5
2a0
  8
Layer_0
  62
7
  66
1
  10
0
  20
0
  30
0
  0
VERTEX
  5
2a0
  8
Layer_0
  10
-13.174927
  20
543.28259
  0
VERTEX
  5
2a1
  8
Layer_0
  10
-2.4161987
  20
553.7326
  0
SEQEND
  0
POLYLINE
  5
2a3
  8
Layer_0
  62
7
  66
1
  10
0
  20
0
  30
0
  0
VERTEX
  5
2a3
  8
Layer_0
  10
-2.4161987
  20
553.7326
  0
VERTEX
  5
2a4
  8
Layer_0
  10
-2.5969696
  20
582.48474
  0
SEQEND
  0
POLYLINE
  5
2a6
  8
Layer_0
  62
7
  66
1
  10
0
  20
0
  30
0
  0
VERTEX
  5
2a6
  8
Layer_0
  10
-2.5969696
  20
582.48474
  0
VERTEX
  5
2a7
  8
Layer_0
  10
-3.2297058
  20
582.48077
  0
SEQEND
  0
POLYLINE
  5
2a9
  8
Layer_0
  62
7
  66
1
  10
0
  20
0
  30
0
  0
VERTEX
  5
2a9
  8
Layer_0
  10
-3.2297058
  20
582.48077
  0
VERTEX
  5
2aa
  8
Layer_0
  10
-13.068222
  20
582.41101
  0
SEQEND
  0
POLYLINE
  5
2ac
  8
Layer_0
  62
7
  66
1
  10
0
  20
0
  30
0
  0
VERTEX
  5
2ac
  8
Layer_0
  10
-13.068222
  20
582.41101
  42
-0.20327775
  0
VERTEX
  5
2ad
  8
Layer_0
  10
-15.952332
  20
583.61011
  0
SEQEND
  0
POLYLINE
  5
2af
  8
Layer_0
  62
7
  66
1
  10
0
  20
0
  30
0
  0
VERTEX
  5
2af
  8
Layer_0
  10
-15.952332
  20
583.61011
  42
-0.20329202
  0
VERTEX
  5
2b0
  8
Layer_0
  10
-17.095078
  20
586.51703
  0
SEQEND
  0
POLYLINE
  5
2b2
  8
Layer_0
  62
7
  66
1
  10
0
  20
0
  30
0
  0
VERTEX
  5
2b2
  8
Layer_0
  10
-17.095078
  20
586.51703
  0
VERTEX
  5
2b3
  8
Layer_0
  10
-16.801361
  20
597.59186
  0
SEQEND
  0
POLYLINE
  5
2b5
  8
Layer_0
  62
7
  66
1
  10
0
  20
0
  30
0
  0
VERTEX
  5
2b5
  8
Layer_0
  10
-16.801361
  20
597.59186
  42
-0.4134244
  0
VERTEX
  5
2b6
  8
Layer_0
  10
-12.195648
  20
601.97125
  0
SEQEND
  0
POLYLINE
  5
2b8
  8
Layer_0
  62
7
  66
1
  10
0
  20
0
  30
0
  0
VERTEX
  5
2b8
  8
Layer_0
  10
-12.195648
  20
601.97125
  0
VERTEX
  5
2b9
  8
Layer_0
  10
-3.0550537
  20
601.75336
  0
SEQEND
  0
POLYLINE
  5
2bb
  8
Layer_0
  62
7
  66
1
  10
0
  20
0
  30
0
  0
VERTEX
  5
2bb
  8
Layer_0
  10
-3.0550537
  20
601.75336
  0
VERTEX
  5
2bc
  8
Layer_0
  10
-2.805481
  20
612.22119
  0
SEQEND
  0
POLYLINE
  5
2be
  8
Layer_0
  62
7
  66
1
  10
0
  20
0
  30
0
  0
VERTEX
  5
2be
  8
Layer_0
  10
-2.805481
  20
612.22119
  0
VERTEX
  5
2bf
  8
Layer_0
  10
85.095108
  20
612.36517
  0
SEQEND
  0
POLYLINE
  5
2c1
  8
Layer_0
  62
7
  66
1
  10
0
  20
0
  30
0
  0
VERTEX
  5
2c1
  8
Layer_0
  10
85.095108
  20
612.36517
  0
VERTEX
  5
2c2
  8
Layer_0
  10
85.394501
  20
583.85065
  0
SEQEND
  0
POLYLINE
  5
2c4
  8
Layer_0
  62
7
  66
1
  10
0
  20
0
  30
0
  0
VERTEX
  5
2c4
  8
Layer_0
  10
-13.097702
  20
524.12531
  0
VERTEX
  5
2c5
  8
Layer_0
  10
-2.2550812
  20
513.76239
  0
SEQEND
  0
POLYLINE
  5
2c7
  8
Layer_0
  62
7
  66
1
  10
0
  20
0
  30
0
  0
VERTEX
  5
2c7
  8
Layer_0
  10
-2.2550812
  20
513.76239
  0
VERTEX
  5
2c8
  8
Layer_0
  10
-2.2039337
  20
485.0097
  0
SEQEND
  0
POLYLINE
  5
2ca
  8
Layer_0
  62
7
  66
1
  10
0
  20
0
  30
0
  0
VERTEX
  5
2ca
  8
Layer_0
  10
-2.2039337
  20
485.0097
  0
VERTEX
  5
2cb
  8
Layer_0
  10
-2.8366394
  20
485.00861
  0
SEQEND
  0
POLYLINE
  5
2cd
  8
Layer_0
  62
7
  66
1
  10
0
  20
0
  30
0
  0
VERTEX
  5
2cd
  8
Layer_0
  10
-2.8366394
  20
485.00861
  0
VERTEX
  5
2ce
  8
Layer_0
  10
-12.675385
  20
484.99902
  0
SEQEND
  0
POLYLINE
  5
2d0
  8
Layer_0
  62
7
  66
1
  10
0
  20
0
  30
0
  0
VERTEX
  5
2d0
  8
Layer_0
  10
-12.675385
  20
484.99902
  0
VERTEX
  5
2d1
  8
Layer_0
  10
-36.517685
  20
484.84186
  0
SEQEND
  0
POLYLINE
  5
2d3
  8
Layer_0
  62
7
  66
1
  10
0
  20
0
  30
0
  0
VERTEX
  5
2d3
  8
Layer_0
  10
-36.517685
  20
484.84186
  0
VERTEX
  5
2d4
  8
Layer_0
  10
-53.28727
  20
484.70291
  0
SEQEND
  0
POLYLINE
  5
2d6
  8
Layer_0
  62
7
  66
1
  10
0
  20
0
  30
0
  0
VERTEX
  5
2d6
  8
Layer_0
  10
-53.28727
  20
484.70291
  0
VERTEX
  5
2d7
  8
Layer_0
  10
-72.565605
  20
484.68124
  0
SEQEND
  0
POLYLINE
  5
2d9
  8
Layer_0
  62
7
  66
1
  10
0
  20
0
  30
0
  0
VERTEX
  5
2d9
  8
Layer_0
  10
-72.565605
  20
484.68124
  0
VERTEX
  5
2da
  8
Layer_0
  10
-100.08534
  20
484.49207
  0
SEQEND
  0
POLYLINE
  5
2dc
  8
Layer_0
  62
7
  66
1
  10
0
  20
0
  30
0
  0
VERTEX
  5
2dc
  8
Layer_0
  10
-16.626114
  20
562.47333
  0
VERTEX
  5
2dd
  8
Layer_0
  10
-36.478119
  20
562.36475
  0
SEQEND
  0
POLYLINE
  5
2df
  8
Layer_0
  62
7
  66
1
  10
0
  20
0
  30
0
  0
VERTEX
  5
2df
  8
Layer_0
  10
-3.2850494
  20
514.85284
  0
VERTEX
  5
2e0
  8
Layer_0
  10
-3.4760437
  20
515.05505
  0
SEQEND
  0
POLYLINE
  5
2e2
  8
Layer_0
  62
7
  66
1
  10
0
  20
0
  30
0
  0
VERTEX
  5
2e2
  8
Layer_0
  10
-2.2550812
  20
513.76239
  0
VERTEX
  5
2e3
  8
Layer_0
  10
-2.5983276
  20
514.12585
  0
SEQEND
  0
POLYLINE
  5
2e5
  8
Layer_0
  62
7
  66
1
  10
0
  20
0
  30
0
  0
VERTEX
  5
2e5
  8
Layer_0
  10
-94.243134
  20
543.30029
  0
VERTEX
  5
2e6
  8
Layer_0
  10
-90.222328
  20
543.31628
  0
SEQEND
  0
POLYLINE
  5
2e8
  8
Layer_0
  62
7
  66
1
  10
0
  20
0
  30
0
  0
VERTEX
  5
2e8
  8
Layer_0
  10
-138.96365
  20
528.45801
  0
VERTEX
  5
2e9
  8
Layer_0
  10
-133.21278
  20
528.45715
  0
SEQEND
  0
POLYLINE
  5
2eb
  8
Layer_0
  62
7
  66
1
  10
0
  20
0
  30
0
  0
VERTEX
  5
2eb
  8
Layer_0
  10
-133.21278
  20
528.45715
  42
0.41420871
  0
VERTEX
  5
2ec
  8
Layer_0
  10
-128.21198
  20
533.45636
  0
SEQEND
  0
POLYLINE
  5
2ee
  8
Layer_0
  62
7
  66
1
  10
0
  20
0
  30
0
  0
VERTEX
  5
2ee
  8
Layer_0
  10
-128.21198
  20
533.45636
  0
VERTEX
  5
2ef
  8
Layer_0
  10
-128.21198
  20
533.16687
  0
SEQEND
  0
POLYLINE
  5
2f1
  8
Layer_0
  62
7
  66
1
  10
0
  20
0
  30
0
  0
VERTEX
  5
2f1
  8
Layer_0
  10
-99.738998
  20
484.45386
  0
VERTEX
  5
2f2
  8
Layer_0
  10
-99.737595
  20
484.45386
  0
SEQEND
  0
POLYLINE
  5
2f4
  8
Layer_0
  62
7
  66
1
  10
0
  20
0
  30
0
  0
VERTEX
  5
2f4
  8
Layer_0
  10
-80.357269
  20
499.62665
  0
VERTEX
  5
2f5
  8
Layer_0
  10
-80.244316
  20
488.9386
  0
SEQEND
  0
POLYLINE
  5
2f7
  8
Layer_0
  62
7
  66
1
  10
0
  20
0
  30
0
  0
VERTEX
  5
2f7
  8
Layer_0
  10
-2.7700043
  20
514.30762
  0
VERTEX
  5
2f8
  8
Layer_0
  10
-3.1133728
  20
514.67108
  0
SEQEND
  0
POLYLINE
  5
2fa
  8
Layer_0
  62
7
  66
1
  10
0
  20
0
  30
0
  0
VERTEX
  5
2fa
  8
Layer_0
  10
-100.12797
  20
527.77142
  0
VERTEX
  5
2fb
  8
Layer_0
  10
-100.14525
  20
532.07446
  0
SEQEND
  0
POLYLINE
  5
2fd
  8
Layer_0
  62
7
  66
1
  10
0
  20
0
  30
0
  0
VERTEX
  5
2fd
  8
Layer_0
  10
-85.529984
  20
494.2475
  0
VERTEX
  5
2fe
  8
Layer_0
  10
-75.030197
  20
494.31503
  0
SEQEND
  0
POLYLINE
  5
300
  8
Layer_0
  62
7
  66
1
  10
0
  20
0
  30
0
  0
VERTEX
  5
300
  8
Layer_0
  10
84.570099
  20
571.17242
  0
VERTEX
  5
301
  8
Layer_0
  10
80.534882
  20
571.17242
  0
SEQEND
  0
POLYLINE
  5
303
  8
Layer_0
  62
7
  66
1
  10
0
  20
0
  30
0
  0
VERTEX
  5
303
  8
Layer_0
  10
75.534882
  20
571.17242
  0
VERTEX
  5
304
  8
Layer_0
  10
70.534882
  20
571.17249
  0
SEQEND
  0
POLYLINE
  5
306
  8
Layer_0
  62
7
  66
1
  10
0
  20
0
  30
0
  0
VERTEX
  5
306
  8
Layer_0
  10
65.534882
  20
571.17249
  0
VERTEX
  5
307
  8
Layer_0
  10
60.534882
  20
571.17249
  0
SEQEND
  0
POLYLINE
  5
309
  8
Layer_0
  62
7
  66
1
  10
0
  20
0
  30
0
  0
VERTEX
  5
309
  8
Layer_0
  10
55.534882
  20
571.17249
  0
VERTEX
  5
30a
  8
Layer_0
  10
50.534882
  20
571.17255
  0
SEQEND
  0
POLYLINE
  5
30c
  8
Layer_0
  62
7
  66
1
  10
0
  20
0
  30
0
  0
VERTEX
  5
30c
  8
Layer_0
  10
45.534882
  20
571.17255
  0
VERTEX
  5
30d
  8
Layer_0
  10
40.534882
  20
571.17255
  0
SEQEND
  0
POLYLINE
  5
30f
  8
Layer_0
  62
7
  66
1
  10
0
  20
0
  30
0
  0
VERTEX
  5
30f
  8
Layer_0
  10
35.586746
  20
571.48651
  0
VERTEX
  5
310
  8
Layer_0
  10
30.587509
  20
571.39929
  0
SEQEND
  0
POLYLINE
  5
312
  8
Layer_0
  62
7
  66
1
  10
0
  20
0
  30
0
  0
VERTEX
  5
312
  8
Layer_0
  10
17.519882
  20
577.42828
  0
VERTEX
  5
313
  8
Layer_0
  10
17.629059
  20
571.17371
  0
SEQEND
  0
POLYLINE
  5
315
  8
Layer_0
  62
7
  66
1
  10
0
  20
0
  30
0
  0
VERTEX
  5
315
  8
Layer_0
  10
8.0250244
  20
571.00604
  0
VERTEX
  5
316
  8
Layer_0
  10
27.233093
  20
571.34131
  0
SEQEND
  0
POLYLINE
  5
318
  8
Layer_0
  62
7
  66
1
  10
0
  20
0
  30
0
  0
VERTEX
  5
318
  8
Layer_0
  10
2.5368195
  20
570.91028
  0
VERTEX
  5
319
  8
Layer_0
  10
-1.4625702
  20
570.84045
  0
SEQEND
  0
POLYLINE
  5
31b
  8
Layer_0
  62
7
  66
1
  10
0
  20
0
  30
0
  0
VERTEX
  5
31b
  8
Layer_0
  10
90.416718
  20
553.5097
  0
VERTEX
  5
31c
  8
Layer_0
  10
87.416718
  20
553.5097
  0
SEQEND
  0
POLYLINE
  5
31e
  8
Layer_0
  62
7
  66
1
  10
0
  20
0
  30
0
  0
VERTEX
  5
31e
  8
Layer_0
  10
80.416718
  20
553.5097
  0
VERTEX
  5
31f
  8
Layer_0
  10
75.416718
  20
553.5097
  0
SEQEND
  0
POLYLINE
  5
321
  8
Layer_0
  62
7
  66
1
  10
0
  20
0
  30
0
  0
VERTEX
  5
321
  8
Layer_0
  10
65.416718
  20
553.5097
  0
VERTEX
  5
322
  8
Layer_0
  10
70.416718
  20
553.5097
  0
SEQEND
  0
POLYLINE
  5
324
  8
Layer_0
  62
7
  66
1
  10
0
  20
0
  30
0
  0
VERTEX
  5
324
  8
Layer_0
  10
60.416718
  20
553.5097
  0
VERTEX
  5
325
  8
Layer_0
  10
55.416718
  20
553.5097
  0
SEQEND
  0
POLYLINE
  5
327
  8
Layer_0
  62
7
  66
1
  10
0
  20
0
  30
0
  0
VERTEX
  5
327
  8
Layer_0
  10
50.416718
  20
553.5097
  0
VERTEX
  5
328
  8
Layer_0
  10
45.416718
  20
553.5097
  0
SEQEND
  0
POLYLINE
  5
32a
  8
Layer_0
  62
7
  66
1
  10
0
  20
0
  30
0
  0
VERTEX
  5
32a
  8
Layer_0
  10
40.416718
  20
553.5097
  0
VERTEX
  5
32b
  8
Layer_0
  10
35.416718
  20
553.5097
  0
SEQEND
  0
POLYLINE
  5
32d
  8
Layer_0
  62
7
  66
1
  10
0
  20
0
  30
0
  0
VERTEX
  5
32d
  8
Layer_0
  10
25.416718
  20
553.5097
  0
VERTEX
  5
32e
  8
Layer_0
  10
30.416718
  20
553.5097
  0
SEQEND
  0
POLYLINE
  5
330
  8
Layer_0
  62
7
  66
1
  10
0
  20
0
  30
0
  0
VERTEX
  5
330
  8
Layer_0
  10
15.416718
  20
553.5097
  0
VERTEX
  5
331
  8
Layer_0
  10
20.416718
  20
553.5097
  0
SEQEND
  0
POLYLINE
  5
333
  8
Layer_0
  62
7
  66
1
  10
0
  20
0
  30
0
  0
VERTEX
  5
333
  8
Layer_0
  10
5.4167175
  20
553.5097
  0
VERTEX
  5
334
  8
Layer_0
  10
10.416718
  20
553.5097
  0
SEQEND
  0
POLYLINE
  5
336
  8
Layer_0
  62
7
  66
1
  10
0
  20
0
  30
0
  0
VERTEX
  5
336
  8
Layer_0
  10
0.41671753
  20
553.5097
  0
VERTEX
  5
337
  8
Layer_0
  10
-2.0832825
  20
553.5097
  0
SEQEND
  0
POLYLINE
  5
339
  8
Layer_0
  62
7
  66
1
  10
0
  20
0
  30
0
  0
VERTEX
  5
339
  8
Layer_0
  10
65.521866
  20
493.60715
  0
VERTEX
  5
33a
  8
Layer_0
  10
60.521866
  20
493.59979
  0
SEQEND
  0
POLYLINE
  5
33c
  8
Layer_0
  62
7
  66
1
  10
0
  20
0
  30
0
  0
VERTEX
  5
33c
  8
Layer_0
  10
75.521851
  20
493.62189
  0
VERTEX
  5
33d
  8
Layer_0
  10
70.521866
  20
493.6145
  0
SEQEND
  0
POLYLINE
  5
33f
  8
Layer_0
  62
7
  66
1
  10
0
  20
0
  30
0
  0
VERTEX
  5
33f
  8
Layer_0
  10
45.521881
  20
493.5777
  0
VERTEX
  5
340
  8
Layer_0
  10
40.521896
  20
493.57037
  0
SEQEND
  0
POLYLINE
  5
342
  8
Layer_0
  62
7
  66
1
  10
0
  20
0
  30
0
  0
VERTEX
  5
342
  8
Layer_0
  10
84.557053
  20
493.63516
  0
VERTEX
  5
343
  8
Layer_0
  10
80.521851
  20
493.62921
  0
SEQEND
  0
POLYLINE
  5
345
  8
Layer_0
  62
7
  66
1
  10
0
  20
0
  30
0
  0
VERTEX
  5
345
  8
Layer_0
  10
35.521896
  20
493.56299
  0
VERTEX
  5
346
  8
Layer_0
  10
30.521912
  20
493.55563
  0
SEQEND
  0
POLYLINE
  5
348
  8
Layer_0
  62
7
  66
1
  10
0
  20
0
  30
0
  0
VERTEX
  5
348
  8
Layer_0
  10
55.521881
  20
493.59244
  0
VERTEX
  5
349
  8
Layer_0
  10
50.521881
  20
493.58508
  0
SEQEND
  0
POLYLINE
  5
34b
  8
Layer_0
  62
7
  66
1
  10
0
  20
0
  30
0
  0
VERTEX
  5
34b
  8
Layer_0
  10
2.4669952
  20
493.51385
  0
VERTEX
  5
34c
  8
Layer_0
  10
-1.5330048
  20
493.50797
  0
SEQEND
  0
POLYLINE
  5
34e
  8
Layer_0
  62
7
  66
1
  10
0
  20
0
  30
0
  0
VERTEX
  5
34e
  8
Layer_0
  10
10.446426
  20
513.03943
  0
VERTEX
  5
34f
  8
Layer_0
  10
5.4464264
  20
513.03204
  0
SEQEND
  0
POLYLINE
  5
351
  8
Layer_0
  62
7
  66
1
  10
0
  20
0
  30
0
  0
VERTEX
  5
351
  8
Layer_0
  10
20.446411
  20
513.05408
  0
VERTEX
  5
352
  8
Layer_0
  10
15.446426
  20
513.04675
  0
SEQEND
  0
POLYLINE
  5
354
  8
Layer_0
  62
7
  66
1
  10
0
  20
0
  30
0
  0
VERTEX
  5
354
  8
Layer_0
  10
0.44644165
  20
513.02472
  0
VERTEX
  5
355
  8
Layer_0
  10
-2.0535583
  20
513.02106
  0
SEQEND
  0
POLYLINE
  5
357
  8
Layer_0
  62
7
  66
1
  10
0
  20
0
  30
0
  0
VERTEX
  5
357
  8
Layer_0
  10
70.446365
  20
513.1275
  0
VERTEX
  5
358
  8
Layer_0
  10
65.446365
  20
513.12012
  0
SEQEND
  0
POLYLINE
  5
35a
  8
Layer_0
  62
7
  66
1
  10
0
  20
0
  30
0
  0
VERTEX
  5
35a
  8
Layer_0
  10
30.446411
  20
513.06873
  0
VERTEX
  5
35b
  8
Layer_0
  10
25.446411
  20
513.0614
  0
SEQEND
  0
POLYLINE
  5
35d
  8
Layer_0
  62
7
  66
1
  10
0
  20
0
  30
0
  0
VERTEX
  5
35d
  8
Layer_0
  10
40.446396
  20
513.08344
  0
VERTEX
  5
35e
  8
Layer_0
  10
35.446396
  20
513.07611
  0
SEQEND
  0
POLYLINE
  5
360
  8
Layer_0
  62
7
  66
1
  10
0
  20
0
  30
0
  0
VERTEX
  5
360
  8
Layer_0
  10
60.446365
  20
513.11279
  0
VERTEX
  5
361
  8
Layer_0
  10
55.446381
  20
513.10547
  0
SEQEND
  0
POLYLINE
  5
363
  8
Layer_0
  62
7
  66
1
  10
0
  20
0
  30
0
  0
VERTEX
  5
363
  8
Layer_0
  10
50.446381
  20
513.09814
  0
VERTEX
  5
364
  8
Layer_0
  10
45.446396
  20
513.09076
  0
SEQEND
  0
POLYLINE
  5
366
  8
Layer_0
  62
7
  66
1
  10
0
  20
0
  30
0
  0
VERTEX
  5
366
  8
Layer_0
  10
80.44635
  20
513.14215
  0
VERTEX
  5
367
  8
Layer_0
  10
75.44635
  20
513.13483
  0
SEQEND
  0
POLYLINE
  5
369
  8
Layer_0
  62
7
  66
1
  10
0
  20
0
  30
0
  0
VERTEX
  5
369
  8
Layer_0
  10
90.44635
  20
513.15686
  0
VERTEX
  5
36a
  8
Layer_0
  10
87.44635
  20
513.15247
  0
SEQEND
  0
POLYLINE
  5
36c
  8
Layer_0
  62
7
  66
1
  10
0
  20
0
  30
0
  0
VERTEX
  5
36c
  8
Layer_0
  10
27.620956
  20
493.55078
  0
VERTEX
  5
36d
  8
Layer_0
  10
22.620956
  20
493.54343
  0
SEQEND
  0
POLYLINE
  5
36f
  8
Layer_0
  62
7
  66
1
  10
0
  20
0
  30
0
  0
VERTEX
  5
36f
  8
Layer_0
  10
17.620972
  20
493.53607
  0
VERTEX
  5
370
  8
Layer_0
  10
12.620972
  20
493.52875
  0
SEQEND
  0
POLYLINE
  5
372
  8
Layer_0
  62
7
  66
1
  10
0
  20
0
  30
0
  0
VERTEX
  5
372
  8
Layer_0
  10
7.6209869
  20
493.52142
  0
VERTEX
  5
373
  8
Layer_0
  10
4.6209869
  20
493.517
  0
SEQEND
  0
POLYLINE
  5
375
  8
Layer_0
  62
7
  66
1
  10
0
  20
0
  30
0
  0
VERTEX
  5
375
  8
Layer_0
  10
71.944672
  20
455.56973
  0
VERTEX
  5
376
  8
Layer_0
  10
66.944672
  20
455.56973
  0
SEQEND
  0
POLYLINE
  5
378
  8
Layer_0
  62
7
  66
1
  10
0
  20
0
  30
0
  0
VERTEX
  5
378
  8
Layer_0
  10
61.944672
  20
455.56973
  0
VERTEX
  5
379
  8
Layer_0
  10
56.944672
  20
455.56973
  0
SEQEND
  0
POLYLINE
  5
37b
  8
Layer_0
  62
7
  66
1
  10
0
  20
0
  30
0
  0
VERTEX
  5
37b
  8
Layer_0
  10
14.944672
  20
455.56973
  0
VERTEX
  5
37c
  8
Layer_0
  10
9.9446716
  20
455.56973
  0
SEQEND
  0
POLYLINE
  5
37e
  8
Layer_0
  62
7
  66
1
  10
0
  20
0
  30
0
  0
VERTEX
  5
37e
  8
Layer_0
  10
19.944672
  20
455.56973
  0
VERTEX
  5
37f
  8
Layer_0
  10
24.944672
  20
455.56973
  0
SEQEND
  0
POLYLINE
  5
381
  8
Layer_0
  62
7
  66
1
  10
0
  20
0
  30
0
  0
VERTEX
  5
381
  8
Layer_0
  10
-29.055328
  20
465.06973
  0
VERTEX
  5
382
  8
Layer_0
  10
-34.055328
  20
465.06973
  0
SEQEND
  0
POLYLINE
  5
384
  8
Layer_0
  62
7
  66
1
  10
0
  20
0
  30
0
  0
VERTEX
  5
384
  8
Layer_0
  10
-19.055328
  20
465.06973
  0
VERTEX
  5
385
  8
Layer_0
  10
-24.055328
  20
465.06973
  0
SEQEND
  0
POLYLINE
  5
387
  8
Layer_0
  62
7
  66
1
  10
0
  20
0
  30
0
  0
VERTEX
  5
387
  8
Layer_0
  10
-29.14534
  20
582.41663
  0
VERTEX
  5
388
  8
Layer_0
  10
-34.14534
  20
582.41663
  0
SEQEND
  0
POLYLINE
  5
38a
  8
Layer_0
  62
7
  66
1
  10
0
  20
0
  30
0
  0
VERTEX
  5
38a
  8
Layer_0
  10
-19.14534
  20
582.41663
  0
VERTEX
  5
38b
  8
Layer_0
  10
-24.14534
  20
582.41663
  0
SEQEND
  0
POLYLINE
  5
38d
  8
Layer_0
  62
7
  66
1
  10
0
  20
0
  30
0
  0
VERTEX
  5
38d
  8
Layer_0
  10
-55.55986
  20
582.41663
  0
VERTEX
  5
38e
  8
Layer_0
  10
-60.55986
  20
582.41663
  0
SEQEND
  0
POLYLINE
  5
390
  8
Layer_0
  62
7
  66
1
  10
0
  20
0
  30
0
  0
VERTEX
  5
390
  8
Layer_0
  10
-65.55986
  20
582.41663
  0
VERTEX
  5
391
  8
Layer_0
  10
-70.55986
  20
582.41663
  0
SEQEND
  0
POLYLINE
  5
393
  8
Layer_0
  62
7
  66
1
  10
0
  20
0
  30
0
  0
VERTEX
  5
393
  8
Layer_0
  10
-91.278801
  20
562.2655
  0
VERTEX
  5
394
  8
Layer_0
  10
-86.278801
  20
562.2655
  0
SEQEND
  0
POLYLINE
  5
396
  8
Layer_0
  62
7
  66
1
  10
0
  20
0
  30
0
  0
VERTEX
  5
396
  8
Layer_0
  10
-81.278801
  20
562.2655
  0
VERTEX
  5
397
  8
Layer_0
  10
-76.278801
  20
562.26544
  0
SEQEND
  0
POLYLINE
  5
399
  8
Layer_0
  62
7
  66
1
  10
0
  20
0
  30
0
  0
VERTEX
  5
399
  8
Layer_0
  10
-26.552124
  20
568.67456
  0
VERTEX
  5
39a
  8
Layer_0
  10
-26.552124
  20
562.41907
  0
SEQEND
  0
POLYLINE
  5
39c
  8
Layer_0
  62
7
  66
1
  10
0
  20
0
  30
0
  0
VERTEX
  5
39c
  8
Layer_0
  10
-71.278801
  20
562.26544
  0
VERTEX
  5
39d
  8
Layer_0
  10
-66.278801
  20
562.26544
  0
SEQEND
  0
POLYLINE
  5
39f
  8
Layer_0
  62
7
  66
1
  10
0
  20
0
  30
0
  0
VERTEX
  5
39f
  8
Layer_0
  10
-61.278801
  20
562.26538
  0
VERTEX
  5
3a0
  8
Layer_0
  10
-56.278801
  20
562.26538
  0
SEQEND
  0
POLYLINE
  5
3a2
  8
Layer_0
  62
7
  66
1
  10
0
  20
0
  30
0
  0
VERTEX
  5
3a2
  8
Layer_0
  10
-100.31401
  20
562.2655
  0
VERTEX
  5
3a3
  8
Layer_0
  10
-96.278801
  20
562.2655
  0
SEQEND
  0
POLYLINE
  5
3a5
  8
Layer_0
  62
7
  66
1
  10
0
  20
0
  30
0
  0
VERTEX
  5
3a5
  8
Layer_0
  10
-51.278801
  20
562.26538
  0
VERTEX
  5
3a6
  8
Layer_0
  10
-46.278801
  20
562.26538
  0
SEQEND
  0
POLYLINE
  5
3a8
  8
Layer_0
  62
7
  66
1
  10
0
  20
0
  30
0
  0
VERTEX
  5
3a8
  8
Layer_0
  10
-43.778801
  20
562.26538
  0
VERTEX
  5
3a9
  8
Layer_0
  10
-38.778801
  20
562.26538
  0
SEQEND
  0
POLYLINE
  5
3ab
  8
Layer_0
  62
7
  66
1
  10
0
  20
0
  30
0
  0
VERTEX
  5
3ab
  8
Layer_0
  10
-71.743134
  20
543.30029
  0
VERTEX
  5
3ac
  8
Layer_0
  10
-76.743134
  20
543.30029
  0
SEQEND
  0
POLYLINE
  5
3ae
  8
Layer_0
  62
7
  66
1
  10
0
  20
0
  30
0
  0
VERTEX
  5
3ae
  8
Layer_0
  10
-41.743134
  20
543.30029
  0
VERTEX
  5
3af
  8
Layer_0
  10
-46.743134
  20
543.30029
  0
SEQEND
  0
POLYLINE
  5
3b1
  8
Layer_0
  62
7
  66
1
  10
0
  20
0
  30
0
  0
VERTEX
  5
3b1
  8
Layer_0
  10
-21.743134
  20
543.30029
  0
VERTEX
  5
3b2
  8
Layer_0
  10
-26.743134
  20
543.30029
  0
SEQEND
  0
POLYLINE
  5
3b4
  8
Layer_0
  62
7
  66
1
  10
0
  20
0
  30
0
  0
VERTEX
  5
3b4
  8
Layer_0
  10
-61.743134
  20
543.30029
  0
VERTEX
  5
3b5
  8
Layer_0
  10
-66.743134
  20
543.30029
  0
SEQEND
  0
POLYLINE
  5
3b7
  8
Layer_0
  62
7
  66
1
  10
0
  20
0
  30
0
  0
VERTEX
  5
3b7
  8
Layer_0
  10
-81.743134
  20
543.30029
  0
VERTEX
  5
3b8
  8
Layer_0
  10
-86.743134
  20
543.30029
  0
SEQEND
  0
POLYLINE
  5
3ba
  8
Layer_0
  62
7
  66
1
  10
0
  20
0
  30
0
  0
VERTEX
  5
3ba
  8
Layer_0
  10
-51.743134
  20
543.30029
  0
VERTEX
  5
3bb
  8
Layer_0
  10
-56.743134
  20
543.30029
  0
SEQEND
  0
POLYLINE
  5
3bd
  8
Layer_0
  62
7
  66
1
  10
0
  20
0
  30
0
  0
VERTEX
  5
3bd
  8
Layer_0
  10
-31.743134
  20
543.30029
  0
VERTEX
  5
3be
  8
Layer_0
  10
-36.743134
  20
543.30029
  0
SEQEND
  0
POLYLINE
  5
3c0
  8
Layer_0
  62
7
  66
1
  10
0
  20
0
  30
0
  0
VERTEX
  5
3c0
  8
Layer_0
  10
-71.728325
  20
523.12817
  0
VERTEX
  5
3c1
  8
Layer_0
  10
-76.728317
  20
523.12085
  0
SEQEND
  0
POLYLINE
  5
3c3
  8
Layer_0
  62
7
  66
1
  10
0
  20
0
  30
0
  0
VERTEX
  5
3c3
  8
Layer_0
  10
-94.228302
  20
523.09515
  0
VERTEX
  5
3c4
  8
Layer_0
  10
-90.207481
  20
523.08508
  0
SEQEND
  0
POLYLINE
  5
3c6
  8
Layer_0
  62
7
  66
1
  10
0
  20
0
  30
0
  0
VERTEX
  5
3c6
  8
Layer_0
  10
-41.728355
  20
523.17218
  0
VERTEX
  5
3c7
  8
Layer_0
  10
-46.728348
  20
523.16486
  0
SEQEND
  0
POLYLINE
  5
3c9
  8
Layer_0
  62
7
  66
1
  10
0
  20
0
  30
0
  0
VERTEX
  5
3c9
  8
Layer_0
  10
-81.72831
  20
523.11346
  0
VERTEX
  5
3ca
  8
Layer_0
  10
-86.72831
  20
523.10614
  0
SEQEND
  0
POLYLINE
  5
3cc
  8
Layer_0
  62
7
  66
1
  10
0
  20
0
  30
0
  0
VERTEX
  5
3cc
  8
Layer_0
  10
-51.728348
  20
523.15753
  0
VERTEX
  5
3cd
  8
Layer_0
  10
-56.72834
  20
523.15021
  0
SEQEND
  0
POLYLINE
  5
3cf
  8
Layer_0
  62
7
  66
1
  10
0
  20
0
  30
0
  0
VERTEX
  5
3cf
  8
Layer_0
  10
-61.728333
  20
523.14282
  0
VERTEX
  5
3d0
  8
Layer_0
  10
-66.728333
  20
523.1355
  0
SEQEND
  0
POLYLINE
  5
3d2
  8
Layer_0
  62
7
  66
1
  10
0
  20
0
  30
0
  0
VERTEX
  5
3d2
  8
Layer_0
  10
-31.728363
  20
523.18689
  0
VERTEX
  5
3d3
  8
Layer_0
  10
-36.728363
  20
523.17957
  0
SEQEND
  0
POLYLINE
  5
3d5
  8
Layer_0
  62
7
  66
1
  10
0
  20
0
  30
0
  0
VERTEX
  5
3d5
  8
Layer_0
  10
-21.728378
  20
523.20154
  0
VERTEX
  5
3d6
  8
Layer_0
  10
-26.728378
  20
523.19421
  0
SEQEND
  0
POLYLINE
  5
3d8
  8
Layer_0
  62
7
  66
1
  10
0
  20
0
  30
0
  0
VERTEX
  5
3d8
  8
Layer_0
  10
-100.27133
  20
504.12103
  0
VERTEX
  5
3d9
  8
Layer_0
  10
-96.23613
  20
504.12695
  0
SEQEND
  0
POLYLINE
  5
3db
  8
Layer_0
  62
7
  66
1
  10
0
  20
0
  30
0
  0
VERTEX
  5
3db
  8
Layer_0
  10
-10.776382
  20
503.83691
  0
VERTEX
  5
3dc
  8
Layer_0
  10
-6.2917023
  20
503.79181
  0
SEQEND
  0
POLYLINE
  5
3de
  8
Layer_0
  62
7
  66
1
  10
0
  20
0
  30
0
  0
VERTEX
  5
3de
  8
Layer_0
  10
-81.236145
  20
504.14905
  0
VERTEX
  5
3df
  8
Layer_0
  10
-76.236153
  20
504.15637
  0
SEQEND
  0
POLYLINE
  5
3e1
  8
Layer_0
  62
7
  66
1
  10
0
  20
0
  30
0
  0
VERTEX
  5
3e1
  8
Layer_0
  10
-91.236137
  20
504.13431
  0
VERTEX
  5
3e2
  8
Layer_0
  10
-86.236137
  20
504.14166
  0
SEQEND
  0
POLYLINE
  5
3e4
  8
Layer_0
  62
7
  66
1
  10
0
  20
0
  30
0
  0
VERTEX
  5
3e4
  8
Layer_0
  10
-51.236176
  20
504.19318
  0
VERTEX
  5
3e5
  8
Layer_0
  10
-46.236183
  20
504.20056
  0
SEQEND
  0
POLYLINE
  5
3e7
  8
Layer_0
  62
7
  66
1
  10
0
  20
0
  30
0
  0
VERTEX
  5
3e7
  8
Layer_0
  10
-17.766724
  20
504.08865
  0
VERTEX
  5
3e8
  8
Layer_0
  10
-36.80011
  20
504.16483
  0
SEQEND
  0
POLYLINE
  5
3ea
  8
Layer_0
  62
7
  66
1
  10
0
  20
0
  30
0
  0
VERTEX
  5
3ea
  8
Layer_0
  10
-61.236168
  20
504.17847
  0
VERTEX
  5
3eb
  8
Layer_0
  10
-56.236176
  20
504.18582
  0
SEQEND
  0
POLYLINE
  5
3ed
  8
Layer_0
  62
7
  66
1
  10
0
  20
0
  30
0
  0
VERTEX
  5
3ed
  8
Layer_0
  10
-26.500107
  20
497.82028
  0
VERTEX
  5
3ee
  8
Layer_0
  10
-26.509293
  20
504.07581
  0
SEQEND
  0
POLYLINE
  5
3f0
  8
Layer_0
  62
7
  66
1
  10
0
  20
0
  30
0
  0
VERTEX
  5
3f0
  8
Layer_0
  10
-71.23616
  20
504.16376
  0
VERTEX
  5
3f1
  8
Layer_0
  10
-66.23616
  20
504.17111
  0
SEQEND
  0
POLYLINE
  5
3f3
  8
Layer_0
  62
7
  66
1
  10
0
  20
0
  30
0
  0
VERTEX
  5
3f3
  8
Layer_0
  10
-43.736191
  20
504.20419
  0
VERTEX
  5
3f4
  8
Layer_0
  10
-38.736191
  20
504.21155
  0
SEQEND
  0
POLYLINE
  5
3f6
  8
Layer_0
  62
7
  66
1
  10
0
  20
0
  30
0
  0
VERTEX
  5
3f6
  8
Layer_0
  10
85.647461
  20
530.68738
  0
VERTEX
  5
3f7
  8
Layer_0
  10
85.647461
  20
535.68738
  0
SEQEND
  0
POLYLINE
  5
3f9
  8
Layer_0
  62
7
  66
1
  10
0
  20
0
  30
0
  0
VERTEX
  5
3f9
  8
Layer_0
  10
85.653854
  20
521.97217
  0
VERTEX
  5
3fa
  8
Layer_0
  10
85.661194
  20
516.97217
  0
SEQEND
  0
POLYLINE
  5
3fc
  8
Layer_0
  62
7
  66
1
  10
0
  20
0
  30
0
  0
VERTEX
  5
3fc
  8
Layer_0
  10
85.647461
  20
550.68738
  0
VERTEX
  5
3fd
  8
Layer_0
  10
85.647461
  20
545.68738
  0
SEQEND
  0
POLYLINE
  5
3ff
  8
Layer_0
  62
7
  66
1
  10
0
  20
0
  30
0
  0
VERTEX
  5
3ff
  8
Layer_0
  10
-103.35863
  20
523.48035
  0
VERTEX
  5
400
  8
Layer_0
  10
-108.35863
  20
523.48181
  0
SEQEND
  0
POLYLINE
  5
402
  8
Layer_0
  62
7
  66
1
  10
0
  20
0
  30
0
  0
VERTEX
  5
402
  8
Layer_0
  10
-113.35863
  20
523.48328
  0
VERTEX
  5
403
  8
Layer_0
  10
-117.35863
  20
523.48444
  0
SEQEND
  0
POLYLINE
  5
405
  8
Layer_0
  62
7
  66
1
  10
0
  20
0
  30
0
  0
VERTEX
  5
405
  8
Layer_0
  10
-104.33749
  20
542.98834
  0
VERTEX
  5
406
  8
Layer_0
  10
-104.33815
  20
542.94653
  0
SEQEND
  0
POLYLINE
  5
408
  8
Layer_0
  62
7
  66
1
  10
0
  20
0
  30
0
  0
VERTEX
  5
408
  8
Layer_0
  10
-113.37286
  20
542.88416
  0
VERTEX
  5
409
  8
Layer_0
  10
-117.37286
  20
542.87708
  0
SEQEND
  0
POLYLINE
  5
40b
  8
Layer_0
  62
7
  66
1
  10
0
  20
0
  30
0
  0
VERTEX
  5
40b
  8
Layer_0
  10
-103.37288
  20
542.90173
  0
VERTEX
  5
40c
  8
Layer_0
  10
-108.37287
  20
542.89294
  0
SEQEND
  0
ENDSEC
  0
EOF
