0
SECTION
2
HEADER
9
$INSUNITS
70
4
9
$ACADVER
1
AC1014
9
$HANDSEED
5
FFFF
0
ENDSEC
0
SECTION
2
TABLES
0
TABLE
2
VPORT
5
8
100
AcDbSymbolTable
0
ENDTAB
0
TABLE
2
LTYPE
5
5
100
AcDbSymbolTable
0
LTYPE
5
14
100
AcDbSymbolTableRecord
100
AcDbLinetypeTableRecord
2
BYBLOCK
70
0
0
LTYPE
5
15
100
AcDbSymbolTableRecord
100
AcDbLinetypeTableRecord
2
BYLAYER
70
0
0
LTYPE
5
16
100
AcDbSymbolTableRecord
100
AcDbLinetypeTableRecord
2
DASHED
70
0
3
Dashed __ __ __ __ __ __ __ __ __ __ __ __ __ _
72
65
73
2
40
0.75
49
0.5
74
0
49
-0.25
74
0
0
ENDTAB
0
TABLE
2
LAYER
5
2
100
AcDbSymbolTable
70
2
0
LAYER
5
50
100
AcDbSymbolTableRecord
100
AcDbLayerTableRecord
2
0
70
0
62
7
6
CONTINUOUS
0
ENDTAB
0
TABLE
2
STYLE
5
3
100
AcDbSymbolTable
70
1
0
STYLE
5
11
100
AcDbSymbolTableRecord
100
AcDbTextStyleTableRecord
2
STANDARD
70
0
0
ENDTAB
0
TABLE
2
VIEW
5
6
100
AcDbSymbolTable
70
0
0
ENDTAB
0
TABLE
2
UCS
5
7
100
AcDbSymbolTable
70
0
0
ENDTAB
0
TABLE
2
APPID
5
9
100
AcDbSymbolTable
70
2
0
APPID
5
12
100
AcDbSymbolTableRecord
100
AcDbRegAppTableRecord
2
ACAD
70
0
0
ENDTAB
0
TABLE
2
DIMSTYLE
5
A
100
AcDbSymbolTable
70
1
0
ENDTAB
0
TABLE
2
BLOCK_RECORD
5
1
100
AcDbSymbolTable
70
1
0
BLOCK_RECORD
5
1F
100
AcDbSymbolTableRecord
100
AcDbBlockTableRecord
2
*MODEL_SPACE
0
BLOCK_RECORD
5
1B
100
AcDbSymbolTableRecord
100
AcDbBlockTableRecord
2
*PAPER_SPACE
0
ENDTAB
0
ENDSEC
0
SECTION
2
BLOCKS
0
BLOCK
5
20
100
AcDbEntity
100
AcDbBlockBegin
2
*MODEL_SPACE
0
ENDBLK
5
21
100
AcDbEntity
100
AcDbBlockEnd
0
BLOCK
5
1C
100
AcDbEntity
100
AcDbBlockBegin
2
*PAPER_SPACE
0
ENDBLK
5
1D
100
AcDbEntity
100
AcDbBlockEnd
0
ENDSEC
0
SECTION
2
ENTITIES
0
LINE
5
100
100
AcDbEntity
8
0
100
AcDbLine
10
199.25755000000004
20
-30.806564000000005
30
0
11
196.75755000000004
21
-30.80162
31
0
0
LINE
5
101
100
AcDbEntity
8
0
100
AcDbLine
10
157.00373999999999
20
-40.167007000000005
30
0
11
152.00381000000002
21
-40.193038999999999
31
0
0
LINE
5
102
100
AcDbEntity
8
0
100
AcDbLine
10
143.56787
20
-99.502426000000014
30
0
11
138.56796
21
-99.535797000000002
31
0
0
LINE
5
103
100
AcDbEntity
8
0
100
AcDbLine
10
127.71481999999999
20
-79.456572999999992
30
0
11
132.71472
21
-79.423225000000002
31
0
0
LWPOLYLINE
5
104
100
AcDbEntity
8
0
100
AcDbPolyline
90
4
70
1
43
0.0
10
132.09719999999999
20
-90.389572000000001
42
0.41420988000000336
10
136.52649
20
-94.760147000000003
42
0.41421540000000567
10
140.89703
20
-90.330856000000011
42
0.41421539999999935
10
136.46777
20
-85.960251
42
0.41420987999999864
0
LWPOLYLINE
5
105
100
AcDbEntity
8
0
100
AcDbPolyline
90
4
70
1
43
0.0
10
263.31914999999998
20
-102.86501000000001
42
0.4142034399999987
10
258.94861000000003
20
-107.29430000000001
42
0.41420988999999336
10
263.37787000000003
20
-111.66483999999998
42
0.41420896000000612
10
267.74841000000009
20
-107.23555000000002
42
0.41420528000000267
0
LINE
5
106
100
AcDbEntity
8
0
100
AcDbLine
10
195.63994000000002
20
-1.7447661999999999
30
0
11
185.80135000000001
21
-1.8008270000000002
31
0
0
LINE
5
107
100
AcDbEntity
8
0
100
AcDbLine
10
126.08687
20
-105.08723000000002
30
0
11
126.16802
21
-99.447754000000003
31
0
0
LINE
5
108
100
AcDbEntity
8
0
100
AcDbLine
10
185.80135000000001
20
-1.8008270000000002
30
0
11
161.95712
21
-1.8027802000000002
31
0
0
LINE
5
109
100
AcDbEntity
8
0
100
AcDbLine
10
117.71504
20
-79.523331000000013
30
0
11
122.71492000000001
21
-79.489944000000008
31
0
0
ARC
5
110
100
AcDbEntity
8
0
100
AcDbCircle
10
-65.733723493246032
20
-50.876305160014148
30
0
40
4.8554106932412235
210
0
220
0
230
-1
100
AcDbArc
50
178.3906724134176
51
180.09857868680839
0
LINE
5
111
100
AcDbEntity
8
0
100
AcDbLine
10
125.91034999999999
20
-1.8826752000000002
30
0
11
98.389961000000014
21
-1.8771819999999999
31
0
0
LINE
5
112
100
AcDbEntity
8
0
100
AcDbLine
10
98.646796999999992
20
-99.537704000000019
30
0
11
98.651145999999997
21
-100.17935000000001
31
0
0
ARC
5
113
100
AcDbEntity
8
0
100
AcDbCircle
10
-299.99775620651451
20
-1.0188426248303626
30
0
40
4.1895950826363171
210
0
220
0
230
-1
100
AcDbArc
50
133.52596377229438
51
178.99750067047225
0
ARC
5
114
100
AcDbEntity
8
0
100
AcDbCircle
10
-83.072544463181941
20
-1.4007237426680268
30
0
40
3.9997464532321523
210
-0
220
0
230
-1
100
AcDbArc
50
-0.58431167124643479
51
44.443430969360193
0
LWPOLYLINE
5
115
100
AcDbEntity
8
0
100
AcDbPolyline
90
5
70
1
43
0.0
10
265.26812999999999
20
9.8525085000000008
42
0.19891975999999448
10
262.14832000000001
20
11.120422000000001
42
0.41421540000000162
10
257.77777000000003
20
6.6911620999999997
42
0.41420437000000188
10
262.20703000000003
20
2.3206787000000246
42
0.4142043700000016
10
266.57757999999995
20
6.7498779000000022
42
0.19891756000000971
0
LINE
5
116
100
AcDbEntity
8
0
100
AcDbLine
10
117.99642
20
-96.738312000000008
30
0
11
111.94528000000003
21
-94.774185000000003
31
0
0
LINE
5
117
100
AcDbEntity
8
0
100
AcDbLine
10
147.00385
20
-40.219101000000002
30
0
11
142.00394
21
-40.24510200000001
31
0
0
LINE
5
118
100
AcDbEntity
8
0
100
AcDbLine
10
284.42180999999999
20
-45.116866999999999
30
0
11
284.39580999999998
21
-40.116928000000001
31
0
0
LINE
5
119
100
AcDbEntity
8
0
100
AcDbLine
10
287.76416
20
-103.61539999999999
30
0
11
287.68133999999998
21
-103.60521
31
0
0
LINE
5
120
100
AcDbEntity
8
0
100
AcDbLine
10
177.00346000000002
20
-40.062911999999997
30
0
11
172.00352000000004
21
-40.088913000000005
31
0
0
ARC
5
121
100
AcDbEntity
8
0
100
AcDbCircle
10
114.71082933204997
20
-88.923213288049482
30
0
40
3.9830846903461357
210
0
220
0
230
1
100
AcDbArc
50
257.92646719992092
51
290.82061413631266
0
ARC
5
122
100
AcDbEntity
8
0
100
AcDbCircle
10
-94.390064771504512
20
-1.2955735248885494
30
0
40
4.0000182992160846
210
0
220
0
230
-1
100
AcDbArc
50
134.73881620017698
51
180.01077406558903
0
ARC
5
123
100
AcDbEntity
8
0
100
AcDbCircle
10
152.03694629929845
20
13.646777627403011
30
0
40
4.5002196762677151
210
0
220
0
230
1
100
AcDbArc
50
135.16698209523858
51
180.45736362795409
0
LINE
5
124
100
AcDbEntity
8
0
100
AcDbLine
10
284.42687999999998
20
-46.832077000000005
30
0
11
284.46027000000004
21
-51.831984999999996
31
0
0
LINE
5
125
100
AcDbEntity
8
0
100
AcDbLine
10
284.52868999999998
20
-99.995865000000009
30
0
11
284.44054999999997
21
-123.01332000000001
31
0
0
LINE
5
126
100
AcDbEntity
8
0
100
AcDbLine
10
56.308365000000009
20
-60.850418000000005
30
0
11
54.928940000000004
21
-60.864395000000002
31
0
0
LINE
5
127
100
AcDbEntity
8
0
100
AcDbLine
10
249.25746000000004
20
-30.904861
30
0
11
244.25746000000004
21
-30.895034999999996
31
0
0
ARC
5
128
100
AcDbEntity
8
0
100
AcDbCircle
10
-136.38927195352025
20
-105.22956574928678
30
0
40
8.9998608734646837
210
0
220
-0
230
-1
100
AcDbArc
50
180.56192536654348
51
225.5623382049412
0
ARC
5
129
100
AcDbEntity
8
0
100
AcDbCircle
10
-94.651240847002711
20
-100.201456904404
30
0
40
3.9999452557519288
210
0
220
-0
230
-1
100
AcDbArc
50
224.95716515424061
51
270.22975764455396
0
ARC
5
130
100
AcDbEntity
8
0
100
AcDbCircle
10
262.21746793237975
20
32.735637713243982
30
0
40
10.000192623884146
210
0
220
-0
230
1
100
AcDbArc
50
0.083250836304847614
51
45.128704136195509
0
LINE
5
131
100
AcDbEntity
8
0
100
AcDbLine
10
104.62444000000002
20
-60.645065000000002
30
0
11
108.64527000000001
21
-60.634231999999997
31
0
0
LINE
5
132
100
AcDbEntity
8
0
100
AcDbLine
10
196.51671000000005
20
-70.463309999999993
30
0
11
185.69013999999999
21
-60.087051000000002
31
0
0
ARC
5
133
100
AcDbEntity
8
0
100
AcDbCircle
10
113.50990004084842
20
-90.138093250426436
30
0
40
4.2364127614441269
210
0
220
-0
230
1
100
AcDbArc
50
2.084292546118403
51
11.441892516545035
0
ARC
5
134
100
AcDbEntity
8
0
100
AcDbCircle
10
-293.07928503264651
20
-97.807468000776225
30
0
40
8.8261971901001068
210
-0
220
0
230
-1
100
AcDbArc
50
333.07252472834523
51
345.6441557867721
0
LINE
5
135
100
AcDbEntity
8
0
100
AcDbLine
10
254.31816000000001
20
-12.718886999999999
30
0
11
249.41798
21
-12.741928
31
0
0
ARC
5
136
100
AcDbEntity
8
0
100
AcDbCircle
10
-94.651112272473313
20
-100.20137464535411
30
0
40
4.0000943621812324
210
0
220
0
230
-1
100
AcDbArc
50
179.68452604213132
51
224.95669765282841
0
LINE
5
137
100
AcDbEntity
8
0
100
AcDbLine
10
113.01008000000002
20
-11.535263
30
0
11
123.51007000000001
21
-11.5327
31
0
0
LINE
5
138
100
AcDbEntity
8
0
100
AcDbLine
10
288.76184000000001
20
3.3006744000000001
30
0
11
288.81023999999996
21
3.2888641000000005
31
0
0
LINE
5
139
100
AcDbEntity
8
0
100
AcDbLine
10
145.17896999999999
20
-1.7758026000000005
30
0
11
125.91034999999999
21
-1.8826752000000002
31
0
0
LWPOLYLINE
5
140
100
AcDbEntity
8
0
100
AcDbPolyline
90
4
70
1
43
0.0
10
131.34564
20
-12.462143000000001
42
0.41421541000000228
10
135.77489
20
-16.832686999999996
42
0.41420987999999792
10
140.14542000000003
20
-12.403427000000002
42
0.41420895999999757
10
135.71616
20
-8.0329131999999888
42
0.41421355999999954
0
LINE
5
141
100
AcDbEntity
8
0
100
AcDbLine
10
274.59467000000006
20
-87.883949000000001
30
0
11
269.59478999999999
21
-87.917418999999995
31
0
0
LINE
5
142
100
AcDbEntity
8
0
100
AcDbLine
10
196.41335000000001
20
-30.494034000000006
30
0
11
196.27262999999999
21
-1.7416228999999994
31
0
0
LINE
5
143
100
AcDbEntity
8
0
100
AcDbLine
10
225.56755000000004
20
27.560348999999999
30
0
11
225.56755000000004
21
27.773910999999998
31
0
0
LINE
5
144
100
AcDbEntity
8
0
100
AcDbLine
10
137.71459999999999
20
-79.389786000000001
30
0
11
142.71448000000001
21
-79.356430000000003
31
0
0
LINE
5
145
100
AcDbEntity
8
0
100
AcDbLine
10
264.59491000000003
20
-87.950789999999998
30
0
11
259.59503000000001
21
-87.984145999999996
31
0
0
LINE
5
146
100
AcDbEntity
8
0
100
AcDbLine
10
186.33052000000004
20
-99.104050000000001
30
0
11
196.17457999999999
21
-99.243865999999997
31
0
0
LINE
5
147
100
AcDbEntity
8
0
100
AcDbLine
10
216.62270000000004
20
-94.526779000000005
30
0
11
216.69014000000001
21
-88.271659999999997
31
0
0
LINE
5
148
100
AcDbEntity
8
0
100
AcDbLine
10
224.25748999999999
20
-30.855728000000006
30
0
11
229.25748999999999
21
-30.865555000000001
31
0
0
LINE
5
149
100
AcDbEntity
8
0
100
AcDbLine
10
126.16802
20
-99.447754000000003
30
0
11
98.646796999999992
21
-99.537704000000019
31
0
0
ARC
5
150
100
AcDbEntity
8
0
100
AcDbCircle
10
-299.99794523390187
20
-1.0189585924028348
30
0
40
4.1895489919865261
210
0
220
0
230
-1
100
AcDbArc
50
88.051149686972352
51
133.52299717847089
0
LINE
5
151
100
AcDbEntity
8
0
100
AcDbLine
10
213.22441000000001
20
27.812087999999999
30
0
11
208.22453000000002
21
27.778732000000002
31
0
0
LINE
5
152
100
AcDbEntity
8
0
100
AcDbLine
10
195.92955000000003
20
27.607162000000002
30
0
11
195.88708
21
18.048964999999999
31
0
0
LINE
5
153
100
AcDbEntity
8
0
100
AcDbLine
10
172.74571000000003
20
-114.08063
30
0
11
171.10838000000001
21
-114.06604
31
0
0
LINE
5
154
100
AcDbEntity
8
0
100
AcDbLine
10
133.56808000000001
20
-99.569153
30
0
11
128.56821000000002
21
-99.602524000000017
31
0
0
LINE
5
155
100
AcDbEntity
8
0
100
AcDbLine
10
94.635200999999995
20
-104.20137
30
0
11
83.317505000000011
21
-104.15581000000002
31
0
0
LINE
5
156
100
AcDbEntity
8
0
100
AcDbLine
10
287.93127000000004
20
-103.63069000000002
30
0
11
287.84851000000003
21
-103.62398
31
0
0
LINE
5
157
100
AcDbEntity
8
0
100
AcDbLine
10
107.71526000000001
20
-79.590073000000004
30
0
11
112.71516000000003
21
-79.556702000000001
31
0
0
LINE
5
158
100
AcDbEntity
8
0
100
AcDbLine
10
195.88708
20
18.048964999999999
30
0
11
181.99039999999999
21
17.997391
31
0
0
ARC
5
159
100
AcDbEntity
8
0
100
AcDbCircle
10
262.21720125557033
20
-18.578537013291875
30
0
40
2.7452802992738961
210
0
220
0
230
1
100
AcDbArc
50
180.37577843859131
51
187.92499435200008
0
LINE
5
160
100
AcDbEntity
8
0
100
AcDbLine
10
162.21614
20
-99.337280000000021
30
0
11
145.44626
21
-99.452911
31
0
0
LINE
5
161
100
AcDbEntity
8
0
100
AcDbLine
10
288.82049999999998
20
3.285965
30
0
11
299.85547000000003
21
3.1681671000000011
31
0
0
LINE
5
162
100
AcDbEntity
8
0
100
AcDbLine
10
95.492241000000021
20
-60.307418999999996
30
0
11
90.492301999999995
21
-60.331985000000003
31
0
0
LINE
5
163
100
AcDbEntity
8
0
100
AcDbLine
10
206.12355000000002
20
33.070968999999998
30
0
11
206.12355000000002
21
27.560562000000001
31
0
0
LINE
5
164
100
AcDbEntity
8
0
100
AcDbLine
10
270.22314
20
28.192459000000003
30
0
11
265.22327000000007
21
28.159072999999999
31
0
0
LINE
5
165
100
AcDbEntity
8
0
100
AcDbLine
10
157.12327999999999
20
-60.294754000000012
30
0
11
152.12338
21
-60.328109999999995
31
0
0
LINE
5
166
100
AcDbEntity
8
0
100
AcDbLine
10
137.12371999999999
20
-60.428177000000005
30
0
11
132.12381000000002
21
-60.461562999999998
31
0
0
LINE
5
167
100
AcDbEntity
8
0
100
AcDbLine
10
173.16749999999999
20
32.615096999999999
30
0
11
171.94118
21
32.633194000000003
31
0
0
LINE
5
168
100
AcDbEntity
8
0
100
AcDbLine
10
116.12659000000001
20
-92.646193999999994
30
0
11
116.18789
21
-92.618331999999995
31
0
0
ARC
5
169
100
AcDbEntity
8
0
100
AcDbCircle
10
-83.333276362314251
20
-100.15592573368254
30
0
40
3.999729708508478
210
-0
220
0
230
-1
100
AcDbArc
50
-44.746483506128918
51
0.28171105625677639
0
ARC
5
170
100
AcDbEntity
8
0
100
AcDbCircle
10
114.95168440950538
20
-89.66792036728053
30
0
40
2.7356032151997223
210
0
220
-0
230
1
100
AcDbArc
50
7.7779601766371682
51
59.120245335801535
0
LINE
5
171
100
AcDbEntity
8
0
100
AcDbLine
10
289.34832999999998
20
-69.622055000000003
30
0
11
286.34838999999999
21
-69.642075000000006
31
0
0
LINE
5
172
100
AcDbEntity
8
0
100
AcDbLine
10
111.94528000000003
20
-94.774185000000003
30
0
11
111.99931000000001
21
-89.866614999999996
31
0
0
LINE
5
173
100
AcDbEntity
8
0
100
AcDbLine
10
177.12282999999999
20
-60.161270000000002
30
0
11
172.12294
21
-60.194656000000009
31
0
0
LINE
5
174
100
AcDbEntity
8
0
100
AcDbLine
10
60.299583000000005
20
-46.171432000000003
30
0
11
59.816139
21
-46.102981999999997
31
0
0
ARC
5
175
100
AcDbEntity
8
0
100
AcDbCircle
10
135.69886108403057
20
-72.204943695734443
30
0
40
2.7500424282413456
210
0
220
0
230
1
100
AcDbArc
50
180.382697417994
51
223.32292759550384
0
LINE
5
176
100
AcDbEntity
8
0
100
AcDbLine
10
98.636124000000009
20
-45.155807000000003
30
0
11
98.647552000000019
21
-49.458878000000013
31
0
0
LINE
5
177
100
AcDbEntity
8
0
100
AcDbLine
10
249.34920000000002
20
-69.888962000000006
30
0
11
244.34932000000003
21
-69.92231000000001
31
0
0
LINE
5
178
100
AcDbEntity
8
0
100
AcDbLine
10
116.18789
20
-92.618331999999995
30
0
11
116.24801000000002
21
-92.588988999999998
31
0
0
LINE
5
179
100
AcDbEntity
8
0
100
AcDbLine
10
304.18671000000006
20
-0.94554137999999999
30
0
11
304.41455000000008
21
-97.76734900000001
31
0
0
LINE
5
180
100
AcDbEntity
8
0
100
AcDbLine
10
182.11765
20
-79.300110000000004
30
0
11
162.76537999999999
21
-79.323394999999991
31
0
0
LINE
5
181
100
AcDbEntity
8
0
100
AcDbLine
10
206.12355000000002
20
27.560562000000001
30
0
11
195.92955000000003
21
27.607162000000002
31
0
0
LINE
5
182
100
AcDbEntity
8
0
100
AcDbLine
10
188.17546000000004
20
-79.468704000000002
30
0
11
192.66031999999998
21
-79.490493999999998
31
0
0
LINE
5
183
100
AcDbEntity
8
0
100
AcDbLine
10
161.95712
20
-1.8027802000000002
30
0
11
145.17896999999999
21
-1.7758026000000005
31
0
0
LINE
5
184
100
AcDbEntity
8
0
100
AcDbLine
10
167.00361999999998
20
-40.114975000000001
30
0
11
162.00368
21
-40.141036999999997
31
0
0
LINE
5
185
100
AcDbEntity
8
0
100
AcDbLine
10
98.736031000000025
20
-1.8366547
30
0
11
98.737434000000007
21
-1.8366547
31
0
0
ARC
5
186
100
AcDbEntity
8
0
100
AcDbCircle
10
-185.33463255025538
20
-114.2034329941755
30
0
40
3.0000170059092763
210
-0
220
0
230
-1
100
AcDbArc
50
270.0004306757121
51
345.45910771531027
0
LINE
5
187
100
AcDbEntity
8
0
100
AcDbLine
10
197.65257000000003
20
-123.45030000000001
30
0
11
197.50725000000003
21
-118.70345
31
0
0
LINE
5
188
100
AcDbEntity
8
0
100
AcDbLine
10
94.411865000000006
20
-40.804794000000008
30
0
11
94.411415000000005
21
-40.846603000000002
31
0
0
ARC
5
189
100
AcDbEntity
8
0
100
AcDbCircle
10
114.94116100393931
20
-90.18579445035499
30
0
40
2.7355435185623262
210
-0
220
0
230
1
100
AcDbArc
50
298.53719672804465
51
349.88063443085969
0
LINE
5
190
100
AcDbEntity
8
0
100
AcDbLine
10
279.34851000000003
20
-69.688789
30
0
11
274.34862999999996
21
-69.722121999999999
31
0
0
LINE
5
191
100
AcDbEntity
8
0
100
AcDbLine
10
85.492363000000012
20
-60.356583000000001
30
0
11
81.492409000000009
21
-60.376235999999999
31
0
0
ARC
5
192
100
AcDbEntity
8
0
100
AcDbCircle
10
-135.08568214364129
20
-105.21669177936636
30
0
40
8.9997433490551551
210
-0
220
0
230
-1
100
AcDbArc
50
-44.307827598008785
51
0.824231216698467
0
ARC
5
193
100
AcDbEntity
8
0
100
AcDbCircle
10
-288.05300436880702
20
-100.49892568833614
30
0
40
3.1284399671289402
210
-0
220
0
230
-1
100
AcDbArc
50
276.82295738897352
51
335.33381679716155
0
LINE
5
194
100
AcDbEntity
8
0
100
AcDbLine
10
98.71369900000002
20
-59.763137999999998
30
0
11
98.646796999999992
21
-99.537704000000019
31
0
0
LINE
5
195
100
AcDbEntity
8
0
100
AcDbLine
10
79.004906000000005
20
-40.957442999999998
30
0
11
79.06559
21
-0.71656799000000326
31
0
0
LINE
5
196
100
AcDbEntity
8
0
100
AcDbLine
10
204.35020000000003
20
-70.189223999999996
30
0
11
209.35007999999999
21
-70.155861000000002
31
0
0
LINE
5
197
100
AcDbEntity
8
0
100
AcDbLine
10
264.41797000000003
20
-12.7715
30
0
11
259.41797000000003
21
-12.761673
31
0
0
LINE
5
198
100
AcDbEntity
8
0
100
AcDbLine
10
216.77132000000003
20
-12.599930000000001
30
0
11
221.77126000000001
21
-12.576400999999999
31
0
0
ARC
5
199
100
AcDbEntity
8
0
100
AcDbCircle
10
-135.08603874276889
20
-105.21650609995149
30
0
40
9.0001282306777934
210
-0
220
0
230
-1
100
AcDbArc
50
270.56289223383334
51
315.69291225475348
0
LINE
5
200
100
AcDbEntity
8
0
100
AcDbLine
10
259.34899999999999
20
-69.822220000000002
30
0
11
254.34911
21
-69.855606000000009
31
0
0
LINE
5
201
100
AcDbEntity
8
0
100
AcDbLine
10
172.06247999999999
20
-14.714035000000001
30
0
11
172.09505000000001
21
-20.969498000000005
31
0
0
LINE
5
202
100
AcDbEntity
8
0
100
AcDbLine
10
112.14586000000003
20
-84.960898999999998
30
0
11
118.2722
21
-83.245682000000002
31
0
0
LINE
5
203
100
AcDbEntity
8
0
100
AcDbLine
10
83.035568000000012
20
2.5989838000000005
30
0
11
94.352852000000013
21
2.7042999000000001
31
0
0
LINE
5
204
100
AcDbEntity
8
0
100
AcDbLine
10
98.334937999999994
20
-21.506943
30
0
11
102.37009
21
-21.485885999999997
31
0
0
ARC
5
205
100
AcDbEntity
8
0
100
AcDbCircle
10
-186.77032631161984
20
-113.8308488000873
30
0
40
4.4832686818661598
210
-0
220
0
230
-1
100
AcDbArc
50
345.45669365955723
51
354.10700673750875
0
LINE
5
206
100
AcDbEntity
8
0
100
AcDbLine
10
187.82599999999999
20
-20.625595000000004
30
0
11
192.31029000000001
21
-20.550583000000003
31
0
0
LINE
5
207
100
AcDbEntity
8
0
100
AcDbLine
10
162.11366000000001
20
18.124557000000003
30
0
11
152.04675000000003
21
18.146865999999999
31
0
0
ARC
5
208
100
AcDbEntity
8
0
100
AcDbCircle
10
-298.47309570897602
20
-97.896744072396089
30
0
40
5.9428631295940173
210
0
220
0
230
-1
100
AcDbArc
50
178.75238966815917
51
223.90406461541141
0
LINE
5
209
100
AcDbEntity
8
0
100
AcDbLine
10
136.30083999999999
20
-114.22899000000001
30
0
11
134.99761999999998
21
-114.21620000000001
31
0
0
LINE
5
210
100
AcDbEntity
8
0
100
AcDbLine
10
172.48325
20
-85.567115999999999
30
0
11
172.44151000000002
21
-79.311751999999998
31
0
0
LINE
5
211
100
AcDbEntity
8
0
100
AcDbLine
10
147.12350000000001
20
-60.36146500000001
30
0
11
142.12360000000001
21
-60.394852000000007
31
0
0
LINE
5
212
100
AcDbEntity
8
0
100
AcDbLine
10
137.36963
20
-21.303879000000002
30
0
11
142.36954
21
-21.277878000000001
31
0
0
LINE
5
213
100
AcDbEntity
8
0
100
AcDbLine
10
201.41951000000003
20
-12.909836000000002
30
0
11
197.42000000000002
21
-12.971817000000001
31
0
0
LINE
5
214
100
AcDbEntity
8
0
100
AcDbLine
10
289.1087
20
-29.269943000000001
30
0
11
286.1087
21
-29.285567999999998
31
0
0
LINE
5
215
100
AcDbEntity
8
0
100
AcDbLine
10
288.81023999999996
20
3.2888641000000005
30
0
11
288.82049999999998
21
3.285965
31
0
0
LINE
5
216
100
AcDbEntity
8
0
100
AcDbLine
10
127.36975000000001
20
-21.355910999999999
30
0
11
132.36968999999999
21
-21.329880000000003
31
0
0
LINE
5
217
100
AcDbEntity
8
0
100
AcDbLine
10
104.50445000000002
20
-40.440262000000004
30
0
11
108.52512000000002
21
-40.403365999999998
31
0
0
ARC
5
218
100
AcDbEntity
8
0
100
AcDbCircle
10
172.97830301819047
20
23.617108011455031
30
0
40
8.9999778519673317
210
0
220
-0
230
1
100
AcDbArc
50
0.12338997037989052
51
88.795442909872648
0
ARC
5
219
100
AcDbEntity
8
0
100
AcDbCircle
10
262.21762739604179
20
32.735640016028064
30
0
40
10.000078488273337
210
0
220
-0
230
1
100
AcDbArc
50
45.129342327037989
51
90.174736107326112
0
LINE
5
220
100
AcDbEntity
8
0
100
AcDbLine
10
155.21420000000001
20
-79.272995000000009
30
0
11
160.2141
21
-79.239654999999999
31
0
0
LINE
5
221
100
AcDbEntity
8
0
100
AcDbLine
10
137.00399999999999
20
-40.271103000000004
30
0
11
132.00406999999998
21
-40.297134
31
0
0
LINE
5
222
100
AcDbEntity
8
0
100
AcDbLine
10
196.17457999999999
20
-99.243865999999997
30
0
11
196.52803000000003
21
-99.183670000000006
31
0
0
LINE
5
223
100
AcDbEntity
8
0
100
AcDbLine
10
197.50725000000003
20
-117.20345000000002
30
0
11
185.33461
21
-117.20345000000002
31
0
0
LINE
5
224
100
AcDbEntity
8
0
100
AcDbLine
10
279.25738999999999
20
-30.963852000000003
30
0
11
274.25745000000001
21
-30.954025000000005
31
0
0
ARC
5
225
100
AcDbEntity
8
0
100
AcDbCircle
10
-288.4645006473088
20
-1.2046168890335656
30
0
40
4.5000637133946961
210
-0
220
0
230
-1
100
AcDbArc
50
-0.88190765583350983
51
89.09978710841942
0
LINE
5
226
100
AcDbEntity
8
0
100
AcDbLine
10
185.47740000000002
20
-99.216843000000026
30
0
11
181.92183
21
-99.211578000000017
31
0
0
ARC
5
227
100
AcDbEntity
8
0
100
AcDbCircle
10
-54.854503585333504
20
-45.341782145715385
30
0
40
4.5000517428926248
210
0
220
0
230
-1
100
AcDbArc
50
1.3150021228356794
51
90.27437356299049
0
ARC
5
228
100
AcDbEntity
8
0
100
AcDbCircle
10
-171.1886565580015
20
-105.06646751233603
30
0
40
8.9999305156474811
210
-0
220
0
230
-1
100
AcDbArc
50
-89.488932836581071
51
0.27538906302748251
0
LINE
5
229
100
AcDbEntity
8
0
100
AcDbLine
10
283.92827999999997
20
1.0651398000000001
30
0
11
283.96496999999999
21
-1.2738800000000001
31
0
0
ARC
5
230
100
AcDbEntity
8
0
100
AcDbCircle
10
-54.883623271250187
20
-56.364647730538252
30
0
40
4.4999754549256163
210
0
220
-0
230
-1
100
AcDbArc
50
269.422996589028
51
358.38424907993164
0
ARC
5
231
100
AcDbEntity
8
0
100
AcDbCircle
10
114.67002363831807
20
-90.919903803789438
30
0
40
3.9829917693195145
210
0
220
-0
230
1
100
AcDbArc
50
66.837103004018658
51
99.732134447159766
0
ARC
5
232
100
AcDbEntity
8
0
100
AcDbCircle
10
-186.18545704881637
20
-103.24431302615984
30
0
40
4.0955695971270041
210
0
220
0
230
-1
100
AcDbArc
50
0.38518160695825165
51
46.781636475114738
0
LINE
5
233
100
AcDbEntity
8
0
100
AcDbLine
10
234.64952000000005
20
-88.200119000000001
30
0
11
229.94923
21
-88.222243999999989
31
0
0
LINE
5
234
100
AcDbEntity
8
0
100
AcDbLine
10
234.47176000000002
20
-12.663101000000001
30
0
11
229.77143999999998
21
-12.663101000000001
31
0
0
LINE
5
235
100
AcDbEntity
8
0
100
AcDbLine
10
181.92183
20
-99.211578000000017
30
0
11
181.82487000000003
21
-105.22603000000002
31
0
0
LINE
5
236
100
AcDbEntity
8
0
100
AcDbLine
10
260.22338999999999
20
28.125716999999998
30
0
11
255.22346000000002
21
28.092361
31
0
0
LINE
5
237
100
AcDbEntity
8
0
100
AcDbLine
10
185.64012000000002
20
-40.929062000000009
30
0
11
196.41335000000001
21
-30.494034000000006
31
0
0
ARC
5
238
100
AcDbEntity
8
0
100
AcDbCircle
10
-94.390075414701442
20
-1.2954498655772684
30
0
40
3.9999229704879879
210
0
220
0
230
-1
100
AcDbArc
50
89.466795895369728
51
134.73995469965257
0
LINE
5
239
100
AcDbEntity
8
0
100
AcDbLine
10
85.377136000000007
20
-40.956070000000004
30
0
11
81.377234999999999
21
-40.983932000000003
31
0
0
LINE
5
240
100
AcDbEntity
8
0
100
AcDbLine
10
244.42155
20
-12.698715
30
0
11
239.41801000000001
21
-12.722275
31
0
0
LINE
5
241
100
AcDbEntity
8
0
100
AcDbLine
10
94.528221000000002
20
-60.400497000000001
30
0
11
94.527290000000022
21
-60.358657999999998
31
0
0
LINE
5
242
100
AcDbEntity
8
0
100
AcDbLine
10
298.44153
20
-103.76535000000001
30
0
11
287.93127000000004
21
-103.63069000000002
31
0
0
LINE
5
243
100
AcDbEntity
8
0
100
AcDbLine
10
79.06559
20
-0.71656799000000326
30
0
11
79.073006000000007
21
-1.4415131000000001
31
0
0
LINE
5
244
100
AcDbEntity
8
0
100
AcDbLine
10
167.12305000000001
20
-60.228012
30
0
11
162.12315000000001
21
-60.261368000000004
31
0
0
LINE
5
245
100
AcDbEntity
8
0
100
AcDbLine
10
196.27262999999999
20
-1.7416228999999994
30
0
11
195.63994000000002
21
-1.7447661999999999
31
0
0
LINE
5
246
100
AcDbEntity
8
0
100
AcDbLine
10
147.53686999999999
20
13.610854999999997
30
0
11
147.61645189047294
21
3.6642909730127213
31
0
0
ARC
5
247
100
AcDbEntity
8
0
100
AcDbCircle
10
297.7705783786173
20
-7.7017242259234333
30
0
40
3.7265095040437934
210
0
220
0
230
1
100
AcDbArc
50
180.04452922174283
51
180.32816938150799
0
LINE
5
248
100
AcDbEntity
8
0
100
AcDbLine
10
272.21947999999998
20
27.976546999999997
30
0
11
272.21764999999999
21
32.750168000000002
31
0
0
LINE
5
249
100
AcDbEntity
8
0
100
AcDbLine
10
95.376900000000006
20
-40.886398
30
0
11
90.377021999999997
21
-40.921249000000003
31
0
0
LINE
5
250
100
AcDbEntity
8
0
100
AcDbLine
10
98.390083000000004
20
-1.2963257000000006
30
0
11
98.389961000000014
21
-1.8771819999999999
31
0
0
LINE
5
251
100
AcDbEntity
8
0
100
AcDbLine
10
262.64502000000005
20
42.737137000000004
30
0
11
261.32562000000001
21
42.711639000000005
31
0
0
LINE
5
252
100
AcDbEntity
8
0
100
AcDbLine
10
79.333595000000003
20
-100.13626000000001
30
0
11
79.330070000000006
21
-100.86128000000002
31
0
0
LINE
5
253
100
AcDbEntity
8
0
100
AcDbLine
10
171.94118
20
32.633194000000003
30
0
11
171.00839000000002
21
32.621016999999995
31
0
0
LINE
5
254
100
AcDbEntity
8
0
100
AcDbLine
10
145.44626
20
-99.452911
30
0
11
145.3887
21
-105.31783000000001
31
0
0
LINE
5
255
100
AcDbEntity
8
0
100
AcDbLine
10
264.25745000000001
20
-30.934372
30
0
11
269.25745000000001
21
-30.944199000000001
31
0
0
LINE
5
256
100
AcDbEntity
8
0
100
AcDbLine
10
117.12416000000002
20
-60.561661000000001
30
0
11
112.12427
21
-60.595016000000008
31
0
0
LINE
5
257
100
AcDbEntity
8
0
100
AcDbLine
10
283.45319000000006
20
-12.809036000000003
30
0
11
279.41797000000003
21
-12.801102000000002
31
0
0
LINE
5
258
100
AcDbEntity
8
0
100
AcDbLine
10
78.95037099999999
20
-56.482681000000014
30
0
11
78.926102
21
-52.438705000000006
31
0
0
LINE
5
259
100
AcDbEntity
8
0
100
AcDbLine
10
225.56755000000004
20
27.773910999999998
30
0
11
225.56755000000004
21
33.131453999999998
31
0
0
LINE
5
260
100
AcDbEntity
8
0
100
AcDbLine
10
169.98180000000002
20
-99.326172000000014
30
0
11
164.98192
21
-99.359543000000002
31
0
0
LINE
5
261
100
AcDbEntity
8
0
100
AcDbLine
10
252.52341000000001
20
27.673965000000003
30
0
11
225.56755000000004
21
27.560348999999999
31
0
0
ARC
5
262
100
AcDbEntity
8
0
100
AcDbCircle
10
-83.072930169967023
20
-1.4011900718884935
30
0
40
4.0003483519668688
210
0
220
0
230
-1
100
AcDbArc
50
44.444331270655653
51
89.464865159791785
0
ARC
5
263
100
AcDbEntity
8
0
100
AcDbCircle
10
-83.333580406176551
20
-100.1558274895884
30
0
40
4.0000148127578887
210
-0
220
0
230
-1
100
AcDbArc
50
270.23026299909765
51
315.25558289201649
0
LINE
5
264
100
AcDbEntity
8
0
100
AcDbLine
10
287.84851000000003
20
-103.62398
30
0
11
287.76416
21
-103.61539999999999
31
0
0
LINE
5
265
100
AcDbEntity
8
0
100
AcDbLine
10
207.21826000000004
20
-88.271659999999997
30
0
11
226.16202000000001
21
-88.271659999999997
31
0
0
ARC
5
266
100
AcDbEntity
8
0
100
AcDbCircle
10
152.03680251360166
20
13.646715435413617
30
0
40
4.500161558925722
210
0
220
-0
230
1
100
AcDbArc
50
89.873349113342869
51
135.16512985980648
0
LINE
5
267
100
AcDbEntity
8
0
100
AcDbLine
10
181.99039999999999
20
17.997391
30
0
11
181.97826000000003
21
23.636490000000002
31
0
0
LINE
5
268
100
AcDbEntity
8
0
100
AcDbLine
10
218.22429
20
27.845474000000003
30
0
11
223.2242
21
27.878830000000001
31
0
0
LINE
5
269
100
AcDbEntity
8
0
100
AcDbLine
10
78.920326000000003
20
-45.096541999999999
30
0
11
78.917473000000001
21
-49.140578999999995
31
0
0
LINE
5
270
100
AcDbEntity
8
0
100
AcDbLine
10
127.12395000000001
20
-60.494918999999996
30
0
11
122.12405000000001
21
-60.528275000000001
31
0
0
LINE
5
271
100
AcDbEntity
8
0
100
AcDbLine
10
162.12598
20
23.641724000000004
30
0
11
162.11366000000001
21
18.124557000000003
31
0
0
ARC
5
272
100
AcDbEntity
8
0
100
AcDbCircle
10
-298.53090606106156
20
-97.788770227319688
30
0
40
5.9772480172318696
210
0
220
-0
230
-1
100
AcDbArc
50
225.03413325985943
51
270.85675915011961
0
LINE
5
273
100
AcDbEntity
8
0
100
AcDbLine
10
224.34975000000003
20
-70.055801000000002
30
0
11
229.34962000000002
21
-70.022415000000009
31
0
0
LINE
5
274
100
AcDbEntity
8
0
100
AcDbLine
10
259.25745000000001
20
-30.924545000000006
30
0
11
254.25746000000004
21
-30.914688000000005
31
0
0
LINE
5
275
100
AcDbEntity
8
0
100
AcDbLine
10
162.18883
20
-105.02321000000002
30
0
11
162.21614
21
-99.337280000000021
31
0
0
LINE
5
276
100
AcDbEntity
8
0
100
AcDbLine
10
98.389961000000014
20
-1.8771819999999999
30
0
11
98.665627000000015
21
-41.472702000000005
31
0
0
LINE
5
277
100
AcDbEntity
8
0
100
AcDbLine
10
206.77143999999998
20
-12.647018000000001
30
0
11
211.77137999999999
21
-12.623489000000001
31
0
0
LINE
5
278
100
AcDbEntity
8
0
100
AcDbLine
10
127.00415
20
-40.323166000000008
30
0
11
122.00421000000003
21
-40.349228000000004
31
0
0
LINE
5
279
100
AcDbEntity
8
0
100
AcDbLine
10
154.86937
20
-21.212814000000005
30
0
11
159.86931000000001
21
-21.186813000000001
31
0
0
LINE
5
280
100
AcDbEntity
8
0
100
AcDbLine
10
70.589127000000005
20
-50.884658999999999
30
0
11
70.589523
21
-50.595230000000001
31
0
0
ARC
5
281
100
AcDbEntity
8
0
100
AcDbCircle
10
171.12583979778685
20
23.621901774298543
30
0
40
8.9998816270244291
210
0
220
0
230
1
100
AcDbArc
50
90.747739694889404
51
179.87380603006469
0
ARC
5
282
100
AcDbEntity
8
0
100
AcDbCircle
10
216.56485479828825
20
33.174248955722881
30
0
40
9.0027969155790561
210
-0
220
0
230
1
100
AcDbArc
50
-0.27235753561315906
51
44.728205215697706
0
LINE
5
283
100
AcDbEntity
8
0
100
AcDbLine
10
284.44054999999997
20
-123.01332000000001
30
0
11
197.65257000000003
21
-123.45030000000001
31
0
0
LINE
5
284
100
AcDbEntity
8
0
100
AcDbLine
10
283.62970000000007
20
-87.823654000000019
30
0
11
279.59453999999999
21
-87.850571000000016
31
0
0
LINE
5
285
100
AcDbEntity
8
0
100
AcDbLine
10
116.29683
20
-87.288330000000002
30
0
11
116.23671999999999
21
-87.257980000000003
31
0
0
LINE
5
286
100
AcDbEntity
8
0
100
AcDbLine
10
54.876053000000013
20
-40.841782000000002
30
0
11
56.255554000000004
21
-40.848372999999995
31
0
0
LINE
5
287
100
AcDbEntity
8
0
100
AcDbLine
10
199.3503
20
-70.222610000000003
30
0
11
196.85036000000002
21
-70.239281000000005
31
0
0
LINE
5
288
100
AcDbEntity
8
0
100
AcDbLine
10
284.50695999999999
20
-58.83180200000001
30
0
11
284.47357
21
-53.831924000000001
31
0
0
LINE
5
289
100
AcDbEntity
8
0
100
AcDbLine
10
59.805878000000007
20
-46.101517000000001
30
0
11
65.556624999999997
21
-46.062241
31
0
0
ARC
5
290
100
AcDbEntity
8
0
100
AcDbCircle
10
215.35655251494239
20
33.201768345533075
30
0
40
8.999990442128702
210
0
220
-0
230
1
100
AcDbArc
50
88.772072155132477
51
135.12517508344629
0
LINE
5
291
100
AcDbEntity
8
0
100
AcDbLine
10
214.25752000000003
20
-30.836044000000005
30
0
11
219.25752000000003
21
-30.845871000000002
31
0
0
LINE
5
292
100
AcDbEntity
8
0
100
AcDbLine
10
169.28877
20
18.018692000000001
30
0
11
164.28888999999998
21
17.985367
31
0
0
LINE
5
293
100
AcDbEntity
8
0
100
AcDbLine
10
299.34827000000001
20
-69.598579000000001
30
0
11
294.34832999999998
21
-69.610336000000004
31
0
0
LINE
5
294
100
AcDbEntity
8
0
100
AcDbLine
10
201.59648000000004
20
-88.108955000000009
30
0
11
197.59673000000004
21
-88.065781000000015
31
0
0
LINE
5
295
100
AcDbEntity
8
0
100
AcDbLine
10
179.98158000000001
20
-99.259444999999999
30
0
11
174.98169999999999
21
-99.292816000000016
31
0
0
LINE
5
296
100
AcDbEntity
8
0
100
AcDbLine
10
180.83751000000004
20
-20.923995999999999
30
0
11
161.80503999999999
21
-21.127182000000001
31
0
0
LINE
5
297
100
AcDbEntity
8
0
100
AcDbLine
10
216.60750000000002
20
42.177002000000002
30
0
11
215.54942000000005
21
42.199692000000006
31
0
0
LINE
5
298
100
AcDbEntity
8
0
100
AcDbLine
10
79.330070000000006
20
-100.86128000000002
30
0
11
79.05675500000001
21
-60.621201000000006
31
0
0
ARC
5
299
100
AcDbEntity
8
0
100
AcDbCircle
10
-65.590662798519347
20
-51.062247427541195
30
0
40
5.0001222832228098
210
0
220
0
230
-1
100
AcDbArc
50
89.609962086658328
51
179.60790369208718
0
LINE
5
300
100
AcDbEntity
8
0
100
AcDbLine
10
147.36948000000001
20
-21.251877
30
0
11
152.36942999999999
21
-21.225876
31
0
0
LINE
5
301
100
AcDbEntity
8
0
100
AcDbLine
10
252.49950000000001
20
33.700347999999998
30
0
11
252.52341000000001
21
27.673965000000003
31
0
0
LINE
5
302
100
AcDbEntity
8
0
100
AcDbLine
10
107.37003000000001
20
-21.459915000000002
30
0
11
112.36997000000001
21
-21.433883999999999
31
0
0
LINE
5
303
100
AcDbEntity
8
0
100
AcDbLine
10
98.680267000000015
20
-79.650345000000002
30
0
11
102.71536
21
-79.623435999999998
31
0
0
LINE
5
304
100
AcDbEntity
8
0
100
AcDbLine
10
70.590668000000008
20
-51.028030000000008
30
0
11
70.58721899999999
21
-50.739944000000001
31
0
0
LINE
5
305
100
AcDbEntity
8
0
100
AcDbLine
10
284.52868999999998
20
-99.995865000000009
30
0
11
284.64856000000003
21
-68.648750000000007
31
0
0
LINE
5
306
100
AcDbEntity
8
0
100
AcDbLine
10
118.24255000000001
20
-16.033981000000001
30
0
11
118.27760000000001
21
-7.0339813000000007
31
0
0
LINE
5
307
100
AcDbEntity
8
0
100
AcDbLine
10
98.665634000000011
20
-56.319168000000005
30
0
11
98.654343000000026
21
-52.016190000000009
31
0
0
ARC
5
308
100
AcDbEntity
8
0
100
AcDbCircle
10
-65.589665696705154
20
-50.587732291493232
30
0
40
4.9997528439275829
210
0
220
-0
230
-1
100
AcDbArc
50
225.0876237318115
51
270.08976056637078
0
LINE
5
309
100
AcDbEntity
8
0
100
AcDbLine
10
50.226517000000008
20
-50.86540200000001
30
0
11
50.355637000000009
21
-45.238509999999998
31
0
0
LINE
5
310
100
AcDbEntity
8
0
100
AcDbLine
10
117.00429
20
-40.375168000000002
30
0
11
112.00436000000002
21
-40.401230000000005
31
0
0
ARC
5
311
100
AcDbEntity
8
0
100
AcDbCircle
10
-186.20474474217394
20
-103.12517881994819
30
0
40
4.0230953757149592
210
0
220
0
230
-1
100
AcDbArc
50
45.4194775370568
51
91.791547353060722
0
LINE
5
312
100
AcDbEntity
8
0
100
AcDbLine
10
111.99931000000001
20
-89.866614999999996
30
0
11
112.14586000000003
21
-84.960898999999998
31
0
0
LINE
5
313
100
AcDbEntity
8
0
100
AcDbLine
10
254.49544000000003
20
-88.050934000000012
30
0
11
249.59523000000002
21
-88.050934000000012
31
0
0
LINE
5
314
100
AcDbEntity
8
0
100
AcDbLine
10
239.34944000000002
20
-69.955703999999997
30
0
11
234.34953000000002
21
-69.989058999999997
31
0
0
LINE
5
315
100
AcDbEntity
8
0
100
AcDbLine
10
284.37512000000004
20
-38.117049999999999
30
0
11
284.34906000000001
21
-33.117080999999999
31
0
0
LINE
5
316
100
AcDbEntity
8
0
100
AcDbLine
10
214.34996000000001
20
-70.122512999999998
30
0
11
219.34987000000004
21
-70.089118999999997
31
0
0
ARC
5
317
100
AcDbEntity
8
0
100
AcDbCircle
10
-65.589743531013752
20
-50.587608899937955
30
0
40
4.9997852773556835
210
0
220
-0
230
-1
100
AcDbArc
50
180.08733515814569
51
225.089253737722
0
LINE
5
318
100
AcDbEntity
8
0
100
AcDbLine
10
79.05675500000001
20
-60.621201000000006
30
0
11
56.308365000000009
21
-60.850418000000005
31
0
0
LINE
5
319
100
AcDbEntity
8
0
100
AcDbLine
10
288.3938
20
3.2948914000000022
30
0
11
288.76184000000001
21
3.3006744000000001
31
0
0
LINE
5
320
100
AcDbEntity
8
0
100
AcDbLine
10
204.25755000000004
20
-30.816390999999999
30
0
11
209.25752000000003
21
-30.826218000000001
31
0
0
LINE
5
321
100
AcDbEntity
8
0
100
AcDbLine
10
147.71436
20
-79.323059000000001
30
0
11
152.71426
21
-79.289703000000003
31
0
0
LINE
5
322
100
AcDbEntity
8
0
100
AcDbLine
10
56.255554000000004
20
-40.848372999999995
30
0
11
79.004906000000005
21
-40.957442999999998
31
0
0
LINE
5
323
100
AcDbEntity
8
0
100
AcDbLine
10
284.56029999999998
20
-66.831618999999989
30
0
11
284.52697999999998
21
-61.831741000000008
31
0
0
LINE
5
324
100
AcDbEntity
8
0
100
AcDbLine
10
117.36989
20
-21.407944000000004
30
0
11
122.36983000000002
21
-21.381882000000001
31
0
0
LINE
5
325
100
AcDbEntity
8
0
100
AcDbLine
10
239.25748999999999
20
-30.885208000000006
30
0
11
234.25746000000004
21
-30.875381000000001
31
0
0
LINE
5
326
100
AcDbEntity
8
0
100
AcDbLine
10
284.42084
20
-30.298996000000002
30
0
11
283.50031000000001
21
28.312973
31
0
0
ARC
5
327
100
AcDbEntity
8
0
100
AcDbCircle
10
216.56475976877857
20
33.17421542875779
30
0
40
9.0028880241122593
210
0
220
-0
230
1
100
AcDbArc
50
44.727931193234653
51
89.727993499812101
0
LINE
5
328
100
AcDbEntity
8
0
100
AcDbLine
10
196.52803000000003
20
-99.183670000000006
30
0
11
196.51671000000005
21
-70.463309999999993
31
0
0
ARC
5
329
100
AcDbEntity
8
0
100
AcDbCircle
10
-172.82601597024944
20
-105.08096508233571
30
0
40
9.0000232043642736
210
0
220
-0
230
-1
100
AcDbArc
50
180.92354956006074
51
270.51124915109654
0
LINE
5
330
100
AcDbEntity
8
0
100
AcDbLine
10
274.41797000000003
20
-12.791245
30
0
11
269.41797000000003
21
-12.781326000000002
31
0
0
ARC
5
331
100
AcDbEntity
8
0
100
AcDbCircle
10
156.10477748106604
20
9.1350376408373961
30
0
40
11.812622672829576
210
0
220
0
230
1
100
AcDbArc
50
247.59816699842602
51
247.63841580837334
0
ARC
5
332
100
AcDbEntity
8
0
100
AcDbCircle
10
113.51793014120335
20
-89.65681404621543
30
0
40
4.2382291421805371
210
-0
220
0
230
1
100
AcDbArc
50
346.21872942246807
51
355.57221577207036
0
LINE
5
333
100
AcDbEntity
8
0
100
AcDbLine
10
50.385436999999996
20
-56.491531000000009
30
0
11
50.226517000000008
21
-50.86540200000001
31
0
0
LINE
5
334
100
AcDbEntity
8
0
100
AcDbLine
10
116.35570000000001
20
-87.320098999999999
30
0
11
116.29683
21
-87.288330000000002
31
0
0
LINE
5
335
100
AcDbEntity
8
0
100
AcDbLine
10
299.10822000000002
20
-29.174667000000003
30
0
11
294.10846000000004
21
-29.222275
31
0
0
LINE
5
336
100
AcDbEntity
8
0
100
AcDbLine
10
262.18712999999997
20
42.735672000000008
30
0
11
262.64502000000005
21
42.737137000000004
31
0
0
LINE
5
337
100
AcDbEntity
8
0
100
AcDbLine
10
244.59904
20
-88.117660999999998
30
0
11
239.59544
21
-88.117660999999998
31
0
0
LINE
5
338
100
AcDbEntity
8
0
100
AcDbLine
10
264.34888000000001
20
-69.788864000000004
30
0
11
269.34875
21
-69.755500999999995
31
0
0
LINE
5
339
100
AcDbEntity
8
0
100
AcDbLine
10
197.50725000000003
20
-118.70345
30
0
11
197.50725000000003
21
-117.20345000000002
31
0
0
LINE
5
340
100
AcDbEntity
8
0
100
AcDbLine
10
179.28856000000002
20
18.085433999999999
30
0
11
174.28867
21
18.052078000000002
31
0
0
ARC
5
341
100
AcDbEntity
8
0
100
AcDbCircle
10
261.49944464325728
20
33.713363721697888
30
0
40
8.9999540549219788
210
0
220
0
230
1
100
AcDbArc
50
91.10667650839973
51
180.08286110973435
0
ARC
5
342
100
AcDbEntity
8
0
100
AcDbCircle
10
215.12290092036122
20
32.975609943278734
30
0
40
8.999856128711448
210
0
220
0
230
1
100
AcDbArc
50
133.05489795173952
51
179.39290432565625
0
ARC
5
343
100
AcDbEntity
8
0
100
AcDbCircle
10
-136.38924314534259
20
-105.22948670466845
30
0
40
8.9999374819378684
210
0
220
-0
230
-1
100
AcDbArc
50
225.56255957400543
51
270.5628048626283
0
LINE
5
344
100
AcDbEntity
8
0
100
AcDbLine
10
65.581832999999989
20
-55.587479000000002
30
0
11
59.830902000000002
21
-55.578568000000004
31
0
0
LINE
5
345
100
AcDbEntity
8
0
100
AcDbLine
10
283.50031000000001
20
28.312973
30
0
11
272.21947999999998
21
27.976546999999997
31
0
0
LINE
5
346
100
AcDbEntity
8
0
100
AcDbLine
10
182.31075000000001
20
-114.29115000000002
30
0
11
182.08998000000003
21
-103.21678
31
0
0
CIRCLE
5
347
100
AcDbEntity
8
0
100
AcDbCircle
10
262.05338
20
-81.832344000000006
30
0
40
2.7500197999999996
210
0
220
0
230
1
0
CIRCLE
5
348
100
AcDbEntity
8
0
100
AcDbCircle
10
135.77151000000001
20
-72.136298999999994
30
0
40
2.8499998999999998
210
0
220
0
230
1
0
CIRCLE
5
349
100
AcDbEntity
8
0
100
AcDbCircle
10
136.17171999999999
20
-107.27488000000001
30
0
40
2.8499998999999998
210
0
220
0
230
1
0
CIRCLE
5
350
100
AcDbEntity
8
0
100
AcDbCircle
10
135.60501000000002
20
-28.455016999999998
30
0
40
2.8499998999999998
210
0
220
0
230
1
0
CIRCLE
5
351
100
AcDbEntity
8
0
100
AcDbCircle
10
86.914330000000021
20
-97.555481
30
0
40
2.8499998999999998
210
0
220
0
230
1
0
CIRCLE
5
352
100
AcDbEntity
8
0
100
AcDbCircle
10
86.667290000000023
20
-3.9822234999999999
30
0
40
2.8499998999999998
210
0
220
0
230
1
0
CIRCLE
5
353
100
AcDbEntity
8
0
100
AcDbCircle
10
261.55718999999999
20
33.980865000000001
30
0
40
2.8499998999999998
210
0
220
0
230
1
0
CIRCLE
5
354
100
AcDbEntity
8
0
100
AcDbCircle
10
262.22192000000001
20
-18.578217000000002
30
0
40
2.8499998999999998
210
0
220
0
230
1
0
CIRCLE
5
355
100
AcDbEntity
8
0
100
AcDbCircle
10
262.05338
20
-81.832344000000006
30
0
40
2.8499998999999998
210
0
220
0
230
1
0
CIRCLE
5
356
100
AcDbEntity
8
0
100
AcDbCircle
10
296.79407000000003
20
-7.704681400000001
30
0
40
2.8499998999999998
210
0
220
0
230
1
0
CIRCLE
5
357
100
AcDbEntity
8
0
100
AcDbCircle
10
296.83246000000003
20
-91.730094999999992
30
0
40
2.8499998999999998
210
0
220
0
230
1
0
CIRCLE
5
358
100
AcDbEntity
8
0
100
AcDbCircle
10
288.54419000000001
20
-50.031052000000003
30
0
40
2.8499998999999998
210
0
220
0
230
1
0
LINE
5
359
100
AcDbEntity
8
0
100
AcDbLine
10
151.61066047250242
20
-1.7892914792498686
30
0
11
153.10743241473236
21
-1.7916981399811593
31
0
0
ARC
5
360
100
AcDbEntity
8
0
100
AcDbCircle
10
153.11627585743594
20
3.7082947503342858
30
0
40
5.4999999999999343
210
0
220
0
230
1
100
AcDbArc
50
180.45841047666863
51
269.9078741524346
0
ENDSEC
0
SECTION
2
OBJECTS
0
DICTIONARY
5
C
100
AcDbDictionary
3
ACAD_GROUP
350
D
3
ACAD_MLINESTYLE
350
17
0
DICTIONARY
5
D
100
AcDbDictionary
0
DICTIONARY
5
1A
330
C
100
AcDbDictionary
0
DICTIONARY
5
17
100
AcDbDictionary
0
ENDSEC
0
EOF
