0
SECTION
2
HEADER
9
$INSUNITS
70
4
9
$ACADVER
1
AC1014
9
$HANDSEED
5
FFFF
0
ENDSEC
0
SECTION
2
TABLES
0
TABLE
2
VPORT
5
8
100
AcDbSymbolTable
0
ENDTAB
0
TABLE
2
LTYPE
5
5
100
AcDbSymbolTable
0
LTYPE
5
14
100
AcDbSymbolTableRecord
100
AcDbLinetypeTableRecord
2
BYBLOCK
70
0
0
LTYPE
5
15
100
AcDbSymbolTableRecord
100
AcDbLinetypeTableRecord
2
BYLAYER
70
0
0
LTYPE
5
16
100
AcDbSymbolTableRecord
100
AcDbLinetypeTableRecord
2
DASHED
70
0
3
Dashed __ __ __ __ __ __ __ __ __ __ __ __ __ _
72
65
73
2
40
0.75
49
0.5
74
0
49
-0.25
74
0
0
ENDTAB
0
TABLE
2
LAYER
5
2
100
AcDbSymbolTable
70
2
0
LAYER
5
50
100
AcDbSymbolTableRecord
100
AcDbLayerTableRecord
2
0
70
0
62
7
6
CONTINUOUS
0
ENDTAB
0
TABLE
2
STYLE
5
3
100
AcDbSymbolTable
70
1
0
STYLE
5
11
100
AcDbSymbolTableRecord
100
AcDbTextStyleTableRecord
2
STANDARD
70
0
0
ENDTAB
0
TABLE
2
VIEW
5
6
100
AcDbSymbolTable
70
0
0
ENDTAB
0
TABLE
2
UCS
5
7
100
AcDbSymbolTable
70
0
0
ENDTAB
0
TABLE
2
APPID
5
9
100
AcDbSymbolTable
70
2
0
APPID
5
12
100
AcDbSymbolTableRecord
100
AcDbRegAppTableRecord
2
ACAD
70
0
0
ENDTAB
0
TABLE
2
DIMSTYLE
5
A
100
AcDbSymbolTable
70
1
0
ENDTAB
0
TABLE
2
BLOCK_RECORD
5
1
100
AcDbSymbolTable
70
1
0
BLOCK_RECORD
5
1F
100
AcDbSymbolTableRecord
100
AcDbBlockTableRecord
2
*MODEL_SPACE
0
BLOCK_RECORD
5
1B
100
AcDbSymbolTableRecord
100
AcDbBlockTableRecord
2
*PAPER_SPACE
0
ENDTAB
0
ENDSEC
0
SECTION
2
BLOCKS
0
BLOCK
5
20
100
AcDbEntity
100
AcDbBlockBegin
2
*MODEL_SPACE
0
ENDBLK
5
21
100
AcDbEntity
100
AcDbBlockEnd
0
BLOCK
5
1C
100
AcDbEntity
100
AcDbBlockBegin
2
*PAPER_SPACE
0
ENDBLK
5
1D
100
AcDbEntity
100
AcDbBlockEnd
0
ENDSEC
0
SECTION
2
ENTITIES
0
LINE
5
100
100
AcDbEntity
8
0
100
AcDbLine
10
174.08475000000004
20
642.06470000000013
30
0
11
174.11269000000001
21
637.52588000000003
31
0
0
LINE
5
101
100
AcDbEntity
8
0
100
AcDbLine
10
-186.92786999999998
20
462.81115999999997
30
0
11
-191.92786999999998
21
462.81262000000004
31
0
0
LINE
5
102
100
AcDbEntity
8
0
100
AcDbLine
10
-81.102249
20
432.84464000000008
30
0
11
-85.102249
21
432.83878000000004
31
0
0
LINE
5
103
100
AcDbEntity
8
0
100
AcDbLine
10
-163.92651000000001
20
438.95746000000003
30
0
11
-163.81354999999999
21
428.26940999999999
31
0
0
LINE
5
104
100
AcDbEntity
8
0
100
AcDbLine
10
98.727005000000005
20
125.05374
30
0
11
98.727005000000005
21
120.83231000000001
31
0
0
LWPOLYLINE
5
105
100
AcDbEntity
8
0
100
AcDbPolyline
90
4
70
1
43
0.0
10
17.456206999999999
20
427.97420999999991
42
-0.41421355999998666
10
14.706207000000003
20
425.22420999999997
42
-0.41421355999998599
10
11.956207000000003
20
427.97420999999991
42
-0.41421355999999709
10
14.706207000000003
20
430.72420999999997
42
-0.41421356000000797
0
LINE
5
106
100
AcDbEntity
8
0
100
AcDbLine
10
-184.04935
20
522.12463000000002
30
0
11
-184.04941000000005
21
521.48297000000002
31
0
0
LINE
5
107
100
AcDbEntity
8
0
100
AcDbLine
10
-170.71943999999999
20
516.80829000000006
30
0
11
-164.68153000000001
21
518.81274000000008
31
0
0
LINE
5
108
100
AcDbEntity
8
0
100
AcDbLine
10
82.982925000000009
20
157.16751000000002
30
0
11
82.982925000000009
21
152.94607999999999
31
0
0
LWPOLYLINE
5
109
100
AcDbEntity
8
0
100
AcDbPolyline
90
4
70
1
43
0.0
10
-192.64105000000001
20
425.84969999999998
42
-0.41421356000001486
10
-195.39105000000004
20
423.09969999999993
42
-0.41421355999996562
10
-198.14105000000006
20
425.84969999999993
42
-0.41421356000001114
10
-195.39105000000004
20
428.59970000000004
42
-0.41421355999999221
0
LWPOLYLINE
5
110
100
AcDbEntity
8
0
100
AcDbPolyline
90
82
70
1
43
0.0
10
203.72627
20
693.25598000000002
42
0.41060169000007624
10
200.76743000000005
20
696.25989000000004
10
200.65742
20
696.26134999999999
42
0.20009894999995828
10
198.51456000000002
20
695.40247000000011
42
0.20008497000002431
10
197.6163
20
693.2757600000001
10
197.57221999999999
20
683.87671
10
207.95616000000001
20
683.82799999999997
42
-0.19965176000010335
10
208.31003000000007
20
683.67889000000002
42
-0.19967511999999507
10
208.45380000000003
20
683.32287999999994
10
208.32805000000002
20
671.23284999999998
42
-0.41139726000001908
10
203.82477
20
666.77965999999992
10
193.23524000000003
20
666.78790000000004
10
193.09857
20
649.17908
10
219.96493999999998
20
648.93402000000015
42
-0.413446800000005
10
224.91922000000011
20
643.90167000000008
10
224.85916000000003
20
634.67107999999996
42
-0.40872954999997779
10
221.89599999999999
20
631.69079999999997
10
214.01552000000004
20
631.59424000000001
10
213.83711000000002
20
622.66479000000004
10
213.83026000000001
20
622.32213999999999
42
0.20129259000000521
10
214.68552000000003
20
620.16394000000003
42
0.20129409000003809
10
216.82468
20
619.26220999999998
10
217.11242999999999
20
619.26171999999997
42
0.41364506999998729
10
220.13406000000003
20
622.23401000000001
10
220.16492000000002
20
625.58849999999995
10
224.77317999999997
20
625.58080999999993
10
224.73727000000002
20
604.11310000000003
42
-0.19929383000001577
10
223.26165999999998
20
600.57483000000002
42
-0.19929338000001398
10
219.71417000000002
20
599.12145999999996
10
165.89711
20
599.37024000000008
10
112.07948000000002
20
599.38415999999995
42
-0.1992940800000074
10
108.53912
20
600.85473999999999
42
-0.19929547000001166
10
107.08079999999998
20
604.40015000000005
10
107.14966000000003
20
625.86779999999999
10
111.75789
20
625.85302999999999
10
111.77238000000001
20
622.49840999999992
42
0.41364491999998509
10
114.77949000000001
20
619.51140999999996
10
115.06723999999998
20
619.51049999999998
42
0.20129704000002363
10
117.21077000000001
20
620.40179000000001
42
0.20129367000001475
10
118.07654000000001
20
622.55579
10
118.07137
20
622.89844000000005
10
117.93654000000001
20
631.82866999999999
10
110.05662000000001
20
631.96375
42
-0.40872889000001345
10
107.10803
20
634.95837000000006
10
107.09303
20
644.18921
42
-0.4134478400000135
10
112.07182000000002
20
649.19727000000012
10
138.93903999999998
20
649.31122000000005
10
138.88831000000005
20
666.92052999999999
10
128.29886000000002
20
666.96393
42
-0.41139751999999746
10
123.81738000000007
20
671.43909000000008
10
123.75064
20
683.52954
42
-0.19966436999981596
10
123.89614
20
683.88489000000004
42
-0.19969617999960676
10
124.25073
20
684.03228999999999
10
134.63478000000003
20
684.03026999999997
10
134.63657000000001
20
693.42944
42
0.20008598000001732
10
133.74870000000001
20
695.56042000000002
42
0.20008792999993907
10
131.61005
20
696.42987000000005
10
131.50003000000001
20
696.42889000000014
42
0.41060448999998955
10
128.52658000000005
20
693.43950999999993
10
128.51608000000002
20
690.43762000000004
42
-0.19898469000015856
10
128.36831999999998
20
690.08447000000001
42
-0.19895109999996025
10
128.01408000000004
20
689.93933000000015
10
124.27733000000002
20
689.95434999999998
42
-0.19917811999996796
10
123.92398
20
690.10260000000005
42
-0.19918768999986664
10
123.77935000000001
20
690.45745999999997
10
123.77876000000001
20
690.36406999999997
10
123.74349000000001
20
712.07080000000008
42
-0.19987500999997082
10
125.15643000000009
20
715.47973999999977
42
-0.19987292000001833
10
128.57123000000001
20
716.87854000000004
10
128.84354999999999
20
716.87695000000008
10
166.18367000000003
20
716.80774000000019
10
203.52368000000001
20
716.69470000000001
10
203.79601000000002
20
716.69494999999995
42
-0.19987811000001371
10
207.20394999999999
20
715.27954000000011
42
-0.1998780600000149
10
208.60022000000001
20
711.86377000000005
10
208.45901000000001
20
690.1574700000001
10
208.45889
20
690.25085000000001
42
-0.19922408999998867
10
208.31253000000004
20
689.89672999999993
42
-0.19922516999980172
10
207.95847000000003
20
689.75012000000004
10
204.22167999999999
20
689.75342000000001
42
-0.19895858000033567
10
203.86816000000005
20
689.90026999999998
42
-0.19898570999987733
10
203.7221100000001
20
690.25409000000013
0
LINE
5
111
100
AcDbEntity
8
0
100
AcDbLine
10
-110.06935
20
437.15109000000007
30
0
11
-110.07854
21
443.40662000000009
31
0
0
LINE
5
112
100
AcDbEntity
8
0
100
AcDbLine
10
204.08438000000004
20
641.91832999999997
30
0
11
204.11234000000002
21
637.37945999999999
31
0
0
LWPOLYLINE
5
113
100
AcDbEntity
8
0
100
AcDbPolyline
90
4
70
1
43
0.0
10
11.430510999999999
20
518.49799000000007
42
-0.41421355999999682
10
14.180510999999999
20
521.24799000000019
42
-0.41421209000000964
10
16.930519
20
518.49799000000007
42
-0.4142120899999881
10
14.180510999999999
20
515.74799000000007
42
-0.41421355999998583
0
LWPOLYLINE
5
114
100
AcDbEntity
8
0
100
AcDbPolyline
90
4
70
1
43
0.0
10
-22.392776000000005
20
387.90848000000005
42
-0.41421355999998599
10
-19.642776000000001
20
390.65848000000005
42
-0.41421356000000159
10
-16.892776000000001
20
387.90848000000005
42
-0.41421355999998583
10
-19.642776000000001
20
385.15848000000005
42
-0.41421356000000159
0
LINE
5
115
100
AcDbEntity
8
0
100
AcDbLine
10
-3.1228943000000005
20
452.47296
30
0
11
-8.1228943000000005
21
452.46564000000006
31
0
0
LINE
5
116
100
AcDbEntity
8
0
100
AcDbLine
10
-28.159607000000001
20
208.81744
30
0
11
-23.596862999999999
21
208.81614999999999
31
0
0
LINE
5
117
100
AcDbEntity
8
0
100
AcDbLine
10
-166.40222
20
514.65185999999994
30
0
11
-166.46253999999999
21
514.68079
31
0
0
LINE
5
118
100
AcDbEntity
8
0
100
AcDbLine
10
-19.105437999999999
20
380.30563000000001
30
0
11
-19.563385000000004
21
380.30402000000004
31
0
0
LINE
5
119
100
AcDbEntity
8
0
100
AcDbLine
10
138.93903999999998
20
649.31122000000005
30
0
11
158.26488999999998
21
649.31122000000005
31
0
0
LINE
5
120
100
AcDbEntity
8
0
100
AcDbLine
10
-156.64696999999998
20
527.21545000000003
30
0
11
-156.5282
21
521.57665999999995
31
0
0
LINE
5
121
100
AcDbEntity
8
0
100
AcDbLine
10
193.23524000000003
20
666.78790000000004
30
0
11
173.87147999999999
21
666.78790000000004
31
0
0
LINE
5
122
100
AcDbEntity
8
0
100
AcDbLine
10
-102.84345000000002
20
210.94758999999999
30
0
11
-102.84293000000002
21
212.80856
31
0
0
LINE
5
123
100
AcDbEntity
8
0
100
AcDbLine
10
-99.923385999999994
20
404.50662
30
0
11
-86.028046000000003
21
404.56934000000001
31
0
0
LINE
5
124
100
AcDbEntity
8
0
100
AcDbLine
10
-102.95241000000001
20
270.28505999999999
30
0
11
-99.031075000000016
21
270.65557999999999
31
0
0
LWPOLYLINE
5
125
100
AcDbEntity
8
0
100
AcDbPolyline
90
100
70
1
43
0.0
10
34.077545000000001
20
263.83798000000002
10
43.123795000000001
20
250.39859000000001
10
43.123795000000001
20
238.95956000000001
10
20.792449999999999
20
228.97532999999999
10
55.603546000000001
20
228.97532999999999
10
54.875046000000005
20
237.15540000000001
10
50.149322999999995
20
240.19737000000003
10
50.149322999999995
20
250.71895000000001
10
44.201842999999997
20
250.71895000000001
10
44.201842999999997
20
264.57107999999999
10
69.645186999999993
20
260.61176
10
71.918091000000004
20
229.82427999999999
10
78.356110000000001
20
260.34154999999998
10
87.607376000000002
20
260.34154999999998
10
94.415786999999995
20
226.06467000000004
10
111.74828000000002
20
226.06467000000004
10
111.74828000000002
20
218.86725000000001
10
111.74623000000003
20
211.66983000000002
10
94.413772999999992
20
211.67473999999999
10
87.595627000000022
20
177.39981
10
78.344375999999997
20
177.40242000000001
10
71.91499300000001
20
207.92151000000004
10
69.633376999999996
20
177.13467000000003
10
44.188904000000008
20
173.18256000000002
10
44.192825000000006
20
187.03468000000001
10
50.140305000000005
20
187.03299999999999
10
50.143279999999997
20
197.55457000000001
10
54.869872999999998
20
200.59521000000004
10
55.600693000000014
20
208.77509000000001
10
20.789580999999998
20
208.78493000000003
10
43.118118000000003
20
198.79436999999999
10
43.114882999999999
20
187.35534999999999
10
34.064819
20
173.91852
10
9.9365691999999992
20
173.92533999999998
10
1.2954711999999999
20
187.35765000000001
10
-10.223877000000002
20
187.36091999999999
10
-19.465011999999998
20
173.93367000000001
10
-43.222747999999996
20
173.94038
10
-51.998984999999998
20
187.27565000000001
10
-56.204239000000001
20
163.13593999999998
10
-50.827278000000007
20
140.46530000000001
10
-52.238884000000006
20
130.87386000000004
10
-107.20358000000002
20
140.48126000000002
10
-104.67255000000002
20
167.60962000000004
10
-101.12917000000002
20
191.68576000000002
10
-109.53821000000002
20
198.24678000000003
10
-119.17664000000001
20
176.83633
10
-135.50772000000001
20
176.84096
10
-151.27808000000002
20
198.26816000000005
10
-151.27504999999999
20
208.92496
10
-102.93051
20
208.67796000000001
10
-102.93014000000001
20
209.98026000000004
10
-153.12631000000005
20
209.99448000000001
10
-153.13176999999999
20
190.69968
10
-148.19958
20
187.30288999999999
10
-148.20657
20
162.58778000000004
10
-136.74481
20
162.58455000000001
10
-136.75026
20
143.35651999999999
10
-154.37912
20
143.36151000000001
10
-175.86153000000002
20
154.77298000000002
10
-175.85136000000003
20
190.66945000000001
10
-168.57721999999998
20
190.66738999999998
10
-168.57504000000003
20
198.36014000000003
10
-172.59352000000001
20
198.36128000000002
10
-172.59023999999999
20
209.98125000000002
10
-168.49868999999998
20
209.98009999999999
10
-168.49615
20
218.90692000000001
10
-168.49615
20
227.83373999999998
10
-172.58771000000002
20
227.83373999999998
10
-172.58771000000002
20
239.4537
10
-168.56923
20
239.4537
10
-168.56923
20
247.14647999999997
10
-175.84337000000002
20
247.14647999999997
10
-175.84337000000002
20
283.04293999999999
10
-154.35773
20
294.44833000000006
10
-136.72887
20
294.44833000000006
10
-136.72887
20
275.22030999999998
10
-148.19063
20
275.22030999999998
10
-148.19063
20
250.50520000000003
10
-153.12378000000001
20
247.10982999999999
10
-153.12378000000001
20
227.815
10
-102.92761
20
227.815
10
-102.92761
20
229.11731000000003
10
-151.27223000000001
20
228.88402000000002
10
-151.27223000000001
20
239.54080000000002
10
-135.49582000000001
20
260.96352999999999
10
-119.16473000000002
20
260.96352999999999
10
-109.53236000000003
20
239.55037000000004
10
-101.12147
20
246.10901000000001
10
-104.65803000000001
20
270.18616000000003
10
-107.18138000000002
20
297.31522000000001
10
-52.213965999999999
20
306.90707000000003
10
-50.805077000000011
20
297.31522000000001
10
-56.188454000000014
20
274.64612
10
-51.990036000000003
20
250.50520000000003
10
-43.210021999999995
20
263.83798000000002
10
-19.452301000000002
20
263.83798000000002
10
-10.214950999999999
20
250.40813
10
1.3043976000000002
20
250.40813
10
9.9492949999999993
20
263.83798000000002
0
LINE
5
126
100
AcDbEntity
8
0
100
AcDbLine
10
66.131423999999996
20
167.52284
30
0
11
66.131423999999996
21
161.28882000000002
31
0
0
LINE
5
127
100
AcDbEntity
8
0
100
AcDbLine
10
-100.77405999999999
20
521.71252000000004
30
0
11
-100.91115000000002
21
527.72619999999995
31
0
0
LINE
5
128
100
AcDbEntity
8
0
100
AcDbLine
10
-169.09923000000003
20
433.57831000000004
30
0
11
-158.59943999999999
21
433.64580999999998
31
0
0
LINE
5
129
100
AcDbEntity
8
0
100
AcDbLine
10
-9.629699699999998
20
395.12976000000009
30
0
11
-9.5996856999999984
21
390.35622999999998
31
0
0
LWPOLYLINE
5
130
100
AcDbEntity
8
0
100
AcDbPolyline
90
4
70
1
43
0.0
10
113.99779000000001
20
116.77408
10
-177.99770999999998
20
116.77408
10
-177.99771000000004
20
323.22588999999999
10
113.99779000000001
20
323.22588999999999
0
LINE
5
131
100
AcDbEntity
8
0
100
AcDbLine
10
-94.388824
20
502.01184000000012
30
0
11
-89.904205000000005
21
502.06354000000005
31
0
0
LINE
5
132
100
AcDbEntity
8
0
100
AcDbLine
10
-28.156753999999999
20
228.95667000000003
30
0
11
-23.594024999999998
21
228.95667000000003
31
0
0
LINE
5
133
100
AcDbEntity
8
0
100
AcDbLine
10
-129.86536000000001
20
404.15735000000006
30
0
11
-119.79883000000001
21
404.24683000000005
31
0
0
LINE
5
134
100
AcDbEntity
8
0
100
AcDbLine
10
-59.099281000000012
20
187.95845
30
0
11
-54.289597000000001
21
187.53297000000001
31
0
0
LINE
5
135
100
AcDbEntity
8
0
100
AcDbLine
10
-21.624573000000002
20
394.90053999999998
30
0
11
-26.624572999999998
21
394.90053999999998
31
0
0
LINE
5
136
100
AcDbEntity
8
0
100
AcDbLine
10
-65.927329999999998
20
249.24408
30
0
11
-60.964722000000002
21
249.72777000000005
31
0
0
LINE
5
137
100
AcDbEntity
8
0
100
AcDbLine
10
-183.65457000000004
20
423.82288000000005
30
0
11
-183.65057000000002
21
423.24203000000006
31
0
0
LINE
5
138
100
AcDbEntity
8
0
100
AcDbLine
10
157.91793999999999
20
642.10419000000002
30
0
11
157.86784
21
637.56549000000007
31
0
0
LINE
5
139
100
AcDbEntity
8
0
100
AcDbLine
10
-155.31238000000002
20
482.63107000000002
30
0
11
-160.31238000000002
21
482.63107000000002
31
0
0
LINE
5
140
100
AcDbEntity
8
0
100
AcDbLine
10
-141.49481000000003
20
198.2654
30
0
11
-137.01384999999999
21
198.26413000000002
31
0
0
LINE
5
141
100
AcDbEntity
8
0
100
AcDbLine
10
203.92824000000002
20
610.11455999999998
30
0
11
203.97206
21
605.39337
31
0
0
LINE
5
142
100
AcDbEntity
8
0
100
AcDbLine
10
-120.48013
20
521.70672999999999
30
0
11
-137.25041000000002
21
521.71045000000004
31
0
0
LINE
5
143
100
AcDbEntity
8
0
100
AcDbLine
10
82.925110000000018
20
133.26238999999998
30
0
11
82.925110000000018
21
127.02837000000001
31
0
0
LINE
5
144
100
AcDbEntity
8
0
100
AcDbLine
10
-27.384583000000006
20
250.32820000000001
30
0
11
-22.395676000000005
21
250.32820000000001
31
0
0
LINE
5
145
100
AcDbEntity
8
0
100
AcDbLine
10
5.1208496000000006
20
526.83167000000003
30
0
11
5.0365600999999991
21
526.82250999999997
31
0
0
LINE
5
146
100
AcDbEntity
8
0
100
AcDbLine
10
-23.122879000000005
20
452.44357000000008
30
0
11
-28.122864
21
452.43628000000001
31
0
0
LINE
5
147
100
AcDbEntity
8
0
100
AcDbLine
10
50.387360000000001
20
150.72916000000001
30
0
11
50.387360000000001
21
144.49515
31
0
0
LWPOLYLINE
5
148
100
AcDbEntity
8
0
100
AcDbPolyline
90
4
70
1
43
0.0
10
-23.278351000000001
20
504.86840999999998
42
-0.41421355999999682
10
-20.528351000000001
20
507.61841000000004
42
-0.41421356000000825
10
-17.778351000000001
20
504.86840999999998
42
-0.41421355999998699
10
-20.528351000000001
20
502.11840999999998
42
-0.41421355999998599
0
ARC
5
149
100
AcDbEntity
8
0
100
AcDbCircle
10
17.954595073541253
20
424.30982079504366
30
0
40
4.1894787440335071
210
-0
220
0
230
1
100
AcDbArc
50
313.90754896362648
51
359.38058595988866
0
ARC
5
150
100
AcDbEntity
8
0
100
AcDbCircle
10
198.96845298083801
20
423.24426413726644
30
0
40
3.9997617517733723
210
-0
220
0
230
-1
100
AcDbArc
50
-44.825748956026487
51
0.20149105896426636
0
LINE
5
151
100
AcDbEntity
8
0
100
AcDbLine
10
18.025848
20
250.36861000000002
30
0
11
22.588576999999997
21
250.36861000000002
31
0
0
ARC
5
152
100
AcDbEntity
8
0
100
AcDbCircle
10
198.96810068104756
20
423.24464808614505
30
0
40
4.0002822878030937
210
-0
220
0
230
-1
100
AcDbArc
50
270.15267290337442
51
315.17390783101615
0
LINE
5
153
100
AcDbEntity
8
0
100
AcDbLine
10
-13.036682000000003
20
228.91626000000002
30
0
11
-7.9066467000000005
21
228.91626000000002
31
0
0
LWPOLYLINE
5
154
100
AcDbEntity
8
0
100
AcDbPolyline
90
4
70
1
43
0.0
10
-150.77028000000001
20
434.62752999999998
42
-0.4142098799999952
10
-146.37028999999998
20
439.02755999999988
42
-0.41420987999999487
10
-141.97028
20
434.62752999999998
42
-0.41421148999998636
10
-146.37028999999998
20
430.22757000000007
42
-0.41421171999999185
0
LINE
5
155
100
AcDbEntity
8
0
100
AcDbLine
10
157.88363999999999
20
621.14990000000012
30
0
11
157.88363999999999
21
616.10131999999999
31
0
0
LINE
5
156
100
AcDbEntity
8
0
100
AcDbLine
10
-148.40767
20
239.54080000000002
30
0
11
-144.86185
21
239.54080000000002
31
0
0
LINE
5
157
100
AcDbEntity
8
0
100
AcDbLine
10
1.0008545
20
512.00319999999999
30
0
11
-3.0343628000000002
21
512.00319999999999
31
0
0
LINE
5
158
100
AcDbEntity
8
0
100
AcDbLine
10
-28.034362999999999
20
512.00329999999997
30
0
11
-33.034362999999999
21
512.00336000000004
31
0
0
LINE
5
159
100
AcDbEntity
8
0
100
AcDbLine
10
94.491379000000023
20
212.44597999999999
30
0
11
94.491958999999994
21
214.52391000000003
31
0
0
LINE
5
160
100
AcDbEntity
8
0
100
AcDbLine
10
-75.948256999999998
20
432.85220000000004
30
0
11
-78.948256999999998
21
432.84781000000004
31
0
0
LINE
5
161
100
AcDbEntity
8
0
100
AcDbLine
10
-8.0473938
20
432.95270000000005
30
0
11
-13.047379000000001
21
432.94531000000001
31
0
0
LINE
5
162
100
AcDbEntity
8
0
100
AcDbLine
10
-20.424988000000003
20
380.32232999999997
30
0
11
-19.105437999999999
21
380.30563000000001
31
0
0
LINE
5
163
100
AcDbEntity
8
0
100
AcDbLine
10
-69.74356800000001
20
273.47848999999997
30
0
11
-64.780968000000001
21
273.96215999999998
31
0
0
LWPOLYLINE
5
164
100
AcDbEntity
8
0
100
AcDbPolyline
90
4
70
1
43
0.0
10
-146.61754999999999
20
453.39815999999996
42
-0.41421355999998838
10
-143.86755000000005
20
450.64816000000008
42
-0.41421356000000348
10
-146.61754999999999
20
447.89816000000002
42
-0.41421356000001114
10
-149.36755000000002
20
450.64816000000008
42
-0.41421355999997894
0
LINE
5
165
100
AcDbEntity
8
0
100
AcDbLine
10
-227.50824
20
482.5188
30
0
11
-226.12875000000003
21
482.51404000000008
31
0
0
LINE
5
166
100
AcDbEntity
8
0
100
AcDbLine
10
94.437545999999998
20
215.89766
30
0
11
94.437911999999997
21
218.36313000000001
31
0
0
ARC
5
167
100
AcDbEntity
8
0
100
AcDbCircle
10
19.599654906796857
20
390.3040038461935
30
0
40
10.000105584843933
210
0
220
0
230
-1
100
AcDbArc
50
179.70076797981477
51
224.74671066284907
0
LWPOLYLINE
5
168
100
AcDbEntity
8
0
100
AcDbPolyline
90
4
70
1
43
0.0
10
-150.88869
20
512.55590999999993
42
-0.41420988000001041
10
-146.48868000000002
20
516.95593000000008
42
-0.41420987999999759
10
-142.08868000000001
20
512.55590999999993
42
-0.41421079999999499
10
-146.48868000000002
20
508.15584999999999
42
-0.41421494000000153
0
LINE
5
169
100
AcDbEntity
8
0
100
AcDbLine
10
-226.12875000000003
20
482.51404000000008
30
0
11
-203.37933000000004
21
482.43661000000003
31
0
0
LINE
5
170
100
AcDbEntity
8
0
100
AcDbLine
10
-49.761237999999999
20
250.31192000000004
30
0
11
-45.395949999999999
21
250.31192000000004
31
0
0
LWPOLYLINE
5
171
100
AcDbEntity
8
0
100
AcDbPolyline
90
4
70
1
43
0.0
10
-143.82695000000001
20
529.47034000000008
42
-0.4142135599999846
10
-146.57695000000001
20
526.72034000000008
42
-0.41421356000000159
10
-149.32695000000001
20
529.47034000000008
42
-0.4142135599999846
10
-146.57695000000001
20
532.22034000000008
42
-0.41421356000000159
0
LINE
5
172
100
AcDbEntity
8
0
100
AcDbLine
10
-47.982494000000003
20
512.31732
30
0
11
-52.981731000000003
21
512.23009999999999
31
0
0
ARC
5
173
100
AcDbEntity
8
0
100
AcDbCircle
10
5.3462290384223143
20
523.70787574884298
30
0
40
3.1286078113733442
210
0
220
0
230
1
100
AcDbArc
50
97.20636112715674
51
155.71432172655008
0
LINE
5
174
100
AcDbEntity
8
0
100
AcDbLine
10
-177.79755
20
462.42592999999999
30
0
11
-173.77672000000001
21
462.41585999999995
31
0
0
LINE
5
175
100
AcDbEntity
8
0
100
AcDbLine
10
98.669173999999998
20
150.72916000000001
30
0
11
98.669173999999998
21
144.49515
31
0
0
LINE
5
176
100
AcDbEntity
8
0
100
AcDbLine
10
-144.84804
20
501.59619000000009
30
0
11
-139.84804
21
501.59619000000009
31
0
0
LINE
5
177
100
AcDbEntity
8
0
100
AcDbLine
10
-148.41351
20
198.26734999999999
30
0
11
-144.86768000000001
21
198.26636000000005
31
0
0
LINE
5
178
100
AcDbEntity
8
0
100
AcDbLine
10
-110.04918000000002
20
536.52002000000016
30
0
11
-111.68637000000001
21
536.49450999999999
31
0
0
LINE
5
179
100
AcDbEntity
8
0
100
AcDbLine
10
140.91895
20
631.58563000000004
30
0
11
140.91895
21
626.86469
31
0
0
LINE
5
180
100
AcDbEntity
8
0
100
AcDbLine
10
-21.089783000000001
20
208.85585000000003
30
0
11
-16.100891000000001
21
208.85443000000004
31
0
0
LINE
5
181
100
AcDbEntity
8
0
100
AcDbLine
10
-58.152523000000002
20
492.84047999999996
30
0
11
-53.152523000000002
21
492.84047999999996
31
0
0
LINE
5
182
100
AcDbEntity
8
0
100
AcDbLine
10
-92.999626000000006
20
190.96424999999999
30
0
11
-87.574759999999998
21
190.47533999999999
31
0
0
LINE
5
183
100
AcDbEntity
8
0
100
AcDbLine
10
-23.152519000000002
20
492.84047999999996
30
0
11
-28.152519000000002
21
492.84047999999996
31
0
0
LINE
5
184
100
AcDbEntity
8
0
100
AcDbLine
10
2.7100983000000003
20
187.45346000000001
30
0
11
7.0753784000000008
21
187.45221999999998
31
0
0
LINE
5
185
100
AcDbEntity
8
0
100
AcDbLine
10
-85.985443000000004
20
493.06339000000008
30
0
11
-96.744170999999994
21
482.61337000000003
31
0
0
LINE
5
186
100
AcDbEntity
8
0
100
AcDbLine
10
50.445190000000011
20
125.05374
30
0
11
50.445190000000011
21
120.83231000000001
31
0
0
LINE
5
187
100
AcDbEntity
8
0
100
AcDbLine
10
-66.049362000000002
20
518.25902999999994
30
0
11
-65.940185999999997
21
512.00452000000007
31
0
0
LINE
5
188
100
AcDbEntity
8
0
100
AcDbLine
10
50.387360000000001
20
133.26238999999998
30
0
11
50.387360000000001
21
127.02837000000001
31
0
0
LINE
5
189
100
AcDbEntity
8
0
100
AcDbLine
10
6.8771057000000013
20
452.48767000000009
30
0
11
3.8771057000000004
21
452.48328000000004
31
0
0
LINE
5
190
100
AcDbEntity
8
0
100
AcDbLine
10
-119.79883000000001
20
404.24683000000005
30
0
11
-119.74969
21
398.72986000000003
31
0
0
LWPOLYLINE
5
191
100
AcDbEntity
8
0
100
AcDbPolyline
90
4
70
1
43
0.0
10
38.632401000000002
20
119.89511
10
38.632401000000002
20
169.19199000000003
10
110.32082000000001
20
169.19199000000003
10
110.32082000000001
20
119.89511
0
LINE
5
192
100
AcDbEntity
8
0
100
AcDbLine
10
107.11669999999999
20
615.61950999999999
30
0
11
107.14941000000002
21
625.81872999999996
31
0
0
LINE
5
193
100
AcDbEntity
8
0
100
AcDbLine
10
-154.84804
20
501.59625000000005
30
0
11
-149.84804
21
501.59625000000005
31
0
0
LINE
5
194
100
AcDbEntity
8
0
100
AcDbLine
10
145.56561000000002
20
682.9517800000001
30
0
11
145.56561000000002
21
679.10131999999999
31
0
0
LINE
5
195
100
AcDbEntity
8
0
100
AcDbLine
10
-112.62456999999999
20
404.40054000000003
30
0
11
-117.62456999999999
21
404.40054000000003
31
0
0
LINE
5
196
100
AcDbEntity
8
0
100
AcDbLine
10
-18.047378999999999
20
432.93795999999998
30
0
11
-23.047378999999999
21
432.93060000000003
31
0
0
ARC
5
197
100
AcDbEntity
8
0
100
AcDbCircle
10
-96.449787162572477
20
525.66664052238821
30
0
40
3.9996732083416036
210
0
220
0
230
1
100
AcDbArc
50
179.27774755455692
51
225.24378929450293
0
LINE
5
198
100
AcDbEntity
8
0
100
AcDbLine
10
-56.304134000000005
20
394.8144200000001
30
0
11
-29.340714000000006
21
394.95541000000003
31
0
0
LINE
5
199
100
AcDbEntity
8
0
100
AcDbLine
10
-71.694198999999998
20
188.99211000000003
30
0
11
-68.304389999999998
21
188.83440000000002
31
0
0
ARC
5
200
100
AcDbEntity
8
0
100
AcDbCircle
10
-110.75014073421266
20
398.80975062784069
30
0
40
8.9999038605837374
210
0
220
0
230
1
100
AcDbArc
50
180.50861164585714
51
269.6343875521477
0
LINE
5
201
100
AcDbEntity
8
0
100
AcDbLine
10
-102.96696
20
167.51022000000003
30
0
11
-99.045731000000004
21
167.1386
31
0
0
LINE
5
202
100
AcDbEntity
8
0
100
AcDbLine
10
-187.66103000000001
20
419.21460000000002
30
0
11
-198.97876000000002
21
419.24438000000004
31
0
0
LINE
5
203
100
AcDbEntity
8
0
100
AcDbLine
10
-78.137923999999998
20
189.61461
30
0
11
-73.076697999999993
21
189.16988999999998
31
0
0
LINE
5
204
100
AcDbEntity
8
0
100
AcDbLine
10
-139.12909999999999
20
521.7474400000001
30
0
11
-144.12909999999999
21
521.7474400000001
31
0
0
ARC
5
205
100
AcDbEntity
8
0
100
AcDbCircle
10
-125.91570325624576
20
413.14877164589632
30
0
40
11.824094838575521
210
0
220
0
230
1
100
AcDbArc
50
112.31760462420907
51
121.77179000398351
0
LINE
5
206
100
AcDbEntity
8
0
100
AcDbLine
10
-159.12529000000001
20
239.4537
30
0
11
-155.97647000000001
21
239.4537
31
0
0
LINE
5
207
100
AcDbEntity
8
0
100
AcDbLine
10
-166.46253999999999
20
514.68079
30
0
11
-166.52402000000001
21
514.70825000000002
31
0
0
LINE
5
208
100
AcDbEntity
8
0
100
AcDbLine
10
-145.31238000000002
20
482.63107000000002
30
0
11
-150.31238000000002
21
482.63107000000002
31
0
0
LINE
5
209
100
AcDbEntity
8
0
100
AcDbLine
10
25.086745999999998
20
187.43085000000002
30
0
11
30.075653000000003
21
187.42943
31
0
0
LINE
5
210
100
AcDbEntity
8
0
100
AcDbLine
10
-203.37454000000002
20
522.67760999999996
30
0
11
-203.36618000000001
21
521.95264000000009
31
0
0
LINE
5
211
100
AcDbEntity
8
0
100
AcDbLine
10
-125.23004
20
239.54080000000002
30
0
11
-121.42476000000002
21
239.54080000000002
31
0
0
LWPOLYLINE
5
212
100
AcDbEntity
8
0
100
AcDbPolyline
90
4
70
1
43
0.0
10
-17.187721
20
441.61676
42
-0.41421355999999665
10
-19.937721000000003
20
438.86675999999994
42
-0.41421356000000797
10
-22.687721
20
441.61676
42
-0.41421355999998716
10
-19.937721000000003
20
444.36676
42
-0.41421355999998627
0
ARC
5
213
100
AcDbEntity
8
0
100
AcDbCircle
10
199.36649487620423
20
521.99888791756689
30
0
40
3.9999524946419909
210
-0
220
0
230
-1
100
AcDbArc
50
-0.66247525035570776
51
44.362760871301901
0
LINE
5
214
100
AcDbEntity
8
0
100
AcDbLine
10
-165.42873
20
198.35925000000003
30
0
11
-162.27992
21
198.35837000000001
31
0
0
LWPOLYLINE
5
215
100
AcDbEntity
8
0
100
AcDbPolyline
90
4
70
1
43
0.0
10
-19.812454000000002
20
411.81815
42
-0.41421447999999261
10
-24.212456000000007
20
416.21814000000001
42
-0.41421080000000221
10
-19.812454000000002
20
420.61810000000008
42
-0.4142108000000066
10
-15.412452999999978
20
416.21814000000001
42
-0.41421816000000949
0
LINE
5
216
100
AcDbEntity
8
0
100
AcDbLine
10
66.189255000000003
20
125.05374
30
0
11
66.189255000000003
21
120.83231000000001
31
0
0
LINE
5
217
100
AcDbEntity
8
0
100
AcDbLine
10
-184.04941000000005
20
521.48297000000002
30
0
11
-183.71710000000002
21
481.70972000000006
31
0
0
LINE
5
218
100
AcDbEntity
8
0
100
AcDbLine
10
-100.19536000000001
20
501.80414000000007
30
0
11
-120.04736000000001
21
501.69556
31
0
0
LINE
5
219
100
AcDbEntity
8
0
100
AcDbLine
10
2.0782166000000002
20
482.01819000000006
30
0
11
2.0782166000000002
21
477.01819000000006
31
0
0
LINE
5
220
100
AcDbEntity
8
0
100
AcDbLine
10
-203.4581
20
478.29745000000003
30
0
11
-203.45538000000002
21
474.25342000000001
31
0
0
LINE
5
221
100
AcDbEntity
8
0
100
AcDbLine
10
16.847389
20
492.88373000000001
30
0
11
11.847443
21
492.86212000000006
31
0
0
LINE
5
222
100
AcDbEntity
8
0
100
AcDbLine
10
186.51521
20
703.95068000000015
30
0
11
186.49594000000002
21
700.00195000000008
31
0
0
ARC
5
223
100
AcDbEntity
8
0
100
AcDbCircle
10
-167.91484978643706
20
510.97648262525411
30
0
40
3.9825237267414622
210
0
220
-0
230
1
100
AcDbArc
50
69.559574301689565
51
102.45836376504876
0
LINE
5
224
100
AcDbEntity
8
0
100
AcDbLine
10
-48.04734400000001
20
432.8938
30
0
11
-53.047329000000012
21
432.88640999999996
31
0
0
LINE
5
225
100
AcDbEntity
8
0
100
AcDbLine
10
-34.454391000000001
20
250.36861000000002
30
0
11
-29.891646999999999
21
250.36861000000002
31
0
0
ARC
5
226
100
AcDbEntity
8
0
100
AcDbCircle
10
188.04938852320828
20
522.11979085282474
30
0
40
4.0001865365934144
210
0
220
0
230
-1
100
AcDbArc
50
89.389079510766919
51
134.65867515518886
0
LINE
5
227
100
AcDbEntity
8
0
100
AcDbLine
10
186.78294
20
672.27197000000001
30
0
11
186.76454000000001
21
668.50024000000008
31
0
0
LINE
5
228
100
AcDbEntity
8
0
100
AcDbLine
10
2.0846100000000001
20
468.30297999999999
30
0
11
2.0919495000000001
21
463.30297999999999
31
0
0
LINE
5
229
100
AcDbEntity
8
0
100
AcDbLine
10
-203.37933000000004
20
482.43661000000003
30
0
11
-203.37454000000002
21
522.67760999999996
31
0
0
LINE
5
230
100
AcDbEntity
8
0
100
AcDbLine
10
-120.08693000000001
20
424.1726700000001
30
0
11
-136.85651000000001
21
424.03372000000002
31
0
0
LINE
5
231
100
AcDbEntity
8
0
100
AcDbLine
10
-232.14382999999998
20
472.48865000000001
30
0
11
-232.02246000000002
21
478.11572000000007
31
0
0
LINE
5
232
100
AcDbEntity
8
0
100
AcDbLine
10
1.825264
20
523.18146000000002
30
0
11
2.1543578999999999
21
491.83587999999997
31
0
0
LINE
5
233
100
AcDbEntity
8
0
100
AcDbLine
10
-211.78274999999999
20
472.49905000000007
30
0
11
-211.78122000000002
21
472.78717
31
0
0
LINE
5
234
100
AcDbEntity
8
0
100
AcDbLine
10
-86.405884
20
424.33942000000002
30
0
11
-96.244629000000003
21
424.32979999999998
31
0
0
LINE
5
235
100
AcDbEntity
8
0
100
AcDbLine
10
-11.624573
20
394.90053999999998
30
0
11
-16.624573000000002
21
394.90053999999998
31
0
0
LINE
5
236
100
AcDbEntity
8
0
100
AcDbLine
10
15.712646000000001
20
527.04369999999994
30
0
11
5.2035217000000022
21
526.83893
31
0
0
ARC
5
237
100
AcDbEntity
8
0
100
AcDbCircle
10
-167.75618984242269
20
511.10315238052101
30
0
40
2.7724855245226045
210
-0
220
0
230
1
100
AcDbArc
50
270.91449958654067
51
325.5223325826172
0
LWPOLYLINE
5
238
100
AcDbEntity
8
0
100
AcDbPolyline
90
4
70
1
43
0.0
10
-19.411605999999999
20
536.00982999999997
42
-0.41420896000000612
10
-15.011604000000036
20
531.60979999999995
42
-0.41420896000000068
10
-19.411605999999999
20
527.20978000000002
42
-0.41420987999999198
10
-23.811607000000002
20
531.60979999999995
42
-0.41420895999998947
0
LINE
5
239
100
AcDbEntity
8
0
100
AcDbLine
10
-68.624572999999998
20
394.90053999999998
30
0
11
-73.624572999999998
21
394.90053999999998
31
0
0
LINE
5
240
100
AcDbEntity
8
0
100
AcDbLine
10
6.7959595000000004
20
419.92761000000002
30
0
11
6.8061828999999996
21
419.9305700000001
31
0
0
LINE
5
241
100
AcDbEntity
8
0
100
AcDbLine
10
-65.948273
20
432.86687999999998
30
0
11
-70.948273
21
432.85955999999999
31
0
0
LINE
5
242
100
AcDbEntity
8
0
100
AcDbLine
10
6.8061828999999996
20
419.9305700000001
30
0
11
17.840118
21
420.12201000000005
31
0
0
LINE
5
243
100
AcDbEntity
8
0
100
AcDbLine
10
-56.246197000000002
20
389.66367000000002
30
0
11
-56.304134000000005
21
394.8144200000001
31
0
0
LINE
5
244
100
AcDbEntity
8
0
100
AcDbLine
10
-34.463303000000003
20
187.40728999999999
30
0
11
-29.900558000000004
21
187.40599
31
0
0
LINE
5
245
100
AcDbEntity
8
0
100
AcDbLine
10
-137.25041000000002
20
521.71045000000004
30
0
11
-137.34708000000001
21
527.57483000000002
31
0
0
LINE
5
246
100
AcDbEntity
8
0
100
AcDbLine
10
-115.31238000000002
20
482.63107000000002
30
0
11
-120.31238000000002
21
482.63107000000002
31
0
0
ARC
5
247
100
AcDbEntity
8
0
100
AcDbCircle
10
17.954746105414557
20
424.30980185421532
30
0
40
4.1893603589071633
210
0
220
0
230
1
100
AcDbArc
50
268.4320932390782
51
313.90624043754974
0
LINE
5
248
100
AcDbEntity
8
0
100
AcDbLine
10
-144.80539999999999
20
443.50928000000005
30
0
11
-139.80542
21
443.51663000000002
31
0
0
LINE
5
249
100
AcDbEntity
8
0
100
AcDbLine
10
98.669173999999998
20
133.26238999999998
30
0
11
98.669173999999998
21
127.02837000000001
31
0
0
LINE
5
250
100
AcDbEntity
8
0
100
AcDbLine
10
127.91887000000001
20
610.30005000000006
30
0
11
127.85201000000001
21
605.57910000000004
31
0
0
LINE
5
251
100
AcDbEntity
8
0
100
AcDbLine
10
98.669173999999998
20
167.52284
30
0
11
98.669173999999998
21
161.28882000000002
31
0
0
LINE
5
252
100
AcDbEntity
8
0
100
AcDbLine
10
-100.31009083567758
20
536.79496909661361
30
0
11
-100.44914259458814
21
525.7170578005007
31
0
0
LINE
5
253
100
AcDbEntity
8
0
100
AcDbLine
10
-69.759018000000012
20
164.3074
30
0
11
-64.796554999999998
21
163.82231000000002
31
0
0
LINE
5
254
100
AcDbEntity
8
0
100
AcDbLine
10
-134.84804
20
501.59619000000009
30
0
11
-129.84804
21
501.59619000000009
31
0
0
LINE
5
255
100
AcDbEntity
8
0
100
AcDbLine
10
94.493178999999998
20
225.29340000000002
30
0
11
94.493178999999998
21
223.21548000000001
31
0
0
LINE
5
256
100
AcDbEntity
8
0
100
AcDbLine
10
-96.822677999999996
20
166.89096000000004
30
0
11
-91.397812000000002
21
166.40205000000003
31
0
0
LINE
5
257
100
AcDbEntity
8
0
100
AcDbLine
10
-149.12909999999999
20
521.7474400000001
30
0
11
-154.12909999999999
21
521.7474400000001
31
0
0
LINE
5
258
100
AcDbEntity
8
0
100
AcDbLine
10
6.3795547000000008
20
419.91882000000004
30
0
11
6.7475890999999999
21
419.91550000000007
31
0
0
ARC
5
259
100
AcDbEntity
8
0
100
AcDbCircle
10
-20.311205179674829
20
389.32159454691759
30
0
40
8.9999838286304517
210
0
220
0
230
1
100
AcDbArc
50
180.29956045248784
51
269.27561546891201
0
LINE
5
260
100
AcDbEntity
8
0
100
AcDbLine
10
-36.603867000000001
20
228.89999000000003
30
0
11
-31.934158000000004
21
228.89999000000003
31
0
0
LINE
5
261
100
AcDbEntity
8
0
100
AcDbLine
10
-109.87471000000001
20
389.80408000000006
30
0
11
-108.64854000000001
21
389.83037999999999
31
0
0
LINE
5
262
100
AcDbEntity
8
0
100
AcDbLine
10
50.387360000000001
20
167.52284
30
0
11
50.387360000000001
21
161.28882000000002
31
0
0
LINE
5
263
100
AcDbEntity
8
0
100
AcDbLine
10
-86.528769145249598
20
521.87478203535181
30
0
11
-86.166213999999997
21
521.81555000000003
31
0
0
LINE
5
264
100
AcDbEntity
8
0
100
AcDbLine
10
-102.84259
20
214.00487999999999
30
0
11
-102.84213000000001
21
215.62936000000005
31
0
0
LINE
5
265
100
AcDbEntity
8
0
100
AcDbLine
10
-134.38968
20
420.51337000000001
30
0
11
-134.40539999999999
21
408.66314999999997
31
0
0
LINE
5
266
100
AcDbEntity
8
0
100
AcDbLine
10
98.727005000000005
20
157.16751000000002
30
0
11
98.727005000000005
21
152.94607999999999
31
0
0
LINE
5
267
100
AcDbEntity
8
0
100
AcDbLine
10
71.863311999999993
20
223.21548000000001
30
0
11
71.863311999999993
21
219.67401000000001
31
0
0
LINE
5
268
100
AcDbEntity
8
0
100
AcDbLine
10
-66.203598
20
380.52877999999998
30
0
11
-65.145706000000004
21
380.55853000000002
31
0
0
ARC
5
269
100
AcDbEntity
8
0
100
AcDbCircle
10
-111.54598787591394
20
527.49559039067958
30
0
40
9.0000145153090614
210
0
220
0
230
1
100
AcDbArc
50
90.893735160482635
51
180.65738942730499
0
LINE
5
270
100
AcDbEntity
8
0
100
AcDbLine
10
145.88248999999999
20
714.61389000000008
30
0
11
145.88248999999999
21
710.78057999999999
31
0
0
LINE
5
271
100
AcDbEntity
8
0
100
AcDbLine
10
-29.340714000000006
20
394.95541000000003
30
0
11
-29.311065999999997
21
389.27454000000006
31
0
0
LINE
5
272
100
AcDbEntity
8
0
100
AcDbLine
10
224.75612000000001
20
615.33240000000001
30
0
11
224.77317999999997
21
625.53168000000005
31
0
0
LINE
5
273
100
AcDbEntity
8
0
100
AcDbLine
10
-125.29758999999999
20
462.50299000000007
30
0
11
-130.29758999999999
21
462.49567000000008
31
0
0
LINE
5
274
100
AcDbEntity
8
0
100
AcDbLine
10
145.36729000000003
20
672.37299000000007
30
0
11
145.36729000000003
21
668.6013200000001
31
0
0
LINE
5
275
100
AcDbEntity
8
0
100
AcDbLine
10
-86.166213999999997
20
521.81555000000003
30
0
11
-85.985443000000004
21
493.06339000000008
31
0
0
LINE
5
276
100
AcDbEntity
8
0
100
AcDbLine
10
-135.31238000000002
20
482.63107000000002
30
0
11
-140.31238000000002
21
482.63107000000002
31
0
0
LINE
5
277
100
AcDbEntity
8
0
100
AcDbLine
10
-89.203629000000006
20
271.62392999999997
30
0
11
-83.838196000000011
21
272.09958
31
0
0
LINE
5
278
100
AcDbEntity
8
0
100
AcDbLine
10
-102.71458000000001
20
521.7474400000001
30
0
11
-107.71458000000001
21
521.7474400000001
31
0
0
ARC
5
279
100
AcDbEntity
8
0
100
AcDbCircle
10
-129.90529125905891
20
408.65721650991071
30
0
40
4.5001126526564814
210
0
220
0
230
1
100
AcDbArc
50
179.92445432711648
51
225.21569081289195
0
LINE
5
280
100
AcDbEntity
8
0
100
AcDbLine
10
-164.80538999999999
20
443.47985999999997
30
0
11
-159.80538999999999
21
443.48717999999997
31
0
0
LINE
5
281
100
AcDbEntity
8
0
100
AcDbLine
10
-118.52229
20
221.0986
30
0
11
-118.52229
21
219.43704
31
0
0
LINE
5
282
100
AcDbEntity
8
0
100
AcDbLine
10
-65.935920999999993
20
188.54073
30
0
11
-60.973450000000007
21
188.05563000000004
31
0
0
LINE
5
283
100
AcDbEntity
8
0
100
AcDbLine
10
6.8474808000000014
20
492.84047999999996
30
0
11
3.8474808
21
492.84047999999996
31
0
0
ARC
5
284
100
AcDbEntity
8
0
100
AcDbCircle
10
-96.44949077594859
20
525.66690988563028
30
0
40
4.0000731690364137
210
0
220
0
230
1
100
AcDbArc
50
225.24349121289501
51
271.20525224620059
0
ARC
5
285
100
AcDbEntity
8
0
100
AcDbCircle
10
187.65048891952077
20
423.21457032954129
30
0
40
3.9999842189173691
210
0
220
-0
230
-1
100
AcDbArc
50
224.87867358062846
51
270.15099062620487
0
LINE
5
286
100
AcDbEntity
8
0
100
AcDbLine
10
-196.92786999999998
20
462.81409000000002
30
0
11
-200.92787000000001
21
462.81524999999999
31
0
0
LINE
5
287
100
AcDbEntity
8
0
100
AcDbLine
10
-81.945868999999988
20
272.31457999999998
30
0
11
-76.913543999999987
21
272.79703000000001
31
0
0
ARC
5
288
100
AcDbEntity
8
0
100
AcDbCircle
10
-129.78010335978399
20
418.93987419015855
30
0
40
4.8717507181197321
210
0
220
0
230
1
100
AcDbArc
50
118.99401668702731
51
160.2187597955421
0
LINE
5
289
100
AcDbEntity
8
0
100
AcDbLine
10
-42.91040000000001
20
187.46636999999998
30
0
11
-38.240691999999996
21
187.46506000000005
31
0
0
ARC
5
290
100
AcDbEntity
8
0
100
AcDbCircle
10
-66.456670064729963
20
389.52518014597416
30
0
40
8.9998603076830079
210
0
220
0
230
1
100
AcDbArc
50
180.99070970042834
51
226.30107652854878
0
ARC
5
291
100
AcDbEntity
8
0
100
AcDbCircle
10
216.64520668786722
20
472.60334061384037
30
0
40
4.8635749787085496
210
0
220
0
230
-1
100
AcDbArc
50
179.52335908936357
51
181.22869906670792
0
LINE
5
292
100
AcDbEntity
8
0
100
AcDbLine
10
-53.122829000000003
20
452.39954000000012
30
0
11
-58.122829000000003
21
452.39220999999998
31
0
0
LINE
5
293
100
AcDbEntity
8
0
100
AcDbLine
10
-117.87894
20
239.54080000000002
30
0
11
-112.51694000000001
21
239.54080000000002
31
0
0
LINE
5
294
100
AcDbEntity
8
0
100
AcDbLine
10
-96.365352962185895
20
521.6677216947669
30
0
11
-86.528769145249598
21
521.87478203535181
31
0
0
ARC
5
295
100
AcDbEntity
8
0
100
AcDbCircle
10
-129.90536266474174
20
408.65727867289957
30
0
40
4.5001064736703142
210
0
220
0
230
1
100
AcDbArc
50
225.21689362971358
51
270.50932440344656
0
LINE
5
296
100
AcDbEntity
8
0
100
AcDbLine
10
-18.034362999999999
20
512.00329999999997
30
0
11
-23.034362999999999
21
512.00329999999997
31
0
0
LINE
5
297
100
AcDbEntity
8
0
100
AcDbLine
10
-96.807961000000006
20
270.90258999999998
30
0
11
-91.382949999999994
21
271.38995
31
0
0
LINE
5
298
100
AcDbEntity
8
0
100
AcDbLine
10
-183.84058000000005
20
443.45184000000012
30
0
11
-179.80536999999998
21
443.45773000000003
31
0
0
LINE
5
299
100
AcDbEntity
8
0
100
AcDbLine
10
-110.80757
20
389.81002999999998
30
0
11
-109.87471000000001
21
389.80408000000006
31
0
0
LINE
5
300
100
AcDbEntity
8
0
100
AcDbLine
10
-216.78201000000001
20
467.78793000000002
30
0
11
-222.53290000000004
21
467.7888200000001
31
0
0
LINE
5
301
100
AcDbEntity
8
0
100
AcDbLine
10
-203.29997000000003
20
462.77295000000004
30
0
11
-226.04810000000001
21
462.51204999999999
31
0
0
LINE
5
302
100
AcDbEntity
8
0
100
AcDbLine
10
-203.41217
20
466.91138000000001
30
0
11
-203.44200000000001
21
470.95532000000003
31
0
0
ARC
5
303
100
AcDbEntity
8
0
100
AcDbCircle
10
199.36638611911522
20
521.9987906767077
30
0
40
4.000098238750617
210
0
220
0
230
-1
100
AcDbArc
50
44.362667442992603
51
89.38702617021498
0
LINE
5
304
100
AcDbEntity
8
0
100
AcDbLine
10
2.0782166000000002
20
490.01819000000012
30
0
11
2.0782166000000002
21
485.01819000000012
31
0
0
LINE
5
305
100
AcDbEntity
8
0
100
AcDbLine
10
191.03219999999999
20
631.46332000000007
30
0
11
191.00916000000001
21
626.74243000000001
31
0
0
LINE
5
306
100
AcDbEntity
8
0
100
AcDbLine
10
2.7189941000000002
20
250.31192000000004
30
0
11
7.0842743000000006
21
250.31192000000004
31
0
0
LINE
5
307
100
AcDbEntity
8
0
100
AcDbLine
10
-18.152519000000002
20
492.84047999999996
30
0
11
-13.152519
21
492.84047999999996
31
0
0
LINE
5
308
100
AcDbEntity
8
0
100
AcDbLine
10
-187.89233000000002
20
462.72311000000002
30
0
11
-187.89307000000002
21
462.76489000000004
31
0
0
LINE
5
309
100
AcDbEntity
8
0
100
AcDbLine
10
-81.032425000000003
20
511.7410900000001
30
0
11
-85.031815000000023
21
511.67122999999998
31
0
0
LINE
5
310
100
AcDbEntity
8
0
100
AcDbLine
10
33.145920000000004
20
250.32820000000001
30
0
11
38.275954999999996
21
250.32820000000001
31
0
0
LINE
5
311
100
AcDbEntity
8
0
100
AcDbLine
10
-141.48898
20
239.54080000000002
30
0
11
-137.00801000000001
21
239.54080000000002
31
0
0
LINE
5
312
100
AcDbEntity
8
0
100
AcDbLine
10
-75.501976000000013
20
272.93523999999996
30
0
11
-72.188179000000019
21
273.26116999999999
31
0
0
LWPOLYLINE
5
313
100
AcDbEntity
8
0
100
AcDbPolyline
90
4
70
1
43
0.0
10
-144.06583000000001
20
494.39807000000002
42
-0.41421355999998838
10
-146.81583000000001
20
491.64807000000002
42
-0.41421355999998838
10
-149.56583000000003
20
494.39807000000002
42
-0.41421355999999782
10
-146.81583000000001
20
497.14807000000008
42
-0.41421356000000725
0
LINE
5
314
100
AcDbEntity
8
0
100
AcDbLine
10
-168.49930000000001
20
207.81540000000004
30
0
11
-168.50024000000002
21
204.44748000000004
31
0
0
LINE
5
315
100
AcDbEntity
8
0
100
AcDbLine
10
2.0846100000000001
20
461.30298000000005
30
0
11
2.0919495000000001
21
456.30298000000005
31
0
0
LINE
5
316
100
AcDbEntity
8
0
100
AcDbLine
10
191.08453
20
641.98175000000003
30
0
11
191.11248999999998
21
637.44286999999997
31
0
0
LINE
5
317
100
AcDbEntity
8
0
100
AcDbLine
10
-222.03967000000006
20
467.86200000000002
30
0
11
-222.52264
21
467.79031000000003
31
0
0
LINE
5
318
100
AcDbEntity
8
0
100
AcDbLine
10
193.09857
20
649.17908
30
0
11
173.78554000000003
21
649.17908
31
0
0
LINE
5
319
100
AcDbEntity
8
0
100
AcDbLine
10
-51.998984999999998
20
187.27565000000001
30
0
11
-44.628180999999998
21
208.89301000000003
31
0
0
LINE
5
320
100
AcDbEntity
8
0
100
AcDbLine
10
2.0782166000000002
20
470.01819000000012
30
0
11
2.0782166000000002
21
475.01819000000012
31
0
0
LINE
5
321
100
AcDbEntity
8
0
100
AcDbLine
10
-165.42841000000004
20
190.66650000000004
30
0
11
-162.27959999999999
21
190.66560000000004
31
0
0
LINE
5
322
100
AcDbEntity
8
0
100
AcDbLine
10
-42.901505
20
250.31192000000004
30
0
11
-38.231796000000003
21
250.31192000000004
31
0
0
LINE
5
323
100
AcDbEntity
8
0
100
AcDbLine
10
-154.80539999999999
20
443.49457000000001
30
0
11
-149.80539999999999
21
443.50192000000004
31
0
0
ARC
5
324
100
AcDbEntity
8
0
100
AcDbCircle
10
188.04946876228254
20
522.11996159867874
30
0
40
4.0001214864470356
210
0
220
0
230
-1
100
AcDbArc
50
134.66121168759494
51
179.93313209251332
0
LINE
5
325
100
AcDbEntity
8
0
100
AcDbLine
10
25.095656999999999
20
250.32820000000001
30
0
11
30.084549000000003
21
250.32820000000001
31
0
0
LINE
5
326
100
AcDbEntity
8
0
100
AcDbLine
10
173.83815000000001
20
659.95929000000001
30
0
11
173.81561000000002
21
655.34027000000015
31
0
0
LINE
5
327
100
AcDbEntity
8
0
100
AcDbLine
10
66.131423999999996
20
150.72916000000001
30
0
11
66.131423999999996
21
144.49515
31
0
0
LINE
5
328
100
AcDbEntity
8
0
100
AcDbLine
10
-174.84804
20
501.59627999999998
30
0
11
-169.84804
21
501.59627999999998
31
0
0
LINE
5
329
100
AcDbEntity
8
0
100
AcDbLine
10
-43.152518999999998
20
492.84047999999996
30
0
11
-48.152523000000002
21
492.84047999999996
31
0
0
LINE
5
330
100
AcDbEntity
8
0
100
AcDbLine
10
186.47391000000002
20
714.51482999999996
30
0
11
186.45520000000002
21
710.68157999999994
31
0
0
LINE
5
331
100
AcDbEntity
8
0
100
AcDbLine
10
2.1825104
20
453.48541
30
0
11
1.6531218999999997
21
394.86862000000002
31
0
0
LINE
5
332
100
AcDbEntity
8
0
100
AcDbLine
10
-105.29761999999999
20
462.53235000000006
30
0
11
-110.29761999999999
21
462.52499000000006
31
0
0
LINE
5
333
100
AcDbEntity
8
0
100
AcDbLine
10
-136.85651000000001
20
424.03372000000002
30
0
11
-156.13484
21
424.01202000000006
31
0
0
LINE
5
334
100
AcDbEntity
8
0
100
AcDbLine
10
-55.948284000000001
20
432.88159000000007
30
0
11
-60.948284000000001
21
432.8742400000001
31
0
0
LINE
5
335
100
AcDbEntity
8
0
100
AcDbLine
10
11.725357000000001
20
208.80615000000003
30
0
11
16.288101000000001
21
208.80486000000005
31
0
0
LINE
5
336
100
AcDbEntity
8
0
100
AcDbLine
10
98.727005000000005
20
140.37384
30
0
11
98.727005000000005
21
136.1524
31
0
0
LINE
5
337
100
AcDbEntity
8
0
100
AcDbLine
10
-99.110648999999995
20
191.51696999999999
30
0
11
-95.189423000000005
21
191.14536000000001
31
0
0
LINE
5
338
100
AcDbEntity
8
0
100
AcDbLine
10
-38.047363000000004
20
432.90851000000004
30
0
11
-43.047348
21
432.90115000000003
31
0
0
ARC
5
339
100
AcDbEntity
8
0
100
AcDbCircle
10
-169.11326681442597
20
511.70149006038179
30
0
40
4.2388265002648753
210
-0
220
0
230
1
100
AcDbArc
50
-30.758137752406324
51
14.162141053072618
0
LINE
5
340
100
AcDbEntity
8
0
100
AcDbLine
10
-43.122849000000009
20
452.41424999999998
30
0
11
-48.122845000000005
21
452.40692000000001
31
0
0
LINE
5
341
100
AcDbEntity
8
0
100
AcDbLine
10
-19.334305000000001
20
250.32820000000001
30
0
11
-14.204269
21
250.32820000000001
31
0
0
LINE
5
342
100
AcDbEntity
8
0
100
AcDbLine
10
173.92858999999999
20
610.26098999999999
30
0
11
173.97241000000002
21
605.53979000000004
31
0
0
LINE
5
343
100
AcDbEntity
8
0
100
AcDbLine
10
-134.80542
20
443.52399000000003
30
0
11
-129.80542
21
443.53137000000004
31
0
0
LINE
5
344
100
AcDbEntity
8
0
100
AcDbLine
10
186.43646000000001
20
693.35724000000016
30
0
11
186.41614999999999
21
689.19713999999999
31
0
0
LINE
5
345
100
AcDbEntity
8
0
100
AcDbLine
10
-110.12137000000001
20
508.00537000000008
30
0
11
-110.12137000000001
21
501.74987999999996
31
0
0
LINE
5
346
100
AcDbEntity
8
0
100
AcDbLine
10
-120.54541000000003
20
527.39233000000002
30
0
11
-120.48013
21
521.70672999999999
31
0
0
LINE
5
347
100
AcDbEntity
8
0
100
AcDbLine
10
-83.152527000000006
20
492.84047999999996
30
0
11
-85.652527000000006
21
492.84047999999996
31
0
0
LINE
5
348
100
AcDbEntity
8
0
100
AcDbLine
10
-96.666945999999996
20
463.45612000000006
30
0
11
-85.824326000000013
21
453.09320000000008
31
0
0
LINE
5
349
100
AcDbEntity
8
0
100
AcDbLine
10
-112.71458000000001
20
521.7474400000001
30
0
11
-117.71458000000001
21
521.7474400000001
31
0
0
ARC
5
350
100
AcDbEntity
8
0
100
AcDbCircle
10
10.390125264173264
20
521.05035522935202
30
0
40
8.826010198159457
210
0
220
0
230
1
100
AcDbArc
50
153.45553762576952
51
166.02743145251165
0
LINE
5
351
100
AcDbEntity
8
0
100
AcDbLine
10
-85.824326000000013
20
453.09320000000008
30
0
11
-85.773178000000016
21
424.34047999999996
31
0
0
LINE
5
352
100
AcDbEntity
8
0
100
AcDbLine
10
-202.96818999999996
20
423.25833
30
0
11
-202.97076000000004
21
422.53335999999996
31
0
0
LINE
5
353
100
AcDbEntity
8
0
100
AcDbLine
10
5.0365600999999991
20
526.82250999999997
30
0
11
4.9537659000000005
21
526.81177000000002
31
0
0
LINE
5
354
100
AcDbEntity
8
0
100
AcDbLine
10
-85.773178000000016
20
424.34047999999996
30
0
11
-86.405884
21
424.33942000000002
31
0
0
LINE
5
355
100
AcDbEntity
8
0
100
AcDbLine
10
-134.36438000000004
20
420.58862000000005
30
0
11
-134.38968
21
420.51337000000001
31
0
0
LINE
5
356
100
AcDbEntity
8
0
100
AcDbLine
10
5.2035217000000022
20
526.83893
30
0
11
5.1208496000000006
21
526.83167000000003
31
0
0
LINE
5
357
100
AcDbEntity
8
0
100
AcDbLine
10
-96.244629000000003
20
424.32979999999998
30
0
11
-120.08693000000001
21
424.1726700000001
31
0
0
LINE
5
358
100
AcDbEntity
8
0
100
AcDbLine
10
82.925110000000018
20
150.72916000000001
30
0
11
82.925110000000018
21
144.49515
31
0
0
LINE
5
359
100
AcDbEntity
8
0
100
AcDbLine
10
-226.04810000000001
20
462.51204999999999
30
0
11
-227.42752000000002
21
462.49628000000001
31
0
0
LINE
5
360
100
AcDbEntity
8
0
100
AcDbLine
10
50.445190000000011
20
140.37384
30
0
11
50.445190000000011
21
136.1524
31
0
0
ARC
5
361
100
AcDbEntity
8
0
100
AcDbCircle
10
216.77920432382834
20
472.31334730929638
30
0
40
4.9998926163901993
210
0
220
0
230
-1
100
AcDbArc
50
134.52897932452328
51
179.52989922114938
0
LINE
5
362
100
AcDbEntity
8
0
100
AcDbLine
10
-75.517273000000003
20
164.85228000000004
30
0
11
-72.203568000000018
21
164.52538999999999
31
0
0
ARC
5
363
100
AcDbEntity
8
0
100
AcDbCircle
10
-65.248493714219677
20
389.56082734173526
30
0
40
9.0028841347208672
210
-0
220
0
230
1
100
AcDbArc
50
-89.345828505907207
51
0.65452118949598836
0
LWPOLYLINE
5
364
100
AcDbEntity
8
0
100
AcDbPolyline
90
4
70
1
43
0.0
10
-195.76837
20
516.67249000000004
42
-0.414213559999977
10
-198.51837000000006
20
519.42249000000004
42
-0.41421355999999221
10
-195.76837
20
522.17249000000015
42
-0.41421356000000348
10
-193.01837000000006
20
519.42249000000004
42
-0.41421356000001869
0
LINE
5
365
100
AcDbEntity
8
0
100
AcDbLine
10
3.2782745000000002
20
208.86523
30
0
11
7.9479675000000007
21
208.86391000000003
31
0
0
LINE
5
366
100
AcDbEntity
8
0
100
AcDbLine
10
-183.64313000000004
20
463.41937000000001
30
0
11
-183.65457000000004
21
423.82288000000005
31
0
0
LINE
5
367
100
AcDbEntity
8
0
100
AcDbLine
10
50.445190000000011
20
157.16751000000002
30
0
11
50.445190000000011
21
152.94607999999999
31
0
0
ARC
5
368
100
AcDbEntity
8
0
100
AcDbCircle
10
216.77929794428007
20
472.31325366552147
30
0
40
5.0000250278559388
210
0
220
0
230
-1
100
AcDbArc
50
89.529345973062988
51
134.52899160945995
0
LINE
5
369
100
AcDbEntity
8
0
100
AcDbLine
10
-102.84183
20
216.69664
30
0
11
-102.84135000000001
21
218.35822000000005
31
0
0
LINE
5
370
100
AcDbEntity
8
0
100
AcDbLine
10
140.91793999999999
20
642.10419000000002
30
0
11
140.86784
21
637.56549000000007
31
0
0
LINE
5
371
100
AcDbEntity
8
0
100
AcDbLine
10
1.8992310000000001
20
422.11868000000004
30
0
11
1.9203720000000002
21
424.45929000000007
31
0
0
LINE
5
372
100
AcDbEntity
8
0
100
AcDbLine
10
-62.922408999999995
20
163.63165000000004
30
0
11
-58.112724
21
163.20616000000001
31
0
0
LINE
5
373
100
AcDbEntity
8
0
100
AcDbLine
10
-183.69720000000001
20
467.10219999999998
30
0
11
-183.71448999999998
21
471.40524000000005
31
0
0
LINE
5
374
100
AcDbEntity
8
0
100
AcDbLine
10
6.7475890999999999
20
419.91550000000007
30
0
11
6.7959595000000004
21
419.92761000000002
31
0
0
LINE
5
375
100
AcDbEntity
8
0
100
AcDbLine
10
-174.80536999999998
20
443.46512000000007
30
0
11
-169.80536999999998
21
443.4724700000001
31
0
0
LINE
5
376
100
AcDbEntity
8
0
100
AcDbLine
10
-49.770126000000005
20
187.46831
30
0
11
-45.404845999999999
21
187.46707000000001
31
0
0
LINE
5
377
100
AcDbEntity
8
0
100
AcDbLine
10
-86.028046000000003
20
404.56934000000001
30
0
11
-85.920394999999999
21
394.98955999999998
31
0
0
LINE
5
378
100
AcDbEntity
8
0
100
AcDbLine
10
18.016936999999999
20
187.39243000000002
30
0
11
22.579666
21
187.39113999999998
31
0
0
ARC
5
379
100
AcDbEntity
8
0
100
AcDbCircle
10
-95.810392205355868
20
536.73840317540635
30
0
40
4.5000541626919475
210
0
220
-0
230
1
100
AcDbArc
50
89.434378906958855
51
179.27977002326139
0
LINE
5
380
100
AcDbEntity
8
0
100
AcDbLine
10
71.860596000000001
20
209.28229000000002
30
0
11
71.861633000000012
21
212.99112000000005
31
0
0
ARC
5
381
100
AcDbEntity
8
0
100
AcDbCircle
10
187.650633017476
20
423.21466990263758
30
0
40
4.0001565867734215
210
0
220
0
230
-1
100
AcDbArc
50
179.60810775904017
51
224.87822785262304
0
LINE
5
382
100
AcDbEntity
8
0
100
AcDbLine
10
-155.29756
20
462.45895000000007
30
0
11
-160.29756000000003
21
462.45165999999995
31
0
0
LINE
5
383
100
AcDbEntity
8
0
100
AcDbLine
10
33.137023999999997
20
187.42856
30
0
11
38.267059000000003
21
187.42711
31
0
0
LINE
5
384
100
AcDbEntity
8
0
100
AcDbLine
10
140.88363999999999
20
621.14990000000012
30
0
11
140.88363999999999
21
616.10131999999999
31
0
0
LINE
5
385
100
AcDbEntity
8
0
100
AcDbLine
10
94.438400000000001
20
221.84174999999999
30
0
11
94.438065000000009
21
219.37628000000001
31
0
0
LINE
5
386
100
AcDbEntity
8
0
100
AcDbLine
10
-156.13484
20
424.01202000000006
30
0
11
-183.65457000000004
21
423.82288000000005
31
0
0
LINE
5
387
100
AcDbEntity
8
0
100
AcDbLine
10
-43.466438000000011
20
208.87846000000002
30
0
11
-39.101151000000002
21
208.87723
31
0
0
LINE
5
388
100
AcDbEntity
8
0
100
AcDbLine
10
-125.31238000000002
20
482.63107000000002
30
0
11
-130.31238000000002
21
482.63107000000002
31
0
0
LINE
5
389
100
AcDbEntity
8
0
100
AcDbLine
10
-3.5786285000000007
20
228.89999000000003
30
0
11
0.78665160999999983
21
228.89999000000003
31
0
0
LINE
5
390
100
AcDbEntity
8
0
100
AcDbLine
10
-83.122803000000005
20
452.35553000000004
30
0
11
-85.622803000000005
21
452.35187000000002
31
0
0
LINE
5
391
100
AcDbEntity
8
0
100
AcDbLine
10
22.14382899999999
20
424.26453000000004
30
0
11
21.725586
21
521.08569
31
0
0
LINE
5
392
100
AcDbEntity
8
0
100
AcDbLine
10
190.92838999999998
20
610.17797999999993
30
0
11
190.97221000000002
21
605.45679000000007
31
0
0
LINE
5
393
100
AcDbEntity
8
0
100
AcDbLine
10
158.26247000000001
20
666.92052999999999
30
0
11
138.88831000000005
21
666.92052999999999
31
0
0
LINE
5
394
100
AcDbEntity
8
0
100
AcDbLine
10
82.982925000000009
20
140.37384
30
0
11
82.982925000000009
21
136.1524
31
0
0
LINE
5
395
100
AcDbEntity
8
0
100
AcDbLine
10
191.01657
20
621.02759000000003
30
0
11
190.99194
21
615.97900000000004
31
0
0
LINE
5
396
100
AcDbEntity
8
0
100
AcDbLine
10
71.863311999999993
20
228.46350000000001
30
0
11
71.863311999999993
21
224.75467000000006
31
0
0
LINE
5
397
100
AcDbEntity
8
0
100
AcDbLine
10
-78.152527000000006
20
492.84047999999996
30
0
11
-73.152527000000006
21
492.84047999999996
31
0
0
LINE
5
398
100
AcDbEntity
8
0
100
AcDbLine
10
-19.343201000000001
20
187.44342
30
0
11
-14.213165
21
187.44197
31
0
0
LINE
5
399
100
AcDbEntity
8
0
100
AcDbLine
10
-68.152527000000006
20
492.84047999999996
30
0
11
-63.152523000000002
21
492.84047999999996
31
0
0
LINE
5
400
100
AcDbEntity
8
0
100
AcDbLine
10
-159.13078000000002
20
190.66470000000004
30
0
11
-155.98196000000002
21
190.66382000000002
31
0
0
LINE
5
401
100
AcDbEntity
8
0
100
AcDbLine
10
-97.221364711209347
20
521.74201549396696
30
0
11
-100.77405999999999
21
521.71252000000004
31
0
0
ARC
5
402
100
AcDbEntity
8
0
100
AcDbCircle
10
15.783416256174746
20
521.17538777080563
30
0
40
5.9428467046121725
210
-0
220
0
230
1
100
AcDbArc
50
-0.86482103709040914
51
44.287166881225914
0
ARC
5
403
100
AcDbEntity
8
0
100
AcDbCircle
10
-66.456577829104191
20
389.52506329903605
30
0
40
8.999839553594736
210
0
220
0
230
1
100
AcDbArc
50
226.30013806786499
51
271.61076049171413
0
LINE
5
404
100
AcDbEntity
8
0
100
AcDbLine
10
82.982925000000009
20
125.05374
30
0
11
82.982925000000009
21
120.83231000000001
31
0
0
LINE
5
405
100
AcDbEntity
8
0
100
AcDbLine
10
3.2810974000000002
20
228.89999000000003
30
0
11
7.950805700000001
21
228.89999000000003
31
0
0
LINE
5
406
100
AcDbEntity
8
0
100
AcDbLine
10
-33.122864
20
452.42892000000006
30
0
11
-38.122849000000002
21
452.42157000000009
31
0
0
LINE
5
407
100
AcDbEntity
8
0
100
AcDbLine
10
66.189255000000003
20
157.16751000000002
30
0
11
66.189255000000003
21
152.94607999999999
31
0
0
LINE
5
408
100
AcDbEntity
8
0
100
AcDbLine
10
1.825264
20
523.18146000000002
30
0
11
1.5835936714700374
21
546.19779169512969
31
0
0
LINE
5
409
100
AcDbEntity
8
0
100
AcDbLine
10
-159.1311
20
198.35748000000001
30
0
11
-155.98228
21
198.35658000000001
31
0
0
LINE
5
410
100
AcDbEntity
8
0
100
AcDbLine
10
204.01641999999998
20
620.96411000000001
30
0
11
203.99178000000003
21
615.91559000000007
31
0
0
LINE
5
411
100
AcDbEntity
8
0
100
AcDbLine
10
-21.086945
20
228.91626000000002
30
0
11
-16.098053
21
228.91626000000002
31
0
0
LINE
5
412
100
AcDbEntity
8
0
100
AcDbLine
10
16.877051999999999
20
452.45911000000001
30
0
11
11.877075
21
452.47339000000011
31
0
0
LINE
5
413
100
AcDbEntity
8
0
100
AcDbLine
10
-3.1525192000000009
20
492.84047999999996
30
0
11
-8.1525192000000004
21
492.84047999999996
31
0
0
LINE
5
414
100
AcDbEntity
8
0
100
AcDbLine
10
-43.463608000000001
20
228.89999000000003
30
0
11
-39.098328000000002
21
228.89999000000003
31
0
0
ARC
5
415
100
AcDbEntity
8
0
100
AcDbCircle
10
6.4201775181387539
20
424.41862589108831
30
0
40
4.499989252301118
210
0
220
0
230
1
100
AcDbArc
50
179.48224020151724
51
269.48276595466808
0
LINE
5
416
100
AcDbEntity
8
0
100
AcDbLine
10
-186.94211999999999
20
482.23251000000005
30
0
11
-191.94211000000001
21
482.22372000000007
31
0
0
ARC
5
417
100
AcDbEntity
8
0
100
AcDbCircle
10
15.841881971595758
20
521.0678618992506
30
0
40
5.9772353929489928
210
0
220
-0
230
1
100
AcDbArc
50
45.416395727016088
51
91.238909344425807
0
LINE
5
418
100
AcDbEntity
8
0
100
AcDbLine
10
82.925110000000018
20
167.52284
30
0
11
82.925110000000018
21
161.28882000000002
31
0
0
LINE
5
419
100
AcDbEntity
8
0
100
AcDbLine
10
157.91895
20
631.58563000000004
30
0
11
157.91895
21
626.86469
31
0
0
LINE
5
420
100
AcDbEntity
8
0
100
AcDbLine
10
-165.29755
20
462.44424000000009
30
0
11
-170.29755
21
462.43695000000002
31
0
0
LINE
5
421
100
AcDbEntity
8
0
100
AcDbLine
10
11.728210000000001
20
228.95667000000003
30
0
11
16.290955
21
228.95667000000003
31
0
0
LINE
5
422
100
AcDbEntity
8
0
100
AcDbLine
10
-164.84804
20
501.59627999999998
30
0
11
-159.84804
21
501.59625000000005
31
0
0
ARC
5
423
100
AcDbEntity
8
0
100
AcDbCircle
10
227.47912561107117
20
466.99600240472017
30
0
40
4.5000183175887711
210
0
220
-0
230
-1
100
AcDbArc
50
269.34292522441706
51
358.30288179444625
0
ARC
5
424
100
AcDbEntity
8
0
100
AcDbCircle
10
-147.6489059748555
20
527.40484417891867
30
0
40
9.0000697665536062
210
0
220
0
230
1
100
AcDbArc
50
90.944932201457789
51
136.07515940823811
0
LINE
5
425
100
AcDbEntity
8
0
100
AcDbLine
10
-145.29758000000001
20
462.47363000000001
30
0
11
-150.29758000000001
21
462.46631000000002
31
0
0
LINE
5
426
100
AcDbEntity
8
0
100
AcDbLine
10
-28.047363000000001
20
432.92325000000005
30
0
11
-33.047363000000004
21
432.91585999999995
31
0
0
LINE
5
427
100
AcDbEntity
8
0
100
AcDbLine
10
-231.97717000000006
20
466.86273
30
0
11
-232.14382999999998
21
472.48865000000001
31
0
0
ARC
5
428
100
AcDbEntity
8
0
100
AcDbCircle
10
-167.69298800940331
20
512.23999366411692
30
0
40
2.7355403993113687
210
0
220
-0
230
1
100
AcDbArc
50
10.501782819792624
51
61.845471075226861
0
LINE
5
429
100
AcDbEntity
8
0
100
AcDbLine
10
140.91887
20
610.30005000000006
30
0
11
140.85201000000001
21
605.57910000000004
31
0
0
LINE
5
430
100
AcDbEntity
8
0
100
AcDbLine
10
145.81668000000002
20
693.45636000000002
30
0
11
145.81668000000002
21
689.2962
31
0
0
LINE
5
431
100
AcDbEntity
8
0
100
AcDbLine
10
158.25184999999999
20
659.99730999999997
30
0
11
158.25184999999999
21
655.37823000000003
31
0
0
ARC
5
432
100
AcDbEntity
8
0
100
AcDbCircle
10
-19.599514277475517
20
390.30385721381577
30
0
40
9.9999024808997667
210
-0
220
0
230
1
100
AcDbArc
50
270.20700798070402
51
315.25331880303906
0
LINE
5
433
100
AcDbEntity
8
0
100
AcDbLine
10
145.78963000000002
20
704.05005000000006
30
0
11
145.78963000000002
21
700.10131999999999
31
0
0
LINE
5
434
100
AcDbEntity
8
0
100
AcDbLine
10
127.91793999999999
20
642.10419000000002
30
0
11
127.86783999999999
21
637.56549000000007
31
0
0
LINE
5
435
100
AcDbEntity
8
0
100
AcDbLine
10
-36.606705000000005
20
208.87653
30
0
11
-31.936996000000004
21
208.87520000000001
31
0
0
LINE
5
436
100
AcDbEntity
8
0
100
AcDbLine
10
-38.034362999999999
20
512.00336000000004
30
0
11
-43.034363000000006
21
512.00336000000004
31
0
0
LINE
5
437
100
AcDbEntity
8
0
100
AcDbLine
10
-71.685738000000015
20
248.79434000000001
30
0
11
-68.295876000000007
21
248.95107999999999
31
0
0
LINE
5
438
100
AcDbEntity
8
0
100
AcDbLine
10
157.91887
20
610.30005000000006
30
0
11
157.85201000000001
21
605.57910000000004
31
0
0
LWPOLYLINE
5
439
100
AcDbEntity
8
0
100
AcDbPolyline
90
4
70
1
43
0.0
10
6.1742096000000002
20
470.49425999999994
42
-0.41421356000000187
10
3.4242095999999944
20
473.24425999999994
42
-0.41421355999998616
10
6.1742096000000002
20
475.99425999999994
42
-0.41421356000000209
10
8.9242095999999993
20
473.24425999999994
42
-0.41421355999998583
0
LINE
5
440
100
AcDbEntity
8
0
100
AcDbLine
10
174.01678000000001
20
621.11052999999993
30
0
11
173.99213
21
616.06200999999999
31
0
0
LINE
5
441
100
AcDbEntity
8
0
100
AcDbLine
10
-170.54568
20
506.98297000000002
30
0
11
-170.71943999999999
21
516.80829000000006
31
0
0
LINE
5
442
100
AcDbEntity
8
0
100
AcDbLine
10
-165.42041
20
247.14647999999997
30
0
11
-162.27161000000001
21
247.14647999999997
31
0
0
LINE
5
443
100
AcDbEntity
8
0
100
AcDbLine
10
127.88364
20
621.14990000000012
30
0
11
127.88364
21
616.10131999999999
31
0
0
LINE
5
444
100
AcDbEntity
8
0
100
AcDbLine
10
-165.31238000000002
20
482.63107000000002
30
0
11
-170.31238000000002
21
482.63107000000002
31
0
0
LINE
5
445
100
AcDbEntity
8
0
100
AcDbLine
10
-159.12278999999998
20
247.14647999999997
30
0
11
-155.97397000000001
21
247.14647999999997
31
0
0
LINE
5
446
100
AcDbEntity
8
0
100
AcDbLine
10
-183.88324
20
501.59627999999998
30
0
11
-179.84805
21
501.59627999999998
31
0
0
LINE
5
447
100
AcDbEntity
8
0
100
AcDbLine
10
-102.84120000000001
20
226.84766000000002
30
0
11
-102.84120000000001
21
224.98669000000001
31
0
0
LINE
5
448
100
AcDbEntity
8
0
100
AcDbLine
10
-75.544219999999996
20
511.83685000000003
30
0
11
-56.336146999999997
21
512.17212000000006
31
0
0
LINE
5
449
100
AcDbEntity
8
0
100
AcDbLine
10
-115.29761000000001
20
462.51769999999999
30
0
11
-120.29761000000001
21
462.51038
31
0
0
LINE
5
450
100
AcDbEntity
8
0
100
AcDbLine
10
-13.03952
20
208.85357999999999
30
0
11
-7.9094848999999998
21
208.85211000000001
31
0
0
LINE
5
451
100
AcDbEntity
8
0
100
AcDbLine
10
-63.122829000000003
20
452.3848900000001
30
0
11
-68.122818000000009
21
452.37752999999998
31
0
0
LINE
5
452
100
AcDbEntity
8
0
100
AcDbLine
10
-78.129631000000018
20
248.17365000000001
30
0
11
-73.068282999999994
21
248.61694
31
0
0
LINE
5
453
100
AcDbEntity
8
0
100
AcDbLine
10
-165.42291000000003
20
239.4537
30
0
11
-162.27411000000001
21
239.4537
31
0
0
LINE
5
454
100
AcDbEntity
8
0
100
AcDbLine
10
-99.897887999999995
20
398.86754999999999
30
0
11
-99.923385999999994
21
404.50662
31
0
0
LINE
5
455
100
AcDbEntity
8
0
100
AcDbLine
10
-27.393478000000005
20
187.44568999999998
30
0
11
-22.404572000000002
21
187.44429
31
0
0
LINE
5
456
100
AcDbEntity
8
0
100
AcDbLine
10
-105.31238000000002
20
482.63107000000002
30
0
11
-110.31238000000002
21
482.63107000000002
31
0
0
ARC
5
457
100
AcDbEntity
8
0
100
AcDbCircle
10
-108.89776563472681
20
398.82689802676902
30
0
40
8.9999694456694943
210
-0
220
0
230
1
100
AcDbArc
50
-88.413172094437215
51
0.25880025807983076
0
LINE
5
458
100
AcDbEntity
8
0
100
AcDbLine
10
-168.56923
20
237.85692000000006
30
0
11
-168.56923
21
235.01291000000003
31
0
0
LINE
5
459
100
AcDbEntity
8
0
100
AcDbLine
10
-89.218552000000017
20
166.16745000000003
30
0
11
-83.853256000000002
21
165.69029
31
0
0
LINE
5
460
100
AcDbEntity
8
0
100
AcDbLine
10
-94.345627000000007
20
443.16769000000011
30
0
11
-89.86094700000001
21
443.12262000000004
31
0
0
LINE
5
461
100
AcDbEntity
8
0
100
AcDbLine
10
-63.624568999999994
20
394.90053999999998
30
0
11
-58.624568999999994
21
394.90053999999998
31
0
0
LINE
5
462
100
AcDbEntity
8
0
100
AcDbLine
10
-101.33597
20
443.41943000000003
30
0
11
-120.36935
21
443.49564000000009
31
0
0
LINE
5
463
100
AcDbEntity
8
0
100
AcDbLine
10
-202.97076000000004
20
422.53335999999996
30
0
11
-203.29997000000003
21
462.77295000000004
31
0
0
LINE
5
464
100
AcDbEntity
8
0
100
AcDbLine
10
-118.52229
20
226.84766000000002
30
0
11
-118.52229
21
224.98669000000001
31
0
0
ARC
5
465
100
AcDbEntity
8
0
100
AcDbCircle
10
216.78129023749955
20
472.78800025462573
30
0
40
5.0000703064308194
210
0
220
-0
230
-1
100
AcDbArc
50
180.00951388343145
51
270.00824775476013
0
LINE
5
466
100
AcDbEntity
8
0
100
AcDbLine
10
-85.920394999999999
20
394.98955999999998
30
0
11
-75.55444300000002
21
395.10604999999998
31
0
0
LINE
5
467
100
AcDbEntity
8
0
100
AcDbLine
10
-13.122879000000003
20
452.45831000000004
30
0
11
-18.122879000000005
21
452.45092999999997
31
0
0
LINE
5
468
100
AcDbEntity
8
0
100
AcDbLine
10
-211.77948000000001
20
472.35437000000002
30
0
11
-211.7818
21
472.64380000000006
31
0
0
LINE
5
469
100
AcDbEntity
8
0
100
AcDbLine
10
-8.0343628000000002
20
512.00319999999999
30
0
11
-13.034363000000003
21
512.00329999999997
31
0
0
LINE
5
470
100
AcDbEntity
8
0
100
AcDbLine
10
-156.5282
20
521.57665999999995
30
0
11
-184.04941000000005
21
521.48297000000002
31
0
0
LINE
5
471
100
AcDbEntity
8
0
100
AcDbLine
10
-102.84120000000001
20
223.79037000000005
30
0
11
-102.84120000000001
21
222.16588999999999
31
0
0
LINE
5
472
100
AcDbEntity
8
0
100
AcDbLine
10
127.91895
20
631.58563000000004
30
0
11
127.91895
21
626.86469
31
0
0
LINE
5
473
100
AcDbEntity
8
0
100
AcDbLine
10
-118.52368
20
214.00934000000001
30
0
11
-118.52322000000001
21
215.63382000000004
31
0
0
LINE
5
474
100
AcDbEntity
8
0
100
AcDbLine
10
-187.90673999999999
20
482.31915000000004
30
0
11
-187.90738999999999
21
482.27731
31
0
0
LINE
5
475
100
AcDbEntity
8
0
100
AcDbLine
10
-59.090522999999997
20
249.82442000000006
30
0
11
-54.280724000000006
21
250.24854000000002
31
0
0
LINE
5
476
100
AcDbEntity
8
0
100
AcDbLine
10
-73.122818000000009
20
452.37024000000008
30
0
11
-78.122818000000009
21
452.36282000000006
31
0
0
LINE
5
477
100
AcDbEntity
8
0
100
AcDbLine
10
-222.57111000000003
20
477.26581000000004
30
0
11
-216.82037000000005
21
477.31310999999999
31
0
0
LINE
5
478
100
AcDbEntity
8
0
100
AcDbLine
10
-62.906769000000004
20
274.15231
30
0
11
-58.096962000000005
21
274.5764200000001
31
0
0
LINE
5
479
100
AcDbEntity
8
0
100
AcDbLine
10
-75.55444300000002
20
395.10604999999998
30
0
11
-75.455185
21
389.36957000000007
31
0
0
LINE
5
480
100
AcDbEntity
8
0
100
AcDbLine
10
-127.30544
20
443.53497000000004
30
0
11
-122.30544
21
443.54236000000003
31
0
0
LINE
5
481
100
AcDbEntity
8
0
100
AcDbLine
10
-44.625351000000002
20
228.88577000000001
30
0
11
-51.990036000000003
21
250.50520000000003
31
0
0
LINE
5
482
100
AcDbEntity
8
0
100
AcDbLine
10
-168.5746
20
199.95694
30
0
11
-168.57379000000003
21
202.80096
31
0
0
ARC
5
483
100
AcDbEntity
8
0
100
AcDbCircle
10
227.52352758683583
20
478.01885080144939
30
0
40
4.4999751665811818
210
0
220
0
230
-1
100
AcDbArc
50
1.2334790262332052
51
90.194649049626378
0
LINE
5
484
100
AcDbEntity
8
0
100
AcDbLine
10
-92.991714000000002
20
246.82822000000002
30
0
11
-87.566710999999998
21
247.31558000000001
31
0
0
LINE
5
485
100
AcDbEntity
8
0
100
AcDbLine
10
-199.40917999999999
20
525.99865999999997
30
0
11
-188.09204
21
526.11975000000007
31
0
0
LINE
5
486
100
AcDbEntity
8
0
100
AcDbLine
10
-102.84120000000001
20
221.0986
30
0
11
-102.84120000000001
21
219.43704
31
0
0
LINE
5
487
100
AcDbEntity
8
0
100
AcDbLine
10
1.6531218999999997
20
394.86862000000002
30
0
11
-9.629699699999998
21
395.12976000000009
31
0
0
LINE
5
488
100
AcDbEntity
8
0
100
AcDbLine
10
-99.10289800000001
20
246.27722000000006
30
0
11
-95.181572000000017
21
246.64774
31
0
0
LINE
5
489
100
AcDbEntity
8
0
100
AcDbLine
10
204.03204000000002
20
631.3999
30
0
11
204.00900000000004
21
626.67902000000004
31
0
0
LINE
5
490
100
AcDbEntity
8
0
100
AcDbLine
10
9.5698395000000005
20
187.45152000000002
30
0
11
14.239548000000003
21
187.4502
31
0
0
LINE
5
491
100
AcDbEntity
8
0
100
AcDbLine
10
0.98780823000000006
20
432.96597000000008
30
0
11
-3.0473938
21
432.9600200000001
31
0
0
LINE
5
492
100
AcDbEntity
8
0
100
AcDbLine
10
66.189255000000003
20
140.37384
30
0
11
66.189255000000003
21
136.1524
31
0
0
LINE
5
493
100
AcDbEntity
8
0
100
AcDbLine
10
9.5787354000000011
20
250.31192000000004
30
0
11
14.248444000000003
21
250.31192000000004
31
0
0
LINE
5
494
100
AcDbEntity
8
0
100
AcDbLine
10
-33.152518999999998
20
492.84047999999996
30
0
11
-38.152518999999998
21
492.84047999999996
31
0
0
LINE
5
495
100
AcDbEntity
8
0
100
AcDbLine
10
-118.52292
20
216.70107999999999
30
0
11
-118.52245000000002
21
218.36266000000001
31
0
0
ARC
5
496
100
AcDbEntity
8
0
100
AcDbCircle
10
-168.05433836635416
20
513.60725916792251
30
0
40
5.2873373637778789
210
0
220
0
230
1
100
AcDbArc
50
264.53785339825521
51
273.71296885908754
0
LINE
5
497
100
AcDbEntity
8
0
100
AcDbLine
10
-133.446
20
239.54080000000002
30
0
11
-128.61118000000002
21
239.54080000000002
31
0
0
LINE
5
498
100
AcDbEntity
8
0
100
AcDbLine
10
-135.29758999999999
20
462.48834000000011
30
0
11
-140.29758000000001
21
462.48102000000006
31
0
0
LINE
5
499
100
AcDbEntity
8
0
100
AcDbLine
10
-85.387389999999996
20
247.48302999999999
30
0
11
-80.021957
21
247.95867999999999
31
0
0
LINE
5
500
100
AcDbEntity
8
0
100
AcDbLine
10
-81.960991000000007
20
165.47478000000001
30
0
11
-76.928802000000019
21
164.99088
31
0
0
LINE
5
501
100
AcDbEntity
8
0
100
AcDbLine
10
174.03241000000003
20
631.54625999999996
30
0
11
174.00936999999999
21
626.82544000000007
31
0
0
LINE
5
502
100
AcDbEntity
8
0
100
AcDbLine
10
-118.52455
20
210.95202999999998
30
0
11
-118.52401999999999
21
212.81299000000001
31
0
0
LINE
5
503
100
AcDbEntity
8
0
100
AcDbLine
10
-177.81238000000002
20
482.63107000000002
30
0
11
-173.79156
21
482.64705999999995
31
0
0
LINE
5
504
100
AcDbEntity
8
0
100
AcDbLine
10
186.63626000000005
20
682.85156000000006
30
0
11
186.61746000000005
21
679.00109999999995
31
0
0
LINE
5
505
100
AcDbEntity
8
0
100
AcDbLine
10
-3.5814667
20
208.86717000000002
30
0
11
0.78381348000000017
21
208.86594000000002
31
0
0
ARC
5
506
100
AcDbEntity
8
0
100
AcDbCircle
10
-146.34581974789117
20
527.42643042824648
30
0
40
8.9999633045458953
210
0
220
-0
230
1
100
AcDbArc
50
0.94478768329795315
51
90.944855686074874
0
LINE
5
507
100
AcDbEntity
8
0
100
AcDbLine
10
-85.395477
20
190.30727999999999
30
0
11
-80.030190000000005
21
189.83011000000002
31
0
0
LINE
5
508
100
AcDbEntity
8
0
100
AcDbLine
10
66.131423999999996
20
133.26238999999998
30
0
11
66.131423999999996
21
127.02837000000001
31
0
0
LINE
5
509
100
AcDbEntity
8
0
100
AcDbLine
10
-183.74218999999999
20
478.26552999999996
30
0
11
-183.72476000000003
21
473.96255000000002
31
0
0
LINE
5
510
100
AcDbEntity
8
0
100
AcDbLine
10
71.862076000000002
20
214.53030000000001
30
0
11
71.863082999999989
21
218.07177999999999
31
0
0
LINE
5
511
100
AcDbEntity
8
0
100
AcDbLine
10
-102.62456999999999
20
404.40054000000003
30
0
11
-107.62456999999999
21
404.40054000000003
31
0
0
LINE
5
512
100
AcDbEntity
8
0
100
AcDbLine
10
-168.49615
20
229.99843999999999
30
0
11
-168.49615
21
233.36636000000001
31
0
0
LINE
5
513
100
AcDbEntity
8
0
100
AcDbLine
10
-133.45184
20
198.26312000000001
30
0
11
-128.61700000000002
21
198.26175000000003
31
0
0
LINE
5
514
100
AcDbEntity
8
0
100
AcDbLine
10
-196.94211000000001
20
482.21496999999999
30
0
11
-200.94211000000001
21
482.20789000000002
31
0
0
ARC
5
515
100
AcDbEntity
8
0
100
AcDbCircle
10
-109.90883318708805
20
527.52109372565553
30
0
40
9.0000206288086968
210
0
220
-0
230
1
100
AcDbArc
50
1.3058571562140828
51
90.893509728595092
0
LINE
5
516
100
AcDbEntity
8
0
100
AcDbLine
10
-117.88478000000001
20
198.25871000000004
30
0
11
-112.52279
21
198.25720000000004
31
0
0
LINE
5
517
100
AcDbEntity
8
0
100
AcDbLine
10
-125.23589000000001
20
198.26078999999999
30
0
11
-121.4306
21
198.25970000000001
31
0
0
ARC
5
518
100
AcDbEntity
8
0
100
AcDbCircle
10
-147.64904044477802
20
527.40491460124417
30
0
40
8.9999240616719209
210
0
220
0
230
1
100
AcDbArc
50
136.07488844797416
51
181.20626840025633
0
LINE
5
519
100
AcDbEntity
8
0
100
AcDbLine
10
-118.52229
20
223.79037000000005
30
0
11
-118.52229
21
222.16588999999999
31
0
0
LINE
5
520
100
AcDbEntity
8
0
100
AcDbLine
10
-86.623222384539545
20
541.14799193742033
30
0
11
-95.76596861546048
21
541.23823806257963
31
0
0
LINE
5
521
100
AcDbEntity
8
0
100
AcDbLine
10
-183.30824000000001
20
423.78467000000001
30
0
11
-183.30684000000002
21
423.78467000000001
31
0
0
LINE
5
522
100
AcDbEntity
8
0
100
AcDbLine
10
-146.49423000000002
20
536.42517000000009
30
0
11
-147.79733000000002
21
536.40368999999998
31
0
0
LINE
5
523
100
AcDbEntity
8
0
100
AcDbLine
10
-164.45480000000001
20
504.52135999999996
30
0
11
-170.54568
21
506.98297000000002
31
0
0
LINE
5
524
100
AcDbEntity
8
0
100
AcDbLine
10
-127.34804
20
501.59619000000009
30
0
11
-122.34805000000001
21
501.59619000000009
31
0
0
CIRCLE
5
525
100
AcDbEntity
8
0
100
AcDbCircle
10
-1.0616913000000001
20
242.55125000000004
30
0
40
3.4738767000000004
210
0
220
0
230
1
0
CIRCLE
5
526
100
AcDbEntity
8
0
100
AcDbCircle
10
-1.0683898999999999
20
195.21518
30
0
40
3.4738767000000004
210
0
220
0
230
1
0
CIRCLE
5
527
100
AcDbEntity
8
0
100
AcDbCircle
10
-128.22138999999999
20
184.48260000000002
30
0
40
3.2078176000000003
210
0
220
0
230
1
0
CIRCLE
5
528
100
AcDbEntity
8
0
100
AcDbCircle
10
-146.45261000000002
20
151.14534
30
0
40
3.1069093000000003
210
0
220
0
230
1
0
CIRCLE
5
529
100
AcDbEntity
8
0
100
AcDbCircle
10
-128.20189999999999
20
253.30843999999999
30
0
40
3.2078176000000003
210
0
220
0
230
1
0
CIRCLE
5
530
100
AcDbEntity
8
0
100
AcDbCircle
10
-146.41425000000001
20
286.65601000000004
30
0
40
3.1069093000000003
210
0
220
0
230
1
0
LINE
5
531
100
AcDbEntity
8
0
100
AcDbLine
10
-85.205395008007159
20
546.05569172231162
30
0
11
1.5835936714700374
21
546.19779169512969
31
0
0
LINE
5
532
100
AcDbEntity
8
0
100
AcDbLine
10
-86.623222384539545
20
541.14799193742033
30
0
11
-85.323594531768094
21
541.11688817075697
31
0
0
LINE
5
533
100
AcDbEntity
8
0
100
AcDbLine
10
-85.323594531768094
20
541.11688817075697
30
0
11
-85.205395008007159
21
546.05569172231162
31
0
0
ENDSEC
0
SECTION
2
OBJECTS
0
DICTIONARY
5
C
100
AcDbDictionary
3
ACAD_GROUP
350
D
3
ACAD_MLINESTYLE
350
17
0
DICTIONARY
5
D
100
AcDbDictionary
0
DICTIONARY
5
1A
330
C
100
AcDbDictionary
0
DICTIONARY
5
17
100
AcDbDictionary
0
ENDSEC
0
EOF
