0
SECTION
2
HEADER
9
$INSUNITS
70
4
9
$ACADVER
1
AC1014
9
$HANDSEED
5
FFFF
0
ENDSEC
0
SECTION
2
TABLES
0
TABLE
2
VPORT
5
8
100
AcDbSymbolTable
0
ENDTAB
0
TABLE
2
LTYPE
5
5
100
AcDbSymbolTable
0
LTYPE
5
14
100
AcDbSymbolTableRecord
100
AcDbLinetypeTableRecord
2
BYBLOCK
70
0
0
LTYPE
5
15
100
AcDbSymbolTableRecord
100
AcDbLinetypeTableRecord
2
BYLAYER
70
0
0
LTYPE
5
16
100
AcDbSymbolTableRecord
100
AcDbLinetypeTableRecord
2
DASHED
70
0
3
Dashed __ __ __ __ __ __ __ __ __ __ __ __ __ _
72
65
73
2
40
0.75
49
0.5
74
0
49
-0.25
74
0
0
ENDTAB
0
TABLE
2
LAYER
5
2
100
AcDbSymbolTable
70
2
0
LAYER
5
50
100
AcDbSymbolTableRecord
100
AcDbLayerTableRecord
2
0
70
0
62
7
6
CONTINUOUS
0
ENDTAB
0
TABLE
2
STYLE
5
3
100
AcDbSymbolTable
70
1
0
STYLE
5
11
100
AcDbSymbolTableRecord
100
AcDbTextStyleTableRecord
2
STANDARD
70
0
0
ENDTAB
0
TABLE
2
VIEW
5
6
100
AcDbSymbolTable
70
0
0
ENDTAB
0
TABLE
2
UCS
5
7
100
AcDbSymbolTable
70
0
0
ENDTAB
0
TABLE
2
APPID
5
9
100
AcDbSymbolTable
70
2
0
APPID
5
12
100
AcDbSymbolTableRecord
100
AcDbRegAppTableRecord
2
ACAD
70
0
0
ENDTAB
0
TABLE
2
DIMSTYLE
5
A
100
AcDbSymbolTable
70
1
0
ENDTAB
0
TABLE
2
BLOCK_RECORD
5
1
100
AcDbSymbolTable
70
1
0
BLOCK_RECORD
5
1F
100
AcDbSymbolTableRecord
100
AcDbBlockTableRecord
2
*MODEL_SPACE
0
BLOCK_RECORD
5
1B
100
AcDbSymbolTableRecord
100
AcDbBlockTableRecord
2
*PAPER_SPACE
0
ENDTAB
0
ENDSEC
0
SECTION
2
BLOCKS
0
BLOCK
5
20
100
AcDbEntity
100
AcDbBlockBegin
2
*MODEL_SPACE
0
ENDBLK
5
21
100
AcDbEntity
100
AcDbBlockEnd
0
BLOCK
5
1C
100
AcDbEntity
100
AcDbBlockBegin
2
*PAPER_SPACE
0
ENDBLK
5
1D
100
AcDbEntity
100
AcDbBlockEnd
0
ENDSEC
0
SECTION
2
ENTITIES
0
POINT
5
100
100
AcDbEntity
8
0
100
AcDbPoint
10
138.99720738929435
20
-100.60316442814334
30
0
0
POINT
5
101
100
AcDbEntity
8
0
100
AcDbPoint
10
-8.2462637570308743
20
-0.055000002612359822
30
0
0
LINE
5
102
100
AcDbEntity
8
0
100
AcDbLine
10
-4.7982859787300924
20
-35.268758749911754
30
0
11
16.687356210691
21
-23.863372464024462
31
0
0
LINE
5
103
100
AcDbEntity
8
0
100
AcDbLine
10
16.687356210691
20
-23.863372464024462
30
0
11
34.316217741837463
21
-23.863372464024462
31
0
0
LINE
5
104
100
AcDbEntity
8
0
100
AcDbLine
10
34.316217741837463
20
-23.863372464024462
30
0
11
34.316217741837463
21
-43.091402436440688
31
0
0
LINE
5
105
100
AcDbEntity
8
0
100
AcDbLine
10
34.316217741837463
20
-43.091402436440688
30
0
11
22.854457701803899
21
-43.091402436440688
31
0
0
LINE
5
106
100
AcDbEntity
8
0
100
AcDbLine
10
22.854457701803899
20
-43.091402436440688
30
0
11
22.854457701803899
21
-67.806500653791517
31
0
0
LINE
5
107
100
AcDbEntity
8
0
100
AcDbLine
10
22.854457701803899
20
-67.806500653791517
30
0
11
17.921306830909263
21
-71.201883731835181
31
0
0
LINE
5
108
100
AcDbEntity
8
0
100
AcDbLine
10
17.921306830909263
20
-71.201883731835181
30
0
11
17.921306830909263
21
-90.496693586830929
31
0
0
LINE
5
109
100
AcDbEntity
8
0
100
AcDbLine
10
17.921306830909263
20
-90.496693586830929
30
0
11
68.117474510702507
21
-90.496693586830929
31
0
0
LINE
5
110
100
AcDbEntity
8
0
100
AcDbLine
10
68.117474510702507
20
-90.496693586830929
30
0
11
68.117474510702507
21
-89.194391754888557
31
0
0
LINE
5
111
100
AcDbEntity
8
0
100
AcDbLine
10
68.117474510702507
20
-89.194391754888557
30
0
11
19.772854016313364
21
-89.427691050056467
31
0
0
LINE
5
112
100
AcDbEntity
8
0
100
AcDbLine
10
19.772854016313364
20
-89.427691050056467
30
0
11
19.772854016313364
21
-78.770904837411024
31
0
0
LINE
5
113
100
AcDbEntity
8
0
100
AcDbLine
10
19.772854016313364
20
-78.770904837411024
30
0
11
35.549265963283894
21
-57.348165111616972
31
0
0
LINE
5
114
100
AcDbEntity
8
0
100
AcDbLine
10
35.549265963283894
20
-57.348165111616972
30
0
11
51.880361208673378
21
-57.348165111616972
31
0
0
LINE
5
115
100
AcDbEntity
8
0
100
AcDbLine
10
51.880361208673378
20
-57.348165111616972
30
0
11
61.512729834715515
21
-78.761339252978374
31
0
0
LINE
5
116
100
AcDbEntity
8
0
100
AcDbLine
10
61.512729834715515
20
-78.761339252978374
30
0
11
69.923619489443638
21
-72.202706955243187
31
0
0
LINE
5
117
100
AcDbEntity
8
0
100
AcDbLine
10
69.923619489443638
20
-72.202706955243187
30
0
11
66.387062537438851
21
-48.125558165147226
31
0
0
LINE
5
118
100
AcDbEntity
8
0
100
AcDbLine
10
66.387062537438851
20
-48.125558165147226
30
0
11
63.863707408108013
21
-20.996479887822581
31
0
0
LINE
5
119
100
AcDbEntity
8
0
100
AcDbLine
10
63.863707408108013
20
-20.996479887822581
30
0
11
118.83112160745775
21
-11.404637837850036
31
0
0
LINE
5
120
100
AcDbEntity
8
0
100
AcDbLine
10
118.83112160745775
20
-11.404637837850036
30
0
11
120.24001333214218
21
-20.996479887822581
31
0
0
LINE
5
121
100
AcDbEntity
8
0
100
AcDbLine
10
120.24001333214218
20
-20.996479887822581
30
0
11
114.85663586134393
21
-43.665595370267816
31
0
0
LINE
5
122
100
AcDbEntity
8
0
100
AcDbLine
10
114.85663586134393
20
-43.665595370267816
30
0
11
119.05505417152196
21
-67.806500653791517
31
0
0
LINE
5
123
100
AcDbEntity
8
0
100
AcDbLine
10
119.05505417152196
20
-67.806500653791517
30
0
11
126.41974088984051
21
-89.425929937170636
31
0
0
LINE
5
124
100
AcDbEntity
8
0
100
AcDbLine
10
119.05505417152196
20
-67.806500653791517
30
0
11
127.83506597813479
21
-54.473718144089524
31
0
0
LINE
5
125
100
AcDbEntity
8
0
100
AcDbLine
10
127.83506597813479
20
-54.473718144089524
30
0
11
151.59279607540174
21
-54.473718144089524
31
0
0
LINE
5
126
100
AcDbEntity
8
0
100
AcDbLine
10
151.59279607540174
20
-54.473718144089524
30
0
11
160.83014007636851
21
-67.903579993442449
31
0
0
LINE
5
127
100
AcDbEntity
8
0
100
AcDbLine
10
160.83014007636851
20
-67.903579993442449
30
0
11
172.34949109636523
21
-67.903579993442449
31
0
0
LINE
5
128
100
AcDbEntity
8
0
100
AcDbLine
10
172.34949109636523
20
-67.903579993442449
30
0
11
180.99437790622108
21
-54.473718144089524
31
0
0
LINE
5
129
100
AcDbEntity
8
0
100
AcDbLine
10
180.99437790622108
20
-54.473718144089524
30
0
11
205.12262953017171
21
-54.473718144089524
31
0
0
LINE
5
130
100
AcDbEntity
8
0
100
AcDbLine
10
205.12262953017171
20
-54.473718144089524
30
0
11
214.16889017084242
21
-67.913111950429453
31
0
0
LINE
5
131
100
AcDbEntity
8
0
100
AcDbLine
10
214.16889017084242
20
-67.913111950429453
30
0
11
214.16889017084242
21
-79.352151006781128
31
0
0
LINE
5
132
100
AcDbEntity
8
0
100
AcDbLine
10
214.16889017084242
20
-79.352151006781128
30
0
11
191.83753591903633
21
-89.336377637825677
31
0
0
LINE
5
133
100
AcDbEntity
8
0
100
AcDbLine
10
191.83753591903633
20
-89.336377637825677
30
0
11
226.64863920702862
21
-89.336377637825677
31
0
0
LINE
5
134
100
AcDbEntity
8
0
100
AcDbLine
10
226.64863920702862
20
-89.336377637825677
30
0
11
225.92013750956886
21
-81.156317478022089
31
0
0
LINE
5
135
100
AcDbEntity
8
0
100
AcDbLine
10
225.92013750956886
20
-81.156317478022089
30
0
11
221.19440566260636
21
-78.114334070524052
31
0
0
LINE
5
136
100
AcDbEntity
8
0
100
AcDbLine
10
221.19440566260636
20
-78.114334070524052
30
0
11
221.19440566260636
21
-67.592760575738694
31
0
0
LINE
5
137
100
AcDbEntity
8
0
100
AcDbLine
10
221.19440566260636
20
-67.592760575738694
30
0
11
215.24692579388216
21
-67.592760575738694
31
0
0
LINE
5
138
100
AcDbEntity
8
0
100
AcDbLine
10
215.24692579388216
20
-67.592760575738694
30
0
11
215.24692579388216
21
-53.740622165861083
31
0
0
LINE
5
139
100
AcDbEntity
8
0
100
AcDbLine
10
215.24692579388216
20
-53.740622165861083
30
0
11
240.69027867567542
21
-57.699957176337485
31
0
0
LINE
5
140
100
AcDbEntity
8
0
100
AcDbLine
10
240.69027867567542
20
-57.699957176337485
30
0
11
242.9631821939752
21
-88.487425135046053
31
0
0
LINE
5
141
100
AcDbEntity
8
0
100
AcDbLine
10
242.9631821939752
20
-88.487425135046053
30
0
11
249.40119836562801
21
-57.970164688922466
31
0
0
LINE
5
142
100
AcDbEntity
8
0
100
AcDbLine
10
249.40119836562801
20
-57.970164688922466
30
0
11
258.65246298494162
21
-57.970164688922466
31
0
0
LINE
5
143
100
AcDbEntity
8
0
100
AcDbLine
10
258.65246298494162
20
-57.970164688922466
30
0
11
265.46088953376653
21
-92.247031834744902
31
0
0
LINE
5
144
100
AcDbEntity
8
0
100
AcDbLine
10
265.46088953376653
20
-92.247031834744902
30
0
11
282.79336826846537
21
-92.247031834744902
31
0
0
LINE
5
145
100
AcDbEntity
8
0
100
AcDbLine
10
282.79336826846537
20
-92.247031834744902
30
0
11
282.79336826846537
21
-99.444450928841633
31
0
0
LINE
5
146
100
AcDbEntity
8
0
100
AcDbLine
10
-4.7982859787300924
20
-35.268758749911754
30
0
11
-4.7982859787300924
21
-71.165233410431867
31
0
0
LINE
5
147
100
AcDbEntity
8
0
100
AcDbLine
10
-4.7982859787300924
20
-71.165233410431867
30
0
11
2.4758582573685572
21
-71.165233410431867
31
0
0
LINE
5
148
100
AcDbEntity
8
0
100
AcDbLine
10
2.4758582573685572
20
-71.165233410431867
30
0
11
2.4758582573685572
21
-78.85799282976491
31
0
0
LINE
5
149
100
AcDbEntity
8
0
100
AcDbLine
10
2.4758582573685572
20
-78.85799282976491
30
0
11
-1.5426183315460129
21
-78.85799282976491
31
0
0
LINE
5
150
100
AcDbEntity
8
0
100
AcDbLine
10
-1.5426183315460129
20
-78.85799282976491
30
0
11
-1.5426183315460129
21
-90.477958986229069
31
0
0
LINE
5
151
100
AcDbEntity
8
0
100
AcDbLine
10
-1.5426183315460129
20
-90.477958986229069
30
0
11
2.5489365332569847
21
-90.477958986229069
31
0
0
LINE
5
152
100
AcDbEntity
8
0
100
AcDbLine
10
2.5489365332569847
20
-90.477958986229069
30
0
11
2.5489365332569847
21
-99.404786830466378
31
0
0
CIRCLE
5
153
100
AcDbEntity
8
0
100
AcDbCircle
10
169.9834022041222
20
-75.760449350799519
30
0
40
3.4738766988331622
210
0
220
0
230
1
0
LINE
5
154
100
AcDbEntity
8
0
100
AcDbLine
10
5.6246720603835598
20
-71.165233410431867
30
0
11
8.7734858633985624
21
-71.165233410431867
31
0
0
LINE
5
155
100
AcDbEntity
8
0
100
AcDbLine
10
11.922299666413565
20
-71.165233410431867
30
0
11
15.071113469428568
21
-71.165233410431867
31
0
0
LINE
5
156
100
AcDbEntity
8
0
100
AcDbLine
10
5.6221736273251999
20
-78.85799282976491
30
0
11
8.7709874303402025
21
-78.85799282976491
31
0
0
LINE
5
157
100
AcDbEntity
8
0
100
AcDbLine
10
11.919801233355205
20
-78.85799282976491
30
0
11
15.068615036370208
21
-78.85799282976491
31
0
0
LINE
5
158
100
AcDbEntity
8
0
100
AcDbLine
10
2.4758582573685572
20
-80.454784771799481
30
0
11
2.4758582573685572
21
-83.298806825351306
31
0
0
LINE
5
159
100
AcDbEntity
8
0
100
AcDbLine
10
2.5489365332569847
20
-88.313266761876889
30
0
11
2.5489365332569847
21
-84.945345908986582
31
0
0
LINE
5
160
100
AcDbEntity
8
0
100
AcDbLine
10
22.637418443887736
20
-78.770904837411024
30
0
11
26.18324929987077
21
-78.770904837411024
31
0
0
LINE
5
161
100
AcDbEntity
8
0
100
AcDbLine
10
29.556112797025325
20
-78.770904837411024
30
0
11
34.037083390416726
21
-78.770904837411024
31
0
0
LINE
5
162
100
AcDbEntity
8
0
100
AcDbLine
10
37.599094982547726
20
-78.770904837411024
30
0
11
42.433920010772809
21
-78.770904837411024
31
0
0
LINE
5
163
100
AcDbEntity
8
0
100
AcDbLine
10
45.815044526898575
20
-78.770904837411024
30
0
11
49.620326421124226
21
-78.770904837411024
31
0
0
LINE
5
164
100
AcDbEntity
8
0
100
AcDbLine
10
53.166157277107224
20
-78.770904837411024
30
0
11
58.52814540078883
21
-78.770904837411024
31
0
0
LINE
5
165
100
AcDbEntity
8
0
100
AcDbLine
10
52.522793260314785
20
-91.464040644356857
30
0
11
52.522793260314785
21
-93.32500621400132
31
0
0
LINE
5
166
100
AcDbEntity
8
0
100
AcDbLine
10
52.522793260314785
20
-94.521341223058485
30
0
11
52.522793260314785
21
-96.14582424749328
31
0
0
LINE
5
167
100
AcDbEntity
8
0
100
AcDbLine
10
52.522793260314785
20
-97.213094993437096
30
0
11
52.522793260314785
21
-98.874671394905363
31
0
0
LINE
5
168
100
AcDbEntity
8
0
100
AcDbLine
10
68.203885999329486
20
-97.213094993437096
30
0
11
68.203885999329486
21
-98.874671394905363
31
0
0
LINE
5
169
100
AcDbEntity
8
0
100
AcDbLine
10
68.203885999329486
20
-94.521341223058485
30
0
11
68.203885999329486
21
-96.14582424749328
31
0
0
LINE
5
170
100
AcDbEntity
8
0
100
AcDbLine
10
68.203885999329486
20
-91.464040644356857
30
0
11
68.203885999329486
21
-93.32500621400132
31
0
0
LINE
5
171
100
AcDbEntity
8
0
100
AcDbLine
10
68.092680994844542
20
-48.02664778490508
30
0
11
72.014013984291466
21
-47.656128132358901
31
0
0
LINE
5
172
100
AcDbEntity
8
0
100
AcDbLine
10
74.237131899568453
20
-47.409115030661468
30
0
11
79.662136913744519
21
-46.921745706374701
31
0
0
LINE
5
173
100
AcDbEntity
8
0
100
AcDbLine
10
81.841462595488181
20
-46.687764021818538
30
0
11
87.206890329544962
21
-46.212116381491654
31
0
0
LINE
5
174
100
AcDbEntity
8
0
100
AcDbLine
10
89.099216725549795
20
-45.997146804663586
30
0
11
94.131545931838446
21
-45.514669054641942
31
0
0
LINE
5
175
100
AcDbEntity
8
0
100
AcDbLine
10
95.543114172353029
20
-45.376469902398838
30
0
11
98.856913505034896
21
-45.050522427053075
31
0
0
LINE
5
176
100
AcDbEntity
8
0
100
AcDbLine
10
101.30151957012806
20
-44.833224110155896
30
0
11
106.2641252522761
21
-44.349540196954358
31
0
0
LINE
5
177
100
AcDbEntity
8
0
100
AcDbLine
10
108.13832323551422
20
-44.15940416966933
30
0
11
112.94812695471926
21
-43.735280941046796
31
0
0
LINE
5
178
100
AcDbEntity
8
0
100
AcDbLine
10
71.942188332093849
20
-72.034483906029863
30
0
11
75.863521321540745
21
-71.663964253483684
31
0
0
LINE
5
179
100
AcDbEntity
8
0
100
AcDbLine
10
78.053371811320204
20
-71.483486002781376
30
0
11
83.478376825496269
21
-70.996116678494602
31
0
0
LINE
5
180
100
AcDbEntity
8
0
100
AcDbLine
10
85.657702507239932
20
-70.828669844933557
30
0
11
91.023130241296684
21
-70.353022204606674
31
0
0
LINE
5
181
100
AcDbEntity
8
0
100
AcDbLine
10
92.915456637301531
20
-70.13805262777862
30
0
11
97.976802922928528
21
-69.694768293802653
31
0
0
LINE
5
182
100
AcDbEntity
8
0
100
AcDbLine
10
99.359354084104751
20
-69.517375725513858
30
0
11
102.74921145120068
21
-69.360622684507305
31
0
0
LINE
5
183
100
AcDbEntity
8
0
100
AcDbLine
10
105.11775948187977
20
-69.067619457007254
30
0
11
110.08036516402782
21
-68.583935543805723
31
0
0
LINE
5
184
100
AcDbEntity
8
0
100
AcDbLine
10
111.95456314726592
20
-68.487289040257025
30
0
11
116.76436686647097
21
-68.063165811634491
31
0
0
LINE
5
185
100
AcDbEntity
8
0
100
AcDbLine
10
121.28385489150423
20
-67.999789342658929
30
0
11
125.64914124042824
21
-67.999789342658929
31
0
0
LINE
5
186
100
AcDbEntity
8
0
100
AcDbLine
10
128.14359058267053
20
-67.999789342658943
30
0
11
132.8132977406116
21
-67.999789342658943
31
0
0
LINE
5
187
100
AcDbEntity
8
0
100
AcDbLine
10
136.59070312799099
20
-67.943097312153427
30
0
11
141.15344233046216
21
-67.943097312153427
31
0
0
LINE
5
188
100
AcDbEntity
8
0
100
AcDbLine
10
143.66051469978606
20
-67.98350625500531
30
0
11
148.64941338427064
21
-67.98350625500531
31
0
0
LINE
5
189
100
AcDbEntity
8
0
100
AcDbLine
10
151.71078303156798
20
-67.98350625500531
30
0
11
156.84081896312426
21
-67.98350625500531
31
0
0
LINE
5
190
100
AcDbEntity
8
0
100
AcDbLine
10
204.19101308181803
20
-67.98350625500531
30
0
11
209.32104901337428
21
-67.98350625500531
31
0
0
LINE
5
191
100
AcDbEntity
8
0
100
AcDbLine
10
180.62382063292051
20
-67.999789342658943
30
0
11
185.29352779086162
21
-67.999789342658943
31
0
0
LINE
5
192
100
AcDbEntity
8
0
100
AcDbLine
10
173.76408494175425
20
-67.999789342658929
30
0
11
178.12937129067825
21
-67.999789342658929
31
0
0
LINE
5
193
100
AcDbEntity
8
0
100
AcDbLine
10
196.14074475003608
20
-67.98350625500531
30
0
11
201.12964343452066
21
-67.98350625500531
31
0
0
LINE
5
194
100
AcDbEntity
8
0
100
AcDbLine
10
189.07093317824098
20
-67.943097312153427
30
0
11
193.63367238071217
21
-67.943097312153427
31
0
0
LINE
5
195
100
AcDbEntity
8
0
100
AcDbLine
10
158.00841063759799
20
-89.395440115507313
30
0
11
163.13844656915427
21
-89.395440115507313
31
0
0
LINE
5
196
100
AcDbEntity
8
0
100
AcDbLine
10
134.44121818870053
20
-89.411723203160932
30
0
11
139.11092534664158
21
-89.411723203160932
31
0
0
LINE
5
197
100
AcDbEntity
8
0
100
AcDbLine
10
127.58148249753424
20
-89.411723203160932
30
0
11
131.94676884645821
21
-89.411723203160932
31
0
0
LINE
5
198
100
AcDbEntity
8
0
100
AcDbLine
10
149.95814230581607
20
-89.395440115507313
30
0
11
154.94704099030065
21
-89.395440115507313
31
0
0
LINE
5
199
100
AcDbEntity
8
0
100
AcDbLine
10
142.888330734021
20
-89.35503117265543
30
0
11
147.45106993649216
21
-89.35503117265543
31
0
0
LINE
5
200
100
AcDbEntity
8
0
100
AcDbLine
10
182.77330557221097
20
-89.35503117265543
30
0
11
187.33604477468216
21
-89.35503117265543
31
0
0
LINE
5
201
100
AcDbEntity
8
0
100
AcDbLine
10
174.32619302689051
20
-89.411723203160932
30
0
11
178.99590018483161
21
-89.411723203160932
31
0
0
LINE
5
202
100
AcDbEntity
8
0
100
AcDbLine
10
167.46645733572424
20
-89.411723203160932
30
0
11
171.83174368464825
21
-89.411723203160932
31
0
0
LINE
5
203
100
AcDbEntity
8
0
100
AcDbLine
10
242.90839432177398
20
-89.848196782226211
30
0
11
242.90839432177398
21
-93.557031798273087
31
0
0
LINE
5
204
100
AcDbEntity
8
0
100
AcDbLine
10
242.90839432177398
20
-95.096219669948766
30
0
11
242.90839432177398
21
-98.637684134989883
31
0
0
LINE
5
205
100
AcDbEntity
8
0
100
AcDbLine
10
265.53827758722315
20
-93.018303903984133
30
0
11
265.53827758722315
21
-95.096219669948766
31
0
0
LINE
5
206
100
AcDbEntity
8
0
100
AcDbLine
10
265.48348945426494
20
-96.469956280348896
30
0
11
265.48314050715931
21
-98.935422214078756
31
0
0
LINE
5
207
100
AcDbEntity
8
0
100
AcDbLine
10
242.90567952846573
20
-109.02941453626286
30
0
11
242.90672938050437
21
-105.32057966880569
31
0
0
LINE
5
208
100
AcDbEntity
8
0
100
AcDbLine
10
51.868454353825427
20
-141.47537100581761
30
0
11
61.506883975613668
21
-120.06492433644462
31
0
0
LINE
5
209
100
AcDbEntity
8
0
100
AcDbLine
10
2.4678645499803409
20
-127.6443184330075
30
0
11
2.4700421230252623
21
-119.95155932187495
31
0
0
LINE
5
210
100
AcDbEntity
8
0
100
AcDbLine
10
17.913322879247495
20
-127.61204022334503
30
0
11
17.918784620029662
21
-108.31723114137093
31
0
0
LINE
5
211
100
AcDbEntity
8
0
100
AcDbLine
10
205.10990287228111
20
-144.39319582110417
30
0
11
214.15996741114185
21
-130.95636325895276
31
0
0
LINE
5
212
100
AcDbEntity
8
0
100
AcDbLine
10
61.506883975613668
20
-120.06492433644462
30
0
11
69.915916755277181
21
-126.62593722405978
31
0
0
LINE
5
213
100
AcDbEntity
8
0
100
AcDbLine
10
119.0461050442017
20
-131.03605088008723
30
0
11
127.82234241667084
21
-144.37131819489395
31
0
0
LINE
5
214
100
AcDbEntity
8
0
100
AcDbLine
10
214.16320543559465
20
-119.51732466089146
30
0
11
191.8346782922597
21
-109.5267771409068
31
0
0
LINE
5
215
100
AcDbEntity
8
0
100
AcDbLine
10
63.841510078952922
20
-177.83044687354661
30
0
11
118.80620693377855
21
-187.43784804824625
31
0
0
LINE
5
216
100
AcDbEntity
8
0
100
AcDbLine
10
101.28606815755731
20
-154.00430104805349
30
0
11
106.24853672550854
21
-154.48938969611095
31
0
0
LINE
5
217
100
AcDbEntity
8
0
100
AcDbLine
10
149.95530307557328
20
-109.45585995472625
30
0
11
154.94420156018407
21
-109.45727215166458
31
0
0
LINE
5
218
100
AcDbEntity
8
0
100
AcDbLine
10
118.80620693377855
20
-187.43784804824625
30
0
11
120.21781374434309
21
-177.84640519454203
31
0
0
LINE
5
219
100
AcDbEntity
8
0
100
AcDbLine
10
-4.8164405334130755
20
-163.53873257884612
30
0
11
-4.8062793946891524
21
-127.64225935647201
31
0
0
LINE
5
220
100
AcDbEntity
8
0
100
AcDbLine
10
265.45885287005717
20
-106.63696346669688
30
0
11
282.79133091035254
21
-106.64186973458305
31
0
0
LINE
5
221
100
AcDbEntity
8
0
100
AcDbLine
10
225.9149630050878
20
-117.71648466251931
30
0
11
221.18837025968327
21
-120.75713024528272
31
0
0
LINE
5
222
100
AcDbEntity
8
0
100
AcDbLine
10
172.34056731391419
20
-130.95405748721922
30
0
11
180.98165221499784
21
-144.3863658882421
31
0
0
LINE
5
223
100
AcDbEntity
8
0
100
AcDbLine
10
22.631576849984789
20
-120.04435440069454
30
0
11
26.177407563908641
21
-120.04535811149232
31
0
0
LINE
5
224
100
AcDbEntity
8
0
100
AcDbLine
10
215.2379123098093
20
-131.27701977805972
30
0
11
215.23399121445556
21
-145.12915763296925
31
0
0
LINE
5
225
100
AcDbEntity
8
0
100
AcDbLine
10
258.64072391413316
20
-140.91190199244039
30
0
11
265.45885287005717
21
-106.63696346669688
31
0
0
LINE
5
226
100
AcDbEntity
8
0
100
AcDbLine
10
68.203262971402324
20
-101.61506338657395
30
0
11
68.203733310299839
21
-99.953487051674585
31
0
0
LINE
5
227
100
AcDbEntity
8
0
100
AcDbLine
10
22.845512428636532
20
-131.00881958188037
30
0
11
17.913322879247495
21
-127.61204022334503
31
0
0
LINE
5
228
100
AcDbEntity
8
0
100
AcDbLine
10
68.114950288778175
20
-108.33144006377985
30
0
11
68.114581648968795
21
-109.6337418435472
31
0
0
LINE
5
229
100
AcDbEntity
8
0
100
AcDbLine
10
174.32335742959222
20
-109.44647468000741
30
0
11
178.99306440044745
21
-109.44779652407931
31
0
0
LINE
5
230
100
AcDbEntity
8
0
100
AcDbLine
10
151.58007156211494
20
-144.37804324501565
30
0
11
160.82121675542541
21
-130.95079672902969
31
0
0
LINE
5
231
100
AcDbEntity
8
0
100
AcDbLine
10
127.5786487730025
20
-109.43324275423221
30
0
11
131.94393494703692
21
-109.43447842655326
31
0
0
LINE
5
232
100
AcDbEntity
8
0
100
AcDbLine
10
95.527816765916185
20
-153.4594252580082
30
0
11
98.841523700576474
21
-153.78631075042333
31
0
0
LINE
5
233
100
AcDbEntity
8
0
100
AcDbLine
10
114.84085338752126
20
-155.1757667590964
30
0
11
119.0461050442017
21
-131.03605088008723
31
0
0
LINE
5
234
100
AcDbEntity
8
0
100
AcDbLine
10
74.222410723261007
20
-151.42074917210053
30
0
11
79.647277561493325
21
-151.90965412149086
31
0
0
LINE
5
235
100
AcDbEntity
8
0
100
AcDbLine
10
173.75518833640515
20
-130.85824856792794
30
0
11
178.12047451043958
21
-130.859484240249
31
0
0
LINE
5
236
100
AcDbEntity
8
0
100
AcDbLine
10
-4.8164405334130755
20
-163.53873257884612
30
0
11
16.665972296778762
21
-174.95020030282208
31
0
0
LINE
5
237
100
AcDbEntity
8
0
100
AcDbLine
10
68.201635598817006
20
-107.36411750532571
30
0
11
68.202162378382212
21
-105.50315201023844
31
0
0
LINE
5
238
100
AcDbEntity
8
0
100
AcDbLine
10
136.58179196425306
20
-130.90441800604654
30
0
11
141.14453098392397
21
-130.90570957092683
31
0
0
LINE
5
239
100
AcDbEntity
8
0
100
AcDbLine
10
-1.5484343048942328
20
-119.95042182025493
30
0
11
-1.5451450657920418
21
-108.33045612932975
31
0
0
LINE
5
240
100
AcDbEntity
8
0
100
AcDbLine
10
68.20250102238839
20
-104.30681704911092
30
0
11
68.202960861342547
21
-102.68233408975894
31
0
0
LINE
5
241
100
AcDbEntity
8
0
100
AcDbLine
10
17.918784620029662
20
-108.31723114137093
30
0
11
68.114950288778175
21
-108.33144006377985
31
0
0
LINE
5
242
100
AcDbEntity
8
0
100
AcDbLine
10
121.27496038870791
20
-130.84339310084243
30
0
11
125.64024656274235
21
-130.84462877316349
31
0
0
LINE
5
243
100
AcDbEntity
8
0
100
AcDbLine
10
-1.5451450657920418
20
-108.33045612932975
30
0
11
2.5464096350880894
21
-108.33161431706185
31
0
0
LINE
5
244
100
AcDbEntity
8
0
100
AcDbLine
10
108.12268081225852
20
-154.68005624101477
30
0
11
112.93236428310485
21
-155.10554095355283
31
0
0
LINE
5
245
100
AcDbEntity
8
0
100
AcDbLine
10
204.18211064823427
20
-130.8831445407543
30
0
11
209.31214637426228
21
-130.88459668911295
31
0
0
LINE
5
246
100
AcDbEntity
8
0
100
AcDbLine
10
2.4700421230252623
20
-119.95155932187495
30
0
11
-1.5484343048942328
21
-119.95042182025493
31
0
0
LINE
5
247
100
AcDbEntity
8
0
100
AcDbLine
10
71.934437898515341
20
-126.79473165852188
30
0
11
75.855665848649195
21
-127.16636129961161
31
0
0
LINE
5
248
100
AcDbEntity
8
0
100
AcDbLine
10
249.38945966545955
20
-140.90928325664368
30
0
11
258.64072391413316
21
-140.91190199244039
31
0
0
LINE
5
249
100
AcDbEntity
8
0
100
AcDbLine
10
282.79133091035254
20
-106.64186973458305
30
0
11
282.79336826846537
21
-99.444450928841633
31
0
0
LINE
5
250
100
AcDbEntity
8
0
100
AcDbLine
10
45.809202004413905
20
-120.05091524200691
30
0
11
49.614483746185826
21
-120.05199239505819
31
0
0
LINE
5
251
100
AcDbEntity
8
0
100
AcDbLine
10
37.593252789224501
20
-120.04858957064619
30
0
11
42.428077623748507
21
-120.04995815428238
31
0
0
LINE
5
252
100
AcDbEntity
8
0
100
AcDbLine
10
19.767012537175486
20
-120.04354353453547
30
0
11
35.537359762720193
21
-141.47074819742565
31
0
0
LINE
5
253
100
AcDbEntity
8
0
100
AcDbLine
10
5.61667822684214
20
-127.64520976103263
30
0
11
8.7654919037039392
21
-127.64610108905777
31
0
0
LINE
5
254
100
AcDbEntity
8
0
100
AcDbLine
10
2.5464096350880894
20
-108.33161431706185
30
0
11
2.5489365332569847
21
-99.404786830466378
31
0
0
LINE
5
255
100
AcDbEntity
8
0
100
AcDbLine
10
120.21781374434309
20
-177.84640519454203
30
0
11
114.84085338752126
21
-155.1757667590964
31
0
0
LINE
5
256
100
AcDbEntity
8
0
100
AcDbLine
10
89.084095270969854
20
-152.83692432026712
30
0
11
94.116287701694347
21
-153.32082654168264
31
0
0
LINE
5
257
100
AcDbEntity
8
0
100
AcDbLine
10
69.915916755277181
20
-126.62593722405978
30
0
11
66.372544477668384
21
-150.70208396388233
31
0
0
LINE
5
258
100
AcDbEntity
8
0
100
AcDbLine
10
182.77045358879749
20
-109.50555781442132
30
0
11
187.33319260846841
21
-109.50684937930161
31
0
0
LINE
5
259
100
AcDbEntity
8
0
100
AcDbLine
10
191.8346782922597
20
-109.5267771409068
30
0
11
226.64578018559007
21
-109.53663104586511
31
0
0
LINE
5
260
100
AcDbEntity
8
0
100
AcDbLine
10
215.23399121445556
20
-145.12915763296925
30
0
11
240.6784638374329
21
-141.17702497689623
31
0
0
LINE
5
261
100
AcDbEntity
8
0
100
AcDbLine
10
167.46362201325238
20
-109.4445329092172
30
0
11
171.8289081872868
21
-109.44576858153825
31
0
0
LINE
5
262
100
AcDbEntity
8
0
100
AcDbLine
10
127.82234241667084
20
-144.37131819489395
30
0
11
151.58007156211494
21
-144.37804324501565
31
0
0
LINE
5
263
100
AcDbEntity
8
0
100
AcDbLine
10
180.61492375274497
20
-130.86019033871818
30
0
11
185.28463072360023
21
-130.86151218279008
31
0
0
LINE
5
264
100
AcDbEntity
8
0
100
AcDbLine
10
265.48264816389008
20
-102.41404558759032
30
0
11
265.48299711099571
21
-99.948579653860477
31
0
0
LINE
5
265
100
AcDbEntity
8
0
100
AcDbLine
10
226.64578018559007
20
-109.53663104586511
30
0
11
225.9149630050878
21
-117.71648466251931
31
0
0
LINE
5
266
100
AcDbEntity
8
0
100
AcDbLine
10
16.665972296778762
20
-174.95020030282208
30
0
11
34.294833121647642
21
-174.955190467156
31
0
0
LINE
5
267
100
AcDbEntity
8
0
100
AcDbLine
10
242.90716507514111
20
-103.78139185879559
30
0
11
242.9081675499539
21
-100.23992753563867
31
0
0
LINE
5
268
100
AcDbEntity
8
0
100
AcDbLine
10
2.5457968802648168
20
-110.49630645468841
30
0
11
2.5448435300731376
21
-113.86422717264733
31
0
0
LINE
5
269
100
AcDbEntity
8
0
100
AcDbLine
10
52.521408911616483
20
-104.30237823554576
30
0
11
52.521868750570647
21
-102.67789527619378
31
0
0
LINE
5
270
100
AcDbEntity
8
0
100
AcDbLine
10
196.13184263897597
20
-130.88086576842198
30
0
11
201.12074112358675
21
-130.88227796536034
31
0
0
LINE
5
271
100
AcDbEntity
8
0
100
AcDbLine
10
221.18837025968327
20
-120.75713024528272
30
0
11
221.18539194025539
21
-131.27870331853481
31
0
0
LINE
5
272
100
AcDbEntity
8
0
100
AcDbLine
10
52.520543488045099
20
-107.35967869176058
30
0
11
52.521070267610277
21
-105.49871319667329
31
0
0
LINE
5
273
100
AcDbEntity
8
0
100
AcDbLine
10
92.90716854468819
20
-128.69709971924036
30
0
11
97.968389147985391
21
-129.14181673998337
31
0
0
LINE
5
274
100
AcDbEntity
8
0
100
AcDbLine
10
2.4704941235236433
20
-118.35476744381378
30
0
11
2.4712991747966129
21
-115.51074550420404
31
0
0
LINE
5
275
100
AcDbEntity
8
0
100
AcDbLine
10
81.82653692322738
20
-152.14425269375778
30
0
11
87.191829801759468
21
-152.62141909524391
31
0
0
LINE
5
276
100
AcDbEntity
8
0
100
AcDbLine
10
134.43838418934229
20
-109.43518452502241
30
0
11
139.10809116019757
21
-109.43650636909432
31
0
0
LINE
5
277
100
AcDbEntity
8
0
100
AcDbLine
10
34.300275959190444
20
-155.72716126508598
30
0
11
22.838516378357578
21
-155.72391680905267
31
0
0
LINE
5
278
100
AcDbEntity
8
0
100
AcDbLine
10
66.372544477668384
20
-150.70208396388233
30
0
11
63.841510078952922
21
-177.83044687354661
31
0
0
LINE
5
279
100
AcDbEntity
8
0
100
AcDbLine
10
85.649610196945716
20
-128.00442809273102
30
0
11
91.014903075477804
21
-128.48159449421715
31
0
0
LINE
5
280
100
AcDbEntity
8
0
100
AcDbLine
10
5.6163573669288347
20
-119.95244994267395
30
0
11
8.7651710437906338
21
-119.95334127069908
31
0
0
LINE
5
281
100
AcDbEntity
8
0
100
AcDbLine
10
265.53645924275736
20
-105.86571333442936
30
0
11
265.53704743395315
21
-103.78779765171373
31
0
0
LINE
5
282
100
AcDbEntity
8
0
100
AcDbLine
10
52.522170860630425
20
-101.61062457300879
30
0
11
52.522641199527897
21
-99.949048238109427
31
0
0
LINE
5
283
100
AcDbEntity
8
0
100
AcDbLine
10
29.550270925933795
20
-120.04631286078778
30
0
11
34.031241339800893
21
-120.04758127960184
31
0
0
LINE
5
284
100
AcDbEntity
8
0
100
AcDbLine
10
34.294833121647642
20
-174.955190467156
30
0
11
34.300275959190444
21
-155.72716126508598
31
0
0
LINE
5
285
100
AcDbEntity
8
0
100
AcDbLine
10
68.078134868389753
20
-150.80147714595032
30
0
11
71.999362818523608
21
-151.17310678704004
31
0
0
LINE
5
286
100
AcDbEntity
8
0
100
AcDbLine
10
160.82121675542541
20
-130.95079672902969
30
0
11
172.34056731391419
21
-130.95405748721922
31
0
0
LINE
5
287
100
AcDbEntity
8
0
100
AcDbLine
10
22.838516378357578
20
-155.72391680905267
30
0
11
22.845512428636532
21
-131.00881958188037
31
0
0
LINE
5
288
100
AcDbEntity
8
0
100
AcDbLine
10
99.350890039634521
20
-129.31960065698144
30
0
11
102.74070289917033
21
-129.47731325142195
31
0
0
LINE
5
289
100
AcDbEntity
8
0
100
AcDbLine
10
53.160314460109674
20
-120.05299610585598
30
0
11
58.52230236897018
21
-120.05451391242826
31
0
0
LINE
5
290
100
AcDbEntity
8
0
100
AcDbLine
10
-4.8062793946891524
20
-127.64225935647201
30
0
11
2.4678645499803409
21
-127.6443184330075
31
0
0
LINE
5
291
100
AcDbEntity
8
0
100
AcDbLine
10
68.114581648968795
20
-109.6337418435472
30
0
11
19.770029130979818
21
-109.3867577488404
31
0
0
LINE
5
292
100
AcDbEntity
8
0
100
AcDbLine
10
119.0461050442017
20
-131.03605088008723
30
0
11
126.41691123332244
21
-109.41870716906601
31
0
0
LINE
5
293
100
AcDbEntity
8
0
100
AcDbLine
10
242.96008220773638
20
-110.39020163761191
30
0
11
249.38945966545955
21
-140.90928325664368
31
0
0
LINE
5
294
100
AcDbEntity
8
0
100
AcDbLine
10
105.10916789515628
20
-129.77098692703589
30
0
11
110.07163646310747
21
-130.25607557509338
31
0
0
LINE
5
295
100
AcDbEntity
8
0
100
AcDbLine
10
128.13469580504776
20
-130.84533487163264
30
0
11
132.80440277590301
21
-130.84665671570457
31
0
0
LINE
5
296
100
AcDbEntity
8
0
100
AcDbLine
10
143.65161469127875
20
-130.86601030133647
30
0
11
148.64051317588951
21
-130.86742249827481
31
0
0
CIRCLE
5
297
100
AcDbEntity
8
0
100
AcDbCircle
10
169.97670254376149
20
-123.09651868088785
30
0
40
3.4738766988331622
210
0
220
0
230
1
0
LINE
5
298
100
AcDbEntity
8
0
100
AcDbLine
10
158.00557108483159
20
-109.45813872705857
30
0
11
163.1356068108596
21
-109.45959087541722
31
0
0
LINE
5
299
100
AcDbEntity
8
0
100
AcDbLine
10
240.6784638374329
20
-141.17702497689623
30
0
11
242.96008220773638
21
-110.39020163761191
31
0
0
LINE
5
300
100
AcDbEntity
8
0
100
AcDbLine
10
11.913984720652522
20
-119.95423259872422
30
0
11
15.062798397514356
21
-119.95512392674934
31
0
0
LINE
5
301
100
AcDbEntity
8
0
100
AcDbLine
10
142.88548034854759
20
-109.49426765943633
30
0
11
147.4482193682185
21
-109.49555922431659
31
0
0
LINE
5
302
100
AcDbEntity
8
0
100
AcDbLine
10
35.537359762720193
20
-141.47074819742565
30
0
11
51.868454353825427
21
-141.47537100581761
31
0
0
LINE
5
303
100
AcDbEntity
8
0
100
AcDbLine
10
189.0620199119503
20
-130.91927347313205
30
0
11
193.62475893162122
21
-130.92056503801234
31
0
0
LINE
5
304
100
AcDbEntity
8
0
100
AcDbLine
10
19.770029130979818
20
-109.3867577488404
30
0
11
19.767012537175486
21
-120.04354353453547
31
0
0
LINE
5
305
100
AcDbEntity
8
0
100
AcDbLine
10
78.04546516310063
20
-127.34745941940325
30
0
11
83.470332001332949
21
-127.83636436879361
31
0
0
LINE
5
306
100
AcDbEntity
8
0
100
AcDbLine
10
221.18539194025539
20
-131.27870331853481
30
0
11
215.2379123098093
21
-131.27701977805972
31
0
0
LINE
5
307
100
AcDbEntity
8
0
100
AcDbLine
10
214.15996741114185
20
-130.95636325895276
30
0
11
214.16320543559465
21
-119.51732466089146
31
0
0
LINE
5
308
100
AcDbEntity
8
0
100
AcDbLine
10
111.94580701373803
20
-130.35325260000641
30
0
11
116.75549048458439
21
-130.77873731254448
31
0
0
LINE
5
309
100
AcDbEntity
8
0
100
AcDbLine
10
11.914305580565792
20
-127.64699241708288
30
0
11
15.06311925742768
21
-127.64788374510802
31
0
0
LINE
5
310
100
AcDbEntity
8
0
100
AcDbLine
10
151.70188270053706
20
-130.86828907366879
30
0
11
156.83191842656504
21
-130.86974122202744
31
0
0
LINE
5
311
100
AcDbEntity
8
0
100
AcDbLine
10
180.98165221499784
20
-144.3863658882421
30
0
11
205.10990287228111
21
-144.39319582110417
31
0
0
LWPOLYLINE
5
312
100
AcDbEntity
8
0
100
AcDbPolyline
90
4
70
1
43
0.0
10
209.67749527791312
20
-149.11971952178806
10
281.36591231138925
20
-149.11971952178806
10
281.36591231138925
20
-198.41660053267896
10
209.67749527791312
20
-198.41660053267896
0
LINE
5
313
100
AcDbEntity
8
0
100
AcDbLine
10
221.43245103790633
20
-150.78887052346062
30
0
11
221.43245103790633
21
-157.02288974507479
31
0
0
LINE
5
314
100
AcDbEntity
8
0
100
AcDbLine
10
221.49027848539859
20
-161.14419083925512
30
0
11
221.49027848539859
21
-165.36562454261548
31
0
0
LINE
5
315
100
AcDbEntity
8
0
100
AcDbLine
10
221.43245103790633
20
-167.58254413954063
30
0
11
221.43245103790633
21
-173.81656336115481
31
0
0
LINE
5
316
100
AcDbEntity
8
0
100
AcDbLine
10
221.49027848539859
20
-177.93786445533513
30
0
11
221.49027848539859
21
-182.15929815869549
31
0
0
LINE
5
317
100
AcDbEntity
8
0
100
AcDbLine
10
221.43245103790633
20
-185.04932103506752
30
0
11
221.43245103790633
21
-191.28334025668167
31
0
0
LINE
5
318
100
AcDbEntity
8
0
100
AcDbLine
10
221.49027848539859
20
-193.2579674104916
30
0
11
221.49027848539859
21
-197.47940111385196
31
0
0
LINE
5
319
100
AcDbEntity
8
0
100
AcDbLine
10
237.2343475004736
20
-161.14419083925512
30
0
11
237.2343475004736
21
-165.36562454261548
31
0
0
LINE
5
320
100
AcDbEntity
8
0
100
AcDbLine
10
237.2343475004736
20
-177.93786445533513
30
0
11
237.2343475004736
21
-182.15929815869549
31
0
0
LINE
5
321
100
AcDbEntity
8
0
100
AcDbLine
10
237.17652005298135
20
-150.78887052346062
30
0
11
237.17652005298135
21
-157.02288974507479
31
0
0
LINE
5
322
100
AcDbEntity
8
0
100
AcDbLine
10
237.2343475004736
20
-193.2579674104916
30
0
11
237.2343475004736
21
-197.47940111385196
31
0
0
LINE
5
323
100
AcDbEntity
8
0
100
AcDbLine
10
237.17652005298135
20
-167.58254413954063
30
0
11
237.17652005298135
21
-173.81656336115481
31
0
0
LINE
5
324
100
AcDbEntity
8
0
100
AcDbLine
10
237.17652005298135
20
-185.04932103506752
30
0
11
237.17652005298135
21
-191.28334025668167
31
0
0
LINE
5
325
100
AcDbEntity
8
0
100
AcDbLine
10
269.7720901316286
20
-177.93786445533513
30
0
11
269.7720901316286
21
-182.15929815869549
31
0
0
LINE
5
326
100
AcDbEntity
8
0
100
AcDbLine
10
269.7720901316286
20
-193.2579674104916
30
0
11
269.7720901316286
21
-197.47940111385196
31
0
0
LINE
5
327
100
AcDbEntity
8
0
100
AcDbLine
10
253.97019366906133
20
-185.04932103506752
30
0
11
253.97019366906133
21
-191.28334025668167
31
0
0
LINE
5
328
100
AcDbEntity
8
0
100
AcDbLine
10
254.02802111655362
20
-161.14419083925512
30
0
11
254.02802111655362
21
-165.36562454261548
31
0
0
LINE
5
329
100
AcDbEntity
8
0
100
AcDbLine
10
269.7720901316286
20
-161.14419083925512
30
0
11
269.7720901316286
21
-165.36562454261548
31
0
0
LINE
5
330
100
AcDbEntity
8
0
100
AcDbLine
10
269.71426268413632
20
-167.58254413954063
30
0
11
269.71426268413632
21
-173.81656336115481
31
0
0
LINE
5
331
100
AcDbEntity
8
0
100
AcDbLine
10
269.71426268413632
20
-150.78887052346062
30
0
11
269.71426268413632
21
-157.02288974507479
31
0
0
LINE
5
332
100
AcDbEntity
8
0
100
AcDbLine
10
269.71426268413632
20
-185.04932103506752
30
0
11
269.71426268413632
21
-191.28334025668167
31
0
0
LINE
5
333
100
AcDbEntity
8
0
100
AcDbLine
10
253.97019366906133
20
-167.58254413954063
30
0
11
253.97019366906133
21
-173.81656336115481
31
0
0
LINE
5
334
100
AcDbEntity
8
0
100
AcDbLine
10
253.97019366906133
20
-150.78887052346062
30
0
11
253.97019366906133
21
-157.02288974507479
31
0
0
LINE
5
335
100
AcDbEntity
8
0
100
AcDbLine
10
254.02802111655362
20
-193.2579674104916
30
0
11
254.02802111655362
21
-197.47940111385196
31
0
0
LINE
5
336
100
AcDbEntity
8
0
100
AcDbLine
10
254.02802111655362
20
-177.93786445533513
30
0
11
254.02802111655362
21
-182.15929815869549
31
0
0
CIRCLE
5
337
100
AcDbEntity
8
0
100
AcDbCircle
10
42.823700131270286
20
-133.82910728743869
30
0
40
3.2078176468783406
210
0
220
0
230
1
0
CIRCLE
5
338
100
AcDbEntity
8
0
100
AcDbCircle
10
24.592478552995072
20
-167.16636017511291
30
0
40
3.1069091993599738
210
0
220
0
230
1
0
CIRCLE
5
339
100
AcDbEntity
8
0
100
AcDbCircle
10
42.843182514593693
20
-65.003272872564608
30
0
40
3.2078176468783406
210
0
220
0
230
1
0
CIRCLE
5
340
100
AcDbEntity
8
0
100
AcDbCircle
10
24.630837267725028
20
-31.65570398153789
30
0
40
3.1069091993599738
210
0
220
0
230
1
0
LWPOLYLINE
5
341
100
AcDbEntity
8
0
100
AcDbPolyline
90
4
70
1
43
0.0
10
-6.9526261186232929
20
4.9141947377896678
10
285.0428872191269
20
4.9141947377896678
10
285.0428872191269
20
-201.53763411046589
10
-6.9526261186232929
20
-201.53763411046586
0
ENDSEC
0
SECTION
2
OBJECTS
0
DICTIONARY
5
C
100
AcDbDictionary
3
ACAD_GROUP
350
D
3
ACAD_MLINESTYLE
350
17
0
DICTIONARY
5
D
100
AcDbDictionary
0
DICTIONARY
5
1A
330
C
100
AcDbDictionary
0
DICTIONARY
5
17
100
AcDbDictionary
0
ENDSEC
0
EOF
