0
SECTION
2
HEADER
9
$INSUNITS
70
4
9
$ACADVER
1
AC1014
9
$HANDSEED
5
FFFF
0
ENDSEC
0
SECTION
2
TABLES
0
TABLE
2
VPORT
5
8
100
AcDbSymbolTable
0
ENDTAB
0
TABLE
2
LTYPE
5
5
100
AcDbSymbolTable
0
LTYPE
5
14
100
AcDbSymbolTableRecord
100
AcDbLinetypeTableRecord
2
BYBLOCK
70
0
0
LTYPE
5
15
100
AcDbSymbolTableRecord
100
AcDbLinetypeTableRecord
2
BYLAYER
70
0
0
LTYPE
5
16
100
AcDbSymbolTableRecord
100
AcDbLinetypeTableRecord
2
DASHED
70
0
3
Dashed __ __ __ __ __ __ __ __ __ __ __ __ __ _
72
65
73
2
40
0.75
49
0.5
74
0
49
-0.25
74
0
0
ENDTAB
0
TABLE
2
LAYER
5
2
100
AcDbSymbolTable
70
2
0
LAYER
5
50
100
AcDbSymbolTableRecord
100
AcDbLayerTableRecord
2
0
70
0
62
7
6
CONTINUOUS
0
ENDTAB
0
TABLE
2
STYLE
5
3
100
AcDbSymbolTable
70
1
0
STYLE
5
11
100
AcDbSymbolTableRecord
100
AcDbTextStyleTableRecord
2
STANDARD
70
0
0
ENDTAB
0
TABLE
2
VIEW
5
6
100
AcDbSymbolTable
70
0
0
ENDTAB
0
TABLE
2
UCS
5
7
100
AcDbSymbolTable
70
0
0
ENDTAB
0
TABLE
2
APPID
5
9
100
AcDbSymbolTable
70
2
0
APPID
5
12
100
AcDbSymbolTableRecord
100
AcDbRegAppTableRecord
2
ACAD
70
0
0
ENDTAB
0
TABLE
2
DIMSTYLE
5
A
100
AcDbSymbolTable
70
1
0
ENDTAB
0
TABLE
2
BLOCK_RECORD
5
1
100
AcDbSymbolTable
70
1
0
BLOCK_RECORD
5
1F
100
AcDbSymbolTableRecord
100
AcDbBlockTableRecord
2
*MODEL_SPACE
0
BLOCK_RECORD
5
1B
100
AcDbSymbolTableRecord
100
AcDbBlockTableRecord
2
*PAPER_SPACE
0
ENDTAB
0
ENDSEC
0
SECTION
2
BLOCKS
0
BLOCK
5
20
100
AcDbEntity
100
AcDbBlockBegin
2
*MODEL_SPACE
0
ENDBLK
5
21
100
AcDbEntity
100
AcDbBlockEnd
0
BLOCK
5
1C
100
AcDbEntity
100
AcDbBlockBegin
2
*PAPER_SPACE
0
ENDBLK
5
1D
100
AcDbEntity
100
AcDbBlockEnd
0
ENDSEC
0
SECTION
2
ENTITIES
0
LINE
5
100
100
AcDbEntity
8
0
100
AcDbLine
10
77.721085000000002
20
149.36458999999999
30
0
11
81.741760000000014
21
149.40149
31
0
0
LWPOLYLINE
5
101
100
AcDbEntity
8
0
100
AcDbPolyline
90
4
70
1
43
0.0
10
267.26074
20
182.08178999999998
42
0.41421356000001175
10
270.02902
20
179.35019999999997
42
0.41421355999998583
10
272.76062000000007
20
182.11848000000001
42
0.41421355999998744
10
269.99231000000003
20
184.85008000000005
42
0.41421355999999226
0
LINE
5
102
100
AcDbEntity
8
0
100
AcDbLine
10
71.863433999999998
20
90.267151000000013
30
0
11
71.867783000000003
21
89.625504000000006
31
0
0
ARC
5
103
100
AcDbEntity
8
0
100
AcDbCircle
10
-67.867662359235382
20
89.603520990581146
30
0
40
4.0001810450746236
210
0
220
0
230
-1
100
AcDbArc
50
179.68512925131247
51
224.95617924937238
0
ARC
5
104
100
AcDbEntity
8
0
100
AcDbCircle
10
-67.867871127478409
20
89.603402243151749
30
0
40
3.9999494084092464
210
0
220
-0
230
-1
100
AcDbArc
50
224.95708850459226
51
270.22977574786609
0
LINE
5
105
100
AcDbEntity
8
0
100
AcDbLine
10
67.851830000000007
20
85.603485000000006
30
0
11
56.534142000000003
21
85.649047999999993
31
0
0
ARC
5
106
100
AcDbEntity
8
0
100
AcDbCircle
10
-56.550233980465919
20
89.649120070258334
30
0
40
4.0001044385236053
210
-0
220
0
230
-1
100
AcDbArc
50
270.23049524475817
51
315.25470626977557
0
ARC
5
107
100
AcDbEntity
8
0
100
AcDbCircle
10
-56.549962804661448
20
89.648937201078169
30
0
40
3.999783106290129
210
-0
220
0
230
-1
100
AcDbArc
50
-44.746167743771494
51
0.28157930582958218
0
LINE
5
108
100
AcDbEntity
8
0
100
AcDbLine
10
52.550228000000004
20
89.668594000000013
30
0
11
52.546703000000008
21
88.943573000000015
31
0
0
LINE
5
109
100
AcDbEntity
8
0
100
AcDbLine
10
52.546703000000008
20
88.943573000000015
30
0
11
52.273396000000005
21
129.18365
31
0
0
LINE
5
110
100
AcDbEntity
8
0
100
AcDbLine
10
52.273396000000005
20
129.18365
30
0
11
29.525002000000001
21
128.95442
31
0
0
LINE
5
111
100
AcDbEntity
8
0
100
AcDbLine
10
29.525002000000001
20
128.95442
30
0
11
28.145576000000005
21
128.94046
31
0
0
ARC
5
112
100
AcDbEntity
8
0
100
AcDbCircle
10
-28.100267502598815
20
133.44021490942833
30
0
40
4.4999830116191699
210
0
220
-0
230
-1
100
AcDbArc
50
269.42310236850142
51
358.38410352976405
0
LINE
5
113
100
AcDbEntity
8
0
100
AcDbLine
10
23.602073999999988
20
133.31332
30
0
11
23.443152999999999
21
138.93944999999999
31
0
0
LINE
5
114
100
AcDbEntity
8
0
100
AcDbLine
10
23.443152999999999
20
138.93944999999999
30
0
11
23.572273000000003
21
144.56635
31
0
0
ARC
5
115
100
AcDbEntity
8
0
100
AcDbCircle
10
-28.071112839311088
20
144.46309716976413
30
0
40
4.500024560680119
210
0
220
0
230
-1
100
AcDbArc
50
1.3147640716904294
51
90.274728495802492
0
LINE
5
116
100
AcDbEntity
8
0
100
AcDbLine
10
28.092690000000005
20
148.96306999999999
30
0
11
29.472190999999999
21
148.95650000000001
31
0
0
LINE
5
117
100
AcDbEntity
8
0
100
AcDbLine
10
29.472190999999999
20
148.95650000000001
30
0
11
52.221539000000007
21
148.84739999999999
31
0
0
LINE
5
118
100
AcDbEntity
8
0
100
AcDbLine
10
52.221539000000007
20
148.84739999999999
30
0
11
52.282229999999998
21
189.08829
31
0
0
LINE
5
119
100
AcDbEntity
8
0
100
AcDbLine
10
52.282229999999998
20
189.08829
30
0
11
52.289646000000012
21
188.36336
31
0
0
ARC
5
120
100
AcDbEntity
8
0
100
AcDbCircle
10
-56.289200600269034
20
188.40411963606601
30
0
40
3.9997622864947022
210
-0
220
0
230
-1
100
AcDbArc
50
-0.58388358493766868
51
44.44318888808283
0
ARC
5
121
100
AcDbEntity
8
0
100
AcDbCircle
10
-56.289641437058279
20
188.40351438736553
30
0
40
4.0005008178260182
210
0
220
0
230
-1
100
AcDbArc
50
44.444956809625332
51
89.463764553134055
0
LINE
5
122
100
AcDbEntity
8
0
100
AcDbLine
10
56.252200999999992
20
192.40384000000003
30
0
11
67.569489000000004
21
192.50914
31
0
0
ARC
5
123
100
AcDbEntity
8
0
100
AcDbCircle
10
-67.60669159117235
20
188.50929405959357
30
0
40
4.0000189474271206
210
0
220
0
230
-1
100
AcDbArc
50
89.467106976081396
51
134.73899212403424
0
ARC
5
124
100
AcDbEntity
8
0
100
AcDbCircle
10
-67.606648131796717
20
188.50926253530801
30
0
40
4.0000719298966594
210
0
220
0
230
-1
100
AcDbArc
50
134.73911646554504
51
180.01006289609603
0
LINE
5
125
100
AcDbEntity
8
0
100
AcDbLine
10
71.606719999999996
20
188.50856000000005
30
0
11
71.606597999999991
21
187.92768999999998
31
0
0
LINE
5
126
100
AcDbEntity
8
0
100
AcDbLine
10
71.606597999999991
20
187.92768999999998
30
0
11
71.882262999999995
21
148.33215000000001
31
0
0
LINE
5
127
100
AcDbEntity
8
0
100
AcDbLine
10
91.213058000000004
20
93.066543999999993
30
0
11
85.161919000000012
21
95.030670000000001
31
0
0
LINE
5
128
100
AcDbEntity
8
0
100
AcDbLine
10
85.161919000000012
20
95.030670000000001
30
0
11
85.270103000000006
21
104.85693000000001
31
0
0
LINE
5
129
100
AcDbEntity
8
0
100
AcDbLine
10
85.270103000000006
20
104.85693000000001
30
0
11
91.344420999999997
21
107.35911999999999
31
0
0
LWPOLYLINE
5
130
100
AcDbEntity
8
0
100
AcDbPolyline
90
4
70
1
43
0.0
10
62.633842000000008
20
185.84093999999999
42
0.41421356000001058
10
59.865555000000015
20
188.57253999999998
42
0.41421355999999571
10
57.133965000000003
20
185.80423999999999
42
0.41421355999998477
10
59.902256000000015
20
183.07266000000001
42
0.41421356000000908
0
LINE
5
131
100
AcDbEntity
8
0
100
AcDbLine
10
145.27911
20
175.09081000000003
30
0
11
145.31168000000002
21
168.83536000000004
31
0
0
LWPOLYLINE
5
132
100
AcDbEntity
8
0
100
AcDbPolyline
90
4
70
1
43
0.0
10
267.29907000000003
20
97.556381000000002
42
0.41421355999999693
10
270.06734999999998
20
94.824798999999985
42
0.41421356000002063
10
272.79894999999999
20
97.593093999999994
42
0.41421355999999271
10
270.03064000000001
20
100.32468000000003
42
0.41421356000001708
0
LWPOLYLINE
5
133
100
AcDbEntity
8
0
100
AcDbPolyline
90
4
70
1
43
0.0
10
232.62515000000002
20
224.91736000000003
42
0.41421356000001125
10
235.39343000000002
20
222.18578000000002
42
0.41421355999999765
10
238.12503000000004
20
224.95407000000003
42
0.41421356000000903
10
235.35672000000005
20
227.68565000000001
42
0.41421355999999226
0
LINE
5
134
100
AcDbEntity
8
0
100
AcDbLine
10
252.32544000000001
20
160.48289
30
0
11
247.32547000000005
21
160.45686000000001
31
0
0
ARC
5
135
100
AcDbEntity
8
0
100
AcDbCircle
10
87.927486341305965
20
100.88147440959042
30
0
40
3.982922623055468
210
0
220
0
230
1
100
AcDbArc
50
257.9257918519973
51
290.82125432345015
0
LINE
5
136
100
AcDbEntity
8
0
100
AcDbLine
10
89.343231000000003
20
97.158660999999995
30
0
11
89.404526000000004
21
97.186523000000008
31
0
0
LINE
5
137
100
AcDbEntity
8
0
100
AcDbLine
10
89.404526000000004
20
97.186523000000008
30
0
11
89.46464499999999
21
97.21586600000002
31
0
0
ARC
5
138
100
AcDbEntity
8
0
100
AcDbCircle
10
88.157775675317168
20
99.619084761489987
30
0
40
2.7355745004247871
210
-0
220
0
230
1
100
AcDbArc
50
298.53732851490275
51
349.88025639722218
0
ARC
5
139
100
AcDbEntity
8
0
100
AcDbCircle
10
86.734077731687904
20
100.14809743021276
30
0
40
4.2387225345887654
210
-0
220
0
230
1
100
AcDbArc
50
-13.780406868982739
51
31.140912652310966
0
ARC
5
140
100
AcDbEntity
8
0
100
AcDbCircle
10
88.087066332855017
20
100.75553378166532
30
0
40
2.7724054476565434
210
0
220
-0
230
1
100
AcDbArc
50
34.85908513922147
51
89.46862349029341
0
ARC
5
141
100
AcDbEntity
8
0
100
AcDbCircle
10
87.805409511512863
20
98.251260577484786
30
0
40
5.2855042074572882
210
0
220
-0
230
1
100
AcDbArc
50
86.666191598320779
51
95.844533820512865
0
LINE
5
142
100
AcDbEntity
8
0
100
AcDbLine
10
257.63745
20
159.50586999999999
30
0
11
256.71695
21
218.11782999999997
31
0
0
LINE
5
143
100
AcDbEntity
8
0
100
AcDbLine
10
256.71695
20
218.11782999999997
30
0
11
245.43612999999999
21
217.78140000000002
31
0
0
LINE
5
144
100
AcDbEntity
8
0
100
AcDbLine
10
245.43612999999999
20
217.78140000000002
30
0
11
245.43430000000001
21
222.55502000000004
31
0
0
ARC
5
145
100
AcDbEntity
8
0
100
AcDbCircle
10
235.43415697772252
20
222.54049599546636
30
0
40
10.000153569456444
210
0
220
-0
230
1
100
AcDbArc
50
0.083215167460910178
51
45.128877888120002
0
ARC
5
146
100
AcDbEntity
8
0
100
AcDbCircle
10
235.43427651367367
20
222.54053500129646
30
0
40
10.000041592020159
210
0
220
-0
230
1
100
AcDbArc
50
45.129205592347098
51
90.174903583860271
0
LINE
5
147
100
AcDbEntity
8
0
100
AcDbLine
10
235.40375
20
232.54052999999999
30
0
11
235.86166000000003
21
232.54198000000002
31
0
0
LINE
5
148
100
AcDbEntity
8
0
100
AcDbLine
10
235.86166000000003
20
232.54198000000002
30
0
11
234.54227000000003
21
232.51648
31
0
0
ARC
5
149
100
AcDbEntity
8
0
100
AcDbCircle
10
234.71611176472402
20
223.51816794979297
30
0
40
8.9999911506658421
210
0
220
0
230
1
100
AcDbArc
50
91.106780965471799
51
180.08274762850894
0
LINE
5
150
100
AcDbEntity
8
0
100
AcDbLine
10
225.71613000000002
20
223.50517000000002
30
0
11
225.7244
21
217.82422000000003
31
0
0
LINE
5
151
100
AcDbEntity
8
0
100
AcDbLine
10
225.7244
20
217.82422000000003
30
0
11
198.76062000000002
21
217.78527999999997
31
0
0
LINE
5
152
100
AcDbEntity
8
0
100
AcDbLine
10
198.76062000000002
20
217.78527999999997
30
0
11
198.78419000000002
21
222.93631000000005
31
0
0
ARC
5
153
100
AcDbEntity
8
0
100
AcDbCircle
10
189.78140580961929
20
222.97907561294642
30
0
40
9.0028857638104025
210
-0
220
0
230
1
100
AcDbArc
50
-0.27216810358649923
51
89.728095519101046
0
LINE
5
154
100
AcDbEntity
8
0
100
AcDbLine
10
189.82413000000003
20
231.98186000000007
30
0
11
188.76607000000001
21
232.00455000000002
31
0
0
ARC
5
155
100
AcDbEntity
8
0
100
AcDbCircle
10
188.57312952607748
20
223.00673370318913
30
0
40
8.9998846735740621
210
0
220
-0
230
1
100
AcDbArc
50
88.771592947779112
51
134.08213604882837
0
ARC
5
156
100
AcDbEntity
8
0
100
AcDbCircle
10
188.572996115092
20
223.00667588733654
30
0
40
8.9998333936925476
210
0
220
0
230
1
100
AcDbArc
50
134.08126986878736
51
179.39166093443964
0
LINE
5
157
100
AcDbEntity
8
0
100
AcDbLine
10
179.57366999999999
20
223.10223000000002
30
0
11
179.5127
21
217.36519999999999
31
0
0
LINE
5
158
100
AcDbEntity
8
0
100
AcDbLine
10
179.5127
20
217.36519999999999
30
0
11
169.14618999999999
21
217.41252000000003
31
0
0
LINE
5
159
100
AcDbEntity
8
0
100
AcDbLine
10
169.14618999999999
20
217.41252000000003
30
0
11
169.10248000000001
21
207.83224000000001
31
0
0
LINE
5
160
100
AcDbEntity
8
0
100
AcDbLine
10
169.10248000000001
20
207.83224000000001
30
0
11
155.20703
21
207.80225000000002
31
0
0
LINE
5
161
100
AcDbEntity
8
0
100
AcDbLine
10
155.20703
20
207.80225000000002
30
0
11
155.19488999999999
21
213.44136000000003
31
0
0
ARC
5
162
100
AcDbEntity
8
0
100
AcDbCircle
10
146.19495986203805
20
213.42195746273364
30
0
40
8.9999510524584778
210
0
220
-0
230
1
100
AcDbArc
50
0.12352115604414529
51
88.795546578034134
0
LINE
5
163
100
AcDbEntity
8
0
100
AcDbLine
10
146.38414
20
222.41992000000005
30
0
11
145.15781000000001
21
222.43805000000003
31
0
0
LINE
5
164
100
AcDbEntity
8
0
100
AcDbLine
10
145.15781000000001
20
222.43805000000003
30
0
11
144.22502000000003
21
222.42587000000003
31
0
0
ARC
5
165
100
AcDbEntity
8
0
100
AcDbCircle
10
144.34248654751454
20
213.42674822158625
30
0
40
8.9998883977806319
210
0
220
0
230
1
100
AcDbArc
50
90.747845774804361
51
179.87374530964297
0
LINE
5
166
100
AcDbEntity
8
0
100
AcDbLine
10
135.34261999999998
20
213.44657999999998
30
0
11
135.33028999999999
21
207.92941000000002
31
0
0
LINE
5
167
100
AcDbEntity
8
0
100
AcDbLine
10
135.33028999999999
20
207.92941000000002
30
0
11
125.26339
21
207.95172000000002
31
0
0
ARC
5
168
100
AcDbEntity
8
0
100
AcDbCircle
10
125.25346816431991
20
203.4515075678695
30
0
40
4.5002233696923604
210
0
220
-0
230
1
100
AcDbArc
50
89.873677432575079
51
135.16480154057462
0
ARC
5
169
100
AcDbEntity
8
0
100
AcDbCircle
10
125.25353245512522
20
203.45166762278112
30
0
40
4.5001561136162946
210
0
220
0
230
1
100
AcDbArc
50
135.16682376306912
51
180.45781566188961
0
LINE
5
170
100
AcDbEntity
8
0
100
AcDbLine
10
120.75352000000001
20
203.41571000000002
30
0
11
120.84831000000001
21
191.56586999999999
31
0
0
LINE
5
171
100
AcDbEntity
8
0
100
AcDbLine
10
120.84831000000001
20
191.56586999999999
30
0
11
120.87411000000003
21
191.49078
31
0
0
ARC
5
172
100
AcDbEntity
8
0
100
AcDbCircle
10
125.44729837614153
20
193.17008122527659
30
0
40
4.8717660585142228
210
0
220
0
230
1
100
AcDbArc
50
200.16352714309085
51
241.32615117650658
0
ARC
5
173
100
AcDbEntity
8
0
100
AcDbCircle
10
129.27125019279339
20
198.98605930413561
30
0
40
11.822801167615554
210
0
220
0
230
1
100
AcDbArc
50
238.59009523158963
51
248.07022515397944
0
LINE
5
174
100
AcDbEntity
8
0
100
AcDbLine
10
71.863433999999998
20
90.267151000000013
30
0
11
99.384658999999999
21
90.357101000000014
31
0
0
LINE
5
175
100
AcDbEntity
8
0
100
AcDbLine
10
99.384658999999999
20
90.357101000000014
30
0
11
99.303512999999995
21
84.717620999999994
31
0
0
ARC
5
176
100
AcDbEntity
8
0
100
AcDbCircle
10
108.30228667568983
20
84.588146747434436
30
0
40
8.9997050645210432
210
0
220
0
230
1
100
AcDbArc
50
179.17568585912647
51
224.30790116473389
0
ARC
5
177
100
AcDbEntity
8
0
100
AcDbCircle
10
108.30271353943795
20
84.588422418168022
30
0
40
9.0002030871138405
210
0
220
0
230
1
100
AcDbArc
50
224.30725882157395
51
269.43689091983015
0
LINE
5
178
100
AcDbEntity
8
0
100
AcDbLine
10
108.21426000000002
20
75.588654000000005
30
0
11
109.51748000000002
21
75.575867000000002
31
0
0
ARC
5
179
100
AcDbEntity
8
0
100
AcDbCircle
10
109.60586082592323
20
84.575365731332084
30
0
40
8.9999326989504986
210
0
220
0
230
1
100
AcDbArc
50
269.43733693601411
51
359.43762403308097
0
LINE
5
180
100
AcDbEntity
8
0
100
AcDbLine
10
118.60535999999999
20
84.487030000000004
30
0
11
118.66289999999999
21
90.351944000000003
31
0
0
LINE
5
181
100
AcDbEntity
8
0
100
AcDbLine
10
118.66289999999999
20
90.351944000000003
30
0
11
135.43278999999998
21
90.467574999999997
31
0
0
LINE
5
182
100
AcDbEntity
8
0
100
AcDbLine
10
135.43278999999998
20
90.467574999999997
30
0
11
135.40546000000001
21
84.781646999999992
31
0
0
ARC
5
183
100
AcDbEntity
8
0
100
AcDbCircle
10
144.40530633416196
20
84.738392253087497
30
0
40
8.9999502782881482
210
0
220
0
230
1
100
AcDbArc
50
179.72462914722644
51
269.48893538391451
0
LINE
5
184
100
AcDbEntity
8
0
100
AcDbLine
10
144.32503
20
75.738799999999998
30
0
11
145.96236000000002
21
75.724213000000006
31
0
0
ARC
5
185
100
AcDbEntity
8
0
100
AcDbCircle
10
146.04265959326742
20
84.72386390122287
30
0
40
9.0000091315820487
210
0
220
0
230
1
100
AcDbArc
50
269.4887906481755
51
359.07662737690782
0
LINE
5
186
100
AcDbEntity
8
0
100
AcDbLine
10
155.04150000000004
20
84.578827000000018
30
0
11
155.13846000000001
21
90.593277
31
0
0
LINE
5
187
100
AcDbEntity
8
0
100
AcDbLine
10
155.13846000000001
20
90.593277
30
0
11
158.6940239251625
21
90.588012974617428
31
0
0
LINE
5
188
100
AcDbEntity
8
0
100
AcDbLine
10
86.226715000000013
20
178.26961
30
0
11
96.726714999999999
21
178.27217000000002
31
0
0
LINE
5
189
100
AcDbEntity
8
0
100
AcDbLine
10
161.39209
20
110.33614
30
0
11
165.87694999999999
21
110.31436000000001
31
0
0
LINE
5
190
100
AcDbEntity
8
0
100
AcDbLine
10
233.44
20
217.93057000000005
30
0
11
228.44011
21
217.89722000000006
31
0
0
LINE
5
191
100
AcDbEntity
8
0
100
AcDbLine
10
100.34058000000002
20
129.30993999999998
30
0
11
95.340682999999999
21
129.27656999999999
31
0
0
LINE
5
192
100
AcDbEntity
8
0
100
AcDbLine
10
257.86520000000002
20
121.15608000000002
30
0
11
257.74529999999999
21
89.808990000000009
31
0
0
ARC
5
193
100
AcDbEntity
8
0
100
AcDbCircle
10
266.29527538742718
20
91.997068774215606
30
0
40
8.825517993170946
210
0
220
0
230
1
100
AcDbArc
50
194.3548402075175
51
206.92739049792101
0
ARC
5
194
100
AcDbEntity
8
0
100
AcDbCircle
10
261.26958283987159
20
89.305918616795879
30
0
40
3.1284246095322512
210
0
220
0
230
1
100
AcDbArc
50
204.6660766781776
51
263.17759051501525
0
LINE
5
195
100
AcDbEntity
8
0
100
AcDbLine
10
260.89794999999998
20
86.199646000000001
30
0
11
260.98079999999999
21
86.189453
31
0
0
LINE
5
196
100
AcDbEntity
8
0
100
AcDbLine
10
260.98079999999999
20
86.189453
30
0
11
261.06515999999999
21
86.180878000000007
31
0
0
LINE
5
197
100
AcDbEntity
8
0
100
AcDbLine
10
261.06515999999999
20
86.180878000000007
30
0
11
261.14789000000002
21
86.174164000000019
31
0
0
LINE
5
198
100
AcDbEntity
8
0
100
AcDbLine
10
261.14789000000002
20
86.174164000000019
30
0
11
271.65814
21
86.039519999999996
31
0
0
ARC
5
199
100
AcDbEntity
8
0
100
AcDbCircle
10
271.7475181529154
20
92.016075306528506
30
0
40
5.9772235850947277
210
0
220
0
230
1
100
AcDbArc
50
269.14321729348944
51
314.96580135661287
0
ARC
5
200
100
AcDbEntity
8
0
100
AcDbCircle
10
271.68987823184511
20
91.908122532838519
30
0
40
5.9427303854647491
210
-0
220
0
230
1
100
AcDbArc
50
-43.905411562508995
51
1.2475262880656779
0
LINE
5
201
100
AcDbEntity
8
0
100
AcDbLine
10
277.63120000000004
20
92.037506000000008
30
0
11
277.40335000000005
21
188.85929999999999
31
0
0
ARC
5
202
100
AcDbEntity
8
0
100
AcDbCircle
10
273.21450997367958
20
188.78606264016605
30
0
40
4.1894802156090192
210
0
220
-0
230
1
100
AcDbArc
50
1.0016529871364521
51
46.474689983398356
0
ARC
5
203
100
AcDbEntity
8
0
100
AcDbCircle
10
273.21465205655335
20
188.7860286218766
30
0
40
4.1894070342518512
210
0
220
-0
230
1
100
AcDbArc
50
46.476419324570223
51
91.949830794040835
0
LINE
5
204
100
AcDbEntity
8
0
100
AcDbLine
10
273.07211000000001
20
192.97301000000004
30
0
11
262.03713999999997
21
193.09082000000004
31
0
0
LINE
5
205
100
AcDbEntity
8
0
100
AcDbLine
10
262.03713999999997
20
193.09082000000004
30
0
11
262.02688999999998
21
193.09371999999999
31
0
0
LINE
5
206
100
AcDbEntity
8
0
100
AcDbLine
10
262.02688999999998
20
193.09371999999999
30
0
11
261.97845000000001
21
193.10551000000004
31
0
0
LINE
5
207
100
AcDbEntity
8
0
100
AcDbLine
10
261.97845000000001
20
193.10551000000004
30
0
11
261.61041
21
193.09972999999999
31
0
0
ARC
5
208
100
AcDbEntity
8
0
100
AcDbCircle
10
261.68108251140347
20
188.6002798982633
30
0
40
4.5000050913178518
210
0
220
0
230
1
100
AcDbArc
50
90.899866338448845
51
180.88239567267144
0
LINE
5
209
100
AcDbEntity
8
0
100
AcDbLine
10
257.1816110693315
20
188.53097936533015
30
0
11
257.14490000000001
21
190.87001000000001
31
0
0
LINE
5
210
100
AcDbEntity
8
0
100
AcDbLine
10
232.32568000000001
20
160.37882999999999
30
0
11
227.32578000000001
21
160.35274999999999
31
0
0
LWPOLYLINE
5
211
100
AcDbEntity
8
0
100
AcDbPolyline
90
4
70
1
43
0.0
10
232.52005
20
107.95413000000002
42
0.41421355999999043
10
235.28832999999997
20
105.22255000000001
42
0.41421356000001797
10
238.01993000000004
20
107.99083000000002
42
0.41421355999999721
10
235.25165000000001
20
110.72243
42
0.41421356000000203
0
LWPOLYLINE
5
212
100
AcDbEntity
8
0
100
AcDbPolyline
90
4
70
1
43
0.0
10
104.56226000000001
20
177.34271000000004
42
0.41421460000000487
10
108.99152000000001
20
172.97214999999997
42
0.41420690000000415
10
113.36206000000003
20
177.40143
42
0.41421057000000144
10
108.93279
20
181.77194
42
0.4142116099999929
0
LINE
5
213
100
AcDbEntity
8
0
100
AcDbLine
10
256.84631000000002
20
100.98151999999999
30
0
11
252.81119000000001
21
100.95461
31
0
0
LINE
5
214
100
AcDbEntity
8
0
100
AcDbLine
10
227.81173999999999
20
100.78766000000002
30
0
11
222.81186000000002
21
100.75424
31
0
0
LINE
5
215
100
AcDbEntity
8
0
100
AcDbLine
10
179.36331000000001
20
176.71738000000002
30
0
11
176.36334000000002
21
176.70175
31
0
0
LINE
5
216
100
AcDbEntity
8
0
100
AcDbLine
10
247.26332000000002
20
177.06998000000002
30
0
11
242.26341000000005
21
177.04398999999998
31
0
0
LWPOLYLINE
5
217
100
AcDbEntity
8
0
100
AcDbPolyline
90
4
70
1
43
0.0
10
108.84014000000001
20
158.60022000000001
42
0.41421356000000226
10
111.57173
20
161.36850000000007
42
0.41421355999999765
10
108.80344000000001
20
164.10010000000003
42
0.41421365000000238
10
106.07185000000003
20
161.33179999999999
42
0.41421355999999848
0
LWPOLYLINE
5
218
100
AcDbEntity
8
0
100
AcDbPolyline
90
4
70
1
43
0.0
10
104.96385000000001
20
99.415283000000017
42
0.41421166999999876
10
109.39312000000001
20
95.044707999999986
42
0.41421264000000102
10
113.76366000000003
20
99.473999000000006
42
0.41420987999999925
10
109.33440000000002
20
103.84460000000001
42
0.4142100000000003
0
LWPOLYLINE
5
219
100
AcDbEntity
8
0
100
AcDbPolyline
90
4
70
1
43
0.0
10
112.13830000000002
20
82.548370000000006
42
0.41421356000000087
10
109.37001000000002
20
85.279937999999987
42
0.41421364999999932
10
106.63842000000002
20
82.511658000000011
42
0.41421356000000248
10
109.40671000000002
20
79.780059999999992
42
0.4142135599999982
0
LINE
5
220
100
AcDbEntity
8
0
100
AcDbLine
10
207.86615
20
100.34055000000001
30
0
11
202.86646000000005
21
100.39439000000002
31
0
0
LINE
5
221
100
AcDbEntity
8
0
100
AcDbLine
10
71.930335999999997
20
130.04173000000003
30
0
11
71.863433999999998
21
90.267151000000013
31
0
0
LINE
5
222
100
AcDbEntity
8
0
100
AcDbLine
10
110.93123
20
110.41507000000001
30
0
11
115.93111999999999
21
110.44843
31
0
0
LINE
5
223
100
AcDbEntity
8
0
100
AcDbLine
10
197.56638000000004
20
119.74907
30
0
11
202.56627000000003
21
119.78244000000001
31
0
0
LINE
5
224
100
AcDbEntity
8
0
100
AcDbLine
10
232.56561000000005
20
119.98262
30
0
11
227.56573
21
119.94925000000002
31
0
0
LINE
5
225
100
AcDbEntity
8
0
100
AcDbLine
10
158.90736000000001
20
129.71843999999999
30
0
11
169.73557
21
119.34047
31
0
0
LINE
5
226
100
AcDbEntity
8
0
100
AcDbLine
10
169.73557
20
119.34047
30
0
11
169.74666999999999
21
90.587738000000002
31
0
0
LINE
5
227
100
AcDbEntity
8
0
100
AcDbLine
10
169.74666999999999
20
90.587738000000002
30
0
11
169.38452000000001
21
90.526107999999994
31
0
0
LINE
5
228
100
AcDbEntity
8
0
100
AcDbLine
10
169.38452000000001
20
90.526107999999994
30
0
11
159.54677000000001
21
90.667480000000012
31
0
0
ARC
5
229
100
AcDbEntity
8
0
100
AcDbCircle
10
159.489444772768
20
86.667562120911569
30
0
40
4.0003286391406094
210
0
220
-0
230
1
100
AcDbArc
50
89.178915959180003
51
135.1378070300911
0
ARC
5
230
100
AcDbEntity
8
0
100
AcDbCircle
10
159.48880882448623
20
86.668136524300337
30
0
40
3.9994726892864203
210
0
220
0
230
1
100
AcDbArc
50
135.13721307797715
51
181.10507053199919
0
LINE
5
231
100
AcDbEntity
8
0
100
AcDbLine
10
155.49008000000001
20
86.591003000000001
30
0
11
155.70306000000002
21
75.514251999999999
31
0
0
ARC
5
232
100
AcDbEntity
8
0
100
AcDbCircle
10
160.20226901098565
20
75.600835971133023
30
0
40
4.5000420563136219
210
0
220
0
230
1
100
AcDbArc
50
181.10247908785067
51
270.94810116460542
0
LINE
5
233
100
AcDbEntity
8
0
100
AcDbLine
10
160.27673000000004
20
71.101410000000001
30
0
11
169.41866999999999
21
71.252624999999995
31
0
0
LINE
5
234
100
AcDbEntity
8
0
100
AcDbLine
10
169.41866999999999
20
71.252624999999995
30
0
11
170.71805000000001
21
71.292450000000002
31
0
0
LINE
5
235
100
AcDbEntity
8
0
100
AcDbLine
10
170.71805000000001
20
71.292450000000002
30
0
11
170.86920000000003
21
66.35455300000001
31
0
0
LINE
5
236
100
AcDbEntity
8
0
100
AcDbLine
10
170.86920000000003
20
66.35455300000001
30
0
11
257.65719999999999
21
66.791534000000013
31
0
0
LINE
5
237
100
AcDbEntity
8
0
100
AcDbLine
10
257.65719999999999
20
66.791534000000013
30
0
11
257.74529999999999
21
89.808990000000009
31
0
0
LINE
5
238
100
AcDbEntity
8
0
100
AcDbLine
10
189.83934000000002
20
94.278396999999998
30
0
11
189.90677000000002
21
100.53350999999999
31
0
0
LINE
5
239
100
AcDbEntity
8
0
100
AcDbLine
10
262.32532000000003
20
160.53491000000002
30
0
11
259.32535000000001
21
160.51928999999998
31
0
0
LINE
5
240
100
AcDbEntity
8
0
100
AcDbLine
10
100.93146000000002
20
110.34828000000002
30
0
11
105.93133999999999
21
110.38164
31
0
0
LINE
5
241
100
AcDbEntity
8
0
100
AcDbLine
10
142.50541999999999
20
207.82356000000004
30
0
11
137.50551999999999
21
207.79021
31
0
0
LINE
5
242
100
AcDbEntity
8
0
100
AcDbLine
10
237.26347000000004
20
177.01799
30
0
11
232.26353
21
176.99197000000001
31
0
0
LINE
5
243
100
AcDbEntity
8
0
100
AcDbLine
10
116.78449999999999
20
90.302429000000018
30
0
11
111.78461000000001
21
90.269058000000001
31
0
0
LINE
5
244
100
AcDbEntity
8
0
100
AcDbLine
10
110.34035000000002
20
129.37666000000002
30
0
11
105.34046000000002
21
129.34329
31
0
0
LWPOLYLINE
5
245
100
AcDbEntity
8
0
100
AcDbPolyline
90
4
70
1
43
0.0
10
238.18848
20
171.245
42
0.41421356000000037
10
235.42020000000002
20
173.97659000000002
42
0.41421355999999765
10
232.68860000000004
20
171.20830000000001
42
0.4142135600000052
10
235.45691000000005
20
168.47672
42
0.41421356000001064
0
LWPOLYLINE
5
246
100
AcDbEntity
8
0
100
AcDbPolyline
90
5
70
1
43
0.0
10
235.36496
20
201.02545000000003
42
0.4142117199999909
10
230.99442000000008
20
196.59618
42
0.41420804000000155
10
235.42367999999999
20
192.22568999999996
42
0.41420988000000231
10
239.79422000000002
20
196.65491000000003
42
0.19891577000000324
10
238.48477000000003
20
199.75753999999998
42
0.19891916000000015
0
LINE
5
247
100
AcDbEntity
8
0
100
AcDbLine
10
155.58430000000001
20
110.50508000000001
30
0
11
135.73203000000001
21
110.48119
31
0
0
LINE
5
248
100
AcDbEntity
8
0
100
AcDbLine
10
257.72357
20
130.97304000000003
30
0
11
257.69022000000001
21
135.97293000000002
31
0
0
LINE
5
249
100
AcDbEntity
8
0
100
AcDbLine
10
52.167007000000005
20
133.32218999999998
30
0
11
52.142738000000008
21
137.36615
31
0
0
LINE
5
250
100
AcDbEntity
8
0
100
AcDbLine
10
272.56491
20
120.20628000000002
30
0
11
267.56493999999998
21
120.19453
31
0
0
LINE
5
251
100
AcDbEntity
8
0
100
AcDbLine
10
207.26389
20
176.86195000000001
30
0
11
202.26394999999999
21
176.83598000000001
31
0
0
LINE
5
252
100
AcDbEntity
8
0
100
AcDbLine
10
257.63846000000001
20
144.68797000000001
30
0
11
257.61242999999996
21
149.68792999999999
31
0
0
LINE
5
253
100
AcDbEntity
8
0
100
AcDbLine
10
71.606597999999991
20
187.92768999999998
30
0
11
99.126976000000013
21
187.9222
31
0
0
LINE
5
254
100
AcDbEntity
8
0
100
AcDbLine
10
99.126976000000013
20
187.9222
30
0
11
118.40503000000001
21
188.02913000000001
31
0
0
LINE
5
255
100
AcDbEntity
8
0
100
AcDbLine
10
118.40503000000001
20
188.02913000000001
30
0
11
135.17516000000001
21
188.00208999999998
31
0
0
LINE
5
256
100
AcDbEntity
8
0
100
AcDbLine
10
135.17516000000001
20
188.00208999999998
30
0
11
159.01796999999999
21
188.00404
31
0
0
LINE
5
257
100
AcDbEntity
8
0
100
AcDbLine
10
159.01796999999999
20
188.00404
30
0
11
168.85657000000003
21
188.06009
31
0
0
LINE
5
258
100
AcDbEntity
8
0
100
AcDbLine
10
168.85657000000003
20
188.06009
30
0
11
169.48926
21
188.06325000000001
31
0
0
LINE
5
259
100
AcDbEntity
8
0
100
AcDbLine
10
169.48926
20
188.06325000000001
30
0
11
169.62996999999999
21
159.31082000000001
31
0
0
LINE
5
260
100
AcDbEntity
8
0
100
AcDbLine
10
169.62996999999999
20
159.31082000000001
30
0
11
158.85675000000001
21
148.87578999999999
31
0
0
LINE
5
261
100
AcDbEntity
8
0
100
AcDbLine
10
33.022514000000001
20
143.70331999999999
30
0
11
38.773266
21
143.74257
31
0
0
ARC
5
262
100
AcDbEntity
8
0
100
AcDbCircle
10
-38.807348656727562
20
138.74260985447467
30
0
40
5.0000763078508381
210
0
220
0
230
-1
100
AcDbArc
50
89.609444458946967
51
179.6080981256568
0
LINE
5
263
100
AcDbEntity
8
0
100
AcDbLine
10
43.807307999999992
20
138.77681000000001
30
0
11
43.803860000000007
21
139.06491
31
0
0
ARC
5
264
100
AcDbEntity
8
0
100
AcDbCircle
10
-38.987384288675308
20
138.92893613490767
30
0
40
4.8183946672900211
210
0
220
0
230
-1
100
AcDbArc
50
178.38291307951678
51
180.10411970911721
0
LINE
5
265
100
AcDbEntity
8
0
100
AcDbLine
10
43.805771
20
138.92018000000002
30
0
11
43.806159999999998
21
139.20961
31
0
0
ARC
5
266
100
AcDbEntity
8
0
100
AcDbCircle
10
-38.806326146325397
20
139.21725873289961
30
0
40
4.9998397041770817
210
0
220
-0
230
-1
100
AcDbArc
50
180.08765086695414
51
225.08901168341956
0
ARC
5
267
100
AcDbEntity
8
0
100
AcDbCircle
10
-38.806204285798295
20
139.21733074053438
30
0
40
4.9999767348647879
210
0
220
-0
230
-1
100
AcDbArc
50
225.08860529122362
51
270.08872050827887
0
LINE
5
268
100
AcDbEntity
8
0
100
AcDbLine
10
38.798462000000001
20
134.21736000000004
30
0
11
33.047539
21
134.22627
31
0
0
LINE
5
269
100
AcDbEntity
8
0
100
AcDbLine
10
243.43979000000002
20
217.9973
30
0
11
238.43987999999999
21
217.96392999999998
31
0
0
LWPOLYLINE
5
270
100
AcDbEntity
8
0
100
AcDbPolyline
90
4
70
1
43
0.0
10
236.59451000000004
20
76.839202999999998
42
0.41420988000000308
10
240.96506000000005
20
81.26849399999999
42
0.4142098799999952
10
236.53580000000002
20
85.639037999999999
42
0.41420803999999511
10
232.16522000000001
20
81.209746999999993
42
0.4142098799999982
0
LINE
5
271
100
AcDbEntity
8
0
100
AcDbLine
10
186.44103999999999
20
217.61694000000003
30
0
11
181.44116
21
217.58358999999999
31
0
0
LINE
5
272
100
AcDbEntity
8
0
100
AcDbLine
10
189.36316000000002
20
176.76942
30
0
11
184.36322000000001
21
176.74339000000001
31
0
0
LINE
5
273
100
AcDbEntity
8
0
100
AcDbLine
10
140.33968999999999
20
129.57684
30
0
11
135.3398
21
129.54346999999999
31
0
0
LINE
5
274
100
AcDbEntity
8
0
100
AcDbLine
10
110.58627000000001
20
168.50096000000005
30
0
11
115.58618000000001
21
168.52698000000001
31
0
0
LINE
5
275
100
AcDbEntity
8
0
100
AcDbLine
10
120.93101000000003
20
110.48180000000002
30
0
11
125.93088999999999
21
110.51515000000002
31
0
0
LINE
5
276
100
AcDbEntity
8
0
100
AcDbLine
10
106.78473000000002
20
90.235703000000015
30
0
11
101.78484
21
90.202331999999998
31
0
0
LINE
5
277
100
AcDbEntity
8
0
100
AcDbLine
10
130.22038000000003
20
149.63784999999999
30
0
11
125.22044000000001
21
149.61182000000002
31
0
0
LINE
5
278
100
AcDbEntity
8
0
100
AcDbLine
10
120.34013000000002
20
129.44338999999999
30
0
11
115.34024000000001
21
129.41002
31
0
0
LINE
5
279
100
AcDbEntity
8
0
100
AcDbLine
10
153.19821000000002
20
90.545410000000004
30
0
11
148.19833
21
90.512039000000016
31
0
0
LINE
5
280
100
AcDbEntity
8
0
100
AcDbLine
10
90.586533000000017
20
168.39693
30
0
11
95.586464000000007
21
168.42296999999999
31
0
0
LINE
5
281
100
AcDbEntity
8
0
100
AcDbLine
10
262.56493999999998
20
120.18280000000001
30
0
11
259.565
21
120.16278
31
0
0
LINE
5
282
100
AcDbEntity
8
0
100
AcDbLine
10
58.593772999999999
20
148.84878999999998
30
0
11
54.593872000000005
21
148.82093999999998
31
0
0
LINE
5
283
100
AcDbEntity
8
0
100
AcDbLine
10
202.32611000000003
20
160.22269
30
0
11
197.32617000000002
21
160.19664000000003
31
0
0
LINE
5
284
100
AcDbEntity
8
0
100
AcDbLine
10
237.81152000000006
20
100.85439000000001
30
0
11
232.81165000000001
21
100.82103000000002
31
0
0
LINE
5
285
100
AcDbEntity
8
0
100
AcDbLine
10
71.551575
20
168.29793000000001
30
0
11
75.586731
21
168.31897000000001
31
0
0
LINE
5
286
100
AcDbEntity
8
0
100
AcDbLine
10
52.136963000000009
20
144.70831000000001
30
0
11
52.134113000000006
21
140.66426000000001
31
0
0
LINE
5
287
100
AcDbEntity
8
0
100
AcDbLine
10
257.77695
20
122.97322000000001
30
0
11
257.74358999999998
21
127.97311000000001
31
0
0
LINE
5
288
100
AcDbEntity
8
0
100
AcDbLine
10
237.56549000000001
20
120.01598999999999
30
0
11
242.56540000000001
21
120.04935000000002
31
0
0
LINE
5
289
100
AcDbEntity
8
0
100
AcDbLine
10
67.628501999999997
20
149.00004999999999
30
0
11
67.628051999999997
21
148.95827
31
0
0
LINE
5
290
100
AcDbEntity
8
0
100
AcDbLine
10
174.81311000000002
20
100.69623
30
0
11
170.81335000000001
21
100.7394
31
0
0
LWPOLYLINE
5
291
100
AcDbEntity
8
0
100
AcDbPolyline
90
4
70
1
43
0.0
10
111.66540000000001
20
117.61823999999999
42
0.41421355999999471
10
108.89711000000003
20
120.34981999999999
42
0.41421364999999932
10
106.16552000000001
20
117.58153999999999
42
0.41421355999999143
10
108.93381000000002
20
114.84994999999999
42
0.41421356000000092
0
LINE
5
292
100
AcDbEntity
8
0
100
AcDbLine
10
257.59174000000002
20
151.68781999999999
30
0
11
257.56569999999999
21
156.68777
31
0
0
LINE
5
293
100
AcDbEntity
8
0
100
AcDbLine
10
33.516220000000004
20
143.63342
30
0
11
33.032775999999998
21
143.70188999999999
31
0
0
LINE
5
294
100
AcDbEntity
8
0
100
AcDbLine
10
257.64348999999999
20
142.97278
30
0
11
257.67687999999998
21
137.97289000000001
31
0
0
LINE
5
295
100
AcDbEntity
8
0
100
AcDbLine
10
100.58639000000001
20
168.44893999999999
30
0
11
105.58633
21
168.47496000000004
31
0
0
LINE
5
296
100
AcDbEntity
8
0
100
AcDbLine
10
80.931899999999999
20
110.21478000000002
30
0
11
85.931793000000013
21
110.24815000000001
31
0
0
LINE
5
297
100
AcDbEntity
8
0
100
AcDbLine
10
212.56607000000002
20
119.84917000000002
30
0
11
207.56616000000002
21
119.81580000000001
31
0
0
LINE
5
298
100
AcDbEntity
8
0
100
AcDbLine
10
150.22011000000001
20
149.74194
30
0
11
145.22017
21
149.71593999999999
31
0
0
LINE
5
299
100
AcDbEntity
8
0
100
AcDbLine
10
199.36304000000001
20
176.82144
30
0
11
194.36310000000003
21
176.79543999999999
31
0
0
LINE
5
300
100
AcDbEntity
8
0
100
AcDbLine
10
217.26372999999998
20
176.91397000000001
30
0
11
212.26381000000003
21
176.88797
31
0
0
LINE
5
301
100
AcDbEntity
8
0
100
AcDbLine
10
212.32598999999999
20
160.2747
30
0
11
207.32605000000004
21
160.24866
31
0
0
LINE
5
302
100
AcDbEntity
8
0
100
AcDbLine
10
120.58611999999999
20
168.55298000000002
30
0
11
125.58606
21
168.57896000000005
31
0
0
LINE
5
303
100
AcDbEntity
8
0
100
AcDbLine
10
145.69988999999998
20
104.23775000000001
30
0
11
145.65816000000001
21
110.4931
31
0
0
LINE
5
304
100
AcDbEntity
8
0
100
AcDbLine
10
172.56693999999999
20
119.58226000000002
30
0
11
170.06699
21
119.56557000000001
31
0
0
LINE
5
305
100
AcDbEntity
8
0
100
AcDbLine
10
143.19843999999998
20
90.47868299999999
30
0
11
138.19855000000001
21
90.445313000000013
31
0
0
LWPOLYLINE
5
306
100
AcDbEntity
8
0
100
AcDbPolyline
90
4
70
1
43
0.0
10
60.112632999999995
20
94.999329000000017
42
0.41421355999999354
10
57.381041999999994
20
92.231033000000025
42
0.41421356000001064
10
60.149334000000003
20
89.499451000000008
42
0.4142135599999977
10
62.880920000000003
20
92.267731000000012
42
0.4142135599999936
0
LINE
5
307
100
AcDbEntity
8
0
100
AcDbLine
10
71.852760000000004
20
144.64906000000002
30
0
11
71.864188999999996
21
140.34599
31
0
0
LINE
5
308
100
AcDbEntity
8
0
100
AcDbLine
10
80.586669999999998
20
168.34494000000001
30
0
11
85.586608999999996
21
168.37096
31
0
0
LINE
5
309
100
AcDbEntity
8
0
100
AcDbLine
10
100.22079000000002
20
149.48169999999999
30
0
11
95.220848000000004
21
149.45563000000001
31
0
0
LINE
5
310
100
AcDbEntity
8
0
100
AcDbLine
10
130.3399
20
129.51012
30
0
11
125.34002000000001
21
129.47675000000001
31
0
0
LINE
5
311
100
AcDbEntity
8
0
100
AcDbLine
10
172.32651000000001
20
160.06651000000002
30
0
11
169.82653999999999
21
160.05348000000001
31
0
0
LINE
5
312
100
AcDbEntity
8
0
100
AcDbLine
10
177.56683000000004
20
119.61562000000001
30
0
11
182.56671
21
119.64899000000001
31
0
0
LINE
5
313
100
AcDbEntity
8
0
100
AcDbLine
10
187.56659999999999
20
119.68234000000001
30
0
11
192.56650000000002
21
119.71571000000003
31
0
0
LINE
5
314
100
AcDbEntity
8
0
100
AcDbLine
10
222.32584000000003
20
160.32675
30
0
11
217.32592999999997
21
160.30073999999999
31
0
0
LINE
5
315
100
AcDbEntity
8
0
100
AcDbLine
10
272.32482999999996
20
160.6302
30
0
11
267.32507000000004
21
160.58257
31
0
0
LINE
5
316
100
AcDbEntity
8
0
100
AcDbLine
10
252.56516000000005
20
120.11606999999999
30
0
11
247.56528
21
120.08271999999999
31
0
0
LINE
5
317
100
AcDbEntity
8
0
100
AcDbLine
10
68.708877999999999
20
129.49743999999998
30
0
11
63.708942000000015
21
129.47284999999999
31
0
0
LINE
5
318
100
AcDbEntity
8
0
100
AcDbLine
10
90.220923999999997
20
149.42968999999999
30
0
11
85.220993000000007
21
149.40361000000001
31
0
0
LINE
5
319
100
AcDbEntity
8
0
100
AcDbLine
10
90.931679000000003
20
110.28152
30
0
11
95.931563999999995
21
110.31491000000003
31
0
0
LINE
5
320
100
AcDbEntity
8
0
100
AcDbLine
10
110.22065000000001
20
149.53375
30
0
11
105.22071000000003
21
149.50772000000001
31
0
0
LINE
5
321
100
AcDbEntity
8
0
100
AcDbLine
10
227.26361
20
176.96596
30
0
11
222.26367000000005
21
176.93999000000002
31
0
0
LINE
5
322
100
AcDbEntity
8
0
100
AcDbLine
10
217.81197000000006
20
100.72086999999999
30
0
11
212.81207000000001
21
100.68752000000001
31
0
0
LWPOLYLINE
5
323
100
AcDbEntity
8
0
100
AcDbPolyline
90
4
70
1
43
0.0
10
261.74257999999998
20
142.52404999999999
42
0.41421356000000337
10
259.01098999999999
20
139.75575000000001
42
0.41421355999999571
10
261.77930000000003
20
137.02417
42
0.41421356000001586
10
264.51086000000004
20
139.79245
42
0.41421355999999909
0
LINE
5
324
100
AcDbEntity
8
0
100
AcDbLine
10
90.340796999999995
20
129.24319
30
0
11
85.340912000000003
21
129.20983999999999
31
0
0
LINE
5
325
100
AcDbEntity
8
0
100
AcDbLine
10
71.896904000000006
20
110.15450000000001
30
0
11
75.931999000000005
21
110.18143000000002
31
0
0
LINE
5
326
100
AcDbEntity
8
0
100
AcDbLine
10
180.30185
20
100.63708000000003
30
0
11
199.51172
21
100.42999000000002
31
0
0
LINE
5
327
100
AcDbEntity
8
0
100
AcDbLine
10
140.22024999999999
20
149.68986999999998
30
0
11
135.22031000000001
21
149.66383000000002
31
0
0
LINE
5
328
100
AcDbEntity
8
0
100
AcDbLine
10
192.32623000000004
20
160.17061000000001
30
0
11
187.32631999999998
21
160.14458999999999
31
0
0
LINE
5
329
100
AcDbEntity
8
0
100
AcDbLine
10
150.33946
20
129.64357000000001
30
0
11
145.33957000000001
21
129.61019999999999
31
0
0
LINE
5
330
100
AcDbEntity
8
0
100
AcDbLine
10
161.04263
20
169.17926
30
0
11
165.52692000000002
21
169.25426000000002
31
0
0
LINE
5
331
100
AcDbEntity
8
0
100
AcDbLine
10
191.44093000000001
20
217.65033
30
0
11
196.44083000000001
21
217.68369000000001
31
0
0
LINE
5
332
100
AcDbEntity
8
0
100
AcDbLine
10
154.05414000000002
20
168.88086999999999
30
0
11
135.02168
21
168.67766
31
0
0
LINE
5
333
100
AcDbEntity
8
0
100
AcDbLine
10
242.32556000000002
20
160.43081999999998
30
0
11
237.32562000000001
21
160.40483
31
0
0
LINE
5
334
100
AcDbEntity
8
0
100
AcDbLine
10
247.81131000000002
20
100.92123000000001
30
0
11
242.81143
21
100.88776000000001
31
0
0
LINE
5
335
100
AcDbEntity
8
0
100
AcDbLine
10
67.744857999999994
20
129.40436
30
0
11
67.743926999999999
21
129.4462
31
0
0
LINE
5
336
100
AcDbEntity
8
0
100
AcDbLine
10
182.32639000000003
20
160.11852999999999
30
0
11
177.32645000000002
21
160.09258
31
0
0
LINE
5
337
100
AcDbEntity
8
0
100
AcDbLine
10
128.08601000000004
20
168.59204000000003
30
0
11
133.08593999999999
21
168.61803000000003
31
0
0
LINE
5
338
100
AcDbEntity
8
0
100
AcDbLine
10
256.29840000000002
20
177.11698999999999
30
0
11
252.26326
21
177.09601000000004
31
0
0
LINE
5
339
100
AcDbEntity
8
0
100
AcDbLine
10
222.56584000000001
20
119.91588999999999
30
0
11
217.56595000000002
21
119.88252000000001
31
0
0
LINE
5
340
100
AcDbEntity
8
0
100
AcDbLine
10
120.2205
20
149.58577
30
0
11
115.22058000000001
21
149.55973999999998
31
0
0
LINE
5
341
100
AcDbEntity
8
0
100
AcDbLine
10
77.841080000000005
20
129.15978999999999
30
0
11
81.861908
21
129.17061999999999
31
0
0
LINE
5
342
100
AcDbEntity
8
0
100
AcDbLine
10
71.882271000000003
20
133.48567
30
0
11
71.870979000000005
21
137.78868
31
0
0
LINE
5
343
100
AcDbEntity
8
0
100
AcDbLine
10
152.50519
20
207.89028999999999
30
0
11
147.50531000000001
21
207.85693000000003
31
0
0
LINE
5
344
100
AcDbEntity
8
0
100
AcDbLine
10
58.708996000000006
20
129.44826
30
0
11
54.709042000000004
21
129.42863
31
0
0
LINE
5
345
100
AcDbEntity
8
0
100
AcDbLine
10
71.952667000000019
20
187.96822000000003
30
0
11
71.954070999999999
21
187.96822000000003
31
0
0
LINE
5
346
100
AcDbEntity
8
0
100
AcDbLine
10
128.43084999999999
20
110.53185000000001
30
0
11
133.43073000000001
21
110.5652
31
0
0
LINE
5
347
100
AcDbEntity
8
0
100
AcDbLine
10
91.435210999999995
20
172.92508999999998
30
0
11
91.476844999999997
21
183.61366000000001
31
0
0
LINE
5
348
100
AcDbEntity
8
0
100
AcDbLine
10
174.20938000000004
20
176.69055
30
0
11
170.20944
21
176.66971999999998
31
0
0
LINE
5
349
100
AcDbEntity
8
0
100
AcDbLine
10
68.593536
20
148.91844
30
0
11
63.593655000000012
21
148.88361
31
0
0
ENDSEC
0
SECTION
2
OBJECTS
0
DICTIONARY
5
C
100
AcDbDictionary
3
ACAD_GROUP
350
D
3
ACAD_MLINESTYLE
350
17
0
DICTIONARY
5
D
100
AcDbDictionary
0
DICTIONARY
5
1A
330
C
100
AcDbDictionary
0
DICTIONARY
5
17
100
AcDbDictionary
0
ENDSEC
0
EOF
