  0
SECTION
  2
HEADER
  9
$ACADVER
  1
AC1009
  0
ENDSEC
  0
SECTION
  2
TABLES
  0
TABLE
  2
LAYER
  70
1
  0
LAYER
  2
Layer_10
  70
0
  62
12
  6
CONTINUOUS
  0
ENDTAB
  0
ENDSEC
  0
SECTION
  2
ENTITIES
  0
POLYLINE
  5
90
  8
Layer_10
  62
12
  66
1
  10
0
  20
0
  30
0
  0
VERTEX
  5
90
  8
Layer_10
  10
9.0075226
  20
270.64752
  0
VERTEX
  5
91
  8
Layer_10
  10
14.75845
  20
270.63861
  42
0.19891484
  0
VERTEX
  5
92
  8
Layer_10
  10
18.296234
  20
272.0976
  42
0.19892107
  0
VERTEX
  5
93
  8
Layer_10
  10
19.766144
  20
275.63086
  0
VERTEX
  5
94
  8
Layer_10
  10
19.765755
  20
275.34143
  42
0.0075115672
  0
VERTEX
  5
95
  8
Layer_10
  10
19.763844
  20
275.48615
  0
VERTEX
  5
96
  8
Layer_10
  10
19.767292
  20
275.19806
  42
0.41420749
  0
VERTEX
  5
97
  8
Layer_10
  10
14.733246
  20
280.16382
  0
VERTEX
  5
98
  8
Layer_10
  10
8.9824982
  20
280.12457
  0
SEQEND
  0
POLYLINE
  5
9a
  8
Layer_10
  62
12
  66
1
  10
0
  20
0
  30
0
  0
VERTEX
  5
9a
  8
Layer_10
  10
208.5256
  20
256.40387
  0
VERTEX
  5
9b
  8
Layer_10
  10
203.52573
  20
256.37048
  0
SEQEND
  0
POLYLINE
  5
9d
  8
Layer_10
  62
12
  66
1
  10
0
  20
0
  30
0
  0
VERTEX
  5
9d
  8
Layer_10
  10
238.52493
  20
256.60403
  0
VERTEX
  5
9e
  8
Layer_10
  10
235.52499
  20
256.58401
  0
SEQEND
  0
POLYLINE
  5
a0
  8
Layer_10
  62
12
  66
1
  10
0
  20
0
  30
0
  0
VERTEX
  5
a0
  8
Layer_10
  10
47.842247
  20
284.75339
  0
VERTEX
  5
a1
  8
Layer_10
  10
47.566582
  20
324.34891
  0
VERTEX
  5
a2
  8
Layer_10
  10
47.566704
  20
324.92978
  42
0.20014386
  0
VERTEX
  5
a3
  8
Layer_10
  10
46.382202
  20
327.77182
  42
0.20014798
  0
VERTEX
  5
a4
  8
Layer_10
  10
43.529472
  20
328.93039
  0
VERTEX
  5
a5
  8
Layer_10
  10
32.212181
  20
328.82507
  42
0.19899893
  0
VERTEX
  5
a6
  8
Layer_10
  10
29.393578
  20
327.62601
  42
0.19903825
  0
VERTEX
  5
a7
  8
Layer_10
  10
28.249626
  20
324.78458
  0
VERTEX
  5
a8
  8
Layer_10
  10
28.24221
  20
325.50952
  0
VERTEX
  5
a9
  8
Layer_10
  10
28.181526
  20
285.26865
  0
VERTEX
  5
aa
  8
Layer_10
  10
5.4321747
  20
285.37772
  0
VERTEX
  5
ab
  8
Layer_10
  10
4.0526733
  20
285.38431
  42
0.40890564
  0
VERTEX
  5
ac
  8
Layer_10
  10
-0.46774292
  20
280.98758
  0
VERTEX
  5
ad
  8
Layer_10
  10
-0.59686279
  20
275.36069
  0
VERTEX
  5
ae
  8
Layer_10
  10
-0.4379425
  20
269.73456
  42
0.4089121
  0
VERTEX
  5
af
  8
Layer_10
  10
4.1055603
  20
265.36169
  0
VERTEX
  5
b0
  8
Layer_10
  10
5.4849854
  20
265.37567
  0
VERTEX
  5
b1
  8
Layer_10
  10
28.233376
  20
265.60489
  0
VERTEX
  5
b2
  8
Layer_10
  10
28.506691
  20
225.36481
  0
VERTEX
  5
b3
  8
Layer_10
  10
28.510216
  20
226.08983
  42
0.19904093
  0
VERTEX
  5
b4
  8
Layer_10
  10
29.669174
  20
223.25446
  42
0.19902207
  0
VERTEX
  5
b5
  8
Layer_10
  10
32.494125
  20
222.07028
  0
VERTEX
  5
b6
  8
Layer_10
  10
43.811821
  20
222.02472
  42
0.20015231
  0
VERTEX
  5
b7
  8
Layer_10
  10
46.658363
  20
223.19836
  42
0.20014405
  0
VERTEX
  5
b8
  8
Layer_10
  10
47.827766
  20
226.04674
  0
VERTEX
  5
b9
  8
Layer_10
  10
47.823418
  20
226.68839
  0
VERTEX
  5
ba
  8
Layer_10
  10
47.89032
  20
266.46295
  0
SEQEND
  0
POLYLINE
  5
bc
  8
Layer_10
  62
12
  66
1
  10
0
  20
0
  30
0
  0
VERTEX
  5
bc
  8
Layer_10
  10
67.304405
  20
243.78036
  0
VERTEX
  5
bd
  8
Layer_10
  10
61.230095
  20
241.27817
  0
VERTEX
  5
be
  8
Layer_10
  10
61.121902
  20
231.4519
  0
VERTEX
  5
bf
  8
Layer_10
  10
67.173042
  20
229.48778
  0
SEQEND
  0
POLYLINE
  5
c1
  8
Layer_10
  62
12
  66
1
  10
0
  20
0
  30
0
  0
VERTEX
  5
c1
  8
Layer_10
  10
82.744713
  20
226.65694
  0
VERTEX
  5
c2
  8
Layer_10
  10
77.744835
  20
226.62357
  0
SEQEND
  0
POLYLINE
  5
c4
  8
Layer_10
  62
12
  66
1
  10
0
  20
0
  30
0
  0
VERTEX
  5
c4
  8
Layer_10
  10
86.180626
  20
285.95499
  0
VERTEX
  5
c5
  8
Layer_10
  10
81.180695
  20
285.92896
  0
SEQEND
  0
POLYLINE
  5
c7
  8
Layer_10
  62
12
  66
1
  10
0
  20
0
  30
0
  0
VERTEX
  5
c7
  8
Layer_10
  10
76.546371
  20
304.87018
  0
VERTEX
  5
c8
  8
Layer_10
  10
81.54631
  20
304.89621
  0
SEQEND
  0
POLYLINE
  5
ca
  8
Layer_10
  62
12
  66
1
  10
0
  20
0
  30
0
  0
VERTEX
  5
ca
  8
Layer_10
  10
47.511559
  20
304.71915
  0
VERTEX
  5
cb
  8
Layer_10
  10
51.546715
  20
304.7402
  0
SEQEND
  0
POLYLINE
  5
cd
  8
Layer_10
  62
12
  70
1
  66
1
  10
0
  20
0
  30
0
  0
VERTEX
  5
cd
  8
Layer_10
  10
85.29438
  20
240.26584
  42
0.41420805
  0
VERTEX
  5
ce
  8
Layer_10
  10
80.923828
  20
235.83652
  42
0.41421172
  0
VERTEX
  5
cf
  8
Layer_10
  10
85.353111
  20
231.46594
  42
0.4142154
  0
VERTEX
  5
d0
  8
Layer_10
  10
89.72364
  20
235.89523
  42
0.4142154
  0
SEQEND
  0
POLYLINE
  5
d2
  8
Layer_10
  62
12
  66
1
  10
0
  20
0
  30
0
  0
VERTEX
  5
d2
  8
Layer_10
  10
28.096947
  20
281.12955
  0
VERTEX
  5
d3
  8
Layer_10
  10
28.094093
  20
277.08551
  0
SEQEND
  0
POLYLINE
  5
d5
  8
Layer_10
  62
12
  66
1
  10
0
  20
0
  30
0
  0
VERTEX
  5
d5
  8
Layer_10
  10
233.60349
  20
279.39401
  0
VERTEX
  5
d6
  8
Layer_10
  10
233.63687
  20
274.3941
  0
SEQEND
  0
POLYLINE
  5
d8
  8
Layer_10
  62
12
  66
1
  10
0
  20
0
  30
0
  0
VERTEX
  5
d8
  8
Layer_10
  10
193.77567
  20
238.10843
  0
VERTEX
  5
d9
  8
Layer_10
  10
188.77206
  20
238.10843
  0
SEQEND
  0
POLYLINE
  5
db
  8
Layer_10
  62
12
  70
1
  66
1
  10
0
  20
0
  30
0
  0
VERTEX
  5
db
  8
Layer_10
  10
215.75421
  20
333.07614
  42
0.19892096
  0
VERTEX
  5
dc
  8
Layer_10
  10
214.44476
  20
336.17877
  42
0.19891057
  0
VERTEX
  5
dd
  8
Layer_10
  10
211.32495
  20
337.44669
  42
0.4142154
  0
VERTEX
  5
de
  8
Layer_10
  10
206.95441
  20
333.01743
  42
0.41420621
  0
VERTEX
  5
df
  8
Layer_10
  10
211.38367
  20
328.64694
  42
0.41420253
  0
SEQEND
  0
POLYLINE
  5
e1
  8
Layer_10
  62
12
  70
1
  66
1
  10
0
  20
0
  30
0
  0
VERTEX
  5
e1
  8
Layer_10
  10
84.857094
  20
256.77106
  42
0.41421355
  0
VERTEX
  5
e2
  8
Layer_10
  10
82.125504
  20
254.00278
  42
0.41421356
  0
VERTEX
  5
e3
  8
Layer_10
  10
84.893791
  20
251.27118
  42
0.41420768
  0
VERTEX
  5
e4
  8
Layer_10
  10
87.625389
  20
254.03947
  42
0.41421062
  0
SEQEND
  0
POLYLINE
  5
e6
  8
Layer_10
  62
12
  70
1
  66
1
  10
0
  20
0
  30
0
  0
VERTEX
  5
e6
  8
Layer_10
  10
88.098289
  20
218.9696
  42
0.41420473
  0
VERTEX
  5
e7
  8
Layer_10
  10
85.329994
  20
221.70117
  42
0.41421355
  0
VERTEX
  5
e8
  8
Layer_10
  10
82.598404
  20
218.93289
  42
0.41420916
  0
VERTEX
  5
e9
  8
Layer_10
  10
85.366692
  20
216.20129
  42
0.41421356
  0
SEQEND
  0
POLYLINE
  5
eb
  8
Layer_10
  62
12
  70
1
  66
1
  10
0
  20
0
  30
0
  0
VERTEX
  5
eb
  8
Layer_10
  10
208.64859
  20
307.62955
  42
0.41421358
  0
VERTEX
  5
ec
  8
Layer_10
  10
211.4169
  20
304.89795
  42
0.41421358
  0
VERTEX
  5
ed
  8
Layer_10
  10
214.14847
  20
307.66623
  42
0.41420768
  0
VERTEX
  5
ee
  8
Layer_10
  10
211.38019
  20
310.39783
  42
0.41421358
  0
SEQEND
  0
POLYLINE
  5
f0
  8
Layer_10
  62
12
  70
1
  66
1
  10
0
  20
0
  30
0
  0
VERTEX
  5
f0
  8
Layer_10
  10
237.70258
  20
278.94528
  42
0.41420766
  0
VERTEX
  5
f1
  8
Layer_10
  10
234.97098
  20
276.177
  42
0.19891027
  0
VERTEX
  5
f2
  8
Layer_10
  10
235.7894
  20
274.23785
  42
0.19891833
  0
VERTEX
  5
f3
  8
Layer_10
  10
237.73929
  20
273.4454
  42
0.41421062
  0
VERTEX
  5
f4
  8
Layer_10
  10
240.47086
  20
276.21368
  42
0.41421358
  0
SEQEND
  0
POLYLINE
  5
f6
  8
Layer_10
  62
12
  66
1
  10
0
  20
0
  30
0
  0
VERTEX
  5
f6
  8
Layer_10
  10
34.553757
  20
285.27002
  0
VERTEX
  5
f7
  8
Layer_10
  10
30.553856
  20
285.24216
  0
SEQEND
  0
POLYLINE
  5
f9
  8
Layer_10
  62
12
  66
1
  10
0
  20
0
  30
0
  0
VERTEX
  5
f9
  8
Layer_10
  10
67.395195
  20
309.34634
  0
VERTEX
  5
fa
  8
Layer_10
  10
67.436829
  20
320.03488
  0
SEQEND
  0
POLYLINE
  5
fc
  8
Layer_10
  62
12
  70
1
  66
1
  10
0
  20
0
  30
0
  0
VERTEX
  5
fc
  8
Layer_10
  10
84.800125
  20
295.02145
  42
0.41421063
  0
VERTEX
  5
fd
  8
Layer_10
  10
87.531715
  20
297.78973
  42
0.41421358
  0
VERTEX
  5
fe
  8
Layer_10
  10
84.76342
  20
300.52133
  42
0.41421652
  0
VERTEX
  5
ff
  8
Layer_10
  10
82.031845
  20
297.75302
  42
0.19891461
  0
VERTEX
  5
100
  8
Layer_10
  10
82.85025
  20
295.8139
  42
0.19891641
  0
SEQEND
  0
POLYLINE
  5
102
  8
Layer_10
  62
12
  66
1
  10
0
  20
0
  30
0
  0
VERTEX
  5
102
  8
Layer_10
  10
167.40091
  20
354.07156
  0
VERTEX
  5
103
  8
Layer_10
  10
172.40082
  20
354.10492
  0
SEQEND
  0
POLYLINE
  5
105
  8
Layer_10
  62
12
  66
1
  10
0
  20
0
  30
0
  0
VERTEX
  5
105
  8
Layer_10
  10
121.65987
  20
240.65898
  0
VERTEX
  5
106
  8
Layer_10
  10
121.61814
  20
246.91434
  0
SEQEND
  0
POLYLINE
  5
108
  8
Layer_10
  62
12
  66
1
  10
0
  20
0
  30
0
  0
VERTEX
  5
108
  8
Layer_10
  10
119.15842
  20
226.89992
  0
VERTEX
  5
109
  8
Layer_10
  10
114.15853
  20
226.86655
  0
SEQEND
  0
POLYLINE
  5
10b
  8
Layer_10
  62
12
  66
1
  10
0
  20
0
  30
0
  0
VERTEX
  5
10b
  8
Layer_10
  10
148.52692
  20
256.00348
  0
VERTEX
  5
10c
  8
Layer_10
  10
146.02698
  20
255.9868
  0
SEQEND
  0
POLYLINE
  5
10e
  8
Layer_10
  62
12
  66
1
  10
0
  20
0
  30
0
  0
VERTEX
  5
10e
  8
Layer_10
  10
47.566582
  20
324.34891
  0
VERTEX
  5
10f
  8
Layer_10
  10
75.08696
  20
324.34341
  0
VERTEX
  5
110
  8
Layer_10
  10
94.365013
  20
324.45035
  0
VERTEX
  5
111
  8
Layer_10
  10
111.13514
  20
324.42331
  0
VERTEX
  5
112
  8
Layer_10
  10
134.97797
  20
324.42526
  0
VERTEX
  5
113
  8
Layer_10
  10
144.81656
  20
324.48132
  0
VERTEX
  5
114
  8
Layer_10
  10
145.44925
  20
324.48447
  0
VERTEX
  5
115
  8
Layer_10
  10
145.58997
  20
295.73206
  0
VERTEX
  5
116
  8
Layer_10
  10
134.81674
  20
285.29703
  0
SEQEND
  0
POLYLINE
  5
118
  8
Layer_10
  62
12
  66
1
  10
0
  20
0
  30
0
  0
VERTEX
  5
118
  8
Layer_10
  10
104.046
  20
305.01328
  0
VERTEX
  5
119
  8
Layer_10
  10
109.04592
  20
305.03928
  0
SEQEND
  0
POLYLINE
  5
11b
  8
Layer_10
  62
12
  66
1
  10
0
  20
0
  30
0
  0
VERTEX
  5
11b
  8
Layer_10
  10
44.668861
  20
265.91867
  0
VERTEX
  5
11c
  8
Layer_10
  10
39.668922
  20
265.8941
  0
SEQEND
  0
POLYLINE
  5
11e
  8
Layer_10
  62
12
  66
1
  10
0
  20
0
  30
0
  0
VERTEX
  5
11e
  8
Layer_10
  10
129.1582
  20
226.96664
  0
VERTEX
  5
11f
  8
Layer_10
  10
124.15832
  20
226.93327
  0
SEQEND
  0
POLYLINE
  5
121
  8
Layer_10
  62
12
  66
1
  10
0
  20
0
  30
0
  0
VERTEX
  5
121
  8
Layer_10
  10
131.54428
  20
246.92632
  0
VERTEX
  5
122
  8
Layer_10
  10
111.69201
  20
246.90244
  0
SEQEND
  0
POLYLINE
  5
124
  8
Layer_10
  62
12
  70
1
  66
1
  10
0
  20
0
  30
0
  0
VERTEX
  5
124
  8
Layer_10
  10
212.49579
  20
222.06027
  42
0.41420621
  0
VERTEX
  5
125
  8
Layer_10
  10
208.12521
  20
217.63098
  42
0.41420988
  0
VERTEX
  5
126
  8
Layer_10
  10
212.5545
  20
213.26044
  42
0.41420987
  0
VERTEX
  5
127
  8
Layer_10
  10
216.92505
  20
217.68973
  42
0.41420988
  0
SEQEND
  0
POLYLINE
  5
129
  8
Layer_10
  62
12
  66
1
  10
0
  20
0
  30
0
  0
VERTEX
  5
129
  8
Layer_10
  10
183.82614
  20
238.02597
  0
VERTEX
  5
12a
  8
Layer_10
  10
179.12585
  20
238.00385
  0
SEQEND
  0
POLYLINE
  5
12c
  8
Layer_10
  62
12
  70
1
  66
1
  10
0
  20
0
  30
0
  0
VERTEX
  5
12c
  8
Layer_10
  10
36.072617
  20
231.42056
  42
0.41420914
  0
VERTEX
  5
12d
  8
Layer_10
  10
33.341026
  20
228.65227
  42
0.41421503
  0
VERTEX
  5
12e
  8
Layer_10
  10
36.109322
  20
225.92068
  42
0.41421355
  0
VERTEX
  5
12f
  8
Layer_10
  10
38.840904
  20
228.68896
  42
0.41421356
  0
SEQEND
  0
POLYLINE
  5
131
  8
Layer_10
  62
12
  66
1
  10
0
  20
0
  30
0
  0
VERTEX
  5
131
  8
Layer_10
  10
162.40103
  20
354.03818
  0
VERTEX
  5
132
  8
Layer_10
  10
157.40115
  20
354.00482
  0
SEQEND
  0
POLYLINE
  5
134
  8
Layer_10
  62
12
  66
1
  10
0
  20
0
  30
0
  0
VERTEX
  5
134
  8
Layer_10
  10
47.912651
  20
324.38943
  0
VERTEX
  5
135
  8
Layer_10
  10
47.914055
  20
324.38943
  0
SEQEND
  0
POLYLINE
  5
137
  8
Layer_10
  62
12
  66
1
  10
0
  20
0
  30
0
  0
VERTEX
  5
137
  8
Layer_10
  10
223.7713
  20
238.34213
  0
VERTEX
  5
138
  8
Layer_10
  10
218.77142
  20
238.30867
  0
SEQEND
  0
POLYLINE
  5
13a
  8
Layer_10
  62
12
  66
1
  10
0
  20
0
  30
0
  0
VERTEX
  5
13a
  8
Layer_10
  10
118.4654
  20
344.24478
  0
VERTEX
  5
13b
  8
Layer_10
  10
113.46551
  20
344.21146
  0
SEQEND
  0
POLYLINE
  5
13d
  8
Layer_10
  62
12
  66
1
  10
0
  20
0
  30
0
  0
VERTEX
  5
13d
  8
Layer_10
  10
233.73694
  20
259.39447
  0
VERTEX
  5
13e
  8
Layer_10
  10
233.70358
  20
264.39435
  0
SEQEND
  0
POLYLINE
  5
140
  8
Layer_10
  62
12
  66
1
  10
0
  20
0
  30
0
  0
VERTEX
  5
140
  8
Layer_10
  10
53.801064
  20
265.58102
  0
VERTEX
  5
141
  8
Layer_10
  10
57.821892
  20
265.59186
  0
SEQEND
  0
POLYLINE
  5
143
  8
Layer_10
  62
12
  66
1
  10
0
  20
0
  30
0
  0
VERTEX
  5
143
  8
Layer_10
  10
56.891884
  20
246.63602
  0
VERTEX
  5
144
  8
Layer_10
  10
61.891785
  20
246.66939
  0
SEQEND
  0
POLYLINE
  5
146
  8
Layer_10
  62
12
  66
1
  10
0
  20
0
  30
0
  0
VERTEX
  5
146
  8
Layer_10
  10
96.180473
  20
286.00699
  0
VERTEX
  5
147
  8
Layer_10
  10
91.180565
  20
285.98099
  0
SEQEND
  0
POLYLINE
  5
149
  8
Layer_10
  62
12
  66
1
  10
0
  20
0
  30
0
  0
VERTEX
  5
149
  8
Layer_10
  10
116.18023
  20
286.11111
  0
VERTEX
  5
14a
  8
Layer_10
  10
111.18029
  20
286.08505
  0
SEQEND
  0
POLYLINE
  5
14c
  8
Layer_10
  62
12
  66
1
  10
0
  20
0
  30
0
  0
VERTEX
  5
14c
  8
Layer_10
  10
153.52682
  20
256.03687
  0
VERTEX
  5
14d
  8
Layer_10
  10
158.5267
  20
256.07022
  0
SEQEND
  0
POLYLINE
  5
14f
  8
Layer_10
  62
12
  66
1
  10
0
  20
0
  30
0
  0
VERTEX
  5
14f
  8
Layer_10
  10
130.01413
  20
305.30209
  0
VERTEX
  5
150
  8
Layer_10
  10
110.98167
  20
305.09891
  0
SEQEND
  0
POLYLINE
  5
152
  8
Layer_10
  62
12
  66
1
  10
0
  20
0
  30
0
  0
VERTEX
  5
152
  8
Layer_10
  10
66.891663
  20
246.70276
  0
VERTEX
  5
153
  8
Layer_10
  10
71.891548
  20
246.73615
  0
SEQEND
  0
POLYLINE
  5
155
  8
Layer_10
  62
12
  66
1
  10
0
  20
0
  30
0
  0
VERTEX
  5
155
  8
Layer_10
  10
92.744484
  20
226.72366
  0
VERTEX
  5
156
  8
Layer_10
  10
87.744591
  20
226.69029
  0
SEQEND
  0
POLYLINE
  5
158
  8
Layer_10
  62
12
  66
1
  10
0
  20
0
  30
0
  0
VERTEX
  5
158
  8
Layer_10
  10
104.39083
  20
246.95309
  0
VERTEX
  5
159
  8
Layer_10
  10
109.39071
  20
246.98643
  0
SEQEND
  0
POLYLINE
  5
15b
  8
Layer_10
  62
12
  66
1
  10
0
  20
0
  30
0
  0
VERTEX
  5
15b
  8
Layer_10
  10
188.52606
  20
256.27039
  0
VERTEX
  5
15c
  8
Layer_10
  10
183.52615
  20
256.23703
  0
SEQEND
  0
POLYLINE
  5
15e
  8
Layer_10
  62
12
  70
1
  66
1
  10
0
  20
0
  30
0
  0
VERTEX
  5
15e
  8
Layer_10
  10
245.9523
  20
321.27133
  42
0.41421356
  0
VERTEX
  5
15f
  8
Layer_10
  10
243.22073
  20
318.50302
  42
0.41420768
  0
VERTEX
  5
160
  8
Layer_10
  10
245.98901
  20
315.77145
  42
0.19892115
  0
VERTEX
  5
161
  8
Layer_10
  10
247.92813
  20
316.58984
  42
0.19891896
  0
VERTEX
  5
162
  8
Layer_10
  10
248.72061
  20
318.5397
  42
0.41420768
  0
SEQEND
  0
POLYLINE
  5
164
  8
Layer_10
  62
12
  66
1
  10
0
  20
0
  30
0
  0
VERTEX
  5
164
  8
Layer_10
  10
233.55173
  20
288.10904
  0
VERTEX
  5
165
  8
Layer_10
  10
233.5257
  20
293.10901
  0
SEQEND
  0
POLYLINE
  5
167
  8
Layer_10
  62
12
  66
1
  10
0
  20
0
  30
0
  0
VERTEX
  5
167
  8
Layer_10
  10
76.180771
  20
285.90292
  0
VERTEX
  5
168
  8
Layer_10
  10
71.180832
  20
285.87686
  0
SEQEND
  0
POLYLINE
  5
16a
  8
Layer_10
  62
12
  66
1
  10
0
  20
0
  30
0
  0
VERTEX
  5
16a
  8
Layer_10
  10
76.891441
  20
246.76952
  0
VERTEX
  5
16b
  8
Layer_10
  10
81.891335
  20
246.80287
  0
SEQEND
  0
POLYLINE
  5
16d
  8
Layer_10
  62
12
  66
1
  10
0
  20
0
  30
0
  0
VERTEX
  5
16d
  8
Layer_10
  10
248.5249
  20
256.6275
  0
VERTEX
  5
16e
  8
Layer_10
  10
243.52493
  20
256.61575
  0
SEQEND
  0
POLYLINE
  5
170
  8
Layer_10
  62
12
  66
1
  10
0
  20
0
  30
0
  0
VERTEX
  5
170
  8
Layer_10
  10
137.00262
  20
305.60049
  0
VERTEX
  5
171
  8
Layer_10
  10
141.48691
  20
305.67551
  0
SEQEND
  0
POLYLINE
  5
173
  8
Layer_10
  62
12
  66
1
  10
0
  20
0
  30
0
  0
VERTEX
  5
173
  8
Layer_10
  10
86.546257
  20
304.92221
  0
VERTEX
  5
174
  8
Layer_10
  10
91.546165
  20
304.94821
  0
SEQEND
  0
POLYLINE
  5
176
  8
Layer_10
  62
12
  66
1
  10
0
  20
0
  30
0
  0
VERTEX
  5
176
  8
Layer_10
  10
34.668983
  20
265.86951
  0
VERTEX
  5
177
  8
Layer_10
  10
30.669029
  20
265.84985
  0
SEQEND
  0
POLYLINE
  5
179
  8
Layer_10
  62
12
  66
1
  10
0
  20
0
  30
0
  0
VERTEX
  5
179
  8
Layer_10
  10
106.18037
  20
286.05908
  0
VERTEX
  5
17a
  8
Layer_10
  10
101.18043
  20
286.03305
  0
SEQEND
  0
POLYLINE
  5
17c
  8
Layer_10
  62
12
  66
1
  10
0
  20
0
  30
0
  0
VERTEX
  5
17c
  8
Layer_10
  10
233.59845
  20
281.10922
  0
VERTEX
  5
17d
  8
Layer_10
  10
233.57242
  20
286.10916
  0
SEQEND
  0
POLYLINE
  5
17f
  8
Layer_10
  62
12
  66
1
  10
0
  20
0
  30
0
  0
VERTEX
  5
17f
  8
Layer_10
  10
228.52515
  20
256.53729
  0
VERTEX
  5
180
  8
Layer_10
  10
223.52527
  20
256.50397
  0
SEQEND
  0
POLYLINE
  5
182
  8
Layer_10
  62
12
  66
1
  10
0
  20
0
  30
0
  0
VERTEX
  5
182
  8
Layer_10
  10
238.28531
  20
296.95615
  0
VERTEX
  5
183
  8
Layer_10
  10
235.28534
  20
296.94052
  0
SEQEND
  0
POLYLINE
  5
185
  8
Layer_10
  62
12
  66
1
  10
0
  20
0
  30
0
  0
VERTEX
  5
185
  8
Layer_10
  10
165.79932
  20
231.69931
  0
VERTEX
  5
186
  8
Layer_10
  10
165.86676
  20
237.95442
  0
SEQEND
  0
POLYLINE
  5
188
  8
Layer_10
  62
12
  66
1
  10
0
  20
0
  30
0
  0
VERTEX
  5
188
  8
Layer_10
  10
150.7731
  20
238.11714
  0
VERTEX
  5
189
  8
Layer_10
  10
146.77335
  20
238.16031
  0
SEQEND
  0
POLYLINE
  5
18b
  8
Layer_10
  62
12
  66
1
  10
0
  20
0
  30
0
  0
VERTEX
  5
18b
  8
Layer_10
  10
163.52658
  20
256.10358
  0
VERTEX
  5
18c
  8
Layer_10
  10
168.52649
  20
256.13696
  0
SEQEND
  0
POLYLINE
  5
18e
  8
Layer_10
  62
12
  66
1
  10
0
  20
0
  30
0
  0
VERTEX
  5
18e
  8
Layer_10
  10
126.18009
  20
286.16318
  0
VERTEX
  5
18f
  8
Layer_10
  10
121.18015
  20
286.13718
  0
SEQEND
  0
POLYLINE
  5
191
  8
Layer_10
  62
12
  66
1
  10
0
  20
0
  30
0
  0
VERTEX
  5
191
  8
Layer_10
  10
106.29989
  20
265.93134
  0
VERTEX
  5
192
  8
Layer_10
  10
101.30001
  20
265.89798
  0
SEQEND
  0
POLYLINE
  5
194
  8
Layer_10
  62
12
  66
1
  10
0
  20
0
  30
0
  0
VERTEX
  5
194
  8
Layer_10
  10
96.300117
  20
265.86462
  0
VERTEX
  5
195
  8
Layer_10
  10
91.300224
  20
265.83124
  0
SEQEND
  0
POLYLINE
  5
197
  8
Layer_10
  62
12
  66
1
  10
0
  20
0
  30
0
  0
VERTEX
  5
197
  8
Layer_10
  10
96.890984
  20
246.90303
  0
VERTEX
  5
198
  8
Layer_10
  10
101.89088
  20
246.93639
  0
SEQEND
  0
POLYLINE
  5
19a
  8
Layer_10
  62
12
  66
1
  10
0
  20
0
  30
0
  0
VERTEX
  5
19a
  8
Layer_10
  10
9.4762039
  20
280.05466
  0
VERTEX
  5
19b
  8
Layer_10
  10
8.9927597
  20
280.12311
  0
SEQEND
  0
POLYLINE
  5
19d
  8
Layer_10
  62
12
  66
1
  10
0
  20
0
  30
0
  0
VERTEX
  5
19d
  8
Layer_10
  10
213.52548
  20
256.43723
  0
VERTEX
  5
19e
  8
Layer_10
  10
218.52539
  20
256.47058
  0
SEQEND
  0
POLYLINE
  5
1a0
  8
Layer_10
  62
12
  66
1
  10
0
  20
0
  30
0
  0
VERTEX
  5
1a0
  8
Layer_10
  10
198.52582
  20
256.33713
  0
VERTEX
  5
1a1
  8
Layer_10
  10
193.52594
  20
256.30377
  0
SEQEND
  0
POLYLINE
  5
1a3
  8
Layer_10
  62
12
  66
1
  10
0
  20
0
  30
0
  0
VERTEX
  5
1a3
  8
Layer_10
  10
47.812744
  20
281.07028
  0
VERTEX
  5
1a4
  8
Layer_10
  10
47.824173
  20
276.76721
  0
SEQEND
  0
POLYLINE
  5
1a6
  8
Layer_10
  62
12
  66
1
  10
0
  20
0
  30
0
  0
VERTEX
  5
1a6
  8
Layer_10
  10
86.300331
  20
265.79791
  0
VERTEX
  5
1a7
  8
Layer_10
  10
81.300438
  20
265.76453
  0
SEQEND
  0
POLYLINE
  5
1a9
  8
Layer_10
  62
12
  66
1
  10
0
  20
0
  30
0
  0
VERTEX
  5
1a9
  8
Layer_10
  10
248.28482
  20
297.05142
  0
VERTEX
  5
1aa
  8
Layer_10
  10
243.28506
  20
297.00381
  0
SEQEND
  0
POLYLINE
  5
1ac
  8
Layer_10
  62
12
  66
1
  10
0
  20
0
  30
0
  0
VERTEX
  5
1ac
  8
Layer_10
  10
47.856888
  20
246.57574
  0
VERTEX
  5
1ad
  8
Layer_10
  10
51.891983
  20
246.60266
  0
SEQEND
  0
POLYLINE
  5
1af
  8
Layer_10
  62
12
  66
1
  10
0
  20
0
  30
0
  0
VERTEX
  5
1af
  8
Layer_10
  10
53.681068
  20
285.78583
  0
VERTEX
  5
1b0
  8
Layer_10
  10
57.701744
  20
285.82272
  0
SEQEND
  0
POLYLINE
  5
1b2
  8
Layer_10
  62
12
  66
1
  10
0
  20
0
  30
0
  0
VERTEX
  5
1b2
  8
Layer_10
  10
173.52637
  20
256.17029
  0
VERTEX
  5
1b3
  8
Layer_10
  10
178.52625
  20
256.20367
  0
SEQEND
  0
POLYLINE
  5
1b5
  8
Layer_10
  62
12
  66
1
  10
0
  20
0
  30
0
  0
VERTEX
  5
1b5
  8
Layer_10
  10
47.842255
  20
269.90692
  0
VERTEX
  5
1b6
  8
Layer_10
  10
47.830963
  20
274.2099
  0
SEQEND
  0
POLYLINE
  5
1b8
  8
Layer_10
  62
12
  66
1
  10
0
  20
0
  30
0
  0
VERTEX
  5
1b8
  8
Layer_10
  10
86.891212
  20
246.8363
  0
VERTEX
  5
1b9
  8
Layer_10
  10
91.891106
  20
246.86966
  0
SEQEND
  0
POLYLINE
  5
1bb
  8
Layer_10
  62
12
  66
1
  10
0
  20
0
  30
0
  0
VERTEX
  5
1bb
  8
Layer_10
  10
156.12619
  20
237.8795
  0
VERTEX
  5
1bc
  8
Layer_10
  10
175.56995
  20
237.8795
  0
SEQEND
  0
POLYLINE
  5
1be
  8
Layer_10
  62
12
  66
1
  10
0
  20
0
  30
0
  0
VERTEX
  5
1be
  8
Layer_10
  10
219.39978
  20
354.41855
  0
VERTEX
  5
1bf
  8
Layer_10
  10
214.39987
  20
354.38516
  0
SEQEND
  0
POLYLINE
  5
1c1
  8
Layer_10
  62
12
  66
1
  10
0
  20
0
  30
0
  0
VERTEX
  5
1c1
  8
Layer_10
  10
213.77151
  20
238.2753
  0
VERTEX
  5
1c2
  8
Layer_10
  10
208.77164
  20
238.24194
  0
SEQEND
  0
POLYLINE
  5
1c4
  8
Layer_10
  62
12
  66
1
  10
0
  20
0
  30
0
  0
VERTEX
  5
1c4
  8
Layer_10
  10
128.46518
  20
344.31152
  0
VERTEX
  5
1c5
  8
Layer_10
  10
123.46529
  20
344.27817
  0
SEQEND
  0
POLYLINE
  5
1c7
  8
Layer_10
  62
12
  66
1
  10
0
  20
0
  30
0
  0
VERTEX
  5
1c7
  8
Layer_10
  10
28.126991
  20
269.74341
  0
VERTEX
  5
1c8
  8
Layer_10
  10
28.102722
  20
273.78738
  0
SEQEND
  0
POLYLINE
  5
1ca
  8
Layer_10
  62
12
  66
1
  10
0
  20
0
  30
0
  0
VERTEX
  5
1ca
  8
Layer_10
  10
96.546104
  20
304.97421
  0
VERTEX
  5
1cb
  8
Layer_10
  10
101.54604
  20
305.00021
  0
SEQEND
  0
POLYLINE
  5
1cd
  8
Layer_10
  62
12
  66
1
  10
0
  20
0
  30
0
  0
VERTEX
  5
1cd
  8
Layer_10
  10
233.68356
  20
267.39429
  0
VERTEX
  5
1ce
  8
Layer_10
  10
233.65021
  20
272.39417
  0
SEQEND
  0
POLYLINE
  5
1d0
  8
Layer_10
  62
12
  66
1
  10
0
  20
0
  30
0
  0
VERTEX
  5
1d0
  8
Layer_10
  10
44.55352
  20
285.33969
  0
VERTEX
  5
1d1
  8
Layer_10
  10
39.553642
  20
285.30484
  0
SEQEND
  0
POLYLINE
  5
1d3
  8
Layer_10
  62
12
  66
1
  10
0
  20
0
  30
0
  0
VERTEX
  5
1d3
  8
Layer_10
  10
116.29967
  20
265.99808
  0
VERTEX
  5
1d4
  8
Layer_10
  10
111.29978
  20
265.96472
  0
SEQEND
  0
POLYLINE
  5
1d6
  8
Layer_10
  62
12
  66
1
  10
0
  20
0
  30
0
  0
VERTEX
  5
1d6
  8
Layer_10
  10
43.704842
  20
265.82559
  0
VERTEX
  5
1d7
  8
Layer_10
  10
43.703911
  20
265.86743
  0
SEQEND
  0
POLYLINE
  5
1d9
  8
Layer_10
  62
12
  66
1
  10
0
  20
0
  30
0
  0
VERTEX
  5
1d9
  8
Layer_10
  10
43.588486
  20
285.4213
  0
VERTEX
  5
1da
  8
Layer_10
  10
43.588036
  20
285.37949
  0
SEQEND
  0
POLYLINE
  5
1dc
  8
Layer_10
  62
12
  66
1
  10
0
  20
0
  30
0
  0
VERTEX
  5
1dc
  8
Layer_10
  10
66.546509
  20
304.81815
  0
VERTEX
  5
1dd
  8
Layer_10
  10
71.546448
  20
304.84421
  0
SEQEND
  0
POLYLINE
  5
1df
  8
Layer_10
  62
12
  66
1
  10
0
  20
0
  30
0
  0
VERTEX
  5
1df
  8
Layer_10
  10
66.300781
  20
265.66443
  0
VERTEX
  5
1e0
  8
Layer_10
  10
61.300888
  20
265.63107
  0
SEQEND
  0
POLYLINE
  5
1e2
  8
Layer_10
  62
12
  66
1
  10
0
  20
0
  30
0
  0
VERTEX
  5
1e2
  8
Layer_10
  10
126.29945
  20
266.06482
  0
VERTEX
  5
1e3
  8
Layer_10
  10
121.29955
  20
266.03143
  0
SEQEND
  0
POLYLINE
  5
1e5
  8
Layer_10
  62
12
  66
1
  10
0
  20
0
  30
0
  0
VERTEX
  5
1e5
  8
Layer_10
  10
56.546654
  20
304.76617
  0
VERTEX
  5
1e6
  8
Layer_10
  10
61.546593
  20
304.79221
  0
SEQEND
  0
POLYLINE
  5
1e8
  8
Layer_10
  62
12
  66
1
  10
0
  20
0
  30
0
  0
VERTEX
  5
1e8
  8
Layer_10
  10
66.180908
  20
285.85092
  0
VERTEX
  5
1e9
  8
Layer_10
  10
61.180984
  20
285.82486
  0
SEQEND
  0
POLYLINE
  5
1eb
  8
Layer_10
  62
12
  66
1
  10
0
  20
0
  30
0
  0
VERTEX
  5
1eb
  8
Layer_10
  10
63.054321
  20
233.4079
  42
0.14452561
  0
VERTEX
  5
1ec
  8
Layer_10
  10
65.303215
  20
233.5799
  0
VERTEX
  5
1ed
  8
Layer_10
  10
65.36451
  20
233.60776
  0
VERTEX
  5
1ee
  8
Layer_10
  10
65.424629
  20
233.6371
  42
0.22784899
  0
VERTEX
  5
1ef
  8
Layer_10
  10
66.810768
  20
235.55966
  42
0.19856014
  0
VERTEX
  5
1f0
  8
Layer_10
  10
66.321976
  20
238.76134
  42
0.24289531
  0
VERTEX
  5
1f1
  8
Layer_10
  10
64.072762
  20
239.94905
  42
0.040061054
  0
VERTEX
  5
1f2
  8
Layer_10
  10
63.227173
  20
239.93051
  0
SEQEND
  0
POLYLINE
  5
1f4
  8
Layer_10
  62
12
  66
1
  10
0
  20
0
  30
0
  0
VERTEX
  5
1f4
  8
Layer_10
  10
232.8063
  20
238.40244
  0
VERTEX
  5
1f5
  8
Layer_10
  10
228.77118
  20
238.37552
  0
SEQEND
  0
POLYLINE
  5
1f7
  8
Layer_10
  62
12
  66
1
  10
0
  20
0
  30
0
  0
VERTEX
  5
1f7
  8
Layer_10
  10
121.2391
  20
311.51205
  0
VERTEX
  5
1f8
  8
Layer_10
  10
121.27166
  20
305.25659
  0
SEQEND
  0
POLYLINE
  5
1fa
  8
Layer_10
  62
12
  66
1
  10
0
  20
0
  30
0
  0
VERTEX
  5
1fa
  8
Layer_10
  10
233.59744
  20
295.92709
  0
VERTEX
  5
1fb
  8
Layer_10
  10
232.67694
  20
354.53906
  0
VERTEX
  5
1fc
  8
Layer_10
  10
221.39612
  20
354.20264
  0
VERTEX
  5
1fd
  8
Layer_10
  10
221.39429
  20
358.97626
  42
0.19911898
  0
VERTEX
  5
1fe
  8
Layer_10
  10
218.4494
  20
366.0488
  42
0.19911678
  0
VERTEX
  5
1ff
  8
Layer_10
  10
211.36374
  20
368.96176
  0
VERTEX
  5
200
  8
Layer_10
  10
211.82166
  20
368.96323
  0
VERTEX
  5
201
  8
Layer_10
  10
210.50226
  20
368.93771
  42
0.4089895
  0
VERTEX
  5
202
  8
Layer_10
  10
201.67612
  20
359.92642
  0
VERTEX
  5
203
  8
Layer_10
  10
201.68439
  20
354.24545
  0
VERTEX
  5
204
  8
Layer_10
  10
174.72061
  20
354.20651
  0
VERTEX
  5
205
  8
Layer_10
  10
174.74417
  20
359.35754
  42
0.41421536
  0
VERTEX
  5
206
  8
Layer_10
  10
165.78412
  20
368.40311
  0
VERTEX
  5
207
  8
Layer_10
  10
164.72604
  20
368.42578
  42
0.20031796
  0
VERTEX
  5
208
  8
Layer_10
  10
158.272
  20
365.89297
  42
0.20032253
  0
VERTEX
  5
209
  8
Layer_10
  10
155.53366
  20
359.52347
  0
VERTEX
  5
20a
  8
Layer_10
  10
155.47269
  20
353.78644
  0
VERTEX
  5
20b
  8
Layer_10
  10
145.10617
  20
353.83377
  0
VERTEX
  5
20c
  8
Layer_10
  10
145.06247
  20
344.25348
  0
VERTEX
  5
20d
  8
Layer_10
  10
131.16702
  20
344.22348
  0
VERTEX
  5
20e
  8
Layer_10
  10
131.15488
  20
349.86258
  42
0.40744131
  0
VERTEX
  5
20f
  8
Layer_10
  10
122.34412
  20
358.84119
  0
VERTEX
  5
210
  8
Layer_10
  10
121.11779
  20
358.85928
  0
VERTEX
  5
211
  8
Layer_10
  10
120.18501
  20
358.84711
  42
0.40975217
  0
VERTEX
  5
212
  8
Layer_10
  10
111.3026
  20
349.86783
  0
VERTEX
  5
213
  8
Layer_10
  10
111.29028
  20
344.35065
  0
VERTEX
  5
214
  8
Layer_10
  10
101.22338
  20
344.37296
  42
0.20023155
  0
VERTEX
  5
215
  8
Layer_10
  10
98.022179
  20
343.04572
  42
0.20022706
  0
VERTEX
  5
216
  8
Layer_10
  10
96.713493
  20
339.83694
  0
VERTEX
  5
217
  8
Layer_10
  10
96.808296
  20
327.98709
  0
VERTEX
  5
218
  8
Layer_10
  10
96.834099
  20
327.91202
  42
0.18156404
  0
VERTEX
  5
219
  8
Layer_10
  10
99.069695
  20
325.31699
  42
0.041392272
  0
VERTEX
  5
21a
  8
Layer_10
  10
100.81579
  20
324.43997
  0
SEQEND
  0
POLYLINE
  5
21c
  8
Layer_10
  62
12
  66
1
  10
0
  20
0
  30
0
  0
VERTEX
  5
21c
  8
Layer_10
  10
233.8252
  20
257.57733
  0
VERTEX
  5
21d
  8
Layer_10
  10
233.70529
  20
226.23022
  42
0.054909173
  0
VERTEX
  5
21e
  8
Layer_10
  10
234.38663
  20
224.42157
  42
0.26100081
  0
VERTEX
  5
21f
  8
Layer_10
  10
236.85794
  20
222.62088
  0
VERTEX
  5
220
  8
Layer_10
  10
236.9408
  20
222.61069
  0
VERTEX
  5
221
  8
Layer_10
  10
237.02515
  20
222.60211
  0
VERTEX
  5
222
  8
Layer_10
  10
237.10788
  20
222.5954
  0
VERTEX
  5
223
  8
Layer_10
  10
247.61813
  20
222.46075
  42
0.20264348
  0
VERTEX
  5
224
  8
Layer_10
  10
251.93152
  20
224.20825
  42
0.19961163
  0
VERTEX
  5
225
  8
Layer_10
  10
253.59119
  20
228.45874
  0
VERTEX
  5
226
  8
Layer_10
  10
253.36334
  20
325.28055
  42
0.20105918
  0
VERTEX
  5
227
  8
Layer_10
  10
252.05969
  20
328.24496
  42
0.20106425
  0
VERTEX
  5
228
  8
Layer_10
  10
249.0321
  20
329.39426
  0
VERTEX
  5
229
  8
Layer_10
  10
237.99713
  20
329.51205
  0
VERTEX
  5
22a
  8
Layer_10
  10
237.98688
  20
329.51495
  0
VERTEX
  5
22b
  8
Layer_10
  10
237.93845
  20
329.52676
  0
VERTEX
  5
22c
  8
Layer_10
  10
237.5704
  20
329.52097
  42
0.41412364
  0
VERTEX
  5
22d
  8
Layer_10
  10
233.14157
  20
324.95221
  0
VERTEX
  5
22e
  8
Layer_10
  10
233.10489
  20
327.29123
  0
SEQEND
  0
POLYLINE
  5
230
  8
Layer_10
  62
12
  66
1
  10
0
  20
0
  30
0
  0
VERTEX
  5
230
  8
Layer_10
  10
47.823418
  20
226.68839
  0
VERTEX
  5
231
  8
Layer_10
  10
75.344643
  20
226.77834
  0
VERTEX
  5
232
  8
Layer_10
  10
75.263489
  20
221.13885
  42
0.19951261
  0
VERTEX
  5
233
  8
Layer_10
  10
77.822113
  20
214.72296
  42
0.19950136
  0
VERTEX
  5
234
  8
Layer_10
  10
84.17424
  20
212.00989
  0
VERTEX
  5
235
  8
Layer_10
  10
85.47747
  20
211.9971
  42
0.41421626
  0
VERTEX
  5
236
  8
Layer_10
  10
94.565331
  20
220.90826
  0
VERTEX
  5
237
  8
Layer_10
  10
94.622887
  20
226.77318
  0
VERTEX
  5
238
  8
Layer_10
  10
111.39277
  20
226.88881
  0
VERTEX
  5
239
  8
Layer_10
  10
111.36544
  20
221.20288
  42
0.4130093
  0
VERTEX
  5
23a
  8
Layer_10
  10
120.28501
  20
212.16005
  0
VERTEX
  5
23b
  8
Layer_10
  10
121.92234
  20
212.14545
  42
0.41210746
  0
VERTEX
  5
23c
  8
Layer_10
  10
131.0015
  20
221.00006
  0
VERTEX
  5
23d
  8
Layer_10
  10
131.09845
  20
227.01451
  0
VERTEX
  5
23e
  8
Layer_10
  10
134.65402
  20
227.00925
  0
SEQEND
  0
POLYLINE
  5
240
  8
Layer_10
  62
12
  70
1
  66
1
  10
0
  20
0
  30
0
  0
VERTEX
  5
240
  8
Layer_10
  10
89.322044
  20
313.82266
  42
0.4142099
  0
VERTEX
  5
241
  8
Layer_10
  10
84.892784
  20
318.19318
  42
0.41420806
  0
VERTEX
  5
242
  8
Layer_10
  10
80.522255
  20
313.76395
  42
0.41421264
  0
VERTEX
  5
243
  8
Layer_10
  10
84.9515
  20
309.3934
  42
0.41420621
  0
SEQEND
  0
POLYLINE
  5
245
  8
Layer_10
  62
12
  66
1
  10
0
  20
0
  30
0
  0
VERTEX
  5
245
  8
Layer_10
  10
134.86676
  20
266.13904
  0
VERTEX
  5
246
  8
Layer_10
  10
145.69333
  20
255.76277
  0
VERTEX
  5
247
  8
Layer_10
  10
145.70465
  20
227.04242
  0
VERTEX
  5
248
  8
Layer_10
  10
145.3512
  20
226.98222
  0
VERTEX
  5
249
  8
Layer_10
  10
135.50714
  20
227.12204
  42
0.20514043
  0
VERTEX
  5
24a
  8
Layer_10
  10
132.5575
  20
225.96642
  42
0.20525794
  0
VERTEX
  5
24b
  8
Layer_10
  10
131.2666
  20
223.00931
  0
VERTEX
  5
24c
  8
Layer_10
  10
131.48737
  20
211.93495
  42
0.037743539
  0
VERTEX
  5
24d
  8
Layer_10
  10
131.60733
  20
211.26944
  42
0.3416897
  0
VERTEX
  5
24e
  8
Layer_10
  10
134.51123
  20
209.02264
  0
VERTEX
  5
24f
  8
Layer_10
  10
146.68387
  20
209.02264
  0
VERTEX
  5
250
  8
Layer_10
  10
146.68387
  20
207.52264
  0
VERTEX
  5
251
  8
Layer_10
  10
146.82919
  20
202.77579
  0
VERTEX
  5
252
  8
Layer_10
  10
233.61719
  20
203.21277
  0
VERTEX
  5
253
  8
Layer_10
  10
233.70529
  20
226.23022
  0
SEQEND
  0
POLYLINE
  5
255
  8
Layer_10
  62
12
  66
1
  10
0
  20
0
  30
0
  0
VERTEX
  5
255
  8
Layer_10
  10
137.35208
  20
246.75739
  0
VERTEX
  5
256
  8
Layer_10
  10
141.83694
  20
246.7356
  0
SEQEND
  0
POLYLINE
  5
258
  8
Layer_10
  62
12
  70
1
  66
1
  10
0
  20
0
  30
0
  0
VERTEX
  5
258
  8
Layer_10
  10
246.02734
  20
231.24603
  42
0.41420472
  0
VERTEX
  5
259
  8
Layer_10
  10
248.75894
  20
234.01433
  42
0.19891027
  0
VERTEX
  5
25a
  8
Layer_10
  10
247.94052
  20
235.95346
  42
0.19891833
  0
VERTEX
  5
25b
  8
Layer_10
  10
245.99063
  20
236.74591
  42
0.41420768
  0
VERTEX
  5
25c
  8
Layer_10
  10
243.25906
  20
233.97762
  42
0.41421652
  0
SEQEND
  0
POLYLINE
  5
25e
  8
Layer_10
  62
12
  70
1
  66
1
  10
0
  20
0
  30
0
  0
VERTEX
  5
25e
  8
Layer_10
  10
35.862236
  20
319.4939
  42
0.41421505
  0
VERTEX
  5
25f
  8
Layer_10
  10
38.593826
  20
322.26218
  42
0.4142062
  0
VERTEX
  5
260
  8
Layer_10
  10
35.825539
  20
324.99377
  42
0.41421505
  0
VERTEX
  5
261
  8
Layer_10
  10
33.093948
  20
322.22549
  42
0.4142062
  0
SEQEND
  0
POLYLINE
  5
263
  8
Layer_10
  62
12
  70
1
  66
1
  10
0
  20
0
  30
0
  0
VERTEX
  5
263
  8
Layer_10
  10
210.75333
  20
358.60703
  42
0.19891347
  0
VERTEX
  5
264
  8
Layer_10
  10
212.69247
  20
359.42542
  42
0.19891446
  0
VERTEX
  5
265
  8
Layer_10
  10
213.48492
  20
361.37531
  42
0.41421358
  0
VERTEX
  5
266
  8
Layer_10
  10
210.71661
  20
364.1069
  42
0.19892115
  0
VERTEX
  5
267
  8
Layer_10
  10
208.7775
  20
363.28848
  42
0.19891446
  0
VERTEX
  5
268
  8
Layer_10
  10
207.98505
  20
361.33859
  42
0.41421062
  0
SEQEND
  0
POLYLINE
  5
26a
  8
Layer_10
  62
12
  70
1
  66
1
  10
0
  20
0
  30
0
  0
VERTEX
  5
26a
  8
Layer_10
  10
211.21164
  20
247.14366
  42
0.41421356
  0
VERTEX
  5
26b
  8
Layer_10
  10
208.48004
  20
244.37537
  42
0.41420768
  0
VERTEX
  5
26c
  8
Layer_10
  10
211.24832
  20
241.64378
  42
0.41421356
  0
VERTEX
  5
26d
  8
Layer_10
  10
213.97992
  20
244.41206
  42
0.41421356
  0
SEQEND
  0
POLYLINE
  5
26f
  8
Layer_10
  62
12
  66
1
  10
0
  20
0
  30
0
  0
VERTEX
  5
26f
  8
Layer_10
  10
203.67206
  20
238.17516
  0
VERTEX
  5
270
  8
Layer_10
  10
198.77185
  20
238.17516
  0
SEQEND
  0
POLYLINE
  5
272
  8
Layer_10
  62
12
  66
1
  10
0
  20
0
  30
0
  0
VERTEX
  5
272
  8
Layer_10
  10
209.39999
  20
354.35181
  0
VERTEX
  5
273
  8
Layer_10
  10
204.40009
  20
354.31845
  0
SEQEND
  0
POLYLINE
  5
275
  8
Layer_10
  62
12
  66
1
  10
0
  20
0
  30
0
  0
VERTEX
  5
275
  8
Layer_10
  10
62.186699
  20
314.69083
  0
VERTEX
  5
276
  8
Layer_10
  10
72.686699
  20
314.69339
  0
SEQEND
  0
POLYLINE
  5
278
  8
Layer_10
  62
12
  66
1
  10
0
  20
0
  30
0
  0
VERTEX
  5
278
  8
Layer_10
  10
76.300575
  20
265.73117
  0
VERTEX
  5
279
  8
Layer_10
  10
71.300674
  20
265.69781
  0
SEQEND
  0
POLYLINE
  5
27b
  8
Layer_10
  62
12
  66
1
  10
0
  20
0
  30
0
  0
VERTEX
  5
27b
  8
Layer_10
  10
203.49478
  20
313.5072
  0
VERTEX
  5
27c
  8
Layer_10
  10
198.5946
  20
313.48416
  0
SEQEND
  0
POLYLINE
  5
27e
  8
Layer_10
  62
12
  66
1
  10
0
  20
0
  30
0
  0
VERTEX
  5
27e
  8
Layer_10
  10
150.59613
  20
313.31625
  0
VERTEX
  5
27f
  8
Layer_10
  10
146.59662
  20
313.25427
  0
SEQEND
  0
POLYLINE
  5
281
  8
Layer_10
  62
12
  66
1
  10
0
  20
0
  30
0
  0
VERTEX
  5
281
  8
Layer_10
  10
183.64838
  20
313.56299
  0
VERTEX
  5
282
  8
Layer_10
  10
178.94806
  20
313.56299
  0
SEQEND
  0
POLYLINE
  5
284
  8
Layer_10
  62
12
  66
1
  10
0
  20
0
  30
0
  0
VERTEX
  5
284
  8
Layer_10
  10
223.59457
  20
313.43484
  0
VERTEX
  5
285
  8
Layer_10
  10
218.5946
  20
313.44476
  0
SEQEND
  0
POLYLINE
  5
287
  8
Layer_10
  62
12
  66
1
  10
0
  20
0
  30
0
  0
VERTEX
  5
287
  8
Layer_10
  10
232.62979
  20
313.41705
  0
VERTEX
  5
288
  8
Layer_10
  10
228.59457
  20
313.42499
  0
SEQEND
  0
POLYLINE
  5
28a
  8
Layer_10
  62
12
  66
1
  10
0
  20
0
  30
0
  0
VERTEX
  5
28a
  8
Layer_10
  10
193.59818
  20
313.52737
  0
VERTEX
  5
28b
  8
Layer_10
  10
188.59464
  20
313.50381
  0
SEQEND
  0
POLYLINE
  5
28d
  8
Layer_10
  62
12
  66
1
  10
0
  20
0
  30
0
  0
VERTEX
  5
28d
  8
Layer_10
  10
213.5946
  20
313.45459
  0
VERTEX
  5
28e
  8
Layer_10
  10
208.5946
  20
313.46442
  0
SEQEND
  0
POLYLINE
  5
290
  8
Layer_10
  62
12
  66
1
  10
0
  20
0
  30
0
  0
VERTEX
  5
290
  8
Layer_10
  10
208.43405
  20
295.30154
  0
VERTEX
  5
291
  8
Layer_10
  10
203.43408
  20
295.3114
  0
SEQEND
  0
POLYLINE
  5
293
  8
Layer_10
  62
12
  66
1
  10
0
  20
0
  30
0
  0
VERTEX
  5
293
  8
Layer_10
  10
198.43408
  20
295.32123
  0
VERTEX
  5
294
  8
Layer_10
  10
193.43408
  20
295.33105
  0
SEQEND
  0
POLYLINE
  5
296
  8
Layer_10
  62
12
  66
1
  10
0
  20
0
  30
0
  0
VERTEX
  5
296
  8
Layer_10
  10
228.43402
  20
295.26224
  0
VERTEX
  5
297
  8
Layer_10
  10
223.43405
  20
295.27206
  0
SEQEND
  0
POLYLINE
  5
299
  8
Layer_10
  62
12
  66
1
  10
0
  20
0
  30
0
  0
VERTEX
  5
299
  8
Layer_10
  10
148.43417
  20
295.41953
  0
VERTEX
  5
29a
  8
Layer_10
  10
145.93417
  20
295.42447
  0
SEQEND
  0
POLYLINE
  5
29c
  8
Layer_10
  62
12
  66
1
  10
0
  20
0
  30
0
  0
VERTEX
  5
29c
  8
Layer_10
  10
173.43411
  20
295.37036
  0
VERTEX
  5
29d
  8
Layer_10
  10
178.43411
  20
295.36053
  0
SEQEND
  0
POLYLINE
  5
29f
  8
Layer_10
  62
12
  66
1
  10
0
  20
0
  30
0
  0
VERTEX
  5
29f
  8
Layer_10
  10
163.43414
  20
295.39005
  0
VERTEX
  5
2a0
  8
Layer_10
  10
168.43414
  20
295.38022
  0
SEQEND
  0
POLYLINE
  5
2a2
  8
Layer_10
  62
12
  66
1
  10
0
  20
0
  30
0
  0
VERTEX
  5
2a2
  8
Layer_10
  10
153.43417
  20
295.4097
  0
VERTEX
  5
2a3
  8
Layer_10
  10
158.43414
  20
295.39987
  0
SEQEND
  0
POLYLINE
  5
2a5
  8
Layer_10
  62
12
  66
1
  10
0
  20
0
  30
0
  0
VERTEX
  5
2a5
  8
Layer_10
  10
213.43405
  20
295.29172
  0
VERTEX
  5
2a6
  8
Layer_10
  10
218.43405
  20
295.28189
  0
SEQEND
  0
POLYLINE
  5
2a8
  8
Layer_10
  62
12
  66
1
  10
0
  20
0
  30
0
  0
VERTEX
  5
2a8
  8
Layer_10
  10
188.43411
  20
295.34088
  0
VERTEX
  5
2a9
  8
Layer_10
  10
183.43408
  20
295.35071
  0
SEQEND
  0
POLYLINE
  5
2ab
  8
Layer_10
  62
12
  66
1
  10
0
  20
0
  30
0
  0
VERTEX
  5
2ab
  8
Layer_10
  10
155.94806
  20
313.57907
  0
VERTEX
  5
2ac
  8
Layer_10
  10
160.948
  20
313.6026
  0
SEQEND
  0
POLYLINE
  5
2ae
  8
Layer_10
  62
12
  66
1
  10
0
  20
0
  30
0
  0
VERTEX
  5
2ae
  8
Layer_10
  10
165.94794
  20
313.62616
  0
VERTEX
  5
2af
  8
Layer_10
  10
170.94788
  20
313.64969
  0
SEQEND
  0
ENDSEC
  0
EOF
