0
SECTION
2
HEADER
9
$INSUNITS
70
4
9
$ACADVER
1
AC1014
9
$HANDSEED
5
FFFF
0
ENDSEC
0
SECTION
2
TABLES
0
TABLE
2
VPORT
5
8
100
AcDbSymbolTable
0
ENDTAB
0
TABLE
2
LTYPE
5
5
100
AcDbSymbolTable
0
LTYPE
5
14
100
AcDbSymbolTableRecord
100
AcDbLinetypeTableRecord
2
BYBLOCK
70
0
0
LTYPE
5
15
100
AcDbSymbolTableRecord
100
AcDbLinetypeTableRecord
2
BYLAYER
70
0
0
LTYPE
5
16
100
AcDbSymbolTableRecord
100
AcDbLinetypeTableRecord
2
DASHED
70
0
3
Dashed __ __ __ __ __ __ __ __ __ __ __ __ __ _
72
65
73
2
40
0.75
49
0.5
74
0
49
-0.25
74
0
0
ENDTAB
0
TABLE
2
LAYER
5
2
100
AcDbSymbolTable
70
2
0
LAYER
5
50
100
AcDbSymbolTableRecord
100
AcDbLayerTableRecord
2
0
70
0
62
7
6
CONTINUOUS
0
ENDTAB
0
TABLE
2
STYLE
5
3
100
AcDbSymbolTable
70
1
0
STYLE
5
11
100
AcDbSymbolTableRecord
100
AcDbTextStyleTableRecord
2
STANDARD
70
0
0
ENDTAB
0
TABLE
2
VIEW
5
6
100
AcDbSymbolTable
70
0
0
ENDTAB
0
TABLE
2
UCS
5
7
100
AcDbSymbolTable
70
0
0
ENDTAB
0
TABLE
2
APPID
5
9
100
AcDbSymbolTable
70
2
0
APPID
5
12
100
AcDbSymbolTableRecord
100
AcDbRegAppTableRecord
2
ACAD
70
0
0
ENDTAB
0
TABLE
2
DIMSTYLE
5
A
100
AcDbSymbolTable
70
1
0
ENDTAB
0
TABLE
2
BLOCK_RECORD
5
1
100
AcDbSymbolTable
70
1
0
BLOCK_RECORD
5
1F
100
AcDbSymbolTableRecord
100
AcDbBlockTableRecord
2
*MODEL_SPACE
0
BLOCK_RECORD
5
1B
100
AcDbSymbolTableRecord
100
AcDbBlockTableRecord
2
*PAPER_SPACE
0
ENDTAB
0
ENDSEC
0
SECTION
2
BLOCKS
0
BLOCK
5
20
100
AcDbEntity
100
AcDbBlockBegin
2
*MODEL_SPACE
0
ENDBLK
5
21
100
AcDbEntity
100
AcDbBlockEnd
0
BLOCK
5
1C
100
AcDbEntity
100
AcDbBlockBegin
2
*PAPER_SPACE
0
ENDBLK
5
1D
100
AcDbEntity
100
AcDbBlockEnd
0
ENDSEC
0
SECTION
2
ENTITIES
0
ARC
5
100
100
AcDbEntity
8
0
100
AcDbCircle
10
-57.998591846606402
20
250.38272656944898
30
0
40
4.8191190907924
210
0
220
0
230
-1
100
AcDbArc
50
178.3830424575454
51
180.10399033108337
0
LINE
5
101
100
AcDbEntity
8
0
100
AcDbLine
10
251.57755000000003
20
231.43642000000003
30
0
11
246.57767000000004
21
231.40305000000001
31
0
0
LINE
5
102
100
AcDbEntity
8
0
100
AcDbLine
10
281.57687000000004
20
231.63659999999999
30
0
11
278.57693
21
231.61658
31
0
0
LINE
5
103
100
AcDbEntity
8
0
100
AcDbLine
10
90.618651999999997
20
299.96234000000004
30
0
11
90.618530000000007
21
299.38147000000004
31
0
0
LINE
5
104
100
AcDbEntity
8
0
100
AcDbLine
10
104.17385000000002
20
206.48447000000002
30
0
11
104.28204000000001
21
216.31073000000001
31
0
0
LINE
5
105
100
AcDbEntity
8
0
100
AcDbLine
10
125.79666000000002
20
201.68950000000001
30
0
11
120.79678000000001
21
201.65613000000005
31
0
0
LINE
5
106
100
AcDbEntity
8
0
100
AcDbLine
10
129.23257000000001
20
260.98755
30
0
11
124.23264
21
260.96152000000006
31
0
0
LINE
5
107
100
AcDbEntity
8
0
100
AcDbLine
10
119.59832
20
279.90273999999999
30
0
11
124.59826000000001
21
279.9287700000001
31
0
0
LINE
5
108
100
AcDbEntity
8
0
100
AcDbLine
10
90.563507000000016
20
279.75171
30
0
11
94.598663000000002
21
279.77277000000004
31
0
0
LWPOLYLINE
5
109
100
AcDbEntity
8
0
100
AcDbPolyline
90
4
70
1
43
0.0
10
128.34632999999999
20
215.29840000000002
42
0.41420987999999792
10
123.97577999999999
20
210.86907999999997
42
0.41421264000001007
10
128.40506000000002
20
206.49850000000001
42
0.41421264000000024
10
132.77558999999999
20
210.92780000000002
42
0.41421263999999941
0
LINE
5
110
100
AcDbEntity
8
0
100
AcDbLine
10
71.14889500000001
20
256.16210999999998
30
0
11
71.146042000000008
21
252.11806000000001
31
0
0
LINE
5
111
100
AcDbEntity
8
0
100
AcDbLine
10
276.65543000000002
20
254.42657000000003
30
0
11
276.68880999999999
21
249.42667999999998
31
0
0
ARC
5
112
100
AcDbEntity
8
0
100
AcDbCircle
10
-86.618613871882985
20
299.96312674590808
30
0
40
3.999996171709828
210
0
220
0
230
-1
100
AcDbArc
50
89.467243166454153
51
134.73953156576698
0
LINE
5
113
100
AcDbEntity
8
0
100
AcDbLine
10
236.82761934004122
20
213.14098999999999
30
0
11
231.82401000000002
21
213.14098999999999
31
0
0
LWPOLYLINE
5
114
100
AcDbEntity
8
0
100
AcDbPolyline
90
5
70
1
43
0.0
10
258.80615
20
308.1087
42
0.19891755999999317
10
257.49669999999998
20
311.21132999999998
42
0.19891976000000103
10
254.37689000000003
20
312.47924999999998
42
0.4142135599999931
10
250.00635000000005
20
308.04998999999998
42
0.41420620999999958
10
254.43561000000003
20
303.67950000000008
42
0.41420620999999258
0
LWPOLYLINE
5
115
100
AcDbEntity
8
0
100
AcDbPolyline
90
4
70
1
43
0.0
10
127.90903999999999
20
231.80362000000002
42
0.41421356000001175
10
125.17745000000002
20
229.03534000000002
42
0.41421355999998438
10
127.94573999999999
20
226.30374000000003
42
0.41421356000000387
10
130.67734000000002
20
229.07204000000002
42
0.41421209000001891
0
LWPOLYLINE
5
116
100
AcDbEntity
8
0
100
AcDbPolyline
90
4
70
1
43
0.0
10
131.15024
20
194.00217000000001
42
0.41421062000001013
10
128.38193999999999
20
196.73373000000001
42
0.41421355999999288
10
125.65035000000002
20
193.96545000000003
42
0.41421061999999936
10
128.41863999999998
20
191.23386000000005
42
0.41421355999998744
0
LWPOLYLINE
5
117
100
AcDbEntity
8
0
100
AcDbPolyline
90
4
70
1
43
0.0
10
251.70052999999999
20
282.66210999999998
42
0.41421355999997977
10
254.46884
20
279.93051000000003
42
0.41421356000001069
10
257.20041000000003
20
282.69878999999997
42
0.4142135599999896
10
254.43213
20
285.43038999999999
42
0.41420768000000324
0
LWPOLYLINE
5
118
100
AcDbEntity
8
0
100
AcDbPolyline
90
4
70
1
43
0.0
10
280.75452000000001
20
253.97784000000001
42
0.41421357999999242
10
278.02292
20
251.20955000000004
42
0.41421648999998922
10
280.79122999999998
20
248.47797000000003
42
0.41421061999999931
10
283.52280000000002
20
251.24625000000003
42
0.41421358000000735
0
LINE
5
119
100
AcDbEntity
8
0
100
AcDbLine
10
77.605705
20
260.30257999999998
30
0
11
73.605804000000006
21
260.27472
31
0
0
ARC
5
120
100
AcDbEntity
8
0
100
AcDbCircle
10
-75.562168111231273
20
201.10289091119375
30
0
40
4.0000832882026716
210
-0
220
0
230
-1
100
AcDbArc
50
270.23052698407838
51
315.25497389170772
0
ARC
5
121
100
AcDbEntity
8
0
100
AcDbCircle
10
-47.083050661096671
20
255.91689244225645
30
0
40
4.5000292602224308
210
0
220
0
230
-1
100
AcDbArc
50
1.3146955496955877
51
90.274654083245295
0
LINE
5
122
100
AcDbEntity
8
0
100
AcDbLine
10
104.28204000000001
20
216.31073000000001
30
0
11
110.35635000000001
21
218.81292999999999
31
0
0
LINE
5
123
100
AcDbEntity
8
0
100
AcDbLine
10
110.44713999999999
20
284.37891000000002
30
0
11
110.48878000000002
21
295.06743999999998
31
0
0
LWPOLYLINE
5
124
100
AcDbEntity
8
0
100
AcDbPolyline
90
4
70
1
43
0.0
10
127.85207
20
270.05402000000004
42
0.41421209999999764
10
130.58366000000001
20
272.82229999999998
42
0.41421208999999237
10
127.81537
20
275.55388999999997
42
0.41421502000001775
10
125.08378999999999
20
272.78557999999998
42
0.41421649999998128
0
ARC
5
125
100
AcDbEntity
8
0
100
AcDbCircle
10
-75.301171712734515
20
299.85790521628934
30
0
40
3.9998044536421795
210
-0
220
0
230
-1
100
AcDbArc
50
-0.58395736811797105
51
44.443086446403811
0
LINE
5
126
100
AcDbEntity
8
0
100
AcDbLine
10
210.45287000000002
20
329.10413
30
0
11
215.45276000000001
21
329.13747999999998
31
0
0
LINE
5
127
100
AcDbEntity
8
0
100
AcDbLine
10
62.817703000000009
20
250.37397999999999
30
0
11
62.818092000000014
21
250.66341
31
0
0
LINE
5
128
100
AcDbEntity
8
0
100
AcDbLine
10
164.71181999999999
20
215.69154
30
0
11
164.67009000000002
21
221.94690000000003
31
0
0
LINE
5
129
100
AcDbEntity
8
0
100
AcDbLine
10
162.21036999999998
20
201.93248
30
0
11
157.21048000000002
21
201.89911000000001
31
0
0
LINE
5
130
100
AcDbEntity
8
0
100
AcDbLine
10
191.57886999999999
20
231.03606000000002
30
0
11
189.07892000000001
21
231.01936000000001
31
0
0
LINE
5
131
100
AcDbEntity
8
0
100
AcDbLine
10
154.18709000000001
20
299.45587
30
0
11
178.02991000000003
21
299.45782000000003
31
0
0
ARC
5
132
100
AcDbEntity
8
0
100
AcDbCircle
10
-86.618609226442103
20
299.96306564952584
30
0
40
4.0000428393780663
210
0
220
0
230
-1
100
AcDbArc
50
134.73896283815631
51
180.01039405252754
0
ARC
5
133
100
AcDbEntity
8
0
100
AcDbCircle
10
-47.112200536784584
20
244.89401597360992
30
0
40
4.4999840754025859
210
0
220
-0
230
-1
100
AcDbArc
50
269.42310294017329
51
358.38409035683969
0
LINE
5
134
100
AcDbEntity
8
0
100
AcDbLine
10
147.09795
20
280.04584
30
0
11
152.09787
21
280.07184000000001
31
0
0
LINE
5
135
100
AcDbEntity
8
0
100
AcDbLine
10
87.72081
20
240.95123000000001
30
0
11
82.720871000000002
21
240.92665
31
0
0
LINE
5
136
100
AcDbEntity
8
0
100
AcDbLine
10
71.285324000000003
20
240.63745
30
0
11
48.536934000000009
21
240.40822000000006
31
0
0
LINE
5
137
100
AcDbEntity
8
0
100
AcDbLine
10
172.21014
20
201.99921000000003
30
0
11
167.21027000000004
21
201.96584000000001
31
0
0
LINE
5
138
100
AcDbEntity
8
0
100
AcDbLine
10
174.59624000000002
20
221.95887999999999
30
0
11
154.74396000000002
21
221.935
31
0
0
LWPOLYLINE
5
139
100
AcDbEntity
8
0
100
AcDbPolyline
90
4
70
1
43
0.0
10
255.54772999999997
20
197.09282999999999
42
0.41420804999999261
10
251.17715000000001
20
192.66354000000001
42
0.41420989000001224
10
255.60645
20
188.29300000000001
42
0.41420896000000612
10
259.97699
20
192.72228999999999
42
0.41420896000000262
0
LINE
5
140
100
AcDbEntity
8
0
100
AcDbLine
10
90.618530000000007
20
299.38147000000004
30
0
11
118.13891000000001
21
299.37597999999997
31
0
0
LINE
5
141
100
AcDbEntity
8
0
100
AcDbLine
10
226.87808000000001
20
213.05853149274174
30
0
11
222.1778160427323
21
213.03640918220796
31
0
0
LWPOLYLINE
5
142
100
AcDbEntity
8
0
100
AcDbPolyline
90
4
70
1
43
0.0
10
79.124565000000018
20
206.45313000000002
42
0.41421502999999371
10
76.392974999999993
20
203.68483000000001
42
0.41421209000001424
10
79.161270000000002
20
200.95325000000003
42
0.41421430000000475
10
81.892853000000002
20
203.72153
42
0.41421429999998838
0
LINE
5
143
100
AcDbEntity
8
0
100
AcDbLine
10
205.45297000000002
20
329.07074
30
0
11
200.45309000000003
21
329.03737999999998
31
0
0
LINE
5
144
100
AcDbEntity
8
0
100
AcDbLine
10
90.964600000000004
20
299.42200000000003
30
0
11
90.966003000000001
21
299.42200000000003
31
0
0
LINE
5
145
100
AcDbEntity
8
0
100
AcDbLine
10
266.82324
20
213.37468999999999
30
0
11
261.82336000000009
21
213.34123
31
0
0
LINE
5
146
100
AcDbEntity
8
0
100
AcDbLine
10
48.484122999999997
20
260.41028
30
0
11
71.233474999999999
21
260.30121000000003
31
0
0
LINE
5
147
100
AcDbEntity
8
0
100
AcDbLine
10
161.51734999999999
20
319.27733999999998
30
0
11
156.51746
21
319.24402000000003
31
0
0
LINE
5
148
100
AcDbEntity
8
0
100
AcDbLine
10
276.78888000000001
20
234.42702000000003
30
0
11
276.75552000000005
21
239.42691000000002
31
0
0
LINE
5
149
100
AcDbEntity
8
0
100
AcDbLine
10
96.853011999999993
20
240.61358999999999
30
0
11
100.87384
21
240.62442000000004
31
0
0
ARC
5
150
100
AcDbEntity
8
0
100
AcDbCircle
10
-75.301560769843221
20
299.85733042302695
30
0
40
4.0004846924033455
210
0
220
0
230
-1
100
AcDbArc
50
44.44506224656832
51
89.463900853518524
0
LINE
5
151
100
AcDbEntity
8
0
100
AcDbLine
10
99.943832000000015
20
221.66858000000002
30
0
11
104.94373000000002
21
221.70195000000004
31
0
0
LINE
5
152
100
AcDbEntity
8
0
100
AcDbLine
10
71.558639999999997
20
200.39737000000002
30
0
11
71.285324000000003
21
240.63745
31
0
0
LINE
5
153
100
AcDbEntity
8
0
100
AcDbLine
10
71.562163999999996
20
201.12239000000002
30
0
11
71.558639999999997
21
200.39737000000002
31
0
0
LINE
5
154
100
AcDbEntity
8
0
100
AcDbLine
10
139.23241999999999
20
261.03955000000002
30
0
11
134.23251000000002
21
261.01355000000001
31
0
0
LINE
5
155
100
AcDbEntity
8
0
100
AcDbLine
10
178.02991000000003
20
299.45782000000003
30
0
11
187.86850000000001
21
299.51389
31
0
0
LINE
5
156
100
AcDbEntity
8
0
100
AcDbLine
10
159.23218
20
261.14368000000002
30
0
11
154.23223999999999
21
261.11761000000001
31
0
0
LINE
5
157
100
AcDbEntity
8
0
100
AcDbLine
10
196.57876999999999
20
231.06943000000001
30
0
11
201.57864000000001
21
231.10277999999997
31
0
0
LINE
5
158
100
AcDbEntity
8
0
100
AcDbLine
10
173.06607
20
280.33465999999999
30
0
11
154.03361999999998
21
280.13147000000004
31
0
0
LINE
5
159
100
AcDbEntity
8
0
100
AcDbLine
10
109.94361000000001
20
221.73532000000006
30
0
11
114.9435
21
221.76871000000003
31
0
0
LINE
5
160
100
AcDbEntity
8
0
100
AcDbLine
10
62.819241000000012
20
250.23061000000001
30
0
11
62.815792000000002
21
250.51871000000003
31
0
0
LINE
5
161
100
AcDbEntity
8
0
100
AcDbLine
10
135.79643000000002
20
201.75623000000002
30
0
11
130.79653999999999
21
201.72285000000002
31
0
0
LINE
5
162
100
AcDbEntity
8
0
100
AcDbLine
10
147.44278000000003
20
221.98566
30
0
11
152.44266000000005
21
222.01900000000001
31
0
0
LINE
5
163
100
AcDbEntity
8
0
100
AcDbLine
10
231.57800000000003
20
231.30296000000001
30
0
11
226.57809
21
231.26958999999999
31
0
0
LWPOLYLINE
5
164
100
AcDbEntity
8
0
100
AcDbPolyline
90
4
70
1
43
0.0
10
289.00423999999998
20
296.30388999999997
42
0.4142135600000047
10
286.27267000000006
20
293.53557999999998
42
0.41420179000000085
10
289.04095000000001
20
290.80402000000004
42
0.41421946999999831
10
291.77255000000002
20
293.57227
42
0.41421650000000249
0
LINE
5
165
100
AcDbEntity
8
0
100
AcDbLine
10
276.60367000000002
20
263.14160000000004
30
0
11
276.57763999999997
21
268.14157
31
0
0
LINE
5
166
100
AcDbEntity
8
0
100
AcDbLine
10
119.23272
20
260.93549000000002
30
0
11
114.23278000000002
21
260.90942000000001
31
0
0
LINE
5
167
100
AcDbEntity
8
0
100
AcDbLine
10
119.94338999999999
20
221.80207999999999
30
0
11
124.94328000000002
21
221.83543
31
0
0
LINE
5
168
100
AcDbEntity
8
0
100
AcDbLine
10
291.57684000000006
20
231.66008000000002
30
0
11
286.57687000000004
21
231.64832000000004
31
0
0
LINE
5
169
100
AcDbEntity
8
0
100
AcDbLine
10
180.05457000000001
20
280.63306
30
0
11
184.53885
21
280.70807000000002
31
0
0
LINE
5
170
100
AcDbEntity
8
0
100
AcDbLine
10
129.59821000000002
20
279.95477
30
0
11
134.59811000000002
21
279.98077000000001
31
0
0
LINE
5
171
100
AcDbEntity
8
0
100
AcDbLine
10
77.720931999999991
20
240.90205
30
0
11
73.720978000000002
21
240.88243
31
0
0
ARC
5
172
100
AcDbEntity
8
0
100
AcDbCircle
10
-57.819288108120681
20
250.19641640144303
30
0
40
5.0000698118321001
210
0
220
0
230
-1
100
AcDbArc
50
89.609358564067634
51
179.60817263993539
0
ARC
5
173
100
AcDbEntity
8
0
100
AcDbCircle
10
-57.818149227667192
20
250.67112606967885
30
0
40
4.9999720778690211
210
0
220
-0
230
-1
100
AcDbArc
50
225.08874531907637
51
270.08882305787847
0
ARC
5
174
100
AcDbEntity
8
0
100
AcDbCircle
10
-57.818288115876925
20
250.67103524429695
30
0
40
4.9998096987828404
210
0
220
-0
230
-1
100
AcDbArc
50
180.08738222285442
51
225.0891376622902
0
LINE
5
175
100
AcDbEntity
8
0
100
AcDbLine
10
149.23231999999999
20
261.09163999999998
30
0
11
144.23238000000001
21
261.06560999999999
31
0
0
LINE
5
176
100
AcDbEntity
8
0
100
AcDbLine
10
71.294158999999993
20
300.54208000000006
30
0
11
71.301575
21
299.81713999999999
31
0
0
LINE
5
177
100
AcDbEntity
8
0
100
AcDbLine
10
52.034447
20
255.15712000000005
30
0
11
57.785198000000008
21
255.19637000000003
31
0
0
LINE
5
178
100
AcDbEntity
8
0
100
AcDbLine
10
276.65039000000002
20
256.14177999999998
30
0
11
276.62436000000002
21
261.14172000000002
31
0
0
LINE
5
179
100
AcDbEntity
8
0
100
AcDbLine
10
188.50119000000001
20
299.51702999999998
30
0
11
188.64191000000002
21
270.76462000000004
31
0
0
LINE
5
180
100
AcDbEntity
8
0
100
AcDbLine
10
271.57709
20
231.56987000000001
30
0
11
266.57721000000004
21
231.53651000000002
31
0
0
LINE
5
181
100
AcDbEntity
8
0
100
AcDbLine
10
281.33724999999998
20
271.98871000000003
30
0
11
278.33727999999996
21
271.97307999999998
31
0
0
LINE
5
182
100
AcDbEntity
8
0
100
AcDbLine
10
208.85127
20
206.73186999999999
30
0
11
208.9187
21
212.98698000000002
31
0
0
LINE
5
183
100
AcDbEntity
8
0
100
AcDbLine
10
193.82504
20
213.14970000000002
30
0
11
189.82529
21
213.19287000000003
31
0
0
LINE
5
184
100
AcDbEntity
8
0
100
AcDbLine
10
57.810398000000006
20
245.67116000000001
30
0
11
52.059471000000002
21
245.68007000000006
31
0
0
LINE
5
185
100
AcDbEntity
8
0
100
AcDbLine
10
47.104622000000006
20
260.41687000000002
30
0
11
48.484122999999997
21
260.41028
31
0
0
LINE
5
186
100
AcDbEntity
8
0
100
AcDbLine
10
206.57854
20
231.13613999999998
30
0
11
211.57843
21
231.16951
31
0
0
LINE
5
187
100
AcDbEntity
8
0
100
AcDbLine
10
169.23203999999998
20
261.19574
30
0
11
164.2321
21
261.16973999999999
31
0
0
LINE
5
188
100
AcDbEntity
8
0
100
AcDbLine
10
149.35183999999998
20
240.96391
30
0
11
144.35196000000002
21
240.93053999999998
31
0
0
LINE
5
189
100
AcDbEntity
8
0
100
AcDbLine
10
139.35207
20
240.89719000000002
30
0
11
134.35217
21
240.86382000000003
31
0
0
LINE
5
190
100
AcDbEntity
8
0
100
AcDbLine
10
188.64191000000002
20
270.76462000000004
30
0
11
177.86868000000001
21
260.32959
31
0
0
LINE
5
191
100
AcDbEntity
8
0
100
AcDbLine
10
137.41696000000002
20
299.48291
30
0
11
154.18709000000001
21
299.45587
31
0
0
LINE
5
192
100
AcDbEntity
8
0
100
AcDbLine
10
118.13891000000001
20
299.37597999999997
30
0
11
137.41696000000002
21
299.48291
31
0
0
LINE
5
193
100
AcDbEntity
8
0
100
AcDbLine
10
86.863770000000002
20
197.05727999999999
30
0
11
75.546074000000004
21
197.10284000000001
31
0
0
LINE
5
194
100
AcDbEntity
8
0
100
AcDbLine
10
90.875366
20
201.72094999999999
30
0
11
90.879715000000004
21
201.07929999999999
31
0
0
LINE
5
195
100
AcDbEntity
8
0
100
AcDbLine
10
187.86850000000001
20
299.51389
30
0
11
188.50119000000001
21
299.51702999999998
31
0
0
LINE
5
196
100
AcDbEntity
8
0
100
AcDbLine
10
139.94293000000002
20
221.93558999999999
30
0
11
144.94283000000001
21
221.96895000000001
31
0
0
LINE
5
197
100
AcDbEntity
8
0
100
AcDbLine
10
48.536934000000009
20
240.40822000000006
30
0
11
47.157509000000005
21
240.39426000000003
31
0
0
LINE
5
198
100
AcDbEntity
8
0
100
AcDbLine
10
52.528152000000006
20
255.08722000000006
30
0
11
52.044708
21
255.15568999999999
31
0
0
LINE
5
199
100
AcDbEntity
8
0
100
AcDbLine
10
256.57742000000002
20
231.46979000000002
30
0
11
261.57732999999996
21
231.50314000000003
31
0
0
LINE
5
200
100
AcDbEntity
8
0
100
AcDbLine
10
241.57777000000004
20
231.36968999999999
30
0
11
236.57787999999999
21
231.33632000000006
31
0
0
LINE
5
201
100
AcDbEntity
8
0
100
AcDbLine
10
90.864693000000017
20
256.10284000000001
30
0
11
90.876122000000009
21
251.79979000000003
31
0
0
LINE
5
202
100
AcDbEntity
8
0
100
AcDbLine
10
129.35228000000001
20
240.83046000000002
30
0
11
124.35238999999999
21
240.79709000000003
31
0
0
LINE
5
203
100
AcDbEntity
8
0
100
AcDbLine
10
291.33676000000003
20
272.08398
30
0
11
286.33701000000002
21
272.03638000000001
31
0
0
LINE
5
204
100
AcDbEntity
8
0
100
AcDbLine
10
90.908835999999994
20
221.60831000000002
30
0
11
94.94393199999999
21
221.63522000000003
31
0
0
LINE
5
205
100
AcDbEntity
8
0
100
AcDbLine
10
110.22498999999999
20
204.52034
30
0
11
104.17385000000002
21
206.48447000000002
31
0
0
LINE
5
206
100
AcDbEntity
8
0
100
AcDbLine
10
96.733017000000018
20
260.81838999999997
30
0
11
100.75369000000002
21
260.85528999999997
31
0
0
LINE
5
207
100
AcDbEntity
8
0
100
AcDbLine
10
216.57831000000002
20
231.20287000000005
30
0
11
221.57820000000001
21
231.23624000000001
31
0
0
LINE
5
208
100
AcDbEntity
8
0
100
AcDbLine
10
90.894203000000005
20
244.93947000000006
30
0
11
90.882912000000005
21
249.24248
31
0
0
LINE
5
209
100
AcDbEntity
8
0
100
AcDbLine
10
129.94316000000001
20
221.86887000000002
30
0
11
134.94305
21
221.90222000000006
31
0
0
LINE
5
210
100
AcDbEntity
8
0
100
AcDbLine
10
90.942267999999999
20
241.49552999999997
30
0
11
90.875366
21
201.72094999999999
31
0
0
LINE
5
211
100
AcDbEntity
8
0
100
AcDbLine
10
90.618530000000007
20
299.38147000000004
30
0
11
90.894195999999994
21
259.78595000000001
31
0
0
ARC
5
212
100
AcDbEntity
8
0
100
AcDbCircle
10
-75.561869701826495
20
201.10272428448229
30
0
40
3.99975404763719
210
-0
220
0
230
-1
100
AcDbArc
50
-44.746339983880283
51
0.28170908177711484
0
LINE
5
213
100
AcDbEntity
8
0
100
AcDbLine
10
199.17814616910789
20
212.91206963956856
30
0
11
218.62189379378685
21
212.91206963956856
31
0
0
LINE
5
214
100
AcDbEntity
8
0
100
AcDbLine
10
262.45172000000002
20
329.45111000000003
30
0
11
257.45181000000002
21
329.41772000000009
31
0
0
LINE
5
215
100
AcDbEntity
8
0
100
AcDbLine
10
256.82346000000001
20
213.30786000000003
30
0
11
251.82357999999999
21
213.27451000000002
31
0
0
LINE
5
216
100
AcDbEntity
8
0
100
AcDbLine
10
171.51712000000001
20
319.34409000000005
30
0
11
166.51723999999999
21
319.31072999999998
31
0
0
LINE
5
217
100
AcDbEntity
8
0
100
AcDbLine
10
71.178939999999997
20
244.77598999999998
30
0
11
71.154671000000008
21
248.81995000000003
31
0
0
LINE
5
218
100
AcDbEntity
8
0
100
AcDbLine
10
139.59805
20
280.00677000000002
30
0
11
144.59798999999998
21
280.03278
31
0
0
LINE
5
219
100
AcDbEntity
8
0
100
AcDbLine
10
276.7355
20
242.42683
30
0
11
276.70215000000002
21
247.42672999999999
31
0
0
LINE
5
220
100
AcDbEntity
8
0
100
AcDbLine
10
87.605468999999999
20
260.37225000000001
30
0
11
82.605591000000004
21
260.3374
31
0
0
LINE
5
221
100
AcDbEntity
8
0
100
AcDbLine
10
159.35162
20
241.03064000000001
30
0
11
154.35173
21
240.99727000000001
31
0
0
LINE
5
222
100
AcDbEntity
8
0
100
AcDbLine
10
86.756790000000009
20
240.85814999999999
30
0
11
86.755859000000001
21
240.89999000000003
31
0
0
LINE
5
223
100
AcDbEntity
8
0
100
AcDbLine
10
75.264130000000023
20
303.85764000000006
30
0
11
86.581420999999992
21
303.96294999999998
31
0
0
ARC
5
224
100
AcDbEntity
8
0
100
AcDbCircle
10
-86.879610618768751
20
201.05731428433472
30
0
40
4.0001648006599408
210
0
220
0
230
-1
100
AcDbArc
50
179.68508920951672
51
224.95627582848724
0
LINE
5
225
100
AcDbEntity
8
0
100
AcDbLine
10
86.640433999999999
20
260.45386000000002
30
0
11
86.639983999999998
21
260.41205000000002
31
0
0
LINE
5
226
100
AcDbEntity
8
0
100
AcDbLine
10
109.59846
20
279.85070999999999
30
0
11
114.5984
21
279.87677000000008
31
0
0
LINE
5
227
100
AcDbEntity
8
0
100
AcDbLine
10
109.35273000000002
20
240.69699
30
0
11
104.35284000000001
21
240.66363999999999
31
0
0
LINE
5
228
100
AcDbEntity
8
0
100
AcDbLine
10
42.614006000000018
20
244.76712000000003
30
0
11
42.455086000000001
21
250.39325000000002
31
0
0
LINE
5
229
100
AcDbEntity
8
0
100
AcDbLine
10
71.233474999999999
20
260.30121000000003
30
0
11
71.294158999999993
21
300.54208000000006
31
0
0
LINE
5
230
100
AcDbEntity
8
0
100
AcDbLine
10
42.455086000000001
20
250.39325000000002
30
0
11
42.584206000000002
21
256.02013999999997
31
0
0
LINE
5
231
100
AcDbEntity
8
0
100
AcDbLine
10
169.35138999999998
20
241.09737000000001
30
0
11
164.35149999999999
21
241.06400000000005
31
0
0
LINE
5
232
100
AcDbEntity
8
0
100
AcDbLine
10
99.598602000000014
20
279.79874000000001
30
0
11
104.59854
21
279.82477000000006
31
0
0
LINE
5
233
100
AcDbEntity
8
0
100
AcDbLine
10
109.23286000000002
20
260.88347999999996
30
0
11
104.23293000000001
21
260.85741999999999
31
0
0
ARC
5
234
100
AcDbEntity
8
0
100
AcDbCircle
10
-86.879807912118977
20
201.05717370740257
30
0
40
3.9999258599558973
210
0
220
-0
230
-1
100
AcDbArc
50
224.95684768294169
51
270.22973104275911
0
LINE
5
235
100
AcDbEntity
8
0
100
AcDbLine
10
108.35516000000001
20
208.61246
30
0
11
108.41646000000003
21
208.64032000000003
31
0
0
LINE
5
236
100
AcDbEntity
8
0
100
AcDbLine
10
275.85825
20
213.43500000000003
30
0
11
271.82312000000002
21
213.40807999999998
31
0
0
LINE
5
237
100
AcDbEntity
8
0
100
AcDbLine
10
164.29105000000004
20
286.54462000000001
30
0
11
164.32361
21
280.28915000000001
31
0
0
LINE
5
238
100
AcDbEntity
8
0
100
AcDbLine
10
264.44806
20
329.23520000000002
30
0
11
264.44622999999996
21
334.00882000000001
31
0
0
ARC
5
239
100
AcDbEntity
8
0
100
AcDbCircle
10
280.28148273651459
20
200.75962393775472
30
0
40
3.1283329824286192
210
0
220
0
230
1
100
AcDbArc
50
204.6650601035565
51
263.17794501889398
0
LINE
5
240
100
AcDbEntity
8
0
100
AcDbLine
10
296.64312999999999
20
203.49130000000002
30
0
11
296.41528
21
300.31311000000005
31
0
0
LINE
5
241
100
AcDbEntity
8
0
100
AcDbLine
10
139.76543999999998
20
314.86950999999999
30
0
11
139.86024
21
303.01965000000001
31
0
0
ARC
5
242
100
AcDbEntity
8
0
100
AcDbCircle
10
292.22658296359401
20
300.23986620214936
30
0
40
4.1893791605734423
210
0
220
-0
230
1
100
AcDbArc
50
46.476074376350788
51
91.949719340759231
0
LINE
5
243
100
AcDbEntity
8
0
100
AcDbLine
10
188.15813000000003
20
328.86633000000006
30
0
11
188.11441000000002
21
319.28604000000001
31
0
0
LINE
5
244
100
AcDbEntity
8
0
100
AcDbLine
10
118.39658999999999
20
201.8109
30
0
11
118.31544000000001
21
196.17142000000001
31
0
0
LWPOLYLINE
5
245
100
AcDbEntity
8
0
100
AcDbPolyline
90
4
70
1
43
0.0
10
132.37398999999999
20
288.85522000000003
42
0.41420989000000702
10
127.94473000000002
20
293.22573999999997
42
0.41421356000000947
10
123.57420000000002
20
288.79651000000001
42
0.41421357000001002
10
128.00344999999999
20
284.42596000000003
42
0.41420345000000297
0
ARC
5
246
100
AcDbEntity
8
0
100
AcDbCircle
10
285.30785272887965
20
203.45122989168516
30
0
40
8.8262346564745542
210
0
220
0
230
1
100
AcDbArc
50
194.35606937866143
51
206.92770043708364
0
LINE
5
247
100
AcDbEntity
8
0
100
AcDbLine
10
139.86024
20
303.01965000000001
30
0
11
139.88605000000001
21
302.94457999999997
31
0
0
ARC
5
248
100
AcDbEntity
8
0
100
AcDbCircle
10
127.31464418247371
20
196.04222687528025
30
0
40
9.00021155013739
210
0
220
0
230
1
100
AcDbArc
50
224.30730815586099
51
269.43688735555196
0
LINE
5
249
100
AcDbEntity
8
0
100
AcDbLine
10
164.16973999999999
20
333.89184999999998
30
0
11
163.23695000000001
21
333.87967000000003
31
0
0
ARC
5
250
100
AcDbEntity
8
0
100
AcDbCircle
10
-179.00003814192229
20
187.42789923359456
30
0
40
4.4844012745348669
210
0
220
-0
230
-1
100
AcDbArc
50
345.45913755217111
51
354.10749486227746
0
LINE
5
251
100
AcDbEntity
8
0
100
AcDbLine
10
281.04907000000003
20
304.54462000000001
30
0
11
281.03882000000004
21
304.54752000000002
31
0
0
ARC
5
252
100
AcDbEntity
8
0
100
AcDbCircle
10
165.20688120412694
20
324.87574900985578
30
0
40
8.9999596854630344
210
0
220
-0
230
1
100
AcDbArc
50
0.12344752579311076
51
88.795492603146272
0
ARC
5
253
100
AcDbEntity
8
0
100
AcDbCircle
10
253.72803353037358
20
334.97197602936632
30
0
40
8.9999829135506744
210
0
220
0
230
1
100
AcDbArc
50
91.106729547180336
51
180.08273547839352
0
LINE
5
254
100
AcDbEntity
8
0
100
AcDbLine
10
108.41646000000003
20
208.64032000000003
30
0
11
108.47658000000001
21
208.66966000000005
31
0
0
LINE
5
255
100
AcDbEntity
8
0
100
AcDbLine
10
154.35454999999999
20
324.90039000000002
30
0
11
154.34222
21
319.38321000000002
31
0
0
LINE
5
256
100
AcDbEntity
8
0
100
AcDbLine
10
165.39607000000001
20
333.87371999999993
30
0
11
164.16973999999999
21
333.89184999999998
31
0
0
LINE
5
257
100
AcDbEntity
8
0
100
AcDbLine
10
178.55908933037449
20
202.15460191993958
30
0
11
188.40314767127111
21
202.01477890634402
31
0
0
LINE
5
258
100
AcDbEntity
8
0
100
AcDbLine
10
198.52463
20
328.81900000000002
30
0
11
188.15813000000003
21
328.86633000000006
31
0
0
LINE
5
259
100
AcDbEntity
8
0
100
AcDbLine
10
154.34222
20
319.38321000000002
30
0
11
144.27533
21
319.40552000000002
31
0
0
ARC
5
260
100
AcDbEntity
8
0
100
AcDbCircle
10
254.44623251086244
20
333.99436390912274
30
0
40
10.000002763769348
210
0
220
-0
230
1
100
AcDbArc
50
45.129194301779172
51
90.17505321655527
0
ARC
5
261
100
AcDbEntity
8
0
100
AcDbCircle
10
-178.4139245805201
20
198.01436884908952
30
0
40
4.0954766232580759
210
0
220
0
230
-1
100
AcDbArc
50
0.3847746286292501
51
46.782094215251327
0
ARC
5
262
100
AcDbEntity
8
0
100
AcDbCircle
10
128.61779234597211
20
196.02914711181401
30
0
40
8.9999209967220963
210
0
220
0
230
1
100
AcDbArc
50
269.43739019250506
51
359.4377418441062
0
LINE
5
263
100
AcDbEntity
8
0
100
AcDbLine
10
180.40402
20
221.78995
30
0
11
184.88889
21
221.76816000000002
31
0
0
LINE
5
264
100
AcDbEntity
8
0
100
AcDbLine
10
217.77255
20
329.23907000000008
30
0
11
217.79612999999998
21
334.39010999999999
31
0
0
LINE
5
265
100
AcDbEntity
8
0
100
AcDbLine
10
276.75722999999999
20
201.26279
30
0
11
276.66913
21
178.24533
31
0
0
ARC
5
266
100
AcDbEntity
8
0
100
AcDbCircle
10
280.69300765711472
20
300.05408340866455
30
0
40
4.5000015051155344
210
0
220
0
230
1
100
AcDbArc
50
90.899805241314965
51
180.88256033423374
0
LWPOLYLINE
5
267
100
AcDbEntity
8
0
100
AcDbPolyline
90
4
70
1
43
0.0
10
289.07927999999998
20
206.27859000000001
42
0.41421210999999802
10
291.81088
20
209.04689000000002
42
0.41421648999999305
10
289.04257000000001
20
211.77847000000003
42
0.41421060999997961
10
286.31099999999998
20
209.01017999999999
42
0.41421208999999631
0
LINE
5
268
100
AcDbEntity
8
0
100
AcDbLine
10
244.73633000000001
20
329.27802000000008
30
0
11
217.77255
21
329.23907000000008
31
0
0
LWPOLYLINE
5
269
100
AcDbEntity
8
0
100
AcDbPolyline
90
4
70
1
43
0.0
10
78.914185000000003
20
294.52646000000004
42
0.41421356999998565
10
81.645775000000015
20
297.29473999999999
42
0.41421429999998366
10
78.877487000000002
20
300.02634
42
0.41421355999999571
10
76.145896999999991
20
297.25806
42
0.41421576999999493
0
LWPOLYLINE
5
270
100
AcDbEntity
8
0
100
AcDbPolyline
90
4
70
1
43
0.0
10
253.80527999999998
20
333.63959
42
0.41421944999999299
10
256.53687000000002
20
336.40787
42
0.4142135599999982
10
253.76857000000001
20
339.13946999999996
42
0.41421945000000038
10
251.03700000000003
20
336.37115
42
0.41421358000000136
0
ARC
5
271
100
AcDbEntity
8
0
100
AcDbCircle
10
106.81739270955964
20
209.70552250127008
30
0
40
5.2850301050474844
210
0
220
-0
230
1
100
AcDbArc
50
86.666448181876348
51
95.845628784821642
0
LINE
5
272
100
AcDbEntity
8
0
100
AcDbLine
10
188.40314767127111
20
202.01477890634402
30
0
11
188.75660540035506
21
202.07498288142116
31
0
0
LINE
5
273
100
AcDbEntity
8
0
100
AcDbLine
10
280.07709
20
197.63467000000003
30
0
11
280.15982000000002
21
197.62796000000003
31
0
0
ARC
5
274
100
AcDbEntity
8
0
100
AcDbCircle
10
127.31419180809523
20
196.0419341592027
30
0
40
8.9996833659114888
210
0
220
0
230
1
100
AcDbArc
50
179.17561008832681
51
224.3079862929834
0
ARC
5
275
100
AcDbEntity
8
0
100
AcDbCircle
10
207.58507626896429
20
334.46045551394832
30
0
40
8.9999524882260147
210
0
220
-0
230
1
100
AcDbArc
50
88.771708818836515
51
134.08186632278327
0
ARC
5
276
100
AcDbEntity
8
0
100
AcDbCircle
10
144.2654851386159
20
314.90543440157586
30
0
40
4.5001885307406218
210
0
220
0
230
1
100
AcDbArc
50
135.16663766391824
51
180.45738938265075
0
LINE
5
277
100
AcDbEntity
8
0
100
AcDbLine
10
137.61727999999999
20
195.94083000000001
30
0
11
137.67483999999999
21
201.80574000000001
31
0
0
ARC
5
278
100
AcDbEntity
8
0
100
AcDbCircle
10
292.2264578181547
20
300.2398702404812
30
0
40
4.1894624158110956
210
0
220
-0
230
1
100
AcDbArc
50
1.0016900668032889
51
46.474795349373977
0
LINE
5
279
100
AcDbEntity
8
0
100
AcDbLine
10
137.67483999999999
20
201.80574000000001
30
0
11
154.44471999999999
21
201.92137000000002
31
0
0
LINE
5
280
100
AcDbEntity
8
0
100
AcDbLine
10
163.33696
20
187.19260000000003
30
0
11
164.97429
21
187.17801000000003
31
0
0
LINE
5
281
100
AcDbEntity
8
0
100
AcDbLine
10
281.03882000000004
20
304.54752000000002
30
0
11
280.99038999999999
21
304.55933000000005
31
0
0
LINE
5
282
100
AcDbEntity
8
0
100
AcDbLine
10
279.90988000000004
20
197.65343999999996
30
0
11
279.99274000000003
21
197.64324999999999
31
0
0
LINE
5
283
100
AcDbEntity
8
0
100
AcDbLine
10
276.87714
20
232.60987999999998
30
0
11
276.75722999999999
21
201.26279
31
0
0
LWPOLYLINE
5
284
100
AcDbEntity
8
0
100
AcDbPolyline
90
4
70
1
43
0.0
10
254.26357999999999
20
222.17622000000006
42
0.41421208999999998
10
251.53198
20
219.40792999999999
42
0.41421063000000691
10
254.30026000000001
20
216.67635000000004
42
0.41421356000000087
10
257.03186000000005
20
219.44462999999999
42
0.41421356000000797
0
LINE
5
285
100
AcDbEntity
8
0
100
AcDbLine
10
246.72401284385938
20
213.20772000000005
30
0
11
241.82379
21
213.20772000000005
31
0
0
LINE
5
286
100
AcDbEntity
8
0
100
AcDbLine
10
275.72888
20
329.57162000000005
30
0
11
264.44806
21
329.23520000000002
31
0
0
LINE
5
287
100
AcDbEntity
8
0
100
AcDbLine
10
280.99038999999999
20
304.55933000000005
30
0
11
280.62234000000001
21
304.55352999999997
31
0
0
LINE
5
288
100
AcDbEntity
8
0
100
AcDbLine
10
188.11441000000002
20
319.28604000000001
30
0
11
174.21896000000001
21
319.25603999999998
31
0
0
LINE
5
289
100
AcDbEntity
8
0
100
AcDbLine
10
174.05343999999999
20
196.03262000000001
30
0
11
174.15039000000002
21
202.04706999999999
31
0
0
ARC
5
290
100
AcDbEntity
8
0
100
AcDbCircle
10
207.58496408776733
20
334.46045956236094
30
0
40
8.9998715375690068
210
0
220
0
230
1
100
AcDbArc
50
134.08137122575192
51
179.39155957747593
0
LINE
5
291
100
AcDbEntity
8
0
100
AcDbLine
10
188.74529055387615
20
230.79532818883621
30
0
11
177.91869422482588
21
241.17160794478181
31
0
0
ARC
5
292
100
AcDbEntity
8
0
100
AcDbCircle
10
144.26539249835781
20
314.90534535295586
30
0
40
4.5001856192648599
210
0
220
-0
230
1
100
AcDbArc
50
89.873476915416433
51
135.16500205773426
0
LINE
5
293
100
AcDbEntity
8
0
100
AcDbLine
10
174.53933130064371
20
186.9675197518404
30
0
11
174.31854030800932
21
198.04187216024798
31
0
0
LINE
5
294
100
AcDbEntity
8
0
100
AcDbLine
10
154.44471999999999
20
201.92137000000002
30
0
11
154.41738999999998
21
196.23543999999998
31
0
0
LINE
5
295
100
AcDbEntity
8
0
100
AcDbLine
10
174.15039000000002
20
202.04706999999999
30
0
11
177.70596
21
202.04181000000003
31
0
0
LINE
5
296
100
AcDbEntity
8
0
100
AcDbLine
10
252.45193
20
329.3843700000001
30
0
11
247.45204000000001
21
329.35101000000003
31
0
0
LINE
5
297
100
AcDbEntity
8
0
100
AcDbLine
10
254.41568000000001
20
343.99432000000002
30
0
11
254.87360000000001
21
343.99579000000006
31
0
0
LINE
5
298
100
AcDbEntity
8
0
100
AcDbLine
10
188.75660540035506
20
202.07498288142116
30
0
11
188.74529055387615
21
230.79532818883621
31
0
0
LINE
5
299
100
AcDbEntity
8
0
100
AcDbLine
10
208.83606
20
343.43567000000002
30
0
11
207.77799999999999
21
343.45833999999996
31
0
0
LINE
5
300
100
AcDbEntity
8
0
100
AcDbLine
10
127.22619
20
187.04245
30
0
11
128.52941999999999
21
187.02966000000001
31
0
0
ARC
5
301
100
AcDbEntity
8
0
100
AcDbCircle
10
208.79331496335541
20
334.4328549637018
30
0
40
9.0029165116619403
210
-0
220
0
230
1
100
AcDbArc
50
-0.2720357579677205
51
89.727963777809151
0
LINE
5
302
100
AcDbEntity
8
0
100
AcDbLine
10
105.23865000000001
20
289.72338999999999
30
0
11
115.73865000000001
21
289.72595000000001
31
0
0
LINE
5
303
100
AcDbEntity
8
0
100
AcDbLine
10
90.875366
20
201.72094999999999
30
0
11
118.39658999999999
21
201.8109
31
0
0
ARC
5
304
100
AcDbEntity
8
0
100
AcDbCircle
10
-178.43331590326744
20
198.13347168488664
30
0
40
4.023096732894099
210
0
220
0
230
-1
100
AcDbArc
50
45.41917429293769
51
91.791520663169166
0
LINE
5
305
100
AcDbEntity
8
0
100
AcDbLine
10
119.35252
20
240.76373000000001
30
0
11
114.35262000000002
21
240.73036000000002
31
0
0
LINE
5
306
100
AcDbEntity
8
0
100
AcDbLine
10
189.88113000000001
20
177.80834999999999
30
0
11
189.7358277684846
21
182.55521000000002
31
0
0
LINE
5
307
100
AcDbEntity
8
0
100
AcDbLine
10
198.58560000000006
20
334.55602999999996
30
0
11
198.52463
21
328.81900000000002
31
0
0
ARC
5
308
100
AcDbEntity
8
0
100
AcDbCircle
10
163.35441256370061
20
324.88055214032602
30
0
40
8.9998844273788023
210
0
220
0
230
1
100
AcDbArc
50
90.747820740510591
51
179.87370653884813
0
ARC
5
309
100
AcDbEntity
8
0
100
AcDbCircle
10
107.16970896365339
20
211.07287069039279
30
0
40
2.7355682276374864
210
-0
220
0
230
1
100
AcDbArc
50
298.53744076872715
51
349.88036211488287
0
ARC
5
310
100
AcDbEntity
8
0
100
AcDbCircle
10
254.44611201384245
20
333.99430642009736
30
0
40
10.00012851822779
210
0
220
-0
230
1
100
AcDbArc
50
0.083155647893686235
51
45.128937407689179
0
ARC
5
311
100
AcDbEntity
8
0
100
AcDbCircle
10
106.93940313243144
20
212.33534573172309
30
0
40
3.9829945618259406
210
0
220
0
230
1
100
AcDbArc
50
257.92613397337692
51
290.82104867964506
0
ARC
5
312
100
AcDbEntity
8
0
100
AcDbCircle
10
107.09899474874005
20
212.20933799752771
30
0
40
2.7723912656476317
210
0
220
-0
230
1
100
AcDbArc
50
34.858679395403016
51
89.46854669749041
0
LINE
5
313
100
AcDbEntity
8
0
100
AcDbLine
10
280.15982000000002
20
197.62796000000003
30
0
11
290.67007000000001
21
197.49331999999998
31
0
0
ARC
5
314
100
AcDbEntity
8
0
100
AcDbCircle
10
290.70190871473449
20
203.36187535860958
30
0
40
5.9426308229849614
210
-0
220
0
230
1
100
AcDbArc
50
-43.905811273256276
51
1.2479442671685281
0
LINE
5
315
100
AcDbEntity
8
0
100
AcDbLine
10
292.08404999999999
20
304.42682000000002
30
0
11
281.04907000000003
21
304.54462000000001
31
0
0
ARC
5
316
100
AcDbEntity
8
0
100
AcDbCircle
10
148.28317420729167
20
310.44012972925594
30
0
40
11.823041193368823
210
0
220
0
230
1
100
AcDbArc
50
238.59082531552397
51
248.07083013214964
0
LINE
5
317
100
AcDbEntity
8
0
100
AcDbLine
10
244.72806000000003
20
334.95898000000005
30
0
11
244.73633000000001
21
329.27802000000008
31
0
0
ARC
5
318
100
AcDbEntity
8
0
100
AcDbCircle
10
105.74604493575058
20
211.60188719971171
30
0
40
4.238683927681647
210
-0
220
0
230
1
100
AcDbArc
50
-13.780503817626094
51
31.141073677424096
0
LINE
5
319
100
AcDbEntity
8
0
100
AcDbLine
10
276.66913
20
178.24533
30
0
11
189.88113000000001
21
177.80834999999999
31
0
0
ARC
5
320
100
AcDbEntity
8
0
100
AcDbCircle
10
144.45922324799443
20
304.62383561823333
30
0
40
4.8717361368961685
210
0
220
0
230
1
100
AcDbArc
50
200.16308496760223
51
241.32599396293415
0
ARC
5
321
100
AcDbEntity
8
0
100
AcDbCircle
10
290.759450085808
20
203.46988989612333
30
0
40
5.9772382019614225
210
0
220
0
230
1
100
AcDbArc
50
269.14320085871549
51
314.96563522468637
0
LINE
5
322
100
AcDbEntity
8
0
100
AcDbLine
10
174.21896000000001
20
319.25603999999998
30
0
11
174.20681999999999
21
324.89513999999997
31
0
0
LINE
5
323
100
AcDbEntity
8
0
100
AcDbLine
10
276.64938000000001
20
270.95965999999999
30
0
11
275.72888
21
329.57162000000005
31
0
0
LINE
5
324
100
AcDbEntity
8
0
100
AcDbLine
10
276.19353999999998
20
299.98477000000003
30
0
11
276.15682999999996
21
302.32378999999997
31
0
0
ARC
5
325
100
AcDbEntity
8
0
100
AcDbCircle
10
163.4172385599376
20
196.19219441504143
30
0
40
8.9999524600094141
210
0
220
0
230
1
100
AcDbArc
50
179.7246875417714
51
269.48892133744113
0
ARC
5
326
100
AcDbEntity
8
0
100
AcDbCircle
10
165.05459279572187
20
196.17766784597197
30
0
40
9.0000161046281146
210
0
220
0
230
1
100
AcDbArc
50
269.48877065602807
51
359.07655840701995
0
LINE
5
327
100
AcDbEntity
8
0
100
AcDbLine
10
254.87360000000001
20
343.99579000000006
30
0
11
253.55420000000004
21
343.97028
31
0
0
LINE
5
328
100
AcDbEntity
8
0
100
AcDbLine
10
279.99274000000003
20
197.64324999999999
30
0
11
280.07709
21
197.63467000000003
31
0
0
LINE
5
329
100
AcDbEntity
8
0
100
AcDbLine
10
177.56318398126308
20
184.05521000000005
30
0
11
189.7358277684846
21
184.05520999999999
31
0
0
LINE
5
330
100
AcDbEntity
8
0
100
AcDbLine
10
189.7358277684846
20
184.05520999999999
30
0
11
189.7358277684846
21
182.55521000000002
31
0
0
ARC
5
331
100
AcDbEntity
8
0
100
AcDbCircle
10
177.56318398126302
20
187.05521000000002
30
0
40
2.9999999999998845
210
0
220
0
230
1
100
AcDbArc
50
194.5408624478296
51
270.00000000000108
0
LINE
5
332
100
AcDbEntity
8
0
100
AcDbLine
10
246.546734522137
20
288.53977171351096
30
0
11
241.64656595268536
21
288.51670852987991
31
0
0
LINE
5
333
100
AcDbEntity
8
0
100
AcDbLine
10
193.64807450782718
20
288.34881898054175
30
0
11
189.64857199079643
21
288.28682440283546
31
0
0
LINE
5
334
100
AcDbEntity
8
0
100
AcDbLine
10
226.70031932558399
20
288.59555253193344
30
0
11
222.00000330805781
21
288.59555253193344
31
0
0
LINE
5
335
100
AcDbEntity
8
0
100
AcDbLine
10
266.64652491513641
20
288.46740174369609
30
0
11
261.64654281190263
21
288.47732914726743
31
0
0
LINE
5
336
100
AcDbEntity
8
0
100
AcDbLine
10
275.68171869673512
20
288.44961621139231
30
0
11
271.64650668891113
21
288.4575443393494
31
0
0
LINE
5
337
100
AcDbEntity
8
0
100
AcDbLine
10
236.65013656121971
20
288.55992302318043
30
0
11
231.64658264068532
21
288.53637324499596
31
0
0
LINE
5
338
100
AcDbEntity
8
0
100
AcDbLine
10
256.64654113248054
20
288.4871664577044
30
0
11
251.64655954696812
21
288.49698386249412
31
0
0
LINE
5
339
100
AcDbEntity
8
0
100
AcDbLine
10
251.48601235701591
20
270.33411706760739
30
0
11
246.48603067737238
21
270.3439544721756
31
0
0
LINE
5
340
100
AcDbEntity
8
0
100
AcDbLine
10
241.4860290450159
20
270.35378178272333
30
0
11
236.48603736548307
21
270.36361914022592
31
0
0
LINE
5
341
100
AcDbEntity
8
0
100
AcDbLine
10
271.48595893417195
20
270.29479754313354
30
0
11
266.485977301594
21
270.3046249478125
31
0
0
LINE
5
342
100
AcDbEntity
8
0
100
AcDbLine
10
191.48611257914678
20
270.45208535852464
30
0
11
188.9861116688374
21
270.457019013577
31
0
0
LINE
5
343
100
AcDbEntity
8
0
100
AcDbLine
10
216.4860607886593
20
270.40293852350305
30
0
11
221.48605246819213
21
270.39310116600046
31
0
0
LINE
5
344
100
AcDbEntity
8
0
100
AcDbLine
10
206.48608747654851
20
270.4226032856846
30
0
11
211.4860791560813
21
270.41276592818201
31
0
0
LINE
5
345
100
AcDbEntity
8
0
100
AcDbLine
10
196.48611425856885
20
270.44224804808766
30
0
11
201.48608584419202
21
270.43243059623239
31
0
0
LINE
5
346
100
AcDbEntity
8
0
100
AcDbLine
10
256.48598403677028
20
270.32427961597364
30
0
11
261.48599562195034
21
270.3144623523807
31
0
0
LINE
5
347
100
AcDbEntity
8
0
100
AcDbLine
10
231.48605573290507
20
270.37344654490488
30
0
11
226.48604405359376
21
270.38328380827636
31
0
0
LINE
5
348
100
AcDbEntity
8
0
100
AcDbLine
10
199.00000296533102
20
288.61164141432602
30
0
11
203.9999475858009
21
288.63517420494179
31
0
0
LINE
5
349
100
AcDbEntity
8
0
100
AcDbLine
10
208.99989220627077
20
288.65870699555762
30
0
11
213.99983682674065
21
288.6822397861734
31
0
0
ENDSEC
0
SECTION
2
OBJECTS
0
DICTIONARY
5
C
100
AcDbDictionary
3
ACAD_GROUP
350
D
3
ACAD_MLINESTYLE
350
17
0
DICTIONARY
5
D
100
AcDbDictionary
0
DICTIONARY
5
1A
330
C
100
AcDbDictionary
0
DICTIONARY
5
17
100
AcDbDictionary
0
ENDSEC
0
EOF
