0
SECTION
2
HEADER
9
$INSUNITS
70
4
9
$ACADVER
1
AC1014
9
$HANDSEED
5
FFFF
0
ENDSEC
0
SECTION
2
TABLES
0
TABLE
2
VPORT
5
8
100
AcDbSymbolTable
0
ENDTAB
0
TABLE
2
LTYPE
5
5
100
AcDbSymbolTable
0
LTYPE
5
14
100
AcDbSymbolTableRecord
100
AcDbLinetypeTableRecord
2
BYBLOCK
70
0
0
LTYPE
5
15
100
AcDbSymbolTableRecord
100
AcDbLinetypeTableRecord
2
BYLAYER
70
0
0
LTYPE
5
16
100
AcDbSymbolTableRecord
100
AcDbLinetypeTableRecord
2
DASHED
70
0
3
Dashed __ __ __ __ __ __ __ __ __ __ __ __ __ _
72
65
73
2
40
0.75
49
0.5
74
0
49
-0.25
74
0
0
ENDTAB
0
TABLE
2
LAYER
5
2
100
AcDbSymbolTable
70
2
0
LAYER
5
50
100
AcDbSymbolTableRecord
100
AcDbLayerTableRecord
2
0
70
0
62
7
6
CONTINUOUS
0
ENDTAB
0
TABLE
2
STYLE
5
3
100
AcDbSymbolTable
70
1
0
STYLE
5
11
100
AcDbSymbolTableRecord
100
AcDbTextStyleTableRecord
2
STANDARD
70
0
0
ENDTAB
0
TABLE
2
VIEW
5
6
100
AcDbSymbolTable
70
0
0
ENDTAB
0
TABLE
2
UCS
5
7
100
AcDbSymbolTable
70
0
0
ENDTAB
0
TABLE
2
APPID
5
9
100
AcDbSymbolTable
70
2
0
APPID
5
12
100
AcDbSymbolTableRecord
100
AcDbRegAppTableRecord
2
ACAD
70
0
0
ENDTAB
0
TABLE
2
DIMSTYLE
5
A
100
AcDbSymbolTable
70
1
0
ENDTAB
0
TABLE
2
BLOCK_RECORD
5
1
100
AcDbSymbolTable
70
1
0
BLOCK_RECORD
5
1F
100
AcDbSymbolTableRecord
100
AcDbBlockTableRecord
2
*MODEL_SPACE
0
BLOCK_RECORD
5
1B
100
AcDbSymbolTableRecord
100
AcDbBlockTableRecord
2
*PAPER_SPACE
0
ENDTAB
0
ENDSEC
0
SECTION
2
BLOCKS
0
BLOCK
5
20
100
AcDbEntity
100
AcDbBlockBegin
2
*MODEL_SPACE
0
ENDBLK
5
21
100
AcDbEntity
100
AcDbBlockEnd
0
BLOCK
5
1C
100
AcDbEntity
100
AcDbBlockBegin
2
*PAPER_SPACE
0
ENDBLK
5
1D
100
AcDbEntity
100
AcDbBlockEnd
0
ENDSEC
0
SECTION
2
ENTITIES
0
LINE
5
100
100
AcDbEntity
8
0
100
AcDbLine
10
104.54707000000001
20
294.59342000000009
30
0
11
104.81939819669279
21
294.59366530552927
31
0
0
LINE
5
101
100
AcDbEntity
8
0
100
AcDbLine
10
109.62362033032846
20
289.76244147353697
30
0
11
109.48241000000004
21
268.05617000000001
31
0
0
LINE
5
102
100
AcDbEntity
8
0
100
AcDbLine
10
109.48241000000004
20
268.05617000000001
30
0
11
109.48228479298237
21
268.14953761905417
31
0
0
LINE
5
103
100
AcDbEntity
8
0
100
AcDbLine
10
109.47718021796378
20
261.22155499218184
30
0
11
109.35143725620561
21
249.13154792252897
31
0
0
LINE
5
104
100
AcDbEntity
8
0
100
AcDbLine
10
104.84817451719582
20
244.67834932109599
30
0
11
94.258635999999996
21
244.6866
31
0
0
LINE
5
105
100
AcDbEntity
8
0
100
AcDbLine
10
94.258635999999996
20
244.6866
30
0
11
94.121966
21
227.07778000000002
31
0
0
LINE
5
106
100
AcDbEntity
8
0
100
AcDbLine
10
94.121966
20
227.07778000000002
30
0
11
120.9883168561766
21
226.83273019693817
31
0
0
LINE
5
107
100
AcDbEntity
8
0
100
AcDbLine
10
125.94260761423114
20
221.80041131518263
30
0
11
125.88255778330048
21
212.56979816891931
31
0
0
LINE
5
108
100
AcDbEntity
8
0
100
AcDbLine
10
125.77951000000002
20
193.23114000000004
30
0
11
125.79657
21
203.43039000000002
31
0
0
LINE
5
109
100
AcDbEntity
8
0
100
AcDbLine
10
125.79657
20
203.47953190920904
30
0
11
125.76066152517411
21
182.01179967770793
31
0
0
LINE
5
110
100
AcDbEntity
8
0
100
AcDbLine
10
120.73756236544996
20
177.02021641578099
30
0
11
66.92050215402331
21
177.26892013074618
31
0
0
ARC
5
111
100
AcDbEntity
8
0
100
AcDbCircle
10
104.82372189903792
20
289.7936672528632
30
0
40
4.7999999999999945
210
0
220
0
230
1
100
AcDbArc
50
-0.37273291390581459
51
90.051610402030789
0
ARC
5
112
100
AcDbEntity
8
0
100
AcDbCircle
10
108.98228524255948
20
268.14886711408462
30
0
40
0.49999999999996242
210
0
220
0
230
1
100
AcDbArc
50
-0.16126589471265676
51
0.076834232824291901
0
ARC
5
113
100
AcDbEntity
8
0
100
AcDbCircle
10
104.8516806231265
20
249.17834795523157
30
0
40
4.5000000000000764
210
0
220
0
230
1
100
AcDbArc
50
269.95535886829367
51
359.40411273447648
0
ARC
5
114
100
AcDbEntity
8
0
100
AcDbCircle
10
108.97720725873272
20
261.22675499581544
30
0
40
0.50000000000005163
210
0
220
0
230
1
100
AcDbArc
50
-0.59588726552111126
51
0.51145560119164701
0
ARC
5
115
100
AcDbEntity
8
0
100
AcDbCircle
10
122.88262126377191
20
212.5893142810944
30
0
40
3.0000000000473652
210
0
220
0
230
1
100
AcDbArc
50
359.28880595678442
51
359.62726708425294
0
ARC
5
116
100
AcDbEntity
8
0
100
AcDbCircle
10
120.94271341497023
20
221.83293816864813
30
0
40
4.999999999999913
210
0
220
0
230
1
100
AcDbArc
50
-0.37273291391365149
51
89.477415811985225
0
LINE
5
117
100
AcDbEntity
8
0
100
AcDbLine
10
117.84805740605222
20
197.16089575071129
30
0
11
118.13581029199167
21
197.16041624102263
31
0
0
ARC
5
118
100
AcDbEntity
8
0
100
AcDbCircle
10
120.76066851973863
20
182.02016302605927
30
0
40
4.9999999999999192
210
0
220
0
230
1
100
AcDbArc
50
269.73522203326741
51
359.90416304268814
0
LINE
5
119
100
AcDbEntity
8
0
100
AcDbLine
10
67.207061889799306
20
294.70644982072815
30
0
11
104.54707000000001
21
294.59342000000009
31
0
0
LINE
5
120
100
AcDbEntity
8
0
100
AcDbLine
10
92.039963135077301
20
198.92626522278547
30
0
11
92.015325107624733
21
193.877733465787
31
0
0
LINE
5
121
100
AcDbEntity
8
0
100
AcDbLine
10
75.040165573457131
20
199.00922825028971
30
0
11
75.015527546004535
21
193.96069649329121
31
0
0
LINE
5
122
100
AcDbEntity
8
0
100
AcDbLine
10
105.03980832925748
20
198.86282290763521
30
0
11
105.01517030180487
21
193.81429115063671
31
0
0
LINE
5
123
100
AcDbEntity
8
0
100
AcDbLine
10
91.951781346166342
20
188.07671467976971
30
0
11
91.995607081351508
21
183.3555167480321
31
0
0
LINE
5
124
100
AcDbEntity
8
0
100
AcDbLine
10
75.108132166902166
20
219.96343980471423
30
0
11
75.13607761886766
21
215.42456960743809
31
0
0
LINE
5
125
100
AcDbEntity
8
0
100
AcDbLine
10
105.1077749227025
20
219.81703446205984
30
0
11
105.13572037466801
21
215.27816426478358
31
0
0
LINE
5
126
100
AcDbEntity
8
0
100
AcDbLine
10
105.05543599594185
20
209.29860612385249
30
0
11
105.03239702737069
21
204.57773450766297
31
0
0
LINE
5
127
100
AcDbEntity
8
0
100
AcDbLine
10
75.055793240141497
20
209.44501146650697
30
0
11
75.032754271570383
21
204.72413985031744
31
0
0
LINE
5
128
100
AcDbEntity
8
0
100
AcDbLine
10
92.055590801761696
20
209.36204843900273
30
0
11
92.032551833190567
21
204.64117682281318
31
0
0
LINE
5
129
100
AcDbEntity
8
0
100
AcDbLine
10
92.107929728522379
20
219.88047677721005
30
0
11
92.135875180487844
21
215.34160657993385
31
0
0
LINE
5
130
100
AcDbEntity
8
0
100
AcDbLine
10
74.951983784546144
20
188.15967770727386
30
0
11
74.995809519731267
21
183.43847977553639
31
0
0
LINE
5
131
100
AcDbEntity
8
0
100
AcDbLine
10
104.95162654034651
20
188.01327236461944
30
0
11
104.99545227553159
21
183.29207443288186
31
0
0
LINE
5
132
100
AcDbEntity
8
0
100
AcDbLine
10
74.861542431246079
20
237.8580123358087
30
0
11
74.839000502619356
21
233.23898823759498
31
0
0
LINE
5
133
100
AcDbEntity
8
0
100
AcDbLine
10
87.659643033580309
20
260.75025084331867
30
0
11
87.640852085453744
21
256.89983308793637
31
0
0
LINE
5
134
100
AcDbEntity
8
0
100
AcDbLine
10
87.80633843680819
20
250.17064847933582
30
0
11
87.787931853091209
21
246.39899011050673
31
0
0
LINE
5
135
100
AcDbEntity
8
0
100
AcDbLine
10
87.459848386045053
20
271.2559600034806
30
0
11
87.439545986969506
21
267.09583368357085
31
0
0
LINE
5
136
100
AcDbEntity
8
0
100
AcDbLine
10
87.538602502358913
20
281.84935999042204
30
0
11
87.519331994339794
21
277.90067652153027
31
0
0
LINE
5
137
100
AcDbEntity
8
0
100
AcDbLine
10
87.497288175519003
20
292.4135574852923
30
0
11
87.478580964942239
21
288.58029823337534
31
0
0
LINE
5
138
100
AcDbEntity
8
0
100
AcDbLine
10
94.258635999999996
20
244.6866
30
0
11
74.89486755198034
21
244.6866
31
0
0
LINE
5
139
100
AcDbEntity
8
0
100
AcDbLine
10
94.121966
20
227.07778000000002
30
0
11
74.808932351123929
21
227.07778000000002
31
0
0
LINE
5
140
100
AcDbEntity
8
0
100
AcDbLine
10
125.88255778330048
20
212.56979816891931
30
0
11
125.79657
21
203.47953190920904
31
0
0
CIRCLE
5
141
100
AcDbEntity
8
0
100
AcDbCircle
10
118.00531897446787
20
200.16061843559979
30
0
40
2.9500000000000002
210
0
220
0
230
1
0
LINE
5
142
100
AcDbEntity
8
0
100
AcDbLine
10
109.48228479298237
20
268.14953761905417
30
0
11
109.47718021796378
21
261.22155499218184
31
0
0
CIRCLE
5
143
100
AcDbEntity
8
0
100
AcDbCircle
10
101.69466374926347
20
271.15963368501065
30
0
40
2.9500000000000002
210
0
220
0
230
1
0
LINE
5
144
100
AcDbEntity
8
0
100
AcDbLine
10
46.589012000000025
20
260.8504674368404
30
0
11
46.589012000000018
21
257.00000382959848
31
0
0
LINE
5
145
100
AcDbEntity
8
0
100
AcDbLine
10
41.941326499999988
20
220.00288848498263
30
0
11
41.891230885929659
21
215.46420871599051
31
0
0
LINE
5
146
100
AcDbEntity
8
0
100
AcDbLine
10
28.942264999999956
20
188.19874307927938
30
0
11
28.875399500000007
21
183.47781524562032
31
0
0
LINE
5
147
100
AcDbEntity
8
0
100
AcDbLine
10
39.962438333432253
20
227.20993485695973
30
0
11
13.095211518843168
21
227.09600054875108
31
0
0
LINE
5
148
100
AcDbEntity
8
0
100
AcDbLine
10
58.942265000000013
20
188.19874307927938
30
0
11
58.875399500000029
21
183.47781524562038
31
0
0
LINE
5
149
100
AcDbEntity
8
0
100
AcDbLine
10
24.766880910380706
20
289.96950070657078
30
0
11
24.802159088728946
21
268.26279858279327
31
0
0
LINE
5
150
100
AcDbEntity
8
0
100
AcDbLine
10
39.962438333432253
20
227.20993485695973
30
0
11
59.275242000000006
21
227.11568381332438
31
0
0
ARC
5
151
100
AcDbEntity
8
0
100
AcDbCircle
10
11.131419262632285
20
212.86199878836084
30
0
40
2.999999999972621
210
0
220
0
230
1
100
AcDbArc
50
180.09311819810816
51
180.43157932557628
0
ARC
5
152
100
AcDbEntity
8
0
100
AcDbCircle
10
13.116414541493935
20
222.09604550576984
30
0
40
5.0000000000003011
210
0
220
0
230
1
100
AcDbArc
50
90.242969470374462
51
180.09311819627246
0
LINE
5
153
100
AcDbEntity
8
0
100
AcDbLine
10
24.802159088728946
20
268.26279858279327
30
0
11
24.802739944864296
21
268.35616447898013
31
0
0
LINE
5
154
100
AcDbEntity
8
0
100
AcDbLine
10
24.774034670083864
20
261.42823944025969
30
0
11
24.840774746886307
21
249.33776269205669
31
0
0
LINE
5
155
100
AcDbEntity
8
0
100
AcDbLine
10
8.1164211448355239
20
222.08791941375466
30
0
11
8.1314232246647222
21
212.85712313305572
31
0
0
LINE
5
156
100
AcDbEntity
8
0
100
AcDbLine
10
28.94233299999998
20
209.48432997840888
30
0
11
28.942333000000016
21
204.76340214474988
31
0
0
LINE
5
157
100
AcDbEntity
8
0
100
AcDbLine
10
8.1400936850011618
20
193.51819236005105
30
0
11
8.1728080445229878
21
203.71740416179244
31
0
0
LINE
5
158
100
AcDbEntity
8
0
100
AcDbLine
10
46.905887499999992
20
292.51260470710514
30
0
11
46.905887500000006
21
288.67929980765678
31
0
0
ARC
5
159
100
AcDbEntity
8
0
100
AcDbCircle
10
13.104163836016909
20
182.28285604777196
30
0
40
4.9999999999999556
210
0
220
0
230
1
100
AcDbArc
50
179.81622223967543
51
269.98516324909224
0
LINE
5
160
100
AcDbEntity
8
0
100
AcDbLine
10
41.942333000000012
20
209.48432997840888
30
0
11
41.942333000000005
21
204.76340214474982
31
0
0
LINE
5
161
100
AcDbEntity
8
0
100
AcDbLine
10
58.942333000000033
20
209.48432997840894
30
0
11
58.942333000000005
21
204.76340214474988
31
0
0
LINE
5
162
100
AcDbEntity
8
0
100
AcDbLine
10
41.942264999999985
20
188.19874307927938
30
0
11
41.875399499999972
21
183.47781524562023
31
0
0
CIRCLE
5
163
100
AcDbEntity
8
0
100
AcDbCircle
10
15.948009223204309
20
200.40964884175304
30
0
40
2.9500000000000002
210
0
220
0
230
1
0
ARC
5
164
100
AcDbEntity
8
0
100
AcDbCircle
10
29.56687457117286
20
289.97730175490472
30
0
40
4.8000000000000078
210
0
220
-0
230
1
100
AcDbArc
50
89.668774880329025
51
180.09311819626464
0
LINE
5
165
100
AcDbEntity
8
0
100
AcDbLine
10
46.390687999999969
20
250.27170695593605
30
0
11
46.390687999999969
21
246.50000367313626
31
0
0
LINE
5
166
100
AcDbEntity
8
0
100
AcDbLine
10
8.1730478657915384
20
203.76654548581271
30
0
11
8.104189556568695
21
182.2988936553202
31
0
0
LINE
5
167
100
AcDbEntity
8
0
100
AcDbLine
10
16.09062973800885
20
197.4091944135219
30
0
11
15.802877938578384
21
197.41011919487215
31
0
0
LINE
5
168
100
AcDbEntity
8
0
100
AcDbLine
10
24.802739944864296
20
268.35616447898013
30
0
11
24.774034670083864
21
261.42823944025969
31
0
0
LINE
5
169
100
AcDbEntity
8
0
100
AcDbLine
10
41.907032000000022
20
199.04859476716254
30
0
11
41.907032000000015
21
194.00000289082527
31
0
0
LINE
5
170
100
AcDbEntity
8
0
100
AcDbLine
10
8.1314232246647222
20
212.85712313305572
30
0
11
8.1730478657915384
21
203.76654548581271
31
0
0
LINE
5
171
100
AcDbEntity
8
0
100
AcDbLine
10
28.907031999999973
20
199.04859476716254
30
0
11
28.907032000000001
21
194.00000289082524
31
0
0
LINE
5
172
100
AcDbEntity
8
0
100
AcDbLine
10
58.907032000000008
20
199.04859476716257
30
0
11
58.907032000000029
21
194.00000289082527
31
0
0
LINE
5
173
100
AcDbEntity
8
0
100
AcDbLine
10
59.275242000000006
20
237.89604452317752
30
0
11
59.275242000000013
21
233.27696542032325
31
0
0
LINE
5
174
100
AcDbEntity
8
0
100
AcDbLine
10
58.941326500000017
20
220.00288848498261
30
0
11
58.891230885929659
21
215.46420871599054
31
0
0
LINE
5
175
100
AcDbEntity
8
0
100
AcDbLine
10
46.84007400000003
20
271.35507646008585
30
0
11
46.840074000000044
21
267.19490060021963
31
0
0
LINE
5
176
100
AcDbEntity
8
0
100
AcDbLine
10
39.911704138445778
20
244.81921214260549
30
0
11
39.962438333432253
21
227.20993485695973
31
0
0
CIRCLE
5
177
100
AcDbEntity
8
0
100
AcDbCircle
10
32.604958057366943
20
271.32821972271233
30
0
40
2.9500000000000002
210
0
220
0
230
1
0
LINE
5
178
100
AcDbEntity
8
0
100
AcDbLine
10
29.866946823987934
20
294.77564723537819
30
0
11
29.594623067352117
21
294.77722154808464
31
0
0
ARC
5
179
100
AcDbEntity
8
0
100
AcDbCircle
10
25.3027302690389
20
268.35305389514485
30
0
40
0.50000000000002176
210
0
220
0
230
1
100
AcDbArc
50
179.6435510495391
51
179.88165117706666
0
LINE
5
180
100
AcDbEntity
8
0
100
AcDbLine
10
28.941326499999995
20
220.00288848498269
30
0
11
28.89123088592963
21
215.46420871599051
31
0
0
ARC
5
181
100
AcDbEntity
8
0
100
AcDbCircle
10
25.274027052510721
20
261.43099942489044
30
0
40
0.5000000000000363
210
0
220
0
230
1
100
AcDbArc
50
179.20892968117698
51
180.31627254788046
0
LINE
5
182
100
AcDbEntity
8
0
100
AcDbLine
10
39.911704138445778
20
244.81921214260549
30
0
11
59.27524200000002
21
244.72471350411499
31
0
0
LINE
5
183
100
AcDbEntity
8
0
100
AcDbLine
10
13.102869085263187
20
177.28285621540999
30
0
11
66.92050215402331
21
177.26892013074618
31
0
0
ARC
5
184
100
AcDbEntity
8
0
100
AcDbCircle
10
29.340706188727673
20
249.36260255373369
30
0
40
4.5000000000000737
210
0
220
0
230
1
100
AcDbArc
50
180.31627254788273
51
269.76502641406603
0
LINE
5
185
100
AcDbEntity
8
0
100
AcDbLine
10
67.207061889799306
20
294.70644982072815
30
0
11
29.866946823987934
21
294.77564723537819
31
0
0
LINE
5
186
100
AcDbEntity
8
0
100
AcDbLine
10
46.813018500000005
20
281.9487346334501
30
0
11
46.813018499999984
21
278.00000414252287
31
0
0
LINE
5
187
100
AcDbEntity
8
0
100
AcDbLine
10
29.322251458174637
20
244.86264039579049
30
0
11
39.911704138445778
21
244.81921214260549
31
0
0
ENDSEC
0
SECTION
2
OBJECTS
0
DICTIONARY
5
C
100
AcDbDictionary
3
ACAD_GROUP
350
D
3
ACAD_MLINESTYLE
350
17
0
DICTIONARY
5
D
100
AcDbDictionary
0
DICTIONARY
5
1A
330
C
100
AcDbDictionary
0
DICTIONARY
5
17
100
AcDbDictionary
0
ENDSEC
0
EOF
