0
SECTION
2
HEADER
9
$INSUNITS
70
4
9
$ACADVER
1
AC1014
9
$HANDSEED
5
FFFF
0
ENDSEC
0
SECTION
2
TABLES
0
TABLE
2
VPORT
5
8
100
AcDbSymbolTable
0
ENDTAB
0
TABLE
2
LTYPE
5
5
100
AcDbSymbolTable
0
LTYPE
5
14
100
AcDbSymbolTableRecord
100
AcDbLinetypeTableRecord
2
BYBLOCK
70
0
0
LTYPE
5
15
100
AcDbSymbolTableRecord
100
AcDbLinetypeTableRecord
2
BYLAYER
70
0
0
LTYPE
5
16
100
AcDbSymbolTableRecord
100
AcDbLinetypeTableRecord
2
DASHED
70
0
3
Dashed __ __ __ __ __ __ __ __ __ __ __ __ __ _
72
65
73
2
40
0.75
49
0.5
74
0
49
-0.25
74
0
0
ENDTAB
0
TABLE
2
LAYER
5
2
100
AcDbSymbolTable
70
2
0
LAYER
5
50
100
AcDbSymbolTableRecord
100
AcDbLayerTableRecord
2
0
70
0
62
7
6
CONTINUOUS
0
ENDTAB
0
TABLE
2
STYLE
5
3
100
AcDbSymbolTable
70
1
0
STYLE
5
11
100
AcDbSymbolTableRecord
100
AcDbTextStyleTableRecord
2
STANDARD
70
0
0
ENDTAB
0
TABLE
2
VIEW
5
6
100
AcDbSymbolTable
70
0
0
ENDTAB
0
TABLE
2
UCS
5
7
100
AcDbSymbolTable
70
0
0
ENDTAB
0
TABLE
2
APPID
5
9
100
AcDbSymbolTable
70
2
0
APPID
5
12
100
AcDbSymbolTableRecord
100
AcDbRegAppTableRecord
2
ACAD
70
0
0
ENDTAB
0
TABLE
2
DIMSTYLE
5
A
100
AcDbSymbolTable
70
1
0
ENDTAB
0
TABLE
2
BLOCK_RECORD
5
1
100
AcDbSymbolTable
70
1
0
BLOCK_RECORD
5
1F
100
AcDbSymbolTableRecord
100
AcDbBlockTableRecord
2
*MODEL_SPACE
0
BLOCK_RECORD
5
1B
100
AcDbSymbolTableRecord
100
AcDbBlockTableRecord
2
*PAPER_SPACE
0
ENDTAB
0
ENDSEC
0
SECTION
2
BLOCKS
0
BLOCK
5
20
100
AcDbEntity
100
AcDbBlockBegin
2
*MODEL_SPACE
0
ENDBLK
5
21
100
AcDbEntity
100
AcDbBlockEnd
0
BLOCK
5
1C
100
AcDbEntity
100
AcDbBlockBegin
2
*PAPER_SPACE
0
ENDBLK
5
1D
100
AcDbEntity
100
AcDbBlockEnd
0
ENDSEC
0
SECTION
2
ENTITIES
0
POINT
5
100
100
AcDbEntity
8
0
100
AcDbPoint
10
104.54706999999999
20
294.59342000000004
30
0
0
POINT
5
101
100
AcDbEntity
8
0
100
AcDbPoint
10
109.48241000000003
20
268.05617000000001
30
0
0
POINT
5
102
100
AcDbEntity
8
0
100
AcDbPoint
10
98.595612000000017
20
261.77544999999998
30
0
0
POINT
5
103
100
AcDbEntity
8
0
100
AcDbPoint
10
94.258635999999996
20
244.6866
30
0
0
POINT
5
104
100
AcDbEntity
8
0
100
AcDbPoint
10
94.121966
20
227.07778000000002
30
0
0
POINT
5
105
100
AcDbEntity
8
0
100
AcDbPoint
10
115.03891000000003
20
209.49294000000003
30
0
0
POINT
5
106
100
AcDbEntity
8
0
100
AcDbPoint
10
121.18831999999999
20
203.48724000000001
30
0
0
POINT
5
107
100
AcDbEntity
8
0
100
AcDbPoint
10
24.80215908872891
20
268.26279858279327
30
0
0
POINT
5
108
100
AcDbEntity
8
0
100
AcDbPoint
10
29.866946823987917
20
294.77564723537813
30
0
0
POINT
5
109
100
AcDbEntity
8
0
100
AcDbPoint
10
39.911704138445749
20
244.81921214260549
30
0
0
POINT
5
110
100
AcDbEntity
8
0
100
AcDbPoint
10
39.962438333432218
20
227.20993485695973
30
0
0
POINT
5
111
100
AcDbEntity
8
0
100
AcDbPoint
10
35.658176415090423
20
261.92902386143288
30
0
0
POINT
5
112
100
AcDbEntity
8
0
100
AcDbPoint
10
18.959926264472013
20
209.72738267148299
30
0
0
POINT
5
113
100
AcDbEntity
8
0
100
AcDbPoint
10
12.78128060696119
20
203.75176440413838
30
0
0
POINT
5
114
100
AcDbEntity
8
0
100
AcDbPoint
10
28.891230885929645
20
215.46420871599051
30
0
0
POINT
5
115
100
AcDbEntity
8
0
100
AcDbPoint
10
58.891230885929645
20
215.46420871599051
30
0
0
POINT
5
116
100
AcDbEntity
8
0
100
AcDbPoint
10
75.13607761886766
20
215.42456960743806
30
0
0
POINT
5
117
100
AcDbEntity
8
0
100
AcDbPoint
10
105.135720374668
20
215.27816426478358
30
0
0
LINE
5
118
100
AcDbEntity
8
0
100
AcDbLine
10
104.54706999999999
20
294.59342000000004
30
0
11
104.8193981966928
21
294.59366530552927
31
0
0
LINE
5
119
100
AcDbEntity
8
0
100
AcDbLine
10
109.62362033032846
20
289.76244147353691
30
0
11
109.48241000000003
21
268.05617000000001
31
0
0
LINE
5
120
100
AcDbEntity
8
0
100
AcDbLine
10
109.48241000000003
20
268.05617000000001
30
0
11
109.48228479298234
21
268.14953761905412
31
0
0
LINE
5
121
100
AcDbEntity
8
0
100
AcDbLine
10
108.98185301901043
20
267.64886730090188
30
0
11
105.24507250935748
21
267.65209755117644
31
0
0
LINE
5
122
100
AcDbEntity
8
0
100
AcDbLine
10
104.74550521281621
20
268.15279011934035
30
0
11
104.74966442399287
21
271.15472247493375
31
0
0
LINE
5
123
100
AcDbEntity
8
0
100
AcDbLine
10
101.79082514364346
20
274.15859666356607
30
0
11
101.68081803526835
21
274.16010602394647
31
0
0
LINE
5
124
100
AcDbEntity
8
0
100
AcDbLine
10
98.639693188442422
20
271.17445815944899
30
0
11
98.595612000000017
21
261.77544999999998
31
0
0
LINE
5
125
100
AcDbEntity
8
0
100
AcDbLine
10
98.595612000000017
20
261.77544999999998
30
0
11
108.97955222444081
21
261.72674949692106
31
0
0
LINE
5
126
100
AcDbEntity
8
0
100
AcDbLine
10
109.47718021796378
20
261.22155499218184
30
0
11
109.3514372562056
21
249.13154792252897
31
0
0
LINE
5
127
100
AcDbEntity
8
0
100
AcDbLine
10
104.84817451719582
20
244.67834932109599
30
0
11
94.258635999999996
21
244.6866
31
0
0
LINE
5
128
100
AcDbEntity
8
0
100
AcDbLine
10
94.258635999999996
20
244.6866
30
0
11
94.121966
21
227.07778000000002
31
0
0
LINE
5
129
100
AcDbEntity
8
0
100
AcDbLine
10
94.121966
20
227.07778000000002
30
0
11
120.9883168561766
21
226.83273019693817
31
0
0
LINE
5
130
100
AcDbEntity
8
0
100
AcDbLine
10
125.94260761423112
20
221.80041131518263
30
0
11
125.88255778330048
21
212.56979816891931
31
0
0
LINE
5
131
100
AcDbEntity
8
0
100
AcDbLine
10
122.91939276347391
20
209.58953964671039
30
0
11
115.03891000000003
21
209.49294000000003
31
0
0
LINE
5
132
100
AcDbEntity
8
0
100
AcDbLine
10
115.03891000000003
20
209.49294000000003
30
0
11
114.86050143815739
21
200.5634780689777
31
0
0
LINE
5
133
100
AcDbEntity
8
0
100
AcDbLine
10
125.77951000000002
20
193.23114000000001
30
0
11
125.79656999999999
21
203.43039000000002
31
0
0
LINE
5
134
100
AcDbEntity
8
0
100
AcDbLine
10
121.18831999999999
20
203.48724000000001
30
0
11
125.79656999999999
21
203.47953190920904
31
0
0
LINE
5
135
100
AcDbEntity
8
0
100
AcDbLine
10
125.79656999999999
20
203.47953190920904
30
0
11
125.7606615251741
21
182.01179967770793
31
0
0
LINE
5
136
100
AcDbEntity
8
0
100
AcDbLine
10
120.73756236544995
20
177.02021641578096
30
0
11
66.92050215402331
21
177.26892013074618
31
0
0
ARC
5
137
100
AcDbEntity
8
0
100
AcDbCircle
10
104.82372189903792
20
289.7936672528632
30
0
40
4.7999999999999945
210
-0
220
0
230
1
100
AcDbArc
50
-0.37273291390683239
51
90.051610402030619
0
ARC
5
138
100
AcDbEntity
8
0
100
AcDbCircle
10
108.98228524255948
20
268.14886711408462
30
0
40
0.4999999999999567
210
0
220
0
230
1
100
AcDbArc
50
-90.049529176502617
51
0.076834232814804865
0
ARC
5
139
100
AcDbEntity
8
0
100
AcDbCircle
10
105.24550473290654
20
268.15209736435924
30
0
40
0.50000000000002476
210
0
220
0
230
1
100
AcDbArc
50
179.92061610129926
51
269.95047082349737
0
ARC
5
140
100
AcDbEntity
8
0
100
AcDbCircle
10
101.74966730345103
20
271.15887900482039
30
0
40
3.0000000000000071
210
0
220
0
230
1
100
AcDbArc
50
-0.079383898705340308
51
89.213918493852148
0
ARC
5
141
100
AcDbEntity
8
0
100
AcDbCircle
10
101.6396601950759
20
271.16038836520084
30
0
40
2.9999999999999458
210
0
220
-0
230
1
100
AcDbArc
50
89.21391849385185
51
179.73128573856633
0
ARC
5
142
100
AcDbEntity
8
0
100
AcDbCircle
10
104.85168062312647
20
249.17834795523157
30
0
40
4.5000000000000764
210
0
220
0
230
1
100
AcDbArc
50
269.95535886829407
51
359.40411273447705
0
ARC
5
143
100
AcDbEntity
8
0
100
AcDbCircle
10
108.97720725873273
20
261.22675499581544
30
0
40
0.50000000000003386
210
-0
220
0
230
1
100
AcDbArc
50
-0.59588726552111126
51
89.731285738560388
0
ARC
5
144
100
AcDbEntity
8
0
100
AcDbCircle
10
122.88262126377191
20
212.5893142810944
30
0
40
3.0000000000473568
210
-0
220
0
230
1
100
AcDbArc
50
270.70230149924549
51
359.62726708425294
0
ARC
5
145
100
AcDbEntity
8
0
100
AcDbCircle
10
120.94271341497023
20
221.83293816864807
30
0
40
4.9999999999998952
210
-0
220
0
230
1
100
AcDbArc
50
-0.37273291391365149
51
89.477415811985225
0
LINE
5
146
100
AcDbEntity
8
0
100
AcDbLine
10
121.18831999999999
20
203.48724000000001
30
0
11
121.15745438090705
21
200.1327426591175
31
0
0
ARC
5
147
100
AcDbEntity
8
0
100
AcDbCircle
10
118.15758136776122
20
200.16034528578308
30
0
40
3.0000080422121456
210
0
220
0
230
1
100
AcDbArc
50
269.584200545947
51
359.47282122453379
0
LINE
5
148
100
AcDbEntity
8
0
100
AcDbLine
10
114.86050143815739
20
200.5634780689777
30
0
11
114.85365518854871
21
200.22081892403787
31
0
0
LINE
5
149
100
AcDbEntity
8
0
100
AcDbLine
10
117.84805740605221
20
197.16089575071129
30
0
11
118.13581029199167
21
197.16041624102263
31
0
0
ARC
5
150
100
AcDbEntity
8
0
100
AcDbCircle
10
117.85305658117451
20
200.16089158541644
30
0
40
2.999999999999968
210
0
220
0
230
1
100
AcDbArc
50
178.85539600901313
51
269.90452274396046
0
ARC
5
151
100
AcDbEntity
8
0
100
AcDbCircle
10
120.76066851973864
20
182.02016302605924
30
0
40
4.9999999999999192
210
0
220
0
230
1
100
AcDbArc
50
269.73522203326712
51
359.90416304268814
0
LINE
5
152
100
AcDbEntity
8
0
100
AcDbLine
10
67.207061889799306
20
294.70644982072804
30
0
11
104.54706999999999
21
294.59342000000004
31
0
0
LINE
5
153
100
AcDbEntity
8
0
100
AcDbLine
10
29.539478991576729
20
268.33630061261806
30
0
11
29.549969794433409
21
271.33821751847199
31
0
0
LINE
5
154
100
AcDbEntity
8
0
100
AcDbLine
10
12.78128060696119
20
203.75176440413838
30
0
11
8.1730478657915206
21
203.76654548581271
31
0
0
LINE
5
155
100
AcDbEntity
8
0
100
AcDbLine
10
35.658176415090423
20
261.92902386143288
30
0
11
25.274122176935432
21
261.93099941584182
31
0
0
LINE
5
156
100
AcDbEntity
8
0
100
AcDbLine
10
19.094755337342821
20
200.79715640818904
30
0
11
19.099929267774431
21
200.45446793276497
31
0
0
LINE
5
157
100
AcDbEntity
8
0
100
AcDbLine
10
35.659964585246186
20
271.32813522022695
30
0
11
35.658176415090423
21
261.92902386143288
31
0
0
ARC
5
158
100
AcDbEntity
8
0
100
AcDbCircle
10
25.302730269038864
20
268.35305389514485
30
0
40
0.4999999999999683
210
0
220
0
230
1
100
AcDbArc
50
179.6435510495391
51
269.76991445886244
0
LINE
5
159
100
AcDbEntity
8
0
100
AcDbLine
10
8.1730478657915206
20
203.76654548581271
30
0
11
8.1041895565686772
21
182.2988936553202
31
0
0
LINE
5
160
100
AcDbEntity
8
0
100
AcDbLine
10
8.1400936850011085
20
193.51819236005099
30
0
11
8.1728080445229701
21
203.71740416179244
31
0
0
LINE
5
161
100
AcDbEntity
8
0
100
AcDbLine
10
18.959926264472013
20
209.72738267148299
30
0
11
19.094755337342821
21
200.79715640818904
31
0
0
LINE
5
162
100
AcDbEntity
8
0
100
AcDbLine
10
13.102869085263169
20
177.28285621540994
30
0
11
66.92050215402331
21
177.26892013074618
31
0
0
LINE
5
163
100
AcDbEntity
8
0
100
AcDbLine
10
8.1164211448354884
20
222.08791941375466
30
0
11
8.1314232246646867
21
212.85712313305572
31
0
0
LINE
5
164
100
AcDbEntity
8
0
100
AcDbLine
10
16.090629738008815
20
197.4091944135219
30
0
11
15.802877938578348
21
197.41011919487215
31
0
0
LINE
5
165
100
AcDbEntity
8
0
100
AcDbLine
10
11.080008766369307
20
209.8624393271802
30
0
11
18.959926264472013
21
209.72738267148299
31
0
0
LINE
5
166
100
AcDbEntity
8
0
100
AcDbLine
10
25.300722399308402
20
267.85305792670204
30
0
11
29.037474175052537
21
267.83805198414564
31
0
0
ARC
5
167
100
AcDbEntity
8
0
100
AcDbCircle
10
32.659964639538181
20
271.32870596677583
30
0
40
2.9999999999999427
210
-0
220
0
230
1
100
AcDbArc
50
-0.01090045620104994
51
90.506466788508007
0
ARC
5
168
100
AcDbEntity
8
0
100
AcDbCircle
10
11.131419262632232
20
212.86199878836084
30
0
40
2.9999999999726032
210
0
220
0
230
1
100
AcDbArc
50
180.09311819810816
51
269.01808378311461
0
ARC
5
169
100
AcDbEntity
8
0
100
AcDbCircle
10
16.10027113635546
20
200.4091789207215
30
0
40
2.9999999999999645
210
0
220
0
230
1
100
AcDbArc
50
-90.184137461600798
51
0.8649892733470661
0
ARC
5
170
100
AcDbEntity
8
0
100
AcDbCircle
10
13.104163836016856
20
182.28285604777193
30
0
40
4.9999999999999201
210
0
220
0
230
1
100
AcDbArc
50
179.81622223967543
51
269.98516324909269
0
LINE
5
171
100
AcDbEntity
8
0
100
AcDbLine
10
12.78128060696119
20
203.75176440413838
30
0
11
12.795775314081155
21
200.39715637936183
31
0
0
ARC
5
172
100
AcDbEntity
8
0
100
AcDbCircle
10
25.274027052510668
20
261.43099942489039
30
0
40
0.50000000000004374
210
-0
220
0
230
1
100
AcDbArc
50
89.989099543799114
51
180.31627254788046
0
LINE
5
173
100
AcDbEntity
8
0
100
AcDbLine
10
24.80215908872891
20
268.26279858279327
30
0
11
24.802739944864314
21
268.35616447898013
31
0
0
ARC
5
174
100
AcDbEntity
8
0
100
AcDbCircle
10
15.795747310053052
20
200.41011876278449
30
0
40
2.9999999999999343
210
0
220
0
230
1
100
AcDbArc
50
180.24756405782631
51
270.13618473641287
0
LINE
5
175
100
AcDbEntity
8
0
100
AcDbLine
10
39.911704138445749
20
244.81921214260549
30
0
11
39.962438333432218
21
227.20993485695973
31
0
0
LINE
5
176
100
AcDbEntity
8
0
100
AcDbLine
10
29.866946823987917
20
294.77564723537813
30
0
11
29.594623067352064
21
294.77722154808464
31
0
0
ARC
5
177
100
AcDbEntity
8
0
100
AcDbCircle
10
32.549951475195648
20
271.3277334786489
30
0
40
3.0000000000000253
210
0
220
0
230
1
100
AcDbArc
50
90.506466788507865
51
179.79976918106595
0
LINE
5
178
100
AcDbEntity
8
0
100
AcDbLine
10
24.766880910380671
20
289.96950070657073
30
0
11
24.80215908872891
21
268.26279858279327
31
0
0
LINE
5
179
100
AcDbEntity
8
0
100
AcDbLine
10
67.207061889799306
20
294.70644982072804
30
0
11
29.866946823987917
21
294.77564723537813
31
0
0
LINE
5
180
100
AcDbEntity
8
0
100
AcDbLine
10
32.523433281506378
20
274.32761627392665
30
0
11
32.633446445848904
21
274.32858876205353
31
0
0
ARC
5
181
100
AcDbEntity
8
0
100
AcDbCircle
10
29.566874571172825
20
289.97730175490472
30
0
40
4.8000000000000433
210
-0
220
0
230
1
100
AcDbArc
50
89.668774880329252
51
180.09311819626464
0
ARC
5
182
100
AcDbEntity
8
0
100
AcDbCircle
10
29.039482044782989
20
268.33804795258857
30
0
40
0.50000000000005351
210
0
220
0
230
1
100
AcDbArc
50
269.76991445886375
51
359.7997691810678
0
ARC
5
183
100
AcDbEntity
8
0
100
AcDbCircle
10
29.340706188727658
20
249.36260255373369
30
0
40
4.500000000000056
210
0
220
0
230
1
100
AcDbArc
50
180.31627254788273
51
269.76502641406574
0
ARC
5
184
100
AcDbEntity
8
0
100
AcDbCircle
10
13.116414541493899
20
222.09604550576984
30
0
40
5.0000000000003011
210
0
220
0
230
1
100
AcDbArc
50
90.242969470374462
51
180.09311819627246
0
LINE
5
185
100
AcDbEntity
8
0
100
AcDbLine
10
39.962438333432218
20
227.20993485695973
30
0
11
13.095211518843133
21
227.09600054875108
31
0
0
LINE
5
186
100
AcDbEntity
8
0
100
AcDbLine
10
24.774034670083829
20
261.42823944025963
30
0
11
24.840774746886307
21
249.33776269205669
31
0
0
LINE
5
187
100
AcDbEntity
8
0
100
AcDbLine
10
29.322251458174602
20
244.86264039579049
30
0
11
39.911704138445749
21
244.81921214260549
31
0
0
LINE
5
188
100
AcDbEntity
8
0
100
AcDbLine
10
46.905887499999999
20
292.51260470710514
30
0
11
46.905887499999999
21
288.67929980765678
31
0
0
LINE
5
189
100
AcDbEntity
8
0
100
AcDbLine
10
46.813018500000005
20
281.9487346334501
30
0
11
46.813018500000005
21
278.00000414252281
31
0
0
LINE
5
190
100
AcDbEntity
8
0
100
AcDbLine
10
46.840074000000001
20
271.35507646008585
30
0
11
46.840074000000001
21
267.19490060021951
31
0
0
LINE
5
191
100
AcDbEntity
8
0
100
AcDbLine
10
46.589012000000011
20
260.8504674368404
30
0
11
46.589012000000011
21
257.00000382959843
31
0
0
LINE
5
192
100
AcDbEntity
8
0
100
AcDbLine
10
46.390687999999997
20
250.271706955936
30
0
11
46.390687999999997
21
246.50000367313623
31
0
0
LINE
5
193
100
AcDbEntity
8
0
100
AcDbLine
10
59.275242000000006
20
237.89604452317752
30
0
11
59.275242000000006
21
233.27696542032325
31
0
0
LINE
5
194
100
AcDbEntity
8
0
100
AcDbLine
10
28.941326500000002
20
220.00288848498263
30
0
11
28.891230885929645
21
215.46420871599051
31
0
0
LINE
5
195
100
AcDbEntity
8
0
100
AcDbLine
10
28.942333000000005
20
209.48432997840888
30
0
11
28.942333000000005
21
204.76340214474985
31
0
0
LINE
5
196
100
AcDbEntity
8
0
100
AcDbLine
10
28.907032000000005
20
199.04859476716254
30
0
11
28.907032000000005
21
194.00000289082527
31
0
0
LINE
5
197
100
AcDbEntity
8
0
100
AcDbLine
10
28.942265000000003
20
188.19874307927938
30
0
11
28.875399500000004
21
183.47781524562032
31
0
0
LINE
5
198
100
AcDbEntity
8
0
100
AcDbLine
10
41.941326500000002
20
220.00288848498263
30
0
11
41.891230885929645
21
215.46420871599051
31
0
0
LINE
5
199
100
AcDbEntity
8
0
100
AcDbLine
10
41.942333000000005
20
209.48432997840888
30
0
11
41.942333000000005
21
204.76340214474985
31
0
0
LINE
5
200
100
AcDbEntity
8
0
100
AcDbLine
10
41.942264999999999
20
188.19874307927938
30
0
11
41.8753995
21
183.47781524562032
31
0
0
LINE
5
201
100
AcDbEntity
8
0
100
AcDbLine
10
41.907032000000001
20
199.04859476716254
30
0
11
41.907032000000001
21
194.00000289082527
31
0
0
LINE
5
202
100
AcDbEntity
8
0
100
AcDbLine
10
58.942333000000005
20
209.48432997840888
30
0
11
58.942333000000005
21
204.76340214474985
31
0
0
LINE
5
203
100
AcDbEntity
8
0
100
AcDbLine
10
58.941326500000002
20
220.00288848498263
30
0
11
58.891230885929645
21
215.46420871599051
31
0
0
LINE
5
204
100
AcDbEntity
8
0
100
AcDbLine
10
58.907032000000008
20
199.04859476716254
30
0
11
58.907032000000008
21
194.00000289082527
31
0
0
LINE
5
205
100
AcDbEntity
8
0
100
AcDbLine
10
58.942265000000006
20
188.19874307927938
30
0
11
58.875399500000007
21
183.47781524562032
31
0
0
LINE
5
206
100
AcDbEntity
8
0
100
AcDbLine
10
92.039963135077329
20
198.92626522278547
30
0
11
92.015325107624733
21
193.877733465787
31
0
0
LINE
5
207
100
AcDbEntity
8
0
100
AcDbLine
10
75.040165573457131
20
199.00922825028968
30
0
11
75.015527546004535
21
193.96069649329121
31
0
0
LINE
5
208
100
AcDbEntity
8
0
100
AcDbLine
10
105.03980832925747
20
198.86282290763518
30
0
11
105.01517030180487
21
193.81429115063673
31
0
0
LINE
5
209
100
AcDbEntity
8
0
100
AcDbLine
10
91.951781346166328
20
188.07671467976968
30
0
11
91.995607081351466
21
183.35551674803213
31
0
0
LINE
5
210
100
AcDbEntity
8
0
100
AcDbLine
10
75.108132166902166
20
219.96343980471426
30
0
11
75.13607761886766
21
215.42456960743806
31
0
0
LINE
5
211
100
AcDbEntity
8
0
100
AcDbLine
10
105.1077749227025
20
219.81703446205981
30
0
11
105.135720374668
21
215.27816426478358
31
0
0
LINE
5
212
100
AcDbEntity
8
0
100
AcDbLine
10
105.05543599594183
20
209.29860612385249
30
0
11
105.03239702737069
21
204.57773450766294
31
0
0
LINE
5
213
100
AcDbEntity
8
0
100
AcDbLine
10
75.055793240141512
20
209.44501146650694
30
0
11
75.032754271570369
21
204.72413985031744
31
0
0
LINE
5
214
100
AcDbEntity
8
0
100
AcDbLine
10
92.055590801761696
20
209.36204843900273
30
0
11
92.032551833190567
21
204.64117682281318
31
0
0
LINE
5
215
100
AcDbEntity
8
0
100
AcDbLine
10
92.10792972852235
20
219.88047677721005
30
0
11
92.135875180487858
21
215.34160657993385
31
0
0
LINE
5
216
100
AcDbEntity
8
0
100
AcDbLine
10
74.951983784546144
20
188.15967770727389
30
0
11
74.995809519731267
21
183.43847977553636
31
0
0
LINE
5
217
100
AcDbEntity
8
0
100
AcDbLine
10
104.95162654034647
20
188.01327236461944
30
0
11
104.99545227553159
21
183.29207443288186
31
0
0
LINE
5
218
100
AcDbEntity
8
0
100
AcDbLine
10
74.861542431246079
20
237.8580123358087
30
0
11
74.839000502619356
21
233.23898823759498
31
0
0
LINE
5
219
100
AcDbEntity
8
0
100
AcDbLine
10
87.659643033580323
20
260.75025084331867
30
0
11
87.640852085453744
21
256.89983308793637
31
0
0
LINE
5
220
100
AcDbEntity
8
0
100
AcDbLine
10
87.806338436808176
20
250.1706484793358
30
0
11
87.787931853091195
21
246.3989901105067
31
0
0
LINE
5
221
100
AcDbEntity
8
0
100
AcDbLine
10
87.459848386045067
20
271.2559600034806
30
0
11
87.43954598696952
21
267.09583368357079
31
0
0
LINE
5
222
100
AcDbEntity
8
0
100
AcDbLine
10
87.538602502358913
20
281.84935999042204
30
0
11
87.51933199433978
21
277.90067652153022
31
0
0
LINE
5
223
100
AcDbEntity
8
0
100
AcDbLine
10
87.497288175519003
20
292.4135574852923
30
0
11
87.478580964942239
21
288.58029823337534
31
0
0
LINE
5
224
100
AcDbEntity
8
0
100
AcDbLine
10
39.911704138445749
20
244.81921214260549
30
0
11
59.285863071945982
21
244.81921214260549
31
0
0
LINE
5
225
100
AcDbEntity
8
0
100
AcDbLine
10
39.962438333432218
20
227.20993485695973
30
0
11
59.288284280528252
21
227.20993485695973
31
0
0
LINE
5
226
100
AcDbEntity
8
0
100
AcDbLine
10
94.258635999999996
20
244.6866
30
0
11
74.89486755198034
21
244.6866
31
0
0
LINE
5
227
100
AcDbEntity
8
0
100
AcDbLine
10
94.121966
20
227.07778000000002
30
0
11
74.808932351123914
21
227.07778000000002
31
0
0
ENDSEC
0
SECTION
2
OBJECTS
0
DICTIONARY
5
C
100
AcDbDictionary
3
ACAD_GROUP
350
D
3
ACAD_MLINESTYLE
350
17
0
DICTIONARY
5
D
100
AcDbDictionary
0
DICTIONARY
5
1A
330
C
100
AcDbDictionary
0
DICTIONARY
5
17
100
AcDbDictionary
0
ENDSEC
0
EOF
