0
SECTION
2
HEADER
9
$INSUNITS
70
4
9
$ACADVER
1
AC1014
9
$HANDSEED
5
FFFF
0
ENDSEC
0
SECTION
2
TABLES
0
TABLE
2
VPORT
5
8
100
AcDbSymbolTable
0
ENDTAB
0
TABLE
2
LTYPE
5
5
100
AcDbSymbolTable
0
LTYPE
5
14
100
AcDbSymbolTableRecord
100
AcDbLinetypeTableRecord
2
BYBLOCK
70
0
0
LTYPE
5
15
100
AcDbSymbolTableRecord
100
AcDbLinetypeTableRecord
2
BYLAYER
70
0
0
LTYPE
5
16
100
AcDbSymbolTableRecord
100
AcDbLinetypeTableRecord
2
DASHED
70
0
3
Dashed __ __ __ __ __ __ __ __ __ __ __ __ __ _
72
65
73
2
40
0.75
49
0.5
74
0
49
-0.25
74
0
0
ENDTAB
0
TABLE
2
LAYER
5
2
100
AcDbSymbolTable
70
2
0
LAYER
5
50
100
AcDbSymbolTableRecord
100
AcDbLayerTableRecord
2
0
70
0
62
7
6
CONTINUOUS
0
ENDTAB
0
TABLE
2
STYLE
5
3
100
AcDbSymbolTable
70
1
0
STYLE
5
11
100
AcDbSymbolTableRecord
100
AcDbTextStyleTableRecord
2
STANDARD
70
0
0
ENDTAB
0
TABLE
2
VIEW
5
6
100
AcDbSymbolTable
70
0
0
ENDTAB
0
TABLE
2
UCS
5
7
100
AcDbSymbolTable
70
0
0
ENDTAB
0
TABLE
2
APPID
5
9
100
AcDbSymbolTable
70
2
0
APPID
5
12
100
AcDbSymbolTableRecord
100
AcDbRegAppTableRecord
2
ACAD
70
0
0
ENDTAB
0
TABLE
2
DIMSTYLE
5
A
100
AcDbSymbolTable
70
1
0
ENDTAB
0
TABLE
2
BLOCK_RECORD
5
1
100
AcDbSymbolTable
70
1
0
BLOCK_RECORD
5
1F
100
AcDbSymbolTableRecord
100
AcDbBlockTableRecord
2
*MODEL_SPACE
0
BLOCK_RECORD
5
1B
100
AcDbSymbolTableRecord
100
AcDbBlockTableRecord
2
*PAPER_SPACE
0
ENDTAB
0
ENDSEC
0
SECTION
2
BLOCKS
0
BLOCK
5
20
100
AcDbEntity
100
AcDbBlockBegin
2
*MODEL_SPACE
0
ENDBLK
5
21
100
AcDbEntity
100
AcDbBlockEnd
0
BLOCK
5
1C
100
AcDbEntity
100
AcDbBlockBegin
2
*PAPER_SPACE
0
ENDBLK
5
1D
100
AcDbEntity
100
AcDbBlockEnd
0
ENDSEC
0
SECTION
2
ENTITIES
0
POINT
5
100
100
AcDbEntity
8
0
100
AcDbPoint
10
-5.6843418860808015e-13
20
5.9117387619821837
30
0
0
POINT
5
101
100
AcDbEntity
8
0
100
AcDbPoint
10
88.523784178962558
20
-49.658304983093814
30
0
0
LINE
5
102
100
AcDbEntity
8
0
100
AcDbLine
10
-88.006509819178149
20
11.603574434504749
30
0
11
-88.006509819178149
21
46.00000076014063
31
0
0
LINE
5
103
100
AcDbEntity
8
0
100
AcDbLine
10
-83.006509819178149
20
51.00000076014063
30
0
11
-75.000001043074448
21
51.00000076014063
31
0
0
LINE
5
104
100
AcDbEntity
8
0
100
AcDbLine
10
-70.000001043074448
20
46.00000076014063
30
0
11
-70.000001043074448
21
11.603574434504749
31
0
0
ARC
5
105
100
AcDbEntity
8
0
100
AcDbCircle
10
-75.000001043074448
20
46.00000076014063
30
0
40
5
210
0
220
-0
230
1
100
AcDbArc
50
0
51
90
0
ARC
5
106
100
AcDbEntity
8
0
100
AcDbCircle
10
-83.006509819178149
20
46.000000760140622
30
0
40
5.0000000000000089
210
0
220
-0
230
1
100
AcDbArc
50
90
51
180
0
LINE
5
107
100
AcDbEntity
8
0
100
AcDbLine
10
-88.006509819178149
20
11.603574434504749
30
0
11
-109.2958731511026
21
11.603574434504756
31
0
0
LINE
5
108
100
AcDbEntity
8
0
100
AcDbLine
10
-114.29587315110261
20
6.603574434504754
30
0
11
-114.29587315110261
21
2.9558693809802024
31
0
0
ARC
5
109
100
AcDbEntity
8
0
100
AcDbCircle
10
-109.29587315110261
20
6.6035744345047522
30
0
40
5.0000000000000036
210
0
220
-0
230
1
100
AcDbArc
50
89.999999999999844
51
180
0
LINE
5
110
100
AcDbEntity
8
0
100
AcDbLine
10
-70.084007237618579
20
46.912691783828045
30
0
11
-45.709979782540451
21
46.912691783828045
31
0
0
LINE
5
111
100
AcDbEntity
8
0
100
AcDbLine
10
-45.709979782540451
20
46.912691783828045
30
0
11
-45.709979782540451
21
51.207064853063919
31
0
0
LINE
5
112
100
AcDbEntity
8
0
100
AcDbLine
10
-28.213312444989818
20
51.207064853063919
30
0
11
-28.213312444989942
21
46.912691783828045
31
0
0
ARC
5
113
100
AcDbEntity
8
0
100
AcDbCircle
10
-37.213312444989818
20
51.207064853063926
30
0
40
9
210
-0
220
0
230
1
100
AcDbArc
50
0
51
88.397633506958712
0
ARC
5
114
100
AcDbEntity
8
0
100
AcDbCircle
10
-36.709979782540444
20
51.207064853063919
30
0
40
9.0000000000000355
210
0
220
0
230
1
100
AcDbArc
50
91.602366493047114
51
180
0
LINE
5
115
100
AcDbEntity
8
0
100
AcDbLine
10
-28.213312444989942
20
46.912691783828045
30
0
11
-13.000000610095675
21
46.912691783828407
31
0
0
LINE
5
116
100
AcDbEntity
8
0
100
AcDbLine
10
-13.000000610095675
20
46.912691783828407
30
0
11
-13.000000610095675
21
51.453574443609462
31
0
0
LINE
5
117
100
AcDbEntity
8
0
100
AcDbLine
10
5.0001758768812863
20
49.912691783828429
30
0
11
5.0002003794489722
21
46.912691783828407
31
0
0
ARC
5
118
100
AcDbEntity
8
0
100
AcDbCircle
10
-4.0000006100956709
20
51.453574443609462
30
0
40
8.9999999999999964
210
0
220
0
230
1
100
AcDbArc
50
90.000000566785488
51
180
0
ARC
5
119
100
AcDbEntity
8
0
100
AcDbCircle
10
-3.9998395625428342
20
51.453571591098594
30
0
40
9.0000028539533652
210
-0
220
0
230
1
100
AcDbArc
50
-0.00016945632571315093
51
90.00102582702452
0
LINE
5
120
100
AcDbEntity
8
0
100
AcDbLine
10
5.0002003794489722
20
46.912691783828407
30
0
11
18.18689253890852
21
46.912799486434096
31
0
0
LINE
5
121
100
AcDbEntity
8
0
100
AcDbLine
10
18.18689253890852
20
46.912799486434096
30
0
11
18.187108370770758
21
20.487177675409907
31
0
0
LINE
5
122
100
AcDbEntity
8
0
100
AcDbLine
10
7.0000001043081301
20
46.912708117237784
30
0
11
8.0002003794489838
21
46.91271628639609
31
0
0
LINE
5
123
100
AcDbEntity
8
0
100
AcDbLine
10
5.0001758768812863
20
49.912691783828429
30
0
11
5.0000977433985705
21
59.479054425504572
31
0
0
LINE
5
124
100
AcDbEntity
8
0
100
AcDbLine
10
10.000056905785801
20
64.479095263117415
30
0
11
17.751024829915117
21
64.479158569322777
31
0
0
LINE
5
125
100
AcDbEntity
8
0
100
AcDbLine
10
17.751024829915117
20
64.479158569322777
30
0
11
17.750946470876961
21
74.073137350336793
31
0
0
LINE
5
126
100
AcDbEntity
8
0
100
AcDbLine
10
17.750946470876961
20
74.073137350336793
30
0
11
97.572401959555066
21
74.073789293785651
31
0
0
LINE
5
127
100
AcDbEntity
8
0
100
AcDbLine
10
97.572401959555066
20
74.073789293785651
30
0
11
97.572839629414517
21
20.487177675409907
31
0
0
ARC
5
128
100
AcDbEntity
8
0
100
AcDbCircle
10
8.0001758768812952
20
49.912716286396098
30
0
40
3.000000000100072
210
0
220
0
230
1
100
AcDbArc
50
180.00046796454302
51
270.0004679645719
0
ARC
5
129
100
AcDbEntity
8
0
100
AcDbCircle
10
10.000097743398587
20
59.479095263117394
30
0
40
5.0000000001667892
210
0
220
0
230
1
100
AcDbArc
50
90.000467964571598
51
180.00046796454302
0
LINE
5
130
100
AcDbEntity
8
0
100
AcDbLine
10
97.572620794484806
20
47.280483484597781
30
0
11
97.572620794484095
21
48.115859528842705
31
0
0
LINE
5
131
100
AcDbEntity
8
0
100
AcDbLine
10
101.07262079448117
20
51.615859528845711
30
0
11
110.81049994631815
21
51.615859528854003
31
0
0
LINE
5
132
100
AcDbEntity
8
0
100
AcDbLine
10
115.31049994632197
20
47.115859528857868
30
0
11
115.31049994635958
21
2.9558693810020782
31
0
0
ARC
5
133
100
AcDbEntity
8
0
100
AcDbCircle
10
101.07262079448415
20
48.115859528845675
30
0
40
3.500000000000032
210
0
220
0
230
1
100
AcDbArc
50
90.000000000048857
51
180
0
ARC
5
134
100
AcDbEntity
8
0
100
AcDbCircle
10
110.81049994632198
20
47.115859528854031
30
0
40
4.4999999999999751
210
0
220
-0
230
1
100
AcDbArc
50
0
51
90.000000000048857
0
CIRCLE
5
135
100
AcDbEntity
8
0
100
AcDbCircle
10
108.58729553060043
20
41.132970573479859
30
0
40
2.8500000000000005
210
0
220
0
230
1
0
CIRCLE
5
136
100
AcDbEntity
8
0
100
AcDbCircle
10
77.146225855703307
20
31.626480098169537
30
0
40
2.8499999999999988
210
0
220
0
230
1
0
CIRCLE
5
137
100
AcDbEntity
8
0
100
AcDbCircle
10
101.31346194810094
20
2.9558693809911403
30
0
40
2.8500000000000023
210
0
220
0
230
1
0
CIRCLE
5
138
100
AcDbEntity
8
0
100
AcDbCircle
10
-36.518385801635375
20
22.331373612978865
30
0
40
2.8499999999999996
210
0
220
0
230
1
0
CIRCLE
5
139
100
AcDbEntity
8
0
100
AcDbCircle
10
-36.618672949349346
20
53.918378912091654
30
0
40
2.8499999999999996
210
0
220
0
230
1
0
CIRCLE
5
140
100
AcDbEntity
8
0
100
AcDbCircle
10
-81.18909453695963
20
44.858180673078046
30
0
40
2.850000000000005
210
0
220
0
230
1
0
LINE
5
141
100
AcDbEntity
8
0
100
AcDbLine
10
18.187108370770758
20
20.487177675409907
30
0
11
8.7924407608225383
21
11.603574434504749
31
0
0
LINE
5
142
100
AcDbEntity
8
0
100
AcDbLine
10
-53.000000789761543
20
44.000000655651093
30
0
11
-54.000000804662704
21
44.000000655651093
31
0
0
LINE
5
143
100
AcDbEntity
8
0
100
AcDbLine
10
-54.000000804662704
20
44.000000655651093
30
0
11
-58.142195878094789
21
42.553188577301135
31
0
0
LINE
5
144
100
AcDbEntity
8
0
100
AcDbLine
10
-58.142195878094789
20
42.553188577301135
30
0
11
-58.142195878094789
21
37.794475387758027
31
0
0
LINE
5
145
100
AcDbEntity
8
0
100
AcDbLine
10
-58.142195878094789
20
37.794475387758027
30
0
11
-58.142195878094789
21
33.793550356983133
31
0
0
LINE
5
146
100
AcDbEntity
8
0
100
AcDbLine
10
-58.142195878094789
20
33.793550356983133
30
0
11
-53.07109829667526
21
31.399422164482406
31
0
0
LINE
5
147
100
AcDbEntity
8
0
100
AcDbLine
10
-53.07109829667526
20
31.399422164482406
30
0
11
-52.500000782310963
21
31.399422164482406
31
0
0
LINE
5
148
100
AcDbEntity
8
0
100
AcDbLine
10
-58.142195878094789
20
40.73483428850416
30
0
11
-54.717565403075767
21
40.73483428850416
31
0
0
SPLINE
5
149
100
AcDbEntity
8
0
100
AcDbSpline
70
4
71
5
72
21
73
15
74
0
42
0.000000001
43
0.0000000001
44
0.0000000001
40
0
40
0
40
0
40
0
40
0
40
0
40
0.10000000000000001
40
0.20000000000000001
40
0.30000000000000004
40
0.40000000000000002
40
0.5
40
0.59999999999999998
40
0.69999999999999996
40
0.79999999999999993
40
0.89999999999999991
40
1
40
1
40
1
40
1
40
1
40
1
41
1
41
1
41
1
41
1
41
1
41
1
41
1
41
1
41
1
41
1
41
1
41
1
41
1
41
1
41
1
10
-54.717565403075767
20
40.73483428850416
30
0
10
-54.618146332447949
20
40.689385570502878
30
0
10
-54.431628827446588
20
40.596692366926845
30
0
10
-54.188812335873486
20
40.452265553023409
30
0
10
-53.935294072551876
20
40.249239862987437
30
0
10
-53.715745719675326
20
39.979638676624056
30
0
10
-53.569275575718819
20
39.696118754662791
30
0
10
-53.471616215386383
20
39.400569236217514
30
0
10
-53.40199163291453
20
39.09472653001275
30
0
10
-53.346585284235644
20
38.780206982834628
30
0
10
-53.297327015469385
20
38.458341961726525
30
0
10
-53.259625924147322
20
38.195723909134387
30
0
10
-53.23170793834678
20
37.996112586124205
30
0
10
-53.213251903508478
20
37.861880731521794
30
0
10
-53.204062908630902
20
37.794475387758027
30
0
0
LINE
5
150
100
AcDbEntity
8
0
100
AcDbLine
10
-58.142195878094789
20
34.854116487011886
30
0
11
-54.717565403075767
21
34.854116487011886
31
0
0
SPLINE
5
151
100
AcDbEntity
8
0
100
AcDbSpline
70
4
71
5
72
21
73
15
74
0
42
0.000000001
43
0.0000000001
44
0.0000000001
40
0
40
0
40
0
40
0
40
0
40
0
40
0.10000000000000001
40
0.20000000000000001
40
0.30000000000000004
40
0.40000000000000002
40
0.5
40
0.59999999999999998
40
0.69999999999999996
40
0.79999999999999993
40
0.89999999999999991
40
1
40
1
40
1
40
1
40
1
40
1
41
1
41
1
41
1
41
1
41
1
41
1
41
1
41
1
41
1
41
1
41
1
41
1
41
1
41
1
41
1
10
-54.717565403075767
20
34.854116487011886
30
0
10
-54.618146332447949
20
34.899565205013168
30
0
10
-54.431628827446588
20
34.992258408589201
30
0
10
-54.188812335873486
20
35.136685222492645
30
0
10
-53.935294072551876
20
35.339710912528616
30
0
10
-53.715745719675326
20
35.609312098891991
30
0
10
-53.569275575718819
20
35.892832020853255
30
0
10
-53.471616215386383
20
36.188381539298533
30
0
10
-53.40199163291453
20
36.494224245503297
30
0
10
-53.346585284235644
20
36.808743792681426
30
0
10
-53.297327015469385
20
37.130608813789522
30
0
10
-53.259625924147322
20
37.39322686638166
30
0
10
-53.23170793834678
20
37.592838189391841
30
0
10
-53.213251903508478
20
37.727070043994253
30
0
10
-53.204062908630902
20
37.794475387758027
30
0
0
LINE
5
152
100
AcDbEntity
8
0
100
AcDbLine
10
-105.23615853619701
20
7.0324804759763504
30
0
11
-98.311503751652339
21
7.0324804759763504
31
0
0
SPLINE
5
153
100
AcDbEntity
8
0
100
AcDbSpline
70
4
71
5
72
26
73
20
74
0
42
0.000000001
43
0.0000000001
44
0.0000000001
40
0
40
0
40
0
40
0
40
0
40
0
40
0.066666666666666666
40
0.13333333333333333
40
0.20000000000000001
40
0.26666666666666666
40
0.33333333333333331
40
0.39999999999999997
40
0.46666666666666662
40
0.53333333333333333
40
0.59999999999999998
40
0.66666666666666663
40
0.73333333333333328
40
0.79999999999999993
40
0.86666666666666659
40
0.93333333333333324
40
1
40
1
40
1
40
1
40
1
40
1
41
1
41
1
41
1
41
1
41
1
41
1
41
1
41
1
41
1
41
1
41
1
41
1
41
1
41
1
41
1
41
1
41
1
41
1
41
1
41
1
10
-98.311503751652339
20
7.0324804759763504
30
0
10
-98.23365827146074
20
6.988414117496065
30
0
10
-98.080895479147344
20
6.8993942473983418
30
0
10
-97.860535670027545
20
6.7632030367922056
30
0
10
-97.584420137134927
20
6.5762527822794503
30
0
10
-97.269568278698614
20
6.3334453053531439
30
0
10
-96.986067333595898
20
6.0813711280087102
30
0
10
-96.734921011036931
20
5.8200815369355627
30
0
10
-96.516757716868653
20
5.5499762782732596
30
0
10
-96.331241377909009
20
5.2720794246207525
30
0
10
-96.177070596542066
20
4.9879864203639421
30
0
10
-96.052479941827357
20
4.6995320191389922
30
0
10
-95.95548239638687
20
4.4085557136062441
30
0
10
-95.884108308211722
20
4.1166688100355167
30
0
10
-95.836534373989537
20
3.8249706380032307
30
0
10
-95.811222995629464
20
3.5340684007290566
30
0
10
-95.807870203700162
20
3.3022119027894608
30
0
10
-95.814549203302221
20
3.1288397025384058
30
0
10
-95.823058339103241
20
3.0134878850586548
30
0
10
-95.82832702952949
20
2.9558693809911403
30
0
0
LINE
5
154
100
AcDbEntity
8
0
100
AcDbLine
10
-45.709979782540451
20
46.912691783828045
30
0
11
-28.213312444989942
21
46.912691783828045
31
0
6
DASHED
0
LINE
5
155
100
AcDbEntity
8
0
100
AcDbLine
10
-13.000000610095675
20
46.912691783828407
30
0
11
5.0002003794489722
21
46.912691783828407
31
0
6
DASHED
0
LINE
5
156
100
AcDbEntity
8
0
100
AcDbLine
10
-70.000001043081284
20
28.73348319814912
30
0
11
-13.259982276349724
21
28.73348319814912
31
0
6
DASHED
0
LINE
5
157
100
AcDbEntity
8
0
100
AcDbLine
10
-12.844433412243081
20
28.73348319814912
30
0
11
4.7258022509665505
21
28.73348319814912
31
0
0
LINE
5
158
100
AcDbEntity
8
0
100
AcDbLine
10
-3.7064996034653763
20
28.73348319814912
30
0
11
-3.7064996034653763
21
34.502637548461635
31
0
0
LINE
5
159
100
AcDbEntity
8
0
100
AcDbLine
10
5.3921014203059183
20
28.733483199315131
30
0
11
18.187041018030847
21
28.733587702272921
31
0
6
DASHED
0
LINE
5
160
100
AcDbEntity
8
0
100
AcDbLine
10
-70.000001043074448
20
11.603574434504749
30
0
11
-88.006509819178149
21
11.603574434504749
31
0
6
DASHED
0
LINE
5
161
100
AcDbEntity
8
0
100
AcDbLine
10
-70.000001043074448
20
11.603574434504749
30
0
11
-70.000001043080459
21
2.9558693809844225
31
0
6
DASHED
0
LINE
5
162
100
AcDbEntity
8
0
100
AcDbLine
10
-70.000001043074448
20
11.603574434504749
30
0
11
8.7924407608225383
21
11.603574434504749
31
0
6
DASHED
0
LINE
5
163
100
AcDbEntity
8
0
100
AcDbLine
10
97.572839629414517
20
20.487177675409907
30
0
11
18.187108370770758
21
20.487177675409907
31
0
6
DASHED
0
LINE
5
164
100
AcDbEntity
8
0
100
AcDbLine
10
18.187000450100506
20
38.270025805457102
30
0
11
26.503036770986071
21
38.270093726871345
31
0
6
DASHED
0
LINE
5
165
100
AcDbEntity
8
0
100
AcDbLine
10
27.051137551502187
20
38.269806340152897
30
0
11
45.051137550901814
21
38.269953355558926
31
0
0
LINE
5
166
100
AcDbEntity
8
0
100
AcDbLine
10
36.051137551201997
20
38.269879847855904
30
0
11
36.051137427591932
21
44.000000655651093
31
0
0
LINE
5
167
100
AcDbEntity
8
0
100
AcDbLine
10
46.150922023794067
20
38.269879848686081
30
0
11
97.572694385363008
21
38.270299837172047
31
0
6
DASHED
0
LINE
5
168
100
AcDbEntity
8
0
100
AcDbLine
10
97.572839629414517
20
20.487177675409907
30
0
11
115.31049994634465
21
20.487177675425006
31
0
6
DASHED
0
LINE
5
169
100
AcDbEntity
8
0
100
AcDbLine
10
97.572839629414517
20
20.487177675409907
30
0
11
97.572839639268949
21
2.9558693810270005
31
0
6
DASHED
0
LINE
5
170
100
AcDbEntity
8
0
100
AcDbLine
10
-87.927741001703268
20
-6.7401307953482537
30
0
11
-110.00192494646771
21
-6.6890366803515899
31
0
0
LINE
5
171
100
AcDbEntity
8
0
100
AcDbLine
10
-70.031017431483477
20
-6.8484151651240257
30
0
11
-87.927741001703268
21
-6.7401307953482537
31
0
6
DASHED
0
LINE
5
172
100
AcDbEntity
8
0
100
AcDbLine
10
-70.0995313563986
20
-11.237567836421302
30
0
11
-70.031017431483477
21
-6.8484151651240257
31
0
0
LINE
5
173
100
AcDbEntity
8
0
100
AcDbLine
10
-105.17055906742544
20
-1.7767364017221143
30
0
11
-98.070304673681676
21
-1.6567741142561176
31
0
0
CIRCLE
5
174
100
AcDbEntity
8
0
100
AcDbCircle
10
77.146225855708792
20
-25.714741336172654
30
0
40
2.8499999999999988
210
0
220
0
230
1
0
LINE
5
175
100
AcDbEntity
8
0
100
AcDbLine
10
-83.129294872613144
20
-46.483850024678581
30
0
11
-74.780230335456537
21
-46.614177498715172
31
0
0
ARC
5
176
100
AcDbEntity
8
0
100
AcDbCircle
10
-82.60065136251599
20
-41.023258472482468
30
0
40
5.4861210395582152
210
0
220
0
230
1
100
AcDbArc
50
170.18721212153841
51
264.4703894733745
0
CIRCLE
5
177
100
AcDbEntity
8
0
100
AcDbCircle
10
-81.224001152982765
20
-39.79255657238631
30
0
40
2.850000000000005
210
0
220
0
230
1
0
LINE
5
178
100
AcDbEntity
8
0
100
AcDbLine
10
-114.33268005937077
20
-1.5386608697153026
30
0
11
-114.29587315110261
21
2.9558693809802024
31
0
0
LINE
5
179
100
AcDbEntity
8
0
100
AcDbLine
10
-12.723252458204362
20
-24.056883044510357
30
0
11
4.8469832050052055
21
-24.056883044507011
31
0
0
LINE
5
180
100
AcDbEntity
8
0
100
AcDbLine
10
-70.099531356398202
20
-24.048218109036718
30
0
11
-13.235746085538043
21
-24.048218109056325
31
0
6
DASHED
0
LINE
5
181
100
AcDbEntity
8
0
100
AcDbLine
10
17.877057445587585
20
-41.506806947218223
30
0
11
17.935971952983031
21
-14.94211759931564
31
0
0
LINE
5
182
100
AcDbEntity
8
0
100
AcDbLine
10
-87.927741001703268
20
-6.7401307953482537
30
0
11
-88.006509819169949
21
-40.088261997993811
31
0
0
LINE
5
183
100
AcDbEntity
8
0
100
AcDbLine
10
-3.9381346265995774
20
-24.056883044508687
30
0
11
-3.93813462659958
21
-28.510456035737072
31
0
0
LINE
5
184
100
AcDbEntity
8
0
100
AcDbLine
10
-70.031017431483477
20
-6.8484151651240257
30
0
11
8.9133937905091436
21
-6.7830682744716855
31
0
6
DASHED
0
LINE
5
185
100
AcDbEntity
8
0
100
AcDbLine
10
17.935971952983031
20
-14.94211759931564
30
0
11
8.9133937905091436
21
-6.7830682744716855
31
0
0
LINE
5
186
100
AcDbEntity
8
0
100
AcDbLine
10
115.31049994636302
20
-41.202113107483676
30
0
11
115.31049994635958
21
2.9558693810020782
31
0
0
SPLINE
5
187
100
AcDbEntity
8
0
100
AcDbSpline
70
4
71
5
72
26
73
20
74
0
42
0.000000001
43
0.0000000001
44
0.0000000001
40
0
40
0
40
0
40
0
40
0
40
0
40
0.066666666666666666
40
0.13333333333333333
40
0.20000000000000001
40
0.26666666666666666
40
0.33333333333333331
40
0.39999999999999997
40
0.46666666666666662
40
0.53333333333333333
40
0.59999999999999998
40
0.66666666666666663
40
0.73333333333333328
40
0.79999999999999993
40
0.86666666666666659
40
0.93333333333333324
40
1
40
1
40
1
40
1
40
1
40
1
41
1
41
1
41
1
41
1
41
1
41
1
41
1
41
1
41
1
41
1
41
1
41
1
41
1
41
1
41
1
41
1
41
1
41
1
41
1
41
1
10
-98.070304673681676
20
-1.6567741142561176
30
0
10
-97.981512922493181
20
-1.6065113484752902
30
0
10
-97.806241184697583
20
-1.5047719371627599
30
0
10
-97.550268451305882
20
-1.3485213349981455
30
0
10
-97.224723628409052
20
-1.1326279723875297
30
0
10
-96.854489319858203
20
-0.84881463364452336
30
0
10
-96.533653428015512
20
-0.54975157666848951
30
0
10
-96.273392665395335
20
-0.23499081821437934
30
0
10
-96.080004357169173
20
0.094355284972989506
30
0
10
-95.949902087184057
20
0.43445221884627988
30
0
10
-95.8687540870595
20
0.77872887080647202
30
0
10
-95.8178588471213
20
1.1198439906409654
30
0
10
-95.778879612285778
20
1.4512742754271499
30
0
10
-95.738457120580819
20
1.7688237583947535
30
0
10
-95.694458437571484
20
2.0728509628588028
30
0
10
-95.65558124827794
20
2.3679232383052726
30
0
10
-95.638836695064327
20
2.6016203490446266
30
0
10
-95.639828345613367
20
2.7780119367142078
30
0
10
-95.647293497072837
20
2.8964438873514773
30
0
10
-95.652727420330393
20
2.9558693809727821
30
0
0
LINE
5
188
100
AcDbEntity
8
0
100
AcDbLine
10
-70.031017431483477
20
-6.8484151651240257
30
0
11
-70.000001043080459
21
2.9558693809844221
31
0
6
DASHED
0
CIRCLE
5
189
100
AcDbEntity
8
0
100
AcDbCircle
10
-36.596863634537762
20
-17.282891012970573
30
0
40
2.8499999999999996
210
0
220
0
230
1
0
ARC
5
190
100
AcDbEntity
8
0
100
AcDbCircle
10
-109.07948725315785
20
-1.5174223835868732
30
0
40
5.2532357392887015
210
0
220
0
230
1
100
AcDbArc
50
180.23164369425999
51
259.88676165253059
0
CIRCLE
5
191
100
AcDbEntity
8
0
100
AcDbCircle
10
108.96932270492266
20
-35.367738277111499
30
0
40
2.8500000000000005
210
0
220
0
230
1
0
LINE
5
192
100
AcDbEntity
8
0
100
AcDbLine
10
5.012717807271696
20
-59.267349727848597
30
0
11
17.751019103375683
21
-59.267453774228727
31
0
0
LINE
5
193
100
AcDbEntity
8
0
100
AcDbLine
10
6.3749869090010591
20
-24.079256521392441
30
0
11
17.915651070451318
21
-24.104851119363559
31
0
6
DASHED
0
LINE
5
194
100
AcDbEntity
8
0
100
AcDbLine
10
97.849623767832156
20
-15.221948259269034
30
0
11
97.572839639268949
21
2.9558693810270005
31
0
6
DASHED
0
ARC
5
195
100
AcDbEntity
8
0
100
AcDbCircle
10
110.43455408788454
20
-40.712377068085658
30
0
40
4.9004784871580318
210
0
220
0
230
1
100
AcDbArc
50
267.68835583005455
51
354.26449351241382
0
LINE
5
196
100
AcDbEntity
8
0
100
AcDbLine
10
101.40120021704332
20
-45.608836608361926
30
0
11
110.23689398846058
21
-45.608867636665806
31
0
0
LINE
5
197
100
AcDbEntity
8
0
100
AcDbLine
10
4.812990630722032
20
-41.455147737450879
30
0
11
17.877057445587585
21
-41.506806947218223
31
0
0
CIRCLE
5
198
100
AcDbEntity
8
0
100
AcDbCircle
10
101.31346194810092
20
2.9558693810103485
30
0
40
2.8500000000000023
210
0
220
0
230
1
0
LINE
5
199
100
AcDbEntity
8
0
100
AcDbLine
10
97.849623767832156
20
-15.221948259269034
30
0
11
115.31049994636101
21
-15.22194825926768
31
0
6
DASHED
0
LINE
5
200
100
AcDbEntity
8
0
100
AcDbLine
10
97.849623767832156
20
-15.221948259269034
30
0
11
17.935971952983031
21
-14.94211759931564
31
0
6
DASHED
0
LINE
5
201
100
AcDbEntity
8
0
100
AcDbLine
10
17.751019103375683
20
-59.267453774228727
30
0
11
17.750948738862927
21
-67.882114821590449
31
0
0
ARC
5
202
100
AcDbEntity
8
0
100
AcDbCircle
10
102.48589515620412
20
-40.70668561511377
30
0
40
5.02072180783252
210
0
220
0
230
1
100
AcDbArc
50
199.5561294271107
51
257.5232383201506
0
LINE
5
203
100
AcDbEntity
8
0
100
AcDbLine
10
97.754798570210767
20
-42.387272585682993
30
0
11
97.849623767832156
21
-15.221948259269034
31
0
0
LINE
5
204
100
AcDbEntity
8
0
100
AcDbLine
10
-74.780230335456537
20
-46.614177498715172
30
0
11
-75.177570996718742
21
-46.607975078733404
31
0
0
LINE
5
205
100
AcDbEntity
8
0
100
AcDbLine
10
-70.099531356397634
20
-41.60858413437456
30
0
11
-70.0995313563986
21
-11.237567836421302
31
0
0
ARC
5
206
100
AcDbEntity
8
0
100
AcDbCircle
10
-75.099531356397506
20
-41.60858413437456
30
0
40
4.9999999999998677
210
0
220
0
230
1
100
AcDbArc
50
-90.894304717408929
51
0
0
LINE
5
207
100
AcDbEntity
8
0
100
AcDbLine
10
68.618866506279744
20
-67.883894564421297
30
0
11
68.611051971260281
21
-67.883894147995946
31
0
0
LINE
5
208
100
AcDbEntity
8
0
100
AcDbLine
10
68.611051971260281
20
-67.883894147995946
30
0
11
86.611051945723716
21
-67.884852958042984
31
0
6
DASHED
0
LINE
5
209
100
AcDbEntity
8
0
100
AcDbLine
10
97.722340449279955
20
-67.884852958042984
30
0
11
86.611051945723716
21
-67.884852958042984
31
0
0
LINE
5
210
100
AcDbEntity
8
0
100
AcDbLine
10
97.722340449279955
20
-67.884852958042984
30
0
11
97.754798570210767
21
-42.387272585682993
31
0
0
LINE
5
211
100
AcDbEntity
8
0
100
AcDbLine
10
86.611051945723716
20
-67.884852958042984
30
0
11
86.610830080725535
21
-72.049984490912721
31
0
0
ARC
5
212
100
AcDbEntity
8
0
100
AcDbCircle
10
77.110830094203195
20
-72.049478452276801
30
0
40
9.5
210
0
220
0
230
1
100
AcDbArc
50
273.01828235599282
51
359.99694801284932
0
LINE
5
213
100
AcDbEntity
8
0
100
AcDbLine
10
77.611048828234388
20
-81.274619761537338
30
0
11
77.611048828234388
21
-81.536299901957619
31
0
0
LINE
5
214
100
AcDbEntity
8
0
100
AcDbLine
10
68.61104571074506
20
-67.884852958042984
30
0
11
68.611267575743241
21
-72.049984490912721
31
0
0
ARC
5
215
100
AcDbEntity
8
0
100
AcDbCircle
10
78.111267562265581
20
-72.049478452276801
30
0
40
9.4999999999999858
210
0
220
0
230
1
100
AcDbArc
50
180.00305198715068
51
266.98171764400718
0
CIRCLE
5
216
100
AcDbEntity
8
0
100
AcDbCircle
10
77.603700771752386
20
-74.230498211627051
30
0
40
2.8499999999999979
210
0
220
0
230
1
0
LINE
5
217
100
AcDbEntity
8
0
100
AcDbLine
10
17.750948738862927
20
-67.882114821590449
30
0
11
27.102030256199843
21
-67.882191201176667
31
0
0
LINE
5
218
100
AcDbEntity
8
0
100
AcDbLine
10
44.73272790279794
20
-67.882191201176667
30
0
11
27.102030256199843
21
-67.882191201176667
31
0
6
DASHED
0
LINE
5
219
100
AcDbEntity
8
0
100
AcDbLine
10
44.73272790279794
20
-67.882191201176667
30
0
11
44.73272790279794
21
-73.000001206994057
31
0
0
LINE
5
220
100
AcDbEntity
8
0
100
AcDbLine
10
36.732727902797947
20
-81.000001206994057
30
0
11
35.917379079498893
21
-81.000001206994057
31
0
0
ARC
5
221
100
AcDbEntity
8
0
100
AcDbCircle
10
36.732727902797947
20
-73.000001206994057
30
0
40
7.9999999999999982
210
-0
220
0
230
1
100
AcDbArc
50
-90
51
0
0
LINE
5
222
100
AcDbEntity
8
0
100
AcDbLine
10
27.102030256199843
20
-67.882191201176667
30
0
11
27.102030256199843
21
-73.000001206994057
31
0
0
ARC
5
223
100
AcDbEntity
8
0
100
AcDbCircle
10
35.102030256199839
20
-73.000001206994057
30
0
40
7.9999999999999982
210
0
220
0
230
1
100
AcDbArc
50
180
51
270
0
LINE
5
224
100
AcDbEntity
8
0
100
AcDbLine
10
35.102030256199839
20
-81.000001206994057
30
0
11
35.917379079498893
21
-81.000001206994057
31
0
0
LINE
5
225
100
AcDbEntity
8
0
100
AcDbLine
10
44.73272790279794
20
-67.882191201176667
30
0
11
68.618866506279744
21
-67.883894564421297
31
0
0
LINE
5
226
100
AcDbEntity
8
0
100
AcDbLine
10
4.812990630722032
20
-41.455147737450879
30
0
11
-21.662928277329982
21
-41.509375915794578
31
0
0
LINE
5
227
100
AcDbEntity
8
0
100
AcDbLine
10
-56.833462565793823
20
-32.70049120554571
30
0
11
-47.000000700354576
21
-32.70049120554571
31
0
0
LINE
5
228
100
AcDbEntity
8
0
100
AcDbLine
10
-52.295668690524231
20
-28.043281701979545
30
0
11
-52.295668690524231
21
-37.477116337408447
31
0
0
LINE
5
229
100
AcDbEntity
8
0
100
AcDbLine
10
-26.153701923392305
20
-46.018583391597105
30
0
11
-26.134706777006443
21
-55.292617126807727
31
0
0
LINE
5
230
100
AcDbEntity
8
0
100
AcDbLine
10
-22.126522354070907
20
-59.28441592330752
30
0
11
-12.823050416064818
21
-59.265360481370934
31
0
0
LINE
5
231
100
AcDbEntity
8
0
100
AcDbLine
10
-12.823050416064818
20
-59.265360481370934
30
0
11
-12.812326327893333
21
-64.501200914575548
31
0
0
LINE
5
232
100
AcDbEntity
8
0
100
AcDbLine
10
-4.7959574820222892
20
-72.484798507575121
30
0
11
-2.8947531359433771
21
-72.480904446382965
31
0
0
LINE
5
233
100
AcDbEntity
8
0
100
AcDbLine
10
5.0888444570561813
20
-64.464535600511908
30
0
11
5.0781954670596541
21
-59.265360481370934
31
0
0
LINE
5
234
100
AcDbEntity
8
0
100
AcDbLine
10
5.0781954670596541
20
-59.265360481370934
30
0
11
5.012717807271696
21
-59.267349727848597
31
0
0
ARC
5
235
100
AcDbEntity
8
0
100
AcDbCircle
10
-2.911138762379113
20
-64.480921226947657
30
0
40
8.0000000000000053
210
0
220
0
230
1
100
AcDbArc
50
-89.88264651301688
51
0.11735348697988252
0
ARC
5
236
100
AcDbEntity
8
0
100
AcDbCircle
10
-4.8123431084580268
20
-64.484815288139814
30
0
40
8.0000000000000124
210
0
220
0
230
1
100
AcDbArc
50
180.11735348698301
51
270.11735348698312
0
LINE
5
237
100
AcDbEntity
8
0
100
AcDbLine
10
5.0781954670596541
20
-59.265360481370934
30
0
11
-12.823050416064818
21
-59.265360481370934
31
0
6
DASHED
0
ARC
5
238
100
AcDbEntity
8
0
100
AcDbCircle
10
-22.134715167288771
20
-55.284424313589838
30
0
40
4.0000000000000249
210
0
220
0
230
1
100
AcDbArc
50
180.11735348698301
51
270.11735348698306
0
ARC
5
239
100
AcDbEntity
8
0
100
AcDbCircle
10
-21.653711362459877
20
-46.009366476727003
30
0
40
4.5000000000000675
210
0
220
0
230
1
100
AcDbArc
50
90.117353486983177
51
180.11735348698301
0
LINE
5
240
100
AcDbEntity
8
0
100
AcDbLine
10
-21.662928277329982
20
-41.509375915794578
30
0
11
-70.099531356397634
21
-41.60858413437456
31
0
0
LINE
5
241
100
AcDbEntity
8
0
100
AcDbLine
10
17.906514699285307
20
-32.249571731296463
30
0
11
97.790185944033112
21
-32.249571731296463
31
0
6
DASHED
0
LINE
5
242
100
AcDbEntity
8
0
100
AcDbLine
10
84.43736914515226
20
-43.643541518038951
30
0
11
83.253979836345096
21
-43.643541518038951
31
0
0
LINE
5
243
100
AcDbEntity
8
0
100
AcDbLine
10
83.253979836345096
20
-43.643541518038951
30
0
11
79.091713991575077
21
-45.316609161524937
31
0
0
LINE
5
244
100
AcDbEntity
8
0
100
AcDbLine
10
79.091713991575077
20
-45.316609161524937
30
0
11
79.091713991575077
21
-49.658304983093814
31
0
0
LINE
5
245
100
AcDbEntity
8
0
100
AcDbLine
10
79.091713991575077
20
-46.784150589304396
30
0
11
82.662038376227287
21
-46.784150589304396
31
0
0
SPLINE
5
246
100
AcDbEntity
8
0
100
AcDbSpline
70
4
71
5
72
21
73
15
74
0
42
0.000000001
43
0.0000000001
44
0.0000000001
40
0
40
0
40
0
40
0
40
0
40
0
40
0.10000000000000001
40
0.20000000000000001
40
0.30000000000000004
40
0.40000000000000002
40
0.5
40
0.59999999999999998
40
0.69999999999999996
40
0.79999999999999993
40
0.89999999999999991
40
1
40
1
40
1
40
1
40
1
40
1
41
1
41
1
41
1
41
1
41
1
41
1
41
1
41
1
41
1
41
1
41
1
41
1
41
1
41
1
41
1
10
82.662038376227287
20
-46.784150589304396
30
0
10
82.726047247916071
20
-46.840829806331257
30
0
10
82.849867461942054
20
-46.954955869915203
30
0
10
83.023005761623878
20
-47.128447787636077
30
0
10
83.229897758234955
20
-47.363747617623744
30
0
10
83.454604282619101
20
-47.661170831457405
30
0
10
83.651901527708191
20
-47.957979881223082
30
0
10
83.826636138001547
20
-48.250867311378876
30
0
10
83.980357960506154
20
-48.538174442384189
30
0
10
84.109248772837844
20
-48.821516856673199
30
0
10
84.205505719245807
20
-49.10481672421934
30
0
10
84.248965483069043
20
-49.335116767974199
30
0
10
84.258954711191251
20
-49.511704623777291
30
0
10
84.255022556344699
20
-49.631398265323696
30
0
10
84.250408349716167
20
-49.691737278809583
30
0
0
LINE
5
247
100
AcDbEntity
8
0
100
AcDbLine
10
79.091713991575077
20
-54.000000804662697
30
0
11
79.091713991575077
21
-49.658304983093814
31
0
0
LINE
5
248
100
AcDbEntity
8
0
100
AcDbLine
10
84.43736914515226
20
-55.673068448148683
30
0
11
83.253979836345096
21
-55.673068448148683
31
0
0
SPLINE
5
249
100
AcDbEntity
8
0
100
AcDbSpline
70
4
71
5
72
21
73
15
74
0
42
0.000000001
43
0.0000000001
44
0.0000000001
40
0
40
0
40
0
40
0
40
0
40
0
40
0.10000000000000001
40
0.20000000000000001
40
0.30000000000000004
40
0.40000000000000002
40
0.5
40
0.59999999999999998
40
0.69999999999999996
40
0.79999999999999993
40
0.89999999999999991
40
1
40
1
40
1
40
1
40
1
40
1
41
1
41
1
41
1
41
1
41
1
41
1
41
1
41
1
41
1
41
1
41
1
41
1
41
1
41
1
41
1
10
82.795767559090308
20
-52.799917742609367
30
0
10
82.865099091843959
20
-52.738525362333476
30
0
10
82.998463528006724
20
-52.613640313810237
30
0
10
83.182615107824574
20
-52.420011991743209
30
0
10
83.397498041406024
20
-52.150986572491682
30
0
10
83.620677959054291
20
-51.806072261186515
30
0
10
83.80482326699439
20
-51.46401944417115
30
0
10
83.955534547968284
20
-51.135258158971759
30
0
10
84.076632384837154
20
-50.826535683909171
30
0
10
84.169322282337831
20
-50.536549528530472
30
0
10
84.232460281888876
20
-50.257575433141646
30
0
10
84.257282160506648
20
-50.035382155531032
30
0
10
84.260156919759595
20
-49.865356400865927
30
0
10
84.254860161280106
20
-49.749952686054691
30
0
10
84.250408349716167
20
-49.691737278809583
30
0
0
LINE
5
250
100
AcDbEntity
8
0
100
AcDbLine
10
83.253979836345096
20
-55.673068448148683
30
0
11
79.091713991575077
21
-54.000000804662697
31
0
0
LINE
5
251
100
AcDbEntity
8
0
100
AcDbLine
10
79.091719629300684
20
-52.765872098223959
30
0
11
82.795767559090308
21
-52.799917742609367
31
0
0
ENDSEC
0
SECTION
2
OBJECTS
0
DICTIONARY
5
C
100
AcDbDictionary
3
ACAD_GROUP
350
D
3
ACAD_MLINESTYLE
350
17
0
DICTIONARY
5
D
100
AcDbDictionary
0
DICTIONARY
5
1A
330
C
100
AcDbDictionary
0
DICTIONARY
5
17
100
AcDbDictionary
0
ENDSEC
0
EOF
