0
SECTION
2
HEADER
9
$INSUNITS
70
4
9
$ACADVER
1
AC1014
9
$HANDSEED
5
FFFF
0
ENDSEC
0
SECTION
2
TABLES
0
TABLE
2
VPORT
5
8
100
AcDbSymbolTable
0
ENDTAB
0
TABLE
2
LTYPE
5
5
100
AcDbSymbolTable
0
LTYPE
5
14
100
AcDbSymbolTableRecord
100
AcDbLinetypeTableRecord
2
BYBLOCK
70
0
0
LTYPE
5
15
100
AcDbSymbolTableRecord
100
AcDbLinetypeTableRecord
2
BYLAYER
70
0
0
LTYPE
5
16
100
AcDbSymbolTableRecord
100
AcDbLinetypeTableRecord
2
DASHED
70
0
3
Dashed __ __ __ __ __ __ __ __ __ __ __ __ __ _
72
65
73
2
40
0.75
49
0.5
74
0
49
-0.25
74
0
0
ENDTAB
0
TABLE
2
LAYER
5
2
100
AcDbSymbolTable
70
2
0
LAYER
5
50
100
AcDbSymbolTableRecord
100
AcDbLayerTableRecord
2
0
70
0
62
7
6
CONTINUOUS
0
ENDTAB
0
TABLE
2
STYLE
5
3
100
AcDbSymbolTable
70
1
0
STYLE
5
11
100
AcDbSymbolTableRecord
100
AcDbTextStyleTableRecord
2
STANDARD
70
0
0
ENDTAB
0
TABLE
2
VIEW
5
6
100
AcDbSymbolTable
70
0
0
ENDTAB
0
TABLE
2
UCS
5
7
100
AcDbSymbolTable
70
0
0
ENDTAB
0
TABLE
2
APPID
5
9
100
AcDbSymbolTable
70
2
0
APPID
5
12
100
AcDbSymbolTableRecord
100
AcDbRegAppTableRecord
2
ACAD
70
0
0
ENDTAB
0
TABLE
2
DIMSTYLE
5
A
100
AcDbSymbolTable
70
1
0
ENDTAB
0
TABLE
2
BLOCK_RECORD
5
1
100
AcDbSymbolTable
70
1
0
BLOCK_RECORD
5
1F
100
AcDbSymbolTableRecord
100
AcDbBlockTableRecord
2
*MODEL_SPACE
0
BLOCK_RECORD
5
1B
100
AcDbSymbolTableRecord
100
AcDbBlockTableRecord
2
*PAPER_SPACE
0
ENDTAB
0
ENDSEC
0
SECTION
2
BLOCKS
0
BLOCK
5
20
100
AcDbEntity
100
AcDbBlockBegin
2
*MODEL_SPACE
0
ENDBLK
5
21
100
AcDbEntity
100
AcDbBlockEnd
0
BLOCK
5
1C
100
AcDbEntity
100
AcDbBlockBegin
2
*PAPER_SPACE
0
ENDBLK
5
1D
100
AcDbEntity
100
AcDbBlockEnd
0
ENDSEC
0
SECTION
2
ENTITIES
0
LINE
5
100
100
AcDbEntity
8
0
100
AcDbLine
10
-583.75215359778235
20
318.63804058810734
30
0
11
-584.30519359778236
21
318.63804058810734
31
0
0
LINE
5
101
100
AcDbEntity
8
0
100
AcDbLine
10
-564.94920559778234
20
318.63804058810734
30
0
11
-565.50224559778235
21
318.63804058810734
31
0
0
LINE
5
102
100
AcDbEntity
8
0
100
AcDbLine
10
-450.36174259778227
20
348.06459058810736
30
0
11
-450.91478259778228
21
348.06263058810742
31
0
0
LINE
5
103
100
AcDbEntity
8
0
100
AcDbLine
10
-479.50633459778231
20
318.63804058810734
30
0
11
-480.05937459778232
21
318.63804058810734
31
0
0
LINE
5
104
100
AcDbEntity
8
0
100
AcDbLine
10
-456.16850559778231
20
348.04426058810742
30
0
11
-456.72154459778227
21
348.0423105881074
31
0
0
LINE
5
105
100
AcDbEntity
8
0
100
AcDbLine
10
-506.88127389778231
20
318.63804058810734
30
0
11
-507.43425999778231
21
318.63804058810734
31
0
0
LINE
5
106
100
AcDbEntity
8
0
100
AcDbLine
10
-551.76884759778227
20
367.64082058810737
30
0
11
-540.89250459778236
21
367.64082058810737
31
0
0
LINE
5
107
100
AcDbEntity
8
0
100
AcDbLine
10
-509.36986789778234
20
318.63804058810734
30
0
11
-509.92290749778238
21
318.63804058810734
31
0
0
LINE
5
108
100
AcDbEntity
8
0
100
AcDbLine
10
-436.25963059778229
20
348.11396058810743
30
0
11
-436.8126705977823
21
348.11201058810741
31
0
0
LINE
5
109
100
AcDbEntity
8
0
100
AcDbLine
10
-541.72203359778234
20
318.63804058810734
30
0
11
-542.27508059778233
21
318.63804058810734
31
0
0
LINE
5
110
100
AcDbEntity
8
0
100
AcDbLine
10
-469.27427959778231
20
406.55369058810743
30
0
11
-469.27421859778229
21
397.0254005881074
31
0
0
LINE
5
111
100
AcDbEntity
8
0
100
AcDbLine
10
-576.28627659778226
20
318.63804058810734
30
0
11
-576.83931559778227
21
318.63804058810734
31
0
0
LINE
5
112
100
AcDbEntity
8
0
100
AcDbLine
10
-439.98393459778231
20
406.55378058810743
30
0
11
-439.4308955977823
21
406.55378058810743
31
0
0
LINE
5
113
100
AcDbEntity
8
0
100
AcDbLine
10
-531.9997435977823
20
279.58415058810738
30
0
11
-531.44670359778229
21
279.58415058810738
31
0
0
LINE
5
114
100
AcDbEntity
8
0
100
AcDbLine
10
-445.38452359778233
20
348.08201058810738
30
0
11
-445.93754859778232
21
348.0800905881074
31
0
0
LINE
5
115
100
AcDbEntity
8
0
100
AcDbLine
10
-537.57432759778237
20
318.63804058810734
30
0
11
-538.12736759778227
21
318.63804058810734
31
0
0
ARC
5
116
100
AcDbEntity
8
0
100
AcDbCircle
10
-512.85808965910792
20
382.36120535525083
30
0
40
4.977235200997657
210
0
220
0
230
1
100
AcDbArc
50
179.88252168971144
51
269.88268163386437
0
LINE
5
117
100
AcDbEntity
8
0
100
AcDbLine
10
-537.80656659778231
20
279.58415058810738
30
0
11
-537.25352759778229
21
279.58415058810738
31
0
0
LINE
5
118
100
AcDbEntity
8
0
100
AcDbLine
10
-469.27421859778229
20
397.0254005881074
30
0
11
-483.36345159778227
21
397.02528058810742
31
0
0
LINE
5
119
100
AcDbEntity
8
0
100
AcDbLine
10
-571.3090465977823
20
318.63804058810734
30
0
11
-571.86204759778229
21
318.63804058810734
31
0
0
LINE
5
120
100
AcDbEntity
8
0
100
AcDbLine
10
-401.44878959778225
20
308.81227058810737
30
0
11
-400.89579959778229
21
308.81227058810737
31
0
0
LINE
5
121
100
AcDbEntity
8
0
100
AcDbLine
10
-482.82451159778236
20
318.63804058810734
30
0
11
-483.37755059778232
21
318.63804058810734
31
0
0
LINE
5
122
100
AcDbEntity
8
0
100
AcDbLine
10
-532.63139559778233
20
339.01906058810738
30
0
11
-533.18437459778227
21
339.01951058810738
31
0
0
LINE
5
123
100
AcDbEntity
8
0
100
AcDbLine
10
-485.03660859778228
20
279.58415058810738
30
0
11
-484.48358359778229
21
279.58415058810738
31
0
0
LINE
5
124
100
AcDbEntity
8
0
100
AcDbLine
10
-512.86827339778233
20
377.38395058810738
30
0
11
-566.44188559778229
21
377.49369058810743
31
0
0
LINE
5
125
100
AcDbEntity
8
0
100
AcDbLine
10
-404.39787959778232
20
367.14210058810744
30
0
11
-403.84489959778227
21
367.14210058810744
31
0
0
LINE
5
126
100
AcDbEntity
8
0
100
AcDbLine
10
-421.35783659778224
20
308.81227058810737
30
0
11
-420.80479659778229
21
308.81227058810737
31
0
0
LINE
5
127
100
AcDbEntity
8
0
100
AcDbLine
10
-489.92741659778233
20
397.0230805881074
30
0
11
-490.48039459778232
21
397.0230805881074
31
0
0
LINE
5
128
100
AcDbEntity
8
0
100
AcDbLine
10
-437.03276359778226
20
289.14357058810737
30
0
11
-436.47972359778231
21
289.14357058810737
31
0
0
LINE
5
129
100
AcDbEntity
8
0
100
AcDbLine
10
-539.78642559778234
20
299.69139058810742
30
0
11
-539.23338559778233
21
299.69139058810742
31
0
0
LINE
5
130
100
AcDbEntity
8
0
100
AcDbLine
10
-566.33177859778232
20
328.20289058810744
30
0
11
-566.33177859778232
21
327.76301058810736
31
0
0
LINE
5
131
100
AcDbEntity
8
0
100
AcDbLine
10
-561.46458659778227
20
358.07093058810744
30
0
11
-560.91160859778233
21
358.07093058810744
31
0
0
LINE
5
132
100
AcDbEntity
8
0
100
AcDbLine
10
-455.19218659778232
20
406.55378058810743
30
0
11
-455.74522659778233
21
406.55378058810743
31
0
0
LINE
5
133
100
AcDbEntity
8
0
100
AcDbLine
10
-524.13518769778227
20
358.07093058810744
30
0
11
-523.58220919778228
21
358.07093058810744
31
0
0
LINE
5
134
100
AcDbEntity
8
0
100
AcDbLine
10
-489.09782659778227
20
397.0230805881074
30
0
11
-489.65086659778228
21
397.0230805881074
31
0
0
LINE
5
135
100
AcDbEntity
8
0
100
AcDbLine
10
-467.96245059778232
20
289.14344058810735
30
0
11
-467.40941059778231
21
289.14344058810735
31
0
0
LINE
5
136
100
AcDbEntity
8
0
100
AcDbLine
10
-497.79057559778232
20
338.99022058810743
30
0
11
-498.34361559778233
21
338.99067058810743
31
0
0
LINE
5
137
100
AcDbEntity
8
0
100
AcDbLine
10
-437.8622915977823
20
289.14360058810735
30
0
11
-437.30925259778235
21
289.14360058810735
31
0
0
ARC
5
138
100
AcDbEntity
8
0
100
AcDbCircle
10
-494.23053484437139
20
402.7961087783205
30
0
40
8.8484502898769595
210
0
220
-0
230
1
100
AcDbArc
50
89.882900203694291
51
179.88272172518907
0
LINE
5
139
100
AcDbEntity
8
0
100
AcDbLine
10
-405.51012959778234
20
289.14332058810737
30
0
11
-404.95713959778232
21
289.14332058810737
31
0
0
LINE
5
140
100
AcDbEntity
8
0
100
AcDbLine
10
-494.4380975977823
20
318.63804058810734
30
0
11
-494.99113759778231
21
318.63804058810734
31
0
0
LINE
5
141
100
AcDbEntity
8
0
100
AcDbLine
10
-520.11333719778224
20
279.58415058810738
30
0
11
-503.28654759778232
21
279.58415058810738
31
0
0
LINE
5
142
100
AcDbEntity
8
0
100
AcDbLine
10
-382.00028959778228
20
367.14210058810744
30
0
11
-381.44724959778227
21
367.14210058810744
31
0
0
LINE
5
143
100
AcDbEntity
8
0
100
AcDbLine
10
-528.68156659778231
20
279.58415058810738
30
0
11
-528.12858859778225
21
279.58415058810738
31
0
0
LINE
5
144
100
AcDbEntity
8
0
100
AcDbLine
10
-520.15391789778232
20
318.63804058810734
30
0
11
-520.70695749778235
21
318.63804058810734
31
0
0
LINE
5
145
100
AcDbEntity
8
0
100
AcDbLine
10
-500.79796059778232
20
279.58415058810738
30
0
11
-500.24492159778231
21
279.58415058810738
31
0
0
LINE
5
146
100
AcDbEntity
8
0
100
AcDbLine
10
-441.91954259778231
20
406.55378058810743
30
0
11
-442.47258259778226
21
406.55378058810743
31
0
0
LINE
5
147
100
AcDbEntity
8
0
100
AcDbLine
10
-586.16087559778225
20
318.67720058810738
30
0
11
-586.16087559778225
21
318.63804058810734
31
0
0
LINE
5
148
100
AcDbEntity
8
0
100
AcDbLine
10
-577.97945659778225
20
338.97670058810741
30
0
11
-578.53248859778228
21
338.9733705881074
31
0
0
LINE
5
149
100
AcDbEntity
8
0
100
AcDbLine
10
-504.22618359778227
20
358.07093058810744
30
0
11
-503.67314359778226
21
358.07093058810744
31
0
0
LINE
5
150
100
AcDbEntity
8
0
100
AcDbLine
10
-525.36345959778237
20
279.58415058810738
30
0
11
-524.81041959778236
21
279.58415058810738
31
0
0
LINE
5
151
100
AcDbEntity
8
0
100
AcDbLine
10
-437.9486565977823
20
308.81227058810737
30
0
11
-437.39561759778235
21
308.81227058810737
31
0
0
LINE
5
152
100
AcDbEntity
8
0
100
AcDbLine
10
-372.66172959778231
20
348.30858058810742
30
0
11
-373.21476959778232
21
348.30858058810742
31
0
0
LINE
5
153
100
AcDbEntity
8
0
100
AcDbLine
10
-428.82371759778232
20
308.81227058810737
30
0
11
-428.27067859778231
21
308.81227058810737
31
0
0
LINE
5
154
100
AcDbEntity
8
0
100
AcDbLine
10
-579.63853659778226
20
338.96669058810738
30
0
11
-580.19154559778235
21
338.9633305881074
31
0
0
LINE
5
155
100
AcDbEntity
8
0
100
AcDbLine
10
-430.48277559778228
20
308.81227058810737
30
0
11
-429.92973559778227
21
308.81227058810737
31
0
0
LINE
5
156
100
AcDbEntity
8
0
100
AcDbLine
10
-456.99803459778229
20
348.04133058810743
30
0
11
-457.55107359778231
21
348.03941058810744
31
0
0
LINE
5
157
100
AcDbEntity
8
0
100
AcDbLine
10
-432.97142259778229
20
308.81227058810737
30
0
11
-432.41838359778228
21
308.81227058810737
31
0
0
LINE
5
158
100
AcDbEntity
8
0
100
AcDbLine
10
-505.25645699778232
20
338.99641058810744
30
0
11
-505.80949649778233
21
338.99684058810743
31
0
0
LINE
5
159
100
AcDbEntity
8
0
100
AcDbLine
10
-383.19889959778232
20
308.81227058810737
30
0
11
-382.64585959778231
21
308.81227058810737
31
0
0
LINE
5
160
100
AcDbEntity
8
0
100
AcDbLine
10
-454.17045859778227
20
367.14210058810744
30
0
11
-453.61743459778222
21
367.14210058810744
31
0
0
LINE
5
161
100
AcDbEntity
8
0
100
AcDbLine
10
-483.37741359778227
20
265.68504058810737
30
0
11
-483.37736759778227
21
276.26600058810737
31
0
0
LINE
5
162
100
AcDbEntity
8
0
100
AcDbLine
10
-504.42692859778231
20
338.99571058810744
30
0
11
-504.97996769778234
21
338.99617058810742
31
0
0
LINE
5
163
100
AcDbEntity
8
0
100
AcDbLine
10
-413.03257959778227
20
348.19529058810735
30
0
11
-413.58561959778228
21
348.19337058810737
31
0
0
LINE
5
164
100
AcDbEntity
8
0
100
AcDbLine
10
-413.52287959778232
20
367.14210058810744
30
0
11
-412.96983959778231
21
367.14210058810744
31
0
0
LINE
5
165
100
AcDbEntity
8
0
100
AcDbLine
10
-502.73350759778231
20
279.58415058810738
30
0
11
-503.28654759778232
21
279.58415058810738
31
0
0
LINE
5
166
100
AcDbEntity
8
0
100
AcDbLine
10
-380.82139959778232
20
406.55671058810742
30
0
11
-380.78550959778232
21
378.35496058810742
31
0
0
LINE
5
167
100
AcDbEntity
8
0
100
AcDbLine
10
-420.49840059778234
20
348.16914058810738
30
0
11
-421.05143959778229
21
348.1672205881074
31
0
0
LINE
5
168
100
AcDbEntity
8
0
100
AcDbLine
10
-454.5094475977823
20
348.05006058810739
30
0
11
-455.06242659778229
21
348.04811058810742
31
0
0
LINE
5
169
100
AcDbEntity
8
0
100
AcDbLine
10
-522.04527529778238
20
279.58415058810738
30
0
11
-521.49223579778231
21
279.58415058810738
31
0
0
LINE
5
170
100
AcDbEntity
8
0
100
AcDbLine
10
-442.74907159778229
20
406.55378058810743
30
0
11
-443.3021115977823
21
406.55378058810743
31
0
0
LINE
5
171
100
AcDbEntity
8
0
100
AcDbLine
10
-566.3407465977823
20
331.02812058810741
30
0
11
-566.3424555977823
21
331.58113058810738
31
0
0
LWPOLYLINE
5
172
100
AcDbEntity
8
0
100
AcDbPolyline
90
4
70
1
43
0.0
10
-403.88200959778231
20
293.94386058810738
42
0.41421072000000791
10
-401.0320295977823
20
296.79384058810734
42
0.41421072000001591
10
-403.88200959778231
20
299.64381058810739
42
0.41420787999998065
10
-406.73197959778236
20
296.79384058810734
42
0.41421071999997949
0
LINE
5
173
100
AcDbEntity
8
0
100
AcDbLine
10
-566.33177859778232
20
321.12666058810737
30
0
11
-566.33177859778232
21
321.67970058810738
31
0
0
LINE
5
174
100
AcDbEntity
8
0
100
AcDbLine
10
-380.70164959778225
20
346.92616058810745
30
0
11
-380.69321959778222
21
347.47914058810738
31
0
0
LINE
5
175
100
AcDbEntity
8
0
100
AcDbLine
10
-430.11369559778234
20
367.14210058810744
30
0
11
-429.56071759778234
21
367.14210058810744
31
0
0
LINE
5
176
100
AcDbEntity
8
0
100
AcDbLine
10
-538.95689659778225
20
299.69139058810742
30
0
11
-538.40385659778224
21
299.69139058810742
31
0
0
LINE
5
177
100
AcDbEntity
8
0
100
AcDbLine
10
-586.16087559778225
20
334.42720058810744
30
0
11
-586.16087559778225
21
333.92720058810738
31
0
0
LINE
5
178
100
AcDbEntity
8
0
100
AcDbLine
10
-390.63505959778234
20
348.27372058810738
30
0
11
-391.1880995977823
21
348.2718005881074
31
0
0
LINE
5
179
100
AcDbEntity
8
0
100
AcDbLine
10
-586.16087559778225
20
331.42720058810738
30
0
11
-586.16087559778225
21
330.92720058810744
31
0
0
LINE
5
180
100
AcDbEntity
8
0
100
AcDbLine
10
-441.09001459778227
20
406.55378058810743
30
0
11
-441.64299259778227
21
406.55378058810743
31
0
0
LINE
5
181
100
AcDbEntity
8
0
100
AcDbLine
10
-586.16087559778225
20
323.92720058810738
30
0
11
-586.16087559778225
21
323.42720058810744
31
0
0
LINE
5
182
100
AcDbEntity
8
0
100
AcDbLine
10
-448.36363459778227
20
367.14210058810744
30
0
11
-447.81059559778225
21
367.14210058810744
31
0
0
LINE
5
183
100
AcDbEntity
8
0
100
AcDbLine
10
-514.9001337277823
20
299.69139058810742
30
0
11
-514.34709417778231
21
299.69139058810742
31
0
0
LINE
5
184
100
AcDbEntity
8
0
100
AcDbLine
10
-380.7900895977823
20
341.12007058810741
30
0
11
-380.78165959778232
21
341.67302058810742
31
0
0
LINE
5
185
100
AcDbEntity
8
0
100
AcDbLine
10
-476.04997459778235
20
358.11815058810737
30
0
11
-475.49693559778234
21
358.11937058810742
31
0
0
LINE
5
186
100
AcDbEntity
8
0
100
AcDbLine
10
-568.85466659778228
20
339.03193058810746
30
0
11
-569.4077055977823
21
339.02858058810745
31
0
0
LINE
5
187
100
AcDbEntity
8
0
100
AcDbLine
10
-475.2203855977823
20
358.11998058810741
30
0
11
-474.6674065977823
21
358.12123058810744
31
0
0
LINE
5
188
100
AcDbEntity
8
0
100
AcDbLine
10
-438.74821759778229
20
348.10524058810734
30
0
11
-439.3012565977823
21
348.10331058810738
31
0
0
LINE
5
189
100
AcDbEntity
8
0
100
AcDbLine
10
-465.32353459778227
20
308.81227058810737
30
0
11
-464.77055559778228
21
308.81227058810737
31
0
0
LINE
5
190
100
AcDbEntity
8
0
100
AcDbLine
10
-380.68900959778233
20
347.75563058810746
30
0
11
-380.68058959778227
21
348.30858058810742
31
0
0
LINE
5
191
100
AcDbEntity
8
0
100
AcDbLine
10
-437.11912759778227
20
308.81227058810737
30
0
11
-436.56608859778231
21
308.81227058810737
31
0
0
LINE
5
192
100
AcDbEntity
8
0
100
AcDbLine
10
-557.51762659778228
20
339.03965058810741
30
0
11
-558.07066559778229
21
339.04011058810738
31
0
0
LINE
5
193
100
AcDbEntity
8
0
100
AcDbLine
10
-449.03325159778234
20
289.14360058810735
30
0
11
-449.03325159778234
21
282.80574058810737
31
0
0
LINE
5
194
100
AcDbEntity
8
0
100
AcDbLine
10
-442.89592259778232
20
348.09071058810736
30
0
11
-443.44896159778227
21
348.08879058810737
31
0
0
LINE
5
195
100
AcDbEntity
8
0
100
AcDbLine
10
-423.84642259778229
20
308.81227058810737
30
0
11
-423.29338359778234
21
308.81227058810737
31
0
0
LINE
5
196
100
AcDbEntity
8
0
100
AcDbLine
10
-512.72233829778224
20
339.00258058810743
30
0
11
-513.27537789778239
21
339.00303058810744
31
0
0
LINE
5
197
100
AcDbEntity
8
0
100
AcDbLine
10
-366.05497959778234
20
308.81227058810737
30
0
11
-365.50193959778227
21
308.81227058810737
31
0
0
LINE
5
198
100
AcDbEntity
8
0
100
AcDbLine
10
-367.68443959778222
20
348.30858058810742
30
0
11
-368.23747959778223
21
348.30858058810742
31
0
0
LINE
5
199
100
AcDbEntity
8
0
100
AcDbLine
10
-404.76695959778232
20
308.81227058810737
30
0
11
-404.21391959778236
21
308.81227058810737
31
0
0
LINE
5
200
100
AcDbEntity
8
0
100
AcDbLine
10
-565.81303659778223
20
339.0465205881074
30
0
11
-566.36607659778224
21
339.04698058810737
31
0
0
LINE
5
201
100
AcDbEntity
8
0
100
AcDbLine
10
-386.51701959778228
20
308.81227058810737
30
0
11
-385.96403959778229
21
308.81227058810737
31
0
0
LINE
5
202
100
AcDbEntity
8
0
100
AcDbLine
10
-469.10222159778232
20
367.14210058810744
30
0
11
-468.54918159778231
21
367.14210058810744
31
0
0
LINE
5
203
100
AcDbEntity
8
0
100
AcDbLine
10
-394.81248959778225
20
308.81227058810737
30
0
11
-394.25944959778229
21
308.81227058810737
31
0
0
LINE
5
204
100
AcDbEntity
8
0
100
AcDbLine
10
-493.64287059778229
20
338.98677058810739
30
0
11
-494.19590959778225
21
338.98726058810735
31
0
0
LINE
5
205
100
AcDbEntity
8
0
100
AcDbLine
10
-376.00951959778229
20
308.81227058810737
30
0
11
-375.45646959778225
21
308.81227058810737
31
0
0
LINE
5
206
100
AcDbEntity
8
0
100
AcDbLine
10
-393.94065959778231
20
406.55668058810738
30
0
11
-393.3876195977823
21
406.55671058810742
31
0
0
LINE
5
207
100
AcDbEntity
8
0
100
AcDbLine
10
-388.91930959778227
20
289.14320058810739
30
0
11
-388.36625959778235
21
289.14320058810739
31
0
0
LINE
5
208
100
AcDbEntity
8
0
100
AcDbLine
10
-574.66136759778226
20
338.99678058810741
30
0
11
-575.21437659778235
21
338.99345058810741
31
0
0
LINE
5
209
100
AcDbEntity
8
0
100
AcDbLine
10
-406.33971959778228
20
289.14332058810737
30
0
11
-405.78666959778229
21
289.14332058810737
31
0
0
LWPOLYLINE
5
210
100
AcDbEntity
8
0
100
AcDbPolyline
90
4
70
1
43
0.0
10
-579.04838859778226
20
372.93733058810744
42
0.41421781999999863
10
-576.19838559778236
20
375.78730058810748
42
0.41421426999999567
10
-579.04838859778226
20
378.63734058810735
42
0.41421285000000074
10
-581.89839459778239
20
375.78730058810748
42
0.41421568999998504
0
LINE
5
211
100
AcDbEntity
8
0
100
AcDbLine
10
-407.99876959778231
20
289.14335058810735
30
0
11
-407.4457295977823
21
289.14335058810735
31
0
0
LINE
5
212
100
AcDbEntity
8
0
100
AcDbLine
10
-533.46092459778231
20
339.01973058810739
30
0
11
-534.01396459778232
21
339.02021058810737
31
0
0
ARC
5
213
100
AcDbEntity
8
0
100
AcDbCircle
10
-493.33207105745521
20
274.56166712843418
30
0
40
9.9544765403546656
210
0
220
0
230
1
100
AcDbArc
50
179.99986497143982
51
269.9998645070504
0
LINE
5
214
100
AcDbEntity
8
0
100
AcDbLine
10
-409.70194959778223
20
406.55583058810743
30
0
11
-409.14890959778228
21
406.55586058810741
31
0
0
LINE
5
215
100
AcDbEntity
8
0
100
AcDbLine
10
-483.37730659778231
20
279.58415058810738
30
0
11
-468.79210159778233
21
279.58406058810738
31
0
0
LINE
5
216
100
AcDbEntity
8
0
100
AcDbLine
10
-558.86589259778236
20
299.69139058810742
30
0
11
-558.31285359778235
21
299.69139058810742
31
0
0
LINE
5
217
100
AcDbEntity
8
0
100
AcDbLine
10
-401.41905959778228
20
348.23597058810742
30
0
11
-401.9720895977822
21
348.23402058810746
31
0
0
LINE
5
218
100
AcDbEntity
8
0
100
AcDbLine
10
-381.17069959778229
20
367.14210058810744
30
0
11
-380.74638959778224
21
367.14210058810744
31
0
0
LINE
5
219
100
AcDbEntity
8
0
100
AcDbLine
10
-410.54392959778227
20
348.20399058810733
30
0
11
-411.09696959778228
21
348.20207058810746
31
0
0
LINE
5
220
100
AcDbEntity
8
0
100
AcDbLine
10
-547.25230659778231
20
299.69139058810742
30
0
11
-546.6992665977823
21
299.69139058810742
31
0
0
LINE
5
221
100
AcDbEntity
8
0
100
AcDbLine
10
-579.60445659778225
20
318.63804058810734
30
0
11
-580.15748859778228
21
318.63804058810734
31
0
0
LINE
5
222
100
AcDbEntity
8
0
100
AcDbLine
10
-497.39329759778229
20
397.0230805881074
30
0
11
-497.94627659778229
21
397.0230805881074
31
0
0
LINE
5
223
100
AcDbEntity
8
0
100
AcDbLine
10
-524.30162299778226
20
318.63804058810734
30
0
11
-524.85467059778227
21
318.63804058810734
31
0
0
LINE
5
224
100
AcDbEntity
8
0
100
AcDbLine
10
-380.98673959778228
20
315.44862058810736
30
0
11
-380.98673959778228
21
316.00166058810737
31
0
0
LINE
5
225
100
AcDbEntity
8
0
100
AcDbLine
10
-538.40385659778224
20
318.63804058810734
30
0
11
-538.95689659778225
21
318.63804058810734
31
0
0
LINE
5
226
100
AcDbEntity
8
0
100
AcDbLine
10
-415.18193259778229
20
367.14210058810744
30
0
11
-414.6289545977823
21
367.14210058810744
31
0
0
LINE
5
227
100
AcDbEntity
8
0
100
AcDbLine
10
-496.09721659778234
20
318.63804058810734
30
0
11
-496.65019459778227
21
318.63804058810734
31
0
0
LINE
5
228
100
AcDbEntity
8
0
100
AcDbLine
10
-380.85319959778235
20
336.97282058810742
30
0
11
-380.84477959778235
21
337.52577058810743
31
0
0
LINE
5
229
100
AcDbEntity
8
0
100
AcDbLine
10
-494.99113759778231
20
279.58415058810738
30
0
11
-494.4380975977823
21
279.58415058810738
31
0
0
LINE
5
230
100
AcDbEntity
8
0
100
AcDbLine
10
-388.1464695977823
20
348.28242058810736
30
0
11
-388.69944959778229
21
348.28050058810737
31
0
0
LINE
5
231
100
AcDbEntity
8
0
100
AcDbLine
10
-572.96812659778232
20
318.63804058810734
30
0
11
-573.52113559778229
21
318.63804058810734
31
0
0
LWPOLYLINE
5
232
100
AcDbEntity
8
0
100
AcDbPolyline
90
4
70
1
43
0.0
10
-404.30191959778233
20
412.09541058810743
42
0.41421639999999077
10
-401.45194959778229
20
414.94542058810737
42
0.4142135600000158
10
-404.30191959778227
20
417.79542058810733
42
0.4142163999999835
10
-407.15189959778229
20
414.94542058810737
42
0.41421356000001686
0
LINE
5
233
100
AcDbEntity
8
0
100
AcDbLine
10
-401.0797595977823
20
367.14210058810744
30
0
11
-400.52671959778229
21
367.14210058810744
31
0
0
LINE
5
234
100
AcDbEntity
8
0
100
AcDbLine
10
-546.6992665977823
20
318.63804058810734
30
0
11
-547.25230659778231
21
318.63804058810734
31
0
0
LINE
5
235
100
AcDbEntity
8
0
100
AcDbLine
10
-522.64256539778228
20
318.63804058810734
30
0
11
-523.19560489778235
21
318.63804058810734
31
0
0
LINE
5
236
100
AcDbEntity
8
0
100
AcDbLine
10
-565.61235659778231
20
358.07093058810744
30
0
11
-565.05931359778231
21
358.07093058810744
31
0
0
LINE
5
237
100
AcDbEntity
8
0
100
AcDbLine
10
-498.30931359778231
20
279.58415058810738
30
0
11
-497.75627359778235
21
279.58415058810738
31
0
0
LINE
5
238
100
AcDbEntity
8
0
100
AcDbLine
10
-491.11992159778231
20
318.63804058810734
30
0
11
-491.67296059778232
21
318.63804058810734
31
0
0
LINE
5
239
100
AcDbEntity
8
0
100
AcDbLine
10
-539.06695059778235
20
358.07093058810744
30
0
11
-538.51396459778232
21
358.07093058810744
31
0
0
LINE
5
240
100
AcDbEntity
8
0
100
AcDbLine
10
-573.83183559778229
20
339.00181058810745
30
0
11
-574.38484859778225
21
338.99846058810738
31
0
0
LINE
5
241
100
AcDbEntity
8
0
100
AcDbLine
10
-535.74882759778234
20
358.07093058810744
30
0
11
-535.19578759778233
21
358.07093058810744
31
0
0
LINE
5
242
100
AcDbEntity
8
0
100
AcDbLine
10
-532.32054359778226
20
299.69139058810742
30
0
11
-531.76750459778236
21
299.69139058810742
31
0
0
LINE
5
243
100
AcDbEntity
8
0
100
AcDbLine
10
-571.61897559778231
20
383.03016058810738
30
0
11
-580.85350259778227
21
382.88600058810744
31
0
0
LINE
5
244
100
AcDbEntity
8
0
100
AcDbLine
10
-427.96422059778229
20
348.14302058810739
30
0
11
-428.5172605977823
21
348.14106058810745
31
0
0
LINE
5
245
100
AcDbEntity
8
0
100
AcDbLine
10
-586.16087559778225
20
335.92720058810744
30
0
11
-586.16087559778225
21
335.42720058810744
31
0
0
LINE
5
246
100
AcDbEntity
8
0
100
AcDbLine
10
-528.17284659778227
20
299.69139058810742
30
0
11
-527.61980659778237
21
299.69139058810742
31
0
0
LINE
5
247
100
AcDbEntity
8
0
100
AcDbLine
10
-554.82829559778236
20
358.07093058810744
30
0
11
-554.27525559778235
21
358.07093058810744
31
0
0
LINE
5
248
100
AcDbEntity
8
0
100
AcDbLine
10
-546.7335765977823
20
339.03071058810735
30
0
11
-547.28660859778233
21
339.03120058810742
31
0
0
LINE
5
249
100
AcDbEntity
8
0
100
AcDbLine
10
-479.5406975977823
20
338.97511058810744
30
0
11
-480.09373759778225
21
338.97557058810742
31
0
0
LINE
5
250
100
AcDbEntity
8
0
100
AcDbLine
10
-553.21635659778235
20
294.09468058810739
30
0
11
-553.21635659778235
21
289.66942058810736
31
0
0
LINE
5
251
100
AcDbEntity
8
0
100
AcDbLine
10
-586.16087559778225
20
332.92720058810744
30
0
11
-586.16087559778225
21
332.42720058810738
31
0
0
LINE
5
252
100
AcDbEntity
8
0
100
AcDbLine
10
-371.00260959778234
20
348.30858058810742
30
0
11
-371.55564959778235
21
348.30858058810742
31
0
0
LINE
5
253
100
AcDbEntity
8
0
100
AcDbLine
10
-507.43425999778231
20
299.69139058810742
30
0
11
-506.88127389778231
21
299.69139058810742
31
0
0
LINE
5
254
100
AcDbEntity
8
0
100
AcDbLine
10
-537.29777759778233
20
299.69139058810742
30
0
11
-536.74473859778232
21
299.69139058810742
31
0
0
LINE
5
255
100
AcDbEntity
8
0
100
AcDbLine
10
-477.9666005977823
20
299.69136058810739
30
0
11
-477.41356159778235
21
299.69136058810739
31
0
0
LINE
5
256
100
AcDbEntity
8
0
100
AcDbLine
10
-526.8245795977823
20
339.01423058810741
30
0
11
-527.37761959778231
21
339.01472058810737
31
0
0
LINE
5
257
100
AcDbEntity
8
0
100
AcDbLine
10
-474.39085659778232
20
358.12184058810743
30
0
11
-473.83781659778231
21
358.12306058810742
31
0
0
LINE
5
258
100
AcDbEntity
8
0
100
AcDbLine
10
-487.52525559778229
20
279.58415058810738
30
0
11
-486.97221659778228
21
279.58415058810738
31
0
0
LINE
5
259
100
AcDbEntity
8
0
100
AcDbLine
10
-513.2410760977823
20
299.69139058810742
30
0
11
-512.68803659778223
21
299.69139058810742
31
0
0
LINE
5
260
100
AcDbEntity
8
0
100
AcDbLine
10
-451.1912715977823
20
348.06166058810737
30
0
11
-451.74431059778226
21
348.05973058810741
31
0
0
LINE
5
261
100
AcDbEntity
8
0
100
AcDbLine
10
-504.94566599778233
20
299.69139058810742
30
0
11
-504.39262659778228
21
299.69139058810742
31
0
0
LINE
5
262
100
AcDbEntity
8
0
100
AcDbLine
10
-492.5024895977823
20
279.58415058810738
30
0
11
-491.94945059778235
21
279.58415058810738
31
0
0
LINE
5
263
100
AcDbEntity
8
0
100
AcDbLine
10
-451.22136159778228
20
308.81227058810737
30
0
11
-450.66832259778232
21
308.81227058810737
31
0
0
LINE
5
264
100
AcDbEntity
8
0
100
AcDbLine
10
-388.97599959778233
20
348.27955058810744
30
0
11
-389.52903959778234
21
348.27760058810736
31
0
0
LINE
5
265
100
AcDbEntity
8
0
100
AcDbLine
10
-452.88041959778229
20
308.81227058810737
30
0
11
-452.32737959778228
21
308.81227058810737
31
0
0
LINE
5
266
100
AcDbEntity
8
0
100
AcDbLine
10
-458.93144459778227
20
406.55378058810743
30
0
11
-469.27427959778231
21
406.55369058810743
31
0
0
LINE
5
267
100
AcDbEntity
8
0
100
AcDbLine
10
-577.94536859778236
20
318.63804058810734
30
0
11
-578.49840759778226
21
318.63804058810734
31
0
0
LINE
5
268
100
AcDbEntity
8
0
100
AcDbLine
10
-450.85228259778233
20
367.14210058810744
30
0
11
-450.29924259778232
21
367.14210058810744
31
0
0
LINE
5
269
100
AcDbEntity
8
0
100
AcDbLine
10
-430.39641059778234
20
289.14354058810738
30
0
11
-429.84337059778233
21
289.14354058810738
31
0
0
LINE
5
270
100
AcDbEntity
8
0
100
AcDbLine
10
-549.22221659778234
20
339.03279058810739
30
0
11
-549.77525559778223
21
339.03325058810736
31
0
0
LINE
5
271
100
AcDbEntity
8
0
100
AcDbLine
10
-405.59647959778232
20
308.81227058810737
30
0
11
-405.04350959778236
21
308.81227058810737
31
0
0
LINE
5
272
100
AcDbEntity
8
0
100
AcDbLine
10
-444.55497959778228
20
348.08491058810745
30
0
11
-445.10801959778229
21
348.08296058810743
31
0
0
LINE
5
273
100
AcDbEntity
8
0
100
AcDbLine
10
-362.73679959778229
20
308.81227058810737
30
0
11
-362.18375959778228
21
308.81227058810737
31
0
0
LINE
5
274
100
AcDbEntity
8
0
100
AcDbLine
10
-503.59740659778231
20
338.99501058810745
30
0
11
-504.15044659778232
21
338.9955005881074
31
0
0
LINE
5
275
100
AcDbEntity
8
0
100
AcDbLine
10
-443.75548059778231
20
308.81227058810737
30
0
11
-443.20244059778236
21
308.81227058810737
31
0
0
LINE
5
276
100
AcDbEntity
8
0
100
AcDbLine
10
-366.8549095977823
20
348.30858058810742
30
0
11
-367.40794959778225
21
348.30858058810742
31
0
0
LINE
5
277
100
AcDbEntity
8
0
100
AcDbLine
10
-525.68419859778237
20
299.69139058810742
30
0
11
-525.13115959778236
21
299.69139058810742
31
0
0
LINE
5
278
100
AcDbEntity
8
0
100
AcDbLine
10
-391.46458959778226
20
348.2708305881074
30
0
11
-392.01762959778227
21
348.2688705881074
31
0
0
LINE
5
279
100
AcDbEntity
8
0
100
AcDbLine
10
-432.88505759778229
20
289.14357058810737
30
0
11
-432.33201859778234
21
289.14357058810737
31
0
0
LINE
5
280
100
AcDbEntity
8
0
100
AcDbLine
10
-464.4638545977823
20
348.01521058810744
30
0
11
-465.01689359778226
21
348.01326058810736
31
0
0
LINE
5
281
100
AcDbEntity
8
0
100
AcDbLine
10
-372.69132959778233
20
308.81227058810737
30
0
11
-372.13828959778232
21
308.81227058810737
31
0
0
LINE
5
282
100
AcDbEntity
8
0
100
AcDbLine
10
-499.4496945977823
20
338.99159058810739
30
0
11
-500.00273359778225
21
338.99205058810736
31
0
0
LINE
5
283
100
AcDbEntity
8
0
100
AcDbLine
10
-418.0396595977823
20
308.81227058810737
30
0
11
-417.48662059778223
21
308.81227058810737
31
0
0
LINE
5
284
100
AcDbEntity
8
0
100
AcDbLine
10
-449.18120059778232
20
421.06282058810734
30
0
11
-450.08299459778232
21
421.06282058810734
31
0
0
LINE
5
285
100
AcDbEntity
8
0
100
AcDbLine
10
-433.80095159778227
20
308.81227058810737
30
0
11
-433.24791159778226
21
308.81227058810737
31
0
0
LINE
5
286
100
AcDbEntity
8
0
100
AcDbLine
10
-455.33897659778233
20
348.04713058810739
30
0
11
-455.89201559778235
21
348.04521058810735
31
0
0
LINE
5
287
100
AcDbEntity
8
0
100
AcDbLine
10
-389.83518959778229
20
308.81227058810737
30
0
11
-389.28214959778234
21
308.81227058810737
31
0
0
LINE
5
288
100
AcDbEntity
8
0
100
AcDbLine
10
-468.61155959778227
20
348.00068058810746
30
0
11
-469.0696285977823
21
347.99907058810737
31
0
0
LINE
5
289
100
AcDbEntity
8
0
100
AcDbLine
10
-407.25559959778229
20
308.81227058810737
30
0
11
-406.70255959778228
21
308.81227058810737
31
0
0
LINE
5
290
100
AcDbEntity
8
0
100
AcDbLine
10
-383.16923959778228
20
348.29988058810738
30
0
11
-383.72227959778229
21
348.29792058810739
31
0
0
LINE
5
291
100
AcDbEntity
8
0
100
AcDbLine
10
-365.2254495977823
20
308.81227058810737
30
0
11
-364.67240959778229
21
308.81227058810737
31
0
0
LINE
5
292
100
AcDbEntity
8
0
100
AcDbLine
10
-363.53672959778231
20
348.30858058810742
30
0
11
-364.08976959778227
21
348.30858058810742
31
0
0
LINE
5
293
100
AcDbEntity
8
0
100
AcDbLine
10
-370.2026895977823
20
308.81227058810737
30
0
11
-369.64970959778225
21
308.81227058810737
31
0
0
LINE
5
294
100
AcDbEntity
8
0
100
AcDbLine
10
-538.43815859778238
20
339.02388058810743
30
0
11
-538.99119859778227
21
339.02430058810739
31
0
0
LINE
5
295
100
AcDbEntity
8
0
100
AcDbLine
10
-434.54411559778231
20
289.14357058810737
30
0
11
-433.9910765977823
21
289.14357058810737
31
0
0
LINE
5
296
100
AcDbEntity
8
0
100
AcDbLine
10
-455.82951559778229
20
367.14210058810744
30
0
11
-455.27647659778233
21
367.14210058810744
31
0
0
LINE
5
297
100
AcDbEntity
8
0
100
AcDbLine
10
-432.05552959778231
20
289.14357058810737
30
0
11
-431.5024895977823
21
289.14354058810738
31
0
0
LINE
5
298
100
AcDbEntity
8
0
100
AcDbLine
10
-551.71086359778224
20
339.03486058810745
30
0
11
-552.26384959778227
21
339.03529058810733
31
0
0
LINE
5
299
100
AcDbEntity
8
0
100
AcDbLine
10
-464.64427459778227
20
289.14338058810745
30
0
11
-464.09123459778232
21
289.14338058810745
31
0
0
LINE
5
300
100
AcDbEntity
8
0
100
AcDbLine
10
-408.04289959778231
20
406.55592058810731
30
0
11
-407.4898595977823
21
406.55595058810746
31
0
0
LINE
5
301
100
AcDbEntity
8
0
100
AcDbLine
10
-415.55101259778223
20
308.81227058810737
30
0
11
-414.99797259778228
21
308.81227058810737
31
0
0
LINE
5
302
100
AcDbEntity
8
0
100
AcDbLine
10
-535.94951859778223
20
339.02180058810734
30
0
11
-536.50255859778224
21
339.02226058810743
31
0
0
LINE
5
303
100
AcDbEntity
8
0
100
AcDbLine
10
-400.53288959778229
20
289.14329058810733
30
0
11
-399.97984959778228
21
289.14329058810733
31
0
0
LINE
5
304
100
AcDbEntity
8
0
100
AcDbLine
10
-388.63657959778232
20
367.14210058810744
30
0
11
-388.08353959778231
21
367.14210058810744
31
0
0
LINE
5
305
100
AcDbEntity
8
0
100
AcDbLine
10
-386.43064959778229
20
289.14317058810741
30
0
11
-385.87760959778228
21
289.14317058810741
31
0
0
LINE
5
306
100
AcDbEntity
8
0
100
AcDbLine
10
-571.34325659778233
20
339.01686058810742
30
0
11
-571.89625759778221
21
339.01350058810743
31
0
0
LINE
5
307
100
AcDbEntity
8
0
100
AcDbLine
10
-404.68058959778227
20
289.14332058810737
30
0
11
-404.12754959778226
21
289.14332058810737
31
0
0
LINE
5
308
100
AcDbEntity
8
0
100
AcDbLine
10
-374.32078959778221
20
348.30858058810742
30
0
11
-374.87382959778233
21
348.30858058810742
31
0
0
LINE
5
309
100
AcDbEntity
8
0
100
AcDbLine
10
-413.89195959778226
20
308.81227058810737
30
0
11
-413.33891959778225
21
308.81227058810737
31
0
0
LINE
5
310
100
AcDbEntity
8
0
100
AcDbLine
10
-385.31840959778231
20
367.14210058810744
30
0
11
-384.76542959778226
21
367.14210058810744
31
0
0
LINE
5
311
100
AcDbEntity
8
0
100
AcDbLine
10
-387.26017959778233
20
289.14320058810739
30
0
11
-386.70719959778233
21
289.14320058810739
31
0
0
LINE
5
312
100
AcDbEntity
8
0
100
AcDbLine
10
-408.54557959778231
20
367.14210058810744
30
0
11
-407.99259959778232
21
367.14210058810744
31
0
0
LINE
5
313
100
AcDbEntity
8
0
100
AcDbLine
10
-423.76005759778229
20
289.14348058810737
30
0
11
-423.20707959778235
21
289.14348058810737
31
0
0
LINE
5
314
100
AcDbEntity
8
0
100
AcDbLine
10
-380.91637959778222
20
332.82557058810738
30
0
11
-380.90794959778225
21
333.37855058810737
31
0
0
LINE
5
315
100
AcDbEntity
8
0
100
AcDbLine
10
-398.87382959778228
20
289.14326058810735
30
0
11
-398.32078959778232
21
289.14326058810735
31
0
0
LINE
5
316
100
AcDbEntity
8
0
100
AcDbLine
10
-397.2588395977823
20
406.55650058810744
30
0
11
-396.70579959778229
21
406.55653058810742
31
0
0
LINE
5
317
100
AcDbEntity
8
0
100
AcDbLine
10
-380.98673959778228
20
309.36531058810738
30
0
11
-380.98673959778228
21
308.81227058810737
31
0
0
LINE
5
318
100
AcDbEntity
8
0
100
AcDbLine
10
-548.08183559778229
20
299.69139058810742
30
0
11
-547.52879559778228
21
299.69139058810742
31
0
0
LINE
5
319
100
AcDbEntity
8
0
100
AcDbLine
10
-380.98673959778228
20
308.81227058810737
30
0
11
-380.98722959778229
21
249.54243058810738
31
0
0
LINE
5
320
100
AcDbEntity
8
0
100
AcDbLine
10
-406.3962895977823
20
348.21852058810742
30
0
11
-406.94926959778229
21
348.21660058810744
31
0
0
LINE
5
321
100
AcDbEntity
8
0
100
AcDbLine
10
-380.71427959778225
20
346.09672058810736
30
0
11
-380.70586959778223
21
346.64967058810737
31
0
0
LINE
5
322
100
AcDbEntity
8
0
100
AcDbLine
10
-408.88487959778229
20
348.20982058810739
30
0
11
-409.43790959778232
21
348.20790058810735
31
0
0
LINE
5
323
100
AcDbEntity
8
0
100
AcDbLine
10
-426.30516259778233
20
348.14882058810736
30
0
11
-426.85820259778234
21
348.14686058810736
31
0
0
LINE
5
324
100
AcDbEntity
8
0
100
AcDbLine
10
-400.5895295977823
20
348.23884058810734
30
0
11
-401.14249959778238
21
348.23695058810733
31
0
0
LINE
5
325
100
AcDbEntity
8
0
100
AcDbLine
10
-380.98673959778228
20
316.27815058810734
30
0
11
-380.98673959778228
21
316.8311905881074
31
0
0
LINE
5
326
100
AcDbEntity
8
0
100
AcDbLine
10
-539.46562459778227
20
279.58415058810738
30
0
11
-539.46562459778227
21
274.83433058810738
31
0
0
LWPOLYLINE
5
327
100
AcDbEntity
8
0
100
AcDbPolyline
90
4
70
1
43
0.0
10
-401.0320295977823
20
360.21647058810743
42
0.41421072000001291
10
-403.88200959778231
20
363.06648058810737
42
0.41420787999998737
10
-406.73197959778236
20
360.21647058810743
42
0.41421356000002307
10
-403.88200959778231
20
357.36647058810746
42
0.41421355999999071
0
LINE
5
328
100
AcDbEntity
8
0
100
AcDbLine
10
-584.61568659778231
20
338.93657058810737
30
0
11
-585.16868859778231
21
338.93321058810739
31
0
0
LINE
5
329
100
AcDbEntity
8
0
100
AcDbLine
10
-566.33281559778231
20
328.53950058810739
30
0
11
-566.33458559778228
21
329.0925405881074
31
0
0
LINE
5
330
100
AcDbEntity
8
0
100
AcDbLine
10
-545.86973859778232
20
318.63804058810734
30
0
11
-546.42277759778233
21
318.63804058810734
31
0
0
LINE
5
331
100
AcDbEntity
8
0
100
AcDbLine
10
-442.06639359778228
20
348.09364058810735
30
0
11
-442.61937159778228
21
348.09169058810738
31
0
0
LINE
5
332
100
AcDbEntity
8
0
100
AcDbLine
10
-536.74473859778232
20
318.63804058810734
30
0
11
-537.29777759778233
21
318.63804058810734
31
0
0
LINE
5
333
100
AcDbEntity
8
0
100
AcDbLine
10
-380.98673959778228
20
311.30092058810737
30
0
11
-380.98673959778228
21
311.85392058810743
31
0
0
LINE
5
334
100
AcDbEntity
8
0
100
AcDbLine
10
-586.24080159778237
20
318.63804058810734
30
0
11
-586.16087559778225
21
318.63804058810734
31
0
0
LINE
5
335
100
AcDbEntity
8
0
100
AcDbLine
10
-615.32551959778232
20
324.16832058810741
30
0
11
-615.32551959778232
21
328.20289058810744
31
0
0
LINE
5
336
100
AcDbEntity
8
0
100
AcDbLine
10
-380.82792959778232
20
338.63173058810742
30
0
11
-380.81950959778231
21
339.18467058810739
31
0
0
LINE
5
337
100
AcDbEntity
8
0
100
AcDbLine
10
-566.33549759778236
20
329.36903058810742
30
0
11
-566.33720659778237
21
329.92207058810743
31
0
0
LINE
5
338
100
AcDbEntity
8
0
100
AcDbLine
10
-451.68181059778226
20
367.14210058810744
30
0
11
-451.1287715977823
21
367.14210058810744
31
0
0
LINE
5
339
100
AcDbEntity
8
0
100
AcDbLine
10
-577.11583559778228
20
318.63804058810734
30
0
11
-577.66887559778229
21
318.63804058810734
31
0
0
LINE
5
340
100
AcDbEntity
8
0
100
AcDbLine
10
-534.80919859778237
20
299.69139058810742
30
0
11
-534.25615959778236
21
299.69139058810742
31
0
0
LINE
5
341
100
AcDbEntity
8
0
100
AcDbLine
10
-530.34068559778223
20
279.58415058810738
30
0
11
-529.78764559778233
21
279.58415058810738
31
0
0
LINE
5
342
100
AcDbEntity
8
0
100
AcDbLine
10
-393.61388959778225
20
367.14210058810744
30
0
11
-393.06083959778221
21
367.14210058810744
31
0
0
LINE
5
343
100
AcDbEntity
8
0
100
AcDbLine
10
-540.89250459778225
20
318.63804058810734
30
0
11
-541.44549059778228
21
318.63804058810734
31
0
0
LINE
5
344
100
AcDbEntity
8
0
100
AcDbLine
10
-547.60747759778235
20
296.74269058810739
30
0
11
-553.21635659778235
21
294.09468058810739
31
0
0
LINE
5
345
100
AcDbEntity
8
0
100
AcDbLine
10
-527.85203759778233
20
279.58415058810738
30
0
11
-527.29899859778232
21
279.58415058810738
31
0
0
LINE
5
346
100
AcDbEntity
8
0
100
AcDbLine
10
-459.48668159778231
20
348.03260058810736
30
0
11
-460.03965959778225
21
348.03071058810735
31
0
0
LINE
5
347
100
AcDbEntity
8
0
100
AcDbLine
10
-580.43400859778228
20
318.63804058810734
30
0
11
-580.98701759778226
21
318.63804058810734
31
0
0
LINE
5
348
100
AcDbEntity
8
0
100
AcDbLine
10
-540.61595359778232
20
299.69139058810742
30
0
11
-540.06291459778231
21
299.69139058810742
31
0
0
LWPOLYLINE
5
349
100
AcDbEntity
8
0
100
AcDbPolyline
90
4
70
1
43
0.0
10
-377.15165959778227
20
331.35515058810739
42
0.41421355999999065
10
-380.00169959778225
20
328.50514058810739
42
0.41421356000001985
10
-377.15165959778233
20
325.65513058810745
42
0.41421356000001264
10
-374.30161959778229
20
328.50514058810739
42
0.41421355999998344
0
LINE
5
350
100
AcDbEntity
8
0
100
AcDbLine
10
-493.60858359778229
20
318.63804058810734
30
0
11
-494.16160859778233
21
318.63804058810734
31
0
0
LINE
5
351
100
AcDbEntity
8
0
100
AcDbLine
10
-499.13884259778229
20
279.58415058810738
30
0
11
-498.58580259778228
21
279.58415058810738
31
0
0
LINE
5
352
100
AcDbEntity
8
0
100
AcDbLine
10
-540.06291459778231
20
318.63804058810734
30
0
11
-540.61595359778232
21
318.63804058810734
31
0
0
LINE
5
353
100
AcDbEntity
8
0
100
AcDbLine
10
-484.9501215977823
20
397.0230805881074
30
0
11
-485.50316059778226
21
397.0230805881074
31
0
0
LINE
5
354
100
AcDbEntity
8
0
100
AcDbLine
10
-551.40001959778238
20
299.69139058810742
30
0
11
-550.84697959778237
21
299.69139058810742
31
0
0
LINE
5
355
100
AcDbEntity
8
0
100
AcDbLine
10
-566.33177859778232
20
322.78575058810736
30
0
11
-566.33177859778232
21
323.33876058810739
31
0
0
LWPOLYLINE
5
356
100
AcDbEntity
8
0
100
AcDbPolyline
90
4
70
1
43
0.0
10
-529.60148859778224
20
309.92476058810735
42
0.414212140000006
10
-532.45146459778232
20
307.07475058810735
42
0.41421214000001327
10
-529.60148859778224
20
304.22474058810735
42
0.41421213999999013
10
-526.75151359778238
20
307.07475058810735
42
0.4142121399999974
0
LINE
5
357
100
AcDbEntity
8
0
100
AcDbLine
10
-555.54771659778237
20
299.69139058810742
30
0
11
-554.99467759778236
21
299.69139058810742
31
0
0
LINE
5
358
100
AcDbEntity
8
0
100
AcDbLine
10
-537.4078855977823
20
358.07093058810744
30
0
11
-536.85484559778229
21
358.07093058810744
31
0
0
LINE
5
359
100
AcDbEntity
8
0
100
AcDbLine
10
-403.56834959778223
20
367.14210058810744
30
0
11
-403.01530959778228
21
367.14210058810744
31
0
0
LINE
5
360
100
AcDbEntity
8
0
100
AcDbLine
10
-546.42277759778233
20
299.69139058810742
30
0
11
-545.86973859778232
21
299.69139058810742
31
0
0
LINE
5
361
100
AcDbEntity
8
0
100
AcDbLine
10
-383.11247959778228
20
289.14314058810737
30
0
11
-382.55949959778229
21
289.14314058810737
31
0
0
LINE
5
362
100
AcDbEntity
8
0
100
AcDbLine
10
-419.32963859778226
20
367.14210058810744
30
0
11
-418.77665959778227
21
367.14210058810744
31
0
0
LINE
5
363
100
AcDbEntity
8
0
100
AcDbLine
10
-409.3751695977823
20
367.14210058810744
30
0
11
-408.82212959778229
21
367.14210058810744
31
0
0
LINE
5
364
100
AcDbEntity
8
0
100
AcDbLine
10
-396.93205959778231
20
367.14210058810744
30
0
11
-396.3790195977823
21
367.14210058810744
31
0
0
LINE
5
365
100
AcDbEntity
8
0
100
AcDbLine
10
-543.38109859778228
20
318.63804058810734
30
0
11
-543.9341375977823
21
318.63804058810734
31
0
0
LINE
5
366
100
AcDbEntity
8
0
100
AcDbLine
10
-459.14769259778234
20
367.14210058810744
30
0
11
-458.59465259778233
21
367.14210058810744
31
0
0
LINE
5
367
100
AcDbEntity
8
0
100
AcDbLine
10
-534.91923759778228
20
358.07093058810744
30
0
11
-534.36626659778233
21
358.07093058810744
31
0
0
LINE
5
368
100
AcDbEntity
8
0
100
AcDbLine
10
-380.84061959778228
20
337.8022605881074
30
0
11
-380.83219959778228
21
338.35524058810734
31
0
0
LINE
5
369
100
AcDbEntity
8
0
100
AcDbLine
10
-386.97752959778228
20
367.14210058810744
30
0
11
-386.42448959778227
21
367.14210058810744
31
0
0
LINE
5
370
100
AcDbEntity
8
0
100
AcDbLine
10
-492.81334159778231
20
338.98610058810738
30
0
11
-493.36638159778232
21
338.98655058810738
31
0
0
LINE
5
371
100
AcDbEntity
8
0
100
AcDbLine
10
-548.19195059778235
20
358.07093058810744
30
0
11
-547.63890359778225
21
358.07093058810744
31
0
0
LINE
5
372
100
AcDbEntity
8
0
100
AcDbLine
10
-457.68083459778234
20
406.55378058810743
30
0
11
-458.23387359778229
21
406.55378058810743
31
0
0
LINE
5
373
100
AcDbEntity
8
0
100
AcDbLine
10
-586.16087559778225
20
325.42720058810738
30
0
11
-586.16087559778225
21
324.92720058810738
31
0
0
LINE
5
374
100
AcDbEntity
8
0
100
AcDbLine
10
-484.12059259778232
20
397.0230805881074
30
0
11
-484.67363259778233
21
397.0230805881074
31
0
0
LINE
5
375
100
AcDbEntity
8
0
100
AcDbLine
10
-552.33964759778235
20
358.07093058810744
30
0
11
-551.78660859778233
21
358.07093058810744
31
0
0
LINE
5
376
100
AcDbEntity
8
0
100
AcDbLine
10
-553.0591375977823
20
299.69139058810742
30
0
11
-552.50609859778228
21
299.69139058810742
31
0
0
LINE
5
377
100
AcDbEntity
8
0
100
AcDbLine
10
-546.53282459778234
20
358.07093058810744
30
0
11
-545.97984559778229
21
358.07093058810744
31
0
0
LINE
5
378
100
AcDbEntity
8
0
100
AcDbLine
10
-567.19560459778234
20
339.04194058810737
30
0
11
-567.74864859778222
21
339.03862058810745
31
0
0
ARC
5
379
100
AcDbEntity
8
0
100
AcDbCircle
10
-571.9721376977044
20
377.4937220350771
30
0
40
5.5302521000114755
210
-0
220
0
230
1
100
AcDbArc
50
-0.00032580387164668397
51
45.446867540966103
0
LINE
5
380
100
AcDbEntity
8
0
100
AcDbLine
10
-380.89109959778227
20
334.48448058810743
30
0
11
-380.88267959778227
21
335.03743058810744
31
0
0
LINE
5
381
100
AcDbEntity
8
0
100
AcDbLine
10
-483.58441459778237
20
377.32399058810734
30
0
11
-512.86827339778233
21
377.38395058810738
31
0
0
LINE
5
382
100
AcDbEntity
8
0
100
AcDbLine
10
-458.3181635977823
20
367.14210058810744
30
0
11
-457.76512359778229
21
367.14210058810744
31
0
0
LINE
5
383
100
AcDbEntity
8
0
100
AcDbLine
10
-544.87376659778226
20
358.07093058810744
30
0
11
-544.32072659778225
21
358.07093058810744
31
0
0
LINE
5
384
100
AcDbEntity
8
0
100
AcDbLine
10
-544.76366659778228
20
299.69139058810742
30
0
11
-544.21062759778226
21
299.69139058810742
31
0
0
LINE
5
385
100
AcDbEntity
8
0
100
AcDbLine
10
-545.70329559778224
20
358.07093058810744
30
0
11
-545.15025559778235
21
358.07093058810744
31
0
0
LINE
5
386
100
AcDbEntity
8
0
100
AcDbLine
10
-501.93834959778229
20
338.99366058810745
30
0
11
-502.49132759778229
21
338.99409058810733
31
0
0
LINE
5
387
100
AcDbEntity
8
0
100
AcDbLine
10
-556.48735259778232
20
358.07093058810744
30
0
11
-555.93431359778231
21
358.07093058810744
31
0
0
LINE
5
388
100
AcDbEntity
8
0
100
AcDbLine
10
-527.61980659778237
20
318.63804058810734
30
0
11
-528.17284659778227
21
318.63804058810734
31
0
0
LINE
5
389
100
AcDbEntity
8
0
100
AcDbLine
10
-586.16087559778225
20
326.92720058810744
30
0
11
-586.16087559778225
21
326.42720058810738
31
0
0
LINE
5
390
100
AcDbEntity
8
0
100
AcDbLine
10
-380.68058959778227
20
348.30858058810742
30
0
11
-380.78550959778232
21
378.35496058810742
31
0
0
LINE
5
391
100
AcDbEntity
8
0
100
AcDbLine
10
-506.71483859778226
20
358.07093058810744
30
0
11
-506.16179909778225
21
358.07093058810744
31
0
0
LINE
5
392
100
AcDbEntity
8
0
100
AcDbLine
10
-563.01359759778234
20
299.69139058810742
30
0
11
-562.46055859778232
21
299.69139058810742
31
0
0
LINE
5
393
100
AcDbEntity
8
0
100
AcDbLine
10
-493.00743359778232
20
299.69139058810742
30
0
11
-493.00743359778232
21
293.31038058810742
31
0
0
LINE
5
394
100
AcDbEntity
8
0
100
AcDbLine
10
-556.6880975977823
20
339.03895058810741
30
0
11
-557.24113759778231
21
339.03944058810737
31
0
0
LINE
5
395
100
AcDbEntity
8
0
100
AcDbLine
10
-527.45335659778232
20
358.07093058810744
30
0
11
-526.90031659778231
21
358.07093058810744
31
0
0
LINE
5
396
100
AcDbEntity
8
0
100
AcDbLine
10
-501.62749759778228
20
279.58415058810738
30
0
11
-501.07445059778229
21
279.58415058810738
31
0
0
LINE
5
397
100
AcDbEntity
8
0
100
AcDbLine
10
-480.45524859778232
20
299.69136058810739
30
0
11
-479.90222459778232
21
299.69136058810739
31
0
0
LINE
5
398
100
AcDbEntity
8
0
100
AcDbLine
10
-402.23606959778232
20
406.55623058810738
30
0
11
-401.68302959778231
21
406.55626058810742
31
0
0
LINE
5
399
100
AcDbEntity
8
0
100
AcDbLine
10
-509.09337869778227
20
299.69139058810742
30
0
11
-508.54033909778224
21
299.69139058810742
31
0
0
LINE
5
400
100
AcDbEntity
8
0
100
AcDbLine
10
-536.14744859778227
20
279.58415058810738
30
0
11
-535.59447759778232
21
279.58415058810738
31
0
0
LINE
5
401
100
AcDbEntity
8
0
100
AcDbLine
10
-481.28477759778229
20
299.69136058810739
30
0
11
-480.73173759778228
21
299.69136058810739
31
0
0
LINE
5
402
100
AcDbEntity
8
0
100
AcDbLine
10
-540.92680559778228
20
339.0259205881074
30
0
11
-541.47984559778229
21
339.02638058810737
31
0
0
LINE
5
403
100
AcDbEntity
8
0
100
AcDbLine
10
-525.79430659778234
20
358.07093058810744
30
0
11
-525.24126659778233
21
358.07093058810744
31
0
0
LINE
5
404
100
AcDbEntity
8
0
100
AcDbLine
10
-480.33586359778235
20
318.63804058810734
30
0
11
-480.88890359778236
21
318.63804058810734
31
0
0
LINE
5
405
100
AcDbEntity
8
0
100
AcDbLine
10
-505.05571999778232
20
358.07093058810744
30
0
11
-504.50268039778234
21
358.07093058810744
31
0
0
LINE
5
406
100
AcDbEntity
8
0
100
AcDbLine
10
-373.49125959778229
20
348.30858058810742
30
0
11
-374.04430959778233
21
348.30858058810742
31
0
0
LINE
5
407
100
AcDbEntity
8
0
100
AcDbLine
10
-506.60472359778231
20
299.69139058810742
30
0
11
-506.05168399778228
21
299.69139058810742
31
0
0
LINE
5
408
100
AcDbEntity
8
0
100
AcDbLine
10
-486.97221659778228
20
318.63804058810734
30
0
11
-487.52525559778229
21
318.63804058810734
31
0
0
LINE
5
409
100
AcDbEntity
8
0
100
AcDbLine
10
-519.15794619778228
20
358.07093058810744
30
0
11
-518.60490669778233
21
358.07093058810744
31
0
0
LINE
5
410
100
AcDbEntity
8
0
100
AcDbLine
10
-381.23362959778228
20
348.30665058810735
30
0
11
-380.68058959778227
21
348.30858058810742
31
0
0
LINE
5
411
100
AcDbEntity
8
0
100
AcDbLine
10
-510.86253609778231
20
358.07093058810744
30
0
11
-510.30949649778228
21
358.07093058810744
31
0
0
LINE
5
412
100
AcDbEntity
8
0
100
AcDbLine
10
-506.05168399778228
20
318.63804058810734
30
0
11
-506.60472359778231
21
318.63804058810734
31
0
0
LINE
5
413
100
AcDbEntity
8
0
100
AcDbLine
10
-453.70994859778227
20
308.81227058810737
30
0
11
-453.15690859778226
21
308.81227058810737
31
0
0
LINE
5
414
100
AcDbEntity
8
0
100
AcDbLine
10
-450.0227535977823
20
367.14210058810744
30
0
11
-449.46971359778229
21
367.14210058810744
31
0
0
LINE
5
415
100
AcDbEntity
8
0
100
AcDbLine
10
-464.49400559778223
20
308.81227058810737
30
0
11
-463.94096659778228
21
308.81227058810737
31
0
0
LINE
5
416
100
AcDbEntity
8
0
100
AcDbLine
10
-453.34092959778229
20
367.14210058810744
30
0
11
-452.78788959778234
21
367.14210058810744
31
0
0
LINE
5
417
100
AcDbEntity
8
0
100
AcDbLine
10
-463.66447659778231
20
308.81227058810737
30
0
11
-463.11143759778236
21
308.81227058810737
31
0
0
LINE
5
418
100
AcDbEntity
8
0
100
AcDbLine
10
-558.34715559778238
20
339.04036058810738
30
0
11
-558.90019459778227
21
339.0407805881074
31
0
0
LINE
5
419
100
AcDbEntity
8
0
100
AcDbLine
10
-439.4308955977823
20
406.55378058810743
30
0
11
-439.4308955977823
21
412.21437058810739
31
0
0
LINE
5
420
100
AcDbEntity
8
0
100
AcDbLine
10
-527.65410859778228
20
339.01494058810738
30
0
11
-528.20714859778229
21
339.01539058810738
31
0
0
LINE
5
421
100
AcDbEntity
8
0
100
AcDbLine
10
-535.31792659778239
20
279.58415058810738
30
0
11
-534.76488759778238
21
279.58415058810738
31
0
0
LINE
5
422
100
AcDbEntity
8
0
100
AcDbLine
10
-453.67993459778234
20
348.0529605881074
30
0
11
-454.23289759778237
21
348.05104058810741
31
0
0
LINE
5
423
100
AcDbEntity
8
0
100
AcDbLine
10
-521.21568549778226
20
279.58415058810738
30
0
11
-520.66270699778227
21
279.58415058810738
31
0
0
LINE
5
424
100
AcDbEntity
8
0
100
AcDbLine
10
-548.39268759778224
20
339.03212058810738
30
0
11
-548.94572659778225
21
339.03254058810739
31
0
0
LINE
5
425
100
AcDbEntity
8
0
100
AcDbLine
10
-458.9877195977823
20
289.14369058810735
30
0
11
-439.0787225977823
21
289.14351058810735
31
0
0
LINE
5
426
100
AcDbEntity
8
0
100
AcDbLine
10
-399.74741959778225
20
406.55638058810746
30
0
11
-399.1944495977823
21
406.55641058810744
31
0
0
LINE
5
427
100
AcDbEntity
8
0
100
AcDbLine
10
-420.5282465977823
20
308.81227058810737
30
0
11
-419.97526759778231
21
308.81227058810737
31
0
0
LINE
5
428
100
AcDbEntity
8
0
100
AcDbLine
10
-555.8585765977823
20
339.03828058810745
30
0
11
-556.41154759778237
21
339.03874058810743
31
0
0
LINE
5
429
100
AcDbEntity
8
0
100
AcDbLine
10
-368.54362959778229
20
308.81227058810737
30
0
11
-367.99058959778228
21
308.81227058810737
31
0
0
LINE
5
430
100
AcDbEntity
8
0
100
AcDbLine
10
-379.29801959778229
20
348.30858058810742
30
0
11
-379.8510595977823
21
348.30858058810742
31
0
0
LINE
5
431
100
AcDbEntity
8
0
100
AcDbLine
10
-361.90727959778229
20
308.81227058810737
30
0
11
-361.36790959778233
21
308.81227058810737
31
0
0
LINE
5
432
100
AcDbEntity
8
0
100
AcDbLine
10
-496.13151759778236
20
338.98884058810734
30
0
11
-496.68455759778232
21
338.98930058810743
31
0
0
LINE
5
433
100
AcDbEntity
8
0
100
AcDbLine
10
-439.60777559778228
20
308.81227058810737
30
0
11
-439.05473559778227
21
308.81227058810737
31
0
0
LINE
5
434
100
AcDbEntity
8
0
100
AcDbLine
10
-440.4072745977823
20
348.09944058810743
30
0
11
-440.96031459778231
21
348.09749058810735
31
0
0
LINE
5
435
100
AcDbEntity
8
0
100
AcDbLine
10
-461.32609759778234
20
289.14338058810745
30
0
11
-460.77305859778232
21
289.14338058810745
31
0
0
LINE
5
436
100
AcDbEntity
8
0
100
AcDbLine
10
-521.84733829778236
20
339.01014058810739
30
0
11
-522.40037789778239
21
339.01057058810744
31
0
0
LINE
5
437
100
AcDbEntity
8
0
100
AcDbLine
10
-447.07365659778236
20
308.81227058810737
30
0
11
-446.52061759778235
21
308.81227058810737
31
0
0
LINE
5
438
100
AcDbEntity
8
0
100
AcDbLine
10
-412.1905995977823
20
406.55571058810744
30
0
11
-411.63755959778229
21
406.55574058810743
31
0
0
LINE
5
439
100
AcDbEntity
8
0
100
AcDbLine
10
-427.1646145977823
20
308.81227058810737
30
0
11
-426.61155959778227
21
308.81227058810737
31
0
0
LINE
5
440
100
AcDbEntity
8
0
100
AcDbLine
10
-516.8700433977823
20
339.00599058810741
30
0
11
-517.42308289778225
21
339.00648058810737
31
0
0
LINE
5
441
100
AcDbEntity
8
0
100
AcDbLine
10
-527.34331759778229
20
299.69139058810742
30
0
11
-526.79027759778228
21
299.69139058810742
31
0
0
LINE
5
442
100
AcDbEntity
8
0
100
AcDbLine
10
-400.57700959778231
20
406.55632058810738
30
0
11
-400.0239695977823
21
406.55635058810742
31
0
0
LINE
5
443
100
AcDbEntity
8
0
100
AcDbLine
10
-418.8692045977823
20
308.81227058810737
30
0
11
-418.31614959778227
21
308.81227058810737
31
0
0
LINE
5
444
100
AcDbEntity
8
0
100
AcDbLine
10
-490.32475559778226
20
338.98402058810746
30
0
11
-490.87773359778225
21
338.98451058810736
31
0
0
LINE
5
445
100
AcDbEntity
8
0
100
AcDbLine
10
-417.21013159778232
20
308.81227058810737
30
0
11
-416.65709159778231
21
308.81227058810737
31
0
0
LINE
5
446
100
AcDbEntity
8
0
100
AcDbLine
10
-370.1730795977823
20
348.30858058810742
30
0
11
-370.72611959778226
21
348.30858058810742
31
0
0
LINE
5
447
100
AcDbEntity
8
0
100
AcDbLine
10
-375.17997959778228
20
308.81227058810737
30
0
11
-374.62693959778221
21
308.81227058810737
31
0
0
LINE
5
448
100
AcDbEntity
8
0
100
AcDbLine
10
-380.68058959778227
20
348.30858058810742
30
0
11
-380.12760959778234
21
348.30858058810742
31
0
0
LINE
5
449
100
AcDbEntity
8
0
100
AcDbLine
10
-408.9146595977823
20
308.81227058810737
30
0
11
-408.36161959778229
21
308.81227058810737
31
0
0
LINE
5
450
100
AcDbEntity
8
0
100
AcDbLine
10
-446.70457659778231
20
367.14210058810744
30
0
11
-446.15153759778229
21
367.14210058810744
31
0
0
LINE
5
451
100
AcDbEntity
8
0
100
AcDbLine
10
-434.63048059778231
20
308.81227058810737
30
0
11
-434.0774405977823
21
308.81227058810737
31
0
0
LINE
5
452
100
AcDbEntity
8
0
100
AcDbLine
10
-539.26768759778224
20
339.02455058810745
30
0
11
-539.82072659778225
21
339.02501058810742
31
0
0
LINE
5
453
100
AcDbEntity
8
0
100
AcDbLine
10
-393.98289959778225
20
308.81227058810737
30
0
11
-393.42992959778229
21
308.81227058810737
31
0
0
ARC
5
454
100
AcDbEntity
8
0
100
AcDbCircle
10
-450.08299456193612
20
412.21437055226113
30
0
40
8.848450035846227
210
0
220
0
230
1
100
AcDbArc
50
90.000000232112512
51
180
0
LINE
5
455
100
AcDbEntity
8
0
100
AcDbLine
10
-380.98673959778228
20
308.81227058810737
30
0
11
-381.53977959778223
21
308.81227058810737
31
0
0
LINE
5
456
100
AcDbEntity
8
0
100
AcDbLine
10
-432.60234359778229
20
367.14210058810744
30
0
11
-432.04930359778234
21
367.14210058810744
31
0
0
LINE
5
457
100
AcDbEntity
8
0
100
AcDbLine
10
-390.66471959778227
20
308.81227058810737
30
0
11
-390.11173959778228
21
308.81227058810737
31
0
0
LINE
5
458
100
AcDbEntity
8
0
100
AcDbLine
10
-483.36345159778227
20
397.02528058810742
30
0
11
-483.29106359778228
21
397.0230805881074
31
0
0
LINE
5
459
100
AcDbEntity
8
0
100
AcDbLine
10
-468.7919795977823
20
289.14344058810735
30
0
11
-468.23893959778229
21
289.14344058810735
31
0
0
LINE
5
460
100
AcDbEntity
8
0
100
AcDbLine
10
-361.8776695977823
20
348.30858058810742
30
0
11
-362.43070959778237
21
348.30858058810742
31
0
0
LINE
5
461
100
AcDbEntity
8
0
100
AcDbLine
10
-424.67601259778229
20
308.81227058810737
30
0
11
-424.12297259778228
21
308.81227058810737
31
0
0
LINE
5
462
100
AcDbEntity
8
0
100
AcDbLine
10
-585.44520859778231
20
338.93153058810742
30
0
11
-585.99821759778229
21
338.92817058810743
31
0
0
LINE
5
463
100
AcDbEntity
8
0
100
AcDbLine
10
-428.73735259778232
20
289.14351058810735
30
0
11
-428.18431359778231
21
289.14351058810735
31
0
0
LINE
5
464
100
AcDbEntity
8
0
100
AcDbLine
10
-433.43187159778233
20
367.14210058810744
30
0
11
-432.87883259778226
21
367.14210058810744
31
0
0
LINE
5
465
100
AcDbEntity
8
0
100
AcDbLine
10
-376.83903959778229
20
308.81227058810737
30
0
11
-376.28599959778228
21
308.81227058810737
31
0
0
ARC
5
466
100
AcDbEntity
8
0
100
AcDbCircle
10
377.11576958209946
20
278.25340060379028
30
0
40
3.8712200156828658
210
-0
220
0
230
-1
100
AcDbArc
50
270.00000023211265
51
360
0
LINE
5
467
100
AcDbEntity
8
0
100
AcDbLine
10
-435.3737055977823
20
289.14357058810737
30
0
11
-434.82066559778229
21
289.14357058810737
31
0
0
LINE
5
468
100
AcDbEntity
8
0
100
AcDbLine
10
-550.8812735977823
20
339.0341605881074
30
0
11
-551.43431359778231
21
339.03462058810737
31
0
0
LINE
5
469
100
AcDbEntity
8
0
100
AcDbLine
10
-398.13065959778226
20
308.81227058810737
30
0
11
-397.5776195977823
21
308.81227058810737
31
0
0
LINE
5
470
100
AcDbEntity
8
0
100
AcDbLine
10
-413.01145959778233
20
406.55568058810741
30
0
11
-439.4308955977823
21
406.55378058810743
31
0
0
LINE
5
471
100
AcDbEntity
8
0
100
AcDbLine
10
-371.86179959778229
20
308.81227058810737
30
0
11
-371.30875959778228
21
308.81227058810737
31
0
0
LWPOLYLINE
5
472
100
AcDbEntity
8
0
100
AcDbPolyline
90
4
70
1
43
0.0
10
-529.68828859778228
20
353.74037058810745
42
0.41421071999999481
10
-532.53825659778227
20
350.89036058810734
42
0.41421214000001239
10
-529.68828859778228
20
348.04036058810738
42
0.41421640000000159
10
-526.83830559778232
20
350.89036058810734
42
0.41421356000000342
0
LINE
5
473
100
AcDbEntity
8
0
100
AcDbLine
10
-371.03227959778229
20
308.81227058810737
30
0
11
-370.47923959778234
21
308.81227058810737
31
0
0
LINE
5
474
100
AcDbEntity
8
0
100
AcDbLine
10
-546.74980459778237
20
362.48970058810744
30
0
11
-546.74980459778237
21
372.92405058810743
31
0
0
LINE
5
475
100
AcDbEntity
8
0
100
AcDbLine
10
-403.93742959778228
20
308.81227058810737
30
0
11
-403.38438959778227
21
308.81227058810737
31
0
0
LINE
5
476
100
AcDbEntity
8
0
100
AcDbLine
10
-495.30198959778232
20
338.98817058810744
30
0
11
-495.85504359778236
21
338.98860058810737
31
0
0
LINE
5
477
100
AcDbEntity
8
0
100
AcDbLine
10
-369.37315959778232
20
308.81227058810737
30
0
11
-368.82011959778231
21
308.81227058810737
31
0
0
LINE
5
478
100
AcDbEntity
8
0
100
AcDbLine
10
-361.36790959778233
20
348.30858058810742
30
0
11
-361.60111959778226
21
348.30858058810742
31
0
0
LINE
5
479
100
AcDbEntity
8
0
100
AcDbLine
10
-391.49430959778226
20
308.81227058810737
30
0
11
-390.94126959778231
21
308.81227058810737
31
0
0
LINE
5
480
100
AcDbEntity
8
0
100
AcDbLine
10
-392.29411959778236
20
348.26790058810735
30
0
11
-392.84715959778231
21
348.26597058810739
31
0
0
LINE
5
481
100
AcDbEntity
8
0
100
AcDbLine
10
-396.47154959778226
20
308.81227058810737
30
0
11
-395.9185095977823
21
308.81227058810737
31
0
0
LINE
5
482
100
AcDbEntity
8
0
100
AcDbLine
10
-487.43878459778227
20
397.0230805881074
30
0
11
-487.99180859778232
21
397.0230805881074
31
0
0
LINE
5
483
100
AcDbEntity
8
0
100
AcDbLine
10
-373.52085959778231
20
308.81227058810737
30
0
11
-372.9678195977823
21
308.81227058810737
31
0
0
LINE
5
484
100
AcDbEntity
8
0
100
AcDbLine
10
-576.32042559778233
20
338.98677058810739
30
0
11
-576.8734385977823
21
338.9834105881074
31
0
0
LINE
5
485
100
AcDbEntity
8
0
100
AcDbLine
10
-397.30106959778226
20
308.81227058810737
30
0
11
-396.7480995977823
21
308.81227058810737
31
0
0
LINE
5
486
100
AcDbEntity
8
0
100
AcDbLine
10
-517.81425729778232
20
392.62901058810741
30
0
11
-517.83531439778233
21
382.37141058810744
31
0
0
LINE
5
487
100
AcDbEntity
8
0
100
AcDbLine
10
-387.34660959778233
20
308.81227058810737
30
0
11
-386.79356959778232
21
308.81227058810737
31
0
0
LINE
5
488
100
AcDbEntity
8
0
100
AcDbLine
10
-502.76787859778233
20
338.99434058810743
30
0
11
-503.32091759778228
21
338.99479058810743
31
0
0
LINE
5
489
100
AcDbEntity
8
0
100
AcDbLine
10
-374.35038959778228
20
308.81227058810737
30
0
11
-373.79740959778223
21
308.81227058810737
31
0
0
LINE
5
490
100
AcDbEntity
8
0
100
AcDbLine
10
-383.6593495977823
20
367.14210058810744
30
0
11
-383.10630959778229
21
367.14210058810744
31
0
0
LINE
5
491
100
AcDbEntity
8
0
100
AcDbLine
10
-413.80558959778227
20
289.14338058810745
30
0
11
-413.25254959778226
21
289.14338058810745
31
0
0
LINE
5
492
100
AcDbEntity
8
0
100
AcDbLine
10
-501.10875159778232
20
338.99296058810739
30
0
11
-501.66179859778231
21
338.99342058810737
31
0
0
LINE
5
493
100
AcDbEntity
8
0
100
AcDbLine
10
-412.1464695977823
20
289.14338058810745
30
0
11
-411.59342959778229
21
289.14338058810745
31
0
0
LINE
5
494
100
AcDbEntity
8
0
100
AcDbLine
10
-492.10960659778232
20
411.64021058810738
30
0
11
-494.21245059778232
21
411.64454058810742
31
0
0
LINE
5
495
100
AcDbEntity
8
0
100
AcDbLine
10
-412.2030495977823
20
348.19819058810737
30
0
11
-412.75602959778234
21
348.1962405881074
31
0
0
LWPOLYLINE
5
496
100
AcDbEntity
8
0
100
AcDbPolyline
90
4
70
1
43
0.0
10
-526.86241359778228
20
272.13774058810736
42
0.41421497999998896
10
-529.71239759778223
20
274.98774058810739
42
0.41421498000001045
10
-532.56236559778222
20
272.13774058810736
42
0.41421072000000947
10
-529.71239759778223
20
269.28773058810742
42
0.41421639999998749
0
LINE
5
497
100
AcDbEntity
8
0
100
AcDbLine
10
-418.78282459778234
20
289.14344058810735
30
0
11
-418.22978459778233
21
289.14344058810735
31
0
0
LINE
5
498
100
AcDbEntity
8
0
100
AcDbLine
10
-420.9887565977823
20
367.14210058810744
30
0
11
-420.43571759778229
21
367.14210058810744
31
0
0
LINE
5
499
100
AcDbEntity
8
0
100
AcDbLine
10
-424.58964759778223
20
289.14351058810735
30
0
11
-424.03660859778228
21
289.14351058810735
31
0
0
LINE
5
500
100
AcDbEntity
8
0
100
AcDbLine
10
-500.27922259778228
20
338.9922605881074
30
0
11
-500.83226259778229
21
338.99275058810736
31
0
0
LINE
5
501
100
AcDbEntity
8
0
100
AcDbLine
10
-422.10100059778227
20
289.14344058810735
30
0
11
-421.54796059778226
21
289.14344058810735
31
0
0
LINE
5
502
100
AcDbEntity
8
0
100
AcDbLine
10
-464.12492659778229
20
367.14210058810744
30
0
11
-463.5719475977823
21
367.14210058810744
31
0
0
LINE
5
503
100
AcDbEntity
8
0
100
AcDbLine
10
-402.19193959778232
20
289.14332058810737
30
0
11
-401.63895959778233
21
289.14329058810733
31
0
0
LINE
5
504
100
AcDbEntity
8
0
100
AcDbLine
10
-393.9532295977823
20
348.26210058810744
30
0
11
-394.50620959778229
21
348.26017058810743
31
0
0
LINE
5
505
100
AcDbEntity
8
0
100
AcDbLine
10
-394.72611959778226
20
289.14326058810735
30
0
11
-394.17307959778225
21
289.14323058810737
31
0
0
LWPOLYLINE
5
506
100
AcDbEntity
8
0
100
AcDbPolyline
90
4
70
1
43
0.0
10
-369.1063695977823
20
288.92946058810736
42
0.41421639999999471
10
-371.95640959778234
20
286.07942058810744
42
0.41421640000001275
10
-369.1063695977823
20
283.22944058810737
42
0.41421640000001819
10
-366.25633959778224
20
286.07942058810744
42
0.41421640000000748
0
LINE
5
507
100
AcDbEntity
8
0
100
AcDbLine
10
-411.31693959778232
20
289.14338058810745
30
0
11
-410.76389959778231
21
289.14338058810745
31
0
0
LINE
5
508
100
AcDbEntity
8
0
100
AcDbLine
10
-570.51372759778235
20
339.02186058810742
30
0
11
-571.06673659778232
21
339.01854058810733
31
0
0
LINE
5
509
100
AcDbEntity
8
0
100
AcDbLine
10
-503.28654759778232
20
279.58415058810738
30
0
11
-503.28654759778226
21
274.56169058810735
31
0
0
LINE
5
510
100
AcDbEntity
8
0
100
AcDbLine
10
-403.06559959778224
20
406.55619058810743
30
0
11
-402.51261959778225
21
406.55623058810738
31
0
0
LINE
5
511
100
AcDbEntity
8
0
100
AcDbLine
10
-412.97599959778233
20
289.14338058810745
30
0
11
-412.42301959778229
21
289.14338058810745
31
0
0
LINE
5
512
100
AcDbEntity
8
0
100
AcDbLine
10
-541.44549059778228
20
299.69139058810742
30
0
11
-540.89250459778225
21
299.69139058810742
31
0
0
LINE
5
513
100
AcDbEntity
8
0
100
AcDbLine
10
-426.2487055977823
20
289.14351058810735
30
0
11
-425.69566559778229
21
289.14351058810735
31
0
0
LWPOLYLINE
5
514
100
AcDbEntity
8
0
100
AcDbPolyline
90
4
70
1
43
0.0
10
-579.0097835977823
20
279.30882058810738
42
0.41421356000001303
10
-576.15977759778229
20
282.15883058810738
42
0.4142128499999857
10
-579.0097835977823
20
285.00880058810736
42
0.41421142999999633
10
-581.85979759778229
20
282.15883058810738
42
0.41421356000002363
0
LINE
5
515
100
AcDbEntity
8
0
100
AcDbLine
10
-427.07823459778228
20
289.14351058810735
30
0
11
-426.52519459778227
21
289.14351058810735
31
0
0
LINE
5
516
100
AcDbEntity
8
0
100
AcDbLine
10
-529.83189659778236
20
299.69139058810742
30
0
11
-529.27885659778235
21
299.69139058810742
31
0
0
LINE
5
517
100
AcDbEntity
8
0
100
AcDbLine
10
-392.23747959778228
20
289.14320058810739
30
0
11
-391.68443959778233
21
289.14320058810739
31
0
0
LINE
5
518
100
AcDbEntity
8
0
100
AcDbLine
10
-408.87241959778231
20
406.55589058810733
30
0
11
-408.3193795977823
21
406.55592058810731
31
0
0
LINE
5
519
100
AcDbEntity
8
0
100
AcDbLine
10
-385.60111959778226
20
289.14317058810741
30
0
11
-385.04807959778225
21
289.14317058810741
31
0
0
LINE
5
520
100
AcDbEntity
8
0
100
AcDbLine
10
-490.01390359778225
20
279.58415058810738
30
0
11
-489.46086359778229
21
279.58415058810738
31
0
0
LINE
5
521
100
AcDbEntity
8
0
100
AcDbLine
10
-403.8510595977823
20
289.14332058810737
30
0
11
-403.29801959778229
21
289.14332058810737
31
0
0
LINE
5
522
100
AcDbEntity
8
0
100
AcDbLine
10
-425.96599059778225
20
367.14210058810744
30
0
11
-425.41301259778231
21
367.14210058810744
31
0
0
LINE
5
523
100
AcDbEntity
8
0
100
AcDbLine
10
-425.41917659778227
20
289.14351058810735
30
0
11
-424.86613759778231
21
289.14351058810735
31
0
0
LINE
5
524
100
AcDbEntity
8
0
100
AcDbLine
10
-380.98673959778228
20
323.74403058810736
30
0
11
-380.98673959778228
21
324.29707058810743
31
0
0
LINE
5
525
100
AcDbEntity
8
0
100
AcDbLine
10
-422.93052959778231
20
289.14348058810737
30
0
11
-422.3774895977823
21
289.14348058810737
31
0
0
LINE
5
526
100
AcDbEntity
8
0
100
AcDbLine
10
-499.88188459778229
20
397.0230805881074
30
0
11
-500.43492359778224
21
397.0230805881074
31
0
0
LINE
5
527
100
AcDbEntity
8
0
100
AcDbLine
10
-479.18290959778233
20
318.63804058810734
30
0
11
-479.22984559778234
21
318.63804058810734
31
0
0
LINE
5
528
100
AcDbEntity
8
0
100
AcDbLine
10
-380.98673959778228
20
309.64180058810734
30
0
11
-380.98673959778228
21
310.19484058810741
31
0
0
LINE
5
529
100
AcDbEntity
8
0
100
AcDbLine
10
-468.79185759778233
20
308.81227058810737
30
0
11
-479.18290959778233
21
318.63804058810734
31
0
0
LINE
5
530
100
AcDbEntity
8
0
100
AcDbLine
10
-404.73722959778229
20
348.22435058810743
30
0
11
-405.29020959778228
21
348.22242058810735
31
0
0
LINE
5
531
100
AcDbEntity
8
0
100
AcDbLine
10
-380.72691959778228
20
345.26729058810736
30
0
11
-380.7184895977822
21
345.82026058810743
31
0
0
LINE
5
532
100
AcDbEntity
8
0
100
AcDbLine
10
-422.98698659778233
20
348.16044058810741
30
0
11
-423.54002659778234
21
348.15852058810742
31
0
0
LINE
5
533
100
AcDbEntity
8
0
100
AcDbLine
10
-494.90465059778228
20
397.0230805881074
30
0
11
-495.45768959778229
21
397.0230805881074
31
0
0
LINE
5
534
100
AcDbEntity
8
0
100
AcDbLine
10
-409.71439959778229
20
348.20692058810744
30
0
11
-410.2674395977823
21
348.20497058810736
31
0
0
LINE
5
535
100
AcDbEntity
8
0
100
AcDbLine
10
-533.97960959778231
20
299.69139058810742
30
0
11
-533.42662259778228
21
299.69139058810742
31
0
0
ARC
5
536
100
AcDbEntity
8
0
100
AcDbCircle
10
-530.06782895604749
20
274.83433987308024
30
0
40
9.954491758269489
210
-0
220
0
230
1
100
AcDbArc
50
271.60234141645537
51
359.99994655895262
0
LINE
5
537
100
AcDbEntity
8
0
100
AcDbLine
10
-421.81828559778234
20
367.14210058810744
30
0
11
-421.26524559778233
21
367.14210058810744
31
0
0
LINE
5
538
100
AcDbEntity
8
0
100
AcDbLine
10
-398.93046959778235
20
348.2446705881074
30
0
11
-399.48344959778234
21
348.24275058810741
31
0
0
LINE
5
539
100
AcDbEntity
8
0
100
AcDbLine
10
-450.21495259778226
20
406.55378058810743
30
0
11
-450.76799259778227
21
406.55378058810743
31
0
0
LINE
5
540
100
AcDbEntity
8
0
100
AcDbLine
10
-418.00981359778228
20
348.17787058810745
30
0
11
-418.56279259778228
21
348.17592058810737
31
0
0
LINE
5
541
100
AcDbEntity
8
0
100
AcDbLine
10
-465.78404459778227
20
367.14210058810744
30
0
11
-465.23100559778231
21
367.14210058810744
31
0
0
LINE
5
542
100
AcDbEntity
8
0
100
AcDbLine
10
-399.75999959778227
20
348.24177058810739
30
0
11
-400.31297959778226
21
348.23982058810742
31
0
0
LINE
5
543
100
AcDbEntity
8
0
100
AcDbLine
10
-535.91521659778232
20
318.63804058810734
30
0
11
-536.46825659778233
21
318.63804058810734
31
0
0
LINE
5
544
100
AcDbEntity
8
0
100
AcDbLine
10
-534.48839859778229
20
279.58415058810738
30
0
11
-533.93535859778228
21
279.58415058810738
31
0
0
LINE
5
545
100
AcDbEntity
8
0
100
AcDbLine
10
-389.46610959778229
20
367.14210058810744
30
0
11
-388.91312959778224
21
367.14210058810744
31
0
0
LINE
5
546
100
AcDbEntity
8
0
100
AcDbLine
10
-513.51756536778237
20
318.63804058810734
30
0
11
-514.07060491778236
21
318.63804058810734
31
0
0
LINE
5
547
100
AcDbEntity
8
0
100
AcDbLine
10
-449.38542459778233
20
406.55378058810743
30
0
11
-449.93846359778229
21
406.55378058810743
31
0
0
LINE
5
548
100
AcDbEntity
8
0
100
AcDbLine
10
-566.34593859778226
20
332.6872105881074
30
0
11
-566.34770859778223
21
333.24022058810738
31
0
0
LINE
5
549
100
AcDbEntity
8
0
100
AcDbLine
10
-466.95250159778232
20
348.00648058810737
30
0
11
-467.50554159778233
21
348.00453058810746
31
0
0
LINE
5
550
100
AcDbEntity
8
0
100
AcDbLine
10
-569.6499585977823
20
318.63804058810734
30
0
11
-570.20299759778231
21
318.63804058810734
31
0
0
LINE
5
551
100
AcDbEntity
8
0
100
AcDbLine
10
-545.59318759778228
20
299.69139058810742
30
0
11
-545.04021659778232
21
299.69139058810742
31
0
0
LINE
5
552
100
AcDbEntity
8
0
100
AcDbLine
10
-511.02898659778236
20
318.63804058810734
30
0
11
-511.58195749778235
21
318.63804058810734
31
0
0
LINE
5
553
100
AcDbEntity
8
0
100
AcDbLine
10
-438.4091665977823
20
367.14210058810744
30
0
11
-437.85612759778235
21
367.14210058810744
31
0
0
LINE
5
554
100
AcDbEntity
8
0
100
AcDbLine
10
-525.9607495977823
20
318.63804058810734
30
0
11
-526.51372759778224
21
318.63804058810734
31
0
0
LINE
5
555
100
AcDbEntity
8
0
100
AcDbLine
10
-514.34709417778231
20
318.63804058810734
30
0
11
-514.9001337277823
21
318.63804058810734
31
0
0
LINE
5
556
100
AcDbEntity
8
0
100
AcDbLine
10
-563.2900875977823
20
318.63804058810734
30
0
11
-563.84312659778232
21
318.63804058810734
31
0
0
LINE
5
557
100
AcDbEntity
8
0
100
AcDbLine
10
-407.21330959778231
20
406.55598058810739
30
0
11
-406.66032959778227
21
406.55601058810737
31
0
0
LINE
5
558
100
AcDbEntity
8
0
100
AcDbLine
10
-502.45701859778228
20
279.58415058810738
30
0
11
-501.90398659778231
21
279.58415058810738
31
0
0
LINE
5
559
100
AcDbEntity
8
0
100
AcDbLine
10
-538.12736759778227
20
299.69139058810742
30
0
11
-537.57432759778237
21
299.69139058810742
31
0
0
LWPOLYLINE
5
560
100
AcDbEntity
8
0
100
AcDbPolyline
90
4
70
1
43
0.0
10
-371.43389959778233
20
371.34321058810741
42
0.4142163999999855
10
-368.58386959778227
20
368.49321058810744
42
0.4142164000000092
10
-365.73382959778229
20
371.34321058810741
42
0.4142164000000037
10
-368.58386959778221
20
374.19322058810729
42
0.4142164000000238
0
LINE
5
561
100
AcDbEntity
8
0
100
AcDbLine
10
-386.14799959778225
20
367.14210058810744
30
0
11
-385.59495959778224
21
367.14210058810744
31
0
0
LINE
5
562
100
AcDbEntity
8
0
100
AcDbLine
10
-486.14268759778224
20
318.63804058810734
30
0
11
-486.69572659778225
21
318.63804058810734
31
0
0
LINE
5
563
100
AcDbEntity
8
0
100
AcDbLine
10
-480.05913059778231
20
279.58415058810738
30
0
11
-481.16545359778229
21
279.58412058810745
31
0
0
LINE
5
564
100
AcDbEntity
8
0
100
AcDbLine
10
-582.92262559778226
20
318.63804058810734
30
0
11
-583.47563459778235
21
318.63804058810734
31
0
0
LINE
5
565
100
AcDbEntity
8
0
100
AcDbLine
10
-401.40653959778228
20
406.5562905881074
30
0
11
-400.85349959778227
21
406.55632058810738
31
0
0
LINE
5
566
100
AcDbEntity
8
0
100
AcDbLine
10
-610.57616659778228
20
338.87071058810739
30
0
11
-586.16087559778236
21
338.92720058810738
31
0
0
LINE
5
567
100
AcDbEntity
8
0
100
AcDbLine
10
-548.6348745977823
20
282.80574058810737
30
0
11
-547.52879559778228
21
282.80574058810737
31
0
0
LINE
5
568
100
AcDbEntity
8
0
100
AcDbLine
10
-555.8242665977823
20
318.63804058810734
30
0
11
-556.37724559778223
21
318.63804058810734
31
0
0
LINE
5
569
100
AcDbEntity
8
0
100
AcDbLine
10
-542.5515695977823
20
318.63804058810734
30
0
11
-543.10460959778231
21
318.63804058810734
31
0
0
LINE
5
570
100
AcDbEntity
8
0
100
AcDbLine
10
-564.67271659778237
20
299.69139058810742
30
0
11
-564.11967759778236
21
299.69139058810742
31
0
0
LINE
5
571
100
AcDbEntity
8
0
100
AcDbLine
10
-566.33177859778232
20
326.10392058810737
30
0
11
-566.33177859778232
21
326.65693058810746
31
0
0
LINE
5
572
100
AcDbEntity
8
0
100
AcDbLine
10
-499.05235559778237
20
397.0230805881074
30
0
11
-499.60539459778232
21
397.0230805881074
31
0
0
LINE
5
573
100
AcDbEntity
8
0
100
AcDbLine
10
-535.08568859778234
20
318.63804058810734
30
0
11
-535.63872759778224
21
318.63804058810734
31
0
0
LINE
5
574
100
AcDbEntity
8
0
100
AcDbLine
10
-446.06724759778228
20
406.55378058810743
30
0
11
-446.62028759778229
21
406.55378058810743
31
0
0
LINE
5
575
100
AcDbEntity
8
0
100
AcDbLine
10
-511.85850779778229
20
318.63804058810734
30
0
11
-512.41154729778236
21
318.63804058810734
31
0
0
LINE
5
576
100
AcDbEntity
8
0
100
AcDbLine
10
-418.50010959778228
20
367.14210058810744
30
0
11
-417.94706959778233
21
367.14210058810744
31
0
0
LINE
5
577
100
AcDbEntity
8
0
100
AcDbLine
10
-490.29039259778233
20
318.63804058810734
30
0
11
-490.84343159778228
21
318.63804058810734
31
0
0
LINE
5
578
100
AcDbEntity
8
0
100
AcDbLine
10
-380.98673959778228
20
327.0622105881074
30
0
11
-380.98673959778228
21
327.61525058810741
31
0
0
LINE
5
579
100
AcDbEntity
8
0
100
AcDbLine
10
-505.22215519778229
20
318.63804058810734
30
0
11
-505.77519479778232
21
318.63804058810734
31
0
0
LINE
5
580
100
AcDbEntity
8
0
100
AcDbLine
10
-452.02080059778234
20
348.0587905881074
30
0
11
-452.5738395977823
21
348.05684058810743
31
0
0
LINE
5
581
100
AcDbEntity
8
0
100
AcDbLine
10
-499.41533159778231
20
318.63804058810734
30
0
11
-499.96837059778227
21
318.63804058810734
31
0
0
LINE
5
582
100
AcDbEntity
8
0
100
AcDbLine
10
-451.04448159778229
20
406.55378058810743
30
0
11
-451.5975215977823
21
406.55378058810743
31
0
0
LINE
5
583
100
AcDbEntity
8
0
100
AcDbLine
10
-566.36607659778224
20
339.04698058810737
30
0
11
-566.44188559778229
21
343.90162058810745
31
0
0
LINE
5
584
100
AcDbEntity
8
0
100
AcDbLine
10
-550.01744359778229
20
318.63804058810734
30
0
11
-550.57049059778228
21
318.63804058810734
31
0
0
LINE
5
585
100
AcDbEntity
8
0
100
AcDbLine
10
-488.63133459778231
20
318.63804058810734
30
0
11
-489.18431359778231
21
318.63804058810734
31
0
0
LINE
5
586
100
AcDbEntity
8
0
100
AcDbLine
10
-389.80552959778231
20
348.27662058810745
30
0
11
-390.3585795977823
21
348.27467058810737
31
0
0
LINE
5
587
100
AcDbEntity
8
0
100
AcDbLine
10
-551.67650859778223
20
318.63804058810734
30
0
11
-552.22954759778224
21
318.63804058810734
31
0
0
LINE
5
588
100
AcDbEntity
8
0
100
AcDbLine
10
-380.92899959778231
20
331.99614058810738
30
0
11
-380.92057959778231
21
332.54908058810742
31
0
0
LINE
5
589
100
AcDbEntity
8
0
100
AcDbLine
10
-533.42662259778228
20
318.63804058810734
30
0
11
-533.97960959778231
21
318.63804058810734
31
0
0
LINE
5
590
100
AcDbEntity
8
0
100
AcDbLine
10
-427.62510959778228
20
367.14210058810744
30
0
11
-427.07206959778227
21
367.14210058810744
31
0
0
LINE
5
591
100
AcDbEntity
8
0
100
AcDbLine
10
-456.8513055977823
20
406.55378058810743
30
0
11
-457.40434559778231
21
406.55378058810743
31
0
0
LINE
5
592
100
AcDbEntity
8
0
100
AcDbLine
10
-481.99498259778233
20
318.63804058810734
30
0
11
-482.54802159778228
21
318.63804058810734
31
0
0
LINE
5
593
100
AcDbEntity
8
0
100
AcDbLine
10
-463.29539759778231
20
367.14210058810744
30
0
11
-462.7423575977823
21
367.14210058810744
31
0
0
LINE
5
594
100
AcDbEntity
8
0
100
AcDbLine
10
-446.89677659778226
20
406.55378058810743
30
0
11
-447.44981659778227
21
406.55378058810743
31
0
0
LINE
5
595
100
AcDbEntity
8
0
100
AcDbLine
10
-495.82066559778229
20
279.58415058810738
30
0
11
-495.26762659778228
21
279.58415058810738
31
0
0
LINE
5
596
100
AcDbEntity
8
0
100
AcDbLine
10
-399.42063959778233
20
367.14210058810744
30
0
11
-398.86759959778232
21
367.14210058810744
31
0
0
LINE
5
597
100
AcDbEntity
8
0
100
AcDbLine
10
-520.98344669778226
20
318.63804058810734
30
0
11
-521.53648629778229
21
318.63804058810734
31
0
0
LINE
5
598
100
AcDbEntity
8
0
100
AcDbLine
10
-570.47948659778228
20
318.63804058810734
30
0
11
-571.03252659778229
21
318.63804058810734
31
0
0
LINE
5
599
100
AcDbEntity
8
0
100
AcDbLine
10
-553.33562759778238
20
318.63804058810734
30
0
11
-553.88866659778228
21
318.63804058810734
31
0
0
LINE
5
600
100
AcDbEntity
8
0
100
AcDbLine
10
-394.78275959778227
20
348.25920058810738
30
0
11
-395.33573959778232
21
348.25728058810739
31
0
0
LINE
5
601
100
AcDbEntity
8
0
100
AcDbLine
10
-502.98045559778234
20
358.08052058810745
30
0
11
-483.54680159778235
21
358.08052058810745
31
0
0
LINE
5
602
100
AcDbEntity
8
0
100
AcDbLine
10
-380.98673959778228
20
314.61906058810735
30
0
11
-380.98673959778228
21
315.17210058810741
31
0
0
LINE
5
603
100
AcDbEntity
8
0
100
AcDbLine
10
-566.44188559778229
20
358.07093058810744
30
0
11
-565.88884559778228
21
358.07093058810744
31
0
0
LINE
5
604
100
AcDbEntity
8
0
100
AcDbLine
10
-540.72606859778239
20
358.07093058810744
30
0
11
-540.17302959778237
21
358.07093058810744
31
0
0
LINE
5
605
100
AcDbEntity
8
0
100
AcDbLine
10
-565.50224559778235
20
299.69139058810742
30
0
11
-564.94920559778234
21
299.69139058810742
31
0
0
LINE
5
606
100
AcDbEntity
8
0
100
AcDbLine
10
-538.23741359778228
20
358.07093058810744
30
0
11
-537.68437459778238
21
358.07093058810744
31
0
0
LINE
5
607
100
AcDbEntity
8
0
100
AcDbLine
10
-566.34331759778229
20
331.85765058810739
30
0
11
-566.34508759778237
21
332.41066058810736
31
0
0
LINE
5
608
100
AcDbEntity
8
0
100
AcDbLine
10
-380.98673959778228
20
328.20289058810744
30
0
11
-380.98374959778226
21
328.40187058810739
31
0
0
LINE
5
609
100
AcDbEntity
8
0
100
AcDbLine
10
-396.10246959778232
20
367.14210058810744
30
0
11
-395.54942959778231
21
367.14210058810744
31
0
0
LINE
5
610
100
AcDbEntity
8
0
100
AcDbLine
10
-562.49492859778229
20
339.04377058810746
30
0
11
-563.04790759778234
21
339.04423058810744
31
0
0
LINE
5
611
100
AcDbEntity
8
0
100
AcDbLine
10
-529.51115659778236
20
279.58415058810738
30
0
11
-528.95811759778235
21
279.58415058810738
31
0
0
LINE
5
612
100
AcDbEntity
8
0
100
AcDbLine
10
-507.7108102977823
20
318.63804058810734
30
0
11
-508.26384989778234
21
318.63804058810734
31
0
0
LINE
5
613
100
AcDbEntity
8
0
100
AcDbLine
10
-414.35239959778232
20
367.14210058810744
30
0
11
-413.79936959778229
21
367.14210058810744
31
0
0
LINE
5
614
100
AcDbEntity
8
0
100
AcDbLine
10
-385.65781959778229
20
348.29115058810743
30
0
11
-386.21085959778225
21
348.28920058810741
31
0
0
LINE
5
615
100
AcDbEntity
8
0
100
AcDbLine
10
-382.28294959778225
20
289.14314058810737
30
0
11
-381.72990959778224
21
289.14314058810737
31
0
0
LINE
5
616
100
AcDbEntity
8
0
100
AcDbLine
10
-549.74095359778232
20
299.69139058810742
30
0
11
-549.18791459778231
21
299.69139058810742
31
0
0
LINE
5
617
100
AcDbEntity
8
0
100
AcDbLine
10
-526.19298759778235
20
279.58415058810738
30
0
11
-525.63994859778234
21
279.58415058810738
31
0
0
LINE
5
618
100
AcDbEntity
8
0
100
AcDbLine
10
-544.24498959778236
20
339.02867058810739
30
0
11
-544.79802959778237
21
339.02913058810736
31
0
0
LINE
5
619
100
AcDbEntity
8
0
100
AcDbLine
10
-383.94206959778228
20
289.14314058810737
30
0
11
-383.38902959778233
21
289.14314058810737
31
0
0
LINE
5
620
100
AcDbEntity
8
0
100
AcDbLine
10
-559.69542959778232
20
299.69139058810742
30
0
11
-559.14238959778231
21
299.69139058810742
31
0
0
LINE
5
621
100
AcDbEntity
8
0
100
AcDbLine
10
-381.45341959778227
20
289.14314058810737
30
0
11
-380.98692959778225
21
289.14314058810737
31
0
0
LINE
5
622
100
AcDbEntity
8
0
100
AcDbLine
10
-452.5113395977823
20
367.14210058810744
30
0
11
-451.9583615977823
21
367.14210058810744
31
0
0
LINE
5
623
100
AcDbEntity
8
0
100
AcDbLine
10
-406.88651959778224
20
367.14210058810744
30
0
11
-406.33347959778229
21
367.14210058810744
31
0
0
LINE
5
624
100
AcDbEntity
8
0
100
AcDbLine
10
-557.20683559778229
20
299.69139058810742
30
0
11
-556.65379559778228
21
299.69139058810742
31
0
0
LINE
5
625
100
AcDbEntity
8
0
100
AcDbLine
10
-536.97703759778233
20
279.58415058810738
30
0
11
-536.42399859778232
21
279.58415058810738
31
0
0
LINE
5
626
100
AcDbEntity
8
0
100
AcDbLine
10
-406.05698959778232
20
367.14210058810744
30
0
11
-405.50394959778231
21
367.14210058810744
31
0
0
LINE
5
627
100
AcDbEntity
8
0
100
AcDbLine
10
-398.59110959778229
20
367.14210058810744
30
0
11
-398.03806959778228
21
367.14210058810744
31
0
0
LINE
5
628
100
AcDbEntity
8
0
100
AcDbLine
10
-516.00622049778235
20
318.63804058810734
30
0
11
-516.55925999778231
21
318.63804058810734
31
0
0
LINE
5
629
100
AcDbEntity
8
0
100
AcDbLine
10
-558.97600759778231
20
358.07093058810744
30
0
11
-558.4229685977823
21
358.07093058810744
31
0
0
LINE
5
630
100
AcDbEntity
8
0
100
AcDbLine
10
-439.23869559778223
20
367.14210058810744
30
0
11
-438.68565659778227
21
367.14210058810744
31
0
0
ARC
5
631
100
AcDbEntity
8
0
100
AcDbCircle
10
-571.97214700656014
20
377.49369985434663
30
0
40
5.5302744368283374
210
0
220
-0
230
1
100
AcDbArc
50
45.446960036956575
51
90.894340627117103
0
LINE
5
632
100
AcDbEntity
8
0
100
AcDbLine
10
-380.81535959778228
20
339.46113058810738
30
0
11
-380.8069295977823
21
340.01411058810737
31
0
0
LINE
5
633
100
AcDbEntity
8
0
100
AcDbLine
10
-471.90226959778227
20
358.12733058810744
30
0
11
-471.34923059778231
21
358.12855058810737
31
0
0
LINE
5
634
100
AcDbEntity
8
0
100
AcDbLine
10
-525.99504359778234
20
339.0135605881074
30
0
11
-526.54808259778224
21
339.01402058810737
31
0
0
LINE
5
635
100
AcDbEntity
8
0
100
AcDbLine
10
-580.71770759778235
20
275.06337058810738
30
0
11
-571.86204759778229
21
275.06337058810738
31
0
0
LINE
5
636
100
AcDbEntity
8
0
100
AcDbLine
10
-553.21635659778235
20
284.40602058810737
30
0
11
-548.6348745977823
21
282.80574058810737
31
0
0
LINE
5
637
100
AcDbEntity
8
0
100
AcDbLine
10
-586.16087559778225
20
337.42720058810738
30
0
11
-586.16087559778225
21
336.92720058810744
31
0
0
ARC
5
638
100
AcDbEntity
8
0
100
AcDbCircle
10
366.34513200375358
20
279.35940299430047
30
0
40
4.9772224061988295
210
0
220
0
230
-1
100
AcDbArc
50
179.99945211940809
51
270.00008741940036
0
LINE
5
639
100
AcDbEntity
8
0
100
AcDbLine
10
-547.36241359778228
20
358.07093058810744
30
0
11
-546.80937459778238
21
358.07093058810744
31
0
0
LINE
5
640
100
AcDbEntity
8
0
100
AcDbLine
10
-380.8027195977823
20
340.29060058810734
30
0
11
-380.79430959778233
21
340.84358058810744
31
0
0
LINE
5
641
100
AcDbEntity
8
0
100
AcDbLine
10
-526.62382759778234
20
358.07093058810744
30
0
11
-526.07078759778233
21
358.07093058810744
31
0
0
LINE
5
642
100
AcDbEntity
8
0
100
AcDbLine
10
-511.89281709778231
20
339.00190058810733
30
0
11
-512.44585669778235
21
339.00233058810738
31
0
0
ARC
5
643
100
AcDbEntity
8
0
100
AcDbCircle
10
-580.26878346406033
20
376.8461955717554
30
0
40
6.068042608691214
210
0
220
0
230
1
100
AcDbArc
50
95.529625393337255
51
142.67065674556511
0
LINE
5
644
100
AcDbEntity
8
0
100
AcDbLine
10
-532.59703359778223
20
318.63804058810734
30
0
11
-533.15008059778233
21
318.63804058810734
31
0
0
LINE
5
645
100
AcDbEntity
8
0
100
AcDbLine
10
-572.05846659778229
20
383.02330058810747
30
0
11
-571.61897559778231
21
383.03016058810738
31
0
0
LINE
5
646
100
AcDbEntity
8
0
100
AcDbLine
10
-441.2368645977823
20
348.09654058810736
30
0
11
-441.78984359778224
21
348.09462058810738
31
0
0
LINE
5
647
100
AcDbEntity
8
0
100
AcDbLine
10
-558.14641859778226
20
358.07093058810744
30
0
11
-557.59343959778232
21
358.07093058810744
31
0
0
LINE
5
648
100
AcDbEntity
8
0
100
AcDbLine
10
-553.21635659778235
20
292.92164058810738
30
0
11
-549.42851459778228
21
292.92164058810738
31
0
0
LINE
5
649
100
AcDbEntity
8
0
100
AcDbLine
10
-586.16087559778225
20
320.92720058810744
30
0
11
-586.16087559778225
21
320.42720058810738
31
0
0
LINE
5
650
100
AcDbEntity
8
0
100
AcDbLine
10
-487.00659459778228
20
338.98127058810746
30
0
11
-487.55955759778232
21
338.98176058810742
31
0
0
LINE
5
651
100
AcDbEntity
8
0
100
AcDbLine
10
-586.16087559778236
20
338.92720058810738
30
0
11
-586.16087559778225
21
338.42720058810744
31
0
0
LINE
5
652
100
AcDbEntity
8
0
100
AcDbLine
10
-380.98673959778228
20
321.2554105881074
30
0
11
-380.98673959778228
21
321.80842058810742
31
0
0
LINE
5
653
100
AcDbEntity
8
0
100
AcDbLine
10
-482.85887359778229
20
338.97786058810738
30
0
11
-483.41185259778229
21
338.97831058810738
31
0
0
LINE
5
654
100
AcDbEntity
8
0
100
AcDbLine
10
-501.54101059778225
20
397.0230805881074
30
0
11
-502.09404959778226
21
397.0230805881074
31
0
0
LINE
5
655
100
AcDbEntity
8
0
100
AcDbLine
10
-586.16087559778225
20
328.42720058810744
30
0
11
-586.16087559778225
21
327.92720058810744
31
0
0
LINE
5
656
100
AcDbEntity
8
0
100
AcDbLine
10
-562.46055859778232
20
318.63804058810734
30
0
11
-563.01359759778234
21
318.63804058810734
31
0
0
LINE
5
657
100
AcDbEntity
8
0
100
AcDbLine
10
-586.24800359778237
20
375.81212058810735
30
0
11
-586.16087559778236
21
338.92720058810738
31
0
0
LINE
5
658
100
AcDbEntity
8
0
100
AcDbLine
10
-580.46803559778232
20
338.96165058810737
30
0
11
-581.02107459778233
21
338.95833058810746
31
0
0
LINE
5
659
100
AcDbEntity
8
0
100
AcDbLine
10
-586.16087559778225
20
330.67720058810744
30
0
11
-586.16087559778225
21
330.17720058810738
31
0
0
LINE
5
660
100
AcDbEntity
8
0
100
AcDbLine
10
-554.71818759778228
20
299.69139058810742
30
0
11
-554.16514859778226
21
299.69139058810742
31
0
0
LINE
5
661
100
AcDbEntity
8
0
100
AcDbLine
10
-482.02928459778229
20
338.97718058810739
30
0
11
-482.58232359778225
21
338.97761058810744
31
0
0
LINE
5
662
100
AcDbEntity
8
0
100
AcDbLine
10
-462.80479659778229
20
348.02101058810734
30
0
11
-463.3578365977823
21
348.01906058810744
31
0
0
LINE
5
663
100
AcDbEntity
8
0
100
AcDbLine
10
-553.9987055977823
20
358.07093058810744
30
0
11
-553.44572659778225
21
358.07093058810744
31
0
0
LINE
5
664
100
AcDbEntity
8
0
100
AcDbLine
10
-445.2377195977823
20
406.55378058810743
30
0
11
-445.7906975977823
21
406.55378058810743
31
0
0
LINE
5
665
100
AcDbEntity
8
0
100
AcDbLine
10
-470.24315159778234
20
358.13102058810739
30
0
11
-469.69011159778233
21
358.13224058810738
31
0
0
LINE
5
666
100
AcDbEntity
8
0
100
AcDbLine
10
-550.05174459778232
20
339.0334605881074
30
0
11
-550.60478459778233
21
339.03395058810736
31
0
0
ARC
5
667
100
AcDbEntity
8
0
100
AcDbCircle
10
-571.86204612018616
20
280.59364211051115
30
0
40
5.5302715224040195
210
0
220
0
230
1
100
AcDbArc
50
269.99998469152524
51
359.99998423405765
0
LINE
5
668
100
AcDbEntity
8
0
100
AcDbLine
10
-485.31315859778232
20
318.63804058810734
30
0
11
-485.86619859778233
21
318.63804058810734
31
0
0
LINE
5
669
100
AcDbEntity
8
0
100
AcDbLine
10
-485.34746059778229
20
338.97993058810744
30
0
11
-485.9004995977823
21
338.98036058810737
31
0
0
LINE
5
670
100
AcDbEntity
8
0
100
AcDbLine
10
-495.73417959778232
20
397.0230805881074
30
0
11
-496.28721859778233
21
397.0230805881074
31
0
0
LINE
5
671
100
AcDbEntity
8
0
100
AcDbLine
10
-586.16087559778225
20
336.67720058810744
30
0
11
-586.16087559778225
21
336.17720058810738
31
0
0
LINE
5
672
100
AcDbEntity
8
0
100
AcDbLine
10
-380.98673959778228
20
326.23268058810737
30
0
11
-380.98673959778228
21
326.7856905881074
31
0
0
LINE
5
673
100
AcDbEntity
8
0
100
AcDbLine
10
-468.84166159778232
20
299.69130058810742
30
0
11
-468.79191859778234
21
299.69130058810742
31
0
0
LINE
5
674
100
AcDbEntity
8
0
100
AcDbLine
10
-508.5746331977823
20
338.99916058810737
30
0
11
-509.12768039778234
21
338.99958058810739
31
0
0
LINE
5
675
100
AcDbEntity
8
0
100
AcDbLine
10
-476.30754359778228
20
299.69136058810739
30
0
11
-475.75450359778233
21
299.69133058810741
31
0
0
LINE
5
676
100
AcDbEntity
8
0
100
AcDbLine
10
-533.15008059778233
20
299.69139058810742
30
0
11
-532.59703359778223
21
299.69139058810742
31
0
0
LINE
5
677
100
AcDbEntity
8
0
100
AcDbLine
10
-517.4988885977823
20
358.07093058810744
30
0
11
-516.94585669778235
21
358.07093058810744
31
0
0
LINE
5
678
100
AcDbEntity
8
0
100
AcDbLine
10
-448.70268459778231
20
348.07039058810739
30
0
11
-449.25572459778232
21
348.06843058810739
31
0
0
LINE
5
679
100
AcDbEntity
8
0
100
AcDbLine
10
-524.02513369778239
20
299.69139058810742
30
0
11
-523.47209419778233
21
299.69139058810742
31
0
0
LINE
5
680
100
AcDbEntity
8
0
100
AcDbLine
10
-542.27508059778233
20
299.69139058810742
30
0
11
-541.72203359778234
21
299.69139058810742
31
0
0
LINE
5
681
100
AcDbEntity
8
0
100
AcDbLine
10
-518.21831759778229
20
299.69139058810742
30
0
11
-517.66527809778222
21
299.69139058810742
31
0
0
LINE
5
682
100
AcDbEntity
8
0
100
AcDbLine
10
-581.2975645977823
20
338.9566205881074
30
0
11
-581.85057359778227
21
338.95329058810739
31
0
0
LINE
5
683
100
AcDbEntity
8
0
100
AcDbLine
10
-516.66930639778229
20
358.07093058810744
30
0
11
-516.1163278977823
21
358.07093058810744
31
0
0
LINE
5
684
100
AcDbEntity
8
0
100
AcDbLine
10
-531.49101459778228
20
299.69139058810742
30
0
11
-530.93797559778227
21
299.69139058810742
31
0
0
LINE
5
685
100
AcDbEntity
8
0
100
AcDbLine
10
-508.3738885977823
20
358.07093058810744
30
0
11
-507.82085669778223
21
358.07093058810744
31
0
0
LINE
5
686
100
AcDbEntity
8
0
100
AcDbLine
10
-364.36625959778223
20
348.30858058810742
30
0
11
-364.91929959778224
21
348.30858058810742
31
0
0
LINE
5
687
100
AcDbEntity
8
0
100
AcDbLine
10
-481.85673759778234
20
358.10527058810743
30
0
11
-481.30369859778233
21
358.10649058810736
31
0
0
LINE
5
688
100
AcDbEntity
8
0
100
AcDbLine
10
-549.18791459778231
20
318.63804058810734
30
0
11
-549.74095359778232
21
318.63804058810734
31
0
0
LINE
5
689
100
AcDbEntity
8
0
100
AcDbLine
10
-524.96477759778236
20
358.07093058810744
30
0
11
-524.41173799778221
21
358.07093058810744
31
0
0
LINE
5
690
100
AcDbEntity
8
0
100
AcDbLine
10
-543.41540059778231
20
339.02797058810739
30
0
11
-543.96843959778232
21
339.02845058810738
31
0
0
LINE
5
691
100
AcDbEntity
8
0
100
AcDbLine
10
-510.03300729778232
20
358.07093058810744
30
0
11
-509.47996769778229
21
358.07093058810744
31
0
0
LINE
5
692
100
AcDbEntity
8
0
100
AcDbLine
10
-526.79027759778228
20
318.63804058810734
30
0
11
-527.34331759778229
21
318.63804058810734
31
0
0
LINE
5
693
100
AcDbEntity
8
0
100
AcDbLine
10
-514.18071996778235
20
358.07093058810744
30
0
11
-513.62768041778236
21
358.07093058810744
31
0
0
LINE
5
694
100
AcDbEntity
8
0
100
AcDbLine
10
-468.27269259778234
20
367.14210058810744
30
0
11
-467.71965259778233
21
367.14210058810744
31
0
0
LINE
5
695
100
AcDbEntity
8
0
100
AcDbLine
10
-507.54436739778225
20
358.07093058810744
30
0
11
-506.99132789778224
21
358.07093058810744
31
0
0
LINE
5
696
100
AcDbEntity
8
0
100
AcDbLine
10
-566.33177859778232
20
319.46760058810742
30
0
11
-566.33177859778232
21
320.02061058810739
31
0
0
LINE
5
697
100
AcDbEntity
8
0
100
AcDbLine
10
-512.52159369778235
20
358.07093058810744
30
0
11
-511.96855409778232
21
358.07093058810744
31
0
0
LINE
5
698
100
AcDbEntity
8
0
100
AcDbLine
10
-420.15922759778226
20
367.14210058810744
30
0
11
-419.60618859778231
21
367.14210058810744
31
0
0
LINE
5
699
100
AcDbEntity
8
0
100
AcDbLine
10
-522.47613009778229
20
358.07093058810744
30
0
11
-521.92308289778225
21
358.07093058810744
31
0
0
LINE
5
700
100
AcDbEntity
8
0
100
AcDbLine
10
-489.18431359778231
20
279.58415058810738
30
0
11
-488.63133459778231
21
279.58415058810738
31
0
0
LINE
5
701
100
AcDbEntity
8
0
100
AcDbLine
10
-522.36601509778234
20
299.69139058810742
30
0
11
-521.81303659778234
21
299.69139058810742
31
0
0
LINE
5
702
100
AcDbEntity
8
0
100
AcDbLine
10
-361.36790959778233
20
377.04414058810733
30
0
11
-361.36790959778233
21
328.20289058810744
31
0
0
LINE
5
703
100
AcDbEntity
8
0
100
AcDbLine
10
-473.81889559778233
20
299.69130058810742
30
0
11
-473.26585659778232
21
299.69130058810742
31
0
0
LINE
5
704
100
AcDbEntity
8
0
100
AcDbLine
10
-520.38615669778233
20
279.58415058810738
30
0
11
-520.11333719778224
21
279.58415058810738
31
0
0
LINE
5
705
100
AcDbEntity
8
0
100
AcDbLine
10
-519.04784639778222
20
299.69139058810742
30
0
11
-518.49486789778223
21
299.69139058810742
31
0
0
LINE
5
706
100
AcDbEntity
8
0
100
AcDbLine
10
-487.8361075977823
20
338.98198058810743
30
0
11
-488.38914759778226
21
338.98243058810743
31
0
0
LINE
5
707
100
AcDbEntity
8
0
100
AcDbLine
10
-478.53856159778229
20
358.1126205881074
30
0
11
-477.98552159778234
21
358.11384058810739
31
0
0
LINE
5
708
100
AcDbEntity
8
0
100
AcDbLine
10
-527.02251659778221
20
279.58415058810738
30
0
11
-526.46947759778232
21
279.58415058810738
31
0
0
LINE
5
709
100
AcDbEntity
8
0
100
AcDbLine
10
-510.75242869778231
20
299.69139058810742
30
0
11
-510.19939669778233
21
299.69139058810742
31
0
0
LINE
5
710
100
AcDbEntity
8
0
100
AcDbLine
10
-466.12297259778234
20
348.00941058810736
30
0
11
-466.67595159778227
21
348.00746058810745
31
0
0
LINE
5
711
100
AcDbEntity
8
0
100
AcDbLine
10
-470.50071959778228
20
299.69130058810742
30
0
11
-469.94768059778232
21
299.69130058810742
31
0
0
LINE
5
712
100
AcDbEntity
8
0
100
AcDbLine
10
-521.81303659778234
20
318.63804058810734
30
0
11
-522.36601509778234
21
318.63804058810734
31
0
0
LINE
5
713
100
AcDbEntity
8
0
100
AcDbLine
10
-521.53648629778229
20
299.69139058810742
30
0
11
-520.98344669778226
21
299.69139058810742
31
0
0
LINE
5
714
100
AcDbEntity
8
0
100
AcDbLine
10
-393.12370959778229
20
348.26503058810744
30
0
11
-393.67667959778231
21
348.26307058810744
31
0
0
LINE
5
715
100
AcDbEntity
8
0
100
AcDbLine
10
-457.02812459778227
20
308.81227058810737
30
0
11
-456.47508459778231
21
308.81227058810737
31
0
0
LINE
5
716
100
AcDbEntity
8
0
100
AcDbLine
10
-529.27885659778235
20
318.63804058810734
30
0
11
-529.83189659778236
21
318.63804058810734
31
0
0
LINE
5
717
100
AcDbEntity
8
0
100
AcDbLine
10
-472.98936759778229
20
299.69130058810742
30
0
11
-472.43632759778228
21
299.69130058810742
31
0
0
LINE
5
718
100
AcDbEntity
8
0
100
AcDbLine
10
-366.02537959778232
20
348.30858058810742
30
0
11
-366.57841959778233
21
348.30858058810742
31
0
0
LINE
5
719
100
AcDbEntity
8
0
100
AcDbLine
10
-450.39177159778228
20
308.81227058810737
30
0
11
-449.83879359778228
21
308.81227058810737
31
0
0
LINE
5
720
100
AcDbEntity
8
0
100
AcDbLine
10
-430.4528685977823
20
348.13429058810743
30
0
11
-431.00590759778231
21
348.13234058810735
31
0
0
LINE
5
721
100
AcDbEntity
8
0
100
AcDbLine
10
-429.6532465977823
20
308.81227058810737
30
0
11
-429.10020659778235
21
308.81227058810737
31
0
0
LINE
5
722
100
AcDbEntity
8
0
100
AcDbLine
10
-519.35869849778226
20
339.00807058810744
30
0
11
-519.91173799778232
21
339.00853058810742
31
0
0
LINE
5
723
100
AcDbEntity
8
0
100
AcDbLine
10
-466.15312459778232
20
308.81227058810737
30
0
11
-465.60008459778231
21
308.81227058810737
31
0
0
LINE
5
724
100
AcDbEntity
8
0
100
AcDbLine
10
-503.07896659778231
20
402.81422058810733
30
0
11
-503.09086859778233
21
397.0230805881074
31
0
0
LINE
5
725
100
AcDbEntity
8
0
100
AcDbLine
10
-440.43730459778232
20
308.81227058810737
30
0
11
-439.88426459778231
21
308.81227058810737
31
0
0
LINE
5
726
100
AcDbEntity
8
0
100
AcDbLine
10
-424.64610559778231
20
348.1546105881074
30
0
11
-425.19914459778227
21
348.15269058810742
31
0
0
LINE
5
727
100
AcDbEntity
8
0
100
AcDbLine
10
-455.36906659778231
20
308.81227058810737
30
0
11
-454.81602759778235
21
308.81227058810737
31
0
0
LINE
5
728
100
AcDbEntity
8
0
100
AcDbLine
10
-525.16551459778225
20
339.01289058810733
30
0
11
-525.7184935977823
21
339.01332058810738
31
0
0
LINE
5
729
100
AcDbEntity
8
0
100
AcDbLine
10
-582.09306559778224
20
318.63804058810734
30
0
11
-582.64610559778225
21
318.63804058810734
31
0
0
LINE
5
730
100
AcDbEntity
8
0
100
AcDbLine
10
-447.87315659778233
20
348.07332058810744
30
0
11
-448.42613459778227
21
348.07136058810738
31
0
0
LINE
5
731
100
AcDbEntity
8
0
100
AcDbLine
10
-532.82927959778226
20
279.58415058810738
30
0
11
-532.27629359778223
21
279.58415058810738
31
0
0
LINE
5
732
100
AcDbEntity
8
0
100
AcDbLine
10
-572.17277759778221
20
339.01185058810739
30
0
11
-572.7257865977823
21
339.00850058810738
31
0
0
LINE
5
733
100
AcDbEntity
8
0
100
AcDbLine
10
-524.53386959778231
20
279.58415058810738
30
0
11
-523.9808831977823
21
279.58415058810738
31
0
0
LINE
5
734
100
AcDbEntity
8
0
100
AcDbLine
10
-458.93144459778233
20
412.21437058810727
30
0
11
-458.93144459778227
21
406.55378058810743
31
0
0
LINE
5
735
100
AcDbEntity
8
0
100
AcDbLine
10
-574.62718859778226
20
318.63804058810734
30
0
11
-575.18022759778228
21
318.63804058810734
31
0
0
LINE
5
736
100
AcDbEntity
8
0
100
AcDbLine
10
-545.90404759778232
20
339.03004058810734
30
0
11
-546.45708759778233
21
339.03050058810743
31
0
0
LINE
5
737
100
AcDbEntity
8
0
100
AcDbLine
10
-564.11967759778224
20
318.63804058810734
30
0
11
-564.67271659778226
21
318.63804058810734
31
0
0
LINE
5
738
100
AcDbEntity
8
0
100
AcDbLine
10
-411.3610095977823
20
406.55574058810743
30
0
11
-410.80802959778231
21
406.55580058810745
31
0
0
LINE
5
739
100
AcDbEntity
8
0
100
AcDbLine
10
-448.73271459778232
20
308.81227058810737
30
0
11
-448.17967459778231
21
308.81227058810737
31
0
0
LINE
5
740
100
AcDbEntity
8
0
100
AcDbLine
10
-520.1882272977823
20
339.00874058810734
30
0
11
-520.74126679778237
21
339.00923058810747
31
0
0
LINE
5
741
100
AcDbEntity
8
0
100
AcDbLine
10
-419.69871759778232
20
308.81227058810737
30
0
11
-419.14567859778231
21
308.81227058810737
31
0
0
LINE
5
742
100
AcDbEntity
8
0
100
AcDbLine
10
-378.46848959778231
20
348.30858058810742
30
0
11
-379.02152959778226
21
348.30858058810742
31
0
0
LINE
5
743
100
AcDbEntity
8
0
100
AcDbLine
10
-377.66856959778232
20
308.81227058810737
30
0
11
-377.11552959778231
21
308.81227058810737
31
0
0
LINE
5
744
100
AcDbEntity
8
0
100
AcDbLine
10
-382.33971959778228
20
348.3027805881074
30
0
11
-382.89274959778231
21
348.30085058810738
31
0
0
LINE
5
745
100
AcDbEntity
8
0
100
AcDbLine
10
-425.50554159778233
20
308.81227058810737
30
0
11
-424.95250159778232
21
308.81227058810737
31
0
0
LINE
5
746
100
AcDbEntity
8
0
100
AcDbLine
10
-440.06822459778226
20
367.14210058810744
30
0
11
-439.51518459778231
21
367.14210058810744
31
0
0
LINE
5
747
100
AcDbEntity
8
0
100
AcDbLine
10
-379.3276895977823
20
308.81227058810737
30
0
11
-378.77464959778229
21
308.81227058810737
31
0
0
LINE
5
748
100
AcDbEntity
8
0
100
AcDbLine
10
-489.49516559778232
20
338.98335058810744
30
0
11
-490.04820459778227
21
338.98381058810742
31
0
0
LINE
5
749
100
AcDbEntity
8
0
100
AcDbLine
10
-432.14189359778231
20
308.81227058810737
30
0
11
-431.5888545977823
21
308.81227058810737
31
0
0
ARC
5
750
100
AcDbEntity
8
0
100
AcDbCircle
10
-402.51236035567001
20
411.16303593002101
30
0
40
10.507529258377946
210
0
220
0
230
1
100
AcDbArc
50
93.018115564551209
51
179.99681195844494
0
LINE
5
751
100
AcDbEntity
8
0
100
AcDbLine
10
-444.58500959778229
20
308.81227058810737
30
0
11
-444.03196959778228
21
308.81227058810737
31
0
0
LINE
5
752
100
AcDbEntity
8
0
100
AcDbLine
10
-564.15398659778236
20
339.04515058810739
30
0
11
-564.70701859778228
21
339.04561058810742
31
0
0
LINE
5
753
100
AcDbEntity
8
0
100
AcDbLine
10
-427.90776359778226
20
289.14351058810735
30
0
11
-427.35478459778227
21
289.14351058810735
31
0
0
LINE
5
754
100
AcDbEntity
8
0
100
AcDbLine
10
-498.22282659778233
20
397.0230805881074
30
0
11
-498.77586659778228
21
397.0230805881074
31
0
0
LINE
5
755
100
AcDbEntity
8
0
100
AcDbLine
10
-441.26683259778235
20
308.81227058810737
30
0
11
-440.71379359778234
21
308.81227058810737
31
0
0
LINE
5
756
100
AcDbEntity
8
0
100
AcDbLine
10
-564.98350759778236
20
339.04585058810738
30
0
11
-565.53654759778237
21
339.04628058810744
31
0
0
LINE
5
757
100
AcDbEntity
8
0
100
AcDbLine
10
-423.01689359778231
20
308.81227058810737
30
0
11
-422.4638545977823
21
308.81227058810737
31
0
0
LINE
5
758
100
AcDbEntity
8
0
100
AcDbLine
10
-377.63895959778233
20
348.30858058810742
30
0
11
-378.19199959778234
21
348.30858058810742
31
0
0
LINE
5
759
100
AcDbEntity
8
0
100
AcDbLine
10
-447.90318559778228
20
308.81227058810737
30
0
11
-447.35014559778227
21
308.81227058810737
31
0
0
LINE
5
760
100
AcDbEntity
8
0
100
AcDbLine
10
-435.92051959778235
20
367.14210058810744
30
0
11
-435.36747959778234
21
367.14210058810744
31
0
0
LINE
5
761
100
AcDbEntity
8
0
100
AcDbLine
10
-380.1572095977823
20
308.81227058810737
30
0
11
-379.60416959778229
21
308.81227058810737
31
0
0
LINE
5
762
100
AcDbEntity
8
0
100
AcDbLine
10
-398.08836959778233
20
406.55647058810735
30
0
11
-397.53532959778232
21
406.55650058810744
31
0
0
LINE
5
763
100
AcDbEntity
8
0
100
AcDbLine
10
-465.47380359778231
20
289.14341058810743
30
0
11
-464.9207635977823
21
289.14338058810745
31
0
0
LINE
5
764
100
AcDbEntity
8
0
100
AcDbLine
10
-507.74510439778231
20
338.99846058810738
30
0
11
-508.29814399778235
21
338.99891058810738
31
0
0
LINE
5
765
100
AcDbEntity
8
0
100
AcDbLine
10
-422.18736559778228
20
308.81227058810737
30
0
11
-421.63432559778232
21
308.81227058810737
31
0
0
LINE
5
766
100
AcDbEntity
8
0
100
AcDbLine
10
-449.53221359778229
20
348.06749058810738
30
0
11
-450.08525359778224
21
348.06556058810742
31
0
0
LINE
5
767
100
AcDbEntity
8
0
100
AcDbLine
10
-436.2896145977823
20
308.81227058810737
30
0
11
-435.73655959778227
21
308.81227058810737
31
0
0
LINE
5
768
100
AcDbEntity
8
0
100
AcDbLine
10
-395.61228959778225
20
348.25630058810737
30
0
11
-396.16532959778226
21
348.2543505881074
31
0
0
LINE
5
769
100
AcDbEntity
8
0
100
AcDbLine
10
-445.41453759778227
20
308.81227058810737
30
0
11
-444.86149859778232
21
308.81227058810737
31
0
0
LINE
5
770
100
AcDbEntity
8
0
100
AcDbLine
10
-461.97526759778225
20
348.02391058810741
30
0
11
-462.52830759778226
21
348.02198058810745
31
0
0
LINE
5
771
100
AcDbEntity
8
0
100
AcDbLine
10
-463.81474559778223
20
289.14338058810745
30
0
11
-463.26170559778228
21
289.14338058810745
31
0
0
LINE
5
772
100
AcDbEntity
8
0
100
AcDbLine
10
-517.6996331977823
20
339.00670058810738
30
0
11
-518.25268039778234
21
339.00715058810738
31
0
0
LINE
5
773
100
AcDbEntity
8
0
100
AcDbLine
10
-442.92589059778231
20
308.81227058810737
30
0
11
-442.37291159778232
21
308.81227058810737
31
0
0
LINE
5
774
100
AcDbEntity
8
0
100
AcDbLine
10
-376.80943959778227
20
348.30858058810742
30
0
11
-377.36247959778223
21
348.30858058810742
31
0
0
LINE
5
775
100
AcDbEntity
8
0
100
AcDbLine
10
-363.56638959778229
20
308.81227058810737
30
0
11
-363.01334959778228
21
308.81227058810737
31
0
0
LINE
5
776
100
AcDbEntity
8
0
100
AcDbLine
10
-542.38512659778235
20
358.07093058810744
30
0
11
-541.83208759778233
21
358.07093058810744
31
0
0
LINE
5
777
100
AcDbEntity
8
0
100
AcDbLine
10
-364.39591959778227
20
308.81227058810737
30
0
11
-363.84287959778226
21
308.81227058810737
31
0
0
LINE
5
778
100
AcDbEntity
8
0
100
AcDbLine
10
-454.99998759778231
20
367.14210058810744
30
0
11
-454.4469475977823
21
367.14210058810744
31
0
0
LINE
5
779
100
AcDbEntity
8
0
100
AcDbLine
10
-426.33507059778231
20
308.81227058810737
30
0
11
-425.7820305977823
21
308.81227058810737
31
0
0
LINE
5
780
100
AcDbEntity
8
0
100
AcDbLine
10
-535.11998959778236
20
339.02113058810744
30
0
11
-535.67302959778226
21
339.02156058810738
31
0
0
LINE
5
781
100
AcDbEntity
8
0
100
AcDbLine
10
-427.9942045977823
20
308.81227058810737
30
0
11
-427.44114959778233
21
308.81227058810737
31
0
0
LINE
5
782
100
AcDbEntity
8
0
100
AcDbLine
10
-500.71141259778233
20
397.0230805881074
30
0
11
-501.26445259778228
21
397.0230805881074
31
0
0
LINE
5
783
100
AcDbEntity
8
0
100
AcDbLine
10
-378.49815959778226
20
308.81227058810737
30
0
11
-377.94511959778225
21
308.81227058810737
31
0
0
LINE
5
784
100
AcDbEntity
8
0
100
AcDbLine
10
-509.40422309778228
20
338.99983058810739
30
0
11
-509.95720919778228
21
339.00029058810736
31
0
0
LINE
5
785
100
AcDbEntity
8
0
100
AcDbLine
10
-380.43369959778232
20
308.81227058810737
30
0
11
-380.98673959778228
21
308.81227058810737
31
0
0
LINE
5
786
100
AcDbEntity
8
0
100
AcDbLine
10
-457.48863459778227
20
367.14210058810744
30
0
11
-456.93559559778231
21
367.14210058810744
31
0
0
LINE
5
787
100
AcDbEntity
8
0
100
AcDbLine
10
-382.36930959778226
20
308.81227058810737
30
0
11
-381.81632959778227
21
308.81227058810737
31
0
0
LINE
5
788
100
AcDbEntity
8
0
100
AcDbLine
10
-530.97227759778229
20
339.01768058810745
30
0
11
-531.52531659778231
21
339.01814058810743
31
0
0
LINE
5
789
100
AcDbEntity
8
0
100
AcDbLine
10
-367.71409959778225
20
308.81227058810737
30
0
11
-367.16105959778224
21
308.81227058810737
31
0
0
LINE
5
790
100
AcDbEntity
8
0
100
AcDbLine
10
-369.34354959778233
20
348.30858058810742
30
0
11
-369.89658959778234
21
348.30858058810742
31
0
0
LINE
5
791
100
AcDbEntity
8
0
100
AcDbLine
10
-462.15562659778232
20
289.14338058810745
30
0
11
-461.6025875977823
21
289.14338058810745
31
0
0
LINE
5
792
100
AcDbEntity
8
0
100
AcDbLine
10
-516.04051459778236
20
339.00532058810739
30
0
11
-516.59355409778232
21
339.00578058810737
31
0
0
LINE
5
793
100
AcDbEntity
8
0
100
AcDbLine
10
-411.40330959778225
20
308.81227058810737
30
0
11
-410.85026959778224
21
308.81227058810737
31
0
0
LINE
5
794
100
AcDbEntity
8
0
100
AcDbLine
10
-457.82756259778233
20
348.03843058810742
30
0
11
-458.38060259778229
21
348.03651058810743
31
0
0
LINE
5
795
100
AcDbEntity
8
0
100
AcDbLine
10
-413.06242959778228
20
308.81227058810737
30
0
11
-412.50938959778233
21
308.81227058810737
31
0
0
LINE
5
796
100
AcDbEntity
8
0
100
AcDbLine
10
-528.48369859778234
20
339.01564058810743
30
0
11
-529.03667659778228
21
339.01606058810739
31
0
0
LINE
5
797
100
AcDbEntity
8
0
100
AcDbLine
10
-435.46000959778223
20
308.81227058810737
30
0
11
-434.9070305977823
21
308.81227058810737
31
0
0
LINE
5
798
100
AcDbEntity
8
0
100
AcDbLine
10
-462.83494859778227
20
308.81227058810737
30
0
11
-462.28190859778232
21
308.81227058810737
31
0
0
LINE
5
799
100
AcDbEntity
8
0
100
AcDbLine
10
-438.77818559778228
20
308.81227058810737
30
0
11
-438.22520659778229
21
308.81227058810737
31
0
0
LINE
5
800
100
AcDbEntity
8
0
100
AcDbLine
10
-496.96104659778229
20
338.98951058810735
30
0
11
-497.5140865977823
21
338.99000058810742
31
0
0
LINE
5
801
100
AcDbEntity
8
0
100
AcDbLine
10
-366.88456959778227
20
308.81227058810737
30
0
11
-366.33152959778226
21
308.81227058810737
31
0
0
LINE
5
802
100
AcDbEntity
8
0
100
AcDbLine
10
-496.56370759778224
20
397.0230805881074
30
0
11
-497.11674759778225
21
397.0230805881074
31
0
0
LINE
5
803
100
AcDbEntity
8
0
100
AcDbLine
10
-410.57378959778237
20
308.81227058810737
30
0
11
-410.02073959778227
21
308.81227058810737
31
0
0
LINE
5
804
100
AcDbEntity
8
0
100
AcDbLine
10
-524.33592469778227
20
339.01219058810739
30
0
11
-524.88896459778232
21
339.01265058810736
31
0
0
LINE
5
805
100
AcDbEntity
8
0
100
AcDbLine
10
-446.24406659778231
20
308.81227058810737
30
0
11
-445.69108859778225
21
308.81227058810737
31
0
0
LINE
5
806
100
AcDbEntity
8
0
100
AcDbLine
10
-429.62333959778226
20
348.13722058810743
30
0
11
-430.17631759778226
21
348.1352705881074
31
0
0
LINE
5
807
100
AcDbEntity
8
0
100
AcDbLine
10
-431.31230459778232
20
308.81227058810737
30
0
11
-430.75932559778232
21
308.81227058810737
31
0
0
LINE
5
808
100
AcDbEntity
8
0
100
AcDbLine
10
-494.0751215977823
20
397.0230805881074
30
0
11
-494.62816059778226
21
397.0230805881074
31
0
0
LINE
5
809
100
AcDbEntity
8
0
100
AcDbLine
10
-526.51372759778235
20
299.69139058810742
30
0
11
-525.9607495977823
21
299.69139058810742
31
0
0
LINE
5
810
100
AcDbEntity
8
0
100
AcDbLine
10
-413.01988959778225
20
411.16362058810739
30
0
11
-413.0201395977823
21
406.55671058810742
31
0
0
LINE
5
811
100
AcDbEntity
8
0
100
AcDbLine
10
-385.68748959778225
20
308.81227058810737
30
0
11
-385.13444959778224
21
308.81227058810737
31
0
0
LINE
5
812
100
AcDbEntity
8
0
100
AcDbLine
10
-433.77098359778233
20
348.12269058810733
30
0
11
-434.32402259778229
21
348.12074058810737
31
0
0
LINE
5
813
100
AcDbEntity
8
0
100
AcDbLine
10
-442.09636159778228
20
308.81227058810737
30
0
11
-441.54332259778232
21
308.81227058810737
31
0
0
LINE
5
814
100
AcDbEntity
8
0
100
AcDbLine
10
-447.04362759778229
20
348.07618058810738
30
0
11
-447.59660559778229
21
348.07426058810739
31
0
0
LINE
5
815
100
AcDbEntity
8
0
100
AcDbLine
10
-449.5622435977823
20
308.81227058810737
30
0
11
-449.00920359778235
21
308.81227058810737
31
0
0
LINE
5
816
100
AcDbEntity
8
0
100
AcDbLine
10
-534.29045359778229
20
339.02043058810739
30
0
11
-534.8434935977823
21
339.02089058810736
31
0
0
LINE
5
817
100
AcDbEntity
8
0
100
AcDbLine
10
-399.78971959778227
20
308.81227058810737
30
0
11
-399.23667959778231
21
308.81227058810737
31
0
0
LINE
5
818
100
AcDbEntity
8
0
100
AcDbLine
10
-396.42924959778225
20
406.55656058810735
30
0
11
-395.87627959778229
21
406.55659058810733
31
0
0
LINE
5
819
100
AcDbEntity
8
0
100
AcDbLine
10
-467.13286059778227
20
289.14341058810743
30
0
11
-466.57988259778227
21
289.14341058810743
31
0
0
LINE
5
820
100
AcDbEntity
8
0
100
AcDbLine
10
-394.44340959778231
20
367.14210058810744
30
0
11
-393.8903695977823
21
367.14210058810744
31
0
0
LINE
5
821
100
AcDbEntity
8
0
100
AcDbLine
10
-395.64201959778234
20
308.81227058810737
30
0
11
-395.08897959778233
21
308.81227058810737
31
0
0
LINE
5
822
100
AcDbEntity
8
0
100
AcDbLine
10
-365.19584959778228
20
348.30858058810742
30
0
11
-365.74882959778228
21
348.30858058810742
31
0
0
LINE
5
823
100
AcDbEntity
8
0
100
AcDbLine
10
-459.66704059778232
20
289.14338058810745
30
0
11
-459.59398159778232
21
289.14338058810745
31
0
0
LINE
5
824
100
AcDbEntity
8
0
100
AcDbLine
10
-412.23283959778229
20
308.81227058810737
30
0
11
-411.6798595977823
21
308.81227058810737
31
0
0
LINE
5
825
100
AcDbEntity
8
0
100
AcDbLine
10
-380.98698959778233
20
278.25340058810741
30
0
11
-380.98698959778227
21
279.17738058810744
31
0
0
LINE
5
826
100
AcDbEntity
8
0
100
AcDbLine
10
-462.9851555977823
20
289.14338058810745
30
0
11
-462.43217759778236
21
289.14338058810745
31
0
0
LINE
5
827
100
AcDbEntity
8
0
100
AcDbLine
10
-506.08604679778233
20
338.99708058810745
30
0
11
-506.63908639778236
21
338.99754058810743
31
0
0
LINE
5
828
100
AcDbEntity
8
0
100
AcDbLine
10
-398.96018959778235
20
308.81227058810737
30
0
11
-398.40714959778234
21
308.81227058810737
31
0
0
LINE
5
829
100
AcDbEntity
8
0
100
AcDbLine
10
-458.65709159778237
20
348.03553058810741
30
0
11
-459.21013159778232
21
348.03358058810744
31
0
0
LINE
5
830
100
AcDbEntity
8
0
100
AcDbLine
10
-433.71458659778227
20
289.14357058810737
30
0
11
-433.16154759778226
21
289.14357058810737
31
0
0
LINE
5
831
100
AcDbEntity
8
0
100
AcDbLine
10
-577.1499585977823
20
338.98173058810744
30
0
11
-577.70296759778228
21
338.97841058810741
31
0
0
LINE
5
832
100
AcDbEntity
8
0
100
AcDbLine
10
-384.02842959778229
20
308.81227058810737
30
0
11
-383.47538959778228
21
308.81227058810737
31
0
0
LINE
5
833
100
AcDbEntity
8
0
100
AcDbLine
10
-398.91789959778231
20
406.55641058810744
30
0
11
-398.3648595977823
21
406.55644058810736
31
0
0
LINE
5
834
100
AcDbEntity
8
0
100
AcDbLine
10
-393.15336959778227
20
308.81227058810737
30
0
11
-392.60033959778229
21
308.81227058810737
31
0
0
LINE
5
835
100
AcDbEntity
8
0
100
AcDbLine
10
-488.66563659778228
20
338.98268058810743
30
0
11
-489.21867659778229
21
338.98311058810742
31
0
0
LINE
5
836
100
AcDbEntity
8
0
100
AcDbLine
10
-392.32383959778235
20
308.81227058810737
30
0
11
-391.77079959778234
21
308.81227058810737
31
0
0
LINE
5
837
100
AcDbEntity
8
0
100
AcDbLine
10
-362.70719959778228
20
348.30858058810742
30
0
11
-363.26023959778229
21
348.30858058810742
31
0
0
LINE
5
838
100
AcDbEntity
8
0
100
AcDbLine
10
-402.27836959778233
20
308.81227058810737
30
0
11
-401.72533959778229
21
308.81227058810737
31
0
0
LINE
5
839
100
AcDbEntity
8
0
100
AcDbLine
10
-554.19945759778227
20
339.03691058810745
30
0
11
-554.75249759778228
21
339.03737058810742
31
0
0
LINE
5
840
100
AcDbEntity
8
0
100
AcDbLine
10
-466.30333159778229
20
289.14341058810743
30
0
11
-465.75029259778233
21
289.14341058810743
31
0
0
LINE
5
841
100
AcDbEntity
8
0
100
AcDbLine
10
-434.60051259778226
20
348.1197605881074
30
0
11
-435.15355159778221
21
348.11784058810736
31
0
0
LINE
5
842
100
AcDbEntity
8
0
100
AcDbLine
10
-429.5668815977823
20
289.14354058810738
30
0
11
-429.01384259778234
21
289.14351058810735
31
0
0
LINE
5
843
100
AcDbEntity
8
0
100
AcDbLine
10
-578.80900859778228
20
338.97169058810738
30
0
11
-579.36198659778233
21
338.96833058810739
31
0
0
LINE
5
844
100
AcDbEntity
8
0
100
AcDbLine
10
-384.85795959778227
20
308.81227058810737
30
0
11
-384.30492959778229
21
308.81227058810737
31
0
0
LINE
5
845
100
AcDbEntity
8
0
100
AcDbLine
10
-405.5542495977823
20
406.55607058810739
30
0
11
-405.00120959778229
21
406.55607058810739
31
0
0
LINE
5
846
100
AcDbEntity
8
0
100
AcDbLine
10
-460.49656959778235
20
289.14338058810745
30
0
11
-459.94352959778234
21
289.14338058810745
31
0
0
LINE
5
847
100
AcDbEntity
8
0
100
AcDbLine
10
-553.36992859778229
20
339.03621058810745
30
0
11
-553.9229685977823
21
339.03669058810743
31
0
0
LINE
5
848
100
AcDbEntity
8
0
100
AcDbLine
10
-408.08512959778227
20
308.81227058810737
30
0
11
-407.5320895977822
21
308.81227058810737
31
0
0
LINE
5
849
100
AcDbEntity
8
0
100
AcDbLine
10
-432.11192559778226
20
348.12849058810741
30
0
11
-432.66496559778227
21
348.12654058810733
31
0
0
LINE
5
850
100
AcDbEntity
8
0
100
AcDbLine
10
-436.20323459778228
20
289.14357058810737
30
0
11
-435.65019459778227
21
289.14357058810737
31
0
0
LINE
5
851
100
AcDbEntity
8
0
100
AcDbLine
10
-514.38145697078221
20
339.00395058810744
30
0
11
-514.93449651778224
21
339.00441058810742
31
0
0
LINE
5
852
100
AcDbEntity
8
0
100
AcDbLine
10
-389.00565959778237
20
308.81227058810737
30
0
11
-388.45261959778236
21
308.81227058810737
31
0
0
LINE
5
853
100
AcDbEntity
8
0
100
AcDbLine
10
-582.12709259778228
20
338.95161058810743
30
0
11
-582.68010159778225
21
338.94825058810738
31
0
0
LINE
5
854
100
AcDbEntity
8
0
100
AcDbLine
10
-388.17613959778225
20
308.81227058810737
30
0
11
-387.6230995977823
21
308.81227058810737
31
0
0
LINE
5
855
100
AcDbEntity
8
0
100
AcDbLine
10
-540.09727759778229
20
339.02522058810746
30
0
11
-540.65025559778223
21
339.02571058810736
31
0
0
LINE
5
856
100
AcDbEntity
8
0
100
AcDbLine
10
-406.42606959778226
20
308.81227058810737
30
0
11
-405.87302959778231
21
308.81227058810737
31
0
0
LINE
5
857
100
AcDbEntity
8
0
100
AcDbLine
10
-485.77965059778228
20
397.0230805881074
30
0
11
-486.33268959778229
21
397.0230805881074
31
0
0
LINE
5
858
100
AcDbEntity
8
0
100
AcDbLine
10
-400.6192495977823
20
308.81227058810737
30
0
11
-400.06620959778229
21
308.81227058810737
31
0
0
LINE
5
859
100
AcDbEntity
8
0
100
AcDbLine
10
-511.06328829778226
20
339.00120058810734
30
0
11
-511.6163278977823
21
339.00166058810737
31
0
0
LINE
5
860
100
AcDbEntity
8
0
100
AcDbLine
10
-403.10789959778225
20
308.81227058810737
30
0
11
-402.5548595977823
21
308.81227058810737
31
0
0
LINE
5
861
100
AcDbEntity
8
0
100
AcDbLine
10
-442.55687159778233
20
367.14210058810744
30
0
11
-442.00383259778232
21
367.14210058810744
31
0
0
LINE
5
862
100
AcDbEntity
8
0
100
AcDbLine
10
-431.22593959778226
20
289.14354058810738
30
0
11
-430.67296059778232
21
289.14354058810738
31
0
0
LINE
5
863
100
AcDbEntity
8
0
100
AcDbLine
10
-494.47246059778229
20
338.98747058810739
30
0
11
-495.0254545977823
21
338.98793058810736
31
0
0
LINE
5
864
100
AcDbEntity
8
0
100
AcDbLine
10
-409.7442495977823
20
308.81227058810737
30
0
11
-409.19120959778235
21
308.81227058810737
31
0
0
LINE
5
865
100
AcDbEntity
8
0
100
AcDbLine
10
-483.37736759778227
20
276.26600058810737
30
0
11
-483.37730659778231
21
279.58415058810738
31
0
0
ARC
5
866
100
AcDbEntity
8
0
100
AcDbCircle
10
-493.33181302580715
20
274.56166589000873
30
0
40
9.9544454281750951
210
-0
220
0
230
1
100
AcDbArc
50
-45.000483812394229
51
0.00031483069618634636
0
ARC
5
867
100
AcDbEntity
8
0
100
AcDbCircle
10
-492.1277067084722
20
402.79178842066693
30
0
40
8.848440679987613
210
-0
220
0
230
1
100
AcDbArc
50
-0.11738215370564516
51
89.882797352437976
0
LINE
5
868
100
AcDbEntity
8
0
100
AcDbLine
10
-397.21471959778228
20
289.14326058810735
30
0
11
-396.66166959778229
21
289.14326058810735
31
0
0
LINE
5
869
100
AcDbEntity
8
0
100
AcDbLine
10
-552.54040059778231
20
339.03553058810746
30
0
11
-553.09343959778232
21
339.03599058810732
31
0
0
LINE
5
870
100
AcDbEntity
8
0
100
AcDbLine
10
-410.48740959778229
20
289.14338058810745
30
0
11
-409.93436959778228
21
289.14338058810745
31
0
0
LINE
5
871
100
AcDbEntity
8
0
100
AcDbLine
10
-401.90929959778231
20
367.14210058810744
30
0
11
-401.35624959778227
21
367.14210058810744
31
0
0
LINE
5
872
100
AcDbEntity
8
0
100
AcDbLine
10
-417.1237055977823
20
289.14344058810735
30
0
11
-416.57072659778231
21
289.14341058810743
31
0
0
LINE
5
873
100
AcDbEntity
8
0
100
AcDbLine
10
-435.09099059778231
20
367.14210058810744
30
0
11
-434.5379515977823
21
367.14210058810744
31
0
0
LINE
5
874
100
AcDbEntity
8
0
100
AcDbLine
10
-393.06699959778229
20
289.14323058810737
30
0
11
-392.51395959778228
21
289.14323058810737
31
0
0
LINE
5
875
100
AcDbEntity
8
0
100
AcDbLine
10
-452.85034459778228
20
348.05586058810741
30
0
11
-453.40336859778233
21
348.05394058810742
31
0
0
LINE
5
876
100
AcDbEntity
8
0
100
AcDbLine
10
-390.57835959778231
20
289.14320058810739
30
0
11
-390.02537959778232
21
289.14320058810739
31
0
0
LINE
5
877
100
AcDbEntity
8
0
100
AcDbLine
10
-563.32445759778227
20
339.04445058810734
30
0
11
-563.87749759778228
21
339.04493058810743
31
0
0
LINE
5
878
100
AcDbEntity
8
0
100
AcDbLine
10
-395.55564959778229
20
289.14326058810735
30
0
11
-395.00260959778234
21
289.14326058810735
31
0
0
LINE
5
879
100
AcDbEntity
8
0
100
AcDbLine
10
-399.70335959778231
20
289.14329058810733
30
0
11
-399.1503195977823
21
289.14326058810735
31
0
0
LINE
5
880
100
AcDbEntity
8
0
100
AcDbLine
10
-545.07451859778234
20
339.02937058810744
30
0
11
-545.62755859778224
21
339.02980058810738
31
0
0
LINE
5
881
100
AcDbEntity
8
0
100
AcDbLine
10
-380.98722959778229
20
249.54243058810738
30
0
11
-469.27427959778231
21
249.54316058810736
31
0
0
LINE
5
882
100
AcDbEntity
8
0
100
AcDbLine
10
-483.84410359778229
20
397.0230805881074
30
0
11
-483.29106359778228
21
397.0230805881074
31
0
0
LINE
5
883
100
AcDbEntity
8
0
100
AcDbLine
10
-388.08976959778227
20
289.14320058810739
30
0
11
-387.53672959778226
21
289.14320058810739
31
0
0
LINE
5
884
100
AcDbEntity
8
0
100
AcDbLine
10
-569.68419559778226
20
339.02690058810742
30
0
11
-570.23720759778234
21
339.02357058810736
31
0
0
LINE
5
885
100
AcDbEntity
8
0
100
AcDbLine
10
-416.38054159778227
20
308.81227058810737
30
0
11
-415.82756259778228
21
308.81227058810737
31
0
0
LINE
5
886
100
AcDbEntity
8
0
100
AcDbLine
10
-422.64781459778226
20
367.14210058810744
30
0
11
-422.09483559778226
21
367.14210058810744
31
0
0
LINE
5
887
100
AcDbEntity
8
0
100
AcDbLine
10
-389.74882959778228
20
289.14320058810739
30
0
11
-389.19578959778227
21
289.14320058810739
31
0
0
LINE
5
888
100
AcDbEntity
8
0
100
AcDbLine
10
-561.66533959778224
20
339.04310058810734
30
0
11
-562.21837859778225
21
339.04353058810739
31
0
0
LINE
5
889
100
AcDbEntity
8
0
100
AcDbLine
10
-401.36240959778235
20
289.14329058810733
30
0
11
-400.80936959778228
21
289.14329058810733
31
0
0
LINE
5
890
100
AcDbEntity
8
0
100
AcDbLine
10
-447.53410559778229
20
367.14210058810744
30
0
11
-446.98106659778233
21
367.14210058810744
31
0
0
LINE
5
891
100
AcDbEntity
8
0
100
AcDbLine
10
-408.82829959778229
20
289.14335058810735
30
0
11
-408.2753195977823
21
289.14335058810735
31
0
0
LINE
5
892
100
AcDbEntity
8
0
100
AcDbLine
10
-518.52916969778232
20
339.00740058810743
30
0
11
-519.08220919778228
21
339.00782058810739
31
0
0
LINE
5
893
100
AcDbEntity
8
0
100
AcDbLine
10
-407.22581959778222
20
348.21565058810734
30
0
11
-407.77885959778234
21
348.21370058810743
31
0
0
LINE
5
894
100
AcDbEntity
8
0
100
AcDbLine
10
-426.7955805977823
20
367.14210058810744
30
0
11
-426.24254059778229
21
367.14210058810744
31
0
0
LINE
5
895
100
AcDbEntity
8
0
100
AcDbLine
10
-416.29417659778227
20
289.14341058810743
30
0
11
-415.74113759778231
21
289.14341058810743
31
0
0
LINE
5
896
100
AcDbEntity
8
0
100
AcDbLine
10
-541.75633459778237
20
339.02662058810739
30
0
11
-542.30937459778238
21
339.02705058810739
31
0
0
LINE
5
897
100
AcDbEntity
8
0
100
AcDbLine
10
-420.44194259778232
20
289.14344058810735
30
0
11
-419.8889035977823
21
289.14344058810735
31
0
0
LINE
5
898
100
AcDbEntity
8
0
100
AcDbLine
10
-483.29106359778228
20
397.0230805881074
30
0
11
-483.27928459778229
21
402.77366058810742
31
0
0
LINE
5
899
100
AcDbEntity
8
0
100
AcDbLine
10
-414.63513459778227
20
289.14341058810743
30
0
11
-414.0820795977823
21
289.14338058810745
31
0
0
LINE
5
900
100
AcDbEntity
8
0
100
AcDbLine
10
-529.31322759778232
20
339.01631058810744
30
0
11
-529.86626659778233
21
339.01677058810742
31
0
0
LINE
5
901
100
AcDbEntity
8
0
100
AcDbLine
10
-403.90763959778224
20
348.22725058810738
30
0
11
-404.46067959778225
21
348.22529058810738
31
0
0
LINE
5
902
100
AcDbEntity
8
0
100
AcDbLine
10
-407.71604959778233
20
367.14210058810744
30
0
11
-407.16300959778232
21
367.14210058810744
31
0
0
ARC
5
903
100
AcDbEntity
8
0
100
AcDbCircle
10
477.84716507537831
20
265.68498911051103
30
0
40
5.5302485226436282
210
-0
220
0
230
-1
100
AcDbArc
50
-89.999466205490464
51
0.00053332978438624956
0
LINE
5
904
100
AcDbEntity
8
0
100
AcDbLine
10
-559.17674459778232
20
339.04103058810739
30
0
11
-559.72972359778237
21
339.04149058810737
31
0
0
LINE
5
905
100
AcDbEntity
8
0
100
AcDbLine
10
-422.1574575977823
20
348.16334058810742
30
0
11
-422.71049759778231
21
348.16139058810734
31
0
0
LINE
5
906
100
AcDbEntity
8
0
100
AcDbLine
10
-444.21592959778229
20
367.14210058810744
30
0
11
-443.66288959778228
21
367.14210058810744
31
0
0
LINE
5
907
100
AcDbEntity
8
0
100
AcDbLine
10
-417.9532955977823
20
289.14344058810735
30
0
11
-417.40025559778235
21
289.14344058810735
31
0
0
ARC
5
908
100
AcDbEntity
8
0
100
AcDbCircle
10
550.77676556090796
20
289.47392958336621
30
0
40
3.3408183338256281
210
0
220
-0
230
-1
100
AcDbArc
50
233.36784331512155
51
246.1985109764102
0
LINE
5
909
100
AcDbEntity
8
0
100
AcDbLine
10
-396.38517959778227
20
289.14326058810735
30
0
11
-395.8321395977822
21
289.14326058810735
31
0
0
LINE
5
910
100
AcDbEntity
8
0
100
AcDbLine
10
-417.1802845977823
20
348.18077058810741
30
0
11
-417.7332635977823
21
348.17885058810737
31
0
0
LINE
5
911
100
AcDbEntity
8
0
100
AcDbLine
10
-552.22954759778236
20
299.69139058810742
30
0
11
-551.67650859778234
21
299.69139058810742
31
0
0
LINE
5
912
100
AcDbEntity
8
0
100
AcDbLine
10
-414.72148359778231
20
308.81227058810737
30
0
11
-414.16843959778237
21
308.81227058810737
31
0
0
LINE
5
913
100
AcDbEntity
8
0
100
AcDbLine
10
-461.14573959778227
20
348.02681058810742
30
0
11
-461.6987935977823
21
348.02488058810746
31
0
0
LINE
5
914
100
AcDbEntity
8
0
100
AcDbLine
10
-419.61235259778226
20
289.14344058810735
30
0
11
-419.05937459778227
21
289.14344058810735
31
0
0
LINE
5
915
100
AcDbEntity
8
0
100
AcDbLine
10
-453.53312959778231
20
406.55378058810743
30
0
11
-454.08618459778222
21
406.55378058810743
31
0
0
LINE
5
916
100
AcDbEntity
8
0
100
AcDbLine
10
-415.46464759778235
20
289.14341058810743
30
0
11
-414.91160859778233
21
289.14341058810743
31
0
0
LINE
5
917
100
AcDbEntity
8
0
100
AcDbLine
10
-412.69334959778229
20
367.14210058810744
30
0
11
-412.14030959778228
21
367.14210058810744
31
0
0
LINE
5
918
100
AcDbEntity
8
0
100
AcDbLine
10
-407.16923959778228
20
289.14332058810737
30
0
11
-406.61619959778227
21
289.14332058810737
31
0
0
ARC
5
919
100
AcDbEntity
8
0
100
AcDbCircle
10
480.05916026304584
20
276.26594325300812
30
0
40
3.3182073352317589
210
0
220
0
230
-1
100
AcDbArc
50
0.00099000972352729648
51
90.000512232728838
0
LINE
5
920
100
AcDbEntity
8
0
100
AcDbLine
10
-403.02152959778226
20
289.14332058810737
30
0
11
-402.46848959778225
21
289.14332058810737
31
0
0
LINE
5
921
100
AcDbEntity
8
0
100
AcDbLine
10
-459.97722159778226
20
367.14210058810744
30
0
11
-459.42424259778227
21
367.14210058810744
31
0
0
LINE
5
922
100
AcDbEntity
8
0
100
AcDbLine
10
-398.04423959778228
20
289.14326058810735
30
0
11
-397.49125959778223
21
289.14326058810735
31
0
0
LINE
5
923
100
AcDbEntity
8
0
100
AcDbLine
10
-380.96690959778232
20
329.50779058810735
30
0
11
-380.95847959778223
21
330.06074058810736
31
0
0
LINE
5
924
100
AcDbEntity
8
0
100
AcDbLine
10
-469.27421859778229
20
260.1546805881074
30
0
11
-477.84721659778228
21
260.15474058810742
31
0
0
LINE
5
925
100
AcDbEntity
8
0
100
AcDbLine
10
-416.84105159778227
20
367.14210058810744
30
0
11
-416.28801259778231
21
367.14210058810744
31
0
0
LINE
5
926
100
AcDbEntity
8
0
100
AcDbLine
10
-409.65788959778229
20
289.14338058810745
30
0
11
-409.10484959778228
21
289.14338058810745
31
0
0
LINE
5
927
100
AcDbEntity
8
0
100
AcDbLine
10
-380.90373959778225
20
333.65504058810734
30
0
11
-380.89530959778233
21
334.20799058810735
31
0
0
ARC
5
928
100
AcDbEntity
8
0
100
AcDbCircle
10
-493.33192251545165
20
274.56182822235053
30
0
40
9.9546376357305473
210
0
220
0
230
1
100
AcDbArc
50
269.99900954794799
51
314.99930113322597
0
LINE
5
929
100
AcDbEntity
8
0
100
AcDbLine
10
-461.6363395977823
20
367.14210058810744
30
0
11
-461.08330059778234
21
367.14210058810744
31
0
0
LINE
5
930
100
AcDbEntity
8
0
100
AcDbLine
10
-393.89652959778232
20
289.14323058810737
30
0
11
-393.34354959778233
21
289.14323058810737
31
0
0
LINE
5
931
100
AcDbEntity
8
0
100
AcDbLine
10
-380.97953959778232
20
328.67836058810735
30
0
11
-380.97111959778232
21
329.2313405881074
31
0
0
LINE
5
932
100
AcDbEntity
8
0
100
AcDbLine
10
-418.83934259778232
20
348.17494058810735
30
0
11
-419.39238259778227
21
348.1730505881074
31
0
0
LINE
5
933
100
AcDbEntity
8
0
100
AcDbLine
10
-395.27293959778228
20
367.14210058810744
30
0
11
-394.71989959778227
21
367.14210058810744
31
0
0
LINE
5
934
100
AcDbEntity
8
0
100
AcDbLine
10
-469.27427959778231
20
249.54316058810736
30
0
11
-469.27421859778229
21
260.1546805881074
31
0
0
LINE
5
935
100
AcDbEntity
8
0
100
AcDbLine
10
-508.54033909778229
20
318.63804058810734
30
0
11
-509.09337869778233
21
318.63804058810734
31
0
0
LINE
5
936
100
AcDbEntity
8
0
100
AcDbLine
10
-421.27147159778235
20
289.14344058810735
30
0
11
-420.71843159778234
21
289.14344058810735
31
0
0
LINE
5
937
100
AcDbEntity
8
0
100
AcDbLine
10
-441.72734359778235
20
367.14210058810744
30
0
11
-441.17430359778234
21
367.14210058810744
31
0
0
LINE
5
938
100
AcDbEntity
8
0
100
AcDbLine
10
-391.40794959778236
20
289.14320058810739
30
0
11
-390.85490959778235
21
289.14320058810739
31
0
0
LINE
5
939
100
AcDbEntity
8
0
100
AcDbLine
10
-443.57860059778233
20
406.55378058810743
30
0
11
-444.13163959778228
21
406.55378058810743
31
0
0
LINE
5
940
100
AcDbEntity
8
0
100
AcDbLine
10
-468.79210159778233
20
279.58406058810738
30
0
11
-468.79185759778233
21
308.81227058810737
31
0
0
LINE
5
941
100
AcDbEntity
8
0
100
AcDbLine
10
-387.80705959778231
20
367.14210058810744
30
0
11
-387.2540195977823
21
367.14210058810744
31
0
0
LINE
5
942
100
AcDbEntity
8
0
100
AcDbLine
10
-405.56675959778232
20
348.22145058810742
30
0
11
-406.11973959778231
21
348.21949058810736
31
0
0
LINE
5
943
100
AcDbEntity
8
0
100
AcDbLine
10
-567.99086659778231
20
318.63804058810734
30
0
11
-568.54387559778229
21
318.63804058810734
31
0
0
LINE
5
944
100
AcDbEntity
8
0
100
AcDbLine
10
-403.07810959778232
20
348.23015058810739
30
0
11
-403.63114959778227
21
348.22822058810743
31
0
0
LINE
5
945
100
AcDbEntity
8
0
100
AcDbLine
10
-460.80681059778226
20
367.14210058810744
30
0
11
-460.2537715977823
21
367.14210058810744
31
0
0
LINE
5
946
100
AcDbEntity
8
0
100
AcDbLine
10
-413.86211959778228
20
348.1923905881074
30
0
11
-414.41514959778232
21
348.19044058810738
31
0
0
LINE
5
947
100
AcDbEntity
8
0
100
AcDbLine
10
-584.58171359778237
20
318.63804058810734
30
0
11
-585.13475259778238
21
318.63804058810734
31
0
0
LINE
5
948
100
AcDbEntity
8
0
100
AcDbLine
10
-421.32792959778226
20
348.16624058810737
30
0
11
-421.88096859778227
21
348.16432058810739
31
0
0
LINE
5
949
100
AcDbEntity
8
0
100
AcDbLine
10
-392.78429959778231
20
367.14210058810744
30
0
11
-392.23124959778232
21
367.14210058810744
31
0
0
LINE
5
950
100
AcDbEntity
8
0
100
AcDbLine
10
-402.24857959778234
20
348.23304058810743
30
0
11
-402.80161959778235
21
348.23112058810744
31
0
0
LINE
5
951
100
AcDbEntity
8
0
100
AcDbLine
10
-380.95426959778229
20
330.33723058810745
30
0
11
-380.94585959778226
21
330.89021058810744
31
0
0
LINE
5
952
100
AcDbEntity
8
0
100
AcDbLine
10
-538.91264559778233
20
279.58415058810738
30
0
11
-539.46562459778227
21
279.58415058810738
31
0
0
LINE
5
953
100
AcDbEntity
8
0
100
AcDbLine
10
-463.63432559778232
20
348.01811058810745
30
0
11
-464.18736559778233
21
348.01619058810735
31
0
0
LINE
5
954
100
AcDbEntity
8
0
100
AcDbLine
10
-415.52116659778227
20
348.18660058810735
30
0
11
-416.07420559778228
21
348.18464058810741
31
0
0
LINE
5
955
100
AcDbEntity
8
0
100
AcDbLine
10
-380.73954959778229
20
344.4378205881074
30
0
11
-380.73112959778229
21
344.99080058810733
31
0
0
LINE
5
956
100
AcDbEntity
8
0
100
AcDbLine
10
-408.05534959778231
20
348.2127205881074
30
0
11
-408.60838959778226
21
348.21077058810744
31
0
0
LINE
5
957
100
AcDbEntity
8
0
100
AcDbLine
10
-402.73881959778231
20
367.14210058810744
30
0
11
-402.1857795977823
21
367.14210058810744
31
0
0
LINE
5
958
100
AcDbEntity
8
0
100
AcDbLine
10
-414.69163759778223
20
348.18947058810744
30
0
11
-415.24467759778224
21
348.18754058810737
31
0
0
LINE
5
959
100
AcDbEntity
8
0
100
AcDbLine
10
-566.35905659778234
20
336.83488058810747
30
0
11
-566.36082659778231
21
337.38789058810738
31
0
0
LINE
5
960
100
AcDbEntity
8
0
100
AcDbLine
10
-419.6688715977823
20
348.17207058810737
30
0
11
-420.22191059778231
21
348.17012058810741
31
0
0
LINE
5
961
100
AcDbEntity
8
0
100
AcDbLine
10
-432.9414545977823
20
348.12556058810742
30
0
11
-433.49449359778225
21
348.12364058810743
31
0
0
LINE
5
962
100
AcDbEntity
8
0
100
AcDbLine
10
-520.11333719778236
20
274.83433058810738
30
0
11
-520.11333719778224
21
279.58415058810738
31
0
0
LINE
5
963
100
AcDbEntity
8
0
100
AcDbLine
10
-535.63872759778224
20
299.69139058810742
30
0
11
-535.08568859778234
21
299.69139058810742
31
0
0
ARC
5
964
100
AcDbEntity
8
0
100
AcDbCircle
10
-529.51113609714776
20
274.83433694586449
30
0
40
9.9544885006364989
210
0
220
0
230
1
100
AcDbArc
50
180.00003659294165
51
268.39772633556908
0
LINE
5
965
100
AcDbEntity
8
0
100
AcDbLine
10
-416.35069559778231
20
348.18367058810736
30
0
11
-416.90373459778232
21
348.1817405881074
31
0
0
ARC
5
966
100
AcDbEntity
8
0
100
AcDbCircle
10
550.20620841628397
20
290.79613296413277
30
0
40
2.259677271689954
210
0
220
0
230
-1
100
AcDbArc
50
111.3602186797836
51
175.07040387644736
0
LINE
5
967
100
AcDbEntity
8
0
100
AcDbLine
10
-411.37351959778232
20
348.20112058810736
30
0
11
-411.92649959778231
21
348.19917058810745
31
0
0
LINE
5
968
100
AcDbEntity
8
0
100
AcDbLine
10
-449.1931635977823
20
367.14210058810744
30
0
11
-448.64018459778231
21
367.14210058810744
31
0
0
LINE
5
969
100
AcDbEntity
8
0
100
AcDbLine
10
-398.1008795977823
20
348.24757058810746
30
0
11
-398.65391959778231
21
348.24565058810742
31
0
0
LINE
5
970
100
AcDbEntity
8
0
100
AcDbLine
10
-566.33806859778235
20
330.19856058810745
30
0
11
-566.33983859778232
21
330.75160058810741
31
0
0
LINE
5
971
100
AcDbEntity
8
0
100
AcDbLine
10
-582.95662159778226
20
338.94661058810743
30
0
11
-583.50963859778233
21
338.94325058810739
31
0
0
LINE
5
972
100
AcDbEntity
8
0
100
AcDbLine
10
-583.78615859778233
20
338.94160058810741
30
0
11
-584.33916759778231
21
338.93824058810736
31
0
0
LINE
5
973
100
AcDbEntity
8
0
100
AcDbLine
10
-560.80150859778223
20
318.63804058810734
30
0
11
-561.35454759778224
21
318.63804058810734
31
0
0
LINE
5
974
100
AcDbEntity
8
0
100
AcDbLine
10
-566.33177859778232
20
318.63804058810734
30
0
11
-566.88481759778233
21
318.63804058810734
31
0
0
LINE
5
975
100
AcDbEntity
8
0
100
AcDbLine
10
-386.48734959778233
20
348.28825058810736
30
0
11
-387.04038959778234
21
348.28633058810738
31
0
0
LINE
5
976
100
AcDbEntity
8
0
100
AcDbLine
10
-548.91136459778227
20
299.69139058810742
30
0
11
-548.35838559778233
21
299.69139058810742
31
0
0
LINE
5
977
100
AcDbEntity
8
0
100
AcDbLine
10
-522.87480409778232
20
279.58415058810738
30
0
11
-522.32176459778225
21
279.58415058810738
31
0
0
LINE
5
978
100
AcDbEntity
8
0
100
AcDbLine
10
-566.44188559778229
20
343.90162058810745
30
0
11
-566.44188559778229
21
377.49369058810743
31
0
0
LINE
5
979
100
AcDbEntity
8
0
100
AcDbLine
10
-528.44932759778226
20
318.63804058810734
30
0
11
-529.00236759778227
21
318.63804058810734
31
0
0
LINE
5
980
100
AcDbEntity
8
0
100
AcDbLine
10
-550.84697959778237
20
318.63804058810734
30
0
11
-551.40001959778238
21
318.63804058810734
31
0
0
LINE
5
981
100
AcDbEntity
8
0
100
AcDbLine
10
-437.08915959778233
20
348.11104058810741
30
0
11
-437.64219959778234
21
348.1091105881074
31
0
0
LINE
5
982
100
AcDbEntity
8
0
100
AcDbLine
10
-503.5630975977823
20
318.63804058810734
30
0
11
-504.11607659778224
21
318.63804058810734
31
0
0
LINE
5
983
100
AcDbEntity
8
0
100
AcDbLine
10
-380.98673959778228
20
322.08494058810737
30
0
11
-380.98673959778228
21
322.63798058810744
31
0
0
LINE
5
984
100
AcDbEntity
8
0
100
AcDbLine
10
-485.86619859778233
20
279.58415058810738
30
0
11
-485.31315859778232
21
279.58415058810738
31
0
0
LINE
5
985
100
AcDbEntity
8
0
100
AcDbLine
10
-428.45463859778226
20
367.14210058810744
30
0
11
-427.90159859778225
21
367.14210058810744
31
0
0
LINE
5
986
100
AcDbEntity
8
0
100
AcDbLine
10
-566.35380759778229
20
335.17579058810736
30
0
11
-566.35557759778226
21
335.72883058810737
31
0
0
LINE
5
987
100
AcDbEntity
8
0
100
AcDbLine
10
-380.75217959778229
20
343.60838058810742
30
0
11
-380.74375959778229
21
344.16133058810743
31
0
0
LINE
5
988
100
AcDbEntity
8
0
100
AcDbLine
10
-566.35118759778231
20
334.34626058810744
30
0
11
-566.35295759778228
21
334.89930058810734
31
0
0
LINE
5
989
100
AcDbEntity
8
0
100
AcDbLine
10
-428.79374959778232
20
348.1400905881074
30
0
11
-429.34680459778235
21
348.13817058810741
31
0
0
LINE
5
990
100
AcDbEntity
8
0
100
AcDbLine
10
-573.7976555977823
20
318.63804058810734
30
0
11
-574.35069559778231
21
318.63804058810734
31
0
0
LINE
5
991
100
AcDbEntity
8
0
100
AcDbLine
10
-458.51036359778226
20
406.55378058810743
30
0
11
-458.93144459778227
21
406.55378058810743
31
0
0
LINE
5
992
100
AcDbEntity
8
0
100
AcDbLine
10
-504.39262659778228
20
318.63804058810734
30
0
11
-504.94566599778233
21
318.63804058810734
31
0
0
LINE
5
993
100
AcDbEntity
8
0
100
AcDbLine
10
-531.17021459778232
20
279.58415058810738
30
0
11
-530.61717459778231
21
279.58415058810738
31
0
0
LINE
5
994
100
AcDbEntity
8
0
100
AcDbLine
10
-558.03636459778227
20
299.69139058810742
30
0
11
-557.48332459778237
21
299.69139058810742
31
0
0
LINE
5
995
100
AcDbEntity
8
0
100
AcDbLine
10
-496.65019459778227
20
279.58415058810738
30
0
11
-496.09721659778234
21
279.58415058810738
31
0
0
LINE
5
996
100
AcDbEntity
8
0
100
AcDbLine
10
-486.60924059778233
20
397.0230805881074
30
0
11
-487.16227959778229
21
397.0230805881074
31
0
0
LINE
5
997
100
AcDbEntity
8
0
100
AcDbLine
10
-586.16087559778225
20
318.63804058810734
30
0
11
-609.79524459778236
21
318.63804058810734
31
0
0
LINE
5
998
100
AcDbEntity
8
0
100
AcDbLine
10
-560.5249585977823
20
299.69139058810742
30
0
11
-559.97197959778237
21
299.69139058810742
31
0
0
LINE
5
999
100
AcDbEntity
8
0
100
AcDbLine
10
-498.58580259778228
20
318.63804058810734
30
0
11
-499.13884259778229
21
318.63804058810734
31
0
0
LINE
5
1000
100
AcDbEntity
8
0
100
AcDbLine
10
-559.97197959778237
20
318.63804058810734
30
0
11
-560.5249585977823
21
318.63804058810734
31
0
0
LINE
5
1001
100
AcDbEntity
8
0
100
AcDbLine
10
-380.98673959778228
20
312.13044058810738
30
0
11
-380.98673959778228
21
312.68348058810739
31
0
0
LINE
5
1002
100
AcDbEntity
8
0
100
AcDbLine
10
-548.35838559778233
20
318.63804058810734
30
0
11
-548.91136459778227
21
318.63804058810734
31
0
0
LINE
5
1003
100
AcDbEntity
8
0
100
AcDbLine
10
-384.82829959778229
20
348.29405058810744
30
0
11
-385.3813395977823
21
348.29213058810745
31
0
0
LINE
5
1004
100
AcDbEntity
8
0
100
AcDbLine
10
-566.36430559778228
20
338.49397058810746
30
0
11
-566.36607659778224
21
339.04698058810737
31
0
0
LINE
5
1005
100
AcDbEntity
8
0
100
AcDbLine
10
-523.47209419778233
20
318.63804058810734
30
0
11
-524.02513369778239
21
318.63804058810734
31
0
0
LINE
5
1006
100
AcDbEntity
8
0
100
AcDbLine
10
-510.23375949778227
20
339.00050058810734
30
0
11
-510.78679909778231
21
339.00099058810736
31
0
0
LINE
5
1007
100
AcDbEntity
8
0
100
AcDbLine
10
-483.65403959778229
20
318.63804058810734
30
0
11
-484.20707959778224
21
318.63804058810734
31
0
0
LINE
5
1008
100
AcDbEntity
8
0
100
AcDbLine
10
-516.83574929778229
20
318.63804058810734
30
0
11
-517.38878879778235
21
318.63804058810734
31
0
0
LINE
5
1009
100
AcDbEntity
8
0
100
AcDbLine
10
-566.33177859778232
20
323.61531058810738
30
0
11
-566.33177859778232
21
324.16832058810741
31
0
0
LINE
5
1010
100
AcDbEntity
8
0
100
AcDbLine
10
-413.0201395977823
20
406.55568058810741
30
0
11
-412.46708959778232
21
406.55568058810741
31
0
0
LINE
5
1011
100
AcDbEntity
8
0
100
AcDbLine
10
-565.77873859778231
20
318.63804058810734
30
0
11
-566.33177859778232
21
318.63804058810734
31
0
0
LINE
5
1012
100
AcDbEntity
8
0
100
AcDbLine
10
-380.86582959778229
20
336.14338058810745
30
0
11
-380.85740959778229
21
336.69633058810746
31
0
0
LINE
5
1013
100
AcDbEntity
8
0
100
AcDbLine
10
-566.33195759778232
20
328.26298058810744
30
0
11
-566.33177859778232
21
328.20289058810744
31
0
0
LINE
5
1014
100
AcDbEntity
8
0
100
AcDbLine
10
-491.94945059778229
20
318.63804058810734
30
0
11
-492.50248959778224
21
318.63804058810734
31
0
0
LINE
5
1015
100
AcDbEntity
8
0
100
AcDbLine
10
-380.98673959778228
20
312.95997058810735
30
0
11
-380.98673959778228
21
313.51301058810742
31
0
0
LINE
5
1016
100
AcDbEntity
8
0
100
AcDbLine
10
-497.47978459778233
20
279.58415058810738
30
0
11
-496.92674459778232
21
279.58415058810738
31
0
0
LINE
5
1017
100
AcDbEntity
8
0
100
AcDbLine
10
-440.8977535977823
20
367.14210058810744
30
0
11
-440.34471359778229
21
367.14210058810744
31
0
0
ARC
5
1018
100
AcDbEntity
8
0
100
AcDbCircle
10
609.79524556846388
20
324.1683146174289
30
0
40
5.5302740293216033
210
0
220
-0
230
-1
100
AcDbArc
50
-90.000010056636356
51
6.1855885940535041e-05
0
LINE
5
1019
100
AcDbEntity
8
0
100
AcDbLine
10
-554.99467759778224
20
318.63804058810734
30
0
11
-555.54771659778226
21
318.63804058810734
31
0
0
LINE
5
1020
100
AcDbEntity
8
0
100
AcDbLine
10
-484.20707959778224
20
279.58415058810738
30
0
11
-483.65403959778229
21
279.58415058810738
31
0
0
LINE
5
1021
100
AcDbEntity
8
0
100
AcDbLine
10
-400.25016959778225
20
367.14210058810744
30
0
11
-399.69718959778226
21
367.14210058810744
31
0
0
LINE
5
1022
100
AcDbEntity
8
0
100
AcDbLine
10
-615.32551959778232
20
328.20289058810744
30
0
11
-615.36622959778231
21
333.17408058810742
31
0
0
LINE
5
1023
100
AcDbEntity
8
0
100
AcDbLine
10
-561.35454759778224
20
299.69139058810742
30
0
11
-560.80150859778223
21
299.69139058810742
31
0
0
LINE
5
1024
100
AcDbEntity
8
0
100
AcDbLine
10
-487.80174459778232
20
318.63804058810734
30
0
11
-488.35478459778233
21
318.63804058810734
31
0
0
LINE
5
1025
100
AcDbEntity
8
0
100
AcDbLine
10
-446.21403759778229
20
348.07911058810737
30
0
11
-446.76707659778231
21
348.0771605881074
31
0
0
LINE
5
1026
100
AcDbEntity
8
0
100
AcDbLine
10
-491.67296059778232
20
279.58415058810738
30
0
11
-491.11992159778231
21
279.58415058810738
31
0
0
LINE
5
1027
100
AcDbEntity
8
0
100
AcDbLine
10
-481.16545359778229
20
318.63804058810734
30
0
11
-481.71843159778228
21
318.63804058810734
31
0
0
LINE
5
1028
100
AcDbEntity
8
0
100
AcDbLine
10
-494.16160859778233
20
279.58415058810738
30
0
11
-493.60858359778234
21
279.58415058810738
31
0
0
LINE
5
1029
100
AcDbEntity
8
0
100
AcDbLine
10
-566.33177859778232
20
321.95619058810735
30
0
11
-566.33177859778232
21
322.50923058810741
31
0
0
LINE
5
1030
100
AcDbEntity
8
0
100
AcDbLine
10
-440.26042459778233
20
406.55378058810743
30
0
11
-440.81346359778229
21
406.55378058810743
31
0
0
LINE
5
1031
100
AcDbEntity
8
0
100
AcDbLine
10
-483.37755059778232
20
279.58415058810738
30
0
11
-483.37730659778231
21
279.58415058810738
31
0
0
LINE
5
1032
100
AcDbEntity
8
0
100
AcDbLine
10
-427.13469159778231
20
348.14592058810746
30
0
11
-427.68773159778226
21
348.14399058810739
31
0
0
LINE
5
1033
100
AcDbEntity
8
0
100
AcDbLine
10
-533.65886959778231
20
279.58415058810738
30
0
11
-533.1058295977823
21
279.58415058810738
31
0
0
LINE
5
1034
100
AcDbEntity
8
0
100
AcDbLine
10
-549.42851459778228
20
286.41725058810744
30
0
11
-553.21635659778235
21
286.4172205881074
31
0
0
LINE
5
1035
100
AcDbEntity
8
0
100
AcDbLine
10
-545.04021659778232
20
318.63804058810734
30
0
11
-545.59318759778239
21
318.63804058810734
31
0
0
LINE
5
1036
100
AcDbEntity
8
0
100
AcDbLine
10
-562.18407659778234
20
299.69139058810742
30
0
11
-561.63103759778232
21
299.69139058810742
31
0
0
LINE
5
1037
100
AcDbEntity
8
0
100
AcDbLine
10
-488.35478459778233
20
279.58415058810738
30
0
11
-487.80174459778232
21
279.58415058810738
31
0
0
LINE
5
1038
100
AcDbEntity
8
0
100
AcDbLine
10
-456.65904459778233
20
367.14210058810744
30
0
11
-456.10606659778233
21
367.14210058810744
31
0
0
LINE
5
1039
100
AcDbEntity
8
0
100
AcDbLine
10
-556.65379559778228
20
318.63804058810734
30
0
11
-557.20683559778229
21
318.63804058810734
31
0
0
LINE
5
1040
100
AcDbEntity
8
0
100
AcDbLine
10
-572.1385675977823
20
318.63804058810734
30
0
11
-572.69160759778231
21
318.63804058810734
31
0
0
LINE
5
1041
100
AcDbEntity
8
0
100
AcDbLine
10
-544.21062759778226
20
318.63804058810734
30
0
11
-544.76366659778228
21
318.63804058810734
31
0
0
LINE
5
1042
100
AcDbEntity
8
0
100
AcDbLine
10
-411.03422959778231
20
367.14210058810744
30
0
11
-410.4811895977823
21
367.14210058810744
31
0
0
LINE
5
1043
100
AcDbEntity
8
0
100
AcDbLine
10
-501.07445059778229
20
318.63804058810734
30
0
11
-501.62749759778228
21
318.63804058810734
31
0
0
LINE
5
1044
100
AcDbEntity
8
0
100
AcDbLine
10
-567.1613065977823
20
318.63804058810734
30
0
11
-567.71434659778231
21
318.63804058810734
31
0
0
ARC
5
1045
100
AcDbEntity
8
0
100
AcDbCircle
10
609.55589170557903
20
333.15060423375286
30
0
40
5.8103853194764135
210
0
220
0
230
-1
100
AcDbArc
50
0.23149922228997999
51
79.886711893691881
0
LINE
5
1046
100
AcDbEntity
8
0
100
AcDbLine
10
-460.31621059778229
20
348.02974058810742
30
0
11
-460.86920459778236
21
348.02778058810736
31
0
0
LINE
5
1047
100
AcDbEntity
8
0
100
AcDbLine
10
-539.23338559778233
20
318.63804058810734
30
0
11
-539.78642559778234
21
318.63804058810734
31
0
0
LINE
5
1048
100
AcDbEntity
8
0
100
AcDbLine
10
-380.98673959778228
20
322.91450058810739
30
0
11
-380.98673959778228
21
323.4675405881074
31
0
0
LINE
5
1049
100
AcDbEntity
8
0
100
AcDbLine
10
-492.77903959778229
20
318.63804058810734
30
0
11
-493.3320795977823
21
318.63804058810734
31
0
0
LINE
5
1050
100
AcDbEntity
8
0
100
AcDbLine
10
-410.20469959778234
20
367.14210058810744
30
0
11
-409.65165959778233
21
367.14210058810744
31
0
0
LINE
5
1051
100
AcDbEntity
8
0
100
AcDbLine
10
-566.33177859778232
20
320.29713058810739
30
0
11
-566.33177859778232
21
320.8501705881074
31
0
0
LINE
5
1052
100
AcDbEntity
8
0
100
AcDbLine
10
-380.98673959778228
20
310.47136058810736
30
0
11
-380.98673959778228
21
311.02437058810744
31
0
0
LINE
5
1053
100
AcDbEntity
8
0
100
AcDbLine
10
-566.35643659778236
20
336.00532058810745
30
0
11
-566.35820659778233
21
336.55836058810735
31
0
0
LINE
5
1054
100
AcDbEntity
8
0
100
AcDbLine
10
-403.06559959778224
20
421.36656058810735
30
0
11
-403.06559959778224
21
421.65599058810733
31
0
0
LINE
5
1055
100
AcDbEntity
8
0
100
AcDbLine
10
-566.33177859778232
20
324.44484058810735
30
0
11
-566.33177859778232
21
324.99788058810736
31
0
0
LINE
5
1056
100
AcDbEntity
8
0
100
AcDbLine
10
-380.98673959778228
20
320.42585058810738
30
0
11
-380.98673959778228
21
320.97889058810733
31
0
0
LINE
5
1057
100
AcDbEntity
8
0
100
AcDbLine
10
-561.63103759778232
20
318.63804058810734
30
0
11
-562.18407659778234
21
318.63804058810734
31
0
0
LINE
5
1058
100
AcDbEntity
8
0
100
AcDbLine
10
-452.70360059778227
20
406.55378058810743
30
0
11
-453.25663959778228
21
406.55378058810743
31
0
0
LINE
5
1059
100
AcDbEntity
8
0
100
AcDbLine
10
-525.13115959778236
20
318.63804058810734
30
0
11
-525.68419859778237
21
318.63804058810734
31
0
0
LINE
5
1060
100
AcDbEntity
8
0
100
AcDbLine
10
-387.31693959778227
20
348.28535058810735
30
0
11
-387.86991959778226
21
348.28340058810738
31
0
0
LINE
5
1061
100
AcDbEntity
8
0
100
AcDbLine
10
-566.33177859778232
20
325.27437058810739
30
0
11
-566.33177859778232
21
325.82740058810737
31
0
0
LINE
5
1062
100
AcDbEntity
8
0
100
AcDbLine
10
-566.33177859778232
20
326.93348058810739
30
0
11
-566.33177859778232
21
327.48649058810742
31
0
0
LINE
5
1063
100
AcDbEntity
8
0
100
AcDbLine
10
-500.24492159778231
20
318.63804058810734
30
0
11
-500.79796059778232
21
318.63804058810734
31
0
0
LINE
5
1064
100
AcDbEntity
8
0
100
AcDbLine
10
-384.4888895977823
20
367.14210058810744
30
0
11
-383.93583959778232
21
367.14210058810744
31
0
0
LINE
5
1065
100
AcDbEntity
8
0
100
AcDbLine
10
-515.17668401778235
20
318.63804058810734
30
0
11
-515.72972359778237
21
318.63804058810734
31
0
0
LINE
5
1066
100
AcDbEntity
8
0
100
AcDbLine
10
-445.87504859778227
20
367.14210058810744
30
0
11
-445.32202359778233
21
367.14210058810744
31
0
0
LINE
5
1067
100
AcDbEntity
8
0
100
AcDbLine
10
-510.19939669778233
20
318.63804058810734
30
0
11
-510.75242869778231
21
318.63804058810734
31
0
0
LINE
5
1068
100
AcDbEntity
8
0
100
AcDbLine
10
-556.37724559778223
20
299.69139058810742
30
0
11
-555.8242665977823
21
299.69139058810742
31
0
0
LINE
5
1069
100
AcDbEntity
8
0
100
AcDbLine
10
-518.49486789778234
20
318.63804058810734
30
0
11
-519.04784639778234
21
318.63804058810734
31
0
0
LINE
5
1070
100
AcDbEntity
8
0
100
AcDbLine
10
-429.2841665977823
20
367.14210058810744
30
0
11
-428.73112759778229
21
367.14210058810744
31
0
0
LINE
5
1071
100
AcDbEntity
8
0
100
AcDbLine
10
-552.50609859778228
20
318.63804058810734
30
0
11
-553.0591375977823
21
318.63804058810734
31
0
0
LINE
5
1072
100
AcDbEntity
8
0
100
AcDbLine
10
-553.21635659778235
20
289.66942058810736
30
0
11
-553.21635659778235
21
284.40602058810737
31
0
0
LINE
5
1073
100
AcDbEntity
8
0
100
AcDbLine
10
-523.70433289778236
20
279.58415058810738
30
0
11
-523.1512933977823
21
279.58415058810738
31
0
0
LINE
5
1074
100
AcDbEntity
8
0
100
AcDbLine
10
-381.51017959778233
20
348.30568058810741
30
0
11
-382.06315959778232
21
348.30372058810735
31
0
0
LINE
5
1075
100
AcDbEntity
8
0
100
AcDbLine
10
-495.26762659778228
20
318.63804058810734
30
0
11
-495.82066559778229
21
318.63804058810734
31
0
0
LINE
5
1076
100
AcDbEntity
8
0
100
AcDbLine
10
-380.87846959778227
20
335.31392058810746
30
0
11
-380.8700395977823
21
335.86689058810742
31
0
0
LINE
5
1077
100
AcDbEntity
8
0
100
AcDbLine
10
-538.63609559778229
20
279.58415058810738
30
0
11
-538.08305559778228
21
279.58415058810738
31
0
0
LINE
5
1078
100
AcDbEntity
8
0
100
AcDbLine
10
-411.86381959778231
20
367.14210058810744
30
0
11
-411.3107795977823
21
367.14210058810744
31
0
0
LINE
5
1079
100
AcDbEntity
8
0
100
AcDbLine
10
-496.92674459778232
20
318.63804058810734
30
0
11
-497.47978459778233
21
318.63804058810734
31
0
0
LINE
5
1080
100
AcDbEntity
8
0
100
AcDbLine
10
-380.98673959778228
20
317.10768058810737
30
0
11
-380.98673959778228
21
317.66072058810744
31
0
0
LINE
5
1081
100
AcDbEntity
8
0
100
AcDbLine
10
-559.14238959778231
20
318.63804058810734
30
0
11
-559.69542959778232
21
318.63804058810734
31
0
0
LINE
5
1082
100
AcDbEntity
8
0
100
AcDbLine
10
-490.75694559778231
20
397.0230805881074
30
0
11
-491.30998459778226
21
397.0230805881074
31
0
0
LINE
5
1083
100
AcDbEntity
8
0
100
AcDbLine
10
-397.76157959778232
20
367.14210058810744
30
0
11
-397.20853959778231
21
367.14210058810744
31
0
0
LINE
5
1084
100
AcDbEntity
8
0
100
AcDbLine
10
-448.5558955977823
20
406.55378058810743
30
0
11
-449.10887359778229
21
406.55378058810743
31
0
0
LINE
5
1085
100
AcDbEntity
8
0
100
AcDbLine
10
-396.44181959778228
20
348.25337058810737
30
0
11
-396.99485959778229
21
348.25145058810739
31
0
0
LINE
5
1086
100
AcDbEntity
8
0
100
AcDbLine
10
-417.6705805977823
20
367.14210058810744
30
0
11
-417.11754059778229
21
367.14210058810744
31
0
0
LINE
5
1087
100
AcDbEntity
8
0
100
AcDbLine
10
-436.75004859778227
20
367.14210058810744
30
0
11
-436.19702359778228
21
367.14210058810744
31
0
0
LINE
5
1088
100
AcDbEntity
8
0
100
AcDbLine
10
-380.77744959778227
20
341.94947058810737
30
0
11
-380.76902959778232
21
342.50245058810742
31
0
0
LINE
5
1089
100
AcDbEntity
8
0
100
AcDbLine
10
-563.95323459778228
20
358.07093058810744
30
0
11
-563.40019459778227
21
358.07093058810744
31
0
0
LINE
5
1090
100
AcDbEntity
8
0
100
AcDbLine
10
-410.53147959778232
20
406.55580058810745
30
0
11
-409.97843959778231
21
406.55583058810743
31
0
0
LINE
5
1091
100
AcDbEntity
8
0
100
AcDbLine
10
-423.47740459778231
20
367.14210058810744
30
0
11
-422.9243645977823
21
367.14210058810744
31
0
0
LINE
5
1092
100
AcDbEntity
8
0
100
AcDbLine
10
-502.73350759778231
20
318.63804058810734
30
0
11
-503.28654759778232
21
318.63804058810734
31
0
0
LINE
5
1093
100
AcDbEntity
8
0
100
AcDbLine
10
-534.08971659778229
20
358.07093058810744
30
0
11
-533.53667659778228
21
358.07093058810744
31
0
0
LINE
5
1094
100
AcDbEntity
8
0
100
AcDbLine
10
-382.82981959778226
20
367.14210058810744
30
0
11
-382.27677959778225
21
367.14210058810744
31
0
0
LINE
5
1095
100
AcDbEntity
8
0
100
AcDbLine
10
-530.77154059778229
20
358.07093058810744
30
0
11
-530.2184935977823
21
358.07093058810744
31
0
0
LINE
5
1096
100
AcDbEntity
8
0
100
AcDbLine
10
-529.00236759778227
20
299.69139058810742
30
0
11
-528.44932759778226
21
299.69139058810742
31
0
0
LINE
5
1097
100
AcDbEntity
8
0
100
AcDbLine
10
-424.30693259778229
20
367.14210058810744
30
0
11
-423.75389359778234
21
367.14210058810744
31
0
0
LINE
5
1098
100
AcDbEntity
8
0
100
AcDbLine
10
-447.7263055977823
20
406.55378058810743
30
0
11
-448.27934559778225
21
406.55378058810743
31
0
0
LINE
5
1099
100
AcDbEntity
8
0
100
AcDbLine
10
-391.9547595977823
20
367.14210058810744
30
0
11
-391.40171959778229
21
367.14210058810744
31
0
0
LINE
5
1100
100
AcDbEntity
8
0
100
AcDbLine
10
-564.78276359778238
20
358.07093058810744
30
0
11
-564.22978459778233
21
358.07093058810744
31
0
0
LINE
5
1101
100
AcDbEntity
8
0
100
AcDbLine
10
-380.98673959778228
20
318.76680058810734
30
0
11
-380.98673959778228
21
319.31981058810743
31
0
0
LINE
5
1102
100
AcDbEntity
8
0
100
AcDbLine
10
-529.11247459778235
20
358.07093058810744
30
0
11
-528.55943559778234
21
358.07093058810744
31
0
0
LINE
5
1103
100
AcDbEntity
8
0
100
AcDbLine
10
-425.47563459778235
20
348.15175058810735
30
0
11
-426.0286735977823
21
348.14979058810735
31
0
0
LINE
5
1104
100
AcDbEntity
8
0
100
AcDbLine
10
-563.1237055977823
20
358.07093058810744
30
0
11
-562.57066559778229
21
358.07093058810744
31
0
0
LINE
5
1105
100
AcDbEntity
8
0
100
AcDbLine
10
-393.11137959778227
20
411.16362058810739
30
0
11
-393.11112959778228
21
406.55671058810742
31
0
0
LINE
5
1106
100
AcDbEntity
8
0
100
AcDbLine
10
-390.29569959778229
20
367.14210058810744
30
0
11
-389.74265959778228
21
367.14210058810744
31
0
0
LINE
5
1107
100
AcDbEntity
8
0
100
AcDbLine
10
-541.55559759778225
20
358.07093058810744
30
0
11
-541.00255859778235
21
358.07093058810744
31
0
0
LINE
5
1108
100
AcDbEntity
8
0
100
AcDbLine
10
-566.3616855977823
20
337.66441058810744
30
0
11
-566.36345559778226
21
338.21742058810742
31
0
0
LINE
5
1109
100
AcDbEntity
8
0
100
AcDbLine
10
-435.43010159778225
20
348.11686058810744
30
0
11
-435.98308059778225
21
348.1149405881074
31
0
0
LINE
5
1110
100
AcDbEntity
8
0
100
AcDbLine
10
-437.57957659778231
20
367.14210058810744
30
0
11
-437.02659859778231
21
367.14210058810744
31
0
0
LINE
5
1111
100
AcDbEntity
8
0
100
AcDbLine
10
-543.10460959778231
20
299.69139058810742
30
0
11
-542.5515695977823
21
299.69139058810742
31
0
0
LINE
5
1112
100
AcDbEntity
8
0
100
AcDbLine
10
-431.77281459778226
20
367.14210058810744
30
0
11
-431.2197745977823
21
367.14210058810744
31
0
0
LINE
5
1113
100
AcDbEntity
8
0
100
AcDbLine
10
-506.91557559778232
20
338.99775058810741
30
0
11
-507.46861519778236
21
338.99824058810736
31
0
0
LINE
5
1114
100
AcDbEntity
8
0
100
AcDbLine
10
-529.94200359778233
20
358.07093058810744
30
0
11
-529.38896459778232
21
358.07093058810744
31
0
0
LINE
5
1115
100
AcDbEntity
8
0
100
AcDbLine
10
-543.9341375977823
20
299.69139058810742
30
0
11
-543.38109859778228
21
299.69139058810742
31
0
0
LINE
5
1116
100
AcDbEntity
8
0
100
AcDbLine
10
-384.77158959778228
20
289.14317058810741
30
0
11
-384.21854959778227
21
289.14314058810737
31
0
0
LINE
5
1117
100
AcDbEntity
8
0
100
AcDbLine
10
-383.99876959778226
20
348.29695058810734
30
0
11
-384.55180959778227
21
348.29503058810747
31
0
0
LINE
5
1118
100
AcDbEntity
8
0
100
AcDbLine
10
-549.42851459778228
20
292.92164058810738
30
0
11
-549.38316559778229
21
292.90059058810743
31
0
0
LINE
5
1119
100
AcDbEntity
8
0
100
AcDbLine
10
-405.22746959778232
20
367.14210058810744
30
0
11
-404.67442959778231
21
367.14210058810744
31
0
0
LINE
5
1120
100
AcDbEntity
8
0
100
AcDbLine
10
-491.15428459778229
20
338.98472058810739
30
0
11
-491.70732359778231
21
338.98518058810737
31
0
0
LINE
5
1121
100
AcDbEntity
8
0
100
AcDbLine
10
-434.26140059778226
20
367.14210058810744
30
0
11
-433.70842259778226
21
367.14210058810744
31
0
0
LINE
5
1122
100
AcDbEntity
8
0
100
AcDbLine
10
-456.02177659778226
20
406.55378058810743
30
0
11
-456.57475559778226
21
406.55378058810743
31
0
0
LINE
5
1123
100
AcDbEntity
8
0
100
AcDbLine
10
-539.89654059778229
20
358.07093058810744
30
0
11
-539.3434935977823
21
358.07093058810744
31
0
0
ARC
5
1124
100
AcDbEntity
8
0
100
AcDbCircle
10
375.55263873508096
20
376.49611688591995
30
0
40
5.5532186500146876
210
0
220
0
230
-1
100
AcDbArc
50
19.556282530293981
51
77.523308322261883
0
LINE
5
1125
100
AcDbEntity
8
0
100
AcDbLine
10
-528.2828855977823
20
358.07093058810744
30
0
11
-527.72990659778225
21
358.07093058810744
31
0
0
LINE
5
1126
100
AcDbEntity
8
0
100
AcDbLine
10
-380.94163959778228
20
331.1667005881074
30
0
11
-380.93321959778228
21
331.71968058810739
31
0
0
LINE
5
1127
100
AcDbEntity
8
0
100
AcDbLine
10
-533.26018759778231
20
358.07093058810744
30
0
11
-532.70714859778229
21
358.07093058810744
31
0
0
LINE
5
1128
100
AcDbEntity
8
0
100
AcDbLine
10
-522.67686709778229
20
339.01082058810744
30
0
11
-523.22990669778233
21
339.01127058810744
31
0
0
LINE
5
1129
100
AcDbEntity
8
0
100
AcDbLine
10
-531.60106859778227
20
358.07093058810744
30
0
11
-531.04808259778235
21
358.07093058810744
31
0
0
LINE
5
1130
100
AcDbEntity
8
0
100
AcDbLine
10
-566.33177859778232
20
299.69139058810742
30
0
11
-565.77873859778231
21
299.69139058810742
31
0
0
LINE
5
1131
100
AcDbEntity
8
0
100
AcDbLine
10
-536.57835659778232
20
358.07093058810744
30
0
11
-536.02531659778231
21
358.07093058810744
31
0
0
LINE
5
1132
100
AcDbEntity
8
0
100
AcDbLine
10
-488.26829759778229
20
397.0230805881074
30
0
11
-488.8213375977823
21
397.0230805881074
31
0
0
LINE
5
1133
100
AcDbEntity
8
0
100
AcDbLine
10
-397.27134959778226
20
348.2505005881074
30
0
11
-397.82438959778227
21
348.24855058810738
31
0
0
LINE
5
1134
100
AcDbEntity
8
0
100
AcDbLine
10
-484.48358359778234
20
318.63804058810734
30
0
11
-485.03660859778233
21
318.63804058810734
31
0
0
LINE
5
1135
100
AcDbEntity
8
0
100
AcDbLine
10
-391.12522959778232
20
367.14210058810744
30
0
11
-390.57218959778231
21
367.14210058810744
31
0
0
LINE
5
1136
100
AcDbEntity
8
0
100
AcDbLine
10
-425.13646159778233
20
367.14210058810744
30
0
11
-424.58342259778237
21
367.14210058810744
31
0
0
LINE
5
1137
100
AcDbEntity
8
0
100
AcDbLine
10
-550.57049059778228
20
299.69139058810742
30
0
11
-550.01744359778229
21
299.69139058810742
31
0
0
LINE
5
1138
100
AcDbEntity
8
0
100
AcDbLine
10
-560.63505759778229
20
358.07093058810744
30
0
11
-560.08201859778228
21
358.07093058810744
31
0
0
LINE
5
1139
100
AcDbEntity
8
0
100
AcDbLine
10
-413.0201395977823
20
406.55671058810742
30
0
11
-413.01145959778233
21
406.55568058810741
31
0
0
LINE
5
1140
100
AcDbEntity
8
0
100
AcDbLine
10
-559.80553659778229
20
358.07093058810744
30
0
11
-559.25249759778228
21
358.07093058810744
31
0
0
LINE
5
1141
100
AcDbEntity
8
0
100
AcDbLine
10
-517.66527809778233
20
318.63804058810734
30
0
11
-518.21831759778229
21
318.63804058810734
31
0
0
ARC
5
1142
100
AcDbEntity
8
0
100
AcDbCircle
10
-580.26883432856675
20
376.84628828331347
30
0
40
6.0679459433764817
210
0
220
0
230
1
100
AcDbArc
50
142.67106160395093
51
189.81289457803598
0
LINE
5
1143
100
AcDbEntity
8
0
100
AcDbLine
10
-547.56315859778238
20
339.03141058810741
30
0
11
-548.11613759778231
21
339.03187058810744
31
0
0
LINE
5
1144
100
AcDbEntity
8
0
100
AcDbLine
10
-586.16087559778225
20
338.17720058810744
30
0
11
-586.16087559778225
21
337.67720058810738
31
0
0
LINE
5
1145
100
AcDbEntity
8
0
100
AcDbLine
10
-553.88866659778228
20
299.69139058810742
30
0
11
-553.33562759778238
21
299.69139058810742
31
0
0
LINE
5
1146
100
AcDbEntity
8
0
100
AcDbLine
10
-532.43065859778221
20
358.07093058810744
30
0
11
-531.87761959778231
21
358.07093058810744
31
0
0
LINE
5
1147
100
AcDbEntity
8
0
100
AcDbLine
10
-423.81657659778227
20
348.15754058810739
30
0
11
-424.36955559778227
21
348.15559058810743
31
0
0
LINE
5
1148
100
AcDbEntity
8
0
100
AcDbLine
10
-566.33177859778232
20
318.63804058810734
30
0
11
-566.33177859778232
21
319.19105058810737
31
0
0
LINE
5
1149
100
AcDbEntity
8
0
100
AcDbLine
10
-536.46825659778233
20
299.69139058810742
30
0
11
-535.91521659778232
21
299.69139058810742
31
0
0
LINE
5
1150
100
AcDbEntity
8
0
100
AcDbLine
10
-586.16087559778225
20
319.42720058810744
30
0
11
-586.16087559778225
21
318.92720058810738
31
0
0
LINE
5
1151
100
AcDbEntity
8
0
100
AcDbLine
10
-521.01781709778231
20
339.0094405881074
30
0
11
-521.5707879977823
21
339.00990058810743
31
0
0
LINE
5
1152
100
AcDbEntity
8
0
100
AcDbLine
10
-550.68059759778225
20
358.07093058810744
30
0
11
-550.12755859778235
21
358.07093058810744
31
0
0
ARC
5
1153
100
AcDbEntity
8
0
100
AcDbCircle
10
575.52868870513021
20
286.13157460064963
30
0
40
27.998601975959399
210
0
220
0
230
-1
100
AcDbArc
50
170.00658749385016
51
172.74081748022977
0
LINE
5
1154
100
AcDbEntity
8
0
100
AcDbLine
10
-586.16087559778225
20
326.17720058810738
30
0
11
-586.16087559778225
21
325.67720058810744
31
0
0
LINE
5
1155
100
AcDbEntity
8
0
100
AcDbLine
10
-437.91868859778231
20
348.10817058810744
30
0
11
-438.47172759778232
21
348.10621058810739
31
0
0
LINE
5
1156
100
AcDbEntity
8
0
100
AcDbLine
10
-586.16087559778225
20
322.42720058810738
30
0
11
-586.16087559778225
21
321.92720058810744
31
0
0
LINE
5
1157
100
AcDbEntity
8
0
100
AcDbLine
10
-380.98673959778228
20
317.93724058810733
30
0
11
-380.98673959778228
21
318.49025058810741
31
0
0
LINE
5
1158
100
AcDbEntity
8
0
100
AcDbLine
10
-586.16087559778225
20
324.67720058810744
30
0
11
-586.16087559778225
21
324.17720058810738
31
0
0
LINE
5
1159
100
AcDbEntity
8
0
100
AcDbLine
10
-515.2109857777823
20
339.00465058810738
30
0
11
-515.76402529778238
21
339.00508058810743
31
0
0
LINE
5
1160
100
AcDbEntity
8
0
100
AcDbLine
10
-479.04912059778235
20
338.97468058810745
30
0
11
-469.0696285977823
21
347.99907058810737
31
0
0
LINE
5
1161
100
AcDbEntity
8
0
100
AcDbLine
10
-393.11112959778228
20
406.55671058810742
30
0
11
-380.82139959778232
21
406.55671058810742
31
0
0
LINE
5
1162
100
AcDbEntity
8
0
100
AcDbLine
10
-586.16087559778225
20
329.17720058810744
30
0
11
-586.16087559778225
21
328.67720058810738
31
0
0
LINE
5
1163
100
AcDbEntity
8
0
100
AcDbLine
10
-445.04545859778233
20
367.14210058810744
30
0
11
-444.49247959778234
21
367.14210058810744
31
0
0
LINE
5
1164
100
AcDbEntity
8
0
100
AcDbLine
10
-483.68840259778233
20
338.97853058810739
30
0
11
-484.24144259778234
21
338.97902058810746
31
0
0
LINE
5
1165
100
AcDbEntity
8
0
100
AcDbLine
10
-486.69572659778231
20
279.58415058810738
30
0
11
-486.14268759778236
21
279.58415058810738
31
0
0
LINE
5
1166
100
AcDbEntity
8
0
100
AcDbLine
10
-544.04423759778228
20
358.07093058810744
30
0
11
-543.49119859778239
21
358.07093058810744
31
0
0
LINE
5
1167
100
AcDbEntity
8
0
100
AcDbLine
10
-568.0251375977823
20
339.03694058810743
30
0
11
-568.57817659778232
21
339.03358058810738
31
0
0
LINE
5
1168
100
AcDbEntity
8
0
100
AcDbLine
10
-471.07268059778227
20
358.12916058810742
30
0
11
-470.51970159778227
21
358.13038058810747
31
0
0
LINE
5
1169
100
AcDbEntity
8
0
100
AcDbLine
10
-380.98673959778228
20
325.40312058810736
30
0
11
-380.98673959778228
21
325.95613058810738
31
0
0
LINE
5
1170
100
AcDbEntity
8
0
100
AcDbLine
10
-555.65782459778234
20
358.07093058810744
30
0
11
-555.10478459778233
21
358.07093058810744
31
0
0
LINE
5
1171
100
AcDbEntity
8
0
100
AcDbLine
10
-431.28239659778228
20
348.13139058810742
30
0
11
-431.83543659778229
21
348.12947058810744
31
0
0
LINE
5
1172
100
AcDbEntity
8
0
100
AcDbLine
10
-479.26414759778231
20
338.97487058810736
30
0
11
-479.04912059778235
21
338.97468058810745
31
0
0
LINE
5
1173
100
AcDbEntity
8
0
100
AcDbLine
10
-558.31285359778224
20
318.63804058810734
30
0
11
-558.86589259778225
21
318.63804058810734
31
0
0
LINE
5
1174
100
AcDbEntity
8
0
100
AcDbLine
10
-586.16087559778225
20
327.67720058810738
30
0
11
-586.16087559778225
21
327.17720058810744
31
0
0
LINE
5
1175
100
AcDbEntity
8
0
100
AcDbLine
10
-542.58586359778224
20
339.02729058810735
30
0
11
-543.13890359778225
21
339.02775058810738
31
0
0
LINE
5
1176
100
AcDbEntity
8
0
100
AcDbLine
10
-586.16087559778225
20
335.17720058810738
30
0
11
-586.16087559778225
21
334.67720058810744
31
0
0
LINE
5
1177
100
AcDbEntity
8
0
100
AcDbLine
10
-575.45674759778228
20
318.63804058810734
30
0
11
-576.00975659778226
21
318.63804058810734
31
0
0
LINE
5
1178
100
AcDbEntity
8
0
100
AcDbLine
10
-557.31688959778228
20
358.07093058810744
30
0
11
-556.76384959778238
21
358.07093058810744
31
0
0
LINE
5
1179
100
AcDbEntity
8
0
100
AcDbLine
10
-439.57774559778227
20
348.10234058810738
30
0
11
-440.13078559778228
21
348.10041058810737
31
0
0
LINE
5
1180
100
AcDbEntity
8
0
100
AcDbLine
10
-562.29417659778233
20
358.07093058810744
30
0
11
-561.74113759778231
21
358.07093058810744
31
0
0
LINE
5
1181
100
AcDbEntity
8
0
100
AcDbLine
10
-380.7648295977823
20
342.77894058810739
30
0
11
-380.75639959778232
21
343.33192058810738
31
0
0
LINE
5
1182
100
AcDbEntity
8
0
100
AcDbLine
10
-481.19975559778231
20
338.97648058810745
30
0
11
-481.75279459778233
21
338.97694058810742
31
0
0
LINE
5
1183
100
AcDbEntity
8
0
100
AcDbLine
10
-566.36607659778224
20
339.04698058810737
30
0
11
-566.91911559778225
21
339.04365058810743
31
0
0
ARC
5
1184
100
AcDbEntity
8
0
100
AcDbCircle
10
-580.7177050753786
20
280.59363811051105
30
0
40
5.5302675224043307
210
0
220
0
230
1
100
AcDbArc
50
179.9999743299355
51
269.99997386689012
0
LINE
5
1185
100
AcDbEntity
8
0
100
AcDbLine
10
-451.87401059778233
20
406.55378058810743
30
0
11
-452.42705059778234
21
406.55378058810743
31
0
0
LINE
5
1186
100
AcDbEntity
8
0
100
AcDbLine
10
-469.13481359778234
20
377.38112058810736
30
0
11
-483.58441459778237
21
377.32399058810734
31
0
0
ARC
5
1187
100
AcDbEntity
8
0
100
AcDbCircle
10
366.76097619840215
20
376.50242652908855
30
0
40
5.420204929747551
210
0
220
0
230
-1
100
AcDbArc
50
87.688353627727977
51
174.26408507727953
0
LINE
5
1188
100
AcDbEntity
8
0
100
AcDbLine
10
-586.16087559778225
20
321.67720058810738
30
0
11
-586.16087559778225
21
321.17720058810738
31
0
0
LINE
5
1189
100
AcDbEntity
8
0
100
AcDbLine
10
-581.26353659778238
20
318.63804058810734
30
0
11
-581.81657659778227
21
318.63804058810734
31
0
0
LINE
5
1190
100
AcDbEntity
8
0
100
AcDbLine
10
-586.16087559778225
20
318.63804058810734
30
0
11
-586.24797259778234
21
280.59364058810735
31
0
0
LINE
5
1191
100
AcDbEntity
8
0
100
AcDbLine
10
-586.16087559778225
20
323.17720058810744
30
0
11
-586.16087559778225
21
322.67720058810738
31
0
0
LINE
5
1192
100
AcDbEntity
8
0
100
AcDbLine
10
-380.98673959778228
20
313.78950058810739
30
0
11
-380.98673959778228
21
314.34254058810734
31
0
0
LINE
5
1193
100
AcDbEntity
8
0
100
AcDbLine
10
-586.16087559778225
20
320.17720058810738
30
0
11
-586.16087559778225
21
319.67720058810744
31
0
0
LINE
5
1194
100
AcDbEntity
8
0
100
AcDbLine
10
-491.58647359778229
20
397.0230805881074
30
0
11
-492.1395135977823
21
397.0230805881074
31
0
0
LINE
5
1195
100
AcDbEntity
8
0
100
AcDbLine
10
-484.51793159778231
20
338.97923058810738
30
0
11
-485.07097159778232
21
338.97969058810736
31
0
0
LINE
5
1196
100
AcDbEntity
8
0
100
AcDbLine
10
-380.98673959778228
20
327.89174058810738
30
0
11
-380.98673959778228
21
328.20289058810744
31
0
0
LINE
5
1197
100
AcDbEntity
8
0
100
AcDbLine
10
-469.41362259778231
20
358.13286058810741
30
0
11
-469.09208959778232
21
358.1335605881074
31
0
0
LINE
5
1198
100
AcDbEntity
8
0
100
AcDbLine
10
-536.77910859778228
20
339.02247058810735
30
0
11
-537.33208759778233
21
339.02296058810742
31
0
0
LINE
5
1199
100
AcDbEntity
8
0
100
AcDbLine
10
-551.51012659778235
20
358.07093058810744
30
0
11
-550.95708759778233
21
358.07093058810744
31
0
0
LINE
5
1200
100
AcDbEntity
8
0
100
AcDbLine
10
-554.16514859778226
20
318.63804058810734
30
0
11
-554.71818759778228
21
318.63804058810734
31
0
0
LINE
5
1201
100
AcDbEntity
8
0
100
AcDbLine
10
-549.85100759778231
20
358.07093058810744
30
0
11
-549.29802959778237
21
358.07093058810744
31
0
0
LINE
5
1202
100
AcDbEntity
8
0
100
AcDbLine
10
-466.61357359778231
20
367.14210058810744
30
0
11
-466.06053459778229
21
367.14210058810744
31
0
0
LINE
5
1203
100
AcDbEntity
8
0
100
AcDbLine
10
-566.33177459778233
20
280.59364058810735
30
0
11
-566.33177859778232
21
318.63804058810734
31
0
0
LINE
5
1204
100
AcDbEntity
8
0
100
AcDbLine
10
-454.36265859778234
20
406.55378058810743
30
0
11
-454.9156975977823
21
406.55378058810743
31
0
0
LINE
5
1205
100
AcDbEntity
8
0
100
AcDbLine
10
-549.02147959778233
20
358.07093058810744
30
0
11
-548.46843959778232
21
358.07093058810744
31
0
0
LINE
5
1206
100
AcDbEntity
8
0
100
AcDbLine
10
-537.60863759778226
20
339.02317058810746
30
0
11
-538.16167659778228
21
339.02363058810744
31
0
0
LINE
5
1207
100
AcDbEntity
8
0
100
AcDbLine
10
-553.16917659778233
20
358.07093058810744
30
0
11
-552.61613759778231
21
358.07093058810744
31
0
0
LINE
5
1208
100
AcDbEntity
8
0
100
AcDbLine
10
-380.98673959778228
20
324.5735605881074
30
0
11
-380.98673959778228
21
325.12660058810741
31
0
0
LINE
5
1209
100
AcDbEntity
8
0
100
AcDbLine
10
-586.16087559778225
20
332.17720058810744
30
0
11
-586.16087559778225
21
331.67720058810744
31
0
0
LINE
5
1210
100
AcDbEntity
8
0
100
AcDbLine
10
-467.7820305977823
20
348.00358058810741
30
0
11
-468.33507059778231
21
348.00166058810737
31
0
0
LINE
5
1211
100
AcDbEntity
8
0
100
AcDbLine
10
-543.21464759778235
20
358.07093058810744
30
0
11
-542.66167659778239
21
358.07093058810744
31
0
0
ARC
5
1212
100
AcDbEntity
8
0
100
AcDbCircle
10
572.18240849536426
20
292.71086226149947
30
0
40
24.616516917264128
210
0
220
-0
230
-1
100
AcDbArc
50
187.0971943689099
51
190.34354036288281
0
LINE
5
1213
100
AcDbEntity
8
0
100
AcDbLine
10
-469.0696285977823
20
347.99907058810737
30
0
11
-469.13481359778234
21
377.38112058810736
31
0
0
LINE
5
1214
100
AcDbEntity
8
0
100
AcDbLine
10
-491.98381259778228
20
338.98542058810739
30
0
11
-492.53685259778229
21
338.98585058810738
31
0
0
LINE
5
1215
100
AcDbEntity
8
0
100
AcDbLine
10
-586.16087559778225
20
329.92720058810738
30
0
11
-586.16087559778225
21
329.42720058810744
31
0
0
LINE
5
1216
100
AcDbEntity
8
0
100
AcDbLine
10
-380.98673959778228
20
319.59633058810738
30
0
11
-380.98673959778228
21
320.14937058810739
31
0
0
LINE
5
1217
100
AcDbEntity
8
0
100
AcDbLine
10
-586.16087559778225
20
333.67720058810738
30
0
11
-586.16087559778225
21
333.17720058810744
31
0
0
ARC
5
1218
100
AcDbEntity
8
0
100
AcDbCircle
10
-513.39008232989613
20
392.61996562014787
30
0
40
4.4241842138315342
210
0
220
-0
230
1
100
AcDbArc
50
89.882862744392185
51
179.88286228016969
0
LINE
5
1219
100
AcDbEntity
8
0
100
AcDbLine
10
-480.37022659778233
20
338.97578058810745
30
0
11
-480.92326559778229
21
338.97627058810741
31
0
0
LINE
5
1220
100
AcDbEntity
8
0
100
AcDbLine
10
-444.40812959778225
20
406.55378058810743
30
0
11
-444.96118459778234
21
406.55378058810743
31
0
0
LINE
5
1221
100
AcDbEntity
8
0
100
AcDbLine
10
-482.11430559778228
20
299.69139058810742
30
0
11
-481.56126659778232
21
299.69136058810739
31
0
0
LINE
5
1222
100
AcDbEntity
8
0
100
AcDbLine
10
-555.02898659778236
20
339.03761058810744
30
0
11
-555.58201859778228
21
339.03804058810744
31
0
0
LINE
5
1223
100
AcDbEntity
8
0
100
AcDbLine
10
-520.70695749778235
20
299.69139058810742
30
0
11
-520.15391789778232
21
299.69139058810742
31
0
0
LINE
5
1224
100
AcDbEntity
8
0
100
AcDbLine
10
-481.02722459778226
20
358.10710058810741
30
0
11
-480.47416959778224
21
358.10835058810738
31
0
0
LINE
5
1225
100
AcDbEntity
8
0
100
AcDbLine
10
-502.37053959778228
20
397.0230805881074
30
0
11
-502.9235785977823
21
397.0230805881074
31
0
0
LINE
5
1226
100
AcDbEntity
8
0
100
AcDbLine
10
-480.19763459778233
20
358.10896058810738
30
0
11
-479.64464059778231
21
358.11018058810737
31
0
0
LINE
5
1227
100
AcDbEntity
8
0
100
AcDbLine
10
-512.68803659778223
20
318.63804058810734
30
0
11
-513.2410760977823
21
318.63804058810734
31
0
0
LINE
5
1228
100
AcDbEntity
8
0
100
AcDbLine
10
-519.87742869778231
20
299.69139058810742
30
0
11
-519.32439669778228
21
299.69139058810742
31
0
0
LINE
5
1229
100
AcDbEntity
8
0
100
AcDbLine
10
-498.62016559778232
20
338.99092058810737
30
0
11
-499.17320459778233
21
338.99135058810742
31
0
0
LINE
5
1230
100
AcDbEntity
8
0
100
AcDbLine
10
-473.56132759778234
20
358.12367058810736
30
0
11
-473.00828759778233
21
358.12489058810741
31
0
0
ARC
5
1231
100
AcDbEntity
8
0
100
AcDbCircle
10
403.61891551547274
20
411.16306223496497
30
0
40
10.507535932525462
210
0
220
0
230
-1
100
AcDbArc
50
93.01842311718157
51
179.9969553967299
0
LINE
5
1232
100
AcDbEntity
8
0
100
AcDbLine
10
-518.32841739778235
20
358.07093058810744
30
0
11
-517.77537789778228
21
358.07093058810744
31
0
0
LINE
5
1233
100
AcDbEntity
8
0
100
AcDbLine
10
-368.51402959778227
20
348.30858058810742
30
0
11
-369.06706959778228
21
348.30858058810742
31
0
0
LINE
5
1234
100
AcDbEntity
8
0
100
AcDbLine
10
-513.35113009778229
20
358.07093058810744
30
0
11
-512.79814399778229
21
358.07093058810744
31
0
0
LINE
5
1235
100
AcDbEntity
8
0
100
AcDbLine
10
-530.66142559778223
20
299.69139058810742
30
0
11
-530.10844659778229
21
299.69139058810742
31
0
0
LINE
5
1236
100
AcDbEntity
8
0
100
AcDbLine
10
-471.33024859778232
20
299.69130058810742
30
0
11
-470.77722459778226
21
299.69130058810742
31
0
0
LINE
5
1237
100
AcDbEntity
8
0
100
AcDbLine
10
-560.83581059778237
20
339.04240058810734
30
0
11
-561.38884959778227
21
339.04286058810737
31
0
0
LINE
5
1238
100
AcDbEntity
8
0
100
AcDbLine
10
-515.83977759778224
20
358.07093058810744
30
0
11
-515.28673803778224
21
358.07093058810744
31
0
0
ARC
5
1239
100
AcDbEntity
8
0
100
AcDbCircle
10
550.15917431063349
20
288.51577437510332
30
0
40
2.2047276523973687
210
0
220
-0
230
-1
100
AcDbArc
50
185.85230205080597
51
231.38975362918382
0
LINE
5
1240
100
AcDbEntity
8
0
100
AcDbLine
10
-504.11607659778224
20
299.69139058810742
30
0
11
-503.57408359778225
21
299.69139058810742
31
0
0
LINE
5
1241
100
AcDbEntity
8
0
100
AcDbLine
10
-465.2934445977823
20
348.01228058810744
30
0
11
-465.84642259778229
21
348.01036058810735
31
0
0
LINE
5
1242
100
AcDbEntity
8
0
100
AcDbLine
10
-482.94383459778231
20
299.69139058810742
30
0
11
-482.39085659778232
21
299.69139058810742
31
0
0
LINE
5
1243
100
AcDbEntity
8
0
100
AcDbLine
10
-546.97575659778227
20
296.74269058810739
30
0
11
-547.60747759778235
21
296.74269058810739
31
0
0
LINE
5
1244
100
AcDbEntity
8
0
100
AcDbLine
10
-479.62565859778232
20
299.69136058810739
30
0
11
-479.07268059778232
21
299.69136058810739
31
0
0
LINE
5
1245
100
AcDbEntity
8
0
100
AcDbLine
10
-575.49089659778235
20
338.99177058810744
30
0
11
-576.04390559778233
21
338.98842058810743
31
0
0
LINE
5
1246
100
AcDbEntity
8
0
100
AcDbLine
10
-476.87950359778227
20
358.11628058810743
30
0
11
-476.32646459778232
21
358.11754058810743
31
0
0
LINE
5
1247
100
AcDbEntity
8
0
100
AcDbLine
10
-563.84312659778232
20
299.69139058810742
30
0
11
-563.2900875977823
21
299.69139058810742
31
0
0
LINE
5
1248
100
AcDbEntity
8
0
100
AcDbLine
10
-479.36809059778227
20
358.11079058810742
30
0
11
-478.81511159778228
21
358.11201058810741
31
0
0
LINE
5
1249
100
AcDbEntity
8
0
100
AcDbLine
10
-376.75236959778232
20
381.91819058810734
30
0
11
-366.97959959778234
21
381.91822058810737
31
0
0
LINE
5
1250
100
AcDbEntity
8
0
100
AcDbLine
10
-475.47795359778229
20
299.69133058810741
30
0
11
-474.9249745977823
21
299.69133058810741
31
0
0
LINE
5
1251
100
AcDbEntity
8
0
100
AcDbLine
10
-497.7562735977823
20
318.63804058810734
30
0
11
-498.30931359778225
21
318.63804058810734
31
0
0
LINE
5
1252
100
AcDbEntity
8
0
100
AcDbLine
10
-523.19560489778235
20
299.69139058810742
30
0
11
-522.64256539778228
21
299.69139058810742
31
0
0
LINE
5
1253
100
AcDbEntity
8
0
100
AcDbLine
10
-523.50639589778234
20
339.01149058810739
30
0
11
-524.05943549778226
21
339.01197058810737
31
0
0
LINE
5
1254
100
AcDbEntity
8
0
100
AcDbLine
10
-509.92290749778226
20
299.69139058810742
30
0
11
-509.36986789778223
21
299.69139058810742
31
0
0
LINE
5
1255
100
AcDbEntity
8
0
100
AcDbLine
10
-501.90398659778231
20
318.63804058810734
30
0
11
-502.45701859778228
21
318.63804058810734
31
0
0
LINE
5
1256
100
AcDbEntity
8
0
100
AcDbLine
10
-478.79612959778228
20
299.69136058810739
30
0
11
-478.24309059778227
21
299.69136058810739
31
0
0
LINE
5
1257
100
AcDbEntity
8
0
100
AcDbLine
10
-404.72471959778233
20
406.55610058810743
30
0
11
-404.17167959778232
21
406.55613058810741
31
0
0
LINE
5
1258
100
AcDbEntity
8
0
100
AcDbLine
10
-493.26359759778228
20
358.08052058810745
30
0
11
-493.26359759778228
21
363.0064205881074
31
0
0
LINE
5
1259
100
AcDbEntity
8
0
100
AcDbLine
10
-519.32439669778228
20
318.63804058810734
30
0
11
-519.87742869778231
21
318.63804058810734
31
0
0
LINE
5
1260
100
AcDbEntity
8
0
100
AcDbLine
10
-472.73181359778226
20
358.12550058810734
30
0
11
-472.17875959778223
21
358.12672058810739
31
0
0
LINE
5
1261
100
AcDbEntity
8
0
100
AcDbLine
10
-573.00230659778231
20
339.00685058810734
30
0
11
-573.55531559778228
21
339.00349058810741
31
0
0
LINE
5
1262
100
AcDbEntity
8
0
100
AcDbLine
10
-477.13707259778232
20
299.69136058810739
30
0
11
-476.58403259778231
21
299.69136058810739
31
0
0
LINE
5
1263
100
AcDbEntity
8
0
100
AcDbLine
10
-499.96837059778227
20
279.58415058810738
30
0
11
-499.41533159778231
21
279.58415058810738
31
0
0
LINE
5
1264
100
AcDbEntity
8
0
100
AcDbLine
10
-516.55925999778231
20
299.69139058810742
30
0
11
-516.00622049778235
21
299.69139058810742
31
0
0
LINE
5
1265
100
AcDbEntity
8
0
100
AcDbLine
10
-375.9799095977823
20
348.30858058810742
30
0
11
-376.53288959778229
21
348.30858058810742
31
0
0
LINE
5
1266
100
AcDbEntity
8
0
100
AcDbLine
10
-523.30565889778222
20
358.07093058810744
30
0
11
-522.75261939778227
21
358.07093058810744
31
0
0
LINE
5
1267
100
AcDbEntity
8
0
100
AcDbLine
10
-547.52879559778228
20
318.63804058810734
30
0
11
-548.08183559778229
21
318.63804058810734
31
0
0
LINE
5
1268
100
AcDbEntity
8
0
100
AcDbLine
10
-521.64659369778224
20
358.07093058810744
30
0
11
-521.0935540977822
21
358.07093058810744
31
0
0
LINE
5
1269
100
AcDbEntity
8
0
100
AcDbLine
10
-486.17698959778232
20
338.98060058810734
30
0
11
-486.73004359778236
21
338.98106058810743
31
0
0
LINE
5
1270
100
AcDbEntity
8
0
100
AcDbLine
10
-520.8170648977823
20
358.07093058810744
30
0
11
-520.26402529778227
21
358.07093058810744
31
0
0
LINE
5
1271
100
AcDbEntity
8
0
100
AcDbLine
10
-566.34856659778234
20
333.51674058810738
30
0
11
-566.3503365977823
21
334.06974058810738
31
0
0
LINE
5
1272
100
AcDbEntity
8
0
100
AcDbLine
10
-517.38878879778224
20
299.69139058810742
30
0
11
-516.83574929778229
21
299.69139058810742
31
0
0
LINE
5
1273
100
AcDbEntity
8
0
100
AcDbLine
10
-492.41600259778232
20
397.0230805881074
30
0
11
-492.96904259778228
21
397.0230805881074
31
0
0
LINE
5
1274
100
AcDbEntity
8
0
100
AcDbLine
10
-477.70903259778231
20
358.11445058810739
30
0
11
-477.1559935977823
21
358.11567058810738
31
0
0
LINE
5
1275
100
AcDbEntity
8
0
100
AcDbLine
10
-557.48332459778237
20
318.63804058810734
30
0
11
-558.03636459778227
21
318.63804058810734
31
0
0
LINE
5
1276
100
AcDbEntity
8
0
100
AcDbLine
10
-519.98747499778233
20
358.07093058810744
30
0
11
-519.43443549778226
21
358.07093058810744
31
0
0
LINE
5
1277
100
AcDbEntity
8
0
100
AcDbLine
10
-515.01024877778229
20
358.07093058810744
30
0
11
-514.45720922878229
21
358.07093058810744
31
0
0
LINE
5
1278
100
AcDbEntity
8
0
100
AcDbLine
10
-585.41124259778235
20
318.63804058810734
30
0
11
-585.96428159778225
21
318.63804058810734
31
0
0
LINE
5
1279
100
AcDbEntity
8
0
100
AcDbLine
10
-509.20341739778229
20
358.07093058810744
30
0
11
-508.65044649778224
21
358.07093058810744
31
0
0
LINE
5
1280
100
AcDbEntity
8
0
100
AcDbLine
10
-406.38377959778234
20
406.55601058810737
30
0
11
-405.83073959778233
21
406.55604058810741
31
0
0
LINE
5
1281
100
AcDbEntity
8
0
100
AcDbLine
10
-515.72972359778225
20
299.69139058810742
30
0
11
-515.17668401778224
21
299.69139058810742
31
0
0
LINE
5
1282
100
AcDbEntity
8
0
100
AcDbLine
10
-490.84343159778228
20
279.58415058810738
30
0
11
-490.29039259778233
21
279.58415058810738
31
0
0
LINE
5
1283
100
AcDbEntity
8
0
100
AcDbLine
10
-512.41154729778236
20
299.69139058810742
30
0
11
-511.85850779778229
21
299.69139058810742
31
0
0
LINE
5
1284
100
AcDbEntity
8
0
100
AcDbLine
10
-511.5819574977823
20
299.69139058810742
30
0
11
-511.02898659778225
21
299.69139058810742
31
0
0
LINE
5
1285
100
AcDbEntity
8
0
100
AcDbLine
10
-566.42467759778231
20
279.58415058810738
30
0
11
-539.46562459778227
21
279.58415058810738
31
0
0
LINE
5
1286
100
AcDbEntity
8
0
100
AcDbLine
10
-474.64842459778231
20
299.69133058810741
30
0
11
-474.09538559778235
21
299.69130058810742
31
0
0
LINE
5
1287
100
AcDbEntity
8
0
100
AcDbLine
10
-403.89518959778229
20
406.55613058810741
30
0
11
-403.34214959778228
21
406.55619058810743
31
0
0
LINE
5
1288
100
AcDbEntity
8
0
100
AcDbLine
10
-514.07060491778236
20
299.69139058810742
30
0
11
-513.51756536778237
21
299.69139058810742
31
0
0
LINE
5
1289
100
AcDbEntity
8
0
100
AcDbLine
10
-531.76750459778236
20
318.63804058810734
30
0
11
-532.32054359778226
21
318.63804058810734
31
0
0
LINE
5
1290
100
AcDbEntity
8
0
100
AcDbLine
10
-505.88530979778227
20
358.07093058810744
30
0
11
-505.33227029778226
21
358.07093058810744
31
0
0
LINE
5
1291
100
AcDbEntity
8
0
100
AcDbLine
10
-513.5519281577823
20
339.00325058810733
30
0
11
-514.10490667778231
21
339.00374058810741
31
0
0
LINE
5
1292
100
AcDbEntity
8
0
100
AcDbLine
10
-511.6920648977823
20
358.07093058810744
30
0
11
-511.13902529778227
21
358.07093058810744
31
0
0
LINE
5
1293
100
AcDbEntity
8
0
100
AcDbLine
10
-493.3320795977823
20
279.58415058810738
30
0
11
-492.77903959778229
21
279.58415058810738
31
0
0
LINE
5
1294
100
AcDbEntity
8
0
100
AcDbLine
10
-524.85467059778227
20
299.69139058810742
30
0
11
-524.30162299778226
21
299.69139058810742
31
0
0
LINE
5
1295
100
AcDbEntity
8
0
100
AcDbLine
10
-375.1503195977823
20
348.30858058810742
30
0
11
-375.70335959778231
21
348.30858058810742
31
0
0
LINE
5
1296
100
AcDbEntity
8
0
100
AcDbLine
10
-503.11449659778236
20
299.69139058810742
30
0
11
-483.68083459778234
21
299.69139058810742
31
0
0
LINE
5
1297
100
AcDbEntity
8
0
100
AcDbLine
10
-534.25615959778224
20
318.63804058810734
30
0
11
-534.80919859778226
21
318.63804058810734
31
0
0
LINE
5
1298
100
AcDbEntity
8
0
100
AcDbLine
10
-508.26384989778234
20
299.69139058810742
30
0
11
-507.7108102977823
21
299.69139058810742
31
0
0
LINE
5
1299
100
AcDbEntity
8
0
100
AcDbLine
10
-530.14274859778232
20
339.01698058810746
30
0
11
-530.69578759778233
21
339.01747058810741
31
0
0
LINE
5
1300
100
AcDbEntity
8
0
100
AcDbLine
10
-505.77519479778232
20
299.69139058810742
30
0
11
-505.22215519778229
21
299.69139058810742
31
0
0
LINE
5
1301
100
AcDbEntity
8
0
100
AcDbLine
10
-578.77492759778238
20
318.63804058810734
30
0
11
-579.32793659778235
21
318.63804058810734
31
0
0
LINE
5
1302
100
AcDbEntity
8
0
100
AcDbLine
10
-468.64171059778232
20
308.81227058810737
30
0
11
-468.08867159778231
21
308.81227058810737
31
0
0
LINE
5
1303
100
AcDbEntity
8
0
100
AcDbLine
10
-395.59971959778233
20
406.55659058810733
30
0
11
-395.04667959778232
21
406.55662058810731
31
0
0
LINE
5
1304
100
AcDbEntity
8
0
100
AcDbLine
10
-462.00541959778229
20
308.81227058810737
30
0
11
-461.45237959778228
21
308.81227058810737
31
0
0
LINE
5
1305
100
AcDbEntity
8
0
100
AcDbLine
10
-530.93797559778227
20
318.63804058810734
30
0
11
-531.49101459778228
21
318.63804058810734
31
0
0
LINE
5
1306
100
AcDbEntity
8
0
100
AcDbLine
10
-459.51677159778228
20
308.81227058810737
30
0
11
-458.96373259778227
21
308.81227058810737
31
0
0
LINE
5
1307
100
AcDbEntity
8
0
100
AcDbLine
10
-560.0062735977823
20
339.04170058810735
30
0
11
-560.55931359778231
21
339.04219058810736
31
0
0
LINE
5
1308
100
AcDbEntity
8
0
100
AcDbLine
10
-458.6872435977823
20
308.81227058810737
30
0
11
-458.13420359778229
21
308.81227058810737
31
0
0
LINE
5
1309
100
AcDbEntity
8
0
100
AcDbLine
10
-530.10844659778229
20
318.63804058810734
30
0
11
-530.66142559778223
21
318.63804058810734
31
0
0
LINE
5
1310
100
AcDbEntity
8
0
100
AcDbLine
10
-460.34630059778232
20
308.81227058810737
30
0
11
-459.7932615977823
21
308.81227058810737
31
0
0
LINE
5
1311
100
AcDbEntity
8
0
100
AcDbLine
10
-366.34513959778235
20
274.38218058810742
30
0
11
-377.11576959778228
21
274.38218058810742
31
0
0
LINE
5
1312
100
AcDbEntity
8
0
100
AcDbLine
10
-457.8576535977823
20
308.81227058810737
30
0
11
-457.30467459778231
21
308.81227058810737
31
0
0
LINE
5
1313
100
AcDbEntity
8
0
100
AcDbLine
10
-464.95451559778235
20
367.14210058810744
30
0
11
-464.40147659778233
21
367.14210058810744
31
0
0
LINE
5
1314
100
AcDbEntity
8
0
100
AcDbLine
10
-454.53947659778231
20
308.81227058810737
30
0
11
-453.98649859778232
21
308.81227058810737
31
0
0
LINE
5
1315
100
AcDbEntity
8
0
100
AcDbLine
10
-430.94328559778234
20
367.14210058810744
30
0
11
-430.39024559778233
21
367.14210058810744
31
0
0
LINE
5
1316
100
AcDbEntity
8
0
100
AcDbLine
10
-469.67119059778224
20
299.69130058810742
30
0
11
-469.11815159778229
21
299.69130058810742
31
0
0
LINE
5
1317
100
AcDbEntity
8
0
100
AcDbLine
10
-394.77018959778229
20
406.55662058810731
30
0
11
-394.21714959778228
21
406.5566505881074
31
0
0
LINE
5
1318
100
AcDbEntity
8
0
100
AcDbLine
10
-472.15977759778229
20
299.69130058810742
30
0
11
-471.60681359778221
21
299.69130058810742
31
0
0
LINE
5
1319
100
AcDbEntity
8
0
100
AcDbLine
10
-493.24553159778236
20
397.0230805881074
30
0
11
-493.79857159778231
21
397.0230805881074
31
0
0
LINE
5
1320
100
AcDbEntity
8
0
100
AcDbLine
10
-466.98265359778236
20
308.81227058810737
30
0
11
-466.42961359778235
21
308.81227058810737
31
0
0
LINE
5
1321
100
AcDbEntity
8
0
100
AcDbLine
10
-503.09086859778233
20
397.0230805881074
30
0
11
-513.38103739778239
21
397.04414058810733
31
0
0
LINE
5
1322
100
AcDbEntity
8
0
100
AcDbLine
10
-461.17582959778235
20
308.81227058810737
30
0
11
-460.6228505977823
21
308.81227058810737
31
0
0
LINE
5
1323
100
AcDbEntity
8
0
100
AcDbLine
10
-531.80180559778228
20
339.01838058810739
30
0
11
-532.35484559778229
21
339.01881058810744
31
0
0
LINE
5
1324
100
AcDbEntity
8
0
100
AcDbLine
10
-456.19859559778229
20
308.81227058810737
30
0
11
-455.64555559778228
21
308.81227058810737
31
0
0
ARC
5
1325
100
AcDbEntity
8
0
100
AcDbCircle
10
-448.27934563362845
20
412.21437055226119
30
0
40
8.848450035846156
210
0
220
-0
230
1
100
AcDbArc
50
0
51
89.999999767887488
0
LINE
5
1326
100
AcDbEntity
8
0
100
AcDbLine
10
-467.81218159778234
20
308.81227058810737
30
0
11
-467.25914259778233
21
308.81227058810737
31
0
0
LINE
5
1327
100
AcDbEntity
8
0
100
AcDbLine
10
-371.83219959778228
20
348.30858058810742
30
0
11
-372.38517959778227
21
348.30858058810742
31
0
0
LINE
5
1328
100
AcDbEntity
8
0
100
AcDbLine
10
-452.05089059778231
20
308.81227058810737
30
0
11
-451.4978505977823
21
308.81227058810737
31
0
0
LINE
5
1329
100
AcDbEntity
8
0
100
AcDbLine
10
-462.46586859778233
20
367.14210058810744
30
0
11
-461.91284459778228
21
367.14210058810744
31
0
0
LINE
5
1330
100
AcDbEntity
8
0
100
AcDbLine
10
-448.27934559778225
20
421.06282058810734
30
0
11
-449.18120059778232
21
421.06282058810734
31
0
0
LINE
5
1331
100
AcDbEntity
8
0
100
AcDbLine
10
-443.38640059778231
20
367.14210058810744
30
0
11
-442.8333615977823
21
367.14210058810744
31
0
0
LINE
5
1332
100
AcDbEntity
8
0
100
AcDbLine
10
-361.36790959778233
20
328.20289058810744
30
0
11
-361.36790959778233
21
279.35945058810739
31
0
0
LINE
5
1333
100
AcDbEntity
8
0
100
AcDbLine
10
-467.44310259778229
20
367.14210058810744
30
0
11
-466.89012359778235
21
367.14210058810744
31
0
0
LINE
5
1334
100
AcDbEntity
8
0
100
AcDbLine
10
-443.72545159778224
20
348.08781058810735
30
0
11
-444.27849059778225
21
348.08589058810742
31
0
0
LINE
5
1335
100
AcDbEntity
8
0
100
AcDbLine
10
-416.01152259778235
20
367.14210058810744
30
0
11
-415.45848359778233
21
367.14210058810744
31
0
0
LINE
5
1336
100
AcDbEntity
8
0
100
AcDbLine
10
-489.46086359778229
20
318.63804058810734
30
0
11
-490.01390359778225
21
318.63804058810734
31
0
0
LINE
5
1337
100
AcDbEntity
8
0
100
AcDbLine
10
-568.82042559778233
20
318.63804058810734
30
0
11
-569.3734385977823
21
318.63804058810734
31
0
0
CIRCLE
5
1338
100
AcDbEntity
8
0
100
AcDbCircle
10
-529.01175159778234
20
289.47377058810736
30
0
40
4.3999920000000001
210
0
220
0
230
1
0
CIRCLE
5
1339
100
AcDbEntity
8
0
100
AcDbCircle
10
-529.70748799901082
20
367.3196537559063
30
0
40
4.4000205999999995
210
0
220
0
230
1
0
CIRCLE
5
1340
100
AcDbEntity
8
0
100
AcDbCircle
10
-402.16038959778234
20
271.2998505881074
30
0
40
4.3999777
210
0
220
0
230
1
0
CIRCLE
5
1341
100
AcDbEntity
8
0
100
AcDbCircle
10
-402.53093959778226
20
388.75044058810738
30
0
40
4.3999595999999999
210
0
220
0
230
1
0
LINE
5
1342
100
AcDbEntity
8
0
100
AcDbLine
10
-604.95266116760047
20
333.28976592338245
30
0
11
-599.20191416760053
21
333.32904192338242
31
0
0
ARC
5
1343
100
AcDbEntity
8
0
100
AcDbCircle
10
599.16787636908111
20
328.32903549584125
30
0
40
5.0001222832227832
210
0
220
0
230
-1
100
AcDbArc
50
89.609962086657504
51
177.12786542936678
0
ARC
5
1344
100
AcDbEntity
8
0
100
AcDbCircle
10
599.16879563658665
20
328.80367402344456
30
0
40
4.999785277353662
210
0
220
0
230
-1
100
AcDbArc
50
182.5689257280863
51
225.08925373772342
0
ARC
5
1345
100
AcDbEntity
8
0
100
AcDbCircle
10
599.16887347089528
20
328.80355063188921
30
0
40
4.9997528439275261
210
0
220
0
230
-1
100
AcDbArc
50
225.08762373181207
51
270.08976056637164
0
LINE
5
1346
100
AcDbEntity
8
0
100
AcDbLine
10
-599.17670616760051
20
323.80380392338247
30
0
11
-604.92763716760044
21
323.81271492338249
31
0
0
ENDSEC
0
SECTION
2
OBJECTS
0
DICTIONARY
5
C
100
AcDbDictionary
3
ACAD_GROUP
350
D
3
ACAD_MLINESTYLE
350
17
0
DICTIONARY
5
D
100
AcDbDictionary
0
DICTIONARY
5
1A
330
C
100
AcDbDictionary
0
DICTIONARY
5
17
100
AcDbDictionary
0
ENDSEC
0
EOF
