  0
SECTION
  2
HEADER
  9
$ACADVER
  1
AC1009
  0
ENDSEC
  0
SECTION
  2
TABLES
  0
TABLE
  2
LAYER
  70
1
  0
LAYER
  2
Layer_2
  70
0
  62
1
  6
CONTINUOUS
  0
ENDTAB
  0
ENDSEC
  0
SECTION
  2
ENTITIES
  0
POLYLINE
  5
90
  8
Layer_2
  62
1
  66
1
  10
0
  20
0
  30
0
  0
VERTEX
  5
90
  8
Layer_2
  10
226.03955
  20
0.9727478
  0
VERTEX
  5
91
  8
Layer_2
  10
226.03955
  20
-3.2486877
  0
SEQEND
  0
POLYLINE
  5
93
  8
Layer_2
  62
1
  66
1
  10
0
  20
0
  30
0
  0
VERTEX
  5
93
  8
Layer_2
  10
226.03955
  20
-14.347351
  0
VERTEX
  5
94
  8
Layer_2
  10
226.03955
  20
-18.568787
  0
SEQEND
  0
POLYLINE
  5
96
  8
Layer_2
  62
1
  66
1
  10
0
  20
0
  30
0
  0
VERTEX
  5
96
  8
Layer_2
  10
225.98174
  20
28.12175
  0
VERTEX
  5
97
  8
Layer_2
  10
225.98174
  20
21.887726
  0
SEQEND
  0
POLYLINE
  5
99
  8
Layer_2
  62
1
  66
1
  10
0
  20
0
  30
0
  0
VERTEX
  5
99
  8
Layer_2
  10
225.98174
  20
11.328064
  0
VERTEX
  5
9a
  8
Layer_2
  10
225.98174
  20
5.0940552
  0
SEQEND
  0
POLYLINE
  5
9c
  8
Layer_2
  62
1
  66
1
  10
0
  20
0
  30
0
  0
VERTEX
  5
9c
  8
Layer_2
  10
241.7258
  20
-6.1387024
  0
VERTEX
  5
9d
  8
Layer_2
  10
241.7258
  20
-12.372726
  0
SEQEND
  0
POLYLINE
  5
9f
  8
Layer_2
  62
1
  66
1
  10
0
  20
0
  30
0
  0
VERTEX
  5
9f
  8
Layer_2
  10
241.7258
  20
28.12175
  0
VERTEX
  5
a0
  8
Layer_2
  10
241.7258
  20
21.887726
  0
SEQEND
  0
POLYLINE
  5
a2
  8
Layer_2
  62
1
  66
1
  10
0
  20
0
  30
0
  0
VERTEX
  5
a2
  8
Layer_2
  10
241.7258
  20
11.328064
  0
VERTEX
  5
a3
  8
Layer_2
  10
241.7258
  20
5.0940552
  0
SEQEND
  0
POLYLINE
  5
a5
  8
Layer_2
  62
1
  66
1
  10
0
  20
0
  30
0
  0
VERTEX
  5
a5
  8
Layer_2
  10
241.78363
  20
17.766418
  0
VERTEX
  5
a6
  8
Layer_2
  10
241.78363
  20
13.544983
  0
SEQEND
  0
POLYLINE
  5
a8
  8
Layer_2
  62
1
  66
1
  10
0
  20
0
  30
0
  0
VERTEX
  5
a8
  8
Layer_2
  10
226.03955
  20
17.766418
  0
VERTEX
  5
a9
  8
Layer_2
  10
226.03955
  20
13.544983
  0
SEQEND
  0
POLYLINE
  5
ab
  8
Layer_2
  62
1
  66
1
  10
0
  20
0
  30
0
  0
VERTEX
  5
ab
  8
Layer_2
  10
225.98174
  20
-6.1387024
  0
VERTEX
  5
ac
  8
Layer_2
  10
225.98174
  20
-12.372726
  0
SEQEND
  0
POLYLINE
  5
ae
  8
Layer_2
  62
1
  66
1
  10
0
  20
0
  30
0
  0
VERTEX
  5
ae
  8
Layer_2
  10
241.78363
  20
-14.347351
  0
VERTEX
  5
af
  8
Layer_2
  10
241.78363
  20
-18.568787
  0
SEQEND
  0
POLYLINE
  5
b1
  8
Layer_2
  62
1
  66
1
  10
0
  20
0
  30
0
  0
VERTEX
  5
b1
  8
Layer_2
  10
241.78363
  20
0.9727478
  0
VERTEX
  5
b2
  8
Layer_2
  10
241.78363
  20
-3.2486877
  0
SEQEND
  0
POLYLINE
  5
b4
  8
Layer_2
  62
1
  66
1
  10
0
  20
0
  30
0
  0
VERTEX
  5
b4
  8
Layer_2
  10
209.18805
  20
-6.1387024
  0
VERTEX
  5
b5
  8
Layer_2
  10
209.18805
  20
-12.372726
  0
SEQEND
  0
POLYLINE
  5
b7
  8
Layer_2
  62
1
  66
1
  10
0
  20
0
  30
0
  0
VERTEX
  5
b7
  8
Layer_2
  10
209.18805
  20
11.328064
  0
VERTEX
  5
b8
  8
Layer_2
  10
209.18805
  20
5.0940552
  0
SEQEND
  0
POLYLINE
  5
ba
  8
Layer_2
  62
1
  66
1
  10
0
  20
0
  30
0
  0
VERTEX
  5
ba
  8
Layer_2
  10
209.24588
  20
-14.347351
  0
VERTEX
  5
bb
  8
Layer_2
  10
209.24588
  20
-18.568787
  0
SEQEND
  0
POLYLINE
  5
bd
  8
Layer_2
  62
1
  66
1
  10
0
  20
0
  30
0
  0
VERTEX
  5
bd
  8
Layer_2
  10
209.18805
  20
28.12175
  0
VERTEX
  5
be
  8
Layer_2
  10
209.18805
  20
21.887726
  0
SEQEND
  0
POLYLINE
  5
c0
  8
Layer_2
  62
1
  66
1
  10
0
  20
0
  30
0
  0
VERTEX
  5
c0
  8
Layer_2
  10
209.24588
  20
0.9727478
  0
VERTEX
  5
c1
  8
Layer_2
  10
209.24588
  20
-3.2486877
  0
SEQEND
  0
POLYLINE
  5
c3
  8
Layer_2
  62
1
  66
1
  10
0
  20
0
  30
0
  0
VERTEX
  5
c3
  8
Layer_2
  10
209.24588
  20
17.766418
  0
VERTEX
  5
c4
  8
Layer_2
  10
209.24588
  20
13.544983
  0
SEQEND
  0
POLYLINE
  5
c6
  8
Layer_2
  62
1
  66
1
  10
0
  20
0
  30
0
  0
VERTEX
  5
c6
  8
Layer_2
  10
193.50182
  20
-14.347351
  0
VERTEX
  5
c7
  8
Layer_2
  10
193.50182
  20
-18.568787
  0
SEQEND
  0
POLYLINE
  5
c9
  8
Layer_2
  62
1
  66
1
  10
0
  20
0
  30
0
  0
VERTEX
  5
c9
  8
Layer_2
  10
193.44398
  20
-6.1387024
  0
VERTEX
  5
ca
  8
Layer_2
  10
193.44398
  20
-12.372726
  0
SEQEND
  0
POLYLINE
  5
cc
  8
Layer_2
  62
1
  66
1
  10
0
  20
0
  30
0
  0
VERTEX
  5
cc
  8
Layer_2
  10
193.50182
  20
0.9727478
  0
VERTEX
  5
cd
  8
Layer_2
  10
193.50182
  20
-3.2486877
  0
SEQEND
  0
POLYLINE
  5
cf
  8
Layer_2
  62
1
  66
1
  10
0
  20
0
  30
0
  0
VERTEX
  5
cf
  8
Layer_2
  10
193.44398
  20
11.328064
  0
VERTEX
  5
d0
  8
Layer_2
  10
193.44398
  20
5.0940552
  0
SEQEND
  0
POLYLINE
  5
d2
  8
Layer_2
  62
1
  66
1
  10
0
  20
0
  30
0
  0
VERTEX
  5
d2
  8
Layer_2
  10
193.50182
  20
17.766418
  0
VERTEX
  5
d3
  8
Layer_2
  10
193.50182
  20
13.544983
  0
SEQEND
  0
POLYLINE
  5
d5
  8
Layer_2
  62
1
  66
1
  10
0
  20
0
  30
0
  0
VERTEX
  5
d5
  8
Layer_2
  10
193.44398
  20
28.12175
  0
VERTEX
  5
d6
  8
Layer_2
  10
193.44398
  20
21.887726
  0
SEQEND
  0
POLYLINE
  5
d8
  8
Layer_2
  62
1
  66
1
  10
0
  20
0
  30
0
  0
VERTEX
  5
d8
  8
Layer_2
  10
181.68903
  20
-19.505981
  0
VERTEX
  5
d9
  8
Layer_2
  10
181.68903
  20
29.790894
  0
SEQEND
  0
POLYLINE
  5
db
  8
Layer_2
  62
1
  66
1
  10
0
  20
0
  30
0
  0
VERTEX
  5
db
  8
Layer_2
  10
253.37744
  20
-19.505981
  0
VERTEX
  5
dc
  8
Layer_2
  10
181.68903
  20
-19.505981
  0
SEQEND
  0
POLYLINE
  5
de
  8
Layer_2
  62
1
  66
1
  10
0
  20
0
  30
0
  0
VERTEX
  5
de
  8
Layer_2
  10
253.37744
  20
29.790894
  0
VERTEX
  5
df
  8
Layer_2
  10
253.37744
  20
-19.505981
  0
SEQEND
  0
POLYLINE
  5
e1
  8
Layer_2
  62
1
  66
1
  10
0
  20
0
  30
0
  0
VERTEX
  5
e1
  8
Layer_2
  10
181.68903
  20
29.790894
  0
VERTEX
  5
e2
  8
Layer_2
  10
253.37744
  20
29.790894
  0
SEQEND
  0
POLYLINE
  5
e4
  8
Layer_2
  62
1
  66
1
  10
0
  20
0
  30
0
  0
VERTEX
  5
e4
  8
Layer_2
  10
123.71342
  20
48.042328
  0
VERTEX
  5
e5
  8
Layer_2
  10
128.84346
  20
48.040878
  0
SEQEND
  0
POLYLINE
  5
e7
  8
Layer_2
  62
1
  66
1
  10
0
  20
0
  30
0
  0
VERTEX
  5
e7
  8
Layer_2
  10
-16.074158
  20
51.263618
  0
VERTEX
  5
e8
  8
Layer_2
  10
-12.925345
  20
51.262733
  0
SEQEND
  0
POLYLINE
  5
ea
  8
Layer_2
  62
1
  66
1
  10
0
  20
0
  30
0
  0
VERTEX
  5
ea
  8
Layer_2
  10
83.957344
  20
48.557358
  0
VERTEX
  5
eb
  8
Layer_2
  10
88.767029
  20
48.131882
  0
SEQEND
  0
POLYLINE
  5
ed
  8
Layer_2
  62
1
  66
1
  10
0
  20
0
  30
0
  0
VERTEX
  5
ed
  8
Layer_2
  10
50.056999
  20
51.563156
  0
VERTEX
  5
ee
  8
Layer_2
  10
55.481865
  20
51.074249
  0
SEQEND
  0
POLYLINE
  5
f0
  8
Layer_2
  62
1
  66
1
  10
0
  20
0
  30
0
  0
VERTEX
  5
f0
  8
Layer_2
  10
161.07356
  20
47.991333
  0
VERTEX
  5
f1
  8
Layer_2
  10
165.63629
  20
47.990051
  0
SEQEND
  0
POLYLINE
  5
f3
  8
Layer_2
  62
1
  66
1
  10
0
  20
0
  30
0
  0
VERTEX
  5
f3
  8
Layer_2
  10
114.89702
  20
69.416344
  0
VERTEX
  5
f4
  8
Layer_2
  10
119.45976
  20
69.415054
  0
SEQEND
  0
POLYLINE
  5
f6
  8
Layer_2
  62
1
  66
1
  10
0
  20
0
  30
0
  0
VERTEX
  5
f6
  8
Layer_2
  10
-16.07448
  20
58.956383
  0
VERTEX
  5
f7
  8
Layer_2
  10
-12.925666
  20
58.95549
  0
SEQEND
  0
POLYLINE
  5
f9
  8
Layer_2
  62
1
  66
1
  10
0
  20
0
  30
0
  0
VERTEX
  5
f9
  8
Layer_2
  10
130.01711
  20
69.452477
  0
VERTEX
  5
fa
  8
Layer_2
  10
135.14714
  20
69.451027
  0
SEQEND
  0
POLYLINE
  5
fc
  8
Layer_2
  62
1
  66
1
  10
0
  20
0
  30
0
  0
VERTEX
  5
fc
  8
Layer_2
  10
115.66315
  20
48.044601
  0
VERTEX
  5
fd
  8
Layer_2
  10
120.65205
  20
48.043198
  0
SEQEND
  0
POLYLINE
  5
ff
  8
Layer_2
  62
1
  66
1
  10
0
  20
0
  30
0
  0
VERTEX
  5
ff
  8
Layer_2
  10
100.14622
  20
48.065277
  0
VERTEX
  5
100
  8
Layer_2
  10
104.81593
  20
48.063965
  0
SEQEND
  0
POLYLINE
  5
102
  8
Layer_2
  62
1
  66
1
  10
0
  20
0
  30
0
  0
VERTEX
  5
102
  8
Layer_2
  10
77.120705
  20
49.139633
  0
VERTEX
  5
103
  8
Layer_2
  10
82.083176
  20
48.654541
  0
SEQEND
  0
POLYLINE
  5
105
  8
Layer_2
  62
1
  66
1
  10
0
  20
0
  30
0
  0
VERTEX
  5
105
  8
Layer_2
  10
25.171848
  20
58.85762
  0
VERTEX
  5
106
  8
Layer_2
  10
30.533836
  20
58.856102
  0
SEQEND
  0
POLYLINE
  5
108
  8
Layer_2
  62
1
  66
1
  10
0
  20
0
  30
0
  0
VERTEX
  5
108
  8
Layer_2
  10
71.362427
  20
49.591019
  0
VERTEX
  5
109
  8
Layer_2
  10
74.752235
  20
49.433304
  0
SEQEND
  0
POLYLINE
  5
10b
  8
Layer_2
  62
1
  66
1
  10
0
  20
0
  30
0
  0
VERTEX
  5
10b
  8
Layer_2
  10
40.089668
  20
28.109131
  0
VERTEX
  5
10c
  8
Layer_2
  10
44.010895
  20
27.737503
  0
SEQEND
  0
POLYLINE
  5
10e
  8
Layer_2
  62
1
  66
1
  10
0
  20
0
  30
0
  0
VERTEX
  5
10e
  8
Layer_2
  10
1.5618057
  20
58.864304
  0
VERTEX
  5
10f
  8
Layer_2
  10
6.042778
  20
58.863029
  0
SEQEND
  0
POLYLINE
  5
111
  8
Layer_2
  62
1
  66
1
  10
0
  20
0
  30
0
  0
VERTEX
  5
111
  8
Layer_2
  10
24.533707
  20
77.299988
  0
VERTEX
  5
112
  8
Layer_2
  10
24.534176
  20
78.961563
  0
SEQEND
  0
POLYLINE
  5
114
  8
Layer_2
  62
1
  66
1
  10
0
  20
0
  30
0
  0
VERTEX
  5
114
  8
Layer_2
  10
237.548
  20
73.044899
  0
VERTEX
  5
115
  8
Layer_2
  10
237.54858
  20
75.122818
  0
SEQEND
  0
POLYLINE
  5
117
  8
Layer_2
  62
1
  66
1
  10
0
  20
0
  30
0
  0
VERTEX
  5
117
  8
Layer_2
  10
-22.372107
  20
58.95816
  0
VERTEX
  5
118
  8
Layer_2
  10
-19.223293
  20
58.957275
  0
SEQEND
  0
POLYLINE
  5
11a
  8
Layer_2
  62
1
  66
1
  10
0
  20
0
  30
0
  0
VERTEX
  5
11a
  8
Layer_2
  10
57.661148
  20
50.906189
  0
VERTEX
  5
11b
  8
Layer_2
  10
63.026436
  20
50.429016
  0
SEQEND
  0
POLYLINE
  5
11d
  8
Layer_2
  62
1
  66
1
  10
0
  20
0
  30
0
  0
VERTEX
  5
11d
  8
Layer_2
  10
106.44992
  20
69.475426
  0
VERTEX
  5
11e
  8
Layer_2
  10
111.11963
  20
69.474106
  0
SEQEND
  0
POLYLINE
  5
120
  8
Layer_2
  62
1
  66
1
  10
0
  20
0
  30
0
  0
VERTEX
  5
120
  8
Layer_2
  10
53.838074
  20
26.766357
  0
VERTEX
  5
121
  8
Layer_2
  10
59.203369
  20
26.2892
  0
SEQEND
  0
POLYLINE
  5
123
  8
Layer_2
  62
1
  66
1
  10
0
  20
0
  30
0
  0
VERTEX
  5
123
  8
Layer_2
  10
-25.517971
  20
60.555847
  0
VERTEX
  5
124
  8
Layer_2
  10
-25.517166
  20
63.399872
  0
SEQEND
  0
POLYLINE
  5
126
  8
Layer_2
  62
1
  66
1
  10
0
  20
0
  30
0
  0
VERTEX
  5
126
  8
Layer_2
  10
64.918701
  20
50.213516
  0
VERTEX
  5
127
  8
Layer_2
  10
69.979927
  20
49.768799
  0
SEQEND
  0
POLYLINE
  5
129
  8
Layer_2
  62
1
  66
1
  10
0
  20
0
  30
0
  0
VERTEX
  5
129
  8
Layer_2
  10
24.532078
  20
71.550934
  0
VERTEX
  5
12a
  8
Layer_2
  10
24.532604
  20
73.411903
  0
SEQEND
  0
POLYLINE
  5
12c
  8
Layer_2
  62
1
  66
1
  10
0
  20
0
  30
0
  0
VERTEX
  5
12c
  8
Layer_2
  10
168.14337
  20
48.029755
  0
VERTEX
  5
12d
  8
Layer_2
  10
173.13228
  20
48.028336
  0
SEQEND
  0
POLYLINE
  5
12f
  8
Layer_2
  62
1
  66
1
  10
0
  20
0
  30
0
  0
VERTEX
  5
12f
  8
Layer_2
  10
24.532944
  20
74.608238
  0
VERTEX
  5
130
  8
Layer_2
  10
24.533405
  20
76.232719
  0
SEQEND
  0
POLYLINE
  5
132
  8
Layer_2
  62
1
  66
1
  10
0
  20
0
  30
0
  0
VERTEX
  5
132
  8
Layer_2
  10
-25.442667
  20
68.414307
  0
VERTEX
  5
133
  8
Layer_2
  10
-25.443621
  20
65.046387
  0
SEQEND
  0
POLYLINE
  5
135
  8
Layer_2
  62
1
  66
1
  10
0
  20
0
  30
0
  0
VERTEX
  5
135
  8
Layer_2
  10
214.9187
  20
75.129219
  0
VERTEX
  5
136
  8
Layer_2
  10
214.91971
  20
78.670685
  0
SEQEND
  0
POLYLINE
  5
138
  8
Layer_2
  62
1
  66
1
  10
0
  20
0
  30
0
  0
VERTEX
  5
138
  8
Layer_2
  10
237.49417
  20
76.496567
  0
VERTEX
  5
139
  8
Layer_2
  10
237.49454
  20
78.962036
  0
SEQEND
  0
POLYLINE
  5
13b
  8
Layer_2
  62
1
  66
1
  10
0
  20
0
  30
0
  0
VERTEX
  5
13b
  8
Layer_2
  10
152.62646
  20
48.05043
  0
VERTEX
  5
13c
  8
Layer_2
  10
157.29617
  20
48.049103
  0
SEQEND
  0
POLYLINE
  5
13e
  8
Layer_2
  62
1
  66
1
  10
0
  20
0
  30
0
  0
VERTEX
  5
13e
  8
Layer_2
  10
139.47516
  20
69.46608
  0
VERTEX
  5
13f
  8
Layer_2
  10
143.84044
  20
69.464844
  0
SEQEND
  0
POLYLINE
  5
141
  8
Layer_2
  62
1
  66
1
  10
0
  20
0
  30
0
  0
VERTEX
  5
141
  8
Layer_2
  10
154.78198
  20
69.40506
  0
VERTEX
  5
142
  8
Layer_2
  10
159.34473
  20
69.403763
  0
SEQEND
  0
POLYLINE
  5
144
  8
Layer_2
  62
1
  66
1
  10
0
  20
0
  30
0
  0
VERTEX
  5
144
  8
Layer_2
  10
61.095634
  20
26.073685
  0
VERTEX
  5
145
  8
Layer_2
  10
66.127823
  20
25.589783
  0
SEQEND
  0
POLYLINE
  5
147
  8
Layer_2
  62
1
  66
1
  10
0
  20
0
  30
0
  0
VERTEX
  5
147
  8
Layer_2
  10
-22.371786
  20
51.265404
  0
VERTEX
  5
148
  8
Layer_2
  10
-19.222973
  20
51.264511
  0
SEQEND
  0
POLYLINE
  5
14a
  8
Layer_2
  62
1
  66
1
  10
0
  20
0
  30
0
  0
VERTEX
  5
14a
  8
Layer_2
  10
9.6047897
  20
58.862022
  0
VERTEX
  5
14b
  8
Layer_2
  10
14.439613
  20
58.860657
  0
SEQEND
  0
POLYLINE
  5
14d
  8
Layer_2
  62
1
  66
1
  10
0
  20
0
  30
0
  0
VERTEX
  5
14d
  8
Layer_2
  10
17.820736
  20
58.859695
  0
VERTEX
  5
14e
  8
Layer_2
  10
21.626019
  20
58.85862
  0
SEQEND
  0
POLYLINE
  5
150
  8
Layer_2
  62
1
  66
1
  10
0
  20
0
  30
0
  0
VERTEX
  5
150
  8
Layer_2
  10
43.945976
  20
52.115883
  0
VERTEX
  5
151
  8
Layer_2
  10
47.867203
  20
51.744255
  0
SEQEND
  0
POLYLINE
  5
153
  8
Layer_2
  62
1
  66
1
  10
0
  20
0
  30
0
  0
VERTEX
  5
153
  8
Layer_2
  10
176.19365
  20
48.027466
  0
VERTEX
  5
154
  8
Layer_2
  10
181.32368
  20
48.026016
  0
SEQEND
  0
POLYLINE
  5
156
  8
Layer_2
  62
1
  66
1
  10
0
  20
0
  30
0
  0
VERTEX
  5
156
  8
Layer_2
  10
80.134216
  20
24.23056
  0
VERTEX
  5
157
  8
Layer_2
  10
84.943901
  20
23.805069
  0
SEQEND
  0
POLYLINE
  5
159
  8
Layer_2
  62
1
  66
1
  10
0
  20
0
  30
0
  0
VERTEX
  5
159
  8
Layer_2
  10
93.286499
  20
48.067215
  0
VERTEX
  5
15a
  8
Layer_2
  10
97.651779
  20
48.065979
  0
SEQEND
  0
POLYLINE
  5
15c
  8
Layer_2
  62
1
  66
1
  10
0
  20
0
  30
0
  0
VERTEX
  5
15c
  8
Layer_2
  10
40.214035
  20
74.603798
  0
VERTEX
  5
15d
  8
Layer_2
  10
40.214493
  20
76.228279
  0
SEQEND
  0
POLYLINE
  5
15f
  8
Layer_2
  62
1
  66
1
  10
0
  20
0
  30
0
  0
VERTEX
  5
15f
  8
Layer_2
  10
108.59332
  20
48.006195
  0
VERTEX
  5
160
  8
Layer_2
  10
113.15607
  20
48.004898
  0
SEQEND
  0
POLYLINE
  5
162
  8
Layer_2
  62
1
  66
1
  10
0
  20
0
  30
0
  0
VERTEX
  5
162
  8
Layer_2
  10
40.213173
  20
71.546494
  0
VERTEX
  5
163
  8
Layer_2
  10
40.213699
  20
73.407463
  0
SEQEND
  0
POLYLINE
  5
165
  8
Layer_2
  62
1
  66
1
  10
0
  20
0
  30
0
  0
VERTEX
  5
165
  8
Layer_2
  10
145.76672
  20
48.052368
  0
VERTEX
  5
166
  8
Layer_2
  10
150.132
  20
48.051132
  0
SEQEND
  0
POLYLINE
  5
168
  8
Layer_2
  62
1
  66
1
  10
0
  20
0
  30
0
  0
VERTEX
  5
168
  8
Layer_2
  10
46.233948
  20
27.489868
  0
VERTEX
  5
169
  8
Layer_2
  10
51.658813
  20
27.000961
  0
SEQEND
  0
POLYLINE
  5
16b
  8
Layer_2
  62
1
  66
1
  10
0
  20
0
  30
0
  0
VERTEX
  5
16b
  8
Layer_2
  10
67.539352
  20
25.451187
  0
VERTEX
  5
16c
  8
Layer_2
  10
70.853058
  20
25.124298
  0
SEQEND
  0
POLYLINE
  5
16e
  8
Layer_2
  62
1
  66
1
  10
0
  20
0
  30
0
  0
VERTEX
  5
16e
  8
Layer_2
  10
99.590187
  20
69.477371
  0
VERTEX
  5
16f
  8
Layer_2
  10
103.95547
  20
69.476135
  0
SEQEND
  0
POLYLINE
  5
171
  8
Layer_2
  62
1
  66
1
  10
0
  20
0
  30
0
  0
VERTEX
  5
171
  8
Layer_2
  10
146.3349
  20
69.464142
  0
VERTEX
  5
172
  8
Layer_2
  10
151.00459
  20
69.462814
  0
SEQEND
  0
POLYLINE
  5
174
  8
Layer_2
  62
1
  66
1
  10
0
  20
0
  30
0
  0
VERTEX
  5
174
  8
Layer_2
  10
40.214798
  20
77.295547
  0
VERTEX
  5
175
  8
Layer_2
  10
40.215271
  20
78.95713
  0
SEQEND
  0
POLYLINE
  5
177
  8
Layer_2
  62
1
  66
1
  10
0
  20
0
  30
0
  0
VERTEX
  5
177
  8
Layer_2
  10
-5.3568878
  20
58.866257
  0
VERTEX
  5
178
  8
Layer_2
  10
-1.8110561
  20
58.865257
  0
SEQEND
  0
POLYLINE
  5
17a
  8
Layer_2
  62
1
  66
1
  10
0
  20
0
  30
0
  0
VERTEX
  5
17a
  8
Layer_2
  10
121.96684
  20
69.454758
  0
VERTEX
  5
17b
  8
Layer_2
  10
126.95573
  20
69.453339
  0
SEQEND
  0
POLYLINE
  5
17d
  8
Layer_2
  62
1
  66
1
  10
0
  20
0
  30
0
  0
VERTEX
  5
17d
  8
Layer_2
  10
73.297607
  20
24.906311
  0
VERTEX
  5
17e
  8
Layer_2
  10
78.260071
  20
24.421219
  0
SEQEND
  0
POLYLINE
  5
180
  8
Layer_2
  62
1
  66
1
  10
0
  20
0
  30
0
  0
VERTEX
  5
180
  8
Layer_2
  10
214.91722
  20
69.881203
  0
VERTEX
  5
181
  8
Layer_2
  10
214.91826
  20
73.590034
  0
SEQEND
  0
POLYLINE
  5
183
  8
Layer_2
  62
1
  66
1
  10
0
  20
0
  30
0
  0
VERTEX
  5
183
  8
Layer_2
  10
237.49503
  20
82.440659
  0
VERTEX
  5
184
  8
Layer_2
  10
237.49469
  20
79.975189
  0
SEQEND
  0
POLYLINE
  5
186
  8
Layer_2
  62
1
  66
1
  10
0
  20
0
  30
0
  0
VERTEX
  5
186
  8
Layer_2
  10
237.5498
  20
85.892311
  0
VERTEX
  5
187
  8
Layer_2
  10
237.5498
  20
83.814392
  0
SEQEND
  0
POLYLINE
  5
189
  8
Layer_2
  62
1
  66
1
  10
0
  20
0
  30
0
  0
VERTEX
  5
189
  8
Layer_2
  10
214.91994
  20
83.814392
  0
VERTEX
  5
18a
  8
Layer_2
  10
214.91994
  20
80.272926
  0
SEQEND
  0
POLYLINE
  5
18c
  8
Layer_2
  62
1
  66
1
  10
0
  20
0
  30
0
  0
VERTEX
  5
18c
  8
Layer_2
  10
214.91994
  20
89.062416
  0
VERTEX
  5
18d
  8
Layer_2
  10
214.91994
  20
85.353584
  0
SEQEND
  0
POLYLINE
  5
18f
  8
Layer_2
  62
1
  66
1
  10
0
  20
0
  30
0
  0
VERTEX
  5
18f
  8
Layer_2
  10
139.478
  20
89.498894
  0
VERTEX
  5
190
  8
Layer_2
  10
143.84328
  20
89.498894
  0
SEQEND
  0
POLYLINE
  5
192
  8
Layer_2
  62
1
  66
1
  10
0
  20
0
  30
0
  0
VERTEX
  5
192
  8
Layer_2
  10
146.33772
  20
89.498894
  0
VERTEX
  5
193
  8
Layer_2
  10
151.00743
  20
89.498894
  0
SEQEND
  0
POLYLINE
  5
195
  8
Layer_2
  62
1
  66
1
  10
0
  20
0
  30
0
  0
VERTEX
  5
195
  8
Layer_2
  10
154.78484
  20
89.55558
  0
VERTEX
  5
196
  8
Layer_2
  10
159.34758
  20
89.55558
  0
SEQEND
  0
POLYLINE
  5
198
  8
Layer_2
  62
1
  66
1
  10
0
  20
0
  30
0
  0
VERTEX
  5
198
  8
Layer_2
  10
114.89987
  20
89.55558
  0
VERTEX
  5
199
  8
Layer_2
  10
119.4626
  20
89.55558
  0
SEQEND
  0
POLYLINE
  5
19b
  8
Layer_2
  62
1
  66
1
  10
0
  20
0
  30
0
  0
VERTEX
  5
19b
  8
Layer_2
  10
121.96968
  20
89.515175
  0
VERTEX
  5
19c
  8
Layer_2
  10
126.95857
  20
89.515175
  0
SEQEND
  0
POLYLINE
  5
19e
  8
Layer_2
  62
1
  66
1
  10
0
  20
0
  30
0
  0
VERTEX
  5
19e
  8
Layer_2
  10
99.593018
  20
89.498894
  0
VERTEX
  5
19f
  8
Layer_2
  10
103.9583
  20
89.498894
  0
SEQEND
  0
POLYLINE
  5
1a1
  8
Layer_2
  62
1
  66
1
  10
0
  20
0
  30
0
  0
VERTEX
  5
1a1
  8
Layer_2
  10
106.45276
  20
89.498894
  0
VERTEX
  5
1a2
  8
Layer_2
  10
111.12247
  20
89.498894
  0
SEQEND
  0
POLYLINE
  5
1a4
  8
Layer_2
  62
1
  66
1
  10
0
  20
0
  30
0
  0
VERTEX
  5
1a4
  8
Layer_2
  10
130.01994
  20
89.515175
  0
VERTEX
  5
1a5
  8
Layer_2
  10
135.14998
  20
89.515175
  0
SEQEND
  0
POLYLINE
  5
1a7
  8
Layer_2
  62
1
  66
1
  10
0
  20
0
  30
0
  0
VERTEX
  5
1a7
  8
Layer_2
  10
161.08247
  20
110.96751
  0
VERTEX
  5
1a8
  8
Layer_2
  10
165.6452
  20
110.96751
  0
SEQEND
  0
POLYLINE
  5
1aa
  8
Layer_2
  62
1
  66
1
  10
0
  20
0
  30
0
  0
VERTEX
  5
1aa
  8
Layer_2
  10
168.15228
  20
110.92711
  0
VERTEX
  5
1ab
  8
Layer_2
  10
173.14117
  20
110.92711
  0
SEQEND
  0
POLYLINE
  5
1ad
  8
Layer_2
  62
1
  66
1
  10
0
  20
0
  30
0
  0
VERTEX
  5
1ad
  8
Layer_2
  10
145.77562
  20
110.91083
  0
VERTEX
  5
1ae
  8
Layer_2
  10
150.1409
  20
110.91083
  0
SEQEND
  0
POLYLINE
  5
1b0
  8
Layer_2
  62
1
  66
1
  10
0
  20
0
  30
0
  0
VERTEX
  5
1b0
  8
Layer_2
  10
152.63536
  20
110.91083
  0
VERTEX
  5
1b1
  8
Layer_2
  10
157.30507
  20
110.91083
  0
SEQEND
  0
POLYLINE
  5
1b3
  8
Layer_2
  62
1
  66
1
  10
0
  20
0
  30
0
  0
VERTEX
  5
1b3
  8
Layer_2
  10
176.20255
  20
110.92711
  0
VERTEX
  5
1b4
  8
Layer_2
  10
181.33258
  20
110.92711
  0
SEQEND
  0
POLYLINE
  5
1b6
  8
Layer_2
  62
1
  66
1
  10
0
  20
0
  30
0
  0
VERTEX
  5
1b6
  8
Layer_2
  10
123.72232
  20
110.92711
  0
VERTEX
  5
1b7
  8
Layer_2
  10
128.85236
  20
110.92711
  0
SEQEND
  0
POLYLINE
  5
1b9
  8
Layer_2
  62
1
  66
1
  10
0
  20
0
  30
0
  0
VERTEX
  5
1b9
  8
Layer_2
  10
115.67204
  20
110.92711
  0
VERTEX
  5
1ba
  8
Layer_2
  10
120.66095
  20
110.92711
  0
SEQEND
  0
POLYLINE
  5
1bc
  8
Layer_2
  62
1
  66
1
  10
0
  20
0
  30
0
  0
VERTEX
  5
1bc
  8
Layer_2
  10
108.60223
  20
110.96751
  0
VERTEX
  5
1bd
  8
Layer_2
  10
113.16498
  20
110.96751
  0
SEQEND
  0
POLYLINE
  5
1bf
  8
Layer_2
  62
1
  66
1
  10
0
  20
0
  30
0
  0
VERTEX
  5
1bf
  8
Layer_2
  10
100.15512
  20
110.91083
  0
VERTEX
  5
1c0
  8
Layer_2
  10
104.82483
  20
110.91083
  0
SEQEND
  0
POLYLINE
  5
1c2
  8
Layer_2
  62
1
  66
1
  10
0
  20
0
  30
0
  0
VERTEX
  5
1c2
  8
Layer_2
  10
93.295387
  20
110.91083
  0
VERTEX
  5
1c3
  8
Layer_2
  10
97.660675
  20
110.91083
  0
SEQEND
  0
POLYLINE
  5
1c5
  8
Layer_2
  62
1
  66
1
  10
0
  20
0
  30
0
  0
VERTEX
  5
1c5
  8
Layer_2
  10
83.966103
  20
110.42332
  0
VERTEX
  5
1c6
  8
Layer_2
  10
88.775902
  20
110.84745
  0
SEQEND
  0
POLYLINE
  5
1c8
  8
Layer_2
  62
1
  66
1
  10
0
  20
0
  30
0
  0
VERTEX
  5
1c8
  8
Layer_2
  10
77.129295
  20
109.84299
  0
VERTEX
  5
1c9
  8
Layer_2
  10
82.091904
  20
110.32668
  0
SEQEND
  0
POLYLINE
  5
1cb
  8
Layer_2
  62
1
  66
1
  10
0
  20
0
  30
0
  0
VERTEX
  5
1cb
  8
Layer_2
  10
71.370888
  20
109.39324
  0
VERTEX
  5
1cc
  8
Layer_2
  10
74.76075
  20
109.54999
  0
SEQEND
  0
POLYLINE
  5
1ce
  8
Layer_2
  62
1
  66
1
  10
0
  20
0
  30
0
  0
VERTEX
  5
1ce
  8
Layer_2
  10
64.926994
  20
108.77256
  0
VERTEX
  5
1cf
  8
Layer_2
  10
69.988342
  20
109.21584
  0
SEQEND
  0
POLYLINE
  5
1d1
  8
Layer_2
  62
1
  66
1
  10
0
  20
0
  30
0
  0
VERTEX
  5
1d1
  8
Layer_2
  10
57.669235
  20
108.08195
  0
VERTEX
  5
1d2
  8
Layer_2
  10
63.034668
  20
108.55759
  0
SEQEND
  0
POLYLINE
  5
1d4
  8
Layer_2
  62
1
  66
1
  10
0
  20
0
  30
0
  0
VERTEX
  5
1d4
  8
Layer_2
  10
50.064911
  20
107.42713
  0
VERTEX
  5
1d5
  8
Layer_2
  10
55.489914
  20
107.9145
  0
SEQEND
  0
POLYLINE
  5
1d7
  8
Layer_2
  62
1
  66
1
  10
0
  20
0
  30
0
  0
VERTEX
  5
1d7
  8
Layer_2
  10
43.953728
  20
106.87613
  0
VERTEX
  5
1d8
  8
Layer_2
  10
47.875053
  20
107.24665
  0
SEQEND
  0
POLYLINE
  5
1da
  8
Layer_2
  62
1
  66
1
  10
0
  20
0
  30
0
  0
VERTEX
  5
1da
  8
Layer_2
  10
80.149857
  20
134.75121
  0
VERTEX
  5
1db
  8
Layer_2
  10
84.959663
  20
135.17534
  0
SEQEND
  0
POLYLINE
  5
1dd
  8
Layer_2
  62
1
  66
1
  10
0
  20
0
  30
0
  0
VERTEX
  5
1dd
  8
Layer_2
  10
73.313057
  20
134.07739
  0
VERTEX
  5
1de
  8
Layer_2
  10
78.275658
  20
134.56107
  0
SEQEND
  0
POLYLINE
  5
1e0
  8
Layer_2
  62
1
  66
1
  10
0
  20
0
  30
0
  0
VERTEX
  5
1e0
  8
Layer_2
  10
67.554649
  20
133.53415
  0
VERTEX
  5
1e1
  8
Layer_2
  10
70.868446
  20
133.86009
  0
SEQEND
  0
POLYLINE
  5
1e3
  8
Layer_2
  62
1
  66
1
  10
0
  20
0
  30
0
  0
VERTEX
  5
1e3
  8
Layer_2
  10
61.110756
  20
132.91347
  0
VERTEX
  5
1e4
  8
Layer_2
  10
66.143082
  20
133.39595
  0
SEQEND
  0
POLYLINE
  5
1e6
  8
Layer_2
  62
1
  66
1
  10
0
  20
0
  30
0
  0
VERTEX
  5
1e6
  8
Layer_2
  10
53.852997
  20
132.22285
  0
VERTEX
  5
1e7
  8
Layer_2
  10
59.21843
  20
132.6985
  0
SEQEND
  0
POLYLINE
  5
1e9
  8
Layer_2
  62
1
  66
1
  10
0
  20
0
  30
0
  0
VERTEX
  5
1e9
  8
Layer_2
  10
46.248665
  20
131.5015
  0
VERTEX
  5
1ea
  8
Layer_2
  10
51.673676
  20
131.98886
  0
SEQEND
  0
POLYLINE
  5
1ec
  8
Layer_2
  62
1
  66
1
  10
0
  20
0
  30
0
  0
VERTEX
  5
1ec
  8
Layer_2
  10
40.104218
  20
130.88397
  0
VERTEX
  5
1ed
  8
Layer_2
  10
44.025551
  20
131.25449
  0
SEQEND
  0
POLYLINE
  5
1ef
  8
Layer_2
  62
1
  66
1
  10
0
  20
0
  30
0
  0
VERTEX
  5
1ef
  8
Layer_2
  10
40.215424
  20
87.446571
  0
VERTEX
  5
1f0
  8
Layer_2
  10
40.215424
  20
85.585609
  0
SEQEND
  0
POLYLINE
  5
1f2
  8
Layer_2
  62
1
  66
1
  10
0
  20
0
  30
0
  0
VERTEX
  5
1f2
  8
Layer_2
  10
40.215424
  20
84.389275
  0
VERTEX
  5
1f3
  8
Layer_2
  10
40.215424
  20
82.764793
  0
SEQEND
  0
POLYLINE
  5
1f5
  8
Layer_2
  62
1
  66
1
  10
0
  20
0
  30
0
  0
VERTEX
  5
1f5
  8
Layer_2
  10
40.215424
  20
81.697517
  0
VERTEX
  5
1f6
  8
Layer_2
  10
40.215424
  20
80.035942
  0
SEQEND
  0
POLYLINE
  5
1f8
  8
Layer_2
  62
1
  66
1
  10
0
  20
0
  30
0
  0
VERTEX
  5
1f8
  8
Layer_2
  10
24.534328
  20
81.697517
  0
VERTEX
  5
1f9
  8
Layer_2
  10
24.534328
  20
80.035942
  0
SEQEND
  0
POLYLINE
  5
1fb
  8
Layer_2
  62
1
  66
1
  10
0
  20
0
  30
0
  0
VERTEX
  5
1fb
  8
Layer_2
  10
24.534328
  20
84.389275
  0
VERTEX
  5
1fc
  8
Layer_2
  10
24.534328
  20
82.764793
  0
SEQEND
  0
POLYLINE
  5
1fe
  8
Layer_2
  62
1
  66
1
  10
0
  20
0
  30
0
  0
VERTEX
  5
1fe
  8
Layer_2
  10
24.534328
  20
87.446571
  0
VERTEX
  5
1ff
  8
Layer_2
  10
24.534328
  20
85.585609
  0
SEQEND
  0
POLYLINE
  5
201
  8
Layer_2
  62
1
  66
1
  10
0
  20
0
  30
0
  0
VERTEX
  5
201
  8
Layer_2
  10
25.177692
  20
100.13971
  0
VERTEX
  5
202
  8
Layer_2
  10
30.53968
  20
100.13971
  0
SEQEND
  0
POLYLINE
  5
204
  8
Layer_2
  62
1
  66
1
  10
0
  20
0
  30
0
  0
VERTEX
  5
204
  8
Layer_2
  10
17.82658
  20
100.13971
  0
VERTEX
  5
205
  8
Layer_2
  10
21.631863
  20
100.13971
  0
SEQEND
  0
POLYLINE
  5
207
  8
Layer_2
  62
1
  66
1
  10
0
  20
0
  30
0
  0
VERTEX
  5
207
  8
Layer_2
  10
9.61063
  20
100.13971
  0
VERTEX
  5
208
  8
Layer_2
  10
14.445457
  20
100.13971
  0
SEQEND
  0
POLYLINE
  5
20a
  8
Layer_2
  62
1
  66
1
  10
0
  20
0
  30
0
  0
VERTEX
  5
20a
  8
Layer_2
  10
1.5676479
  20
100.13971
  0
VERTEX
  5
20b
  8
Layer_2
  10
6.0486183
  20
100.13971
  0
SEQEND
  0
POLYLINE
  5
20d
  8
Layer_2
  62
1
  66
1
  10
0
  20
0
  30
0
  0
VERTEX
  5
20d
  8
Layer_2
  10
-5.3510456
  20
100.13971
  0
VERTEX
  5
20e
  8
Layer_2
  10
-1.8052158
  20
100.13971
  0
SEQEND
  0
POLYLINE
  5
210
  8
Layer_2
  62
1
  66
1
  10
0
  20
0
  30
0
  0
VERTEX
  5
210
  8
Layer_2
  10
-25.439528
  20
90.597343
  0
VERTEX
  5
211
  8
Layer_2
  10
-25.439528
  20
93.965271
  0
SEQEND
  0
POLYLINE
  5
213
  8
Layer_2
  62
1
  66
1
  10
0
  20
0
  30
0
  0
VERTEX
  5
213
  8
Layer_2
  10
-25.512606
  20
98.455826
  0
VERTEX
  5
214
  8
Layer_2
  10
-25.512606
  20
95.611809
  0
SEQEND
  0
POLYLINE
  5
216
  8
Layer_2
  62
1
  66
1
  10
0
  20
0
  30
0
  0
VERTEX
  5
216
  8
Layer_2
  10
-16.068665
  20
100.05262
  0
VERTEX
  5
217
  8
Layer_2
  10
-12.919849
  20
100.05262
  0
SEQEND
  0
POLYLINE
  5
219
  8
Layer_2
  62
1
  66
1
  10
0
  20
0
  30
0
  0
VERTEX
  5
219
  8
Layer_2
  10
-22.366291
  20
100.05262
  0
VERTEX
  5
21a
  8
Layer_2
  10
-19.217476
  20
100.05262
  0
SEQEND
  0
POLYLINE
  5
21c
  8
Layer_2
  62
1
  66
1
  10
0
  20
0
  30
0
  0
VERTEX
  5
21c
  8
Layer_2
  10
-16.066166
  20
107.74538
  0
VERTEX
  5
21d
  8
Layer_2
  10
-12.917351
  20
107.74538
  0
SEQEND
  0
POLYLINE
  5
21f
  8
Layer_2
  62
1
  66
1
  10
0
  20
0
  30
0
  0
VERTEX
  5
21f
  8
Layer_2
  10
-22.363792
  20
107.74538
  0
VERTEX
  5
220
  8
Layer_2
  10
-19.214977
  20
107.74538
  0
SEQEND
  0
POLYLINE
  5
222
  8
Layer_2
  62
1
  66
1
  10
0
  20
0
  30
0
  0
VERTEX
  5
222
  8
Layer_2
  10
99.833878
  20
34.539291
  0
VERTEX
  5
223
  8
Layer_2
  10
91.05764
  20
47.874557
  0
SEQEND
  0
POLYLINE
  5
225
  8
Layer_2
  62
1
  66
1
  10
0
  20
0
  30
0
  0
VERTEX
  5
225
  8
Layer_2
  10
123.59161
  20
34.532578
  0
VERTEX
  5
226
  8
Layer_2
  10
99.833878
  20
34.539291
  0
SEQEND
  0
POLYLINE
  5
228
  8
Layer_2
  62
1
  66
1
  10
0
  20
0
  30
0
  0
VERTEX
  5
228
  8
Layer_2
  10
132.83275
  20
47.959824
  0
VERTEX
  5
229
  8
Layer_2
  10
123.59161
  20
34.532578
  0
SEQEND
  0
POLYLINE
  5
22b
  8
Layer_2
  62
1
  66
1
  10
0
  20
0
  30
0
  0
VERTEX
  5
22b
  8
Layer_2
  10
144.3521
  20
47.956558
  0
VERTEX
  5
22c
  8
Layer_2
  10
132.83275
  20
47.959824
  0
SEQEND
  0
POLYLINE
  5
22e
  8
Layer_2
  62
1
  66
1
  10
0
  20
0
  30
0
  0
VERTEX
  5
22e
  8
Layer_2
  10
152.99319
  20
34.524246
  0
VERTEX
  5
22f
  8
Layer_2
  10
144.3521
  20
47.956558
  0
SEQEND
  0
POLYLINE
  5
231
  8
Layer_2
  62
1
  66
1
  10
0
  20
0
  30
0
  0
VERTEX
  5
231
  8
Layer_2
  10
177.12144
  20
34.517426
  0
VERTEX
  5
232
  8
Layer_2
  10
152.99319
  20
34.524246
  0
SEQEND
  0
POLYLINE
  5
234
  8
Layer_2
  62
1
  66
1
  10
0
  20
0
  30
0
  0
VERTEX
  5
234
  8
Layer_2
  10
186.17151
  20
47.954254
  0
VERTEX
  5
235
  8
Layer_2
  10
177.12144
  20
34.517426
  0
SEQEND
  0
POLYLINE
  5
237
  8
Layer_2
  62
1
  66
1
  10
0
  20
0
  30
0
  0
VERTEX
  5
237
  8
Layer_2
  10
186.17474
  20
59.393288
  0
VERTEX
  5
238
  8
Layer_2
  10
186.17151
  20
47.954254
  0
SEQEND
  0
POLYLINE
  5
23a
  8
Layer_2
  62
1
  66
1
  10
0
  20
0
  30
0
  0
VERTEX
  5
23a
  8
Layer_2
  10
163.84621
  20
69.383835
  0
VERTEX
  5
23b
  8
Layer_2
  10
186.17474
  20
59.393288
  0
SEQEND
  0
POLYLINE
  5
23d
  8
Layer_2
  62
1
  66
1
  10
0
  20
0
  30
0
  0
VERTEX
  5
23d
  8
Layer_2
  10
198.65732
  20
69.373985
  0
VERTEX
  5
23e
  8
Layer_2
  10
163.84621
  20
69.383835
  0
SEQEND
  0
POLYLINE
  5
240
  8
Layer_2
  62
1
  66
1
  10
0
  20
0
  30
0
  0
VERTEX
  5
240
  8
Layer_2
  10
197.9265
  20
61.19413
  0
VERTEX
  5
241
  8
Layer_2
  10
198.65732
  20
69.373985
  0
SEQEND
  0
POLYLINE
  5
243
  8
Layer_2
  62
1
  66
1
  10
0
  20
0
  30
0
  0
VERTEX
  5
243
  8
Layer_2
  10
193.19991
  20
58.153481
  0
VERTEX
  5
244
  8
Layer_2
  10
197.9265
  20
61.19413
  0
SEQEND
  0
POLYLINE
  5
246
  8
Layer_2
  62
1
  66
1
  10
0
  20
0
  30
0
  0
VERTEX
  5
246
  8
Layer_2
  10
193.19693
  20
47.631912
  0
VERTEX
  5
247
  8
Layer_2
  10
193.19991
  20
58.153481
  0
SEQEND
  0
POLYLINE
  5
249
  8
Layer_2
  62
1
  66
1
  10
0
  20
0
  30
0
  0
VERTEX
  5
249
  8
Layer_2
  10
187.24945
  20
47.633591
  0
VERTEX
  5
24a
  8
Layer_2
  10
193.19693
  20
47.631912
  0
SEQEND
  0
POLYLINE
  5
24c
  8
Layer_2
  62
1
  66
1
  10
0
  20
0
  30
0
  0
VERTEX
  5
24c
  8
Layer_2
  10
187.24553
  20
33.781464
  0
VERTEX
  5
24d
  8
Layer_2
  10
187.24945
  20
47.633591
  0
SEQEND
  0
POLYLINE
  5
24f
  8
Layer_2
  62
1
  66
1
  10
0
  20
0
  30
0
  0
VERTEX
  5
24f
  8
Layer_2
  10
212.69
  20
37.733582
  0
VERTEX
  5
250
  8
Layer_2
  10
187.24553
  20
33.781464
  0
SEQEND
  0
POLYLINE
  5
252
  8
Layer_2
  62
1
  66
1
  10
0
  20
0
  30
0
  0
VERTEX
  5
252
  8
Layer_2
  10
214.97162
  20
68.520409
  0
VERTEX
  5
253
  8
Layer_2
  10
212.69
  20
37.733582
  0
SEQEND
  0
POLYLINE
  5
255
  8
Layer_2
  62
1
  66
1
  10
0
  20
0
  30
0
  0
VERTEX
  5
255
  8
Layer_2
  10
221.401
  20
38.001328
  0
VERTEX
  5
256
  8
Layer_2
  10
214.97162
  20
68.520409
  0
SEQEND
  0
POLYLINE
  5
258
  8
Layer_2
  62
1
  66
1
  10
0
  20
0
  30
0
  0
VERTEX
  5
258
  8
Layer_2
  10
230.65225
  20
37.998718
  0
VERTEX
  5
259
  8
Layer_2
  10
221.401
  20
38.001328
  0
SEQEND
  0
POLYLINE
  5
25b
  8
Layer_2
  62
1
  66
1
  10
0
  20
0
  30
0
  0
VERTEX
  5
25b
  8
Layer_2
  10
237.4704
  20
72.273651
  0
VERTEX
  5
25c
  8
Layer_2
  10
230.65225
  20
37.998718
  0
SEQEND
  0
POLYLINE
  5
25e
  8
Layer_2
  62
1
  66
1
  10
0
  20
0
  30
0
  0
VERTEX
  5
25e
  8
Layer_2
  10
254.80286
  20
72.268745
  0
VERTEX
  5
25f
  8
Layer_2
  10
237.4704
  20
72.273651
  0
SEQEND
  0
POLYLINE
  5
261
  8
Layer_2
  62
1
  66
1
  10
0
  20
0
  30
0
  0
VERTEX
  5
261
  8
Layer_2
  10
254.8049
  20
79.466164
  0
VERTEX
  5
262
  8
Layer_2
  10
254.80286
  20
72.268745
  0
SEQEND
  0
POLYLINE
  5
264
  8
Layer_2
  62
1
  66
1
  10
0
  20
0
  30
0
  0
VERTEX
  5
264
  8
Layer_2
  10
254.8049
  20
86.663582
  0
VERTEX
  5
265
  8
Layer_2
  10
254.8049
  20
79.466164
  0
SEQEND
  0
POLYLINE
  5
267
  8
Layer_2
  62
1
  66
1
  10
0
  20
0
  30
0
  0
VERTEX
  5
267
  8
Layer_2
  10
237.47241
  20
86.663582
  0
VERTEX
  5
268
  8
Layer_2
  10
254.8049
  20
86.663582
  0
SEQEND
  0
POLYLINE
  5
26a
  8
Layer_2
  62
1
  66
1
  10
0
  20
0
  30
0
  0
VERTEX
  5
26a
  8
Layer_2
  10
230.664
  20
120.94044
  0
VERTEX
  5
26b
  8
Layer_2
  10
237.47241
  20
86.663582
  0
SEQEND
  0
POLYLINE
  5
26d
  8
Layer_2
  62
1
  66
1
  10
0
  20
0
  30
0
  0
VERTEX
  5
26d
  8
Layer_2
  10
221.41273
  20
120.94044
  0
VERTEX
  5
26e
  8
Layer_2
  10
230.664
  20
120.94044
  0
SEQEND
  0
POLYLINE
  5
270
  8
Layer_2
  62
1
  66
1
  10
0
  20
0
  30
0
  0
VERTEX
  5
270
  8
Layer_2
  10
214.97472
  20
90.423187
  0
VERTEX
  5
271
  8
Layer_2
  10
221.41273
  20
120.94044
  0
SEQEND
  0
POLYLINE
  5
273
  8
Layer_2
  62
1
  66
1
  10
0
  20
0
  30
0
  0
VERTEX
  5
273
  8
Layer_2
  10
212.70181
  20
121.21066
  0
VERTEX
  5
274
  8
Layer_2
  10
214.97472
  20
90.423187
  0
SEQEND
  0
POLYLINE
  5
276
  8
Layer_2
  62
1
  66
1
  10
0
  20
0
  30
0
  0
VERTEX
  5
276
  8
Layer_2
  10
187.25847
  20
125.16999
  0
VERTEX
  5
277
  8
Layer_2
  10
212.70181
  20
121.21066
  0
SEQEND
  0
POLYLINE
  5
279
  8
Layer_2
  62
1
  66
1
  10
0
  20
0
  30
0
  0
VERTEX
  5
279
  8
Layer_2
  10
187.25847
  20
111.31786
  0
VERTEX
  5
27a
  8
Layer_2
  10
187.25847
  20
125.16999
  0
SEQEND
  0
POLYLINE
  5
27c
  8
Layer_2
  62
1
  66
1
  10
0
  20
0
  30
0
  0
VERTEX
  5
27c
  8
Layer_2
  10
193.20595
  20
111.31786
  0
VERTEX
  5
27d
  8
Layer_2
  10
187.25847
  20
111.31786
  0
SEQEND
  0
POLYLINE
  5
27f
  8
Layer_2
  62
1
  66
1
  10
0
  20
0
  30
0
  0
VERTEX
  5
27f
  8
Layer_2
  10
193.20595
  20
100.79628
  0
VERTEX
  5
280
  8
Layer_2
  10
193.20595
  20
111.31786
  0
SEQEND
  0
POLYLINE
  5
282
  8
Layer_2
  62
1
  66
1
  10
0
  20
0
  30
0
  0
VERTEX
  5
282
  8
Layer_2
  10
197.93167
  20
97.754295
  0
VERTEX
  5
283
  8
Layer_2
  10
193.20595
  20
100.79628
  0
SEQEND
  0
POLYLINE
  5
285
  8
Layer_2
  62
1
  66
1
  10
0
  20
0
  30
0
  0
VERTEX
  5
285
  8
Layer_2
  10
198.66017
  20
89.574234
  0
VERTEX
  5
286
  8
Layer_2
  10
197.93167
  20
97.754295
  0
SEQEND
  0
POLYLINE
  5
288
  8
Layer_2
  62
1
  66
1
  10
0
  20
0
  30
0
  0
VERTEX
  5
288
  8
Layer_2
  10
163.84908
  20
89.574234
  0
VERTEX
  5
289
  8
Layer_2
  10
198.66017
  20
89.574234
  0
SEQEND
  0
POLYLINE
  5
28b
  8
Layer_2
  62
1
  66
1
  10
0
  20
0
  30
0
  0
VERTEX
  5
28b
  8
Layer_2
  10
186.18042
  20
99.558464
  0
VERTEX
  5
28c
  8
Layer_2
  10
163.84908
  20
89.574234
  0
SEQEND
  0
POLYLINE
  5
28e
  8
Layer_2
  62
1
  66
1
  10
0
  20
0
  30
0
  0
VERTEX
  5
28e
  8
Layer_2
  10
186.18042
  20
110.99751
  0
VERTEX
  5
28f
  8
Layer_2
  10
186.18042
  20
99.558464
  0
SEQEND
  0
POLYLINE
  5
291
  8
Layer_2
  62
1
  66
1
  10
0
  20
0
  30
0
  0
VERTEX
  5
291
  8
Layer_2
  10
177.13417
  20
124.4369
  0
VERTEX
  5
292
  8
Layer_2
  10
186.18042
  20
110.99751
  0
SEQEND
  0
POLYLINE
  5
294
  8
Layer_2
  62
1
  66
1
  10
0
  20
0
  30
0
  0
VERTEX
  5
294
  8
Layer_2
  10
153.00592
  20
124.4369
  0
VERTEX
  5
295
  8
Layer_2
  10
177.13417
  20
124.4369
  0
SEQEND
  0
POLYLINE
  5
297
  8
Layer_2
  62
1
  66
1
  10
0
  20
0
  30
0
  0
VERTEX
  5
297
  8
Layer_2
  10
144.36102
  20
111.00703
  0
VERTEX
  5
298
  8
Layer_2
  10
153.00592
  20
124.4369
  0
SEQEND
  0
POLYLINE
  5
29a
  8
Layer_2
  62
1
  66
1
  10
0
  20
0
  30
0
  0
VERTEX
  5
29a
  8
Layer_2
  10
132.84167
  20
111.00703
  0
VERTEX
  5
29b
  8
Layer_2
  10
144.36102
  20
111.00703
  0
SEQEND
  0
POLYLINE
  5
29d
  8
Layer_2
  62
1
  66
1
  10
0
  20
0
  30
0
  0
VERTEX
  5
29d
  8
Layer_2
  10
123.60432
  20
124.4369
  0
VERTEX
  5
29e
  8
Layer_2
  10
132.84167
  20
111.00703
  0
SEQEND
  0
POLYLINE
  5
2a0
  8
Layer_2
  62
1
  66
1
  10
0
  20
0
  30
0
  0
VERTEX
  5
2a0
  8
Layer_2
  10
99.846603
  20
124.4369
  0
VERTEX
  5
2a1
  8
Layer_2
  10
123.60432
  20
124.4369
  0
SEQEND
  0
POLYLINE
  5
2a3
  8
Layer_2
  62
1
  66
1
  10
0
  20
0
  30
0
  0
VERTEX
  5
2a3
  8
Layer_2
  10
91.066589
  20
111.10411
  0
VERTEX
  5
2a4
  8
Layer_2
  10
99.846603
  20
124.4369
  0
SEQEND
  0
POLYLINE
  5
2a6
  8
Layer_2
  62
1
  66
1
  10
0
  20
0
  30
0
  0
VERTEX
  5
2a6
  8
Layer_2
  10
91.05764
  20
47.874557
  0
VERTEX
  5
2a7
  8
Layer_2
  10
98.428444
  20
69.491905
  0
SEQEND
  0
POLYLINE
  5
2a9
  8
Layer_2
  62
1
  66
1
  10
0
  20
0
  30
0
  0
VERTEX
  5
2a9
  8
Layer_2
  10
86.852386
  20
23.734848
  0
VERTEX
  5
2aa
  8
Layer_2
  10
91.05764
  20
47.874557
  0
SEQEND
  0
POLYLINE
  5
2ac
  8
Layer_2
  62
1
  66
1
  10
0
  20
0
  30
0
  0
VERTEX
  5
2ac
  8
Layer_2
  10
92.229347
  20
1.064209
  0
VERTEX
  5
2ad
  8
Layer_2
  10
86.852386
  20
23.734848
  0
SEQEND
  0
POLYLINE
  5
2af
  8
Layer_2
  62
1
  66
1
  10
0
  20
0
  30
0
  0
VERTEX
  5
2af
  8
Layer_2
  10
90.817741
  20
-8.5272369
  0
VERTEX
  5
2b0
  8
Layer_2
  10
92.229347
  20
1.064209
  0
SEQEND
  0
POLYLINE
  5
2b2
  8
Layer_2
  62
1
  66
1
  10
0
  20
0
  30
0
  0
VERTEX
  5
2b2
  8
Layer_2
  10
35.853046
  20
1.0801697
  0
VERTEX
  5
2b3
  8
Layer_2
  10
90.817741
  20
-8.5272369
  0
SEQEND
  0
POLYLINE
  5
2b5
  8
Layer_2
  62
1
  66
1
  10
0
  20
0
  30
0
  0
VERTEX
  5
2b5
  8
Layer_2
  10
38.384079
  20
28.208527
  0
VERTEX
  5
2b6
  8
Layer_2
  10
35.853046
  20
1.0801697
  0
SEQEND
  0
POLYLINE
  5
2b8
  8
Layer_2
  62
1
  66
1
  10
0
  20
0
  30
0
  0
VERTEX
  5
2b8
  8
Layer_2
  10
41.927452
  20
52.284676
  0
VERTEX
  5
2b9
  8
Layer_2
  10
38.384079
  20
28.208527
  0
SEQEND
  0
POLYLINE
  5
2bb
  8
Layer_2
  62
1
  66
1
  10
0
  20
0
  30
0
  0
VERTEX
  5
2bb
  8
Layer_2
  10
33.518421
  20
58.845688
  0
VERTEX
  5
2bc
  8
Layer_2
  10
41.927452
  20
52.284676
  0
SEQEND
  0
POLYLINE
  5
2be
  8
Layer_2
  62
1
  66
1
  10
0
  20
0
  30
0
  0
VERTEX
  5
2be
  8
Layer_2
  10
23.87999
  20
37.435242
  0
VERTEX
  5
2bf
  8
Layer_2
  10
33.518421
  20
58.845688
  0
SEQEND
  0
POLYLINE
  5
2c1
  8
Layer_2
  62
1
  66
1
  10
0
  20
0
  30
0
  0
VERTEX
  5
2c1
  8
Layer_2
  10
7.5488968
  20
37.439865
  0
VERTEX
  5
2c2
  8
Layer_2
  10
23.87999
  20
37.435242
  0
SEQEND
  0
POLYLINE
  5
2c4
  8
Layer_2
  62
1
  66
1
  10
0
  20
0
  30
0
  0
VERTEX
  5
2c4
  8
Layer_2
  10
-8.2214527
  20
58.867073
  0
VERTEX
  5
2c5
  8
Layer_2
  10
7.5488968
  20
37.439865
  0
SEQEND
  0
POLYLINE
  5
2c7
  8
Layer_2
  62
1
  66
1
  10
0
  20
0
  30
0
  0
VERTEX
  5
2c7
  8
Layer_2
  10
-8.2184353
  20
69.523857
  0
VERTEX
  5
2c8
  8
Layer_2
  10
-8.2214527
  20
58.867073
  0
SEQEND
  0
POLYLINE
  5
2ca
  8
Layer_2
  62
1
  66
1
  10
0
  20
0
  30
0
  0
VERTEX
  5
2ca
  8
Layer_2
  10
40.126114
  20
69.276871
  0
VERTEX
  5
2cb
  8
Layer_2
  10
-8.2184353
  20
69.523857
  0
SEQEND
  0
POLYLINE
  5
2cd
  8
Layer_2
  62
1
  66
1
  10
0
  20
0
  30
0
  0
VERTEX
  5
2cd
  8
Layer_2
  10
40.126488
  20
70.57917
  0
VERTEX
  5
2ce
  8
Layer_2
  10
40.126114
  20
69.276871
  0
SEQEND
  0
POLYLINE
  5
2d0
  8
Layer_2
  62
1
  66
1
  10
0
  20
0
  30
0
  0
VERTEX
  5
2d0
  8
Layer_2
  10
-10.069679
  20
70.593384
  0
VERTEX
  5
2d1
  8
Layer_2
  10
40.126488
  20
70.57917
  0
SEQEND
  0
POLYLINE
  5
2d3
  8
Layer_2
  62
1
  66
1
  10
0
  20
0
  30
0
  0
VERTEX
  5
2d3
  8
Layer_2
  10
-10.075142
  20
51.298576
  0
VERTEX
  5
2d4
  8
Layer_2
  10
-10.069679
  20
70.593384
  0
SEQEND
  0
POLYLINE
  5
2d6
  8
Layer_2
  62
1
  66
1
  10
0
  20
0
  30
0
  0
VERTEX
  5
2d6
  8
Layer_2
  10
-5.142952
  20
47.901794
  0
VERTEX
  5
2d7
  8
Layer_2
  10
-10.075142
  20
51.298576
  0
SEQEND
  0
POLYLINE
  5
2d9
  8
Layer_2
  62
1
  66
1
  10
0
  20
0
  30
0
  0
VERTEX
  5
2d9
  8
Layer_2
  10
-5.1499481
  20
23.186691
  0
VERTEX
  5
2da
  8
Layer_2
  10
-5.142952
  20
47.901794
  0
SEQEND
  0
POLYLINE
  5
2dc
  8
Layer_2
  62
1
  66
1
  10
0
  20
0
  30
0
  0
VERTEX
  5
2dc
  8
Layer_2
  10
6.3118134
  20
23.183456
  0
VERTEX
  5
2dd
  8
Layer_2
  10
-5.1499481
  20
23.186691
  0
SEQEND
  0
POLYLINE
  5
2df
  8
Layer_2
  62
1
  66
1
  10
0
  20
0
  30
0
  0
VERTEX
  5
2df
  8
Layer_2
  10
6.3063698
  20
3.9554291
  0
VERTEX
  5
2e0
  8
Layer_2
  10
6.3118134
  20
23.183456
  0
SEQEND
  0
POLYLINE
  5
2e2
  8
Layer_2
  62
1
  66
1
  10
0
  20
0
  30
0
  0
VERTEX
  5
2e2
  8
Layer_2
  10
-11.322493
  20
3.9604187
  0
VERTEX
  5
2e3
  8
Layer_2
  10
6.3063698
  20
3.9554291
  0
SEQEND
  0
POLYLINE
  5
2e5
  8
Layer_2
  62
1
  66
1
  10
0
  20
0
  30
0
  0
VERTEX
  5
2e5
  8
Layer_2
  10
-32.804905
  20
15.371887
  0
VERTEX
  5
2e6
  8
Layer_2
  10
-11.322493
  20
3.9604187
  0
SEQEND
  0
POLYLINE
  5
2e8
  8
Layer_2
  62
1
  66
1
  10
0
  20
0
  30
0
  0
VERTEX
  5
2e8
  8
Layer_2
  10
-32.794743
  20
51.268356
  0
VERTEX
  5
2e9
  8
Layer_2
  10
-32.804905
  20
15.371887
  0
SEQEND
  0
POLYLINE
  5
2eb
  8
Layer_2
  62
1
  66
1
  10
0
  20
0
  30
0
  0
VERTEX
  5
2eb
  8
Layer_2
  10
-25.520599
  20
51.266296
  0
VERTEX
  5
2ec
  8
Layer_2
  10
-32.794743
  20
51.268356
  0
SEQEND
  0
POLYLINE
  5
2ee
  8
Layer_2
  62
1
  66
1
  10
0
  20
0
  30
0
  0
VERTEX
  5
2ee
  8
Layer_2
  10
-25.518421
  20
58.959053
  0
VERTEX
  5
2ef
  8
Layer_2
  10
-25.520599
  20
51.266296
  0
SEQEND
  0
POLYLINE
  5
2f1
  8
Layer_2
  62
1
  66
1
  10
0
  20
0
  30
0
  0
VERTEX
  5
2f1
  8
Layer_2
  10
-29.5369
  20
58.96019
  0
VERTEX
  5
2f2
  8
Layer_2
  10
-25.518421
  20
58.959053
  0
SEQEND
  0
POLYLINE
  5
2f4
  8
Layer_2
  62
1
  66
1
  10
0
  20
0
  30
0
  0
VERTEX
  5
2f4
  8
Layer_2
  10
-29.533609
  20
70.580154
  0
VERTEX
  5
2f5
  8
Layer_2
  10
-29.5369
  20
58.96019
  0
SEQEND
  0
POLYLINE
  5
2f7
  8
Layer_2
  62
1
  66
1
  10
0
  20
0
  30
0
  0
VERTEX
  5
2f7
  8
Layer_2
  10
-25.442055
  20
70.579002
  0
VERTEX
  5
2f8
  8
Layer_2
  10
-29.533609
  20
70.580154
  0
SEQEND
  0
POLYLINE
  5
2fa
  8
Layer_2
  62
1
  66
1
  10
0
  20
0
  30
0
  0
VERTEX
  5
2fa
  8
Layer_2
  10
-25.439528
  20
79.505829
  0
VERTEX
  5
2fb
  8
Layer_2
  10
-25.442055
  20
70.579002
  0
SEQEND
  0
POLYLINE
  5
2fd
  8
Layer_2
  62
1
  66
1
  10
0
  20
0
  30
0
  0
VERTEX
  5
2fd
  8
Layer_2
  10
-25.439528
  20
88.432655
  0
VERTEX
  5
2fe
  8
Layer_2
  10
-25.439528
  20
79.505829
  0
SEQEND
  0
POLYLINE
  5
300
  8
Layer_2
  62
1
  66
1
  10
0
  20
0
  30
0
  0
VERTEX
  5
300
  8
Layer_2
  10
-29.531082
  20
88.432655
  0
VERTEX
  5
301
  8
Layer_2
  10
-25.439528
  20
88.432655
  0
SEQEND
  0
POLYLINE
  5
303
  8
Layer_2
  62
1
  66
1
  10
0
  20
0
  30
0
  0
VERTEX
  5
303
  8
Layer_2
  10
-29.531082
  20
100.05262
  0
VERTEX
  5
304
  8
Layer_2
  10
-29.531082
  20
88.432655
  0
SEQEND
  0
POLYLINE
  5
306
  8
Layer_2
  62
1
  66
1
  10
0
  20
0
  30
0
  0
VERTEX
  5
306
  8
Layer_2
  10
-25.512606
  20
100.05262
  0
VERTEX
  5
307
  8
Layer_2
  10
-29.531082
  20
100.05262
  0
SEQEND
  0
POLYLINE
  5
309
  8
Layer_2
  62
1
  66
1
  10
0
  20
0
  30
0
  0
VERTEX
  5
309
  8
Layer_2
  10
-25.512606
  20
107.74538
  0
VERTEX
  5
30a
  8
Layer_2
  10
-25.512606
  20
100.05262
  0
SEQEND
  0
POLYLINE
  5
30c
  8
Layer_2
  62
1
  66
1
  10
0
  20
0
  30
0
  0
VERTEX
  5
30c
  8
Layer_2
  10
-32.786751
  20
107.74538
  0
VERTEX
  5
30d
  8
Layer_2
  10
-25.512606
  20
107.74538
  0
SEQEND
  0
POLYLINE
  5
30f
  8
Layer_2
  62
1
  66
1
  10
0
  20
0
  30
0
  0
VERTEX
  5
30f
  8
Layer_2
  10
-32.786751
  20
143.64186
  0
VERTEX
  5
310
  8
Layer_2
  10
-32.786751
  20
107.74538
  0
SEQEND
  0
POLYLINE
  5
312
  8
Layer_2
  62
1
  66
1
  10
0
  20
0
  30
0
  0
VERTEX
  5
312
  8
Layer_2
  10
-11.301107
  20
155.04724
  0
VERTEX
  5
313
  8
Layer_2
  10
-32.786751
  20
143.64186
  0
SEQEND
  0
POLYLINE
  5
315
  8
Layer_2
  62
1
  66
1
  10
0
  20
0
  30
0
  0
VERTEX
  5
315
  8
Layer_2
  10
6.327755
  20
155.04724
  0
VERTEX
  5
316
  8
Layer_2
  10
-11.301107
  20
155.04724
  0
SEQEND
  0
POLYLINE
  5
318
  8
Layer_2
  62
1
  66
1
  10
0
  20
0
  30
0
  0
VERTEX
  5
318
  8
Layer_2
  10
6.327755
  20
135.81921
  0
VERTEX
  5
319
  8
Layer_2
  10
6.327755
  20
155.04724
  0
SEQEND
  0
POLYLINE
  5
31b
  8
Layer_2
  62
1
  66
1
  10
0
  20
0
  30
0
  0
VERTEX
  5
31b
  8
Layer_2
  10
-5.1340065
  20
135.81921
  0
VERTEX
  5
31c
  8
Layer_2
  10
6.327755
  20
135.81921
  0
SEQEND
  0
POLYLINE
  5
31e
  8
Layer_2
  62
1
  66
1
  10
0
  20
0
  30
0
  0
VERTEX
  5
31e
  8
Layer_2
  10
-5.1340065
  20
111.10411
  0
VERTEX
  5
31f
  8
Layer_2
  10
-5.1340065
  20
135.81921
  0
SEQEND
  0
POLYLINE
  5
321
  8
Layer_2
  62
1
  66
1
  10
0
  20
0
  30
0
  0
VERTEX
  5
321
  8
Layer_2
  10
-10.067158
  20
107.70873
  0
VERTEX
  5
322
  8
Layer_2
  10
-5.1340065
  20
111.10411
  0
SEQEND
  0
POLYLINE
  5
324
  8
Layer_2
  62
1
  66
1
  10
0
  20
0
  30
0
  0
VERTEX
  5
324
  8
Layer_2
  10
-10.067158
  20
88.413918
  0
VERTEX
  5
325
  8
Layer_2
  10
-10.067158
  20
107.70873
  0
SEQEND
  0
POLYLINE
  5
327
  8
Layer_2
  62
1
  66
1
  10
0
  20
0
  30
0
  0
VERTEX
  5
327
  8
Layer_2
  10
40.129013
  20
88.413918
  0
VERTEX
  5
328
  8
Layer_2
  10
-10.067158
  20
88.413918
  0
SEQEND
  0
POLYLINE
  5
32a
  8
Layer_2
  62
1
  66
1
  10
0
  20
0
  30
0
  0
VERTEX
  5
32a
  8
Layer_2
  10
40.129013
  20
89.716225
  0
VERTEX
  5
32b
  8
Layer_2
  10
40.129013
  20
88.413918
  0
SEQEND
  0
POLYLINE
  5
32d
  8
Layer_2
  62
1
  66
1
  10
0
  20
0
  30
0
  0
VERTEX
  5
32d
  8
Layer_2
  10
-8.2156105
  20
89.482925
  0
VERTEX
  5
32e
  8
Layer_2
  10
40.129013
  20
89.716225
  0
SEQEND
  0
POLYLINE
  5
330
  8
Layer_2
  62
1
  66
1
  10
0
  20
0
  30
0
  0
VERTEX
  5
330
  8
Layer_2
  10
-8.2156105
  20
100.13971
  0
VERTEX
  5
331
  8
Layer_2
  10
-8.2156105
  20
89.482925
  0
SEQEND
  0
POLYLINE
  5
333
  8
Layer_2
  62
1
  66
1
  10
0
  20
0
  30
0
  0
VERTEX
  5
333
  8
Layer_2
  10
7.5608025
  20
121.56245
  0
VERTEX
  5
334
  8
Layer_2
  10
-8.2156105
  20
100.13971
  0
SEQEND
  0
POLYLINE
  5
336
  8
Layer_2
  62
1
  66
1
  10
0
  20
0
  30
0
  0
VERTEX
  5
336
  8
Layer_2
  10
23.891895
  20
121.56245
  0
VERTEX
  5
337
  8
Layer_2
  10
7.5608025
  20
121.56245
  0
SEQEND
  0
POLYLINE
  5
339
  8
Layer_2
  62
1
  66
1
  10
0
  20
0
  30
0
  0
VERTEX
  5
339
  8
Layer_2
  10
33.524265
  20
100.14928
  0
VERTEX
  5
33a
  8
Layer_2
  10
23.891895
  20
121.56245
  0
SEQEND
  0
POLYLINE
  5
33c
  8
Layer_2
  62
1
  66
1
  10
0
  20
0
  30
0
  0
VERTEX
  5
33c
  8
Layer_2
  10
41.935158
  20
106.70791
  0
VERTEX
  5
33d
  8
Layer_2
  10
33.524265
  20
100.14928
  0
SEQEND
  0
POLYLINE
  5
33f
  8
Layer_2
  62
1
  66
1
  10
0
  20
0
  30
0
  0
VERTEX
  5
33f
  8
Layer_2
  10
38.398598
  20
130.78506
  0
VERTEX
  5
340
  8
Layer_2
  10
41.935158
  20
106.70791
  0
SEQEND
  0
POLYLINE
  5
342
  8
Layer_2
  62
1
  66
1
  10
0
  20
0
  30
0
  0
VERTEX
  5
342
  8
Layer_2
  10
35.875244
  20
157.91414
  0
VERTEX
  5
343
  8
Layer_2
  10
38.398598
  20
130.78506
  0
SEQEND
  0
POLYLINE
  5
345
  8
Layer_2
  62
1
  66
1
  10
0
  20
0
  30
0
  0
VERTEX
  5
345
  8
Layer_2
  10
90.842659
  20
167.50598
  0
VERTEX
  5
346
  8
Layer_2
  10
35.875244
  20
157.91414
  0
SEQEND
  0
POLYLINE
  5
348
  8
Layer_2
  62
1
  66
1
  10
0
  20
0
  30
0
  0
VERTEX
  5
348
  8
Layer_2
  10
92.251549
  20
157.91414
  0
VERTEX
  5
349
  8
Layer_2
  10
90.842659
  20
167.50598
  0
SEQEND
  0
POLYLINE
  5
34b
  8
Layer_2
  62
1
  66
1
  10
0
  20
0
  30
0
  0
VERTEX
  5
34b
  8
Layer_2
  10
86.868172
  20
135.24503
  0
VERTEX
  5
34c
  8
Layer_2
  10
92.251549
  20
157.91414
  0
SEQEND
  0
POLYLINE
  5
34e
  8
Layer_2
  62
1
  66
1
  10
0
  20
0
  30
0
  0
VERTEX
  5
34e
  8
Layer_2
  10
91.066589
  20
111.10411
  0
VERTEX
  5
34f
  8
Layer_2
  10
86.868172
  20
135.24503
  0
SEQEND
  0
POLYLINE
  5
351
  8
Layer_2
  62
1
  66
1
  10
0
  20
0
  30
0
  0
VERTEX
  5
351
  8
Layer_2
  10
98.431274
  20
89.484688
  0
VERTEX
  5
352
  8
Layer_2
  10
91.066589
  20
111.10411
  0
SEQEND
  0
POLYLINE
  5
354
  8
Layer_2
  62
1
  66
1
  10
0
  20
0
  30
0
  0
VERTEX
  5
354
  8
Layer_2
  10
-3.3576279
  20
150.36182
  42
-0.41421356
  0
VERTEX
  5
355
  8
Layer_2
  10
-0.25071859
  20
147.25491
  0
SEQEND
  0
POLYLINE
  5
357
  8
Layer_2
  62
1
  66
1
  10
0
  20
0
  30
0
  0
VERTEX
  5
357
  8
Layer_2
  10
-6.4645371
  20
147.25491
  42
-0.41421356
  0
VERTEX
  5
358
  8
Layer_2
  10
-3.3576279
  20
150.36182
  0
SEQEND
  0
POLYLINE
  5
35a
  8
Layer_2
  62
1
  66
1
  10
0
  20
0
  30
0
  0
VERTEX
  5
35a
  8
Layer_2
  10
-3.3576279
  20
144.14801
  42
-0.41421356
  0
VERTEX
  5
35b
  8
Layer_2
  10
-6.4645371
  20
147.25491
  0
SEQEND
  0
POLYLINE
  5
35d
  8
Layer_2
  62
1
  66
1
  10
0
  20
0
  30
0
  0
VERTEX
  5
35d
  8
Layer_2
  10
-0.25071859
  20
147.25491
  42
-0.41421356
  0
VERTEX
  5
35e
  8
Layer_2
  10
-3.3576279
  20
144.14801
  0
SEQEND
  0
POLYLINE
  5
360
  8
Layer_2
  62
1
  66
1
  10
0
  20
0
  30
0
  0
VERTEX
  5
360
  8
Layer_2
  10
14.854721
  20
117.11517
  42
-0.41421356
  0
VERTEX
  5
361
  8
Layer_2
  10
18.062538
  20
113.90735
  0
SEQEND
  0
POLYLINE
  5
363
  8
Layer_2
  62
1
  66
1
  10
0
  20
0
  30
0
  0
VERTEX
  5
363
  8
Layer_2
  10
11.646904
  20
113.90735
  42
-0.41421356
  0
VERTEX
  5
364
  8
Layer_2
  10
14.854721
  20
117.11517
  0
SEQEND
  0
POLYLINE
  5
366
  8
Layer_2
  62
1
  66
1
  10
0
  20
0
  30
0
  0
VERTEX
  5
366
  8
Layer_2
  10
14.854721
  20
110.69953
  42
-0.41421356
  0
VERTEX
  5
367
  8
Layer_2
  10
11.646904
  20
113.90735
  0
SEQEND
  0
POLYLINE
  5
369
  8
Layer_2
  62
1
  66
1
  10
0
  20
0
  30
0
  0
VERTEX
  5
369
  8
Layer_2
  10
18.062538
  20
113.90735
  42
-0.41421356
  0
VERTEX
  5
36a
  8
Layer_2
  10
14.854721
  20
110.69953
  0
SEQEND
  0
POLYLINE
  5
36c
  8
Layer_2
  62
1
  66
1
  10
0
  20
0
  30
0
  0
VERTEX
  5
36c
  8
Layer_2
  10
-3.3959885
  20
14.851171
  42
-0.41421356
  0
VERTEX
  5
36d
  8
Layer_2
  10
-0.28907919
  20
11.744263
  0
SEQEND
  0
POLYLINE
  5
36f
  8
Layer_2
  62
1
  66
1
  10
0
  20
0
  30
0
  0
VERTEX
  5
36f
  8
Layer_2
  10
-6.5028977
  20
11.744263
  42
-0.41421356
  0
VERTEX
  5
370
  8
Layer_2
  10
-3.3959885
  20
14.851171
  0
SEQEND
  0
POLYLINE
  5
372
  8
Layer_2
  62
1
  66
1
  10
0
  20
0
  30
0
  0
VERTEX
  5
372
  8
Layer_2
  10
-3.3959885
  20
8.6373539
  42
-0.41421356
  0
VERTEX
  5
373
  8
Layer_2
  10
-6.5028977
  20
11.744263
  0
SEQEND
  0
POLYLINE
  5
375
  8
Layer_2
  62
1
  66
1
  10
0
  20
0
  30
0
  0
VERTEX
  5
375
  8
Layer_2
  10
-0.28907919
  20
11.744263
  42
-0.41421356
  0
VERTEX
  5
376
  8
Layer_2
  10
-3.3959885
  20
8.6373539
  0
SEQEND
  0
POLYLINE
  5
378
  8
Layer_2
  62
1
  66
1
  10
0
  20
0
  30
0
  0
VERTEX
  5
378
  8
Layer_2
  10
14.835236
  20
48.28933
  42
-0.41421356
  0
VERTEX
  5
379
  8
Layer_2
  10
18.043053
  20
45.081512
  0
SEQEND
  0
POLYLINE
  5
37b
  8
Layer_2
  62
1
  66
1
  10
0
  20
0
  30
0
  0
VERTEX
  5
37b
  8
Layer_2
  10
11.627419
  20
45.081512
  42
-0.41421356
  0
VERTEX
  5
37c
  8
Layer_2
  10
14.835236
  20
48.28933
  0
SEQEND
  0
POLYLINE
  5
37e
  8
Layer_2
  62
1
  66
1
  10
0
  20
0
  30
0
  0
VERTEX
  5
37e
  8
Layer_2
  10
14.835236
  20
41.873695
  42
-0.41421356
  0
VERTEX
  5
37f
  8
Layer_2
  10
11.627419
  20
45.081512
  0
SEQEND
  0
POLYLINE
  5
381
  8
Layer_2
  62
1
  66
1
  10
0
  20
0
  30
0
  0
VERTEX
  5
381
  8
Layer_2
  10
18.043053
  20
45.081512
  42
-0.41421356
  0
VERTEX
  5
382
  8
Layer_2
  10
14.835236
  20
41.873695
  0
SEQEND
  0
POLYLINE
  5
384
  8
Layer_2
  62
1
  66
1
  10
0
  20
0
  30
0
  0
VERTEX
  5
384
  8
Layer_2
  10
141.98824
  20
59.287964
  42
-0.41421356
  0
VERTEX
  5
385
  8
Layer_2
  10
145.46211
  20
55.814087
  0
SEQEND
  0
POLYLINE
  5
387
  8
Layer_2
  62
1
  66
1
  10
0
  20
0
  30
0
  0
VERTEX
  5
387
  8
Layer_2
  10
138.51436
  20
55.814087
  42
-0.41421356
  0
VERTEX
  5
388
  8
Layer_2
  10
141.98824
  20
59.287964
  0
SEQEND
  0
POLYLINE
  5
38a
  8
Layer_2
  62
1
  66
1
  10
0
  20
0
  30
0
  0
VERTEX
  5
38a
  8
Layer_2
  10
141.98824
  20
52.34021
  42
-0.41421356
  0
VERTEX
  5
38b
  8
Layer_2
  10
138.51436
  20
55.814087
  0
SEQEND
  0
POLYLINE
  5
38d
  8
Layer_2
  62
1
  66
1
  10
0
  20
0
  30
0
  0
VERTEX
  5
38d
  8
Layer_2
  10
145.46211
  20
55.814087
  42
-0.41421356
  0
VERTEX
  5
38e
  8
Layer_2
  10
141.98824
  20
52.34021
  0
SEQEND
  0
POLYLINE
  5
390
  8
Layer_2
  62
1
  66
1
  10
0
  20
0
  30
0
  0
VERTEX
  5
390
  8
Layer_2
  10
141.99493
  20
106.62402
  42
-0.41421356
  0
VERTEX
  5
391
  8
Layer_2
  10
145.46881
  20
103.15015
  0
SEQEND
  0
POLYLINE
  5
393
  8
Layer_2
  62
1
  66
1
  10
0
  20
0
  30
0
  0
VERTEX
  5
393
  8
Layer_2
  10
138.52106
  20
103.15015
  42
-0.41421356
  0
VERTEX
  5
394
  8
Layer_2
  10
141.99493
  20
106.62402
  0
SEQEND
  0
POLYLINE
  5
396
  8
Layer_2
  62
1
  66
1
  10
0
  20
0
  30
0
  0
VERTEX
  5
396
  8
Layer_2
  10
141.99493
  20
99.67627
  42
-0.41421356
  0
VERTEX
  5
397
  8
Layer_2
  10
138.52106
  20
103.15015
  0
SEQEND
  0
POLYLINE
  5
399
  8
Layer_2
  62
1
  66
1
  10
0
  20
0
  30
0
  0
VERTEX
  5
399
  8
Layer_2
  10
145.46881
  20
103.15015
  42
-0.41421356
  0
VERTEX
  5
39a
  8
Layer_2
  10
141.99493
  20
99.67627
  0
SEQEND
  0
POLYLINE
  5
39c
  8
Layer_2
  62
1
  66
1
  10
0
  20
0
  30
0
  0
VERTEX
  5
39c
  8
Layer_2
  10
214.36548
  20
253.17245
  42
-0.41421356
  0
VERTEX
  5
39d
  8
Layer_2
  10
211.61548
  20
250.42245
  0
SEQEND
  0
POLYLINE
  5
39f
  8
Layer_2
  62
1
  66
1
  10
0
  20
0
  30
0
  0
VERTEX
  5
39f
  8
Layer_2
  10
211.61548
  20
250.42245
  42
-0.41421356
  0
VERTEX
  5
3a0
  8
Layer_2
  10
208.86548
  20
253.17245
  0
SEQEND
  0
POLYLINE
  5
3a2
  8
Layer_2
  62
1
  66
1
  10
0
  20
0
  30
0
  0
VERTEX
  5
3a2
  8
Layer_2
  10
208.86548
  20
253.17245
  42
-0.41421356
  0
VERTEX
  5
3a3
  8
Layer_2
  10
211.61548
  20
255.92245
  0
SEQEND
  0
POLYLINE
  5
3a5
  8
Layer_2
  62
1
  66
1
  10
0
  20
0
  30
0
  0
VERTEX
  5
3a5
  8
Layer_2
  10
211.61548
  20
255.92245
  42
-0.41421356
  0
VERTEX
  5
3a6
  8
Layer_2
  10
214.36548
  20
253.17245
  0
SEQEND
  0
POLYLINE
  5
3a8
  8
Layer_2
  62
1
  66
1
  10
0
  20
0
  30
0
  0
VERTEX
  5
3a8
  8
Layer_2
  10
249.07434
  20
263.802
  42
-0.41421356
  0
VERTEX
  5
3a9
  8
Layer_2
  10
246.32434
  20
261.052
  0
SEQEND
  0
POLYLINE
  5
3ab
  8
Layer_2
  62
1
  66
1
  10
0
  20
0
  30
0
  0
VERTEX
  5
3ab
  8
Layer_2
  10
246.32434
  20
261.052
  42
-0.41421356
  0
VERTEX
  5
3ac
  8
Layer_2
  10
243.57434
  20
263.802
  0
SEQEND
  0
POLYLINE
  5
3ae
  8
Layer_2
  62
1
  66
1
  10
0
  20
0
  30
0
  0
VERTEX
  5
3ae
  8
Layer_2
  10
243.57434
  20
263.802
  42
-0.41421356
  0
VERTEX
  5
3af
  8
Layer_2
  10
246.32434
  20
266.552
  0
SEQEND
  0
POLYLINE
  5
3b1
  8
Layer_2
  62
1
  66
1
  10
0
  20
0
  30
0
  0
VERTEX
  5
3b1
  8
Layer_2
  10
246.32434
  20
266.552
  42
-0.41421356
  0
VERTEX
  5
3b2
  8
Layer_2
  10
249.07434
  20
263.802
  0
SEQEND
  0
POLYLINE
  5
3b4
  8
Layer_2
  62
1
  66
1
  10
0
  20
0
  30
0
  0
VERTEX
  5
3b4
  8
Layer_2
  10
241.06805
  20
221.54828
  42
-0.41421356
  0
VERTEX
  5
3b5
  8
Layer_2
  10
238.31805
  20
218.79828
  0
SEQEND
  0
POLYLINE
  5
3b7
  8
Layer_2
  62
1
  66
1
  10
0
  20
0
  30
0
  0
VERTEX
  5
3b7
  8
Layer_2
  10
238.31805
  20
218.79828
  42
-0.41421356
  0
VERTEX
  5
3b8
  8
Layer_2
  10
235.56805
  20
221.54828
  0
SEQEND
  0
POLYLINE
  5
3ba
  8
Layer_2
  62
1
  66
1
  10
0
  20
0
  30
0
  0
VERTEX
  5
3ba
  8
Layer_2
  10
235.56805
  20
221.54828
  42
-0.41421356
  0
VERTEX
  5
3bb
  8
Layer_2
  10
238.31805
  20
224.29828
  0
SEQEND
  0
POLYLINE
  5
3bd
  8
Layer_2
  62
1
  66
1
  10
0
  20
0
  30
0
  0
VERTEX
  5
3bd
  8
Layer_2
  10
238.31805
  20
224.29828
  42
-0.41421356
  0
VERTEX
  5
3be
  8
Layer_2
  10
241.06805
  20
221.54828
  0
SEQEND
  0
POLYLINE
  5
3c0
  8
Layer_2
  62
1
  66
1
  10
0
  20
0
  30
0
  0
VERTEX
  5
3c0
  8
Layer_2
  10
249.60004
  20
179.27823
  42
-0.41421356
  0
VERTEX
  5
3c1
  8
Layer_2
  10
246.85004
  20
176.52823
  0
SEQEND
  0
POLYLINE
  5
3c3
  8
Layer_2
  62
1
  66
1
  10
0
  20
0
  30
0
  0
VERTEX
  5
3c3
  8
Layer_2
  10
246.85004
  20
176.52823
  42
-0.41421356
  0
VERTEX
  5
3c4
  8
Layer_2
  10
244.10004
  20
179.27823
  0
SEQEND
  0
POLYLINE
  5
3c6
  8
Layer_2
  62
1
  66
1
  10
0
  20
0
  30
0
  0
VERTEX
  5
3c6
  8
Layer_2
  10
244.10004
  20
179.27823
  42
-0.41421356
  0
VERTEX
  5
3c7
  8
Layer_2
  10
246.85004
  20
182.02823
  0
SEQEND
  0
POLYLINE
  5
3c9
  8
Layer_2
  62
1
  66
1
  10
0
  20
0
  30
0
  0
VERTEX
  5
3c9
  8
Layer_2
  10
246.85004
  20
182.02823
  42
-0.41421356
  0
VERTEX
  5
3ca
  8
Layer_2
  10
249.60004
  20
179.27823
  0
SEQEND
  0
POLYLINE
  5
3cc
  8
Layer_2
  62
1
  66
1
  10
0
  20
0
  30
0
  0
VERTEX
  5
3cc
  8
Layer_2
  10
214.95612
  20
189.92078
  42
-0.41421356
  0
VERTEX
  5
3cd
  8
Layer_2
  10
212.20612
  20
187.17078
  0
SEQEND
  0
POLYLINE
  5
3cf
  8
Layer_2
  62
1
  66
1
  10
0
  20
0
  30
0
  0
VERTEX
  5
3cf
  8
Layer_2
  10
212.20612
  20
187.17078
  42
-0.41421356
  0
VERTEX
  5
3d0
  8
Layer_2
  10
209.45612
  20
189.92078
  0
SEQEND
  0
POLYLINE
  5
3d2
  8
Layer_2
  62
1
  66
1
  10
0
  20
0
  30
0
  0
VERTEX
  5
3d2
  8
Layer_2
  10
209.45612
  20
189.92078
  42
-0.41421356
  0
VERTEX
  5
3d3
  8
Layer_2
  10
212.20612
  20
192.67078
  0
SEQEND
  0
POLYLINE
  5
3d5
  8
Layer_2
  62
1
  66
1
  10
0
  20
0
  30
0
  0
VERTEX
  5
3d5
  8
Layer_2
  10
212.20612
  20
192.67078
  42
-0.41421356
  0
VERTEX
  5
3d6
  8
Layer_2
  10
214.95612
  20
189.92078
  0
SEQEND
  0
POLYLINE
  5
3d8
  8
Layer_2
  62
1
  66
1
  10
0
  20
0
  30
0
  0
VERTEX
  5
3d8
  8
Layer_2
  10
217.33136
  20
166.32204
  42
-0.41421356
  0
VERTEX
  5
3d9
  8
Layer_2
  10
212.33136
  20
161.32204
  0
SEQEND
  0
POLYLINE
  5
3db
  8
Layer_2
  62
1
  66
1
  10
0
  20
0
  30
0
  0
VERTEX
  5
3db
  8
Layer_2
  10
212.33136
  20
161.32204
  42
-0.41421356
  0
VERTEX
  5
3dc
  8
Layer_2
  10
207.33136
  20
166.32204
  0
SEQEND
  0
POLYLINE
  5
3de
  8
Layer_2
  62
1
  66
1
  10
0
  20
0
  30
0
  0
VERTEX
  5
3de
  8
Layer_2
  10
207.33136
  20
166.32204
  42
-0.41421356
  0
VERTEX
  5
3df
  8
Layer_2
  10
212.33136
  20
171.32204
  0
SEQEND
  0
POLYLINE
  5
3e1
  8
Layer_2
  62
1
  66
1
  10
0
  20
0
  30
0
  0
VERTEX
  5
3e1
  8
Layer_2
  10
212.33136
  20
171.32204
  42
-0.41421356
  0
VERTEX
  5
3e2
  8
Layer_2
  10
217.33136
  20
166.32204
  0
SEQEND
  0
POLYLINE
  5
3e4
  8
Layer_2
  62
1
  66
1
  10
0
  20
0
  30
0
  0
VERTEX
  5
3e4
  8
Layer_2
  10
215.25104
  20
136.21251
  42
-0.41421356
  0
VERTEX
  5
3e5
  8
Layer_2
  10
212.50104
  20
133.46251
  0
SEQEND
  0
POLYLINE
  5
3e7
  8
Layer_2
  62
1
  66
1
  10
0
  20
0
  30
0
  0
VERTEX
  5
3e7
  8
Layer_2
  10
212.50104
  20
133.46251
  42
-0.41421356
  0
VERTEX
  5
3e8
  8
Layer_2
  10
209.75104
  20
136.21251
  0
SEQEND
  0
POLYLINE
  5
3ea
  8
Layer_2
  62
1
  66
1
  10
0
  20
0
  30
0
  0
VERTEX
  5
3ea
  8
Layer_2
  10
209.75104
  20
136.21251
  42
-0.41421356
  0
VERTEX
  5
3eb
  8
Layer_2
  10
212.50104
  20
138.96251
  0
SEQEND
  0
POLYLINE
  5
3ed
  8
Layer_2
  62
1
  66
1
  10
0
  20
0
  30
0
  0
VERTEX
  5
3ed
  8
Layer_2
  10
212.50104
  20
138.96251
  42
-0.41421356
  0
VERTEX
  5
3ee
  8
Layer_2
  10
215.25104
  20
136.21251
  0
SEQEND
  0
POLYLINE
  5
3f0
  8
Layer_2
  62
1
  66
1
  10
0
  20
0
  30
0
  0
VERTEX
  5
3f0
  8
Layer_2
  10
88.078003
  20
242.70209
  42
-0.41421356
  0
VERTEX
  5
3f1
  8
Layer_2
  10
85.328003
  20
239.95209
  0
SEQEND
  0
POLYLINE
  5
3f3
  8
Layer_2
  62
1
  66
1
  10
0
  20
0
  30
0
  0
VERTEX
  5
3f3
  8
Layer_2
  10
85.328003
  20
239.95209
  42
-0.41421356
  0
VERTEX
  5
3f4
  8
Layer_2
  10
82.578003
  20
242.70209
  0
SEQEND
  0
POLYLINE
  5
3f6
  8
Layer_2
  62
1
  66
1
  10
0
  20
0
  30
0
  0
VERTEX
  5
3f6
  8
Layer_2
  10
82.578003
  20
242.70209
  42
-0.41421356
  0
VERTEX
  5
3f7
  8
Layer_2
  10
85.328003
  20
245.45209
  0
SEQEND
  0
POLYLINE
  5
3f9
  8
Layer_2
  62
1
  66
1
  10
0
  20
0
  30
0
  0
VERTEX
  5
3f9
  8
Layer_2
  10
85.328003
  20
245.45209
  42
-0.41421356
  0
VERTEX
  5
3fa
  8
Layer_2
  10
88.078003
  20
242.70209
  0
SEQEND
  0
POLYLINE
  5
3fc
  8
Layer_2
  62
1
  66
1
  10
0
  20
0
  30
0
  0
VERTEX
  5
3fc
  8
Layer_2
  10
88.316864
  20
277.77438
  42
-0.41421356
  0
VERTEX
  5
3fd
  8
Layer_2
  10
85.566864
  20
275.02438
  0
SEQEND
  0
POLYLINE
  5
3ff
  8
Layer_2
  62
1
  66
1
  10
0
  20
0
  30
0
  0
VERTEX
  5
3ff
  8
Layer_2
  10
85.566864
  20
275.02438
  42
-0.41421356
  0
VERTEX
  5
400
  8
Layer_2
  10
82.816864
  20
277.77438
  0
SEQEND
  0
POLYLINE
  5
402
  8
Layer_2
  62
1
  66
1
  10
0
  20
0
  30
0
  0
VERTEX
  5
402
  8
Layer_2
  10
82.816864
  20
277.77438
  42
-0.41421356
  0
VERTEX
  5
403
  8
Layer_2
  10
85.566864
  20
280.52438
  0
SEQEND
  0
POLYLINE
  5
405
  8
Layer_2
  62
1
  66
1
  10
0
  20
0
  30
0
  0
VERTEX
  5
405
  8
Layer_2
  10
85.566864
  20
280.52438
  42
-0.41421356
  0
VERTEX
  5
406
  8
Layer_2
  10
88.316864
  20
277.77438
  0
SEQEND
  0
POLYLINE
  5
408
  8
Layer_2
  62
1
  66
1
  10
0
  20
0
  30
0
  0
VERTEX
  5
408
  8
Layer_2
  10
39.125443
  20
267.7265
  42
-0.41421356
  0
VERTEX
  5
409
  8
Layer_2
  10
36.375443
  20
264.9765
  0
SEQEND
  0
POLYLINE
  5
40b
  8
Layer_2
  62
1
  66
1
  10
0
  20
0
  30
0
  0
VERTEX
  5
40b
  8
Layer_2
  10
36.375443
  20
264.9765
  42
-0.41421356
  0
VERTEX
  5
40c
  8
Layer_2
  10
33.625443
  20
267.7265
  0
SEQEND
  0
POLYLINE
  5
40e
  8
Layer_2
  62
1
  66
1
  10
0
  20
0
  30
0
  0
VERTEX
  5
40e
  8
Layer_2
  10
33.625443
  20
267.7265
  42
-0.41421356
  0
VERTEX
  5
40f
  8
Layer_2
  10
36.375443
  20
270.4765
  0
SEQEND
  0
POLYLINE
  5
411
  8
Layer_2
  62
1
  66
1
  10
0
  20
0
  30
0
  0
VERTEX
  5
411
  8
Layer_2
  10
36.375443
  20
270.4765
  42
-0.41421356
  0
VERTEX
  5
412
  8
Layer_2
  10
39.125443
  20
267.7265
  0
SEQEND
  0
POLYLINE
  5
414
  8
Layer_2
  62
1
  66
1
  10
0
  20
0
  30
0
  0
VERTEX
  5
414
  8
Layer_2
  10
90.773544
  20
182.93158
  42
-0.41421356
  0
VERTEX
  5
415
  8
Layer_2
  10
85.773544
  20
177.93158
  0
SEQEND
  0
POLYLINE
  5
417
  8
Layer_2
  62
1
  66
1
  10
0
  20
0
  30
0
  0
VERTEX
  5
417
  8
Layer_2
  10
85.773544
  20
177.93158
  42
-0.41421356
  0
VERTEX
  5
418
  8
Layer_2
  10
80.773544
  20
182.93158
  0
SEQEND
  0
POLYLINE
  5
41a
  8
Layer_2
  62
1
  66
1
  10
0
  20
0
  30
0
  0
VERTEX
  5
41a
  8
Layer_2
  10
80.773544
  20
182.93158
  42
-0.41421356
  0
VERTEX
  5
41b
  8
Layer_2
  10
85.773544
  20
187.93158
  0
SEQEND
  0
POLYLINE
  5
41d
  8
Layer_2
  62
1
  66
1
  10
0
  20
0
  30
0
  0
VERTEX
  5
41d
  8
Layer_2
  10
85.773544
  20
187.93158
  42
-0.41421356
  0
VERTEX
  5
41e
  8
Layer_2
  10
90.773544
  20
182.93158
  0
SEQEND
  0
POLYLINE
  5
420
  8
Layer_2
  62
1
  66
1
  10
0
  20
0
  30
0
  0
VERTEX
  5
420
  8
Layer_2
  10
88.276276
  20
198.95219
  42
-0.41421356
  0
VERTEX
  5
421
  8
Layer_2
  10
85.526276
  20
196.20219
  0
SEQEND
  0
POLYLINE
  5
423
  8
Layer_2
  62
1
  66
1
  10
0
  20
0
  30
0
  0
VERTEX
  5
423
  8
Layer_2
  10
85.526276
  20
196.20219
  42
-0.41421356
  0
VERTEX
  5
424
  8
Layer_2
  10
82.776276
  20
198.95219
  0
SEQEND
  0
POLYLINE
  5
426
  8
Layer_2
  62
1
  66
1
  10
0
  20
0
  30
0
  0
VERTEX
  5
426
  8
Layer_2
  10
82.776276
  20
198.95219
  42
-0.41421356
  0
VERTEX
  5
427
  8
Layer_2
  10
85.526276
  20
201.70219
  0
SEQEND
  0
POLYLINE
  5
429
  8
Layer_2
  62
1
  66
1
  10
0
  20
0
  30
0
  0
VERTEX
  5
429
  8
Layer_2
  10
85.526276
  20
201.70219
  42
-0.41421356
  0
VERTEX
  5
42a
  8
Layer_2
  10
88.276276
  20
198.95219
  0
SEQEND
  0
POLYLINE
  5
42c
  8
Layer_2
  62
1
  66
1
  10
0
  20
0
  30
0
  0
VERTEX
  5
42c
  8
Layer_2
  10
39.502762
  20
174.15373
  42
-0.41421356
  0
VERTEX
  5
42d
  8
Layer_2
  10
36.752762
  20
171.40373
  0
SEQEND
  0
POLYLINE
  5
42f
  8
Layer_2
  62
1
  66
1
  10
0
  20
0
  30
0
  0
VERTEX
  5
42f
  8
Layer_2
  10
36.752762
  20
171.40373
  42
-0.41421356
  0
VERTEX
  5
430
  8
Layer_2
  10
34.002762
  20
174.15373
  0
SEQEND
  0
POLYLINE
  5
432
  8
Layer_2
  62
1
  66
1
  10
0
  20
0
  30
0
  0
VERTEX
  5
432
  8
Layer_2
  10
34.002762
  20
174.15373
  42
-0.41421356
  0
VERTEX
  5
433
  8
Layer_2
  10
36.752762
  20
176.90373
  0
SEQEND
  0
POLYLINE
  5
435
  8
Layer_2
  62
1
  66
1
  10
0
  20
0
  30
0
  0
VERTEX
  5
435
  8
Layer_2
  10
36.752762
  20
176.90373
  42
-0.41421356
  0
VERTEX
  5
436
  8
Layer_2
  10
39.502762
  20
174.15373
  0
SEQEND
  0
POLYLINE
  5
438
  8
Layer_2
  62
1
  66
1
  10
0
  20
0
  30
0
  0
VERTEX
  5
438
  8
Layer_2
  10
90.655151
  20
260.85995
  42
-0.41421356
  0
VERTEX
  5
439
  8
Layer_2
  10
85.655151
  20
255.85995
  0
SEQEND
  0
POLYLINE
  5
43b
  8
Layer_2
  62
1
  66
1
  10
0
  20
0
  30
0
  0
VERTEX
  5
43b
  8
Layer_2
  10
85.655151
  20
255.85995
  42
-0.41421356
  0
VERTEX
  5
43c
  8
Layer_2
  10
80.655151
  20
260.85995
  0
SEQEND
  0
POLYLINE
  5
43e
  8
Layer_2
  62
1
  66
1
  10
0
  20
0
  30
0
  0
VERTEX
  5
43e
  8
Layer_2
  10
80.655151
  20
260.85995
  42
-0.41421356
  0
VERTEX
  5
43f
  8
Layer_2
  10
85.655151
  20
265.85995
  0
SEQEND
  0
POLYLINE
  5
441
  8
Layer_2
  62
1
  66
1
  10
0
  20
0
  30
0
  0
VERTEX
  5
441
  8
Layer_2
  10
85.655151
  20
265.85995
  42
-0.41421356
  0
VERTEX
  5
442
  8
Layer_2
  10
90.655151
  20
260.85995
  0
SEQEND
  0
POLYLINE
  5
444
  8
Layer_2
  62
1
  66
1
  10
0
  20
0
  30
0
  0
VERTEX
  5
444
  8
Layer_2
  10
217.23224
  20
280.5137
  42
-0.41421356
  0
VERTEX
  5
445
  8
Layer_2
  10
212.23224
  20
275.5137
  0
SEQEND
  0
POLYLINE
  5
447
  8
Layer_2
  62
1
  66
1
  10
0
  20
0
  30
0
  0
VERTEX
  5
447
  8
Layer_2
  10
212.23224
  20
275.5137
  42
-0.41421356
  0
VERTEX
  5
448
  8
Layer_2
  10
207.23224
  20
280.5137
  0
SEQEND
  0
POLYLINE
  5
44a
  8
Layer_2
  62
1
  66
1
  10
0
  20
0
  30
0
  0
VERTEX
  5
44a
  8
Layer_2
  10
207.23224
  20
280.5137
  42
-0.41421356
  0
VERTEX
  5
44b
  8
Layer_2
  10
212.23224
  20
285.5137
  0
SEQEND
  0
POLYLINE
  5
44d
  8
Layer_2
  62
1
  66
1
  10
0
  20
0
  30
0
  0
VERTEX
  5
44d
  8
Layer_2
  10
212.23224
  20
285.5137
  42
-0.41421356
  0
VERTEX
  5
44e
  8
Layer_2
  10
217.23224
  20
280.5137
  0
SEQEND
  0
POLYLINE
  5
450
  8
Layer_2
  62
1
  66
1
  10
0
  20
0
  30
0
  0
VERTEX
  5
450
  8
Layer_2
  10
249.02087
  20
200.76315
  0
VERTEX
  5
451
  8
Layer_2
  10
244.0209
  20
200.77742
  0
SEQEND
  0
POLYLINE
  5
453
  8
Layer_2
  62
1
  66
1
  10
0
  20
0
  30
0
  0
VERTEX
  5
453
  8
Layer_2
  10
248.99121
  20
241.18774
  0
VERTEX
  5
454
  8
Layer_2
  10
243.99127
  20
241.16614
  0
SEQEND
  0
POLYLINE
  5
456
  8
Layer_2
  62
1
  66
1
  10
0
  20
0
  30
0
  0
VERTEX
  5
456
  8
Layer_2
  10
234.23578
  20
211.60696
  0
VERTEX
  5
457
  8
Layer_2
  10
234.22844
  20
216.60696
  0
SEQEND
  0
POLYLINE
  5
459
  8
Layer_2
  62
1
  66
1
  10
0
  20
0
  30
0
  0
VERTEX
  5
459
  8
Layer_2
  10
234.22844
  20
209.60696
  0
VERTEX
  5
45a
  8
Layer_2
  10
234.23578
  20
204.60696
  0
SEQEND
  0
POLYLINE
  5
45c
  8
Layer_2
  62
1
  66
1
  10
0
  20
0
  30
0
  0
VERTEX
  5
45c
  8
Layer_2
  10
234.22205
  20
233.32224
  0
VERTEX
  5
45d
  8
Layer_2
  10
234.22205
  20
238.32224
  0
SEQEND
  0
POLYLINE
  5
45f
  8
Layer_2
  62
1
  66
1
  10
0
  20
0
  30
0
  0
VERTEX
  5
45f
  8
Layer_2
  10
234.22205
  20
225.32224
  0
VERTEX
  5
460
  8
Layer_2
  10
234.22205
  20
230.32224
  0
SEQEND
  0
POLYLINE
  5
462
  8
Layer_2
  62
1
  66
1
  10
0
  20
0
  30
0
  0
VERTEX
  5
462
  8
Layer_2
  10
234.22205
  20
223.32224
  0
VERTEX
  5
463
  8
Layer_2
  10
234.22205
  20
218.32224
  0
SEQEND
  0
POLYLINE
  5
465
  8
Layer_2
  62
1
  66
1
  10
0
  20
0
  30
0
  0
VERTEX
  5
465
  8
Layer_2
  10
218.9913
  20
241.14456
  0
VERTEX
  5
466
  8
Layer_2
  10
213.9913
  20
241.14456
  0
SEQEND
  0
POLYLINE
  5
468
  8
Layer_2
  62
1
  66
1
  10
0
  20
0
  30
0
  0
VERTEX
  5
468
  8
Layer_2
  10
208.9913
  20
241.14456
  0
VERTEX
  5
469
  8
Layer_2
  10
203.9913
  20
241.14456
  0
SEQEND
  0
POLYLINE
  5
46b
  8
Layer_2
  62
1
  66
1
  10
0
  20
0
  30
0
  0
VERTEX
  5
46b
  8
Layer_2
  10
198.9913
  20
241.14456
  0
VERTEX
  5
46c
  8
Layer_2
  10
193.9913
  20
241.14456
  0
SEQEND
  0
POLYLINE
  5
46e
  8
Layer_2
  62
1
  66
1
  10
0
  20
0
  30
0
  0
VERTEX
  5
46e
  8
Layer_2
  10
183.9913
  20
241.14456
  0
VERTEX
  5
46f
  8
Layer_2
  10
188.9913
  20
241.14456
  0
SEQEND
  0
POLYLINE
  5
471
  8
Layer_2
  62
1
  66
1
  10
0
  20
0
  30
0
  0
VERTEX
  5
471
  8
Layer_2
  10
173.9913
  20
241.14456
  0
VERTEX
  5
472
  8
Layer_2
  10
178.9913
  20
241.14456
  0
SEQEND
  0
POLYLINE
  5
474
  8
Layer_2
  62
1
  66
1
  10
0
  20
0
  30
0
  0
VERTEX
  5
474
  8
Layer_2
  10
173.51926
  20
143.20457
  0
VERTEX
  5
475
  8
Layer_2
  10
168.51926
  20
143.20457
  0
SEQEND
  0
POLYLINE
  5
477
  8
Layer_2
  62
1
  66
1
  10
0
  20
0
  30
0
  0
VERTEX
  5
477
  8
Layer_2
  10
168.9913
  20
241.14456
  0
VERTEX
  5
478
  8
Layer_2
  10
163.9913
  20
241.14456
  0
SEQEND
  0
POLYLINE
  5
47a
  8
Layer_2
  62
1
  66
1
  10
0
  20
0
  30
0
  0
VERTEX
  5
47a
  8
Layer_2
  10
158.51926
  20
143.20457
  0
VERTEX
  5
47b
  8
Layer_2
  10
163.51926
  20
143.20457
  0
SEQEND
  0
POLYLINE
  5
47d
  8
Layer_2
  62
1
  66
1
  10
0
  20
0
  30
0
  0
VERTEX
  5
47d
  8
Layer_2
  10
153.9913
  20
241.14456
  0
VERTEX
  5
47e
  8
Layer_2
  10
158.9913
  20
241.14456
  0
SEQEND
  0
POLYLINE
  5
480
  8
Layer_2
  62
1
  66
1
  10
0
  20
0
  30
0
  0
VERTEX
  5
480
  8
Layer_2
  10
146.4913
  20
241.14456
  0
VERTEX
  5
481
  8
Layer_2
  10
148.9913
  20
241.14456
  0
SEQEND
  0
POLYLINE
  5
483
  8
Layer_2
  62
1
  66
1
  10
0
  20
0
  30
0
  0
VERTEX
  5
483
  8
Layer_2
  10
20.361076
  20
220.8031
  42
0.015449853
  0
VERTEX
  5
484
  8
Layer_2
  10
20.360504
  20
220.94647
  0
SEQEND
  0
POLYLINE
  5
486
  8
Layer_2
  62
1
  66
1
  10
0
  20
0
  30
0
  0
VERTEX
  5
486
  8
Layer_2
  10
48.401642
  20
226.56958
  0
VERTEX
  5
487
  8
Layer_2
  10
48.419052
  20
222.2666
  0
SEQEND
  0
POLYLINE
  5
489
  8
Layer_2
  62
1
  66
1
  10
0
  20
0
  30
0
  0
VERTEX
  5
489
  8
Layer_2
  10
48.42672
  20
230.01376
  0
VERTEX
  5
48a
  8
Layer_2
  10
48.094421
  20
269.78699
  0
SEQEND
  0
POLYLINE
  5
48c
  8
Layer_2
  62
1
  66
1
  10
0
  20
0
  30
0
  0
VERTEX
  5
48c
  8
Layer_2
  10
48.094421
  20
269.78699
  0
VERTEX
  5
48d
  8
Layer_2
  10
48.094467
  20
270.42871
  0
SEQEND
  0
POLYLINE
  5
48f
  8
Layer_2
  62
1
  66
1
  10
0
  20
0
  30
0
  0
VERTEX
  5
48f
  8
Layer_2
  10
48.094467
  20
270.42871
  42
0.20014794
  0
VERTEX
  5
490
  8
Layer_2
  10
46.90609
  20
273.26917
  0
SEQEND
  0
POLYLINE
  5
492
  8
Layer_2
  62
1
  66
1
  10
0
  20
0
  30
0
  0
VERTEX
  5
492
  8
Layer_2
  10
46.90609
  20
273.26917
  42
0.20014561
  0
VERTEX
  5
493
  8
Layer_2
  10
44.051769
  20
274.42374
  0
SEQEND
  0
POLYLINE
  5
495
  8
Layer_2
  62
1
  66
1
  10
0
  20
0
  30
0
  0
VERTEX
  5
495
  8
Layer_2
  10
44.051769
  20
274.42374
  0
VERTEX
  5
496
  8
Layer_2
  10
32.73465
  20
274.30267
  0
SEQEND
  0
POLYLINE
  5
498
  8
Layer_2
  62
1
  66
1
  10
0
  20
0
  30
0
  0
VERTEX
  5
498
  8
Layer_2
  10
32.73465
  20
274.30267
  42
0.19902219
  0
VERTEX
  5
499
  8
Layer_2
  10
29.91766
  20
273.09967
  0
SEQEND
  0
POLYLINE
  5
49b
  8
Layer_2
  62
1
  66
1
  10
0
  20
0
  30
0
  0
VERTEX
  5
49b
  8
Layer_2
  10
29.91766
  20
273.09967
  42
0.19902165
  0
VERTEX
  5
49c
  8
Layer_2
  10
28.77763
  20
270.25668
  0
SEQEND
  0
POLYLINE
  5
49e
  8
Layer_2
  62
1
  66
1
  10
0
  20
0
  30
0
  0
VERTEX
  5
49e
  8
Layer_2
  10
28.77763
  20
270.25668
  0
VERTEX
  5
49f
  8
Layer_2
  10
28.769276
  20
270.9816
  0
SEQEND
  0
POLYLINE
  5
4a1
  8
Layer_2
  62
1
  66
1
  10
0
  20
0
  30
0
  0
VERTEX
  5
4a1
  8
Layer_2
  10
28.769276
  20
270.9816
  0
VERTEX
  5
4a2
  8
Layer_2
  10
28.7645
  20
230.74066
  0
SEQEND
  0
POLYLINE
  5
4a4
  8
Layer_2
  62
1
  66
1
  10
0
  20
0
  30
0
  0
VERTEX
  5
4a4
  8
Layer_2
  10
28.7645
  20
230.74066
  0
VERTEX
  5
4a5
  8
Layer_2
  10
6.0150547
  20
230.81808
  0
SEQEND
  0
POLYLINE
  5
4a7
  8
Layer_2
  62
1
  66
1
  10
0
  20
0
  30
0
  0
VERTEX
  5
4a7
  8
Layer_2
  10
6.0150547
  20
230.81808
  0
VERTEX
  5
4a8
  8
Layer_2
  10
4.6355934
  20
230.82278
  0
SEQEND
  0
POLYLINE
  5
4aa
  8
Layer_2
  62
1
  66
1
  10
0
  20
0
  30
0
  0
VERTEX
  5
4aa
  8
Layer_2
  10
4.6355934
  20
230.82278
  42
0.40891417
  0
VERTEX
  5
4ab
  8
Layer_2
  10
0.12136078
  20
226.41977
  0
SEQEND
  0
POLYLINE
  5
4ad
  8
Layer_2
  62
1
  66
1
  10
0
  20
0
  30
0
  0
VERTEX
  5
4ad
  8
Layer_2
  10
0.12136078
  20
226.41977
  0
VERTEX
  5
4ae
  8
Layer_2
  10
-1.9073486e-06
  20
220.79266
  0
SEQEND
  0
POLYLINE
  5
4b0
  8
Layer_2
  62
1
  66
1
  10
0
  20
0
  30
0
  0
VERTEX
  5
4b0
  8
Layer_2
  10
-1.9073486e-06
  20
220.79266
  0
VERTEX
  5
4b1
  8
Layer_2
  10
0.1666584
  20
215.16678
  0
SEQEND
  0
POLYLINE
  5
4b3
  8
Layer_2
  62
1
  66
1
  10
0
  20
0
  30
0
  0
VERTEX
  5
4b3
  8
Layer_2
  10
0.1666584
  20
215.16678
  42
0.40890624
  0
VERTEX
  5
4b4
  8
Layer_2
  10
4.7162952
  20
210.80029
  0
SEQEND
  0
POLYLINE
  5
4b6
  8
Layer_2
  62
1
  66
1
  10
0
  20
0
  30
0
  0
VERTEX
  5
4b6
  8
Layer_2
  10
4.7162952
  20
210.80029
  0
VERTEX
  5
4b7
  8
Layer_2
  10
6.0957355
  20
210.81613
  0
SEQEND
  0
POLYLINE
  5
4b9
  8
Layer_2
  62
1
  66
1
  10
0
  20
0
  30
0
  0
VERTEX
  5
4b9
  8
Layer_2
  10
6.0957355
  20
210.81613
  0
VERTEX
  5
4ba
  8
Layer_2
  10
28.843857
  20
211.077
  0
SEQEND
  0
POLYLINE
  5
4bc
  8
Layer_2
  62
1
  66
1
  10
0
  20
0
  30
0
  0
VERTEX
  5
4bc
  8
Layer_2
  10
28.843857
  20
211.077
  0
VERTEX
  5
4bd
  8
Layer_2
  10
29.173069
  20
170.83739
  0
SEQEND
  0
POLYLINE
  5
4bf
  8
Layer_2
  62
1
  66
1
  10
0
  20
0
  30
0
  0
VERTEX
  5
4bf
  8
Layer_2
  10
29.173069
  20
170.83739
  0
VERTEX
  5
4c0
  8
Layer_2
  10
29.175636
  20
171.56238
  0
SEQEND
  0
POLYLINE
  5
4c2
  8
Layer_2
  62
1
  66
1
  10
0
  20
0
  30
0
  0
VERTEX
  5
4c2
  8
Layer_2
  10
29.175636
  20
171.56238
  42
0.19902944
  0
VERTEX
  5
4c3
  8
Layer_2
  10
30.338516
  20
168.72867
  0
SEQEND
  0
POLYLINE
  5
4c5
  8
Layer_2
  62
1
  66
1
  10
0
  20
0
  30
0
  0
VERTEX
  5
4c5
  8
Layer_2
  10
30.338516
  20
168.72867
  42
0.19901879
  0
VERTEX
  5
4c6
  8
Layer_2
  10
33.165058
  20
167.54843
  0
SEQEND
  0
POLYLINE
  5
4c8
  8
Layer_2
  62
1
  66
1
  10
0
  20
0
  30
0
  0
VERTEX
  5
4c8
  8
Layer_2
  10
33.165058
  20
167.54843
  0
VERTEX
  5
4c9
  8
Layer_2
  10
44.482803
  20
167.51863
  0
SEQEND
  0
POLYLINE
  5
4cb
  8
Layer_2
  62
1
  66
1
  10
0
  20
0
  30
0
  0
VERTEX
  5
4cb
  8
Layer_2
  10
44.482803
  20
167.51863
  42
0.20014077
  0
VERTEX
  5
4cc
  8
Layer_2
  10
47.327744
  20
168.69617
  0
SEQEND
  0
POLYLINE
  5
4ce
  8
Layer_2
  62
1
  66
1
  10
0
  20
0
  30
0
  0
VERTEX
  5
4ce
  8
Layer_2
  10
47.327744
  20
168.69617
  42
0.20013527
  0
VERTEX
  5
4cf
  8
Layer_2
  10
48.49324
  20
171.54611
  0
SEQEND
  0
POLYLINE
  5
4d1
  8
Layer_2
  62
1
  66
1
  10
0
  20
0
  30
0
  0
VERTEX
  5
4d1
  8
Layer_2
  10
48.49324
  20
171.54611
  0
VERTEX
  5
4d2
  8
Layer_2
  10
48.489243
  20
172.12689
  0
SEQEND
  0
POLYLINE
  5
4d4
  8
Layer_2
  62
1
  66
1
  10
0
  20
0
  30
0
  0
VERTEX
  5
4d4
  8
Layer_2
  10
48.489243
  20
172.12689
  0
VERTEX
  5
4d5
  8
Layer_2
  10
48.50071
  20
211.72337
  0
SEQEND
  0
POLYLINE
  5
4d7
  8
Layer_2
  62
1
  66
1
  10
0
  20
0
  30
0
  0
VERTEX
  5
4d7
  8
Layer_2
  10
28.68573
  20
226.6015
  0
VERTEX
  5
4d8
  8
Layer_2
  10
28.68845
  20
222.5574
  0
SEQEND
  0
POLYLINE
  5
4da
  8
Layer_2
  62
1
  66
1
  10
0
  20
0
  30
0
  0
VERTEX
  5
4da
  8
Layer_2
  10
234.32634
  20
201.78944
  0
VERTEX
  5
4db
  8
Layer_2
  10
233.79695
  20
143.17265
  0
SEQEND
  0
POLYLINE
  5
4dd
  8
Layer_2
  62
1
  66
1
  10
0
  20
0
  30
0
  0
VERTEX
  5
4dd
  8
Layer_2
  10
233.79695
  20
143.17265
  0
VERTEX
  5
4de
  8
Layer_2
  10
222.51413
  20
143.43381
  0
SEQEND
  0
POLYLINE
  5
4e0
  8
Layer_2
  62
1
  66
1
  10
0
  20
0
  30
0
  0
VERTEX
  5
4e0
  8
Layer_2
  10
222.51413
  20
143.43381
  0
VERTEX
  5
4e1
  8
Layer_2
  10
222.54414
  20
138.66025
  0
SEQEND
  0
POLYLINE
  5
4e3
  8
Layer_2
  62
1
  66
1
  10
0
  20
0
  30
0
  0
VERTEX
  5
4e3
  8
Layer_2
  10
222.54414
  20
138.66025
  42
-0.1991203
  0
VERTEX
  5
4e4
  8
Layer_2
  10
219.6465
  20
131.56824
  0
SEQEND
  0
POLYLINE
  5
4e6
  8
Layer_2
  62
1
  66
1
  10
0
  20
0
  30
0
  0
VERTEX
  5
4e6
  8
Layer_2
  10
219.6465
  20
131.56824
  42
-0.19912203
  0
VERTEX
  5
4e7
  8
Layer_2
  10
212.58044
  20
128.60803
  0
SEQEND
  0
POLYLINE
  5
4e9
  8
Layer_2
  62
1
  66
1
  10
0
  20
0
  30
0
  0
VERTEX
  5
4e9
  8
Layer_2
  10
212.58044
  20
128.60803
  0
VERTEX
  5
4ea
  8
Layer_2
  10
213.03839
  20
128.60968
  0
SEQEND
  0
POLYLINE
  5
4ec
  8
Layer_2
  62
1
  66
1
  10
0
  20
0
  30
0
  0
VERTEX
  5
4ec
  8
Layer_2
  10
213.03839
  20
128.60968
  0
VERTEX
  5
4ed
  8
Layer_2
  10
211.71884
  20
128.62637
  0
SEQEND
  0
POLYLINE
  5
4ef
  8
Layer_2
  62
1
  66
1
  10
0
  20
0
  30
0
  0
VERTEX
  5
4ef
  8
Layer_2
  10
211.71884
  20
128.62637
  42
-0.40898839
  0
VERTEX
  5
4f0
  8
Layer_2
  10
202.83276
  20
137.57857
  0
SEQEND
  0
POLYLINE
  5
4f2
  8
Layer_2
  62
1
  66
1
  10
0
  20
0
  30
0
  0
VERTEX
  5
4f2
  8
Layer_2
  10
202.83276
  20
137.57857
  0
VERTEX
  5
4f3
  8
Layer_2
  10
202.80312
  20
143.25946
  0
SEQEND
  0
POLYLINE
  5
4f5
  8
Layer_2
  62
1
  66
1
  10
0
  20
0
  30
0
  0
VERTEX
  5
4f5
  8
Layer_2
  10
202.80312
  20
143.25946
  0
VERTEX
  5
4f6
  8
Layer_2
  10
175.83969
  20
143.11844
  0
SEQEND
  0
POLYLINE
  5
4f8
  8
Layer_2
  62
1
  66
1
  10
0
  20
0
  30
0
  0
VERTEX
  5
4f8
  8
Layer_2
  10
175.83969
  20
143.11844
  0
VERTEX
  5
4f9
  8
Layer_2
  10
175.89763
  20
137.9677
  0
SEQEND
  0
POLYLINE
  5
4fb
  8
Layer_2
  62
1
  66
1
  10
0
  20
0
  30
0
  0
VERTEX
  5
4fb
  8
Layer_2
  10
175.89763
  20
137.9677
  42
-0.41421177
  0
VERTEX
  5
4fc
  8
Layer_2
  10
166.99934
  20
128.86713
  0
SEQEND
  0
POLYLINE
  5
4fe
  8
Layer_2
  62
1
  66
1
  10
0
  20
0
  30
0
  0
VERTEX
  5
4fe
  8
Layer_2
  10
166.99934
  20
128.86713
  0
VERTEX
  5
4ff
  8
Layer_2
  10
167.26654
  20
128.87012
  0
SEQEND
  0
POLYLINE
  5
501
  8
Layer_2
  62
1
  66
1
  10
0
  20
0
  30
0
  0
VERTEX
  5
501
  8
Layer_2
  10
167.26654
  20
128.87012
  0
VERTEX
  5
502
  8
Layer_2
  10
165.94023
  20
128.83282
  0
SEQEND
  0
POLYLINE
  5
504
  8
Layer_2
  62
1
  66
1
  10
0
  20
0
  30
0
  0
VERTEX
  5
504
  8
Layer_2
  10
165.94023
  20
128.83282
  42
-0.20031883
  0
VERTEX
  5
505
  8
Layer_2
  10
159.46944
  20
131.32248
  0
SEQEND
  0
POLYLINE
  5
507
  8
Layer_2
  62
1
  66
1
  10
0
  20
0
  30
0
  0
VERTEX
  5
507
  8
Layer_2
  10
159.46944
  20
131.32248
  42
-0.20031921
  0
VERTEX
  5
508
  8
Layer_2
  10
156.68864
  20
137.6736
  0
SEQEND
  0
POLYLINE
  5
50a
  8
Layer_2
  62
1
  66
1
  10
0
  20
0
  30
0
  0
VERTEX
  5
50a
  8
Layer_2
  10
156.68864
  20
137.6736
  0
VERTEX
  5
50b
  8
Layer_2
  10
156.58939
  20
143.41008
  0
SEQEND
  0
POLYLINE
  5
50d
  8
Layer_2
  62
1
  66
1
  10
0
  20
0
  30
0
  0
VERTEX
  5
50d
  8
Layer_2
  10
156.58939
  20
143.41008
  0
VERTEX
  5
50e
  8
Layer_2
  10
146.22343
  20
143.29358
  0
SEQEND
  0
POLYLINE
  5
510
  8
Layer_2
  62
1
  66
1
  10
0
  20
0
  30
0
  0
VERTEX
  5
510
  8
Layer_2
  10
146.22343
  20
143.29358
  0
VERTEX
  5
511
  8
Layer_2
  10
146.11578
  20
152.87338
  0
SEQEND
  0
POLYLINE
  5
513
  8
Layer_2
  62
1
  66
1
  10
0
  20
0
  30
0
  0
VERTEX
  5
513
  8
Layer_2
  10
146.11578
  20
152.87338
  0
VERTEX
  5
514
  8
Layer_2
  10
132.22044
  20
152.81064
  0
SEQEND
  0
POLYLINE
  5
516
  8
Layer_2
  62
1
  66
1
  10
0
  20
0
  30
0
  0
VERTEX
  5
516
  8
Layer_2
  10
132.22044
  20
152.81064
  0
VERTEX
  5
517
  8
Layer_2
  10
132.24594
  20
147.1716
  0
SEQEND
  0
POLYLINE
  5
519
  8
Layer_2
  62
1
  66
1
  10
0
  20
0
  30
0
  0
VERTEX
  5
519
  8
Layer_2
  10
132.24594
  20
147.1716
  42
-0.40744166
  0
VERTEX
  5
51a
  8
Layer_2
  10
123.49529
  20
138.13441
  0
SEQEND
  0
POLYLINE
  5
51c
  8
Layer_2
  62
1
  66
1
  10
0
  20
0
  30
0
  0
VERTEX
  5
51c
  8
Layer_2
  10
123.49529
  20
138.13441
  0
VERTEX
  5
51d
  8
Layer_2
  10
122.38048
  20
138.10355
  0
SEQEND
  0
POLYLINE
  5
51f
  8
Layer_2
  62
1
  66
1
  10
0
  20
0
  30
0
  0
VERTEX
  5
51f
  8
Layer_2
  10
137.755
  20
250.31586
  0
VERTEX
  5
520
  8
Layer_2
  10
142.23962
  20
250.36755
  0
SEQEND
  0
POLYLINE
  5
522
  8
Layer_2
  62
1
  66
1
  10
0
  20
0
  30
0
  0
VERTEX
  5
522
  8
Layer_2
  10
101.71746
  20
172.35464
  42
0.04066218
  0
VERTEX
  5
523
  8
Layer_2
  10
100.00156
  20
171.50468
  0
SEQEND
  0
POLYLINE
  5
525
  8
Layer_2
  62
1
  66
1
  10
0
  20
0
  30
0
  0
VERTEX
  5
525
  8
Layer_2
  10
100.00156
  20
171.50468
  42
0.18179545
  0
VERTEX
  5
526
  8
Layer_2
  10
97.779442
  20
168.89267
  0
SEQEND
  0
POLYLINE
  5
528
  8
Layer_2
  62
1
  66
1
  10
0
  20
0
  30
0
  0
VERTEX
  5
528
  8
Layer_2
  10
97.779442
  20
168.89267
  0
VERTEX
  5
529
  8
Layer_2
  10
97.75415
  20
168.81738
  0
SEQEND
  0
POLYLINE
  5
52b
  8
Layer_2
  62
1
  66
1
  10
0
  20
0
  30
0
  0
VERTEX
  5
52b
  8
Layer_2
  10
97.75415
  20
168.81738
  0
VERTEX
  5
52c
  8
Layer_2
  10
97.738434
  20
156.96716
  0
SEQEND
  0
POLYLINE
  5
52e
  8
Layer_2
  62
1
  66
1
  10
0
  20
0
  30
0
  0
VERTEX
  5
52e
  8
Layer_2
  10
97.738434
  20
156.96716
  42
0.20023509
  0
VERTEX
  5
52f
  8
Layer_2
  10
99.068481
  20
153.76721
  0
SEQEND
  0
POLYLINE
  5
531
  8
Layer_2
  62
1
  66
1
  10
0
  20
0
  30
0
  0
VERTEX
  5
531
  8
Layer_2
  10
99.068481
  20
153.76721
  42
0.20023712
  0
VERTEX
  5
532
  8
Layer_2
  10
102.27847
  20
152.46136
  0
SEQEND
  0
POLYLINE
  5
534
  8
Layer_2
  62
1
  66
1
  10
0
  20
0
  30
0
  0
VERTEX
  5
534
  8
Layer_2
  10
102.27847
  20
152.46136
  0
VERTEX
  5
535
  8
Layer_2
  10
112.345
  20
152.55084
  0
SEQEND
  0
POLYLINE
  5
537
  8
Layer_2
  62
1
  66
1
  10
0
  20
0
  30
0
  0
VERTEX
  5
537
  8
Layer_2
  10
112.345
  20
152.55084
  0
VERTEX
  5
538
  8
Layer_2
  10
112.39413
  20
147.03387
  0
SEQEND
  0
POLYLINE
  5
53a
  8
Layer_2
  62
1
  66
1
  10
0
  20
0
  30
0
  0
VERTEX
  5
53a
  8
Layer_2
  10
112.39413
  20
147.03387
  42
0.40975132
  0
VERTEX
  5
53b
  8
Layer_2
  10
121.33626
  20
138.11406
  0
SEQEND
  0
POLYLINE
  5
53d
  8
Layer_2
  62
1
  66
1
  10
0
  20
0
  30
0
  0
VERTEX
  5
53d
  8
Layer_2
  10
121.33626
  20
138.11406
  0
VERTEX
  5
53e
  8
Layer_2
  10
122.26912
  20
138.10811
  0
SEQEND
  0
POLYLINE
  5
540
  8
Layer_2
  62
1
  66
1
  10
0
  20
0
  30
0
  0
VERTEX
  5
540
  8
Layer_2
  10
9.5727158
  20
225.56985
  0
VERTEX
  5
541
  8
Layer_2
  10
15.323441
  20
225.61713
  0
SEQEND
  0
POLYLINE
  5
543
  8
Layer_2
  62
1
  66
1
  10
0
  20
0
  30
0
  0
VERTEX
  5
543
  8
Layer_2
  10
15.323441
  20
225.61713
  42
-0.19891236
  0
VERTEX
  5
544
  8
Layer_2
  10
18.870892
  20
224.18176
  0
SEQEND
  0
POLYLINE
  5
546
  8
Layer_2
  62
1
  66
1
  10
0
  20
0
  30
0
  0
VERTEX
  5
546
  8
Layer_2
  10
18.870892
  20
224.18176
  42
-0.19891386
  0
VERTEX
  5
547
  8
Layer_2
  10
20.364346
  20
220.65839
  0
SEQEND
  0
POLYLINE
  5
549
  8
Layer_2
  62
1
  66
1
  10
0
  20
0
  30
0
  0
VERTEX
  5
549
  8
Layer_2
  10
20.364346
  20
220.65839
  0
VERTEX
  5
54a
  8
Layer_2
  10
20.362022
  20
220.94785
  0
SEQEND
  0
POLYLINE
  5
54c
  8
Layer_2
  62
1
  66
1
  10
0
  20
0
  30
0
  0
VERTEX
  5
54c
  8
Layer_2
  10
63.36982
  20
263.16925
  42
-0.1445425
  0
VERTEX
  5
54d
  8
Layer_2
  10
65.619812
  20
263.0123
  0
SEQEND
  0
POLYLINE
  5
54f
  8
Layer_2
  62
1
  66
1
  10
0
  20
0
  30
0
  0
VERTEX
  5
54f
  8
Layer_2
  10
65.619812
  20
263.0123
  0
VERTEX
  5
550
  8
Layer_2
  10
65.68129
  20
262.98483
  0
SEQEND
  0
POLYLINE
  5
552
  8
Layer_2
  62
1
  66
1
  10
0
  20
0
  30
0
  0
VERTEX
  5
552
  8
Layer_2
  10
65.68129
  20
262.98483
  0
VERTEX
  5
553
  8
Layer_2
  10
65.741608
  20
262.95593
  0
SEQEND
  0
POLYLINE
  5
555
  8
Layer_2
  62
1
  66
1
  10
0
  20
0
  30
0
  0
VERTEX
  5
555
  8
Layer_2
  10
65.741608
  20
262.95593
  42
-0.22785297
  0
VERTEX
  5
556
  8
Layer_2
  10
67.140564
  20
261.04263
  0
SEQEND
  0
POLYLINE
  5
558
  8
Layer_2
  62
1
  66
1
  10
0
  20
0
  30
0
  0
VERTEX
  5
558
  8
Layer_2
  10
67.140564
  20
261.04263
  42
-0.19854993
  0
VERTEX
  5
559
  8
Layer_2
  10
66.673119
  20
257.83774
  0
SEQEND
  0
POLYLINE
  5
55b
  8
Layer_2
  62
1
  66
1
  10
0
  20
0
  30
0
  0
VERTEX
  5
55b
  8
Layer_2
  10
66.673119
  20
257.83774
  42
-0.24288856
  0
VERTEX
  5
55c
  8
Layer_2
  10
64.431885
  20
256.6351
  0
SEQEND
  0
POLYLINE
  5
55e
  8
Layer_2
  62
1
  66
1
  10
0
  20
0
  30
0
  0
VERTEX
  5
55e
  8
Layer_2
  10
64.431885
  20
256.6351
  42
-0.040055531
  0
VERTEX
  5
55f
  8
Layer_2
  10
63.586197
  20
256.64798
  0
SEQEND
  0
POLYLINE
  5
561
  8
Layer_2
  62
1
  66
1
  10
0
  20
0
  30
0
  0
VERTEX
  5
561
  8
Layer_2
  10
44.251476
  20
211.02716
  0
VERTEX
  5
562
  8
Layer_2
  10
44.250759
  20
211.06891
  0
SEQEND
  0
POLYLINE
  5
564
  8
Layer_2
  62
1
  66
1
  10
0
  20
0
  30
0
  0
VERTEX
  5
564
  8
Layer_2
  10
67.689026
  20
252.82538
  0
VERTEX
  5
565
  8
Layer_2
  10
61.598145
  20
255.28699
  0
SEQEND
  0
POLYLINE
  5
567
  8
Layer_2
  62
1
  66
1
  10
0
  20
0
  30
0
  0
VERTEX
  5
567
  8
Layer_2
  10
61.598145
  20
255.28699
  0
VERTEX
  5
568
  8
Layer_2
  10
61.424385
  20
265.1123
  0
SEQEND
  0
POLYLINE
  5
56a
  8
Layer_2
  62
1
  66
1
  10
0
  20
0
  30
0
  0
VERTEX
  5
56a
  8
Layer_2
  10
61.424385
  20
265.1123
  0
VERTEX
  5
56b
  8
Layer_2
  10
67.462296
  20
267.11682
  0
SEQEND
  0
POLYLINE
  5
56d
  8
Layer_2
  62
1
  66
1
  10
0
  20
0
  30
0
  0
VERTEX
  5
56d
  8
Layer_2
  10
234.29819
  20
240.13989
  0
VERTEX
  5
56e
  8
Layer_2
  10
233.96909
  20
271.48547
  0
SEQEND
  0
POLYLINE
  5
570
  8
Layer_2
  62
1
  66
1
  10
0
  20
0
  30
0
  0
VERTEX
  5
570
  8
Layer_2
  10
233.96909
  20
271.48547
  42
-0.054906688
  0
VERTEX
  5
571
  8
Layer_2
  10
234.63831
  20
273.29874
  0
SEQEND
  0
POLYLINE
  5
573
  8
Layer_2
  62
1
  66
1
  10
0
  20
0
  30
0
  0
VERTEX
  5
573
  8
Layer_2
  10
234.63831
  20
273.29874
  42
-0.26098776
  0
VERTEX
  5
574
  8
Layer_2
  10
237.0976
  20
275.11578
  0
SEQEND
  0
POLYLINE
  5
576
  8
Layer_2
  62
1
  66
1
  10
0
  20
0
  30
0
  0
VERTEX
  5
576
  8
Layer_2
  10
237.0976
  20
275.11578
  0
VERTEX
  5
577
  8
Layer_2
  10
237.18039
  20
275.12656
  0
SEQEND
  0
POLYLINE
  5
579
  8
Layer_2
  62
1
  66
1
  10
0
  20
0
  30
0
  0
VERTEX
  5
579
  8
Layer_2
  10
237.18039
  20
275.12656
  0
VERTEX
  5
57a
  8
Layer_2
  10
237.26468
  20
275.13571
  0
SEQEND
  0
POLYLINE
  5
57c
  8
Layer_2
  62
1
  66
1
  10
0
  20
0
  30
0
  0
VERTEX
  5
57c
  8
Layer_2
  10
237.26468
  20
275.13571
  0
VERTEX
  5
57d
  8
Layer_2
  10
237.34735
  20
275.14294
  0
SEQEND
  0
POLYLINE
  5
57f
  8
Layer_2
  62
1
  66
1
  10
0
  20
0
  30
0
  0
VERTEX
  5
57f
  8
Layer_2
  10
237.34735
  20
275.14294
  0
VERTEX
  5
580
  8
Layer_2
  10
247.85648
  20
275.34775
  0
SEQEND
  0
POLYLINE
  5
582
  8
Layer_2
  62
1
  66
1
  10
0
  20
0
  30
0
  0
VERTEX
  5
582
  8
Layer_2
  10
247.85648
  20
275.34775
  42
-0.20264448
  0
VERTEX
  5
583
  8
Layer_2
  10
252.18143
  20
273.62903
  0
SEQEND
  0
POLYLINE
  5
585
  8
Layer_2
  62
1
  66
1
  10
0
  20
0
  30
0
  0
VERTEX
  5
585
  8
Layer_2
  10
252.18143
  20
273.62903
  42
-0.19960187
  0
VERTEX
  5
586
  8
Layer_2
  10
253.86942
  20
269.3898
  0
SEQEND
  0
POLYLINE
  5
588
  8
Layer_2
  62
1
  66
1
  10
0
  20
0
  30
0
  0
VERTEX
  5
588
  8
Layer_2
  10
253.86942
  20
269.3898
  0
VERTEX
  5
589
  8
Layer_2
  10
254.28766
  20
172.56854
  0
SEQEND
  0
POLYLINE
  5
58b
  8
Layer_2
  62
1
  66
1
  10
0
  20
0
  30
0
  0
VERTEX
  5
58b
  8
Layer_2
  10
254.28766
  20
172.56854
  42
-0.201059
  0
VERTEX
  5
58c
  8
Layer_2
  10
253.00381
  20
169.59552
  0
SEQEND
  0
POLYLINE
  5
58e
  8
Layer_2
  62
1
  66
1
  10
0
  20
0
  30
0
  0
VERTEX
  5
58e
  8
Layer_2
  10
253.00381
  20
169.59552
  42
-0.20106171
  0
VERTEX
  5
58f
  8
Layer_2
  10
249.98395
  20
168.42603
  0
SEQEND
  0
POLYLINE
  5
591
  8
Layer_2
  62
1
  66
1
  10
0
  20
0
  30
0
  0
VERTEX
  5
591
  8
Layer_2
  10
249.98395
  20
168.42603
  0
VERTEX
  5
592
  8
Layer_2
  10
238.95001
  20
168.23459
  0
SEQEND
  0
POLYLINE
  5
594
  8
Layer_2
  62
1
  66
1
  10
0
  20
0
  30
0
  0
VERTEX
  5
594
  8
Layer_2
  10
238.95001
  20
168.23459
  0
VERTEX
  5
595
  8
Layer_2
  10
238.93979
  20
168.23163
  0
SEQEND
  0
POLYLINE
  5
597
  8
Layer_2
  62
1
  66
1
  10
0
  20
0
  30
0
  0
VERTEX
  5
597
  8
Layer_2
  10
238.93979
  20
168.23163
  0
VERTEX
  5
598
  8
Layer_2
  10
238.89142
  20
168.21951
  0
SEQEND
  0
POLYLINE
  5
59a
  8
Layer_2
  62
1
  66
1
  10
0
  20
0
  30
0
  0
VERTEX
  5
59a
  8
Layer_2
  10
238.89142
  20
168.21951
  0
VERTEX
  5
59b
  8
Layer_2
  10
238.52338
  20
168.22284
  0
SEQEND
  0
POLYLINE
  5
59d
  8
Layer_2
  62
1
  66
1
  10
0
  20
0
  30
0
  0
VERTEX
  5
59d
  8
Layer_2
  10
238.52338
  20
168.22284
  42
-0.41421446
  0
VERTEX
  5
59e
  8
Layer_2
  10
234.06419
  20
172.76331
  0
SEQEND
  0
POLYLINE
  5
5a0
  8
Layer_2
  62
1
  66
1
  10
0
  20
0
  30
0
  0
VERTEX
  5
5a0
  8
Layer_2
  10
234.06419
  20
172.76331
  0
VERTEX
  5
5a1
  8
Layer_2
  10
234.04306
  20
170.42276
  0
SEQEND
  0
POLYLINE
  5
5a3
  8
Layer_2
  62
1
  66
1
  10
0
  20
0
  30
0
  0
VERTEX
  5
5a3
  8
Layer_2
  10
28.731651
  20
215.21539
  0
VERTEX
  5
5a4
  8
Layer_2
  10
28.701832
  20
219.25937
  0
SEQEND
  0
POLYLINE
  5
5a6
  8
Layer_2
  62
1
  66
1
  10
0
  20
0
  30
0
  0
VERTEX
  5
5a6
  8
Layer_2
  10
48.094421
  20
269.78699
  0
VERTEX
  5
5a7
  8
Layer_2
  10
75.615623
  20
269.88068
  0
SEQEND
  0
POLYLINE
  5
5a9
  8
Layer_2
  62
1
  66
1
  10
0
  20
0
  30
0
  0
VERTEX
  5
5a9
  8
Layer_2
  10
75.615623
  20
269.88068
  0
VERTEX
  5
5aa
  8
Layer_2
  10
75.496857
  20
275.51947
  0
SEQEND
  0
POLYLINE
  5
5ac
  8
Layer_2
  62
1
  66
1
  10
0
  20
0
  30
0
  0
VERTEX
  5
5ac
  8
Layer_2
  10
75.496857
  20
275.51947
  42
-0.19950634
  0
VERTEX
  5
5ad
  8
Layer_2
  10
78.012611
  20
281.95236
  0
SEQEND
  0
POLYLINE
  5
5af
  8
Layer_2
  62
1
  66
1
  10
0
  20
0
  30
0
  0
VERTEX
  5
5af
  8
Layer_2
  10
78.012611
  20
281.95236
  42
-0.19950169
  0
VERTEX
  5
5b0
  8
Layer_2
  10
84.346497
  20
284.70773
  0
SEQEND
  0
POLYLINE
  5
5b2
  8
Layer_2
  62
1
  66
1
  10
0
  20
0
  30
0
  0
VERTEX
  5
5b2
  8
Layer_2
  10
84.346497
  20
284.70773
  0
VERTEX
  5
5b3
  8
Layer_2
  10
85.649597
  20
284.72919
  0
SEQEND
  0
POLYLINE
  5
5b5
  8
Layer_2
  62
1
  66
1
  10
0
  20
0
  30
0
  0
VERTEX
  5
5b5
  8
Layer_2
  10
85.649597
  20
284.72919
  42
-0.41421356
  0
VERTEX
  5
5b6
  8
Layer_2
  10
94.796753
  20
275.87881
  0
SEQEND
  0
POLYLINE
  5
5b8
  8
Layer_2
  62
1
  66
1
  10
0
  20
0
  30
0
  0
VERTEX
  5
5b8
  8
Layer_2
  10
94.796753
  20
275.87881
  0
VERTEX
  5
5b9
  8
Layer_2
  10
94.893417
  20
270.01443
  0
SEQEND
  0
POLYLINE
  5
5bb
  8
Layer_2
  62
1
  66
1
  10
0
  20
0
  30
0
  0
VERTEX
  5
5bb
  8
Layer_2
  10
94.893417
  20
270.01443
  0
VERTEX
  5
5bc
  8
Layer_2
  10
111.6637
  20
270.01074
  0
SEQEND
  0
POLYLINE
  5
5be
  8
Layer_2
  62
1
  66
1
  10
0
  20
0
  30
0
  0
VERTEX
  5
5be
  8
Layer_2
  10
111.6637
  20
270.01074
  0
VERTEX
  5
5bf
  8
Layer_2
  10
111.59842
  20
275.69632
  0
SEQEND
  0
POLYLINE
  5
5c1
  8
Layer_2
  62
1
  66
1
  10
0
  20
0
  30
0
  0
VERTEX
  5
5c1
  8
Layer_2
  10
111.59842
  20
275.69632
  42
-0.41300561
  0
VERTEX
  5
5c2
  8
Layer_2
  10
120.45746
  20
284.79849
  0
SEQEND
  0
POLYLINE
  5
5c4
  8
Layer_2
  62
1
  66
1
  10
0
  20
0
  30
0
  0
VERTEX
  5
5c4
  8
Layer_2
  10
120.45746
  20
284.79849
  0
VERTEX
  5
5c5
  8
Layer_2
  10
122.09465
  20
284.82404
  0
SEQEND
  0
POLYLINE
  5
5c7
  8
Layer_2
  62
1
  66
1
  10
0
  20
0
  30
0
  0
VERTEX
  5
5c7
  8
Layer_2
  10
122.09465
  20
284.82404
  42
-0.41210726
  0
VERTEX
  5
5c8
  8
Layer_2
  10
131.23268
  20
276.03024
  0
SEQEND
  0
POLYLINE
  5
5ca
  8
Layer_2
  62
1
  66
1
  10
0
  20
0
  30
0
  0
VERTEX
  5
5ca
  8
Layer_2
  10
131.23268
  20
276.03024
  0
VERTEX
  5
5cb
  8
Layer_2
  10
131.36977
  20
270.01654
  0
SEQEND
  0
POLYLINE
  5
5cd
  8
Layer_2
  62
1
  66
1
  10
0
  20
0
  30
0
  0
VERTEX
  5
5cd
  8
Layer_2
  10
131.36977
  20
270.01654
  0
VERTEX
  5
5ce
  8
Layer_2
  10
135.31085
  20
270.04926
  0
SEQEND
  0
POLYLINE
  5
5d0
  8
Layer_2
  62
1
  66
1
  10
0
  20
0
  30
0
  0
VERTEX
  5
5d0
  8
Layer_2
  10
10.104137
  20
216.16602
  0
VERTEX
  5
5d1
  8
Layer_2
  10
9.6211681
  20
216.09439
  0
SEQEND
  0
POLYLINE
  5
5d3
  8
Layer_2
  62
1
  66
1
  10
0
  20
0
  30
0
  0
VERTEX
  5
5d3
  8
Layer_2
  10
135.39966
  20
230.91742
  0
VERTEX
  5
5d4
  8
Layer_2
  10
146.15839
  20
241.36746
  0
SEQEND
  0
POLYLINE
  5
5d6
  8
Layer_2
  62
1
  66
1
  10
0
  20
0
  30
0
  0
VERTEX
  5
5d6
  8
Layer_2
  10
146.15839
  20
241.36746
  0
VERTEX
  5
5d7
  8
Layer_2
  10
145.97762
  20
270.1196
  0
SEQEND
  0
POLYLINE
  5
5d9
  8
Layer_2
  62
1
  66
1
  10
0
  20
0
  30
0
  0
VERTEX
  5
5d9
  8
Layer_2
  10
145.97762
  20
270.1196
  0
VERTEX
  5
5da
  8
Layer_2
  10
145.34488
  20
270.1156
  0
SEQEND
  0
POLYLINE
  5
5dc
  8
Layer_2
  62
1
  66
1
  10
0
  20
0
  30
0
  0
VERTEX
  5
5dc
  8
Layer_2
  10
145.34488
  20
270.1156
  0
VERTEX
  5
5dd
  8
Layer_2
  10
135.50636
  20
270.04587
  0
SEQEND
  0
POLYLINE
  5
5df
  8
Layer_2
  62
1
  66
1
  10
0
  20
0
  30
0
  0
VERTEX
  5
5df
  8
Layer_2
  10
135.50636
  20
270.04587
  42
-0.20327775
  0
VERTEX
  5
5e0
  8
Layer_2
  10
132.62225
  20
271.24493
  0
SEQEND
  0
POLYLINE
  5
5e2
  8
Layer_2
  62
1
  66
1
  10
0
  20
0
  30
0
  0
VERTEX
  5
5e2
  8
Layer_2
  10
132.62225
  20
271.24493
  42
-0.20329202
  0
VERTEX
  5
5e3
  8
Layer_2
  10
131.47951
  20
274.15186
  0
SEQEND
  0
POLYLINE
  5
5e5
  8
Layer_2
  62
1
  66
1
  10
0
  20
0
  30
0
  0
VERTEX
  5
5e5
  8
Layer_2
  10
131.47951
  20
274.15186
  0
VERTEX
  5
5e6
  8
Layer_2
  10
131.77322
  20
285.22672
  0
SEQEND
  0
POLYLINE
  5
5e8
  8
Layer_2
  62
1
  66
1
  10
0
  20
0
  30
0
  0
VERTEX
  5
5e8
  8
Layer_2
  10
131.77322
  20
285.22672
  42
-0.4134244
  0
VERTEX
  5
5e9
  8
Layer_2
  10
136.37894
  20
289.60608
  0
SEQEND
  0
POLYLINE
  5
5eb
  8
Layer_2
  62
1
  66
1
  10
0
  20
0
  30
0
  0
VERTEX
  5
5eb
  8
Layer_2
  10
136.37894
  20
289.60608
  0
VERTEX
  5
5ec
  8
Layer_2
  10
145.51953
  20
289.38821
  0
SEQEND
  0
POLYLINE
  5
5ee
  8
Layer_2
  62
1
  66
1
  10
0
  20
0
  30
0
  0
VERTEX
  5
5ee
  8
Layer_2
  10
145.51953
  20
289.38821
  0
VERTEX
  5
5ef
  8
Layer_2
  10
145.7691
  20
299.85605
  0
SEQEND
  0
POLYLINE
  5
5f1
  8
Layer_2
  62
1
  66
1
  10
0
  20
0
  30
0
  0
VERTEX
  5
5f1
  8
Layer_2
  10
145.7691
  20
299.85605
  0
VERTEX
  5
5f2
  8
Layer_2
  10
233.66969
  20
300
  0
SEQEND
  0
POLYLINE
  5
5f4
  8
Layer_2
  62
1
  66
1
  10
0
  20
0
  30
0
  0
VERTEX
  5
5f4
  8
Layer_2
  10
233.66969
  20
300
  0
VERTEX
  5
5f5
  8
Layer_2
  10
233.96909
  20
271.48547
  0
SEQEND
  0
POLYLINE
  5
5f7
  8
Layer_2
  62
1
  66
1
  10
0
  20
0
  30
0
  0
VERTEX
  5
5f7
  8
Layer_2
  10
135.47688
  20
211.76016
  0
VERTEX
  5
5f8
  8
Layer_2
  10
146.3195
  20
201.39722
  0
SEQEND
  0
POLYLINE
  5
5fa
  8
Layer_2
  62
1
  66
1
  10
0
  20
0
  30
0
  0
VERTEX
  5
5fa
  8
Layer_2
  10
146.3195
  20
201.39722
  0
VERTEX
  5
5fb
  8
Layer_2
  10
146.37065
  20
172.64456
  0
SEQEND
  0
POLYLINE
  5
5fd
  8
Layer_2
  62
1
  66
1
  10
0
  20
0
  30
0
  0
VERTEX
  5
5fd
  8
Layer_2
  10
146.37065
  20
172.64456
  0
VERTEX
  5
5fe
  8
Layer_2
  10
145.73795
  20
172.64343
  0
SEQEND
  0
POLYLINE
  5
600
  8
Layer_2
  62
1
  66
1
  10
0
  20
0
  30
0
  0
VERTEX
  5
600
  8
Layer_2
  10
145.73795
  20
172.64343
  0
VERTEX
  5
601
  8
Layer_2
  10
135.8992
  20
172.63385
  0
SEQEND
  0
POLYLINE
  5
603
  8
Layer_2
  62
1
  66
1
  10
0
  20
0
  30
0
  0
VERTEX
  5
603
  8
Layer_2
  10
135.8992
  20
172.63385
  0
VERTEX
  5
604
  8
Layer_2
  10
112.0569
  20
172.47668
  0
SEQEND
  0
POLYLINE
  5
606
  8
Layer_2
  62
1
  66
1
  10
0
  20
0
  30
0
  0
VERTEX
  5
606
  8
Layer_2
  10
112.0569
  20
172.47668
  0
VERTEX
  5
607
  8
Layer_2
  10
95.287315
  20
172.33774
  0
SEQEND
  0
POLYLINE
  5
609
  8
Layer_2
  62
1
  66
1
  10
0
  20
0
  30
0
  0
VERTEX
  5
609
  8
Layer_2
  10
95.287315
  20
172.33774
  0
VERTEX
  5
60a
  8
Layer_2
  10
76.00898
  20
172.31607
  0
SEQEND
  0
POLYLINE
  5
60c
  8
Layer_2
  62
1
  66
1
  10
0
  20
0
  30
0
  0
VERTEX
  5
60c
  8
Layer_2
  10
76.00898
  20
172.31607
  0
VERTEX
  5
60d
  8
Layer_2
  10
48.489243
  20
172.12689
  0
SEQEND
  0
POLYLINE
  5
60f
  8
Layer_2
  62
1
  66
1
  10
0
  20
0
  30
0
  0
VERTEX
  5
60f
  8
Layer_2
  10
130.76505
  20
250.05386
  0
VERTEX
  5
610
  8
Layer_2
  10
111.73178
  20
249.94974
  0
SEQEND
  0
POLYLINE
  5
612
  8
Layer_2
  62
1
  66
1
  10
0
  20
0
  30
0
  0
VERTEX
  5
612
  8
Layer_2
  10
145.28954
  20
202.48767
  0
VERTEX
  5
613
  8
Layer_2
  10
145.09854
  20
202.6899
  0
SEQEND
  0
POLYLINE
  5
615
  8
Layer_2
  62
1
  66
1
  10
0
  20
0
  30
0
  0
VERTEX
  5
615
  8
Layer_2
  10
146.3195
  20
201.39722
  0
VERTEX
  5
616
  8
Layer_2
  10
145.97626
  20
201.76068
  0
SEQEND
  0
POLYLINE
  5
618
  8
Layer_2
  62
1
  66
1
  10
0
  20
0
  30
0
  0
VERTEX
  5
618
  8
Layer_2
  10
54.331451
  20
230.93515
  0
VERTEX
  5
619
  8
Layer_2
  10
58.352257
  20
230.95108
  0
SEQEND
  0
POLYLINE
  5
61b
  8
Layer_2
  62
1
  66
1
  10
0
  20
0
  30
0
  0
VERTEX
  5
61b
  8
Layer_2
  10
9.6109238
  20
216.09286
  0
VERTEX
  5
61c
  8
Layer_2
  10
15.361801
  20
216.09198
  0
SEQEND
  0
POLYLINE
  5
61e
  8
Layer_2
  62
1
  66
1
  10
0
  20
0
  30
0
  0
VERTEX
  5
61e
  8
Layer_2
  10
15.361801
  20
216.09198
  42
0.41420871
  0
VERTEX
  5
61f
  8
Layer_2
  10
20.36261
  20
221.09119
  0
SEQEND
  0
POLYLINE
  5
621
  8
Layer_2
  62
1
  66
1
  10
0
  20
0
  30
0
  0
VERTEX
  5
621
  8
Layer_2
  10
20.36261
  20
221.09119
  0
VERTEX
  5
622
  8
Layer_2
  10
20.362614
  20
220.80173
  0
SEQEND
  0
POLYLINE
  5
624
  8
Layer_2
  62
1
  66
1
  10
0
  20
0
  30
0
  0
VERTEX
  5
624
  8
Layer_2
  10
48.835587
  20
172.08868
  0
VERTEX
  5
625
  8
Layer_2
  10
48.83699
  20
172.08871
  0
SEQEND
  0
POLYLINE
  5
627
  8
Layer_2
  62
1
  66
1
  10
0
  20
0
  30
0
  0
VERTEX
  5
627
  8
Layer_2
  10
68.217316
  20
187.26151
  0
VERTEX
  5
628
  8
Layer_2
  10
68.330269
  20
176.57343
  0
SEQEND
  0
POLYLINE
  5
62a
  8
Layer_2
  62
1
  66
1
  10
0
  20
0
  30
0
  0
VERTEX
  5
62a
  8
Layer_2
  10
145.80458
  20
201.94244
  0
VERTEX
  5
62b
  8
Layer_2
  10
145.46121
  20
202.30592
  0
SEQEND
  0
POLYLINE
  5
62d
  8
Layer_2
  62
1
  66
1
  10
0
  20
0
  30
0
  0
VERTEX
  5
62d
  8
Layer_2
  10
48.446617
  20
215.40628
  0
VERTEX
  5
62e
  8
Layer_2
  10
48.429337
  20
219.70926
  0
SEQEND
  0
POLYLINE
  5
630
  8
Layer_2
  62
1
  66
1
  10
0
  20
0
  30
0
  0
VERTEX
  5
630
  8
Layer_2
  10
63.044601
  20
181.88232
  0
VERTEX
  5
631
  8
Layer_2
  10
73.544388
  20
181.94986
  0
SEQEND
  0
POLYLINE
  5
633
  8
Layer_2
  62
1
  66
1
  10
0
  20
0
  30
0
  0
VERTEX
  5
633
  8
Layer_2
  10
233.14468
  20
258.80725
  0
VERTEX
  5
634
  8
Layer_2
  10
229.10947
  20
258.80725
  0
SEQEND
  0
POLYLINE
  5
636
  8
Layer_2
  62
1
  66
1
  10
0
  20
0
  30
0
  0
VERTEX
  5
636
  8
Layer_2
  10
224.10947
  20
258.80725
  0
VERTEX
  5
637
  8
Layer_2
  10
219.10947
  20
258.80728
  0
SEQEND
  0
POLYLINE
  5
639
  8
Layer_2
  62
1
  66
1
  10
0
  20
0
  30
0
  0
VERTEX
  5
639
  8
Layer_2
  10
214.10947
  20
258.80731
  0
VERTEX
  5
63a
  8
Layer_2
  10
209.10947
  20
258.80731
  0
SEQEND
  0
POLYLINE
  5
63c
  8
Layer_2
  62
1
  66
1
  10
0
  20
0
  30
0
  0
VERTEX
  5
63c
  8
Layer_2
  10
204.10947
  20
258.80734
  0
VERTEX
  5
63d
  8
Layer_2
  10
199.10947
  20
258.80737
  0
SEQEND
  0
POLYLINE
  5
63f
  8
Layer_2
  62
1
  66
1
  10
0
  20
0
  30
0
  0
VERTEX
  5
63f
  8
Layer_2
  10
194.10947
  20
258.80737
  0
VERTEX
  5
640
  8
Layer_2
  10
189.10947
  20
258.8074
  0
SEQEND
  0
POLYLINE
  5
642
  8
Layer_2
  62
1
  66
1
  10
0
  20
0
  30
0
  0
VERTEX
  5
642
  8
Layer_2
  10
184.10947
  20
258.80743
  0
VERTEX
  5
643
  8
Layer_2
  10
179.10947
  20
258.80743
  0
SEQEND
  0
POLYLINE
  5
645
  8
Layer_2
  62
1
  66
1
  10
0
  20
0
  30
0
  0
VERTEX
  5
645
  8
Layer_2
  10
166.14906
  20
265.0636
  0
VERTEX
  5
646
  8
Layer_2
  10
166.14906
  20
258.80804
  0
SEQEND
  0
POLYLINE
  5
648
  8
Layer_2
  62
1
  66
1
  10
0
  20
0
  30
0
  0
VERTEX
  5
648
  8
Layer_2
  10
156.05452
  20
258.80804
  0
VERTEX
  5
649
  8
Layer_2
  10
176.20853
  20
258.80804
  0
SEQEND
  0
POLYLINE
  5
64b
  8
Layer_2
  62
1
  66
1
  10
0
  20
0
  30
0
  0
VERTEX
  5
64b
  8
Layer_2
  10
151.05452
  20
258.80804
  0
VERTEX
  5
64c
  8
Layer_2
  10
147.05452
  20
258.80804
  0
SEQEND
  0
POLYLINE
  5
64e
  8
Layer_2
  62
1
  66
1
  10
0
  20
0
  30
0
  0
VERTEX
  5
64e
  8
Layer_2
  10
238.9913
  20
241.14456
  0
VERTEX
  5
64f
  8
Layer_2
  10
235.9913
  20
241.14456
  0
SEQEND
  0
POLYLINE
  5
651
  8
Layer_2
  62
1
  66
1
  10
0
  20
0
  30
0
  0
VERTEX
  5
651
  8
Layer_2
  10
228.9913
  20
241.14456
  0
VERTEX
  5
652
  8
Layer_2
  10
223.9913
  20
241.14456
  0
SEQEND
  0
POLYLINE
  5
654
  8
Layer_2
  62
1
  66
1
  10
0
  20
0
  30
0
  0
VERTEX
  5
654
  8
Layer_2
  10
214.09645
  20
181.24197
  0
VERTEX
  5
655
  8
Layer_2
  10
209.09645
  20
181.23462
  0
SEQEND
  0
POLYLINE
  5
657
  8
Layer_2
  62
1
  66
1
  10
0
  20
0
  30
0
  0
VERTEX
  5
657
  8
Layer_2
  10
224.09644
  20
181.25671
  0
VERTEX
  5
658
  8
Layer_2
  10
219.09645
  20
181.24934
  0
SEQEND
  0
POLYLINE
  5
65a
  8
Layer_2
  62
1
  66
1
  10
0
  20
0
  30
0
  0
VERTEX
  5
65a
  8
Layer_2
  10
194.09647
  20
181.21255
  0
VERTEX
  5
65b
  8
Layer_2
  10
189.09648
  20
181.2052
  0
SEQEND
  0
POLYLINE
  5
65d
  8
Layer_2
  62
1
  66
1
  10
0
  20
0
  30
0
  0
VERTEX
  5
65d
  8
Layer_2
  10
233.13164
  20
181.26999
  0
VERTEX
  5
65e
  8
Layer_2
  10
229.09644
  20
181.26407
  0
SEQEND
  0
POLYLINE
  5
660
  8
Layer_2
  62
1
  66
1
  10
0
  20
0
  30
0
  0
VERTEX
  5
660
  8
Layer_2
  10
184.09648
  20
181.19783
  0
VERTEX
  5
661
  8
Layer_2
  10
179.0965
  20
181.19046
  0
SEQEND
  0
POLYLINE
  5
663
  8
Layer_2
  62
1
  66
1
  10
0
  20
0
  30
0
  0
VERTEX
  5
663
  8
Layer_2
  10
204.09647
  20
181.22726
  0
VERTEX
  5
664
  8
Layer_2
  10
199.09647
  20
181.21991
  0
SEQEND
  0
POLYLINE
  5
666
  8
Layer_2
  62
1
  66
1
  10
0
  20
0
  30
0
  0
VERTEX
  5
666
  8
Layer_2
  10
151.04158
  20
181.14868
  0
VERTEX
  5
667
  8
Layer_2
  10
147.04158
  20
181.14281
  0
SEQEND
  0
POLYLINE
  5
669
  8
Layer_2
  62
1
  66
1
  10
0
  20
0
  30
0
  0
VERTEX
  5
669
  8
Layer_2
  10
159.02101
  20
200.67422
  0
VERTEX
  5
66a
  8
Layer_2
  10
154.02101
  20
200.6669
  0
SEQEND
  0
POLYLINE
  5
66c
  8
Layer_2
  62
1
  66
1
  10
0
  20
0
  30
0
  0
VERTEX
  5
66c
  8
Layer_2
  10
169.021
  20
200.6889
  0
VERTEX
  5
66d
  8
Layer_2
  10
164.02101
  20
200.68158
  0
SEQEND
  0
POLYLINE
  5
66f
  8
Layer_2
  62
1
  66
1
  10
0
  20
0
  30
0
  0
VERTEX
  5
66f
  8
Layer_2
  10
149.02103
  20
200.65955
  0
VERTEX
  5
670
  8
Layer_2
  10
146.52103
  20
200.65588
  0
SEQEND
  0
POLYLINE
  5
672
  8
Layer_2
  62
1
  66
1
  10
0
  20
0
  30
0
  0
VERTEX
  5
672
  8
Layer_2
  10
219.02095
  20
200.76231
  0
VERTEX
  5
673
  8
Layer_2
  10
214.02095
  20
200.75497
  0
SEQEND
  0
POLYLINE
  5
675
  8
Layer_2
  62
1
  66
1
  10
0
  20
0
  30
0
  0
VERTEX
  5
675
  8
Layer_2
  10
179.021
  20
200.70358
  0
VERTEX
  5
676
  8
Layer_2
  10
174.021
  20
200.69626
  0
SEQEND
  0
POLYLINE
  5
678
  8
Layer_2
  62
1
  66
1
  10
0
  20
0
  30
0
  0
VERTEX
  5
678
  8
Layer_2
  10
189.02098
  20
200.71828
  0
VERTEX
  5
679
  8
Layer_2
  10
184.02098
  20
200.71094
  0
SEQEND
  0
POLYLINE
  5
67b
  8
Layer_2
  62
1
  66
1
  10
0
  20
0
  30
0
  0
VERTEX
  5
67b
  8
Layer_2
  10
209.02095
  20
200.74763
  0
VERTEX
  5
67c
  8
Layer_2
  10
204.02097
  20
200.7403
  0
SEQEND
  0
POLYLINE
  5
67e
  8
Layer_2
  62
1
  66
1
  10
0
  20
0
  30
0
  0
VERTEX
  5
67e
  8
Layer_2
  10
199.02097
  20
200.73296
  0
VERTEX
  5
67f
  8
Layer_2
  10
194.02098
  20
200.72562
  0
SEQEND
  0
POLYLINE
  5
681
  8
Layer_2
  62
1
  66
1
  10
0
  20
0
  30
0
  0
VERTEX
  5
681
  8
Layer_2
  10
229.02094
  20
200.77699
  0
VERTEX
  5
682
  8
Layer_2
  10
224.02094
  20
200.76965
  0
SEQEND
  0
POLYLINE
  5
684
  8
Layer_2
  62
1
  66
1
  10
0
  20
0
  30
0
  0
VERTEX
  5
684
  8
Layer_2
  10
239.02094
  20
200.79167
  0
VERTEX
  5
685
  8
Layer_2
  10
236.02094
  20
200.78726
  0
SEQEND
  0
POLYLINE
  5
687
  8
Layer_2
  62
1
  66
1
  10
0
  20
0
  30
0
  0
VERTEX
  5
687
  8
Layer_2
  10
176.19554
  20
181.18561
  0
VERTEX
  5
688
  8
Layer_2
  10
171.19554
  20
181.17825
  0
SEQEND
  0
POLYLINE
  5
68a
  8
Layer_2
  62
1
  66
1
  10
0
  20
0
  30
0
  0
VERTEX
  5
68a
  8
Layer_2
  10
166.19556
  20
181.17093
  0
VERTEX
  5
68b
  8
Layer_2
  10
161.19556
  20
181.16357
  0
SEQEND
  0
POLYLINE
  5
68d
  8
Layer_2
  62
1
  66
1
  10
0
  20
0
  30
0
  0
VERTEX
  5
68d
  8
Layer_2
  10
156.19557
  20
181.15625
  0
VERTEX
  5
68e
  8
Layer_2
  10
153.19557
  20
181.15184
  0
SEQEND
  0
POLYLINE
  5
690
  8
Layer_2
  62
1
  66
1
  10
0
  20
0
  30
0
  0
VERTEX
  5
690
  8
Layer_2
  10
220.51926
  20
143.20457
  0
VERTEX
  5
691
  8
Layer_2
  10
215.51926
  20
143.20457
  0
SEQEND
  0
POLYLINE
  5
693
  8
Layer_2
  62
1
  66
1
  10
0
  20
0
  30
0
  0
VERTEX
  5
693
  8
Layer_2
  10
210.51926
  20
143.20457
  0
VERTEX
  5
694
  8
Layer_2
  10
205.51926
  20
143.20457
  0
SEQEND
  0
POLYLINE
  5
696
  8
Layer_2
  62
1
  66
1
  10
0
  20
0
  30
0
  0
VERTEX
  5
696
  8
Layer_2
  10
119.51926
  20
152.70457
  0
VERTEX
  5
697
  8
Layer_2
  10
114.51926
  20
152.70457
  0
SEQEND
  0
POLYLINE
  5
699
  8
Layer_2
  62
1
  66
1
  10
0
  20
0
  30
0
  0
VERTEX
  5
699
  8
Layer_2
  10
129.51926
  20
152.70457
  0
VERTEX
  5
69a
  8
Layer_2
  10
124.51926
  20
152.70457
  0
SEQEND
  0
POLYLINE
  5
69c
  8
Layer_2
  62
1
  66
1
  10
0
  20
0
  30
0
  0
VERTEX
  5
69c
  8
Layer_2
  10
119.42924
  20
270.05145
  0
VERTEX
  5
69d
  8
Layer_2
  10
114.42924
  20
270.05145
  0
SEQEND
  0
POLYLINE
  5
69f
  8
Layer_2
  62
1
  66
1
  10
0
  20
0
  30
0
  0
VERTEX
  5
69f
  8
Layer_2
  10
129.42924
  20
270.05145
  0
VERTEX
  5
6a0
  8
Layer_2
  10
124.42924
  20
270.05145
  0
SEQEND
  0
POLYLINE
  5
6a2
  8
Layer_2
  62
1
  66
1
  10
0
  20
0
  30
0
  0
VERTEX
  5
6a2
  8
Layer_2
  10
93.014725
  20
270.05145
  0
VERTEX
  5
6a3
  8
Layer_2
  10
88.014725
  20
270.05145
  0
SEQEND
  0
POLYLINE
  5
6a5
  8
Layer_2
  62
1
  66
1
  10
0
  20
0
  30
0
  0
VERTEX
  5
6a5
  8
Layer_2
  10
83.014725
  20
270.05145
  0
VERTEX
  5
6a6
  8
Layer_2
  10
78.014725
  20
270.05145
  0
SEQEND
  0
POLYLINE
  5
6a8
  8
Layer_2
  62
1
  66
1
  10
0
  20
0
  30
0
  0
VERTEX
  5
6a8
  8
Layer_2
  10
57.295784
  20
249.90036
  0
VERTEX
  5
6a9
  8
Layer_2
  10
62.295784
  20
249.90033
  0
SEQEND
  0
POLYLINE
  5
6ab
  8
Layer_2
  62
1
  66
1
  10
0
  20
0
  30
0
  0
VERTEX
  5
6ab
  8
Layer_2
  10
67.295784
  20
249.9003
  0
VERTEX
  5
6ac
  8
Layer_2
  10
72.295784
  20
249.9003
  0
SEQEND
  0
POLYLINE
  5
6ae
  8
Layer_2
  62
1
  66
1
  10
0
  20
0
  30
0
  0
VERTEX
  5
6ae
  8
Layer_2
  10
122.02246
  20
256.30942
  0
VERTEX
  5
6af
  8
Layer_2
  10
122.02246
  20
250.05386
  0
SEQEND
  0
POLYLINE
  5
6b1
  8
Layer_2
  62
1
  66
1
  10
0
  20
0
  30
0
  0
VERTEX
  5
6b1
  8
Layer_2
  10
77.295784
  20
249.90027
  0
VERTEX
  5
6b2
  8
Layer_2
  10
82.295784
  20
249.90027
  0
SEQEND
  0
POLYLINE
  5
6b4
  8
Layer_2
  62
1
  66
1
  10
0
  20
0
  30
0
  0
VERTEX
  5
6b4
  8
Layer_2
  10
87.295784
  20
249.90024
  0
VERTEX
  5
6b5
  8
Layer_2
  10
92.295784
  20
249.90021
  0
SEQEND
  0
POLYLINE
  5
6b7
  8
Layer_2
  62
1
  66
1
  10
0
  20
0
  30
0
  0
VERTEX
  5
6b7
  8
Layer_2
  10
48.260574
  20
249.90036
  0
VERTEX
  5
6b8
  8
Layer_2
  10
52.295784
  20
249.90036
  0
SEQEND
  0
POLYLINE
  5
6ba
  8
Layer_2
  62
1
  66
1
  10
0
  20
0
  30
0
  0
VERTEX
  5
6ba
  8
Layer_2
  10
97.295784
  20
249.90021
  0
VERTEX
  5
6bb
  8
Layer_2
  10
102.29578
  20
249.90018
  0
SEQEND
  0
POLYLINE
  5
6bd
  8
Layer_2
  62
1
  66
1
  10
0
  20
0
  30
0
  0
VERTEX
  5
6bd
  8
Layer_2
  10
104.79578
  20
249.90021
  0
VERTEX
  5
6be
  8
Layer_2
  10
109.79578
  20
249.90018
  0
SEQEND
  0
POLYLINE
  5
6c0
  8
Layer_2
  62
1
  66
1
  10
0
  20
0
  30
0
  0
VERTEX
  5
6c0
  8
Layer_2
  10
76.831451
  20
230.93515
  0
VERTEX
  5
6c1
  8
Layer_2
  10
71.831451
  20
230.93515
  0
SEQEND
  0
POLYLINE
  5
6c3
  8
Layer_2
  62
1
  66
1
  10
0
  20
0
  30
0
  0
VERTEX
  5
6c3
  8
Layer_2
  10
106.83145
  20
230.93515
  0
VERTEX
  5
6c4
  8
Layer_2
  10
101.83145
  20
230.93515
  0
SEQEND
  0
POLYLINE
  5
6c6
  8
Layer_2
  62
1
  66
1
  10
0
  20
0
  30
0
  0
VERTEX
  5
6c6
  8
Layer_2
  10
126.83145
  20
230.93515
  0
VERTEX
  5
6c7
  8
Layer_2
  10
121.83145
  20
230.93515
  0
SEQEND
  0
POLYLINE
  5
6c9
  8
Layer_2
  62
1
  66
1
  10
0
  20
0
  30
0
  0
VERTEX
  5
6c9
  8
Layer_2
  10
86.831451
  20
230.93515
  0
VERTEX
  5
6ca
  8
Layer_2
  10
81.831451
  20
230.93515
  0
SEQEND
  0
POLYLINE
  5
6cc
  8
Layer_2
  62
1
  66
1
  10
0
  20
0
  30
0
  0
VERTEX
  5
6cc
  8
Layer_2
  10
66.831451
  20
230.93515
  0
VERTEX
  5
6cd
  8
Layer_2
  10
61.831451
  20
230.93515
  0
SEQEND
  0
POLYLINE
  5
6cf
  8
Layer_2
  62
1
  66
1
  10
0
  20
0
  30
0
  0
VERTEX
  5
6cf
  8
Layer_2
  10
96.831451
  20
230.93515
  0
VERTEX
  5
6d0
  8
Layer_2
  10
91.831451
  20
230.93515
  0
SEQEND
  0
POLYLINE
  5
6d2
  8
Layer_2
  62
1
  66
1
  10
0
  20
0
  30
0
  0
VERTEX
  5
6d2
  8
Layer_2
  10
116.83145
  20
230.93515
  0
VERTEX
  5
6d3
  8
Layer_2
  10
111.83145
  20
230.93515
  0
SEQEND
  0
POLYLINE
  5
6d5
  8
Layer_2
  62
1
  66
1
  10
0
  20
0
  30
0
  0
VERTEX
  5
6d5
  8
Layer_2
  10
76.84626
  20
210.763
  0
VERTEX
  5
6d6
  8
Layer_2
  10
71.846268
  20
210.75566
  0
SEQEND
  0
POLYLINE
  5
6d8
  8
Layer_2
  62
1
  66
1
  10
0
  20
0
  30
0
  0
VERTEX
  5
6d8
  8
Layer_2
  10
54.346283
  20
210.72998
  0
VERTEX
  5
6d9
  8
Layer_2
  10
58.367104
  20
210.71994
  0
SEQEND
  0
POLYLINE
  5
6db
  8
Layer_2
  62
1
  66
1
  10
0
  20
0
  30
0
  0
VERTEX
  5
6db
  8
Layer_2
  10
106.84623
  20
210.80704
  0
VERTEX
  5
6dc
  8
Layer_2
  10
101.84624
  20
210.7997
  0
SEQEND
  0
POLYLINE
  5
6de
  8
Layer_2
  62
1
  66
1
  10
0
  20
0
  30
0
  0
VERTEX
  5
6de
  8
Layer_2
  10
66.846275
  20
210.74832
  0
VERTEX
  5
6df
  8
Layer_2
  10
61.846275
  20
210.74098
  0
SEQEND
  0
POLYLINE
  5
6e1
  8
Layer_2
  62
1
  66
1
  10
0
  20
0
  30
0
  0
VERTEX
  5
6e1
  8
Layer_2
  10
96.846237
  20
210.79236
  0
VERTEX
  5
6e2
  8
Layer_2
  10
91.846245
  20
210.78502
  0
SEQEND
  0
POLYLINE
  5
6e4
  8
Layer_2
  62
1
  66
1
  10
0
  20
0
  30
0
  0
VERTEX
  5
6e4
  8
Layer_2
  10
86.846252
  20
210.77768
  0
VERTEX
  5
6e5
  8
Layer_2
  10
81.846252
  20
210.77034
  0
SEQEND
  0
POLYLINE
  5
6e7
  8
Layer_2
  62
1
  66
1
  10
0
  20
0
  30
0
  0
VERTEX
  5
6e7
  8
Layer_2
  10
116.84622
  20
210.82172
  0
VERTEX
  5
6e8
  8
Layer_2
  10
111.84622
  20
210.81439
  0
SEQEND
  0
POLYLINE
  5
6ea
  8
Layer_2
  62
1
  66
1
  10
0
  20
0
  30
0
  0
VERTEX
  5
6ea
  8
Layer_2
  10
126.84621
  20
210.8364
  0
VERTEX
  5
6eb
  8
Layer_2
  10
121.84621
  20
210.82907
  0
SEQEND
  0
POLYLINE
  5
6ed
  8
Layer_2
  62
1
  66
1
  10
0
  20
0
  30
0
  0
VERTEX
  5
6ed
  8
Layer_2
  10
48.303253
  20
191.75586
  0
VERTEX
  5
6ee
  8
Layer_2
  10
52.338455
  20
191.76178
  0
SEQEND
  0
POLYLINE
  5
6f0
  8
Layer_2
  62
1
  66
1
  10
0
  20
0
  30
0
  0
VERTEX
  5
6f0
  8
Layer_2
  10
137.7982
  20
191.47176
  0
VERTEX
  5
6f1
  8
Layer_2
  10
142.28288
  20
191.42667
  0
SEQEND
  0
POLYLINE
  5
6f3
  8
Layer_2
  62
1
  66
1
  10
0
  20
0
  30
0
  0
VERTEX
  5
6f3
  8
Layer_2
  10
67.33844
  20
191.78387
  0
VERTEX
  5
6f4
  8
Layer_2
  10
72.338432
  20
191.79123
  0
SEQEND
  0
POLYLINE
  5
6f6
  8
Layer_2
  62
1
  66
1
  10
0
  20
0
  30
0
  0
VERTEX
  5
6f6
  8
Layer_2
  10
57.338448
  20
191.76915
  0
VERTEX
  5
6f7
  8
Layer_2
  10
62.338448
  20
191.7765
  0
SEQEND
  0
POLYLINE
  5
6f9
  8
Layer_2
  62
1
  66
1
  10
0
  20
0
  30
0
  0
VERTEX
  5
6f9
  8
Layer_2
  10
97.338409
  20
191.82803
  0
VERTEX
  5
6fa
  8
Layer_2
  10
102.3384
  20
191.83539
  0
SEQEND
  0
POLYLINE
  5
6fc
  8
Layer_2
  62
1
  66
1
  10
0
  20
0
  30
0
  0
VERTEX
  5
6fc
  8
Layer_2
  10
130.80786
  20
191.72348
  0
VERTEX
  5
6fd
  8
Layer_2
  10
111.77448
  20
191.79967
  0
SEQEND
  0
POLYLINE
  5
6ff
  8
Layer_2
  62
1
  66
1
  10
0
  20
0
  30
0
  0
VERTEX
  5
6ff
  8
Layer_2
  10
87.338417
  20
191.81329
  0
VERTEX
  5
700
  8
Layer_2
  10
92.338409
  20
191.82066
  0
SEQEND
  0
POLYLINE
  5
702
  8
Layer_2
  62
1
  66
1
  10
0
  20
0
  30
0
  0
VERTEX
  5
702
  8
Layer_2
  10
122.07448
  20
185.45511
  0
VERTEX
  5
703
  8
Layer_2
  10
122.06529
  20
191.71065
  0
SEQEND
  0
POLYLINE
  5
705
  8
Layer_2
  62
1
  66
1
  10
0
  20
0
  30
0
  0
VERTEX
  5
705
  8
Layer_2
  10
77.338425
  20
191.79858
  0
VERTEX
  5
706
  8
Layer_2
  10
82.338425
  20
191.80594
  0
SEQEND
  0
POLYLINE
  5
708
  8
Layer_2
  62
1
  66
1
  10
0
  20
0
  30
0
  0
VERTEX
  5
708
  8
Layer_2
  10
104.83839
  20
191.83904
  0
VERTEX
  5
709
  8
Layer_2
  10
109.83839
  20
191.84639
  0
SEQEND
  0
POLYLINE
  5
70b
  8
Layer_2
  62
1
  66
1
  10
0
  20
0
  30
0
  0
VERTEX
  5
70b
  8
Layer_2
  10
45.215961
  20
211.11519
  0
VERTEX
  5
70c
  8
Layer_2
  10
40.215961
  20
211.11664
  0
SEQEND
  0
POLYLINE
  5
70e
  8
Layer_2
  62
1
  66
1
  10
0
  20
0
  30
0
  0
VERTEX
  5
70e
  8
Layer_2
  10
35.215961
  20
211.11809
  0
VERTEX
  5
70f
  8
Layer_2
  10
31.215961
  20
211.11925
  0
SEQEND
  0
POLYLINE
  5
711
  8
Layer_2
  62
1
  66
1
  10
0
  20
0
  30
0
  0
VERTEX
  5
711
  8
Layer_2
  10
44.237091
  20
230.62317
  0
VERTEX
  5
712
  8
Layer_2
  10
44.236435
  20
230.58139
  0
SEQEND
  0
POLYLINE
  5
714
  8
Layer_2
  62
1
  66
1
  10
0
  20
0
  30
0
  0
VERTEX
  5
714
  8
Layer_2
  10
35.201721
  20
230.51895
  0
VERTEX
  5
715
  8
Layer_2
  10
31.201725
  20
230.51193
  0
SEQEND
  0
POLYLINE
  5
717
  8
Layer_2
  62
1
  66
1
  10
0
  20
0
  30
0
  0
VERTEX
  5
717
  8
Layer_2
  10
45.201706
  20
230.53653
  0
VERTEX
  5
718
  8
Layer_2
  10
40.201714
  20
230.52774
  0
SEQEND
  0
POLYLINE
  5
71a
  8
Layer_2
  62
1
  66
1
  10
0
  20
0
  30
0
  0
VERTEX
  5
71a
  8
Layer_2
  10
292.26248
  20
181.9205
  0
VERTEX
  5
71b
  8
Layer_2
  10
272.88834
  20
181.9205
  0
SEQEND
  0
POLYLINE
  5
71d
  8
Layer_2
  62
1
  66
1
  10
0
  20
0
  30
0
  0
VERTEX
  5
71d
  8
Layer_2
  10
272.88834
  20
181.9205
  0
VERTEX
  5
71e
  8
Layer_2
  10
262.29889
  20
181.96393
  0
SEQEND
  0
POLYLINE
  5
720
  8
Layer_2
  62
1
  66
1
  10
0
  20
0
  30
0
  0
VERTEX
  5
720
  8
Layer_2
  10
262.29889
  20
181.96393
  42
-0.41139752
  0
VERTEX
  5
721
  8
Layer_2
  10
257.81738
  20
186.43906
  0
SEQEND
  0
POLYLINE
  5
723
  8
Layer_2
  62
1
  66
1
  10
0
  20
0
  30
0
  0
VERTEX
  5
723
  8
Layer_2
  10
257.81738
  20
186.43906
  0
VERTEX
  5
724
  8
Layer_2
  10
257.75067
  20
198.52954
  0
SEQEND
  0
POLYLINE
  5
726
  8
Layer_2
  62
1
  66
1
  10
0
  20
0
  30
0
  0
VERTEX
  5
726
  8
Layer_2
  10
257.75067
  20
198.52954
  42
-0.19966437
  0
VERTEX
  5
727
  8
Layer_2
  10
257.89615
  20
198.88489
  0
SEQEND
  0
POLYLINE
  5
729
  8
Layer_2
  62
1
  66
1
  10
0
  20
0
  30
0
  0
VERTEX
  5
729
  8
Layer_2
  10
257.89615
  20
198.88489
  42
-0.19969618
  0
VERTEX
  5
72a
  8
Layer_2
  10
258.25073
  20
199.03229
  0
SEQEND
  0
POLYLINE
  5
72c
  8
Layer_2
  62
1
  66
1
  10
0
  20
0
  30
0
  0
VERTEX
  5
72c
  8
Layer_2
  10
258.25073
  20
199.03229
  0
VERTEX
  5
72d
  8
Layer_2
  10
268.6348
  20
199.0303
  0
SEQEND
  0
POLYLINE
  5
72f
  8
Layer_2
  62
1
  66
1
  10
0
  20
0
  30
0
  0
VERTEX
  5
72f
  8
Layer_2
  10
268.6348
  20
199.0303
  0
VERTEX
  5
730
  8
Layer_2
  10
268.6366
  20
208.42941
  0
SEQEND
  0
POLYLINE
  5
732
  8
Layer_2
  62
1
  66
1
  10
0
  20
0
  30
0
  0
VERTEX
  5
732
  8
Layer_2
  10
268.6366
  20
208.42941
  42
0.20008598
  0
VERTEX
  5
733
  8
Layer_2
  10
267.74872
  20
210.56046
  0
SEQEND
  0
POLYLINE
  5
735
  8
Layer_2
  62
1
  66
1
  10
0
  20
0
  30
0
  0
VERTEX
  5
735
  8
Layer_2
  10
267.74872
  20
210.56046
  42
0.20008793
  0
VERTEX
  5
736
  8
Layer_2
  10
265.61008
  20
211.42987
  0
SEQEND
  0
POLYLINE
  5
738
  8
Layer_2
  62
1
  66
1
  10
0
  20
0
  30
0
  0
VERTEX
  5
738
  8
Layer_2
  10
265.61008
  20
211.42987
  0
VERTEX
  5
739
  8
Layer_2
  10
265.50006
  20
211.42889
  0
SEQEND
  0
POLYLINE
  5
73b
  8
Layer_2
  62
1
  66
1
  10
0
  20
0
  30
0
  0
VERTEX
  5
73b
  8
Layer_2
  10
265.50006
  20
211.42889
  42
0.41060449
  0
VERTEX
  5
73c
  8
Layer_2
  10
262.52658
  20
208.43951
  0
SEQEND
  0
POLYLINE
  5
73e
  8
Layer_2
  62
1
  66
1
  10
0
  20
0
  30
0
  0
VERTEX
  5
73e
  8
Layer_2
  10
262.52658
  20
208.43951
  0
VERTEX
  5
73f
  8
Layer_2
  10
262.51611
  20
205.43759
  0
SEQEND
  0
POLYLINE
  5
741
  8
Layer_2
  62
1
  66
1
  10
0
  20
0
  30
0
  0
VERTEX
  5
741
  8
Layer_2
  10
262.51611
  20
205.43759
  42
-0.19898469
  0
VERTEX
  5
742
  8
Layer_2
  10
262.36832
  20
205.08444
  0
SEQEND
  0
POLYLINE
  5
744
  8
Layer_2
  62
1
  66
1
  10
0
  20
0
  30
0
  0
VERTEX
  5
744
  8
Layer_2
  10
262.36832
  20
205.08444
  42
-0.1989511
  0
VERTEX
  5
745
  8
Layer_2
  10
262.0141
  20
204.93933
  0
SEQEND
  0
POLYLINE
  5
747
  8
Layer_2
  62
1
  66
1
  10
0
  20
0
  30
0
  0
VERTEX
  5
747
  8
Layer_2
  10
262.0141
  20
204.93933
  0
VERTEX
  5
748
  8
Layer_2
  10
258.27734
  20
204.95435
  0
SEQEND
  0
POLYLINE
  5
74a
  8
Layer_2
  62
1
  66
1
  10
0
  20
0
  30
0
  0
VERTEX
  5
74a
  8
Layer_2
  10
258.27734
  20
204.95435
  42
-0.19917812
  0
VERTEX
  5
74b
  8
Layer_2
  10
257.92401
  20
205.1026
  0
SEQEND
  0
POLYLINE
  5
74d
  8
Layer_2
  62
1
  66
1
  10
0
  20
0
  30
0
  0
VERTEX
  5
74d
  8
Layer_2
  10
257.92401
  20
205.1026
  42
-0.19918769
  0
VERTEX
  5
74e
  8
Layer_2
  10
257.77936
  20
205.45746
  0
SEQEND
  0
POLYLINE
  5
750
  8
Layer_2
  62
1
  66
1
  10
0
  20
0
  30
0
  0
VERTEX
  5
750
  8
Layer_2
  10
257.77936
  20
205.45746
  0
VERTEX
  5
751
  8
Layer_2
  10
257.77878
  20
205.36407
  0
SEQEND
  0
POLYLINE
  5
753
  8
Layer_2
  62
1
  66
1
  10
0
  20
0
  30
0
  0
VERTEX
  5
753
  8
Layer_2
  10
257.77878
  20
205.36407
  0
VERTEX
  5
754
  8
Layer_2
  10
257.7435
  20
227.07077
  0
SEQEND
  0
POLYLINE
  5
756
  8
Layer_2
  62
1
  66
1
  10
0
  20
0
  30
0
  0
VERTEX
  5
756
  8
Layer_2
  10
257.7435
  20
227.07077
  42
-0.19987501
  0
VERTEX
  5
757
  8
Layer_2
  10
259.15643
  20
230.47974
  0
SEQEND
  0
POLYLINE
  5
759
  8
Layer_2
  62
1
  66
1
  10
0
  20
0
  30
0
  0
VERTEX
  5
759
  8
Layer_2
  10
259.15643
  20
230.47974
  42
-0.19987292
  0
VERTEX
  5
75a
  8
Layer_2
  10
262.57126
  20
231.87851
  0
SEQEND
  0
POLYLINE
  5
75c
  8
Layer_2
  62
1
  66
1
  10
0
  20
0
  30
0
  0
VERTEX
  5
75c
  8
Layer_2
  10
262.57126
  20
231.87851
  0
VERTEX
  5
75d
  8
Layer_2
  10
262.84357
  20
231.87692
  0
SEQEND
  0
POLYLINE
  5
75f
  8
Layer_2
  62
1
  66
1
  10
0
  20
0
  30
0
  0
VERTEX
  5
75f
  8
Layer_2
  10
262.84357
  20
231.87692
  0
VERTEX
  5
760
  8
Layer_2
  10
300.18369
  20
231.80774
  0
SEQEND
  0
POLYLINE
  5
762
  8
Layer_2
  62
1
  66
1
  10
0
  20
0
  30
0
  0
VERTEX
  5
762
  8
Layer_2
  10
300.18369
  20
231.80774
  0
VERTEX
  5
763
  8
Layer_2
  10
337.52368
  20
231.6947
  0
SEQEND
  0
POLYLINE
  5
765
  8
Layer_2
  62
1
  66
1
  10
0
  20
0
  30
0
  0
VERTEX
  5
765
  8
Layer_2
  10
337.52368
  20
231.6947
  0
VERTEX
  5
766
  8
Layer_2
  10
337.79602
  20
231.69495
  0
SEQEND
  0
POLYLINE
  5
768
  8
Layer_2
  62
1
  66
1
  10
0
  20
0
  30
0
  0
VERTEX
  5
768
  8
Layer_2
  10
337.79602
  20
231.69495
  42
-0.19987811
  0
VERTEX
  5
769
  8
Layer_2
  10
341.20395
  20
230.27954
  0
SEQEND
  0
POLYLINE
  5
76b
  8
Layer_2
  62
1
  66
1
  10
0
  20
0
  30
0
  0
VERTEX
  5
76b
  8
Layer_2
  10
341.20395
  20
230.27954
  42
-0.19987806
  0
VERTEX
  5
76c
  8
Layer_2
  10
342.60025
  20
226.86374
  0
SEQEND
  0
POLYLINE
  5
76e
  8
Layer_2
  62
1
  66
1
  10
0
  20
0
  30
0
  0
VERTEX
  5
76e
  8
Layer_2
  10
342.60025
  20
226.86374
  0
VERTEX
  5
76f
  8
Layer_2
  10
342.45905
  20
205.15747
  0
SEQEND
  0
POLYLINE
  5
771
  8
Layer_2
  62
1
  66
1
  10
0
  20
0
  30
0
  0
VERTEX
  5
771
  8
Layer_2
  10
342.45905
  20
205.15747
  0
VERTEX
  5
772
  8
Layer_2
  10
342.45892
  20
205.25082
  0
SEQEND
  0
POLYLINE
  5
774
  8
Layer_2
  62
1
  66
1
  10
0
  20
0
  30
0
  0
VERTEX
  5
774
  8
Layer_2
  10
342.45892
  20
205.25082
  42
-0.19922409
  0
VERTEX
  5
775
  8
Layer_2
  10
342.31256
  20
204.8967
  0
SEQEND
  0
POLYLINE
  5
777
  8
Layer_2
  62
1
  66
1
  10
0
  20
0
  30
0
  0
VERTEX
  5
777
  8
Layer_2
  10
342.31256
  20
204.8967
  42
-0.19922517
  0
VERTEX
  5
778
  8
Layer_2
  10
341.95847
  20
204.75015
  0
SEQEND
  0
POLYLINE
  5
77a
  8
Layer_2
  62
1
  66
1
  10
0
  20
0
  30
0
  0
VERTEX
  5
77a
  8
Layer_2
  10
341.95847
  20
204.75015
  0
VERTEX
  5
77b
  8
Layer_2
  10
338.22168
  20
204.75339
  0
SEQEND
  0
POLYLINE
  5
77d
  8
Layer_2
  62
1
  66
1
  10
0
  20
0
  30
0
  0
VERTEX
  5
77d
  8
Layer_2
  10
338.22168
  20
204.75339
  42
-0.19895858
  0
VERTEX
  5
77e
  8
Layer_2
  10
337.86816
  20
204.90024
  0
SEQEND
  0
POLYLINE
  5
780
  8
Layer_2
  62
1
  66
1
  10
0
  20
0
  30
0
  0
VERTEX
  5
780
  8
Layer_2
  10
337.86816
  20
204.90024
  42
-0.19898571
  0
VERTEX
  5
781
  8
Layer_2
  10
337.72214
  20
205.25409
  0
SEQEND
  0
POLYLINE
  5
783
  8
Layer_2
  62
1
  66
1
  10
0
  20
0
  30
0
  0
VERTEX
  5
783
  8
Layer_2
  10
337.72214
  20
205.25409
  0
VERTEX
  5
784
  8
Layer_2
  10
337.72629
  20
208.25601
  0
SEQEND
  0
POLYLINE
  5
786
  8
Layer_2
  62
1
  66
1
  10
0
  20
0
  30
0
  0
VERTEX
  5
786
  8
Layer_2
  10
337.72629
  20
208.25601
  42
0.41060169
  0
VERTEX
  5
787
  8
Layer_2
  10
334.76746
  20
211.25989
  0
SEQEND
  0
POLYLINE
  5
789
  8
Layer_2
  62
1
  66
1
  10
0
  20
0
  30
0
  0
VERTEX
  5
789
  8
Layer_2
  10
334.76746
  20
211.25989
  0
VERTEX
  5
78a
  8
Layer_2
  10
334.65744
  20
211.26138
  0
SEQEND
  0
POLYLINE
  5
78c
  8
Layer_2
  62
1
  66
1
  10
0
  20
0
  30
0
  0
VERTEX
  5
78c
  8
Layer_2
  10
334.65744
  20
211.26138
  42
0.20009895
  0
VERTEX
  5
78d
  8
Layer_2
  10
332.51459
  20
210.40244
  0
SEQEND
  0
POLYLINE
  5
78f
  8
Layer_2
  62
1
  66
1
  10
0
  20
0
  30
0
  0
VERTEX
  5
78f
  8
Layer_2
  10
332.51459
  20
210.40244
  42
0.20008497
  0
VERTEX
  5
790
  8
Layer_2
  10
331.61633
  20
208.27576
  0
SEQEND
  0
POLYLINE
  5
792
  8
Layer_2
  62
1
  66
1
  10
0
  20
0
  30
0
  0
VERTEX
  5
792
  8
Layer_2
  10
331.61633
  20
208.27576
  0
VERTEX
  5
793
  8
Layer_2
  10
331.57224
  20
198.87674
  0
SEQEND
  0
POLYLINE
  5
795
  8
Layer_2
  62
1
  66
1
  10
0
  20
0
  30
0
  0
VERTEX
  5
795
  8
Layer_2
  10
331.57224
  20
198.87674
  0
VERTEX
  5
796
  8
Layer_2
  10
341.95618
  20
198.82803
  0
SEQEND
  0
POLYLINE
  5
798
  8
Layer_2
  62
1
  66
1
  10
0
  20
0
  30
0
  0
VERTEX
  5
798
  8
Layer_2
  10
341.95618
  20
198.82803
  42
-0.19965176
  0
VERTEX
  5
799
  8
Layer_2
  10
342.31006
  20
198.67889
  0
SEQEND
  0
POLYLINE
  5
79b
  8
Layer_2
  62
1
  66
1
  10
0
  20
0
  30
0
  0
VERTEX
  5
79b
  8
Layer_2
  10
342.31006
  20
198.67889
  42
-0.19967512
  0
VERTEX
  5
79c
  8
Layer_2
  10
342.4538
  20
198.32285
  0
SEQEND
  0
POLYLINE
  5
79e
  8
Layer_2
  62
1
  66
1
  10
0
  20
0
  30
0
  0
VERTEX
  5
79e
  8
Layer_2
  10
342.4538
  20
198.32285
  0
VERTEX
  5
79f
  8
Layer_2
  10
342.32806
  20
186.23283
  0
SEQEND
  0
POLYLINE
  5
7a1
  8
Layer_2
  62
1
  66
1
  10
0
  20
0
  30
0
  0
VERTEX
  5
7a1
  8
Layer_2
  10
342.32806
  20
186.23283
  42
-0.41139726
  0
VERTEX
  5
7a2
  8
Layer_2
  10
337.8248
  20
181.77963
  0
SEQEND
  0
POLYLINE
  5
7a4
  8
Layer_2
  62
1
  66
1
  10
0
  20
0
  30
0
  0
VERTEX
  5
7a4
  8
Layer_2
  10
337.8248
  20
181.77963
  0
VERTEX
  5
7a5
  8
Layer_2
  10
327.23526
  20
181.78789
  0
SEQEND
  0
POLYLINE
  5
7a7
  8
Layer_2
  62
1
  66
1
  10
0
  20
0
  30
0
  0
VERTEX
  5
7a7
  8
Layer_2
  10
327.23526
  20
181.78789
  0
VERTEX
  5
7a8
  8
Layer_2
  10
307.87149
  20
181.78789
  0
SEQEND
  0
POLYLINE
  5
7aa
  8
Layer_2
  62
1
  66
1
  10
0
  20
0
  30
0
  0
VERTEX
  5
7aa
  8
Layer_2
  10
327.23526
  20
181.78789
  0
VERTEX
  5
7ab
  8
Layer_2
  10
327.09857
  20
164.17906
  0
SEQEND
  0
POLYLINE
  5
7ad
  8
Layer_2
  62
1
  66
1
  10
0
  20
0
  30
0
  0
VERTEX
  5
7ad
  8
Layer_2
  10
327.09857
  20
164.17906
  0
VERTEX
  5
7ae
  8
Layer_2
  10
307.78555
  20
164.17906
  0
SEQEND
  0
POLYLINE
  5
7b0
  8
Layer_2
  62
1
  66
1
  10
0
  20
0
  30
0
  0
VERTEX
  5
7b0
  8
Layer_2
  10
327.09857
  20
164.17906
  0
VERTEX
  5
7b1
  8
Layer_2
  10
353.96494
  20
163.93402
  0
SEQEND
  0
POLYLINE
  5
7b3
  8
Layer_2
  62
1
  66
1
  10
0
  20
0
  30
0
  0
VERTEX
  5
7b3
  8
Layer_2
  10
353.96494
  20
163.93402
  42
-0.4134468
  0
VERTEX
  5
7b4
  8
Layer_2
  10
358.91922
  20
158.90169
  0
SEQEND
  0
POLYLINE
  5
7b6
  8
Layer_2
  62
1
  66
1
  10
0
  20
0
  30
0
  0
VERTEX
  5
7b6
  8
Layer_2
  10
358.91922
  20
158.90169
  0
VERTEX
  5
7b7
  8
Layer_2
  10
358.85919
  20
149.67108
  0
SEQEND
  0
POLYLINE
  5
7b9
  8
Layer_2
  62
1
  66
1
  10
0
  20
0
  30
0
  0
VERTEX
  5
7b9
  8
Layer_2
  10
358.85919
  20
149.67108
  42
-0.40872955
  0
VERTEX
  5
7ba
  8
Layer_2
  10
355.89603
  20
146.69083
  0
SEQEND
  0
POLYLINE
  5
7bc
  8
Layer_2
  62
1
  66
1
  10
0
  20
0
  30
0
  0
VERTEX
  5
7bc
  8
Layer_2
  10
355.89603
  20
146.69083
  0
VERTEX
  5
7bd
  8
Layer_2
  10
348.01553
  20
146.59422
  0
SEQEND
  0
POLYLINE
  5
7bf
  8
Layer_2
  62
1
  66
1
  10
0
  20
0
  30
0
  0
VERTEX
  5
7bf
  8
Layer_2
  10
348.01553
  20
146.59422
  0
VERTEX
  5
7c0
  8
Layer_2
  10
347.83713
  20
137.66476
  0
SEQEND
  0
POLYLINE
  5
7c2
  8
Layer_2
  62
1
  66
1
  10
0
  20
0
  30
0
  0
VERTEX
  5
7c2
  8
Layer_2
  10
347.83713
  20
137.66476
  0
VERTEX
  5
7c3
  8
Layer_2
  10
347.83026
  20
137.32211
  0
SEQEND
  0
POLYLINE
  5
7c5
  8
Layer_2
  62
1
  66
1
  10
0
  20
0
  30
0
  0
VERTEX
  5
7c5
  8
Layer_2
  10
347.83026
  20
137.32211
  42
0.20129259
  0
VERTEX
  5
7c6
  8
Layer_2
  10
348.68555
  20
135.16394
  0
SEQEND
  0
POLYLINE
  5
7c8
  8
Layer_2
  62
1
  66
1
  10
0
  20
0
  30
0
  0
VERTEX
  5
7c8
  8
Layer_2
  10
348.68555
  20
135.16394
  42
0.20129409
  0
VERTEX
  5
7c9
  8
Layer_2
  10
350.82468
  20
134.26218
  0
SEQEND
  0
POLYLINE
  5
7cb
  8
Layer_2
  62
1
  66
1
  10
0
  20
0
  30
0
  0
VERTEX
  5
7cb
  8
Layer_2
  10
350.82468
  20
134.26218
  0
VERTEX
  5
7cc
  8
Layer_2
  10
351.11243
  20
134.2617
  0
SEQEND
  0
POLYLINE
  5
7ce
  8
Layer_2
  62
1
  66
1
  10
0
  20
0
  30
0
  0
VERTEX
  5
7ce
  8
Layer_2
  10
351.11243
  20
134.2617
  42
0.41364507
  0
VERTEX
  5
7cf
  8
Layer_2
  10
354.13409
  20
137.23402
  0
SEQEND
  0
POLYLINE
  5
7d1
  8
Layer_2
  62
1
  66
1
  10
0
  20
0
  30
0
  0
VERTEX
  5
7d1
  8
Layer_2
  10
354.13409
  20
137.23402
  0
VERTEX
  5
7d2
  8
Layer_2
  10
354.16495
  20
140.58853
  0
SEQEND
  0
POLYLINE
  5
7d4
  8
Layer_2
  62
1
  66
1
  10
0
  20
0
  30
0
  0
VERTEX
  5
7d4
  8
Layer_2
  10
354.16495
  20
140.58853
  0
VERTEX
  5
7d5
  8
Layer_2
  10
358.77319
  20
140.58083
  0
SEQEND
  0
POLYLINE
  5
7d7
  8
Layer_2
  62
1
  66
1
  10
0
  20
0
  30
0
  0
VERTEX
  5
7d7
  8
Layer_2
  10
358.77319
  20
140.58083
  0
VERTEX
  5
7d8
  8
Layer_2
  10
358.73727
  20
119.11308
  0
SEQEND
  0
POLYLINE
  5
7da
  8
Layer_2
  62
1
  66
1
  10
0
  20
0
  30
0
  0
VERTEX
  5
7da
  8
Layer_2
  10
358.73727
  20
119.11308
  42
-0.19929383
  0
VERTEX
  5
7db
  8
Layer_2
  10
357.26169
  20
115.5748
  0
SEQEND
  0
POLYLINE
  5
7dd
  8
Layer_2
  62
1
  66
1
  10
0
  20
0
  30
0
  0
VERTEX
  5
7dd
  8
Layer_2
  10
357.26169
  20
115.5748
  42
-0.19929338
  0
VERTEX
  5
7de
  8
Layer_2
  10
353.71417
  20
114.12149
  0
SEQEND
  0
POLYLINE
  5
7e0
  8
Layer_2
  62
1
  66
1
  10
0
  20
0
  30
0
  0
VERTEX
  5
7e0
  8
Layer_2
  10
353.71417
  20
114.12149
  0
VERTEX
  5
7e1
  8
Layer_2
  10
299.89713
  20
114.37021
  0
SEQEND
  0
POLYLINE
  5
7e3
  8
Layer_2
  62
1
  66
1
  10
0
  20
0
  30
0
  0
VERTEX
  5
7e3
  8
Layer_2
  10
299.89713
  20
114.37021
  0
VERTEX
  5
7e4
  8
Layer_2
  10
246.0795
  20
114.38414
  0
SEQEND
  0
POLYLINE
  5
7e6
  8
Layer_2
  62
1
  66
1
  10
0
  20
0
  30
0
  0
VERTEX
  5
7e6
  8
Layer_2
  10
246.0795
  20
114.38414
  42
-0.19929408
  0
VERTEX
  5
7e7
  8
Layer_2
  10
242.53912
  20
115.85474
  0
SEQEND
  0
POLYLINE
  5
7e9
  8
Layer_2
  62
1
  66
1
  10
0
  20
0
  30
0
  0
VERTEX
  5
7e9
  8
Layer_2
  10
242.53912
  20
115.85474
  42
-0.19929547
  0
VERTEX
  5
7ea
  8
Layer_2
  10
241.08081
  20
119.40018
  0
SEQEND
  0
POLYLINE
  5
7ec
  8
Layer_2
  62
1
  66
1
  10
0
  20
0
  30
0
  0
VERTEX
  5
7ec
  8
Layer_2
  10
241.08081
  20
119.40018
  0
VERTEX
  5
7ed
  8
Layer_2
  10
241.14967
  20
140.86783
  0
SEQEND
  0
POLYLINE
  5
7ef
  8
Layer_2
  62
1
  66
1
  10
0
  20
0
  30
0
  0
VERTEX
  5
7ef
  8
Layer_2
  10
241.14967
  20
140.86783
  0
VERTEX
  5
7f0
  8
Layer_2
  10
245.7579
  20
140.85306
  0
SEQEND
  0
POLYLINE
  5
7f2
  8
Layer_2
  62
1
  66
1
  10
0
  20
0
  30
0
  0
VERTEX
  5
7f2
  8
Layer_2
  10
245.7579
  20
140.85306
  0
VERTEX
  5
7f3
  8
Layer_2
  10
245.7724
  20
137.49844
  0
SEQEND
  0
POLYLINE
  5
7f5
  8
Layer_2
  62
1
  66
1
  10
0
  20
0
  30
0
  0
VERTEX
  5
7f5
  8
Layer_2
  10
245.7724
  20
137.49844
  42
0.41364492
  0
VERTEX
  5
7f6
  8
Layer_2
  10
248.77951
  20
134.51143
  0
SEQEND
  0
POLYLINE
  5
7f8
  8
Layer_2
  62
1
  66
1
  10
0
  20
0
  30
0
  0
VERTEX
  5
7f8
  8
Layer_2
  10
248.77951
  20
134.51143
  0
VERTEX
  5
7f9
  8
Layer_2
  10
249.06726
  20
134.51048
  0
SEQEND
  0
POLYLINE
  5
7fb
  8
Layer_2
  62
1
  66
1
  10
0
  20
0
  30
0
  0
VERTEX
  5
7fb
  8
Layer_2
  10
249.06726
  20
134.51048
  42
0.20129704
  0
VERTEX
  5
7fc
  8
Layer_2
  10
251.21078
  20
135.40179
  0
SEQEND
  0
POLYLINE
  5
7fe
  8
Layer_2
  62
1
  66
1
  10
0
  20
0
  30
0
  0
VERTEX
  5
7fe
  8
Layer_2
  10
251.21078
  20
135.40179
  42
0.20129367
  0
VERTEX
  5
7ff
  8
Layer_2
  10
252.07655
  20
137.55576
  0
SEQEND
  0
POLYLINE
  5
801
  8
Layer_2
  62
1
  66
1
  10
0
  20
0
  30
0
  0
VERTEX
  5
801
  8
Layer_2
  10
252.07655
  20
137.55576
  0
VERTEX
  5
802
  8
Layer_2
  10
252.07138
  20
137.89844
  0
SEQEND
  0
POLYLINE
  5
804
  8
Layer_2
  62
1
  66
1
  10
0
  20
0
  30
0
  0
VERTEX
  5
804
  8
Layer_2
  10
252.07138
  20
137.89844
  0
VERTEX
  5
805
  8
Layer_2
  10
251.93655
  20
146.82867
  0
SEQEND
  0
POLYLINE
  5
807
  8
Layer_2
  62
1
  66
1
  10
0
  20
0
  30
0
  0
VERTEX
  5
807
  8
Layer_2
  10
251.93655
  20
146.82867
  0
VERTEX
  5
808
  8
Layer_2
  10
244.05663
  20
146.96373
  0
SEQEND
  0
POLYLINE
  5
80a
  8
Layer_2
  62
1
  66
1
  10
0
  20
0
  30
0
  0
VERTEX
  5
80a
  8
Layer_2
  10
244.05663
  20
146.96373
  42
-0.40872889
  0
VERTEX
  5
80b
  8
Layer_2
  10
241.10805
  20
149.9584
  0
SEQEND
  0
POLYLINE
  5
80d
  8
Layer_2
  62
1
  66
1
  10
0
  20
0
  30
0
  0
VERTEX
  5
80d
  8
Layer_2
  10
241.10805
  20
149.9584
  0
VERTEX
  5
80e
  8
Layer_2
  10
241.09305
  20
159.18921
  0
SEQEND
  0
POLYLINE
  5
810
  8
Layer_2
  62
1
  66
1
  10
0
  20
0
  30
0
  0
VERTEX
  5
810
  8
Layer_2
  10
241.09305
  20
159.18921
  42
-0.41344784
  0
VERTEX
  5
811
  8
Layer_2
  10
246.07184
  20
164.19728
  0
SEQEND
  0
POLYLINE
  5
813
  8
Layer_2
  62
1
  66
1
  10
0
  20
0
  30
0
  0
VERTEX
  5
813
  8
Layer_2
  10
246.07184
  20
164.19728
  0
VERTEX
  5
814
  8
Layer_2
  10
272.93906
  20
164.31122
  0
SEQEND
  0
POLYLINE
  5
816
  8
Layer_2
  62
1
  66
1
  10
0
  20
0
  30
0
  0
VERTEX
  5
816
  8
Layer_2
  10
272.93906
  20
164.31122
  0
VERTEX
  5
817
  8
Layer_2
  10
292.26489
  20
164.31122
  0
SEQEND
  0
POLYLINE
  5
819
  8
Layer_2
  62
1
  66
1
  10
0
  20
0
  30
0
  0
VERTEX
  5
819
  8
Layer_2
  10
358.75613
  20
130.33243
  0
VERTEX
  5
81a
  8
Layer_2
  10
358.77319
  20
140.53168
  0
SEQEND
  0
POLYLINE
  5
81c
  8
Layer_2
  62
1
  66
1
  10
0
  20
0
  30
0
  0
VERTEX
  5
81c
  8
Layer_2
  10
241.11671
  20
130.61948
  0
VERTEX
  5
81d
  8
Layer_2
  10
241.14943
  20
140.8187
  0
SEQEND
  0
POLYLINE
  5
81f
  8
Layer_2
  62
1
  66
1
  10
0
  20
0
  30
0
  0
VERTEX
  5
81f
  8
Layer_2
  10
272.88834
  20
181.9205
  0
VERTEX
  5
820
  8
Layer_2
  10
272.93906
  20
164.31122
  0
SEQEND
  0
POLYLINE
  5
822
  8
Layer_2
  62
1
  66
1
  10
0
  20
0
  30
0
  0
VERTEX
  5
822
  8
Layer_2
  10
279.88251
  20
229.61389
  0
VERTEX
  5
823
  8
Layer_2
  10
279.88251
  20
225.78058
  0
SEQEND
  0
POLYLINE
  5
825
  8
Layer_2
  62
1
  66
1
  10
0
  20
0
  30
0
  0
VERTEX
  5
825
  8
Layer_2
  10
279.78964
  20
219.05002
  0
VERTEX
  5
826
  8
Layer_2
  10
279.78964
  20
215.10129
  0
SEQEND
  0
POLYLINE
  5
828
  8
Layer_2
  62
1
  66
1
  10
0
  20
0
  30
0
  0
VERTEX
  5
828
  8
Layer_2
  10
279.81671
  20
208.45636
  0
VERTEX
  5
829
  8
Layer_2
  10
279.81671
  20
204.2962
  0
SEQEND
  0
POLYLINE
  5
82b
  8
Layer_2
  62
1
  66
1
  10
0
  20
0
  30
0
  0
VERTEX
  5
82b
  8
Layer_2
  10
279.56564
  20
197.95175
  0
VERTEX
  5
82c
  8
Layer_2
  10
279.56564
  20
194.10129
  0
SEQEND
  0
POLYLINE
  5
82e
  8
Layer_2
  62
1
  66
1
  10
0
  20
0
  30
0
  0
VERTEX
  5
82e
  8
Layer_2
  10
279.36731
  20
187.373
  0
VERTEX
  5
82f
  8
Layer_2
  10
279.36731
  20
183.60129
  0
SEQEND
  0
POLYLINE
  5
831
  8
Layer_2
  62
1
  66
1
  10
0
  20
0
  30
0
  0
VERTEX
  5
831
  8
Layer_2
  10
292.25186
  20
174.99733
  0
VERTEX
  5
832
  8
Layer_2
  10
292.25186
  20
170.37825
  0
SEQEND
  0
POLYLINE
  5
834
  8
Layer_2
  62
1
  66
1
  10
0
  20
0
  30
0
  0
VERTEX
  5
834
  8
Layer_2
  10
261.91794
  20
157.10417
  0
VERTEX
  5
835
  8
Layer_2
  10
261.86786
  20
152.56549
  0
SEQEND
  0
POLYLINE
  5
837
  8
Layer_2
  62
1
  66
1
  10
0
  20
0
  30
0
  0
VERTEX
  5
837
  8
Layer_2
  10
261.91895
  20
146.58562
  0
VERTEX
  5
838
  8
Layer_2
  10
261.91895
  20
141.86469
  0
SEQEND
  0
POLYLINE
  5
83a
  8
Layer_2
  62
1
  66
1
  10
0
  20
0
  30
0
  0
VERTEX
  5
83a
  8
Layer_2
  10
261.88367
  20
136.14989
  0
VERTEX
  5
83b
  8
Layer_2
  10
261.88367
  20
131.10129
  0
SEQEND
  0
POLYLINE
  5
83d
  8
Layer_2
  62
1
  66
1
  10
0
  20
0
  30
0
  0
VERTEX
  5
83d
  8
Layer_2
  10
261.91888
  20
125.30003
  0
VERTEX
  5
83e
  8
Layer_2
  10
261.85202
  20
120.5791
  0
SEQEND
  0
POLYLINE
  5
840
  8
Layer_2
  62
1
  66
1
  10
0
  20
0
  30
0
  0
VERTEX
  5
840
  8
Layer_2
  10
274.91794
  20
157.10417
  0
VERTEX
  5
841
  8
Layer_2
  10
274.86786
  20
152.56549
  0
SEQEND
  0
POLYLINE
  5
843
  8
Layer_2
  62
1
  66
1
  10
0
  20
0
  30
0
  0
VERTEX
  5
843
  8
Layer_2
  10
274.91895
  20
146.58562
  0
VERTEX
  5
844
  8
Layer_2
  10
274.91895
  20
141.86469
  0
SEQEND
  0
POLYLINE
  5
846
  8
Layer_2
  62
1
  66
1
  10
0
  20
0
  30
0
  0
VERTEX
  5
846
  8
Layer_2
  10
274.91888
  20
125.30003
  0
VERTEX
  5
847
  8
Layer_2
  10
274.85202
  20
120.5791
  0
SEQEND
  0
POLYLINE
  5
849
  8
Layer_2
  62
1
  66
1
  10
0
  20
0
  30
0
  0
VERTEX
  5
849
  8
Layer_2
  10
274.88367
  20
136.14989
  0
VERTEX
  5
84a
  8
Layer_2
  10
274.88367
  20
131.10129
  0
SEQEND
  0
POLYLINE
  5
84c
  8
Layer_2
  62
1
  66
1
  10
0
  20
0
  30
0
  0
VERTEX
  5
84c
  8
Layer_2
  10
291.91895
  20
146.58562
  0
VERTEX
  5
84d
  8
Layer_2
  10
291.91895
  20
141.86469
  0
SEQEND
  0
POLYLINE
  5
84f
  8
Layer_2
  62
1
  66
1
  10
0
  20
0
  30
0
  0
VERTEX
  5
84f
  8
Layer_2
  10
291.91794
  20
157.10417
  0
VERTEX
  5
850
  8
Layer_2
  10
291.86786
  20
152.56549
  0
SEQEND
  0
POLYLINE
  5
852
  8
Layer_2
  62
1
  66
1
  10
0
  20
0
  30
0
  0
VERTEX
  5
852
  8
Layer_2
  10
291.88367
  20
136.14989
  0
VERTEX
  5
853
  8
Layer_2
  10
291.88367
  20
131.10129
  0
SEQEND
  0
POLYLINE
  5
855
  8
Layer_2
  62
1
  66
1
  10
0
  20
0
  30
0
  0
VERTEX
  5
855
  8
Layer_2
  10
291.91888
  20
125.30003
  0
VERTEX
  5
856
  8
Layer_2
  10
291.85202
  20
120.5791
  0
SEQEND
  0
POLYLINE
  5
858
  8
Layer_2
  62
1
  66
1
  10
0
  20
0
  30
0
  0
VERTEX
  5
858
  8
Layer_2
  10
325.0166
  20
136.02756
  0
VERTEX
  5
859
  8
Layer_2
  10
324.99194
  20
130.97902
  0
SEQEND
  0
POLYLINE
  5
85b
  8
Layer_2
  62
1
  66
1
  10
0
  20
0
  30
0
  0
VERTEX
  5
85b
  8
Layer_2
  10
308.01678
  20
136.11052
  0
VERTEX
  5
85c
  8
Layer_2
  10
307.99216
  20
131.06198
  0
SEQEND
  0
POLYLINE
  5
85e
  8
Layer_2
  62
1
  66
1
  10
0
  20
0
  30
0
  0
VERTEX
  5
85e
  8
Layer_2
  10
338.01642
  20
135.96411
  0
VERTEX
  5
85f
  8
Layer_2
  10
337.99179
  20
130.91557
  0
SEQEND
  0
POLYLINE
  5
861
  8
Layer_2
  62
1
  66
1
  10
0
  20
0
  30
0
  0
VERTEX
  5
861
  8
Layer_2
  10
324.92841
  20
125.17801
  0
VERTEX
  5
862
  8
Layer_2
  10
324.97223
  20
120.4568
  0
SEQEND
  0
POLYLINE
  5
864
  8
Layer_2
  62
1
  66
1
  10
0
  20
0
  30
0
  0
VERTEX
  5
864
  8
Layer_2
  10
308.08475
  20
157.06473
  0
VERTEX
  5
865
  8
Layer_2
  10
308.1127
  20
152.52586
  0
SEQEND
  0
POLYLINE
  5
867
  8
Layer_2
  62
1
  66
1
  10
0
  20
0
  30
0
  0
VERTEX
  5
867
  8
Layer_2
  10
338.08441
  20
156.91832
  0
VERTEX
  5
868
  8
Layer_2
  10
338.11234
  20
152.37946
  0
SEQEND
  0
POLYLINE
  5
86a
  8
Layer_2
  62
1
  66
1
  10
0
  20
0
  30
0
  0
VERTEX
  5
86a
  8
Layer_2
  10
338.03204
  20
146.39989
  0
VERTEX
  5
86b
  8
Layer_2
  10
338.00903
  20
141.67902
  0
SEQEND
  0
POLYLINE
  5
86d
  8
Layer_2
  62
1
  66
1
  10
0
  20
0
  30
0
  0
VERTEX
  5
86d
  8
Layer_2
  10
308.03241
  20
146.5463
  0
VERTEX
  5
86e
  8
Layer_2
  10
308.00937
  20
141.82542
  0
SEQEND
  0
POLYLINE
  5
870
  8
Layer_2
  62
1
  66
1
  10
0
  20
0
  30
0
  0
VERTEX
  5
870
  8
Layer_2
  10
325.03223
  20
146.46333
  0
VERTEX
  5
871
  8
Layer_2
  10
325.00919
  20
141.74246
  0
SEQEND
  0
POLYLINE
  5
873
  8
Layer_2
  62
1
  66
1
  10
0
  20
0
  30
0
  0
VERTEX
  5
873
  8
Layer_2
  10
325.08456
  20
156.98177
  0
VERTEX
  5
874
  8
Layer_2
  10
325.11249
  20
152.4429
  0
SEQEND
  0
POLYLINE
  5
876
  8
Layer_2
  62
1
  66
1
  10
0
  20
0
  30
0
  0
VERTEX
  5
876
  8
Layer_2
  10
307.92859
  20
125.26097
  0
VERTEX
  5
877
  8
Layer_2
  10
307.97244
  20
120.53976
  0
SEQEND
  0
POLYLINE
  5
879
  8
Layer_2
  62
1
  66
1
  10
0
  20
0
  30
0
  0
VERTEX
  5
879
  8
Layer_2
  10
337.92825
  20
125.11456
  0
VERTEX
  5
87a
  8
Layer_2
  10
337.97208
  20
120.39336
  0
SEQEND
  0
POLYLINE
  5
87c
  8
Layer_2
  62
1
  66
1
  10
0
  20
0
  30
0
  0
VERTEX
  5
87c
  8
Layer_2
  10
307.83817
  20
174.9593
  0
VERTEX
  5
87d
  8
Layer_2
  10
307.81561
  20
170.34027
  0
SEQEND
  0
POLYLINE
  5
87f
  8
Layer_2
  62
1
  66
1
  10
0
  20
0
  30
0
  0
VERTEX
  5
87f
  8
Layer_2
  10
320.63626
  20
197.85153
  0
VERTEX
  5
880
  8
Layer_2
  10
320.61749
  20
194.00113
  0
SEQEND
  0
POLYLINE
  5
882
  8
Layer_2
  62
1
  66
1
  10
0
  20
0
  30
0
  0
VERTEX
  5
882
  8
Layer_2
  10
320.78296
  20
187.27194
  0
VERTEX
  5
883
  8
Layer_2
  10
320.76456
  20
183.50027
  0
SEQEND
  0
POLYLINE
  5
885
  8
Layer_2
  62
1
  66
1
  10
0
  20
0
  30
0
  0
VERTEX
  5
885
  8
Layer_2
  10
320.43646
  20
208.35724
  0
VERTEX
  5
886
  8
Layer_2
  10
320.41617
  20
204.19711
  0
SEQEND
  0
POLYLINE
  5
888
  8
Layer_2
  62
1
  66
1
  10
0
  20
0
  30
0
  0
VERTEX
  5
888
  8
Layer_2
  10
320.51523
  20
218.95065
  0
VERTEX
  5
889
  8
Layer_2
  10
320.49597
  20
215.00195
  0
SEQEND
  0
POLYLINE
  5
88b
  8
Layer_2
  62
1
  66
1
  10
0
  20
0
  30
0
  0
VERTEX
  5
88b
  8
Layer_2
  10
320.47391
  20
229.51483
  0
VERTEX
  5
88c
  8
Layer_2
  10
320.4552
  20
225.68158
  0
SEQEND
  0
ENDSEC
  0
EOF
