0
SECTION
2
HEADER
9
$INSUNITS
70
4
9
$ACADVER
1
AC1014
9
$HANDSEED
5
FFFF
0
ENDSEC
0
SECTION
2
TABLES
0
TABLE
2
VPORT
5
8
100
AcDbSymbolTable
0
ENDTAB
0
TABLE
2
LTYPE
5
5
100
AcDbSymbolTable
0
LTYPE
5
14
100
AcDbSymbolTableRecord
100
AcDbLinetypeTableRecord
2
BYBLOCK
70
0
0
LTYPE
5
15
100
AcDbSymbolTableRecord
100
AcDbLinetypeTableRecord
2
BYLAYER
70
0
0
LTYPE
5
16
100
AcDbSymbolTableRecord
100
AcDbLinetypeTableRecord
2
DASHED
70
0
3
Dashed __ __ __ __ __ __ __ __ __ __ __ __ __ _
72
65
73
2
40
0.75
49
0.5
74
0
49
-0.25
74
0
0
ENDTAB
0
TABLE
2
LAYER
5
2
100
AcDbSymbolTable
70
2
0
LAYER
5
50
100
AcDbSymbolTableRecord
100
AcDbLayerTableRecord
2
0
70
0
62
7
6
CONTINUOUS
0
ENDTAB
0
TABLE
2
STYLE
5
3
100
AcDbSymbolTable
70
1
0
STYLE
5
11
100
AcDbSymbolTableRecord
100
AcDbTextStyleTableRecord
2
STANDARD
70
0
0
ENDTAB
0
TABLE
2
VIEW
5
6
100
AcDbSymbolTable
70
0
0
ENDTAB
0
TABLE
2
UCS
5
7
100
AcDbSymbolTable
70
0
0
ENDTAB
0
TABLE
2
APPID
5
9
100
AcDbSymbolTable
70
2
0
APPID
5
12
100
AcDbSymbolTableRecord
100
AcDbRegAppTableRecord
2
ACAD
70
0
0
ENDTAB
0
TABLE
2
DIMSTYLE
5
A
100
AcDbSymbolTable
70
1
0
ENDTAB
0
TABLE
2
BLOCK_RECORD
5
1
100
AcDbSymbolTable
70
1
0
BLOCK_RECORD
5
1F
100
AcDbSymbolTableRecord
100
AcDbBlockTableRecord
2
*MODEL_SPACE
0
BLOCK_RECORD
5
1B
100
AcDbSymbolTableRecord
100
AcDbBlockTableRecord
2
*PAPER_SPACE
0
ENDTAB
0
ENDSEC
0
SECTION
2
BLOCKS
0
BLOCK
5
20
100
AcDbEntity
100
AcDbBlockBegin
2
*MODEL_SPACE
0
ENDBLK
5
21
100
AcDbEntity
100
AcDbBlockEnd
0
BLOCK
5
1C
100
AcDbEntity
100
AcDbBlockBegin
2
*PAPER_SPACE
0
ENDBLK
5
1D
100
AcDbEntity
100
AcDbBlockEnd
0
ENDSEC
0
SECTION
2
ENTITIES
0
LINE
5
100
100
AcDbEntity
8
0
100
AcDbLine
10
-50.317940183927483
20
52.019892962513836
30
0
11
-77.724052842735972
21
52.019892962513836
31
0
0
LINE
5
101
100
AcDbEntity
8
0
100
AcDbLine
10
-77.724052842735972
20
52.019892962513836
30
0
11
-77.724052842735944
21
51.268010028491446
31
0
0
LINE
5
102
100
AcDbEntity
8
0
100
AcDbLine
10
-82.724052842735944
20
56.268010028491453
30
0
11
-92.432534015872506
21
56.268010028491453
31
0
0
LINE
5
103
100
AcDbEntity
8
0
100
AcDbLine
10
-97.43253401587252
20
51.268010028491446
30
0
11
-97.432534015872534
21
12.555688179927619
31
0
0
LINE
5
104
100
AcDbEntity
8
0
100
AcDbLine
10
-97.432534015872534
20
12.555688179927619
30
0
11
-121.32585133427369
21
12.555688179927619
31
0
0
LINE
5
105
100
AcDbEntity
8
0
100
AcDbLine
10
-126.32585133427369
20
7.5556881799276105
30
0
11
-126.32585133427369
21
-2.0525447123609677
31
0
0
ARC
5
106
100
AcDbEntity
8
0
100
AcDbCircle
10
-121.32585133427369
20
7.5556881799276105
30
0
40
5.0000000000000089
210
0
220
-0
230
1
100
AcDbArc
50
90
51
180
0
ARC
5
107
100
AcDbEntity
8
0
100
AcDbCircle
10
-92.432534015872506
20
51.268010028491446
30
0
40
5.0000000000000089
210
0
220
-0
230
1
100
AcDbArc
50
90
51
180
0
ARC
5
108
100
AcDbEntity
8
0
100
AcDbCircle
10
-82.724052842735958
20
51.268010028491446
30
0
40
5.0000000000000089
210
0
220
0
230
1
100
AcDbArc
50
0
51
89.999999999999844
0
LINE
5
109
100
AcDbEntity
8
0
100
AcDbLine
10
-50.317940183927483
20
52.019892962513836
30
0
11
-50.317940183927483
21
56.804799431842994
31
0
0
LINE
5
110
100
AcDbEntity
8
0
100
AcDbLine
10
-40.317940183927483
20
66.80479943184298
30
0
11
-41.029142601006193
21
66.80479943184298
31
0
0
LINE
5
111
100
AcDbEntity
8
0
100
AcDbLine
10
-31.029142601006203
20
56.804799431843009
30
0
11
-31.029142601006203
21
52.019892962513836
31
0
0
ARC
5
112
100
AcDbEntity
8
0
100
AcDbCircle
10
-40.317940183927504
20
56.804799431843009
30
0
40
9.9999999999999822
210
0
220
-0
230
1
100
AcDbArc
50
89.999999999999872
51
180
0
ARC
5
113
100
AcDbEntity
8
0
100
AcDbCircle
10
-41.029142601006185
20
56.804799431843009
30
0
40
9.9999999999999822
210
0
220
-0
230
1
100
AcDbArc
50
0
51
90.000000000000043
0
LINE
5
114
100
AcDbEntity
8
0
100
AcDbLine
10
-31.029142601006203
20
52.019892962513836
30
0
11
-14.236843677268208
21
52.019892962513822
31
0
0
LINE
5
115
100
AcDbEntity
8
0
100
AcDbLine
10
-14.236843677268208
20
52.019892962513822
30
0
11
-14.236843677268213
21
56.856367486100858
31
0
0
LINE
5
116
100
AcDbEntity
8
0
100
AcDbLine
10
-4.2368436772682205
20
66.856367486100865
30
0
11
-4.4691007706651087
21
66.856367486100865
31
0
0
LINE
5
117
100
AcDbEntity
8
0
100
AcDbLine
10
5.5308992293348975
20
56.856367486100865
30
0
11
5.5308992293348949
21
52.019892962513822
31
0
0
LINE
5
118
100
AcDbEntity
8
0
100
AcDbLine
10
5.5308992293348949
20
52.019892962513822
30
0
11
20.325090192472981
21
52.019892962513829
31
0
0
LINE
5
119
100
AcDbEntity
8
0
100
AcDbLine
10
20.325090192472981
20
52.019892962513829
30
0
11
20.325090192472981
21
22.389678891736441
31
0
0
LINE
5
120
100
AcDbEntity
8
0
100
AcDbLine
10
20.325090192472981
20
22.389678891736441
30
0
11
9.8615890261959596
21
12.555688179927621
31
0
0
ARC
5
121
100
AcDbEntity
8
0
100
AcDbCircle
10
-4.2368436772682116
20
56.856367486100865
30
0
40
10
210
0
220
0
230
1
100
AcDbArc
50
90.000000000000057
51
180
0
ARC
5
122
100
AcDbEntity
8
0
100
AcDbCircle
10
-4.4691007706650918
20
56.856367486100872
30
0
40
9.9999999999999893
210
-0
220
0
230
1
100
AcDbArc
50
0
51
90.000000000000099
0
LINE
5
123
100
AcDbEntity
8
0
100
AcDbLine
10
20.325090192472981
20
52.019892962513829
30
0
11
8.8960853887465081
21
52.019892962513822
31
0
0
LINE
5
124
100
AcDbEntity
8
0
100
AcDbLine
10
5.8960853887465134
20
55.019892962513815
30
0
11
5.8960853887465037
21
66.135812245176311
31
0
0
LINE
5
125
100
AcDbEntity
8
0
100
AcDbLine
10
10.896085388746499
20
71.135812245176311
30
0
11
19.815819351923352
21
71.135812245176311
31
0
0
LINE
5
126
100
AcDbEntity
8
0
100
AcDbLine
10
19.815819351923352
20
71.135812245176311
30
0
11
19.815819351923324
21
81.851794251167803
31
0
0
LINE
5
127
100
AcDbEntity
8
0
100
AcDbLine
10
19.815819351923324
20
81.851794251167803
30
0
11
108.140855707556
21
81.851794251167917
31
0
0
LINE
5
128
100
AcDbEntity
8
0
100
AcDbLine
10
108.140855707556
20
81.851794251167917
30
0
11
108.14085570755607
21
22.389678891736441
31
0
0
ARC
5
129
100
AcDbEntity
8
0
100
AcDbCircle
10
10.896085388746501
20
66.135812245176297
30
0
40
5.0000000000000089
210
0
220
0
230
1
100
AcDbArc
50
90.000000000000014
51
180
0
ARC
5
130
100
AcDbEntity
8
0
100
AcDbCircle
10
8.8960853887464939
20
55.019892962513801
30
0
40
2.9999999999999805
210
0
220
-0
230
1
100
AcDbArc
50
180
51
270.00000000000023
0
LINE
5
131
100
AcDbEntity
8
0
100
AcDbLine
10
108.14085570755601
20
52.12073657145217
30
0
11
108.14126985333431
21
51.878141075776803
31
0
0
LINE
5
132
100
AcDbEntity
8
0
100
AcDbLine
10
113.14126256748759
20
56.886676790211517
30
0
11
122.69862560421802
21
56.886676790211524
31
0
0
LINE
5
133
100
AcDbEntity
8
0
100
AcDbLine
10
127.69862560421645
20
51.88667679021313
30
0
11
127.69862560421657
21
-45.811286945178573
31
0
0
ARC
5
134
100
AcDbEntity
8
0
100
AcDbCircle
10
122.69862560421802
20
51.886676790213116
30
0
40
4.999999999998419
210
0
220
-0
230
1
100
AcDbArc
50
0
51
90
0
LINE
5
135
100
AcDbEntity
8
0
100
AcDbLine
10
122.69862560421657
20
-50.811286945178587
30
0
11
113.00000160932541
21
-50.811286945178594
31
0
0
LINE
5
136
100
AcDbEntity
8
0
100
AcDbLine
10
108.00000160932541
20
-45.811286945178608
30
0
11
108.00000160932535
21
-17.00000025331974
31
0
0
ARC
5
137
100
AcDbEntity
8
0
100
AcDbCircle
10
113.00000160932541
20
-45.811286945178587
30
0
40
5
210
0
220
0
230
1
100
AcDbArc
50
180
51
270
0
LINE
5
138
100
AcDbEntity
8
0
100
AcDbLine
10
108.00000160932541
20
-45.811286945178608
30
0
11
108.00000160932547
21
-75.492739233500785
31
0
0
LINE
5
139
100
AcDbEntity
8
0
100
AcDbLine
10
108.00000160932547
20
-75.492739233500785
30
0
11
108.22482756923007
21
-75.492739233500785
31
0
0
LINE
5
140
100
AcDbEntity
8
0
100
AcDbLine
10
108.22482756923007
20
-75.492739233500785
30
0
11
95.498916134813896
21
-75.492739233500785
31
0
0
LINE
5
141
100
AcDbEntity
8
0
100
AcDbLine
10
95.498916134813896
20
-75.492739233500785
30
0
11
95.498916134813896
21
-80.000001341104507
31
0
0
LINE
5
142
100
AcDbEntity
8
0
100
AcDbLine
10
85.498916134813911
20
-90.000001341104522
30
0
11
85.697981402689209
21
-90.000001341104522
31
0
0
LINE
5
143
100
AcDbEntity
8
0
100
AcDbLine
10
75.69798140268918
20
-80.000001341104507
30
0
11
75.69798140268918
21
-75.492739233500586
31
0
0
LINE
5
144
100
AcDbEntity
8
0
100
AcDbLine
10
75.69798140268918
20
-75.492739233500586
30
0
11
49.48284904027134
21
-75.492739233500785
31
0
0
LINE
5
145
100
AcDbEntity
8
0
100
AcDbLine
10
49.48284904027134
20
-75.492739233500785
30
0
11
49.48284904027134
21
-79.596917149002195
31
0
0
LINE
5
146
100
AcDbEntity
8
0
100
AcDbLine
10
39.482849040271326
20
-89.596917149002195
30
0
11
39.618230841888746
21
-89.596917149002223
31
0
0
LINE
5
147
100
AcDbEntity
8
0
100
AcDbLine
10
29.618230841888735
20
-79.596917149002223
30
0
11
29.618230841888735
21
-75.492739233500785
31
0
0
LINE
5
148
100
AcDbEntity
8
0
100
AcDbLine
10
29.618230841888735
20
-75.492739233500785
30
0
11
19.327241471307424
21
-75.492739233500785
31
0
0
LINE
5
149
100
AcDbEntity
8
0
100
AcDbLine
10
19.327241471307424
20
-75.492739233500785
30
0
11
19.327241471307424
21
-65.684150005752613
31
0
0
LINE
5
150
100
AcDbEntity
8
0
100
AcDbLine
10
19.327241471307424
20
-65.684150005752613
30
0
11
5.5899342845952855
21
-65.684150005752613
31
0
0
LINE
5
151
100
AcDbEntity
8
0
100
AcDbLine
10
5.5899342845952855
20
-65.684150005752613
30
0
11
5.5899342845952944
21
-70.339622018672372
31
0
0
LINE
5
152
100
AcDbEntity
8
0
100
AcDbLine
10
-4.4100657154046772
20
-80.339622018672372
30
0
11
-4.7224828781787203
21
-80.339622018672372
31
0
0
LINE
5
153
100
AcDbEntity
8
0
100
AcDbLine
10
-14.722482878178731
20
-70.339622018672372
30
0
11
-14.722482878178742
21
-65.684150005752585
31
0
0
LINE
5
154
100
AcDbEntity
8
0
100
AcDbLine
10
-14.722482878178742
20
-65.684150005752585
30
0
11
-24.210394394828832
21
-65.684150005752599
31
0
0
LINE
5
155
100
AcDbEntity
8
0
100
AcDbLine
10
-29.210394394828846
20
-60.684150005752606
30
0
11
-29.210394394828864
21
-51.011987583582169
31
0
0
LINE
5
156
100
AcDbEntity
8
0
100
AcDbLine
10
-24.210394394828864
20
-46.011987583582183
30
0
11
19.590258094674962
21
-46.011987583582048
31
0
0
LINE
5
157
100
AcDbEntity
8
0
100
AcDbLine
10
19.590258094674962
20
-46.011987583582048
30
0
11
19.590258094674848
21
-16.962491593238298
31
0
0
LINE
5
158
100
AcDbEntity
8
0
100
AcDbLine
10
19.590258094674848
20
-16.962491593238298
30
0
11
9.6950068982752526
21
-7.3052501075281207
31
0
0
ARC
5
159
100
AcDbEntity
8
0
100
AcDbCircle
10
-4.4100657154046967
20
-70.339622018672372
30
0
40
9.9999999999999911
210
0
220
0
230
1
100
AcDbArc
50
-89.999999999999901
51
0
0
ARC
5
160
100
AcDbEntity
8
0
100
AcDbCircle
10
-4.7224828781787389
20
-70.339622018672372
30
0
40
9.9999999999999929
210
0
220
0
230
1
100
AcDbArc
50
180
51
270.00000000000011
0
ARC
5
161
100
AcDbEntity
8
0
100
AcDbCircle
10
39.618230841888732
20
-79.596917149002209
30
0
40
9.9999999999999964
210
0
220
0
230
1
100
AcDbArc
50
180
51
270.00000000000011
0
ARC
5
162
100
AcDbEntity
8
0
100
AcDbCircle
10
39.482849040271304
20
-79.596917149002167
30
0
40
10.000000000000036
210
-0
220
0
230
1
100
AcDbArc
50
270.00000000000011
51
360
0
ARC
5
163
100
AcDbEntity
8
0
100
AcDbCircle
10
85.69798140268918
20
-80.000001341104522
30
0
40
10
210
0
220
0
230
1
100
AcDbArc
50
180
51
270.00000000000017
0
ARC
5
164
100
AcDbEntity
8
0
100
AcDbCircle
10
85.498916134813868
20
-80.000001341104507
30
0
40
10.000000000000018
210
-0
220
0
230
1
100
AcDbArc
50
-89.999999999999744
51
0
0
ARC
5
165
100
AcDbEntity
8
0
100
AcDbCircle
10
122.69862560421655
20
-45.811286945178551
30
0
40
5.0000000000000355
210
-0
220
0
230
1
100
AcDbArc
50
270.00000000000034
51
360
0
ARC
5
166
100
AcDbEntity
8
0
100
AcDbCircle
10
113.14126256748757
20
51.886676790210835
30
0
40
5.0000000000006839
210
0
220
-0
230
1
100
AcDbArc
50
89.999999999999844
51
180.09781212994864
0
ARC
5
167
100
AcDbEntity
8
0
100
AcDbCircle
10
-24.210394394828846
20
-60.684150005752606
30
0
40
5
210
0
220
-0
230
1
100
AcDbArc
50
180
51
270.00000000000017
0
ARC
5
168
100
AcDbEntity
8
0
100
AcDbCircle
10
-24.210394394828874
20
-51.011987583582169
30
0
40
4.9999999999999911
210
0
220
-0
230
1
100
AcDbArc
50
89.999999999999872
51
180
0
LINE
5
169
100
AcDbEntity
8
0
100
AcDbLine
10
-24.210394394828864
20
-46.011987583582183
30
0
11
-77.723982864772253
21
-46.011987583582339
31
0
0
LINE
5
170
100
AcDbEntity
8
0
100
AcDbLine
10
-77.723982864772253
20
-46.011987583582339
30
0
11
-77.724052842735972
21
-45.999824871732208
31
0
0
LINE
5
171
100
AcDbEntity
8
0
100
AcDbLine
10
-82.901543280371811
20
-51.000000759959235
30
0
11
-92.432534015872378
21
-51.000000759959278
31
0
0
LINE
5
172
100
AcDbEntity
8
0
100
AcDbLine
10
-97.432534015872392
20
-46.000000759959292
30
0
11
-97.432534015872534
21
-7.3052501075281207
31
0
0
LINE
5
173
100
AcDbEntity
8
0
100
AcDbLine
10
-97.432534015872534
20
-7.3052501075281207
30
0
11
-121.37867202050347
21
-7.0522657020869106
31
0
0
ARC
5
174
100
AcDbEntity
8
0
100
AcDbCircle
10
-121.32585133427369
20
-2.0525447123609619
30
0
40
5
210
0
220
0
230
1
100
AcDbArc
50
180
51
269.39470826272697
0
ARC
5
175
100
AcDbEntity
8
0
100
AcDbCircle
10
-92.432534015872392
20
-46.000000759959278
30
0
40
5
210
0
220
0
230
1
100
AcDbArc
50
180
51
270.00000000000017
0
ARC
5
176
100
AcDbEntity
8
0
100
AcDbCircle
10
-82.901543280371811
20
-45.819366387976402
30
0
40
5.1806343719828352
210
-0
220
0
230
1
100
AcDbArc
50
270
51
358.00379628894154
0
LINE
5
177
100
AcDbEntity
8
0
100
AcDbLine
10
-62.880643056383825
20
-35.799390053066475
30
0
11
-52.500000782310963
21
-35.799390053066475
31
0
0
LINE
5
178
100
AcDbEntity
8
0
100
AcDbLine
10
-58.000000864267349
20
-31.000000461935997
30
0
11
-58.000000864267349
21
-41.196776984785458
31
0
0
CIRCLE
5
179
100
AcDbEntity
8
0
100
AcDbCircle
10
-40.57736275381292
20
-19.04695483010914
30
0
40
2.8500000000000005
210
0
220
0
230
1
0
CIRCLE
5
180
100
AcDbEntity
8
0
100
AcDbCircle
10
-90.029844051467421
20
-43.731416262384705
30
0
40
2.8500000000000005
210
0
220
0
230
1
0
CIRCLE
5
181
100
AcDbEntity
8
0
100
AcDbCircle
10
-89.740105350417565
20
49.992989924690519
30
0
40
2.8500000000000005
210
0
220
0
230
1
0
CIRCLE
5
182
100
AcDbEntity
8
0
100
AcDbCircle
10
-40.407267138168478
20
24.95442003137487
30
0
40
2.8500000000000005
210
0
220
0
230
1
0
CIRCLE
5
183
100
AcDbEntity
8
0
100
AcDbCircle
10
-40.310211014767006
20
59.757617730322124
30
0
40
2.8500000000000005
210
0
220
0
230
1
0
CIRCLE
5
184
100
AcDbEntity
8
0
100
AcDbCircle
10
84.857965919442861
20
-83.021640085231041
30
0
40
2.8500000000000005
210
0
220
0
230
1
0
CIRCLE
5
185
100
AcDbEntity
8
0
100
AcDbCircle
10
85.26580056311326
20
-28.738014782059373
30
0
40
2.8500000000000005
210
0
220
0
230
1
0
CIRCLE
5
186
100
AcDbEntity
8
0
100
AcDbCircle
10
120.22633362566702
20
-39.603034560615441
30
0
40
2.8500000000000005
210
0
220
0
230
1
0
CIRCLE
5
187
100
AcDbEntity
8
0
100
AcDbCircle
10
112.07751223133536
20
2.9174607850004142
30
0
40
2.8500000000000005
210
0
220
0
230
1
0
CIRCLE
5
188
100
AcDbEntity
8
0
100
AcDbCircle
10
120.34835774037552
20
45.043511714644154
30
0
40
2.8500000000000005
210
0
220
0
230
1
0
CIRCLE
5
189
100
AcDbEntity
8
0
100
AcDbCircle
10
85.48586064379819
20
34.74369861257081
30
0
40
2.8500000000000005
210
0
220
0
230
1
0
LINE
5
190
100
AcDbEntity
8
0
100
AcDbLine
10
-77.724052842735972
20
-45.999824871732208
30
0
11
-77.724052842735972
21
-7.3052501075281207
31
0
0
LINE
5
191
100
AcDbEntity
8
0
100
AcDbLine
10
-77.724052842735944
20
51.268010028491446
30
0
11
-77.724052842735972
21
12.555688179927621
31
0
0
LINE
5
192
100
AcDbEntity
8
0
100
AcDbLine
10
-116.39999739825726
20
8.0839122350553598
30
0
11
-108.99718570214567
21
8.0839122350553598
31
0
0
ARC
5
193
100
AcDbEntity
8
0
100
AcDbCircle
10
-111.06519893947046
20
3.2794808040995953
30
0
40
5.2306060953302769
210
0
220
0
230
1
100
AcDbArc
50
0
51
66.711085070778765
0
LINE
5
194
100
AcDbEntity
8
0
100
AcDbLine
10
-116.39999739825726
20
-1.5249506268561708
30
0
11
-108.99718570214567
21
-1.5249506268561708
31
0
0
ARC
5
195
100
AcDbEntity
8
0
100
AcDbCircle
10
-111.06519893947046
20
3.2794808040995944
30
0
40
5.2306060953302769
210
0
220
0
230
1
100
AcDbArc
50
-66.711085070778751
51
0
0
LINE
5
196
100
AcDbEntity
8
0
100
AcDbLine
10
-58.328114526664478
20
48.95350258362204
30
0
11
-59.500000886619091
21
48.95350258362204
31
0
0
LINE
5
197
100
AcDbEntity
8
0
100
AcDbLine
10
-59.500000886619091
20
48.95350258362204
30
0
11
-64.132914436410843
21
47.236713573452825
31
0
0
LINE
5
198
100
AcDbEntity
8
0
100
AcDbLine
10
-64.132914436410843
20
47.236713573452825
30
0
11
-64.132914436410843
21
42.023317443577454
31
0
0
LINE
5
199
100
AcDbEntity
8
0
100
AcDbLine
10
-64.132914436410843
20
45.239696151248161
30
0
11
-60.292973847810501
21
45.239696151248168
31
0
0
ARC
5
200
100
AcDbEntity
8
0
100
AcDbCircle
10
-62.634949309871857
20
42.1768061152505
30
0
40
3.8556639425021597
210
0
220
0
230
1
100
AcDbArc
50
-2.28146893159649
51
52.597412245916239
0
LINE
5
201
100
AcDbEntity
8
0
100
AcDbLine
10
-57.827710316048197
20
35.128410514109028
30
0
11
-58.955996723179432
21
35.128410514109021
31
0
0
LINE
5
202
100
AcDbEntity
8
0
100
AcDbLine
10
-58.955996723179432
20
35.128410514109021
30
0
11
-64.108404113005278
21
37.518941870649833
31
0
0
LINE
5
203
100
AcDbEntity
8
0
100
AcDbLine
10
-64.108404113005278
20
37.518941870649833
30
0
11
-64.132914436410843
21
42.023317443577454
31
0
0
LINE
5
204
100
AcDbEntity
8
0
100
AcDbLine
10
-64.132914436410843
20
38.806938735906741
30
0
11
-60.292973847810501
21
38.806938735906733
31
0
0
ARC
5
205
100
AcDbEntity
8
0
100
AcDbCircle
10
-62.634949309871857
20
41.869828771904409
30
0
40
3.8556639425021615
210
0
220
0
230
1
100
AcDbArc
50
-52.597412245916303
51
2.2814689315964776
0
LINE
5
206
100
AcDbEntity
8
0
100
AcDbLine
10
-97.432534015872534
20
12.555688179927619
30
0
11
-97.432534015872534
21
-7.3052501075281207
31
0
6
DASHED
0
LINE
5
207
100
AcDbEntity
8
0
100
AcDbLine
10
-77.724052842735972
20
-7.3052501075281207
30
0
11
-97.432534015872534
21
-7.3052501075281207
31
0
6
DASHED
0
LINE
5
208
100
AcDbEntity
8
0
100
AcDbLine
10
-77.724052842735972
20
-7.3052501075281207
30
0
11
-77.724052842735972
21
12.555688179927621
31
0
6
DASHED
0
LINE
5
209
100
AcDbEntity
8
0
100
AcDbLine
10
-97.432534015872534
20
12.555688179927619
30
0
11
-77.724052842735972
21
12.555688179927621
31
0
6
DASHED
0
LINE
5
210
100
AcDbEntity
8
0
100
AcDbLine
10
-77.724052842735972
20
12.555688179927621
30
0
11
9.8615890261959596
21
12.555688179927621
31
0
6
DASHED
0
LINE
5
211
100
AcDbEntity
8
0
100
AcDbLine
10
9.6950068982752526
20
-7.3052501075281207
30
0
11
-77.724052842735972
21
-7.3052501075281207
31
0
6
DASHED
0
LINE
5
212
100
AcDbEntity
8
0
100
AcDbLine
10
-77.724052842735958
20
31.911849104209537
30
0
11
20.325090192472981
21
31.911849104209537
31
0
6
DASHED
0
LINE
5
213
100
AcDbEntity
8
0
100
AcDbLine
10
-77.724052842735972
20
-26.652537489630163
30
0
11
19.590258094674887
21
-26.652537489629786
31
0
6
DASHED
0
LINE
5
214
100
AcDbEntity
8
0
100
AcDbLine
10
-31.029142601006203
20
52.019892962513836
30
0
11
-50.317940183927483
21
52.019892962513836
31
0
6
DASHED
0
LINE
5
215
100
AcDbEntity
8
0
100
AcDbLine
10
-14.236843677268208
20
52.019892962513822
30
0
11
5.5308992293348949
21
52.019892962513822
31
0
6
DASHED
0
LINE
5
216
100
AcDbEntity
8
0
100
AcDbLine
10
-14.087855743600779
20
31.911849104209537
30
0
11
5.595525738109739
21
31.911849104209537
31
0
0
LINE
5
217
100
AcDbEntity
8
0
100
AcDbLine
10
-4.0058660663680268
20
31.911849104209537
30
0
11
-4.0058660663680268
21
38.06646308725275
31
0
0
LINE
5
218
100
AcDbEntity
8
0
100
AcDbLine
10
-14.136145693416768
20
-26.652537489629971
30
0
11
5.1640290552277879
21
-26.652537489629843
31
0
0
LINE
5
219
100
AcDbEntity
8
0
100
AcDbLine
10
-4.4860583190944903
20
-26.652537489629911
30
0
11
-4.4860583190944903
21
-31.758948614195297
31
0
0
LINE
5
220
100
AcDbEntity
8
0
100
AcDbLine
10
-14.722482878178742
20
-65.684150005752585
30
0
11
5.5899342845952855
21
-65.684150005752613
31
0
6
DASHED
0
LINE
5
221
100
AcDbEntity
8
0
100
AcDbLine
10
29.618230841888735
20
-75.492739233500785
30
0
11
49.48284904027134
21
-75.492739233500785
31
0
6
DASHED
0
LINE
5
222
100
AcDbEntity
8
0
100
AcDbLine
10
75.69798140268918
20
-75.492739233500586
30
0
11
95.498916134813896
21
-75.492739233500785
31
0
6
DASHED
0
LINE
5
223
100
AcDbEntity
8
0
100
AcDbLine
10
108.00000160932541
20
-36.000000536441803
30
0
11
19.590258094674923
21
-36.000000536442151
31
0
6
DASHED
0
LINE
5
224
100
AcDbEntity
8
0
100
AcDbLine
10
108.00000160932535
20
-17.00000025331974
30
0
11
127.69862560421655
21
-17.000000253319715
31
0
6
DASHED
0
LINE
5
225
100
AcDbEntity
8
0
100
AcDbLine
10
108.00000160932535
20
-17.00000025331974
30
0
11
19.590258094674848
21
-16.962491593238298
31
0
6
DASHED
0
LINE
5
226
100
AcDbEntity
8
0
100
AcDbLine
10
108.14085570755607
20
22.389678891736441
30
0
11
127.69862560421652
21
22.389678891736473
31
0
6
DASHED
0
LINE
5
227
100
AcDbEntity
8
0
100
AcDbLine
10
20.325090192472981
20
22.389678891736441
30
0
11
108.14085570755607
21
22.389678891736441
31
0
6
DASHED
0
LINE
5
228
100
AcDbEntity
8
0
100
AcDbLine
10
108.14085570755607
20
22.389678891736441
30
0
11
108.00000160932535
21
-17.00000025331974
31
0
6
DASHED
0
LINE
5
229
100
AcDbEntity
8
0
100
AcDbLine
10
20.325090192472981
20
42.259136006975638
30
0
11
108.14085570755606
21
42.259136006975744
31
0
6
DASHED
0
LINE
5
230
100
AcDbEntity
8
0
100
AcDbLine
10
30.417106659695374
20
42.259136006975694
30
0
11
49.810271123975355
21
42.259136006975673
31
0
0
LINE
5
231
100
AcDbEntity
8
0
100
AcDbLine
10
40.113688891835366
20
42.25913600697568
30
0
11
40.113688891835366
21
48.365457829881002
31
0
0
CIRCLE
5
232
100
AcDbEntity
8
0
100
AcDbCircle
10
-40.57736275381292
20
-35.799390053066475
30
0
40
4.4000000000000021
210
0
220
0
230
1
0
CIRCLE
5
233
100
AcDbEntity
8
0
100
AcDbCircle
10
-40.407267138168478
20
42.023317443577454
30
0
40
4.3999999999999995
210
0
220
0
230
1
0
CIRCLE
5
234
100
AcDbEntity
8
0
100
AcDbCircle
10
85.26580056311326
20
-55.464459517405686
30
0
40
4.399999999999995
210
0
220
0
230
1
0
CIRCLE
5
235
100
AcDbEntity
8
0
100
AcDbCircle
10
85.671153465806981
20
61.469501028244558
30
0
40
4.399999999999995
210
0
220
0
230
1
0
ENDSEC
0
SECTION
2
OBJECTS
0
DICTIONARY
5
C
100
AcDbDictionary
3
ACAD_GROUP
350
D
3
ACAD_MLINESTYLE
350
17
0
DICTIONARY
5
D
100
AcDbDictionary
0
DICTIONARY
5
1A
330
C
100
AcDbDictionary
0
DICTIONARY
5
17
100
AcDbDictionary
0
ENDSEC
0
EOF
