0
SECTION
2
HEADER
9
$INSUNITS
70
4
9
$ACADVER
1
AC1014
9
$HANDSEED
5
FFFF
0
ENDSEC
0
SECTION
2
TABLES
0
TABLE
2
VPORT
5
8
100
AcDbSymbolTable
0
ENDTAB
0
TABLE
2
LTYPE
5
5
100
AcDbSymbolTable
0
LTYPE
5
14
100
AcDbSymbolTableRecord
100
AcDbLinetypeTableRecord
2
BYBLOCK
70
0
0
LTYPE
5
15
100
AcDbSymbolTableRecord
100
AcDbLinetypeTableRecord
2
BYLAYER
70
0
0
LTYPE
5
16
100
AcDbSymbolTableRecord
100
AcDbLinetypeTableRecord
2
DASHED
70
0
3
Dashed __ __ __ __ __ __ __ __ __ __ __ __ __ _
72
65
73
2
40
0.75
49
0.5
74
0
49
-0.25
74
0
0
ENDTAB
0
TABLE
2
LAYER
5
2
100
AcDbSymbolTable
70
2
0
LAYER
5
50
100
AcDbSymbolTableRecord
100
AcDbLayerTableRecord
2
0
70
0
62
7
6
CONTINUOUS
0
ENDTAB
0
TABLE
2
STYLE
5
3
100
AcDbSymbolTable
70
1
0
STYLE
5
11
100
AcDbSymbolTableRecord
100
AcDbTextStyleTableRecord
2
STANDARD
70
0
0
ENDTAB
0
TABLE
2
VIEW
5
6
100
AcDbSymbolTable
70
0
0
ENDTAB
0
TABLE
2
UCS
5
7
100
AcDbSymbolTable
70
0
0
ENDTAB
0
TABLE
2
APPID
5
9
100
AcDbSymbolTable
70
2
0
APPID
5
12
100
AcDbSymbolTableRecord
100
AcDbRegAppTableRecord
2
ACAD
70
0
0
ENDTAB
0
TABLE
2
DIMSTYLE
5
A
100
AcDbSymbolTable
70
1
0
ENDTAB
0
TABLE
2
BLOCK_RECORD
5
1
100
AcDbSymbolTable
70
1
0
BLOCK_RECORD
5
1F
100
AcDbSymbolTableRecord
100
AcDbBlockTableRecord
2
*MODEL_SPACE
0
BLOCK_RECORD
5
1B
100
AcDbSymbolTableRecord
100
AcDbBlockTableRecord
2
*PAPER_SPACE
0
ENDTAB
0
ENDSEC
0
SECTION
2
BLOCKS
0
BLOCK
5
20
100
AcDbEntity
100
AcDbBlockBegin
2
*MODEL_SPACE
0
ENDBLK
5
21
100
AcDbEntity
100
AcDbBlockEnd
0
BLOCK
5
1C
100
AcDbEntity
100
AcDbBlockBegin
2
*PAPER_SPACE
0
ENDBLK
5
1D
100
AcDbEntity
100
AcDbBlockEnd
0
ENDSEC
0
SECTION
2
ENTITIES
0
LINE
5
100
100
AcDbEntity
8
0
100
AcDbLine
10
-50.317940183927483
20
52.019892962513836
30
0
11
-77.724052842735972
21
52.019892962513836
31
0
0
LINE
5
101
100
AcDbEntity
8
0
100
AcDbLine
10
-77.724052842735972
20
52.019892962513836
30
0
11
-77.724052842735944
21
51.268010028491446
31
0
0
LINE
5
102
100
AcDbEntity
8
0
100
AcDbLine
10
-82.724052842735944
20
56.268010028491453
30
0
11
-92.432534015872506
21
56.268010028491453
31
0
0
LINE
5
103
100
AcDbEntity
8
0
100
AcDbLine
10
-97.43253401587252
20
51.268010028491446
30
0
11
-97.432534015872534
21
12.555688179927619
31
0
0
LINE
5
104
100
AcDbEntity
8
0
100
AcDbLine
10
-97.432534015872534
20
12.555688179927619
30
0
11
-121.32585133427369
21
12.555688179927619
31
0
0
LINE
5
105
100
AcDbEntity
8
0
100
AcDbLine
10
-126.32585133427369
20
7.5556881799276105
30
0
11
-126.32585133427369
21
-2.0525447123609677
31
0
0
ARC
5
106
100
AcDbEntity
8
0
100
AcDbCircle
10
-121.32585133427369
20
7.5556881799276105
30
0
40
5.0000000000000089
210
0
220
-0
230
1
100
AcDbArc
50
90
51
180
0
ARC
5
107
100
AcDbEntity
8
0
100
AcDbCircle
10
-92.432534015872506
20
51.268010028491446
30
0
40
5.0000000000000089
210
0
220
-0
230
1
100
AcDbArc
50
90
51
180
0
ARC
5
108
100
AcDbEntity
8
0
100
AcDbCircle
10
-82.724052842735958
20
51.268010028491446
30
0
40
5.0000000000000089
210
0
220
0
230
1
100
AcDbArc
50
0
51
89.999999999999844
0
LINE
5
109
100
AcDbEntity
8
0
100
AcDbLine
10
-50.317940183927483
20
52.019892962513836
30
0
11
-50.317940183927483
21
56.804799431842994
31
0
0
LINE
5
110
100
AcDbEntity
8
0
100
AcDbLine
10
-40.317940183927483
20
66.80479943184298
30
0
11
-41.029142601006193
21
66.80479943184298
31
0
0
LINE
5
111
100
AcDbEntity
8
0
100
AcDbLine
10
-31.029142601006203
20
56.804799431843009
30
0
11
-31.029142601006203
21
52.019892962513836
31
0
0
ARC
5
112
100
AcDbEntity
8
0
100
AcDbCircle
10
-40.317940183927504
20
56.804799431843009
30
0
40
9.9999999999999822
210
0
220
-0
230
1
100
AcDbArc
50
89.999999999999872
51
180
0
ARC
5
113
100
AcDbEntity
8
0
100
AcDbCircle
10
-41.029142601006185
20
56.804799431843009
30
0
40
9.9999999999999822
210
0
220
-0
230
1
100
AcDbArc
50
0
51
90.000000000000043
0
LINE
5
114
100
AcDbEntity
8
0
100
AcDbLine
10
-31.029142601006203
20
52.019892962513836
30
0
11
-14.236843677268208
21
52.019892962513822
31
0
0
LINE
5
115
100
AcDbEntity
8
0
100
AcDbLine
10
-14.236843677268208
20
52.019892962513822
30
0
11
-14.236843677268213
21
56.856367486100858
31
0
0
LINE
5
116
100
AcDbEntity
8
0
100
AcDbLine
10
-4.2368436772682205
20
66.856367486100865
30
0
11
-4.4691007706651087
21
66.856367486100865
31
0
0
LINE
5
117
100
AcDbEntity
8
0
100
AcDbLine
10
5.5308992293348975
20
56.856367486100865
30
0
11
5.5308992293348949
21
52.019892962513822
31
0
0
LINE
5
118
100
AcDbEntity
8
0
100
AcDbLine
10
5.5308992293348949
20
52.019892962513822
30
0
11
20.325090192472981
21
52.019892962513829
31
0
0
LINE
5
119
100
AcDbEntity
8
0
100
AcDbLine
10
20.325090192472981
20
52.019892962513829
30
0
11
20.325090192472981
21
22.389678891736441
31
0
0
LINE
5
120
100
AcDbEntity
8
0
100
AcDbLine
10
20.325090192472981
20
22.389678891736441
30
0
11
9.8615890261959596
21
12.555688179927621
31
0
0
ARC
5
121
100
AcDbEntity
8
0
100
AcDbCircle
10
-4.2368436772682116
20
56.856367486100865
30
0
40
10
210
0
220
0
230
1
100
AcDbArc
50
90.000000000000057
51
180
0
ARC
5
122
100
AcDbEntity
8
0
100
AcDbCircle
10
-4.4691007706650918
20
56.856367486100872
30
0
40
9.9999999999999893
210
-0
220
0
230
1
100
AcDbArc
50
0
51
90.000000000000099
0
LINE
5
123
100
AcDbEntity
8
0
100
AcDbLine
10
20.325090192472981
20
52.019892962513829
30
0
11
8.8960853887465081
21
52.019892962513822
31
0
0
LINE
5
124
100
AcDbEntity
8
0
100
AcDbLine
10
5.8960853887465134
20
55.019892962513815
30
0
11
5.8960853887465037
21
66.135812245176311
31
0
0
LINE
5
125
100
AcDbEntity
8
0
100
AcDbLine
10
10.896085388746499
20
71.135812245176311
30
0
11
19.815819351923352
21
71.135812245176311
31
0
0
LINE
5
126
100
AcDbEntity
8
0
100
AcDbLine
10
19.815819351923352
20
71.135812245176311
30
0
11
19.815819351923324
21
81.684980455284304
31
0
0
LINE
5
127
100
AcDbEntity
8
0
100
AcDbLine
10
19.815819351923324
20
81.684980455284304
30
0
11
108.14044718772733
21
81.684980455284403
31
0
0
LINE
5
128
100
AcDbEntity
8
0
100
AcDbLine
10
108.14044718772733
20
81.684980455284403
30
0
11
108.1404471877274
21
22.388494996363647
31
0
0
ARC
5
129
100
AcDbEntity
8
0
100
AcDbCircle
10
10.896085388746501
20
66.135812245176297
30
0
40
5.0000000000000089
210
0
220
0
230
1
100
AcDbArc
50
90.000000000000014
51
180
0
ARC
5
130
100
AcDbEntity
8
0
100
AcDbCircle
10
8.8960853887464939
20
55.019892962513801
30
0
40
2.9999999999999805
210
0
220
0
230
1
100
AcDbArc
50
180
51
270.00000000000023
0
LINE
5
131
100
AcDbEntity
8
0
100
AcDbLine
10
108.14044718772736
20
52.036737725823969
30
0
11
108.14071793606914
21
51.878140604675139
31
0
0
LINE
5
132
100
AcDbEntity
8
0
100
AcDbLine
10
113.14071065022242
20
56.886676319110023
30
0
11
122.69862560421805
21
56.886676319110023
31
0
0
LINE
5
133
100
AcDbEntity
8
0
100
AcDbLine
10
127.69862560421646
20
51.886676319111601
30
0
11
127.69862560421657
21
-45.811286945178573
31
0
0
ARC
5
134
100
AcDbEntity
8
0
100
AcDbCircle
10
122.69862560421805
20
51.886676319111601
30
0
40
4.999999999998419
210
0
220
-0
230
1
100
AcDbArc
50
0
51
90
0
LINE
5
135
100
AcDbEntity
8
0
100
AcDbLine
10
122.69862560421657
20
-50.811286945178587
30
0
11
113.14044718772742
21
-50.811286945178594
31
0
0
LINE
5
136
100
AcDbEntity
8
0
100
AcDbLine
10
108.14044718772742
20
-45.811286945178608
30
0
11
108.1404471877274
21
-17.000000253319769
31
0
0
ARC
5
137
100
AcDbEntity
8
0
100
AcDbCircle
10
113.14044718772742
20
-45.811286945178594
30
0
40
5
210
0
220
0
230
1
100
AcDbArc
50
180
51
270
0
LINE
5
138
100
AcDbEntity
8
0
100
AcDbLine
10
108.14044718772742
20
-45.811286945178608
30
0
11
108.14044718772742
21
-75.4927392335007
31
0
0
LINE
5
139
100
AcDbEntity
8
0
100
AcDbLine
10
108.14044718772742
20
-75.4927392335007
30
0
11
108.22482756923007
21
-75.492739233500785
31
0
0
LINE
5
140
100
AcDbEntity
8
0
100
AcDbLine
10
108.22482756923007
20
-75.492739233500785
30
0
11
95.498916134813896
21
-75.492739233500785
31
0
0
LINE
5
141
100
AcDbEntity
8
0
100
AcDbLine
10
95.498916134813896
20
-75.492739233500785
30
0
11
95.498916134813896
21
-80.000001341104507
31
0
0
LINE
5
142
100
AcDbEntity
8
0
100
AcDbLine
10
85.498916134813911
20
-90.000001341104522
30
0
11
85.697981402689209
21
-90.000001341104522
31
0
0
LINE
5
143
100
AcDbEntity
8
0
100
AcDbLine
10
75.69798140268918
20
-80.000001341104507
30
0
11
75.69798140268918
21
-75.492739233500586
31
0
0
LINE
5
144
100
AcDbEntity
8
0
100
AcDbLine
10
75.69798140268918
20
-75.492739233500586
30
0
11
49.48284904027134
21
-75.492739233500785
31
0
0
LINE
5
145
100
AcDbEntity
8
0
100
AcDbLine
10
49.48284904027134
20
-75.492739233500785
30
0
11
49.48284904027134
21
-79.596917149002195
31
0
0
LINE
5
146
100
AcDbEntity
8
0
100
AcDbLine
10
39.482849040271326
20
-89.596917149002195
30
0
11
39.618230841888746
21
-89.596917149002223
31
0
0
LINE
5
147
100
AcDbEntity
8
0
100
AcDbLine
10
29.618230841888735
20
-79.596917149002223
30
0
11
29.618230841888735
21
-75.492739233500785
31
0
0
LINE
5
148
100
AcDbEntity
8
0
100
AcDbLine
10
29.618230841888735
20
-75.492739233500785
30
0
11
19.327241471307424
21
-75.492739233500785
31
0
0
LINE
5
149
100
AcDbEntity
8
0
100
AcDbLine
10
19.327241471307424
20
-75.492739233500785
30
0
11
19.327241471307424
21
-65.684150005752613
31
0
0
LINE
5
150
100
AcDbEntity
8
0
100
AcDbLine
10
19.327241471307424
20
-65.684150005752613
30
0
11
5.5899342845952855
21
-65.684150005752613
31
0
0
LINE
5
151
100
AcDbEntity
8
0
100
AcDbLine
10
5.5899342845952855
20
-65.684150005752613
30
0
11
5.5899342845952944
21
-70.339622018672372
31
0
0
LINE
5
152
100
AcDbEntity
8
0
100
AcDbLine
10
-4.4100657154046772
20
-80.339622018672372
30
0
11
-4.7224828781787203
21
-80.339622018672372
31
0
0
LINE
5
153
100
AcDbEntity
8
0
100
AcDbLine
10
-14.722482878178731
20
-70.339622018672372
30
0
11
-14.722482878178742
21
-65.684150005752585
31
0
0
LINE
5
154
100
AcDbEntity
8
0
100
AcDbLine
10
-14.722482878178742
20
-65.684150005752585
30
0
11
-24.210394394828832
21
-65.684150005752599
31
0
0
LINE
5
155
100
AcDbEntity
8
0
100
AcDbLine
10
-29.210394394828846
20
-60.684150005752606
30
0
11
-29.210394394828864
21
-51.011987583582169
31
0
0
LINE
5
156
100
AcDbEntity
8
0
100
AcDbLine
10
-24.210394394828864
20
-46.011987583582183
30
0
11
19.590258094674962
21
-46.011987583582048
31
0
0
LINE
5
157
100
AcDbEntity
8
0
100
AcDbLine
10
19.590258094674962
20
-46.011987583582048
30
0
11
19.590258094674848
21
-16.962491593238298
31
0
0
LINE
5
158
100
AcDbEntity
8
0
100
AcDbLine
10
19.590258094674848
20
-16.962491593238298
30
0
11
9.7759471572638912
21
-7.3052501075281304
31
0
0
ARC
5
159
100
AcDbEntity
8
0
100
AcDbCircle
10
-4.4100657154046967
20
-70.339622018672372
30
0
40
9.9999999999999911
210
0
220
0
230
1
100
AcDbArc
50
-89.999999999999901
51
0
0
ARC
5
160
100
AcDbEntity
8
0
100
AcDbCircle
10
-4.7224828781787389
20
-70.339622018672372
30
0
40
9.9999999999999929
210
0
220
0
230
1
100
AcDbArc
50
180
51
270.00000000000011
0
ARC
5
161
100
AcDbEntity
8
0
100
AcDbCircle
10
39.618230841888732
20
-79.596917149002209
30
0
40
9.9999999999999964
210
0
220
0
230
1
100
AcDbArc
50
180
51
270.00000000000011
0
ARC
5
162
100
AcDbEntity
8
0
100
AcDbCircle
10
39.482849040271304
20
-79.596917149002167
30
0
40
10.000000000000036
210
-0
220
0
230
1
100
AcDbArc
50
270.00000000000011
51
360
0
ARC
5
163
100
AcDbEntity
8
0
100
AcDbCircle
10
85.69798140268918
20
-80.000001341104522
30
0
40
10
210
0
220
0
230
1
100
AcDbArc
50
180
51
270.00000000000017
0
ARC
5
164
100
AcDbEntity
8
0
100
AcDbCircle
10
85.498916134813868
20
-80.000001341104507
30
0
40
10.000000000000018
210
-0
220
0
230
1
100
AcDbArc
50
-89.999999999999744
51
0
0
ARC
5
165
100
AcDbEntity
8
0
100
AcDbCircle
10
122.69862560421655
20
-45.811286945178551
30
0
40
5.0000000000000355
210
-0
220
0
230
1
100
AcDbArc
50
270.00000000000034
51
360
0
ARC
5
166
100
AcDbEntity
8
0
100
AcDbCircle
10
113.14071065022242
20
51.886676319109341
30
0
40
5.0000000000006839
210
0
220
-0
230
1
100
AcDbArc
50
90
51
180.09781212994864
0
ARC
5
167
100
AcDbEntity
8
0
100
AcDbCircle
10
-24.210394394828846
20
-60.684150005752606
30
0
40
5
210
0
220
0
230
1
100
AcDbArc
50
180
51
270.00000000000017
0
ARC
5
168
100
AcDbEntity
8
0
100
AcDbCircle
10
-24.210394394828874
20
-51.011987583582169
30
0
40
4.9999999999999911
210
0
220
-0
230
1
100
AcDbArc
50
89.999999999999872
51
180
0
LINE
5
169
100
AcDbEntity
8
0
100
AcDbLine
10
-24.210394394828864
20
-46.011987583582183
30
0
11
-77.723982864772253
21
-46.011987583582339
31
0
0
LINE
5
170
100
AcDbEntity
8
0
100
AcDbLine
10
-77.723982864772253
20
-46.011987583582339
30
0
11
-77.724052842735972
21
-45.999824871732208
31
0
0
LINE
5
171
100
AcDbEntity
8
0
100
AcDbLine
10
-82.901543280371811
20
-51.000000759959235
30
0
11
-92.432534015872378
21
-51.000000759959278
31
0
0
LINE
5
172
100
AcDbEntity
8
0
100
AcDbLine
10
-97.432534015872392
20
-46.000000759959292
30
0
11
-97.432534015872534
21
-7.3052501075281207
31
0
0
LINE
5
173
100
AcDbEntity
8
0
100
AcDbLine
10
-97.432534015872534
20
-7.3052501075281207
30
0
11
-121.37867202050347
21
-7.0522657020869106
31
0
0
ARC
5
174
100
AcDbEntity
8
0
100
AcDbCircle
10
-121.32585133427369
20
-2.0525447123609619
30
0
40
5
210
0
220
0
230
1
100
AcDbArc
50
180
51
269.39470826272697
0
ARC
5
175
100
AcDbEntity
8
0
100
AcDbCircle
10
-92.432534015872392
20
-46.000000759959278
30
0
40
5
210
0
220
0
230
1
100
AcDbArc
50
180
51
270.00000000000017
0
ARC
5
176
100
AcDbEntity
8
0
100
AcDbCircle
10
-82.901543280371811
20
-45.819366387976402
30
0
40
5.1806343719828352
210
-0
220
0
230
1
100
AcDbArc
50
270
51
358.00379628894154
0
LINE
5
177
100
AcDbEntity
8
0
100
AcDbLine
10
-62.880643056383825
20
-35.799390053066475
30
0
11
-52.500000782310963
21
-35.799390053066475
31
0
0
LINE
5
178
100
AcDbEntity
8
0
100
AcDbLine
10
-58.000000864267349
20
-31.000000461935997
30
0
11
-58.000000864267349
21
-41.196776984785458
31
0
0
CIRCLE
5
179
100
AcDbEntity
8
0
100
AcDbCircle
10
-40.57736275381292
20
-19.04695483010914
30
0
40
2.8500000000000005
210
0
220
0
230
1
0
CIRCLE
5
180
100
AcDbEntity
8
0
100
AcDbCircle
10
-90.029844051467421
20
-43.731416262384705
30
0
40
2.8500000000000005
210
0
220
0
230
1
0
CIRCLE
5
181
100
AcDbEntity
8
0
100
AcDbCircle
10
-89.740105350417565
20
49.992989924690519
30
0
40
2.8500000000000005
210
0
220
0
230
1
0
CIRCLE
5
182
100
AcDbEntity
8
0
100
AcDbCircle
10
-40.407267138168478
20
24.95442003137487
30
0
40
2.8500000000000005
210
0
220
0
230
1
0
CIRCLE
5
183
100
AcDbEntity
8
0
100
AcDbCircle
10
-40.310211014767006
20
59.757617730322124
30
0
40
2.8500000000000005
210
0
220
0
230
1
0
CIRCLE
5
184
100
AcDbEntity
8
0
100
AcDbCircle
10
84.857965919442861
20
-83.021640085231041
30
0
40
2.8500000000000005
210
0
220
0
230
1
0
CIRCLE
5
185
100
AcDbEntity
8
0
100
AcDbCircle
10
85.26580056311326
20
-28.738014782059373
30
0
40
2.8500000000000005
210
0
220
0
230
1
0
CIRCLE
5
186
100
AcDbEntity
8
0
100
AcDbCircle
10
120.22633362566702
20
-39.603034560615441
30
0
40
2.8500000000000005
210
0
220
0
230
1
0
CIRCLE
5
187
100
AcDbEntity
8
0
100
AcDbCircle
10
112.07751223133536
20
2.9174607850004142
30
0
40
2.8500000000000005
210
0
220
0
230
1
0
CIRCLE
5
188
100
AcDbEntity
8
0
100
AcDbCircle
10
120.34835774037552
20
45.043511714644154
30
0
40
2.8500000000000005
210
0
220
0
230
1
0
CIRCLE
5
189
100
AcDbEntity
8
0
100
AcDbCircle
10
85.48586064379819
20
34.74369861257081
30
0
40
2.8500000000000005
210
0
220
0
230
1
0
LINE
5
190
100
AcDbEntity
8
0
100
AcDbLine
10
-77.724052842735972
20
-45.999824871732208
30
0
11
-77.724052842735972
21
-7.3052501075281207
31
0
0
LINE
5
191
100
AcDbEntity
8
0
100
AcDbLine
10
-77.724052842735944
20
51.268010028491446
30
0
11
-77.724052842735972
21
12.555688179927621
31
0
0
LINE
5
192
100
AcDbEntity
8
0
100
AcDbLine
10
-116.39999739825726
20
8.0839122350553598
30
0
11
-108.99718570214567
21
8.0839122350553598
31
0
0
ARC
5
193
100
AcDbEntity
8
0
100
AcDbCircle
10
-111.06519893947046
20
3.2794808040995953
30
0
40
5.2306060953302769
210
0
220
0
230
1
100
AcDbArc
50
0
51
66.711085070778765
0
LINE
5
194
100
AcDbEntity
8
0
100
AcDbLine
10
-116.39999739825726
20
-1.5249506268561708
30
0
11
-108.99718570214567
21
-1.5249506268561708
31
0
0
ARC
5
195
100
AcDbEntity
8
0
100
AcDbCircle
10
-111.06519893947046
20
3.2794808040995944
30
0
40
5.2306060953302769
210
0
220
0
230
1
100
AcDbArc
50
-66.711085070778751
51
0
0
LINE
5
196
100
AcDbEntity
8
0
100
AcDbLine
10
-58.328114526664478
20
48.95350258362204
30
0
11
-59.500000886619091
21
48.95350258362204
31
0
0
LINE
5
197
100
AcDbEntity
8
0
100
AcDbLine
10
-59.500000886619091
20
48.95350258362204
30
0
11
-64.132914436410843
21
47.236713573452825
31
0
0
LINE
5
198
100
AcDbEntity
8
0
100
AcDbLine
10
-64.132914436410843
20
47.236713573452825
30
0
11
-64.132914436410843
21
42.023317443577454
31
0
0
LINE
5
199
100
AcDbEntity
8
0
100
AcDbLine
10
-64.132914436410843
20
45.239696151248161
30
0
11
-60.292973847810501
21
45.239696151248168
31
0
0
ARC
5
200
100
AcDbEntity
8
0
100
AcDbCircle
10
-62.634949309871857
20
42.1768061152505
30
0
40
3.8556639425021597
210
0
220
0
230
1
100
AcDbArc
50
-2.28146893159649
51
52.597412245916239
0
LINE
5
201
100
AcDbEntity
8
0
100
AcDbLine
10
-57.827710316048197
20
35.128410514109028
30
0
11
-58.955996723179432
21
35.128410514109021
31
0
0
LINE
5
202
100
AcDbEntity
8
0
100
AcDbLine
10
-58.955996723179432
20
35.128410514109021
30
0
11
-64.108404113005278
21
37.518941870649833
31
0
0
LINE
5
203
100
AcDbEntity
8
0
100
AcDbLine
10
-64.108404113005278
20
37.518941870649833
30
0
11
-64.132914436410843
21
42.023317443577454
31
0
0
LINE
5
204
100
AcDbEntity
8
0
100
AcDbLine
10
-64.132914436410843
20
38.806938735906741
30
0
11
-60.292973847810501
21
38.806938735906733
31
0
0
ARC
5
205
100
AcDbEntity
8
0
100
AcDbCircle
10
-62.634949309871857
20
41.869828771904409
30
0
40
3.8556639425021615
210
0
220
0
230
1
100
AcDbArc
50
-52.597412245916303
51
2.2814689315964776
0
LINE
5
206
100
AcDbEntity
8
0
100
AcDbLine
10
-14.087855743600779
20
31.911849104209537
30
0
11
5.6890901924729542
21
31.911849104209548
31
0
0
LINE
5
207
100
AcDbEntity
8
0
100
AcDbLine
10
-4.0058660663680268
20
31.911849104209537
30
0
11
-4.0058660663680268
21
38.06646308725275
31
0
0
LINE
5
208
100
AcDbEntity
8
0
100
AcDbLine
10
-14.136145693416768
20
-26.652537489629971
30
0
11
5.1640290552277879
21
-26.652537489629843
31
0
0
LINE
5
209
100
AcDbEntity
8
0
100
AcDbLine
10
-4.4860583190944903
20
-26.652537489629911
30
0
11
-4.4860583190944903
21
-31.758948614195297
31
0
0
LINE
5
210
100
AcDbEntity
8
0
100
AcDbLine
10
30.417106659695374
20
42.259136006975694
30
0
11
49.810271123975355
21
42.259136006975673
31
0
0
LINE
5
211
100
AcDbEntity
8
0
100
AcDbLine
10
40.113688891835366
20
42.25913600697568
30
0
11
40.113688891835366
21
48.365457829881002
31
0
0
CIRCLE
5
212
100
AcDbEntity
8
0
100
AcDbCircle
10
-40.57736275381292
20
-35.599390053066472
30
0
40
4.4000000000000021
210
0
220
0
230
1
0
CIRCLE
5
213
100
AcDbEntity
8
0
100
AcDbCircle
10
-40.407267138168478
20
42.523317443577454
30
0
40
4.3999999999999995
210
0
220
0
230
1
0
CIRCLE
5
214
100
AcDbEntity
8
0
100
AcDbCircle
10
85.415800563113265
20
-55.164459517405682
30
0
40
4.399999999999995
210
0
220
0
230
1
0
CIRCLE
5
215
100
AcDbEntity
8
0
100
AcDbCircle
10
86.171153465806981
20
62.269501028244562
30
0
40
4.399999999999995
210
0
220
0
230
1
0
LINE
5
216
100
AcDbEntity
8
0
100
AcDbLine
10
-77.724052842735958
20
31.911849104209537
30
0
11
-75.224052842735958
21
31.911849104209537
31
0
0
LINE
5
217
100
AcDbEntity
8
0
100
AcDbLine
10
-74.224052842735958
20
31.911849104209537
30
0
11
-71.724052842735958
21
31.911849104209537
31
0
0
LINE
5
218
100
AcDbEntity
8
0
100
AcDbLine
10
-70.724052842735972
20
31.911849104209537
30
0
11
-68.224052842735972
21
31.911849104209537
31
0
0
LINE
5
219
100
AcDbEntity
8
0
100
AcDbLine
10
-77.724052842735958
20
31.911849104209537
30
0
11
-75.224052842735958
21
31.911849104209537
31
0
0
LINE
5
220
100
AcDbEntity
8
0
100
AcDbLine
10
-74.224052842735958
20
31.911849104209537
30
0
11
-71.724052842735958
21
31.911849104209537
31
0
0
LINE
5
221
100
AcDbEntity
8
0
100
AcDbLine
10
-67.224052842735972
20
31.911849104209537
30
0
11
-64.724052842735972
21
31.911849104209537
31
0
0
LINE
5
222
100
AcDbEntity
8
0
100
AcDbLine
10
-63.724052842735972
20
31.911849104209537
30
0
11
-61.224052842735972
21
31.911849104209537
31
0
0
LINE
5
223
100
AcDbEntity
8
0
100
AcDbLine
10
-63.724052842735972
20
31.911849104209537
30
0
11
-61.224052842735972
21
31.911849104209537
31
0
0
LINE
5
224
100
AcDbEntity
8
0
100
AcDbLine
10
-67.224052842735972
20
31.911849104209537
30
0
11
-64.724052842735972
21
31.911849104209537
31
0
0
LINE
5
225
100
AcDbEntity
8
0
100
AcDbLine
10
-60.224052842735972
20
31.911849104209537
30
0
11
-57.724052842735972
21
31.911849104209537
31
0
0
LINE
5
226
100
AcDbEntity
8
0
100
AcDbLine
10
-42.724052842735993
20
31.911849104209537
30
0
11
-40.224052842735993
21
31.911849104209537
31
0
0
LINE
5
227
100
AcDbEntity
8
0
100
AcDbLine
10
-46.224052842735986
20
31.911849104209537
30
0
11
-43.724052842735986
21
31.911849104209537
31
0
0
LINE
5
228
100
AcDbEntity
8
0
100
AcDbLine
10
-56.724052842735979
20
31.911849104209537
30
0
11
-54.224052842735979
21
31.911849104209537
31
0
0
LINE
5
229
100
AcDbEntity
8
0
100
AcDbLine
10
-39.224052842736
20
31.911849104209537
30
0
11
-36.724052842736
21
31.911849104209537
31
0
0
LINE
5
230
100
AcDbEntity
8
0
100
AcDbLine
10
-46.224052842735986
20
31.911849104209537
30
0
11
-43.724052842735986
21
31.911849104209537
31
0
0
LINE
5
231
100
AcDbEntity
8
0
100
AcDbLine
10
-56.724052842735979
20
31.911849104209537
30
0
11
-54.224052842735979
21
31.911849104209537
31
0
0
LINE
5
232
100
AcDbEntity
8
0
100
AcDbLine
10
-49.724052842735986
20
31.911849104209537
30
0
11
-47.224052842735986
21
31.911849104209537
31
0
0
LINE
5
233
100
AcDbEntity
8
0
100
AcDbLine
10
-53.224052842735986
20
31.911849104209537
30
0
11
-50.724052842735986
21
31.911849104209537
31
0
0
LINE
5
234
100
AcDbEntity
8
0
100
AcDbLine
10
-53.224052842735986
20
31.911849104209537
30
0
11
-50.724052842735986
21
31.911849104209537
31
0
0
LINE
5
235
100
AcDbEntity
8
0
100
AcDbLine
10
-42.724052842735993
20
31.911849104209537
30
0
11
-40.224052842735993
21
31.911849104209537
31
0
0
LINE
5
236
100
AcDbEntity
8
0
100
AcDbLine
10
-46.224052842735986
20
31.911849104209537
30
0
11
-43.724052842735986
21
31.911849104209537
31
0
0
LINE
5
237
100
AcDbEntity
8
0
100
AcDbLine
10
-39.224052842736
20
31.911849104209537
30
0
11
-36.724052842736
21
31.911849104209537
31
0
0
LINE
5
238
100
AcDbEntity
8
0
100
AcDbLine
10
-42.724052842735993
20
31.911849104209537
30
0
11
-40.224052842735993
21
31.911849104209537
31
0
0
LINE
5
239
100
AcDbEntity
8
0
100
AcDbLine
10
-42.724052842735993
20
31.911849104209537
30
0
11
-40.224052842735993
21
31.911849104209537
31
0
0
LINE
5
240
100
AcDbEntity
8
0
100
AcDbLine
10
-53.224052842735986
20
31.911849104209537
30
0
11
-50.724052842735986
21
31.911849104209537
31
0
0
LINE
5
241
100
AcDbEntity
8
0
100
AcDbLine
10
-77.724052842735958
20
31.911849104209537
30
0
11
-75.224052842735958
21
31.911849104209537
31
0
0
LINE
5
242
100
AcDbEntity
8
0
100
AcDbLine
10
-63.724052842735972
20
31.911849104209537
30
0
11
-61.224052842735972
21
31.911849104209537
31
0
0
LINE
5
243
100
AcDbEntity
8
0
100
AcDbLine
10
-60.224052842735972
20
31.911849104209537
30
0
11
-57.724052842735972
21
31.911849104209537
31
0
0
LINE
5
244
100
AcDbEntity
8
0
100
AcDbLine
10
-63.724052842735972
20
31.911849104209537
30
0
11
-61.224052842735972
21
31.911849104209537
31
0
0
LINE
5
245
100
AcDbEntity
8
0
100
AcDbLine
10
-70.724052842735972
20
31.911849104209537
30
0
11
-68.224052842735972
21
31.911849104209537
31
0
0
LINE
5
246
100
AcDbEntity
8
0
100
AcDbLine
10
-49.724052842735986
20
31.911849104209537
30
0
11
-47.224052842735986
21
31.911849104209537
31
0
0
LINE
5
247
100
AcDbEntity
8
0
100
AcDbLine
10
-46.224052842735986
20
31.911849104209537
30
0
11
-43.724052842735986
21
31.911849104209537
31
0
0
LINE
5
248
100
AcDbEntity
8
0
100
AcDbLine
10
-77.724052842735958
20
31.911849104209537
30
0
11
-75.224052842735958
21
31.911849104209537
31
0
0
LINE
5
249
100
AcDbEntity
8
0
100
AcDbLine
10
-74.224052842735958
20
31.911849104209537
30
0
11
-71.724052842735958
21
31.911849104209537
31
0
0
LINE
5
250
100
AcDbEntity
8
0
100
AcDbLine
10
-74.224052842735958
20
31.911849104209537
30
0
11
-71.724052842735958
21
31.911849104209537
31
0
0
LINE
5
251
100
AcDbEntity
8
0
100
AcDbLine
10
-56.724052842735979
20
31.911849104209537
30
0
11
-54.224052842735979
21
31.911849104209537
31
0
0
LINE
5
252
100
AcDbEntity
8
0
100
AcDbLine
10
-67.224052842735972
20
31.911849104209537
30
0
11
-64.724052842735972
21
31.911849104209537
31
0
0
LINE
5
253
100
AcDbEntity
8
0
100
AcDbLine
10
-56.724052842735979
20
31.911849104209537
30
0
11
-54.224052842735979
21
31.911849104209537
31
0
0
LINE
5
254
100
AcDbEntity
8
0
100
AcDbLine
10
-67.224052842735972
20
31.911849104209537
30
0
11
-64.724052842735972
21
31.911849104209537
31
0
0
LINE
5
255
100
AcDbEntity
8
0
100
AcDbLine
10
-53.224052842735986
20
31.911849104209537
30
0
11
-50.724052842735986
21
31.911849104209537
31
0
0
LINE
5
256
100
AcDbEntity
8
0
100
AcDbLine
10
-35.724052842736
20
31.911849104209537
30
0
11
-33.224052842736
21
31.911849104209537
31
0
0
LINE
5
257
100
AcDbEntity
8
0
100
AcDbLine
10
-32.224052842736
20
31.911849104209537
30
0
11
-29.724052842736
21
31.911849104209537
31
0
0
LINE
5
258
100
AcDbEntity
8
0
100
AcDbLine
10
-28.724052842736
20
31.911849104209537
30
0
11
-26.224052842736
21
31.911849104209537
31
0
0
LINE
5
259
100
AcDbEntity
8
0
100
AcDbLine
10
-25.224052842735997
20
31.911849104209537
30
0
11
-22.724052842735997
21
31.911849104209537
31
0
0
LINE
5
260
100
AcDbEntity
8
0
100
AcDbLine
10
-21.724052842735997
20
31.911849104209537
30
0
11
-19.224052842735997
21
31.911849104209537
31
0
0
LINE
5
261
100
AcDbEntity
8
0
100
AcDbLine
10
-18.224052842735997
20
31.911849104209537
30
0
11
-15.724052842735997
21
31.911849104209537
31
0
0
LINE
5
262
100
AcDbEntity
8
0
100
AcDbLine
10
7.3250901924729543
20
31.911849104209548
30
0
11
9.8250901924729543
21
31.911849104209548
31
0
0
LINE
5
263
100
AcDbEntity
8
0
100
AcDbLine
10
10.825090192472954
20
31.911849104209548
30
0
11
13.325090192472954
21
31.911849104209548
31
0
0
LINE
5
264
100
AcDbEntity
8
0
100
AcDbLine
10
14.325090192472956
20
31.911849104209548
30
0
11
16.825090192472956
21
31.911849104209548
31
0
0
LINE
5
265
100
AcDbEntity
8
0
100
AcDbLine
10
17.825090192472956
20
31.911849104209548
30
0
11
20.325090192472981
21
31.911849104209537
31
0
0
LINE
5
266
100
AcDbEntity
8
0
100
AcDbLine
10
-76.724052842735972
20
12.555688179927621
30
0
11
-74.224052842735972
21
12.555688179927621
31
0
0
LINE
5
267
100
AcDbEntity
8
0
100
AcDbLine
10
-73.224052842735986
20
12.555688179927621
30
0
11
-70.724052842735986
21
12.555688179927621
31
0
0
LINE
5
268
100
AcDbEntity
8
0
100
AcDbLine
10
-69.724052842736
20
12.555688179927621
30
0
11
-67.224052842736
21
12.555688179927621
31
0
0
LINE
5
269
100
AcDbEntity
8
0
100
AcDbLine
10
-76.724052842735972
20
12.555688179927621
30
0
11
-74.224052842735972
21
12.555688179927621
31
0
0
LINE
5
270
100
AcDbEntity
8
0
100
AcDbLine
10
-66.224052842736
20
12.555688179927621
30
0
11
-63.724052842736
21
12.555688179927621
31
0
0
LINE
5
271
100
AcDbEntity
8
0
100
AcDbLine
10
-62.724052842736
20
12.555688179927621
30
0
11
-60.224052842736
21
12.555688179927621
31
0
0
LINE
5
272
100
AcDbEntity
8
0
100
AcDbLine
10
-59.224052842736008
20
12.555688179927621
30
0
11
-56.724052842736008
21
12.555688179927621
31
0
0
LINE
5
273
100
AcDbEntity
8
0
100
AcDbLine
10
-55.724052842736008
20
12.555688179927621
30
0
11
-53.224052842736008
21
12.555688179927621
31
0
0
LINE
5
274
100
AcDbEntity
8
0
100
AcDbLine
10
-52.224052842736015
20
12.555688179927621
30
0
11
-49.724052842736015
21
12.555688179927621
31
0
0
LINE
5
275
100
AcDbEntity
8
0
100
AcDbLine
10
-48.724052842736015
20
12.555688179927621
30
0
11
-46.224052842736029
21
12.555688179927621
31
0
0
LINE
5
276
100
AcDbEntity
8
0
100
AcDbLine
10
-17.224052842736057
20
12.555688179927621
30
0
11
-14.724052842736057
21
12.555688179927621
31
0
0
LINE
5
277
100
AcDbEntity
8
0
100
AcDbLine
10
-13.724052842736061
20
12.555688179927621
30
0
11
-11.224052842736061
21
12.555688179927621
31
0
0
LINE
5
278
100
AcDbEntity
8
0
100
AcDbLine
10
-45.224052842736029
20
12.555688179927621
30
0
11
-42.724052842736029
21
12.555688179927621
31
0
0
LINE
5
279
100
AcDbEntity
8
0
100
AcDbLine
10
-41.724052842736029
20
12.555688179927621
30
0
11
-39.224052842736029
21
12.555688179927621
31
0
0
LINE
5
280
100
AcDbEntity
8
0
100
AcDbLine
10
-38.224052842736036
20
12.555688179927621
30
0
11
-35.724052842736036
21
12.555688179927621
31
0
0
LINE
5
281
100
AcDbEntity
8
0
100
AcDbLine
10
-34.724052842736043
20
12.555688179927621
30
0
11
-32.224052842736043
21
12.555688179927621
31
0
0
LINE
5
282
100
AcDbEntity
8
0
100
AcDbLine
10
-31.224052842736043
20
12.555688179927621
30
0
11
-28.724052842736043
21
12.555688179927621
31
0
0
LINE
5
283
100
AcDbEntity
8
0
100
AcDbLine
10
-27.724052842736047
20
12.555688179927621
30
0
11
-25.224052842736047
21
12.555688179927621
31
0
0
LINE
5
284
100
AcDbEntity
8
0
100
AcDbLine
10
-24.22405284273605
20
12.555688179927621
30
0
11
-21.72405284273605
21
12.555688179927621
31
0
0
LINE
5
285
100
AcDbEntity
8
0
100
AcDbLine
10
-20.724052842736054
20
12.555688179927621
30
0
11
-18.224052842736054
21
12.555688179927621
31
0
0
LINE
5
286
100
AcDbEntity
8
0
100
AcDbLine
10
-10.224052842736064
20
12.555688179927621
30
0
11
-7.7240528427360662
21
12.555688179927621
31
0
0
LINE
5
287
100
AcDbEntity
8
0
100
AcDbLine
10
-6.7240528427360724
20
12.555688179927621
30
0
11
-4.2240528427360751
21
12.555688179927621
31
0
0
LINE
5
288
100
AcDbEntity
8
0
100
AcDbLine
10
-3.2240528427360782
20
12.555688179927621
30
0
11
-0.72405284273607817
21
12.555688179927621
31
0
0
LINE
5
289
100
AcDbEntity
8
0
100
AcDbLine
10
0.27594715726391827
20
12.555688179927621
30
0
11
2.7759471572639183
21
12.555688179927621
31
0
0
LINE
5
290
100
AcDbEntity
8
0
100
AcDbLine
10
3.7759471572639125
20
12.555688179927621
30
0
11
6.2759471572639107
21
12.555688179927621
31
0
0
LINE
5
291
100
AcDbEntity
8
0
100
AcDbLine
10
7.2759471572639045
20
12.555688179927621
30
0
11
9.7759471572639018
21
12.555688179927619
31
0
0
LINE
5
292
100
AcDbEntity
8
0
100
AcDbLine
10
9.7804184094154039
20
12.555688179927619
30
0
11
9.8615890261959596
21
12.555688179927621
31
0
0
LINE
5
293
100
AcDbEntity
8
0
100
AcDbLine
10
-76.724052842735972
20
-7.3052501075281198
30
0
11
-74.224052842735972
21
-7.3052501075281198
31
0
0
LINE
5
294
100
AcDbEntity
8
0
100
AcDbLine
10
-73.224052842735972
20
-7.3052501075281198
30
0
11
-70.724052842735986
21
-7.3052501075281198
31
0
0
LINE
5
295
100
AcDbEntity
8
0
100
AcDbLine
10
-69.724052842735986
20
-7.3052501075281215
30
0
11
-67.224052842735986
21
-7.3052501075281215
31
0
0
LINE
5
296
100
AcDbEntity
8
0
100
AcDbLine
10
-66.224052842735986
20
-7.3052501075281215
30
0
11
-63.724052842735986
21
-7.3052501075281215
31
0
0
LINE
5
297
100
AcDbEntity
8
0
100
AcDbLine
10
-62.724052842735993
20
-7.3052501075281215
30
0
11
-60.224052842735993
21
-7.3052501075281215
31
0
0
LINE
5
298
100
AcDbEntity
8
0
100
AcDbLine
10
-59.224052842736008
20
-7.3052501075281215
30
0
11
-56.724052842736008
21
-7.3052501075281215
31
0
0
LINE
5
299
100
AcDbEntity
8
0
100
AcDbLine
10
-55.724052842736008
20
-7.3052501075281215
30
0
11
-53.224052842736008
21
-7.3052501075281215
31
0
0
LINE
5
300
100
AcDbEntity
8
0
100
AcDbLine
10
-52.224052842736015
20
-7.3052501075281215
30
0
11
-49.724052842736015
21
-7.3052501075281242
31
0
0
LINE
5
301
100
AcDbEntity
8
0
100
AcDbLine
10
-48.724052842736015
20
-7.3052501075281242
30
0
11
-46.224052842736029
21
-7.3052501075281242
31
0
0
LINE
5
302
100
AcDbEntity
8
0
100
AcDbLine
10
-45.224052842736029
20
-7.3052501075281242
30
0
11
-42.724052842736029
21
-7.3052501075281242
31
0
0
LINE
5
303
100
AcDbEntity
8
0
100
AcDbLine
10
-41.724052842736029
20
-7.3052501075281242
30
0
11
-39.224052842736029
21
-7.3052501075281242
31
0
0
LINE
5
304
100
AcDbEntity
8
0
100
AcDbLine
10
-38.224052842736036
20
-7.3052501075281242
30
0
11
-35.724052842736036
21
-7.3052501075281242
31
0
0
LINE
5
305
100
AcDbEntity
8
0
100
AcDbLine
10
-34.724052842736043
20
-7.3052501075281242
30
0
11
-32.224052842736043
21
-7.3052501075281242
31
0
0
LINE
5
306
100
AcDbEntity
8
0
100
AcDbLine
10
-31.224052842736043
20
-7.3052501075281242
30
0
11
-28.724052842736047
21
-7.305250107528126
31
0
0
LINE
5
307
100
AcDbEntity
8
0
100
AcDbLine
10
-27.72405284273605
20
-7.305250107528126
30
0
11
-25.22405284273605
21
-7.305250107528126
31
0
0
LINE
5
308
100
AcDbEntity
8
0
100
AcDbLine
10
-24.224052842736054
20
-7.305250107528126
30
0
11
-21.724052842736054
21
-7.305250107528126
31
0
0
LINE
5
309
100
AcDbEntity
8
0
100
AcDbLine
10
-20.724052842736057
20
-7.305250107528126
30
0
11
-18.224052842736057
21
-7.305250107528126
31
0
0
LINE
5
310
100
AcDbEntity
8
0
100
AcDbLine
10
-17.224052842736061
20
-7.305250107528126
30
0
11
-14.724052842736061
21
-7.305250107528126
31
0
0
LINE
5
311
100
AcDbEntity
8
0
100
AcDbLine
10
-13.724052842736064
20
-7.305250107528126
30
0
11
-11.224052842736064
21
-7.305250107528126
31
0
0
LINE
5
312
100
AcDbEntity
8
0
100
AcDbLine
10
-10.224052842736068
20
-7.305250107528126
30
0
11
-7.7240528427360724
21
-7.3052501075281286
31
0
0
LINE
5
313
100
AcDbEntity
8
0
100
AcDbLine
10
-6.7240528427360786
20
-7.3052501075281286
30
0
11
-4.2240528427360813
21
-7.3052501075281286
31
0
0
LINE
5
314
100
AcDbEntity
8
0
100
AcDbLine
10
-3.2240528427360848
20
-7.3052501075281286
30
0
11
-0.72405284273608483
21
-7.3052501075281286
31
0
0
LINE
5
315
100
AcDbEntity
8
0
100
AcDbLine
10
0.27594715726391161
20
-7.3052501075281286
30
0
11
2.7759471572639116
21
-7.3052501075281286
31
0
0
LINE
5
316
100
AcDbEntity
8
0
100
AcDbLine
10
3.7759471572639036
20
-7.3052501075281286
30
0
11
6.2759471572639018
21
-7.3052501075281286
31
0
0
LINE
5
317
100
AcDbEntity
8
0
100
AcDbLine
10
7.2759471572638956
20
-7.3052501075281286
30
0
11
9.7759471572638912
21
-7.3052501075281304
31
0
0
LINE
5
318
100
AcDbEntity
8
0
100
AcDbLine
10
-76.724052842735972
20
12.555688179927621
30
0
11
-74.224052842735972
21
12.555688179927621
31
0
0
LINE
5
319
100
AcDbEntity
8
0
100
AcDbLine
10
-73.224052842735986
20
12.555688179927621
30
0
11
-70.724052842735986
21
12.555688179927621
31
0
0
LINE
5
320
100
AcDbEntity
8
0
100
AcDbLine
10
-69.724052842736
20
12.555688179927621
30
0
11
-67.224052842736
21
12.555688179927621
31
0
0
LINE
5
321
100
AcDbEntity
8
0
100
AcDbLine
10
-66.224052842736
20
12.555688179927621
30
0
11
-63.724052842736
21
12.555688179927621
31
0
0
LINE
5
322
100
AcDbEntity
8
0
100
AcDbLine
10
-62.724052842736
20
12.555688179927621
30
0
11
-60.224052842736
21
12.555688179927621
31
0
0
LINE
5
323
100
AcDbEntity
8
0
100
AcDbLine
10
-59.224052842736008
20
12.555688179927621
30
0
11
-56.724052842736008
21
12.555688179927621
31
0
0
LINE
5
324
100
AcDbEntity
8
0
100
AcDbLine
10
-55.724052842736008
20
12.555688179927621
30
0
11
-53.224052842736008
21
12.555688179927621
31
0
0
LINE
5
325
100
AcDbEntity
8
0
100
AcDbLine
10
-52.224052842736015
20
12.555688179927621
30
0
11
-49.724052842736015
21
12.555688179927621
31
0
0
LINE
5
326
100
AcDbEntity
8
0
100
AcDbLine
10
-48.724052842736015
20
12.555688179927621
30
0
11
-46.224052842736029
21
12.555688179927621
31
0
0
LINE
5
327
100
AcDbEntity
8
0
100
AcDbLine
10
-45.224052842736029
20
12.555688179927621
30
0
11
-42.724052842736029
21
12.555688179927621
31
0
0
LINE
5
328
100
AcDbEntity
8
0
100
AcDbLine
10
-41.724052842736029
20
12.555688179927621
30
0
11
-39.224052842736029
21
12.555688179927621
31
0
0
LINE
5
329
100
AcDbEntity
8
0
100
AcDbLine
10
-38.224052842736036
20
12.555688179927621
30
0
11
-35.724052842736036
21
12.555688179927621
31
0
0
LINE
5
330
100
AcDbEntity
8
0
100
AcDbLine
10
-34.724052842736043
20
12.555688179927621
30
0
11
-32.224052842736043
21
12.555688179927621
31
0
0
LINE
5
331
100
AcDbEntity
8
0
100
AcDbLine
10
-31.224052842736043
20
12.555688179927621
30
0
11
-28.724052842736043
21
12.555688179927621
31
0
0
LINE
5
332
100
AcDbEntity
8
0
100
AcDbLine
10
-27.724052842736047
20
12.555688179927621
30
0
11
-25.224052842736047
21
12.555688179927621
31
0
0
LINE
5
333
100
AcDbEntity
8
0
100
AcDbLine
10
-24.22405284273605
20
12.555688179927621
30
0
11
-21.72405284273605
21
12.555688179927621
31
0
0
LINE
5
334
100
AcDbEntity
8
0
100
AcDbLine
10
-20.724052842736054
20
12.555688179927621
30
0
11
-18.224052842736054
21
12.555688179927621
31
0
0
LINE
5
335
100
AcDbEntity
8
0
100
AcDbLine
10
-17.224052842736057
20
12.555688179927621
30
0
11
-14.724052842736057
21
12.555688179927621
31
0
0
LINE
5
336
100
AcDbEntity
8
0
100
AcDbLine
10
-13.724052842736061
20
12.555688179927621
30
0
11
-11.224052842736061
21
12.555688179927621
31
0
0
LINE
5
337
100
AcDbEntity
8
0
100
AcDbLine
10
-10.224052842736064
20
12.555688179927621
30
0
11
-7.7240528427360662
21
12.555688179927621
31
0
0
LINE
5
338
100
AcDbEntity
8
0
100
AcDbLine
10
-6.7240528427360724
20
12.555688179927621
30
0
11
-4.2240528427360751
21
12.555688179927621
31
0
0
LINE
5
339
100
AcDbEntity
8
0
100
AcDbLine
10
-3.2240528427360782
20
12.555688179927621
30
0
11
-0.72405284273607817
21
12.555688179927621
31
0
0
LINE
5
340
100
AcDbEntity
8
0
100
AcDbLine
10
0.27594715726391827
20
12.555688179927621
30
0
11
2.7759471572639183
21
12.555688179927621
31
0
0
LINE
5
341
100
AcDbEntity
8
0
100
AcDbLine
10
3.7759471572639125
20
12.555688179927621
30
0
11
6.2759471572639107
21
12.555688179927621
31
0
0
LINE
5
342
100
AcDbEntity
8
0
100
AcDbLine
10
7.2759471572639045
20
12.555688179927621
30
0
11
9.7759471572639018
21
12.555688179927619
31
0
0
LINE
5
343
100
AcDbEntity
8
0
100
AcDbLine
10
-56.724052842736008
20
-26.652537489630159
30
0
11
-54.224052842736008
21
-26.652537489630159
31
0
0
LINE
5
344
100
AcDbEntity
8
0
100
AcDbLine
10
-67.224052842735986
20
-26.652537489630159
30
0
11
-64.724052842735986
21
-26.652537489630159
31
0
0
LINE
5
345
100
AcDbEntity
8
0
100
AcDbLine
10
-74.224052842735972
20
-26.652537489630159
30
0
11
-71.724052842735972
21
-26.652537489630159
31
0
0
LINE
5
346
100
AcDbEntity
8
0
100
AcDbLine
10
-70.724052842735986
20
-26.652537489630159
30
0
11
-68.224052842735986
21
-26.652537489630159
31
0
0
LINE
5
347
100
AcDbEntity
8
0
100
AcDbLine
10
-74.224052842735972
20
-26.652537489630159
30
0
11
-71.724052842735972
21
-26.652537489630159
31
0
0
LINE
5
348
100
AcDbEntity
8
0
100
AcDbLine
10
-74.224052842735972
20
-26.652537489630159
30
0
11
-71.724052842735972
21
-26.652537489630159
31
0
0
LINE
5
349
100
AcDbEntity
8
0
100
AcDbLine
10
-70.724052842735986
20
-26.652537489630159
30
0
11
-68.224052842735986
21
-26.652537489630159
31
0
0
LINE
5
350
100
AcDbEntity
8
0
100
AcDbLine
10
-77.724052842735972
20
-26.652537489630159
30
0
11
-75.224052842735972
21
-26.652537489630159
31
0
0
LINE
5
351
100
AcDbEntity
8
0
100
AcDbLine
10
-53.224052842736008
20
-26.652537489630159
30
0
11
-50.724052842736008
21
-26.652537489630159
31
0
0
LINE
5
352
100
AcDbEntity
8
0
100
AcDbLine
10
-53.224052842736008
20
-26.652537489630159
30
0
11
-50.724052842736008
21
-26.652537489630159
31
0
0
LINE
5
353
100
AcDbEntity
8
0
100
AcDbLine
10
-46.224052842736029
20
-26.652537489630159
30
0
11
-43.724052842736029
21
-26.652537489630159
31
0
0
LINE
5
354
100
AcDbEntity
8
0
100
AcDbLine
10
-77.724052842735972
20
-26.652537489630159
30
0
11
-75.224052842735972
21
-26.652537489630159
31
0
0
LINE
5
355
100
AcDbEntity
8
0
100
AcDbLine
10
-63.724052842735986
20
-26.652537489630159
30
0
11
-61.224052842735986
21
-26.652537489630159
31
0
0
LINE
5
356
100
AcDbEntity
8
0
100
AcDbLine
10
-63.724052842735986
20
-26.652537489630159
30
0
11
-61.224052842735986
21
-26.652537489630159
31
0
0
LINE
5
357
100
AcDbEntity
8
0
100
AcDbLine
10
-63.724052842735986
20
-26.652537489630159
30
0
11
-61.224052842735986
21
-26.652537489630159
31
0
0
LINE
5
358
100
AcDbEntity
8
0
100
AcDbLine
10
-39.224052842736029
20
-26.652537489630159
30
0
11
-36.724052842736029
21
-26.652537489630159
31
0
0
LINE
5
359
100
AcDbEntity
8
0
100
AcDbLine
10
-39.224052842736029
20
-26.652537489630159
30
0
11
-36.724052842736029
21
-26.652537489630159
31
0
0
LINE
5
360
100
AcDbEntity
8
0
100
AcDbLine
10
-77.724052842735972
20
-26.652537489630159
30
0
11
-75.224052842735972
21
-26.652537489630159
31
0
0
LINE
5
361
100
AcDbEntity
8
0
100
AcDbLine
10
-60.224052842735993
20
-26.652537489630159
30
0
11
-57.724052842736
21
-26.652537489630159
31
0
0
LINE
5
362
100
AcDbEntity
8
0
100
AcDbLine
10
-25.224052842736043
20
-26.652537489630159
30
0
11
-22.724052842736047
21
-26.652537489630159
31
0
0
LINE
5
363
100
AcDbEntity
8
0
100
AcDbLine
10
-18.224052842736047
20
-26.652537489630159
30
0
11
-15.724052842736047
21
-26.652537489630159
31
0
0
LINE
5
364
100
AcDbEntity
8
0
100
AcDbLine
10
-35.724052842736043
20
-26.652537489630159
30
0
11
-33.224052842736043
21
-26.652537489630159
31
0
0
LINE
5
365
100
AcDbEntity
8
0
100
AcDbLine
10
-32.224052842736043
20
-26.652537489630159
30
0
11
-29.724052842736043
21
-26.652537489630159
31
0
0
LINE
5
366
100
AcDbEntity
8
0
100
AcDbLine
10
-63.724052842735986
20
-26.652537489630159
30
0
11
-61.224052842735986
21
-26.652537489630159
31
0
0
LINE
5
367
100
AcDbEntity
8
0
100
AcDbLine
10
-77.724052842735972
20
-26.652537489630159
30
0
11
-75.224052842735972
21
-26.652537489630159
31
0
0
LINE
5
368
100
AcDbEntity
8
0
100
AcDbLine
10
-67.224052842735986
20
-26.652537489630159
30
0
11
-64.724052842735986
21
-26.652537489630159
31
0
0
LINE
5
369
100
AcDbEntity
8
0
100
AcDbLine
10
-74.224052842735972
20
-26.652537489630159
30
0
11
-71.724052842735972
21
-26.652537489630159
31
0
0
LINE
5
370
100
AcDbEntity
8
0
100
AcDbLine
10
-67.224052842735986
20
-26.652537489630159
30
0
11
-64.724052842735986
21
-26.652537489630159
31
0
0
LINE
5
371
100
AcDbEntity
8
0
100
AcDbLine
10
-67.224052842735986
20
-26.652537489630159
30
0
11
-64.724052842735986
21
-26.652537489630159
31
0
0
LINE
5
372
100
AcDbEntity
8
0
100
AcDbLine
10
-60.224052842735993
20
-26.652537489630159
30
0
11
-57.724052842736
21
-26.652537489630159
31
0
0
LINE
5
373
100
AcDbEntity
8
0
100
AcDbLine
10
-42.724052842736029
20
-26.652537489630159
30
0
11
-40.224052842736029
21
-26.652537489630159
31
0
0
LINE
5
374
100
AcDbEntity
8
0
100
AcDbLine
10
-46.224052842736029
20
-26.652537489630159
30
0
11
-43.724052842736029
21
-26.652537489630159
31
0
0
LINE
5
375
100
AcDbEntity
8
0
100
AcDbLine
10
-49.724052842736015
20
-26.652537489630159
30
0
11
-47.224052842736015
21
-26.652537489630159
31
0
0
LINE
5
376
100
AcDbEntity
8
0
100
AcDbLine
10
-21.724052842736047
20
-26.652537489630159
30
0
11
-19.224052842736047
21
-26.652537489630159
31
0
0
LINE
5
377
100
AcDbEntity
8
0
100
AcDbLine
10
-28.724052842736043
20
-26.652537489630159
30
0
11
-26.224052842736043
21
-26.652537489630159
31
0
0
LINE
5
378
100
AcDbEntity
8
0
100
AcDbLine
10
-42.724052842736029
20
-26.652537489630159
30
0
11
-40.224052842736029
21
-26.652537489630159
31
0
0
LINE
5
379
100
AcDbEntity
8
0
100
AcDbLine
10
-56.724052842736008
20
-26.652537489630159
30
0
11
-54.224052842736008
21
-26.652537489630159
31
0
0
LINE
5
380
100
AcDbEntity
8
0
100
AcDbLine
10
-46.224052842736029
20
-26.652537489630159
30
0
11
-43.724052842736029
21
-26.652537489630159
31
0
0
LINE
5
381
100
AcDbEntity
8
0
100
AcDbLine
10
-53.224052842736008
20
-26.652537489630159
30
0
11
-50.724052842736008
21
-26.652537489630159
31
0
0
LINE
5
382
100
AcDbEntity
8
0
100
AcDbLine
10
-42.724052842736029
20
-26.652537489630159
30
0
11
-40.224052842736029
21
-26.652537489630159
31
0
0
LINE
5
383
100
AcDbEntity
8
0
100
AcDbLine
10
-46.224052842736029
20
-26.652537489630159
30
0
11
-43.724052842736029
21
-26.652537489630159
31
0
0
LINE
5
384
100
AcDbEntity
8
0
100
AcDbLine
10
-56.724052842736008
20
-26.652537489630159
30
0
11
-54.224052842736008
21
-26.652537489630159
31
0
0
LINE
5
385
100
AcDbEntity
8
0
100
AcDbLine
10
-49.724052842736015
20
-26.652537489630159
30
0
11
-47.224052842736015
21
-26.652537489630159
31
0
0
LINE
5
386
100
AcDbEntity
8
0
100
AcDbLine
10
-53.224052842736008
20
-26.652537489630159
30
0
11
-50.724052842736008
21
-26.652537489630159
31
0
0
LINE
5
387
100
AcDbEntity
8
0
100
AcDbLine
10
-56.724052842736008
20
-26.652537489630159
30
0
11
-54.224052842736008
21
-26.652537489630159
31
0
0
LINE
5
388
100
AcDbEntity
8
0
100
AcDbLine
10
-42.724052842736029
20
-26.652537489630159
30
0
11
-40.224052842736029
21
-26.652537489630159
31
0
0
LINE
5
389
100
AcDbEntity
8
0
100
AcDbLine
10
13.59025809467486
20
-26.652537489629768
30
0
11
16.090258094674862
21
-26.652537489629768
31
0
0
LINE
5
390
100
AcDbEntity
8
0
100
AcDbLine
10
17.090258094674862
20
-26.652537489629768
30
0
11
19.590258094674887
21
-26.652537489629786
31
0
0
LINE
5
391
100
AcDbEntity
8
0
100
AcDbLine
10
6.5902580946748577
20
-26.652537489629768
30
0
11
9.0902580946748586
21
-26.652537489629768
31
0
0
LINE
5
392
100
AcDbEntity
8
0
100
AcDbLine
10
10.09025809467486
20
-26.652537489629768
30
0
11
12.59025809467486
21
-26.652537489629768
31
0
0
LINE
5
393
100
AcDbEntity
8
0
100
AcDbLine
10
-50.317940183927483
20
52.019892962513836
30
0
11
-48.317940183927483
21
52.019892962513836
31
0
0
LINE
5
394
100
AcDbEntity
8
0
100
AcDbLine
10
-46.817940183927476
20
52.019892962513836
30
0
11
-44.817940183927476
21
52.019892962513836
31
0
0
LINE
5
395
100
AcDbEntity
8
0
100
AcDbLine
10
-43.317940183927476
20
52.019892962513836
30
0
11
-41.317940183927469
21
52.019892962513836
31
0
0
LINE
5
396
100
AcDbEntity
8
0
100
AcDbLine
10
-39.817940183927469
20
52.019892962513836
30
0
11
-37.817940183927469
21
52.019892962513836
31
0
0
LINE
5
397
100
AcDbEntity
8
0
100
AcDbLine
10
-36.317940183927469
20
52.019892962513836
30
0
11
-34.317940183927469
21
52.019892962513836
31
0
0
LINE
5
398
100
AcDbEntity
8
0
100
AcDbLine
10
-32.817940183927469
20
52.019892962513836
30
0
11
-31.029142601006203
21
52.019892962513836
31
0
0
LINE
5
399
100
AcDbEntity
8
0
100
AcDbLine
10
-0.23684367726822142
20
52.019892962513822
30
0
11
1.7631563227317759
21
52.019892962513822
31
0
0
LINE
5
400
100
AcDbEntity
8
0
100
AcDbLine
10
-7.2368436772682054
20
52.019892962513822
30
0
11
-5.2368436772682125
21
52.019892962513822
31
0
0
LINE
5
401
100
AcDbEntity
8
0
100
AcDbLine
10
-14.236843677268208
20
52.019892962513822
30
0
11
-12.236843677268205
21
52.019892962513822
31
0
0
LINE
5
402
100
AcDbEntity
8
0
100
AcDbLine
10
-3.7368436772682134
20
52.019892962513822
30
0
11
-1.7368436772682161
21
52.019892962513822
31
0
0
LINE
5
403
100
AcDbEntity
8
0
100
AcDbLine
10
3.263156322731775
20
52.019892962513822
30
0
11
5.5308992293348949
21
52.019892962513822
31
0
0
LINE
5
404
100
AcDbEntity
8
0
100
AcDbLine
10
-10.736843677268201
20
52.019892962513822
30
0
11
-8.7368436772682081
21
52.019892962513822
31
0
0
LINE
5
405
100
AcDbEntity
8
0
100
AcDbLine
10
-97.432534015872534
20
12.555688179927619
30
0
11
-97.432534015872534
21
10.555688179927621
31
0
0
LINE
5
406
100
AcDbEntity
8
0
100
AcDbLine
10
-97.432534015872534
20
9.0556881799276194
30
0
11
-97.432534015872534
21
7.0556881799276194
31
0
0
LINE
5
407
100
AcDbEntity
8
0
100
AcDbLine
10
-97.432534015872534
20
5.5556881799276194
30
0
11
-97.432534015872534
21
3.5556881799276194
31
0
0
LINE
5
408
100
AcDbEntity
8
0
100
AcDbLine
10
-97.432534015872534
20
2.0556881799276194
30
0
11
-97.432534015872534
21
0.055688179927619319
31
0
0
LINE
5
409
100
AcDbEntity
8
0
100
AcDbLine
10
-97.432534015872534
20
-1.444311820072381
30
0
11
-97.432534015872534
21
-3.444311820072381
31
0
0
LINE
5
410
100
AcDbEntity
8
0
100
AcDbLine
10
-97.432534015872534
20
-4.9443118200723815
30
0
11
-97.432534015872534
21
-6.9443118200723823
31
0
0
LINE
5
411
100
AcDbEntity
8
0
100
AcDbLine
10
-97.432534015872534
20
-6.9443118200723823
30
0
11
-97.432534015872534
21
-7.3052501075281207
31
0
0
LINE
5
412
100
AcDbEntity
8
0
100
AcDbLine
10
-77.93253401587252
20
12.555688179927619
30
0
11
-79.932534015872534
21
12.555688179927619
31
0
0
LINE
5
413
100
AcDbEntity
8
0
100
AcDbLine
10
-81.43253401587252
20
12.555688179927619
30
0
11
-83.432534015872534
21
12.555688179927619
31
0
0
LINE
5
414
100
AcDbEntity
8
0
100
AcDbLine
10
-84.932534015872534
20
12.555688179927619
30
0
11
-86.932534015872534
21
12.555688179927619
31
0
0
LINE
5
415
100
AcDbEntity
8
0
100
AcDbLine
10
-88.432534015872534
20
12.555688179927619
30
0
11
-90.43253401587252
21
12.555688179927619
31
0
0
LINE
5
416
100
AcDbEntity
8
0
100
AcDbLine
10
-91.932534015872534
20
12.555688179927619
30
0
11
-93.93253401587252
21
12.555688179927619
31
0
0
LINE
5
417
100
AcDbEntity
8
0
100
AcDbLine
10
-95.43253401587252
20
12.555688179927619
30
0
11
-97.432534015872534
21
12.555688179927619
31
0
0
LINE
5
418
100
AcDbEntity
8
0
100
AcDbLine
10
-77.93253401587252
20
12.555688179927619
30
0
11
-77.724052842735972
21
12.555688179927621
31
0
0
LINE
5
419
100
AcDbEntity
8
0
100
AcDbLine
10
-77.724052842735972
20
-6.9443118200723664
30
0
11
-77.724052842735972
21
-4.9443118200723699
31
0
0
LINE
5
420
100
AcDbEntity
8
0
100
AcDbLine
10
-77.724052842735972
20
-3.4443118200723699
30
0
11
-77.724052842735972
21
-1.4443118200723726
31
0
0
LINE
5
421
100
AcDbEntity
8
0
100
AcDbLine
10
-77.724052842735972
20
0.055688179927626535
30
0
11
-77.724052842735972
21
2.0556881799276261
31
0
0
LINE
5
422
100
AcDbEntity
8
0
100
AcDbLine
10
-77.724052842735972
20
3.5556881799276252
30
0
11
-77.724052842735972
21
5.5556881799276248
31
0
0
LINE
5
423
100
AcDbEntity
8
0
100
AcDbLine
10
-77.724052842735972
20
7.0556881799276265
30
0
11
-77.724052842735972
21
9.0556881799276248
31
0
0
LINE
5
424
100
AcDbEntity
8
0
100
AcDbLine
10
-77.724052842735972
20
10.555688179927625
30
0
11
-77.724052842735972
21
12.555688179927621
31
0
0
LINE
5
425
100
AcDbEntity
8
0
100
AcDbLine
10
-77.724052842735972
20
-6.9443118200723664
30
0
11
-77.724052842735972
21
-7.3052501075281207
31
0
0
LINE
5
426
100
AcDbEntity
8
0
100
AcDbLine
10
-77.932534015872548
20
-7.3052501075281189
30
0
11
-79.932534015872548
21
-7.3052501075281189
31
0
0
LINE
5
427
100
AcDbEntity
8
0
100
AcDbLine
10
-81.432534015872562
20
-7.3052501075281198
30
0
11
-83.432534015872548
21
-7.3052501075281198
31
0
0
LINE
5
428
100
AcDbEntity
8
0
100
AcDbLine
10
-84.932534015872534
20
-7.3052501075281198
30
0
11
-86.932534015872534
21
-7.3052501075281198
31
0
0
LINE
5
429
100
AcDbEntity
8
0
100
AcDbLine
10
-88.432534015872548
20
-7.3052501075281198
30
0
11
-90.432534015872534
21
-7.3052501075281198
31
0
0
LINE
5
430
100
AcDbEntity
8
0
100
AcDbLine
10
-91.932534015872534
20
-7.3052501075281198
30
0
11
-93.93253401587252
21
-7.3052501075281198
31
0
0
LINE
5
431
100
AcDbEntity
8
0
100
AcDbLine
10
-95.432534015872534
20
-7.3052501075281198
30
0
11
-97.432534015872534
21
-7.3052501075281198
31
0
0
LINE
5
432
100
AcDbEntity
8
0
100
AcDbLine
10
-77.932534015872548
20
-7.3052501075281189
30
0
11
-77.724052842735972
21
-7.3052501075281207
31
0
0
LINE
5
433
100
AcDbEntity
8
0
100
AcDbLine
10
3.2775171218212558
20
-65.684150005752585
30
0
11
5.0663147047425277
21
-65.684150005752585
31
0
0
LINE
5
434
100
AcDbEntity
8
0
100
AcDbLine
10
-0.22248287817874079
20
-65.684150005752585
30
0
11
1.7775171218212611
21
-65.684150005752585
31
0
0
LINE
5
435
100
AcDbEntity
8
0
100
AcDbLine
10
-3.7224828781787371
20
-65.684150005752585
30
0
11
-1.7224828781787354
21
-65.684150005752585
31
0
0
LINE
5
436
100
AcDbEntity
8
0
100
AcDbLine
10
-7.2224828781787398
20
-65.684150005752585
30
0
11
-5.2224828781787398
21
-65.684150005752585
31
0
0
LINE
5
437
100
AcDbEntity
8
0
100
AcDbLine
10
-10.722482878178736
20
-65.684150005752585
30
0
11
-8.7224828781787433
21
-65.684150005752585
31
0
0
LINE
5
438
100
AcDbEntity
8
0
100
AcDbLine
10
-14.222482878178742
20
-65.684150005752585
30
0
11
-12.22248287817874
21
-65.684150005752585
31
0
0
LINE
5
439
100
AcDbEntity
8
0
100
AcDbLine
10
47.318230841888735
20
-75.492739233500785
30
0
11
49.107028424810004
21
-75.492739233500785
31
0
0
LINE
5
440
100
AcDbEntity
8
0
100
AcDbLine
10
43.818230841888735
20
-75.492739233500785
30
0
11
45.818230841888735
21
-75.492739233500785
31
0
0
LINE
5
441
100
AcDbEntity
8
0
100
AcDbLine
10
40.318230841888735
20
-75.492739233500785
30
0
11
42.318230841888742
21
-75.492739233500785
31
0
0
LINE
5
442
100
AcDbEntity
8
0
100
AcDbLine
10
36.818230841888735
20
-75.492739233500785
30
0
11
38.818230841888735
21
-75.492739233500785
31
0
0
LINE
5
443
100
AcDbEntity
8
0
100
AcDbLine
10
33.318230841888735
20
-75.492739233500785
30
0
11
35.318230841888727
21
-75.492739233500785
31
0
0
LINE
5
444
100
AcDbEntity
8
0
100
AcDbLine
10
29.818230841888731
20
-75.492739233500785
30
0
11
31.818230841888735
21
-75.492739233500785
31
0
0
LINE
5
445
100
AcDbEntity
8
0
100
AcDbLine
10
93.397981402689169
20
-75.492739233500586
30
0
11
95.186778985610445
21
-75.492739233500586
31
0
0
LINE
5
446
100
AcDbEntity
8
0
100
AcDbLine
10
89.897981402689169
20
-75.492739233500586
30
0
11
91.897981402689169
21
-75.492739233500586
31
0
0
LINE
5
447
100
AcDbEntity
8
0
100
AcDbLine
10
86.397981402689169
20
-75.492739233500586
30
0
11
88.397981402689183
21
-75.492739233500586
31
0
0
LINE
5
448
100
AcDbEntity
8
0
100
AcDbLine
10
82.897981402689169
20
-75.492739233500586
30
0
11
84.897981402689169
21
-75.492739233500586
31
0
0
LINE
5
449
100
AcDbEntity
8
0
100
AcDbLine
10
79.397981402689183
20
-75.492739233500586
30
0
11
81.397981402689169
21
-75.492739233500586
31
0
0
LINE
5
450
100
AcDbEntity
8
0
100
AcDbLine
10
75.897981402689169
20
-75.492739233500586
30
0
11
77.897981402689169
21
-75.492739233500586
31
0
0
LINE
5
451
100
AcDbEntity
8
0
100
AcDbLine
10
101.09025809467465
20
-16.962491593238301
30
0
11
103.59025809467465
21
-16.962491593238301
31
0
0
LINE
5
452
100
AcDbEntity
8
0
100
AcDbLine
10
104.59025809467462
20
-16.962491593238301
30
0
11
107.09025809467462
21
-16.962491593238305
31
0
0
LINE
5
453
100
AcDbEntity
8
0
100
AcDbLine
10
41.590258094674795
20
-16.962491593238298
30
0
11
44.09025809467478
21
-16.962491593238298
31
0
0
LINE
5
454
100
AcDbEntity
8
0
100
AcDbLine
10
38.090258094674795
20
-16.962491593238298
30
0
11
40.590258094674795
21
-16.962491593238298
31
0
0
LINE
5
455
100
AcDbEntity
8
0
100
AcDbLine
10
31.090258094674819
20
-16.962491593238298
30
0
11
33.590258094674809
21
-16.962491593238298
31
0
0
LINE
5
456
100
AcDbEntity
8
0
100
AcDbLine
10
34.590258094674809
20
-16.962491593238298
30
0
11
37.090258094674809
21
-16.962491593238298
31
0
0
LINE
5
457
100
AcDbEntity
8
0
100
AcDbLine
10
20.590258094674848
20
-16.96249159323829
30
0
11
23.090258094674837
21
-16.96249159323829
31
0
0
LINE
5
458
100
AcDbEntity
8
0
100
AcDbLine
10
27.590258094674823
20
-16.962491593238298
30
0
11
30.090258094674823
21
-16.962491593238298
31
0
0
LINE
5
459
100
AcDbEntity
8
0
100
AcDbLine
10
24.090258094674834
20
-16.96249159323829
30
0
11
26.590258094674827
21
-16.96249159323829
31
0
0
LINE
5
460
100
AcDbEntity
8
0
100
AcDbLine
10
45.090258094674773
20
-16.962491593238298
30
0
11
47.590258094674773
21
-16.962491593238298
31
0
0
LINE
5
461
100
AcDbEntity
8
0
100
AcDbLine
10
52.090258094674766
20
-16.962491593238298
30
0
11
54.590258094674752
21
-16.962491593238298
31
0
0
LINE
5
462
100
AcDbEntity
8
0
100
AcDbLine
10
62.590258094674738
20
-16.962491593238298
30
0
11
65.090258094674738
21
-16.962491593238298
31
0
0
LINE
5
463
100
AcDbEntity
8
0
100
AcDbLine
10
55.590258094674745
20
-16.962491593238298
30
0
11
58.090258094674745
21
-16.962491593238298
31
0
0
LINE
5
464
100
AcDbEntity
8
0
100
AcDbLine
10
48.590258094674766
20
-16.962491593238298
30
0
11
51.090258094674766
21
-16.962491593238298
31
0
0
LINE
5
465
100
AcDbEntity
8
0
100
AcDbLine
10
59.090258094674738
20
-16.962491593238298
30
0
11
61.590258094674738
21
-16.962491593238298
31
0
0
LINE
5
466
100
AcDbEntity
8
0
100
AcDbLine
10
94.090258094674653
20
-16.962491593238301
30
0
11
96.590258094674653
21
-16.962491593238301
31
0
0
LINE
5
467
100
AcDbEntity
8
0
100
AcDbLine
10
66.090258094674738
20
-16.962491593238298
30
0
11
68.590258094674709
21
-16.962491593238301
31
0
0
LINE
5
468
100
AcDbEntity
8
0
100
AcDbLine
10
69.590258094674709
20
-16.962491593238301
30
0
11
72.090258094674709
21
-16.962491593238301
31
0
0
LINE
5
469
100
AcDbEntity
8
0
100
AcDbLine
10
76.590258094674709
20
-16.962491593238301
30
0
11
79.090258094674709
21
-16.962491593238301
31
0
0
LINE
5
470
100
AcDbEntity
8
0
100
AcDbLine
10
73.090258094674709
20
-16.962491593238301
30
0
11
75.590258094674709
21
-16.962491593238301
31
0
0
LINE
5
471
100
AcDbEntity
8
0
100
AcDbLine
10
83.590258094674681
20
-16.962491593238301
30
0
11
86.090258094674681
21
-16.962491593238301
31
0
0
LINE
5
472
100
AcDbEntity
8
0
100
AcDbLine
10
97.590258094674653
20
-16.962491593238301
30
0
11
100.09025809467465
21
-16.962491593238301
31
0
0
LINE
5
473
100
AcDbEntity
8
0
100
AcDbLine
10
87.090258094674681
20
-16.962491593238301
30
0
11
89.590258094674681
21
-16.962491593238301
31
0
0
LINE
5
474
100
AcDbEntity
8
0
100
AcDbLine
10
80.090258094674709
20
-16.962491593238301
30
0
11
82.590258094674709
21
-16.962491593238301
31
0
0
LINE
5
475
100
AcDbEntity
8
0
100
AcDbLine
10
90.590258094674681
20
-16.962491593238301
30
0
11
93.090258094674653
21
-16.962491593238301
31
0
0
LINE
5
476
100
AcDbEntity
8
0
100
AcDbLine
10
52.090258094674795
20
-36.000000536442144
30
0
11
54.590258094674766
21
-36.000000536442144
31
0
0
LINE
5
477
100
AcDbEntity
8
0
100
AcDbLine
10
20.590258094674923
20
-36.000000536442144
30
0
11
23.090258094674908
21
-36.000000536442144
31
0
0
LINE
5
478
100
AcDbEntity
8
0
100
AcDbLine
10
59.090258094674759
20
-36.000000536442144
30
0
11
61.590258094674752
21
-36.000000536442144
31
0
0
LINE
5
479
100
AcDbEntity
8
0
100
AcDbLine
10
104.5902580946746
20
-36.000000536442151
30
0
11
107.0902580946746
21
-36.000000536442151
31
0
0
LINE
5
480
100
AcDbEntity
8
0
100
AcDbLine
10
76.590258094674695
20
-36.000000536442144
30
0
11
79.090258094674695
21
-36.000000536442144
31
0
0
LINE
5
481
100
AcDbEntity
8
0
100
AcDbLine
10
97.590258094674596
20
-36.000000536442151
30
0
11
100.0902580946746
21
-36.000000536442151
31
0
0
LINE
5
482
100
AcDbEntity
8
0
100
AcDbLine
10
38.090258094674844
20
-36.000000536442144
30
0
11
40.590258094674844
21
-36.000000536442144
31
0
0
LINE
5
483
100
AcDbEntity
8
0
100
AcDbLine
10
27.590258094674883
20
-36.000000536442144
30
0
11
30.09025809467488
21
-36.000000536442144
31
0
0
LINE
5
484
100
AcDbEntity
8
0
100
AcDbLine
10
69.590258094674709
20
-36.000000536442144
30
0
11
72.090258094674709
21
-36.000000536442144
31
0
0
LINE
5
485
100
AcDbEntity
8
0
100
AcDbLine
10
101.09025809467461
20
-36.000000536442151
30
0
11
103.59025809467461
21
-36.000000536442151
31
0
0
LINE
5
486
100
AcDbEntity
8
0
100
AcDbLine
10
90.590258094674638
20
-36.000000536442144
30
0
11
93.090258094674638
21
-36.000000536442151
31
0
0
LINE
5
487
100
AcDbEntity
8
0
100
AcDbLine
10
45.090258094674809
20
-36.000000536442144
30
0
11
47.590258094674809
21
-36.000000536442144
31
0
0
LINE
5
488
100
AcDbEntity
8
0
100
AcDbLine
10
83.590258094674681
20
-36.000000536442144
30
0
11
86.090258094674653
21
-36.000000536442144
31
0
0
LINE
5
489
100
AcDbEntity
8
0
100
AcDbLine
10
87.090258094674653
20
-36.000000536442144
30
0
11
89.590258094674653
21
-36.000000536442144
31
0
0
LINE
5
490
100
AcDbEntity
8
0
100
AcDbLine
10
41.590258094674837
20
-36.000000536442144
30
0
11
44.090258094674809
21
-36.000000536442144
31
0
0
LINE
5
491
100
AcDbEntity
8
0
100
AcDbLine
10
66.090258094674738
20
-36.000000536442144
30
0
11
68.590258094674709
21
-36.000000536442144
31
0
0
LINE
5
492
100
AcDbEntity
8
0
100
AcDbLine
10
24.090258094674905
20
-36.000000536442144
30
0
11
26.590258094674894
21
-36.000000536442144
31
0
0
LINE
5
493
100
AcDbEntity
8
0
100
AcDbLine
10
31.090258094674876
20
-36.000000536442144
30
0
11
33.590258094674866
21
-36.000000536442144
31
0
0
LINE
5
494
100
AcDbEntity
8
0
100
AcDbLine
10
34.590258094674859
20
-36.000000536442144
30
0
11
37.090258094674851
21
-36.000000536442144
31
0
0
LINE
5
495
100
AcDbEntity
8
0
100
AcDbLine
10
94.090258094674624
20
-36.000000536442151
30
0
11
96.590258094674624
21
-36.000000536442151
31
0
0
LINE
5
496
100
AcDbEntity
8
0
100
AcDbLine
10
80.090258094674709
20
-36.000000536442144
30
0
11
82.590258094674709
21
-36.000000536442144
31
0
0
LINE
5
497
100
AcDbEntity
8
0
100
AcDbLine
10
55.590258094674766
20
-36.000000536442144
30
0
11
58.090258094674766
21
-36.000000536442144
31
0
0
LINE
5
498
100
AcDbEntity
8
0
100
AcDbLine
10
62.590258094674745
20
-36.000000536442144
30
0
11
65.090258094674752
21
-36.000000536442144
31
0
0
LINE
5
499
100
AcDbEntity
8
0
100
AcDbLine
10
48.590258094674795
20
-36.000000536442144
30
0
11
51.090258094674795
21
-36.000000536442144
31
0
0
LINE
5
500
100
AcDbEntity
8
0
100
AcDbLine
10
73.090258094674695
20
-36.000000536442144
30
0
11
75.590258094674695
21
-36.000000536442144
31
0
0
LINE
5
501
100
AcDbEntity
8
0
100
AcDbLine
10
52.825090192472892
20
22.389678891736438
30
0
11
55.325090192472871
21
22.389678891736438
31
0
0
LINE
5
502
100
AcDbEntity
8
0
100
AcDbLine
10
21.325090192472981
20
22.389678891736438
30
0
11
23.825090192472974
21
22.389678891736438
31
0
0
LINE
5
503
100
AcDbEntity
8
0
100
AcDbLine
10
59.82509019247285
20
22.389678891736438
30
0
11
62.32509019247285
21
22.389678891736438
31
0
0
LINE
5
504
100
AcDbEntity
8
0
100
AcDbLine
10
105.32509019247271
20
22.388494996363658
30
0
11
107.82509019247271
21
22.388494996363647
31
0
0
LINE
5
505
100
AcDbEntity
8
0
100
AcDbLine
10
77.325090192472814
20
22.389678891736434
30
0
11
79.825090192472814
21
22.389678891736434
31
0
0
LINE
5
506
100
AcDbEntity
8
0
100
AcDbLine
10
98.325090192472743
20
22.389678891736434
30
0
11
100.82509019247274
21
22.389678891736438
31
0
0
LINE
5
507
100
AcDbEntity
8
0
100
AcDbLine
10
38.825090192472921
20
22.389678891736438
30
0
11
41.325090192472928
21
22.389678891736438
31
0
0
LINE
5
508
100
AcDbEntity
8
0
100
AcDbLine
10
28.325090192472956
20
22.389678891736438
30
0
11
30.825090192472956
21
22.389678891736438
31
0
0
LINE
5
509
100
AcDbEntity
8
0
100
AcDbLine
10
70.325090192472828
20
22.389678891736434
30
0
11
72.825090192472828
21
22.389678891736434
31
0
0
LINE
5
510
100
AcDbEntity
8
0
100
AcDbLine
10
101.82509019247274
20
22.389678891736438
30
0
11
104.32509019247274
21
22.389678891736438
31
0
0
LINE
5
511
100
AcDbEntity
8
0
100
AcDbLine
10
91.325090192472771
20
22.389678891736434
30
0
11
93.825090192472743
21
22.389678891736434
31
0
0
LINE
5
512
100
AcDbEntity
8
0
100
AcDbLine
10
45.825090192472899
20
22.389678891736438
30
0
11
48.325090192472899
21
22.389678891736438
31
0
0
LINE
5
513
100
AcDbEntity
8
0
100
AcDbLine
10
84.325090192472771
20
22.389678891736434
30
0
11
86.825090192472771
21
22.389678891736434
31
0
0
LINE
5
514
100
AcDbEntity
8
0
100
AcDbLine
10
87.825090192472771
20
22.389678891736434
30
0
11
90.325090192472771
21
22.389678891736434
31
0
0
LINE
5
515
100
AcDbEntity
8
0
100
AcDbLine
10
42.325090192472921
20
22.389678891736438
30
0
11
44.825090192472899
21
22.389678891736438
31
0
0
LINE
5
516
100
AcDbEntity
8
0
100
AcDbLine
10
66.825090192472842
20
22.389678891736438
30
0
11
69.325090192472828
21
22.389678891736434
31
0
0
LINE
5
517
100
AcDbEntity
8
0
100
AcDbLine
10
24.82509019247297
20
22.389678891736438
30
0
11
27.32509019247296
21
22.389678891736438
31
0
0
LINE
5
518
100
AcDbEntity
8
0
100
AcDbLine
10
31.825090192472953
20
22.389678891736438
30
0
11
34.325090192472942
21
22.389678891736438
31
0
0
LINE
5
519
100
AcDbEntity
8
0
100
AcDbLine
10
35.325090192472942
20
22.389678891736438
30
0
11
37.825090192472935
21
22.389678891736438
31
0
0
LINE
5
520
100
AcDbEntity
8
0
100
AcDbLine
10
94.825090192472743
20
22.389678891736434
30
0
11
97.325090192472743
21
22.389678891736434
31
0
0
LINE
5
521
100
AcDbEntity
8
0
100
AcDbLine
10
80.8250901924728
20
22.389678891736434
30
0
11
83.3250901924728
21
22.389678891736434
31
0
0
LINE
5
522
100
AcDbEntity
8
0
100
AcDbLine
10
56.325090192472871
20
22.389678891736438
30
0
11
58.825090192472857
21
22.389678891736438
31
0
0
LINE
5
523
100
AcDbEntity
8
0
100
AcDbLine
10
63.325090192472842
20
22.389678891736438
30
0
11
65.825090192472842
21
22.389678891736438
31
0
0
LINE
5
524
100
AcDbEntity
8
0
100
AcDbLine
10
49.325090192472899
20
22.389678891736438
30
0
11
51.825090192472899
21
22.389678891736438
31
0
0
LINE
5
525
100
AcDbEntity
8
0
100
AcDbLine
10
73.825090192472814
20
22.389678891736434
30
0
11
76.325090192472814
21
22.389678891736434
31
0
0
LINE
5
526
100
AcDbEntity
8
0
100
AcDbLine
10
20.325090192472981
20
42.259136006975638
30
0
11
22.825090192472981
21
42.259136006975638
31
0
0
LINE
5
527
100
AcDbEntity
8
0
100
AcDbLine
10
23.825090192472981
20
42.259136006975638
30
0
11
26.325090192472981
21
42.259136006975638
31
0
0
LINE
5
528
100
AcDbEntity
8
0
100
AcDbLine
10
27.325090192472985
20
42.259136006975638
30
0
11
29.825090192472985
21
42.259136006975638
31
0
0
LINE
5
529
100
AcDbEntity
8
0
100
AcDbLine
10
50.810271123975355
20
42.259136006975673
30
0
11
53.310271123975355
21
42.259136006975673
31
0
0
LINE
5
530
100
AcDbEntity
8
0
100
AcDbLine
10
54.310271123975355
20
42.259136006975673
30
0
11
56.810271123975355
21
42.259136006975673
31
0
0
LINE
5
531
100
AcDbEntity
8
0
100
AcDbLine
10
57.810271123975348
20
42.259136006975673
30
0
11
60.310271123975348
21
42.259136006975673
31
0
0
LINE
5
532
100
AcDbEntity
8
0
100
AcDbLine
10
61.31027112397534
20
42.259136006975673
30
0
11
63.81027112397534
21
42.259136006975673
31
0
0
LINE
5
533
100
AcDbEntity
8
0
100
AcDbLine
10
64.81027112397534
20
42.259136006975673
30
0
11
67.31027112397534
21
42.259136006975673
31
0
0
LINE
5
534
100
AcDbEntity
8
0
100
AcDbLine
10
68.31027112397534
20
42.259136006975673
30
0
11
70.81027112397534
21
42.259136006975673
31
0
0
LINE
5
535
100
AcDbEntity
8
0
100
AcDbLine
10
89.310271123975312
20
42.259136006975673
30
0
11
91.810271123975312
21
42.259136006975673
31
0
0
LINE
5
536
100
AcDbEntity
8
0
100
AcDbLine
10
78.810271123975326
20
42.259136006975673
30
0
11
81.310271123975326
21
42.259136006975673
31
0
0
LINE
5
537
100
AcDbEntity
8
0
100
AcDbLine
10
82.310271123975326
20
42.259136006975673
30
0
11
84.810271123975326
21
42.259136006975673
31
0
0
LINE
5
538
100
AcDbEntity
8
0
100
AcDbLine
10
85.810271123975326
20
42.259136006975673
30
0
11
88.310271123975326
21
42.259136006975673
31
0
0
LINE
5
539
100
AcDbEntity
8
0
100
AcDbLine
10
75.310271123975326
20
42.259136006975673
30
0
11
77.810271123975326
21
42.259136006975673
31
0
0
LINE
5
540
100
AcDbEntity
8
0
100
AcDbLine
10
71.810271123975326
20
42.259136006975673
30
0
11
74.310271123975326
21
42.259136006975673
31
0
0
LINE
5
541
100
AcDbEntity
8
0
100
AcDbLine
10
99.810271123975298
20
42.259136006975673
30
0
11
102.3102711239753
21
42.259136006975673
31
0
0
LINE
5
542
100
AcDbEntity
8
0
100
AcDbLine
10
103.31027112397528
20
42.259136006975673
30
0
11
105.81027112397528
21
42.259136006975673
31
0
0
LINE
5
543
100
AcDbEntity
8
0
100
AcDbLine
10
96.310271123975312
20
42.259136006975673
30
0
11
98.810271123975312
21
42.259136006975673
31
0
0
LINE
5
544
100
AcDbEntity
8
0
100
AcDbLine
10
92.810271123975312
20
42.259136006975673
30
0
11
95.310271123975312
21
42.259136006975673
31
0
0
LINE
5
545
100
AcDbEntity
8
0
100
AcDbLine
10
108.1404471877274
20
20.888494996363647
30
0
11
108.1404471877274
21
18.888494996363651
31
0
0
LINE
5
546
100
AcDbEntity
8
0
100
AcDbLine
10
108.1404471877274
20
17.388494996363647
30
0
11
108.1404471877274
21
15.388494996363649
31
0
0
LINE
5
547
100
AcDbEntity
8
0
100
AcDbLine
10
108.1404471877274
20
13.888494996363647
30
0
11
108.1404471877274
21
11.888494996363647
31
0
0
LINE
5
548
100
AcDbEntity
8
0
100
AcDbLine
10
108.1404471877274
20
10.388494996363647
30
0
11
108.1404471877274
21
8.3884949963636473
31
0
0
LINE
5
549
100
AcDbEntity
8
0
100
AcDbLine
10
108.1404471877274
20
-0.11150500363635407
30
0
11
108.1404471877274
21
-2.1115050036363536
31
0
0
LINE
5
550
100
AcDbEntity
8
0
100
AcDbLine
10
108.1404471877274
20
3.3884949963636468
30
0
11
108.1404471877274
21
1.3884949963636473
31
0
0
LINE
5
551
100
AcDbEntity
8
0
100
AcDbLine
10
108.1404471877274
20
6.8884949963636473
30
0
11
108.1404471877274
21
4.8884949963636481
31
0
0
LINE
5
552
100
AcDbEntity
8
0
100
AcDbLine
10
108.1404471877274
20
-3.611505003636355
30
0
11
108.1404471877274
21
-5.6115050036363545
31
0
0
LINE
5
553
100
AcDbEntity
8
0
100
AcDbLine
10
108.1404471877274
20
-14.111505003636356
30
0
11
108.1404471877274
21
-16.111505003636356
31
0
0
LINE
5
554
100
AcDbEntity
8
0
100
AcDbLine
10
108.1404471877274
20
-10.611505003636355
30
0
11
108.1404471877274
21
-12.611505003636355
31
0
0
LINE
5
555
100
AcDbEntity
8
0
100
AcDbLine
10
108.1404471877274
20
-7.1115050036363536
30
0
11
108.1404471877274
21
-9.1115050036363527
31
0
0
LINE
5
556
100
AcDbEntity
8
0
100
AcDbLine
10
109.6404471877274
20
-17.000000253319769
30
0
11
111.6404471877274
21
-17.000000253319765
31
0
0
LINE
5
557
100
AcDbEntity
8
0
100
AcDbLine
10
113.1404471877274
20
-17.000000253319762
30
0
11
115.14044718772739
21
-17.000000253319755
31
0
0
LINE
5
558
100
AcDbEntity
8
0
100
AcDbLine
10
116.6404471877274
20
-17.000000253319751
30
0
11
118.64044718772739
21
-17.000000253319747
31
0
0
LINE
5
559
100
AcDbEntity
8
0
100
AcDbLine
10
120.14044718772739
20
-17.000000253319744
30
0
11
122.14044718772739
21
-17.000000253319737
31
0
0
LINE
5
560
100
AcDbEntity
8
0
100
AcDbLine
10
123.64044718772739
20
-17.000000253319733
30
0
11
125.64044718772737
21
-17.00000025331973
31
0
0
LINE
5
561
100
AcDbEntity
8
0
100
AcDbLine
10
127.14044718772739
20
-17.000000253319726
30
0
11
127.69862560421655
21
-17.000000253319715
31
0
0
LINE
5
562
100
AcDbEntity
8
0
100
AcDbLine
10
109.64044718772737
20
22.388494996363626
30
0
11
111.64044718772736
21
22.388494996363626
31
0
0
LINE
5
563
100
AcDbEntity
8
0
100
AcDbLine
10
113.14044718772736
20
22.388494996363633
30
0
11
115.14044718772736
21
22.388494996363633
31
0
0
LINE
5
564
100
AcDbEntity
8
0
100
AcDbLine
10
116.64044718772736
20
22.388494996363644
30
0
11
118.64044718772735
21
22.388494996363644
31
0
0
LINE
5
565
100
AcDbEntity
8
0
100
AcDbLine
10
120.14044718772736
20
22.388494996363654
30
0
11
122.14044718772735
21
22.388494996363654
31
0
0
LINE
5
566
100
AcDbEntity
8
0
100
AcDbLine
10
123.64044718772735
20
22.388494996363661
30
0
11
125.64044718772735
21
22.388494996363661
31
0
0
LINE
5
567
100
AcDbEntity
8
0
100
AcDbLine
10
127.14044718772735
20
22.388494996363665
30
0
11
127.6986256042165
21
22.388494996363679
31
0
0
ENDSEC
0
SECTION
2
OBJECTS
0
DICTIONARY
5
C
100
AcDbDictionary
3
ACAD_GROUP
350
D
3
ACAD_MLINESTYLE
350
17
0
DICTIONARY
5
D
100
AcDbDictionary
0
DICTIONARY
5
1A
330
C
100
AcDbDictionary
0
DICTIONARY
5
17
100
AcDbDictionary
0
ENDSEC
0
EOF
