0
SECTION
2
HEADER
9
$INSUNITS
70
4
9
$ACADVER
1
AC1014
9
$HANDSEED
5
FFFF
0
ENDSEC
0
SECTION
2
TABLES
0
TABLE
2
VPORT
5
8
100
AcDbSymbolTable
0
ENDTAB
0
TABLE
2
LTYPE
5
5
100
AcDbSymbolTable
0
LTYPE
5
14
100
AcDbSymbolTableRecord
100
AcDbLinetypeTableRecord
2
BYBLOCK
70
0
0
LTYPE
5
15
100
AcDbSymbolTableRecord
100
AcDbLinetypeTableRecord
2
BYLAYER
70
0
0
LTYPE
5
16
100
AcDbSymbolTableRecord
100
AcDbLinetypeTableRecord
2
DASHED
70
0
3
Dashed __ __ __ __ __ __ __ __ __ __ __ __ __ _
72
65
73
2
40
0.75
49
0.5
74
0
49
-0.25
74
0
0
ENDTAB
0
TABLE
2
LAYER
5
2
100
AcDbSymbolTable
70
2
0
LAYER
5
50
100
AcDbSymbolTableRecord
100
AcDbLayerTableRecord
2
0
70
0
62
7
6
CONTINUOUS
0
ENDTAB
0
TABLE
2
STYLE
5
3
100
AcDbSymbolTable
70
1
0
STYLE
5
11
100
AcDbSymbolTableRecord
100
AcDbTextStyleTableRecord
2
STANDARD
70
0
0
ENDTAB
0
TABLE
2
VIEW
5
6
100
AcDbSymbolTable
70
0
0
ENDTAB
0
TABLE
2
UCS
5
7
100
AcDbSymbolTable
70
0
0
ENDTAB
0
TABLE
2
APPID
5
9
100
AcDbSymbolTable
70
2
0
APPID
5
12
100
AcDbSymbolTableRecord
100
AcDbRegAppTableRecord
2
ACAD
70
0
0
ENDTAB
0
TABLE
2
DIMSTYLE
5
A
100
AcDbSymbolTable
70
1
0
ENDTAB
0
TABLE
2
BLOCK_RECORD
5
1
100
AcDbSymbolTable
70
1
0
BLOCK_RECORD
5
1F
100
AcDbSymbolTableRecord
100
AcDbBlockTableRecord
2
*MODEL_SPACE
0
BLOCK_RECORD
5
1B
100
AcDbSymbolTableRecord
100
AcDbBlockTableRecord
2
*PAPER_SPACE
0
ENDTAB
0
ENDSEC
0
SECTION
2
BLOCKS
0
BLOCK
5
20
100
AcDbEntity
100
AcDbBlockBegin
2
*MODEL_SPACE
0
ENDBLK
5
21
100
AcDbEntity
100
AcDbBlockEnd
0
BLOCK
5
1C
100
AcDbEntity
100
AcDbBlockBegin
2
*PAPER_SPACE
0
ENDBLK
5
1D
100
AcDbEntity
100
AcDbBlockEnd
0
ENDSEC
0
SECTION
2
ENTITIES
0
POINT
5
100
100
AcDbEntity
8
0
100
AcDbPoint
10
0
20
-16.597312474831945
30
0
0
POINT
5
101
100
AcDbEntity
8
0
100
AcDbPoint
10
0
20
0
30
0
0
LINE
5
102
100
AcDbEntity
8
0
100
AcDbLine
10
-5.1086533964155789
20
7.5585413014026459
30
0
11
-14.503865745311884
21
7.5585413014026335
31
0
0
SPLINE
5
103
100
AcDbEntity
8
0
100
AcDbSpline
70
4
71
5
72
21
73
15
74
0
42
0.000000001
43
0.0000000001
44
0.0000000001
40
0.057101451489431888
40
0.057101451489431888
40
0.057101451489431888
40
0.057101451489431888
40
0.057101451489431888
40
0.057101451489431888
40
0.10000000000000001
40
0.20000000000000001
40
0.30000000000000004
40
0.40000000000000002
40
0.5
40
0.59999999999999998
40
0.69999999999999996
40
0.79999999999999993
40
0.89999999999999991
40
1
40
1
40
1
40
1
40
1
40
1
41
1
41
1
41
1
41
1
41
1
41
1
41
1
41
1
41
1
41
1
41
1
41
1
41
1
41
1
41
1
10
-14.869827217946931
20
8.3992350062854566
30
0
10
-14.755262415074695
20
8.5222965814587592
30
0
10
-14.372291263453835
20
8.9281346376317359
30
0
10
-13.713663995651631
20
9.5947275818802797
30
0
10
-12.76519016733933
20
10.47897110895304
30
0
10
-11.504152976538457
20
11.511861603167347
30
0
10
-10.028795698037481
20
12.520759892453315
30
0
10
-8.4972341451957547
20
13.358934408646448
30
0
10
-6.9066018333300292
20
14.017678036737536
30
0
10
-5.2586586919490221
20
14.502336665621815
30
0
10
-3.557493866687846
20
14.825331314513592
30
0
10
-2.1573571489887837
20
14.964639984235724
30
0
10
-1.0865859117766414
20
15.006339103709125
30
0
10
-0.36370147906553751
20
15.00668827872952
30
0
10
0
20
15.000000223517418
30
0
0
ARC
5
104
100
AcDbEntity
8
0
100
AcDbCircle
10
-14.503865745311884
20
8.0585413014026326
30
0
40
0.49999999999999933
210
0
220
0
230
1
100
AcDbArc
50
137.047844504571
51
270
0
SPLINE
5
105
100
AcDbEntity
8
0
100
AcDbSpline
70
4
71
5
72
68
73
62
74
0
42
0.000000001
43
0.0000000001
44
0.0000000001
40
0.059835159374459927
40
0.059835159374459927
40
0.059835159374459927
40
0.059835159374459927
40
0.059835159374459927
40
0.059835159374459927
40
0.066666666666666666
40
0.083333333333333329
40
0.099999999999999992
40
0.11666666666666665
40
0.13333333333333333
40
0.14999999999999999
40
0.16666666666666666
40
0.18333333333333332
40
0.19999999999999998
40
0.21666666666666665
40
0.23333333333333331
40
0.24999999999999997
40
0.26666666666666666
40
0.28333333333333333
40
0.29999999999999999
40
0.31666666666666665
40
0.33333333333333331
40
0.34999999999999998
40
0.36666666666666664
40
0.3833333333333333
40
0.39999999999999997
40
0.41666666666666663
40
0.43333333333333329
40
0.44999999999999996
40
0.46666666666666662
40
0.48333333333333328
40
0.49999999999999994
40
0.51666666666666661
40
0.53333333333333333
40
0.55000000000000004
40
0.56666666666666676
40
0.58333333333333348
40
0.6000000000000002
40
0.61666666666666692
40
0.63333333333333364
40
0.65000000000000036
40
0.66666666666666707
40
0.68333333333333379
40
0.70000000000000051
40
0.71666666666666723
40
0.73333333333333395
40
0.75000000000000067
40
0.76666666666666738
40
0.7833333333333341
40
0.80000000000000082
40
0.81666666666666754
40
0.83333333333333426
40
0.85000000000000098
40
0.8666666666666677
40
0.88333333333333441
40
0.90000000000000113
40
0.91666666666666785
40
0.93333333333333457
40
0.95000000000000129
40
0.96666666666666801
40
0.98333333333333472
40
1
40
1
40
1
40
1
40
1
40
1
41
1
41
1
41
1
41
1
41
1
41
1
41
1
41
1
41
1
41
1
41
1
41
1
41
1
41
1
41
1
41
1
41
1
41
1
41
1
41
1
41
1
41
1
41
1
41
1
41
1
41
1
41
1
41
1
41
1
41
1
41
1
41
1
41
1
41
1
41
1
41
1
41
1
41
1
41
1
41
1
41
1
41
1
41
1
41
1
41
1
41
1
41
1
41
1
41
1
41
1
41
1
41
1
41
1
41
1
41
1
41
1
41
1
41
1
41
1
41
1
41
1
41
1
10
-3.1133967373018443
20
5.4208791633170552
30
0
10
-3.117313923700328
20
5.3641039863687476
30
0
10
-3.1310231851329746
20
5.1672632873914655
30
0
10
-3.1558048912186374
20
4.8216948927052874
30
0
10
-3.1938042553793498
20
4.3108214857062341
30
0
10
-3.2468672728603867
20
3.6106427653814253
30
0
10
-3.3087549158365142
20
2.7659049777228351
30
0
10
-3.3683445130909955
20
1.8730016754480097
30
0
10
-3.4215332748281231
20
0.93606239995737472
30
0
10
-3.4646189900590496
20
-0.038983980211809793
30
0
10
-3.494795149968231
20
-1.0439743642185109
30
0
10
-3.5105814616882762
20
-2.0682323252572861
30
0
10
-3.5124348124048965
20
-3.0978878684759845
30
0
10
-3.502643747687916
20
-4.1167659041874742
30
0
10
-3.4846565911130414
20
-5.1084896932462218
30
0
10
-3.462575496998515
20
-6.0582676547489456
30
0
10
-3.4405827769190616
20
-6.9547387797514624
30
0
10
-3.4223994547887573
20
-7.7919692980984383
30
0
10
-3.4107232333830528
20
-8.5709960068210425
30
0
10
-3.4066885217321201
20
-9.302577299486515
30
0
10
-3.4092615083282185
20
-10.004862859740285
30
0
10
-3.4146530439197305
20
-10.697849306460958
30
0
10
-3.4156279873359341
20
-11.398673572332971
30
0
10
-3.4010564364742586
20
-12.116847436761605
30
0
10
-3.3548651561132052
20
-12.8488146808122
30
0
10
-3.2567435839863235
20
-13.57491996078539
30
0
10
-3.0887313554419049
20
-14.265100774438274
30
0
10
-2.841069329179065
20
-14.883147090467141
30
0
10
-2.517911611178727
20
-15.391499910998419
30
0
10
-2.1441580286163173
20
-15.755839121176651
30
0
10
-1.7687547988245251
20
-15.949713327598257
30
0
10
-1.4438045167221292
20
-15.959349893716315
30
0
10
-1.2071030345995184
20
-15.788099059172517
30
0
10
-1.0616048449620501
20
-15.46195089880699
30
0
10
-0.988172361954336
20
-15.017943423164407
30
0
10
-0.96058053221591377
20
-14.491279815841393
30
0
10
-0.95962330566781029
20
-13.902993756098533
30
0
10
-0.97192171315571141
20
-13.263023710367413
30
0
10
-0.98865825291597387
20
-12.573306495541916
30
0
10
-1.0043930191675494
20
-11.830779042736857
30
0
10
-1.0157655338435974
20
-11.030558355949278
30
0
10
-1.0205189030139348
20
-10.168574092358064
30
0
10
-1.0175671416775243
20
-9.2423779030700732
30
0
10
-1.0068941105617677
20
-8.2522654652450136
30
0
10
-0.989517066727018
20
-7.2022648451352831
30
0
10
-0.96743326114371631
20
-6.101226345489442
30
0
10
-0.94355615271082482
20
-4.9637923573037126
30
0
10
-0.92170498364290876
20
-3.8116352117492296
30
0
10
-0.90643482657660479
20
-2.6739892746577847
30
0
10
-0.90181962738492039
20
-1.5836008470696381
30
0
10
-0.91034203008180758
20
-0.573166805972258
30
0
10
-0.93175329695395093
20
0.32838379665793405
30
0
10
-0.96190982792719637
20
1.0996154485348428
30
0
10
-0.99168550941351896
20
1.7301644097585809
30
0
10
-1.0056683349519622
20
2.2247787781308968
30
0
10
-0.98145523161570236
20
2.6060744038778787
30
0
10
-0.89540483532007042
20
2.9037472133368478
30
0
10
-0.72750345933826788
20
3.1455002555045963
30
0
10
-0.51940171964498805
20
3.3058926182140991
30
0
10
-0.32036685155427908
20
3.4097334829441213
30
0
10
-0.16858598948638803
20
3.4716627049091309
30
0
10
-0.087923217872103165
20
3.5008021594052483
30
0
0
ARC
5
106
100
AcDbEntity
8
0
100
AcDbCircle
10
-5.1086533964155789
20
5.558541301402645
30
0
40
2.0000000000000009
210
0
220
0
230
1
100
AcDbArc
50
-3.9468504574771139
51
90
0
LINE
5
107
100
AcDbEntity
8
0
100
AcDbLine
10
-0.11947369583048185
20
3.4891832275412655
30
0
11
0
21
3.4891832275412655
31
0
0
LINE
5
108
100
AcDbEntity
8
0
100
AcDbLine
10
0.11947369583048185
20
3.489183227541266
30
0
11
0
21
3.489183227541266
31
0
0
SPLINE
5
109
100
AcDbEntity
8
0
100
AcDbSpline
70
4
71
5
72
21
73
15
74
0
42
0.000000001
43
0.0000000001
44
0.0000000001
40
0.057101451489431888
40
0.057101451489431888
40
0.057101451489431888
40
0.057101451489431888
40
0.057101451489431888
40
0.057101451489431888
40
0.10000000000000001
40
0.20000000000000001
40
0.30000000000000004
40
0.40000000000000002
40
0.5
40
0.59999999999999998
40
0.69999999999999996
40
0.79999999999999993
40
0.89999999999999991
40
1
40
1
40
1
40
1
40
1
40
1
41
1
41
1
41
1
41
1
41
1
41
1
41
1
41
1
41
1
41
1
41
1
41
1
41
1
41
1
41
1
10
14.869827217946931
20
8.3992350062854566
30
0
10
14.755262415074695
20
8.5222965814587592
30
0
10
14.372291263453835
20
8.9281346376317359
30
0
10
13.713663995651631
20
9.5947275818802797
30
0
10
12.76519016733933
20
10.47897110895304
30
0
10
11.504152976538457
20
11.511861603167347
30
0
10
10.028795698037481
20
12.520759892453315
30
0
10
8.4972341451957547
20
13.358934408646448
30
0
10
6.9066018333300292
20
14.017678036737536
30
0
10
5.2586586919490221
20
14.502336665621815
30
0
10
3.557493866687846
20
14.825331314513592
30
0
10
2.1573571489887837
20
14.964639984235724
30
0
10
1.0865859117766414
20
15.006339103709125
30
0
10
0.36370147906553751
20
15.00668827872952
30
0
10
0
20
15.000000223517418
30
0
0
ARC
5
110
100
AcDbEntity
8
0
100
AcDbCircle
10
14.503865745311884
20
8.0585413014026326
30
0
40
0.49999999999999933
210
0
220
0
230
1
100
AcDbArc
50
-90
51
42.952155495429011
0
LINE
5
111
100
AcDbEntity
8
0
100
AcDbLine
10
5.1086533964155789
20
7.5585413014026459
30
0
11
14.503865745311884
21
7.5585413014026335
31
0
0
SPLINE
5
112
100
AcDbEntity
8
0
100
AcDbSpline
70
4
71
5
72
68
73
62
74
0
42
0.000000001
43
0.0000000001
44
0.0000000001
40
0.059835159374459927
40
0.059835159374459927
40
0.059835159374459927
40
0.059835159374459927
40
0.059835159374459927
40
0.059835159374459927
40
0.066666666666666666
40
0.083333333333333329
40
0.099999999999999992
40
0.11666666666666665
40
0.13333333333333333
40
0.14999999999999999
40
0.16666666666666666
40
0.18333333333333332
40
0.19999999999999998
40
0.21666666666666665
40
0.23333333333333331
40
0.24999999999999997
40
0.26666666666666666
40
0.28333333333333333
40
0.29999999999999999
40
0.31666666666666665
40
0.33333333333333331
40
0.34999999999999998
40
0.36666666666666664
40
0.3833333333333333
40
0.39999999999999997
40
0.41666666666666663
40
0.43333333333333329
40
0.44999999999999996
40
0.46666666666666662
40
0.48333333333333328
40
0.49999999999999994
40
0.51666666666666661
40
0.53333333333333333
40
0.55000000000000004
40
0.56666666666666676
40
0.58333333333333348
40
0.6000000000000002
40
0.61666666666666692
40
0.63333333333333364
40
0.65000000000000036
40
0.66666666666666707
40
0.68333333333333379
40
0.70000000000000051
40
0.71666666666666723
40
0.73333333333333395
40
0.75000000000000067
40
0.76666666666666738
40
0.7833333333333341
40
0.80000000000000082
40
0.81666666666666754
40
0.83333333333333426
40
0.85000000000000098
40
0.8666666666666677
40
0.88333333333333441
40
0.90000000000000113
40
0.91666666666666785
40
0.93333333333333457
40
0.95000000000000129
40
0.96666666666666801
40
0.98333333333333472
40
1
40
1
40
1
40
1
40
1
40
1
41
1
41
1
41
1
41
1
41
1
41
1
41
1
41
1
41
1
41
1
41
1
41
1
41
1
41
1
41
1
41
1
41
1
41
1
41
1
41
1
41
1
41
1
41
1
41
1
41
1
41
1
41
1
41
1
41
1
41
1
41
1
41
1
41
1
41
1
41
1
41
1
41
1
41
1
41
1
41
1
41
1
41
1
41
1
41
1
41
1
41
1
41
1
41
1
41
1
41
1
41
1
41
1
41
1
41
1
41
1
41
1
41
1
41
1
41
1
41
1
41
1
41
1
10
3.1133967373018443
20
5.4208791633170552
30
0
10
3.117313923700328
20
5.3641039863687476
30
0
10
3.1310231851329746
20
5.1672632873914655
30
0
10
3.1558048912186374
20
4.8216948927052874
30
0
10
3.1938042553793498
20
4.3108214857062341
30
0
10
3.2468672728603867
20
3.6106427653814253
30
0
10
3.3087549158365142
20
2.7659049777228351
30
0
10
3.3683445130909955
20
1.8730016754480097
30
0
10
3.4215332748281231
20
0.93606239995737472
30
0
10
3.4646189900590496
20
-0.038983980211809793
30
0
10
3.494795149968231
20
-1.0439743642185109
30
0
10
3.5105814616882762
20
-2.0682323252572861
30
0
10
3.5124348124048965
20
-3.0978878684759845
30
0
10
3.502643747687916
20
-4.1167659041874742
30
0
10
3.4846565911130414
20
-5.1084896932462218
30
0
10
3.462575496998515
20
-6.0582676547489456
30
0
10
3.4405827769190616
20
-6.9547387797514624
30
0
10
3.4223994547887573
20
-7.7919692980984383
30
0
10
3.4107232333830528
20
-8.5709960068210425
30
0
10
3.4066885217321201
20
-9.302577299486515
30
0
10
3.4092615083282185
20
-10.004862859740285
30
0
10
3.4146530439197305
20
-10.697849306460958
30
0
10
3.4156279873359341
20
-11.398673572332971
30
0
10
3.4010564364742586
20
-12.116847436761605
30
0
10
3.3548651561132052
20
-12.8488146808122
30
0
10
3.2567435839863235
20
-13.57491996078539
30
0
10
3.0887313554419049
20
-14.265100774438274
30
0
10
2.841069329179065
20
-14.883147090467141
30
0
10
2.517911611178727
20
-15.391499910998419
30
0
10
2.1441580286163173
20
-15.755839121176651
30
0
10
1.7687547988245251
20
-15.949713327598257
30
0
10
1.4438045167221292
20
-15.959349893716315
30
0
10
1.2071030345995184
20
-15.788099059172517
30
0
10
1.0616048449620501
20
-15.46195089880699
30
0
10
0.988172361954336
20
-15.017943423164407
30
0
10
0.96058053221591377
20
-14.491279815841393
30
0
10
0.95962330566781029
20
-13.902993756098533
30
0
10
0.97192171315571141
20
-13.263023710367413
30
0
10
0.98865825291597387
20
-12.573306495541916
30
0
10
1.0043930191675494
20
-11.830779042736857
30
0
10
1.0157655338435974
20
-11.030558355949278
30
0
10
1.0205189030139348
20
-10.168574092358064
30
0
10
1.0175671416775243
20
-9.2423779030700732
30
0
10
1.0068941105617677
20
-8.2522654652450136
30
0
10
0.989517066727018
20
-7.2022648451352831
30
0
10
0.96743326114371631
20
-6.101226345489442
30
0
10
0.94355615271082482
20
-4.9637923573037126
30
0
10
0.92170498364290876
20
-3.8116352117492296
30
0
10
0.90643482657660479
20
-2.6739892746577847
30
0
10
0.90181962738492039
20
-1.5836008470696381
30
0
10
0.91034203008180758
20
-0.573166805972258
30
0
10
0.93175329695395093
20
0.32838379665793405
30
0
10
0.96190982792719637
20
1.0996154485348428
30
0
10
0.99168550941351896
20
1.7301644097585809
30
0
10
1.0056683349519622
20
2.2247787781308968
30
0
10
0.98145523161570236
20
2.6060744038778787
30
0
10
0.89540483532007042
20
2.9037472133368478
30
0
10
0.72750345933826788
20
3.1455002555045963
30
0
10
0.51940171964498805
20
3.3058926182140991
30
0
10
0.32036685155427908
20
3.4097334829441213
30
0
10
0.16858598948638803
20
3.4716627049091309
30
0
10
0.087923217872103165
20
3.5008021594052483
30
0
0
ARC
5
113
100
AcDbEntity
8
0
100
AcDbCircle
10
5.1086533964155789
20
5.558541301402645
30
0
40
2.0000000000000009
210
0
220
-0
230
1
100
AcDbArc
50
90
51
183.94685045747707
0
LINE
5
114
100
AcDbEntity
8
0
100
AcDbLine
10
-1.4320560311997079
20
9.8422969114681074
30
0
11
4.7591996364951825
21
9.8422969114681074
31
0
6
DASHED
0
LINE
5
115
100
AcDbEntity
8
0
100
AcDbLine
10
4.7591996364951825
20
9.8422969114681074
30
0
11
4.7591996364951843
21
13.013427863214268
31
0
6
DASHED
0
LINE
5
116
100
AcDbEntity
8
0
100
AcDbLine
10
4.7591996364951843
20
13.013427863214268
30
0
11
-1.4320560311997075
21
13.013427863214268
31
0
6
DASHED
0
LINE
5
117
100
AcDbEntity
8
0
100
AcDbLine
10
-1.4320560311997075
20
13.013427863214268
30
0
11
-1.4320560311997079
21
9.8422969114681074
31
0
6
DASHED
0
LINE
5
118
100
AcDbEntity
8
0
100
AcDbLine
10
-1.432056031199707
20
12.423386881444706
30
0
11
-1.4320560311997068
21
13.013427863214268
31
0
0
LINE
5
119
100
AcDbEntity
8
0
100
AcDbLine
10
-1.4320560311997068
20
13.013427863214268
30
0
11
1.8046425888216364
21
13.013427863214268
31
0
0
LINE
5
120
100
AcDbEntity
8
0
100
AcDbLine
10
1.8046425888216364
20
13.013427863214268
30
0
11
1.8046425888216362
21
12.535938034150853
31
0
0
SPLINE
5
121
100
AcDbEntity
8
0
100
AcDbSpline
70
0
71
2
72
6
73
3
74
0
42
0.000000001
43
0.0000000001
44
0.0000000001
40
0
40
0
40
0
40
1
40
1
40
1
10
1.8046425888216364
20
12.535938034150853
30
0
10
1.3271527597582209
20
12.027752707097783
30
0
10
0.8564840862429004
20
11.185324201677098
30
0
0
SPLINE
5
122
100
AcDbEntity
8
0
100
AcDbSpline
70
0
71
2
72
6
73
3
74
0
42
0.000000001
43
0.0000000001
44
0.0000000001
40
0
40
0
40
0
40
1
40
1
40
1
10
0.8564840862429004
20
11.185324201677098
30
0
10
0.38922643753646402
20
10.342895994279637
30
0
10
0.13342833611129284
20
9.4527185059526104
30
0
0
SPLINE
5
123
100
AcDbEntity
8
0
100
AcDbSpline
70
0
71
2
72
6
73
3
74
0
42
0.000000001
43
0.0000000001
44
0.0000000001
40
0
40
0
40
0
40
1
40
1
40
1
10
0.13342833611129284
20
9.4527185059526104
30
0
10
-0.050746290954366002
20
8.8251602745988507
30
0
10
-0.10190600064636762
20
8.0782300330140728
30
0
0
LINE
5
124
100
AcDbEntity
8
0
100
AcDbLine
10
-0.10190600064636762
20
8.0782300330140728
30
0
11
-0.73287458625675739
21
8.0782300330140728
31
0
0
SPLINE
5
125
100
AcDbEntity
8
0
100
AcDbSpline
70
0
71
2
72
6
73
3
74
0
42
0.000000001
43
0.0000000001
44
0.0000000001
40
0
40
0
40
0
40
1
40
1
40
1
10
-0.73287458625675739
20
8.0782300330140728
30
0
10
-0.72264262941719559
20
8.6682707167604107
30
0
10
-0.50095090177895063
20
9.5038780666329998
30
0
0
SPLINE
5
126
100
AcDbEntity
8
0
100
AcDbSpline
70
0
71
2
72
6
73
3
74
0
42
0.000000001
43
0.0000000001
44
0.0000000001
40
0
40
0
40
0
40
1
40
1
40
1
10
-0.50095090177895063
20
9.5038780666329998
30
0
10
-0.27925932315231772
20
10.339485118482365
30
0
10
0.1334283361112934
20
11.113700578305973
30
0
0
SPLINE
5
127
100
AcDbEntity
8
0
100
AcDbSpline
70
0
71
2
72
6
73
3
74
0
42
0.000000001
43
0.0000000001
44
0.0000000001
40
0
40
0
40
0
40
1
40
1
40
1
10
0.1334283361112934
20
11.113700578305973
30
0
10
0.54952657314895237
20
11.891326913926854
30
0
10
1.0167845198786127
20
12.423386881444706
30
0
0
LINE
5
128
100
AcDbEntity
8
0
100
AcDbLine
10
1.0167845198786127
20
12.423386881444706
30
0
11
-1.4320560311997068
21
12.423386881444706
31
0
0
ENDSEC
0
SECTION
2
OBJECTS
0
DICTIONARY
5
C
100
AcDbDictionary
3
ACAD_GROUP
350
D
3
ACAD_MLINESTYLE
350
17
0
DICTIONARY
5
D
100
AcDbDictionary
0
DICTIONARY
5
1A
330
C
100
AcDbDictionary
0
DICTIONARY
5
17
100
AcDbDictionary
0
ENDSEC
0
EOF
